<svg xmlns="http://www.w3.org/2000/svg" xmlns:xlink="http://www.w3.org/1999/xlink" viewBox="0 0 798.67 652"><defs><style>.cls-1{isolation:isolate;}.cls-2{fill:#fff;}.cls-3{fill:#eef2f4;}.cls-4{fill:#f1fafe;}.cls-5{fill:#e7eff3;}.cls-30,.cls-6{fill:#0071ce;}.cls-10,.cls-11,.cls-12,.cls-13,.cls-14,.cls-16,.cls-54,.cls-55,.cls-56,.cls-57,.cls-58,.cls-59,.cls-60,.cls-7,.cls-8,.cls-9{mix-blend-mode:multiply;}.cls-7{fill:url(#Degradado_sin_nombre_46);}.cls-8{fill:url(#Degradado_sin_nombre_47);}.cls-9{fill:url(#Degradado_sin_nombre_47-2);}.cls-10{fill:url(#Degradado_sin_nombre_46-2);}.cls-11{fill:url(#Degradado_sin_nombre_46-3);}.cls-12{fill:url(#Degradado_sin_nombre_46-4);}.cls-13{fill:url(#Degradado_sin_nombre_46-5);}.cls-14{fill:url(#Degradado_sin_nombre_46-6);}.cls-15,.cls-27{fill:#f57f20;}.cls-16{fill:url(#Degradado_sin_nombre_47-3);}.cls-17,.cls-19,.cls-20,.cls-53,.cls-61,.cls-62{fill:none;}.cls-17,.cls-19,.cls-20,.cls-61,.cls-62{stroke:#939598;}.cls-17,.cls-19,.cls-20,.cls-52,.cls-53,.cls-61,.cls-62{stroke-linecap:round;stroke-linejoin:round;}.cls-17,.cls-20{stroke-width:0.5px;}.cls-18{fill:#939598;}.cls-19{stroke-width:0.25px;}.cls-20,.cls-61{fill-rule:evenodd;}.cls-21,.cls-27,.cls-30,.cls-35,.cls-39,.cls-41,.cls-43{font-size:12px;}.cls-21,.cls-35,.cls-40,.cls-41,.cls-43,.cls-66{fill:#606161;}.cls-21,.cls-35,.cls-39,.cls-41,.cls-43,.cls-66{font-family:MyriadPro-Light, Myriad Pro;font-weight:300;}.cls-22{letter-spacing:0em;}.cls-23{letter-spacing:-0.02em;}.cls-24{letter-spacing:-0.01em;}.cls-25{letter-spacing:0.01em;}.cls-26{letter-spacing:-0.01em;}.cls-27,.cls-30{font-family:MyriadPro-Bold, Myriad Pro;font-weight:700;}.cls-28{letter-spacing:-0.02em;}.cls-29{letter-spacing:0em;}.cls-31{letter-spacing:0.01em;}.cls-32{letter-spacing:-0.03em;}.cls-33{letter-spacing:0.01em;}.cls-34{letter-spacing:0em;}.cls-35{letter-spacing:-0.01em;}.cls-36{letter-spacing:0em;}.cls-37{letter-spacing:0em;}.cls-38{letter-spacing:-0.01em;}.cls-39{fill:#58595b;}.cls-41{letter-spacing:0em;}.cls-42{letter-spacing:0em;}.cls-43{letter-spacing:0em;}.cls-44{letter-spacing:-0.01em;}.cls-45{letter-spacing:-0.01em;}.cls-46{letter-spacing:0.01em;}.cls-47{letter-spacing:0.02em;}.cls-48{letter-spacing:-0.01em;}.cls-49{letter-spacing:-0.01em;}.cls-50{letter-spacing:0.01em;}.cls-51{letter-spacing:0.02em;}.cls-52{stroke:#f57f20;fill:url(#Degradado_sin_nombre_27);}.cls-52,.cls-53{stroke-width:3px;}.cls-53{stroke:#0071ce;}.cls-54{fill:url(#Degradado_sin_nombre_43);}.cls-55{fill:url(#Degradado_sin_nombre_43-2);}.cls-56{fill:url(#Degradado_sin_nombre_54);}.cls-57{fill:url(#Degradado_sin_nombre_49);}.cls-58{fill:url(#Degradado_sin_nombre_47-4);}.cls-59{fill:url(#linear-gradient);}.cls-60{fill:url(#linear-gradient-2);}.cls-61,.cls-62{stroke-width:0.53px;}.cls-63{fill:#a6bdd1;}.cls-64{letter-spacing:-0.01em;}.cls-65{letter-spacing:-0.03em;}.cls-66{font-size:10.76px;}.cls-67{letter-spacing:-0.03em;}.cls-68{letter-spacing:-0.02em;}.cls-69{letter-spacing:0.01em;}.cls-70{letter-spacing:-0.01em;}.cls-71{letter-spacing:-0.02em;}.cls-72{letter-spacing:-0.01em;}.cls-73{letter-spacing:-0.01em;}.cls-74{letter-spacing:0em;}</style><linearGradient id="Degradado_sin_nombre_46" x1="197.13" y1="208.32" x2="357.07" y2="208.32" gradientUnits="userSpaceOnUse"><stop offset="0" stop-color="#fff"/><stop offset="0.15" stop-color="#fddfc8"/><stop offset="0.3" stop-color="#fac295"/><stop offset="0.46" stop-color="#f8aa6b"/><stop offset="0.61" stop-color="#f7974a"/><stop offset="0.75" stop-color="#f68a33"/><stop offset="0.89" stop-color="#f58225"/><stop offset="1" stop-color="#f57f20"/></linearGradient><linearGradient id="Degradado_sin_nombre_47" x1="243.96" y1="328.68" x2="357.07" y2="328.68" gradientUnits="userSpaceOnUse"><stop offset="0" stop-color="#fff"/><stop offset="0.13" stop-color="#fde8d7"/><stop offset="0.36" stop-color="#fac397"/><stop offset="0.58" stop-color="#f8a664"/><stop offset="0.76" stop-color="#f6913f"/><stop offset="0.91" stop-color="#f58428"/><stop offset="1" stop-color="#f57f20"/></linearGradient><linearGradient id="Degradado_sin_nombre_47-2" x1="243.96" y1="375.43" x2="357.07" y2="375.43" xlink:href="#Degradado_sin_nombre_47"/><linearGradient id="Degradado_sin_nombre_46-2" x1="197.13" y1="166.76" x2="357.2" y2="166.76" xlink:href="#Degradado_sin_nombre_46"/><linearGradient id="Degradado_sin_nombre_46-3" x1="197.13" y1="125.69" x2="357.2" y2="125.69" xlink:href="#Degradado_sin_nombre_46"/><linearGradient id="Degradado_sin_nombre_46-4" x1="449.17" y1="166.76" x2="609.04" y2="166.76" xlink:href="#Degradado_sin_nombre_46"/><linearGradient id="Degradado_sin_nombre_46-5" x1="449.04" y1="208.32" x2="609.04" y2="208.32" xlink:href="#Degradado_sin_nombre_46"/><linearGradient id="Degradado_sin_nombre_46-6" x1="449.17" y1="125.69" x2="609.04" y2="125.69" xlink:href="#Degradado_sin_nombre_46"/><linearGradient id="Degradado_sin_nombre_47-3" x1="430.56" y1="352.52" x2="474.32" y2="352.52" xlink:href="#Degradado_sin_nombre_47"/><linearGradient id="Degradado_sin_nombre_27" x1="53.67" y1="267.64" x2="53.67" y2="267.64" gradientUnits="userSpaceOnUse"><stop offset="0" stop-color="#f57f20"/><stop offset="0.29" stop-color="#f8a563"/><stop offset="0.78" stop-color="#fde5d2"/><stop offset="1" stop-color="#fff"/></linearGradient><linearGradient id="Degradado_sin_nombre_43" x1="245.49" y1="553.15" x2="353.33" y2="553.15" gradientUnits="userSpaceOnUse"><stop offset="0" stop-color="#fff"/><stop offset="0.19" stop-color="#d2e6f6"/><stop offset="0.63" stop-color="#63a8e1"/><stop offset="1" stop-color="#0071ce"/></linearGradient><linearGradient id="Degradado_sin_nombre_43-2" x1="474.18" y1="553.15" x2="612.87" y2="553.15" xlink:href="#Degradado_sin_nombre_43"/><linearGradient id="Degradado_sin_nombre_54" x1="473.32" y1="480.72" x2="607.86" y2="480.72" gradientUnits="userSpaceOnUse"><stop offset="0" stop-color="#fff"/><stop offset="0.04" stop-color="#dbebf8"/><stop offset="0.1" stop-color="#aed2ef"/><stop offset="0.16" stop-color="#84bbe7"/><stop offset="0.23" stop-color="#60a7e1"/><stop offset="0.31" stop-color="#4296db"/><stop offset="0.39" stop-color="#2a88d6"/><stop offset="0.48" stop-color="#177ed2"/><stop offset="0.59" stop-color="#0a77d0"/><stop offset="0.73" stop-color="#0272ce"/><stop offset="1" stop-color="#0071ce"/></linearGradient><linearGradient id="Degradado_sin_nombre_49" x1="473.32" y1="304.5" x2="607.99" y2="304.5" gradientUnits="userSpaceOnUse"><stop offset="0" stop-color="#fff"/><stop offset="0.11" stop-color="#fde1cb"/><stop offset="0.22" stop-color="#fbc79e"/><stop offset="0.33" stop-color="#f9b177"/><stop offset="0.45" stop-color="#f79f58"/><stop offset="0.57" stop-color="#f6913f"/><stop offset="0.7" stop-color="#f6872e"/><stop offset="0.84" stop-color="#f58123"/><stop offset="1" stop-color="#f57f20"/></linearGradient><linearGradient id="Degradado_sin_nombre_47-4" x1="473.32" y1="397.61" x2="607.99" y2="397.61" xlink:href="#Degradado_sin_nombre_47"/><linearGradient id="linear-gradient" x1="504.56" y1="408.66" x2="553.21" y2="516.39" xlink:href="#Degradado_sin_nombre_47"/><linearGradient id="linear-gradient-2" x1="460.94" y1="-10083.92" x2="532.82" y2="-9924.75" gradientTransform="matrix(1, 0, 0, -1, 0, -9563.54)" xlink:href="#Degradado_sin_nombre_54"/></defs><g class="cls-1"><g id="Layer_2" data-name="Layer 2"><g id="Layer_1-2" data-name="Layer 1"><path class="cls-2" d="M5.26,0A5.25,5.25,0,0,0,0,5.26V47.72H798.67V5.26A5.26,5.26,0,0,0,793.41,0Z"/><path class="cls-2" d="M0,632v14.74A5.25,5.25,0,0,0,5.26,652H793.41a5.26,5.26,0,0,0,5.26-5.26V632Z"/><rect class="cls-3" x="266.22" y="48" width="266.22" height="584"/><rect class="cls-4" x="532.44" y="48" width="266.22" height="584"/><rect class="cls-3" y="48" width="266.22" height="584"/><rect class="cls-5" y="48" width="266.22" height="584"/><circle class="cls-6" cx="245.21" cy="553.24" r="4.54"/><circle class="cls-6" cx="473.82" cy="553.15" r="4.54"/><path class="cls-7" d="M356.74,246.14l-6.68-2.74a.53.53,0,0,0-.69.68l.8,2a189.9,189.9,0,0,1-113.84-39.51C210.92,187,198.18,167.18,198.05,167a.5.5,0,0,0-.84.54c.13.2,12.94,20.14,38.47,39.81A191.06,191.06,0,0,0,350.2,247.09l-.83,2.07a.53.53,0,0,0,.69.69l6.68-2.74A.52.52,0,0,0,356.74,246.14Z"/><path class="cls-8" d="M356.74,307.67l-6.68-2.74a.53.53,0,0,0-.69.69l.88,2.2c-43.19.51-69.6,12.12-84.24,21.9-16.26,10.86-21.94,21.91-22,22a.5.5,0,0,0,.22.68.59.59,0,0,0,.22.05.49.49,0,0,0,.45-.28c.05-.1,5.62-10.92,21.66-21.64,14.5-9.69,40.69-21.2,83.55-21.73l-.75,1.88a.53.53,0,0,0,.69.68l6.68-2.74A.52.52,0,0,0,356.74,307.67Z"/><path class="cls-9" d="M356.74,395.4l-6.68-2.74a.53.53,0,0,0-.69.69l.8,2c-42.77-.54-68.95-12-83.47-21.68C250.6,363,245,352.1,244.91,352a.49.49,0,0,0-.67-.22.49.49,0,0,0-.22.67c0,.11,5.77,11.16,22.06,22,14.64,9.76,41,21.35,84.11,21.89l-.82,2.07a.53.53,0,0,0,.69.68l6.68-2.74A.52.52,0,0,0,356.74,395.4Z"/><path class="cls-10" d="M356.87,166.27l-6.67-2.73a.52.52,0,0,0-.69.68l.8,2H197.63a.5.5,0,0,0,0,1H350.31l-.8,2a.52.52,0,0,0,.69.68l6.67-2.73A.53.53,0,0,0,356.87,166.27Z"/><path class="cls-11" d="M356.87,86.9l-6.67-2.74a.53.53,0,0,0-.69.69l.82,2.07a191,191,0,0,0-114.65,39.76c-25.53,19.67-38.34,39.61-38.47,39.81a.5.5,0,0,0,.15.69.47.47,0,0,0,.27.08.48.48,0,0,0,.42-.23c.13-.2,12.87-20,38.28-39.58a190,190,0,0,1,114-39.53l-.79,2a.52.52,0,0,0,.69.68l6.67-2.73A.53.53,0,0,0,356.87,86.9Z"/><path class="cls-12" d="M608.54,166.26H530.33l-6.64-2.72a.53.53,0,0,0-.69.68l.81,2H456.55l-6.65-2.72a.53.53,0,0,0-.69.68l.93,2.35a.53.53,0,0,1,0,.39l-.93,2.34a.53.53,0,0,0,.69.68l6.65-2.72h67.26l-.81,2a.53.53,0,0,0,.69.68l6.64-2.72h78.21a.5.5,0,0,0,0-1Z"/><path class="cls-13" d="M608.81,166.83a.5.5,0,0,0-.69.15c-.13.2-12.86,20-38.27,39.59A191.69,191.69,0,0,1,529.7,230.3l-7,.15a.53.53,0,0,0-.36.91l1.43,1.42a190.88,190.88,0,0,1-67.42,13.3l-6.54-2.68a.53.53,0,0,0-.69.68l.93,2.35a.53.53,0,0,1,0,.39l-.93,2.34a.53.53,0,0,0,.69.69l6.67-2.74,0,0a191.92,191.92,0,0,0,67.77-13.43l.08,2.36a.53.53,0,0,0,.91.35l5-5.17s0,0,0-.06a192.59,192.59,0,0,0,40.2-23.8C596,187.66,608.84,167.72,609,167.52A.5.5,0,0,0,608.81,166.83Z"/><path class="cls-14" d="M609,166.49c-.12-.2-12.94-20.14-38.47-39.81a192.85,192.85,0,0,0-40.2-23.8l-5.17-5a.53.53,0,0,0-.9.37v2.13a192,192,0,0,0-67.59-13.42l0,0-6.68-2.74a.53.53,0,0,0-.69.69l.93,2.34a.53.53,0,0,1,0,.39l-.93,2.35a.53.53,0,0,0,.69.68l6.54-2.68a190.63,190.63,0,0,1,67.44,13.37l-1.55,1.64a.53.53,0,0,0,.38.89l7.16,0a191.1,191.1,0,0,1,40,23.66C595.26,147,608,166.83,608.12,167a.51.51,0,0,0,.42.23.45.45,0,0,0,.27-.08A.5.5,0,0,0,609,166.49Z"/><circle class="cls-15" cx="608.54" cy="166.76" r="4.54"/><circle class="cls-15" cx="198.38" cy="166.76" r="4.54"/><circle class="cls-15" cx="245.21" cy="351.97" r="4.54"/><path class="cls-16" d="M455.91,316.89l-4.31-5.75a.53.53,0,0,0-.94.24l-.35,2.11a43.46,43.46,0,0,0-19.75-4.73v1a42.46,42.46,0,0,1,19.27,4.61l-1.78,1.37a.53.53,0,0,0,.25.94l7.09,1.07a42.68,42.68,0,0,1,.16,69.43l-7,1.27a.53.53,0,0,0-.21.95l1.65,1.19a42.51,42.51,0,0,1-19.43,4.69v1a43.48,43.48,0,0,0,20.07-4.89l.44,2.29a.53.53,0,0,0,.95.21l4.16-5.9s0,0,0,0a43.68,43.68,0,0,0-.28-71.06Z"/><circle class="cls-15" cx="473.82" cy="351.97" r="4.54"/><path class="cls-17" d="M173,310.17h14.81a2.8,2.8,0,0,1,2.8,2.8v56a0,0,0,0,1,0,0H170.22a0,0,0,0,1,0,0V313A2.8,2.8,0,0,1,173,310.17Z"/><rect class="cls-17" x="172.81" y="313.72" width="15.24" height="29.55"/><rect class="cls-17" x="172.81" y="345.67" width="15.24" height="2.5"/><rect class="cls-17" x="200.31" y="331.85" width="17.22" height="37.13" rx="2.8"/><line class="cls-17" x1="200.31" y1="335.74" x2="217.52" y2="335.74"/><line class="cls-17" x1="200.31" y1="364.3" x2="217.52" y2="364.3"/><circle class="cls-17" cx="208.92" cy="366.58" r="0.8"/><path class="cls-17" d="M207.07,344.64v3h-3v-3h3m1.21-1.2h-5.39v5.39h5.39v-5.39Z"/><rect class="cls-17" x="204.68" y="345.24" width="1.8" height="1.8"/><rect class="cls-17" x="209.35" y="349.93" width="1.08" height="1.08"/><rect class="cls-17" x="209.35" y="349.93" width="1.08" height="1.08"/><rect class="cls-17" x="211.51" y="349.93" width="1.08" height="1.08"/><rect class="cls-17" x="213.66" y="349.93" width="1.08" height="1.08"/><rect class="cls-17" x="210.43" y="351" width="1.08" height="1.08"/><rect class="cls-17" x="212.58" y="351" width="1.08" height="1.08"/><rect class="cls-17" x="209.35" y="352.08" width="1.08" height="1.08"/><rect class="cls-17" x="209.35" y="352.08" width="1.08" height="1.08"/><rect class="cls-17" x="211.51" y="352.08" width="1.08" height="1.08"/><rect class="cls-17" x="213.66" y="352.08" width="1.08" height="1.08"/><rect class="cls-17" x="210.43" y="353.15" width="1.08" height="1.08"/><rect class="cls-17" x="212.58" y="353.15" width="1.08" height="1.08"/><rect class="cls-17" x="209.35" y="354.23" width="1.08" height="1.08"/><rect class="cls-17" x="209.35" y="354.23" width="1.08" height="1.08"/><rect class="cls-17" x="211.51" y="354.23" width="1.08" height="1.08"/><rect class="cls-17" x="213.66" y="354.23" width="1.08" height="1.08"/><path class="cls-17" d="M207.07,351.11v3h-3v-3h3m1.21-1.18h-5.39v5.39h5.39v-5.39Z"/><rect class="cls-17" x="204.68" y="351.72" width="1.8" height="1.8"/><path class="cls-17" d="M213.54,344.64v3h-3v-3h3m1.21-1.2h-5.4v5.39h5.4v-5.39Z"/><rect class="cls-17" x="211.15" y="345.24" width="1.8" height="1.8"/><line class="cls-17" x1="74.49" y1="340.14" x2="105.05" y2="340.14"/><line class="cls-17" x1="74.49" y1="337.42" x2="105.05" y2="337.42"/><path class="cls-17" d="M95.15,323.59a9.55,9.55,0,0,0-10.76,0h-9.9v16.55h30.56V323.59Z"/><path class="cls-17" d="M89.77,328.78c.21,0,.38-.1.4-.24l.21-2.34c0-.24-.27-.43-.61-.43s-.61.19-.61.43l.2,2.34a.39.39,0,0,0,.41.24Z"/><path class="cls-17" d="M88.5,329.52a.38.38,0,0,0,0-.48l-1.92-1.35c-.2-.11-.5,0-.67.32s-.14.62.06.74l2.12,1a.37.37,0,0,0,.42-.23Z"/><path class="cls-17" d="M91,329.51c.11.19.29.28.42.23l2.13-1c.2-.12.23-.44.06-.74s-.47-.43-.67-.32L91.05,329a.39.39,0,0,0,0,.48Z"/><path class="cls-17" d="M89.77,331.71c.21,0,.38.1.4.25l.21,2.33c0,.24-.27.43-.61.43s-.61-.19-.61-.43l.2-2.33a.38.38,0,0,1,.41-.25Z"/><path class="cls-17" d="M91,331c.11-.18.29-.28.42-.23l2.13,1a.55.55,0,0,1,.06.74c-.17.3-.47.43-.67.32l-1.92-1.35a.38.38,0,0,1,0-.47Z"/><path class="cls-17" d="M88.5,331a.37.37,0,0,1,0,.47l-1.92,1.35c-.2.11-.5,0-.67-.32a.55.55,0,0,1,.06-.74l2.12-1a.37.37,0,0,1,.42.23Z"/><rect class="cls-17" x="74.49" y="352.21" width="30.55" height="16.77"/><rect class="cls-17" x="74.49" y="349.47" width="30.55" height="2.74"/><line class="cls-17" x1="76.11" y1="340.14" x2="76.11" y2="349.47"/><line class="cls-17" x1="103.42" y1="340.14" x2="103.42" y2="349.47"/><line class="cls-17" x1="77.49" y1="340.14" x2="77.49" y2="349.47"/><line class="cls-17" x1="102.04" y1="340.14" x2="102.04" y2="349.47"/><rect class="cls-17" x="76.79" y="486.86" width="47.39" height="29.97" rx="2.67"/><line class="cls-17" x1="92.68" y1="524.15" x2="108.28" y2="524.15"/><polygon class="cls-17" points="103.23 516.83 97.73 516.83 95.68 524.15 105.28 524.15 103.23 516.83"/><line class="cls-17" x1="124.17" y1="514.05" x2="76.79" y2="514.05"/><line class="cls-17" x1="124.17" y1="489.44" x2="76.79" y2="489.44"/><line class="cls-17" x1="99.32" y1="507" x2="101.64" y2="509.31"/><path class="cls-18" d="M93.05,496.9l.45,1.72c.09.38.19.73.25,1.08h0c.08-.34.19-.71.3-1.07l.55-1.73h.52l.53,1.69c.12.41.22.77.3,1.11h0c.06-.34.15-.7.26-1.1l.48-1.7h.61l-1.09,3.39h-.56l-.52-1.62a10.06,10.06,0,0,1-.3-1.11h0c-.09.4-.19.75-.31,1.12L94,500.29h-.56l-1-3.39Z"/><path class="cls-18" d="M98.56,496.9l.45,1.72c.1.38.19.73.25,1.08h0c.07-.34.19-.71.3-1.07l.55-1.73h.52l.52,1.69a11.09,11.09,0,0,1,.3,1.11h0a7.83,7.83,0,0,1,.26-1.1l.48-1.7h.61l-1.09,3.39h-.57l-.51-1.62a10.06,10.06,0,0,1-.3-1.11h0a9.68,9.68,0,0,1-.31,1.12l-.54,1.61H99l-1-3.39Z"/><path class="cls-18" d="M104.08,496.9l.45,1.72c.1.38.19.73.25,1.08h0c.08-.34.19-.71.3-1.07l.56-1.73h.51l.53,1.69c.13.41.22.77.3,1.11h0c.06-.34.15-.7.26-1.1l.48-1.7h.61l-1.09,3.39h-.56l-.52-1.62c-.12-.38-.21-.71-.3-1.11h0c-.09.4-.19.75-.31,1.12l-.55,1.61h-.56l-1-3.39Z"/><polyline class="cls-17" points="99.27 509.1 99.27 506.95 101.42 506.95"/><circle class="cls-17" cx="92.72" cy="584.13" r="0.59"/><rect class="cls-17" x="80.36" y="552.77" width="24.73" height="33.25" rx="2.8"/><line class="cls-17" x1="80.36" y1="554.84" x2="105.08" y2="554.84"/><line class="cls-17" x1="80.36" y1="582.18" x2="105.08" y2="582.18"/><path class="cls-17" d="M96,570.23a1.69,1.69,0,0,1-.91-1.39,1.61,1.61,0,0,1,.69-1.5l.1-.08s0-.17-.08-.26a2,2,0,0,0-1.4-.59l-.3,0a7.9,7.9,0,0,1-1.26.3,1.21,1.21,0,0,1-.38-.06,3.53,3.53,0,0,0-1.1-.26h-.13A2,2,0,0,0,90,567a2.79,2.79,0,0,0-.6,2.53,5.12,5.12,0,0,0,1.08,2.25,1.51,1.51,0,0,0,1.1.63,2,2,0,0,0,.71-.21,1.89,1.89,0,0,1,.67-.12,1.56,1.56,0,0,1,.64.13l.33.14a1,1,0,0,0,.35.06,1.07,1.07,0,0,0,.62-.2,3.94,3.94,0,0,0,1.19-1.55l.08-.16C96.18,570.41,96.11,570.3,96,570.23Z"/><path class="cls-17" d="M92.77,565.28h0a1.59,1.59,0,0,0,1.42-1.58.1.1,0,0,0-.1-.1h0a1.61,1.61,0,0,0-1.42,1.57A.11.11,0,0,0,92.77,565.28Z"/><rect class="cls-17" x="109.59" y="558.51" width="12.76" height="27.51" rx="2.8"/><line class="cls-17" x1="109.59" y1="561.38" x2="122.35" y2="561.38"/><line class="cls-17" x1="109.59" y1="582.55" x2="122.35" y2="582.55"/><circle class="cls-17" cx="115.97" cy="584.24" r="0.59"/><path class="cls-19" d="M113.07,573.92a.42.42,0,0,1-.42.42.41.41,0,0,1-.41-.42v-2.66a.41.41,0,0,1,.41-.42.42.42,0,0,1,.42.42Z"/><path class="cls-19" d="M119.71,573.92a.42.42,0,0,1-.42.42.41.41,0,0,1-.41-.42v-2.66a.41.41,0,0,1,.41-.42.42.42,0,0,1,.42.42Z"/><path class="cls-19" d="M113.48,570.84h5V575h-.83v1.66a.41.41,0,0,1-.41.42.42.42,0,0,1-.42-.42V575h-1.66v1.66a.41.41,0,0,1-.41.42.42.42,0,0,1-.42-.42V575h-.83Z"/><path class="cls-19" d="M118.46,570.38h-5v-.66a1.25,1.25,0,0,1,1.25-1.24v-.83a.41.41,0,0,1,.41-.42.42.42,0,0,1,.42.42v.83h.83v-.83a.41.41,0,0,1,.41-.42.42.42,0,0,1,.42.42v.83a1.24,1.24,0,0,1,1.24,1.24Z"/><path class="cls-17" d="M216.08,574.67c-.31-.33-.65-.64-1-1l-.33-.34a1.32,1.32,0,0,0-1.79,0c-.33.29-.63.61-.93.92l0,0h0l-.11,0h-.36l-.12,0-.29-.09-.12,0,0,0h0c-.2-.1-.39-.2-.57-.31a6.87,6.87,0,0,1-.57-.39,8.18,8.18,0,0,1-1.15-1.13c-.09-.11-.24-.32-.35-.49a6.61,6.61,0,0,1-.35-.63l0-.08,0-.08a2.76,2.76,0,0,1-.08-.27,2.27,2.27,0,0,1-.06-.25h0a.66.66,0,0,1,0-.14v-.19h0l0-.08v0l0,0s0,0,0,0h0l.46-.46.43-.43a1.32,1.32,0,0,0,0-1.79c-.3-.35-.65-.66-1-1l-.36-.37a1.32,1.32,0,0,0-1.65-.16,8.47,8.47,0,0,0-1.1,1.06,3.65,3.65,0,0,0-.91,1.23,3.7,3.7,0,0,0,0,2.16,8.15,8.15,0,0,0,1.06,2.44,14.06,14.06,0,0,0,4.54,4.57,8.4,8.4,0,0,0,2.43,1.08,3.76,3.76,0,0,0,2.18,0,2.51,2.51,0,0,0,.92-.56.73.73,0,0,0,.05-.09l.9-.89c.11-.11.24-.23.35-.36A1.32,1.32,0,0,0,216.08,574.67Zm-8.35-4.19c0-.05,0-.14,0,0Z"/><path class="cls-17" d="M214.6,562a11.07,11.07,0,0,0-6.08-1,11.12,11.12,0,0,0-9.38,14.16,12.4,12.4,0,0,0,.55,1.43L198,579.87l-.27.52a.74.74,0,0,0,.82,1.07l3.86-1,.2,0a11.23,11.23,0,0,0,6.25,2.66A11.11,11.11,0,0,0,214.6,562Z"/><path class="cls-20" d="M218.82,495.54l.24-.24q-2.15-7.53-9-7.53t-9,7.53l.21.24-.07,6.69c-1.18,1.71-3.39.36-3.44-.71v-5c0-.9.53-1.46,1.58-1.68,2.29-11.23,18.49-12.18,21.3-.4,1.33,0,2,.53,2.12,1.58l-.12,4.9a1.75,1.75,0,0,1-1.13,1.71q-1.53,6.66-9.76,8a1.9,1.9,0,1,1-.18-1.22c5.07-.71,8-3,8.67-6.74-.3.16-.71-.1-1.24-.79Z"/><rect class="cls-17" x="627.56" y="157.84" width="43.52" height="16.77"/><rect class="cls-17" x="625.35" y="155.1" width="47.93" height="2.74"/><rect class="cls-17" x="631.44" y="152.04" width="16.6" height="3.06"/><rect class="cls-17" x="633.37" y="142.49" width="12.74" height="9.55"/><rect class="cls-17" x="636.07" y="141.53" width="1.28" height="0.96"/><rect class="cls-17" x="633.37" y="138.94" width="6.67" height="2.59"/><line class="cls-17" x1="634.54" y1="145.69" x2="637.48" y2="145.69"/><line class="cls-17" x1="638.27" y1="145.69" x2="641.21" y2="145.69"/><line class="cls-17" x1="642.01" y1="145.69" x2="644.94" y2="145.69"/><line class="cls-17" x1="634.54" y1="147.09" x2="637.48" y2="147.09"/><line class="cls-17" x1="638.27" y1="147.09" x2="641.21" y2="147.09"/><line class="cls-17" x1="642.01" y1="147.09" x2="644.94" y2="147.09"/><line class="cls-17" x1="634.54" y1="148.48" x2="637.48" y2="148.48"/><line class="cls-17" x1="638.27" y1="148.48" x2="641.21" y2="148.48"/><line class="cls-17" x1="642.01" y1="148.48" x2="644.94" y2="148.48"/><line class="cls-17" x1="634.77" y1="266.67" x2="661.32" y2="266.67"/><line class="cls-17" x1="634.77" y1="263.95" x2="661.32" y2="263.95"/><path class="cls-17" d="M653.42,250.13a9.5,9.5,0,0,0-10.76,0h-7.89v16.54h26.55V250.13Z"/><path class="cls-17" d="M648,255.32a.4.4,0,0,0,.41-.25l.2-2.34c0-.23-.27-.42-.61-.42s-.61.19-.61.42l.21,2.34a.37.37,0,0,0,.4.25Z"/><path class="cls-17" d="M646.78,256.05a.4.4,0,0,0,0-.48l-1.92-1.35c-.2-.11-.5,0-.67.32s-.14.63.06.74l2.13,1a.39.39,0,0,0,.42-.22Z"/><path class="cls-17" d="M649.31,256.05a.37.37,0,0,0,.41.22l2.13-1c.2-.11.23-.44.06-.74s-.47-.43-.67-.32l-1.92,1.35a.38.38,0,0,0,0,.48Z"/><path class="cls-17" d="M648,258.24a.4.4,0,0,1,.41.25l.2,2.34c0,.23-.27.42-.61.42s-.61-.19-.61-.42l.21-2.34a.37.37,0,0,1,.4-.25Z"/><path class="cls-17" d="M649.31,257.51c.1-.18.28-.28.41-.23l2.13,1a.55.55,0,0,1,.06.74c-.17.3-.47.44-.67.32L649.32,258a.37.37,0,0,1,0-.47Z"/><path class="cls-17" d="M646.78,257.51a.38.38,0,0,1,0,.47l-1.92,1.35c-.2.12-.5,0-.67-.32a.55.55,0,0,1,.06-.74l2.13-1c.13,0,.31.05.42.23Z"/><rect class="cls-17" x="634.77" y="281.75" width="26.55" height="16.77"/><rect class="cls-17" x="634.77" y="279.01" width="26.55" height="2.74"/><line class="cls-17" x1="636.39" y1="266.67" x2="636.39" y2="279.01"/><line class="cls-17" x1="659.7" y1="266.67" x2="659.7" y2="279.01"/><line class="cls-17" x1="637.77" y1="266.67" x2="637.77" y2="279.01"/><line class="cls-17" x1="658.32" y1="266.67" x2="658.32" y2="279.01"/><text class="cls-21" transform="translate(606.05 318.35)"><tspan class="cls-22">R</tspan><tspan x="6.12" y="0">ecoge en tienda</tspan></text><text class="cls-21" transform="translate(616.09 449.06)"><tspan class="cls-23">P</tspan><tspan x="5.81" y="0">un</tspan><tspan class="cls-24" x="18.61" y="0">t</tspan><tspan x="22.25" y="0">o pic</tspan><tspan class="cls-25" x="45.74" y="0">k</tspan><tspan x="50.9" y="0">up</tspan></text><path class="cls-17" d="M671,400.23l-.23,0a1.88,1.88,0,0,1-1.88-1.88v-.54a2,2,0,0,1,.19-.8h-1.26V396H671"/><path class="cls-17" d="M671.31,401.72l-3.81,6-4.39,1.74v-.59l3.43-1.8,3-5.7v0a1.11,1.11,0,0,1,.94-.56h.88Z"/><polygon class="cls-17" points="665.82 406.39 662.85 408.16 658.86 408.16 658.86 401.2 665.82 401.2 665.82 406.39"/><path class="cls-17" d="M657.09,409.93H624.67l4.7-9.93a1.55,1.55,0,0,1,1.4-.88H651a1.54,1.54,0,0,1,1.4.88Z"/><path class="cls-17" d="M662.52,411a1.11,1.11,0,0,0-1.11-1.11H620.34a1.11,1.11,0,0,0-1.11,1.11v1.22a1.11,1.11,0,0,0,1.11,1.11h3v9.87a.87.87,0,0,0,.87.87H657.5a.87.87,0,0,0,.87-.87v-9.87h3a1.11,1.11,0,0,0,1.11-1.11Z"/><path class="cls-17" d="M629.59,428.82h-2.52a2.4,2.4,0,0,1-2.4-2.41v-2.3H632v2.3A2.41,2.41,0,0,1,629.59,428.82Z"/><path class="cls-17" d="M654.68,428.82h-2.51a2.41,2.41,0,0,1-2.41-2.41v-2.3h7.33v2.3A2.41,2.41,0,0,1,654.68,428.82Z"/><line class="cls-17" x1="633.87" y1="416.6" x2="647.89" y2="416.6"/><line class="cls-17" x1="627.05" y1="413.27" x2="654.71" y2="413.27"/><line class="cls-17" x1="633.87" y1="418.33" x2="647.89" y2="418.33"/><line class="cls-17" x1="633.87" y1="420.05" x2="647.89" y2="420.05"/><path class="cls-17" d="M654.85,409.93h-28l4-8.38a1.29,1.29,0,0,1,1.18-.75H649.7a1.31,1.31,0,0,1,1.18.75Z"/><path class="cls-17" d="M649,409.93a3.55,3.55,0,0,0-7.09,0"/><path class="cls-17" d="M630.06,418.33a1.73,1.73,0,1,0-1.73,1.72A1.73,1.73,0,0,0,630.06,418.33Z"/><path class="cls-17" d="M655.3,418.33a1.73,1.73,0,1,0-1.73,1.72A1.73,1.73,0,0,0,655.3,418.33Z"/><polygon class="cls-17" points="671.31 390.18 656.85 390.18 656.85 392.1 671.31 392.1 671.31 409.93 667.27 409.93 667.27 411.86 671.31 411.86 671.31 428.82 676.85 428.82 676.85 392.1 676.85 390.18 671.31 390.18"/><line class="cls-17" x1="669.97" y1="403.84" x2="671.31" y2="408.16"/><rect class="cls-17" x="661.45" y="401.2" width="1.78" height="2.42"/><rect class="cls-17" x="661.45" y="404.68" width="1.78" height="1.21"/><rect class="cls-17" x="617.94" y="524.62" width="44.88" height="33.93"/><polygon class="cls-17" points="662.82 558.55 683.27 558.55 683.27 541.2 676.2 531.49 662.82 531.49 662.82 558.55"/><path class="cls-17" d="M634.66,558.55a2.32,2.32,0,1,0-2.31,2.32A2.31,2.31,0,0,0,634.66,558.55Z"/><path class="cls-17" d="M637.05,558.55a4.71,4.71,0,1,0-4.7,4.71A4.7,4.7,0,0,0,637.05,558.55Z"/><path class="cls-17" d="M675.37,558.55a2.32,2.32,0,1,0-2.32,2.32A2.32,2.32,0,0,0,675.37,558.55Z"/><path class="cls-17" d="M677.76,558.55a4.71,4.71,0,1,0-4.71,4.71A4.71,4.71,0,0,0,677.76,558.55Z"/><line class="cls-17" x1="657.05" y1="531.49" x2="625.84" y2="531.49"/><line class="cls-17" x1="657.05" y1="535.64" x2="640.92" y2="535.64"/><polyline class="cls-17" points="683.27 544.37 669.41 544.37 669.41 531.49"/><rect class="cls-17" x="678.68" y="550.08" width="4.59" height="3.16"/><rect class="cls-17" x="617.94" y="520.08" width="4.59" height="3.16"/><text class="cls-21" transform="translate(602.89 583.6)">Ent<tspan class="cls-26" x="15.73" y="0">r</tspan><tspan x="19.14" y="0">ega a domicilio</tspan></text><path class="cls-17" d="M164.44,187.76v-10a3,3,0,0,0-2-2.81v-2.19h-2V175a3,3,0,0,0-2,2.81v10Z"/><path class="cls-17" d="M170.44,187.76v-10a3,3,0,0,0-2-2.81v-2.19h-2V175a3,3,0,0,0-2,2.81v10Z"/><path class="cls-17" d="M176.44,187.76v-10a3,3,0,0,0-2-2.81v-2.19h-2V175a3,3,0,0,0-2,2.81v10Z"/><path class="cls-17" d="M182.44,187.76v-10a3,3,0,0,0-2-2.81v-2.19h-2V175a3,3,0,0,0-2,2.81v10Z"/><rect class="cls-17" x="142.44" y="183.76" width="5" height="4"/><rect class="cls-17" x="137.44" y="183.76" width="5" height="4"/><rect class="cls-17" x="147.44" y="183.76" width="5" height="4"/><rect class="cls-17" x="147.44" y="179.76" width="5" height="4"/><rect class="cls-17" x="142.44" y="179.76" width="5" height="4"/><rect class="cls-17" x="137.44" y="179.76" width="5" height="4"/><rect class="cls-17" x="132.44" y="179.76" width="5" height="4"/><rect class="cls-17" x="132.44" y="183.76" width="5" height="4"/><path class="cls-17" d="M136.44,166.76h-4v-8.58l.71-.71a1,1,0,0,0,.29-.71v-3h2v3a1,1,0,0,0,.29.71l.71.71Z"/><path class="cls-17" d="M140.44,166.76h-4v-8.58l.71-.71a1,1,0,0,0,.29-.71v-3h2v3a1,1,0,0,0,.29.71l.71.71Z"/><path class="cls-17" d="M144.44,166.76h-4v-8.58l.71-.71a1,1,0,0,0,.29-.71v-3h2v3a1,1,0,0,0,.29.71l.71.71Z"/><path class="cls-17" d="M148.44,166.76h-4v-8.58l.71-.71a1,1,0,0,0,.29-.71v-3h2v3a1,1,0,0,0,.29.71l.71.71Z"/><path class="cls-17" d="M152.44,166.76h-4v-8.58l.71-.71a1,1,0,0,0,.29-.71v-3h2v3a1,1,0,0,0,.29.71l.71.71Z"/><path class="cls-17" d="M156.44,166.76h-4v-8.58l.71-.71a1,1,0,0,0,.29-.71v-3h2v3a1,1,0,0,0,.29.71l.71.71Z"/><rect class="cls-17" x="168.44" y="157.47" width="2" height="9.29"/><rect class="cls-17" x="172.44" y="157.47" width="2" height="9.29"/><rect class="cls-17" x="176.44" y="157.47" width="2" height="9.29"/><rect class="cls-17" x="180.44" y="157.47" width="2" height="9.29"/><polygon class="cls-17" points="127.44 166.76 128.44 166.76 134.44 166.76 138.44 166.76 144.44 166.76 148.44 166.76 154.44 166.76 164.44 166.76 168.44 166.76 172.44 166.76 176.44 166.76 180.44 166.76 187.44 166.76 187.44 168.76 127.44 168.76 127.44 166.76"/><rect class="cls-17" x="178.21" y="138.76" width="3.23" height="9"/><rect class="cls-17" x="172.83" y="138.76" width="3.23" height="9"/><rect class="cls-17" x="167.44" y="138.76" width="3.23" height="9"/><rect class="cls-17" x="149.44" y="141.76" width="4" height="6"/><rect class="cls-17" x="145.44" y="139.29" width="4" height="8.47"/><rect class="cls-17" x="141.44" y="139.29" width="4" height="8.47"/><rect class="cls-17" x="137.44" y="141.76" width="4" height="6"/><rect class="cls-17" x="133.44" y="141.76" width="4" height="6"/><polygon class="cls-17" points="187.44 149.76 127.44 149.76 127.44 147.76 131.44 147.76 137.44 147.76 143.44 147.76 149.44 147.76 155.44 147.76 161.44 147.76 170.44 147.76 175.44 147.76 180.44 147.76 185.44 147.76 187.44 147.76 187.44 149.76"/><polygon class="cls-17" points="187.44 190.03 127.44 190.03 127.44 187.76 134.44 187.76 141.44 187.76 148.44 187.76 155.44 187.76 159.44 187.76 163.44 187.76 167.44 187.76 171.44 187.76 175.44 187.76 179.44 187.76 183.44 187.76 187.44 187.76 187.44 190.03"/><rect class="cls-17" x="129.44" y="190.03" width="2" height="2.73"/><rect class="cls-17" x="183.44" y="190.03" width="2" height="2.73"/><rect class="cls-17" x="373.41" y="302.65" width="43.52" height="16.77"/><rect class="cls-17" x="371.21" y="299.91" width="47.93" height="2.74"/><rect class="cls-17" x="377.3" y="296.85" width="16.6" height="3.06"/><rect class="cls-17" x="379.22" y="287.3" width="12.74" height="9.55"/><rect class="cls-17" x="381.92" y="286.34" width="1.28" height="0.96"/><rect class="cls-17" x="379.22" y="283.75" width="6.67" height="2.59"/><line class="cls-17" x1="380.4" y1="290.5" x2="383.33" y2="290.5"/><line class="cls-17" x1="384.13" y1="290.5" x2="387.06" y2="290.5"/><line class="cls-17" x1="387.86" y1="290.5" x2="390.8" y2="290.5"/><line class="cls-17" x1="380.4" y1="291.89" x2="383.33" y2="291.89"/><line class="cls-17" x1="384.13" y1="291.89" x2="387.06" y2="291.89"/><line class="cls-17" x1="387.86" y1="291.89" x2="390.8" y2="291.89"/><line class="cls-17" x1="380.4" y1="293.29" x2="383.33" y2="293.29"/><line class="cls-17" x1="384.13" y1="293.29" x2="387.06" y2="293.29"/><line class="cls-17" x1="387.86" y1="293.29" x2="390.8" y2="293.29"/><path class="cls-17" d="M406.54,379.37v-1.24a2.87,2.87,0,0,1-1.7-.54l.25-.44a2.54,2.54,0,0,0,1.54.51,1.47,1.47,0,0,0,1.6-1.44c0-.78-.52-1.25-1.4-1.65-1.19-.52-1.87-1-1.87-2a1.82,1.82,0,0,1,1.66-1.81V369.5h.49v1.23a2.67,2.67,0,0,1,1.44.44l-.25.45a2.29,2.29,0,0,0-1.38-.42,1.27,1.27,0,0,0-1.42,1.26c0,.75.45,1.1,1.51,1.57s1.77,1.1,1.77,2.15a2,2,0,0,1-1.75,1.94v1.25Z"/><circle class="cls-17" cx="383.05" cy="377.65" r="13.7"/><ellipse class="cls-17" cx="383.05" cy="377.65" rx="9.34" ry="13.7"/><ellipse class="cls-17" cx="383.05" cy="377.65" rx="3.96" ry="13.7"/><ellipse class="cls-17" cx="383.05" cy="377.65" rx="13.7" ry="8.41"/><line class="cls-17" x1="369.35" y1="377.65" x2="396.75" y2="377.65"/><circle class="cls-17" cx="406.9" cy="374.24" r="10.15"/><circle class="cls-17" cx="406.9" cy="374.24" r="8"/><path class="cls-17" d="M407.77,528v-1.23a2.92,2.92,0,0,1-1.7-.54l.25-.44a2.57,2.57,0,0,0,1.55.51,1.47,1.47,0,0,0,1.6-1.44c0-.78-.52-1.26-1.41-1.65-1.18-.52-1.87-1-1.87-2a1.83,1.83,0,0,1,1.67-1.81v-1.25h.49v1.24a2.67,2.67,0,0,1,1.44.44l-.25.45a2.35,2.35,0,0,0-1.38-.42,1.28,1.28,0,0,0-1.43,1.26c0,.75.46,1.1,1.51,1.57s1.78,1.1,1.78,2.15a2,2,0,0,1-1.75,1.94V528Z"/><circle class="cls-17" cx="384.29" cy="526.25" r="13.7"/><ellipse class="cls-17" cx="384.29" cy="526.25" rx="9.34" ry="13.7"/><ellipse class="cls-17" cx="384.29" cy="526.25" rx="3.96" ry="13.7"/><ellipse class="cls-17" cx="384.29" cy="526.25" rx="13.7" ry="8.41"/><line class="cls-17" x1="370.59" y1="526.25" x2="397.99" y2="526.25"/><circle class="cls-17" cx="408.14" cy="522.84" r="10.15"/><circle class="cls-17" cx="408.14" cy="522.84" r="8"/><rect class="cls-17" x="379.8" y="80.87" width="39.75" height="15.32"/><rect class="cls-17" x="377.78" y="78.37" width="43.77" height="2.5"/><rect class="cls-17" x="383.35" y="75.58" width="15.16" height="2.79"/><rect class="cls-17" x="385.11" y="66.85" width="11.64" height="8.73"/><rect class="cls-17" x="387.57" y="65.97" width="1.17" height="0.88"/><rect class="cls-17" x="385.11" y="63.61" width="6.1" height="2.36"/><line class="cls-17" x1="386.18" y1="69.77" x2="388.86" y2="69.77"/><line class="cls-17" x1="389.58" y1="69.77" x2="392.27" y2="69.77"/><line class="cls-17" x1="392.99" y1="69.77" x2="395.68" y2="69.77"/><line class="cls-17" x1="386.18" y1="71.05" x2="388.86" y2="71.05"/><line class="cls-17" x1="389.58" y1="71.05" x2="392.27" y2="71.05"/><line class="cls-17" x1="392.99" y1="71.05" x2="395.68" y2="71.05"/><line class="cls-17" x1="386.18" y1="72.32" x2="388.86" y2="72.32"/><line class="cls-17" x1="389.58" y1="72.32" x2="392.27" y2="72.32"/><line class="cls-17" x1="392.99" y1="72.32" x2="395.68" y2="72.32"/><path class="cls-17" d="M397.23,135.2H383.6a1,1,0,0,0-1,1v9.23a1,1,0,0,0,1,1h12.67a1,1,0,0,1,1,1v19.1a1,1,0,0,0,1,1h9.62a1,1,0,0,0,1-1V136.16a1,1,0,0,0-1-1Z"/><rect class="cls-17" x="383.97" y="136.68" width="22.59" height="8.2" rx="0.85"/><rect class="cls-17" x="399.16" y="146.33" width="7.41" height="1.92" rx="0.44"/><line class="cls-17" x1="397.23" y1="165.77" x2="408.77" y2="165.77"/><line class="cls-17" x1="386.49" y1="138.24" x2="386.49" y2="143.32"/><line class="cls-17" x1="391.52" y1="138.24" x2="391.52" y2="143.32"/><line class="cls-17" x1="392.34" y1="138.24" x2="392.34" y2="143.32"/><line class="cls-17" x1="395.13" y1="138.24" x2="395.13" y2="143.32"/><line class="cls-17" x1="395.7" y1="138.24" x2="395.7" y2="143.32"/><line class="cls-17" x1="393.91" y1="138.24" x2="393.91" y2="143.32"/><line class="cls-17" x1="400.39" y1="138.24" x2="400.39" y2="143.32"/><line class="cls-17" x1="399.77" y1="138.24" x2="399.77" y2="143.32"/><line class="cls-17" x1="399.16" y1="138.24" x2="399.16" y2="143.32"/><line class="cls-17" x1="403.96" y1="138.24" x2="403.96" y2="143.32"/><line class="cls-17" x1="388.52" y1="138.24" x2="388.52" y2="143.32"/><line class="cls-17" x1="390.58" y1="138.24" x2="390.58" y2="143.32"/><line class="cls-17" x1="396.28" y1="138.24" x2="396.28" y2="143.32"/><line class="cls-17" x1="402.27" y1="138.24" x2="402.27" y2="143.32"/><line class="cls-17" x1="398.52" y1="138.24" x2="398.52" y2="143.32"/><polyline class="cls-17" points="377.57 225.5 404.76 225.5 402.28 236.61 385.57 236.61"/><polyline class="cls-17" points="377.16 222.78 382.8 222.78 385.57 236.68"/><line class="cls-17" x1="384.12" y1="229.42" x2="403.93" y2="229.42"/><line class="cls-17" x1="387.9" y1="232.69" x2="403.16" y2="232.69"/><line class="cls-17" x1="394.44" y1="225.5" x2="394.44" y2="236.61"/><line class="cls-17" x1="399.96" y1="225.5" x2="398.49" y2="236.61"/><line class="cls-17" x1="388.07" y1="225.5" x2="388.98" y2="236.61"/><polygon class="cls-17" points="399.67 221.21 394.44 223.78 389.21 221.21 389.21 214.21 394.44 211.56 399.67 214.21 399.67 221.21"/><polygon class="cls-17" points="399.67 221.21 394.44 223.78 394.44 216.86 399.67 214.21 399.67 221.21"/><polygon class="cls-17" points="389.21 221.21 394.44 223.78 394.44 216.86 389.21 214.21 389.21 221.21"/><polygon class="cls-17" points="391.01 217.6 392.68 218.36 392.68 215.96 391.01 215.13 391.01 217.6"/><polygon class="cls-17" points="391.01 219.82 392.68 220.58 392.68 219.49 391.01 218.66 391.01 219.82"/><polygon class="cls-17" points="396.18 212.48 397.84 213.24 392.68 215.96 391.01 215.13 396.18 212.48"/><path class="cls-17" d="M398.19,208.42l-3.83-1.22a2.55,2.55,0,0,1-1.84-2.4l8.35,2.14Z"/><path class="cls-17" d="M411.44,214.59l-7,1.52a6.91,6.91,0,0,0-1.93.72l-2.71,1.5-.09-2.47,1.64-.91a2.52,2.52,0,1,0-2.44-4.41l-3.83,2.18a4.77,4.77,0,0,1-3.77-.42l5.37-3,4.2-2.32,8.6,2.2a.83.83,0,0,0,.58-.08l2.76-1.53,2.66,4.83Z"/><text class="cls-27" transform="translate(67.24 92.79)"><tspan class="cls-28">T</tspan><tspan x="6.3" y="0">ienda omni</tspan><tspan class="cls-29" x="66.43" y="0">c</tspan><tspan x="71.89" y="0">anal</tspan></text><text class="cls-30" transform="translate(67.24 459.18)"><tspan class="cls-28">T</tspan><tspan x="6.3" y="0">ienda en línea</tspan></text><text class="cls-21" transform="translate(71.54 389.23)"><tspan class="cls-31">K</tspan><tspan x="6.16" y="0">ioscos</tspan></text><text class="cls-21" transform="translate(147.08 389.62)"><tspan class="cls-32">P</tspan><tspan x="5.66" y="0">antallas de catálogo</tspan><tspan x="-3.61" y="14.4">e</tspan><tspan class="cls-33" x="2.21" y="14.4">x</tspan><tspan class="cls-24" x="7.52" y="14.4">t</tspan><tspan x="11.15" y="14.4">endido </tspan><tspan class="cls-34" x="47.98" y="14.4">(</tspan><tspan x="51.11" y="14.4">código QR)</tspan></text><text class="cls-35" transform="translate(69.1 542.91)">T<tspan class="cls-36" x="5.52" y="0">ienda en línea</tspan></text><text class="cls-21" transform="translate(90.09 604.78)">Apps</text><text class="cls-21" transform="translate(184.11 604.27)">WhatsApp</text><text class="cls-21" transform="translate(189.89 528.38)">Llamada<tspan class="cls-24" x="-3.14" y="14.4">t</tspan><tspan class="cls-37" x="0.49" y="14.4">ele</tspan><tspan class="cls-38" x="14.68" y="14.4">f</tspan><tspan x="17.64" y="14.4">ónica</tspan></text><text class="cls-39" transform="translate(137.3 210.13)">Anaquel</text><path class="cls-40" d="M390.14,338.81a5.14,5.14,0,0,1-2.19.41c-1.95,0-3.82-1.24-3.82-4.11a4,4,0,0,1,4.1-4.22,3.91,3.91,0,0,1,1.87.36l-.18.48a3.75,3.75,0,0,0-1.68-.35c-2.18,0-3.51,1.41-3.51,3.74s1.25,3.61,3.42,3.61a4.34,4.34,0,0,0,1.82-.37Z"/><path class="cls-40" d="M395,337.74a8.8,8.8,0,0,0,.09,1.36h-.53l-.08-.83h0a2.18,2.18,0,0,1-1.84,1,1.56,1.56,0,0,1-1.7-1.58c0-1.33,1.17-2.13,3.52-2.11v-.16c0-.56-.11-1.7-1.48-1.69a2.52,2.52,0,0,0-1.45.44l-.18-.42a3.19,3.19,0,0,1,1.69-.5c1.67,0,2,1.25,2,2.27Zm-.57-1.72c-1.26,0-2.92.16-2.92,1.54a1.1,1.1,0,0,0,1.16,1.19,1.72,1.72,0,0,0,1.7-1.15.9.9,0,0,0,.06-.34Z"/><path class="cls-40" d="M395.34,341.14a1.67,1.67,0,0,0,1.2-.48c.3-.36.43-.81.43-2.34v-5h.57v5.36a3.17,3.17,0,0,1-.61,2.28,2.34,2.34,0,0,1-1.51.62Zm2.37-9.44a.46.46,0,1,1-.92,0,.49.49,0,0,1,.48-.5A.47.47,0,0,1,397.71,331.7Z"/><path class="cls-40" d="M403.05,337.74a8.79,8.79,0,0,0,.08,1.36h-.52l-.09-.83h0a2.2,2.2,0,0,1-1.85,1,1.56,1.56,0,0,1-1.69-1.58c0-1.33,1.16-2.13,3.52-2.11v-.16c0-.56-.11-1.7-1.48-1.69a2.52,2.52,0,0,0-1.45.44l-.18-.42a3.17,3.17,0,0,1,1.69-.5c1.67,0,2,1.25,2,2.27Zm-.57-1.72c-1.26,0-2.92.16-2.92,1.54a1.1,1.1,0,0,0,1.15,1.19,1.71,1.71,0,0,0,1.7-1.15.94.94,0,0,0,.07-.34Z"/><path class="cls-40" d="M370,346.47v1.28h1.65v.46H370V352c0,.73.23,1.18.84,1.18a2.09,2.09,0,0,0,.66-.08l.07.43a2.05,2.05,0,0,1-.8.14,1.19,1.19,0,0,1-1-.4,2.07,2.07,0,0,1-.36-1.38v-3.64h-1v-.46h1v-1.06Z"/><path class="cls-40" d="M372.89,349.47c0-.57,0-1.16-.05-1.72h.53l0,1.16h0a1.79,1.79,0,0,1,1.63-1.3l.24,0v.55a1.23,1.23,0,0,0-.28,0c-.79,0-1.35.68-1.51,1.6a3.21,3.21,0,0,0-.05.55v3.18h-.57Z"/><path class="cls-40" d="M380,352.14a8.79,8.79,0,0,0,.08,1.36h-.53l-.08-.82h0a2.18,2.18,0,0,1-1.84.95,1.56,1.56,0,0,1-1.69-1.58c0-1.33,1.16-2.13,3.51-2.11v-.16c0-.56-.11-1.7-1.47-1.69a2.53,2.53,0,0,0-1.46.44l-.18-.42a3.19,3.19,0,0,1,1.69-.5c1.67,0,2,1.25,2,2.27Zm-.58-1.72c-1.26,0-2.91.16-2.91,1.54a1.1,1.1,0,0,0,1.15,1.19,1.71,1.71,0,0,0,1.7-1.15.9.9,0,0,0,.06-.34Z"/><path class="cls-40" d="M386.48,345v7.17c0,.43,0,.93,0,1.34H386l0-1.09h0a2.17,2.17,0,0,1-2.05,1.22,2.61,2.61,0,0,1-2.48-2.9c0-1.92,1.17-3.12,2.59-3.12a2,2,0,0,1,1.88,1h0V345Zm-.58,5a2.29,2.29,0,0,0,0-.52,1.86,1.86,0,0,0-1.82-1.41c-1.26,0-2,1.1-2,2.58,0,1.3.65,2.48,2,2.48a1.92,1.92,0,0,0,1.85-1.49,1.86,1.86,0,0,0,0-.48Z"/><path class="cls-40" d="M389.16,346.1a.47.47,0,1,1-.93,0,.5.5,0,0,1,.47-.5A.47.47,0,0,1,389.16,346.1Zm-.74,7.4v-5.75H389v5.75Z"/><path class="cls-40" d="M394.89,353.25a3.92,3.92,0,0,1-1.69.37,2.72,2.72,0,0,1-2.76-2.94,2.9,2.9,0,0,1,3-3.07,3,3,0,0,1,1.51.36l-.21.47a2.75,2.75,0,0,0-1.35-.33,2.31,2.31,0,0,0-2.34,2.53,2.27,2.27,0,0,0,2.28,2.49,3.12,3.12,0,0,0,1.44-.34Z"/><path class="cls-40" d="M397,346.1a.46.46,0,0,1-.48.49.45.45,0,0,1-.44-.49.49.49,0,0,1,.46-.5A.47.47,0,0,1,397,346.1Zm-.75,7.4v-5.75h.58v5.75Z"/><path class="cls-40" d="M403.7,350.56a2.79,2.79,0,0,1-2.76,3.07,2.7,2.7,0,0,1-2.64-3,2.79,2.79,0,0,1,2.73-3.06A2.68,2.68,0,0,1,403.7,350.56Zm-4.82.08a2.29,2.29,0,0,0,2.1,2.51,2.32,2.32,0,0,0,2.14-2.55,2.15,2.15,0,1,0-4.24,0Z"/><path class="cls-40" d="M405.17,349.13c0-.53,0-.93-.05-1.38h.54l0,1h0a2.17,2.17,0,0,1,2-1.18c.55,0,2,.28,2,2.44v3.45h-.57v-3.4c0-1.05-.41-2-1.6-2a1.86,1.86,0,0,0-1.73,1.31,2.72,2.72,0,0,0-.07.52v3.56h-.57Z"/><path class="cls-40" d="M415.19,352.14a8.79,8.79,0,0,0,.08,1.36h-.53l-.08-.82h0a2.18,2.18,0,0,1-1.84.95,1.56,1.56,0,0,1-1.69-1.58c0-1.33,1.16-2.13,3.51-2.11v-.16c0-.56-.11-1.7-1.48-1.69a2.52,2.52,0,0,0-1.45.44l-.18-.42a3.19,3.19,0,0,1,1.69-.5c1.67,0,2,1.25,2,2.27Zm-.58-1.72c-1.26,0-2.92.16-2.92,1.54a1.1,1.1,0,0,0,1.16,1.19,1.71,1.71,0,0,0,1.7-1.15.9.9,0,0,0,.06-.34Z"/><path class="cls-40" d="M417.05,345h.57v8.51h-.57Z"/><path class="cls-40" d="M420.27,345.31h0l-.74.43-.08-.27.86-.51h.31v4.55h-.33Z"/><path class="cls-40" d="M380.85,401.84a10.15,10.15,0,0,1,1.74-.15,3,3,0,0,1,2.13.68,2.08,2.08,0,0,1,.62,1.58,2.28,2.28,0,0,1-.56,1.62,3.09,3.09,0,0,1-2.37.9,3.35,3.35,0,0,1-1-.1v3.46h-.57Zm.57,4a3.2,3.2,0,0,0,1,.12c1.45,0,2.32-.7,2.32-2s-.92-1.85-2.21-1.85a5.47,5.47,0,0,0-1.14.1Z"/><path class="cls-40" d="M390.1,408.46a8.92,8.92,0,0,0,.08,1.37h-.53l-.08-.83h0a2.22,2.22,0,0,1-1.85,1,1.56,1.56,0,0,1-1.69-1.58c0-1.33,1.16-2.14,3.51-2.11v-.16c0-.56-.11-1.7-1.47-1.69a2.47,2.47,0,0,0-1.45.43l-.19-.42a3.18,3.18,0,0,1,1.7-.49c1.66,0,2,1.25,2,2.27Zm-.58-1.71c-1.26,0-2.91.15-2.91,1.53a1.1,1.1,0,0,0,1.15,1.2,1.72,1.72,0,0,0,1.7-1.15.92.92,0,0,0,.06-.35Z"/><path class="cls-40" d="M396.55,409a3.4,3.4,0,0,1-.79,2.66,2.9,2.9,0,0,1-1.95.69,3.21,3.21,0,0,1-1.84-.51l.2-.45a3.17,3.17,0,0,0,1.72.48c1.21,0,2.09-.63,2.09-2.33v-.82h0a2.15,2.15,0,0,1-2,1.12,2.61,2.61,0,0,1-2.47-2.83,2.76,2.76,0,0,1,2.59-3.06A2,2,0,0,1,396,405h0l0-1h.53c0,.43-.05.89-.05,1.49Zm-.57-2.7a1.61,1.61,0,0,0-.08-.56,1.84,1.84,0,0,0-1.78-1.31c-1.23,0-2.06,1-2.06,2.52,0,1.29.68,2.41,2,2.41a1.89,1.89,0,0,0,1.79-1.3,2.05,2.05,0,0,0,.1-.61Z"/><path class="cls-40" d="M403.4,406.89a2.79,2.79,0,0,1-2.76,3.07,2.69,2.69,0,0,1-2.63-3,2.78,2.78,0,0,1,2.72-3.06A2.68,2.68,0,0,1,403.4,406.89Zm-4.82.07a2.3,2.3,0,0,0,2.1,2.52,2.33,2.33,0,0,0,2.15-2.55,2.16,2.16,0,1,0-4.25,0Z"/><path class="cls-40" d="M367.34,421.29c0,1.83,1,2.57,2.19,2.57a3.32,3.32,0,0,0,1.6-.33l.14.45a3.8,3.8,0,0,1-1.81.37,2.64,2.64,0,0,1-2.69-2.89c0-1.92,1.11-3.12,2.59-3.12a2.34,2.34,0,0,1,2.24,2.6,1.78,1.78,0,0,1,0,.35Zm3.67-.46a1.76,1.76,0,0,0-1.72-2,2.06,2.06,0,0,0-1.93,2Z"/><path class="cls-40" d="M373.07,415.71h.58v8.52h-.58Z"/><path class="cls-40" d="M375.7,421.29c0,1.83,1,2.57,2.19,2.57a3.32,3.32,0,0,0,1.6-.33l.14.45a3.77,3.77,0,0,1-1.81.37,2.64,2.64,0,0,1-2.68-2.89c0-1.92,1.1-3.12,2.59-3.12a2.34,2.34,0,0,1,2.24,2.6,1.2,1.2,0,0,1,0,.35Zm3.67-.46a1.76,1.76,0,0,0-1.72-2,2.06,2.06,0,0,0-1.93,2Z"/><path class="cls-40" d="M385.4,424a3.92,3.92,0,0,1-1.69.37,2.71,2.71,0,0,1-2.75-2.94,3,3,0,0,1,4.47-2.71l-.2.47a2.67,2.67,0,0,0-1.36-.34,2.32,2.32,0,0,0-2.34,2.53,2.28,2.28,0,0,0,2.28,2.5,3.25,3.25,0,0,0,1.44-.34Z"/><path class="cls-40" d="M387.71,417.2v1.27h1.64v.47h-1.64v3.74c0,.73.23,1.19.84,1.19a2.08,2.08,0,0,0,.66-.09l.07.44a2.05,2.05,0,0,1-.8.14,1.2,1.2,0,0,1-1-.41,2.12,2.12,0,0,1-.35-1.38v-3.63h-1v-.47h1v-1.05Z"/><path class="cls-40" d="M390.61,420.2c0-.58,0-1.17,0-1.73h.52l0,1.17h0a1.81,1.81,0,0,1,1.64-1.3l.23,0v.56a.74.74,0,0,0-.27,0c-.79,0-1.36.68-1.51,1.61a2.45,2.45,0,0,0-.05.55v3.18h-.58Z"/><path class="cls-40" d="M399,421.29a2.79,2.79,0,0,1-2.76,3.07,2.69,2.69,0,0,1-2.63-3,2.78,2.78,0,0,1,2.72-3.06A2.68,2.68,0,0,1,399,421.29Zm-4.82.07a2.3,2.3,0,0,0,2.1,2.52,2.33,2.33,0,0,0,2.15-2.55,2.16,2.16,0,1,0-4.25,0Zm3.49-5.38-1.46,1.65h-.45l1.07-1.65Z"/><path class="cls-40" d="M400.42,419.85c0-.53,0-.92-.05-1.38h.54l0,1h0a2.17,2.17,0,0,1,2-1.18c.55,0,2,.28,2,2.43v3.46h-.57v-3.41c0-1-.41-2-1.6-2a1.84,1.84,0,0,0-1.72,1.32,2,2,0,0,0-.08.52v3.56h-.57Z"/><path class="cls-40" d="M407.59,416.83a.47.47,0,0,1-.48.49.46.46,0,0,1-.44-.49.49.49,0,0,1,.47-.51A.48.48,0,0,1,407.59,416.83Zm-.74,7.4v-5.76h.58v5.76Z"/><path class="cls-40" d="M413.33,424a3.92,3.92,0,0,1-1.69.37,2.71,2.71,0,0,1-2.76-2.94,3,3,0,0,1,4.47-2.71l-.2.47a2.67,2.67,0,0,0-1.36-.34,2.32,2.32,0,0,0-2.34,2.53,2.28,2.28,0,0,0,2.28,2.5,3.21,3.21,0,0,0,1.44-.34Z"/><path class="cls-40" d="M419.63,421.29a2.8,2.8,0,0,1-2.76,3.07,2.7,2.7,0,0,1-2.64-3,2.79,2.79,0,0,1,2.72-3.06A2.68,2.68,0,0,1,419.63,421.29Zm-4.82.07a2.3,2.3,0,0,0,2.1,2.52,2.33,2.33,0,0,0,2.14-2.55,2.15,2.15,0,1,0-4.24,0Z"/><path class="cls-40" d="M382,553.93a10.34,10.34,0,0,1,1.74-.15,3,3,0,0,1,2.14.68,2.12,2.12,0,0,1,.62,1.59,2.25,2.25,0,0,1-.56,1.61,3.11,3.11,0,0,1-2.38.9,3.72,3.72,0,0,1-1-.09v3.45H382Zm.58,4a3.13,3.13,0,0,0,1,.12c1.45,0,2.31-.69,2.31-2s-.92-1.85-2.2-1.85a6.43,6.43,0,0,0-1.14.09Z"/><path class="cls-40" d="M391.26,560.56a7.71,7.71,0,0,0,.09,1.36h-.53l-.09-.83h0a2.19,2.19,0,0,1-1.85,1,1.56,1.56,0,0,1-1.69-1.58c0-1.33,1.17-2.13,3.52-2.11v-.16c0-.56-.11-1.7-1.48-1.69a2.52,2.52,0,0,0-1.45.44l-.18-.42a3.19,3.19,0,0,1,1.69-.5c1.67,0,2,1.25,2,2.27Zm-.57-1.72c-1.26,0-2.92.16-2.92,1.54a1.1,1.1,0,0,0,1.15,1.19,1.72,1.72,0,0,0,1.71-1.15,1.17,1.17,0,0,0,.06-.35Z"/><path class="cls-40" d="M397.72,561.08a3.43,3.43,0,0,1-.79,2.67,2.9,2.9,0,0,1-2,.68,3.25,3.25,0,0,1-1.83-.5l.2-.46a3.14,3.14,0,0,0,1.72.48c1.21,0,2.08-.62,2.08-2.33v-.81h0a2.14,2.14,0,0,1-2,1.11,2.61,2.61,0,0,1-2.48-2.83,2.76,2.76,0,0,1,2.59-3.06,2.05,2.05,0,0,1,1.95,1.11h0l0-1h.53c0,.43,0,.88,0,1.48Zm-.58-2.7a1.66,1.66,0,0,0-.07-.56,1.86,1.86,0,0,0-1.79-1.31c-1.22,0-2.06,1-2.06,2.52,0,1.3.68,2.41,2,2.41a1.88,1.88,0,0,0,1.79-1.29,2.1,2.1,0,0,0,.09-.61Z"/><path class="cls-40" d="M404.57,559a2.8,2.8,0,0,1-2.76,3.07,2.7,2.7,0,0,1-2.64-3,2.79,2.79,0,0,1,2.72-3.06A2.68,2.68,0,0,1,404.57,559Zm-4.82.08a2.29,2.29,0,0,0,2.1,2.51A2.32,2.32,0,0,0,404,559a2.15,2.15,0,1,0-4.24,0Z"/><path class="cls-40" d="M368.5,573.38c0,1.84,1,2.57,2.2,2.57a3.39,3.39,0,0,0,1.59-.32l.14.44a3.77,3.77,0,0,1-1.81.37,2.64,2.64,0,0,1-2.68-2.89c0-1.92,1.1-3.12,2.59-3.12a2.35,2.35,0,0,1,2.24,2.61,1.67,1.67,0,0,1,0,.34Zm3.67-.45a1.76,1.76,0,0,0-1.71-2,2.06,2.06,0,0,0-1.94,2Z"/><path class="cls-40" d="M374.24,567.81h.57v8.51h-.57Z"/><path class="cls-40" d="M376.86,573.38c0,1.84,1,2.57,2.2,2.57a3.39,3.39,0,0,0,1.59-.32l.15.44a3.84,3.84,0,0,1-1.81.37,2.64,2.64,0,0,1-2.69-2.89c0-1.92,1.1-3.12,2.59-3.12a2.35,2.35,0,0,1,2.24,2.61,1.67,1.67,0,0,1,0,.34Zm3.67-.45a1.75,1.75,0,0,0-1.71-2,2.06,2.06,0,0,0-1.93,2Z"/><path class="cls-40" d="M386.57,576.07a3.92,3.92,0,0,1-1.69.37,2.71,2.71,0,0,1-2.76-2.94,2.9,2.9,0,0,1,3-3.07,3,3,0,0,1,1.51.36l-.2.47a2.78,2.78,0,0,0-1.35-.33,2.31,2.31,0,0,0-2.34,2.53A2.27,2.27,0,0,0,385,576a3.07,3.07,0,0,0,1.43-.34Z"/><path class="cls-40" d="M388.88,569.29v1.27h1.64V571h-1.64v3.74c0,.74.22,1.19.84,1.19a2.13,2.13,0,0,0,.66-.08l.07.43a2.15,2.15,0,0,1-.81.14,1.2,1.2,0,0,1-1-.4,2.14,2.14,0,0,1-.36-1.38V571h-1v-.47h1v-1Z"/><path class="cls-40" d="M391.78,572.29c0-.57,0-1.16,0-1.73h.53l0,1.17h0a1.79,1.79,0,0,1,1.63-1.3l.24,0V571a.8.8,0,0,0-.28,0c-.79,0-1.35.69-1.51,1.61a3.24,3.24,0,0,0,0,.55v3.18h-.58Z"/><path class="cls-40" d="M400.12,573.38a2.8,2.8,0,0,1-2.76,3.07,2.7,2.7,0,0,1-2.64-3,2.79,2.79,0,0,1,2.72-3.06A2.68,2.68,0,0,1,400.12,573.38Zm-4.82.08a2.3,2.3,0,0,0,2.09,2.52,2.33,2.33,0,0,0,2.15-2.56,2.15,2.15,0,1,0-4.24,0Zm3.49-5.39-1.47,1.66h-.44l1.07-1.66Z"/><path class="cls-40" d="M401.58,571.94c0-.52,0-.92,0-1.38h.54l0,1.05h0a2.16,2.16,0,0,1,2-1.18c.56,0,2,.28,2,2.44v3.45h-.58v-3.4c0-1-.4-2-1.59-2a1.85,1.85,0,0,0-1.73,1.31,2.72,2.72,0,0,0-.07.52v3.56h-.58Z"/><path class="cls-40" d="M408.76,568.92a.46.46,0,0,1-.48.49.46.46,0,0,1-.44-.49.49.49,0,0,1,.46-.5A.47.47,0,0,1,408.76,568.92Zm-.74,7.4v-5.76h.57v5.76Z"/><path class="cls-40" d="M414.49,576.07a3.92,3.92,0,0,1-1.69.37A2.72,2.72,0,0,1,410,573.5a2.9,2.9,0,0,1,3-3.07,3,3,0,0,1,1.51.36l-.21.47a2.75,2.75,0,0,0-1.35-.33,2.31,2.31,0,0,0-2.34,2.53A2.27,2.27,0,0,0,412.9,576a3.12,3.12,0,0,0,1.44-.34Z"/><path class="cls-40" d="M420.79,573.38a2.79,2.79,0,0,1-2.75,3.07,2.7,2.7,0,0,1-2.64-3,2.78,2.78,0,0,1,2.72-3.06A2.68,2.68,0,0,1,420.79,573.38Zm-4.82.08a2.3,2.3,0,0,0,2.1,2.52,2.33,2.33,0,0,0,2.15-2.56,2.16,2.16,0,1,0-4.25,0Z"/><text class="cls-41" transform="translate(360.04 115.37)">C<tspan class="cls-42" x="6.79" y="0">aja tradicional</tspan></text><text class="cls-43" transform="translate(433.32 111.37) scale(0.58)">1</text><text class="cls-21" transform="translate(362.2 183.23)"><tspan class="cls-44">A</tspan><tspan x="6.9" y="0">u</tspan><tspan class="cls-45" x="13.27" y="0">t</tspan><tspan class="cls-46" x="16.91" y="0">o</tspan><tspan class="cls-47" x="23.46" y="0">-</tspan><tspan x="27.28" y="0">escaneo</tspan></text><text class="cls-21" transform="translate(368.53 256.96)"><tspan class="cls-48">A</tspan><tspan x="6.9" y="0">u</tspan><tspan class="cls-49" x="13.27" y="0">t</tspan><tspan class="cls-50" x="16.91" y="0">o</tspan><tspan class="cls-51" x="23.46" y="0">-</tspan><tspan class="cls-42" x="27.28" y="0">cob</tspan><tspan class="cls-26" x="45.64" y="0">r</tspan><tspan x="49.04" y="0">o</tspan></text><text class="cls-35" transform="translate(632.38 193.39)">T<tspan class="cls-36" x="5.52" y="0">ienda</tspan></text><line class="cls-52" x1="53.67" y1="123.33" x2="53.67" y2="411.94"/><line class="cls-53" x1="53.67" y1="477.45" x2="53.67" y2="612.33"/><path class="cls-54" d="M353,552.66l-6.68-2.73a.53.53,0,0,0-.69.68l.81,2H246a.5.5,0,0,0-.5.5.5.5,0,0,0,.5.5H346.45l-.81,2a.53.53,0,0,0,.69.68l6.68-2.73A.53.53,0,0,0,353,552.66Z"/><path class="cls-55" d="M612.55,552.66l-6.68-2.73a.53.53,0,0,0-.69.68l.81,2H474.68a.5.5,0,0,0-.5.5.51.51,0,0,0,.5.5H606l-.81,2a.53.53,0,0,0,.69.68l6.68-2.73A.53.53,0,0,0,612.55,552.66Z"/><path class="cls-56" d="M607.54,410.56l-6.68-2.73a.53.53,0,0,0-.69.68l.82,2.07c-43.27.67-76.47,15.65-98.7,44.57-24,31.17-29,70.5-29,98a.5.5,0,0,0,.5.5.51.51,0,0,0,.5-.5c0-32.94,9.21-139.73,126.64-141.55l-.79,2a.53.53,0,0,0,.69.69l6.68-2.74A.53.53,0,0,0,607.54,410.56Z"/><path class="cls-57" d="M607.66,259.3,601,256.56a.53.53,0,0,0-.69.68l.74,1.87c-46.36.48-81.15,12.27-103.42,35.06A83.59,83.59,0,0,0,473.32,352a.5.5,0,0,0,.5.5.5.5,0,0,0,.5-.5,83.93,83.93,0,0,1,24-57.11c22.1-22.61,56.7-34.29,102.85-34.75l-.88,2.21a.53.53,0,0,0,.69.69l6.68-2.74A.52.52,0,0,0,607.66,259.3Z"/><path class="cls-58" d="M607.66,442.81,601,445.55a.53.53,0,0,1-.69-.68L601,443c-46.36-.49-81.15-12.27-103.42-35.06a83.59,83.59,0,0,1-24.29-57.8.5.5,0,0,1,.5-.5.5.5,0,0,1,.5.5,83.89,83.89,0,0,0,24,57.1c22.1,22.62,56.7,34.3,102.85,34.76l-.88-2.22a.53.53,0,0,1,.69-.68l6.68,2.74A.52.52,0,0,1,607.66,442.81Z"/><path class="cls-59" d="M478.2,390.36a.5.5,0,0,1,.5-.5.5.5,0,0,1,.5.5v54.58a83.94,83.94,0,0,0,24,57.11c22.1,22.61,56.69,34.29,102.85,34.75l-.88-2.21a.53.53,0,0,1,.69-.68l6.68,2.73a.53.53,0,0,1,0,1l-6.68,2.73a.53.53,0,0,1-.69-.68l.74-1.87c-46.37-.48-81.16-12.26-103.43-35a83.67,83.67,0,0,1-24.29-57.81Z"/><path class="cls-60" d="M473.86,551.15a.5.5,0,1,0,1,0v-154a83.89,83.89,0,0,1,24-57.11c22.09-22.61,56.69-34.29,102.84-34.75l-.87,2.21a.53.53,0,0,0,.69.68l6.67-2.73a.53.53,0,0,0,0-1l-6.67-2.73a.53.53,0,0,0-.69.68l.74,1.87c-46.37.48-81.16,12.26-103.43,35.05a83.67,83.67,0,0,0-24.29,57.81Z"/><path class="cls-61" d="M702,155.18l-3.38-2-.15-.1m-5.44,6.65c-1.19-1.42-1.77-2.28-1.52-3.85l.81-6.21,1.18-2.73m5.94,27.78-.79-3.65m.79-9.24.67,1.17a2.92,2.92,0,0,1,.2.69l1.58,11m-7.74-17.12-4.68-6.69a2.56,2.56,0,0,1,.23-1l2.2-5.67a4.06,4.06,0,0,1,3.89-2.11c1.9.12,3.36,2.83,3,4.47l-2.06,9.65a1.44,1.44,0,0,0,.14,1.12l1.4,2.43m-10.14,11.34-1.09,3.63m4.46-18.51-.58,3.53m-1.54,15,1.35-3.62m8.46-36.78a3,3,0,0,0-2.39-1.38c-2.86-.33-3.77,1.64-3.35,4.24a3.2,3.2,0,0,0,2.79,3,2.45,2.45,0,0,0,2.89-1.65c.32-1,.59-3.22.06-4.2Zm-5.8,2.4a1.54,1.54,0,0,1-2.1,1.09,2.55,2.55,0,0,0,.1,2c.65,1,2.29.84,2.69.81m-.69-3.4c2.69,1.36,2.7-3.32,6.1-1.36"/><polygon class="cls-62" points="699.25 159.82 688.48 159.82 687.41 171.08 700.31 171.08 699.25 159.82 699.25 159.82"/><path class="cls-62" d="M696.32,161.21V160a2.44,2.44,0,0,0-2.46-2.45h0a2.44,2.44,0,0,0-1.73.71,2.47,2.47,0,0,0-.72,1.74v1.2"/><text class="cls-21" transform="translate(641.91 31.53)">Ent<tspan class="cls-26" x="15.73" y="0">r</tspan><tspan class="cls-37" x="19.14" y="0">ega</tspan></text><path class="cls-63" d="M637.23,26.24l-.51,1.62-.3,1-.08.22,0,.13-.06.16,0,.07s-.05.13,0,.05c-.05.1-.09.19-.15.29l-.08.13h0l-.07.08-.11.12-.06.05c.06-.06,0,0,0,0l-.14.08-.08,0h0l0,0a1.62,1.62,0,0,1-.38.09H624.38a1.18,1.18,0,0,1-.63-.31l-.13-.14c-.07-.08,0,.05,0,0l-.06-.09-.09-.17c0,.07,0,0,0,0a.56.56,0,0,1,0-.12l0-.1s0-.12,0,0a1.09,1.09,0,0,1,0-.18v-8l-.35.34H631l-.33-.43a5.07,5.07,0,0,0,1.09,4.12A5,5,0,0,0,634.8,27a5.17,5.17,0,0,0,2.93-.39.34.34,0,1,0-.34-.59,4.51,4.51,0,0,1-2,.36,4.5,4.5,0,0,1-1.64-.41,4.45,4.45,0,0,1-1.36-1,4.44,4.44,0,0,1-1.12-3.69.35.35,0,0,0-.33-.44H623a.35.35,0,0,0-.34.35v7.29a5.08,5.08,0,0,0,.06,1.17,1.92,1.92,0,0,0,1.94,1.42h9.51a9.32,9.32,0,0,0,1.06,0,2,2,0,0,0,1.33-.82,3.57,3.57,0,0,0,.45-1l.58-1.87c.1-.31.2-.62.29-.94a.34.34,0,0,0-.24-.42A.34.34,0,0,0,637.23,26.24Z"/><path class="cls-63" d="M627.58,34.35v.1c0,.11,0-.07,0,0a1.33,1.33,0,0,1-.05.19c0-.07,0,0,0,0l0,.09-.05.08c0-.06,0,0,0,0l-.07.06c-.08.07.05,0,0,0l-.17.1c-.09,0,.06,0,0,0l-.09,0-.1,0h-.22l-.19,0c-.1,0,.06,0,0,0l-.08,0-.08,0s0,0,0,0l-.05-.05-.07-.06s-.07-.09,0,0a1,1,0,0,1-.1-.17s0-.1,0,0l0-.09,0-.1s0,0,0,0,0,0,0-.07a1.41,1.41,0,0,1,0-.2c0,.07,0,0,0,0l0-.09s0-.11,0,0l0-.09a.56.56,0,0,1,0-.08.1.1,0,0,1,0,0s0,0,0,0a.86.86,0,0,1,.14-.13c-.05,0,0,0,0,0l.09,0,.08,0c-.06,0,0,0,0,0l.1,0h.27c.11,0-.06,0,0,0l.09,0,.09,0c-.06,0,0,0,0,0l.08,0,.06,0a.86.86,0,0,1,.14.13c.07.08,0-.05,0,0a.35.35,0,0,0,.05.08l0,.09c0,.09,0-.06,0,0l0,.1v.07a.66.66,0,0,1,0,.14.36.36,0,0,0,.35.34.35.35,0,0,0,.34-.34,1.53,1.53,0,1,0-2.8.85,1.58,1.58,0,0,0,1.69.62,1.55,1.55,0,0,0,1.11-1.47.35.35,0,0,0-.34-.35A.36.36,0,0,0,627.58,34.35Z"/><path class="cls-63" d="M634.1,34.35s0,.06,0,.1,0-.07,0,0l-.06.19c0-.07,0,0,0,0l0,.09-.06.08c0-.06,0,0,0,0l-.07.06c-.07.07.05,0,0,0a1,1,0,0,1-.17.1c-.09,0,.07,0,0,0l-.1,0-.09,0h-.22l-.2,0c-.09,0,.06,0,0,0l-.09,0-.08,0s0,0,0,0l0-.05-.07-.06s-.07-.09,0,0a1,1,0,0,1-.1-.17s0-.1,0,0l0-.09a.44.44,0,0,1,0-.1s0,0,0,0v-.07a1.33,1.33,0,0,1,0-.2c0,.07,0,0,0,0l0-.09s0-.11,0,0l0-.09,0-.08,0,0h0a1.59,1.59,0,0,1,.13-.13l0,0,.08,0,.09,0c-.07,0,0,0,0,0l.09,0h.28c.11,0-.07,0,0,0l.1,0,.09,0c-.07,0,0,0,0,0l.09,0,.06,0a.8.8,0,0,1,.13.13c.07.08,0-.05,0,0l.05.08,0,.09c0,.09,0-.06,0,0l0,.1s0,.14,0,.07,0,.09,0,.14a.34.34,0,0,0,.34.34.34.34,0,0,0,.34-.34,1.52,1.52,0,0,0-2.75-.91,1.52,1.52,0,0,0,0,1.76,1.52,1.52,0,0,0,2.79-.85.34.34,0,0,0-.34-.35A.35.35,0,0,0,634.1,34.35Z"/><path class="cls-63" d="M623.36,27.72V20.3a1.27,1.27,0,0,0-1.12-1.24,4.14,4.14,0,0,0-.61,0H619.1a.34.34,0,0,0-.34.34.35.35,0,0,0,.34.35h3.14l.1,0c-.07,0,0,0,0,0l.06,0a.86.86,0,0,1,.14.13c-.05,0,0,0,0,0a.22.22,0,0,1,0,.08c0-.06,0,0,0,0a.29.29,0,0,1,0,.09c0-.06,0,.06,0,.08v7.42a.34.34,0,0,0,.34.34.35.35,0,0,0,.35-.34Z"/><path class="cls-63" d="M625.59,25.61h2.19a.35.35,0,0,0,.35-.35.35.35,0,0,0-.35-.34h-2.19a.35.35,0,0,0-.35.34.35.35,0,0,0,.35.35Z"/><path class="cls-63" d="M625.59,28.1h6.35a.35.35,0,0,0,.34-.35.34.34,0,0,0-.34-.34h-6.35a.35.35,0,0,0-.35.34.35.35,0,0,0,.35.35Z"/><path class="cls-63" d="M635.73,32.78h-11a1.3,1.3,0,0,1-.67-.16l-.16-.1c.06,0,0,0,0,0l-.07-.06a1,1,0,0,1-.23-.29.89.89,0,0,1-.08-.17c0,.07,0,0,0,0l0-.09c0-.07,0-.13,0-.2s0,0,0,0V25.25a.35.35,0,1,0-.69,0v5.51a4.26,4.26,0,0,0,.11,1.38,2,2,0,0,0,1.27,1.24,2.21,2.21,0,0,0,.67.09h11a.35.35,0,0,0,0-.69Z"/><path class="cls-63" d="M640,22a3.81,3.81,0,0,1-.07.79,4.2,4.2,0,0,1-.22.79l0,.1s-.05.1,0,0l-.08.18c-.06.13-.13.25-.2.37l-.21.32a1.94,1.94,0,0,1-.23.29,4.4,4.4,0,0,1-2.68,1.49s-.11,0,0,0h-.1l-.21,0h-.45a3.42,3.42,0,0,1-.45,0c.07,0,0,0,0,0l-.11,0-.25-.05-.41-.12-.38-.15a4.42,4.42,0,0,1-.76-.44,2,2,0,0,1-.29-.22c-.12-.1-.22-.2-.33-.31a3.77,3.77,0,0,1-.51-.64,4.41,4.41,0,0,1-.69-2.85s0-.07,0-.1,0-.12,0,0c0-.07,0-.14,0-.2a3.2,3.2,0,0,1,.1-.42,2.29,2.29,0,0,1,.12-.37,2,2,0,0,1,.15-.34,4,4,0,0,1,.41-.69l.06-.08c.06-.08,0,.05,0,0l.13-.15.28-.3a4,4,0,0,1,.58-.47,4.43,4.43,0,0,1,.71-.39s.1-.05,0,0l.09,0,.19-.07.41-.12.39-.08h.14l.24,0a4.27,4.27,0,0,1,.95,0A4.38,4.38,0,0,1,640,21.43s0,.09,0,.1,0,.11,0,.16,0,.21,0,.31a.35.35,0,1,0,.69,0,5.08,5.08,0,0,0-8.41-3.84,5.07,5.07,0,0,0-.83,6.77A5.08,5.08,0,0,0,640.71,22a.35.35,0,0,0-.69,0Z"/><path class="cls-63" d="M633.46,22.35h4.33a.35.35,0,0,0,.24-.59l-1.22-1.25a.34.34,0,0,0-.49.48l1.23,1.26.24-.59h-4.33a.35.35,0,0,0,0,.69Z"/><path class="cls-63" d="M637.55,21.76,636.32,23a.34.34,0,0,0,.49.48L638,22.25c.31-.32-.17-.81-.48-.49Z"/><text class="cls-21" transform="translate(150.02 31.36)"><tspan class="cls-64">C</tspan><tspan x="6.77" y="0">ompra</tspan></text><path class="cls-63" d="M146.85,19.33a1.35,1.35,0,0,0-1-.48H130.35l-.13-.9a1.37,1.37,0,0,0-1.37-1.16h-2.14a.68.68,0,0,0-.69.68.69.69,0,0,0,.69.69h2.15l1.88,12.56a1.39,1.39,0,0,0,1.38,1.17h13.12a.69.69,0,0,0,0-1.38H132.1l-.31-2.05h12.87A1.38,1.38,0,0,0,146,27.31l1.14-6.87A1.37,1.37,0,0,0,146.85,19.33Zm-2.19,7.75h-13l-1.06-6.86H145.8Z"/><circle class="cls-63" cx="133.57" cy="34.63" r="1.37"/><circle class="cls-63" cx="142.5" cy="34.63" r="1.37"/><text class="cls-21" transform="translate(403.03 30.78)"><tspan class="cls-65">P</tspan><tspan x="5.66" y="0">ago</tspan></text><path class="cls-63" d="M381.94,25h-1.45A1.08,1.08,0,0,0,379.41,26v.73a1.08,1.08,0,0,0,1.08,1.09h1.45A1.09,1.09,0,0,0,383,26.76V26A1.08,1.08,0,0,0,381.94,25Zm.36,1.81a.36.36,0,0,1-.36.36h-1.45a.36.36,0,0,1-.36-.36V26a.36.36,0,0,1,.36-.36h1.45a.36.36,0,0,1,.36.36Z"/><path class="cls-63" d="M394.26,23.13H379a1.45,1.45,0,0,0-1.45,1.45V34.73A1.45,1.45,0,0,0,379,36.18h15.22a1.45,1.45,0,0,0,1.45-1.45V24.58A1.45,1.45,0,0,0,394.26,23.13Zm.73,11.6a.73.73,0,0,1-.73.72H379a.72.72,0,0,1-.72-.72V24.58a.72.72,0,0,1,.72-.72h15.22a.73.73,0,0,1,.73.72Z"/><path class="cls-63" d="M392.81,33.28h-8.69a.37.37,0,0,0-.37.36.38.38,0,0,0,.37.37h8.69a.37.37,0,0,0,.36-.37A.36.36,0,0,0,392.81,33.28Z"/><path class="cls-63" d="M392.81,31.47h-5.07a.36.36,0,1,0,0,.72h5.07a.36.36,0,0,0,0-.72Z"/><path class="cls-63" d="M376.51,28.93h-1.09a.72.72,0,0,1-.72-.72V21.69h16.66v.18a.37.37,0,0,0,.37.36.36.36,0,0,0,.36-.36V18.06a1.45,1.45,0,0,0-1.45-1.45H375.42A1.45,1.45,0,0,0,374,18.06V28.21a1.45,1.45,0,0,0,1.45,1.45h1.09a.37.37,0,0,0,.36-.37A.36.36,0,0,0,376.51,28.93Zm-1.09-11.59h15.22a.72.72,0,0,1,.72.72v1.09H374.7V18.06A.72.72,0,0,1,375.42,17.34Z"/><text class="cls-66" transform="translate(533.44 644.97)">1. <tspan class="cls-67" x="9.48" y="0">P</tspan><tspan x="14.56" y="0">ago en e</tspan><tspan class="cls-68" x="51.96" y="0">f</tspan><tspan x="54.62" y="0">e</tspan><tspan class="cls-69" x="59.84" y="0">c</tspan><tspan x="64.76" y="0">ti</tspan><tspan class="cls-70" x="70.33" y="0">v</tspan><tspan class="cls-71" x="75.13" y="0">o</tspan><tspan x="80.66" y="0">, tarjeta de c</tspan><tspan class="cls-72" x="132.61" y="0">r</tspan><tspan x="135.66" y="0">édi</tspan><tspan class="cls-73" x="148.99" y="0">t</tspan><tspan x="152.25" y="0">o o débi</tspan><tspan class="cls-73" x="187.69" y="0">t</tspan><tspan class="cls-71" x="190.95" y="0">o</tspan><tspan class="cls-74" x="196.48" y="0">.</tspan></text></g></g></g></svg>