<?xml version="1.0" encoding="utf-8"?>
<!-- Generator: Adobe Illustrator 25.2.0, SVG Export Plug-In . SVG Version: 6.00 Build 0)  -->
<svg version="1.1" id="Capa_1" xmlns="http://www.w3.org/2000/svg" xmlns:xlink="http://www.w3.org/1999/xlink" x="0px" y="0px"
	 viewBox="0 0 40 40" style="enable-background:new 0 0 40 40;" xml:space="preserve">
<style type="text/css">
	.st0{clip-path:url(#SVGID_2_);fill:#FFFFFF;}
	.st1{fill:#F1B634;}
</style>
<g>
	<g>
		<defs>
			<rect id="SVGID_1_" x="0.4" y="0.4" width="39.2" height="39.2"/>
		</defs>
		<clipPath id="SVGID_2_">
			<use xlink:href="#SVGID_1_"  style="overflow:visible;"/>
		</clipPath>
		<path class="st0" d="M20,39.6c10.8,0,19.6-8.8,19.6-19.6S30.8,0.4,20,0.4S0.4,9.2,0.4,20S9.2,39.6,20,39.6"/>
	</g>
	<g>
		<path class="st1" d="M12.9,28.9v-2.8l2.5-2.3c4.3-3.9,6.4-6.1,6.4-8.4c0-1.6-0.9-2.9-3.2-2.9c-1.7,0-3.2,0.8-4.2,1.6l-1.3-3.3
			c1.4-1.1,3.8-2,6.4-2c4.5,0,6.9,2.6,6.9,6.2c0,3.3-2.4,5.9-5.2,8.4L19.4,25v0.1h7.4v3.8H12.9z"/>
	</g>
</g>
</svg>
