<?xml version="1.0" encoding="utf-8"?>
<!-- Generator: Adobe Illustrator 25.2.0, SVG Export Plug-In . SVG Version: 6.00 Build 0)  -->
<svg version="1.1" id="Capa_1" xmlns="http://www.w3.org/2000/svg" xmlns:xlink="http://www.w3.org/1999/xlink" x="0px" y="0px"
	 viewBox="0 0 39.2 39.2" style="enable-background:new 0 0 39.2 39.2;" xml:space="preserve">
<style type="text/css">
	.st0{fill:#FFFFFF;}
	.st1{fill:#3977BB;}
</style>
<path class="st0" d="M19.6,39.2c10.8,0,19.6-8.8,19.6-19.6S30.4,0,19.6,0S0,8.8,0,19.6C0,30.4,8.8,39.2,19.6,39.2L19.6,39.2"/>
<g>
	<path class="st1" d="M20.9,32.6v-6.2H9.4v-4l9.8-15.8h7.5v15.2h3.1v4.6h-3.1v6.2H20.9z M20.9,21.8v-5.8c0-1.6,0.1-3.2,0.2-4.8H21
		c-0.8,1.7-1.6,3.2-2.4,4.8l-3.4,5.7l0,0.1H20.9z"/>
</g>
</svg>
