<svg xmlns="http://www.w3.org/2000/svg" viewBox="0 0 38.55 38.55"><defs><style>.cls-1{fill:#00d4e0;}.cls-2{fill:none;stroke:#fff;stroke-linecap:round;stroke-linejoin:round;stroke-width:0.7px;}</style></defs><g id="Capa_2" data-name="Capa 2"><g id="Capa_1-2" data-name="Capa 1"><path class="cls-1" d="M19.28,38.55A19.28,19.28,0,1,1,38.55,19.28,19.28,19.28,0,0,1,19.28,38.55"/><path class="cls-2" d="M12.43,13.09a.39.39,0,0,0,.22-.09,1.23,1.23,0,0,0,.4-.55.71.71,0,0,0,0-.44c.16-.23,0-.23,0-.23l0-.34s.06-.31.06-.39a.7.7,0,0,0-.12-.26,3,3,0,0,0,.21-.41c.09-.23.09-.21.21-.29s0-.31,0-.53,0-.16-.12-.16-.31.12-.31,0,.15-.2,0-.22-.29.21-.38.29a1.88,1.88,0,0,0-.26.55c-.08.26-.13.21-.44,0s-.29.34-.29.34a9.67,9.67,0,0,1,0,2,12.73,12.73,0,0,0-.16,1.39l.49.05a3.19,3.19,0,0,0,.2-.39C12.17,13.31,12.34,13.1,12.43,13.09Zm9.08,2.2c-.1-.12-.07-.23-.17-.32a.7.7,0,0,0-.41-.14c-.14,0,0,.13-.1.13s-.3-.21-.42-.23,0,.11.16.23-.07.08-.25,0-.14-.09-.1-.26-.14-.06-.19-.18.38,0,.45,0-.53-.55-.62-.61-.42.13-.52.15-.07-.16-.31-.28-.36-.14-.52,0a1.83,1.83,0,0,1-.68.09,1.29,1.29,0,0,1-.45-.15c-.13-.09-.33-.09-.3,0s-.1.12-.29.12-.25.07-.29.14a.35.35,0,0,1-.25.12c-.06,0-.43-.05-.55-.06s-.2.06-.33.07-.61-.22-.81-.11-.22-.05-.42-.21-.69.26-.74.31-.16,0-.26-.05l-.28.25a4.19,4.19,0,0,0-.62.53c-.2.22-.63.29-.69.37a.62.62,0,0,0-.05.5c.07.12.07.26-.12.41s-.18.26-.18.26h0a.62.62,0,0,1,.27.09c.19.1.15.05.27.18s.21.31.3.33.17.15.32.21.22.06.26.15a.15.15,0,0,0,.22.07c.22-.1.21-.22.37-.18s.13.09.24.14.07.07.22.06.1-.17.22,0,.11.24,0,.4-.07.22,0,.27.08.14-.05.14a.15.15,0,0,0-.13.09h0s0,0,0,0,.22,0,.32-.08.16.05.16.05.05.18.09.28.29.25.38.35.36.2.49,0a.68.68,0,0,0,.15-.47c0-.17.16.12.24,0a.43.43,0,0,0,.05-.39c-.05-.16-.13-.33-.05-.41s.46,0,.55,0,.1.21.24,0,.15-.34.3-.39a.28.28,0,0,1,.35.06c.14.11.32.29.34.2s-.09-.25.12-.29.3,0,.34-.08a1.27,1.27,0,0,1,.2-.32s.09-.16.19-.14,0-.05.17-.26.2-.1.18-.22a1.58,1.58,0,0,1,0-.28,1.35,1.35,0,0,1,.28-.11c.06,0,0-.11.17.07a.92.92,0,0,0,.42.25.33.33,0,0,0,.28,0,4,4,0,0,1,.59-.22,1.58,1.58,0,0,0,.29-.12c.09,0,.35-.1.4-.13s0-.16.18-.17a3.38,3.38,0,0,1,.52.06S21.61,15.41,21.51,15.29Zm2,10.52a.17.17,0,0,0,.08.16c.08,0,.16.09.16,0a.19.19,0,0,0-.08-.16C23.66,25.77,23.55,25.76,23.55,25.81Zm-.24-.41a.08.08,0,0,0,0,.11c.08,0,.07.11.15.14s.08.08.16.05.12,0,.07-.1a.44.44,0,0,0-.2-.1.41.41,0,0,1-.12-.07C23.35,25.39,23.31,25.32,23.31,25.4Zm5.9,1.66a.49.49,0,0,0,0,.25c0,.1.11,0,.15,0s.07-.26,0-.29-.13,0-.17.09m-4,1.67s-.16.08-.06.12a.34.34,0,0,0,.31-.06c.08-.06.13-.23-.06-.15Zm-.93-.17s-.22.11-.24.19a.3.3,0,0,0,.16.28c.11.07.33.16.34.09s-.06-.17-.06-.17-.11,0-.13-.1S24.55,28.6,24.31,28.61ZM21,19.91s0,.15.06.21a.24.24,0,0,0,.21.06s.11-.15.05-.21-.09-.11-.15-.11A.71.71,0,0,0,21,19.91Zm-3.53,1.68s-.12.07,0,.17.05.22.24.18.2-.15.11-.26A.58.58,0,0,0,17.45,21.59Zm-.22.14a1.06,1.06,0,0,1-.15-.49c-.07-.39-.1-.57,0-.61a1.68,1.68,0,0,1,.72.28,3.15,3.15,0,0,0,.3.27,4,4,0,0,1,.36.32c.12.13.35.37.38.42s.14.18.1.34,0,.36-.22.26-.35-.08-.51-.15-.25-.17-.31-.16-.21.17-.44-.1S17.23,21.73,17.23,21.73Zm3.69,1h0Zm0,0h0Zm1.73,2.35c-.18-.07-.14-.13-.43-.35a9.51,9.51,0,0,1-1-1.43s-.2-.44-.25-.53.11.45-.39.33-.4,0-.5-.12-.26-.22-.31-.28a1.25,1.25,0,0,0-.27-.13l-.28-.05a.33.33,0,0,1-.36.18,5.29,5.29,0,0,1-.6-.18c-.08,0-.46-.16-.46-.16s-.1-.2-.21-.1.18.23-.24.27h0c0,.08,0,0,0,.11s-.17.06-.28.09,0,0,.09.16a.14.14,0,0,0,.23,0,.89.89,0,0,1,.07.35c0,.13,0,.16-.17.28a.61.61,0,0,0-.14.49,1.23,1.23,0,0,0,.63.64c.42.19.44.29.48.4s.13.05.19,0,.22-.15.28-.25,0-.16-.13-.21a1,1,0,0,1-.41-.37c-.06-.13.17-.07.17-.07l.37.2a.7.7,0,0,0,.23.09s.23.23.33.36-.13.22-.11.29.14.1.29.19.43,0,.53.13.42.22.42.22a6.44,6.44,0,0,0,.58.46c.18.1,0,.29.06.41s-.16.2-.2.3.08.21.13.32.27.12.33.15a1.57,1.57,0,0,0,.33.08c.05,0,0-.17-.13-.32s-.13-.08-.23-.18.12-.16.12-.16a1.73,1.73,0,0,1,.26.08c.11.06.14.24.2.34a.44.44,0,0,1,0,.26,2,2,0,0,1,.26.26,1.07,1.07,0,0,1,.07.15s.21-.11,0-.27-.19-.12-.07-.22.41-.09.31-.26-.16-.21-.16-.3-.06-.16,0-.24.3-.09.25-.19-.33-.3-.33-.3a.89.89,0,0,1-.08-.26,3.33,3.33,0,0,1,.1-.44l.13-.06s.16-.12.26,0,.2-.06.2-.06A.9.9,0,0,0,22.64,25.06Zm-1.76-2.38h0Zm.84-7.16a3.38,3.38,0,0,0-.52-.06c-.14,0-.14.13-.18.17s-.31.1-.4.13a1.58,1.58,0,0,1-.29.12,4,4,0,0,0-.59.22.33.33,0,0,1-.28,0,.92.92,0,0,1-.42-.25c-.15-.18-.11-.07-.17-.07a1.35,1.35,0,0,0-.28.11,1.58,1.58,0,0,0,0,.28c0,.12,0,0-.18.22s-.07.28-.17.26-.15.09-.19.14a1.27,1.27,0,0,0-.2.32c0,.1-.14,0-.34.08s-.09.2-.12.29-.2-.09-.34-.2a.28.28,0,0,0-.35-.06c-.15.05-.16.16-.3.39s-.15,0-.24,0-.47-.08-.55,0,0,.25.05.41a.43.43,0,0,1-.05.39c-.08.12-.24-.17-.24,0a.68.68,0,0,1-.15.47c-.13.2-.49,0-.49,0s-.09.24-.19.24-.11-.33-.37-.27-.11.35.05.43.1.13.23.22.72.6.81.7.23.13.35.27a2.81,2.81,0,0,1,.3.57c.09.17.32.3.37.36a4.2,4.2,0,0,0,.53.46,2.7,2.7,0,0,1,.51.6h0c.42,0,.16-.18.24-.27s.21.1.21.1.38.12.46.16a5.29,5.29,0,0,0,.6.18.33.33,0,0,0,.36-.18l.28.05a1.25,1.25,0,0,1,.27.13c.05.06.21.19.31.28s0,0,.5.12.39-.33.39-.33-.29-.29-.33-.55a.53.53,0,0,1,.13-.5c.13-.21.23-.22.23-.32s0-.16-.14-.18-.08,0-.13-.2.1-.07.21-.35-.1-.46-.14-.59.06-.29.19-.26.06-.19,0-.32.19,0,.24,0,0-.25,0-.38a4.45,4.45,0,0,1,0-1c0-.14,0-.39,0-.48a1.7,1.7,0,0,1,.19-.27c.07-.1.24-.55.35-.57s.05-.2,0-.37a2.66,2.66,0,0,0-.32-.63C21.3,15.7,21.72,15.52,21.72,15.52Zm-8,2.85h0a.08.08,0,0,1,0-.05.15.15,0,0,1,.13-.09c.13,0,.08-.1.05-.14s0-.11,0-.27.07-.21,0-.4-.07,0-.22,0-.1,0-.22-.06-.08-.11-.24-.14-.15.08-.37.18a.15.15,0,0,1-.22-.07c0-.09-.1-.1-.26-.15S12.12,17,12,17s-.18-.19-.3-.33-.08-.08-.27-.18a.86.86,0,0,0-.48-.09c-.1,0-.17.15-.17.15v.12c0,.12,0,0-.14.11s-.08.1-.17.2a.42.42,0,0,1-.38.19c-.37,0-.33.43-.33.43h0l.15.12a3.5,3.5,0,0,0,1.28.42c.16.06.39.19.85.41a2.88,2.88,0,0,0,1.19.26c.2,0,.48-.25.44-.32A.11.11,0,0,1,13.7,18.37Zm18.51,9.27a1.68,1.68,0,0,0-.33-.58c-.12-.12.18-.34.18-.34a.65.65,0,0,1-.24-.18.54.54,0,0,0-.29-.19c-.16-.07-.19-.19-.31-.28a2.72,2.72,0,0,0-.59-.36c-.3-.13-.45-.32-.7-.32a1.59,1.59,0,0,1-.79-.11c-.19-.14-.5-.09-.61-.12a1.56,1.56,0,0,0-.52-.1c-.28,0-.13.22-.19.29s-.35.08-.44.26-.21.17-.59.29a1.81,1.81,0,0,0-.74.36,1.11,1.11,0,0,1-.44.19,4.17,4.17,0,0,1-.72.09c-.3,0-.3-.13-.43-.28s-.32-.42-.45-.36.08.19.17.36-.33,0-.33,0a4.06,4.06,0,0,1-.42-.14c-.08-.05-.09-.13-.21-.32s0-.25-.13-.42a.77.77,0,0,0-.45-.32c-.18-.07-.14-.13-.43-.35a9.51,9.51,0,0,1-1-1.43s-.2-.44-.25-.53-.29-.29-.33-.55a.53.53,0,0,1,.13-.5c.13-.21.23-.22.23-.32s0-.16-.14-.18-.08,0-.13-.2.1-.07.21-.35-.1-.46-.14-.59.06-.29.19-.26.06-.19,0-.32.19,0,.24,0,0-.25,0-.38a4.45,4.45,0,0,1,0-1c0-.14,0-.39,0-.48a1.7,1.7,0,0,1,.19-.27c.07-.1.24-.55.35-.57s.05-.2,0-.37a2.66,2.66,0,0,0-.32-.63c-.1-.11.32-.29.32-.29s-.11-.11-.21-.23-.07-.23-.17-.32a.7.7,0,0,0-.41-.14c-.14,0,0,.13-.1.13s-.3-.21-.42-.23,0,.11.16.23-.07.08-.25,0-.14-.09-.1-.26-.14-.06-.19-.18.38,0,.45,0-.53-.55-.62-.61-.42.13-.52.15-.07-.16-.31-.28-.36-.14-.52,0a1.83,1.83,0,0,1-.68.09,1.29,1.29,0,0,1-.45-.15c-.13-.09-.33-.09-.3,0s-.1.12-.29.12-.25.07-.29.14a.35.35,0,0,1-.25.12c-.06,0-.43-.05-.55-.06s-.2.06-.33.07-.61-.22-.81-.11-.22-.05-.42-.21-.69.26-.74.31-.22,0-.32-.09a4,4,0,0,0-.51-.3c-.09,0,.1.21.1.21a.58.58,0,0,1-.26.18c-.16,0-.16-.16-.32-.23a.46.46,0,0,0-.15,0,3.19,3.19,0,0,0,.2-.39c0-.12.2-.33.29-.34a.39.39,0,0,0,.22-.09,1.23,1.23,0,0,0,.4-.55.71.71,0,0,0,0-.44c.16-.23,0-.23,0-.23l0-.34s.06-.31.06-.39a.7.7,0,0,0-.12-.26,3,3,0,0,0,.21-.41c.09-.23.09-.21.21-.29s0-.31,0-.53,0-.16-.12-.16-.31.12-.31,0,.15-.2,0-.22-.29.21-.38.29a1.88,1.88,0,0,0-.26.55c-.08.26-.13.21-.44,0s-.29.34-.29.34l-3.08-.1,0,1H7.76a5.63,5.63,0,0,0,1.07.88c.36.19.22.2.25.42s.29.23.33.23.07.19,0,.37a.77.77,0,0,0-.07.26H7.19s-.84,1.32-.85,1.37.21.26.21.26a2,2,0,0,0-.2.57c-.06.35-.11.39-.11.39-.08.25,1.11.87,1.42,1.07A2.65,2.65,0,0,0,9,17.3a1.21,1.21,0,0,1,1,.38,3.5,3.5,0,0,0,1.28.42c.16.06.39.19.85.41a2.88,2.88,0,0,0,1.19.26c.2,0,.48-.25.44-.32s0-.19,0-.12.22,0,.32-.08.16.05.16.05.05.18.09.28.29.25.38.35-.09.24-.19.24-.11-.33-.37-.27-.11.35.05.43.1.13.23.22.72.6.81.7.23.13.35.27a2.81,2.81,0,0,1,.3.57c.09.17.32.3.37.36a4.2,4.2,0,0,0,.53.46,2.7,2.7,0,0,1,.51.6c0,.08,0,0,0,.11s-.17.06-.28.09,0,0,.09.16a.14.14,0,0,0,.23,0,.89.89,0,0,1,.07.35c0,.13,0,.16-.17.28a.61.61,0,0,0-.14.49,1.23,1.23,0,0,0,.63.64c.42.19.44.29.48.4s.13.05.19,0,.22-.15.28-.25,0-.16-.13-.21a1,1,0,0,1-.41-.37c-.06-.13.17-.07.17-.07l.37.2a.7.7,0,0,0,.23.09s.23.23.33.36-.13.22-.11.29.14.1.29.19.43,0,.53.13.42.22.42.22a6.44,6.44,0,0,0,.58.46c.18.1,0,.29.06.41s-.16.2-.2.3.08.21.13.32.27.12.33.15a1.57,1.57,0,0,0,.33.08c.05,0,0-.17-.13-.32s-.13-.08-.23-.18.12-.16.12-.16a1.73,1.73,0,0,1,.26.08c.11.06.14.24.2.34a.44.44,0,0,1,0,.26,2,2,0,0,1,.26.26c.06.09.1.27.17.33s.05-.07,0-.27a.27.27,0,0,1,.14-.29,1,1,0,0,1,.4.05.63.63,0,0,0,.33.06s.11-.14.16-.07-.23.07.17.22l.08,0c.37.12.68.09.78.22s.1.32.23.53.3.13.54.26.1-.44.1-.44a.44.44,0,0,0,.23-.1.63.63,0,0,0,.07.39c.12.25.19.28.23.39s0,.28,0,.35.23.12.29.13.2-.1.32-.13a1.73,1.73,0,0,0,.39-.09c.06,0-.06-.16.25-.18s.34,0,.4-.22-.24-.35-.4-.49-.44-.4-.53-.5.08-.21.18-.32.13-.07.33-.07.42-.3.57-.39.26-.19.17-.26,0-.2.06-.33.4-.18.58-.29.67,0,.84.16.58.34.69.42,0,.33.06.4.28.23.18,0,0-.2.27-.07.22,0,.24-.15a3.4,3.4,0,0,0,.28.52c.06.11-.2-.11-.34-.2s-.09.22-.08.48-.14,0-.36,0,0,.18.25.53a4.56,4.56,0,0,0,.71,1c.17.1.08-.31.26-.48s-.06-.23,0-.36.19.17.34.21.2-.13.4-.26-.1-.33.12-.4S32.24,27.78,32.21,27.64Z"/></g></g></svg>