<svg id="Capa_1" data-name="Capa 1" xmlns="http://www.w3.org/2000/svg" xmlns:xlink="http://www.w3.org/1999/xlink" viewBox="0 0 161.55 45.07"><defs><style>.cls-1,.cls-3{fill:none;}.cls-2{clip-path:url(#clip-path);}.cls-3{stroke:#80ccdf;stroke-linecap:round;stroke-linejoin:round;stroke-width:3px;}.cls-4{opacity:0.8;}.cls-5{clip-path:url(#clip-path-3);}.cls-6{fill:#fff;}.cls-7{clip-path:url(#clip-path-4);}.cls-8{clip-path:url(#clip-path-5);}.cls-9{clip-path:url(#clip-path-6);}.cls-10{font-size:9.85px;font-family:MyriadPro-Regular, Myriad Pro;}.cls-10,.cls-25{fill:#545051;}.cls-11{letter-spacing:-0.05em;}.cls-12{letter-spacing:-0.04em;}.cls-13{letter-spacing:0.02em;}.cls-14{letter-spacing:0.02em;}.cls-15{letter-spacing:-0.02em;}.cls-16{letter-spacing:0.01em;}.cls-17{letter-spacing:0.01em;}.cls-18{letter-spacing:0.02em;}.cls-19{letter-spacing:0.01em;}.cls-20{letter-spacing:0.02em;}.cls-21{letter-spacing:0.02em;}.cls-22{letter-spacing:0.01em;}.cls-23{letter-spacing:0.02em;}.cls-24{clip-path:url(#clip-path-8);}.cls-25{font-size:11.82px;font-family:MyriadPro-Bold, Myriad Pro;font-weight:700;}.cls-26{letter-spacing:-0.04em;}.cls-27{letter-spacing:-0.04em;}.cls-28{letter-spacing:0em;}.cls-29{letter-spacing:-0.01em;}</style><clipPath id="clip-path" transform="translate(-0.37 -2.03)"><rect class="cls-1" x="-5.3" y="-4" width="181.91" height="51.08"/></clipPath><clipPath id="clip-path-3" transform="translate(-0.37 -2.03)"><rect class="cls-1" x="90.78" y="14" width="47.5" height="18.12"/></clipPath><clipPath id="clip-path-4" transform="translate(-0.37 -2.03)"><rect class="cls-1" x="24.86" y="-4.53" width="47.5" height="18.12"/></clipPath><clipPath id="clip-path-5" transform="translate(-0.37 -2.03)"><rect class="cls-1" x="-8.49" y="19.12" width="47.5" height="18.12"/></clipPath><clipPath id="clip-path-6" transform="translate(-0.37 -2.03)"><rect class="cls-1" x="60.26" y="24.24" width="47.5" height="18.12"/></clipPath><clipPath id="clip-path-8" transform="translate(-0.37 -2.03)"><rect class="cls-1" x="122.52" y="14.14" width="48.27" height="19.09"/></clipPath></defs><g class="cls-2"><g class="cls-2"><polyline class="cls-3" points="13.23 37.17 47.43 12.05 79.66 43.57 112.57 30.76 145.06 33.57"/><g class="cls-4"><g class="cls-5"><rect class="cls-6" x="99.27" y="18.86" width="29.77" height="10.24" rx="1.97"/></g></g><g class="cls-4"><g class="cls-7"><rect class="cls-6" x="33.35" y="0.33" width="29.77" height="10.24" rx="1.97"/></g></g><g class="cls-4"><g class="cls-8"><rect class="cls-6" y="23.98" width="29.77" height="10.24" rx="1.97"/></g></g><g class="cls-4"><g class="cls-9"><rect class="cls-6" x="68.75" y="29.1" width="29.77" height="10.24" rx="1.97"/></g></g></g><text class="cls-10" transform="translate(4.86 32.79)"><tspan class="cls-11">$</tspan><tspan class="cls-12" x="4.59" y="0">1</tspan><tspan class="cls-13" x="9.28" y="0">.</tspan><tspan class="cls-14" x="11.47" y="0">6</tspan><tspan x="16.7" y="0">8</tspan></text><text class="cls-10" transform="translate(37.41 8.25)"><tspan class="cls-15">$</tspan><tspan class="cls-16" x="4.83" y="0">2</tspan><tspan class="cls-17" x="10.03" y="0">.</tspan><tspan class="cls-18" x="12.16" y="0">4</tspan><tspan x="17.44" y="0">8</tspan></text><text class="cls-10" transform="translate(71.89 37.27)"><tspan class="cls-11">$</tspan><tspan class="cls-12" x="4.59" y="0">1</tspan><tspan class="cls-19" x="9.28" y="0">.</tspan><tspan class="cls-20" x="11.41" y="0">4</tspan><tspan x="16.69" y="0">8</tspan></text><text class="cls-10" transform="translate(103.32 26.88)"><tspan class="cls-15">$</tspan><tspan class="cls-21" x="4.83" y="0">2</tspan><tspan class="cls-22" x="10.03" y="0">.</tspan><tspan class="cls-23" x="12.17" y="0">0</tspan><tspan x="17.4" y="0">8</tspan></text><g class="cls-2"><g class="cls-4"><g class="cls-24"><rect class="cls-6" x="131.01" y="19" width="30.54" height="11.21" rx="1.97"/></g></g></g><text class="cls-25" transform="translate(132.16 28.65)"><tspan class="cls-26">$</tspan><tspan class="cls-27" x="6.06" y="0">1</tspan><tspan class="cls-28" x="12.19" y="0">.</tspan><tspan class="cls-29" x="15.24" y="0">7</tspan><tspan x="21.71" y="0">9</tspan></text></g></svg>