<?xml version="1.0" encoding="utf-8"?>
<!-- Generator: Adobe Illustrator 25.1.0, SVG Export Plug-In . SVG Version: 6.00 Build 0)  -->
<svg version="1.1" id="Capa_1" xmlns="http://www.w3.org/2000/svg" xmlns:xlink="http://www.w3.org/1999/xlink" x="0px" y="0px"
	 viewBox="0 0 39.2 39.2" style="enable-background:new 0 0 39.2 39.2;" xml:space="preserve">
<style type="text/css">
	.st0{fill:#3977BB;}
	.st1{fill:#FFFFFF;}
</style>
<path class="st0" d="M19.6,39.2c10.8,0,19.6-8.8,19.6-19.6S30.4,0,19.6,0S0,8.8,0,19.6S8.8,39.2,19.6,39.2L19.6,39.2"/>
<g>
	<path class="st1" d="M11.7,26.6c1.1,0.6,3.6,1.6,6,1.6c3.2,0,4.8-1.5,4.8-3.4c0-2.6-2.6-3.8-5.2-3.8h-2.5v-4.4h2.4
		c2,0,4.6-0.8,4.6-3c0-1.6-1.2-2.7-3.8-2.7c-2.1,0-4.4,0.9-5.4,1.6l-1.2-4.4c1.6-1,4.6-2,8-2c5.5,0,8.6,2.9,8.6,6.5
		c0,2.8-1.6,5-4.8,6v0.1c3.1,0.6,5.6,2.9,5.6,6.4c0,4.6-4,7.9-10.6,7.9c-3.4,0-6.2-0.9-7.7-1.8L11.7,26.6z"/>
</g>
</svg>
