<?xml version="1.0" encoding="utf-8"?>
<!-- Generator: Adobe Illustrator 25.2.0, SVG Export Plug-In . SVG Version: 6.00 Build 0)  -->
<svg version="1.1" id="Capa_1" xmlns="http://www.w3.org/2000/svg" xmlns:xlink="http://www.w3.org/1999/xlink" x="0px" y="0px"
	 viewBox="0 0 40 40" style="enable-background:new 0 0 40 40;" xml:space="preserve">
<style type="text/css">
	.st0{clip-path:url(#SVGID_2_);fill:#FFFFFF;}
	.st1{fill:#F1B634;}
</style>
<g>
	<g>
		<defs>
			<rect id="SVGID_1_" x="0.4" y="0.4" width="39.2" height="39.2"/>
		</defs>
		<clipPath id="SVGID_2_">
			<use xlink:href="#SVGID_1_"  style="overflow:visible;"/>
		</clipPath>
		<path class="st0" d="M20,39.6c10.8,0,19.6-8.8,19.6-19.6S30.8,0.4,20,0.4S0.4,9.2,0.4,20S9.2,39.6,20,39.6"/>
	</g>
	<g>
		<path class="st1" d="M26.4,13.2h-7.6l-0.4,3c0.4,0,0.8-0.1,1.3-0.1c1.9,0,3.8,0.4,5.2,1.4c1.5,1,2.4,2.6,2.4,4.9
			c0,3.7-3.1,6.9-8.4,6.9c-2.4,0-4.4-0.5-5.5-1.1l0.8-3.4c0.8,0.4,2.6,1,4.4,1c1.9,0,3.9-0.9,3.9-3c0-2-1.6-3.3-5.5-3.3
			c-1.1,0-1.8,0.1-2.6,0.2l1.3-10.3h10.8V13.2z"/>
	</g>
</g>
</svg>
