<?xml version="1.0" encoding="utf-8"?>
<!-- Generator: Adobe Illustrator 25.1.0, SVG Export Plug-In . SVG Version: 6.00 Build 0)  -->
<svg version="1.1" id="Capa_1" xmlns="http://www.w3.org/2000/svg" xmlns:xlink="http://www.w3.org/1999/xlink" x="0px" y="0px"
	 viewBox="0 0 39.2 39.2" style="enable-background:new 0 0 39.2 39.2;" xml:space="preserve">
<style type="text/css">
	.st0{fill:#3977BB;}
	.st1{fill:#FFFFFF;}
</style>
<path class="st0" d="M19.6,39.2c10.8,0,19.6-8.8,19.6-19.6S30.4,0,19.6,0S0,8.8,0,19.6S8.8,39.2,19.6,39.2L19.6,39.2"/>
<g>
	<path class="st1" d="M10.4,32.8v-3.7l3.3-3c5.7-5.1,8.5-8,8.5-11.1c0-2.1-1.2-3.8-4.2-3.8c-2.2,0-4.2,1.1-5.6,2.1L10.7,9
		c1.9-1.5,5-2.7,8.5-2.7c5.9,0,9.1,3.4,9.1,8.2c0,4.4-3.1,7.8-6.9,11.2l-2.4,2v0.1h9.8v5C28.8,32.8,10.4,32.8,10.4,32.8z"/>
</g>
</svg>
