<svg xmlns="http://www.w3.org/2000/svg" viewBox="0 0 39.2 39.2"><defs><style>.cls-1{fill:#fff;}.cls-2{fill:none;stroke:#00d4e0;stroke-linecap:round;stroke-linejoin:round;stroke-width:0.7px;}</style></defs><g id="Capa_2" data-name="Capa 2"><g id="Capa_1-2" data-name="Capa 1"><path class="cls-1" d="M19.6,39.2A19.6,19.6,0,1,1,39.2,19.6,19.6,19.6,0,0,1,19.6,39.2"/><path class="cls-2" d="M12.64,13.3a.45.45,0,0,0,.22-.09,1.16,1.16,0,0,0,.4-.55.74.74,0,0,0,0-.46c.16-.22,0-.22,0-.22l-.06-.35a3.9,3.9,0,0,0,.07-.4.7.7,0,0,0-.12-.26,3.52,3.52,0,0,0,.21-.42c.09-.23.09-.21.21-.3s0-.31,0-.54,0-.16-.12-.16-.32.12-.32,0,.16-.21,0-.23-.29.21-.38.3a1.55,1.55,0,0,0-.26.55c-.09.26-.14.21-.46,0s-.28.35-.28.35a10.88,10.88,0,0,1,0,2A11.76,11.76,0,0,0,11.64,14l.5,0a3.19,3.19,0,0,0,.2-.39A.66.66,0,0,1,12.64,13.3Zm9.24,2.24c-.11-.11-.08-.23-.18-.32a.81.81,0,0,0-.41-.15c-.15,0,0,.14-.11.14s-.31-.21-.43-.24,0,.12.17.24-.08.08-.25,0-.15-.09-.11-.27-.14-.06-.19-.18.38,0,.46,0-.55-.56-.64-.62-.42.14-.53.15-.07-.16-.31-.28-.36-.15-.53,0a1.86,1.86,0,0,1-.69.08,1.32,1.32,0,0,1-.46-.14c-.13-.09-.34-.09-.31,0s-.1.12-.29.12a.31.31,0,0,0-.3.14.28.28,0,0,1-.25.12L16,14.26c-.12,0-.2.06-.34.08s-.62-.23-.82-.12-.22-.05-.43-.21-.69.27-.75.31-.16,0-.26-.05l-.29.25a6.23,6.23,0,0,0-.63.54c-.21.23-.64.3-.7.39a.61.61,0,0,0-.05.5c.07.12.07.26-.12.42s-.19.26-.19.26h0a.8.8,0,0,1,.28.08c.19.1.16.05.28.19s.21.32.29.33.18.16.34.21.22.07.26.16a.15.15,0,0,0,.22.07c.23-.11.22-.22.38-.19s.13.1.25.15.07.07.22.06.1-.17.22,0,.11.25,0,.41-.07.22,0,.27.08.15-.05.15a.14.14,0,0,0-.13.08h0s0,0,.05,0,.22,0,.33-.09.16.06.16.06a1.57,1.57,0,0,0,.09.28c0,.1.29.25.38.36s.37.2.51,0a.69.69,0,0,0,.15-.48c0-.17.16.12.24,0a.43.43,0,0,0,.05-.39c-.05-.17-.13-.34-.05-.42s.47,0,.56,0,.1.21.24,0,.15-.36.31-.4a.29.29,0,0,1,.36.06c.14.11.32.3.34.2s-.09-.25.12-.3.3,0,.35-.08a1.48,1.48,0,0,1,.2-.32c0-.05.09-.17.2-.14s0-.05.17-.27.2-.09.19-.22a1.15,1.15,0,0,1,0-.28,1.41,1.41,0,0,1,.29-.12s0-.11.17.07a.9.9,0,0,0,.43.26.33.33,0,0,0,.28,0,4.24,4.24,0,0,1,.6-.23A3,3,0,0,0,21,16c.1,0,.36-.11.41-.14s.05-.16.19-.18a3.09,3.09,0,0,1,.52.07ZM24,26.25a.17.17,0,0,0,.08.16c.09.05.17.09.16,0a.19.19,0,0,0-.08-.16C24.06,26.21,24,26.2,24,26.25Zm-.24-.42a.08.08,0,0,0,0,.11c.08,0,.06.11.14.15s.09.08.17.05.12,0,.07-.11a.44.44,0,0,0-.2-.1.41.41,0,0,1-.12-.07C23.75,25.82,23.71,25.75,23.71,25.83Zm6,1.69a.4.4,0,0,0,0,.25c0,.1.11,0,.15,0s.07-.26,0-.29-.13,0-.17.09m-4,1.7s-.17.08-.06.12a.35.35,0,0,0,.31-.06c.08-.06.13-.24-.06-.15Zm-1-.18s-.23.11-.24.2a.3.3,0,0,0,.16.28c.11.07.33.17.35.1s-.06-.18-.06-.18-.11,0-.14-.1S25,29.08,24.72,29.09Zm-3.38-8.84s0,.15.05.21.17.08.21.06.12-.16.06-.21-.1-.12-.15-.12A.52.52,0,0,0,21.34,20.25ZM17.74,22a.1.1,0,0,0,0,.18c.13.11.05.22.25.18s.2-.16.1-.26S17.74,22,17.74,22Zm-.22.15a1.22,1.22,0,0,1-.16-.5c-.07-.4-.09-.58,0-.62a1.67,1.67,0,0,1,.73.28c.12.1.24.23.32.28a2.86,2.86,0,0,1,.36.32,3.62,3.62,0,0,1,.38.43c0,.06.15.18.11.34s0,.37-.23.27a5.07,5.07,0,0,0-.52-.15c-.16-.07-.25-.18-.31-.17s-.21.18-.44-.1S17.52,22.1,17.52,22.1Zm3.75,1h0Zm0,0h0ZM23,25.48c-.2-.07-.15-.13-.45-.35a9.68,9.68,0,0,1-1-1.46l-.25-.53s.1.45-.41.33-.4,0-.5-.12l-.32-.28a1,1,0,0,0-.27-.14l-.28-.05a.37.37,0,0,1-.37.19c-.24-.06-.52-.16-.61-.19l-.47-.16s-.11-.21-.21-.11.18.24-.25.28h0c0,.09,0,0,0,.12s-.18,0-.28.08,0,0,.09.17a.14.14,0,0,0,.23,0,1,1,0,0,1,.08.35c0,.14-.05.17-.18.28a.67.67,0,0,0-.15.51,1.29,1.29,0,0,0,.65.64c.43.2.44.3.49.42s.13,0,.19-.05.22-.14.28-.25S19,25,18.9,25a1,1,0,0,1-.42-.37c-.05-.13.18-.07.18-.07l.37.2a.81.81,0,0,0,.24.09s.23.24.33.37-.13.22-.11.3.14.1.3.19.43,0,.54.13.42.22.42.22a6.59,6.59,0,0,0,.59.47c.18.11.05.3.06.42s-.16.2-.2.31.09.2.13.32.28.12.34.15a1.56,1.56,0,0,0,.34.09s-.05-.18-.13-.33-.14-.09-.24-.19.12-.16.12-.16a1.26,1.26,0,0,1,.26.09c.12.06.15.23.21.34a.44.44,0,0,1,0,.26,1.71,1.71,0,0,1,.26.27.42.42,0,0,1,.07.15s.22-.11,0-.27-.18-.12-.07-.23.42-.09.32-.26-.17-.21-.17-.31-.05-.16,0-.24.3-.09.25-.2-.33-.3-.33-.3a.88.88,0,0,1-.08-.27,3.33,3.33,0,0,1,.1-.44l.13-.06s.16-.12.27,0,.2-.06.2-.06Zm-1.8-2.41h0Zm.85-7.29a3.09,3.09,0,0,0-.52-.07c-.14,0-.14.14-.19.18s-.31.1-.41.14a3,3,0,0,1-.29.11,4.24,4.24,0,0,0-.6.23.33.33,0,0,1-.28,0,.9.9,0,0,1-.43-.26c-.15-.18-.12-.07-.17-.07a1.41,1.41,0,0,0-.29.12,1.15,1.15,0,0,0,0,.28c0,.13,0,0-.19.22s-.07.29-.17.27-.16.09-.2.14a1.48,1.48,0,0,0-.2.32c-.05.11-.14,0-.35.08s-.09.21-.12.3-.2-.09-.34-.2a.29.29,0,0,0-.36-.06c-.16,0-.17.16-.31.4s-.15,0-.24,0-.48-.08-.56,0,0,.25.05.42a.43.43,0,0,1-.05.39c-.08.12-.24-.17-.24,0a.69.69,0,0,1-.15.48c-.14.2-.51,0-.51,0s-.09.25-.19.25-.1-.34-.37-.28-.12.35,0,.44.11.13.24.22a9.66,9.66,0,0,1,.83.71c.08.1.23.13.35.28a3.46,3.46,0,0,1,.31.57c.09.18.32.31.37.37a4.35,4.35,0,0,0,.54.47,2.55,2.55,0,0,1,.52.61h0c.43,0,.16-.19.25-.28s.21.11.21.11l.47.16c.09,0,.37.13.61.19a.37.37,0,0,0,.37-.19l.28.05a1,1,0,0,1,.27.14l.32.28c.1.08,0,0,.5.12s.41-.33.41-.33-.3-.3-.34-.56,0-.31.13-.52.24-.22.24-.32,0-.17-.15-.18-.08,0-.14-.21.11-.07.23-.35-.11-.47-.15-.6.06-.3.19-.26.06-.2,0-.33.19,0,.23,0,.06-.26,0-.39a4.06,4.06,0,0,1-.05-1c0-.14,0-.39.05-.48a1.07,1.07,0,0,1,.19-.28c.07-.11.25-.56.35-.58s.06-.2,0-.38a2.48,2.48,0,0,0-.32-.63C21.65,16,22.08,15.78,22.08,15.78Zm-8.15,2.9h0a.14.14,0,0,1,0-.06.14.14,0,0,1,.13-.08c.13,0,.08-.11.05-.15s0-.11,0-.27.07-.22,0-.41-.07,0-.22,0-.11,0-.22-.06-.09-.11-.25-.15-.15.08-.38.19a.15.15,0,0,1-.22-.07c0-.09-.11-.11-.26-.16s-.25-.19-.34-.21-.17-.19-.29-.33-.09-.09-.28-.19a.88.88,0,0,0-.49-.09c-.1,0-.17.16-.17.16v.12c0,.12,0,0-.14.11s-.09.1-.18.21a.43.43,0,0,1-.38.19c-.38,0-.33.44-.33.44a1.31,1.31,0,0,1,.15.12,3.43,3.43,0,0,0,1.3.42c.16.06.4.2.87.42a2.78,2.78,0,0,0,1.21.26c.21,0,.49-.25.44-.32A.11.11,0,0,1,13.93,18.68Zm18.83,9.43a1.6,1.6,0,0,0-.34-.59c-.12-.12.19-.34.19-.34a.78.78,0,0,1-.25-.19.61.61,0,0,0-.3-.2c-.16-.07-.19-.19-.31-.28a2.61,2.61,0,0,0-.6-.36c-.31-.14-.46-.33-.71-.33a1.54,1.54,0,0,1-.81-.12,1.38,1.38,0,0,0-.62-.11,1.52,1.52,0,0,0-.53-.11c-.28,0-.13.22-.19.3s-.35.09-.44.26-.22.18-.61.3a2,2,0,0,0-.75.37,1.49,1.49,0,0,1-.44.19,4.32,4.32,0,0,1-.74.09c-.31,0-.31-.14-.44-.28s-.33-.43-.46-.37.09.19.18.37-.34,0-.34,0-.35-.11-.43-.15-.09-.13-.2-.33,0-.25-.14-.42a.87.87,0,0,0-.45-.33c-.2-.07-.15-.13-.45-.35a9.68,9.68,0,0,1-1-1.46l-.25-.53c-.05-.09-.3-.3-.34-.56s0-.31.13-.52.24-.22.24-.32,0-.17-.15-.18-.08,0-.14-.21.11-.07.23-.35-.11-.47-.15-.6.06-.3.19-.26.06-.2,0-.33.19,0,.23,0,.06-.26,0-.39a4.06,4.06,0,0,1-.05-1c0-.14,0-.39.05-.48a1.07,1.07,0,0,1,.19-.28c.07-.11.25-.56.35-.58s.06-.2,0-.38a2.48,2.48,0,0,0-.32-.63c-.11-.12.32-.3.32-.3l-.2-.24c-.11-.11-.08-.23-.18-.32a.81.81,0,0,0-.41-.15c-.15,0,0,.14-.11.14s-.31-.21-.43-.24,0,.12.17.24-.08.08-.25,0-.15-.09-.11-.27-.14-.06-.19-.18.38,0,.46,0-.55-.56-.64-.62-.42.14-.53.15-.07-.16-.31-.28-.36-.15-.53,0a1.86,1.86,0,0,1-.69.08,1.32,1.32,0,0,1-.46-.14c-.13-.09-.34-.09-.31,0s-.1.12-.29.12a.31.31,0,0,0-.3.14.28.28,0,0,1-.25.12L16,14.26c-.12,0-.2.06-.34.08s-.62-.23-.82-.12-.22-.05-.43-.21-.69.27-.75.31-.22,0-.33-.09a4.1,4.1,0,0,0-.51-.31c-.09,0,.1.22.1.22a.51.51,0,0,1-.26.18c-.17,0-.17-.16-.33-.24l-.15,0a3.19,3.19,0,0,0,.2-.39.66.66,0,0,1,.3-.35.45.45,0,0,0,.22-.09,1.16,1.16,0,0,0,.4-.55.74.74,0,0,0,0-.46c.16-.22,0-.22,0-.22l-.06-.35a3.9,3.9,0,0,0,.07-.4.7.7,0,0,0-.12-.26,3.52,3.52,0,0,0,.21-.42c.09-.23.09-.21.21-.3s0-.31,0-.54,0-.16-.12-.16-.32.12-.32,0,.16-.21,0-.23-.29.21-.38.3a1.55,1.55,0,0,0-.26.55c-.09.26-.14.21-.46,0s-.28.35-.28.35l-3.15-.11,0,1H7.88a6.2,6.2,0,0,0,1.09.9c.37.19.23.21.25.43s.3.23.34.23.08.2,0,.37a.85.85,0,0,0-.07.27H7.31S6.45,15,6.44,15s.21.26.21.26a2.14,2.14,0,0,0-.2.58c-.06.35-.11.4-.11.4-.08.25,1.13.88,1.44,1.09a2.88,2.88,0,0,0,1.36.23,1.21,1.21,0,0,1,1,.39,3.43,3.43,0,0,0,1.3.42c.16.06.4.2.87.42a2.78,2.78,0,0,0,1.21.26c.21,0,.49-.25.44-.32s0-.19.06-.12.22,0,.33-.09.16.06.16.06a1.57,1.57,0,0,0,.09.28c0,.1.29.25.38.36s-.09.25-.19.25-.1-.34-.37-.28-.12.35,0,.44.11.13.24.22a9.66,9.66,0,0,1,.83.71c.08.1.23.13.35.28a3.46,3.46,0,0,1,.31.57c.09.18.32.31.37.37a4.35,4.35,0,0,0,.54.47,2.55,2.55,0,0,1,.52.61c0,.09,0,0,0,.12s-.18,0-.28.08,0,0,.09.17a.14.14,0,0,0,.23,0,1,1,0,0,1,.08.35c0,.14-.05.17-.18.28a.67.67,0,0,0-.15.51,1.29,1.29,0,0,0,.65.64c.43.2.44.3.49.42s.13,0,.19-.05.22-.14.28-.25S19,25,18.9,25a1,1,0,0,1-.42-.37c-.05-.13.18-.07.18-.07l.37.2a.81.81,0,0,0,.24.09s.23.24.33.37-.13.22-.11.3.14.1.3.19.43,0,.54.13.42.22.42.22a6.59,6.59,0,0,0,.59.47c.18.11.05.3.06.42s-.16.2-.2.31.09.2.13.32.28.12.34.15a1.56,1.56,0,0,0,.34.09s-.05-.18-.13-.33-.14-.09-.24-.19.12-.16.12-.16a1.26,1.26,0,0,1,.26.09c.12.06.15.23.21.34a.44.44,0,0,1,0,.26,1.71,1.71,0,0,1,.26.27c.06.09.11.28.18.34s.05-.08,0-.28a.29.29,0,0,1,.14-.3,1.07,1.07,0,0,1,.4.06.83.83,0,0,0,.34.06s.12-.15.16-.07-.23.07.18.22l.08,0c.38.12.69.09.79.23s.1.32.24.53.3.13.54.26.1-.44.1-.44a.45.45,0,0,0,.24-.1A.66.66,0,0,0,26,29c.12.25.2.28.24.39a.81.81,0,0,1,0,.36c0,.07.23.12.29.13s.21-.1.32-.13a2.42,2.42,0,0,0,.4-.09c.06,0-.06-.16.25-.19s.36-.05.42-.22-.25-.36-.42-.5-.44-.4-.53-.51.08-.22.18-.32.13-.07.34-.07.43-.31.57-.4.27-.19.18-.27,0-.2.06-.34.41-.17.59-.29.68,0,.85.16.59.35.71.43,0,.34.06.41.28.24.18,0,0-.21.28-.07.22-.05.24-.16a2.92,2.92,0,0,0,.29.54c.06.1-.21-.12-.35-.21s-.09.22-.08.49-.15,0-.37,0,0,.18.25.54a4.48,4.48,0,0,0,.73,1c.17.11.08-.31.26-.48s-.06-.24,0-.37.19.17.34.22.2-.13.41-.27-.1-.34.12-.41S32.79,28.25,32.76,28.11Z"/></g></g></svg>