<?xml version="1.0" encoding="utf-8"?>
<!-- Generator: Adobe Illustrator 25.2.0, SVG Export Plug-In . SVG Version: 6.00 Build 0)  -->
<svg version="1.1" id="Capa_1" xmlns="http://www.w3.org/2000/svg" xmlns:xlink="http://www.w3.org/1999/xlink" x="0px" y="0px"
	 viewBox="0 0 40 40" style="enable-background:new 0 0 40 40;" xml:space="preserve">
<style type="text/css">
	.st0{clip-path:url(#SVGID_2_);fill:#FFFFFF;}
	.st1{fill:#F1B634;}
</style>
<g>
	<g>
		<defs>
			<rect id="SVGID_1_" x="0.4" y="0.4" width="39.2" height="39.2"/>
		</defs>
		<clipPath id="SVGID_2_">
			<use xlink:href="#SVGID_1_"  style="overflow:visible;"/>
		</clipPath>
		<path class="st0" d="M20,39.6c10.8,0,19.6-8.8,19.6-19.6S30.8,0.4,20,0.4S0.4,9.2,0.4,20S9.2,39.6,20,39.6"/>
	</g>
	<g>
		<path class="st1" d="M14.1,25.6c0.8,0.5,2.7,1.2,4.6,1.2c2.4,0,3.6-1.1,3.6-2.6c0-2-1.9-2.8-3.9-2.8h-1.9v-3.3h1.8
			c1.5,0,3.5-0.6,3.5-2.3c0-1.2-0.9-2.1-2.9-2.1c-1.6,0-3.3,0.7-4.1,1.2l-0.9-3.3c1.2-0.8,3.5-1.5,6.1-1.5c4.2,0,6.5,2.2,6.5,4.9
			c0,2.1-1.2,3.7-3.6,4.6v0.1c2.4,0.4,4.3,2.2,4.3,4.8c0,3.4-3,6-8,6c-2.5,0-4.7-0.7-5.8-1.4L14.1,25.6z"/>
	</g>
</g>
</svg>
