<svg xmlns="http://www.w3.org/2000/svg" xmlns:xlink="http://www.w3.org/1999/xlink" viewBox="0 0 1104.17 445"><defs><style>.cls-1{fill:url(#Degradado_sin_nombre_2);}.cls-2{fill:url(#Degradado_sin_nombre_2-2);}.cls-10,.cls-13,.cls-3,.cls-5,.cls-9{fill:none;}.cls-4{fill:#fff;}.cls-13,.cls-5{stroke:#fff;}.cls-5{stroke-width:0.75px;}.cls-6{mask:url(#mask);}.cls-7{clip-path:url(#clip-path);}.cls-8{fill:#6ea9db;}.cls-9{stroke:#fdb71a;stroke-linecap:round;stroke-linejoin:round;stroke-width:3px;}.cls-10{stroke:#f27a30;}.cls-11{mask:url(#mask-2);}.cls-12{clip-path:url(#clip-path-2);}</style><linearGradient id="Degradado_sin_nombre_2" x1="-77.97" y1="443.16" x2="-76.97" y2="443.16" gradientTransform="matrix(0, 271.55, 271.55, 0, -119775.61, 21311.23)" gradientUnits="userSpaceOnUse"><stop offset="0" stop-color="#fff"/><stop offset="1"/></linearGradient><linearGradient id="Degradado_sin_nombre_2-2" x1="-77.97" y1="442.94" x2="-76.97" y2="442.94" gradientTransform="matrix(0, -172.25, -172.25, 0, 76858.92, -13036.1)" xlink:href="#Degradado_sin_nombre_2"/><mask id="mask" x="-77.97" y="-357" width="1280" height="803" maskUnits="userSpaceOnUse"><rect class="cls-1" x="-77.97" y="-357" width="1280" height="800"/></mask><clipPath id="clip-path"><rect class="cls-3" x="30.15" y="119.5" width="1061.54" height="326.5"/></clipPath><mask id="mask-2" x="-77.97" y="-357" width="1280" height="800" maskUnits="userSpaceOnUse"><rect class="cls-2" x="-77.97" y="-357" width="1280" height="800"/></mask><clipPath id="clip-path-2"><rect class="cls-3" x="279.2" y="156" width="563.44" height="239.8"/></clipPath></defs><g id="Capa_2" data-name="Capa 2"><g id="Capa_1-2" data-name="Capa 1"><path class="cls-4" d="M385.88,21.76V19.27a10.55,10.55,0,0,1-4.42-1.1l.78-3a9.2,9.2,0,0,0,4.32,1.15c1.48,0,2.52-.6,2.52-1.62s-.86-1.61-2.78-2.26c-2.78-.93-4.68-2.23-4.68-4.76,0-2.31,1.61-4.1,4.39-4.62V.55h2.55V2.83a9.47,9.47,0,0,1,3.8.86l-.78,2.94a8.12,8.12,0,0,0-3.75-.91c-1.69,0-2.23.75-2.23,1.48s.91,1.41,3.12,2.21c3.12,1.09,4.34,2.52,4.34,4.89s-1.61,4.26-4.63,4.78v2.68Z"/><path class="cls-4" d="M406.35,5.41a10.61,10.61,0,0,0-1.54,0c-3.51.26-5.07,2.08-5.51,4h.08A4.9,4.9,0,0,1,403,8.16a5.13,5.13,0,0,1,5.22,5.52A6,6,0,0,1,402,19.79c-4.53,0-6.74-3.36-6.74-7.39a10.14,10.14,0,0,1,3-7.54,10,10,0,0,1,6.5-2.47,7.78,7.78,0,0,1,1.59,0Zm-4.42,11.46c1.37,0,2.26-1.27,2.26-3,0-1.56-.83-2.91-2.52-2.91a2.53,2.53,0,0,0-2.32,1.48,2.12,2.12,0,0,0-.18,1c.08,1.79.93,3.4,2.73,3.4Z"/><path class="cls-4" d="M416.07,19.79c-4.37,0-6.29-3.93-6.32-8.71s2.05-8.77,6.42-8.77,6.29,4,6.29,8.66c0,5.2-2.1,8.82-6.37,8.82Zm.08-3c1.53,0,2.36-1.93,2.36-5.78s-.8-5.72-2.39-5.72S413.7,7.2,413.7,11s.91,5.78,2.42,5.78Z"/><path class="cls-4" d="M426.91,19.79a2.27,2.27,0,0,1-2.29-2.4,2.33,2.33,0,1,1,4.66,0,2.27,2.27,0,0,1-2.34,2.4Z"/><path class="cls-4" d="M436.22,6.11h-.05l-3.23,1.53-.65-3,4.5-2.08H440V19.5h-3.82Z"/><path class="cls-4" d="M451.69,19.79c-4.37,0-6.29-3.93-6.32-8.71s2.05-8.77,6.42-8.77,6.29,4,6.29,8.66c0,5.2-2.1,8.82-6.37,8.82Zm.08-3c1.53,0,2.36-1.93,2.36-5.78s-.8-5.72-2.39-5.72-2.42,1.9-2.42,5.72.91,5.78,2.42,5.78Z"/><path class="cls-4" d="M389.57,35.63c0-1.21-.09-2.67-.09-4.15h0c-.33,1.29-.75,2.73-1.14,3.91l-1.23,4H385.3l-1.08-3.92c-.33-1.18-.66-2.61-.92-3.94h0c0,1.36-.1,2.92-.16,4.18l-.2,3.84H380.8l.64-10.11h3.05l1,3.38c.33,1.17.63,2.43.85,3.61h.06c.27-1.17.62-2.5,1-3.63l1.07-3.36h3L392,39.5h-2.22Z"/><path class="cls-4" d="M399.77,37.73a9.47,9.47,0,0,0,.12,1.77h-2.05l-.14-.73h0a2.66,2.66,0,0,1-2.1.9,2.25,2.25,0,0,1-2.37-2.25c0-1.91,1.71-2.81,4.3-2.81v-.09c0-.39-.21-.94-1.33-.94a4.25,4.25,0,0,0-2,.54l-.42-1.46a6.1,6.1,0,0,1,2.85-.66c2.45,0,3.21,1.44,3.21,3.17ZM397.57,36c-1.2,0-2.13.28-2.13,1.15a.82.82,0,0,0,.9.87,1.25,1.25,0,0,0,1.18-.84,1.6,1.6,0,0,0,.05-.39Z"/><path class="cls-4" d="M403.33,32.17l.72,1.23c.21.37.4.73.6,1.09h0c.19-.4.37-.76.57-1.14l.64-1.18h2.48L406,35.66l2.45,3.84h-2.58l-.74-1.32a10.7,10.7,0,0,1-.57-1.12h0c-.18.4-.38.76-.56,1.12l-.69,1.32h-2.5l2.49-3.75-2.43-3.58Z"/><path class="cls-4" d="M410.5,31.27a1.14,1.14,0,1,1,1.23-1.14,1.13,1.13,0,0,1-1.23,1.14Zm-1.13,8.23V32.17h2.28V39.5Z"/><path class="cls-4" d="M413.48,34.51c0-.92,0-1.68-.06-2.34h1.94l.09,1h0A2.55,2.55,0,0,1,417.71,32a2.08,2.08,0,0,1,2,1.26h0a3.25,3.25,0,0,1,1-.9,2.88,2.88,0,0,1,1.4-.36c1.41,0,2.47,1,2.47,3.18V39.5h-2.22v-4c0-1.07-.34-1.68-1.08-1.68a1.13,1.13,0,0,0-1.06.79,2.18,2.18,0,0,0-.08.57V39.5h-2.22V35.39c0-.91-.33-1.54-1.06-1.54a1.17,1.17,0,0,0-1.07.81,1.64,1.64,0,0,0-.09.58V39.5h-2.22Z"/><path class="cls-4" d="M429.76,39.67a3.59,3.59,0,0,1-3.8-3.78A3.67,3.67,0,0,1,429.89,32a3.57,3.57,0,0,1,3.74,3.77,3.68,3.68,0,0,1-3.86,3.9Zm.06-1.64c.9,0,1.45-.88,1.45-2.2,0-1.08-.42-2.19-1.45-2.19s-1.5,1.11-1.5,2.2c0,1.25.52,2.19,1.48,2.19Z"/><path class="cls-4" d="M438.07,28.84h2.28v4.21h0a2.44,2.44,0,0,1,.9-.76,2.57,2.57,0,0,1,1.18-.29c1.46,0,2.57,1,2.57,3.23V39.5h-2.28v-4c0-1-.33-1.62-1.19-1.62a1.21,1.21,0,0,0-1.14.81,1.29,1.29,0,0,0-.07.49V39.5h-2.28Z"/><path class="cls-4" d="M448,31.27a1.14,1.14,0,1,1,1.23-1.14A1.12,1.12,0,0,1,448,31.27Zm-1.12,8.23V32.17h2.28V39.5Z"/><path class="cls-4" d="M451,37.51a4.53,4.53,0,0,0,2,.54c.69,0,1-.23,1-.6s-.22-.57-1.06-.84c-1.53-.51-2.12-1.34-2.1-2.19,0-1.38,1.17-2.42,3-2.42a4.75,4.75,0,0,1,2.06.44L455.38,34a3.84,3.84,0,0,0-1.59-.41c-.56,0-.87.23-.87.59s.28.54,1.18.84c1.4.48,2,1.18,2,2.25,0,1.38-1.06,2.38-3.16,2.38a5.3,5.3,0,0,1-2.37-.52Z"/><path class="cls-4" d="M460,30.17v2h1.63v1.68H460V36.5c0,.89.22,1.29.9,1.29a2.55,2.55,0,0,0,.67-.06l0,1.73a5,5,0,0,1-1.47.19,2.43,2.43,0,0,1-1.73-.63,3,3,0,0,1-.63-2.17v-3h-1V32.17h1V30.79Z"/><path class="cls-4" d="M466.28,39.67a3.59,3.59,0,0,1-3.79-3.78A3.67,3.67,0,0,1,466.42,32a3.57,3.57,0,0,1,3.73,3.77,3.67,3.67,0,0,1-3.85,3.9Zm.06-1.64c.9,0,1.46-.88,1.46-2.2,0-1.08-.42-2.19-1.46-2.19s-1.5,1.11-1.5,2.2c0,1.25.53,2.19,1.49,2.19ZM468.71,29l-1.83,2.28h-1.56L466.61,29Z"/><path class="cls-4" d="M471.56,34.58c0-1.08,0-1.78-.06-2.41h1.95l.09,1.36h.06a2.14,2.14,0,0,1,2-1.53,2.21,2.21,0,0,1,.48,0v2.14a3.4,3.4,0,0,0-.61-.06,1.46,1.46,0,0,0-1.56,1.16,2.51,2.51,0,0,0-.05.51v3.7h-2.28Z"/><path class="cls-4" d="M478.39,31.27a1.14,1.14,0,1,1,1.23-1.14,1.13,1.13,0,0,1-1.23,1.14Zm-1.13,8.23V32.17h2.28V39.5Z"/><path class="cls-4" d="M486.88,39.31a5.34,5.34,0,0,1-2,.34A3.57,3.57,0,0,1,481,35.9c0-2.13,1.47-3.88,4.2-3.88a5.29,5.29,0,0,1,1.74.28l-.36,1.7a3.08,3.08,0,0,0-1.27-.23,2.05,2.05,0,0,0,0,4.1,3.26,3.26,0,0,0,1.31-.24Z"/><path class="cls-4" d="M491.36,39.67a3.59,3.59,0,0,1-3.79-3.78A3.67,3.67,0,0,1,491.5,32a3.57,3.57,0,0,1,3.73,3.77,3.67,3.67,0,0,1-3.85,3.9Zm.06-1.64c.9,0,1.46-.88,1.46-2.2,0-1.08-.42-2.19-1.46-2.19s-1.5,1.11-1.5,2.2c0,1.25.53,2.19,1.49,2.19Z"/><path class="cls-4" d="M387.4,48.85v8.77c0,.65,0,1.38.06,1.88h-1.19l-.06-1.26h0a2.65,2.65,0,0,1-2.46,1.42c-1.75,0-3.12-1.49-3.12-3.69,0-2.43,1.5-3.9,3.26-3.9a2.43,2.43,0,0,1,2.19,1.1h0V48.85Zm-1.32,6.34a2.76,2.76,0,0,0-.06-.57,2,2,0,0,0-1.91-1.51c-1.36,0-2.17,1.2-2.17,2.79s.73,2.69,2.14,2.69A2,2,0,0,0,386,57a2.4,2.4,0,0,0,.06-.56Z"/><path class="cls-4" d="M390.34,56.11a2.3,2.3,0,0,0,2.47,2.5,4.72,4.72,0,0,0,2-.37l.24.94a5.86,5.86,0,0,1-2.43.47A3.39,3.39,0,0,1,389.06,56c0-2.19,1.31-3.92,3.42-3.92,2.37,0,3,2.09,3,3.42a3.2,3.2,0,0,1-.05.62Zm3.85-1A1.87,1.87,0,0,0,392.38,53a2.18,2.18,0,0,0-2,2.14Z"/><path class="cls-4" d="M397.1,48.85h1.32V59.5H397.1Z"/><path class="cls-4" d="M404.33,52.24l1.43,4.06c.24.68.43,1.28.58,1.87h.05c.16-.59.37-1.19.61-1.87l1.41-4.06h1.38l-2.85,7.26h-1.26l-2.76-7.26Z"/><path class="cls-4" d="M416.11,57.76a13.17,13.17,0,0,0,.1,1.74H415l-.12-.92h-.05a2.68,2.68,0,0,1-2.22,1.08,2.06,2.06,0,0,1-2.22-2.08c0-1.76,1.56-2.72,4.37-2.7v-.15a1.49,1.49,0,0,0-1.65-1.68,3.47,3.47,0,0,0-1.91.54l-.3-.89a4.77,4.77,0,0,1,2.4-.63c2.24,0,2.78,1.52,2.78,3Zm-1.29-2c-1.44,0-3.08.23-3.08,1.63A1.16,1.16,0,0,0,413,58.69a1.84,1.84,0,0,0,1.79-1.22,1.47,1.47,0,0,0,.06-.42Z"/><path class="cls-4" d="M418.22,48.85h1.32V59.5h-1.32Z"/><path class="cls-4" d="M424.72,59.66a3.46,3.46,0,0,1-3.48-3.74,3.55,3.55,0,0,1,3.6-3.85,3.44,3.44,0,0,1,3.49,3.72,3.55,3.55,0,0,1-3.6,3.87Zm.06-1c1.26,0,2.2-1.18,2.2-2.83,0-1.23-.61-2.78-2.17-2.78s-2.22,1.44-2.22,2.82c0,1.59.9,2.79,2.17,2.79Z"/><path class="cls-4" d="M430,54.5c0-.85,0-1.59-.06-2.26h1.15l.06,1.42h.05a2.2,2.2,0,0,1,2-1.59c.14,0,.24,0,.36,0v1.25a2.9,2.9,0,0,0-.45,0A1.85,1.85,0,0,0,431.36,55a4,4,0,0,0,0,.61V59.5H430Z"/><path class="cls-4" d="M444.35,48.85v8.77c0,.65,0,1.38.06,1.88h-1.18l-.06-1.26h0a2.67,2.67,0,0,1-2.46,1.42c-1.76,0-3.12-1.49-3.12-3.69,0-2.43,1.5-3.9,3.25-3.9a2.4,2.4,0,0,1,2.19,1.1h0V48.85ZM443,55.19a2.21,2.21,0,0,0-.06-.57,1.93,1.93,0,0,0-1.9-1.51c-1.37,0-2.18,1.2-2.18,2.79s.74,2.69,2.15,2.69A2,2,0,0,0,443,57a2,2,0,0,0,.06-.56Z"/><path class="cls-4" d="M447.29,56.11a2.31,2.31,0,0,0,2.48,2.5,4.75,4.75,0,0,0,2-.37l.24.94a5.94,5.94,0,0,1-2.43.47A3.39,3.39,0,0,1,446,56c0-2.19,1.3-3.92,3.42-3.92,2.37,0,3,2.09,3,3.42a3.35,3.35,0,0,1,0,.62Zm3.86-1A1.88,1.88,0,0,0,449.33,53a2.17,2.17,0,0,0-2,2.14Z"/><path class="cls-4" d="M457.24,48.85h1.32V59.5h-1.32Z"/><path class="cls-4" d="M465.89,57.76A11.58,11.58,0,0,0,466,59.5h-1.19l-.12-.92h0a2.69,2.69,0,0,1-2.22,1.08,2.06,2.06,0,0,1-2.22-2.08c0-1.76,1.56-2.72,4.36-2.7v-.15a1.49,1.49,0,0,0-1.65-1.68,3.44,3.44,0,0,0-1.9.54l-.3-.89a4.74,4.74,0,0,1,2.4-.63c2.23,0,2.77,1.52,2.77,3Zm-1.29-2c-1.44,0-3.07.23-3.07,1.63a1.16,1.16,0,0,0,1.23,1.27,1.82,1.82,0,0,0,1.78-1.22,1.19,1.19,0,0,0,.06-.42Z"/><path class="cls-4" d="M476.3,57.76a11.58,11.58,0,0,0,.11,1.74h-1.19l-.12-.92h0a2.69,2.69,0,0,1-2.22,1.08,2.06,2.06,0,0,1-2.22-2.08c0-1.76,1.56-2.72,4.36-2.7v-.15a1.49,1.49,0,0,0-1.65-1.68,3.44,3.44,0,0,0-1.9.54l-.3-.89a4.74,4.74,0,0,1,2.4-.63c2.23,0,2.77,1.52,2.77,3Zm-1.29-2c-1.44,0-3.07.23-3.07,1.63a1.16,1.16,0,0,0,1.23,1.27A1.82,1.82,0,0,0,475,57.47a1.19,1.19,0,0,0,.06-.42Z"/><path class="cls-4" d="M483.59,59.23a5.16,5.16,0,0,1-2.08.42,3.46,3.46,0,0,1-3.62-3.71,3.7,3.7,0,0,1,3.9-3.87,4.23,4.23,0,0,1,1.83.39l-.3,1a3.15,3.15,0,0,0-1.53-.35,2.52,2.52,0,0,0-2.56,2.75,2.48,2.48,0,0,0,2.52,2.71,3.89,3.89,0,0,0,1.62-.34Z"/><path class="cls-4" d="M490.22,59.23a5.16,5.16,0,0,1-2.08.42,3.46,3.46,0,0,1-3.62-3.71,3.7,3.7,0,0,1,3.9-3.87,4.23,4.23,0,0,1,1.83.39l-.3,1a3.15,3.15,0,0,0-1.53-.35,2.52,2.52,0,0,0-2.56,2.75,2.48,2.48,0,0,0,2.52,2.71,3.89,3.89,0,0,0,1.62-.34Z"/><path class="cls-4" d="M492.4,51a.82.82,0,1,1,.84-.81.79.79,0,0,1-.84.81Zm-.63,8.49V52.24h1.32V59.5Z"/><path class="cls-4" d="M498.23,59.66a3.46,3.46,0,0,1-3.48-3.74,3.56,3.56,0,0,1,3.6-3.85,3.44,3.44,0,0,1,3.5,3.72,3.56,3.56,0,0,1-3.6,3.87Zm.06-1c1.26,0,2.21-1.18,2.21-2.83,0-1.23-.62-2.78-2.18-2.78s-2.22,1.44-2.22,2.82c0,1.59.9,2.79,2.18,2.79Zm2-9.57-1.83,2.15h-.93l1.32-2.15Z"/><path class="cls-4" d="M503.51,54.2c0-.76,0-1.36-.06-2h1.17l.08,1.18h0a2.7,2.7,0,0,1,2.4-1.35c1,0,2.56.6,2.56,3.09V59.5h-1.32V55.31c0-1.17-.43-2.16-1.68-2.16a1.92,1.92,0,0,0-1.77,1.35,2,2,0,0,0-.09.62V59.5h-1.32Z"/><path class="cls-4" d="M380.71,79.49v-.81l1-1c2.49-2.37,3.63-3.63,3.63-5.1a1.73,1.73,0,0,0-1.92-1.91,3.31,3.31,0,0,0-2.07.83l-.42-.93a4.31,4.31,0,0,1,2.76-1,2.73,2.73,0,0,1,3,2.83c0,1.8-1.3,3.26-3.36,5.24l-.76.72v0h4.36v1.09Z"/><path class="cls-4" d="M389.17,78.56a5.28,5.28,0,0,0,1.06-.06,3.5,3.5,0,0,0,2-.93A4.29,4.29,0,0,0,393.56,75h0a2.87,2.87,0,0,1-2.31,1,2.83,2.83,0,0,1-2.88-3,3.35,3.35,0,0,1,3.34-3.45c2,0,3.23,1.6,3.23,4.11a6.16,6.16,0,0,1-1.68,4.57,5,5,0,0,1-2.84,1.31,7,7,0,0,1-1.21.07Zm2.38-8c-1.11,0-1.9,1-1.9,2.37A1.87,1.87,0,0,0,391.52,75a2.22,2.22,0,0,0,1.94-1,1,1,0,0,0,.1-.48c0-1.68-.61-2.94-2-2.94Z"/><path class="cls-4" d="M406,68.84v8.78c0,.64,0,1.38.06,1.87h-1.19l-.06-1.26h0a2.65,2.65,0,0,1-2.46,1.43c-1.75,0-3.12-1.49-3.12-3.69,0-2.43,1.5-3.9,3.26-3.9a2.42,2.42,0,0,1,2.19,1.09h0V68.84Zm-1.32,6.35a2.76,2.76,0,0,0-.06-.57,2,2,0,0,0-1.91-1.52c-1.36,0-2.17,1.2-2.17,2.79s.73,2.7,2.14,2.7A2,2,0,0,0,404.59,77a2.26,2.26,0,0,0,.06-.55Z"/><path class="cls-4" d="M408.91,76.1a2.31,2.31,0,0,0,2.47,2.51,4.69,4.69,0,0,0,2-.38l.24.94a5.86,5.86,0,0,1-2.43.47A3.38,3.38,0,0,1,407.63,76c0-2.19,1.31-3.91,3.42-3.91,2.37,0,3,2.08,3,3.42a3.09,3.09,0,0,1-.05.61Zm3.85-.94A1.87,1.87,0,0,0,411,73a2.19,2.19,0,0,0-2,2.15Z"/><path class="cls-4" d="M424,77.75a13,13,0,0,0,.1,1.74h-1.18l-.12-.91h0a2.68,2.68,0,0,1-2.22,1.08,2.07,2.07,0,0,1-2.22-2.09c0-1.75,1.56-2.71,4.37-2.7v-.15A1.5,1.5,0,0,0,421,73a3.56,3.56,0,0,0-1.91.54l-.3-.88a4.67,4.67,0,0,1,2.4-.63c2.24,0,2.78,1.51,2.78,3Zm-1.29-2c-1.44,0-3.08.22-3.08,1.63a1.16,1.16,0,0,0,1.23,1.26,1.84,1.84,0,0,0,1.79-1.21,1.58,1.58,0,0,0,.06-.42Z"/><path class="cls-4" d="M426.08,68.84h1.32v4.55h0a2.71,2.71,0,0,1,2.48-1.32c1.8,0,3.06,1.5,3.06,3.69,0,2.61-1.65,3.9-3.27,3.9a2.6,2.6,0,0,1-2.43-1.37h0l-.08,1.2H426c.05-.49.06-1.23.06-1.87Zm1.32,7.74a2.44,2.44,0,0,0,.05.48,2,2,0,0,0,2,1.55c1.39,0,2.2-1.13,2.2-2.79,0-1.47-.75-2.72-2.16-2.72a2.08,2.08,0,0,0-2,1.62,1.94,1.94,0,0,0-.08.56Z"/><path class="cls-4" d="M434.62,74.5c0-.86,0-1.59-.06-2.27h1.15l.06,1.43h.05a2.19,2.19,0,0,1,2-1.59,2,2,0,0,1,.36,0v1.24c-.13,0-.27,0-.45,0A1.85,1.85,0,0,0,436,75a4.21,4.21,0,0,0,0,.62v3.88h-1.32Z"/><path class="cls-4" d="M440.2,71a.79.79,0,0,1-.8-.81.82.82,0,1,1,.81.81Zm-.63,8.49V72.23h1.32v7.26Z"/><path class="cls-4" d="M443.08,68.84h1.32V79.49h-1.32Z"/><path class="cls-4" d="M449.38,79.49v-.81l1-1c2.49-2.37,3.63-3.63,3.63-5.1a1.73,1.73,0,0,0-1.92-1.91,3.31,3.31,0,0,0-2.07.83l-.42-.93a4.31,4.31,0,0,1,2.76-1,2.73,2.73,0,0,1,3,2.83c0,1.8-1.3,3.26-3.36,5.24l-.76.72v0h4.36v1.09Z"/><path class="cls-4" d="M460.18,79.66c-1.91,0-3.21-1.79-3.24-5s1.42-5.07,3.4-5.07,3.23,1.83,3.23,4.93c0,3.32-1.25,5.15-3.38,5.15Zm.07-1c1.34,0,2-1.58,2-4.07s-.6-4-2-4c-1.2,0-2,1.53-2,4s.75,4.07,2,4.07Z"/><path class="cls-4" d="M464.77,79.49v-.81l1-1c2.49-2.37,3.63-3.63,3.63-5.1a1.73,1.73,0,0,0-1.92-1.91,3.31,3.31,0,0,0-2.07.83l-.42-.93a4.31,4.31,0,0,1,2.76-1,2.73,2.73,0,0,1,3,2.83c0,1.8-1.3,3.26-3.36,5.24l-.76.72v0H471v1.09Z"/><path class="cls-4" d="M475.57,79.66c-1.91,0-3.21-1.79-3.24-5s1.42-5.07,3.4-5.07S479,71.41,479,74.51c0,3.32-1.25,5.15-3.38,5.15Zm.07-1c1.34,0,2-1.58,2-4.07s-.6-4-2-4c-1.2,0-2,1.53-2,4s.75,4.07,2,4.07Z"/><path class="cls-4" d="M1032.19,67.14v-1.4a5.77,5.77,0,0,1-2.47-.6l.44-1.7a5.14,5.14,0,0,0,2.4.64c.83,0,1.41-.34,1.41-.9s-.48-.9-1.55-1.26c-1.55-.52-2.61-1.25-2.61-2.66a2.66,2.66,0,0,1,2.45-2.58V55.31h1.42v1.27a5.22,5.22,0,0,1,2.12.48l-.44,1.64a4.53,4.53,0,0,0-2.09-.51c-.94,0-1.24.42-1.24.83s.5.78,1.74,1.23c1.74.61,2.42,1.41,2.42,2.73a2.75,2.75,0,0,1-2.58,2.66v1.5Z"/><path class="cls-4" d="M1043.87,58.26h-3.65l-.2,1.45.61,0a4.25,4.25,0,0,1,2.47.68,2.67,2.67,0,0,1,1.15,2.36c0,1.75-1.51,3.3-4,3.3a6.09,6.09,0,0,1-2.63-.53l.41-1.65a5.29,5.29,0,0,0,2.11.46c.92,0,1.89-.43,1.89-1.44s-.77-1.56-2.65-1.56a7.63,7.63,0,0,0-1.27.09l.61-4.95h5.19Z"/><path class="cls-4" d="M1051.92,58.26h-3.65l-.21,1.45.61,0a4.26,4.26,0,0,1,2.48.68,2.67,2.67,0,0,1,1.15,2.36c0,1.75-1.51,3.3-4,3.3a6.07,6.07,0,0,1-2.62-.53l.4-1.65a5.35,5.35,0,0,0,2.12.46c.91,0,1.89-.43,1.89-1.44s-.77-1.56-2.66-1.56a7.58,7.58,0,0,0-1.26.09l.61-4.95h5.19Z"/><path class="cls-4" d="M1055.07,66a1.34,1.34,0,1,1,1.32-1.33,1.26,1.26,0,0,1-1.32,1.33Z"/><path class="cls-4" d="M1058.13,64.28a4.26,4.26,0,0,0,.95,0,3.62,3.62,0,0,0,1.87-.58,2.74,2.74,0,0,0,1.19-1.74h0a2.56,2.56,0,0,1-1.91.68,2.82,2.82,0,0,1-2.93-2.94,3.43,3.43,0,0,1,3.55-3.4c2.42,0,3.57,1.86,3.57,4.06a5.66,5.66,0,0,1-1.64,4.34,5.58,5.58,0,0,1-3.62,1.32c-.37,0-.76,0-1,0Zm2.62-6.38c-.74,0-1.29.67-1.29,1.65a1.35,1.35,0,0,0,1.33,1.51,1.4,1.4,0,0,0,1.25-.61,1.17,1.17,0,0,0,.1-.56c0-1-.37-2-1.37-2Z"/><path class="cls-4" d="M1069,56.29c2.2,0,3.11,1.28,3.11,2.42a2.29,2.29,0,0,1-1.37,2.08v0a2.49,2.49,0,0,1,1.74,2.33c0,1.72-1.44,2.87-3.63,2.87-2.39,0-3.49-1.34-3.49-2.62a2.5,2.5,0,0,1,1.68-2.36v0a2.33,2.33,0,0,1-1.36-2.07c0-1.6,1.43-2.66,3.3-2.66Zm-.06,8.22a1.19,1.19,0,0,0,1.29-1.17c0-.83-.62-1.32-1.48-1.55a1.42,1.42,0,0,0-1.14,1.4,1.28,1.28,0,0,0,1.32,1.32Zm0-6.72a1,1,0,0,0-1.14,1.08c0,.64.57,1.05,1.32,1.28a1.29,1.29,0,0,0,1-1.19,1.08,1.08,0,0,0-1.13-1.17Z"/><path class="cls-4" d="M970.08,78.85l1.38,3.93c.23.65.42,1.23.57,1.81h0c.16-.58.36-1.16.59-1.81L974,78.85h1.33l-2.75,7h-1.22l-2.67-7Z"/><path class="cls-4" d="M981.46,84.19a10.68,10.68,0,0,0,.11,1.68h-1.15L980.3,85h0a2.59,2.59,0,0,1-2.14,1A2,2,0,0,1,976,84c0-1.69,1.51-2.62,4.22-2.6v-.15a1.44,1.44,0,0,0-1.6-1.62,3.44,3.44,0,0,0-1.84.52l-.29-.86a4.58,4.58,0,0,1,2.32-.61c2.16,0,2.68,1.47,2.68,2.87Zm-1.24-1.9c-1.39,0-3,.22-3,1.58a1.12,1.12,0,0,0,1.18,1.22,1.77,1.77,0,0,0,1.73-1.18,1.39,1.39,0,0,0,.06-.4Z"/><path class="cls-4" d="M983.51,75.58h1.28V85.87h-1.28Z"/><path class="cls-4" d="M989.79,86a3.34,3.34,0,0,1-3.37-3.61,3.44,3.44,0,0,1,3.48-3.73,3.32,3.32,0,0,1,3.38,3.6A3.44,3.44,0,0,1,989.8,86Zm.06-1c1.21,0,2.13-1.14,2.13-2.74,0-1.19-.6-2.68-2.1-2.68s-2.15,1.39-2.15,2.73c0,1.53.87,2.69,2.1,2.69Z"/><path class="cls-4" d="M994.89,81c0-.82,0-1.53-.06-2.19H996l.06,1.38h0a2.13,2.13,0,0,1,2-1.54c.13,0,.23,0,.35,0v1.21a2.76,2.76,0,0,0-.44,0,1.78,1.78,0,0,0-1.71,1.62,3.86,3.86,0,0,0,0,.6v3.75h-1.28Z"/><path class="cls-4" d="M1008.77,75.58v8.48c0,.62,0,1.33.06,1.81h-1.15l-.06-1.22h0a2.55,2.55,0,0,1-2.37,1.38c-1.7,0-3-1.44-3-3.57,0-2.34,1.45-3.77,3.15-3.77a2.33,2.33,0,0,1,2.11,1.06h0V75.58Zm-1.28,6.13a2.06,2.06,0,0,0-.06-.55,1.86,1.86,0,0,0-1.84-1.46c-1.32,0-2.1,1.15-2.1,2.69s.71,2.61,2.07,2.61a1.93,1.93,0,0,0,1.87-1.54,1.76,1.76,0,0,0,.06-.53Z"/><path class="cls-4" d="M1011.61,82.59A2.23,2.23,0,0,0,1014,85a4.42,4.42,0,0,0,1.94-.36l.24.92a5.83,5.83,0,0,1-2.35.44,3.27,3.27,0,0,1-3.45-3.53c0-2.12,1.26-3.79,3.3-3.79,2.29,0,2.89,2,2.89,3.31a2.86,2.86,0,0,1-.05.59Zm3.73-.91a1.82,1.82,0,0,0-1.76-2.07,2.12,2.12,0,0,0-2,2.07Z"/><path class="cls-4" d="M1021.22,75.58h1.28V85.87h-1.28Z"/><path class="cls-4" d="M1029.59,84.19a12.14,12.14,0,0,0,.1,1.68h-1.14l-.12-.88h0a2.61,2.61,0,0,1-2.15,1,2,2,0,0,1-2.14-2c0-1.69,1.5-2.62,4.21-2.6v-.15a1.44,1.44,0,0,0-1.59-1.62,3.39,3.39,0,0,0-1.84.52l-.29-.86a4.55,4.55,0,0,1,2.32-.61c2.16,0,2.68,1.47,2.68,2.87Zm-1.25-1.9c-1.39,0-3,.22-3,1.58a1.12,1.12,0,0,0,1.19,1.22,1.76,1.76,0,0,0,1.72-1.18,1.11,1.11,0,0,0,.06-.4Z"/><path class="cls-4" d="M1039.65,84.19a12.14,12.14,0,0,0,.1,1.68h-1.14l-.12-.88h0a2.61,2.61,0,0,1-2.15,1,2,2,0,0,1-2.14-2c0-1.69,1.51-2.62,4.22-2.6v-.15a1.44,1.44,0,0,0-1.6-1.62,3.39,3.39,0,0,0-1.84.52l-.29-.86a4.58,4.58,0,0,1,2.32-.61c2.16,0,2.68,1.47,2.68,2.87Zm-1.24-1.9c-1.4,0-3,.22-3,1.58a1.12,1.12,0,0,0,1.19,1.22,1.78,1.78,0,0,0,1.73-1.18,1.39,1.39,0,0,0,.06-.4Z"/><path class="cls-4" d="M1046.7,85.61a4.93,4.93,0,0,1-2,.4,3.33,3.33,0,0,1-3.49-3.58,3.58,3.58,0,0,1,3.77-3.74,4,4,0,0,1,1.77.38l-.29,1a3.13,3.13,0,0,0-1.48-.33,2.43,2.43,0,0,0-2.48,2.65,2.41,2.41,0,0,0,2.44,2.63,3.61,3.61,0,0,0,1.56-.34Z"/><path class="cls-4" d="M1053.11,85.61a5,5,0,0,1-2,.4,3.33,3.33,0,0,1-3.49-3.58,3.58,3.58,0,0,1,3.77-3.74,4,4,0,0,1,1.77.38l-.29,1a3.17,3.17,0,0,0-1.48-.33,2.43,2.43,0,0,0-2.48,2.65,2.4,2.4,0,0,0,2.43,2.63,3.63,3.63,0,0,0,1.57-.34Z"/><path class="cls-4" d="M1055.21,77.67a.79.79,0,0,1,0-1.58.76.76,0,0,1,.78.79.77.77,0,0,1-.79.79Zm-.61,8.2v-7h1.28v7Z"/><path class="cls-4" d="M1060.85,86a3.34,3.34,0,0,1-3.36-3.61,3.44,3.44,0,0,1,3.48-3.73,3.32,3.32,0,0,1,3.37,3.6,3.43,3.43,0,0,1-3.47,3.74Zm.06-1c1.22,0,2.13-1.14,2.13-2.74,0-1.19-.59-2.68-2.1-2.68s-2.15,1.39-2.15,2.73c0,1.53.87,2.69,2.1,2.69Zm1.91-9.25-1.77,2.08h-.89l1.27-2.08Z"/><path class="cls-4" d="M1066,80.75c0-.74,0-1.32-.06-1.9H1067l.07,1.15h0a2.61,2.61,0,0,1,2.32-1.31c1,0,2.48.58,2.48,3v4.19h-1.28v-4c0-1.13-.42-2.09-1.62-2.09a1.88,1.88,0,0,0-1.8,1.9v4.23H1066Z"/><path class="cls-4" d="M943.9,104.42A4.43,4.43,0,0,0,946,105c1.63,0,2.15-1,2.13-1.83,0-1.32-1.2-1.88-2.43-1.88H945v-1h.71c.93,0,2.1-.48,2.1-1.6,0-.75-.48-1.42-1.65-1.42a3.5,3.5,0,0,0-1.89.63L943.9,97a4.56,4.56,0,0,1,2.48-.73c1.85,0,2.69,1.11,2.69,2.25a2.35,2.35,0,0,1-1.74,2.23v0a2.43,2.43,0,0,1,2.1,2.41c0,1.51-1.18,2.83-3.43,2.83a4.82,4.82,0,0,1-2.45-.64Z"/><path class="cls-4" d="M953.8,97.63h0l-1.64.89-.24-1,2.05-1.11H955v9.43H953.8Z"/><path class="cls-4" d="M968,95.57v8.48c0,.63,0,1.34.06,1.82h-1.15l-.06-1.22h0A2.6,2.6,0,0,1,964.4,106c-1.7,0-3-1.44-3-3.57,0-2.35,1.45-3.77,3.15-3.77a2.31,2.31,0,0,1,2.11,1.06h0V95.57Zm-1.28,6.14a2.5,2.5,0,0,0,0-.55,1.89,1.89,0,0,0-1.84-1.47c-1.32,0-2.11,1.16-2.11,2.7s.71,2.61,2.08,2.61a1.94,1.94,0,0,0,1.87-1.54,2.21,2.21,0,0,0,0-.54Z"/><path class="cls-4" d="M970.79,102.59a2.23,2.23,0,0,0,2.39,2.42,4.65,4.65,0,0,0,2-.36l.23.91A5.76,5.76,0,0,1,973,106a3.27,3.27,0,0,1-3.45-3.54c0-2.11,1.26-3.78,3.31-3.78,2.29,0,2.88,2,2.88,3.31a3,3,0,0,1,0,.59Zm3.73-.91a1.83,1.83,0,0,0-1.76-2.08,2.1,2.1,0,0,0-2,2.08Z"/><path class="cls-4" d="M986.41,95.57v8.48c0,.63,0,1.34.06,1.82h-1.15l-.06-1.22h0a2.57,2.57,0,0,1-2.37,1.38c-1.7,0-3-1.44-3-3.57,0-2.35,1.45-3.77,3.15-3.77a2.33,2.33,0,0,1,2.11,1.06h0V95.57Zm-1.28,6.14a2,2,0,0,0-.06-.55,1.87,1.87,0,0,0-1.84-1.47c-1.32,0-2.1,1.16-2.1,2.7s.71,2.61,2.07,2.61a1.93,1.93,0,0,0,1.87-1.54,1.79,1.79,0,0,0,.06-.54Z"/><path class="cls-4" d="M989.13,97.66a.75.75,0,0,1-.76-.78.79.79,0,1,1,.78.78Zm-.6,8.21v-7h1.27v7Z"/><path class="cls-4" d="M996.92,105.61a5.09,5.09,0,0,1-2,.4,3.33,3.33,0,0,1-3.5-3.58,3.58,3.58,0,0,1,3.77-3.74,4,4,0,0,1,1.77.38l-.29,1a3.1,3.1,0,0,0-1.48-.33,2.43,2.43,0,0,0-2.48,2.65,2.41,2.41,0,0,0,2.44,2.62,3.63,3.63,0,0,0,1.56-.33Z"/><path class="cls-4" d="M999,97.66a.76.76,0,0,1-.77-.78.77.77,0,0,1,.8-.8.79.79,0,0,1,0,1.58Zm-.6,8.21v-7h1.27v7Z"/><path class="cls-4" d="M1002.53,102.59a2.23,2.23,0,0,0,2.39,2.42,4.65,4.65,0,0,0,2-.36l.23.91a5.76,5.76,0,0,1-2.35.45,3.27,3.27,0,0,1-3.45-3.54c0-2.11,1.26-3.78,3.31-3.78,2.29,0,2.88,2,2.88,3.31a3,3,0,0,1,0,.59Zm3.73-.91a1.83,1.83,0,0,0-1.76-2.08,2.1,2.1,0,0,0-2,2.08Z"/><path class="cls-4" d="M1009.07,100.75c0-.74,0-1.32-.06-1.9h1.12l.06,1.13h0a2.43,2.43,0,0,1,2.22-1.29,2.06,2.06,0,0,1,2,1.41h0a2.81,2.81,0,0,1,.8-.92,2.34,2.34,0,0,1,1.53-.49c1,0,2.32.61,2.32,3v4.13h-1.24v-4c0-1.36-.51-2.16-1.53-2.16a1.67,1.67,0,0,0-1.52,1.15,2.2,2.2,0,0,0-.1.64v4.35h-1.25v-4.22c0-1.12-.49-1.92-1.46-1.92a1.76,1.76,0,0,0-1.58,1.28,1.83,1.83,0,0,0-.1.62v4.24h-1.25Z"/><path class="cls-4" d="M1021.17,95.57h1.27V100h0a2.59,2.59,0,0,1,2.39-1.28c1.74,0,3,1.45,3,3.57,0,2.52-1.6,3.77-3.16,3.77a2.53,2.53,0,0,1-2.35-1.32h0l-.07,1.16h-1.1c0-.48.06-1.19.06-1.82Zm1.27,7.48a3.57,3.57,0,0,0,0,.47,2,2,0,0,0,1.92,1.49c1.35,0,2.13-1.09,2.13-2.7,0-1.42-.73-2.62-2.09-2.62a2,2,0,0,0-1.93,1.57,2.13,2.13,0,0,0-.07.53Z"/><path class="cls-4" d="M1029.42,101c0-.83,0-1.54-.06-2.19h1.11l.06,1.38h0a2.12,2.12,0,0,1,2-1.54c.13,0,.23,0,.35,0v1.2c-.13,0-.26,0-.43,0a1.81,1.81,0,0,0-1.72,1.63,5.65,5.65,0,0,0,0,.59v3.76h-1.27Z"/><path class="cls-4" d="M1034.74,102.59a2.23,2.23,0,0,0,2.39,2.42,4.6,4.6,0,0,0,1.94-.36l.23.91a5.74,5.74,0,0,1-2.34.45,3.28,3.28,0,0,1-3.46-3.54c0-2.11,1.27-3.78,3.31-3.78,2.29,0,2.88,2,2.88,3.31a3,3,0,0,1,0,.59Zm3.72-.91a1.81,1.81,0,0,0-1.75-2.08,2.1,2.1,0,0,0-2,2.08Z"/><path class="cls-4" d="M1043.89,105.87v-.79l1-1c2.4-2.29,3.5-3.51,3.5-4.93a1.67,1.67,0,0,0-1.85-1.84,3.2,3.2,0,0,0-2,.8l-.41-.9a4.23,4.23,0,0,1,2.67-1,2.65,2.65,0,0,1,2.87,2.74c0,1.74-1.26,3.15-3.25,5.06l-.74.7v0h4.22v1.06Z"/><path class="cls-4" d="M1054.33,106c-1.85,0-3.11-1.73-3.14-4.85s1.38-4.9,3.29-4.9,3.12,1.77,3.12,4.77c0,3.21-1.2,5-3.26,5Zm.07-1c1.29,0,1.91-1.52,1.91-3.93s-.58-3.84-1.91-3.84c-1.16,0-1.92,1.48-1.92,3.84s.73,3.93,1.9,3.93Z"/><path class="cls-4" d="M1058.76,105.87v-.79l1-1c2.41-2.29,3.51-3.51,3.51-4.93a1.67,1.67,0,0,0-1.85-1.84,3.2,3.2,0,0,0-2,.8l-.41-.9a4.23,4.23,0,0,1,2.67-1,2.65,2.65,0,0,1,2.87,2.74c0,1.74-1.26,3.15-3.25,5.06l-.74.7v0h4.22v1.06Z"/><path class="cls-4" d="M1069.2,106c-1.84,0-3.1-1.73-3.13-4.85s1.38-4.9,3.29-4.9,3.12,1.77,3.12,4.77c0,3.21-1.21,5-3.26,5Zm.07-1c1.29,0,1.92-1.52,1.92-3.93s-.58-3.84-1.92-3.84c-1.16,0-1.91,1.48-1.91,3.84s.73,3.93,1.9,3.93Z"/><path class="cls-4" d="M53.16,67.12V65.73a5.76,5.76,0,0,1-2.46-.61l.43-1.7a5.07,5.07,0,0,0,2.41.64c.82,0,1.4-.33,1.4-.9s-.47-.89-1.55-1.26c-1.55-.52-2.61-1.24-2.61-2.65a2.66,2.66,0,0,1,2.45-2.58V55.29h1.42v1.28a5,5,0,0,1,2.12.48l-.43,1.63a4.64,4.64,0,0,0-2.09-.5c-.94,0-1.25.42-1.25.82s.51.79,1.74,1.24c1.74.6,2.42,1.4,2.42,2.72a2.76,2.76,0,0,1-2.58,2.67v1.49Z"/><path class="cls-4" d="M64.85,58.25H61.19L61,59.7c.2,0,.38,0,.61,0a4.26,4.26,0,0,1,2.48.68,2.68,2.68,0,0,1,1.14,2.37c0,1.75-1.5,3.3-4,3.3a5.87,5.87,0,0,1-2.62-.54l.4-1.65a5.33,5.33,0,0,0,2.12.47c.91,0,1.88-.44,1.88-1.44s-.77-1.57-2.65-1.57a7.58,7.58,0,0,0-1.26.09l.61-4.94h5.19Z"/><path class="cls-4" d="M72.89,58.25H69.24L69,59.7c.2,0,.38,0,.61,0a4.28,4.28,0,0,1,2.48.68,2.68,2.68,0,0,1,1.14,2.37c0,1.75-1.51,3.3-4,3.3a5.92,5.92,0,0,1-2.63-.54L67,63.83a5.27,5.27,0,0,0,2.11.47c.92,0,1.89-.44,1.89-1.44s-.77-1.57-2.65-1.57a7.42,7.42,0,0,0-1.26.09l.6-4.94h5.19Z"/><path class="cls-4" d="M76,66a1.34,1.34,0,1,1,1.32-1.33A1.26,1.26,0,0,1,76,66Z"/><path class="cls-4" d="M81.23,58.39h0l-1.79.86L79,57.6l2.51-1.16h1.81v9.42H81.23Z"/><path class="cls-4" d="M86.48,65.86V64.53l1.21-1.09c2.07-1.86,3.07-2.91,3.08-4,0-.76-.45-1.37-1.53-1.37a3.44,3.44,0,0,0-2,.77l-.62-1.57a5.12,5.12,0,0,1,3.07-1c2.15,0,3.31,1.25,3.31,3s-1.13,2.84-2.51,4.06L89.6,64v0h3.57v1.81Z"/><path class="cls-4" d="M51.45,78.84l1.38,3.93a18.31,18.31,0,0,1,.56,1.81h0c.16-.58.36-1.16.59-1.81l1.36-3.93h1.34l-2.76,7H52.75l-2.66-7Z"/><path class="cls-4" d="M62.83,84.17a12.29,12.29,0,0,0,.1,1.69H61.79L61.67,85h0a2.61,2.61,0,0,1-2.15,1,2,2,0,0,1-2.14-2c0-1.7,1.51-2.62,4.22-2.61v-.14A1.45,1.45,0,0,0,60,79.62a3.39,3.39,0,0,0-1.84.52l-.29-.85a4.58,4.58,0,0,1,2.32-.61c2.16,0,2.68,1.46,2.68,2.87Zm-1.25-1.89c-1.39,0-3,.21-3,1.58a1.11,1.11,0,0,0,1.19,1.21,1.79,1.79,0,0,0,1.73-1.17,1.44,1.44,0,0,0,0-.41Z"/><path class="cls-4" d="M64.88,75.56h1.27v10.3H64.88Z"/><path class="cls-4" d="M71.16,86a3.34,3.34,0,0,1-3.37-3.6,3.44,3.44,0,0,1,3.48-3.73,3.32,3.32,0,0,1,3.38,3.6A3.43,3.43,0,0,1,71.17,86Zm0-1c1.22,0,2.13-1.15,2.13-2.74,0-1.19-.59-2.68-2.1-2.68S69.1,81,69.1,82.36c0,1.54.87,2.7,2.1,2.7Z"/><path class="cls-4" d="M76.26,81c0-.83,0-1.54-.06-2.19h1.12l.06,1.38h0a2.12,2.12,0,0,1,2-1.54,1.79,1.79,0,0,1,.34,0v1.2c-.13,0-.26,0-.43,0a1.78,1.78,0,0,0-1.71,1.63,3.81,3.81,0,0,0,0,.59v3.76H76.26Z"/><path class="cls-4" d="M90.06,75.56V84c0,.63,0,1.34.06,1.82H89l0-1.22h0A2.57,2.57,0,0,1,86.51,86c-1.7,0-3-1.43-3-3.56,0-2.35,1.44-3.77,3.14-3.77a2.35,2.35,0,0,1,2.12,1.06h0V75.56ZM88.79,81.7a2.67,2.67,0,0,0-.06-.56,1.89,1.89,0,0,0-1.84-1.46c-1.32,0-2.1,1.16-2.1,2.7S85.5,85,86.86,85a1.93,1.93,0,0,0,1.87-1.54,2.17,2.17,0,0,0,.06-.54Z"/><path class="cls-4" d="M92.91,82.58A2.23,2.23,0,0,0,95.3,85a4.6,4.6,0,0,0,1.94-.36l.23.91a5.76,5.76,0,0,1-2.35.45,3.27,3.27,0,0,1-3.45-3.54c0-2.11,1.26-3.78,3.31-3.78,2.29,0,2.88,2,2.88,3.31a3.07,3.07,0,0,1,0,.59Zm3.72-.91a1.81,1.81,0,0,0-1.75-2.08,2.1,2.1,0,0,0-2,2.08Z"/><path class="cls-4" d="M102.45,75.56h1.27v10.3h-1.27Z"/><path class="cls-4" d="M110.81,84.17a12.29,12.29,0,0,0,.1,1.69h-1.14l-.12-.89h0a2.61,2.61,0,0,1-2.15,1,2,2,0,0,1-2.14-2c0-1.7,1.51-2.62,4.22-2.61v-.14a1.45,1.45,0,0,0-1.6-1.63,3.39,3.39,0,0,0-1.84.52l-.29-.85a4.58,4.58,0,0,1,2.32-.61c2.16,0,2.68,1.46,2.68,2.87Zm-1.25-1.89c-1.39,0-3,.21-3,1.58a1.11,1.11,0,0,0,1.19,1.21,1.79,1.79,0,0,0,1.73-1.17,1.44,1.44,0,0,0,0-.41Z"/><path class="cls-4" d="M120.8,84.17a12.29,12.29,0,0,0,.1,1.69h-1.14l-.12-.89h0a2.61,2.61,0,0,1-2.15,1,2,2,0,0,1-2.14-2c0-1.7,1.51-2.62,4.22-2.61v-.14a1.45,1.45,0,0,0-1.6-1.63,3.39,3.39,0,0,0-1.84.52l-.29-.85a4.58,4.58,0,0,1,2.32-.61c2.16,0,2.68,1.46,2.68,2.87Zm-1.25-1.89c-1.39,0-3,.21-3,1.58a1.11,1.11,0,0,0,1.19,1.21,1.79,1.79,0,0,0,1.73-1.17,1.44,1.44,0,0,0,0-.41Z"/><path class="cls-4" d="M127.85,85.59a4.89,4.89,0,0,1-2,.41,3.33,3.33,0,0,1-3.49-3.58,3.58,3.58,0,0,1,3.77-3.74,4,4,0,0,1,1.77.38l-.29,1a3.15,3.15,0,0,0-1.48-.34,2.44,2.44,0,0,0-2.48,2.66A2.4,2.4,0,0,0,126.07,85a3.63,3.63,0,0,0,1.56-.33Z"/><path class="cls-4" d="M134.27,85.59a4.87,4.87,0,0,1-2,.41,3.33,3.33,0,0,1-3.5-3.58,3.58,3.58,0,0,1,3.77-3.74,4,4,0,0,1,1.77.38L134,80a3.08,3.08,0,0,0-1.48-.34,2.44,2.44,0,0,0-2.48,2.66A2.41,2.41,0,0,0,132.49,85a3.63,3.63,0,0,0,1.56-.33Z"/><path class="cls-4" d="M136.38,77.65a.75.75,0,0,1-.77-.78.79.79,0,1,1,.78.78Zm-.61,8.21v-7H137v7Z"/><path class="cls-4" d="M142,86a3.34,3.34,0,0,1-3.37-3.6,3.44,3.44,0,0,1,3.48-3.73,3.32,3.32,0,0,1,3.38,3.6A3.43,3.43,0,0,1,142,86Zm0-1c1.22,0,2.13-1.15,2.13-2.74,0-1.19-.59-2.68-2.1-2.68S140,81,140,82.36c0,1.54.87,2.7,2.1,2.7ZM144,75.81l-1.77,2.07h-.9l1.28-2.07Z"/><path class="cls-4" d="M147.12,80.74c0-.74,0-1.32-.06-1.9h1.13l.08,1.14h0a2.6,2.6,0,0,1,2.32-1.3c1,0,2.48.58,2.48,3v4.19h-1.27v-4c0-1.13-.42-2.09-1.63-2.09a1.85,1.85,0,0,0-1.79,1.9v4.24h-1.28Z"/><path class="cls-4" d="M53.55,106c-1.84,0-3.1-1.72-3.13-4.84s1.38-4.9,3.29-4.9S56.83,98,56.83,101c0,3.2-1.2,5-3.26,5Zm.07-1c1.3,0,1.92-1.53,1.92-3.93s-.58-3.84-1.92-3.84c-1.15,0-1.91,1.47-1.91,3.84s.73,3.93,1.9,3.93Z"/><path class="cls-4" d="M60.76,97.62h0l-1.64.88-.24-1,2-1.1H62v9.42H60.76Z"/><path class="cls-4" d="M74.9,95.56V104c0,.62,0,1.33,0,1.81H73.81l-.06-1.22h0A2.56,2.56,0,0,1,71.34,106c-1.69,0-3-1.43-3-3.56,0-2.35,1.45-3.77,3.14-3.77a2.33,2.33,0,0,1,2.12,1h0V95.56Zm-1.28,6.13a2.57,2.57,0,0,0-.06-.55,1.87,1.87,0,0,0-1.84-1.46c-1.32,0-2.1,1.16-2.1,2.69s.71,2.61,2.07,2.61a1.93,1.93,0,0,0,1.87-1.53,2.23,2.23,0,0,0,.06-.54Z"/><path class="cls-4" d="M77.74,102.58A2.23,2.23,0,0,0,80.13,105a4.43,4.43,0,0,0,1.94-.37l.23.92A5.74,5.74,0,0,1,80,106a3.27,3.27,0,0,1-3.45-3.54c0-2.12,1.26-3.78,3.3-3.78,2.29,0,2.89,2,2.89,3.3a3,3,0,0,1,0,.6Zm3.72-.92a1.81,1.81,0,0,0-1.75-2.07,2.1,2.1,0,0,0-2,2.07Z"/><path class="cls-4" d="M88,102.58A2.24,2.24,0,0,0,90.4,105a4.46,4.46,0,0,0,1.94-.37l.23.92a5.76,5.76,0,0,1-2.35.45,3.28,3.28,0,0,1-3.45-3.54c0-2.12,1.26-3.78,3.31-3.78,2.29,0,2.88,2,2.88,3.3a3.18,3.18,0,0,1,0,.6Zm3.73-.92A1.81,1.81,0,0,0,90,99.59a2.1,2.1,0,0,0-2,2.07Z"/><path class="cls-4" d="M94.54,100.73c0-.73,0-1.31-.05-1.89h1.13l.07,1.14h0A2.6,2.6,0,0,1,98,98.68c1,0,2.48.58,2.48,3v4.19H99.24v-4c0-1.13-.42-2.09-1.62-2.09a1.83,1.83,0,0,0-1.71,1.3,1.89,1.89,0,0,0-.09.6v4.23H94.54Z"/><path class="cls-4" d="M103.32,102.58a2.23,2.23,0,0,0,2.39,2.42,4.43,4.43,0,0,0,1.94-.37l.23.92a5.76,5.76,0,0,1-2.35.45,3.28,3.28,0,0,1-3.45-3.54c0-2.12,1.26-3.78,3.31-3.78,2.29,0,2.88,2,2.88,3.3a3.18,3.18,0,0,1,0,.6Zm3.72-.92a1.81,1.81,0,0,0-1.75-2.07,2.1,2.1,0,0,0-2,2.07Z"/><path class="cls-4" d="M109.86,101c0-.82,0-1.53-.06-2.18h1.11l.06,1.37h0a2.11,2.11,0,0,1,2-1.53,2,2,0,0,1,.35,0v1.2a2.72,2.72,0,0,0-.43,0,1.8,1.8,0,0,0-1.72,1.62,5.66,5.66,0,0,0,0,.6v3.75h-1.27Z"/><path class="cls-4" d="M117.31,106a3.34,3.34,0,0,1-3.37-3.61,3.43,3.43,0,0,1,3.48-3.72,3.31,3.31,0,0,1,3.38,3.59,3.44,3.44,0,0,1-3.48,3.74Zm.06-1c1.21,0,2.13-1.14,2.13-2.74,0-1.18-.6-2.68-2.11-2.68s-2.14,1.39-2.14,2.73c0,1.53.87,2.69,2.1,2.69Z"/><path class="cls-4" d="M125,105.85v-.78l1-1c2.4-2.29,3.51-3.51,3.51-4.93a1.67,1.67,0,0,0-1.86-1.84,3.17,3.17,0,0,0-2,.8l-.41-.9a4.17,4.17,0,0,1,2.67-1A2.64,2.64,0,0,1,130.79,99c0,1.74-1.26,3.15-3.25,5.06l-.73.69v0H131v1.06Z"/><path class="cls-4" d="M135.45,106c-1.84,0-3.11-1.72-3.13-4.84s1.37-4.9,3.29-4.9,3.11,1.77,3.11,4.77c0,3.2-1.2,5-3.26,5Zm.07-1c1.29,0,1.91-1.53,1.91-3.93s-.58-3.84-1.91-3.84c-1.16,0-1.91,1.47-1.91,3.84s.72,3.93,1.89,3.93Z"/><path class="cls-4" d="M139.88,105.85v-.78l1-1c2.41-2.29,3.51-3.51,3.51-4.93a1.67,1.67,0,0,0-1.85-1.84,3.14,3.14,0,0,0-2,.8l-.41-.9a4.17,4.17,0,0,1,2.67-1A2.65,2.65,0,0,1,145.67,99c0,1.74-1.26,3.15-3.25,5.06l-.74.69v0h4.22v1.06Z"/><path class="cls-4" d="M150.32,106c-1.84,0-3.1-1.72-3.13-4.84s1.38-4.9,3.29-4.9S153.6,98,153.6,101c0,3.2-1.2,5-3.26,5Zm.08-1c1.29,0,1.91-1.53,1.91-3.93s-.58-3.84-1.91-3.84c-1.16,0-1.92,1.47-1.92,3.84s.73,3.93,1.9,3.93Z"/><line class="cls-5" x1="19.9" y1="113" x2="19.9" y2="397"/><line class="cls-5" x1="1104.17" y1="362.38" x2="19.9" y2="362.38"/><path class="cls-4" d="M4.32,110v.34L1.39,116.5H.92l2.9-6.08v0H.52V110Z"/><path class="cls-4" d="M7.15,116.61c-1,0-2-1-2-3.33s1-3.39,2.13-3.39,2,1,2,3.27-.84,3.45-2.12,3.45Zm.06-.4c1.08,0,1.57-1.23,1.57-3s-.46-2.92-1.56-2.92c-.94,0-1.56,1.2-1.56,2.92s.59,3,1.54,3Z"/><path class="cls-4" d="M3.8,143.83a3.17,3.17,0,0,0-.7.07,3,3,0,0,0-2.33,2.77h0a2,2,0,0,1,1.68-.91,1.92,1.92,0,0,1,1.94,2.09,2.1,2.1,0,0,1-2,2.26c-1.17,0-2.11-1-2.11-2.73a4.23,4.23,0,0,1,1.06-2.95,3.39,3.39,0,0,1,1.82-1,2.79,2.79,0,0,1,.65-.08Zm-1.38,5.88c.88,0,1.49-.72,1.49-1.82a1.52,1.52,0,0,0-1.56-1.72,1.72,1.72,0,0,0-1.49.94.8.8,0,0,0-.11.38c0,1.31.59,2.22,1.66,2.22Z"/><path class="cls-4" d="M7.15,150.11c-1,0-2-1-2-3.33s1-3.39,2.13-3.39,2,1,2,3.27-.84,3.45-2.12,3.45Zm.06-.4c1.08,0,1.57-1.23,1.57-3s-.46-2.92-1.56-2.92c-.94,0-1.56,1.2-1.56,2.92s.59,3,1.54,3Z"/><path class="cls-4" d="M4,177.42H1.51l-.32,2.09a2.83,2.83,0,0,1,.6,0,2.66,2.66,0,0,1,1.21.28,1.85,1.85,0,0,1,1,1.69,2.13,2.13,0,0,1-2.19,2.18,2.63,2.63,0,0,1-1.5-.42l.19-.38a2.48,2.48,0,0,0,1.34.39,1.63,1.63,0,0,0,1.68-1.68c0-.94-.59-1.65-1.88-1.65a5.51,5.51,0,0,0-.93.07L1.14,177H4Z"/><path class="cls-4" d="M7.15,183.61c-1,0-2-1-2-3.33s1-3.39,2.13-3.39,2,1,2,3.27-.84,3.45-2.12,3.45Zm.06-.4c1.08,0,1.57-1.23,1.57-3s-.46-2.92-1.56-2.92c-.94,0-1.56,1.2-1.56,2.92s.59,3,1.54,3Z"/><path class="cls-4" d="M3.1,217v-1.91H0v-.32l3.17-4.27h.39v4.19h1v.4h-1V217Zm0-2.31v-2.63q0-.47,0-.9h0a7.69,7.69,0,0,1-.51.82l-2,2.7v0Z"/><path class="cls-4" d="M7.15,217.11c-1,0-2-1-2-3.33s1-3.39,2.13-3.39,2,1,2,3.27-.84,3.45-2.12,3.45Zm.06-.4c1.08,0,1.57-1.23,1.57-3s-.46-2.92-1.56-2.92c-.94,0-1.56,1.2-1.56,2.92s.59,3,1.54,3Z"/><path class="cls-4" d="M.54,249.79a2.58,2.58,0,0,0,1.4.41,1.45,1.45,0,0,0,1.64-1.5c0-1.09-1-1.53-1.91-1.53H1.26v-.4h.43c.72,0,1.63-.41,1.63-1.31a1.11,1.11,0,0,0-1.26-1.16,2.19,2.19,0,0,0-1.26.45l-.19-.35a2.58,2.58,0,0,1,1.51-.51,1.5,1.5,0,0,1,1.7,1.51,1.68,1.68,0,0,1-1.21,1.54v0a1.73,1.73,0,0,1,1.47,1.72,2,2,0,0,1-2.2,1.93,2.76,2.76,0,0,1-1.53-.44Z"/><path class="cls-4" d="M7.15,250.61c-1,0-2-1-2-3.33s1-3.39,2.13-3.39,2,1,2,3.27-.84,3.45-2.12,3.45Zm.06-.4c1.08,0,1.57-1.23,1.57-3s-.46-2.92-1.56-2.92c-.94,0-1.56,1.2-1.56,2.92s.59,3,1.54,3Z"/><path class="cls-4" d="M.36,283v-.29l.6-.62c1.81-1.77,2.6-2.69,2.6-3.81a1.3,1.3,0,0,0-1.41-1.47,2.15,2.15,0,0,0-1.38.56L.58,277a2.46,2.46,0,0,1,1.66-.65,1.71,1.71,0,0,1,1.81,1.79c0,1.28-.93,2.31-2.56,3.92l-.46.48v0h3.2v.4Z"/><path class="cls-4" d="M7.15,283.11c-1,0-2-1-2-3.33s1-3.39,2.13-3.39,2,1,2,3.27-.84,3.45-2.12,3.45Zm.06-.4c1.08,0,1.57-1.23,1.57-3s-.46-2.92-1.56-2.92c-.94,0-1.56,1.2-1.56,2.92s.59,3,1.54,3Z"/><path class="cls-4" d="M2.26,309.49h0l-1.06.62-.12-.38L2.29,309h.44v6.5H2.26Z"/><path class="cls-4" d="M7.15,315.61c-1,0-2-1-2-3.33s1-3.39,2.13-3.39,2,1,2,3.27-.84,3.45-2.12,3.45Zm.06-.4c1.08,0,1.57-1.23,1.57-3s-.46-2.92-1.56-2.92c-.94,0-1.56,1.2-1.56,2.92s.59,3,1.54,3Z"/><path class="cls-4" d="M7.39,348.11c-1,0-2-1-2-3.33s1-3.39,2.13-3.39,2,1,2,3.27-.84,3.45-2.12,3.45Zm.06-.4c1.08,0,1.57-1.23,1.57-3s-.46-2.92-1.56-2.92c-.94,0-1.56,1.2-1.56,2.92s.59,3,1.54,3Z"/><g class="cls-6"><g class="cls-7"><polygon class="cls-8" points="39.15 444.82 39.15 154.59 43.31 157.01 47.47 153.01 51.62 155.38 55.78 151.26 59.94 152.05 64.1 148.66 68.25 146.07 72.41 145.79 76.57 146.97 80.73 142.01 84.89 137.67 89.04 137.1 93.2 137.44 97.36 146.18 101.52 143.25 105.67 144.89 109.83 155.26 113.99 150.36 118.14 149.23 122.3 148.5 126.46 156.11 130.62 146.01 134.78 148.95 138.93 153.91 143.09 149.46 147.25 148.89 151.41 147.88 155.56 148.16 159.72 142.46 163.88 137.33 168.04 136.54 172.19 136.54 176.35 148.89 180.51 140.32 184.67 133.66 188.82 144.89 192.98 146.97 197.14 149.23 201.3 153.35 205.45 154.14 209.61 141.05 213.77 138.74 217.93 134.62 222.08 141.33 226.24 141.16 230.4 150.64 234.56 133.49 238.71 131.46 242.87 151.88 247.03 147.65 251.19 161.41 255.34 155.94 259.5 164.18 263.66 175.63 267.82 174.84 271.97 163.89 276.13 156.67 280.29 162.03 284.45 164.57 288.6 154.25 292.76 151.03 296.92 149.06 301.08 152.78 305.24 155.72 309.39 154.08 313.55 151.99 317.71 147.2 321.87 141.67 326.02 150.53 330.18 158.37 334.34 154.47 338.5 138.74 342.65 141.9 346.81 150.25 350.97 146.8 355.13 152.9 359.28 143.76 363.44 141.5 367.6 126.67 371.75 126.5 375.91 138.51 380.07 140.43 384.23 144.15 388.38 136.03 392.54 136.54 396.7 135.02 400.86 138.74 405.02 136.26 409.17 141.33 413.33 145.56 417.49 149.46 421.65 135.64 425.8 147.25 429.96 147.76 434.12 150.98 438.28 150.7 442.43 151.43 446.59 148.66 450.75 146.07 454.91 150.41 459.06 153.29 463.22 146.97 467.38 153.23 471.54 155.21 475.69 155.6 479.85 153.23 484.01 142.29 488.17 145.17 492.32 149.85 496.48 154.98 500.64 158.7 504.8 153.63 508.95 156.5 513.11 153.97 517.27 157.63 521.43 155.38 525.58 157.35 529.74 155.77 533.9 152.56 538.06 154.93 542.21 155.15 546.37 152.33 550.53 154.42 554.69 150.87 558.84 144.38 563 146.47 567.16 155.49 571.32 150.7 575.48 154.31 579.63 155.15 583.79 155.94 587.95 161.53 592.11 158.76 596.26 157.52 600.42 149.46 604.58 147.2 608.74 149.17 612.89 146.8 617.05 147.59 621.21 151.77 625.37 146.86 629.52 147.82 633.68 157.18 637.84 158.65 642 167.62 646.15 170.89 650.31 161.41 654.47 158.48 658.63 155.43 662.78 160.74 666.94 151.94 671.1 148.89 675.26 146.69 679.41 147.88 683.57 147.2 687.73 143.36 691.89 140.15 696.04 138.91 700.2 141.62 704.36 141.05 708.52 145.34 712.67 143.59 716.83 145.51 720.99 152.11 725.15 156.17 729.3 158.99 733.46 169.19 737.62 166.04 741.78 168.52 745.93 170.1 750.09 173.03 754.25 171.96 758.41 177.43 762.56 177.6 766.72 181.66 770.88 180.02 775.04 178.56 779.19 177.99 783.35 178.44 787.51 178.84 791.67 178.39 795.82 175.12 799.98 179.24 804.14 171.28 808.3 163.95 812.45 161.81 816.61 164.29 820.77 166.26 824.93 167.73 829.09 172.35 833.24 172.47 837.4 170.44 841.56 170.15 845.72 165.47 849.87 162.43 854.03 164.8 858.19 171.51 862.35 179.12 866.5 179.46 870.66 178.33 874.82 175.96 878.98 172.75 883.13 171.85 887.29 165.36 891.45 166.77 895.61 170.72 899.76 171.79 903.92 173.37 908.08 174.67 912.24 176.41 916.39 169.42 920.55 164.01 924.71 158.25 928.87 160.45 933.02 164.8 937.18 163.05 941.34 162.6 945.5 158.54 949.65 151.2 953.81 143.7 957.97 141.33 962.13 146.69 966.28 141.84 970.44 145.28 974.6 159.27 978.76 166.04 982.91 161.64 987.07 167.22 991.23 165.13 995.39 154.25 999.54 149.4 1003.7 145.96 1007.86 157.29 1012.02 160.45 1016.17 159.83 1020.33 162.54 1024.49 152.44 1028.65 143.98 1032.8 148.5 1036.96 152.9 1041.12 150.87 1045.28 147.88 1049.43 146.75 1053.59 152.11 1057.75 153.46 1061.91 149.46 1066.06 150.92 1070.22 149.23 1074.38 141.5 1078.54 141.5 1082.69 149.74 1082.69 445 39.15 444.82"/></g></g><polyline class="cls-9" points="39.66 155.25 43.82 157.69 47.98 153.66 52.13 156.04 56.29 151.9 60.45 152.69 64.61 149.29 68.77 146.68 72.93 146.39 77.08 147.58 81.24 142.59 85.4 138.22 89.56 137.65 93.72 137.99 97.88 146.79 102.04 143.84 106.19 145.48 110.35 155.93 114.51 150.99 118.67 149.85 122.83 149.12 126.99 156.78 131.15 146.62 135.3 149.57 139.46 154.57 143.62 150.08 147.78 149.51 151.94 148.49 156.1 148.78 160.25 143.04 164.41 137.88 168.57 137.08 172.73 137.08 176.89 149.51 181.05 140.88 185.21 134.19 189.36 145.48 193.52 147.58 197.68 149.85 201.84 154 206 154.79 210.16 141.62 214.31 139.29 218.47 135.15 222.63 141.91 226.79 141.74 230.95 151.27 235.11 134.01 239.26 131.97 243.42 152.52 247.58 148.26 251.74 162.12 255.9 156.61 260.06 164.9 264.22 176.43 268.37 175.63 272.53 164.62 276.69 157.35 280.85 162.74 285.01 165.3 289.17 154.91 293.32 151.67 297.48 149.68 301.64 153.43 305.8 156.38 309.96 154.74 314.12 152.64 318.27 147.81 322.43 142.25 326.59 151.16 330.75 159.05 334.91 155.13 339.07 139.29 343.23 142.47 347.38 150.88 351.54 147.41 355.7 153.54 359.86 144.35 364.02 142.08 368.18 127.14 372.34 126.97 376.49 139.07 380.65 141 384.81 144.75 388.97 136.57 393.13 137.08 397.29 135.55 401.44 139.29 405.6 136.8 409.76 141.91 413.92 146.16 418.08 150.08 422.24 136.17 426.39 147.87 430.55 148.38 434.71 151.61 438.87 151.33 443.03 152.07 447.19 149.29 451.35 146.68 455.5 151.05 459.66 153.94 463.82 147.58 467.98 153.88 472.14 155.87 476.3 156.27 480.45 153.88 484.61 142.87 488.77 145.77 492.93 150.48 497.09 155.65 501.25 159.39 505.41 154.28 509.56 157.18 513.72 154.62 517.88 158.31 522.04 156.04 526.2 158.03 530.36 156.44 534.51 153.2 538.67 155.59 542.83 155.82 546.99 152.98 551.15 155.08 555.31 151.5 559.47 144.97 563.63 147.07 567.78 156.16 571.94 151.33 576.1 154.96 580.26 155.82 584.42 156.61 588.58 162.23 592.73 159.45 596.89 158.2 601.05 150.08 605.21 147.81 609.37 149.8 613.53 147.41 617.68 148.21 621.84 152.41 626 147.47 630.16 148.44 634.32 157.86 638.48 159.34 642.63 168.36 646.79 171.66 650.95 162.12 655.11 159.17 659.27 156.1 663.43 161.44 667.59 152.58 671.74 149.51 675.9 147.3 680.06 148.49 684.22 147.81 688.38 143.95 692.54 140.71 696.7 139.47 700.85 142.19 705.01 141.62 709.17 145.94 713.33 144.18 717.49 146.11 721.65 152.75 725.8 156.84 729.96 159.68 734.12 169.95 738.28 166.77 742.44 169.27 746.6 170.86 750.75 173.81 754.91 172.74 759.07 178.24 763.23 178.41 767.39 182.5 771.55 180.85 775.71 179.38 779.86 178.81 784.02 179.26 788.18 179.66 792.34 179.21 796.5 175.91 800.66 180.06 804.82 172.05 808.97 164.67 813.13 162.51 817.29 165.01 821.45 167 825.61 168.48 829.77 173.13 833.92 173.25 838.08 171.2 842.24 170.92 846.4 166.21 850.56 163.14 854.72 165.53 858.88 172.28 863.03 179.94 867.19 180.29 871.35 179.15 875.51 176.77 879.67 173.53 883.83 172.62 887.98 166.09 892.14 167.51 896.3 171.49 900.46 172.56 904.62 174.15 908.78 175.46 912.93 177.22 917.09 170.18 921.25 164.73 925.41 158.94 929.57 161.15 933.73 165.53 937.89 163.76 942.04 163.31 946.2 159.22 950.36 151.84 954.52 144.29 958.68 141.91 962.84 147.3 967 142.42 971.15 145.88 975.31 159.96 979.47 166.77 983.63 162.34 987.79 167.97 991.95 165.87 996.1 154.91 1000.26 150.03 1004.42 146.56 1008.58 157.97 1012.74 161.15 1016.9 160.53 1021.05 163.25 1025.21 153.09 1029.37 144.57 1033.53 149.12 1037.69 153.54 1041.85 151.5 1046.01 148.49 1050.16 147.36 1054.32 152.75 1058.48 154.11 1062.64 150.08 1066.8 151.56 1070.96 149.85 1075.12 142.08 1079.27 142.08 1083.43 150.37"/><line class="cls-10" x1="370.03" y1="124.74" x2="370.03"/><circle class="cls-10" cx="370.03" cy="126.74" r="2"/><line class="cls-10" x1="39.66" y1="153.5" x2="39.66" y2="55"/><circle class="cls-10" cx="39.66" cy="155.5" r="2"/><line class="cls-10" x1="1082.93" y1="147.5" x2="1082.93" y2="55"/><circle class="cls-10" cx="1082.93" cy="149.5" r="2"/><g class="cls-11"><g class="cls-12"><line class="cls-13" x1="296.7" y1="169" x2="296.7" y2="394.8"/><line class="cls-13" x1="560.42" y1="169" x2="560.42" y2="394.8"/><line class="cls-13" x1="825.14" y1="169" x2="825.14" y2="394.8"/></g></g><path class="cls-4" d="M129.91,371.44a13.39,13.39,0,0,1,2.27-.16,3.45,3.45,0,0,1,2.26.61,2.07,2.07,0,0,1,.79,1.7,2.28,2.28,0,0,1-.68,1.76,3.48,3.48,0,0,1-2.41.78,3.18,3.18,0,0,1-.57,0v2.66h-1.66Zm1.66,3.36a2.09,2.09,0,0,0,.56.05c.89,0,1.44-.45,1.44-1.2s-.47-1.09-1.32-1.09a3.25,3.25,0,0,0-.68.05Z"/><path class="cls-4" d="M136.16,375.14c0-.79,0-1.31,0-1.77h1.43l.07,1h0a1.58,1.58,0,0,1,1.46-1.12,1.83,1.83,0,0,1,.35,0v1.58a2.68,2.68,0,0,0-.45-.05,1.07,1.07,0,0,0-1.15.85,2.05,2.05,0,0,0,0,.37v2.72h-1.67Z"/><path class="cls-4" d="M141.16,372.71a.83.83,0,0,1-.87-.83.89.89,0,1,1,.88.83Zm-.82,6v-5.38H142v5.38Z"/><path class="cls-4" d="M143.35,375.09c0-.67,0-1.23,0-1.72h1.42l.06.74h0a1.85,1.85,0,0,1,1.62-.86,1.52,1.52,0,0,1,1.48.93h0a2.29,2.29,0,0,1,.7-.66,2,2,0,0,1,1-.27c1,0,1.81.73,1.81,2.33v3.17h-1.63v-2.91c0-.78-.25-1.24-.79-1.24a.84.84,0,0,0-.78.59,1.86,1.86,0,0,0,0,.42v3.14h-1.63v-3c0-.67-.24-1.14-.78-1.14a.85.85,0,0,0-.78.6,1,1,0,0,0-.07.43v3.12h-1.63Z"/><path class="cls-4" d="M154.1,376.6c.05.69.74,1,1.52,1a4.51,4.51,0,0,0,1.48-.23l.22,1.13a5.09,5.09,0,0,1-1.94.34,2.58,2.58,0,0,1-2.88-2.74,2.7,2.7,0,0,1,2.72-2.87,2.39,2.39,0,0,1,2.4,2.69,3.28,3.28,0,0,1-.06.66Zm2-1.15a1,1,0,0,0-.94-1.09,1.1,1.1,0,0,0-1,1.09Z"/><path class="cls-4" d="M158.62,375.14c0-.79,0-1.31,0-1.77H160l.06,1h.05a1.56,1.56,0,0,1,1.45-1.12,1.83,1.83,0,0,1,.35,0v1.58a2.56,2.56,0,0,0-.45-.05,1.06,1.06,0,0,0-1.14.85,1.4,1.4,0,0,0,0,.37v2.72h-1.67Z"/><path class="cls-4" d="M166.89,371.91v1.46h1.2v1.23h-1.2v1.95c0,.65.17.95.66.95a1.79,1.79,0,0,0,.5-.05v1.27a3.47,3.47,0,0,1-1.08.14,1.83,1.83,0,0,1-1.27-.46,2.28,2.28,0,0,1-.46-1.6v-2.2h-.71v-1.23h.71v-1Z"/><path class="cls-4" d="M169.06,375.14c0-.79,0-1.31-.05-1.77h1.43l.07,1h0a1.58,1.58,0,0,1,1.46-1.12,1.83,1.83,0,0,1,.35,0v1.58a2.68,2.68,0,0,0-.45-.05,1.07,1.07,0,0,0-1.15.85,2.05,2.05,0,0,0,0,.37v2.72h-1.67Z"/><path class="cls-4" d="M174.06,372.71a.83.83,0,0,1-.87-.83.89.89,0,1,1,.88.83Zm-.82,6v-5.38h1.67v5.38Z"/><path class="cls-4" d="M176.25,375.09c0-.67,0-1.23,0-1.72h1.42l.06.74h0a1.85,1.85,0,0,1,1.62-.86,1.52,1.52,0,0,1,1.48.93h0a2.29,2.29,0,0,1,.7-.66,2,2,0,0,1,1-.27c1,0,1.81.73,1.81,2.33v3.17h-1.62v-2.91c0-.78-.26-1.24-.8-1.24a.84.84,0,0,0-.78.59,1.86,1.86,0,0,0-.05.42v3.14h-1.63v-3c0-.67-.24-1.14-.78-1.14a.85.85,0,0,0-.78.6,1,1,0,0,0-.07.43v3.12h-1.63Z"/><path class="cls-4" d="M187,376.6c.05.69.74,1,1.52,1a4.51,4.51,0,0,0,1.48-.23l.22,1.13a5.09,5.09,0,0,1-1.94.34,2.58,2.58,0,0,1-2.88-2.74,2.7,2.7,0,0,1,2.72-2.87,2.39,2.39,0,0,1,2.4,2.69,3.28,3.28,0,0,1-.06.66Zm2-1.15a1,1,0,0,0-.94-1.09,1.1,1.1,0,0,0-1,1.09Z"/><path class="cls-4" d="M191.51,377.29a3.25,3.25,0,0,0,1.44.39c.51,0,.72-.16.72-.43s-.17-.42-.79-.62c-1.12-.37-1.55-1-1.54-1.61,0-1,.86-1.77,2.19-1.77a3.62,3.62,0,0,1,1.51.32l-.29,1.15a2.69,2.69,0,0,0-1.16-.3c-.41,0-.64.16-.64.43s.21.39.87.61c1,.35,1.44.87,1.45,1.65,0,1-.78,1.75-2.32,1.75a3.83,3.83,0,0,1-1.74-.38Z"/><path class="cls-4" d="M198.16,371.91v1.46h1.2v1.23h-1.2v1.95c0,.65.17.95.66.95a1.71,1.71,0,0,0,.5-.05v1.27a3.47,3.47,0,0,1-1.08.14,1.78,1.78,0,0,1-1.26-.46,2.23,2.23,0,0,1-.47-1.6v-2.2h-.71v-1.23h.71v-1Z"/><path class="cls-4" d="M200.33,375.14c0-.79,0-1.31,0-1.77h1.43l.06,1h.05a1.56,1.56,0,0,1,1.45-1.12,1.83,1.83,0,0,1,.35,0v1.58a2.56,2.56,0,0,0-.45-.05,1.06,1.06,0,0,0-1.14.85,1.4,1.4,0,0,0,0,.37v2.72h-1.67Z"/><path class="cls-4" d="M205.71,376.6c0,.69.74,1,1.52,1a4.51,4.51,0,0,0,1.48-.23l.22,1.13a5.09,5.09,0,0,1-1.94.34,2.58,2.58,0,0,1-2.88-2.74,2.7,2.7,0,0,1,2.72-2.87,2.39,2.39,0,0,1,2.4,2.69,4.54,4.54,0,0,1,0,.66Zm2-1.15a1,1,0,0,0-.94-1.09,1.1,1.1,0,0,0-1,1.09Z"/><path class="cls-4" d="M144.56,388.28h-2.87V391h3.21v.8h-4.18v-7.41h4v.8h-3.05v2.35h2.87Z"/><path class="cls-4" d="M146.11,387.87c0-.56,0-1,0-1.44h.86l0,.87h0a2,2,0,0,1,1.77-1c.73,0,1.88.44,1.88,2.26v3.18h-1v-3.07c0-.85-.32-1.58-1.23-1.58a1.39,1.39,0,0,0-1.3,1,1.29,1.29,0,0,0-.07.45v3.21h-1Z"/><path class="cls-4" d="M152.77,389.27a1.69,1.69,0,0,0,1.81,1.83,3.54,3.54,0,0,0,1.48-.27l.17.69a4.22,4.22,0,0,1-1.78.34,2.48,2.48,0,0,1-2.62-2.68,2.59,2.59,0,0,1,2.51-2.87,2.25,2.25,0,0,1,2.19,2.51,2.64,2.64,0,0,1,0,.45Zm2.83-.7a1.38,1.38,0,0,0-1.34-1.57,1.59,1.59,0,0,0-1.48,1.57Z"/><path class="cls-4" d="M157.73,388.09c0-.63,0-1.17,0-1.66h.84l.05,1h0a1.61,1.61,0,0,1,1.48-1.16l.27,0v.91l-.33,0a1.36,1.36,0,0,0-1.3,1.23,3.4,3.4,0,0,0,0,.45v2.85h-1Z"/><path class="cls-4" d="M163.38,391.88a2.54,2.54,0,0,1-2.55-2.74,2.61,2.61,0,0,1,2.64-2.83A2.52,2.52,0,0,1,166,389a2.61,2.61,0,0,1-2.64,2.84Zm.05-.73c.92,0,1.61-.87,1.61-2.08,0-.9-.45-2-1.59-2s-1.63,1.06-1.63,2.07c0,1.17.66,2,1.6,2Z"/><path class="cls-4" d="M169.65,388.43v.71h-2.71v-.71Z"/><path class="cls-4" d="M170.79,387.87c0-.56,0-1,0-1.44h.85l0,.86h0a1.82,1.82,0,0,1,1.68-1,1.59,1.59,0,0,1,1.5,1.07h0a2.09,2.09,0,0,1,.6-.7,1.8,1.8,0,0,1,1.17-.37c.71,0,1.76.46,1.76,2.31v3.13h-1v-3c0-1-.38-1.64-1.15-1.64a1.29,1.29,0,0,0-1.16.87,1.85,1.85,0,0,0-.07.48v3.3h-.95v-3.2c0-.84-.37-1.45-1.11-1.45a1.32,1.32,0,0,0-1.2,1,1.22,1.22,0,0,0-.08.47v3.21h-.94Z"/><path class="cls-4" d="M183.71,390.48a8.14,8.14,0,0,0,.08,1.27h-.87l-.09-.67h0a2,2,0,0,1-1.63.8,1.52,1.52,0,0,1-1.63-1.53c0-1.29,1.15-2,3.2-2v-.11a1.1,1.1,0,0,0-1.21-1.24,2.57,2.57,0,0,0-1.39.4l-.22-.65a3.47,3.47,0,0,1,1.76-.46c1.64,0,2,1.11,2,2.18Zm-.94-1.44c-1.06,0-2.26.16-2.26,1.2a.85.85,0,0,0,.9.92,1.34,1.34,0,0,0,1.31-.89,1.12,1.12,0,0,0,.05-.31Z"/><path class="cls-4" d="M185.26,388.09c0-.63,0-1.17,0-1.66h.85l0,1h0a1.61,1.61,0,0,1,1.49-1.16l.26,0v.91l-.33,0a1.37,1.37,0,0,0-1.3,1.23,3.4,3.4,0,0,0,0,.45v2.85h-1Z"/><path class="cls-4" d="M188.34,391.19l2.41-3.13c.24-.3.45-.55.71-.84v0h-2.9v-.77h4.06v.6l-2.39,3.11c-.22.28-.44.56-.68.82v0h3.12v.77h-4.33Z"/><path class="cls-4" d="M195.75,391.88a2.54,2.54,0,0,1-2.56-2.74,2.61,2.61,0,0,1,2.64-2.83A2.52,2.52,0,0,1,198.4,389a2.61,2.61,0,0,1-2.64,2.84Zm0-.73c.92,0,1.62-.87,1.62-2.08,0-.9-.45-2-1.6-2s-1.63,1.06-1.63,2.07c0,1.17.66,2,1.6,2Z"/><path class="cls-4" d="M657.16,372.75h-2v-1.41h5.7v1.41h-2v6h-1.67Z"/><path class="cls-4" d="M662.1,376.6c.06.69.74,1,1.52,1a4.51,4.51,0,0,0,1.48-.23l.22,1.13a5.09,5.09,0,0,1-1.94.34,2.58,2.58,0,0,1-2.87-2.74,2.7,2.7,0,0,1,2.71-2.87,2.39,2.39,0,0,1,2.4,2.69,4.54,4.54,0,0,1,0,.66Zm2-1.15a1,1,0,0,0-.94-1.09,1.1,1.1,0,0,0-1,1.09Z"/><path class="cls-4" d="M666.62,375.14c0-.79,0-1.31,0-1.77H668l.06,1h0a1.56,1.56,0,0,1,1.45-1.12,1.83,1.83,0,0,1,.35,0v1.58a2.56,2.56,0,0,0-.45-.05,1.07,1.07,0,0,0-1.14.85,2,2,0,0,0,0,.37v2.72h-1.67Z"/><path class="cls-4" d="M674.76,378.61a3.86,3.86,0,0,1-1.49.25,2.61,2.61,0,0,1-2.85-2.75,2.81,2.81,0,0,1,3.08-2.85,3.88,3.88,0,0,1,1.27.21l-.26,1.25a2.27,2.27,0,0,0-.94-.17,1.5,1.5,0,0,0,0,3,2.34,2.34,0,0,0,.95-.17Z"/><path class="cls-4" d="M676.86,376.6c.06.69.74,1,1.52,1a4.57,4.57,0,0,0,1.49-.23l.22,1.13a5.11,5.11,0,0,1-2,.34,2.58,2.58,0,0,1-2.87-2.74,2.7,2.7,0,0,1,2.71-2.87,2.39,2.39,0,0,1,2.4,2.69,4.54,4.54,0,0,1,0,.66Zm2-1.15a1,1,0,0,0-.93-1.09,1.11,1.11,0,0,0-1,1.09Z"/><path class="cls-4" d="M681.38,375.14c0-.79,0-1.31,0-1.77h1.43l.07,1h0a1.57,1.57,0,0,1,1.45-1.12,1.75,1.75,0,0,1,.35,0v1.58a2.56,2.56,0,0,0-.45-.05,1.07,1.07,0,0,0-1.14.85,2.05,2.05,0,0,0,0,.37v2.72h-1.68Z"/><path class="cls-4" d="M689.66,371.91v1.46h1.19v1.23h-1.19v1.95c0,.65.16.95.66.95a1.67,1.67,0,0,0,.49-.05v1.27a3.43,3.43,0,0,1-1.08.14,1.78,1.78,0,0,1-1.26-.46,2.23,2.23,0,0,1-.46-1.6v-2.2h-.72v-1.23H688v-1Z"/><path class="cls-4" d="M691.82,375.14c0-.79,0-1.31,0-1.77h1.43l.06,1h.05a1.56,1.56,0,0,1,1.45-1.12,1.83,1.83,0,0,1,.35,0v1.58a2.56,2.56,0,0,0-.45-.05,1.07,1.07,0,0,0-1.14.85,2.05,2.05,0,0,0,0,.37v2.72h-1.68Z"/><path class="cls-4" d="M696.83,372.71a.84.84,0,1,1,.9-.83.82.82,0,0,1-.9.83Zm-.83,6v-5.38h1.67v5.38Z"/><path class="cls-4" d="M699,375.09c0-.67,0-1.23,0-1.72h1.42l.07.74h0a1.87,1.87,0,0,1,1.63-.86,1.51,1.51,0,0,1,1.47.93h0a2.18,2.18,0,0,1,.7-.66,2,2,0,0,1,1-.27c1,0,1.82.73,1.82,2.33v3.17h-1.63v-2.91c0-.78-.25-1.24-.79-1.24a.83.83,0,0,0-.78.59,1.42,1.42,0,0,0-.06.42v3.14h-1.63v-3c0-.67-.24-1.14-.78-1.14a.85.85,0,0,0-.78.6,1.21,1.21,0,0,0-.06.43v3.12H699Z"/><path class="cls-4" d="M709.76,376.6c.06.69.74,1,1.52,1a4.57,4.57,0,0,0,1.49-.23l.22,1.13a5.11,5.11,0,0,1-2,.34,2.58,2.58,0,0,1-2.87-2.74,2.7,2.7,0,0,1,2.71-2.87,2.39,2.39,0,0,1,2.4,2.69,4.54,4.54,0,0,1,0,.66Zm2-1.15a1,1,0,0,0-.93-1.09,1.11,1.11,0,0,0-1,1.09Z"/><path class="cls-4" d="M714.27,377.29a3.25,3.25,0,0,0,1.44.39c.51,0,.72-.16.72-.43s-.17-.42-.78-.62c-1.12-.37-1.55-1-1.54-1.61,0-1,.86-1.77,2.19-1.77a3.6,3.6,0,0,1,1.5.32l-.28,1.15a2.73,2.73,0,0,0-1.17-.3c-.4,0-.64.16-.64.43s.21.39.87.61c1,.35,1.45.87,1.46,1.65,0,1-.79,1.75-2.33,1.75a3.76,3.76,0,0,1-1.73-.38Z"/><path class="cls-4" d="M720.93,371.91v1.46h1.2v1.23h-1.2v1.95c0,.65.16.95.66.95a1.67,1.67,0,0,0,.49-.05v1.27a3.4,3.4,0,0,1-1.07.14,1.83,1.83,0,0,1-1.27-.46,2.23,2.23,0,0,1-.46-1.6v-2.2h-.72v-1.23h.72v-1Z"/><path class="cls-4" d="M723.09,375.14c0-.79,0-1.31,0-1.77h1.43l.07,1h0a1.58,1.58,0,0,1,1.45-1.12,1.94,1.94,0,0,1,.36,0v1.58a2.81,2.81,0,0,0-.46-.05,1.07,1.07,0,0,0-1.14.85,2.05,2.05,0,0,0,0,.37v2.72h-1.68Z"/><path class="cls-4" d="M728.47,376.6c.06.69.74,1,1.52,1a4.57,4.57,0,0,0,1.49-.23l.22,1.13a5.11,5.11,0,0,1-2,.34,2.58,2.58,0,0,1-2.87-2.74,2.7,2.7,0,0,1,2.72-2.87c1.73,0,2.39,1.35,2.39,2.69a4.54,4.54,0,0,1,0,.66Zm2-1.15a1,1,0,0,0-.93-1.09,1.11,1.11,0,0,0-1,1.09Z"/><path class="cls-4" d="M657.41,384.34h1v5c0,2-1,2.58-2.24,2.58a3,3,0,0,1-1-.18l.13-.78a2.23,2.23,0,0,0,.81.14c.86,0,1.36-.38,1.36-1.84Z"/><path class="cls-4" d="M664.39,390.29c0,.56,0,1,0,1.46h-.85l-.06-.87h0a2,2,0,0,1-1.76,1c-.84,0-1.84-.48-1.84-2.34v-3.11h1v2.94c0,1,.32,1.7,1.19,1.7a1.38,1.38,0,0,0,1.27-.89,1.22,1.22,0,0,0,.09-.49v-3.26h1Z"/><path class="cls-4" d="M666,383.94h1v7.81h-1Z"/><path class="cls-4" d="M669.05,385.53a.6.6,0,1,1,.62-.6.59.59,0,0,1-.61.6Zm-.46,6.22v-5.32h1v5.32Z"/><path class="cls-4" d="M673.33,391.88a2.54,2.54,0,0,1-2.55-2.74,2.61,2.61,0,0,1,2.64-2.83A2.52,2.52,0,0,1,676,389a2.61,2.61,0,0,1-2.64,2.84Zm0-.73c.92,0,1.61-.87,1.61-2.08,0-.9-.45-2-1.59-2s-1.63,1.06-1.63,2.07c0,1.17.66,2,1.6,2Z"/><path class="cls-4" d="M679.61,388.43v.71H676.9v-.71Z"/><path class="cls-4" d="M680.61,390.76a2.73,2.73,0,0,0,1.29.38c.69,0,1-.34,1-.79s-.27-.71-1-1c-1-.35-1.42-.88-1.42-1.51a1.64,1.64,0,0,1,1.83-1.56,2.43,2.43,0,0,1,1.3.33l-.23.69a2.18,2.18,0,0,0-1.09-.31c-.57,0-.88.33-.88.73s.31.64,1,.91c.92.34,1.4.81,1.4,1.6,0,.94-.74,1.6-2,1.6a3.08,3.08,0,0,1-1.5-.37Z"/><path class="cls-4" d="M685.65,389.27a1.69,1.69,0,0,0,1.82,1.83,3.52,3.52,0,0,0,1.47-.27l.18.69a4.27,4.27,0,0,1-1.79.34,2.48,2.48,0,0,1-2.61-2.68,2.59,2.59,0,0,1,2.51-2.87,2.25,2.25,0,0,1,2.19,2.51,2.48,2.48,0,0,1,0,.45Zm2.83-.7a1.38,1.38,0,0,0-1.33-1.57,1.6,1.6,0,0,0-1.49,1.57Z"/><path class="cls-4" d="M690.61,388.17c0-.68,0-1.23,0-1.74h.87l0,.91h0a2.07,2.07,0,0,1,1.89-1,2.41,2.41,0,0,1,2.26,2.7c0,1.92-1.17,2.87-2.42,2.87a1.86,1.86,0,0,1-1.64-.84h0v2.89h-1Zm1,1.42a1.67,1.67,0,0,0,0,.39,1.5,1.5,0,0,0,1.45,1.14c1,0,1.61-.84,1.61-2.06s-.55-2-1.57-2a1.53,1.53,0,0,0-1.47,1.2,1.67,1.67,0,0,0-.06.38Z"/><path class="cls-4" d="M698,385.15v1.28h1.38v.74H698V390c0,.66.18,1,.72,1a2.05,2.05,0,0,0,.57-.06l0,.73a2.59,2.59,0,0,1-.86.13,1.38,1.38,0,0,1-1-.4,2.06,2.06,0,0,1-.38-1.4v-2.89h-.82v-.74h.82v-1Z"/><path class="cls-4" d="M701,385.53a.6.6,0,1,1,.61-.6.58.58,0,0,1-.61.6Zm-.47,6.22v-5.32h1v5.32Z"/><path class="cls-4" d="M703.64,389.27a1.68,1.68,0,0,0,1.81,1.83,3.61,3.61,0,0,0,1.48-.27l.17.69a4.22,4.22,0,0,1-1.78.34,2.48,2.48,0,0,1-2.62-2.68,2.59,2.59,0,0,1,2.51-2.87,2.25,2.25,0,0,1,2.19,2.51,2.64,2.64,0,0,1,0,.45Zm2.82-.7a1.38,1.38,0,0,0-1.33-1.57,1.58,1.58,0,0,0-1.48,1.57Z"/><path class="cls-4" d="M708.6,387.87c0-.56,0-1-.05-1.44h.85l.05.86h0a1.83,1.83,0,0,1,1.68-1,1.57,1.57,0,0,1,1.5,1.07h0a2,2,0,0,1,.61-.7,1.75,1.75,0,0,1,1.16-.37c.72,0,1.76.46,1.76,2.31v3.13h-1v-3c0-1-.38-1.64-1.15-1.64A1.26,1.26,0,0,0,713,388a1.51,1.51,0,0,0-.08.48v3.3h-1v-3.2c0-.84-.37-1.45-1.11-1.45a1.34,1.34,0,0,0-1.2,1,1.45,1.45,0,0,0-.08.47v3.21h-.94Z"/><path class="cls-4" d="M717.77,383.94h1v3.34h0a2,2,0,0,1,1.82-1c1.32,0,2.24,1.1,2.24,2.7,0,1.92-1.21,2.87-2.4,2.87a1.9,1.9,0,0,1-1.78-1h0l-.06.88h-.83c0-.36,0-.9,0-1.37Zm1,5.68a2,2,0,0,0,0,.35,1.51,1.51,0,0,0,1.46,1.13c1,0,1.61-.82,1.61-2s-.55-2-1.58-2a1.54,1.54,0,0,0-1.47,1.19,1.62,1.62,0,0,0,0,.4Z"/><path class="cls-4" d="M724,388.09c0-.63,0-1.17,0-1.66h.84l0,1h0a1.61,1.61,0,0,1,1.49-1.16l.26,0v.91l-.33,0a1.36,1.36,0,0,0-1.3,1.23,3.4,3.4,0,0,0,0,.45v2.85h-1Z"/><path class="cls-4" d="M728.07,389.27a1.69,1.69,0,0,0,1.81,1.83,3.54,3.54,0,0,0,1.48-.27l.17.69a4.22,4.22,0,0,1-1.78.34,2.48,2.48,0,0,1-2.62-2.68,2.59,2.59,0,0,1,2.51-2.87,2.25,2.25,0,0,1,2.19,2.51,2.64,2.64,0,0,1,0,.45Zm2.83-.7a1.38,1.38,0,0,0-1.34-1.57,1.59,1.59,0,0,0-1.48,1.57Z"/><path class="cls-4" d="M388.42,377a4.14,4.14,0,0,0,1.86.47c.77,0,1.18-.32,1.18-.81s-.35-.72-1.25-1c-1.23-.44-2-1.12-2-2.2,0-1.27,1.07-2.22,2.8-2.22a4.36,4.36,0,0,1,1.9.37l-.38,1.34a3.47,3.47,0,0,0-1.54-.35c-.72,0-1.08.34-1.08.72s.41.68,1.38,1c1.31.49,1.91,1.17,1.91,2.21,0,1.25-.94,2.3-3,2.3a4.84,4.84,0,0,1-2.1-.46Z"/><path class="cls-4" d="M395.62,376.6c.05.69.73,1,1.51,1a4.53,4.53,0,0,0,1.49-.23l.22,1.13a5.11,5.11,0,0,1-1.95.34,2.58,2.58,0,0,1-2.87-2.74,2.7,2.7,0,0,1,2.72-2.87,2.39,2.39,0,0,1,2.4,2.69,4.26,4.26,0,0,1-.06.66Zm2-1.15a1,1,0,0,0-.93-1.09,1.11,1.11,0,0,0-1,1.09Z"/><path class="cls-4" d="M405.23,378a3,3,0,0,1-.83,2.42,3.23,3.23,0,0,1-2.17.66,4.22,4.22,0,0,1-1.94-.41l.33-1.27a3.23,3.23,0,0,0,1.56.41,1.28,1.28,0,0,0,1.4-1.42V378h0a1.72,1.72,0,0,1-1.45.7,2.36,2.36,0,0,1-2.28-2.62,2.57,2.57,0,0,1,2.44-2.84,1.59,1.59,0,0,1,1.47.77h0l.05-.65h1.45c0,.35,0,.81,0,1.61Zm-1.67-2.41a1.1,1.1,0,0,0,0-.31.91.91,0,0,0-.9-.73c-.61,0-1.1.55-1.1,1.53,0,.8.4,1.43,1.09,1.43a.92.92,0,0,0,.89-.68,1.33,1.33,0,0,0,.06-.45Z"/><path class="cls-4" d="M411.64,377c0,.71,0,1.28.05,1.73h-1.46l-.07-.76h0a1.9,1.9,0,0,1-1.68.88c-1.1,0-1.89-.68-1.89-2.34v-3.16h1.67v2.9c0,.78.25,1.25.85,1.25a.88.88,0,0,0,.83-.58.82.82,0,0,0,.07-.37v-3.2h1.67Z"/><path class="cls-4" d="M413,375.09c0-.67,0-1.23,0-1.72h1.45l.08.75h0a1.94,1.94,0,0,1,1.66-.87c1.1,0,1.93.74,1.93,2.32v3.18h-1.67v-3c0-.69-.25-1.17-.85-1.17a.92.92,0,0,0-.86.63,1.34,1.34,0,0,0,0,.42v3.1H413Z"/><path class="cls-4" d="M424.64,370.93v6.22c0,.6,0,1.24.05,1.6H423.2l-.06-.78h0a1.88,1.88,0,0,1-1.68.9,2.47,2.47,0,0,1-2.3-2.76,2.55,2.55,0,0,1,2.41-2.86,1.64,1.64,0,0,1,1.42.61h0v-2.93ZM423,375.66a1.62,1.62,0,0,0,0-.31,1,1,0,0,0-1-.81c-.77,0-1.15.68-1.15,1.53s.45,1.47,1.14,1.47a1,1,0,0,0,1-.8,2.17,2.17,0,0,0,0-.38Z"/><path class="cls-4" d="M428.46,378.87a2.63,2.63,0,0,1-2.78-2.77,2.69,2.69,0,0,1,2.88-2.85A2.61,2.61,0,0,1,431.3,376a2.69,2.69,0,0,1-2.83,2.86Zm.05-1.2c.66,0,1.06-.65,1.06-1.61,0-.8-.31-1.61-1.06-1.61s-1.1.81-1.1,1.62.38,1.6,1.08,1.6Z"/><path class="cls-4" d="M436.43,371.91v1.46h1.19v1.23h-1.19v1.95c0,.65.16.95.66.95a1.67,1.67,0,0,0,.49-.05v1.27a3.43,3.43,0,0,1-1.08.14,1.78,1.78,0,0,1-1.26-.46,2.23,2.23,0,0,1-.46-1.6v-2.2h-.72v-1.23h.72v-1Z"/><path class="cls-4" d="M438.59,375.14c0-.79,0-1.31,0-1.77H440l.06,1h0a1.56,1.56,0,0,1,1.45-1.12,1.83,1.83,0,0,1,.35,0v1.58a2.56,2.56,0,0,0-.45-.05,1.06,1.06,0,0,0-1.14.85,1.4,1.4,0,0,0,0,.37v2.72h-1.67Z"/><path class="cls-4" d="M443.6,372.71a.84.84,0,1,1,.9-.83.82.82,0,0,1-.9.83Zm-.83,6v-5.38h1.67v5.38Z"/><path class="cls-4" d="M445.79,375.09c0-.67,0-1.23-.05-1.72h1.42l.07.74h0a1.86,1.86,0,0,1,1.63-.86,1.51,1.51,0,0,1,1.47.93h0a2.21,2.21,0,0,1,.71-.66,2,2,0,0,1,1-.27c1,0,1.82.73,1.82,2.33v3.17H452.3v-2.91c0-.78-.25-1.24-.79-1.24a.83.83,0,0,0-.78.59,1.42,1.42,0,0,0-.06.42v3.14H449v-3c0-.67-.24-1.14-.78-1.14a.85.85,0,0,0-.78.6,1,1,0,0,0-.07.43v3.12h-1.62Z"/><path class="cls-4" d="M456.53,376.6c.06.69.74,1,1.52,1a4.61,4.61,0,0,0,1.49-.23l.22,1.13a5.14,5.14,0,0,1-1.95.34,2.58,2.58,0,0,1-2.87-2.74,2.7,2.7,0,0,1,2.71-2.87,2.39,2.39,0,0,1,2.4,2.69,4.54,4.54,0,0,1-.05.66Zm2-1.15a1,1,0,0,0-.93-1.09,1.11,1.11,0,0,0-1.05,1.09Z"/><path class="cls-4" d="M461,377.29a3.25,3.25,0,0,0,1.44.39c.51,0,.72-.16.72-.43s-.17-.42-.78-.62c-1.12-.37-1.55-1-1.54-1.61,0-1,.86-1.77,2.19-1.77a3.6,3.6,0,0,1,1.5.32l-.28,1.15a2.73,2.73,0,0,0-1.17-.3c-.41,0-.64.16-.64.43s.21.39.87.61c1,.35,1.44.87,1.46,1.65,0,1-.79,1.75-2.33,1.75a3.76,3.76,0,0,1-1.73-.38Z"/><path class="cls-4" d="M467.7,371.91v1.46h1.2v1.23h-1.2v1.95c0,.65.16.95.66.95a1.67,1.67,0,0,0,.49-.05v1.27a3.4,3.4,0,0,1-1.07.14,1.83,1.83,0,0,1-1.27-.46,2.23,2.23,0,0,1-.46-1.6v-2.2h-.72v-1.23h.72v-1Z"/><path class="cls-4" d="M469.86,375.14c0-.79,0-1.31,0-1.77h1.43l.07,1h0a1.57,1.57,0,0,1,1.45-1.12,1.75,1.75,0,0,1,.35,0v1.58a2.56,2.56,0,0,0-.45-.05,1.07,1.07,0,0,0-1.14.85,2.05,2.05,0,0,0,0,.37v2.72h-1.68Z"/><path class="cls-4" d="M475.24,376.6c.06.69.74,1,1.52,1a4.57,4.57,0,0,0,1.49-.23l.22,1.13a5.11,5.11,0,0,1-2,.34,2.58,2.58,0,0,1-2.87-2.74,2.7,2.7,0,0,1,2.72-2.87c1.73,0,2.39,1.35,2.39,2.69a4.54,4.54,0,0,1-.05.66Zm2-1.15a1,1,0,0,0-.93-1.09,1.11,1.11,0,0,0-1,1.09Z"/><path class="cls-4" d="M411.1,389.42l-.77,2.33h-1l2.52-7.41H413l2.53,7.41h-1l-.8-2.33Zm2.44-.75-.74-2.13c-.16-.49-.27-.92-.38-1.35h0c-.1.43-.22.89-.36,1.34l-.73,2.14Z"/><path class="cls-4" d="M416.58,383.94h1v3.34h0a2,2,0,0,1,1.82-1c1.32,0,2.24,1.1,2.24,2.7,0,1.92-1.21,2.87-2.4,2.87a1.9,1.9,0,0,1-1.78-1h0l-.06.88h-.83c0-.36,0-.9,0-1.37Zm1,5.68a2,2,0,0,0,0,.35A1.5,1.5,0,0,0,419,391.1c1,0,1.62-.82,1.62-2s-.55-2-1.58-2a1.54,1.54,0,0,0-1.47,1.19,1.62,1.62,0,0,0-.05.4Z"/><path class="cls-4" d="M422.84,388.09c0-.63,0-1.17,0-1.66h.84l.05,1h0a1.61,1.61,0,0,1,1.49-1.16l.26,0v.91l-.33,0a1.36,1.36,0,0,0-1.3,1.23,3.4,3.4,0,0,0,0,.45v2.85h-1Z"/><path class="cls-4" d="M426.93,385.53a.6.6,0,1,1,.62-.6.59.59,0,0,1-.61.6Zm-.46,6.22v-5.32h1v5.32Z"/><path class="cls-4" d="M429,383.94h1v7.81h-1Z"/><path class="cls-4" d="M433.88,388.43v.71h-2.71v-.71Z"/><path class="cls-4" d="M433.71,393.32a1.58,1.58,0,0,0,1.05-.41c.27-.3.38-.73.38-2v-4.48h1v4.85a2.92,2.92,0,0,1-.64,2.19,2.47,2.47,0,0,1-1.65.61Zm1.89-7.79a.6.6,0,0,1,0-1.2.57.57,0,0,1,.6.6.58.58,0,0,1-.61.6Z"/><path class="cls-4" d="M442.15,390.29c0,.56,0,1,0,1.46h-.86l-.05-.87h0a2,2,0,0,1-1.76,1c-.83,0-1.83-.48-1.83-2.34v-3.11h1v2.94c0,1,.32,1.7,1.19,1.7a1.4,1.4,0,0,0,1.28-.89,1.43,1.43,0,0,0,.09-.49v-3.26h1Z"/><path class="cls-4" d="M443.75,387.87c0-.56,0-1,0-1.44h.85l.06.87h0a2,2,0,0,1,1.76-1c.74,0,1.88.44,1.88,2.26v3.18h-1v-3.07c0-.85-.32-1.58-1.24-1.58a1.39,1.39,0,0,0-1.29,1,1.29,1.29,0,0,0-.07.45v3.21h-1Z"/><path class="cls-4" d="M450.32,385.53a.6.6,0,0,1,0-1.2.58.58,0,0,1,.59.6.58.58,0,0,1-.6.6Zm-.46,6.22v-5.32h1v5.32Z"/><path class="cls-4" d="M454.6,391.88a2.55,2.55,0,0,1-2.56-2.74,2.61,2.61,0,0,1,2.65-2.83,2.52,2.52,0,0,1,2.56,2.73,2.61,2.61,0,0,1-2.64,2.84Zm0-.73c.92,0,1.62-.87,1.62-2.08,0-.9-.45-2-1.6-2S453,388.09,453,389.1c0,1.17.66,2,1.6,2Z"/><path class="cls-4" d="M923.45,378.54a4.79,4.79,0,0,1-1.89.32,3.54,3.54,0,0,1-3.89-3.72,3.77,3.77,0,0,1,4.05-3.91,4.51,4.51,0,0,1,1.83.32l-.35,1.33a3.44,3.44,0,0,0-1.41-.28,2.44,2.44,0,0,0,0,4.87,3.83,3.83,0,0,0,1.41-.25Z"/><path class="cls-4" d="M929.37,377c0,.71,0,1.28,0,1.73H928l-.08-.76h0a1.91,1.91,0,0,1-1.68.88c-1.1,0-1.89-.68-1.89-2.34v-3.16H926v2.9c0,.78.25,1.25.84,1.25a.89.89,0,0,0,.84-.58,1,1,0,0,0,.07-.37v-3.2h1.67Z"/><path class="cls-4" d="M935.19,377.45a6.57,6.57,0,0,0,.09,1.3h-1.51l-.1-.54h0a2,2,0,0,1-1.54.66,1.65,1.65,0,0,1-1.74-1.65c0-1.39,1.25-2.05,3.16-2.05v-.07c0-.29-.16-.69-1-.69a3.15,3.15,0,0,0-1.49.39l-.31-1.06a4.41,4.41,0,0,1,2.09-.49,2.09,2.09,0,0,1,2.36,2.32Zm-1.62-1.24c-.88,0-1.56.21-1.56.85a.6.6,0,0,0,.66.64.93.93,0,0,0,.87-.62,1.36,1.36,0,0,0,0-.29Z"/><path class="cls-4" d="M936.52,375.14c0-.79,0-1.31,0-1.77h1.43l.07,1h0a1.58,1.58,0,0,1,1.46-1.12,1.83,1.83,0,0,1,.35,0v1.58a2.68,2.68,0,0,0-.45-.05,1.07,1.07,0,0,0-1.15.85,2.05,2.05,0,0,0,0,.37v2.72h-1.67Z"/><path class="cls-4" d="M942.8,371.91v1.46H944v1.23h-1.2v1.95c0,.65.16.95.66.95a1.67,1.67,0,0,0,.49-.05l0,1.27a3.47,3.47,0,0,1-1.08.14,1.83,1.83,0,0,1-1.27-.46,2.23,2.23,0,0,1-.46-1.6v-2.2h-.71v-1.23h.71v-1Z"/><path class="cls-4" d="M947.4,378.87a2.63,2.63,0,0,1-2.79-2.77,2.69,2.69,0,0,1,2.89-2.85,2.61,2.61,0,0,1,2.74,2.76,2.69,2.69,0,0,1-2.83,2.86Zm0-1.2c.66,0,1.07-.65,1.07-1.61,0-.8-.31-1.61-1.07-1.61s-1.1.81-1.1,1.62.39,1.6,1.09,1.6Z"/><path class="cls-4" d="M955.36,371.91v1.46h1.2v1.23h-1.2v1.95c0,.65.17.95.66.95a1.79,1.79,0,0,0,.5-.05v1.27a3.47,3.47,0,0,1-1.08.14,1.83,1.83,0,0,1-1.27-.46,2.28,2.28,0,0,1-.46-1.6v-2.2H953v-1.23h.71v-1Z"/><path class="cls-4" d="M957.53,375.14c0-.79,0-1.31,0-1.77h1.43l.07,1h0a1.58,1.58,0,0,1,1.46-1.12,1.83,1.83,0,0,1,.35,0v1.58a2.68,2.68,0,0,0-.45-.05,1.07,1.07,0,0,0-1.15.85,2.05,2.05,0,0,0,0,.37v2.72h-1.67Z"/><path class="cls-4" d="M962.53,372.71a.82.82,0,0,1-.87-.83.83.83,0,0,1,.89-.84.84.84,0,1,1,0,1.67Zm-.82,6v-5.38h1.67v5.38Z"/><path class="cls-4" d="M964.72,375.09c0-.67,0-1.23,0-1.72h1.42l.06.74h0a1.85,1.85,0,0,1,1.62-.86,1.52,1.52,0,0,1,1.48.93h0a2.29,2.29,0,0,1,.7-.66,2,2,0,0,1,1-.27c1,0,1.81.73,1.81,2.33v3.17h-1.63v-2.91c0-.78-.25-1.24-.79-1.24a.84.84,0,0,0-.78.59,1.86,1.86,0,0,0,0,.42v3.14H968v-3c0-.67-.24-1.14-.78-1.14a.84.84,0,0,0-.78.6,1,1,0,0,0-.07.43v3.12h-1.63Z"/><path class="cls-4" d="M975.47,376.6c0,.69.74,1,1.52,1a4.51,4.51,0,0,0,1.48-.23l.22,1.13a5.11,5.11,0,0,1-2,.34,2.58,2.58,0,0,1-2.87-2.74,2.7,2.7,0,0,1,2.72-2.87,2.39,2.39,0,0,1,2.4,2.69,3.28,3.28,0,0,1-.06.66Zm2-1.15a1,1,0,0,0-.94-1.09,1.1,1.1,0,0,0-1,1.09Z"/><path class="cls-4" d="M980,377.29a3.21,3.21,0,0,0,1.44.39c.51,0,.71-.16.71-.43s-.16-.42-.78-.62c-1.12-.37-1.55-1-1.54-1.61,0-1,.86-1.77,2.19-1.77a3.62,3.62,0,0,1,1.51.32l-.29,1.15a2.69,2.69,0,0,0-1.16-.3c-.41,0-.64.16-.64.43s.21.39.87.61c1,.35,1.44.87,1.45,1.65,0,1-.78,1.75-2.32,1.75a3.83,3.83,0,0,1-1.74-.38Z"/><path class="cls-4" d="M986.63,371.91v1.46h1.2v1.23h-1.2v1.95c0,.65.17.95.66.95a1.79,1.79,0,0,0,.5-.05v1.27a3.47,3.47,0,0,1-1.08.14,1.78,1.78,0,0,1-1.26-.46,2.23,2.23,0,0,1-.47-1.6v-2.2h-.71v-1.23H985v-1Z"/><path class="cls-4" d="M988.8,375.14c0-.79,0-1.31,0-1.77h1.43l.06,1h0a1.56,1.56,0,0,1,1.45-1.12,1.83,1.83,0,0,1,.35,0v1.58a2.56,2.56,0,0,0-.45-.05,1.08,1.08,0,0,0-1.15.85,2.05,2.05,0,0,0,0,.37v2.72H988.8Z"/><path class="cls-4" d="M994.18,376.6c.05.69.74,1,1.52,1a4.51,4.51,0,0,0,1.48-.23l.22,1.13a5.09,5.09,0,0,1-1.94.34,2.58,2.58,0,0,1-2.88-2.74,2.7,2.7,0,0,1,2.72-2.87,2.39,2.39,0,0,1,2.4,2.69,3.28,3.28,0,0,1-.06.66Zm2-1.15a1,1,0,0,0-.94-1.09,1.1,1.1,0,0,0-1,1.09Z"/><path class="cls-4" d="M917.5,391.88c-2,0-3.33-1.52-3.33-3.77s1.45-3.89,3.43-3.89,3.34,1.55,3.34,3.75c0,2.54-1.55,3.91-3.43,3.91Zm0-.79c1.52,0,2.38-1.39,2.38-3.08,0-1.47-.77-3-2.36-3s-2.39,1.48-2.39,3.09.86,3,2.36,3Z"/><path class="cls-4" d="M926,391.56a3.76,3.76,0,0,1-1.53.3,2.53,2.53,0,0,1-2.65-2.71,2.71,2.71,0,0,1,2.86-2.84,3.09,3.09,0,0,1,1.34.28l-.22.74a2.37,2.37,0,0,0-1.12-.25,1.85,1.85,0,0,0-1.88,2,1.82,1.82,0,0,0,1.85,2,2.82,2.82,0,0,0,1.19-.25Z"/><path class="cls-4" d="M928.42,385.15v1.28h1.39v.74h-1.39V390c0,.66.19,1,.73,1a2,2,0,0,0,.56-.06l0,.73a2.48,2.48,0,0,1-.85.13,1.38,1.38,0,0,1-1-.4,2.11,2.11,0,0,1-.37-1.4v-2.89h-.83v-.74h.83v-1Z"/><path class="cls-4" d="M935.35,390.29c0,.56,0,1,0,1.46h-.86l-.06-.87h0a2,2,0,0,1-1.76,1c-.83,0-1.83-.48-1.83-2.34v-3.11h1v2.94c0,1,.32,1.7,1.19,1.7a1.4,1.4,0,0,0,1.28-.89,1.43,1.43,0,0,0,.09-.49v-3.26h1Z"/><path class="cls-4" d="M937,383.94h1v3.34h0a2,2,0,0,1,1.81-1c1.32,0,2.25,1.1,2.25,2.7,0,1.92-1.21,2.87-2.4,2.87a1.89,1.89,0,0,1-1.78-1h0l-.06.88h-.84c0-.36.05-.9.05-1.37Zm1,5.68a2,2,0,0,0,0,.35,1.5,1.5,0,0,0,1.45,1.13c1,0,1.62-.82,1.62-2s-.55-2-1.59-2a1.53,1.53,0,0,0-1.46,1.19,1.62,1.62,0,0,0-.05.4Z"/><path class="cls-4" d="M943.22,388.09c0-.63,0-1.17-.05-1.66H944l0,1h0a1.6,1.6,0,0,1,1.48-1.16l.27,0v.91l-.33,0a1.35,1.35,0,0,0-1.3,1.23,3.4,3.4,0,0,0,0,.45v2.85h-1Z"/><path class="cls-4" d="M947.25,389.27a1.69,1.69,0,0,0,1.82,1.83,3.52,3.52,0,0,0,1.47-.27l.18.69a4.22,4.22,0,0,1-1.78.34,2.48,2.48,0,0,1-2.62-2.68,2.59,2.59,0,0,1,2.51-2.87,2.25,2.25,0,0,1,2.19,2.51,1.82,1.82,0,0,1,0,.45Zm2.83-.7a1.38,1.38,0,0,0-1.33-1.57,1.58,1.58,0,0,0-1.48,1.57Z"/><path class="cls-4" d="M954.77,388.43v.71h-2.72v-.71Z"/><path class="cls-4" d="M960.7,383.94v6.44c0,.47,0,1,0,1.37h-.87l0-.92h0a2,2,0,0,1-1.81,1.05,2.44,2.44,0,0,1-2.29-2.71c0-1.78,1.1-2.86,2.39-2.86a1.76,1.76,0,0,1,1.61.8h0v-3.17Zm-1,4.66a1.51,1.51,0,0,0-.05-.42,1.41,1.41,0,0,0-1.39-1.11c-1,0-1.6.88-1.6,2s.54,2,1.58,2a1.46,1.46,0,0,0,1.41-1.16,1.32,1.32,0,0,0,.05-.41Z"/><path class="cls-4" d="M962.76,385.53a.6.6,0,1,1,.62-.6.58.58,0,0,1-.62.6Zm-.46,6.22v-5.32h1v5.32Z"/><path class="cls-4" d="M968.67,391.56a3.76,3.76,0,0,1-1.53.3,2.53,2.53,0,0,1-2.65-2.71,2.71,2.71,0,0,1,2.86-2.84,3.09,3.09,0,0,1,1.34.28l-.22.74a2.37,2.37,0,0,0-1.12-.25,1.85,1.85,0,0,0-1.88,2,1.82,1.82,0,0,0,1.85,2,2.82,2.82,0,0,0,1.19-.25Z"/><path class="cls-4" d="M970.27,385.53a.6.6,0,1,1,.61-.6.58.58,0,0,1-.61.6Zm-.47,6.22v-5.32h1v5.32Z"/><path class="cls-4" d="M972.93,389.27a1.68,1.68,0,0,0,1.81,1.83,3.54,3.54,0,0,0,1.48-.27l.17.69a4.22,4.22,0,0,1-1.78.34,2.48,2.48,0,0,1-2.62-2.68,2.59,2.59,0,0,1,2.51-2.87,2.25,2.25,0,0,1,2.19,2.51,2.64,2.64,0,0,1,0,.45Zm2.82-.7a1.37,1.37,0,0,0-1.33-1.57,1.59,1.59,0,0,0-1.48,1.57Z"/><path class="cls-4" d="M977.89,387.87c0-.56,0-1,0-1.44h.85l0,.86h0a1.83,1.83,0,0,1,1.68-1,1.57,1.57,0,0,1,1.5,1.07h0a2.23,2.23,0,0,1,.61-.7,1.77,1.77,0,0,1,1.16-.37c.72,0,1.76.46,1.76,2.31v3.13h-.94v-3c0-1-.39-1.64-1.16-1.64a1.26,1.26,0,0,0-1.15.87,1.51,1.51,0,0,0-.08.48v3.3h-.95v-3.2c0-.84-.37-1.45-1.11-1.45a1.34,1.34,0,0,0-1.2,1,1.45,1.45,0,0,0-.08.47v3.21h-.94Z"/><path class="cls-4" d="M987.06,383.94h1v3.34h0a2,2,0,0,1,1.82-1c1.32,0,2.24,1.1,2.24,2.7,0,1.92-1.21,2.87-2.4,2.87a1.9,1.9,0,0,1-1.78-1h0l0,.88H987c0-.36,0-.9,0-1.37Zm1,5.68a2,2,0,0,0,0,.35,1.51,1.51,0,0,0,1.46,1.13c1,0,1.61-.82,1.61-2s-.55-2-1.58-2a1.52,1.52,0,0,0-1.46,1.19,1.25,1.25,0,0,0-.06.4Z"/><path class="cls-4" d="M993.32,388.09c0-.63,0-1.17,0-1.66h.84l0,1h0a1.61,1.61,0,0,1,1.49-1.16l.26,0v.91l-.33,0a1.37,1.37,0,0,0-1.3,1.23,3.4,3.4,0,0,0,0,.45v2.85h-1Z"/><path class="cls-4" d="M997.36,389.27a1.69,1.69,0,0,0,1.81,1.83,3.54,3.54,0,0,0,1.48-.27l.17.69a4.22,4.22,0,0,1-1.78.34,2.48,2.48,0,0,1-2.62-2.68,2.59,2.59,0,0,1,2.51-2.87,2.25,2.25,0,0,1,2.19,2.51,2.64,2.64,0,0,1,0,.45Zm2.83-.7a1.38,1.38,0,0,0-1.33-1.57,1.6,1.6,0,0,0-1.49,1.57Z"/></g></g></svg>