<?xml version="1.0" encoding="utf-8"?>
<!-- Generator: Adobe Illustrator 25.1.0, SVG Export Plug-In . SVG Version: 6.00 Build 0)  -->
<svg version="1.1" id="Layer_1" xmlns="http://www.w3.org/2000/svg" xmlns:xlink="http://www.w3.org/1999/xlink" x="0px" y="0px"
	 viewBox="0 0 733.7 495" style="enable-background:new 0 0 733.7 495;" xml:space="preserve">
<style type="text/css">
	.st0{clip-path:url(#SVGID_2_);}
	.st1{fill:#A7A9AC;}
	.st2{clip-path:url(#SVGID_6_);}
	.st3{opacity:0.7;clip-path:url(#SVGID_8_);fill:#47C3D3;enable-background:new    ;}
	.st4{fill:none;stroke:#FFFFFF;stroke-width:0.499;stroke-miterlimit:10;}
	.st5{fill:#002F87;}
	.st6{fill:#47C3D3;}
	.st7{fill:none;stroke:#58595B;stroke-width:0.998;stroke-miterlimit:10;}
	.st8{fill:#58595B;}
	.st9{fill:none;stroke:#6D6E71;stroke-width:0.998;stroke-miterlimit:10;}
	.st10{fill:#6D6E71;}
	.st11{fill:none;stroke:#58595B;stroke-width:0.499;stroke-linecap:round;stroke-miterlimit:10;}
	.st12{fill:#6FCCDD;}
	.st13{fill:none;stroke:#58595B;stroke-width:0.419;stroke-linecap:round;stroke-miterlimit:10;}
	.st14{opacity:0.65;fill:#004186;enable-background:new    ;}
	.st15{clip-path:url(#SVGID_10_);}
	.st16{clip-path:url(#SVGID_12_);}
	.st17{clip-path:url(#SVGID_16_);fill:none;stroke:#FFFFFF;stroke-width:0.998;stroke-miterlimit:10.0001;}
</style>
<g>
	<g>
		<g>
			<g>
				<defs>
					<rect id="SVGID_1_" y="24.1" width="380.1" height="328.3"/>
				</defs>
				<clipPath id="SVGID_2_">
					<use xlink:href="#SVGID_1_"  style="overflow:visible;"/>
				</clipPath>
				<g class="st0">
					<g>
						<defs>
							<rect id="SVGID_3_" y="24.1" width="380.1" height="328.3"/>
						</defs>
						<clipPath id="SVGID_4_">
							<use xlink:href="#SVGID_3_"  style="overflow:visible;"/>
						</clipPath>
					</g>
				</g>
			</g>
		</g>
		<path class="st1" d="M314.2,282.5c0,0.3,0,0.6,0,0.9c0.5-0.2,1-0.3,1.7,0c0.2,0.1,0.4,0.2,0.6,0.3c0.7,0.1,1.6,0.3,2.4,0.5
			c0.6,0.1,1.5,0.4,1.7,0.4c1.6-0.1,1.9-0.6,2.1-1.5c0.1-0.4,0.1-1.1,0-1.7c-0.1-1.4-0.1-2.9,0.8-4.2c0.9-1.3,2.1-1.3,2.8-1.3
			c0.2,0,0.3,0,0.5,0c0.4-0.1,0.4-0.1,0.6-0.4s0.5-0.8,1.1-1.3c2.1-1.7,4.4-0.6,6,0.2c0.7,0.3,1.4,0.7,1.8,0.7
			c1.8,0.1,4.2-1.7,5.6-2.7c0.4-0.3,0.4-0.5,0.5-1.2c0.1-0.4,0.1-0.9,0.3-1.3c0.7-2.2,2.2-2.2,2.9-2.3c0.3,0,0.4,0,0.6-0.1
			c0,0,0.2-0.3,0.3-0.5c0.4-0.7,1-1.8,2.3-2c2.1-0.3,2.9,1.5,3.3,2.3c0,0.1,0.1,0.2,0.1,0.3c0.1-0.1,0.1-0.1,0.2-0.2
			c0.3-0.2,0.5-0.4,0.8-0.5c0.9-0.5,1.4-0.6,2.4-0.7c0.3,0,0.7-0.1,1-0.1c1.9-0.1,2-0.3,2.2-0.9c0.6-2.3,2.2-3.4,4.6-3.1
			c0.5,0,0.8,0.2,1.1,0.3c0.1,0,0.3,0.1,0.4,0.1c0.3,0,0.7,0,1.2,0c0.2,0,0.5,0,0.7,0c0.2-3-0.5-5.7-4.4-4.4c0.1,0.5-0.1,1.1,0,1.5
			c-2.1,0.5-2-0.7-3.4-1.3c-1.7-0.8-3.5-0.4-5.3-0.8c-0.2-2.1,4.5,0.1,5.1-2.6c0.9-4.1-5-1.6-7.3-1.8c-3.9-0.3-7.8-0.3-11.7-0.5
			c-3.6-0.2-4.3-3.1-7.9-2.9c0.3,2-0.4,1.5-1.3,2.1c-1.4,0.8-3.5,1.4-5.2,1.6c-3.6,0.2-7.1-0.4-10.7-0.3c-1.4,1.5-3.1,2.4-4.7,3.3
			c-1.4,0.8-2.8,1.5-3.9,2.6c-1.5,1.5-2.7,2.3-4.5,3.4c-0.2,0.1-0.4,0.2-0.7,0.4c-0.7,0.4-2.5,1.3-2.6,1.9c-0.1,0.4,0,0.8,0,1.4
			c0.1,1.1,0.2,2.4-0.5,3.6c-0.2,0.3-0.4,0.5-0.6,0.7c0.1,0,0.1,0,0.2,0c0.8,0.1,1.7,0.4,2.5,0.7c0.4-0.3,0.9-0.5,1.6-0.5
			c1.2,0.1,1.9,0.4,2.7,0.9l0.4,0.2c0.1,0.1,0.3,0.1,0.4,0.1c0.5,0.1,1.1,0.3,1.6,0.7c1,0.8,1.2,1.8,1.3,2.5c0,0.1,0,0.2,0.1,0.2
			h0.1h0.1c0.1-0.6,0.4-1.5,1.2-2.2c0.7-0.6,1.6-0.8,2.6-0.7c1.4,0.2,2.8,1,3.6,2.1c1.5,2.2,0.2,4.1-0.5,5.3
			C314.6,280.3,314.3,281.3,314.2,282.5"/>
		<path class="st1" d="M300.1,234.9c0,1.8-0.3,3.6-0.5,5.3l-0.1,0.9c-0.4,2.7-0.4,5.3-0.4,7.8c0,0.1,0,0.3,0,0.4
			c0.7,0.1,1.6,0.1,2.4,0.1c0.3,0,0.6,0,0.9,0c0.7-0.8,2.3-1.5,3.2-1.9c1.4-0.7,3.3-1.1,4.3-2.5c0.6-1,0.3-1.6,0.5-2.7
			c0.4-1.7,1.5-3.5,0.8-5.3c-0.5-1.3-1.9-1.6-2-3c-0.1-0.8,0.8-1.5,0.9-2.3c0.3-1.6-0.1-3.4,0.2-5c0.3-1.2,0.9-2.7,0.6-3.7
			c-0.7,0.4-1.4,0.6-2.1,0.8c-0.2,0.1-0.5,0.1-0.7,0.2c-0.3,0.1-0.5,0.1-0.8,0.1c0,0.1,0,0.2-0.1,0.3c-0.3,0.8-0.7,1.4-1.3,1.9
			c-0.2,0.1-0.3,0.3-0.4,0.4c-0.1,0-0.1,0.1-0.1,0.1s0,0,0,0.1c-0.5,1.8-2.6,2.7-4.3,2.6c-0.4,0-0.8,0.1-1.1,0.2
			c0.4,1.2,0.3,2.7,0.2,4C300.1,234.2,300.1,234.6,300.1,234.9"/>
		<path class="st1" d="M264.1,255.3c0.1-0.3,0.3-0.7,0.4-1.2c0.3-1.1,0.7-2.8,2.6-3.5c0.6-0.2,1.2-0.2,1.7-0.2c0.1,0,0.2,0,0.3,0
			c0-0.1,0.1-0.1,0.1-0.2c0.2-0.4,0.5-1.1,1.2-1.5c1.2-0.8,3-0.7,5.2-0.6c1.8,0.1,2.3,0,3.5-0.3l0.4-0.1c1.3-0.3,2.3,0.5,2.8,0.9
			c0.2,0.1,0.4,0.3,0.5,0.4c0.1,0,0.2-0.1,0.4-0.3c0.4-0.5,0.5-1.4,0.3-2.2c-0.2,0-0.3,0-0.5,0l-0.5-0.1c-1.3-0.2-2.8-0.4-3-2.6
			c0-0.3-0.1-0.6-0.1-0.8l0,0c-0.4,0-1-0.1-1.6-0.4c-1.2-0.7-1.9-2.1-2.1-3.4c-1.6-0.7-4-2-3.7-4.1c0.1-0.7,0.7-1.3,1.5-1.3
			c1,0,1.9,0,2.9,0h0.1c0-0.4-0.1-0.8-0.1-1.3c-0.1-0.9-0.2-1.8-0.2-2.8c0-0.7,0.4-1.2,1.1-1.5c2.4-0.8,5.4-0.6,8.1-0.4
			c2.4,0.2,4.2,0.1,6.1,0.2c1.9,0,3.8,0.1,5.6,0c0.1-0.1,0.2-0.3,0.3-0.4c1.3-1.4,3.7-1.2,3.8-1.2c0.5,0,1.1-0.2,1.2-0.4
			c0.3-1,0.7-1.4,1.2-1.8c0.1-0.1,0.2-0.1,0.3-0.2c0.1-0.1,0.3-0.3,0.3-0.5v-0.1c0-0.4,0-0.9,0.3-1.4c0.5-0.9,1.6-1,2.3-1.1
			c0.1,0,0.3,0,0.4,0c0.2-0.1,0.5-0.1,0.8-0.2c0.7-0.2,1.4-0.4,1.8-0.7c0.4-0.4,1-0.6,1.6-0.4c0.4-0.5,0.8-0.9,1.5-1.2
			c-0.5,0.8-0.7,1.3-0.7,1.8c0.2,0.2,0.3,0.5,0.3,0.8c0.6,0.8,1.8,1.2,2.5,2.1s1,4.3,3,2.3c1.1-1.1,0.3-4.8,0.7-6.3
			c0.6-2.1,2.8-3.8,1.9-6.2c-0.6,0.2-1.2,0-1.8,0.1c-1-2.6,2.7-1.9,3.1-3.8c0.6-3.1-2.7-2.1-4.1-2.5c-0.3-1.8,0.9-1.7,2.1-2.3
			c1.7-0.9,1.4-0.8,2-2.2c0.4-0.9,0.3-1.2,0.8-2s1.3-1.5,2-2.2c2.1-2.1,5.5-4.2,6.8-7c0.7-1.5,0.7-5.9-2.1-4.9
			c-0.2-1.8,0.3-4.4-1.7-5c-1.5-0.4-3.2,1.1-4.8,1.1c-1.8,0-4.1-1.3-6.1-0.5c-0.5,0.2-1.2,1.2-1.8,1.6c-1.2,0.6-2.3,1.5-3.5,0.9
			c-2.2-1.1-3.1,0.5-4.9,1.3c-1.6,0.6-4-0.4-5.7-0.3c-3,0.1-6.5,0.3-9.2,1.6c-0.7,0.3-1.9,0.9-1.6,1.8c0.2,0.8,1.4,0.8,2.1,1
			c0,1.4-2.3,2.3-3.1,3.2c-1.5,1.5-1.5,3.2-1.2,5.2c0.3,2.2,0.8,4-1.4,5.2c-1.8,1-2.3,0.8-2.3,2.8c0,2.2,0.6,5.8-1.8,6.7
			c-1.3,0.4-2.7,0.4-4,0.7c-1.2,0.2-3.5,1.3-3.7,2.7c-0.2,1,1.1,1.7,1.1,2.7c0.1,1-0.5,2.5-1,3.2c-1,1.3-1.8,0.7-3.2,0.6
			c-1-0.1-1.6,0.4-1.7-0.8c-0.1-0.9,0.6-1,0.8-1.7c0.1-0.4,0-1.5-0.3-1.8c-0.7-0.8-0.7-0.1-1.6,0.1c-1.4,0.3-3.4-0.9-4.8-0.2
			c-0.8,0.4-0.8,1.7-1.6,2c-1.2,0.5-3-0.5-4.2,0.3c-0.9,0.6-0.8,1.5-1.8,1.7c-1.1,0.2-2.3-0.2-3.4,0c-1.3,0.2-1.4,0.9-2,1.9
			c-0.3,0.5-0.1,0.7-0.8,1.1c-0.6,0.3-2.8,0.1-3.3-0.2c-0.7-0.4-0.9-0.9-1.8-1.1c-0.6-0.1-1.7-0.1-2.3,0.1c-0.9,0.4-1,1.4-1.7,1.8
			s-2.6-0.3-3.2-0.7c-1.6-1.1-2.3-3.4-2.6-5.2c-0.3-1.8-1.5-2.1-3.2-2.8c-1.6-0.7-2.8-0.3-4.4-0.4c-1.7-0.1-3.2-0.9-4.3-2.2
			c-1.7-1.8-1.8-4.1-2.6-6.3c-0.8-2-2-3.4-3.4-5c-1.4-1.7-1-2.6-1.4-4.5c-0.3-1.5-1.7-2.1-2.8-2.8c-2.1-1.4-3.5-4.6-3.9-7
			c-0.2-1.5,0.6-3.1,0.2-4.6c-0.5-2-2.1-2.7-1.7-4.9c0.2-1.6-0.3-1.9-0.4-3.4c-0.2-3.6-0.6-7.8-0.3-11.2c0.3-3.9-1-8.1-0.3-11.9
			c0.4-2.4,2.3-4.2,2.7-6.6c0.3-1.6,0.4-3.3,0.8-4.8c0.3-1.6,0-3.7,0.5-5.3c0.7-2.6,1.3-1.5,3.4-2.7c0.9-0.5,1.7-1,2.1-1.8
			c-0.5-0.2-1-0.5-1.5-0.9c-0.4-0.3-0.7-0.6-0.9-0.9l-0.1-0.1h-0.1c-0.4-0.1-1-0.2-1.6-0.6c-0.6-0.4-1.2-0.9-1.6-1.3
			c-0.4-0.3-0.9-0.8-1.1-0.8c-0.2,0-0.4-0.1-0.7-0.1c-1.4-0.2-3.7-0.6-4.8-2.6c-1-0.7-2.2-1.3-3.4-1.8c-2.1-0.9-4.4-2-6.1-4.1
			c-2.2-2.7-1.7-5.9-1.3-8.4c0.3-1.6,0.5-3.1,0.1-4.1c-0.1-0.2-0.5-0.5-0.9-0.8c-0.7-0.5-1.5-1-2.2-2c-0.5-0.8-0.7-1.6-0.8-2.2
			c0-0.2-0.1-0.3-0.1-0.5c-0.2-0.7-0.7-1.5-1.3-2.2c-0.5-0.7-1.1-1.5-1.5-2.5c-1-2.2-1.5-4.6-2-7c-0.1-0.5-0.2-1-0.3-1.5
			c-0.3-2-0.8-4.8-1.9-5.8c-0.1,0-0.2-0.1-0.4-0.2c-0.5-0.2-1.4-0.6-2.1-1.6c-0.7-1-1-2-1.3-2.9c-0.3-1-0.5-1.5-0.8-1.7
			s-1-0.3-1.5-0.4c-3.6-0.6-6.9-0.2-10,1.3c-1.8,0.9-1.9,1.4-2.5,4.2c-0.3,1.3-1.1,3.2-4.1,2.9c-0.6,1.1-1.5,1.6-2.7,1.7
			c-1.3,0.1-2.7-0.5-3-0.6c-1.5-0.6-2.8-1.5-4.1-2.2c-1.1-0.7-2.2-1.4-3.3-1.9l-0.4-0.2c-2.3-1-5.8-2.6-6.8-5.9l-0.2-0.6
			c-0.1-0.4-0.3-1-0.4-1.1c-0.1-0.1-0.1-0.1-0.2-0.1c-0.3-0.2-0.8-0.5-1.2-1c-1.2-1.5-0.8-3.3-0.6-4.3c0.1-0.3,0.2-0.7,0.2-0.8
			c0-0.3-0.4-1-0.7-1.5c-0.7-1.1-1.6-2.7-1.2-4.6c-2.3-0.8-4.1-2.8-4.7-5.1c0-0.2-0.1-0.4-0.1-0.6c0-0.2-0.1-0.3-0.1-0.5
			c0,0-0.3-0.1-0.5-0.2c-0.6-0.3-1.4-0.8-2-1.7s-0.8-1.8-0.9-2.5c0-0.2,0-0.3-0.1-0.5c-0.2-1-2.3-2.9-3.7-3.5
			c-0.3-0.1-0.4-0.1-0.4-0.1c-0.2,0-0.3,0-0.5,0h-0.2c-0.5,0-1.2,0-3.3-0.2c-2.6-0.2-9.8-0.9-12.5-0.5c-0.1,1.1-0.5,2.4-1.3,3.3
			c-0.7,0.8-1.6,1.2-2.5,1.2c-0.7,0-1.5,0.1-2.3,0.2c-0.9,0.1-1.9,0.3-3,0.3c-5.3,0-10.7-0.2-15.9-0.4c-1.7-0.1-3.5-0.1-5.2-0.2
			c-6.2-0.2-11.1-1.5-15.9-4.1c-1-0.5-1.8-1.2-2.6-1.8c-0.8-0.7-1.6-1.3-2.5-1.6c-0.5-0.2-1.1-0.3-1.8-0.4c-1.5-0.2-3.3-0.6-4.8-2
			c-0.4-0.4-0.7-0.8-1-1.1c-0.3-0.4-0.4-0.5-0.6-0.6c-0.6-0.3-1.4-0.4-2.2-0.6c-1.5-0.3-3.2-0.6-4.7-1.8c-0.4-0.3-0.7-0.6-1-0.9
			c-0.2-0.3-0.4-0.4-0.5-0.5c-0.2-0.1-0.6-0.3-1.1-0.4c-0.9-0.3-2.1-0.7-3-1.6c-0.5-0.5-0.8-1-1-1.3c-1.3-0.3-2.7-0.3-4.1-0.2
			c-1,0-2,0.1-3,0c-1.5-0.1-2.9-0.3-4.2-0.6c-1.3-0.2-2.6-0.4-3.8-0.5c-1.8-0.1-3.6-0.1-5.5,0c-2.1,0-4.3,0.1-6.5-0.1
			c-0.4,0-0.8,0-1.3,0c0.2,1.2,0.2,2.3,0.1,3.7c-0.1,0.9,0,1.6,0.3,2.3c0.3,0.6,1.2,0.7,1.3,1.4c0.6,0.4,3.3,2.5,2.4,3.4
			c-0.5,0.5-1.2-0.2-1.4,0.7c-0.1,0.7,0.3,1.7,0.4,2.4c0.2,1.2,0.9,2.3,2,2.9c0.8,0.5,2,1.1,1.8,2.2c-0.2,0.7-1,0.5-1.1,1.1
			c-0.2,0.9,1.2,1.3,1.7,1.8c2.2,2,1.1,3.8,0.9,6.1c-0.1,0.9,0.3,1.7,0.8,2.4c0.5,0.8,0.5,1.6,0.8,2.4c0.1,0.5,0.1,1.1,0.1,1.7
			c0,1.4-0.2,2.9,0.8,4c0.4,0.4,0.7,0.7,0.9,1.2c0.3,0.5,0.5,1.1,0.9,1.5c1.4,1.3,4.3,0.8,6,1.9c-0.1,2.3,0.8,2.6,1.8,4.6
			c0.7,1.3,0.5,2.2,1.5,3.4c1.3,1.5,1.3,3.2,2.8,4.5c0.5,0.4,1.6,0.7,1.8,1.3c0.4,0.9-1,1.9-0.6,2.8c-1.6,0.1-0.2,2.1-0.2,2.9
			c0,0.9-0.2,1.1-1,1c-0.8,0-1.6,0-2.3,0.4c-0.4,0.2-0.8,0.5-0.6,1c0.4,0.8,1.7,0.7,2.3,0.9c0.7,0.2,0.8,0.8,0.2,1.5
			c-0.8,1-1.7-0.1-2.3-0.6c-0.5-0.3-0.9-0.6-1.4-0.4c-0.4,0.1-0.8,0.4-1.3,0.3c-0.4-0.1-0.6-0.4-0.9-0.5c-0.6-0.3-1.5-0.2-2.1-0.2
			c-0.8,0-3.9,0.2-2.3,1.3c0.4,0.3,0.8,0.5,1.2,0.8c0.4,0.4,0.5,0.9,0.8,1.4c0.4,0.6,0.6,0.3,1.1,0.5c0.4,0.2,0.4,0.7,0.7,1.1
			c0,0.5,0.2,1,0.4,1.4c0.3,0.6,0.3,1.1,0.3,1.8c0,0.6,0,0.9,0.4,1.3c0.8,0.7,1.7,0.7,2.7,0.7c0.9,0,0.6,0.2,1.1,0.8
			c0.5,0.4,1.3,0.7,1.9,0.8c0.5,0.1,1.1-0.1,1.5,0.4c0.3,0.4,0.3,1,0.4,1.4c0.4,1.2,1.8,1.8,3,1.6c0.6-0.1,1.2-0.2,1.5-0.8
			c0.3-0.5,0-1.1,0.3-1.6c0.6-0.8,2-0.4,2.2,0.5c0.3,1.4-0.7,2.6-0.6,4c0.1,1,1.4,1.1,1.8,2c0.8,1.9,2.5,2.4,4.4,2.8
			c0.7,0.2,1.3,0.4,1.7,1.1c0.2,0.4,0.3,0.9,0.6,1.4c0.3,0.5,0.8,0.9,1.2,1.3c1.3,1.6,2,3.5,1.4,5.5c-0.5,1.5-0.7,3.1-1.1,4.6
			c-0.3,1-0.7,1.9-1.3,2.8c-0.5,0.7-1.2,2.6-0.8,3.4c0.5,1,2.3,1.5,3.3,1.5c0.9,0,2.4,0,3,0.6c0.7,0.6,0.6,1.7,0.9,2.5
			c0.7,1.8,2.8,1.9,3.8,3.4c0.7,0.9,0.8,2.2,1.6,3.1c0.7,0.8,1.4,1.1,2.2,1.7c0.6,0.4,0.5,0.4,0.8,1c0.4,0.9,1,1,1.7,1.5
			c1.3,0.7,1.9,1.9,2,3.3c0.1,0.8,0.1,1,0.6,1.6c0.6,0.7,0.9,1.1,1,2c0.1,1.4,0.1,2.4,1.5,3.2c0.9,0.5,1.2,0.1,1.8-0.5
			c1.1-1.3,2.7-0.8,4.1-1.5c1.8-0.8,1.3-3.8,1.3-5.4c0-1.4-0.5-1.3-1.6-1.9c-1-0.5-1-1.2-1.3-2.2c-0.4-1.2-1.6-1.5-2.5-2.4
			c-0.7-0.7-0.4-1.2-0.6-2.1c-0.2-0.7-0.9-1.3-1.6-1.3c-1,0.1-0.3,0.7-0.6,1.5c-0.7-0.1-1.3-0.6-2-0.9c-0.9-0.4-1.8-0.7-2.4-1.5
			c-0.5-0.8-0.5-1.8-1-2.7c-0.4-0.8-1.1-1.3-1.1-2.4c0.1-1,1-1.7,1.1-2.7c0.3-1.6-1.7-1.8-1.4-3.3c0.1-0.7,0.5-1.3,0.2-2.1
			c-0.2-0.5-0.8-0.8-0.9-1.3c-0.2-0.6,0.5-1.1,0.1-1.8s-1.5-0.7-1.7-1.5c-0.3-0.9,0.1-2.3,0.1-3.3c0-1.3-0.2-2.1-0.8-3.2
			c-1-2,0.6-3.8,0.3-5.8c-0.1-0.9-0.5-1.1-1.1-1.6c-0.5-0.4-0.5-0.5-0.5-1.2c0-0.6,0.1-1.2-0.3-1.7s-1.5-0.7-1.9-0.1
			c-0.3,0.5,0.2,1.4,0,1.9c-0.2,0.6-1,1-1.6,0.5s-0.1-1.7-0.6-2.4c-0.5-0.6-1-0.7-1.1-1.5c-0.1-0.5,0.1-1,0.2-1.5
			c0.1-1.3-0.6-1.8-1-2.9c-0.4-1.2,0.8-2.6,0-3.7c-0.4-0.6-1.2-0.6-1.7-1s-0.5-0.7-0.7-1.2c0.3-2.2-1.6-0.7-2.4-1.8
			c-1.5-2.1,0.8-4.7-0.2-6.9c-0.4-0.9-1.6-1.2-2-2c-0.5-1-0.3-2-0.2-3.1c-1-0.5-2.1-0.4-3.2-0.7c0.2-1.7-2.1-2.4-2.6-3.8
			c-0.6-1.6,0.7-2.8,0.6-4.2c-0.3-3.4-4.5-1.8-6.1-4.2c-0.3-0.4-0.5-1.9-0.7-2.5c-0.3-0.8-0.9-1.2-1.1-2.1c-0.3-1.3,0-1.9-0.7-3.1
			c-0.8-1.4-1.5-1.6-1.6-3.3c-0.1-1.5,0.6-2.8,0.7-4.3c0-1.6-0.7-2.8-0.9-4.3c-0.3-1.8,0.3-3.2,1-4.8c0.7-1.8,0.5-3.6,1.1-5.3
			c1.2-3.5,3.3-0.5,4.8,1.3c2.2,2.6,3.8-0.5,6.3,1.2c1.1,0.7,1.3,1.9,2.7,2.5c0.9,0.4,3.8,0.5,4.3,1.3c1.2,1.8-1.8,3.3-2.3,4.4
			c-0.5,1.2-0.1,2.3,0.2,3.2c0.5,1.5,0.9,1.9,0.9,3.7c0.1,1.4-0.6,3.5,1.4,3c0.7,2.7,1.1,5.5,2.3,8.2c0.8,1.9,2,3.3,2.8,5.1
			c0.5,1.2,0.5,2,1.2,3.3c1,1.7,0.5,3.4,1.3,4.9c0.6,1.1,2.2,1.4,2.9,2.3c0.7,0.8,0.6,1.5,0.9,2.3c1,2.7,1.8,3.5,4.6,4.3
			c1.9,0.6,4.7,1.2,5.5,3.4c0.6,1.8-0.2,4.5,0,6.4c0.3,3.4,2.8,3,3.9,5.6c0.6,1.6-0.2,2,1.7,2.7c1,0.4,2.4,0.1,3.5,0.3
			c4.1,1,1.2,2.3,2.4,4.5c-0.1,1.2,2.4,1.1,3.1,1.5c1.1,0.6,0.4,1.9-0.6,2.2s-2-0.3-2.9,0.4c-0.6,0.5-1.3,1.5-1.7,2.2
			c-0.5,0.9-1.2,3-0.5,4c0.6,0.8,2.4,0.8,3.3,1.1c1,0.4,1.9,1.5,2.9,2.3c0.8,0.6,1.8,1,2.5,1.6c0.4,0.4,0.4,0.8,0.9,1.1
			c1.2,0.8,2.7,0.7,4.1,0.8c1.2,0,1.9,0.9,1.9,2.2c1.5,1.4,0,3.5-1.3,4.3c-0.8,0.4-1.7,1.4-0.6,2.1c1.2,0.8,3-0.3,4.2,0.4
			c0.5,0.3,0.8,1.3,1.1,1.7c0.5,0.8,1.1,1,1.7,1.7c0.4,0.4,0.7,1,1.2,1.4c0.6,0.6,1.3,1.6,2,2c0.3,0.7,0.4,1.2,0.9,1.8
			s1.1,1.1,1.6,1.7c1,1.1,1.8,2.5,2.3,3.9c0.8,2,2.1,3.7,2.9,5.7c0.7,1.8,0.4,2.9,2,4.3c1.2,1.1,3.4,1.9,4,3.6
			c0.5,1.7-0.8,3.1-0.9,4.6c0,1.8,1.3,3.2,2.1,4.7c1.1,2.3,4.2,6.7,2.1,9.1c-1,1.1-4.4,1.2-4.6,3.2c-0.2,1.5,3,2.2,4.5,2.1
			c0.7,2.4-3,2-4.5,2.5s-1.3-0.2-1.6,1.6c-0.2,0.9,0,2,0.3,2.8c0.6,2.2,2,3.7,3.6,5.1c2,1.8,1.8,3.4,3.5,5.1
			c1.2,1.2,2.8,2.6,4.6,2.8c0.6,0.1,2.1-0.3,2.6,0.2s0,1.2,0.8,1.6c1.8,0.9,4.1,0.1,5,2.4c0.3,0.8,0.5,1.1,1.2,1.6
			c0.8,0.6,2,1.1,2.2,2.2c0.1,0.5-1.1,3.6,0.3,3.3c0.4,0.2,0.8,0.2,1.3,0.2c1.4,0.2,2.3,1,3.5,1.7c0.9,0.5,1.6,0.8,2.6,0.8
			c2,0.1,3.8,0.9,5.8,1c0.7,0,1.5-0.1,2.2,0c0.9,0.1,0.8,0.6,1.4,1.2c1.2,1.2,3,1.7,4.4,2.6c1,0.6,1.8,1.6,2.8,2.3
			c2.5,2,4.9,4.8,8.2,5.5c1.6,0.3,3.3,0,4.9,0.3c1.1,0.1,2.2,0.3,3.3,0.7c1,0.4,1.3,1.2,1.6,2.2c1,2.5,4.7,1.4,6.8,1.9
			c0.8,0.2,1.8,0.6,2.2,1.4s0.8,2,1.6,2.4c1,0.5,2.5,0,3.5,0.2c1.2,0.3,1.9,1.2,2.8,1.9c2.2,1.6,5.7,1.3,8.3,1.8
			c2.2,0.4,3.7,1.4,5.6,2.4c1.3,0.7,2.5,0.5,3.9,1.1c1.6,0.8,2.6,1.2,4.4,0.7c1.7-0.4,2.9-1.6,4.4-2.2c0.7-0.3,1.6-0.2,2.3-0.5
			c0.6-0.3,0.8-0.9,1.4-1.3c1.5-1.1,8.5-0.7,8.8-1.7c-0.8-0.6-4.5-0.9-4.1-1.8c0.2-0.5,2.1-0.3,2.5-0.3c1.4,0.1,0.9,0.6,1.8,1.1
			c1.1,0.7,2.6,0.1,3.7,0.8c1.1,0.7,2.7,3.7,4.1,2.9c-0.3-1-1.3-2-2.1-2.6c-0.8-0.6-2.3-0.8-2.5-1.9c1.1-0.7,3.8,0.7,4.7,1.4
			c1.7,1.2,2.9,2.9,4,4.6c1,1.7,0.6,3.3,2.7,4.3c1.5,0.7,5.6,0.3,5.1,2.8c1.7,2.2,4,3.9,6.1,5.7c0.1-0.1,0.2-0.2,0.3-0.4
			c0.5-0.8,0.5-2.5,0.5-4c0-1.1,0-2.2,0.2-3.2c0.3-1.4,1.1-2.3,1.7-3C263.6,256.1,263.9,255.7,264.1,255.3"/>
		<path class="st1" d="M287.6,272.9c1.2-1.2,2.5-1.5,3.6-1.8c0.6-0.1,1.1-0.3,1.6-0.5c0.3-0.1,0.4-0.3,0.7-0.8l0.3-0.4
			c0.2-0.3,0.5-0.6,0.8-0.9c0.2-0.2,0.4-0.4,0.5-0.6c0.2-0.3,0.2-1.1,0.1-1.8c0-0.6-0.1-1.3,0-2c0.3-2.1,2.6-3.3,4.2-4.2
			c0.2-0.1,0.4-0.2,0.6-0.3c1.6-0.9,2.5-1.5,3.8-2.8c1.4-1.4,3-2.3,4.6-3.2c0.5-0.3,1-0.6,1.5-0.8c-1.3-0.1-2.8-0.1-4.2-0.1
			c-1.1,0-2.2,0.1-3.3,0c-0.3,0-0.7,0-1.1,0c-1.5,0-3.2,0-4.7-0.7c-0.4-0.2-0.7-0.5-0.8-0.9c-0.2-0.6-0.2-1.2-0.1-1.7
			c0-0.1,0-0.2,0-0.3c0-2.5,0-5.4,0.5-8.3l0.1-0.9c0.2-1.7,0.5-3.2,0.5-4.8c0-0.4,0-0.9,0.1-1.4c0-0.5,0.1-1.5,0.1-2.3
			c-1.9,0.1-3.8,0-5.7,0c-2,0-4,0-6.3-0.2c-1.9-0.1-4.1-0.3-5.8,0c0,0.4,0.1,0.8,0.1,1.3c0.1,1,0.2,2.1,0.1,3.2
			c0,0.8-0.7,1.4-1.4,1.5c0.4,0.3,0.6,0.8,0.6,1.2c0,0.9,0.4,1.6,0.6,1.8c0,0,0.1,0,0.2,0c0.5,0,1.5,0.1,2.3,1
			c0.2,0.2,0.6,0.7,0.8,2.4c0.1,0,0.2,0,0.4,0.1l0.6,0.1c0.2,0,0.4,0,0.6,0c0.7,0,1.8-0.1,2.4,0.9c0.4,0.7,0.3,1.4,0.1,1.9
			c0.3,1.6,0,3.2-0.9,4.4c-0.8,1-1.8,1.5-3.1,1.6c-1,0-1.8-0.6-2.3-1c-0.1-0.1-0.3-0.2-0.4-0.3h-0.2c-1,0.2-1.8,0.4-3.1,0.4
			c-0.4,0-0.8,0-1.3-0.1c-0.8-0.1-2.8-0.2-3.3,0.1c0,0,0,0.1-0.1,0.2c-0.2,0.4-0.5,1-1.1,1.4c-0.8,0.5-1.7,0.5-2.2,0.5
			c-0.2,0-0.4,0-0.5,0c-0.2,0.1-0.3,0.4-0.6,1.3c-0.1,0.6-0.3,1.2-0.6,1.8c-0.4,0.7-0.9,1.3-1.3,1.8c-0.5,0.6-0.9,1-0.9,1.5
			c-0.1,0.7-0.1,1.6-0.1,2.6c0,1.9,0,4.1-1,5.7c-0.2,0.3-0.4,0.6-0.6,0.8c0.4,0.4,0.9,0.9,1.1,1.4c0.4,0.9,0.3,1.9,0.9,2.7
			c0.8,1.1,2.9,2.4,4.2,2.5c0.6,0.1,1.4-0.1,2,0s1.1,0.7,1.6,1c2,1.3,3.8,0.5,6.1,0.5c1.4,0,2.7,0.6,4,0.9c0.2-0.6,0.4-1.2,0.8-1.9
			c0.7-1.1,1.8-1.8,2.7-2.4C286.8,273.5,287.3,273.2,287.6,272.9"/>
		<path class="st1" d="M333.4,308.2c0.7-1.4,1.8-2,2.5-2.2c1.8-0.5,3.8,0.4,5.1,1.2c1.5,1,3.4,0.9,5.4,0.9c0.8,0,1.6,0,2.5-0.1
			c1-0.1,2.2-0.2,3.3,0.1c1.7,0.5,2.3,1.5,2.7,2.3c0.1,0.2,0.2,0.4,0.3,0.5c0.5,0.7,1,1,2,1.1c0.4,0,0.9,0,1.4-0.2
			c0-0.1,0-0.2,0.1-0.3c0.1-0.9,0-1.6-0.7-2.2c-0.7-0.7-1.5-1.5-1.3-2.6c0.1-0.7,0.5-1.7,1.1-2.1c1.2-0.8,2.1-1,2.3-2.6
			c0.1-0.8-0.5-2.1-1.3-1.2c-0.6,0.7-0.8,2.1-2,1.9c-0.3-0.8,0.4-1.2,0.6-2c0.1-0.4,0-1,0.1-1.4c0-0.7,0.2-0.9,0.5-1.5
			c0.7-1,0.6-1.8,0.6-2.9c0-0.6,0.9-3.5,1.6-2.8c0.6,0.6-1.3,5.2,0.9,4.3c0.7-0.2,1.3-0.9,1.7-1.4c0.5-0.7,0.4-1.3,0.2-2
			c-0.3-1.6-0.3-3.2-0.3-4.9c0-1.2,0.7-3.3-0.1-4.4c0.2-0.8-1.3-1.1-1.5-1.9c-0.2-0.7,0.3-0.8,0.7-1.2c0.6-0.6,0.4-1.5,0.4-2.2
			c1.8-1.1,7.7-3.7,5.6-6.3c-1-1.3-1.9-0.4-2.2-2.3c0-0.2,0.4-1.6,0.4-2.2c0.1-0.6,0.2-1.4,0.3-2.3c-0.1,0-0.1,0-0.2,0
			c-0.6,0-1.2,0.1-1.8,0c-0.4-0.1-0.8-0.2-1.1-0.3c-0.1,0-0.2-0.1-0.3-0.1c-0.8-0.1-0.9,0-1.1,0.8c-0.7,2.9-3.3,3.1-5,3.2
			c-0.3,0-0.6,0-0.9,0.1c-0.8,0.1-0.8,0.1-1.3,0.3c-0.1,0.1-0.3,0.2-0.4,0.3c-0.6,0.5-1.8,1.4-3.3,0.7c-1-0.4-1.4-1.4-1.8-2.1v-0.1
			c-0.3,0.6-0.7,1.3-1.5,1.7c-0.8,0.4-1.5,0.5-1.9,0.5l0,0v0.1c-0.1,0.3-0.1,0.6-0.2,0.9c-0.1,0.9-0.3,2.1-1.8,3.2
			c-1.9,1.4-4.8,3.6-7.7,3.4c-1.1-0.1-2-0.5-2.9-1c-1.6-0.7-2.2-0.9-2.6-0.5c-0.2,0.2-0.3,0.3-0.4,0.5c-0.5,0.7-1,1.4-2.5,1.7
			c-0.4,0.1-0.7,0.1-1.1,0.1c-0.1,0-0.3,0-0.4,0c-0.2,0.4-0.1,1.4-0.1,2.2c0,0.8,0.1,1.7-0.1,2.6c-0.8,3.6-3.9,3.9-5,4
			c-0.1,0-0.1,0-0.2,0c-0.6,0-1.4-0.2-2.5-0.5c-0.1,0-0.3-0.1-0.5-0.1c-0.1,0.1-0.1,0.2-0.2,0.3c-0.3-0.1-1-0.4-1.7-0.6
			c-0.3,0.2-0.6,0.2-1,0.2c0.1,0.7,0.1,1.3,0,1.9c0.9,0.5,1.9,0.8,2.3,0.9c3.3,0.9,1.9,4,4.1,5.9c0.8,0.7,2,0.7,2.7,1.2
			c0.8,0.7,0.6,1.6,0.8,2.5c0.6,2.2,2.8,2.8,4,4.7c0.6,1,0.9,2.2,1.7,3.3c0.8,1,1.9,1,2.8,1.4C333.3,308.5,333.3,308.4,333.4,308.2"
			/>
		<path class="st1" d="M311.6,275.1c-0.1,0.1-0.1,0.2-0.2,0.6c-0.2,0.7-0.6,2.7-3.5,2.4c-2.4-0.2-2.7-2-2.9-2.7
			c-0.1-0.4-0.1-0.5-0.2-0.6c-0.1,0-0.2-0.1-0.4-0.1c-0.4-0.1-0.8-0.2-1.1-0.4l-0.5-0.2c-0.6-0.3-0.8-0.4-1.2-0.5
			c-0.4,0.3-1.2,0.8-2.3,0.4c-0.6-0.2-1.7-0.7-2.3-0.7c-0.2,0-0.5,0-0.7,0c-0.4,0-1,0-1.7-0.2c-0.2,0.1-0.3,0.2-0.5,0.3
			c-0.8,0.4-1.6,0.6-2.2,0.7c-0.9,0.2-1.6,0.4-2.2,1s-1.3,1.1-2,1.5s-1.4,0.9-1.7,1.3c-0.1,0.1-0.1,0.2-0.2,0.3
			c0.6,0,1.2,0.1,1.8,0.4c1,0.5,1.3,1.5,2.4,1.9c1.7,0.7,5.9,0.7,6.2,3c1.1,0.5,2.3,1,3.5,0.9c1.1-0.1,1.8-0.9,2.9-0.8
			c1.9,0.2,2.1,2.8,3.9,3.2c1.1,0.2,3.4-0.6,4.6-1.2c-0.2-1-0.3-2-0.3-3.3c0.1-1.7,0.6-3.3,1.6-4.7c0.9-1.3,0.8-1.4,0.6-1.7
			C312.9,275.4,311.9,275,311.6,275.1"/>
		<path class="st1" d="M370.1,326.8c0.2,0,0.4,0,0.6,0c0.5,0,0.8-0.1,1.2-0.2l-0.1-0.1c-0.7-0.5-2-0.3-2.9-0.4
			c-0.4,0-2.7-0.4-2.2-0.8c0.1,0.1,0.2,0.1,0.3,0.1c0.2-0.9-1.2-1-1.5-1.7c-0.2-0.3-0.1-0.8-0.3-1.1c-0.2-0.6-0.6-0.8-1.1-1.1
			c-0.4-0.2-1.4-0.6-1.6-1s0.2-1.3,0-1.8c-0.2-1-0.7-1.1-0.7-2.2c0-0.6,0.1-1.3,0-1.9c0-0.3-0.1-0.5-0.2-0.7
			c-1.5,0.9-3.4,1.3-4.7,1.2c-2-0.2-3.4-1-4.4-2.5c-0.2-0.3-0.3-0.5-0.4-0.7c-0.3-0.6-0.4-0.7-0.8-0.8c-0.6-0.2-1.4-0.1-2.3,0
			c-1,0.1-1.8,0.1-2.7,0.1c-2.3,0-4.9,0.1-7.2-1.4c-1.2-0.8-2.1-0.9-2.5-0.8c-0.1,0-0.3,0.1-0.6,0.6c-0.1,0.2-0.1,0.4-0.2,0.7
			c-0.1,0.6-0.2,1.6-1.1,2.4c-0.2,0.2-0.5,0.4-0.8,0.7c1.1,0.6,2.1,0.7,1.8,2.2c-0.3,1.6-1.5,0.9-2.4,1.8c-0.9,0.8-2.1,3.9-1.5,5.1
			c0.7,1.5,2.6,1.1,3.9,1c1.5-0.2,1.6-0.3,2.7,0.8c1.6,1.6,2.9,2.4,5.4,1.6c0.3-2.2-1.1-2-2.4-3.1c-1.5-1.2-1.3-3.2,0.9-2.6
			c1.2,0.3,2.9,1.4,3.9,2.2c1,0.8,1.1,1.4,1.2,2.5c0.1,0.8-0.1,1.7,0.8,2.4c1.4,1.1,2.7,2.5,4.2,3.4c1.4,0.8,4.5,1.4,4.9,3.3
			c0.3,1.4-1.2,2.4-1.2,3.7c-0.1,1.4,0.8,2.1,1.4,3.2c1,1.5,2.2,2.3,4.1,2c0.9-0.1,1.2-0.7,1.1-1.7s-0.7-1.2-1.6-1.6
			c-0.6-0.2-2.8-1.7-1-2.2c0.7-0.2,1.4,0.8,2,1c0.6,0.3,2.3,0.9,2.4,1.7c0.1,1.2-0.6,2.2,0.2,3.3c0.3,0.4,0.7,0.6,1.1,0.7
			c-0.1-0.4-0.2-0.9-0.3-1.4c-0.1-0.3-0.1-0.5-0.2-0.8c-0.5-2,0.4-3.2,1-4c0.3-0.4,0.5-0.7,0.6-1c0.1-0.4,0.2-1.3,0.1-1.6
			c0,0.1-0.1-0.1-0.3-0.2c-0.4-0.3-0.9-0.7-1.2-1.5c-0.4-1-0.5-2.3,1.3-3.2c0.1,0,0.1-0.1,0.2-0.1v-0.1c0-0.3-0.1-0.7,0-1.1
			C367.3,326.7,369.3,326.7,370.1,326.8"/>
		<g>
			<g>
				<defs>
					<rect id="SVGID_5_" x="304.8" y="242.2" width="47.2" height="47.3"/>
				</defs>
				<clipPath id="SVGID_6_">
					<use xlink:href="#SVGID_5_"  style="overflow:visible;"/>
				</clipPath>
				<g class="st2">
					<g>
						<defs>
							<rect id="SVGID_7_" x="304.8" y="242.2" width="47.2" height="47.3"/>
						</defs>
						<clipPath id="SVGID_8_">
							<use xlink:href="#SVGID_7_"  style="overflow:visible;"/>
						</clipPath>
						<path class="st3" d="M352.1,265.8c0,13-10.6,23.6-23.6,23.6s-23.6-10.6-23.6-23.6s10.6-23.6,23.6-23.6
							C341.5,242.2,352.1,252.8,352.1,265.8"/>
					</g>
				</g>
			</g>
		</g>
		<path class="st4" d="M349.7,265.8c0,11.7-9.5,21.3-21.3,21.3c-11.7,0-21.3-9.5-21.3-21.3c0-11.7,9.5-21.3,21.3-21.3
			C340.2,244.6,349.7,254.1,349.7,265.8z"/>
	</g>
	<g>
		<path class="st5" d="M132,8.1c-0.5,0-1,0-1.6,0.1c-3.8,0.3-5.5,2.2-5.9,4.4h0.1c0.9-0.9,2.2-1.5,3.9-1.5c3,0,5.6,2.2,5.6,5.9
			c0,3.6-2.8,6.6-6.7,6.6c-4.8,0-7.2-3.6-7.2-7.9c0-3.4,1.3-6.3,3.2-8.1c1.8-1.6,4.2-2.5,7-2.7c0.8-0.1,1.3-0.1,1.7,0v3.2H132z
			 M129.6,17.2c0-1.7-0.9-3.1-2.7-3.1c-1.1,0-2.1,0.7-2.5,1.6c-0.1,0.2-0.2,0.6-0.2,1.1c0.1,1.9,1,3.7,2.9,3.7
			C128.7,20.5,129.6,19.1,129.6,17.2z"/>
		<path class="st5" d="M136.1,21c0-1.5,1-2.6,2.5-2.6s2.5,1.1,2.5,2.6s-1,2.6-2.5,2.6S136.1,22.5,136.1,21z"/>
		<path class="st5" d="M156.2,5.1v2.7l-7.5,15.5h-4.5l7.5-14.6V8.6h-8.3V5.1H156.2z"/>
		<path class="st5" d="M168.2,10.2c0,3.8-2.4,5.8-5,5.8c-2.8,0-4.9-2.1-4.9-5.5c0-3.2,2-5.7,5.1-5.7C166.5,4.8,168.2,7.1,168.2,10.2
			z M161.4,10.4c0,1.9,0.6,3.3,1.9,3.3c1.2,0,1.8-1.2,1.8-3.3c0-1.8-0.5-3.3-1.8-3.3C162,7.1,161.4,8.6,161.4,10.4z M163.4,23.6
			l10.4-18.8h2.3l-10.4,18.8H163.4z M181.3,17.7c0,3.8-2.4,5.8-5,5.8c-2.7,0-4.9-2.1-4.9-5.5c0-3.2,2-5.7,5.1-5.7
			C179.5,12.4,181.3,14.6,181.3,17.7z M174.5,17.9c0,1.9,0.6,3.3,1.8,3.3s1.8-1.2,1.8-3.3c0-1.8-0.5-3.3-1.8-3.3
			C175.1,14.7,174.5,16.1,174.5,17.9z"/>
	</g>
	<g>
		<path class="st5" d="M138.7,35.9c-0.1-1.3-0.2-2.9-0.1-4.1l0,0c-0.3,1.1-0.7,2.3-1.2,3.6l-1.7,4.6h-1l-1.5-4.5
			c-0.4-1.3-0.8-2.5-1.1-3.7l0,0c0,1.2-0.1,2.8-0.2,4.2l-0.3,4h-1.2l0.7-9.4h1.6l1.6,4.6c0.4,1.2,0.7,2.2,1,3.2l0,0
			c0.2-1,0.6-2,1-3.2l1.7-4.6h1.6l0.6,9.4H139L138.7,35.9z"/>
		<path class="st5" d="M142.7,36.9c0,1.7,1.1,2.3,2.3,2.3c0.9,0,1.4-0.2,1.9-0.3l0.2,0.9c-0.4,0.2-1.2,0.4-2.2,0.4
			c-2.1,0-3.3-1.4-3.3-3.4s1.2-3.6,3.2-3.6c2.2,0,2.8,1.9,2.8,3.2c0,0.3,0,0.4,0,0.6L142.7,36.9L142.7,36.9z M146.3,36
			c0-0.8-0.3-2-1.7-2c-1.2,0-1.8,1.1-1.9,2H146.3z M146.6,30.4l-1.7,2H144l1.2-2H146.6z"/>
		<path class="st5" d="M149.6,33.3l1,1.5c0.3,0.4,0.5,0.7,0.7,1.1l0,0c0.2-0.4,0.4-0.8,0.7-1.1l1-1.4h1.3l-2.3,3.3l2.4,3.5H153
			l-1-1.5c-0.3-0.4-0.5-0.8-0.7-1.2l0,0c-0.2,0.4-0.5,0.8-0.7,1.2l-1,1.5h-1.4l2.4-3.5l-2.3-3.3h1.3V33.3z"/>
		<path class="st5" d="M156.8,31.4c0,0.4-0.3,0.8-0.8,0.8c-0.4,0-0.7-0.3-0.7-0.8c0-0.4,0.3-0.8,0.8-0.8
			C156.6,30.6,156.8,31,156.8,31.4z M155.5,40.1v-6.8h1.2v6.8H155.5z"/>
		<path class="st5" d="M163.6,39.8c-0.3,0.2-1,0.4-1.9,0.4c-2,0-3.4-1.4-3.4-3.5s1.4-3.6,3.6-3.6c0.7,0,1.4,0.2,1.7,0.3l-0.3,1
			c-0.3-0.2-0.8-0.3-1.4-0.3c-1.6,0-2.4,1.1-2.4,2.6c0,1.6,1,2.5,2.3,2.5c0.7,0,1.2-0.2,1.5-0.3L163.6,39.8z"/>
		<path class="st5" d="M171.1,36.6c0,2.5-1.7,3.6-3.4,3.6c-1.8,0-3.2-1.3-3.2-3.5c0-2.3,1.5-3.6,3.4-3.6
			C169.8,33.1,171.1,34.5,171.1,36.6z M165.7,36.7c0,1.5,0.9,2.6,2.1,2.6c1.2,0,2.1-1.1,2.1-2.6c0-1.1-0.6-2.6-2-2.6
			C166.3,34.1,165.7,35.4,165.7,36.7z"/>
	</g>
	<g>
		<path class="st6" d="M300.7,130.7v2.8h-7.3v-2.8H300.7z"/>
		<path class="st6" d="M302.7,139.4v-2.6l2.3-2.1c4-3.5,5.9-5.6,6-7.7c0-1.5-0.9-2.7-3-2.7c-1.6,0-2.9,0.8-3.9,1.5l-1.2-3
			c1.4-1,3.5-1.9,6-1.9c4.1,0,6.4,2.4,6.4,5.7c0,3-2.2,5.5-4.8,7.8l-1.7,1.4v0.1h6.8v3.5H302.7z"/>
		<path class="st6" d="M318.4,137.1c0-1.5,1-2.6,2.5-2.6s2.5,1.1,2.5,2.6s-1,2.6-2.5,2.6C319.5,139.7,318.4,138.6,318.4,137.1z"/>
		<path class="st6" d="M333,139.4v-4.3h-8.1v-2.8l6.9-11.1h5.2v10.7h2.2v3.2H337v4.3L333,139.4L333,139.4z M333,131.9v-4
			c0-1.1,0.1-2.2,0.1-3.4H333c-0.6,1.2-1.1,2.2-1.7,3.4l-2.4,4v0.1h4.1V131.9z"/>
		<path class="st6" d="M350.6,126.3c0,3.8-2.4,5.8-5,5.8c-2.8,0-4.9-2.1-4.9-5.5c0-3.2,2-5.7,5.1-5.7
			C348.8,120.9,350.6,123.2,350.6,126.3z M343.7,126.5c0,1.9,0.6,3.3,1.9,3.3c1.2,0,1.8-1.2,1.8-3.3c0-1.8-0.5-3.3-1.8-3.3
			S343.7,124.7,343.7,126.5z M345.7,139.7l10.4-18.8h2.3l-10.5,18.8H345.7z M363.6,133.9c0,3.8-2.4,5.8-5,5.8
			c-2.7,0-4.9-2.1-4.9-5.5c0-3.2,2-5.7,5.1-5.7S363.6,130.8,363.6,133.9z M356.8,134.1c0,1.9,0.6,3.3,1.8,3.3c1.2,0,1.8-1.2,1.8-3.3
			c0-1.8-0.5-3.3-1.8-3.3C357.4,130.8,356.8,132.2,356.8,134.1z"/>
	</g>
	<g>
		<path class="st6" d="M293.3,155.9c-0.4,0.2-1.3,0.4-2.5,0.4c-2.7,0-4.7-1.7-4.7-4.8c0-2.9,2-4.9,4.9-4.9c1.2,0,1.9,0.3,2.2,0.4
			l-0.3,1c-0.5-0.2-1.1-0.4-1.9-0.4c-2.2,0-3.7,1.4-3.7,3.9c0,2.3,1.3,3.8,3.6,3.8c0.7,0,1.5-0.2,2-0.4L293.3,155.9z"/>
		<path class="st6" d="M295.3,153c0,1.7,1.1,2.3,2.3,2.3c0.9,0,1.4-0.2,1.9-0.3l0.2,0.9c-0.4,0.2-1.2,0.4-2.3,0.4
			c-2.1,0-3.3-1.4-3.3-3.4s1.2-3.6,3.2-3.6c2.2,0,2.8,1.9,2.8,3.2c0,0.3,0,0.4,0,0.6h-4.8V153z M298.9,152.1c0-0.8-0.3-2-1.7-2
			c-1.2,0-1.8,1.1-1.9,2H298.9z"/>
		<path class="st6" d="M301.6,151.2c0-0.7,0-1.3-0.1-1.8h1.1l0.1,1.1l0,0c0.3-0.6,1.1-1.3,2.2-1.3c0.9,0,2.4,0.6,2.4,2.9v4h-1.2
			v-3.9c0-1.1-0.4-2-1.6-2c-0.8,0-1.4,0.6-1.6,1.3c-0.1,0.2-0.1,0.4-0.1,0.6v4.1h-1.2L301.6,151.2L301.6,151.2z"/>
		<path class="st6" d="M310.8,147.5v1.9h1.8v0.9h-1.8v3.6c0,0.8,0.2,1.3,0.9,1.3c0.3,0,0.6,0,0.7-0.1l0.1,0.9
			c-0.2,0.1-0.6,0.2-1.1,0.2c-0.6,0-1-0.2-1.3-0.5c-0.3-0.4-0.5-1-0.5-1.8v-3.7h-1v-0.9h1v-1.6L310.8,147.5z"/>
		<path class="st6" d="M313.9,151.5c0-0.8,0-1.5-0.1-2.1h1.1v1.3h0.1c0.3-0.9,1-1.5,1.9-1.5c0.1,0,0.2,0,0.3,0v1.2
			c-0.1,0-0.3,0-0.4,0c-0.9,0-1.5,0.7-1.6,1.6c0,0.2-0.1,0.4-0.1,0.6v3.6h-1.2L313.9,151.5L313.9,151.5z"/>
		<path class="st6" d="M324.5,152.7c0,2.5-1.7,3.6-3.4,3.6c-1.8,0-3.2-1.3-3.2-3.5c0-2.3,1.5-3.6,3.4-3.6
			C323.2,149.3,324.5,150.7,324.5,152.7z M319.1,152.8c0,1.5,0.9,2.6,2.1,2.6s2.1-1.1,2.1-2.6c0-1.1-0.6-2.6-2-2.6
			C319.8,150.2,319.1,151.5,319.1,152.8z"/>
		<path class="st6" d="M329.8,156.2l-0.1-0.9l0,0c-0.4,0.5-1.1,1-2.1,1c-1.4,0-2.1-1-2.1-1.9c0-1.6,1.5-2.5,4.1-2.5v-0.1
			c0-0.6-0.2-1.6-1.5-1.6c-0.6,0-1.3,0.2-1.8,0.5l-0.3-0.8c0.6-0.4,1.4-0.6,2.2-0.6c2.1,0,2.6,1.4,2.6,2.8v2.5c0,0.6,0,1.2,0.1,1.6
			H329.8z M329.6,152.7c-1.3,0-2.9,0.2-2.9,1.5c0,0.8,0.5,1.2,1.2,1.2c0.9,0,1.4-0.6,1.6-1.1c0-0.1,0.1-0.3,0.1-0.4L329.6,152.7
			L329.6,152.7z"/>
		<path class="st6" d="M332.8,151.2c0-0.7,0-1.3-0.1-1.8h1.1l0.1,1.1l0,0c0.4-0.6,1-1.2,2.1-1.2c0.9,0,1.6,0.6,1.9,1.4l0,0
			c0.2-0.4,0.5-0.7,0.8-0.9c0.4-0.3,0.9-0.5,1.5-0.5c0.9,0,2.2,0.6,2.2,2.9v4h-1.2v-3.8c0-1.3-0.5-2.1-1.5-2.1
			c-0.7,0-1.2,0.5-1.5,1.1c-0.1,0.2-0.1,0.4-0.1,0.6v4.2h-1.2v-4.1c0-1.1-0.5-1.9-1.4-1.9c-0.8,0-1.3,0.6-1.5,1.2
			c-0.1,0.2-0.1,0.4-0.1,0.6v4.1h-1.2v-4.9H332.8z"/>
		<path class="st6" d="M345.1,153c0,1.7,1.1,2.3,2.3,2.3c0.9,0,1.4-0.2,1.9-0.3l0.2,0.9c-0.4,0.2-1.2,0.4-2.2,0.4
			c-2.1,0-3.3-1.4-3.3-3.4s1.2-3.6,3.2-3.6c2.2,0,2.8,1.9,2.8,3.2c0,0.3,0,0.4,0,0.6h-4.9V153z M348.8,152.1c0-0.8-0.3-2-1.7-2
			c-1.2,0-1.8,1.1-1.9,2H348.8z M349,146.5l-1.7,2h-0.9l1.2-2H349z"/>
		<path class="st6" d="M351.5,151.5c0-0.8,0-1.5-0.1-2.1h1.1v1.3h0.1c0.3-0.9,1-1.5,1.9-1.5c0.1,0,0.2,0,0.3,0v1.2
			c-0.1,0-0.3,0-0.4,0c-0.9,0-1.5,0.7-1.6,1.6c0,0.2-0.1,0.4-0.1,0.6v3.6h-1.2L351.5,151.5L351.5,151.5z"/>
		<path class="st6" d="M357.5,147.5c0,0.4-0.3,0.8-0.8,0.8c-0.4,0-0.7-0.3-0.7-0.8c0-0.4,0.3-0.8,0.8-0.8
			C357.2,146.7,357.5,147.1,357.5,147.5z M356.1,156.2v-6.8h1.2v6.8H356.1z"/>
		<path class="st6" d="M364.2,155.9c-0.3,0.2-1,0.4-1.9,0.4c-2,0-3.4-1.4-3.4-3.5s1.4-3.6,3.6-3.6c0.7,0,1.4,0.2,1.7,0.3l-0.3,1
			c-0.3-0.2-0.8-0.3-1.4-0.3c-1.6,0-2.4,1.1-2.4,2.6c0,1.6,1,2.5,2.3,2.5c0.7,0,1.2-0.2,1.5-0.3L364.2,155.9z"/>
		<path class="st6" d="M369.4,156.2l-0.1-0.9l0,0c-0.4,0.5-1.1,1-2.1,1c-1.4,0-2.1-1-2.1-1.9c0-1.6,1.5-2.5,4.1-2.5v-0.1
			c0-0.6-0.2-1.6-1.5-1.6c-0.6,0-1.3,0.2-1.8,0.5l-0.3-0.8c0.6-0.4,1.4-0.6,2.2-0.6c2.1,0,2.6,1.4,2.6,2.8v2.5c0,0.6,0,1.2,0.1,1.6
			H369.4z M369.2,152.7c-1.3,0-2.9,0.2-2.9,1.5c0,0.8,0.5,1.2,1.2,1.2c0.9,0,1.4-0.6,1.6-1.1c0-0.1,0.1-0.3,0.1-0.4L369.2,152.7
			L369.2,152.7z"/>
	</g>
	<line class="st7" x1="150.5" y1="45.1" x2="150.5" y2="67.3"/>
	<g>
		<path class="st8" d="M148.7,67.2c0,1,0.8,1.9,1.9,1.9c1,0,1.9-0.8,1.9-1.9c0-1-0.8-1.9-1.9-1.9S148.7,66.2,148.7,67.2"/>
		<line class="st9" x1="328.5" y1="167" x2="328.5" y2="235.8"/>
		<path class="st10" d="M326.6,235.7c0,1,0.8,1.9,1.9,1.9c1,0,1.9-0.8,1.9-1.9c0-1-0.8-1.9-1.9-1.9
			C327.4,233.8,326.6,234.7,326.6,235.7"/>
	</g>
	<g>
		<path class="st8" d="M531.8,197.1h5.4v1.6h-3.4v2h3.1v1.6h-3.1v3.5h-2V197.1z"/>
		<path class="st8" d="M544.8,202.6c0,2.3-1.6,3.4-3.3,3.4c-1.9,0-3.3-1.2-3.3-3.3c0-2.1,1.3-3.4,3.4-3.4
			C543.6,199.4,544.8,200.7,544.8,202.6z M540.3,202.7c0,1.1,0.5,1.9,1.3,1.9s1.3-0.8,1.3-1.9c0-0.9-0.4-1.9-1.3-1.9
			C540.6,200.8,540.3,201.7,540.3,202.7z"/>
		<path class="st8" d="M546.1,201.6c0-0.9,0-1.5-0.1-2.1h1.7l0.1,1.2h0.1c0.3-0.9,1.1-1.3,1.7-1.3c0.2,0,0.3,0,0.4,0v1.9
			c-0.1,0-0.3-0.1-0.5-0.1c-0.7,0-1.2,0.4-1.4,1c0,0.1,0,0.3,0,0.4v3.2h-2V201.6z"/>
		<path class="st8" d="M551,201.5c0-0.8,0-1.5-0.1-2h1.7l0.1,0.9l0,0c0.3-0.4,0.8-1,1.9-1c0.8,0,1.5,0.4,1.7,1.1l0,0
			c0.2-0.3,0.5-0.6,0.8-0.8c0.4-0.2,0.7-0.3,1.2-0.3c1.2,0,2.1,0.9,2.1,2.8v3.7h-1.7v-3.5c0-0.9-0.3-1.5-0.9-1.5
			c-0.5,0-0.8,0.3-0.9,0.7c-0.1,0.1-0.1,0.4-0.1,0.5v3.7h-1.9v-3.6c0-0.8-0.3-1.4-0.9-1.4c-0.5,0-0.8,0.4-0.9,0.7
			c-0.1,0.2-0.1,0.3-0.1,0.5v3.7h-1.9L551,201.5L551,201.5z"/>
		<path class="st8" d="M565.8,205.9l-0.1-0.6l0,0c-0.4,0.5-1.1,0.8-1.8,0.8c-1.3,0-2.1-0.9-2.1-1.9c0-1.6,1.5-2.4,3.7-2.4v-0.1
			c0-0.3-0.2-0.8-1.2-0.8c-0.6,0-1.3,0.2-1.8,0.5l-0.4-1.3c0.4-0.2,1.3-0.6,2.5-0.6c2.1,0,2.8,1.2,2.8,2.7v2.2c0,0.6,0,1.2,0.1,1.5
			L565.8,205.9L565.8,205.9z M565.5,202.9c-1,0-1.8,0.2-1.8,1c0,0.5,0.3,0.8,0.8,0.8s0.9-0.3,1-0.7c0-0.1,0-0.2,0-0.3V202.9z"/>
		<path class="st8" d="M571.2,197.7v1.8h1.4v1.5h-1.4v2.3c0,0.8,0.2,1.1,0.8,1.1c0.2,0,0.4,0,0.6-0.1v1.5c-0.3,0.1-0.7,0.2-1.3,0.2
			s-1.2-0.2-1.5-0.5c-0.4-0.4-0.5-1-0.5-1.9V201h-0.8v-1.5h0.8v-1.4L571.2,197.7z"/>
		<path class="st8" d="M580.1,202.6c0,2.3-1.6,3.4-3.3,3.4c-1.9,0-3.3-1.2-3.3-3.3c0-2.1,1.4-3.4,3.4-3.4
			C578.8,199.4,580.1,200.7,580.1,202.6z M575.5,202.7c0,1.1,0.5,1.9,1.3,1.9s1.3-0.8,1.3-1.9c0-0.9-0.4-1.9-1.3-1.9
			C575.8,200.8,575.5,201.7,575.5,202.7z"/>
	</g>
	<g>
		<path class="st5" d="M531,225.4h191.7c3.1,0,5.7,2.5,5.7,5.7c0,3.1-2.5,5.7-5.7,5.7H531V225.4z"/>
		<path class="st5" d="M531,249.9h146.9c3.1,0,5.7,2.5,5.7,5.7c0,3.1-2.5,5.7-5.7,5.7H531V249.9z"/>
		<path class="st5" d="M531,274.3h144.9c3.1,0,5.7,2.5,5.7,5.7c0,3.1-2.5,5.7-5.7,5.7H531V274.3z"/>
		<path class="st5" d="M531,298.8h85.9c3.1,0,5.7,2.5,5.7,5.7c0,3.1-2.5,5.7-5.7,5.7H531V298.8z"/>
		<line class="st11" x1="531" y1="316.7" x2="531" y2="218.8"/>
	</g>
	<g>
		<path class="st8" d="M443.6,297.6c0.5-0.1,1.1-0.2,1.8-0.2c1.1,0,1.8,0.2,2.3,0.7c0.4,0.4,0.5,0.8,0.5,1.4c0,0.9-0.6,1.6-1.5,1.9
			l0,0c0.7,0.2,1.9,0.8,1.9,2.2c0,0.7-0.3,1.3-0.6,1.7c-0.6,0.6-1.5,0.8-2.8,0.8c-0.7,0-1.2-0.1-1.5-0.1L443.6,297.6L443.6,297.6z
			 M444.3,301.3h1.3c1.3,0,2.1-0.8,2.1-1.7c0-1.2-0.9-1.7-2.2-1.7c-0.6,0-0.9,0-1.1,0.1L444.3,301.3L444.3,301.3z M444.3,305.7
			c0.3,0.1,0.6,0.1,1.1,0.1c1.3,0,2.6-0.5,2.6-2c0-1.4-1.2-2-2.6-2h-1.1V305.7z"/>
		<path class="st8" d="M455.5,303c0,2.3-1.6,3.3-3,3.3c-1.6,0-2.9-1.3-2.9-3.2c0-2.1,1.4-3.3,2.9-3.3
			C454.3,299.8,455.5,301.1,455.5,303z M450.3,303.1c0,1.6,1,2.7,2.3,2.7s2.3-1.2,2.3-2.8c0-1.1-0.6-2.7-2.3-2.7
			C451,300.3,450.3,301.7,450.3,303.1z"/>
		<path class="st8" d="M462.1,297v7.8c0,0.5,0,1,0.1,1.5h-0.6l-0.1-1.2l0,0c-0.3,0.7-1.1,1.3-2.2,1.3c-1.5,0-2.7-1.3-2.7-3.1
			c0-2.1,1.3-3.4,2.8-3.4c1.1,0,1.8,0.6,2,1.1l0,0v-4H462.1z M461.4,302.4c0-0.2,0-0.4-0.1-0.6c-0.2-0.8-0.9-1.5-2-1.5
			c-1.4,0-2.2,1.2-2.2,2.8c0,1.4,0.7,2.7,2.2,2.7c0.9,0,1.7-0.6,2-1.6c0.1-0.2,0.1-0.3,0.1-0.5V302.4z"/>
		<path class="st8" d="M464.3,303c0,2,1.1,2.8,2.4,2.8c0.9,0,1.4-0.2,1.7-0.4l0.2,0.5c-0.2,0.1-0.9,0.4-2,0.4
			c-1.8,0-2.9-1.3-2.9-3.1c0-2.1,1.2-3.4,2.8-3.4c2,0,2.4,1.9,2.4,2.8c0,0.2,0,0.3,0,0.4L464.3,303L464.3,303z M468.2,302.5
			c0-0.9-0.4-2.2-1.9-2.2c-1.4,0-2,1.2-2.1,2.2H468.2z"/>
		<path class="st8" d="M475.4,305.3c0,1.6-0.3,2.4-0.9,2.9s-1.4,0.7-2.1,0.7s-1.5-0.2-2-0.5l0.2-0.5c0.4,0.3,1.1,0.5,1.9,0.5
			c1.3,0,2.3-0.7,2.3-2.5V305l0,0c-0.3,0.6-1.1,1.2-2.2,1.2c-1.6,0-2.7-1.4-2.7-3.1c0-2.2,1.4-3.3,2.8-3.3c1.2,0,1.8,0.7,2.1,1.2
			l0,0v-1.1h0.6c0,0.5-0.1,1-0.1,1.6v3.8H475.4z M474.8,302.3c0-0.2,0-0.4-0.1-0.6c-0.3-0.8-0.9-1.4-1.9-1.4c-1.3,0-2.2,1.1-2.2,2.7
			c0,1.4,0.7,2.6,2.2,2.6c0.8,0,1.6-0.5,1.9-1.4c0.1-0.2,0.1-0.4,0.1-0.7V302.3z"/>
		<path class="st8" d="M481.4,304.7c0,0.5,0,1,0.1,1.5h-0.6l-0.1-0.9l0,0c-0.3,0.5-1,1-2,1c-1.3,0-1.8-0.9-1.8-1.7
			c0-1.4,1.3-2.3,3.8-2.3v-0.2c0-0.6-0.1-1.8-1.6-1.8c-0.5,0-1.1,0.1-1.6,0.5l-0.2-0.5c0.6-0.4,1.3-0.5,1.8-0.5
			c1.8,0,2.2,1.4,2.2,2.5L481.4,304.7L481.4,304.7z M480.8,302.8c-1.4,0-3.2,0.2-3.2,1.7c0,0.9,0.6,1.3,1.2,1.3c1,0,1.6-0.6,1.8-1.2
			c0.1-0.1,0.1-0.3,0.1-0.4v-1.4H480.8z"/>
		<path class="st8" d="M487.3,303.1l-1.1,3.1h-0.6l3.2-8.8h0.6l3.1,8.8h-0.6l-1.1-3.1H487.3z M490.6,302.6l-1.1-2.9
			c-0.2-0.6-0.3-1.1-0.5-1.5l0,0c-0.1,0.5-0.3,1-0.5,1.5l-1.1,2.9H490.6z"/>
		<path class="st8" d="M498.7,304.7c0,0.5,0,1,0.1,1.5h-0.6v-1.1l0,0c-0.3,0.6-1,1.3-2.1,1.3c-0.8,0-2.1-0.4-2.1-2.8V300h0.6v3.5
			c0,1.4,0.4,2.3,1.6,2.3c0.9,0,1.6-0.6,1.8-1.3c0.1-0.2,0.1-0.4,0.1-0.7v-3.9h0.6L498.7,304.7L498.7,304.7z"/>
		<path class="st8" d="M500.7,301.8c0-0.6,0-1.3-0.1-1.9h0.6v1.3l0,0c0.3-0.8,0.9-1.4,1.8-1.4c0.1,0,0.2,0,0.3,0v0.6
			c-0.1,0-0.2,0-0.3,0c-0.9,0-1.5,0.7-1.6,1.7c0,0.2-0.1,0.4-0.1,0.6v3.4h-0.6V301.8z"/>
		<path class="st8" d="M504.6,301.8c0-0.6,0-1.3-0.1-1.9h0.6v1.3l0,0c0.3-0.8,0.9-1.4,1.8-1.4c0.1,0,0.2,0,0.3,0v0.6
			c-0.1,0-0.2,0-0.3,0c-0.9,0-1.5,0.7-1.6,1.7c0,0.2-0.1,0.4-0.1,0.6v3.4h-0.6L504.6,301.8L504.6,301.8z"/>
		<path class="st8" d="M508.5,303c0,2,1.1,2.8,2.4,2.8c0.9,0,1.4-0.2,1.7-0.4l0.2,0.5c-0.2,0.1-0.9,0.4-2,0.4
			c-1.8,0-2.9-1.3-2.9-3.1c0-2.1,1.2-3.4,2.8-3.4c2,0,2.4,1.9,2.4,2.8c0,0.2,0,0.3,0,0.4L508.5,303L508.5,303z M512.5,302.5
			c0-0.9-0.4-2.2-1.9-2.2c-1.4,0-2,1.2-2.1,2.2H512.5z"/>
		<path class="st8" d="M514.7,301.8c0-0.6,0-1.3-0.1-1.9h0.6v1.3l0,0c0.3-0.8,0.9-1.4,1.8-1.4c0.1,0,0.2,0,0.3,0v0.6
			c-0.1,0-0.2,0-0.3,0c-0.9,0-1.5,0.7-1.6,1.7c0,0.2-0.1,0.4-0.1,0.6v3.4h-0.6V301.8z"/>
		<path class="st8" d="M522.4,304.7c0,0.5,0,1,0.1,1.5h-0.6l-0.1-0.9l0,0c-0.3,0.5-1,1-2,1c-1.3,0-1.8-0.9-1.8-1.7
			c0-1.4,1.3-2.3,3.8-2.3v-0.2c0-0.6-0.1-1.8-1.6-1.8c-0.5,0-1.1,0.1-1.6,0.5l-0.2-0.5c0.6-0.4,1.3-0.5,1.8-0.5
			c1.8,0,2.2,1.4,2.2,2.5L522.4,304.7L522.4,304.7z M521.8,302.8c-1.4,0-3.2,0.2-3.2,1.7c0,0.9,0.6,1.3,1.2,1.3c1,0,1.6-0.6,1.8-1.2
			c0.1-0.1,0.1-0.3,0.1-0.4v-1.4H521.8z"/>
	</g>
	<g>
		<path class="st8" d="M471.5,280.7c0.5,0.3,1.2,0.6,1.9,0.6c1.3,0,2.1-0.7,2.1-1.8c0-1-0.5-1.6-1.8-2.1c-1.4-0.5-2.2-1.2-2.2-2.4
			c0-1.3,1.1-2.2,2.5-2.2c0.8,0,1.4,0.2,1.7,0.4l-0.2,0.5c-0.2-0.2-0.8-0.4-1.5-0.4c-1.4,0-1.9,0.9-1.9,1.6c0,1,0.6,1.5,1.8,2
			c1.4,0.6,2.2,1.2,2.2,2.5s-0.9,2.4-2.8,2.4c-0.8,0-1.6-0.2-2.1-0.6L471.5,280.7z"/>
		<path class="st8" d="M482.6,280.2c0,0.5,0,1,0.1,1.5h-0.6v-1.1l0,0c-0.3,0.6-1,1.3-2.1,1.3c-0.8,0-2.1-0.4-2.1-2.8v-3.6h0.6v3.5
			c0,1.4,0.4,2.3,1.6,2.3c0.9,0,1.6-0.6,1.8-1.3c0.1-0.2,0.1-0.4,0.1-0.7v-3.9h0.6L482.6,280.2L482.6,280.2z"/>
		<path class="st8" d="M484.7,277.5c0-0.8,0-1.4-0.1-2h0.6v1.2l0,0c0.5-0.8,1.2-1.3,2.3-1.3c1.6,0,2.7,1.3,2.7,3.2
			c0,2.2-1.3,3.4-2.8,3.4c-0.9,0-1.7-0.4-2.1-1.2l0,0v3.6h-0.6V277.5z M485.3,279.3c0,0.2,0,0.3,0.1,0.5c0.3,1,1.1,1.6,2.1,1.6
			c1.4,0,2.2-1.2,2.2-2.8c0-1.4-0.8-2.7-2.2-2.7c-0.9,0-1.8,0.6-2.1,1.6c0,0.2-0.1,0.4-0.1,0.5V279.3z"/>
		<path class="st8" d="M492,278.5c0,2,1.1,2.8,2.4,2.8c0.9,0,1.4-0.2,1.7-0.4l0.2,0.5c-0.2,0.1-0.9,0.4-2,0.4
			c-1.8,0-2.9-1.3-2.9-3.1c0-2.1,1.2-3.4,2.8-3.4c2,0,2.4,1.9,2.4,2.8c0,0.2,0,0.3,0,0.4L492,278.5L492,278.5z M495.9,278
			c0-0.9-0.4-2.2-1.9-2.2c-1.4,0-2,1.2-2.1,2.2H495.9z"/>
		<path class="st8" d="M498.2,277.3c0-0.6,0-1.3-0.1-1.9h0.6v1.3l0,0c0.3-0.8,0.9-1.4,1.8-1.4c0.1,0,0.2,0,0.3,0v0.6
			c-0.1,0-0.2,0-0.3,0c-0.9,0-1.5,0.7-1.6,1.7c0,0.2-0.1,0.4-0.1,0.6v3.4h-0.6L498.2,277.3L498.2,277.3z"/>
		<path class="st8" d="M505.9,280.2c0,0.5,0,1,0.1,1.5h-0.6l-0.1-0.9l0,0c-0.3,0.5-1,1-2,1c-1.3,0-1.8-0.9-1.8-1.7
			c0-1.4,1.3-2.3,3.8-2.3v-0.2c0-0.6-0.1-1.8-1.6-1.8c-0.5,0-1.1,0.1-1.6,0.5l-0.2-0.5c0.6-0.4,1.3-0.5,1.8-0.5
			c1.8,0,2.2,1.4,2.2,2.5L505.9,280.2L505.9,280.2z M505.3,278.4c-1.4,0-3.2,0.2-3.2,1.7c0,0.9,0.6,1.3,1.2,1.3c1,0,1.6-0.6,1.8-1.2
			c0.1-0.1,0.1-0.3,0.1-0.4v-1.4H505.3z"/>
		<path class="st8" d="M507.9,277c0-0.6,0-1-0.1-1.5h0.6v1.1l0,0c0.4-0.7,1-1.2,2-1.2c0.9,0,1.5,0.6,1.8,1.4l0,0
			c0.2-0.4,0.4-0.6,0.6-0.8c0.4-0.3,0.8-0.5,1.5-0.5c0.6,0,2,0.3,2,2.7v3.7h-0.6v-3.6c0-1.4-0.5-2.2-1.6-2.2c-0.8,0-1.4,0.6-1.6,1.2
			c-0.1,0.2-0.1,0.4-0.1,0.6v4h-0.6V278c0-1.1-0.5-1.9-1.5-1.9c-0.8,0-1.5,0.7-1.7,1.4c-0.1,0.2-0.1,0.4-0.1,0.6v3.8h-0.6L507.9,277
			L507.9,277z"/>
		<path class="st8" d="M522.4,280.2c0,0.5,0,1,0.1,1.5h-0.6l-0.1-0.9l0,0c-0.3,0.5-1,1-2,1c-1.3,0-1.8-0.9-1.8-1.7
			c0-1.4,1.3-2.3,3.8-2.3v-0.2c0-0.6-0.1-1.8-1.6-1.8c-0.5,0-1.1,0.1-1.6,0.5l-0.2-0.5c0.6-0.4,1.3-0.5,1.8-0.5
			c1.8,0,2.2,1.4,2.2,2.5L522.4,280.2L522.4,280.2z M521.8,278.4c-1.4,0-3.2,0.2-3.2,1.7c0,0.9,0.6,1.3,1.2,1.3c1,0,1.6-0.6,1.8-1.2
			c0.1-0.1,0.1-0.3,0.1-0.4v-1.4H521.8z"/>
	</g>
	<g>
		<path class="st8" d="M481.7,257.2l-2.3-8.8h0.6l1.3,4.9c0.3,1.1,0.6,2.2,0.7,3l0,0c0.1-0.8,0.5-1.9,0.8-3l1.4-4.9h0.6l1.3,4.9
			c0.3,1.1,0.6,2.2,0.7,3l0,0c0.2-0.9,0.5-1.9,0.8-3l1.4-4.9h0.6l-2.6,8.8h-0.6l-1.3-5c-0.4-1.3-0.6-2.1-0.7-3l0,0
			c-0.1,0.8-0.4,1.7-0.8,3l-1.5,5H481.7z"/>
		<path class="st8" d="M494.7,255.8c0,0.5,0,1,0.1,1.5h-0.6l-0.1-0.9l0,0c-0.3,0.5-1,1-2,1c-1.3,0-1.8-0.9-1.8-1.7
			c0-1.4,1.3-2.3,3.8-2.3v-0.2c0-0.6-0.1-1.8-1.6-1.8c-0.5,0-1.1,0.1-1.6,0.5l-0.2-0.5c0.6-0.4,1.3-0.5,1.8-0.5
			c1.8,0,2.2,1.4,2.2,2.5L494.7,255.8L494.7,255.8z M494.1,253.9c-1.4,0-3.2,0.2-3.2,1.7c0,0.9,0.6,1.3,1.2,1.3c1,0,1.6-0.6,1.8-1.2
			c0.1-0.1,0.1-0.3,0.1-0.4v-1.4H494.1z"/>
		<path class="st8" d="M496.8,248h0.6v9.2h-0.6V248z"/>
		<path class="st8" d="M499.5,252.5c0-0.6,0-1-0.1-1.5h0.6v1.1l0,0c0.4-0.7,1-1.2,2-1.2c0.9,0,1.5,0.6,1.8,1.4l0,0
			c0.2-0.4,0.4-0.6,0.6-0.8c0.4-0.3,0.8-0.5,1.5-0.5c0.6,0,2,0.3,2,2.7v3.7h-0.6v-3.6c0-1.4-0.5-2.2-1.6-2.2c-0.8,0-1.4,0.6-1.6,1.2
			c-0.1,0.2-0.1,0.4-0.1,0.6v4h-0.6v-3.9c0-1.1-0.5-1.9-1.5-1.9c-0.8,0-1.5,0.7-1.7,1.4c-0.1,0.2-0.1,0.4-0.1,0.6v3.8h-0.6
			L499.5,252.5L499.5,252.5z"/>
		<path class="st8" d="M514,255.8c0,0.5,0,1,0.1,1.5h-0.6l-0.1-0.9l0,0c-0.3,0.5-1,1-2,1c-1.3,0-1.8-0.9-1.8-1.7
			c0-1.4,1.3-2.3,3.8-2.3v-0.2c0-0.6-0.1-1.8-1.6-1.8c-0.5,0-1.1,0.1-1.6,0.5l-0.2-0.5c0.6-0.4,1.3-0.5,1.8-0.5
			c1.8,0,2.2,1.4,2.2,2.5L514,255.8L514,255.8z M513.4,253.9c-1.4,0-3.2,0.2-3.2,1.7c0,0.9,0.6,1.3,1.2,1.3c1,0,1.6-0.6,1.8-1.2
			c0.1-0.1,0.1-0.3,0.1-0.4v-1.4H513.4z"/>
		<path class="st8" d="M516,252.9c0-0.6,0-1.3-0.1-1.9h0.6v1.3l0,0c0.3-0.8,0.9-1.4,1.8-1.4c0.1,0,0.2,0,0.3,0v0.6
			c-0.1,0-0.2,0-0.3,0c-0.9,0-1.5,0.7-1.6,1.7c0,0.2-0.1,0.4-0.1,0.6v3.4H516L516,252.9L516,252.9z"/>
		<path class="st8" d="M520.7,249.6v1.4h1.8v0.5h-1.8v4.1c0,0.8,0.2,1.3,0.9,1.3c0.3,0,0.6,0,0.7-0.1l0.1,0.5
			c-0.2,0.1-0.5,0.2-0.9,0.2c-0.5,0-0.8-0.1-1.1-0.4s-0.4-0.9-0.4-1.5v-3.9h-1.1V251h1.1v-1.1L520.7,249.6z"/>
	</g>
	<g>
		<path class="st8" d="M467.1,231.8c0.5,0.3,1.2,0.6,1.9,0.6c1.3,0,2.1-0.7,2.1-1.8c0-1-0.5-1.6-1.8-2.1c-1.4-0.5-2.2-1.2-2.2-2.4
			c0-1.3,1.1-2.2,2.5-2.2c0.8,0,1.4,0.2,1.7,0.4l-0.2,0.5c-0.2-0.2-0.8-0.4-1.5-0.4c-1.4,0-1.9,0.9-1.9,1.6c0,1,0.6,1.5,1.8,2
			c1.4,0.6,2.2,1.2,2.2,2.5s-0.9,2.4-2.8,2.4c-0.8,0-1.6-0.2-2.1-0.6L467.1,231.8z"/>
		<path class="st8" d="M477.2,231.3c0,0.5,0,1,0.1,1.5h-0.6l-0.1-0.9l0,0c-0.3,0.5-1,1-2,1c-1.3,0-1.8-0.9-1.8-1.7
			c0-1.4,1.3-2.3,3.8-2.3v-0.2c0-0.6-0.1-1.8-1.6-1.8c-0.5,0-1.1,0.1-1.6,0.5l-0.2-0.5c0.6-0.4,1.3-0.5,1.8-0.5
			c1.8,0,2.2,1.4,2.2,2.5L477.2,231.3L477.2,231.3z M476.6,229.4c-1.4,0-3.2,0.2-3.2,1.7c0,0.9,0.6,1.3,1.2,1.3c1,0,1.6-0.6,1.8-1.2
			c0.1-0.1,0.1-0.3,0.1-0.4v-1.4H476.6z"/>
		<path class="st8" d="M479.2,228c0-0.6,0-1-0.1-1.5h0.6v1.1l0,0c0.4-0.7,1-1.2,2-1.2c0.9,0,1.5,0.6,1.8,1.4l0,0
			c0.2-0.4,0.4-0.6,0.6-0.8c0.4-0.3,0.8-0.5,1.5-0.5c0.6,0,2,0.3,2,2.7v3.7H487v-3.6c0-1.4-0.5-2.2-1.6-2.2c-0.8,0-1.4,0.6-1.6,1.2
			c-0.1,0.2-0.1,0.4-0.1,0.6v4h-0.6V229c0-1.1-0.5-1.9-1.5-1.9c-0.8,0-1.5,0.7-1.7,1.4c-0.1,0.2-0.1,0.4-0.1,0.6v3.8h-0.6L479.2,228
			L479.2,228z"/>
		<path class="st8" d="M490.3,223.8l-0.2,2.9h-0.4l-0.2-2.9H490.3z"/>
		<path class="st8" d="M491.9,232c0.3,0.2,0.8,0.4,1.4,0.4c1,0,1.5-0.5,1.5-1.2s-0.4-1.1-1.3-1.4c-1-0.4-1.6-0.9-1.6-1.7
			c0-0.9,0.7-1.7,1.9-1.7c0.6,0,1.1,0.2,1.4,0.4l-0.2,0.5c-0.2-0.2-0.6-0.4-1.2-0.4c-0.8,0-1.2,0.5-1.2,1.1s0.4,0.9,1.3,1.3
			c1,0.4,1.6,0.9,1.6,1.8c0,1.1-0.8,1.8-2.1,1.8c-0.6,0-1.2-0.2-1.6-0.4L491.9,232z"/>
		<path class="st8" d="M505.8,232.5c-0.4,0.2-1.3,0.4-2.4,0.4c-2.1,0-4.1-1.4-4.1-4.5c0-2.6,1.7-4.6,4.4-4.6c1.1,0,1.8,0.2,2,0.4
			l-0.2,0.5c-0.4-0.2-1.1-0.4-1.8-0.4c-2.4,0-3.8,1.5-3.8,4.1c0,2.4,1.3,3.9,3.7,3.9c0.7,0,1.5-0.2,2-0.4L505.8,232.5z"/>
		<path class="st8" d="M507.3,223.6h0.6v9.2h-0.6V223.6z"/>
		<path class="st8" d="M514.8,231.3c0,0.5,0,1,0.1,1.5h-0.6v-1.1l0,0c-0.3,0.6-1,1.3-2.1,1.3c-0.8,0-2.1-0.4-2.1-2.8v-3.6h0.6v3.5
			c0,1.4,0.4,2.3,1.6,2.3c0.9,0,1.6-0.6,1.8-1.3c0.1-0.2,0.1-0.4,0.1-0.7v-3.9h0.6L514.8,231.3L514.8,231.3z"/>
		<path class="st8" d="M516.9,223.6h0.6v4.2l0,0c0.4-0.8,1.2-1.3,2.3-1.3c1.6,0,2.7,1.3,2.7,3.2c0,2.2-1.4,3.3-2.8,3.3
			c-1,0-1.7-0.4-2.2-1.3l0,0l-0.1,1.1h-0.6c0-0.4,0.1-1,0.1-1.5V223.6z M517.5,230.4c0,0.1,0,0.3,0.1,0.5c0.3,0.9,1.1,1.6,2.1,1.6
			c1.4,0,2.2-1.2,2.2-2.8c0-1.4-0.8-2.7-2.2-2.7c-0.9,0-1.8,0.6-2.1,1.7c0,0.2-0.1,0.3-0.1,0.5V230.4z"/>
	</g>
	<g>
		<path class="st8" d="M530.8,37.2l4.2-6v-0.1h-3.8v-1.6h6.4v1.1l-4.1,5.9v0.1h4.1v1.6h-6.8L530.8,37.2L530.8,37.2z"/>
		<path class="st8" d="M545.1,35.1c0,2.3-1.6,3.4-3.4,3.4c-1.9,0-3.3-1.2-3.3-3.3s1.4-3.4,3.4-3.4C543.8,31.8,545.1,33.1,545.1,35.1
			z M540.5,35.1c0,1.1,0.5,1.9,1.3,1.9s1.3-0.8,1.3-1.9c0-0.9-0.4-1.9-1.3-1.9C540.9,33.2,540.5,34.2,540.5,35.1z"/>
		<path class="st8" d="M546.3,34c0-0.8,0-1.5-0.1-2h1.7l0.1,0.9l0,0c0.3-0.4,0.9-1,2-1c1.3,0,2.3,0.9,2.3,2.7v3.8h-2v-3.5
			c0-0.8-0.3-1.4-1-1.4c-0.5,0-0.9,0.4-1,0.7c-0.1,0.1-0.1,0.3-0.1,0.5v3.7h-2L546.3,34L546.3,34z"/>
		<path class="st8" d="M557.5,38.3l-0.1-0.6l0,0c-0.4,0.5-1.1,0.8-1.8,0.8c-1.3,0-2.1-0.9-2.1-1.9c0-1.6,1.5-2.4,3.7-2.4V34
			c0-0.3-0.2-0.8-1.2-0.8c-0.6,0-1.3,0.2-1.8,0.5l-0.4-1.3c0.4-0.2,1.3-0.6,2.5-0.6c2.1,0,2.8,1.2,2.8,2.7v2.2c0,0.6,0,1.2,0.1,1.5
			h-1.7V38.3z M557.3,35.3c-1,0-1.8,0.2-1.8,1c0,0.5,0.3,0.8,0.8,0.8s0.9-0.3,1-0.7c0-0.1,0-0.2,0-0.3V35.3z"/>
		<path class="st8" d="M569.5,32c0,0.4-0.1,0.9-0.1,1.9v3.5c0,1.2-0.2,2.2-1,2.9c-0.7,0.6-1.6,0.8-2.6,0.8c-0.8,0-1.7-0.2-2.3-0.5
			l0.4-1.5c0.4,0.2,1.1,0.5,1.8,0.5c0.9,0,1.6-0.5,1.6-1.7v-0.4l0,0c-0.4,0.5-1,0.8-1.7,0.8c-1.6,0-2.7-1.3-2.7-3.1
			c0-2,1.3-3.3,2.9-3.3c0.9,0,1.4,0.4,1.7,0.9l0,0l0.1-0.8L569.5,32L569.5,32z M567.4,34.5c0-0.1,0-0.3,0-0.4
			c-0.1-0.5-0.5-0.9-1.1-0.9c-0.7,0-1.3,0.6-1.3,1.8c0,0.9,0.5,1.7,1.3,1.7c0.5,0,0.9-0.3,1-0.8c0.1-0.1,0.1-0.4,0.1-0.5V34.5z"/>
		<path class="st8" d="M572.5,35.8c0.1,0.8,0.9,1.2,1.8,1.2c0.7,0,1.2-0.1,1.8-0.3l0.3,1.3c-0.6,0.3-1.4,0.4-2.3,0.4
			c-2.2,0-3.4-1.2-3.4-3.2c0-1.6,1-3.4,3.2-3.4c2.1,0,2.8,1.6,2.8,3.2c0,0.3,0,0.6-0.1,0.8H572.5z M574.8,34.4
			c0-0.5-0.2-1.3-1.1-1.3c-0.8,0-1.2,0.8-1.2,1.3H574.8z"/>
		<path class="st8" d="M584.1,35.1c0,2.3-1.6,3.4-3.3,3.4c-1.9,0-3.3-1.2-3.3-3.3s1.4-3.4,3.4-3.4C582.8,31.8,584.1,33.1,584.1,35.1
			z M579.5,35.1c0,1.1,0.5,1.9,1.3,1.9s1.3-0.8,1.3-1.9c0-0.9-0.4-1.9-1.3-1.9C579.9,33.2,579.5,34.2,579.5,35.1z"/>
		<path class="st8" d="M591.4,32c0,0.4-0.1,0.9-0.1,1.9v3.5c0,1.2-0.2,2.2-1,2.9c-0.7,0.6-1.6,0.8-2.6,0.8c-0.8,0-1.7-0.2-2.3-0.5
			l0.4-1.5c0.4,0.2,1.1,0.5,1.8,0.5c0.9,0,1.6-0.5,1.6-1.7v-0.4l0,0c-0.4,0.5-1,0.8-1.7,0.8c-1.6,0-2.7-1.3-2.7-3.1
			c0-2,1.3-3.3,2.9-3.3c0.9,0,1.4,0.4,1.7,0.9l0,0l0.1-0.8L591.4,32L591.4,32z M589.4,34.5c0-0.1,0-0.3,0-0.4
			c-0.1-0.5-0.5-0.9-1.1-0.9c-0.7,0-1.3,0.6-1.3,1.8c0,0.9,0.5,1.7,1.3,1.7c0.5,0,0.9-0.3,1-0.8c0.1-0.1,0.1-0.4,0.1-0.5V34.5z"/>
		<path class="st8" d="M592.9,34c0-0.9,0-1.5-0.1-2.1h1.7l0.1,1.2h0.1c0.3-0.9,1.1-1.3,1.7-1.3c0.2,0,0.3,0,0.4,0v1.9
			c-0.1,0-0.3-0.1-0.5-0.1c-0.7,0-1.2,0.4-1.4,1c0,0.1,0,0.3,0,0.4v3.2h-2V34z"/>
		<path class="st8" d="M601.5,38.3l-0.1-0.6l0,0c-0.4,0.5-1.1,0.8-1.8,0.8c-1.3,0-2.1-0.9-2.1-1.9c0-1.6,1.5-2.4,3.7-2.4V34
			c0-0.3-0.2-0.8-1.2-0.8c-0.6,0-1.3,0.2-1.8,0.5l-0.4-1.3c0.4-0.2,1.3-0.6,2.5-0.6c2.1,0,2.8,1.2,2.8,2.7v2.2c0,0.6,0,1.2,0.1,1.5
			h-1.7V38.3z M601.2,35.3c-1,0-1.8,0.2-1.8,1c0,0.5,0.3,0.8,0.8,0.8s0.9-0.3,1-0.7c0-0.1,0-0.2,0-0.3V35.3z M602.5,29.2l-1.6,2
			h-1.4l1.1-2H602.5z"/>
		<path class="st8" d="M604.9,38.3v-4.9h-0.8V32h0.8v-0.3c0-1.8,1.4-2.7,3.3-2.7c0.7,0,1.5,0.2,1.9,0.4l-0.4,1.5
			c-0.3-0.2-0.8-0.3-1.4-0.3c-1,0-1.4,0.5-1.4,1.2V32h3.9v6.3h-2v-4.9h-1.9v4.9L604.9,38.3L604.9,38.3z"/>
		<path class="st8" d="M617.1,38.1c-0.4,0.2-1,0.3-1.8,0.3c-2.1,0-3.4-1.2-3.4-3.2c0-1.9,1.3-3.4,3.6-3.4c0.5,0,1.1,0.1,1.5,0.2
			l-0.3,1.5c-0.2-0.1-0.6-0.2-1.1-0.2c-1,0-1.7,0.7-1.7,1.8c0,1.2,0.8,1.8,1.7,1.8c0.5,0,0.8-0.1,1.1-0.2L617.1,38.1z"/>
		<path class="st8" d="M621.8,38.3l-0.1-0.6l0,0c-0.4,0.5-1.1,0.8-1.8,0.8c-1.3,0-2.1-0.9-2.1-1.9c0-1.6,1.5-2.4,3.7-2.4V34
			c0-0.3-0.2-0.8-1.2-0.8c-0.6,0-1.3,0.2-1.8,0.5l-0.4-1.3c0.4-0.2,1.3-0.6,2.5-0.6c2.1,0,2.8,1.2,2.8,2.7v2.2c0,0.6,0,1.2,0.1,1.5
			h-1.7V38.3z M621.6,35.3c-1,0-1.8,0.2-1.8,1c0,0.5,0.3,0.8,0.8,0.8s0.9-0.3,1-0.7c0-0.1,0-0.2,0-0.3V35.3z"/>
	</g>
	<g>
		<path class="st8" d="M494.6,138.3c-0.4,0.2-1.3,0.4-2.4,0.4c-2.1,0-4.1-1.4-4.1-4.5c0-2.6,1.7-4.6,4.4-4.6c1.1,0,1.8,0.2,2,0.4
			l-0.2,0.5c-0.4-0.2-1.1-0.4-1.8-0.4c-2.4,0-3.8,1.5-3.8,4.1c0,2.4,1.3,3.9,3.7,3.9c0.7,0,1.5-0.2,2-0.4L494.6,138.3z"/>
		<path class="st8" d="M496.2,135.4c0,2,1.1,2.8,2.4,2.8c0.9,0,1.4-0.2,1.7-0.4l0.2,0.5c-0.2,0.1-0.9,0.4-2,0.4
			c-1.8,0-2.9-1.3-2.9-3.1c0-2.1,1.2-3.4,2.8-3.4c2,0,2.4,1.9,2.4,2.8c0,0.2,0,0.3,0,0.4H496.2z M500.1,135c0-0.9-0.4-2.2-1.9-2.2
			c-1.4,0-2,1.2-2.1,2.2H500.1z"/>
		<path class="st8" d="M502.4,133.9c0-0.6,0-1-0.1-1.5h0.6v1.1l0,0c0.3-0.7,1.1-1.3,2.1-1.3c0.6,0,2.2,0.3,2.2,2.6v3.7h-0.5v-3.7
			c0-1.1-0.4-2.2-1.7-2.2c-0.9,0-1.6,0.6-1.9,1.4c0,0.2-0.1,0.4-0.1,0.6v3.9h-0.6V133.9z"/>
		<path class="st8" d="M510.2,131v1.4h1.8v0.5h-1.8v4.1c0,0.8,0.2,1.3,0.9,1.3c0.3,0,0.6,0,0.7-0.1l0.1,0.5
			c-0.2,0.1-0.5,0.2-0.9,0.2c-0.5,0-0.8-0.1-1.1-0.4c-0.3-0.3-0.4-0.9-0.4-1.5v-3.9h-1.1v-0.5h1.1v-1.1L510.2,131z"/>
		<path class="st8" d="M513.3,134.3c0-0.6,0-1.3-0.1-1.9h0.6v1.3l0,0c0.3-0.8,0.9-1.4,1.8-1.4c0.1,0,0.2,0,0.3,0v0.6
			c-0.1,0-0.2,0-0.3,0c-0.9,0-1.5,0.7-1.6,1.7c0,0.2-0.1,0.4-0.1,0.6v3.4h-0.6L513.3,134.3L513.3,134.3z"/>
		<path class="st8" d="M522.5,135.4c0,2.3-1.6,3.3-3,3.3c-1.6,0-2.9-1.3-2.9-3.2c0-2.1,1.4-3.3,2.9-3.3
			C521.3,132.3,522.5,133.5,522.5,135.4z M517.3,135.5c0,1.6,1,2.7,2.3,2.7s2.3-1.2,2.3-2.8c0-1.1-0.6-2.7-2.3-2.7
			C518,132.8,517.3,134.2,517.3,135.5z"/>
	</g>
	<g>
		<path class="st8" d="M506.7,113.2c0.5,0.3,1.2,0.6,1.9,0.6c1.3,0,2.1-0.7,2.1-1.8c0-1-0.5-1.6-1.8-2.1c-1.4-0.5-2.2-1.2-2.2-2.4
			c0-1.3,1.1-2.2,2.5-2.2c0.8,0,1.4,0.2,1.7,0.4l-0.2,0.5c-0.2-0.2-0.8-0.4-1.5-0.4c-1.4,0-1.9,0.9-1.9,1.6c0,1,0.6,1.5,1.8,2
			c1.4,0.6,2.2,1.2,2.2,2.5s-0.9,2.4-2.8,2.4c-0.8,0-1.6-0.2-2.1-0.6L506.7,113.2z"/>
		<path class="st8" d="M517.8,112.6c0,0.5,0,1,0.1,1.5h-0.6V113l0,0c-0.3,0.6-1,1.3-2.1,1.3c-0.8,0-2.1-0.4-2.1-2.8v-3.6h0.6v3.5
			c0,1.4,0.4,2.3,1.6,2.3c0.9,0,1.6-0.6,1.8-1.3c0.1-0.2,0.1-0.4,0.1-0.7v-3.9h0.6L517.8,112.6L517.8,112.6z"/>
		<path class="st8" d="M519.9,109.8c0-0.6,0-1.3-0.1-1.9h0.6v1.3l0,0c0.3-0.8,0.9-1.4,1.8-1.4c0.1,0,0.2,0,0.3,0v0.6
			c-0.1,0-0.2,0-0.3,0c-0.9,0-1.5,0.7-1.6,1.7c0,0.2-0.1,0.4-0.1,0.6v3.4h-0.6L519.9,109.8L519.9,109.8z"/>
	</g>
	<g>
		<path class="st8" d="M458,85.5c-0.1-1.3-0.2-2.9-0.2-3.9l0,0c-0.3,0.9-0.7,2-1.2,3.3l-1.8,4.8h-0.4l-1.7-4.6
			c-0.5-1.4-0.9-2.4-1.1-3.4l0,0c0,1-0.1,2.5-0.2,4l-0.3,4h-0.6l0.6-8.8h0.7l1.9,5c0.4,1.1,0.7,2,1,2.8l0,0c0.2-0.8,0.5-1.7,1-2.8
			l2-5.1h0.7l0.6,8.8h-0.6L458,85.5z"/>
		<path class="st8" d="M460.8,86.5c0,2,1.1,2.8,2.4,2.8c0.9,0,1.4-0.2,1.7-0.4l0.2,0.5c-0.2,0.1-0.9,0.4-2,0.4
			c-1.8,0-2.9-1.3-2.9-3.1c0-2.1,1.2-3.4,2.8-3.4c2,0,2.4,1.9,2.4,2.8c0,0.2,0,0.3,0,0.4H460.8z M464.8,86c0-0.9-0.4-2.2-1.9-2.2
			c-1.4,0-2,1.2-2.1,2.2H464.8z"/>
		<path class="st8" d="M467.9,82.1v1.4h1.8V84h-1.8v4.1c0,0.8,0.2,1.3,0.9,1.3c0.3,0,0.6,0,0.7-0.1l0.1,0.5
			c-0.2,0.1-0.5,0.2-0.9,0.2c-0.5,0-0.8-0.1-1.1-0.4c-0.3-0.3-0.4-0.9-0.4-1.5V84h-1.1v-0.5h1.1v-1.1L467.9,82.1z"/>
		<path class="st8" d="M471,85.3c0-0.6,0-1.3-0.1-1.9h0.6v1.3l0,0c0.3-0.8,0.9-1.4,1.8-1.4c0.1,0,0.2,0,0.3,0v0.6
			c-0.1,0-0.2,0-0.3,0c-0.9,0-1.5,0.7-1.6,1.7c0,0.2-0.1,0.4-0.1,0.6v3.4H471L471,85.3L471,85.3z"/>
		<path class="st8" d="M480.2,86.5c0,2.3-1.6,3.3-3,3.3c-1.6,0-2.9-1.3-2.9-3.2c0-2.1,1.4-3.3,2.9-3.3
			C479,83.3,480.2,84.6,480.2,86.5z M475,86.6c0,1.6,1,2.7,2.3,2.7s2.3-1.2,2.3-2.8c0-1.1-0.6-2.7-2.3-2.7
			C475.7,83.8,475,85.2,475,86.6z"/>
		<path class="st8" d="M481.8,85.4c0-0.8,0-1.4-0.1-2h0.6v1.2l0,0c0.5-0.8,1.2-1.3,2.3-1.3c1.6,0,2.7,1.3,2.7,3.2
			c0,2.2-1.3,3.4-2.8,3.4c-0.9,0-1.7-0.4-2.1-1.2l0,0v3.6h-0.6L481.8,85.4L481.8,85.4z M482.4,87.2c0,0.2,0,0.3,0.1,0.5
			c0.3,1,1.1,1.6,2.1,1.6c1.4,0,2.2-1.2,2.2-2.8c0-1.4-0.8-2.7-2.2-2.7c-0.9,0-1.8,0.6-2.1,1.6c0,0.2-0.1,0.4-0.1,0.5V87.2z"/>
		<path class="st8" d="M494.3,86.5c0,2.3-1.6,3.3-3,3.3c-1.6,0-2.9-1.3-2.9-3.2c0-2.1,1.4-3.3,2.9-3.3
			C493.1,83.3,494.3,84.6,494.3,86.5z M489.1,86.6c0,1.6,1,2.7,2.3,2.7s2.3-1.2,2.3-2.8c0-1.1-0.6-2.7-2.3-2.7
			C489.8,83.8,489.1,85.2,489.1,86.6z"/>
		<path class="st8" d="M495.9,80.5h0.6v9.2h-0.6V80.5z"/>
		<path class="st8" d="M499.4,81.7c0,0.3-0.2,0.5-0.5,0.5s-0.5-0.2-0.5-0.5s0.2-0.5,0.5-0.5C499.2,81.1,499.4,81.4,499.4,81.7z
			 M498.6,89.7v-6.2h0.6v6.2H498.6z"/>
		<path class="st8" d="M502.2,82.1v1.4h1.8V84h-1.8v4.1c0,0.8,0.2,1.3,0.9,1.3c0.3,0,0.6,0,0.7-0.1l0.1,0.5
			c-0.2,0.1-0.5,0.2-0.9,0.2c-0.5,0-0.8-0.1-1.1-0.4c-0.3-0.3-0.4-0.9-0.4-1.5V84h-1.1v-0.5h1.1v-1.1L502.2,82.1z"/>
		<path class="st8" d="M509.2,88.2c0,0.5,0,1,0.1,1.5h-0.6l-0.1-0.9l0,0c-0.3,0.5-1,1-2,1c-1.3,0-1.8-0.9-1.8-1.7
			c0-1.4,1.3-2.3,3.8-2.3v-0.2c0-0.6-0.1-1.8-1.6-1.8c-0.5,0-1.1,0.1-1.6,0.5l-0.2-0.5c0.6-0.4,1.3-0.5,1.8-0.5
			c1.8,0,2.2,1.4,2.2,2.5L509.2,88.2L509.2,88.2z M508.6,86.4c-1.4,0-3.2,0.2-3.2,1.7c0,0.9,0.6,1.3,1.2,1.3c1,0,1.6-0.6,1.8-1.2
			c0.1-0.1,0.1-0.3,0.1-0.4v-1.4H508.6z"/>
		<path class="st8" d="M511.2,85c0-0.6,0-1-0.1-1.5h0.6v1.1l0,0c0.3-0.7,1.1-1.3,2.1-1.3c0.6,0,2.2,0.3,2.2,2.6v3.7h-0.6V86
			c0-1.1-0.4-2.2-1.7-2.2c-0.9,0-1.6,0.6-1.9,1.4c0,0.2-0.1,0.4-0.1,0.6v3.9h-0.6L511.2,85L511.2,85z"/>
		<path class="st8" d="M522.1,88.2c0,0.5,0,1,0.1,1.5h-0.6l-0.1-0.9l0,0c-0.3,0.5-1,1-2,1c-1.3,0-1.8-0.9-1.8-1.7
			c0-1.4,1.3-2.3,3.8-2.3v-0.2c0-0.6-0.1-1.8-1.6-1.8c-0.5,0-1.1,0.1-1.6,0.5l-0.2-0.5c0.6-0.4,1.3-0.5,1.8-0.5
			c1.8,0,2.2,1.4,2.2,2.5L522.1,88.2L522.1,88.2z M521.4,86.4c-1.4,0-3.2,0.2-3.2,1.7c0,0.9,0.6,1.3,1.2,1.3c1,0,1.6-0.6,1.8-1.2
			c0.1-0.1,0.1-0.3,0.1-0.4v-1.4H521.4z"/>
	</g>
	<g>
		<path class="st8" d="M494.8,65.2v-8.8h0.6l3.4,5.2c0.7,1.1,1.2,1.9,1.6,2.8l0,0c-0.1-1.2-0.1-2.2-0.1-3.6v-4.4h0.6v8.8h-0.6
			l-3.3-5.1c-0.6-1-1.2-1.9-1.7-2.8l0,0c0.1,1.1,0.1,2,0.1,3.5v4.4L494.8,65.2L494.8,65.2z"/>
		<path class="st8" d="M508.4,62c0,2.3-1.6,3.3-3,3.3c-1.6,0-2.9-1.3-2.9-3.2c0-2.1,1.4-3.3,2.9-3.3C507.2,58.8,508.4,60.1,508.4,62
			z M503.1,62.1c0,1.6,1,2.7,2.3,2.7s2.3-1.2,2.3-2.8c0-1.1-0.6-2.7-2.3-2.7C503.9,59.4,503.1,60.8,503.1,62.1z"/>
		<path class="st8" d="M509.9,60.9c0-0.6,0-1.3-0.1-1.9h0.6v1.3l0,0c0.3-0.8,0.9-1.4,1.8-1.4c0.1,0,0.2,0,0.3,0v0.6
			c-0.1,0-0.2,0-0.3,0c-0.9,0-1.5,0.7-1.6,1.7c0,0.2-0.1,0.4-0.1,0.6v3.4h-0.6L509.9,60.9L509.9,60.9z"/>
		<path class="st8" d="M514.6,57.6V59h1.8v0.5h-1.8v4.1c0,0.8,0.2,1.3,0.9,1.3c0.3,0,0.6,0,0.7-0.1l0.1,0.5
			c-0.2,0.1-0.5,0.2-0.9,0.2c-0.5,0-0.8-0.1-1.1-0.4c-0.3-0.3-0.4-0.9-0.4-1.5v-3.9h-1.1V59h1.1v-1.1L514.6,57.6z"/>
		<path class="st8" d="M517.9,62c0,2,1.1,2.8,2.4,2.8c0.9,0,1.4-0.2,1.7-0.4l0.2,0.5c-0.2,0.1-0.9,0.4-2,0.4c-1.8,0-2.9-1.3-2.9-3.1
			c0-2.1,1.2-3.4,2.8-3.4c2,0,2.4,1.9,2.4,2.8c0,0.2,0,0.3,0,0.4H517.9z M521.8,61.5c0-0.9-0.4-2.2-1.9-2.2c-1.4,0-2,1.2-2.1,2.2
			H521.8z"/>
	</g>
	<g>
		<path class="st5" d="M531,57.9h170.7c3.1,0,5.7,2.5,5.7,5.7c0,3.1-2.5,5.7-5.7,5.7H531V57.9z"/>
		<path class="st5" d="M531,82.3h111.3c3.1,0,5.7,2.5,5.7,5.7c0,3.1-2.5,5.7-5.7,5.7H531V82.3z"/>
		<path class="st5" d="M531,106.8h97.8c3.1,0,5.7,2.5,5.7,5.7c0,3.1-2.5,5.7-5.7,5.7H531V106.8z"/>
		<path class="st5" d="M531,131.3h72.3c3.1,0,5.7,2.5,5.7,5.7c0,3.1-2.5,5.7-5.7,5.7H531V131.3z"/>
		<line class="st11" x1="531" y1="149.2" x2="531" y2="51.3"/>
	</g>
	<g>
		<path class="st8" d="M532.3,364.8c0.7-0.1,1.7-0.2,2.7-0.2c1.7,0,2.7,0.3,3.6,0.9c0.9,0.7,1.5,1.8,1.5,3.3c0,1.7-0.6,2.8-1.5,3.5
			c-0.9,0.8-2.3,1.1-4,1.1c-1,0-1.8-0.1-2.2-0.1L532.3,364.8L532.3,364.8z M534.3,371.9c0.2,0,0.4,0,0.7,0c1.8,0,3-1,3-3.1
			c0-1.8-1.1-2.8-2.8-2.8c-0.4,0-0.7,0-0.9,0.1V371.9z"/>
		<path class="st8" d="M543.3,365.3c0,0.5-0.4,1-1.1,1c-0.6,0-1-0.4-1-1s0.4-1,1-1C542.9,364.3,543.3,364.7,543.3,365.3z
			 M541.3,373.4V367h2v6.3h-2V373.4z"/>
		<path class="st8" d="M546.3,367l0.9,2.9c0.2,0.5,0.3,1,0.4,1.5l0,0c0.1-0.5,0.2-1,0.4-1.5l0.8-2.9h2.1l-2.4,6.3h-2l-2.3-6.3H546.3
			z"/>
		<path class="st8" d="M553.8,365.3c0,0.5-0.4,1-1.1,1c-0.6,0-1-0.4-1-1s0.4-1,1-1S553.8,364.7,553.8,365.3z M551.7,373.4V367h2v6.3
			h-2V373.4z"/>
		<path class="st8" d="M555.3,371.7c0.4,0.2,1.1,0.5,1.7,0.5c0.6,0,0.8-0.2,0.8-0.5s-0.2-0.5-0.9-0.7c-1.3-0.4-1.8-1.2-1.8-1.9
			c0-1.2,1-2.1,2.6-2.1c0.7,0,1.4,0.2,1.8,0.4l-0.4,1.4c-0.3-0.2-0.8-0.4-1.4-0.4c-0.5,0-0.8,0.2-0.8,0.5s0.2,0.5,1,0.7
			c1.2,0.4,1.7,1,1.7,2c0,1.2-0.9,2.1-2.8,2.1c-0.8,0-1.6-0.2-2.1-0.4L555.3,371.7z"/>
		<path class="st8" d="M563,365.3c0,0.5-0.4,1-1.1,1c-0.6,0-1-0.4-1-1s0.4-1,1-1S562.9,364.7,563,365.3z M560.9,373.4V367h2v6.3h-2
			V373.4z"/>
		<path class="st8" d="M570.7,370.1c0,2.3-1.6,3.4-3.4,3.4c-1.9,0-3.3-1.2-3.3-3.3c0-2.1,1.4-3.4,3.4-3.4
			C569.4,366.9,570.7,368.2,570.7,370.1z M566.1,370.2c0,1.1,0.5,1.9,1.3,1.9s1.3-0.8,1.3-1.9c0-0.9-0.4-1.9-1.3-1.9
			C566.5,368.3,566.1,369.3,566.1,370.2z M569.5,364.3l-1.6,2h-1.4l1.1-2H569.5z"/>
		<path class="st8" d="M572,369.1c0-0.8,0-1.5-0.1-2h1.7l0.1,0.9l0,0c0.3-0.4,0.9-1,2-1c1.3,0,2.3,0.9,2.3,2.7v3.8h-2V370
			c0-0.8-0.3-1.4-1-1.4c-0.5,0-0.9,0.4-1,0.7c-0.1,0.1-0.1,0.3-0.1,0.5v3.7h-2L572,369.1L572,369.1z"/>
	</g>
	<line class="st11" x1="531" y1="484.2" x2="531" y2="386.4"/>
	<g>
		<path class="st5" d="M531,397h92.7c3.1,0,5.7,2.5,5.7,5.7c0,3.1-2.5,5.7-5.7,5.7H531V397z"/>
		<path class="st5" d="M531,429.6h49c3.3,0,6,2.5,6,5.7c0,3.1-2.7,5.7-6,5.7h-49V429.6z"/>
		<path class="st5" d="M531,462.3h-86.2c-3.8,0-6.9,2.5-6.9,5.7c0,3.1,3.1,5.7,6.9,5.7H531V462.3z"/>
	</g>
	<g>
		<path class="st8" d="M544.6,461c0.5-0.1,1.3-0.2,1.9-0.2c1.1,0,1.9,0.2,2.4,0.7c0.4,0.4,0.6,0.9,0.6,1.5c0,1.2-0.7,1.9-1.7,2.3
			l0,0c0.7,0.2,1.1,0.9,1.4,1.9c0.3,1.4,0.5,2,0.6,2.4h-0.6c-0.1-0.3-0.3-1-0.6-2.1c-0.3-1.3-0.8-1.8-2-1.9h-1.4v4h-0.6L544.6,461
			L544.6,461z M545.2,465.1h1.4c1.4,0,2.2-0.8,2.2-1.9c0-1.3-1-1.9-2.4-1.9c-0.6,0-1,0.1-1.3,0.1L545.2,465.1L545.2,465.1z"/>
		<path class="st8" d="M556.4,466.5c0,2.3-1.6,3.3-3,3.3c-1.6,0-2.9-1.3-2.9-3.2c0-2.1,1.4-3.3,2.9-3.3
			C555.3,463.3,556.4,464.6,556.4,466.5z M551.2,466.5c0,1.6,1,2.7,2.3,2.7s2.3-1.2,2.3-2.8c0-1.1-0.6-2.7-2.3-2.7
			C551.9,463.8,551.2,465.2,551.2,466.5z"/>
		<path class="st8" d="M558,465.4c0-0.8,0-1.4-0.1-2h0.6v1.2l0,0c0.5-0.8,1.2-1.3,2.3-1.3c1.6,0,2.7,1.3,2.7,3.2
			c0,2.2-1.3,3.4-2.8,3.4c-0.9,0-1.7-0.4-2.1-1.2l0,0v3.6H558L558,465.4L558,465.4z M558.6,467.2c0,0.2,0,0.3,0.1,0.5
			c0.3,1,1.1,1.6,2.1,1.6c1.4,0,2.2-1.2,2.2-2.8c0-1.4-0.8-2.7-2.2-2.7c-0.9,0-1.8,0.6-2.1,1.6c0,0.2-0.1,0.4-0.1,0.5V467.2z"/>
		<path class="st8" d="M569.1,468.2c0,0.5,0,1,0.1,1.5h-0.6l-0.1-0.9l0,0c-0.3,0.5-1,1-2,1c-1.3,0-1.8-0.9-1.8-1.7
			c0-1.4,1.3-2.3,3.8-2.3v-0.2c0-0.6-0.1-1.8-1.6-1.8c-0.5,0-1.1,0.1-1.6,0.5l-0.2-0.5c0.6-0.4,1.3-0.5,1.8-0.5
			c1.8,0,2.2,1.4,2.2,2.5L569.1,468.2L569.1,468.2z M568.5,466.3c-1.4,0-3.2,0.2-3.2,1.7c0,0.9,0.6,1.3,1.2,1.3c1,0,1.6-0.6,1.8-1.2
			c0.1-0.1,0.1-0.3,0.1-0.4v-1.4H568.5z"/>
		<path class="st8" d="M573.7,463.4l1.6,4.1c0.2,0.4,0.3,0.9,0.5,1.3l0,0c0.1-0.4,0.3-0.9,0.5-1.4l1.5-4h0.7l-1.9,4.6
			c-0.8,1.9-1.3,3.1-2.1,3.8c-0.5,0.4-0.9,0.6-1.1,0.6l-0.2-0.5c0.3-0.1,0.7-0.3,1.1-0.7c0.3-0.3,0.7-0.8,1-1.6
			c0.1-0.1,0.1-0.2,0.1-0.3s0-0.1-0.1-0.3l-2.3-5.8h0.7V463.4z"/>
		<path class="st8" d="M588.4,469.3c-0.4,0.2-1.3,0.4-2.4,0.4c-2.1,0-4.1-1.4-4.1-4.5c0-2.6,1.7-4.6,4.4-4.6c1.1,0,1.8,0.2,2,0.4
			l-0.2,0.5c-0.4-0.2-1.1-0.4-1.8-0.4c-2.4,0-3.8,1.5-3.8,4.1c0,2.4,1.4,3.9,3.7,3.9c0.7,0,1.5-0.2,2-0.4L588.4,469.3z"/>
		<path class="st8" d="M593.8,468.2c0,0.5,0,1,0.1,1.5h-0.6l-0.1-0.9l0,0c-0.3,0.5-1,1-2,1c-1.3,0-1.8-0.9-1.8-1.7
			c0-1.4,1.3-2.3,3.8-2.3v-0.2c0-0.6-0.1-1.8-1.6-1.8c-0.5,0-1.1,0.1-1.6,0.5l-0.2-0.5c0.6-0.4,1.3-0.5,1.8-0.5
			c1.8,0,2.2,1.4,2.2,2.5L593.8,468.2L593.8,468.2z M593.1,466.3c-1.4,0-3.2,0.2-3.2,1.7c0,0.9,0.6,1.3,1.2,1.3c1,0,1.6-0.6,1.8-1.2
			c0.1-0.1,0.1-0.3,0.1-0.4v-1.4H593.1z"/>
		<path class="st8" d="M595.8,460.4h0.6v9.2h-0.6V460.4z"/>
		<path class="st8" d="M597.7,469.3l3.4-4.4c0.2-0.3,0.5-0.6,0.7-0.9l0,0H598v-0.5h4.6v0.4l-3.4,4.4c-0.2,0.3-0.4,0.6-0.7,0.9l0,0
			h4.1v0.5h-4.9V469.3z"/>
		<path class="st8" d="M607.6,468.2c0,0.5,0,1,0.1,1.5h-0.6l-0.1-0.9l0,0c-0.3,0.5-1,1-2,1c-1.3,0-1.8-0.9-1.8-1.7
			c0-1.4,1.3-2.3,3.8-2.3v-0.2c0-0.6-0.1-1.8-1.6-1.8c-0.5,0-1.1,0.1-1.6,0.5l-0.2-0.5c0.6-0.4,1.3-0.5,1.8-0.5
			c1.8,0,2.2,1.4,2.2,2.5L607.6,468.2L607.6,468.2z M607,466.3c-1.4,0-3.2,0.2-3.2,1.7c0,0.9,0.6,1.3,1.2,1.3c1,0,1.6-0.6,1.8-1.2
			c0.1-0.1,0.1-0.3,0.1-0.4v-1.4H607z"/>
		<path class="st8" d="M614.6,460.4v7.8c0,0.5,0,1,0.1,1.5h-0.6l-0.1-1.2l0,0c-0.3,0.7-1.1,1.3-2.2,1.3c-1.5,0-2.7-1.3-2.7-3.1
			c0-2.1,1.3-3.4,2.8-3.4c1.1,0,1.8,0.6,2,1.1l0,0v-3.9L614.6,460.4L614.6,460.4z M614,465.9c0-0.2,0-0.4-0.1-0.6
			c-0.2-0.8-0.9-1.5-2-1.5c-1.4,0-2.2,1.2-2.2,2.8c0,1.4,0.7,2.7,2.2,2.7c0.9,0,1.7-0.6,2-1.6c0.1-0.2,0.1-0.3,0.1-0.5V465.9z"/>
		<path class="st8" d="M622,466.5c0,2.3-1.6,3.3-3,3.3c-1.6,0-2.9-1.3-2.9-3.2c0-2.1,1.4-3.3,2.9-3.3
			C620.9,463.3,622,464.6,622,466.5z M616.8,466.5c0,1.6,1,2.7,2.3,2.7s2.3-1.2,2.3-2.8c0-1.1-0.6-2.7-2.3-2.7
			C617.5,463.8,616.8,465.2,616.8,466.5z"/>
	</g>
	<g>
		<path class="st8" d="M418.7,432.9c-0.1-1.3-0.2-2.9-0.2-3.9l0,0c-0.3,0.9-0.7,2-1.2,3.3l-1.8,4.8h-0.4l-1.7-4.6
			c-0.5-1.4-0.9-2.4-1.1-3.4l0,0c0,1-0.1,2.5-0.2,4l-0.3,4h-0.6l0.6-8.8h0.7l1.9,5c0.4,1.1,0.7,2,1,2.8l0,0c0.2-0.8,0.5-1.7,1-2.8
			l2-5.1h0.7l0.6,8.8h-0.6L418.7,432.9z"/>
		<path class="st8" d="M421.5,433.8c0,2,1.1,2.8,2.4,2.8c0.9,0,1.4-0.2,1.7-0.4l0.2,0.5c-0.2,0.1-0.9,0.4-2,0.4
			c-1.8,0-2.9-1.3-2.9-3.1c0-2.1,1.2-3.4,2.8-3.4c2,0,2.4,1.9,2.4,2.8c0,0.2,0,0.3,0,0.4H421.5z M425.5,433.3c0-0.9-0.4-2.2-1.9-2.2
			c-1.4,0-2,1.2-2.1,2.2H425.5z"/>
		<path class="st8" d="M427.7,432.7c0-0.6,0-1.3-0.1-1.9h0.6v1.3l0,0c0.3-0.8,0.9-1.4,1.8-1.4c0.1,0,0.2,0,0.3,0v0.6
			c-0.1,0-0.2,0-0.3,0c-0.9,0-1.5,0.7-1.6,1.7c0,0.2-0.1,0.4-0.1,0.6v3.4h-0.6V432.7z"/>
		<path class="st8" d="M435.9,436.7c-0.3,0.1-0.9,0.4-1.8,0.4c-1.8,0-3-1.3-3-3.2c0-2,1.4-3.3,3.2-3.3c0.8,0,1.4,0.2,1.6,0.4
			l-0.2,0.5c-0.3-0.2-0.8-0.4-1.5-0.4c-1.7,0-2.5,1.3-2.5,2.7c0,1.6,1,2.7,2.5,2.7c0.7,0,1.2-0.2,1.6-0.4L435.9,436.7z"/>
		<path class="st8" d="M441.2,435.5c0,0.5,0,1,0.1,1.5h-0.6l-0.1-0.9l0,0c-0.3,0.5-1,1-2,1c-1.3,0-1.8-0.9-1.8-1.7
			c0-1.4,1.3-2.3,3.8-2.3V433c0-0.6-0.1-1.8-1.6-1.8c-0.5,0-1.1,0.1-1.6,0.5l-0.2-0.5c0.6-0.4,1.3-0.5,1.8-0.5
			c1.8,0,2.2,1.4,2.2,2.5L441.2,435.5L441.2,435.5z M440.6,433.7c-1.4,0-3.2,0.2-3.2,1.7c0,0.9,0.6,1.3,1.2,1.3c1,0,1.6-0.6,1.8-1.2
			c0.1-0.1,0.1-0.3,0.1-0.4v-1.4H440.6z"/>
		<path class="st8" d="M443.3,432.3c0-0.6,0-1-0.1-1.5h0.6v1.1l0,0c0.3-0.7,1.1-1.3,2.1-1.3c0.6,0,2.2,0.3,2.2,2.6v3.7h-0.6v-3.7
			c0-1.1-0.4-2.2-1.7-2.2c-0.9,0-1.6,0.6-1.9,1.4c0,0.2-0.1,0.4-0.1,0.6v3.9h-0.6v-4.6H443.3z"/>
		<path class="st8" d="M454.5,436.7c-0.3,0.1-0.9,0.4-1.8,0.4c-1.8,0-3-1.3-3-3.2c0-2,1.4-3.3,3.2-3.3c0.8,0,1.4,0.2,1.6,0.4
			l-0.2,0.5c-0.3-0.2-0.8-0.4-1.5-0.4c-1.7,0-2.5,1.3-2.5,2.7c0,1.6,1,2.7,2.5,2.7c0.7,0,1.2-0.2,1.6-0.4L454.5,436.7z"/>
		<path class="st8" d="M457.9,428.1l-1.6,1.8h-0.5l1.2-1.8H457.9z M456,437v-6.2h0.6v6.2H456z"/>
		<path class="st8" d="M462.6,435.5c0,0.5,0,1,0.1,1.5h-0.6l-0.1-0.9l0,0c-0.3,0.5-1,1-2,1c-1.3,0-1.8-0.9-1.8-1.7
			c0-1.4,1.3-2.3,3.8-2.3V433c0-0.6-0.1-1.8-1.6-1.8c-0.5,0-1.1,0.1-1.6,0.5l-0.2-0.5c0.6-0.4,1.3-0.5,1.8-0.5
			c1.8,0,2.2,1.4,2.2,2.5L462.6,435.5L462.6,435.5z M462,433.7c-1.4,0-3.2,0.2-3.2,1.7c0,0.9,0.6,1.3,1.2,1.3c1,0,1.6-0.6,1.8-1.2
			c0.1-0.1,0.1-0.3,0.1-0.4v-1.4H462z"/>
		<path class="st8" d="M464.3,436.2c0.3,0.2,0.8,0.4,1.4,0.4c1,0,1.5-0.5,1.5-1.2s-0.4-1.1-1.3-1.4c-1-0.4-1.6-0.9-1.6-1.7
			c0-0.9,0.7-1.7,1.9-1.7c0.6,0,1.1,0.2,1.4,0.4l-0.2,0.5c-0.2-0.2-0.6-0.4-1.2-0.4c-0.8,0-1.2,0.5-1.2,1.1s0.4,0.9,1.3,1.3
			c1,0.4,1.6,0.9,1.6,1.8c0,1.1-0.8,1.8-2.1,1.8c-0.6,0-1.2-0.2-1.6-0.4L464.3,436.2z"/>
		<path class="st8" d="M478.6,436.6c-0.4,0.2-1.4,0.5-2.6,0.5s-2.2-0.3-3.1-1.1c-0.7-0.7-1.2-1.9-1.2-3.3c0-2.4,1.6-4.5,4.6-4.5
			c0.9,0,1.7,0.2,2,0.4l-0.2,0.5c-0.5-0.2-1-0.4-1.9-0.4c-2.4,0-3.9,1.6-3.9,3.9c0,2.5,1.4,3.9,3.8,3.9c0.9,0,1.5-0.1,1.8-0.3v-3.1
			h-2v-0.5h2.6v4H478.6z"/>
		<path class="st8" d="M480.5,433.8c0,2,1.1,2.8,2.4,2.8c0.9,0,1.4-0.2,1.7-0.4l0.2,0.5c-0.2,0.1-0.9,0.4-2,0.4
			c-1.8,0-2.9-1.3-2.9-3.1c0-2.1,1.2-3.4,2.8-3.4c2,0,2.4,1.9,2.4,2.8c0,0.2,0,0.3,0,0.4H480.5z M484.5,433.3c0-0.9-0.4-2.2-1.9-2.2
			c-1.4,0-2,1.2-2.1,2.2H484.5z"/>
		<path class="st8" d="M486.7,432.3c0-0.6,0-1-0.1-1.5h0.6v1.1l0,0c0.3-0.7,1.1-1.3,2.1-1.3c0.6,0,2.2,0.3,2.2,2.6v3.7h-0.6v-3.7
			c0-1.1-0.4-2.2-1.7-2.2c-0.9,0-1.6,0.6-1.9,1.4c0,0.2-0.1,0.4-0.1,0.6v3.9h-0.5V432.3z"/>
		<path class="st8" d="M493.7,433.8c0,2,1.1,2.8,2.4,2.8c0.9,0,1.4-0.2,1.7-0.4l0.2,0.5c-0.2,0.1-0.9,0.4-2,0.4
			c-1.8,0-2.9-1.3-2.9-3.1c0-2.1,1.2-3.4,2.8-3.4c2,0,2.4,1.9,2.4,2.8c0,0.2,0,0.3,0,0.4H493.7z M497.7,433.3c0-0.9-0.4-2.2-1.9-2.2
			c-1.4,0-2,1.2-2.1,2.2H497.7z"/>
		<path class="st8" d="M499.9,432.7c0-0.6,0-1.3-0.1-1.9h0.6v1.3l0,0c0.3-0.8,0.9-1.4,1.8-1.4c0.1,0,0.2,0,0.3,0v0.6
			c-0.1,0-0.2,0-0.3,0c-0.9,0-1.5,0.7-1.6,1.7c0,0.2-0.1,0.4-0.1,0.6v3.4h-0.6L499.9,432.7L499.9,432.7z"/>
		<path class="st8" d="M507.7,435.5c0,0.5,0,1,0.1,1.5h-0.6l-0.1-0.9l0,0c-0.3,0.5-1,1-2,1c-1.3,0-1.8-0.9-1.8-1.7
			c0-1.4,1.3-2.3,3.8-2.3V433c0-0.6-0.1-1.8-1.6-1.8c-0.5,0-1.1,0.1-1.6,0.5l-0.2-0.5c0.6-0.4,1.3-0.5,1.8-0.5
			c1.8,0,2.2,1.4,2.2,2.5L507.7,435.5L507.7,435.5z M507,433.7c-1.4,0-3.2,0.2-3.2,1.7c0,0.9,0.6,1.3,1.2,1.3c1,0,1.6-0.6,1.8-1.2
			c0.1-0.1,0.1-0.3,0.1-0.4v-1.4H507z"/>
		<path class="st8" d="M509.7,427.8h0.6v9.2h-0.6V427.8z"/>
		<path class="st8" d="M512.5,433.8c0,2,1.1,2.8,2.4,2.8c0.9,0,1.4-0.2,1.7-0.4l0.2,0.5c-0.2,0.1-0.9,0.4-2,0.4
			c-1.8,0-2.9-1.3-2.9-3.1c0-2.1,1.2-3.4,2.8-3.4c2,0,2.4,1.9,2.4,2.8c0,0.2,0,0.3,0,0.4H512.5z M516.5,433.3c0-0.9-0.4-2.2-1.9-2.2
			c-1.4,0-2,1.2-2.1,2.2H516.5z"/>
		<path class="st8" d="M518.4,436.2c0.3,0.2,0.8,0.4,1.4,0.4c1,0,1.5-0.5,1.5-1.2s-0.4-1.1-1.3-1.4c-1-0.4-1.6-0.9-1.6-1.7
			c0-0.9,0.7-1.7,1.9-1.7c0.6,0,1.1,0.2,1.4,0.4l-0.2,0.5c-0.2-0.2-0.6-0.4-1.2-0.4c-0.8,0-1.2,0.5-1.2,1.1s0.4,0.9,1.3,1.3
			c1,0.4,1.6,0.9,1.6,1.8c0,1.1-0.8,1.8-2.1,1.8c-0.6,0-1.2-0.2-1.6-0.4L518.4,436.2z"/>
	</g>
	<g>
		<path class="st8" d="M446.7,403.4c0.5,0.3,1.2,0.6,1.9,0.6c1.3,0,2.1-0.7,2.1-1.8c0-1-0.5-1.6-1.8-2.1c-1.4-0.5-2.2-1.2-2.2-2.4
			c0-1.3,1.1-2.2,2.5-2.2c0.8,0,1.4,0.2,1.7,0.4l-0.2,0.5c-0.2-0.2-0.8-0.4-1.5-0.4c-1.4,0-1.9,0.9-1.9,1.6c0,1,0.6,1.5,1.8,2
			c1.4,0.6,2.2,1.2,2.2,2.5s-0.9,2.4-2.8,2.4c-0.8,0-1.6-0.2-2.1-0.6L446.7,403.4z"/>
		<path class="st8" d="M457.8,402.9c0,0.5,0,1,0.1,1.5h-0.6v-1.1l0,0c-0.3,0.6-1,1.3-2.1,1.3c-0.8,0-2.1-0.4-2.1-2.8v-3.6h0.6v3.5
			c0,1.4,0.4,2.3,1.6,2.3c0.9,0,1.6-0.6,1.8-1.3c0.1-0.2,0.1-0.4,0.1-0.7v-3.9h0.6V402.9z"/>
		<path class="st8" d="M459.8,400.2c0-0.8,0-1.4-0.1-2h0.6v1.2l0,0c0.5-0.8,1.2-1.3,2.3-1.3c1.6,0,2.7,1.3,2.7,3.2
			c0,2.2-1.3,3.4-2.8,3.4c-0.9,0-1.7-0.4-2.1-1.2l0,0v3.6h-0.6V400.2z M460.5,401.9c0,0.2,0,0.3,0.1,0.5c0.3,1,1.1,1.6,2.1,1.6
			c1.4,0,2.2-1.2,2.2-2.8c0-1.4-0.8-2.7-2.2-2.7c-0.9,0-1.8,0.6-2.1,1.6c0,0.2-0.1,0.4-0.1,0.5V401.9z"/>
		<path class="st8" d="M467.1,401.2c0,2,1.1,2.8,2.4,2.8c0.9,0,1.4-0.2,1.7-0.4l0.2,0.5c-0.2,0.1-0.9,0.4-2,0.4
			c-1.8,0-2.9-1.3-2.9-3.1c0-2.1,1.2-3.4,2.8-3.4c2,0,2.4,1.9,2.4,2.8c0,0.2,0,0.3,0,0.4L467.1,401.2L467.1,401.2z M471.1,400.7
			c0-0.9-0.4-2.2-1.9-2.2c-1.4,0-2,1.2-2.1,2.2H471.1z"/>
		<path class="st8" d="M473.3,400c0-0.6,0-1.3-0.1-1.9h0.6v1.3l0,0c0.3-0.8,0.9-1.4,1.8-1.4c0.1,0,0.2,0,0.3,0v0.6
			c-0.1,0-0.2,0-0.3,0c-0.9,0-1.5,0.7-1.6,1.7c0,0.2-0.1,0.4-0.1,0.6v3.4h-0.6L473.3,400L473.3,400z"/>
		<path class="st8" d="M477.1,399.7c0-0.6,0-1-0.1-1.5h0.6v1.1l0,0c0.4-0.7,1-1.2,2-1.2c0.9,0,1.5,0.6,1.8,1.4l0,0
			c0.2-0.4,0.4-0.6,0.6-0.8c0.4-0.3,0.8-0.5,1.5-0.5c0.6,0,2,0.3,2,2.7v3.7h-0.6V401c0-1.4-0.5-2.2-1.6-2.2c-0.8,0-1.4,0.6-1.6,1.2
			c-0.1,0.2-0.1,0.4-0.1,0.6v4H481v-3.9c0-1.1-0.5-1.9-1.5-1.9c-0.8,0-1.5,0.7-1.7,1.4c-0.1,0.2-0.1,0.4-0.1,0.6v3.8h-0.6
			L477.1,399.7L477.1,399.7z"/>
		<path class="st8" d="M487.9,401.2c0,2,1.1,2.8,2.4,2.8c0.9,0,1.4-0.2,1.7-0.4l0.2,0.5c-0.2,0.1-0.9,0.4-2,0.4
			c-1.8,0-2.9-1.3-2.9-3.1c0-2.1,1.2-3.4,2.8-3.4c2,0,2.4,1.9,2.4,2.8c0,0.2,0,0.3,0,0.4L487.9,401.2L487.9,401.2z M491.8,400.7
			c0-0.9-0.4-2.2-1.9-2.2c-1.4,0-2,1.2-2.1,2.2H491.8z"/>
		<path class="st8" d="M494.1,400c0-0.6,0-1.3-0.1-1.9h0.6v1.3l0,0c0.3-0.8,0.9-1.4,1.8-1.4c0.1,0,0.2,0,0.3,0v0.6
			c-0.1,0-0.2,0-0.3,0c-0.9,0-1.5,0.7-1.6,1.7c0,0.2-0.1,0.4-0.1,0.6v3.4h-0.6L494.1,400L494.1,400z"/>
		<path class="st8" d="M502.2,404.1c-0.3,0.1-0.9,0.4-1.8,0.4c-1.8,0-3-1.3-3-3.2c0-2,1.4-3.3,3.2-3.3c0.8,0,1.4,0.2,1.6,0.4
			l-0.2,0.5c-0.3-0.2-0.8-0.4-1.5-0.4c-1.7,0-2.5,1.3-2.5,2.7c0,1.6,1,2.7,2.5,2.7c0.7,0,1.2-0.2,1.6-0.4L502.2,404.1z"/>
		<path class="st8" d="M507.6,402.9c0,0.5,0,1,0.1,1.5h-0.6l-0.1-0.9l0,0c-0.3,0.5-1,1-2,1c-1.3,0-1.8-0.9-1.8-1.7
			c0-1.4,1.3-2.3,3.8-2.3v-0.2c0-0.6-0.1-1.8-1.6-1.8c-0.5,0-1.1,0.1-1.6,0.5l-0.2-0.5c0.6-0.4,1.3-0.5,1.8-0.5
			c1.8,0,2.2,1.4,2.2,2.5L507.6,402.9L507.6,402.9z M506.9,401.1c-1.4,0-3.2,0.2-3.2,1.7c0,0.9,0.6,1.3,1.2,1.3c1,0,1.6-0.6,1.8-1.2
			c0.1-0.1,0.1-0.3,0.1-0.4v-1.4H506.9z"/>
		<path class="st8" d="M514.6,395.2v7.8c0,0.5,0,1,0.1,1.5h-0.6l-0.1-1.2l0,0c-0.3,0.7-1.1,1.3-2.2,1.3c-1.5,0-2.7-1.3-2.7-3.1
			c0-2.1,1.3-3.4,2.8-3.4c1.1,0,1.8,0.6,2,1.1l0,0v-3.9L514.6,395.2L514.6,395.2z M513.9,400.6c0-0.2,0-0.4-0.1-0.6
			c-0.2-0.8-0.9-1.5-2-1.5c-1.4,0-2.2,1.2-2.2,2.8c0,1.4,0.7,2.7,2.2,2.7c0.9,0,1.7-0.6,2-1.6c0.1-0.2,0.1-0.3,0.1-0.5V400.6z"/>
		<path class="st8" d="M522,401.2c0,2.3-1.6,3.3-3,3.3c-1.6,0-2.9-1.3-2.9-3.2c0-2.1,1.4-3.3,2.9-3.3C520.8,398,522,399.3,522,401.2
			z M516.7,401.3c0,1.6,1,2.7,2.3,2.7s2.3-1.2,2.3-2.8c0-1.1-0.6-2.7-2.3-2.7C517.5,398.5,516.7,400,516.7,401.3z"/>
	</g>
	<g>
		<path class="st8" d="M239.2,364.7c0.6-0.1,1.5-0.2,2.7-0.2s2.1,0.2,2.7,0.7c0.6,0.4,0.9,1.2,0.9,2c0,0.9-0.3,1.6-0.8,2.1
			c-0.7,0.6-1.7,0.9-2.8,0.9c-0.3,0-0.5,0-0.7,0v3.1h-2L239.2,364.7L239.2,364.7z M241.2,368.6c0.2,0,0.4,0.1,0.7,0.1
			c1.1,0,1.7-0.5,1.7-1.4c0-0.8-0.6-1.3-1.5-1.3c-0.4,0-0.7,0-0.8,0.1v2.5H241.2z"/>
		<path class="st8" d="M250.3,373.3l-0.1-0.6l0,0c-0.4,0.5-1.1,0.8-1.8,0.8c-1.3,0-2.1-0.9-2.1-1.9c0-1.6,1.5-2.4,3.7-2.4V369
			c0-0.3-0.2-0.8-1.2-0.8c-0.6,0-1.3,0.2-1.8,0.5l-0.4-1.3c0.4-0.2,1.3-0.6,2.5-0.6c2.1,0,2.8,1.2,2.8,2.7v2.2c0,0.6,0,1.2,0.1,1.5
			L250.3,373.3L250.3,373.3z M250.1,370.3c-1,0-1.8,0.2-1.8,1c0,0.5,0.3,0.8,0.8,0.8s0.9-0.3,1-0.7c0-0.1,0-0.2,0-0.3V370.3z"/>
		<path class="st8" d="M253.6,373.3V367h2v6.3H253.6z M256.7,364.2l-1.6,2h-1.4l1.1-2H256.7z"/>
		<path class="st8" d="M257.1,371.6c0.4,0.2,1.1,0.5,1.7,0.5s0.8-0.2,0.8-0.5s-0.2-0.5-0.9-0.7c-1.3-0.4-1.8-1.2-1.8-1.9
			c0-1.2,1-2.1,2.6-2.1c0.7,0,1.4,0.2,1.8,0.4l-0.4,1.4c-0.3-0.2-0.8-0.4-1.4-0.4c-0.5,0-0.8,0.2-0.8,0.5s0.2,0.5,1,0.7
			c1.2,0.4,1.7,1,1.7,2c0,1.2-0.9,2.1-2.8,2.1c-0.8,0-1.6-0.2-2.1-0.4L257.1,371.6z"/>
	</g>
	<g>
		<path class="st12" d="M238.4,390.5H284c3.1,0,5.7,2.5,5.7,5.7c0,3.1-2.5,5.7-5.7,5.7h-45.6V390.5z"/>
		<path class="st12" d="M238.4,410.1H274c3.1,0,5.7,2.5,5.7,5.7c0,3.1-2.5,5.7-5.7,5.7h-35.6V410.1z"/>
		<path class="st12" d="M238.4,429.6L238.4,429.6c1.3,0,2.4,1.1,2.4,2.4v6.5c0,1.3-1.1,2.4-2.4,2.4V429.6z"/>
		<path class="st12" d="M238.4,449.2h-9.2c-3.1,0-5.7,2.5-5.7,5.7c0,3.1,2.5,5.7,5.7,5.7h9.2V449.2z"/>
		<path class="st12" d="M238.4,468.8H44.9c-3.1,0-5.7,2.5-5.7,5.7c0,3.1,2.5,5.7,5.7,5.7h193.4v-11.4H238.4z"/>
	</g>
	<g>
		<path class="st8" d="M251,467.4v3.9h4.8v-3.9h0.6v8.8h-0.6v-4.4H251v4.4h-0.6v-8.8H251z"/>
		<path class="st8" d="M263.9,473c0,2.3-1.6,3.3-3,3.3c-1.6,0-2.9-1.3-2.9-3.2c0-2.1,1.4-3.3,2.9-3.3
			C262.7,469.8,263.9,471.1,263.9,473z M258.6,473.1c0,1.6,1,2.7,2.3,2.7s2.3-1.2,2.3-2.8c0-1.1-0.6-2.7-2.3-2.7
			C259.4,470.3,258.6,471.7,258.6,473.1z"/>
		<path class="st8" d="M265.4,471.4c0-0.6,0-1-0.1-1.5h0.6v1.1l0,0c0.3-0.7,1.1-1.3,2.1-1.3c0.6,0,2.2,0.3,2.2,2.6v3.7h-0.5v-3.7
			c0-1.1-0.4-2.2-1.7-2.2c-0.9,0-1.6,0.6-1.9,1.4c0,0.2-0.1,0.4-0.1,0.6v3.9h-0.6L265.4,471.4L265.4,471.4z"/>
		<path class="st8" d="M277.4,466.9v7.8c0,0.5,0,1,0.1,1.5h-0.6l-0.1-1.2l0,0c-0.3,0.7-1.1,1.3-2.2,1.3c-1.5,0-2.7-1.3-2.7-3.1
			c0-2.1,1.3-3.4,2.8-3.4c1.1,0,1.8,0.6,2,1.1l0,0V467L277.4,466.9L277.4,466.9z M276.7,472.4c0-0.2,0-0.4-0.1-0.6
			c-0.2-0.8-0.9-1.5-2-1.5c-1.4,0-2.2,1.2-2.2,2.8c0,1.4,0.7,2.7,2.2,2.7c0.9,0,1.7-0.6,2-1.6c0.1-0.2,0.1-0.3,0.1-0.5V472.4z"/>
		<path class="st8" d="M284.3,474.6c0,0.5,0,1,0.1,1.5h-0.7V475l0,0c-0.3,0.6-1,1.3-2.1,1.3c-0.8,0-2.1-0.4-2.1-2.8v-3.6h0.6v3.5
			c0,1.4,0.4,2.3,1.6,2.3c0.9,0,1.6-0.6,1.8-1.3c0.1-0.2,0.1-0.4,0.1-0.7v-3.9h0.6v4.8H284.3z"/>
		<path class="st8" d="M286.3,471.8c0-0.6,0-1.3-0.1-1.9h0.6v1.3l0,0c0.3-0.8,0.9-1.4,1.8-1.4c0.1,0,0.2,0,0.3,0v0.6
			c-0.1,0-0.2,0-0.3,0c-0.9,0-1.5,0.7-1.6,1.7c0,0.2-0.1,0.4-0.1,0.6v3.4h-0.6L286.3,471.8L286.3,471.8z"/>
		<path class="st8" d="M294.1,474.7c0,0.5,0,1,0.1,1.5h-0.6l-0.1-0.9l0,0c-0.3,0.5-1,1-2,1c-1.3,0-1.8-0.9-1.8-1.7
			c0-1.4,1.3-2.3,3.8-2.3v-0.2c0-0.6-0.1-1.8-1.6-1.8c-0.5,0-1.1,0.1-1.6,0.5l-0.2-0.5c0.6-0.4,1.3-0.5,1.8-0.5
			c1.8,0,2.2,1.4,2.2,2.5L294.1,474.7L294.1,474.7z M293.4,472.8c-1.4,0-3.2,0.2-3.2,1.7c0,0.9,0.6,1.3,1.2,1.3c1,0,1.6-0.6,1.8-1.2
			c0.1-0.1,0.1-0.3,0.1-0.4v-1.4H293.4z"/>
		<path class="st8" d="M295.8,475.3c0.3,0.2,0.8,0.4,1.4,0.4c1,0,1.5-0.5,1.5-1.2s-0.4-1.1-1.3-1.4c-1-0.4-1.6-0.9-1.6-1.7
			c0-0.9,0.7-1.7,1.9-1.7c0.6,0,1.1,0.2,1.4,0.4l-0.2,0.5c-0.2-0.2-0.6-0.4-1.2-0.4c-0.8,0-1.2,0.5-1.2,1.1s0.4,0.9,1.3,1.3
			c1,0.4,1.6,0.9,1.6,1.8c0,1.1-0.8,1.8-2.1,1.8c-0.6,0-1.2-0.2-1.6-0.4L295.8,475.3z"/>
	</g>
	<g>
		<path class="st8" d="M256.9,456.3c-0.4,0.2-1.3,0.4-2.4,0.4c-2.1,0-4.1-1.4-4.1-4.5c0-2.6,1.7-4.6,4.4-4.6c1.1,0,1.8,0.2,2,0.4
			l-0.2,0.5c-0.4-0.2-1.1-0.4-1.8-0.4c-2.4,0-3.8,1.5-3.8,4.1c0,2.4,1.4,3.9,3.7,3.9c0.7,0,1.5-0.2,2-0.4L256.9,456.3z"/>
		<path class="st8" d="M263.7,453.4c0,2.3-1.6,3.3-3,3.3c-1.6,0-2.9-1.3-2.9-3.2c0-2.1,1.4-3.3,2.9-3.3
			C262.5,450.2,263.7,451.5,263.7,453.4z M258.4,453.5c0,1.6,1,2.7,2.3,2.7s2.3-1.2,2.3-2.8c0-1.1-0.6-2.7-2.3-2.7
			C259.1,450.7,258.4,452.1,258.4,453.5z"/>
		<path class="st8" d="M265,455.8c0.3,0.2,0.8,0.4,1.4,0.4c1,0,1.5-0.5,1.5-1.2s-0.4-1.1-1.3-1.4c-1-0.4-1.6-0.9-1.6-1.7
			c0-0.9,0.7-1.7,1.9-1.7c0.6,0,1.1,0.2,1.4,0.4l-0.2,0.5c-0.2-0.2-0.6-0.4-1.2-0.4c-0.8,0-1.2,0.5-1.2,1.1s0.4,0.9,1.3,1.3
			c1,0.4,1.6,0.9,1.6,1.8c0,1.1-0.8,1.8-2.1,1.8c-0.6,0-1.2-0.2-1.6-0.4L265,455.8z"/>
		<path class="st8" d="M270.9,449v1.4h1.8v0.5h-1.8v4.1c0,0.8,0.2,1.3,0.9,1.3c0.3,0,0.6,0,0.7-0.1l0.1,0.5
			c-0.2,0.1-0.5,0.2-0.9,0.2c-0.5,0-0.8-0.1-1.1-0.4c-0.3-0.3-0.4-0.9-0.4-1.5v-3.9h-1.1v-0.5h1.1v-1.1L270.9,449z"/>
		<path class="st8" d="M278,455.1c0,0.5,0,1,0.1,1.5h-0.6l-0.1-0.9l0,0c-0.3,0.5-1,1-2,1c-1.3,0-1.8-0.9-1.8-1.7
			c0-1.4,1.3-2.3,3.8-2.3v-0.2c0-0.6-0.1-1.8-1.6-1.8c-0.5,0-1.1,0.1-1.6,0.5l-0.2-0.5c0.6-0.4,1.3-0.5,1.8-0.5
			c1.8,0,2.2,1.4,2.2,2.5L278,455.1L278,455.1z M277.3,453.3c-1.4,0-3.2,0.2-3.2,1.7c0,0.9,0.6,1.3,1.2,1.3c1,0,1.6-0.6,1.8-1.2
			c0.1-0.1,0.1-0.3,0.1-0.4v-1.4H277.3z"/>
		<path class="st8" d="M282.8,448c0.5-0.1,1.3-0.2,1.9-0.2c1.1,0,1.9,0.2,2.4,0.7c0.4,0.4,0.6,0.9,0.6,1.5c0,1.2-0.7,1.9-1.7,2.3
			l0,0c0.7,0.2,1.1,0.9,1.4,1.9c0.3,1.4,0.5,2,0.6,2.4h-0.6c-0.1-0.3-0.3-1-0.6-2.1c-0.3-1.3-0.8-1.8-2-1.9h-1.4v4h-0.6L282.8,448
			L282.8,448z M283.4,452.1h1.4c1.4,0,2.2-0.8,2.2-1.9c0-1.3-1-1.9-2.4-1.9c-0.6,0-1,0.1-1.3,0.1L283.4,452.1L283.4,452.1z"/>
		<path class="st8" d="M290.2,448.6c0,0.3-0.2,0.5-0.5,0.5s-0.5-0.2-0.5-0.5s0.2-0.5,0.5-0.5S290.2,448.3,290.2,448.6z M289.4,456.6
			v-6.2h0.6v6.2H289.4z"/>
		<path class="st8" d="M296.4,456.3c-0.3,0.1-0.9,0.4-1.8,0.4c-1.8,0-3-1.3-3-3.2c0-2,1.4-3.3,3.2-3.3c0.8,0,1.4,0.2,1.6,0.4
			l-0.2,0.5c-0.3-0.2-0.8-0.4-1.5-0.4c-1.7,0-2.5,1.3-2.5,2.7c0,1.6,1,2.7,2.5,2.7c0.7,0,1.2-0.2,1.6-0.4L296.4,456.3z"/>
		<path class="st8" d="M301.8,455.1c0,0.5,0,1,0.1,1.5h-0.6l-0.1-0.9l0,0c-0.3,0.5-1,1-2,1c-1.3,0-1.8-0.9-1.8-1.7
			c0-1.4,1.3-2.3,3.8-2.3v-0.2c0-0.6-0.1-1.8-1.6-1.8c-0.5,0-1.1,0.1-1.6,0.5l-0.2-0.5c0.6-0.4,1.3-0.5,1.8-0.5
			c1.8,0,2.2,1.4,2.2,2.5L301.8,455.1L301.8,455.1z M301.1,453.3c-1.4,0-3.2,0.2-3.2,1.7c0,0.9,0.6,1.3,1.2,1.3c1,0,1.6-0.6,1.8-1.2
			c0.1-0.1,0.1-0.3,0.1-0.4v-1.4H301.1z"/>
	</g>
	<g>
		<path class="st8" d="M175.8,436.6c-0.4,0.2-1.4,0.5-2.6,0.5c-1.2,0-2.2-0.3-3.1-1.1c-0.7-0.7-1.2-1.9-1.2-3.3
			c0-2.4,1.6-4.5,4.6-4.5c0.9,0,1.7,0.2,2,0.4l-0.2,0.5c-0.5-0.2-1-0.4-1.9-0.4c-2.4,0-3.9,1.6-3.9,3.9c0,2.5,1.4,3.9,3.8,3.9
			c0.9,0,1.5-0.1,1.8-0.3v-3.1h-2v-0.5h2.6L175.8,436.6L175.8,436.6z"/>
		<path class="st8" d="M182.4,435.5c0,0.5,0,1,0.1,1.5h-0.6v-1.1l0,0c-0.3,0.6-1,1.3-2.1,1.3c-0.8,0-2.1-0.4-2.1-2.8v-3.6h0.6v3.5
			c0,1.4,0.4,2.3,1.6,2.3c0.9,0,1.6-0.6,1.8-1.3c0.1-0.2,0.1-0.4,0.1-0.7v-3.9h0.6L182.4,435.5L182.4,435.5z"/>
		<path class="st8" d="M188.4,435.5c0,0.5,0,1,0.1,1.5h-0.6l-0.1-0.9l0,0c-0.3,0.5-1,1-2,1c-1.3,0-1.8-0.9-1.8-1.7
			c0-1.4,1.3-2.3,3.8-2.3V433c0-0.6-0.1-1.8-1.6-1.8c-0.5,0-1.1,0.1-1.6,0.5l-0.2-0.5c0.6-0.4,1.3-0.5,1.8-0.5
			c1.8,0,2.2,1.4,2.2,2.5L188.4,435.5L188.4,435.5z M187.7,433.7c-1.4,0-3.2,0.2-3.2,1.7c0,0.9,0.6,1.3,1.2,1.3c1,0,1.6-0.6,1.8-1.2
			c0.1-0.1,0.1-0.3,0.1-0.4L187.7,433.7L187.7,433.7z"/>
		<path class="st8" d="M191.2,429.4v1.4h1.8v0.5h-1.8v4.1c0,0.8,0.2,1.3,0.9,1.3c0.3,0,0.6,0,0.7-0.1l0.1,0.5
			c-0.2,0.1-0.5,0.2-0.9,0.2c-0.5,0-0.8-0.1-1.1-0.4c-0.3-0.3-0.4-0.9-0.4-1.5v-3.9h-1.1V431h1.1v-1.1L191.2,429.4z"/>
		<path class="st8" d="M194.5,433.8c0,2,1.1,2.8,2.4,2.8c0.9,0,1.4-0.2,1.7-0.4l0.2,0.5c-0.2,0.1-0.9,0.4-2,0.4
			c-1.8,0-2.9-1.3-2.9-3.1c0-2.1,1.2-3.4,2.8-3.4c2,0,2.4,1.9,2.4,2.8c0,0.2,0,0.3,0,0.4H194.5z M198.4,433.3c0-0.9-0.4-2.2-1.9-2.2
			c-1.4,0-2,1.2-2.1,2.2H198.4z"/>
		<path class="st8" d="M200.7,432.3c0-0.6,0-1-0.1-1.5h0.6v1.1l0,0c0.4-0.7,1-1.2,2-1.2c0.9,0,1.5,0.6,1.8,1.4l0,0
			c0.2-0.4,0.4-0.6,0.6-0.8c0.4-0.3,0.8-0.5,1.5-0.5c0.6,0,2,0.3,2,2.7v3.7h-0.6v-3.6c0-1.4-0.5-2.2-1.6-2.2c-0.8,0-1.4,0.6-1.6,1.2
			c-0.1,0.2-0.1,0.4-0.1,0.6v4h-0.5v-3.9c0-1.1-0.5-1.9-1.5-1.9c-0.8,0-1.5,0.7-1.7,1.4c-0.1,0.2-0.1,0.4-0.1,0.6v3.8h-0.7V432.3z"
			/>
		<path class="st8" d="M215.2,435.5c0,0.5,0,1,0.1,1.5h-0.6l-0.1-0.9l0,0c-0.3,0.5-1,1-2,1c-1.3,0-1.8-0.9-1.8-1.7
			c0-1.4,1.3-2.3,3.8-2.3V433c0-0.6-0.1-1.8-1.6-1.8c-0.5,0-1.1,0.1-1.6,0.5l-0.2-0.5c0.6-0.4,1.3-0.5,1.8-0.5
			c1.8,0,2.2,1.4,2.2,2.5L215.2,435.5L215.2,435.5z M214.6,433.7c-1.4,0-3.2,0.2-3.2,1.7c0,0.9,0.6,1.3,1.2,1.3c1,0,1.6-0.6,1.8-1.2
			c0.1-0.1,0.1-0.3,0.1-0.4L214.6,433.7L214.6,433.7z"/>
		<path class="st8" d="M217.2,427.8h0.6v9.2h-0.6V427.8z"/>
		<path class="st8" d="M223.8,435.5c0,0.5,0,1,0.1,1.5h-0.6l-0.1-0.9l0,0c-0.3,0.5-1,1-2,1c-1.3,0-1.8-0.9-1.8-1.7
			c0-1.4,1.3-2.3,3.8-2.3V433c0-0.6-0.1-1.8-1.6-1.8c-0.5,0-1.1,0.1-1.6,0.5l-0.2-0.5c0.6-0.4,1.3-0.5,1.8-0.5
			c1.8,0,2.2,1.4,2.2,2.5L223.8,435.5L223.8,435.5z M223.2,433.7c-1.4,0-3.2,0.2-3.2,1.7c0,0.9,0.6,1.3,1.2,1.3c1,0,1.6-0.6,1.8-1.2
			c0.1-0.1,0.1-0.3,0.1-0.4L223.2,433.7L223.2,433.7z"/>
	</g>
	<g>
		<path class="st8" d="M173.4,413.1h-3.5v3.8h3.9v0.5h-4.5v-8.8h4.3v0.5h-3.7v3.4h3.5V413.1z"/>
		<path class="st8" d="M175.3,408.2h0.6v9.2h-0.6V408.2z"/>
		<path class="st8" d="M180.7,416.5c0.5,0.3,1.2,0.6,1.9,0.6c1.3,0,2.1-0.7,2.1-1.8c0-1-0.5-1.6-1.8-2.1c-1.4-0.5-2.2-1.2-2.2-2.4
			c0-1.3,1.1-2.2,2.5-2.2c0.8,0,1.4,0.2,1.7,0.4l-0.2,0.5c-0.2-0.2-0.8-0.4-1.5-0.4c-1.4,0-1.9,0.9-1.9,1.6c0,1,0.6,1.5,1.8,2
			c1.4,0.6,2.2,1.2,2.2,2.5s-0.9,2.4-2.8,2.4c-0.8,0-1.6-0.2-2.1-0.6L180.7,416.5z"/>
		<path class="st8" d="M190.8,416c0,0.5,0,1,0.1,1.5h-0.6l-0.1-0.9l0,0c-0.3,0.5-1,1-2,1c-1.3,0-1.8-0.9-1.8-1.7
			c0-1.4,1.3-2.3,3.8-2.3v-0.2c0-0.6-0.1-1.8-1.6-1.8c-0.5,0-1.1,0.1-1.6,0.5l-0.2-0.5c0.6-0.4,1.3-0.5,1.8-0.5
			c1.8,0,2.2,1.4,2.2,2.5L190.8,416L190.8,416z M190.2,414.1c-1.4,0-3.2,0.2-3.2,1.7c0,0.9,0.6,1.3,1.2,1.3c1,0,1.6-0.6,1.8-1.2
			c0.1-0.1,0.1-0.3,0.1-0.4L190.2,414.1L190.2,414.1z"/>
		<path class="st8" d="M192.8,408.2h0.6v9.2h-0.6V408.2z"/>
		<path class="st8" d="M195.4,411.2l1.5,3.9c0.2,0.6,0.4,1.1,0.6,1.7l0,0c0.2-0.5,0.4-1.1,0.6-1.7l1.5-3.9h0.6l-2.5,6.2h-0.5
			l-2.4-6.2H195.4z"/>
		<path class="st8" d="M205.3,416c0,0.5,0,1,0.1,1.5h-0.6l-0.1-0.9l0,0c-0.3,0.5-1,1-2,1c-1.3,0-1.8-0.9-1.8-1.7
			c0-1.4,1.3-2.3,3.8-2.3v-0.2c0-0.6-0.1-1.8-1.6-1.8c-0.5,0-1.1,0.1-1.6,0.5l-0.2-0.5c0.6-0.4,1.3-0.5,1.8-0.5
			c1.8,0,2.2,1.4,2.2,2.5L205.3,416L205.3,416z M204.7,414.1c-1.4,0-3.2,0.2-3.2,1.7c0,0.9,0.6,1.3,1.2,1.3c1,0,1.6-0.6,1.8-1.2
			c0.1-0.1,0.1-0.3,0.1-0.4L204.7,414.1L204.7,414.1z"/>
		<path class="st8" d="M212.3,408.2v7.8c0,0.5,0,1,0.1,1.5h-0.6l-0.1-1.2l0,0c-0.3,0.7-1.1,1.3-2.2,1.3c-1.5,0-2.7-1.3-2.7-3.1
			c0-2.1,1.3-3.4,2.8-3.4c1.1,0,1.8,0.6,2,1.1l0,0v-3.9L212.3,408.2L212.3,408.2z M211.7,413.7c0-0.2,0-0.4-0.1-0.6
			c-0.2-0.8-0.9-1.5-2-1.5c-1.4,0-2.2,1.2-2.2,2.8c0,1.4,0.7,2.7,2.2,2.7c0.9,0,1.7-0.6,2-1.6c0.1-0.2,0.1-0.3,0.1-0.5V413.7z"/>
		<path class="st8" d="M219.7,414.3c0,2.3-1.6,3.3-3,3.3c-1.6,0-2.9-1.3-2.9-3.2c0-2.1,1.4-3.3,2.9-3.3
			C218.6,411.1,219.7,412.4,219.7,414.3z M214.5,414.3c0,1.6,1,2.7,2.3,2.7s2.3-1.2,2.3-2.8c0-1.1-0.6-2.7-2.3-2.7
			C215.2,411.6,214.5,413,214.5,414.3z"/>
		<path class="st8" d="M221.3,413.1c0-0.6,0-1.3-0.1-1.9h0.6v1.3l0,0c0.3-0.8,0.9-1.4,1.8-1.4c0.1,0,0.2,0,0.3,0v0.6
			c-0.1,0-0.2,0-0.3,0c-0.9,0-1.5,0.7-1.6,1.7c0,0.2-0.1,0.4-0.1,0.6v3.4h-0.6L221.3,413.1L221.3,413.1z"/>
	</g>
	<g>
		<path class="st8" d="M173.6,397.9v-8.8h0.6l3.4,5.2c0.7,1.1,1.2,1.9,1.6,2.8l0,0c-0.1-1.2-0.1-2.2-0.1-3.6v-4.3h0.6v8.8h-0.6
			l-3.3-5.1c-0.6-1-1.2-1.9-1.7-2.8l0,0c0.1,1.1,0.1,2,0.1,3.5v4.4h-0.6V397.9z"/>
		<path class="st8" d="M182.7,389.9c0,0.3-0.2,0.5-0.5,0.5s-0.5-0.2-0.5-0.5s0.2-0.5,0.5-0.5S182.7,389.6,182.7,389.9z M181.9,397.9
			v-6.2h0.6v6.2H181.9z"/>
		<path class="st8" d="M188.9,397.6c-0.3,0.1-0.9,0.4-1.8,0.4c-1.8,0-3-1.3-3-3.2c0-2,1.4-3.3,3.2-3.3c0.8,0,1.4,0.2,1.6,0.4
			l-0.2,0.5c-0.3-0.2-0.8-0.4-1.5-0.4c-1.7,0-2.5,1.3-2.5,2.7c0,1.6,1,2.7,2.5,2.7c0.7,0,1.2-0.2,1.6-0.4L188.9,397.6z"/>
		<path class="st8" d="M194.3,396.4c0,0.5,0,1,0.1,1.5h-0.6l-0.1-0.9l0,0c-0.3,0.5-1,1-2,1c-1.3,0-1.8-0.9-1.8-1.7
			c0-1.4,1.3-2.3,3.8-2.3v-0.2c0-0.6-0.1-1.8-1.6-1.8c-0.5,0-1.1,0.1-1.6,0.5l-0.2-0.5c0.6-0.4,1.3-0.5,1.8-0.5
			c1.8,0,2.2,1.4,2.2,2.5L194.3,396.4L194.3,396.4z M193.6,394.5c-1.4,0-3.2,0.2-3.2,1.7c0,0.9,0.6,1.3,1.2,1.3c1,0,1.6-0.6,1.8-1.2
			c0.1-0.1,0.1-0.3,0.1-0.4L193.6,394.5L193.6,394.5z"/>
		<path class="st8" d="M196.3,393.5c0-0.6,0-1.3-0.1-1.9h0.6v1.3l0,0c0.3-0.8,0.9-1.4,1.8-1.4c0.1,0,0.2,0,0.3,0v0.6
			c-0.1,0-0.2,0-0.3,0c-0.9,0-1.5,0.7-1.6,1.7c0,0.2-0.1,0.4-0.1,0.6v3.4h-0.6L196.3,393.5L196.3,393.5z"/>
		<path class="st8" d="M204,396.4c0,0.5,0,1,0.1,1.5h-0.6l-0.1-0.9l0,0c-0.3,0.5-1,1-2,1c-1.3,0-1.8-0.9-1.8-1.7
			c0-1.4,1.3-2.3,3.8-2.3v-0.2c0-0.6-0.1-1.8-1.6-1.8c-0.5,0-1.1,0.1-1.6,0.5L200,392c0.6-0.4,1.3-0.5,1.8-0.5
			c1.8,0,2.2,1.4,2.2,2.5L204,396.4L204,396.4z M203.4,394.5c-1.4,0-3.2,0.2-3.2,1.7c0,0.9,0.6,1.3,1.2,1.3c1,0,1.6-0.6,1.8-1.2
			c0.1-0.1,0.1-0.3,0.1-0.4L203.4,394.5L203.4,394.5z"/>
		<path class="st8" d="M211,397c0,1.6-0.3,2.4-0.9,2.9c-0.6,0.5-1.4,0.7-2.1,0.7c-0.7,0-1.5-0.2-2-0.5l0.2-0.5
			c0.4,0.3,1.1,0.5,1.9,0.5c1.3,0,2.3-0.7,2.3-2.5v-0.9l0,0c-0.3,0.6-1.1,1.2-2.2,1.2c-1.6,0-2.7-1.4-2.7-3.1c0-2.2,1.4-3.3,2.8-3.3
			c1.2,0,1.8,0.7,2.1,1.2l0,0v-1.1h0.6c0,0.5-0.1,1-0.1,1.6L211,397L211,397z M210.3,394c0-0.2,0-0.4-0.1-0.6
			c-0.3-0.8-0.9-1.4-1.9-1.4c-1.3,0-2.2,1.1-2.2,2.7c0,1.4,0.7,2.6,2.2,2.6c0.8,0,1.6-0.5,1.9-1.4c0.1-0.2,0.1-0.4,0.1-0.7V394z"/>
		<path class="st8" d="M217.9,396.3c0,0.5,0,1,0.1,1.5h-0.6v-1.1l0,0c-0.3,0.6-1,1.3-2.1,1.3c-0.8,0-2.1-0.4-2.1-2.8v-3.6h0.6v3.5
			c0,1.4,0.4,2.3,1.6,2.3c0.9,0,1.6-0.6,1.8-1.3c0.1-0.2,0.1-0.4,0.1-0.7v-3.9h0.6L217.9,396.3L217.9,396.3z"/>
		<path class="st8" d="M223.8,396.4c0,0.5,0,1,0.1,1.5h-0.6l-0.1-0.9l0,0c-0.3,0.5-1,1-2,1c-1.3,0-1.8-0.9-1.8-1.7
			c0-1.4,1.3-2.3,3.8-2.3v-0.2c0-0.6-0.1-1.8-1.6-1.8c-0.5,0-1.1,0.1-1.6,0.5l-0.2-0.5c0.6-0.4,1.3-0.5,1.8-0.5
			c1.8,0,2.2,1.4,2.2,2.5L223.8,396.4L223.8,396.4z M223.2,394.5c-1.4,0-3.2,0.2-3.2,1.7c0,0.9,0.6,1.3,1.2,1.3c1,0,1.6-0.6,1.8-1.2
			c0.1-0.1,0.1-0.3,0.1-0.4L223.2,394.5L223.2,394.5z"/>
	</g>
	<line class="st13" x1="238.4" y1="484.2" x2="238.4" y2="386.4"/>
</g>
<circle class="st14" cx="150.6" cy="158.8" r="87.2"/>
<g>
	<g>
		<defs>
			<rect id="SVGID_9_" x="66.3" y="74.4" width="168.6" height="168.6"/>
		</defs>
		<clipPath id="SVGID_10_">
			<use xlink:href="#SVGID_9_"  style="overflow:visible;"/>
		</clipPath>
		<g class="st15">
			<g>
				<defs>
					<rect id="SVGID_11_" x="66.3" y="74.4" width="168.6" height="168.6"/>
				</defs>
				<clipPath id="SVGID_12_">
					<use xlink:href="#SVGID_11_"  style="overflow:visible;"/>
				</clipPath>
				<g class="st16">
					<g>
						<g>
							<defs>
								<rect id="SVGID_13_" x="66.3" y="74.4" width="168.6" height="168.6"/>
							</defs>
							<clipPath id="SVGID_14_">
								<use xlink:href="#SVGID_13_"  style="overflow:visible;"/>
							</clipPath>
						</g>
					</g>
				</g>
			</g>
			<g>
				<defs>
					
						<rect id="SVGID_15_" x="66.3" y="74.4" transform="matrix(1 -5.181130e-03 5.181130e-03 1 -0.8202 0.7824)" width="168.6" height="168.6"/>
				</defs>
				<clipPath id="SVGID_16_">
					<use xlink:href="#SVGID_15_"  style="overflow:visible;"/>
				</clipPath>
				<ellipse class="st17" cx="150.6" cy="158.6" rx="75.8" ry="75.8"/>
			</g>
		</g>
	</g>
</g>
</svg>
