<?xml version="1.0" encoding="utf-8"?>
<!-- Generator: Adobe Illustrator 25.1.0, SVG Export Plug-In . SVG Version: 6.00 Build 0)  -->
<svg version="1.1" id="Layer_1" xmlns="http://www.w3.org/2000/svg" xmlns:xlink="http://www.w3.org/1999/xlink" x="0px" y="0px"
	 viewBox="0 0 808.5 541" style="enable-background:new 0 0 808.5 541;" xml:space="preserve">
<style type="text/css">
	.st0{fill:#EEF2F4;}
	.st1{fill:#A7A9AC;}
	.st2{clip-path:url(#SVGID_2_);}
	.st3{opacity:0.7;clip-path:url(#SVGID_4_);fill:#47C3D3;enable-background:new    ;}
	.st4{fill:none;stroke:#FFFFFF;stroke-width:0.499;stroke-miterlimit:10;}
	.st5{enable-background:new    ;}
	.st6{fill:#002F87;}
	.st7{fill:#47C3D3;}
	.st8{fill:none;stroke:#58595B;stroke-width:0.998;stroke-miterlimit:10;}
	.st9{fill:#58595B;}
	.st10{fill:none;stroke:#6D6E71;stroke-width:0.998;stroke-miterlimit:10;}
	.st11{fill:#6D6E71;}
	.st12{fill:none;stroke:#58595B;stroke-width:0.499;stroke-linecap:round;stroke-miterlimit:10;}
	.st13{fill:#6FCCDD;}
	.st14{fill:none;stroke:#58595B;stroke-width:0.419;stroke-linecap:round;stroke-miterlimit:10;}
	.st15{opacity:0.65;fill:#004186;enable-background:new    ;}
	.st16{clip-path:url(#SVGID_6_);}
	.st17{clip-path:url(#SVGID_8_);fill:none;stroke:#FFFFFF;stroke-width:0.998;stroke-miterlimit:10.0001;}
</style>
<path class="st0" d="M9.5,0.1c-2.9,0-5.3,2-5.3,4.4v532.1c0,2.4,2.4,4.4,5.3,4.4h788.6c2.9,0,5.3-2,5.3-4.4V4.4
	c0-2.4-2.4-4.4-5.3-4.4L9.5,0.1L9.5,0.1z"/>
<g>
	<path class="st1" d="M344.5,287.5c0,0.3,0,0.6,0,0.9c0.5-0.2,1-0.3,1.7,0c0.2,0.1,0.4,0.2,0.6,0.3c0.7,0.1,1.6,0.3,2.4,0.5
		c0.6,0.1,1.5,0.4,1.7,0.4c1.6-0.1,1.9-0.6,2.1-1.5c0.1-0.4,0.1-1.1,0-1.7c-0.1-1.4-0.1-2.9,0.8-4.2c0.9-1.3,2.1-1.3,2.8-1.3
		c0.2,0,0.3,0,0.5,0c0.4-0.1,0.4-0.1,0.6-0.4s0.5-0.8,1.1-1.3c2.1-1.7,4.4-0.6,6,0.2c0.7,0.3,1.4,0.7,1.8,0.7
		c1.8,0.1,4.2-1.7,5.6-2.7c0.4-0.3,0.4-0.5,0.5-1.2c0.1-0.4,0.1-0.9,0.3-1.3c0.7-2.2,2.2-2.2,2.9-2.3c0.3,0,0.4,0,0.6-0.1
		c0,0,0.2-0.3,0.3-0.5c0.4-0.7,1-1.8,2.3-2c2.1-0.3,2.9,1.5,3.3,2.3c0,0.1,0.1,0.2,0.1,0.3c0.1-0.1,0.1-0.1,0.2-0.2
		c0.3-0.2,0.5-0.4,0.8-0.5c0.9-0.5,1.4-0.6,2.4-0.7c0.3,0,0.7-0.1,1-0.1c1.9-0.1,2-0.3,2.2-0.9c0.6-2.3,2.2-3.4,4.6-3.1
		c0.5,0,0.8,0.2,1.1,0.3c0.1,0,0.3,0.1,0.4,0.1c0.3,0,0.7,0,1.2,0c0.2,0,0.5,0,0.7,0c0.2-3-0.5-5.7-4.4-4.4c0.1,0.5-0.1,1.1,0,1.5
		c-2.1,0.5-2-0.7-3.4-1.3c-1.7-0.8-3.5-0.4-5.3-0.8c-0.2-2.1,4.5,0.1,5.1-2.6c0.9-4.1-5-1.6-7.3-1.8c-3.9-0.3-7.8-0.3-11.7-0.5
		c-3.6-0.2-4.3-3.1-7.9-2.9c0.3,2-0.4,1.5-1.3,2.1c-1.4,0.8-3.5,1.4-5.2,1.6c-3.6,0.2-7.1-0.4-10.7-0.3c-1.4,1.5-3.1,2.4-4.7,3.3
		c-1.4,0.8-2.8,1.5-3.9,2.6c-1.5,1.5-2.7,2.3-4.5,3.4c-0.2,0.1-0.4,0.2-0.7,0.4c-0.7,0.4-2.5,1.3-2.6,1.9c-0.1,0.4,0,0.8,0,1.4
		c0.1,1.1,0.2,2.4-0.5,3.6c-0.2,0.3-0.4,0.5-0.6,0.7c0.1,0,0.1,0,0.2,0c0.8,0.1,1.7,0.4,2.5,0.7c0.4-0.3,0.9-0.5,1.6-0.5
		c1.2,0.1,1.9,0.4,2.7,0.9l0.4,0.2c0.1,0.1,0.3,0.1,0.4,0.1c0.5,0.1,1.1,0.3,1.6,0.7c1,0.8,1.2,1.8,1.3,2.5c0,0.1,0,0.2,0.1,0.2h0.1
		h0.1c0.1-0.6,0.4-1.5,1.2-2.2c0.7-0.6,1.6-0.8,2.6-0.7c1.4,0.2,2.8,1,3.6,2.1c1.5,2.2,0.2,4.1-0.5,5.3
		C344.9,285.3,344.6,286.3,344.5,287.5"/>
	<path class="st1" d="M330.4,239.9c0,1.8-0.3,3.6-0.5,5.3l-0.1,0.9c-0.4,2.7-0.4,5.3-0.4,7.8c0,0.1,0,0.3,0,0.4
		c0.7,0.1,1.6,0.1,2.4,0.1c0.3,0,0.6,0,0.9,0c0.7-0.8,2.3-1.5,3.2-1.9c1.4-0.7,3.3-1.1,4.3-2.5c0.6-1,0.3-1.6,0.5-2.7
		c0.4-1.7,1.5-3.5,0.8-5.3c-0.5-1.3-1.9-1.6-2-3c-0.1-0.8,0.8-1.5,0.9-2.3c0.3-1.6-0.1-3.4,0.2-5c0.3-1.2,0.9-2.7,0.6-3.7
		c-0.7,0.4-1.4,0.6-2.1,0.8c-0.2,0.1-0.5,0.1-0.7,0.2c-0.3,0.1-0.5,0.1-0.8,0.1c0,0.1,0,0.2-0.1,0.3c-0.3,0.8-0.7,1.4-1.3,1.9
		c-0.2,0.1-0.3,0.3-0.4,0.4c-0.1,0-0.1,0.1-0.1,0.1s0,0,0,0.1c-0.5,1.8-2.6,2.7-4.3,2.6c-0.4,0-0.8,0.1-1.1,0.2
		c0.4,1.2,0.3,2.7,0.2,4C330.4,239.2,330.4,239.6,330.4,239.9"/>
	<path class="st1" d="M294.4,260.3c0.1-0.3,0.3-0.7,0.4-1.2c0.3-1.1,0.7-2.8,2.6-3.5c0.6-0.2,1.2-0.2,1.7-0.2c0.1,0,0.2,0,0.3,0
		c0-0.1,0.1-0.1,0.1-0.2c0.2-0.4,0.5-1.1,1.2-1.5c1.2-0.8,3-0.7,5.2-0.6c1.8,0.1,2.3,0,3.5-0.3l0.4-0.1c1.3-0.3,2.3,0.5,2.8,0.9
		c0.2,0.1,0.4,0.3,0.5,0.4c0.1,0,0.2-0.1,0.4-0.3c0.4-0.5,0.5-1.4,0.3-2.2c-0.2,0-0.3,0-0.5,0l-0.5-0.1c-1.3-0.2-2.8-0.4-3-2.6
		c0-0.3-0.1-0.6-0.1-0.8l0,0c-0.4,0-1-0.1-1.6-0.4c-1.2-0.7-1.9-2.1-2.1-3.4c-1.6-0.7-4-2-3.7-4.1c0.1-0.7,0.7-1.3,1.5-1.3
		c1,0,1.9,0,2.9,0h0.1c0-0.4-0.1-0.8-0.1-1.3c-0.1-0.9-0.2-1.8-0.2-2.8c0-0.7,0.4-1.2,1.1-1.5c2.4-0.8,5.4-0.6,8.1-0.4
		c2.4,0.2,4.2,0.1,6.1,0.2c1.9,0,3.8,0.1,5.6,0c0.1-0.1,0.2-0.3,0.3-0.4c1.3-1.4,3.7-1.2,3.8-1.2c0.5,0,1.1-0.2,1.2-0.4
		c0.3-1,0.7-1.4,1.2-1.8c0.1-0.1,0.2-0.1,0.3-0.2c0.1-0.1,0.3-0.3,0.3-0.5v-0.1c0-0.4,0-0.9,0.3-1.4c0.5-0.9,1.6-1,2.3-1.1
		c0.1,0,0.3,0,0.4,0c0.2-0.1,0.5-0.1,0.8-0.2c0.7-0.2,1.4-0.4,1.8-0.7c0.4-0.4,1-0.6,1.6-0.4c0.4-0.5,0.8-0.9,1.5-1.2
		c-0.5,0.8-0.7,1.3-0.7,1.8c0.2,0.2,0.3,0.5,0.3,0.8c0.6,0.8,1.8,1.2,2.5,2.1s1,4.3,3,2.3c1.1-1.1,0.3-4.8,0.7-6.3
		c0.6-2.1,2.8-3.8,1.9-6.2c-0.6,0.2-1.2,0-1.8,0.1c-1-2.6,2.7-1.9,3.1-3.8c0.6-3.1-2.7-2.1-4.1-2.5c-0.3-1.8,0.9-1.7,2.1-2.3
		c1.7-0.9,1.4-0.8,2-2.2c0.4-0.9,0.3-1.2,0.8-2s1.3-1.5,2-2.2c2.1-2.1,5.5-4.2,6.8-7c0.7-1.5,0.7-5.9-2.1-4.9
		c-0.2-1.8,0.3-4.4-1.7-5c-1.5-0.4-3.2,1.1-4.8,1.1c-1.8,0-4.1-1.3-6.1-0.5c-0.5,0.2-1.2,1.2-1.8,1.6c-1.2,0.6-2.3,1.5-3.5,0.9
		c-2.2-1.1-3.1,0.5-4.9,1.3c-1.6,0.6-4-0.4-5.7-0.3c-3,0.1-6.5,0.3-9.2,1.6c-0.7,0.3-1.9,0.9-1.6,1.8c0.2,0.8,1.4,0.8,2.1,1
		c0,1.4-2.3,2.3-3.1,3.2c-1.5,1.5-1.5,3.2-1.2,5.2c0.3,2.2,0.8,4-1.4,5.2c-1.8,1-2.3,0.8-2.3,2.8c0,2.2,0.6,5.8-1.8,6.7
		c-1.3,0.4-2.7,0.4-4,0.7c-1.2,0.2-3.5,1.3-3.7,2.7c-0.2,1,1.1,1.7,1.1,2.7c0.1,1-0.5,2.5-1,3.2c-1,1.3-1.8,0.7-3.2,0.6
		c-1-0.1-1.6,0.4-1.7-0.8c-0.1-0.9,0.6-1,0.8-1.7c0.1-0.4,0-1.5-0.3-1.8c-0.7-0.8-0.7-0.1-1.6,0.1c-1.4,0.3-3.4-0.9-4.8-0.2
		c-0.8,0.4-0.8,1.7-1.6,2c-1.2,0.5-3-0.5-4.2,0.3c-0.9,0.6-0.8,1.5-1.8,1.7c-1.1,0.2-2.3-0.2-3.4,0c-1.3,0.2-1.4,0.9-2,1.9
		c-0.3,0.5-0.1,0.7-0.8,1.1c-0.6,0.3-2.8,0.1-3.3-0.2c-0.7-0.4-0.9-0.9-1.8-1.1c-0.6-0.1-1.7-0.1-2.3,0.1c-0.9,0.4-1,1.4-1.7,1.8
		s-2.6-0.3-3.2-0.7c-1.6-1.1-2.3-3.4-2.6-5.2c-0.3-1.8-1.5-2.1-3.2-2.8c-1.6-0.7-2.8-0.3-4.4-0.4c-1.7-0.1-3.2-0.9-4.3-2.2
		c-1.7-1.8-1.8-4.1-2.6-6.3c-0.8-2-2-3.4-3.4-5c-1.4-1.7-1-2.6-1.4-4.5c-0.3-1.5-1.7-2.1-2.8-2.8c-2.1-1.4-3.5-4.6-3.9-7
		c-0.2-1.5,0.6-3.1,0.2-4.6c-0.5-2-2.1-2.7-1.7-4.9c0.2-1.6-0.3-1.9-0.4-3.4c-0.2-3.6-0.6-7.8-0.3-11.2c0.3-3.9-1-8.1-0.3-11.9
		c0.4-2.4,2.3-4.2,2.7-6.6c0.3-1.6,0.4-3.3,0.8-4.8c0.3-1.6,0-3.7,0.5-5.3c0.7-2.6,1.3-1.5,3.4-2.7c0.9-0.5,1.7-1,2.1-1.8
		c-0.5-0.2-1-0.5-1.5-0.9c-0.4-0.3-0.7-0.6-0.9-0.9l-0.1-0.1H244c-0.4-0.1-1-0.2-1.6-0.6c-0.6-0.4-1.2-0.9-1.6-1.3
		c-0.4-0.3-0.9-0.8-1.1-0.8c-0.2,0-0.4-0.1-0.7-0.1c-1.4-0.2-3.7-0.6-4.8-2.6c-1-0.7-2.2-1.3-3.4-1.8c-2.1-0.9-4.4-2-6.1-4.1
		c-2.2-2.7-1.7-5.9-1.3-8.4c0.3-1.6,0.5-3.1,0.1-4.1c-0.1-0.2-0.5-0.5-0.9-0.8c-0.7-0.5-1.5-1-2.2-2c-0.5-0.8-0.7-1.6-0.8-2.2
		c0-0.2-0.1-0.3-0.1-0.5c-0.2-0.7-0.7-1.5-1.3-2.2c-0.5-0.7-1.1-1.5-1.5-2.5c-1-2.2-1.5-4.6-2-7c-0.1-0.5-0.2-1-0.3-1.5
		c-0.3-2-0.8-4.8-1.9-5.8c-0.1,0-0.2-0.1-0.4-0.2c-0.5-0.2-1.4-0.6-2.1-1.6c-0.7-1-1-2-1.3-2.9c-0.3-1-0.5-1.5-0.8-1.7
		s-1-0.3-1.5-0.4c-3.6-0.6-6.9-0.2-10,1.3c-1.8,0.9-1.9,1.4-2.5,4.2c-0.3,1.3-1.1,3.2-4.1,2.9c-0.6,1.1-1.5,1.6-2.7,1.7
		c-1.3,0.1-2.7-0.5-3-0.6c-1.5-0.6-2.8-1.5-4.1-2.2c-1.1-0.7-2.2-1.4-3.3-1.9l-0.4-0.2c-2.3-1-5.8-2.6-6.8-5.9l-0.2-0.6
		c-0.1-0.4-0.3-1-0.4-1.1c-0.1-0.1-0.1-0.1-0.2-0.1c-0.3-0.2-0.8-0.5-1.2-1c-1.2-1.5-0.8-3.3-0.6-4.3c0.1-0.3,0.2-0.7,0.2-0.8
		c0-0.3-0.4-1-0.7-1.5c-0.7-1.1-1.6-2.7-1.2-4.6c-2.3-0.8-4.1-2.8-4.7-5.1c0-0.2-0.1-0.4-0.1-0.6c0-0.2-0.1-0.3-0.1-0.5
		c0,0-0.3-0.1-0.5-0.2c-0.6-0.3-1.4-0.8-2-1.7s-0.8-1.8-0.9-2.5c0-0.2,0-0.3-0.1-0.5c-0.2-1-2.3-2.9-3.7-3.5
		c-0.3-0.1-0.4-0.1-0.4-0.1c-0.2,0-0.3,0-0.5,0H152c-0.5,0-1.2,0-3.3-0.2c-2.6-0.2-9.8-0.9-12.5-0.5c-0.1,1.1-0.5,2.4-1.3,3.3
		c-0.7,0.8-1.6,1.2-2.5,1.2c-0.7,0-1.5,0.1-2.3,0.2c-0.9,0.1-1.9,0.3-3,0.3c-5.3,0-10.7-0.2-15.9-0.4c-1.7-0.1-3.5-0.1-5.2-0.2
		c-6.2-0.2-11.1-1.5-15.9-4.1c-1-0.5-1.8-1.2-2.6-1.8c-0.8-0.7-1.6-1.3-2.5-1.6c-0.5-0.2-1.1-0.3-1.8-0.4c-1.5-0.2-3.3-0.6-4.8-2
		c-0.4-0.4-0.7-0.8-1-1.1c-0.3-0.4-0.4-0.5-0.6-0.6c-0.6-0.3-1.4-0.4-2.2-0.6c-1.5-0.3-3.2-0.6-4.7-1.8c-0.4-0.3-0.7-0.6-1-0.9
		c-0.2-0.3-0.4-0.4-0.5-0.5c-0.2-0.1-0.6-0.3-1.1-0.4c-0.9-0.3-2.1-0.7-3-1.6c-0.5-0.5-0.8-1-1-1.3C62,35,60.6,35,59.2,35.1
		c-1,0-2,0.1-3,0c-1.5-0.1-2.9-0.3-4.2-0.6c-1.3-0.2-2.6-0.4-3.8-0.5c-1.8-0.1-3.6-0.1-5.5,0c-2.1,0-4.3,0.1-6.5-0.1
		c-0.4,0-0.8,0-1.3,0c0.2,1.2,0.2,2.3,0.1,3.7c-0.1,0.9,0,1.6,0.3,2.3c0.3,0.6,1.2,0.7,1.3,1.4c0.6,0.4,3.3,2.5,2.4,3.4
		c-0.5,0.5-1.2-0.2-1.4,0.7c-0.1,0.7,0.3,1.7,0.4,2.4c0.2,1.2,0.9,2.3,2,2.9c0.8,0.5,2,1.1,1.8,2.2c-0.2,0.7-1,0.5-1.1,1.1
		c-0.2,0.9,1.2,1.3,1.7,1.8c2.2,2,1.1,3.8,0.9,6.1c-0.1,0.9,0.3,1.7,0.8,2.4c0.5,0.8,0.5,1.6,0.8,2.4c0.1,0.5,0.1,1.1,0.1,1.7
		c0,1.4-0.2,2.9,0.8,4c0.4,0.4,0.7,0.7,0.9,1.2c0.3,0.5,0.5,1.1,0.9,1.5c1.4,1.3,4.3,0.8,6,1.9c-0.1,2.3,0.8,2.6,1.8,4.6
		c0.7,1.3,0.5,2.2,1.5,3.4c1.3,1.5,1.3,3.2,2.8,4.5c0.5,0.4,1.6,0.7,1.8,1.3c0.4,0.9-1,1.9-0.6,2.8c-1.6,0.1-0.2,2.1-0.2,2.9
		c0,0.9-0.2,1.1-1,1c-0.8,0-1.6,0-2.3,0.4c-0.4,0.2-0.8,0.5-0.6,1c0.4,0.8,1.7,0.7,2.3,0.9c0.7,0.2,0.8,0.8,0.2,1.5
		c-0.8,1-1.7-0.1-2.3-0.6c-0.5-0.3-0.9-0.6-1.4-0.4c-0.4,0.1-0.8,0.4-1.3,0.3c-0.4-0.1-0.6-0.4-0.9-0.5c-0.6-0.3-1.5-0.2-2.1-0.2
		c-0.8,0-3.9,0.2-2.3,1.3c0.4,0.3,0.8,0.5,1.2,0.8c0.4,0.4,0.5,0.9,0.8,1.4c0.4,0.6,0.6,0.3,1.1,0.5c0.4,0.2,0.4,0.7,0.7,1.1
		c0,0.5,0.2,1,0.4,1.4c0.3,0.6,0.3,1.1,0.3,1.8c0,0.6,0,0.9,0.4,1.3c0.8,0.7,1.7,0.7,2.7,0.7c0.9,0,0.6,0.2,1.1,0.8
		c0.5,0.4,1.3,0.7,1.9,0.8c0.5,0.1,1.1-0.1,1.5,0.4c0.3,0.4,0.3,1,0.4,1.4c0.4,1.2,1.8,1.8,3,1.6c0.6-0.1,1.2-0.2,1.5-0.8
		c0.3-0.5,0-1.1,0.3-1.6c0.6-0.8,2-0.4,2.2,0.5c0.3,1.4-0.7,2.6-0.6,4c0.1,1,1.4,1.1,1.8,2c0.8,1.9,2.5,2.4,4.4,2.8
		c0.7,0.2,1.3,0.4,1.7,1.1c0.2,0.4,0.3,0.9,0.6,1.4c0.3,0.5,0.8,0.9,1.2,1.3c1.3,1.6,2,3.5,1.4,5.5c-0.5,1.5-0.7,3.1-1.1,4.6
		c-0.3,1-0.7,1.9-1.3,2.8c-0.5,0.7-1.2,2.6-0.8,3.4c0.5,1,2.3,1.5,3.3,1.5c0.9,0,2.4,0,3,0.6c0.7,0.6,0.6,1.7,0.9,2.5
		c0.7,1.8,2.8,1.9,3.8,3.4c0.7,0.9,0.8,2.2,1.6,3.1c0.7,0.8,1.4,1.1,2.2,1.7c0.6,0.4,0.5,0.4,0.8,1c0.4,0.9,1,1,1.7,1.5
		c1.3,0.7,1.9,1.9,2,3.3c0.1,0.8,0.1,1,0.6,1.6c0.6,0.7,0.9,1.1,1,2c0.1,1.4,0.1,2.4,1.5,3.2c0.9,0.5,1.2,0.1,1.8-0.5
		c1.1-1.3,2.7-0.8,4.1-1.5c1.8-0.8,1.3-3.8,1.3-5.4c0-1.4-0.5-1.3-1.6-1.9c-1-0.5-1-1.2-1.3-2.2c-0.4-1.2-1.6-1.5-2.5-2.4
		c-0.7-0.7-0.4-1.2-0.6-2.1c-0.2-0.7-0.9-1.3-1.6-1.3c-1,0.1-0.3,0.7-0.6,1.5c-0.7-0.1-1.3-0.6-2-0.9c-0.9-0.4-1.8-0.7-2.4-1.5
		c-0.5-0.8-0.5-1.8-1-2.7c-0.4-0.8-1.1-1.3-1.1-2.4c0.1-1,1-1.7,1.1-2.7c0.3-1.6-1.7-1.8-1.4-3.3c0.1-0.7,0.5-1.3,0.2-2.1
		c-0.2-0.5-0.8-0.8-0.9-1.3c-0.2-0.6,0.5-1.1,0.1-1.8s-1.5-0.7-1.7-1.5c-0.3-0.9,0.1-2.3,0.1-3.3c0-1.3-0.2-2.1-0.8-3.2
		c-1-2,0.6-3.8,0.3-5.8c-0.1-0.9-0.5-1.1-1.1-1.6c-0.5-0.4-0.5-0.5-0.5-1.2c0-0.6,0.1-1.2-0.3-1.7s-1.5-0.7-1.9-0.1
		c-0.3,0.5,0.2,1.4,0,1.9c-0.2,0.6-1,1-1.6,0.5s-0.1-1.7-0.6-2.4c-0.5-0.6-1-0.7-1.1-1.5c-0.1-0.5,0.1-1,0.2-1.5
		c0.1-1.3-0.6-1.8-1-2.9c-0.4-1.2,0.8-2.6,0-3.7c-0.4-0.6-1.2-0.6-1.7-1s-0.5-0.7-0.7-1.2c0.3-2.2-1.6-0.7-2.4-1.8
		c-1.5-2.1,0.8-4.7-0.2-6.9c-0.4-0.9-1.6-1.2-2-2c-0.5-1-0.3-2-0.2-3.1c-1-0.5-2.1-0.4-3.2-0.7c0.2-1.7-2.1-2.4-2.6-3.8
		c-0.6-1.6,0.7-2.8,0.6-4.2c-0.3-3.4-4.5-1.8-6.1-4.2c-0.3-0.4-0.5-1.9-0.7-2.5c-0.3-0.8-0.9-1.2-1.1-2.1c-0.3-1.3,0-1.9-0.7-3.1
		c-0.8-1.4-1.5-1.6-1.6-3.3c-0.1-1.5,0.6-2.8,0.7-4.3c0-1.6-0.7-2.8-0.9-4.3c-0.3-1.8,0.3-3.2,1-4.8c0.7-1.8,0.5-3.6,1.1-5.3
		c1.2-3.5,3.3-0.5,4.8,1.3c2.2,2.6,3.8-0.5,6.3,1.2c1.1,0.7,1.3,1.9,2.7,2.5c0.9,0.4,3.8,0.5,4.3,1.3c1.2,1.8-1.8,3.3-2.3,4.4
		c-0.5,1.2-0.1,2.3,0.2,3.2c0.5,1.5,0.9,1.9,0.9,3.7c0.1,1.4-0.6,3.5,1.4,3c0.7,2.7,1.1,5.5,2.3,8.2c0.8,1.9,2,3.3,2.8,5.1
		c0.5,1.2,0.5,2,1.2,3.3c1,1.7,0.5,3.4,1.3,4.9c0.6,1.1,2.2,1.4,2.9,2.3c0.7,0.8,0.6,1.5,0.9,2.3c1,2.7,1.8,3.5,4.6,4.3
		c1.9,0.6,4.7,1.2,5.5,3.4c0.6,1.8-0.2,4.5,0,6.4c0.3,3.4,2.8,3,3.9,5.6c0.6,1.6-0.2,2,1.7,2.7c1,0.4,2.4,0.1,3.5,0.3
		c4.1,1,1.2,2.3,2.4,4.5c-0.1,1.2,2.4,1.1,3.1,1.5c1.1,0.6,0.4,1.9-0.6,2.2s-2-0.3-2.9,0.4c-0.6,0.5-1.3,1.5-1.7,2.2
		c-0.5,0.9-1.2,3-0.5,4c0.6,0.8,2.4,0.8,3.3,1.1c1,0.4,1.9,1.5,2.9,2.3c0.8,0.6,1.8,1,2.5,1.6c0.4,0.4,0.4,0.8,0.9,1.1
		c1.2,0.8,2.7,0.7,4.1,0.8c1.2,0,1.9,0.9,1.9,2.2c1.5,1.4,0,3.5-1.3,4.3c-0.8,0.4-1.7,1.4-0.6,2.1c1.2,0.8,3-0.3,4.2,0.4
		c0.5,0.3,0.8,1.3,1.1,1.7c0.5,0.8,1.1,1,1.7,1.7c0.4,0.4,0.7,1,1.2,1.4c0.6,0.6,1.3,1.6,2,2c0.3,0.7,0.4,1.2,0.9,1.8
		s1.1,1.1,1.6,1.7c1,1.1,1.8,2.5,2.3,3.9c0.8,2,2.1,3.7,2.9,5.7c0.7,1.8,0.4,2.9,2,4.3c1.2,1.1,3.4,1.9,4,3.6
		c0.5,1.7-0.8,3.1-0.9,4.6c0,1.8,1.3,3.2,2.1,4.7c1.1,2.3,4.2,6.7,2.1,9.1c-1,1.1-4.4,1.2-4.6,3.2c-0.2,1.5,3,2.2,4.5,2.1
		c0.7,2.4-3,2-4.5,2.5s-1.3-0.2-1.6,1.6c-0.2,0.9,0,2,0.3,2.8c0.6,2.2,2,3.7,3.6,5.1c2,1.8,1.8,3.4,3.5,5.1c1.2,1.2,2.8,2.6,4.6,2.8
		c0.6,0.1,2.1-0.3,2.6,0.2s0,1.2,0.8,1.6c1.8,0.9,4.1,0.1,5,2.4c0.3,0.8,0.5,1.1,1.2,1.6c0.8,0.6,2,1.1,2.2,2.2
		c0.1,0.5-1.1,3.6,0.3,3.3c0.4,0.2,0.8,0.2,1.3,0.2c1.4,0.2,2.3,1,3.5,1.7c0.9,0.5,1.6,0.8,2.6,0.8c2,0.1,3.8,0.9,5.8,1
		c0.7,0,1.5-0.1,2.2,0c0.9,0.1,0.8,0.6,1.4,1.2c1.2,1.2,3,1.7,4.4,2.6c1,0.6,1.8,1.6,2.8,2.3c2.5,2,4.9,4.8,8.2,5.5
		c1.6,0.3,3.3,0,4.9,0.3c1.1,0.1,2.2,0.3,3.3,0.7c1,0.4,1.3,1.2,1.6,2.2c1,2.5,4.7,1.4,6.8,1.9c0.8,0.2,1.8,0.6,2.2,1.4
		s0.8,2,1.6,2.4c1,0.5,2.5,0,3.5,0.2c1.2,0.3,1.9,1.2,2.8,1.9c2.2,1.6,5.7,1.3,8.3,1.8c2.2,0.4,3.7,1.4,5.6,2.4
		c1.3,0.7,2.5,0.5,3.9,1.1c1.6,0.8,2.6,1.2,4.4,0.7c1.7-0.4,2.9-1.6,4.4-2.2c0.7-0.3,1.6-0.2,2.3-0.5c0.6-0.3,0.8-0.9,1.4-1.3
		c1.5-1.1,8.5-0.7,8.8-1.7c-0.8-0.6-4.5-0.9-4.1-1.8c0.2-0.5,2.1-0.3,2.5-0.3c1.4,0.1,0.9,0.6,1.8,1.1c1.1,0.7,2.6,0.1,3.7,0.8
		c1.1,0.7,2.7,3.7,4.1,2.9c-0.3-1-1.3-2-2.1-2.6c-0.8-0.6-2.3-0.8-2.5-1.9c1.1-0.7,3.8,0.7,4.7,1.4c1.7,1.2,2.9,2.9,4,4.6
		c1,1.7,0.6,3.3,2.7,4.3c1.5,0.7,5.6,0.3,5.1,2.8c1.7,2.2,4,3.9,6.1,5.7c0.1-0.1,0.2-0.2,0.3-0.4c0.5-0.8,0.5-2.5,0.5-4
		c0-1.1,0-2.2,0.2-3.2c0.3-1.4,1.1-2.3,1.7-3C293.9,261.1,294.2,260.7,294.4,260.3"/>
	<path class="st1" d="M317.9,277.9c1.2-1.2,2.5-1.5,3.6-1.8c0.6-0.1,1.1-0.3,1.6-0.5c0.3-0.1,0.4-0.3,0.7-0.8l0.3-0.4
		c0.2-0.3,0.5-0.6,0.8-0.9c0.2-0.2,0.4-0.4,0.5-0.6c0.2-0.3,0.2-1.1,0.1-1.8c0-0.6-0.1-1.3,0-2c0.3-2.1,2.6-3.3,4.2-4.2
		c0.2-0.1,0.4-0.2,0.6-0.3c1.6-0.9,2.5-1.5,3.8-2.8c1.4-1.4,3-2.3,4.6-3.2c0.5-0.3,1-0.6,1.5-0.8c-1.3-0.1-2.8-0.1-4.2-0.1
		c-1.1,0-2.2,0.1-3.3,0c-0.3,0-0.7,0-1.1,0c-1.5,0-3.2,0-4.7-0.7c-0.4-0.2-0.7-0.5-0.8-0.9c-0.2-0.6-0.2-1.2-0.1-1.7
		c0-0.1,0-0.2,0-0.3c0-2.5,0-5.4,0.5-8.3l0.1-0.9c0.2-1.7,0.5-3.2,0.5-4.8c0-0.4,0-0.9,0.1-1.4c0-0.5,0.1-1.5,0.1-2.3
		c-1.9,0.1-3.8,0-5.7,0c-2,0-4,0-6.3-0.2c-1.9-0.1-4.1-0.3-5.8,0c0,0.4,0.1,0.8,0.1,1.3c0.1,1,0.2,2.1,0.1,3.2
		c0,0.8-0.7,1.4-1.4,1.5c0.4,0.3,0.6,0.8,0.6,1.2c0,0.9,0.4,1.6,0.6,1.8c0,0,0.1,0,0.2,0c0.5,0,1.5,0.1,2.3,1
		c0.2,0.2,0.6,0.7,0.8,2.4c0.1,0,0.2,0,0.4,0.1l0.6,0.1c0.2,0,0.4,0,0.6,0c0.7,0,1.8-0.1,2.4,0.9c0.4,0.7,0.3,1.4,0.1,1.9
		c0.3,1.6,0,3.2-0.9,4.4c-0.8,1-1.8,1.5-3.1,1.6c-1,0-1.8-0.6-2.3-1c-0.1-0.1-0.3-0.2-0.4-0.3H310c-1,0.2-1.8,0.4-3.1,0.4
		c-0.4,0-0.8,0-1.3-0.1c-0.8-0.1-2.8-0.2-3.3,0.1c0,0,0,0.1-0.1,0.2c-0.2,0.4-0.5,1-1.1,1.4c-0.8,0.5-1.7,0.5-2.2,0.5
		c-0.2,0-0.4,0-0.5,0c-0.2,0.1-0.3,0.4-0.6,1.3c-0.1,0.6-0.3,1.2-0.6,1.8c-0.4,0.7-0.9,1.3-1.3,1.8c-0.5,0.6-0.9,1-0.9,1.5
		c-0.1,0.7-0.1,1.6-0.1,2.6c0,1.9,0,4.1-1,5.7c-0.2,0.3-0.4,0.6-0.6,0.8c0.4,0.4,0.9,0.9,1.1,1.4c0.4,0.9,0.3,1.9,0.9,2.7
		c0.8,1.1,2.9,2.4,4.2,2.5c0.6,0.1,1.4-0.1,2,0s1.1,0.7,1.6,1c2,1.3,3.8,0.5,6.1,0.5c1.4,0,2.7,0.6,4,0.9c0.2-0.6,0.4-1.2,0.8-1.9
		c0.7-1.1,1.8-1.8,2.7-2.4C317.1,278.5,317.6,278.2,317.9,277.9"/>
	<path class="st1" d="M363.7,313.2c0.7-1.4,1.8-2,2.5-2.2c1.8-0.5,3.8,0.4,5.1,1.2c1.5,1,3.4,0.9,5.4,0.9c0.8,0,1.6,0,2.5-0.1
		c1-0.1,2.2-0.2,3.3,0.1c1.7,0.5,2.3,1.5,2.7,2.3c0.1,0.2,0.2,0.4,0.3,0.5c0.5,0.7,1,1,2,1.1c0.4,0,0.9,0,1.4-0.2
		c0-0.1,0-0.2,0.1-0.3c0.1-0.9,0-1.6-0.7-2.2c-0.7-0.7-1.5-1.5-1.3-2.6c0.1-0.7,0.5-1.7,1.1-2.1c1.2-0.8,2.1-1,2.3-2.6
		c0.1-0.8-0.5-2.1-1.3-1.2c-0.6,0.7-0.8,2.1-2,1.9c-0.3-0.8,0.4-1.2,0.6-2c0.1-0.4,0-1,0.1-1.4c0-0.7,0.2-0.9,0.5-1.5
		c0.7-1,0.6-1.8,0.6-2.9c0-0.6,0.9-3.5,1.6-2.8c0.6,0.6-1.3,5.2,0.9,4.3c0.7-0.2,1.3-0.9,1.7-1.4c0.5-0.7,0.4-1.3,0.2-2
		c-0.3-1.6-0.3-3.2-0.3-4.9c0-1.2,0.7-3.3-0.1-4.4c0.2-0.8-1.3-1.1-1.5-1.9c-0.2-0.7,0.3-0.8,0.7-1.2c0.6-0.6,0.4-1.5,0.4-2.2
		c1.8-1.1,7.7-3.7,5.6-6.3c-1-1.3-1.9-0.4-2.2-2.3c0-0.2,0.4-1.6,0.4-2.2c0.1-0.6,0.2-1.4,0.3-2.3c-0.1,0-0.1,0-0.2,0
		c-0.6,0-1.2,0.1-1.8,0c-0.4-0.1-0.8-0.2-1.1-0.3c-0.1,0-0.2-0.1-0.3-0.1c-0.8-0.1-0.9,0-1.1,0.8c-0.7,2.9-3.3,3.1-5,3.2
		c-0.3,0-0.6,0-0.9,0.1c-0.8,0.1-0.8,0.1-1.3,0.3c-0.1,0.1-0.3,0.2-0.4,0.3c-0.6,0.5-1.8,1.4-3.3,0.7c-1-0.4-1.4-1.4-1.8-2.1v-0.1
		c-0.3,0.6-0.7,1.3-1.5,1.7c-0.8,0.4-1.5,0.5-1.9,0.5l0,0v0.1c-0.1,0.3-0.1,0.6-0.2,0.9c-0.1,0.9-0.3,2.1-1.8,3.2
		c-1.9,1.4-4.8,3.6-7.7,3.4c-1.1-0.1-2-0.5-2.9-1c-1.6-0.7-2.2-0.9-2.6-0.5c-0.2,0.2-0.3,0.3-0.4,0.5c-0.5,0.7-1,1.4-2.5,1.7
		c-0.4,0.1-0.7,0.1-1.1,0.1c-0.1,0-0.3,0-0.4,0c-0.2,0.4-0.1,1.4-0.1,2.2c0,0.8,0.1,1.7-0.1,2.6c-0.8,3.6-3.9,3.9-5,4
		c-0.1,0-0.1,0-0.2,0c-0.6,0-1.4-0.2-2.5-0.5c-0.1,0-0.3-0.1-0.5-0.1c-0.1,0.1-0.1,0.2-0.2,0.3c-0.3-0.1-1-0.4-1.7-0.6
		c-0.3,0.2-0.6,0.2-1,0.2c0.1,0.7,0.1,1.3,0,1.9c0.9,0.5,1.9,0.8,2.3,0.9c3.3,0.9,1.9,4,4.1,5.9c0.8,0.7,2,0.7,2.7,1.2
		c0.8,0.7,0.6,1.6,0.8,2.5c0.6,2.2,2.8,2.8,4,4.7c0.6,1,0.9,2.2,1.7,3.3c0.8,1,1.9,1,2.8,1.4C363.6,313.5,363.6,313.4,363.7,313.2"
		/>
	<path class="st1" d="M341.9,280.1c-0.1,0.1-0.1,0.2-0.2,0.6c-0.2,0.7-0.6,2.7-3.5,2.4c-2.4-0.2-2.7-2-2.9-2.7
		c-0.1-0.4-0.1-0.5-0.2-0.6c-0.1,0-0.2-0.1-0.4-0.1c-0.4-0.1-0.8-0.2-1.1-0.4l-0.5-0.2c-0.6-0.3-0.8-0.4-1.2-0.5
		c-0.4,0.3-1.2,0.8-2.3,0.4c-0.6-0.2-1.7-0.7-2.3-0.7c-0.2,0-0.5,0-0.7,0c-0.4,0-1,0-1.7-0.2c-0.2,0.1-0.3,0.2-0.5,0.3
		c-0.8,0.4-1.6,0.6-2.2,0.7c-0.9,0.2-1.6,0.4-2.2,1s-1.3,1.1-2,1.5s-1.4,0.9-1.7,1.3c-0.1,0.1-0.1,0.2-0.2,0.3
		c0.6,0,1.2,0.1,1.8,0.4c1,0.5,1.3,1.5,2.4,1.9c1.7,0.7,5.9,0.7,6.2,3c1.1,0.5,2.3,1,3.5,0.9c1.1-0.1,1.8-0.9,2.9-0.8
		c1.9,0.2,2.1,2.8,3.9,3.2c1.1,0.2,3.4-0.6,4.6-1.2c-0.2-1-0.3-2-0.3-3.3c0.1-1.7,0.6-3.3,1.6-4.7c0.9-1.3,0.8-1.4,0.6-1.7
		C343.2,280.4,342.2,280,341.9,280.1"/>
	<path class="st1" d="M400.4,331.8c0.2,0,0.4,0,0.6,0c0.5,0,0.8-0.1,1.2-0.2l-0.1-0.1c-0.7-0.5-2-0.3-2.9-0.4
		c-0.4,0-2.7-0.4-2.2-0.8c0.1,0.1,0.2,0.1,0.3,0.1c0.2-0.9-1.2-1-1.5-1.7c-0.2-0.3-0.1-0.8-0.3-1.1c-0.2-0.6-0.6-0.8-1.1-1.1
		c-0.4-0.2-1.4-0.6-1.6-1s0.2-1.3,0-1.8c-0.2-1-0.7-1.1-0.7-2.2c0-0.6,0.1-1.3,0-1.9c0-0.3-0.1-0.5-0.2-0.7
		c-1.5,0.9-3.4,1.3-4.7,1.2c-2-0.2-3.4-1-4.4-2.5c-0.2-0.3-0.3-0.5-0.4-0.7c-0.3-0.6-0.4-0.7-0.8-0.8c-0.6-0.2-1.4-0.1-2.3,0
		c-1,0.1-1.8,0.1-2.7,0.1c-2.3,0-4.9,0.1-7.2-1.4c-1.2-0.8-2.1-0.9-2.5-0.8c-0.1,0-0.3,0.1-0.6,0.6c-0.1,0.2-0.1,0.4-0.2,0.7
		c-0.1,0.6-0.2,1.6-1.1,2.4c-0.2,0.2-0.5,0.4-0.8,0.7c1.1,0.6,2.1,0.7,1.8,2.2c-0.3,1.6-1.5,0.9-2.4,1.8c-0.9,0.8-2.1,3.9-1.5,5.1
		c0.7,1.5,2.6,1.1,3.9,1c1.5-0.2,1.6-0.3,2.7,0.8c1.6,1.6,2.9,2.4,5.4,1.6c0.3-2.2-1.1-2-2.4-3.1c-1.5-1.2-1.3-3.2,0.9-2.6
		c1.2,0.3,2.9,1.4,3.9,2.2c1,0.8,1.1,1.4,1.2,2.5c0.1,0.8-0.1,1.7,0.8,2.4c1.4,1.1,2.7,2.5,4.2,3.4c1.4,0.8,4.5,1.4,4.9,3.3
		c0.3,1.4-1.2,2.4-1.2,3.7c-0.1,1.4,0.8,2.1,1.4,3.2c1,1.5,2.2,2.3,4.1,2c0.9-0.1,1.2-0.7,1.1-1.7s-0.7-1.2-1.6-1.6
		c-0.6-0.2-2.8-1.7-1-2.2c0.7-0.2,1.4,0.8,2,1c0.6,0.3,2.3,0.9,2.4,1.7c0.1,1.2-0.6,2.2,0.2,3.3c0.3,0.4,0.7,0.6,1.1,0.7
		c-0.1-0.4-0.2-0.9-0.3-1.4c-0.1-0.3-0.1-0.5-0.2-0.8c-0.5-2,0.4-3.2,1-4c0.3-0.4,0.5-0.7,0.6-1c0.1-0.4,0.2-1.3,0.1-1.6
		c0,0.1-0.1-0.1-0.3-0.2c-0.4-0.3-0.9-0.7-1.2-1.5c-0.4-1-0.5-2.3,1.3-3.2c0.1,0,0.1-0.1,0.2-0.1v-0.1c0-0.3-0.1-0.7,0-1.1
		C397.6,331.7,399.6,331.7,400.4,331.8"/>
	<g>
		<g>
			<g>
				<g>
					<g>
						<defs>
							<rect id="SVGID_1_" x="335.1" y="247.2" width="47.2" height="47.3"/>
						</defs>
						<clipPath id="SVGID_2_">
							<use xlink:href="#SVGID_1_"  style="overflow:visible;"/>
						</clipPath>
						<g class="st2">
							<g>
								<g>
									<g>
										<g>
											<defs>
												<rect id="SVGID_3_" x="335.1" y="247.2" width="47.2" height="47.3"/>
											</defs>
											<clipPath id="SVGID_4_">
												<use xlink:href="#SVGID_3_"  style="overflow:visible;"/>
											</clipPath>
											<path class="st3" d="M382.4,270.8c0,13-10.6,23.6-23.6,23.6s-23.6-10.6-23.6-23.6s10.6-23.6,23.6-23.6
												C371.8,247.2,382.4,257.8,382.4,270.8"/>
										</g>
									</g>
								</g>
							</g>
						</g>
					</g>
				</g>
			</g>
		</g>
	</g>
	<path class="st4" d="M380,270.8c0,11.7-9.5,21.3-21.3,21.3c-11.7,0-21.3-9.5-21.3-21.3c0-11.7,9.5-21.3,21.3-21.3
		C370.5,249.6,380,259.1,380,270.8z"/>
</g>
<g class="st5">
	<path class="st6" d="M162.3,13.1c-0.5,0-1,0-1.6,0.1c-3.8,0.3-5.5,2.2-5.9,4.4h0.1c0.9-0.9,2.2-1.5,3.9-1.5c3,0,5.6,2.2,5.6,5.9
		c0,3.6-2.8,6.6-6.7,6.6c-4.8,0-7.2-3.6-7.2-7.9c0-3.4,1.3-6.3,3.2-8.1c1.8-1.6,4.2-2.5,7-2.7c0.8-0.1,1.3-0.1,1.7,0v3.2H162.3z
		 M159.9,22.2c0-1.7-0.9-3.1-2.7-3.1c-1.1,0-2.1,0.7-2.5,1.6c-0.1,0.2-0.2,0.6-0.2,1.1c0.1,1.9,1,3.7,2.9,3.7
		C159,25.5,159.9,24.1,159.9,22.2z"/>
	<path class="st6" d="M166.4,26c0-1.5,1-2.6,2.5-2.6s2.5,1.1,2.5,2.6s-1,2.6-2.5,2.6S166.4,27.5,166.4,26z"/>
	<path class="st6" d="M186.5,10.1v2.7L179,28.3h-4.5l7.5-14.6v-0.1h-8.3v-3.5H186.5z"/>
	<path class="st6" d="M198.5,15.2c0,3.8-2.4,5.8-5,5.8c-2.8,0-4.9-2.1-4.9-5.5c0-3.2,2-5.7,5.1-5.7C196.8,9.8,198.5,12.1,198.5,15.2
		z M191.7,15.4c0,1.9,0.6,3.3,1.9,3.3c1.2,0,1.8-1.2,1.8-3.3c0-1.8-0.5-3.3-1.8-3.3C192.3,12.1,191.7,13.6,191.7,15.4z M193.7,28.6
		l10.4-18.8h2.3L196,28.6H193.7z M211.6,22.7c0,3.8-2.4,5.8-5,5.8c-2.7,0-4.9-2.1-4.9-5.5c0-3.2,2-5.7,5.1-5.7
		C209.8,17.4,211.6,19.6,211.6,22.7z M204.8,22.9c0,1.9,0.6,3.3,1.8,3.3s1.8-1.2,1.8-3.3c0-1.8-0.5-3.3-1.8-3.3
		C205.4,19.7,204.8,21.1,204.8,22.9z"/>
</g>
<g class="st5">
	<path class="st6" d="M169,40.9c-0.1-1.3-0.2-2.9-0.1-4.1l0,0c-0.3,1.1-0.7,2.3-1.2,3.6L166,45h-1l-1.5-4.5
		c-0.4-1.3-0.8-2.5-1.1-3.7l0,0c0,1.2-0.1,2.8-0.2,4.2l-0.3,4h-1.2l0.7-9.4h1.6l1.6,4.6c0.4,1.2,0.7,2.2,1,3.2l0,0
		c0.2-1,0.6-2,1-3.2l1.7-4.6h1.6l0.6,9.4h-1.2L169,40.9z"/>
</g>
<g class="st5">
	<path class="st6" d="M173,41.9c0,1.7,1.1,2.3,2.3,2.3c0.9,0,1.4-0.2,1.9-0.3l0.2,0.9c-0.4,0.2-1.2,0.4-2.3,0.4
		c-2.1,0-3.3-1.4-3.3-3.4s1.2-3.6,3.2-3.6c2.2,0,2.8,1.9,2.8,3.2c0,0.3,0,0.4,0,0.6L173,41.9L173,41.9z M176.6,41c0-0.8-0.3-2-1.7-2
		c-1.2,0-1.8,1.1-1.9,2H176.6z M176.9,35.4l-1.7,2h-0.9l1.2-2H176.9z"/>
</g>
<g class="st5">
	<path class="st6" d="M179.9,38.3l1,1.5c0.3,0.4,0.5,0.7,0.7,1.1l0,0c0.2-0.4,0.4-0.8,0.7-1.1l1-1.4h1.3l-2.3,3.3l2.4,3.5h-1.4
		l-1-1.5c-0.3-0.4-0.5-0.8-0.7-1.2l0,0c-0.2,0.4-0.5,0.8-0.7,1.2l-1,1.5h-1.4l2.4-3.5l-2.3-3.3h1.3V38.3z"/>
	<path class="st6" d="M187.2,36.4c0,0.4-0.3,0.8-0.8,0.8c-0.4,0-0.7-0.3-0.7-0.8c0-0.4,0.3-0.8,0.8-0.8
		C186.9,35.6,187.2,36,187.2,36.4z M185.8,45.1v-6.8h1.2v6.8H185.8z"/>
</g>
<g class="st5">
	<path class="st6" d="M193.8,44.8c-0.3,0.2-1,0.4-1.9,0.4c-2,0-3.4-1.4-3.4-3.5s1.4-3.6,3.6-3.6c0.7,0,1.4,0.2,1.7,0.3l-0.3,1
		c-0.3-0.2-0.8-0.3-1.4-0.3c-1.6,0-2.4,1.1-2.4,2.6c0,1.6,1,2.5,2.3,2.5c0.7,0,1.2-0.2,1.5-0.3L193.8,44.8z"/>
</g>
<g class="st5">
	<path class="st6" d="M201.3,41.6c0,2.5-1.7,3.6-3.4,3.6c-1.8,0-3.2-1.3-3.2-3.5c0-2.3,1.5-3.6,3.4-3.6S201.3,39.5,201.3,41.6z
		 M196,41.7c0,1.5,0.9,2.6,2.1,2.6c1.2,0,2.1-1.1,2.1-2.6c0-1.1-0.6-2.6-2-2.6C196.6,39.1,196,40.4,196,41.7z"/>
</g>
<g class="st5">
	<path class="st7" d="M331,135.7v2.8h-7.3v-2.8H331z"/>
	<path class="st7" d="M333,144.4v-2.6l2.3-2.1c4-3.5,5.9-5.6,6-7.7c0-1.5-0.9-2.7-3-2.7c-1.6,0-2.9,0.8-3.9,1.5l-1.2-3
		c1.4-1,3.5-1.9,6-1.9c4.1,0,6.4,2.4,6.4,5.7c0,3-2.2,5.5-4.8,7.8l-1.7,1.4v0.1h6.8v3.5H333z"/>
	<path class="st7" d="M348.7,142.1c0-1.5,1-2.6,2.5-2.6s2.5,1.1,2.5,2.6s-1,2.6-2.5,2.6C349.8,144.7,348.7,143.6,348.7,142.1z"/>
	<path class="st7" d="M363.3,144.4v-4.3h-8.1v-2.8l6.9-11.1h5.2v10.7h2.2v3.2h-2.2v4.3L363.3,144.4L363.3,144.4z M363.3,136.9v-4
		c0-1.1,0.1-2.2,0.1-3.4h-0.1c-0.6,1.2-1.1,2.2-1.7,3.4l-2.4,4v0.1h4.1V136.9z"/>
	<path class="st7" d="M380.9,131.3c0,3.8-2.4,5.8-5,5.8c-2.8,0-4.9-2.1-4.9-5.5c0-3.2,2-5.7,5.1-5.7
		C379.1,125.9,380.9,128.2,380.9,131.3z M374,131.5c0,1.9,0.6,3.3,1.9,3.3c1.2,0,1.8-1.2,1.8-3.3c0-1.8-0.5-3.3-1.8-3.3
		S374,129.7,374,131.5z M376,144.7l10.4-18.8h2.3l-10.5,18.8H376z M393.9,138.9c0,3.8-2.4,5.8-5,5.8c-2.7,0-4.9-2.1-4.9-5.5
		c0-3.2,2-5.7,5.1-5.7S393.9,135.8,393.9,138.9z M387.1,139.1c0,1.9,0.6,3.3,1.8,3.3c1.2,0,1.8-1.2,1.8-3.3c0-1.8-0.5-3.3-1.8-3.3
		C387.7,135.8,387.1,137.2,387.1,139.1z"/>
</g>
<g class="st5">
	<path class="st7" d="M323.6,160.9c-0.4,0.2-1.3,0.4-2.5,0.4c-2.7,0-4.7-1.7-4.7-4.8c0-2.9,2-4.9,4.9-4.9c1.2,0,1.9,0.3,2.2,0.4
		l-0.3,1c-0.5-0.2-1.1-0.4-1.9-0.4c-2.2,0-3.7,1.4-3.7,3.9c0,2.3,1.3,3.8,3.6,3.8c0.7,0,1.5-0.2,2-0.4L323.6,160.9z"/>
</g>
<g class="st5">
	<path class="st7" d="M325.6,158c0,1.7,1.1,2.3,2.3,2.3c0.9,0,1.4-0.2,1.9-0.3l0.2,0.9c-0.4,0.2-1.2,0.4-2.3,0.4
		c-2.1,0-3.3-1.4-3.3-3.4s1.2-3.6,3.2-3.6c2.2,0,2.8,1.9,2.8,3.2c0,0.3,0,0.4,0,0.6h-4.8V158z M329.2,157.1c0-0.8-0.3-2-1.7-2
		c-1.2,0-1.8,1.1-1.9,2H329.2z"/>
</g>
<g class="st5">
	<path class="st7" d="M331.9,156.2c0-0.7,0-1.3-0.1-1.8h1.1l0.1,1.1l0,0c0.3-0.6,1.1-1.3,2.2-1.3c0.9,0,2.4,0.6,2.4,2.9v4h-1.2v-3.9
		c0-1.1-0.4-2-1.6-2c-0.8,0-1.4,0.6-1.6,1.3c-0.1,0.2-0.1,0.4-0.1,0.6v4.1h-1.2L331.9,156.2L331.9,156.2z"/>
</g>
<g class="st5">
	<path class="st7" d="M341.1,152.5v1.9h1.8v0.9h-1.8v3.6c0,0.8,0.2,1.3,0.9,1.3c0.3,0,0.6,0,0.7-0.1l0.1,0.9
		c-0.2,0.1-0.6,0.2-1.1,0.2c-0.6,0-1-0.2-1.3-0.5c-0.3-0.4-0.5-1-0.5-1.8v-3.7h-1v-0.9h1v-1.6L341.1,152.5z"/>
</g>
<g class="st5">
	<path class="st7" d="M344.2,156.5c0-0.8,0-1.5-0.1-2.1h1.1v1.3h0.1c0.3-0.9,1-1.5,1.9-1.5c0.1,0,0.2,0,0.3,0v1.2
		c-0.1,0-0.3,0-0.4,0c-0.9,0-1.5,0.7-1.6,1.6c0,0.2-0.1,0.4-0.1,0.6v3.6h-1.2L344.2,156.5L344.2,156.5z"/>
</g>
<g class="st5">
	<path class="st7" d="M354.8,157.7c0,2.5-1.7,3.6-3.4,3.6c-1.8,0-3.2-1.3-3.2-3.5c0-2.3,1.5-3.6,3.4-3.6
		C353.5,154.3,354.8,155.7,354.8,157.7z M349.4,157.8c0,1.5,0.9,2.6,2.1,2.6s2.1-1.1,2.1-2.6c0-1.1-0.6-2.6-2-2.6
		C350,155.2,349.4,156.5,349.4,157.8z"/>
	<path class="st7" d="M360.1,161.2l-0.1-0.9l0,0c-0.4,0.5-1.1,1-2.1,1c-1.4,0-2.1-1-2.1-1.9c0-1.6,1.5-2.5,4.1-2.5v-0.1
		c0-0.6-0.2-1.6-1.5-1.6c-0.6,0-1.3,0.2-1.8,0.5l-0.3-0.8c0.6-0.4,1.4-0.6,2.2-0.6c2.1,0,2.6,1.4,2.6,2.8v2.5c0,0.6,0,1.2,0.1,1.6
		H360.1z M359.9,157.7c-1.3,0-2.9,0.2-2.9,1.5c0,0.8,0.5,1.2,1.2,1.2c0.9,0,1.4-0.6,1.6-1.1c0-0.1,0.1-0.3,0.1-0.4L359.9,157.7
		L359.9,157.7z"/>
	<path class="st7" d="M363.1,156.2c0-0.7,0-1.3-0.1-1.8h1.1l0.1,1.1l0,0c0.4-0.6,1-1.2,2.1-1.2c0.9,0,1.6,0.6,1.9,1.4l0,0
		c0.2-0.4,0.5-0.7,0.8-0.9c0.4-0.3,0.9-0.5,1.5-0.5c0.9,0,2.2,0.6,2.2,2.9v4h-1.2v-3.8c0-1.3-0.5-2.1-1.5-2.1
		c-0.7,0-1.2,0.5-1.5,1.1c-0.1,0.2-0.1,0.4-0.1,0.6v4.2h-1.2v-4.1c0-1.1-0.5-1.9-1.4-1.9c-0.8,0-1.3,0.6-1.5,1.2
		c-0.1,0.2-0.1,0.4-0.1,0.6v4.1H363v-4.9H363.1z"/>
	<path class="st7" d="M375.4,158c0,1.7,1.1,2.3,2.3,2.3c0.9,0,1.4-0.2,1.9-0.3l0.2,0.9c-0.4,0.2-1.2,0.4-2.3,0.4
		c-2.1,0-3.3-1.4-3.3-3.4s1.2-3.6,3.2-3.6c2.2,0,2.8,1.9,2.8,3.2c0,0.3,0,0.4,0,0.6h-4.8V158z M379,157.1c0-0.8-0.3-2-1.7-2
		c-1.2,0-1.8,1.1-1.9,2H379z M379.3,151.5l-1.7,2h-0.9l1.2-2H379.3z"/>
</g>
<g class="st5">
	<path class="st7" d="M381.7,156.5c0-0.8,0-1.5-0.1-2.1h1.1v1.3h0.1c0.3-0.9,1-1.5,1.9-1.5c0.1,0,0.2,0,0.3,0v1.2
		c-0.1,0-0.3,0-0.4,0c-0.9,0-1.5,0.7-1.6,1.6c0,0.2-0.1,0.4-0.1,0.6v3.6h-1.2L381.7,156.5L381.7,156.5z"/>
</g>
<g class="st5">
	<path class="st7" d="M387.7,152.5c0,0.4-0.3,0.8-0.8,0.8c-0.4,0-0.7-0.3-0.7-0.8c0-0.4,0.3-0.8,0.8-0.8
		C387.4,151.7,387.7,152.1,387.7,152.5z M386.3,161.2v-6.8h1.2v6.8H386.3z"/>
	<path class="st7" d="M394.4,160.9c-0.3,0.2-1,0.4-1.9,0.4c-2,0-3.4-1.4-3.4-3.5s1.4-3.6,3.6-3.6c0.7,0,1.4,0.2,1.7,0.3l-0.3,1
		c-0.3-0.2-0.8-0.3-1.4-0.3c-1.6,0-2.4,1.1-2.4,2.6c0,1.6,1,2.5,2.3,2.5c0.7,0,1.2-0.2,1.5-0.3L394.4,160.9z"/>
	<path class="st7" d="M399.6,161.2l-0.1-0.9l0,0c-0.4,0.5-1.1,1-2.1,1c-1.4,0-2.1-1-2.1-1.9c0-1.6,1.5-2.5,4.1-2.5v-0.1
		c0-0.6-0.2-1.6-1.5-1.6c-0.6,0-1.3,0.2-1.8,0.5l-0.3-0.8c0.6-0.4,1.4-0.6,2.2-0.6c2.1,0,2.6,1.4,2.6,2.8v2.5c0,0.6,0,1.2,0.1,1.6
		H399.6z M399.4,157.7c-1.3,0-2.9,0.2-2.9,1.5c0,0.8,0.5,1.2,1.2,1.2c0.9,0,1.4-0.6,1.6-1.1c0-0.1,0.1-0.3,0.1-0.4L399.4,157.7
		L399.4,157.7z"/>
</g>
<line class="st8" x1="180.8" y1="50.1" x2="180.8" y2="72.3"/>
<g>
	<path class="st9" d="M179,72.2c0,1,0.8,1.9,1.9,1.9c1,0,1.9-0.8,1.9-1.9c0-1-0.8-1.9-1.9-1.9S179,71.2,179,72.2"/>
	<line class="st10" x1="358.8" y1="172" x2="358.8" y2="240.8"/>
	<path class="st11" d="M356.9,240.7c0,1,0.8,1.9,1.9,1.9c1,0,1.9-0.8,1.9-1.9c0-1-0.8-1.9-1.9-1.9
		C357.7,238.8,356.9,239.7,356.9,240.7"/>
</g>
<g class="st5">
	<path class="st9" d="M562.1,202.1h5.4v1.6h-3.4v2h3.1v1.6h-3.1v3.5h-2V202.1z"/>
	<path class="st9" d="M574.8,207.6c0,2.3-1.6,3.4-3.4,3.4c-1.9,0-3.3-1.2-3.3-3.3c0-2.1,1.4-3.4,3.4-3.4
		C573.5,204.4,574.8,205.7,574.8,207.6z M570.2,207.7c0,1.1,0.5,1.9,1.3,1.9s1.3-0.8,1.3-1.9c0-0.9-0.4-1.9-1.3-1.9
		C570.6,205.8,570.2,206.7,570.2,207.7z"/>
	<path class="st9" d="M576,206.6c0-0.9,0-1.5-0.1-2.1h1.7l0.1,1.2h0.1c0.3-0.9,1.1-1.3,1.7-1.3c0.2,0,0.3,0,0.4,0v1.9
		c-0.1,0-0.3-0.1-0.5-0.1c-0.7,0-1.2,0.4-1.4,1c0,0.1,0,0.3,0,0.4v3.2h-2V206.6z"/>
	<path class="st9" d="M581,206.5c0-0.8,0-1.5-0.1-2h1.7l0.1,0.9l0,0c0.3-0.4,0.8-1,1.9-1c0.8,0,1.5,0.4,1.7,1.1l0,0
		c0.2-0.3,0.5-0.6,0.8-0.8c0.4-0.2,0.7-0.3,1.2-0.3c1.2,0,2.1,0.9,2.1,2.8v3.7h-1.9v-3.5c0-0.9-0.3-1.5-0.9-1.5
		c-0.5,0-0.8,0.3-0.9,0.7c-0.1,0.1-0.1,0.4-0.1,0.5v3.7h-1.9v-3.6c0-0.8-0.3-1.4-0.9-1.4c-0.5,0-0.8,0.4-0.9,0.7
		c-0.1,0.2-0.1,0.3-0.1,0.5v3.7H581V206.5z"/>
	<path class="st9" d="M595.7,210.9l-0.1-0.6l0,0c-0.4,0.5-1.1,0.8-1.8,0.8c-1.3,0-2.1-0.9-2.1-1.9c0-1.6,1.5-2.4,3.7-2.4v-0.1
		c0-0.3-0.2-0.8-1.2-0.8c-0.6,0-1.3,0.2-1.8,0.5l-0.4-1.3c0.4-0.2,1.3-0.6,2.5-0.6c2.1,0,2.8,1.2,2.8,2.7v2.2c0,0.6,0,1.2,0.1,1.5
		L595.7,210.9L595.7,210.9z M595.5,207.9c-1,0-1.8,0.2-1.8,1c0,0.5,0.3,0.8,0.8,0.8s0.9-0.3,1-0.7c0-0.1,0-0.2,0-0.3V207.9z"/>
	<path class="st9" d="M601.1,202.7v1.8h1.4v1.5h-1.4v2.3c0,0.8,0.2,1.1,0.8,1.1c0.2,0,0.4,0,0.6-0.1v1.5c-0.3,0.1-0.7,0.2-1.3,0.2
		s-1.2-0.2-1.5-0.5c-0.4-0.4-0.5-1-0.5-1.9V206h-0.8v-1.5h0.8v-1.4L601.1,202.7z"/>
	<path class="st9" d="M609.8,207.6c0,2.3-1.6,3.4-3.3,3.4c-1.9,0-3.3-1.2-3.3-3.3c0-2.1,1.3-3.4,3.4-3.4
		C608.5,204.4,609.8,205.7,609.8,207.6z M605.2,207.7c0,1.1,0.5,1.9,1.3,1.9s1.3-0.8,1.3-1.9c0-0.9-0.4-1.9-1.3-1.9
		C605.6,205.8,605.2,206.7,605.2,207.7z"/>
	<path class="st9" d="M615.1,202.6l-1.4,1.6l0,0l2.1-0.4v1.3l-2.1-0.4l0,0l1.4,1.6l-1.2,0.7l-0.7-2l0,0l-0.8,2l-1.1-0.7l1.4-1.6l0,0
		l-2,0.4v-1.3l2,0.4l0,0l-1.4-1.6l1.2-0.7l0.7,2l0,0l0.7-2L615.1,202.6z"/>
</g>
<g>
	<path class="st6" d="M561.3,230.4H753c3.1,0,5.7,2.5,5.7,5.7c0,3.1-2.5,5.7-5.7,5.7H561.3V230.4z"/>
	<path class="st6" d="M561.3,254.9h146.9c3.1,0,5.7,2.5,5.7,5.7c0,3.1-2.5,5.7-5.7,5.7H561.3V254.9z"/>
	<path class="st6" d="M561.3,279.3h144.9c3.1,0,5.7,2.5,5.7,5.7c0,3.1-2.5,5.7-5.7,5.7H561.3V279.3z"/>
	<path class="st6" d="M561.3,303.8h85.9c3.1,0,5.7,2.5,5.7,5.7c0,3.1-2.5,5.7-5.7,5.7h-85.9V303.8z"/>
	<line class="st12" x1="561.3" y1="321.7" x2="561.3" y2="223.8"/>
</g>
<g class="st5">
	<path class="st9" d="M473.9,302.6c0.5-0.1,1.1-0.2,1.8-0.2c1.1,0,1.8,0.2,2.3,0.7c0.4,0.4,0.5,0.8,0.5,1.4c0,0.9-0.6,1.6-1.5,1.9
		l0,0c0.7,0.2,1.9,0.8,1.9,2.2c0,0.7-0.3,1.3-0.6,1.7c-0.6,0.6-1.5,0.8-2.8,0.8c-0.7,0-1.2-0.1-1.5-0.1L473.9,302.6L473.9,302.6z
		 M474.6,306.3h1.3c1.3,0,2.1-0.8,2.1-1.7c0-1.2-0.9-1.7-2.2-1.7c-0.6,0-0.9,0-1.1,0.1L474.6,306.3L474.6,306.3z M474.6,310.7
		c0.3,0.1,0.6,0.1,1.1,0.1c1.3,0,2.6-0.5,2.6-2c0-1.4-1.2-2-2.6-2h-1.1V310.7z"/>
	<path class="st9" d="M485.9,308c0,2.3-1.6,3.3-3,3.3c-1.6,0-2.9-1.3-2.9-3.2c0-2.1,1.4-3.3,2.9-3.3
		C484.7,304.8,485.9,306.1,485.9,308z M480.6,308.1c0,1.6,1,2.7,2.3,2.7s2.3-1.2,2.3-2.8c0-1.1-0.6-2.7-2.3-2.7
		C481.4,305.3,480.6,306.7,480.6,308.1z"/>
	<path class="st9" d="M492.4,302v7.8c0,0.5,0,1,0.1,1.5h-0.6l-0.1-1.2l0,0c-0.3,0.7-1.1,1.3-2.2,1.3c-1.5,0-2.7-1.3-2.7-3.1
		c0-2.1,1.3-3.4,2.8-3.4c1.1,0,1.8,0.6,2,1.1l0,0v-4H492.4z M491.8,307.4c0-0.2,0-0.4-0.1-0.6c-0.2-0.8-0.9-1.5-2-1.5
		c-1.4,0-2.2,1.2-2.2,2.8c0,1.4,0.7,2.7,2.2,2.7c0.9,0,1.7-0.6,2-1.6c0.1-0.2,0.1-0.3,0.1-0.5V307.4z"/>
	<path class="st9" d="M494.6,308c0,2,1.1,2.8,2.4,2.8c0.9,0,1.4-0.2,1.7-0.4l0.2,0.5c-0.2,0.1-0.9,0.4-2,0.4c-1.8,0-2.9-1.3-2.9-3.1
		c0-2.1,1.2-3.4,2.8-3.4c2,0,2.4,1.9,2.4,2.8c0,0.2,0,0.3,0,0.4L494.6,308L494.6,308z M498.6,307.5c0-0.9-0.4-2.2-1.9-2.2
		c-1.4,0-2,1.2-2.1,2.2H498.6z"/>
	<path class="st9" d="M505.8,310.3c0,1.6-0.3,2.4-0.9,2.9s-1.4,0.7-2.1,0.7s-1.5-0.2-2-0.5l0.2-0.5c0.4,0.3,1.1,0.5,1.9,0.5
		c1.3,0,2.3-0.7,2.3-2.5V310l0,0c-0.3,0.6-1.1,1.2-2.2,1.2c-1.6,0-2.7-1.4-2.7-3.1c0-2.2,1.4-3.3,2.8-3.3c1.2,0,1.8,0.7,2.1,1.2l0,0
		v-1.1h0.6c0,0.5-0.1,1-0.1,1.6v3.8H505.8z M505.1,307.3c0-0.2,0-0.4-0.1-0.6c-0.3-0.8-0.9-1.4-1.9-1.4c-1.3,0-2.2,1.1-2.2,2.7
		c0,1.4,0.7,2.6,2.2,2.6c0.8,0,1.6-0.5,1.9-1.4c0.1-0.2,0.1-0.4,0.1-0.7V307.3z"/>
	<path class="st9" d="M511.7,309.7c0,0.5,0,1,0.1,1.5h-0.6l-0.1-0.9l0,0c-0.3,0.5-1,1-2,1c-1.3,0-1.8-0.9-1.8-1.7
		c0-1.4,1.3-2.3,3.8-2.3v-0.2c0-0.6-0.1-1.8-1.6-1.8c-0.5,0-1.1,0.1-1.6,0.5l-0.2-0.5c0.6-0.4,1.3-0.5,1.8-0.5
		c1.8,0,2.2,1.4,2.2,2.5L511.7,309.7L511.7,309.7z M511.1,307.8c-1.4,0-3.2,0.2-3.2,1.7c0,0.9,0.6,1.3,1.2,1.3c1,0,1.6-0.6,1.8-1.2
		c0.1-0.1,0.1-0.3,0.1-0.4v-1.4H511.1z"/>
	<path class="st9" d="M517.6,308.1l-1.1,3.1h-0.6l3.2-8.8h0.6l3.1,8.8h-0.6l-1.1-3.1H517.6z M520.9,307.6l-1.1-2.9
		c-0.2-0.6-0.3-1.1-0.5-1.5l0,0c-0.1,0.5-0.3,1-0.5,1.5l-1.1,2.9H520.9z"/>
	<path class="st9" d="M528.9,309.7c0,0.5,0,1,0.1,1.5h-0.6v-1.1l0,0c-0.3,0.6-1,1.3-2.1,1.3c-0.8,0-2.1-0.4-2.1-2.8V305h0.6v3.5
		c0,1.4,0.4,2.3,1.6,2.3c0.9,0,1.6-0.6,1.8-1.3c0.1-0.2,0.1-0.4,0.1-0.7v-3.9h0.6L528.9,309.7L528.9,309.7z"/>
	<path class="st9" d="M530.9,306.8c0-0.6,0-1.3-0.1-1.9h0.6v1.3l0,0c0.3-0.8,0.9-1.4,1.8-1.4c0.1,0,0.2,0,0.3,0v0.6
		c-0.1,0-0.2,0-0.3,0c-0.9,0-1.5,0.7-1.6,1.7c0,0.2-0.1,0.4-0.1,0.6v3.4h-0.6L530.9,306.8L530.9,306.8z"/>
	<path class="st9" d="M534.9,306.8c0-0.6,0-1.3-0.1-1.9h0.6v1.3l0,0c0.3-0.8,0.9-1.4,1.8-1.4c0.1,0,0.2,0,0.3,0v0.6
		c-0.1,0-0.2,0-0.3,0c-0.9,0-1.5,0.7-1.6,1.7c0,0.2-0.1,0.4-0.1,0.6v3.4h-0.6L534.9,306.8L534.9,306.8z"/>
	<path class="st9" d="M538.6,308c0,2,1.1,2.8,2.4,2.8c0.9,0,1.4-0.2,1.7-0.4l0.2,0.5c-0.2,0.1-0.9,0.4-2,0.4c-1.8,0-2.9-1.3-2.9-3.1
		c0-2.1,1.2-3.4,2.8-3.4c2,0,2.4,1.9,2.4,2.8c0,0.2,0,0.3,0,0.4L538.6,308L538.6,308z M542.6,307.5c0-0.9-0.4-2.2-1.9-2.2
		c-1.4,0-2,1.2-2.1,2.2H542.6z"/>
	<path class="st9" d="M544.8,306.8c0-0.6,0-1.3-0.1-1.9h0.6v1.3l0,0c0.3-0.8,0.9-1.4,1.8-1.4c0.1,0,0.2,0,0.3,0v0.6
		c-0.1,0-0.2,0-0.3,0c-0.9,0-1.5,0.7-1.6,1.7c0,0.2-0.1,0.4-0.1,0.6v3.4h-0.6L544.8,306.8L544.8,306.8z"/>
	<path class="st9" d="M552.6,309.7c0,0.5,0,1,0.1,1.5h-0.6l-0.1-0.9l0,0c-0.3,0.5-1,1-2,1c-1.3,0-1.8-0.9-1.8-1.7
		c0-1.4,1.3-2.3,3.8-2.3v-0.2c0-0.6-0.1-1.8-1.6-1.8c-0.5,0-1.1,0.1-1.6,0.5l-0.2-0.5c0.6-0.4,1.3-0.5,1.8-0.5
		c1.8,0,2.2,1.4,2.2,2.5L552.6,309.7L552.6,309.7z M551.9,307.8c-1.4,0-3.2,0.2-3.2,1.7c0,0.9,0.6,1.3,1.2,1.3c1,0,1.6-0.6,1.8-1.2
		c0.1-0.1,0.1-0.3,0.1-0.4v-1.4H551.9z"/>
</g>
<g class="st5">
	<path class="st9" d="M501.8,285.7c0.5,0.3,1.2,0.6,1.9,0.6c1.3,0,2.1-0.7,2.1-1.8c0-1-0.5-1.6-1.8-2.1c-1.4-0.5-2.2-1.2-2.2-2.4
		c0-1.3,1.1-2.2,2.5-2.2c0.8,0,1.4,0.2,1.7,0.4l-0.2,0.5c-0.2-0.2-0.8-0.4-1.5-0.4c-1.4,0-1.9,0.9-1.9,1.6c0,1,0.6,1.5,1.8,2
		c1.4,0.6,2.2,1.2,2.2,2.5s-0.9,2.4-2.8,2.4c-0.8,0-1.6-0.2-2.1-0.6L501.8,285.7z"/>
	<path class="st9" d="M512.9,285.2c0,0.5,0,1,0.1,1.5h-0.6v-1.1l0,0c-0.3,0.6-1,1.3-2.1,1.3c-0.8,0-2.1-0.4-2.1-2.8v-3.6h0.6v3.5
		c0,1.4,0.4,2.3,1.6,2.3c0.9,0,1.6-0.6,1.8-1.3c0.1-0.2,0.1-0.4,0.1-0.7v-3.9h0.6L512.9,285.2L512.9,285.2z"/>
	<path class="st9" d="M515,282.5c0-0.8,0-1.4-0.1-2h0.6v1.2l0,0c0.5-0.8,1.2-1.3,2.3-1.3c1.6,0,2.7,1.3,2.7,3.2
		c0,2.2-1.3,3.4-2.8,3.4c-0.9,0-1.7-0.4-2.1-1.2l0,0v3.6H515V282.5z M515.6,284.3c0,0.2,0,0.3,0.1,0.5c0.3,1,1.1,1.6,2.1,1.6
		c1.4,0,2.2-1.2,2.2-2.8c0-1.4-0.8-2.7-2.2-2.7c-0.9,0-1.8,0.6-2.1,1.6c0,0.2-0.1,0.4-0.1,0.5V284.3z"/>
	<path class="st9" d="M522.3,283.5c0,2,1.1,2.8,2.4,2.8c0.9,0,1.4-0.2,1.7-0.4l0.2,0.5c-0.2,0.1-0.9,0.4-2,0.4
		c-1.8,0-2.9-1.3-2.9-3.1c0-2.1,1.2-3.4,2.8-3.4c2,0,2.4,1.9,2.4,2.8c0,0.2,0,0.3,0,0.4L522.3,283.5L522.3,283.5z M526.2,283
		c0-0.9-0.4-2.2-1.9-2.2c-1.4,0-2,1.2-2.1,2.2H526.2z"/>
	<path class="st9" d="M528.5,282.3c0-0.6,0-1.3-0.1-1.9h0.6v1.3l0,0c0.3-0.8,0.9-1.4,1.8-1.4c0.1,0,0.2,0,0.3,0v0.6
		c-0.1,0-0.2,0-0.3,0c-0.9,0-1.5,0.7-1.6,1.7c0,0.2-0.1,0.4-0.1,0.6v3.4h-0.6L528.5,282.3L528.5,282.3z"/>
	<path class="st9" d="M536.2,285.2c0,0.5,0,1,0.1,1.5h-0.6l-0.1-0.9l0,0c-0.3,0.5-1,1-2,1c-1.3,0-1.8-0.9-1.8-1.7
		c0-1.4,1.3-2.3,3.8-2.3v-0.2c0-0.6-0.1-1.8-1.6-1.8c-0.5,0-1.1,0.1-1.6,0.5l-0.2-0.5c0.6-0.4,1.3-0.5,1.8-0.5
		c1.8,0,2.2,1.4,2.2,2.5L536.2,285.2L536.2,285.2z M535.6,283.4c-1.4,0-3.2,0.2-3.2,1.7c0,0.9,0.6,1.3,1.2,1.3c1,0,1.6-0.6,1.8-1.2
		c0.1-0.1,0.1-0.3,0.1-0.4v-1.4H535.6z"/>
	<path class="st9" d="M538.2,282c0-0.6,0-1-0.1-1.5h0.6v1.1l0,0c0.4-0.7,1-1.2,2-1.2c0.9,0,1.5,0.6,1.8,1.4l0,0
		c0.2-0.4,0.4-0.6,0.6-0.8c0.4-0.3,0.8-0.5,1.5-0.5c0.6,0,2,0.3,2,2.7v3.7H546v-3.6c0-1.4-0.5-2.2-1.6-2.2c-0.8,0-1.4,0.6-1.6,1.2
		c-0.1,0.2-0.1,0.4-0.1,0.6v4h-0.6V283c0-1.1-0.5-1.9-1.5-1.9c-0.8,0-1.5,0.7-1.7,1.4c-0.1,0.2-0.1,0.4-0.1,0.6v3.8h-0.6L538.2,282
		L538.2,282z"/>
	<path class="st9" d="M552.7,285.2c0,0.5,0,1,0.1,1.5h-0.6l-0.1-0.9l0,0c-0.3,0.5-1,1-2,1c-1.3,0-1.8-0.9-1.8-1.7
		c0-1.4,1.3-2.3,3.8-2.3v-0.2c0-0.6-0.1-1.8-1.6-1.8c-0.5,0-1.1,0.1-1.6,0.5l-0.2-0.5c0.6-0.4,1.3-0.5,1.8-0.5
		c1.8,0,2.2,1.4,2.2,2.5L552.7,285.2L552.7,285.2z M552.1,283.4c-1.4,0-3.2,0.2-3.2,1.7c0,0.9,0.6,1.3,1.2,1.3c1,0,1.6-0.6,1.8-1.2
		c0.1-0.1,0.1-0.3,0.1-0.4v-1.4H552.1z"/>
</g>
<g class="st5">
	<path class="st9" d="M512,262.2l-2.3-8.8h0.6l1.3,4.9c0.3,1.1,0.6,2.2,0.7,3l0,0c0.1-0.8,0.5-1.9,0.8-3l1.4-4.9h0.6l1.3,4.9
		c0.3,1.1,0.6,2.2,0.7,3l0,0c0.2-0.9,0.5-1.9,0.8-3l1.4-4.9h0.6l-2.6,8.8h-0.6l-1.3-5c-0.4-1.3-0.6-2.1-0.7-3l0,0
		c-0.1,0.8-0.4,1.7-0.8,3l-1.5,5H512z"/>
	<path class="st9" d="M524.7,260.8c0,0.5,0,1,0.1,1.5h-0.6l-0.1-0.9l0,0c-0.3,0.5-1,1-2,1c-1.3,0-1.8-0.9-1.8-1.7
		c0-1.4,1.3-2.3,3.8-2.3v-0.2c0-0.6-0.1-1.8-1.6-1.8c-0.5,0-1.1,0.1-1.6,0.5l-0.2-0.5c0.6-0.4,1.3-0.5,1.8-0.5
		c1.8,0,2.2,1.4,2.2,2.5L524.7,260.8L524.7,260.8z M524.1,258.9c-1.4,0-3.2,0.2-3.2,1.7c0,0.9,0.6,1.3,1.2,1.3c1,0,1.6-0.6,1.8-1.2
		c0.1-0.1,0.1-0.3,0.1-0.4v-1.4H524.1z"/>
	<path class="st9" d="M526.7,253h0.6v9.2h-0.6V253z"/>
	<path class="st9" d="M529.4,257.5c0-0.6,0-1-0.1-1.5h0.6v1.1l0,0c0.4-0.7,1-1.2,2-1.2c0.9,0,1.5,0.6,1.8,1.4l0,0
		c0.2-0.4,0.4-0.6,0.6-0.8c0.4-0.3,0.8-0.5,1.5-0.5c0.6,0,2,0.3,2,2.7v3.7h-0.6v-3.6c0-1.4-0.5-2.2-1.6-2.2c-0.8,0-1.4,0.6-1.6,1.2
		c-0.1,0.2-0.1,0.4-0.1,0.6v4h-0.6v-3.9c0-1.1-0.5-1.9-1.5-1.9c-0.8,0-1.5,0.7-1.7,1.4c-0.1,0.2-0.1,0.4-0.1,0.6v3.8h-0.6
		L529.4,257.5L529.4,257.5z"/>
	<path class="st9" d="M544,260.8c0,0.5,0,1,0.1,1.5h-0.6l-0.1-0.9l0,0c-0.3,0.5-1,1-2,1c-1.3,0-1.8-0.9-1.8-1.7
		c0-1.4,1.3-2.3,3.8-2.3v-0.2c0-0.6-0.1-1.8-1.6-1.8c-0.5,0-1.1,0.1-1.6,0.5l-0.2-0.5c0.6-0.4,1.3-0.5,1.8-0.5
		c1.8,0,2.2,1.4,2.2,2.5L544,260.8L544,260.8z M543.3,258.9c-1.4,0-3.2,0.2-3.2,1.7c0,0.9,0.6,1.3,1.2,1.3c1,0,1.6-0.6,1.8-1.2
		c0.1-0.1,0.1-0.3,0.1-0.4v-1.4H543.3z"/>
	<path class="st9" d="M546,257.9c0-0.6,0-1.3-0.1-1.9h0.6v1.3l0,0c0.3-0.8,0.9-1.4,1.8-1.4c0.1,0,0.2,0,0.3,0v0.6
		c-0.1,0-0.2,0-0.3,0c-0.9,0-1.5,0.7-1.6,1.7c0,0.2-0.1,0.4-0.1,0.6v3.4H546V257.9z"/>
	<path class="st9" d="M551,254.6v1.4h1.8v0.5H551v4.1c0,0.8,0.2,1.3,0.9,1.3c0.3,0,0.6,0,0.7-0.1l0.1,0.5c-0.2,0.1-0.5,0.2-0.9,0.2
		c-0.5,0-0.8-0.1-1.1-0.4s-0.4-0.9-0.4-1.5v-3.9h-1.1V256h1.1v-1.1L551,254.6z"/>
</g>
<g class="st5">
	<path class="st9" d="M497.4,236.8c0.5,0.3,1.2,0.6,1.9,0.6c1.3,0,2.1-0.7,2.1-1.8c0-1-0.5-1.6-1.8-2.1c-1.4-0.5-2.2-1.2-2.2-2.4
		c0-1.3,1.1-2.2,2.5-2.2c0.8,0,1.4,0.2,1.7,0.4l-0.2,0.5c-0.2-0.2-0.8-0.4-1.5-0.4c-1.4,0-1.9,0.9-1.9,1.6c0,1,0.6,1.5,1.8,2
		c1.4,0.6,2.2,1.2,2.2,2.5s-0.9,2.4-2.8,2.4c-0.8,0-1.6-0.2-2.1-0.6L497.4,236.8z"/>
	<path class="st9" d="M507.5,236.3c0,0.5,0,1,0.1,1.5H507l-0.1-0.9l0,0c-0.3,0.5-1,1-2,1c-1.3,0-1.8-0.9-1.8-1.7
		c0-1.4,1.3-2.3,3.8-2.3v-0.2c0-0.6-0.1-1.8-1.6-1.8c-0.5,0-1.1,0.1-1.6,0.5l-0.2-0.5c0.6-0.4,1.3-0.5,1.8-0.5
		c1.8,0,2.2,1.4,2.2,2.5L507.5,236.3L507.5,236.3z M506.9,234.4c-1.4,0-3.2,0.2-3.2,1.7c0,0.9,0.6,1.3,1.2,1.3c1,0,1.6-0.6,1.8-1.2
		c0.1-0.1,0.1-0.3,0.1-0.4v-1.4H506.9z"/>
	<path class="st9" d="M509.5,233c0-0.6,0-1-0.1-1.5h0.6v1.1l0,0c0.4-0.7,1-1.2,2-1.2c0.9,0,1.5,0.6,1.8,1.4l0,0
		c0.2-0.4,0.4-0.6,0.6-0.8c0.4-0.3,0.8-0.5,1.5-0.5c0.6,0,2,0.3,2,2.7v3.7h-0.6v-3.6c0-1.4-0.5-2.2-1.6-2.2c-0.8,0-1.4,0.6-1.6,1.2
		c-0.1,0.2-0.1,0.4-0.1,0.6v4h-0.6V234c0-1.1-0.5-1.9-1.5-1.9c-0.8,0-1.5,0.7-1.7,1.4c-0.1,0.2-0.1,0.4-0.1,0.6v3.8h-0.6L509.5,233
		L509.5,233z"/>
	<path class="st9" d="M520.6,228.8l-0.2,2.9H520l-0.2-2.9H520.6z"/>
	<path class="st9" d="M522.2,237c0.3,0.2,0.8,0.4,1.4,0.4c1,0,1.5-0.5,1.5-1.2s-0.4-1.1-1.3-1.4c-1-0.4-1.6-0.9-1.6-1.7
		c0-0.9,0.7-1.7,1.9-1.7c0.6,0,1.1,0.2,1.4,0.4l-0.2,0.5c-0.2-0.2-0.6-0.4-1.2-0.4c-0.8,0-1.2,0.5-1.2,1.1s0.4,0.9,1.3,1.3
		c1,0.4,1.6,0.9,1.6,1.8c0,1.1-0.8,1.8-2.1,1.8c-0.6,0-1.2-0.2-1.6-0.4L522.2,237z"/>
	<path class="st9" d="M536.1,237.5c-0.4,0.2-1.3,0.4-2.4,0.4c-2.1,0-4.1-1.4-4.1-4.5c0-2.6,1.7-4.6,4.4-4.6c1.1,0,1.8,0.2,2,0.4
		l-0.2,0.5c-0.4-0.2-1.1-0.4-1.8-0.4c-2.4,0-3.8,1.5-3.8,4.1c0,2.4,1.4,3.9,3.7,3.9c0.7,0,1.5-0.2,2-0.4L536.1,237.5z"/>
	<path class="st9" d="M537.5,228.6h0.6v9.2h-0.6V228.6z"/>
	<path class="st9" d="M545.1,236.3c0,0.5,0,1,0.1,1.5h-0.6v-1.1l0,0c-0.3,0.6-1,1.3-2.1,1.3c-0.8,0-2.1-0.4-2.1-2.8v-3.6h0.6v3.5
		c0,1.4,0.4,2.3,1.6,2.3c0.9,0,1.6-0.6,1.8-1.3c0.1-0.2,0.1-0.4,0.1-0.7v-3.9h0.6L545.1,236.3L545.1,236.3z"/>
	<path class="st9" d="M547.2,228.6h0.6v4.2l0,0c0.4-0.8,1.2-1.3,2.3-1.3c1.6,0,2.7,1.3,2.7,3.2c0,2.2-1.4,3.3-2.8,3.3
		c-1,0-1.7-0.4-2.2-1.3l0,0l-0.1,1.1h-0.6c0-0.4,0.1-1,0.1-1.5V228.6z M547.8,235.4c0,0.1,0,0.3,0.1,0.5c0.3,0.9,1.1,1.6,2.1,1.6
		c1.4,0,2.2-1.2,2.2-2.8c0-1.4-0.8-2.7-2.2-2.7c-0.9,0-1.8,0.6-2.1,1.7c0,0.2-0.1,0.3-0.1,0.5V235.4z"/>
</g>
<g class="st5">
	<path class="st9" d="M561.1,42.2l4.2-6v-0.1h-3.8v-1.6h6.4v1.1l-4.1,5.9v0.1h4.1v1.6h-6.8L561.1,42.2L561.1,42.2z"/>
	<path class="st9" d="M575.3,40.1c0,2.3-1.6,3.4-3.3,3.4c-1.9,0-3.3-1.2-3.3-3.3s1.3-3.4,3.4-3.4C574,36.8,575.3,38.1,575.3,40.1z
		 M570.7,40.1c0,1.1,0.5,1.9,1.3,1.9s1.3-0.8,1.3-1.9c0-0.9-0.4-1.9-1.3-1.9C571,38.2,570.7,39.2,570.7,40.1z"/>
	<path class="st9" d="M576.5,39c0-0.8,0-1.5-0.1-2h1.7l0.1,0.9l0,0c0.3-0.4,0.9-1,2-1c1.3,0,2.3,0.9,2.3,2.7v3.8h-2v-3.5
		c0-0.8-0.3-1.4-1-1.4c-0.5,0-0.9,0.4-1,0.7c-0.1,0.1-0.1,0.3-0.1,0.5v3.7h-2L576.5,39L576.5,39z"/>
	<path class="st9" d="M587.7,43.3l-0.1-0.6l0,0c-0.4,0.5-1.1,0.8-1.8,0.8c-1.3,0-2.1-0.9-2.1-1.9c0-1.6,1.5-2.4,3.7-2.4V39
		c0-0.3-0.2-0.8-1.2-0.8c-0.6,0-1.3,0.2-1.8,0.5l-0.4-1.3c0.4-0.2,1.3-0.6,2.5-0.6c2.1,0,2.8,1.2,2.8,2.7v2.2c0,0.6,0,1.2,0.1,1.5
		h-1.7V43.3z M587.5,40.3c-1,0-1.8,0.2-1.8,1c0,0.5,0.3,0.8,0.8,0.8s0.9-0.3,1-0.7c0-0.1,0-0.2,0-0.3V40.3z"/>
	<path class="st9" d="M599.6,37c0,0.4-0.1,0.9-0.1,1.9v3.5c0,1.2-0.2,2.2-1,2.9c-0.7,0.6-1.6,0.8-2.6,0.8c-0.8,0-1.7-0.2-2.3-0.5
		l0.4-1.5c0.4,0.2,1.1,0.5,1.8,0.5c0.9,0,1.6-0.5,1.6-1.7v-0.4l0,0c-0.4,0.5-1,0.8-1.7,0.8c-1.6,0-2.7-1.3-2.7-3.1
		c0-2,1.3-3.3,2.9-3.3c0.9,0,1.4,0.4,1.7,0.9l0,0l0.1-0.8L599.6,37L599.6,37z M597.6,39.5c0-0.1,0-0.3,0-0.4
		c-0.1-0.5-0.5-0.9-1.1-0.9c-0.7,0-1.3,0.6-1.3,1.8c0,0.9,0.5,1.7,1.3,1.7c0.5,0,0.9-0.3,1-0.8c0.1-0.1,0.1-0.4,0.1-0.5V39.5z"/>
	<path class="st9" d="M602.7,40.8c0.1,0.8,0.9,1.2,1.8,1.2c0.7,0,1.2-0.1,1.8-0.3l0.3,1.3c-0.6,0.3-1.4,0.4-2.3,0.4
		c-2.2,0-3.4-1.2-3.4-3.2c0-1.6,1-3.4,3.2-3.4c2.1,0,2.8,1.6,2.8,3.2c0,0.3,0,0.6-0.1,0.8H602.7z M605,39.4c0-0.5-0.2-1.3-1.1-1.3
		c-0.8,0-1.2,0.8-1.2,1.3H605z"/>
	<path class="st9" d="M614.3,40.1c0,2.3-1.6,3.4-3.3,3.4c-1.9,0-3.3-1.2-3.3-3.3s1.3-3.4,3.4-3.4C613,36.8,614.3,38.1,614.3,40.1z
		 M609.7,40.1c0,1.1,0.5,1.9,1.3,1.9s1.3-0.8,1.3-1.9c0-0.9-0.4-1.9-1.3-1.9C610.1,38.2,609.7,39.2,609.7,40.1z"/>
	<path class="st9" d="M621.6,37c0,0.4-0.1,0.9-0.1,1.9v3.5c0,1.2-0.2,2.2-1,2.9c-0.7,0.6-1.6,0.8-2.6,0.8c-0.8,0-1.7-0.2-2.3-0.5
		l0.4-1.5c0.4,0.2,1.1,0.5,1.8,0.5c0.9,0,1.6-0.5,1.6-1.7v-0.4l0,0c-0.4,0.5-1,0.8-1.7,0.8c-1.6,0-2.7-1.3-2.7-3.1
		c0-2,1.3-3.3,2.9-3.3c0.9,0,1.4,0.4,1.7,0.9l0,0l0.1-0.8L621.6,37L621.6,37z M619.6,39.5c0-0.1,0-0.3,0-0.4
		c-0.1-0.5-0.5-0.9-1.1-0.9c-0.7,0-1.3,0.6-1.3,1.8c0,0.9,0.5,1.7,1.3,1.7c0.5,0,0.9-0.3,1-0.8c0.1-0.1,0.1-0.4,0.1-0.5V39.5z"/>
	<path class="st9" d="M623.1,39c0-0.9,0-1.5-0.1-2.1h1.7l0.1,1.2h0.1c0.3-0.9,1.1-1.3,1.7-1.3c0.2,0,0.3,0,0.4,0v1.9
		c-0.1,0-0.3-0.1-0.5-0.1c-0.7,0-1.2,0.4-1.4,1c0,0.1,0,0.3,0,0.4v3.2h-2V39z"/>
	<path class="st9" d="M631.5,43.3l-0.1-0.6l0,0c-0.4,0.5-1.1,0.8-1.8,0.8c-1.3,0-2.1-0.9-2.1-1.9c0-1.6,1.5-2.4,3.7-2.4V39
		c0-0.3-0.2-0.8-1.2-0.8c-0.6,0-1.3,0.2-1.8,0.5l-0.4-1.3c0.4-0.2,1.3-0.6,2.5-0.6c2.1,0,2.8,1.2,2.8,2.7v2.2c0,0.6,0,1.2,0.1,1.5
		h-1.7V43.3z M631.3,40.3c-1,0-1.8,0.2-1.8,1c0,0.5,0.3,0.8,0.8,0.8s0.9-0.3,1-0.7c0-0.1,0-0.2,0-0.3V40.3z M632.6,34.2l-1.6,2h-1.4
		l1.1-2H632.6z"/>
	<path class="st9" d="M635,43.3v-4.9h-0.8V37h0.8v-0.3c0-1.8,1.4-2.7,3.3-2.7c0.7,0,1.5,0.2,1.9,0.4l-0.4,1.5
		c-0.3-0.2-0.8-0.3-1.4-0.3c-1,0-1.4,0.5-1.4,1.2V37h3.9v6.3h-2v-4.9H637v4.9L635,43.3L635,43.3z"/>
	<path class="st9" d="M647.2,43.1c-0.4,0.2-1,0.3-1.8,0.3c-2.1,0-3.4-1.2-3.4-3.2c0-1.9,1.3-3.4,3.6-3.4c0.5,0,1.1,0.1,1.5,0.2
		l-0.3,1.5c-0.2-0.1-0.6-0.2-1.1-0.2c-1,0-1.7,0.7-1.7,1.8c0,1.2,0.8,1.8,1.7,1.8c0.5,0,0.8-0.1,1.1-0.2L647.2,43.1z"/>
	<path class="st9" d="M651.9,43.3l-0.1-0.6l0,0c-0.4,0.5-1.1,0.8-1.8,0.8c-1.3,0-2.1-0.9-2.1-1.9c0-1.6,1.5-2.4,3.7-2.4V39
		c0-0.3-0.2-0.8-1.2-0.8c-0.6,0-1.3,0.2-1.8,0.5l-0.4-1.3c0.4-0.2,1.3-0.6,2.5-0.6c2.1,0,2.8,1.2,2.8,2.7v2.2c0,0.6,0,1.2,0.1,1.5
		h-1.7V43.3z M651.7,40.3c-1,0-1.8,0.2-1.8,1c0,0.5,0.3,0.8,0.8,0.8s0.9-0.3,1-0.7c0-0.1,0-0.2,0-0.3V40.3z"/>
</g>
<g class="st5">
	<path class="st9" d="M524.9,143.3c-0.4,0.2-1.3,0.4-2.4,0.4c-2.1,0-4.1-1.4-4.1-4.5c0-2.6,1.7-4.6,4.4-4.6c1.1,0,1.8,0.2,2,0.4
		l-0.2,0.5c-0.4-0.2-1.1-0.4-1.8-0.4c-2.4,0-3.8,1.5-3.8,4.1c0,2.4,1.3,3.9,3.7,3.9c0.7,0,1.5-0.2,2-0.4L524.9,143.3z"/>
	<path class="st9" d="M526.4,140.4c0,2,1.1,2.8,2.4,2.8c0.9,0,1.4-0.2,1.7-0.4l0.2,0.5c-0.2,0.1-0.9,0.4-2,0.4
		c-1.8,0-2.9-1.3-2.9-3.1c0-2.1,1.2-3.4,2.8-3.4c2,0,2.4,1.9,2.4,2.8c0,0.2,0,0.3,0,0.4H526.4z M530.4,140c0-0.9-0.4-2.2-1.9-2.2
		c-1.4,0-2,1.2-2.1,2.2H530.4z"/>
	<path class="st9" d="M532.6,138.9c0-0.6,0-1-0.1-1.5h0.6v1.1l0,0c0.3-0.7,1.1-1.3,2.1-1.3c0.6,0,2.2,0.3,2.2,2.6v3.7h-0.6v-3.7
		c0-1.1-0.4-2.2-1.7-2.2c-0.9,0-1.6,0.6-1.9,1.4c0,0.2-0.1,0.4-0.1,0.6v3.9h-0.6L532.6,138.9L532.6,138.9z"/>
	<path class="st9" d="M540.4,136v1.4h1.8v0.5h-1.8v4.1c0,0.8,0.2,1.3,0.9,1.3c0.3,0,0.6,0,0.7-0.1l0.1,0.5c-0.2,0.1-0.5,0.2-0.9,0.2
		c-0.5,0-0.8-0.1-1.1-0.4c-0.3-0.3-0.4-0.9-0.4-1.5v-3.9h-1.1v-0.5h1.1v-1.1L540.4,136z"/>
	<path class="st9" d="M543.6,139.3c0-0.6,0-1.3-0.1-1.9h0.6v1.3l0,0c0.3-0.8,0.9-1.4,1.8-1.4c0.1,0,0.2,0,0.3,0v0.6
		c-0.1,0-0.2,0-0.3,0c-0.9,0-1.5,0.7-1.6,1.7c0,0.2-0.1,0.4-0.1,0.6v3.4h-0.6L543.6,139.3L543.6,139.3z"/>
	<path class="st9" d="M552.6,140.4c0,2.3-1.6,3.3-3,3.3c-1.6,0-2.9-1.3-2.9-3.2c0-2.1,1.4-3.3,2.9-3.3
		C551.4,137.3,552.6,138.5,552.6,140.4z M547.4,140.5c0,1.6,1,2.7,2.3,2.7s2.3-1.2,2.3-2.8c0-1.1-0.6-2.7-2.3-2.7
		C548.1,137.8,547.4,139.2,547.4,140.5z"/>
</g>
<g class="st5">
	<path class="st9" d="M537,118.2c0.5,0.3,1.2,0.6,1.9,0.6c1.3,0,2.1-0.7,2.1-1.8c0-1-0.5-1.6-1.8-2.1c-1.4-0.5-2.2-1.2-2.2-2.4
		c0-1.3,1.1-2.2,2.5-2.2c0.8,0,1.4,0.2,1.7,0.4l-0.2,0.5c-0.2-0.2-0.8-0.4-1.5-0.4c-1.4,0-1.9,0.9-1.9,1.6c0,1,0.6,1.5,1.8,2
		c1.4,0.6,2.2,1.2,2.2,2.5s-0.9,2.4-2.8,2.4c-0.8,0-1.6-0.2-2.1-0.6L537,118.2z"/>
	<path class="st9" d="M548.1,117.6c0,0.5,0,1,0.1,1.5h-0.6V118l0,0c-0.3,0.6-1,1.3-2.1,1.3c-0.8,0-2.1-0.4-2.1-2.8v-3.6h0.6v3.5
		c0,1.4,0.4,2.3,1.6,2.3c0.9,0,1.6-0.6,1.8-1.3c0.1-0.2,0.1-0.4,0.1-0.7v-3.9h0.6L548.1,117.6L548.1,117.6z"/>
	<path class="st9" d="M550.2,114.8c0-0.6,0-1.3-0.1-1.9h0.6v1.3l0,0c0.3-0.8,0.9-1.4,1.8-1.4c0.1,0,0.2,0,0.3,0v0.6
		c-0.1,0-0.2,0-0.3,0c-0.9,0-1.5,0.7-1.6,1.7c0,0.2-0.1,0.4-0.1,0.6v3.4h-0.6L550.2,114.8L550.2,114.8z"/>
</g>
<g class="st5">
	<path class="st9" d="M488.3,90.5c-0.1-1.3-0.2-2.9-0.2-3.9l0,0c-0.3,0.9-0.7,2-1.2,3.3l-1.8,4.8h-0.4l-1.7-4.6
		c-0.5-1.4-0.9-2.4-1.1-3.4l0,0c0,1-0.1,2.5-0.2,4l-0.3,4h-0.6l0.6-8.8h0.7l1.9,5c0.4,1.1,0.7,2,1,2.8l0,0c0.2-0.8,0.5-1.7,1-2.8
		l2-5.1h0.7l0.6,8.8h-0.6L488.3,90.5z"/>
	<path class="st9" d="M491.2,91.5c0,2,1.1,2.8,2.4,2.8c0.9,0,1.4-0.2,1.7-0.4l0.2,0.5c-0.2,0.1-0.9,0.4-2,0.4
		c-1.8,0-2.9-1.3-2.9-3.1c0-2.1,1.2-3.4,2.8-3.4c2,0,2.4,1.9,2.4,2.8c0,0.2,0,0.3,0,0.4H491.2z M495.2,91c0-0.9-0.4-2.2-1.9-2.2
		c-1.4,0-2,1.2-2.1,2.2H495.2z"/>
	<path class="st9" d="M498.3,87.1v1.4h1.8V89h-1.8v4.1c0,0.8,0.2,1.3,0.9,1.3c0.3,0,0.6,0,0.7-0.1l0.1,0.5c-0.2,0.1-0.5,0.2-0.9,0.2
		c-0.5,0-0.8-0.1-1.1-0.4c-0.3-0.3-0.4-0.9-0.4-1.5V89h-1.1v-0.5h1.1v-1.1L498.3,87.1z"/>
	<path class="st9" d="M501.4,90.3c0-0.6,0-1.3-0.1-1.9h0.6v1.3l0,0c0.3-0.8,0.9-1.4,1.8-1.4c0.1,0,0.2,0,0.3,0v0.6
		c-0.1,0-0.2,0-0.3,0c-0.9,0-1.5,0.7-1.6,1.7c0,0.2-0.1,0.4-0.1,0.6v3.4h-0.6L501.4,90.3L501.4,90.3z"/>
	<path class="st9" d="M510.5,91.5c0,2.3-1.6,3.3-3,3.3c-1.6,0-2.9-1.3-2.9-3.2c0-2.1,1.4-3.3,2.9-3.3
		C509.3,88.3,510.5,89.6,510.5,91.5z M505.2,91.6c0,1.6,1,2.7,2.3,2.7s2.3-1.2,2.3-2.8c0-1.1-0.6-2.7-2.3-2.7
		C506,88.8,505.2,90.2,505.2,91.6z"/>
	<path class="st9" d="M512,90.4c0-0.8,0-1.4-0.1-2h0.6v1.2l0,0c0.5-0.8,1.2-1.3,2.3-1.3c1.6,0,2.7,1.3,2.7,3.2
		c0,2.2-1.3,3.4-2.8,3.4c-0.9,0-1.7-0.4-2.1-1.2l0,0v3.6H512V90.4z M512.7,92.2c0,0.2,0,0.3,0.1,0.5c0.3,1,1.1,1.6,2.1,1.6
		c1.4,0,2.2-1.2,2.2-2.8c0-1.4-0.8-2.7-2.2-2.7c-0.9,0-1.8,0.6-2.1,1.6c0,0.2-0.1,0.4-0.1,0.5V92.2z"/>
	<path class="st9" d="M524.5,91.5c0,2.3-1.6,3.3-3,3.3c-1.6,0-2.9-1.3-2.9-3.2c0-2.1,1.4-3.3,2.9-3.3
		C523.4,88.3,524.5,89.6,524.5,91.5z M519.3,91.6c0,1.6,1,2.7,2.3,2.7s2.3-1.2,2.3-2.8c0-1.1-0.6-2.7-2.3-2.7
		C520,88.8,519.3,90.2,519.3,91.6z"/>
	<path class="st9" d="M526.1,85.5h0.6v9.2h-0.6V85.5z"/>
	<path class="st9" d="M529.7,86.7c0,0.3-0.2,0.5-0.5,0.5s-0.5-0.2-0.5-0.5s0.2-0.5,0.5-0.5C529.5,86.1,529.7,86.4,529.7,86.7z
		 M528.9,94.7v-6.2h0.6v6.2H528.9z"/>
	<path class="st9" d="M532.4,87.1v1.4h1.8V89h-1.8v4.1c0,0.8,0.2,1.3,0.9,1.3c0.3,0,0.6,0,0.7-0.1l0.1,0.5c-0.2,0.1-0.5,0.2-0.9,0.2
		c-0.5,0-0.8-0.1-1.1-0.4c-0.3-0.3-0.4-0.9-0.4-1.5V89h-1.1v-0.5h1.1v-1.1L532.4,87.1z"/>
	<path class="st9" d="M539.5,93.2c0,0.5,0,1,0.1,1.5H539l-0.1-0.9l0,0c-0.3,0.5-1,1-2,1c-1.3,0-1.8-0.9-1.8-1.7
		c0-1.4,1.3-2.3,3.8-2.3v-0.2c0-0.6-0.1-1.8-1.6-1.8c-0.5,0-1.1,0.1-1.6,0.5l-0.2-0.5c0.6-0.4,1.3-0.5,1.8-0.5
		c1.8,0,2.2,1.4,2.2,2.5L539.5,93.2L539.5,93.2z M538.9,91.4c-1.4,0-3.2,0.2-3.2,1.7c0,0.9,0.6,1.3,1.2,1.3c1,0,1.6-0.6,1.8-1.2
		c0.1-0.1,0.1-0.3,0.1-0.4v-1.4H538.9z"/>
	<path class="st9" d="M541.5,90c0-0.6,0-1-0.1-1.5h0.6v1.1l0,0c0.3-0.7,1.1-1.3,2.1-1.3c0.6,0,2.2,0.3,2.2,2.6v3.7h-0.6V91
		c0-1.1-0.4-2.2-1.7-2.2c-0.9,0-1.6,0.6-1.9,1.4c0,0.2-0.1,0.4-0.1,0.6v3.9h-0.6L541.5,90L541.5,90z"/>
	<path class="st9" d="M552.3,93.2c0,0.5,0,1,0.1,1.5h-0.6l-0.1-0.9l0,0c-0.3,0.5-1,1-2,1c-1.3,0-1.8-0.9-1.8-1.7
		c0-1.4,1.3-2.3,3.8-2.3v-0.2c0-0.6-0.1-1.8-1.6-1.8c-0.5,0-1.1,0.1-1.6,0.5l-0.2-0.5c0.6-0.4,1.3-0.5,1.8-0.5
		c1.8,0,2.2,1.4,2.2,2.5L552.3,93.2L552.3,93.2z M551.7,91.4c-1.4,0-3.2,0.2-3.2,1.7c0,0.9,0.6,1.3,1.2,1.3c1,0,1.6-0.6,1.8-1.2
		c0.1-0.1,0.1-0.3,0.1-0.4v-1.4H551.7z"/>
</g>
<g class="st5">
	<path class="st9" d="M525.1,70.2v-8.8h0.6l3.4,5.2c0.7,1.1,1.2,1.9,1.6,2.8l0,0c-0.1-1.2-0.1-2.2-0.1-3.6v-4.3h0.6v8.8h-0.6
		l-3.3-5.1c-0.6-1-1.2-1.9-1.7-2.8l0,0c0.1,1.1,0.1,2,0.1,3.5v4.4L525.1,70.2L525.1,70.2z"/>
	<path class="st9" d="M538.7,67c0,2.3-1.6,3.3-3,3.3c-1.6,0-2.9-1.3-2.9-3.2c0-2.1,1.4-3.3,2.9-3.3C537.5,63.8,538.7,65.1,538.7,67z
		 M533.4,67.1c0,1.6,1,2.7,2.3,2.7s2.3-1.2,2.3-2.8c0-1.1-0.6-2.7-2.3-2.7C534.2,64.4,533.4,65.8,533.4,67.1z"/>
	<path class="st9" d="M540.2,65.9c0-0.6,0-1.3-0.1-1.9h0.6v1.3l0,0c0.3-0.8,0.9-1.4,1.8-1.4c0.1,0,0.2,0,0.3,0v0.6
		c-0.1,0-0.2,0-0.3,0c-0.9,0-1.5,0.7-1.6,1.7c0,0.2-0.1,0.4-0.1,0.6v3.4h-0.6L540.2,65.9L540.2,65.9z"/>
	<path class="st9" d="M545.3,62.6V64h1.8v0.5h-1.8v4.1c0,0.8,0.2,1.3,0.9,1.3c0.3,0,0.6,0,0.7-0.1l0.1,0.5c-0.2,0.1-0.5,0.2-0.9,0.2
		c-0.5,0-0.8-0.1-1.1-0.4c-0.3-0.3-0.4-0.9-0.4-1.5v-3.9h-1.1V64h1.1v-1.1L545.3,62.6z"/>
	<path class="st9" d="M548.4,67c0,2,1.1,2.8,2.4,2.8c0.9,0,1.4-0.2,1.7-0.4l0.2,0.5c-0.2,0.1-0.9,0.4-2,0.4c-1.8,0-2.9-1.3-2.9-3.1
		c0-2.1,1.2-3.4,2.8-3.4c2,0,2.4,1.9,2.4,2.8c0,0.2,0,0.3,0,0.4H548.4z M552.4,66.5c0-0.9-0.4-2.2-1.9-2.2c-1.4,0-2,1.2-2.1,2.2
		H552.4z"/>
</g>
<g>
	<path class="st6" d="M561.3,62.9H732c3.1,0,5.7,2.5,5.7,5.7c0,3.1-2.5,5.7-5.7,5.7H561.3V62.9z"/>
	<path class="st6" d="M561.3,87.3h111.3c3.1,0,5.7,2.5,5.7,5.7c0,3.1-2.5,5.7-5.7,5.7H561.3V87.3z"/>
	<path class="st6" d="M561.3,111.8h97.8c3.1,0,5.7,2.5,5.7,5.7c0,3.1-2.5,5.7-5.7,5.7h-97.8V111.8z"/>
	<path class="st6" d="M561.3,136.3h72.3c3.1,0,5.7,2.5,5.7,5.7c0,3.1-2.5,5.7-5.7,5.7h-72.3V136.3z"/>
	<line class="st12" x1="561.3" y1="154.2" x2="561.3" y2="56.3"/>
</g>
<g class="st5">
	<path class="st9" d="M562.6,369.8c0.7-0.1,1.7-0.2,2.7-0.2c1.7,0,2.7,0.3,3.6,0.9c0.9,0.7,1.5,1.8,1.5,3.3c0,1.7-0.6,2.8-1.5,3.5
		c-0.9,0.8-2.3,1.1-4,1.1c-1,0-1.8-0.1-2.2-0.1L562.6,369.8L562.6,369.8z M564.6,376.9c0.2,0,0.4,0,0.7,0c1.8,0,3-1,3-3.1
		c0-1.8-1.1-2.8-2.8-2.8c-0.4,0-0.7,0-0.9,0.1V376.9z"/>
	<path class="st9" d="M573.7,370.3c0,0.5-0.4,1-1.1,1c-0.6,0-1-0.4-1-1s0.4-1,1-1C573.3,369.3,573.7,369.7,573.7,370.3z
		 M571.6,378.4V372h2v6.3h-2V378.4z"/>
	<path class="st9" d="M576.7,372l0.9,2.9c0.2,0.5,0.3,1,0.4,1.5l0,0c0.1-0.5,0.2-1,0.4-1.5l0.8-2.9h2.1l-2.4,6.3h-2l-2.3-6.3H576.7z
		"/>
	<path class="st9" d="M584.1,370.3c0,0.5-0.4,1-1.1,1c-0.6,0-1-0.4-1-1s0.4-1,1-1C583.7,369.3,584.1,369.7,584.1,370.3z
		 M582.1,378.4V372h2v6.3h-2V378.4z"/>
	<path class="st9" d="M585.6,376.7c0.4,0.2,1.1,0.5,1.7,0.5c0.6,0,0.8-0.2,0.8-0.5s-0.2-0.5-0.9-0.7c-1.3-0.4-1.8-1.2-1.8-1.9
		c0-1.2,1-2.1,2.6-2.1c0.7,0,1.4,0.2,1.8,0.4l-0.4,1.4c-0.3-0.2-0.8-0.4-1.4-0.4c-0.5,0-0.8,0.2-0.8,0.5s0.2,0.5,1,0.7
		c1.2,0.4,1.7,1,1.7,2c0,1.2-0.9,2.1-2.8,2.1c-0.8,0-1.6-0.2-2.1-0.4L585.6,376.7z"/>
	<path class="st9" d="M593.3,370.3c0,0.5-0.4,1-1.1,1c-0.6,0-1-0.4-1-1s0.4-1,1-1C592.9,369.3,593.3,369.7,593.3,370.3z
		 M591.3,378.4V372h2v6.3h-2V378.4z"/>
	<path class="st9" d="M601.1,375.1c0,2.3-1.6,3.4-3.4,3.4c-1.9,0-3.3-1.2-3.3-3.3c0-2.1,1.4-3.4,3.4-3.4
		C599.8,371.9,601.1,373.2,601.1,375.1z M596.5,375.2c0,1.1,0.5,1.9,1.3,1.9s1.3-0.8,1.3-1.9c0-0.9-0.4-1.9-1.3-1.9
		C596.9,373.3,596.5,374.3,596.5,375.2z M599.8,369.3l-1.6,2h-1.4l1.1-2H599.8z"/>
	<path class="st9" d="M602.3,374.1c0-0.8,0-1.5-0.1-2h1.7l0.1,0.9l0,0c0.3-0.4,0.9-1,2-1c1.3,0,2.3,0.9,2.3,2.7v3.8h-2V375
		c0-0.8-0.3-1.4-1-1.4c-0.5,0-0.9,0.4-1,0.7c-0.1,0.1-0.1,0.3-0.1,0.5v3.7h-2L602.3,374.1L602.3,374.1z"/>
</g>
<line class="st12" x1="561.3" y1="489.2" x2="561.3" y2="391.4"/>
<g class="st5">
	<path class="st9" d="M574.9,466c0.5-0.1,1.3-0.2,1.9-0.2c1.1,0,1.9,0.2,2.4,0.7c0.4,0.4,0.6,0.9,0.6,1.5c0,1.2-0.7,1.9-1.7,2.3l0,0
		c0.7,0.2,1.1,0.9,1.4,1.9c0.3,1.4,0.5,2,0.6,2.4h-0.6c-0.1-0.3-0.3-1-0.6-2.1c-0.3-1.3-0.8-1.8-2-1.9h-1.4v4h-0.6L574.9,466
		L574.9,466z M575.5,470.1h1.4c1.4,0,2.2-0.8,2.2-1.9c0-1.3-1-1.9-2.4-1.9c-0.6,0-1,0.1-1.3,0.1L575.5,470.1L575.5,470.1z"/>
	<path class="st9" d="M586.8,471.5c0,2.3-1.6,3.3-3,3.3c-1.6,0-2.9-1.3-2.9-3.2c0-2.1,1.4-3.3,2.9-3.3
		C585.6,468.3,586.8,469.6,586.8,471.5z M581.6,471.5c0,1.6,1,2.7,2.3,2.7s2.3-1.2,2.3-2.8c0-1.1-0.6-2.7-2.3-2.7
		C582.3,468.8,581.6,470.2,581.6,471.5z"/>
	<path class="st9" d="M588.4,470.4c0-0.8,0-1.4-0.1-2h0.6v1.2l0,0c0.5-0.8,1.2-1.3,2.3-1.3c1.6,0,2.7,1.3,2.7,3.2
		c0,2.2-1.3,3.4-2.8,3.4c-0.9,0-1.7-0.4-2.1-1.2l0,0v3.6h-0.6L588.4,470.4L588.4,470.4z M589,472.2c0,0.2,0,0.3,0.1,0.5
		c0.3,1,1.1,1.6,2.1,1.6c1.4,0,2.2-1.2,2.2-2.8c0-1.4-0.8-2.7-2.2-2.7c-0.9,0-1.8,0.6-2.1,1.6c0,0.2-0.1,0.4-0.1,0.5V472.2z"/>
	<path class="st9" d="M599.4,473.2c0,0.5,0,1,0.1,1.5H599l-0.1-0.9l0,0c-0.3,0.5-1,1-2,1c-1.3,0-1.8-0.9-1.8-1.7
		c0-1.4,1.3-2.3,3.8-2.3v-0.2c0-0.6-0.1-1.8-1.6-1.8c-0.5,0-1.1,0.1-1.6,0.5l-0.2-0.5c0.6-0.4,1.3-0.5,1.8-0.5
		c1.8,0,2.2,1.4,2.2,2.5v2.4H599.4z M598.8,471.3c-1.4,0-3.2,0.2-3.2,1.7c0,0.9,0.6,1.3,1.2,1.3c1,0,1.6-0.6,1.8-1.2
		c0.1-0.1,0.1-0.3,0.1-0.4v-1.4H598.8z"/>
	<path class="st9" d="M604,468.4l1.6,4.1c0.2,0.4,0.3,0.9,0.5,1.3l0,0c0.1-0.4,0.3-0.9,0.5-1.4l1.5-4h0.7l-1.9,4.6
		c-0.8,1.9-1.3,3.1-2.1,3.8c-0.5,0.4-0.9,0.6-1.1,0.6l-0.2-0.5c0.3-0.1,0.7-0.3,1.1-0.7c0.3-0.3,0.7-0.8,1-1.6
		c0.1-0.1,0.1-0.2,0.1-0.3s0-0.1-0.1-0.3l-2.3-5.8h0.7V468.4z"/>
	<path class="st9" d="M618.8,474.3c-0.4,0.2-1.3,0.4-2.4,0.4c-2.1,0-4.1-1.4-4.1-4.5c0-2.6,1.7-4.6,4.4-4.6c1.1,0,1.8,0.2,2,0.4
		l-0.2,0.5c-0.4-0.2-1.1-0.4-1.8-0.4c-2.4,0-3.8,1.5-3.8,4.1c0,2.4,1.4,3.9,3.7,3.9c0.7,0,1.5-0.2,2-0.4L618.8,474.3z"/>
	<path class="st9" d="M624.1,473.2c0,0.5,0,1,0.1,1.5h-0.6l-0.1-0.9l0,0c-0.3,0.5-1,1-2,1c-1.3,0-1.8-0.9-1.8-1.7
		c0-1.4,1.3-2.3,3.8-2.3v-0.2c0-0.6-0.1-1.8-1.6-1.8c-0.5,0-1.1,0.1-1.6,0.5l-0.2-0.5c0.6-0.4,1.3-0.5,1.8-0.5
		c1.8,0,2.2,1.4,2.2,2.5L624.1,473.2L624.1,473.2z M623.5,471.3c-1.4,0-3.2,0.2-3.2,1.7c0,0.9,0.6,1.3,1.2,1.3c1,0,1.6-0.6,1.8-1.2
		c0.1-0.1,0.1-0.3,0.1-0.4v-1.4H623.5z"/>
	<path class="st9" d="M626.1,465.4h0.6v9.2h-0.6V465.4z"/>
	<path class="st9" d="M628,474.3l3.4-4.4c0.2-0.3,0.5-0.6,0.7-0.9l0,0h-3.8v-0.5h4.6v0.4l-3.4,4.4c-0.2,0.3-0.4,0.6-0.7,0.9l0,0h4.1
		v0.5H628V474.3z"/>
	<path class="st9" d="M638,473.2c0,0.5,0,1,0.1,1.5h-0.6l-0.1-0.9l0,0c-0.3,0.5-1,1-2,1c-1.3,0-1.8-0.9-1.8-1.7
		c0-1.4,1.3-2.3,3.8-2.3v-0.2c0-0.6-0.1-1.8-1.6-1.8c-0.5,0-1.1,0.1-1.6,0.5l-0.2-0.5c0.6-0.4,1.3-0.5,1.8-0.5
		c1.8,0,2.2,1.4,2.2,2.5L638,473.2L638,473.2z M637.3,471.3c-1.4,0-3.2,0.2-3.2,1.7c0,0.9,0.6,1.3,1.2,1.3c1,0,1.6-0.6,1.8-1.2
		c0.1-0.1,0.1-0.3,0.1-0.4v-1.4H637.3z"/>
	<path class="st9" d="M644.9,465.4v7.8c0,0.5,0,1,0.1,1.5h-0.6l-0.1-1.2l0,0c-0.3,0.7-1.1,1.3-2.2,1.3c-1.5,0-2.7-1.3-2.7-3.1
		c0-2.1,1.3-3.4,2.8-3.4c1.1,0,1.8,0.6,2,1.1l0,0v-3.9L644.9,465.4L644.9,465.4z M644.3,470.9c0-0.2,0-0.4-0.1-0.6
		c-0.2-0.8-0.9-1.5-2-1.5c-1.4,0-2.2,1.2-2.2,2.8c0,1.4,0.7,2.7,2.2,2.7c0.9,0,1.7-0.6,2-1.6c0.1-0.2,0.1-0.3,0.1-0.5V470.9z"/>
	<path class="st9" d="M652.3,471.5c0,2.3-1.6,3.3-3,3.3c-1.6,0-2.9-1.3-2.9-3.2c0-2.1,1.4-3.3,2.9-3.3
		C651.2,468.3,652.3,469.6,652.3,471.5z M647.1,471.5c0,1.6,1,2.7,2.3,2.7s2.3-1.2,2.3-2.8c0-1.1-0.6-2.7-2.3-2.7
		C647.8,468.8,647.1,470.2,647.1,471.5z"/>
</g>
<g class="st5">
	<path class="st9" d="M449,437.9c-0.1-1.3-0.2-2.9-0.2-3.9l0,0c-0.3,0.9-0.7,2-1.2,3.3l-1.8,4.8h-0.4l-1.7-4.6
		c-0.5-1.4-0.9-2.4-1.1-3.4l0,0c0,1-0.1,2.5-0.2,4l-0.3,4h-0.6l0.6-8.8h0.7l1.9,5c0.4,1.1,0.7,2,1,2.8l0,0c0.2-0.8,0.5-1.7,1-2.8
		l2-5.1h0.7l0.6,8.8h-0.6L449,437.9z"/>
	<path class="st9" d="M451.9,438.8c0,2,1.1,2.8,2.4,2.8c0.9,0,1.4-0.2,1.7-0.4l0.2,0.5c-0.2,0.1-0.9,0.4-2,0.4
		c-1.8,0-2.9-1.3-2.9-3.1c0-2.1,1.2-3.4,2.8-3.4c2,0,2.4,1.9,2.4,2.8c0,0.2,0,0.3,0,0.4H451.9z M455.9,438.3c0-0.9-0.4-2.2-1.9-2.2
		c-1.4,0-2,1.2-2.1,2.2H455.9z"/>
	<path class="st9" d="M458.1,437.7c0-0.6,0-1.3-0.1-1.9h0.6v1.3l0,0c0.3-0.8,0.9-1.4,1.8-1.4c0.1,0,0.2,0,0.3,0v0.6
		c-0.1,0-0.2,0-0.3,0c-0.9,0-1.5,0.7-1.6,1.7c0,0.2-0.1,0.4-0.1,0.6v3.4h-0.6L458.1,437.7L458.1,437.7z"/>
	<path class="st9" d="M466.1,441.7c-0.3,0.1-0.9,0.4-1.8,0.4c-1.8,0-3-1.3-3-3.2c0-2,1.4-3.3,3.2-3.3c0.8,0,1.4,0.2,1.6,0.4
		l-0.2,0.5c-0.3-0.2-0.8-0.4-1.5-0.4c-1.7,0-2.5,1.3-2.5,2.7c0,1.6,1,2.7,2.5,2.7c0.7,0,1.2-0.2,1.6-0.4L466.1,441.7z"/>
	<path class="st9" d="M471.5,440.5c0,0.5,0,1,0.1,1.5H471l-0.1-0.9l0,0c-0.3,0.5-1,1-2,1c-1.3,0-1.8-0.9-1.8-1.7
		c0-1.4,1.3-2.3,3.8-2.3V438c0-0.6-0.1-1.8-1.6-1.8c-0.5,0-1.1,0.1-1.6,0.5l-0.2-0.5c0.6-0.4,1.3-0.5,1.8-0.5c1.8,0,2.2,1.4,2.2,2.5
		L471.5,440.5L471.5,440.5z M470.9,438.7c-1.4,0-3.2,0.2-3.2,1.7c0,0.9,0.6,1.3,1.2,1.3c1,0,1.6-0.6,1.8-1.2
		c0.1-0.1,0.1-0.3,0.1-0.4v-1.4H470.9z"/>
	<path class="st9" d="M473.5,437.3c0-0.6,0-1-0.1-1.5h0.6v1.1l0,0c0.3-0.7,1.1-1.3,2.1-1.3c0.6,0,2.2,0.3,2.2,2.6v3.7h-0.6v-3.7
		c0-1.1-0.4-2.2-1.7-2.2c-0.9,0-1.6,0.6-1.9,1.4c0,0.2-0.1,0.4-0.1,0.6v3.9h-0.6v-4.6H473.5z"/>
	<path class="st9" d="M484.8,441.7c-0.3,0.1-0.9,0.4-1.8,0.4c-1.8,0-3-1.3-3-3.2c0-2,1.4-3.3,3.2-3.3c0.8,0,1.4,0.2,1.6,0.4
		l-0.2,0.5c-0.3-0.2-0.8-0.4-1.5-0.4c-1.7,0-2.5,1.3-2.5,2.7c0,1.6,1,2.7,2.5,2.7c0.7,0,1.2-0.2,1.6-0.4L484.8,441.7z"/>
	<path class="st9" d="M488.1,433.1l-1.6,1.8H486l1.2-1.8H488.1z M486.3,442v-6.2h0.6v6.2H486.3z"/>
	<path class="st9" d="M492.9,440.5c0,0.5,0,1,0.1,1.5h-0.6l-0.1-0.9l0,0c-0.3,0.5-1,1-2,1c-1.3,0-1.8-0.9-1.8-1.7
		c0-1.4,1.3-2.3,3.8-2.3V438c0-0.6-0.1-1.8-1.6-1.8c-0.5,0-1.1,0.1-1.6,0.5l-0.2-0.5c0.6-0.4,1.3-0.5,1.8-0.5c1.8,0,2.2,1.4,2.2,2.5
		L492.9,440.5L492.9,440.5z M492.2,438.7c-1.4,0-3.2,0.2-3.2,1.7c0,0.9,0.6,1.3,1.2,1.3c1,0,1.6-0.6,1.8-1.2
		c0.1-0.1,0.1-0.3,0.1-0.4v-1.4H492.2z"/>
	<path class="st9" d="M494.6,441.2c0.3,0.2,0.8,0.4,1.4,0.4c1,0,1.5-0.5,1.5-1.2s-0.4-1.1-1.3-1.4c-1-0.4-1.6-0.9-1.6-1.7
		c0-0.9,0.7-1.7,1.9-1.7c0.6,0,1.1,0.2,1.4,0.4l-0.2,0.5c-0.2-0.2-0.6-0.4-1.2-0.4c-0.8,0-1.2,0.5-1.2,1.1s0.4,0.9,1.3,1.3
		c1,0.4,1.6,0.9,1.6,1.8c0,1.1-0.8,1.8-2.1,1.8c-0.6,0-1.2-0.2-1.6-0.4L494.6,441.2z"/>
	<path class="st9" d="M508.8,441.6c-0.4,0.2-1.4,0.5-2.6,0.5s-2.2-0.3-3.1-1.1c-0.7-0.7-1.2-1.9-1.2-3.3c0-2.4,1.6-4.5,4.6-4.5
		c0.9,0,1.7,0.2,2,0.4l-0.2,0.5c-0.5-0.2-1-0.4-1.9-0.4c-2.4,0-3.9,1.6-3.9,3.9c0,2.5,1.4,3.9,3.8,3.9c0.9,0,1.5-0.1,1.8-0.3v-3.1
		h-2v-0.5h2.6v4H508.8z"/>
	<path class="st9" d="M510.8,438.8c0,2,1.1,2.8,2.4,2.8c0.9,0,1.4-0.2,1.7-0.4l0.2,0.5c-0.2,0.1-0.9,0.4-2,0.4
		c-1.8,0-2.9-1.3-2.9-3.1c0-2.1,1.2-3.4,2.8-3.4c2,0,2.4,1.9,2.4,2.8c0,0.2,0,0.3,0,0.4H510.8z M514.8,438.3c0-0.9-0.4-2.2-1.9-2.2
		c-1.4,0-2,1.2-2.1,2.2H514.8z"/>
	<path class="st9" d="M517,437.3c0-0.6,0-1-0.1-1.5h0.6v1.1l0,0c0.3-0.7,1.1-1.3,2.1-1.3c0.6,0,2.2,0.3,2.2,2.6v3.7h-0.6v-3.7
		c0-1.1-0.4-2.2-1.7-2.2c-0.9,0-1.6,0.6-1.9,1.4c0,0.2-0.1,0.4-0.1,0.6v3.9H517V437.3z"/>
	<path class="st9" d="M524.1,438.8c0,2,1.1,2.8,2.4,2.8c0.9,0,1.4-0.2,1.7-0.4l0.2,0.5c-0.2,0.1-0.9,0.4-2,0.4
		c-1.8,0-2.9-1.3-2.9-3.1c0-2.1,1.2-3.4,2.8-3.4c2,0,2.4,1.9,2.4,2.8c0,0.2,0,0.3,0,0.4H524.1z M528,438.3c0-0.9-0.4-2.2-1.9-2.2
		c-1.4,0-2,1.2-2.1,2.2H528z"/>
	<path class="st9" d="M530.3,437.7c0-0.6,0-1.3-0.1-1.9h0.6v1.3l0,0c0.3-0.8,0.9-1.4,1.8-1.4c0.1,0,0.2,0,0.3,0v0.6
		c-0.1,0-0.2,0-0.3,0c-0.9,0-1.5,0.7-1.6,1.7c0,0.2-0.1,0.4-0.1,0.6v3.4h-0.6L530.3,437.7L530.3,437.7z"/>
	<path class="st9" d="M538,440.5c0,0.5,0,1,0.1,1.5h-0.6l-0.1-0.9l0,0c-0.3,0.5-1,1-2,1c-1.3,0-1.8-0.9-1.8-1.7
		c0-1.4,1.3-2.3,3.8-2.3V438c0-0.6-0.1-1.8-1.6-1.8c-0.5,0-1.1,0.1-1.6,0.5l-0.2-0.5c0.6-0.4,1.3-0.5,1.8-0.5c1.8,0,2.2,1.4,2.2,2.5
		L538,440.5L538,440.5z M537.4,438.7c-1.4,0-3.2,0.2-3.2,1.7c0,0.9,0.6,1.3,1.2,1.3c1,0,1.6-0.6,1.8-1.2c0.1-0.1,0.1-0.3,0.1-0.4
		v-1.4H537.4z"/>
	<path class="st9" d="M540,432.8h0.6v9.2H540V432.8z"/>
	<path class="st9" d="M542.8,438.8c0,2,1.1,2.8,2.4,2.8c0.9,0,1.4-0.2,1.7-0.4l0.2,0.5c-0.2,0.1-0.9,0.4-2,0.4
		c-1.8,0-2.9-1.3-2.9-3.1c0-2.1,1.2-3.4,2.8-3.4c2,0,2.4,1.9,2.4,2.8c0,0.2,0,0.3,0,0.4H542.8z M546.8,438.3c0-0.9-0.4-2.2-1.9-2.2
		c-1.4,0-2,1.2-2.1,2.2H546.8z"/>
	<path class="st9" d="M548.8,441.2c0.3,0.2,0.8,0.4,1.4,0.4c1,0,1.5-0.5,1.5-1.2s-0.4-1.1-1.3-1.4c-1-0.4-1.6-0.9-1.6-1.7
		c0-0.9,0.7-1.7,1.9-1.7c0.6,0,1.1,0.2,1.4,0.4l-0.2,0.5c-0.2-0.2-0.6-0.4-1.2-0.4c-0.8,0-1.2,0.5-1.2,1.1s0.4,0.9,1.3,1.3
		c1,0.4,1.6,0.9,1.6,1.8c0,1.1-0.8,1.8-2.1,1.8c-0.6,0-1.2-0.2-1.6-0.4L548.8,441.2z"/>
</g>
<g class="st5">
	<path class="st9" d="M477,408.4c0.5,0.3,1.2,0.6,1.9,0.6c1.3,0,2.1-0.7,2.1-1.8c0-1-0.5-1.6-1.8-2.1c-1.4-0.5-2.2-1.2-2.2-2.4
		c0-1.3,1.1-2.2,2.5-2.2c0.8,0,1.4,0.2,1.7,0.4l-0.2,0.5c-0.2-0.2-0.8-0.4-1.5-0.4c-1.4,0-1.9,0.9-1.9,1.6c0,1,0.6,1.5,1.8,2
		c1.4,0.6,2.2,1.2,2.2,2.5s-0.9,2.4-2.8,2.4c-0.8,0-1.6-0.2-2.1-0.6L477,408.4z"/>
	<path class="st9" d="M488.1,407.9c0,0.5,0,1,0.1,1.5h-0.6v-1.1l0,0c-0.3,0.6-1,1.3-2.1,1.3c-0.8,0-2.1-0.4-2.1-2.8v-3.6h0.6v3.5
		c0,1.4,0.4,2.3,1.6,2.3c0.9,0,1.6-0.6,1.8-1.3c0.1-0.2,0.1-0.4,0.1-0.7v-3.9h0.6V407.9z"/>
	<path class="st9" d="M490.1,405.2c0-0.8,0-1.4-0.1-2h0.6v1.2l0,0c0.5-0.8,1.2-1.3,2.3-1.3c1.6,0,2.7,1.3,2.7,3.2
		c0,2.2-1.3,3.4-2.8,3.4c-0.9,0-1.7-0.4-2.1-1.2l0,0v3.6h-0.6V405.2z M490.8,406.9c0,0.2,0,0.3,0.1,0.5c0.3,1,1.1,1.6,2.1,1.6
		c1.4,0,2.2-1.2,2.2-2.8c0-1.4-0.8-2.7-2.2-2.7c-0.9,0-1.8,0.6-2.1,1.6c0,0.2-0.1,0.4-0.1,0.5V406.9z"/>
	<path class="st9" d="M497.4,406.2c0,2,1.1,2.8,2.4,2.8c0.9,0,1.4-0.2,1.7-0.4l0.2,0.5c-0.2,0.1-0.9,0.4-2,0.4
		c-1.8,0-2.9-1.3-2.9-3.1c0-2.1,1.2-3.4,2.8-3.4c2,0,2.4,1.9,2.4,2.8c0,0.2,0,0.3,0,0.4L497.4,406.2L497.4,406.2z M501.4,405.7
		c0-0.9-0.4-2.2-1.9-2.2c-1.4,0-2,1.2-2.1,2.2H501.4z"/>
	<path class="st9" d="M503.6,405c0-0.6,0-1.3-0.1-1.9h0.6v1.3l0,0c0.3-0.8,0.9-1.4,1.8-1.4c0.1,0,0.2,0,0.3,0v0.6
		c-0.1,0-0.2,0-0.3,0c-0.9,0-1.5,0.7-1.6,1.7c0,0.2-0.1,0.4-0.1,0.6v3.4h-0.6L503.6,405L503.6,405z"/>
	<path class="st9" d="M507.5,404.7c0-0.6,0-1-0.1-1.5h0.6v1.1l0,0c0.4-0.7,1-1.2,2-1.2c0.9,0,1.5,0.6,1.8,1.4l0,0
		c0.2-0.4,0.4-0.6,0.6-0.8c0.4-0.3,0.8-0.5,1.5-0.5c0.6,0,2,0.3,2,2.7v3.7h-0.6V406c0-1.4-0.5-2.2-1.6-2.2c-0.8,0-1.4,0.6-1.6,1.2
		c-0.1,0.2-0.1,0.4-0.1,0.6v4h-0.6v-3.9c0-1.1-0.5-1.9-1.5-1.9c-0.8,0-1.5,0.7-1.7,1.4c-0.1,0.2-0.1,0.4-0.1,0.6v3.8h-0.6
		L507.5,404.7L507.5,404.7z"/>
	<path class="st9" d="M518.3,406.2c0,2,1.1,2.8,2.4,2.8c0.9,0,1.4-0.2,1.7-0.4l0.2,0.5c-0.2,0.1-0.9,0.4-2,0.4
		c-1.8,0-2.9-1.3-2.9-3.1c0-2.1,1.2-3.4,2.8-3.4c2,0,2.4,1.9,2.4,2.8c0,0.2,0,0.3,0,0.4L518.3,406.2L518.3,406.2z M522.2,405.7
		c0-0.9-0.4-2.2-1.9-2.2c-1.4,0-2,1.2-2.1,2.2H522.2z"/>
	<path class="st9" d="M524.5,405c0-0.6,0-1.3-0.1-1.9h0.6v1.3l0,0c0.3-0.8,0.9-1.4,1.8-1.4c0.1,0,0.2,0,0.3,0v0.6
		c-0.1,0-0.2,0-0.3,0c-0.9,0-1.5,0.7-1.6,1.7c0,0.2-0.1,0.4-0.1,0.6v3.4h-0.6L524.5,405L524.5,405z"/>
	<path class="st9" d="M532.4,409.1c-0.3,0.1-0.9,0.4-1.8,0.4c-1.8,0-3-1.3-3-3.2c0-2,1.4-3.3,3.2-3.3c0.8,0,1.4,0.2,1.6,0.4
		l-0.2,0.5c-0.3-0.2-0.8-0.4-1.5-0.4c-1.7,0-2.5,1.3-2.5,2.7c0,1.6,1,2.7,2.5,2.7c0.7,0,1.2-0.2,1.6-0.4L532.4,409.1z"/>
	<path class="st9" d="M537.8,407.9c0,0.5,0,1,0.1,1.5h-0.6l-0.1-0.9l0,0c-0.3,0.5-1,1-2,1c-1.3,0-1.8-0.9-1.8-1.7
		c0-1.4,1.3-2.3,3.8-2.3v-0.2c0-0.6-0.1-1.8-1.6-1.8c-0.5,0-1.1,0.1-1.6,0.5l-0.2-0.5c0.6-0.4,1.3-0.5,1.8-0.5
		c1.8,0,2.2,1.4,2.2,2.5L537.8,407.9L537.8,407.9z M537.2,406.1c-1.4,0-3.2,0.2-3.2,1.7c0,0.9,0.6,1.3,1.2,1.3c1,0,1.6-0.6,1.8-1.2
		c0.1-0.1,0.1-0.3,0.1-0.4v-1.4H537.2z"/>
	<path class="st9" d="M544.8,400.2v7.8c0,0.5,0,1,0.1,1.5h-0.6l-0.1-1.2l0,0c-0.3,0.7-1.1,1.3-2.2,1.3c-1.5,0-2.7-1.3-2.7-3.1
		c0-2.1,1.3-3.4,2.8-3.4c1.1,0,1.8,0.6,2,1.1l0,0v-3.9L544.8,400.2L544.8,400.2z M544.2,405.6c0-0.2,0-0.4-0.1-0.6
		c-0.2-0.8-0.9-1.5-2-1.5c-1.4,0-2.2,1.2-2.2,2.8c0,1.4,0.7,2.7,2.2,2.7c0.9,0,1.7-0.6,2-1.6c0.1-0.2,0.1-0.3,0.1-0.5V405.6z"/>
	<path class="st9" d="M552.2,406.2c0,2.3-1.6,3.3-3,3.3c-1.6,0-2.9-1.3-2.9-3.2c0-2.1,1.4-3.3,2.9-3.3
		C551,403,552.2,404.3,552.2,406.2z M547,406.3c0,1.6,1,2.7,2.3,2.7s2.3-1.2,2.3-2.8c0-1.1-0.6-2.7-2.3-2.7
		C547.7,403.5,547,405,547,406.3z"/>
</g>
<g class="st5">
	<path class="st9" d="M269.5,369.7c0.6-0.1,1.5-0.2,2.7-0.2s2.1,0.2,2.7,0.7c0.6,0.4,0.9,1.2,0.9,2c0,0.9-0.3,1.6-0.8,2.1
		c-0.7,0.6-1.7,0.9-2.8,0.9c-0.3,0-0.5,0-0.7,0v3.1h-2L269.5,369.7L269.5,369.7z M271.5,373.6c0.2,0,0.4,0.1,0.7,0.1
		c1.1,0,1.7-0.5,1.7-1.4c0-0.8-0.6-1.3-1.5-1.3c-0.4,0-0.7,0-0.8,0.1v2.5H271.5z"/>
	<path class="st9" d="M280.4,378.3l-0.1-0.6l0,0c-0.4,0.5-1.1,0.8-1.8,0.8c-1.3,0-2.1-0.9-2.1-1.9c0-1.6,1.5-2.4,3.7-2.4V374
		c0-0.3-0.2-0.8-1.2-0.8c-0.6,0-1.3,0.2-1.8,0.5l-0.4-1.3c0.4-0.2,1.3-0.6,2.5-0.6c2.1,0,2.8,1.2,2.8,2.7v2.2c0,0.6,0,1.2,0.1,1.5
		L280.4,378.3L280.4,378.3z M280.2,375.3c-1,0-1.8,0.2-1.8,1c0,0.5,0.3,0.8,0.8,0.8s0.9-0.3,1-0.7c0-0.1,0-0.2,0-0.3V375.3z"/>
	<path class="st9" d="M283.6,378.3V372h2v6.3H283.6z M286.7,369.2l-1.6,2h-1.4l1.1-2H286.7z"/>
	<path class="st9" d="M287.2,376.6c0.4,0.2,1.1,0.5,1.7,0.5s0.8-0.2,0.8-0.5s-0.2-0.5-0.9-0.7c-1.3-0.4-1.8-1.2-1.8-1.9
		c0-1.2,1-2.1,2.6-2.1c0.7,0,1.4,0.2,1.8,0.4l-0.4,1.4c-0.3-0.2-0.8-0.4-1.4-0.4c-0.5,0-0.8,0.2-0.8,0.5s0.2,0.5,1,0.7
		c1.2,0.4,1.7,1,1.7,2c0,1.2-0.9,2.1-2.8,2.1c-0.8,0-1.6-0.2-2.1-0.4L287.2,376.6z"/>
</g>
<g>
	<path class="st13" d="M268.7,395.5h45.6c3.1,0,5.7,2.5,5.7,5.7c0,3.1-2.5,5.7-5.7,5.7h-45.6V395.5z"/>
	<path class="st13" d="M268.7,415.1h35.6c3.1,0,5.7,2.5,5.7,5.7c0,3.1-2.5,5.7-5.7,5.7h-35.6V415.1z"/>
	<path class="st13" d="M268.7,434.6L268.7,434.6c1.3,0,2.4,1.1,2.4,2.4v6.5c0,1.3-1.1,2.4-2.4,2.4V434.6z"/>
	<path class="st13" d="M268.7,454.2h-9.2c-3.1,0-5.7,2.5-5.7,5.7c0,3.1,2.5,5.7,5.7,5.7h9.2V454.2z"/>
	<path class="st13" d="M268.7,473.8H75.2c-3.1,0-5.7,2.5-5.7,5.7c0,3.1,2.5,5.7,5.7,5.7h193.4v-11.4H268.7z"/>
</g>
<g class="st5">
	<path class="st9" d="M281.3,472.4v3.9h4.8v-3.9h0.6v8.8h-0.6v-4.4h-4.8v4.4h-0.6v-8.8H281.3z"/>
	<path class="st9" d="M294.2,478c0,2.3-1.6,3.3-3,3.3c-1.6,0-2.9-1.3-2.9-3.2c0-2.1,1.4-3.3,2.9-3.3
		C293,474.8,294.2,476.1,294.2,478z M288.9,478.1c0,1.6,1,2.7,2.3,2.7s2.3-1.2,2.3-2.8c0-1.1-0.6-2.7-2.3-2.7
		C289.7,475.3,288.9,476.7,288.9,478.1z"/>
	<path class="st9" d="M295.7,476.4c0-0.6,0-1-0.1-1.5h0.6v1.1l0,0c0.3-0.7,1.1-1.3,2.1-1.3c0.6,0,2.2,0.3,2.2,2.6v3.7H300v-3.7
		c0-1.1-0.4-2.2-1.7-2.2c-0.9,0-1.6,0.6-1.9,1.4c0,0.2-0.1,0.4-0.1,0.6v3.9h-0.6L295.7,476.4L295.7,476.4z"/>
	<path class="st9" d="M307.7,471.9v7.8c0,0.5,0,1,0.1,1.5h-0.6l-0.1-1.2l0,0c-0.3,0.7-1.1,1.3-2.2,1.3c-1.5,0-2.7-1.3-2.7-3.1
		c0-2.1,1.3-3.4,2.8-3.4c1.1,0,1.8,0.6,2,1.1l0,0V472L307.7,471.9L307.7,471.9z M307,477.4c0-0.2,0-0.4-0.1-0.6
		c-0.2-0.8-0.9-1.5-2-1.5c-1.4,0-2.2,1.2-2.2,2.8c0,1.4,0.7,2.7,2.2,2.7c0.9,0,1.7-0.6,2-1.6c0.1-0.2,0.1-0.3,0.1-0.5V477.4z"/>
	<path class="st9" d="M314.6,479.6c0,0.5,0,1,0.1,1.5H314V480l0,0c-0.3,0.6-1,1.3-2.1,1.3c-0.8,0-2.1-0.4-2.1-2.8v-3.6h0.6v3.5
		c0,1.4,0.4,2.3,1.6,2.3c0.9,0,1.6-0.6,1.8-1.3c0.1-0.2,0.1-0.4,0.1-0.7v-3.9h0.6v4.8H314.6z"/>
	<path class="st9" d="M316.6,476.8c0-0.6,0-1.3-0.1-1.9h0.6v1.3l0,0c0.3-0.8,0.9-1.4,1.8-1.4c0.1,0,0.2,0,0.3,0v0.6
		c-0.1,0-0.2,0-0.3,0c-0.9,0-1.5,0.7-1.6,1.7c0,0.2-0.1,0.4-0.1,0.6v3.4h-0.6L316.6,476.8L316.6,476.8z"/>
	<path class="st9" d="M324.4,479.7c0,0.5,0,1,0.1,1.5h-0.6l-0.1-0.9l0,0c-0.3,0.5-1,1-2,1c-1.3,0-1.8-0.9-1.8-1.7
		c0-1.4,1.3-2.3,3.8-2.3v-0.2c0-0.6-0.1-1.8-1.6-1.8c-0.5,0-1.1,0.1-1.6,0.5l-0.2-0.5c0.6-0.4,1.3-0.5,1.8-0.5
		c1.8,0,2.2,1.4,2.2,2.5L324.4,479.7L324.4,479.7z M323.7,477.8c-1.4,0-3.2,0.2-3.2,1.7c0,0.9,0.6,1.3,1.2,1.3c1,0,1.6-0.6,1.8-1.2
		c0.1-0.1,0.1-0.3,0.1-0.4v-1.4H323.7z"/>
	<path class="st9" d="M326.1,480.3c0.3,0.2,0.8,0.4,1.4,0.4c1,0,1.5-0.5,1.5-1.2s-0.4-1.1-1.3-1.4c-1-0.4-1.6-0.9-1.6-1.7
		c0-0.9,0.7-1.7,1.9-1.7c0.6,0,1.1,0.2,1.4,0.4l-0.2,0.5c-0.2-0.2-0.6-0.4-1.2-0.4c-0.8,0-1.2,0.5-1.2,1.1s0.4,0.9,1.3,1.3
		c1,0.4,1.6,0.9,1.6,1.8c0,1.1-0.8,1.8-2.1,1.8c-0.6,0-1.2-0.2-1.6-0.4L326.1,480.3z"/>
</g>
<g class="st5">
	<path class="st9" d="M287.2,461.3c-0.4,0.2-1.3,0.4-2.4,0.4c-2.1,0-4.1-1.4-4.1-4.5c0-2.6,1.7-4.6,4.4-4.6c1.1,0,1.8,0.2,2,0.4
		l-0.2,0.5c-0.4-0.2-1.1-0.4-1.8-0.4c-2.4,0-3.8,1.5-3.8,4.1c0,2.4,1.4,3.9,3.7,3.9c0.7,0,1.5-0.2,2-0.4L287.2,461.3z"/>
	<path class="st9" d="M293.9,458.4c0,2.3-1.6,3.3-3,3.3c-1.6,0-2.9-1.3-2.9-3.2c0-2.1,1.4-3.3,2.9-3.3
		C292.7,455.2,293.9,456.5,293.9,458.4z M288.7,458.5c0,1.6,1,2.7,2.3,2.7s2.3-1.2,2.3-2.8c0-1.1-0.6-2.7-2.3-2.7
		C289.4,455.7,288.7,457.1,288.7,458.5z"/>
	<path class="st9" d="M295.2,460.8c0.3,0.2,0.8,0.4,1.4,0.4c1,0,1.5-0.5,1.5-1.2s-0.4-1.1-1.3-1.4c-1-0.4-1.6-0.9-1.6-1.7
		c0-0.9,0.7-1.7,1.9-1.7c0.6,0,1.1,0.2,1.4,0.4l-0.2,0.5c-0.2-0.2-0.6-0.4-1.2-0.4c-0.8,0-1.2,0.5-1.2,1.1s0.4,0.9,1.3,1.3
		c1,0.4,1.6,0.9,1.6,1.8c0,1.1-0.8,1.8-2.1,1.8c-0.6,0-1.2-0.2-1.6-0.4L295.2,460.8z"/>
	<path class="st9" d="M301.2,454v1.4h1.8v0.5h-1.8v4.1c0,0.8,0.2,1.3,0.9,1.3c0.3,0,0.6,0,0.7-0.1l0.1,0.5c-0.2,0.1-0.5,0.2-0.9,0.2
		c-0.5,0-0.8-0.1-1.1-0.4c-0.3-0.3-0.4-0.9-0.4-1.5v-3.9h-1.1v-0.5h1.1v-1.1L301.2,454z"/>
	<path class="st9" d="M308.2,460.1c0,0.5,0,1,0.1,1.5h-0.6l-0.1-0.9l0,0c-0.3,0.5-1,1-2,1c-1.3,0-1.8-0.9-1.8-1.7
		c0-1.4,1.3-2.3,3.8-2.3v-0.2c0-0.6-0.1-1.8-1.6-1.8c-0.5,0-1.1,0.1-1.6,0.5l-0.2-0.5c0.6-0.4,1.3-0.5,1.8-0.5
		c1.8,0,2.2,1.4,2.2,2.5L308.2,460.1L308.2,460.1z M307.6,458.3c-1.4,0-3.2,0.2-3.2,1.7c0,0.9,0.6,1.3,1.2,1.3c1,0,1.6-0.6,1.8-1.2
		c0.1-0.1,0.1-0.3,0.1-0.4v-1.4H307.6z"/>
	<path class="st9" d="M313,453c0.5-0.1,1.3-0.2,1.9-0.2c1.1,0,1.9,0.2,2.4,0.7c0.4,0.4,0.6,0.9,0.6,1.5c0,1.2-0.7,1.9-1.7,2.3l0,0
		c0.7,0.2,1.1,0.9,1.4,1.9c0.3,1.4,0.5,2,0.6,2.4h-0.6c-0.1-0.3-0.3-1-0.6-2.1c-0.3-1.3-0.8-1.8-2-1.9h-1.4v4H313V453z M313.7,457.1
		h1.4c1.4,0,2.2-0.8,2.2-1.9c0-1.3-1-1.9-2.4-1.9c-0.6,0-1,0.1-1.3,0.1L313.7,457.1L313.7,457.1z"/>
	<path class="st9" d="M320.5,453.6c0,0.3-0.2,0.5-0.5,0.5s-0.5-0.2-0.5-0.5s0.2-0.5,0.5-0.5S320.5,453.3,320.5,453.6z M319.7,461.6
		v-6.2h0.6v6.2H319.7z"/>
	<path class="st9" d="M326.8,461.3c-0.3,0.1-0.9,0.4-1.8,0.4c-1.8,0-3-1.3-3-3.2c0-2,1.4-3.3,3.2-3.3c0.8,0,1.4,0.2,1.6,0.4
		l-0.2,0.5c-0.3-0.2-0.8-0.4-1.5-0.4c-1.7,0-2.5,1.3-2.5,2.7c0,1.6,1,2.7,2.5,2.7c0.7,0,1.2-0.2,1.6-0.4L326.8,461.3z"/>
	<path class="st9" d="M332.1,460.1c0,0.5,0,1,0.1,1.5h-0.6l-0.1-0.9l0,0c-0.3,0.5-1,1-2,1c-1.3,0-1.8-0.9-1.8-1.7
		c0-1.4,1.3-2.3,3.8-2.3v-0.2c0-0.6-0.1-1.8-1.6-1.8c-0.5,0-1.1,0.1-1.6,0.5l-0.2-0.5c0.6-0.4,1.3-0.5,1.8-0.5
		c1.8,0,2.2,1.4,2.2,2.5L332.1,460.1L332.1,460.1z M331.5,458.3c-1.4,0-3.2,0.2-3.2,1.7c0,0.9,0.6,1.3,1.2,1.3c1,0,1.6-0.6,1.8-1.2
		c0.1-0.1,0.1-0.3,0.1-0.4v-1.4H331.5z"/>
</g>
<g class="st5">
	<path class="st9" d="M206.1,441.6c-0.4,0.2-1.4,0.5-2.6,0.5c-1.2,0-2.2-0.3-3.1-1.1c-0.7-0.7-1.2-1.9-1.2-3.3
		c0-2.4,1.6-4.5,4.6-4.5c0.9,0,1.7,0.2,2,0.4l-0.2,0.5c-0.5-0.2-1-0.4-1.9-0.4c-2.4,0-3.9,1.6-3.9,3.9c0,2.5,1.4,3.9,3.8,3.9
		c0.9,0,1.5-0.1,1.8-0.3v-3.1h-2v-0.5h2.6L206.1,441.6L206.1,441.6z"/>
	<path class="st9" d="M212.7,440.5c0,0.5,0,1,0.1,1.5h-0.6v-1.1l0,0c-0.3,0.6-1,1.3-2.1,1.3c-0.8,0-2.1-0.4-2.1-2.8v-3.6h0.6v3.5
		c0,1.4,0.4,2.3,1.6,2.3c0.9,0,1.6-0.6,1.8-1.3c0.1-0.2,0.1-0.4,0.1-0.7v-3.9h0.6L212.7,440.5L212.7,440.5z"/>
	<path class="st9" d="M218.7,440.5c0,0.5,0,1,0.1,1.5h-0.6l-0.1-0.9l0,0c-0.3,0.5-1,1-2,1c-1.3,0-1.8-0.9-1.8-1.7
		c0-1.4,1.3-2.3,3.8-2.3V438c0-0.6-0.1-1.8-1.6-1.8c-0.5,0-1.1,0.1-1.6,0.5l-0.2-0.5c0.6-0.4,1.3-0.5,1.8-0.5c1.8,0,2.2,1.4,2.2,2.5
		L218.7,440.5L218.7,440.5z M218,438.7c-1.4,0-3.2,0.2-3.2,1.7c0,0.9,0.6,1.3,1.2,1.3c1,0,1.6-0.6,1.8-1.2c0.1-0.1,0.1-0.3,0.1-0.4
		L218,438.7L218,438.7z"/>
	<path class="st9" d="M221.5,434.4v1.4h1.8v0.5h-1.8v4.1c0,0.8,0.2,1.3,0.9,1.3c0.3,0,0.6,0,0.7-0.1l0.1,0.5
		c-0.2,0.1-0.5,0.2-0.9,0.2c-0.5,0-0.8-0.1-1.1-0.4c-0.3-0.3-0.4-0.9-0.4-1.5v-3.9h-1.1V436h1.1v-1.1L221.5,434.4z"/>
	<path class="st9" d="M224.7,438.8c0,2,1.1,2.8,2.4,2.8c0.9,0,1.4-0.2,1.7-0.4l0.2,0.5c-0.2,0.1-0.9,0.4-2,0.4
		c-1.8,0-2.9-1.3-2.9-3.1c0-2.1,1.2-3.4,2.8-3.4c2,0,2.4,1.9,2.4,2.8c0,0.2,0,0.3,0,0.4H224.7z M228.7,438.3c0-0.9-0.4-2.2-1.9-2.2
		c-1.4,0-2,1.2-2.1,2.2H228.7z"/>
	<path class="st9" d="M230.9,437.3c0-0.6,0-1-0.1-1.5h0.6v1.1l0,0c0.4-0.7,1-1.2,2-1.2c0.9,0,1.5,0.6,1.8,1.4l0,0
		c0.2-0.4,0.4-0.6,0.6-0.8c0.4-0.3,0.8-0.5,1.5-0.5c0.6,0,2,0.3,2,2.7v3.7h-0.6v-3.6c0-1.4-0.5-2.2-1.6-2.2c-0.8,0-1.4,0.6-1.6,1.2
		c-0.1,0.2-0.1,0.4-0.1,0.6v4h-0.6v-3.9c0-1.1-0.5-1.9-1.5-1.9c-0.8,0-1.5,0.7-1.7,1.4c-0.1,0.2-0.1,0.4-0.1,0.6v3.8h-0.6
		L230.9,437.3L230.9,437.3z"/>
	<path class="st9" d="M245.4,440.5c0,0.5,0,1,0.1,1.5h-0.6l-0.1-0.9l0,0c-0.3,0.5-1,1-2,1c-1.3,0-1.8-0.9-1.8-1.7
		c0-1.4,1.3-2.3,3.8-2.3V438c0-0.6-0.1-1.8-1.6-1.8c-0.5,0-1.1,0.1-1.6,0.5l-0.2-0.5c0.6-0.4,1.3-0.5,1.8-0.5c1.8,0,2.2,1.4,2.2,2.5
		L245.4,440.5L245.4,440.5z M244.8,438.7c-1.4,0-3.2,0.2-3.2,1.7c0,0.9,0.6,1.3,1.2,1.3c1,0,1.6-0.6,1.8-1.2
		c0.1-0.1,0.1-0.3,0.1-0.4L244.8,438.7L244.8,438.7z"/>
	<path class="st9" d="M247.4,432.8h0.6v9.2h-0.6V432.8z"/>
	<path class="st9" d="M254,440.5c0,0.5,0,1,0.1,1.5h-0.6l-0.1-0.9l0,0c-0.3,0.5-1,1-2,1c-1.3,0-1.8-0.9-1.8-1.7
		c0-1.4,1.3-2.3,3.8-2.3V438c0-0.6-0.1-1.8-1.6-1.8c-0.5,0-1.1,0.1-1.6,0.5l-0.2-0.5c0.6-0.4,1.3-0.5,1.8-0.5c1.8,0,2.2,1.4,2.2,2.5
		L254,440.5L254,440.5z M253.4,438.7c-1.4,0-3.2,0.2-3.2,1.7c0,0.9,0.6,1.3,1.2,1.3c1,0,1.6-0.6,1.8-1.2c0.1-0.1,0.1-0.3,0.1-0.4
		L253.4,438.7L253.4,438.7z"/>
</g>
<g class="st5">
	<path class="st9" d="M203.7,418.1h-3.5v3.8h3.9v0.5h-4.5v-8.8h4.3v0.5h-3.7v3.4h3.5V418.1z"/>
	<path class="st9" d="M205.6,413.2h0.6v9.2h-0.6V413.2z"/>
	<path class="st9" d="M210.9,421.5c0.5,0.3,1.2,0.6,1.9,0.6c1.3,0,2.1-0.7,2.1-1.8c0-1-0.5-1.6-1.8-2.1c-1.4-0.5-2.2-1.2-2.2-2.4
		c0-1.3,1.1-2.2,2.5-2.2c0.8,0,1.4,0.2,1.7,0.4l-0.2,0.5c-0.2-0.2-0.8-0.4-1.5-0.4c-1.4,0-1.9,0.9-1.9,1.6c0,1,0.6,1.5,1.8,2
		c1.4,0.6,2.2,1.2,2.2,2.5s-0.9,2.4-2.8,2.4c-0.8,0-1.6-0.2-2.1-0.6L210.9,421.5z"/>
	<path class="st9" d="M221.1,421c0,0.5,0,1,0.1,1.5h-0.6l-0.1-0.9l0,0c-0.3,0.5-1,1-2,1c-1.3,0-1.8-0.9-1.8-1.7
		c0-1.4,1.3-2.3,3.8-2.3v-0.2c0-0.6-0.1-1.8-1.6-1.8c-0.5,0-1.1,0.1-1.6,0.5l-0.2-0.5c0.6-0.4,1.3-0.5,1.8-0.5
		c1.8,0,2.2,1.4,2.2,2.5L221.1,421L221.1,421z M220.5,419.1c-1.4,0-3.2,0.2-3.2,1.7c0,0.9,0.6,1.3,1.2,1.3c1,0,1.6-0.6,1.8-1.2
		c0.1-0.1,0.1-0.3,0.1-0.4L220.5,419.1L220.5,419.1z"/>
	<path class="st9" d="M223.1,413.2h0.6v9.2h-0.6V413.2z"/>
	<path class="st9" d="M225.7,416.2l1.5,3.9c0.2,0.6,0.4,1.1,0.6,1.7l0,0c0.2-0.5,0.4-1.1,0.6-1.7l1.5-3.9h0.6l-2.5,6.2h-0.5
		l-2.4-6.2H225.7z"/>
	<path class="st9" d="M235.6,421c0,0.5,0,1,0.1,1.5h-0.6l-0.1-0.9l0,0c-0.3,0.5-1,1-2,1c-1.3,0-1.8-0.9-1.8-1.7
		c0-1.4,1.3-2.3,3.8-2.3v-0.2c0-0.6-0.1-1.8-1.6-1.8c-0.5,0-1.1,0.1-1.6,0.5l-0.2-0.5c0.6-0.4,1.3-0.5,1.8-0.5
		c1.8,0,2.2,1.4,2.2,2.5L235.6,421L235.6,421z M235,419.1c-1.4,0-3.2,0.2-3.2,1.7c0,0.9,0.6,1.3,1.2,1.3c1,0,1.6-0.6,1.8-1.2
		c0.1-0.1,0.1-0.3,0.1-0.4L235,419.1L235,419.1z"/>
	<path class="st9" d="M242.6,413.2v7.8c0,0.5,0,1,0.1,1.5h-0.6l-0.1-1.2l0,0c-0.3,0.7-1.1,1.3-2.2,1.3c-1.5,0-2.7-1.3-2.7-3.1
		c0-2.1,1.3-3.4,2.8-3.4c1.1,0,1.8,0.6,2,1.1l0,0v-3.9L242.6,413.2L242.6,413.2z M242,418.7c0-0.2,0-0.4-0.1-0.6
		c-0.2-0.8-0.9-1.5-2-1.5c-1.4,0-2.2,1.2-2.2,2.8c0,1.4,0.7,2.7,2.2,2.7c0.9,0,1.7-0.6,2-1.6c0.1-0.2,0.1-0.3,0.1-0.5V418.7z"/>
	<path class="st9" d="M250,419.3c0,2.3-1.6,3.3-3,3.3c-1.6,0-2.9-1.3-2.9-3.2c0-2.1,1.4-3.3,2.9-3.3
		C248.8,416.1,250,417.4,250,419.3z M244.8,419.3c0,1.6,1,2.7,2.3,2.7s2.3-1.2,2.3-2.8c0-1.1-0.6-2.7-2.3-2.7
		C245.5,416.6,244.8,418,244.8,419.3z"/>
	<path class="st9" d="M251.6,418.1c0-0.6,0-1.3-0.1-1.9h0.6v1.3l0,0c0.3-0.8,0.9-1.4,1.8-1.4c0.1,0,0.2,0,0.3,0v0.6
		c-0.1,0-0.2,0-0.3,0c-0.9,0-1.5,0.7-1.6,1.7c0,0.2-0.1,0.4-0.1,0.6v3.4h-0.6L251.6,418.1L251.6,418.1z"/>
</g>
<g class="st5">
	<path class="st9" d="M203.9,402.9v-8.8h0.6l3.4,5.2c0.7,1.1,1.2,1.9,1.6,2.8l0,0c-0.1-1.2-0.1-2.2-0.1-3.6v-4.3h0.6v8.8h-0.6
		l-3.3-5.1c-0.6-1-1.2-1.9-1.7-2.8l0,0c0.1,1.1,0.1,2,0.1,3.5v4.4h-0.6V402.9z"/>
	<path class="st9" d="M213.2,394.9c0,0.3-0.2,0.5-0.5,0.5s-0.5-0.2-0.5-0.5s0.2-0.5,0.5-0.5S213.2,394.6,213.2,394.9z M212.4,402.9
		v-6.2h0.6v6.2H212.4z"/>
	<path class="st9" d="M219.4,402.6c-0.3,0.1-0.9,0.4-1.8,0.4c-1.8,0-3-1.3-3-3.2c0-2,1.4-3.3,3.2-3.3c0.8,0,1.4,0.2,1.6,0.4
		l-0.2,0.5c-0.3-0.2-0.8-0.4-1.5-0.4c-1.7,0-2.5,1.3-2.5,2.7c0,1.6,1,2.7,2.5,2.7c0.7,0,1.2-0.2,1.6-0.4L219.4,402.6z"/>
	<path class="st9" d="M224.8,401.4c0,0.5,0,1,0.1,1.5h-0.6l-0.1-0.9l0,0c-0.3,0.5-1,1-2,1c-1.3,0-1.8-0.9-1.8-1.7
		c0-1.4,1.3-2.3,3.8-2.3v-0.2c0-0.6-0.1-1.8-1.6-1.8c-0.5,0-1.1,0.1-1.6,0.5l-0.2-0.5c0.6-0.4,1.3-0.5,1.8-0.5
		c1.8,0,2.2,1.4,2.2,2.5L224.8,401.4L224.8,401.4z M224.1,399.5c-1.4,0-3.2,0.2-3.2,1.7c0,0.9,0.6,1.3,1.2,1.3c1,0,1.6-0.6,1.8-1.2
		c0.1-0.1,0.1-0.3,0.1-0.4L224.1,399.5L224.1,399.5z"/>
	<path class="st9" d="M226.8,398.5c0-0.6,0-1.3-0.1-1.9h0.6v1.3l0,0c0.3-0.8,0.9-1.4,1.8-1.4c0.1,0,0.2,0,0.3,0v0.6
		c-0.1,0-0.2,0-0.3,0c-0.9,0-1.5,0.7-1.6,1.7c0,0.2-0.1,0.4-0.1,0.6v3.4h-0.6L226.8,398.5L226.8,398.5z"/>
	<path class="st9" d="M234.5,401.4c0,0.5,0,1,0.1,1.5H234l-0.1-0.9l0,0c-0.3,0.5-1,1-2,1c-1.3,0-1.8-0.9-1.8-1.7
		c0-1.4,1.3-2.3,3.8-2.3v-0.2c0-0.6-0.1-1.8-1.6-1.8c-0.5,0-1.1,0.1-1.6,0.5l-0.2-0.5c0.6-0.4,1.3-0.5,1.8-0.5
		c1.8,0,2.2,1.4,2.2,2.5L234.5,401.4L234.5,401.4z M233.9,399.5c-1.4,0-3.2,0.2-3.2,1.7c0,0.9,0.6,1.3,1.2,1.3c1,0,1.6-0.6,1.8-1.2
		c0.1-0.1,0.1-0.3,0.1-0.4L233.9,399.5L233.9,399.5z"/>
	<path class="st9" d="M241.5,402c0,1.6-0.3,2.4-0.9,2.9c-0.6,0.5-1.4,0.7-2.1,0.7c-0.7,0-1.5-0.2-2-0.5l0.2-0.5
		c0.4,0.3,1.1,0.5,1.9,0.5c1.3,0,2.3-0.7,2.3-2.5v-0.9l0,0c-0.3,0.6-1.1,1.2-2.2,1.2c-1.6,0-2.7-1.4-2.7-3.1c0-2.2,1.4-3.3,2.8-3.3
		c1.2,0,1.8,0.7,2.1,1.2l0,0v-1.1h0.6c0,0.5-0.1,1-0.1,1.6L241.5,402L241.5,402z M240.8,399c0-0.2,0-0.4-0.1-0.6
		c-0.3-0.8-0.9-1.4-1.9-1.4c-1.3,0-2.2,1.1-2.2,2.7c0,1.4,0.7,2.6,2.2,2.6c0.8,0,1.6-0.5,1.9-1.4c0.1-0.2,0.1-0.4,0.1-0.7V399z"/>
	<path class="st9" d="M248.4,401.3c0,0.5,0,1,0.1,1.5h-0.6v-1.1l0,0c-0.3,0.6-1,1.3-2.1,1.3c-0.8,0-2.1-0.4-2.1-2.8v-3.6h0.6v3.5
		c0,1.4,0.4,2.3,1.6,2.3c0.9,0,1.6-0.6,1.8-1.3c0.1-0.2,0.1-0.4,0.1-0.7v-3.9h0.6L248.4,401.3L248.4,401.3z"/>
	<path class="st9" d="M254.3,401.4c0,0.5,0,1,0.1,1.5h-0.6l-0.1-0.9l0,0c-0.3,0.5-1,1-2,1c-1.3,0-1.8-0.9-1.8-1.7
		c0-1.4,1.3-2.3,3.8-2.3v-0.2c0-0.6-0.1-1.8-1.6-1.8c-0.5,0-1.1,0.1-1.6,0.5l-0.2-0.5c0.6-0.4,1.3-0.5,1.8-0.5
		c1.8,0,2.2,1.4,2.2,2.5L254.3,401.4L254.3,401.4z M253.7,399.5c-1.4,0-3.2,0.2-3.2,1.7c0,0.9,0.6,1.3,1.2,1.3c1,0,1.6-0.6,1.8-1.2
		c0.1-0.1,0.1-0.3,0.1-0.4L253.7,399.5L253.7,399.5z"/>
</g>
<line class="st14" x1="268.7" y1="489.2" x2="268.7" y2="391.4"/>
<g>
	<path class="st6" d="M561.3,402H654c3.1,0,5.7,2.5,5.7,5.7c0,3.1-2.5,5.7-5.7,5.7h-92.7V402z"/>
	<path class="st6" d="M561.3,434.6h49c3.3,0,6,2.5,6,5.7c0,3.1-2.7,5.7-6,5.7h-49V434.6z"/>
	<path class="st6" d="M561.3,467.3h-86.2c-3.8,0-6.9,2.5-6.9,5.7c0,3.1,3.1,5.7,6.9,5.7h86.2V467.3z"/>
</g>
<circle class="st15" cx="180.9" cy="163.8" r="87.2"/>
<g>
	<g>
		<g>
			<g>
				<g>
					<defs>
						<rect id="SVGID_5_" x="96.6" y="79.4" width="168.6" height="168.6"/>
					</defs>
					<clipPath id="SVGID_6_">
						<use xlink:href="#SVGID_5_"  style="overflow:visible;"/>
					</clipPath>
					<g class="st16">
						<g>
							<g>
								<g>
									<g>
										<defs>
											
												<rect id="SVGID_7_" x="96.6" y="79.4" transform="matrix(1 -5.180923e-03 5.180923e-03 1 -0.8457 0.9394)" width="168.6" height="168.6"/>
										</defs>
										<clipPath id="SVGID_8_">
											<use xlink:href="#SVGID_7_"  style="overflow:visible;"/>
										</clipPath>
										<ellipse class="st17" cx="180.9" cy="163.6" rx="75.8" ry="75.8"/>
									</g>
								</g>
							</g>
						</g>
					</g>
				</g>
			</g>
		</g>
	</g>
</g>
<g class="st5">
	<path class="st9" d="M583.8,521.6l-0.9,1.2l0,0l1.5-0.1v0.5L583,523l0,0l0.9,1.2l-0.5,0.3l-0.6-1.3l0,0l-0.7,1.3l-0.4-0.3l0.9-1.2
		l0,0l-1.4,0.1v-0.5l1.4,0.1l0,0l-0.9-1.2l0.4-0.3l0.6,1.3l0,0l0.6-1.3L583.8,521.6z"/>
	<path class="st9" d="M586,521.4v6.7h-0.5v-6.7H586z"/>
	<path class="st9" d="M587.8,524.5c0-0.4,0-0.8,0-1.1h0.4v0.9l0,0c0.3-0.5,0.9-1,1.6-1c0.5,0,1.7,0.2,1.7,2v2.9H591v-2.8
		c0-0.9-0.3-1.7-1.3-1.7c-0.7,0-1.2,0.5-1.4,1.1c0,0.1-0.1,0.3-0.1,0.4v3h-0.5L587.8,524.5L587.8,524.5z"/>
	<path class="st9" d="M596.4,528c-0.2,0.1-0.7,0.3-1.4,0.3c-1.4,0-2.3-1-2.3-2.4c0-1.5,1-2.6,2.5-2.6c0.6,0,1.1,0.2,1.3,0.3
		l-0.2,0.4c-0.2-0.1-0.6-0.3-1.1-0.3c-1.3,0-1.9,1-1.9,2.1c0,1.3,0.8,2.1,1.9,2.1c0.6,0,0.9-0.2,1.2-0.3V528z"/>
	<path class="st9" d="M597.6,521.1h0.5v7.1h-0.5V521.1z"/>
	<path class="st9" d="M603.4,527c0,0.4,0,0.8,0,1.2H603v-0.9l0,0c-0.2,0.4-0.8,1-1.6,1c-0.6,0-1.6-0.3-1.6-2.1v-2.8h0.5v2.7
		c0,1,0.3,1.8,1.3,1.8c0.7,0,1.2-0.5,1.4-1c0-0.2,0.1-0.3,0.1-0.5v-3h0.5v3.6H603.4z"/>
	<path class="st9" d="M604.8,523.4l1.3,3.1c0.1,0.3,0.3,0.7,0.4,1l0,0c0.1-0.3,0.2-0.7,0.4-1.1l1.2-3.1h0.5l-1.4,3.6
		c-0.6,1.5-1,2.4-1.6,2.9c-0.4,0.3-0.7,0.5-0.8,0.5l-0.2-0.4c0.2-0.1,0.6-0.3,0.8-0.5s0.6-0.6,0.8-1.2c0-0.1,0.1-0.2,0.1-0.2
		s0-0.1-0.1-0.2l-1.8-4.4L604.8,523.4L604.8,523.4z"/>
	<path class="st9" d="M609.4,525.7c0,1.5,0.8,2.1,1.8,2.1c0.7,0,1.1-0.1,1.3-0.3l0.1,0.4c-0.2,0.1-0.7,0.3-1.5,0.3
		c-1.4,0-2.2-1-2.2-2.4c0-1.6,0.9-2.6,2.2-2.6c1.6,0,1.9,1.5,1.9,2.2c0,0.1,0,0.2,0,0.3H609.4z M612.5,525.4c0-0.7-0.3-1.7-1.4-1.7
		c-1.1,0-1.5,0.9-1.6,1.7H612.5z"/>
	<path class="st9" d="M616.2,523.4l1.1,3c0.2,0.5,0.3,0.9,0.5,1.3l0,0c0.1-0.4,0.3-0.8,0.5-1.3l1.1-3h0.5l-1.9,4.8h-0.4l-1.9-4.8
		H616.2z"/>
	<path class="st9" d="M620.9,525.7c0,1.5,0.8,2.1,1.8,2.1c0.7,0,1.1-0.1,1.3-0.3l0.1,0.4c-0.2,0.1-0.7,0.3-1.5,0.3
		c-1.4,0-2.2-1-2.2-2.4c0-1.6,0.9-2.6,2.2-2.6c1.6,0,1.9,1.5,1.9,2.2c0,0.1,0,0.2,0,0.3H620.9z M624,525.4c0-0.7-0.3-1.7-1.4-1.7
		c-1.1,0-1.5,0.9-1.6,1.7H624z"/>
	<path class="st9" d="M625.7,524.5c0-0.4,0-0.8,0-1.1h0.5v0.9l0,0c0.3-0.5,0.9-1,1.6-1c0.5,0,1.7,0.2,1.7,2v2.9H629v-2.8
		c0-0.9-0.3-1.7-1.3-1.7c-0.7,0-1.2,0.5-1.4,1.1c0,0.1-0.1,0.3-0.1,0.4v3h-0.5V524.5z"/>
	<path class="st9" d="M631.7,522.3v1.1h1.4v0.4h-1.4v3.1c0,0.6,0.2,1,0.7,1c0.2,0,0.4,0,0.5-0.1l0.1,0.4c-0.2,0.1-0.4,0.1-0.7,0.1
		s-0.6-0.1-0.8-0.3s-0.3-0.7-0.3-1.1v-3h-0.8v-0.4h0.8v-0.9L631.7,522.3z"/>
	<path class="st9" d="M637.1,527c0,0.4,0,0.8,0.1,1.1h-0.4l-0.1-0.7l0,0c-0.2,0.4-0.8,0.8-1.5,0.8c-1,0-1.4-0.7-1.4-1.3
		c0-1.1,1-1.8,2.9-1.8V525c0-0.5-0.1-1.4-1.2-1.4c-0.4,0-0.9,0.1-1.2,0.4l-0.1-0.3c0.4-0.3,1-0.4,1.4-0.4c1.4,0,1.7,1,1.7,1.9v1.8
		H637.1z M636.7,525.6c-1,0-2.4,0.1-2.4,1.3c0,0.7,0.5,1,1,1c0.8,0,1.3-0.5,1.4-1c0-0.1,0.1-0.2,0.1-0.3L636.7,525.6L636.7,525.6z"
		/>
	<path class="st9" d="M638.5,527.6c0.3,0.2,0.6,0.3,1.1,0.3c0.8,0,1.1-0.4,1.1-0.9s-0.3-0.8-1-1.1c-0.8-0.3-1.2-0.7-1.2-1.3
		c0-0.7,0.5-1.3,1.5-1.3c0.4,0,0.8,0.1,1.1,0.3l-0.2,0.4c-0.2-0.1-0.5-0.3-1-0.3c-0.6,0-0.9,0.4-0.9,0.8c0,0.5,0.3,0.7,1,1
		c0.8,0.3,1.2,0.7,1.2,1.4c0,0.8-0.6,1.4-1.6,1.4c-0.5,0-0.9-0.1-1.2-0.3L638.5,527.6z"/>
	<path class="st9" d="M648.4,521.1v6c0,0.4,0,0.8,0,1.1H648v-0.9l0,0c-0.2,0.5-0.8,1-1.7,1c-1.2,0-2.1-1-2.1-2.4
		c0-1.6,1-2.6,2.2-2.6c0.8,0,1.4,0.4,1.6,0.8l0,0v-3L648.4,521.1L648.4,521.1z M648,525.3c0-0.1,0-0.3,0-0.4
		c-0.2-0.6-0.7-1.2-1.5-1.2c-1,0-1.7,0.9-1.7,2.1c0,1.1,0.5,2.1,1.7,2.1c0.7,0,1.3-0.5,1.5-1.2c0-0.1,0-0.2,0-0.4V525.3z"/>
	<path class="st9" d="M650.1,525.7c0,1.5,0.8,2.1,1.8,2.1c0.7,0,1.1-0.1,1.3-0.3l0.1,0.4c-0.2,0.1-0.7,0.3-1.5,0.3
		c-1.4,0-2.2-1-2.2-2.4c0-1.6,0.9-2.6,2.2-2.6c1.6,0,1.9,1.5,1.9,2.2c0,0.1,0,0.2,0,0.3H650.1z M653.2,525.4c0-0.7-0.3-1.7-1.4-1.7
		c-1.1,0-1.5,0.9-1.6,1.7H653.2z"/>
</g>
<g class="st5">
	<path class="st9" d="M659.8,527.9c-0.2,0.2-0.8,0.4-1.5,0.4c-1.2,0-1.7-0.9-1.7-1.9c0-1.4,1.1-3.1,2.5-3.1c0.9,0,1.2,0.5,1.2,1.1
		c0,1.3-1.6,1.5-3.2,1.5c-0.1,0.2,0,0.8,0.1,1.2c0.2,0.5,0.6,0.8,1.2,0.8c0.6,0,1-0.2,1.3-0.3L659.8,527.9z M660,524.4
		c0-0.5-0.4-0.7-0.9-0.7c-0.9,0-1.6,0.9-1.9,1.8C658.7,525.5,660,525.3,660,524.4L660,524.4z"/>
	<path class="st9" d="M665.3,527.9c-0.4,0.2-1,0.3-1.7,0.3c-1.6,0-2.6-1.1-2.6-2.8c0-1.1,0.4-2.3,1.3-3.2c0.7-0.7,1.6-1,2.6-1
		c0.8,0,1.3,0.2,1.4,0.3l-0.2,0.3c-0.3-0.2-0.8-0.3-1.4-0.3c-0.8,0-1.6,0.3-2.2,0.9c-0.7,0.7-1.1,1.7-1.1,2.8c0,1.3,0.5,2.4,2.2,2.4
		c0.5,0,1.1-0.1,1.5-0.3L665.3,527.9z"/>
	<path class="st9" d="M668,528.3c-1.2,0-1.8-1-1.8-2c0-1.5,1.1-3.1,2.5-3.1c1.3,0,1.8,1,1.8,2C670.5,526.6,669.6,528.3,668,528.3
		L668,528.3z M668,527.9c1.1,0,2-1.3,2-2.6c0-0.6-0.3-1.6-1.3-1.6c-1.2,0-2,1.3-2,2.6C666.7,527.2,667.2,527.9,668,527.9L668,527.9z
		"/>
	<path class="st9" d="M671.2,528.2l0.7-3.5c0.1-0.5,0.1-0.9,0.2-1.3h0.4l-0.1,1l0,0c0.4-0.7,1.1-1.1,1.7-1.1c0.7,0,1.1,0.4,1.1,1.2
		c0.4-0.7,1-1.1,1.8-1.2c0.4,0,1.2,0.3,1.2,1.2c0,0.2,0,0.5-0.1,0.8l-0.5,2.9h-0.4l0.5-2.9c0-0.2,0.1-0.4,0.1-0.6c0-0.6-0.2-1-0.9-1
		s-1.5,0.7-1.7,1.9l-0.5,2.6h-0.4l0.6-2.9c0-0.2,0.1-0.4,0.1-0.6c0-0.5-0.1-1-0.9-1c-0.7,0-1.6,0.9-1.8,1.9l-0.5,2.6L671.2,528.2
		L671.2,528.2z"/>
	<path class="st9" d="M679.1,528.2l0.7-3.5c0.1-0.5,0.2-0.9,0.2-1.3h0.4l-0.2,1l0,0c0.5-0.7,1.1-1.1,1.7-1.1c0.7,0,1.1,0.4,1.1,1.2
		c0.4-0.7,1-1.1,1.8-1.2c0.4,0,1.2,0.3,1.2,1.2c0,0.2,0,0.5-0.1,0.8l-0.5,2.9h-0.5l0.5-2.9c0-0.2,0.1-0.4,0.1-0.6c0-0.6-0.2-1-0.9-1
		s-1.5,0.7-1.7,1.9l-0.5,2.6h-0.5l0.6-2.9c0-0.2,0.1-0.4,0.1-0.6c0-0.5-0.1-1-0.9-1c-0.7,0-1.6,0.9-1.8,1.9l-0.5,2.6L679.1,528.2
		L679.1,528.2z"/>
	<path class="st9" d="M690.2,527.9c-0.2,0.2-0.7,0.4-1.5,0.4c-1.2,0-1.7-0.9-1.7-1.9c0-1.4,1.1-3.1,2.5-3.1c0.9,0,1.2,0.5,1.2,1.1
		c0,1.3-1.6,1.5-3.2,1.5c-0.1,0.2-0.1,0.8,0.1,1.2c0.2,0.5,0.6,0.8,1.2,0.8c0.6,0,1-0.2,1.3-0.3L690.2,527.9z M690.4,524.4
		c0-0.5-0.4-0.7-0.9-0.7c-0.9,0-1.6,0.9-1.9,1.8C689.1,525.5,690.4,525.3,690.4,524.4L690.4,524.4z"/>
	<path class="st9" d="M691.3,528.2l0.6-3.2c0.1-0.6,0.2-1.1,0.2-1.6h0.4c0,0.3-0.1,0.7-0.2,1.1l0,0c0.3-0.7,0.8-1.2,1.4-1.2
		c0.1,0,0.2,0,0.2,0l-0.1,0.5c0,0-0.1,0-0.2,0c-0.6,0-1.4,0.9-1.6,2.1l-0.4,2.3L691.3,528.2L691.3,528.2z"/>
	<path class="st9" d="M697.3,528c-0.2,0.1-0.7,0.3-1.4,0.3c-1.3,0-1.7-0.9-1.7-1.8c0-1.6,1.2-3.2,2.8-3.2c0.5,0,0.9,0.2,1,0.3
		l-0.2,0.4c-0.2-0.1-0.5-0.2-0.9-0.2c-1.4,0-2.3,1.5-2.3,2.7c0,0.8,0.4,1.5,1.3,1.5c0.5,0,1-0.2,1.2-0.3L697.3,528z"/>
	<path class="st9" d="M701.3,527.9c-0.2,0.2-0.7,0.4-1.5,0.4c-1.2,0-1.7-0.9-1.7-1.9c0-1.4,1.1-3.1,2.5-3.1c0.9,0,1.2,0.5,1.2,1.1
		c0,1.3-1.6,1.5-3.2,1.5c-0.1,0.2-0.1,0.8,0.1,1.2c0.2,0.5,0.6,0.8,1.2,0.8c0.6,0,1-0.2,1.3-0.3L701.3,527.9z M701.5,524.4
		c0-0.5-0.4-0.7-0.9-0.7c-0.9,0-1.6,0.9-1.9,1.8C700.2,525.5,701.5,525.3,701.5,524.4L701.5,524.4z"/>
</g>
</svg>
