<?xml version="1.0" encoding="utf-8"?>
<!-- Generator: Adobe Illustrator 25.1.0, SVG Export Plug-In . SVG Version: 6.00 Build 0)  -->
<svg version="1.1" id="Capa_1" xmlns="http://www.w3.org/2000/svg" xmlns:xlink="http://www.w3.org/1999/xlink" x="0px" y="0px"
	 viewBox="0 0 66.2 66.2" style="enable-background:new 0 0 66.2 66.2;" xml:space="preserve">
<style type="text/css">
	.st0{fill:#48773C;}
	.st1{fill:#FFFFFF;}
</style>
<rect class="st0" width="66.2" height="66.2"/>
<path class="st1" d="M43.6,43.8c-0.3-0.1-1.4-1.7-0.5-2.7c0.2-0.2-0.3-0.7-0.2-0.7c0.4,0,0.8,0.3,0.9,0.7c0,0.2,0,0.4,0,0.6
	C43.8,42.5,43.7,43.2,43.6,43.8 M40.8,49c-0.1,0-0.2-0.1-0.3-0.1C39.9,48.6,40,49,39.7,49s0.3-0.7-0.5-0.2s-0.6-0.1-1-1
	c-0.2-0.9,0.2-1.8,1.1-2.2c0.6-0.2,1.2-0.4,1.8-0.5c1.2-0.3,1.5-1,1.7-0.6l0.1,0.2c0.1,0.2,0.2,0.4,0.2,0.7
	C42.6,46.7,41.8,48,40.8,49 M33.6,52c-1,0-1.9-0.1-2.9-0.4c-0.1-0.1-0.2-0.3-0.1-0.5c0.4-0.7,1.2-1.2,2-1.2c1.7-0.2,3.8,1.1,4.2,0.9
	s1-1.1,2.1-1.1c0.3,0,0.7,0.1,0.9,0.2C38,51.3,35.8,52,33.6,52 M32.2,45.3c-0.1,0.2-0.5,2-0.8,1.8s0.1-2,0.2-2.1
	C32,44.2,32.9,44.3,32.2,45.3 M36.4,43.3c-0.3,0.2-0.7,0.1-1-0.1c-0.3-0.2,0.2-0.5,0.3-0.5C36,42.7,36.6,43.2,36.4,43.3 M40.9,43.3
	c-0.1,0-0.2-0.1-0.3-0.4c-0.1-0.1,0-0.3,0.1-0.3c0.1,0,0.1,0,0.2,0c0.2,0.1,0.4,0.3,0.5,0.6C41.4,43.4,41,43.4,40.9,43.3 M41.3,43.7
	c0.3,0,0.9,0.4,0.7,0.6c-0.3,0.2-0.7,0.1-1-0.1C40.7,44,41.1,43.7,41.3,43.7 M30.3,47.7c-0.1,0.5-0.3,0.9-0.5,1.3
	c-0.4,0.3-0.9,0.5-1.4,0.5c-0.5,0-0.5-1.3-0.5-1.9c0-0.2-0.3,0.4-0.5-0.9c-0.1-0.8-0.6,0.1-0.7-0.5s-0.3-0.5-0.6-0.8s-0.6,0-1,0.2
	s-0.2,0.3-0.8,0.1l0,0c-0.5-1.3-0.8-2.6-0.8-4c0-0.3,0-0.7,0-1c0,0,0-0.1,0.1-0.1c0.5-0.6,0.5-0.8,0.5-0.8l0.6-0.2
	c0.6,0.1,1.1,0.2,1.7,0.4c0.6,0.2,1.5,0.7,2.1,0.5s0.7-0.4,0.7-0.7s-0.4-0.5-0.8-0.2c-0.1,0.1-0.5-0.6-0.7-0.6s0.3,0.8,0.1,0.9
	s-0.6-0.8-0.7-1s-0.4-0.5-0.7-0.2c-0.6,0.6-1.6,0.5-1.8,0.7c-0.6,0.4-0.8-0.2-0.7-0.5c0-0.1,0-0.2,0.1-0.2c0.3-0.2,0.7-0.2,1.1-0.1
	c0.3,0.2,0.5,0,0.6-0.2c0.1-0.1,0.1-0.3,0-0.4c-0.1-0.1,0.1-0.2,0.3-0.3c0.3-0.1,0.5-0.3,0.8-0.5c0.5-0.2,1-0.2,1.5,0
	c0.3,0.2,0.8,0.1,1-0.2c0.2-0.2,0.5-0.5,0.7-0.6c0.1-0.1-0.4-0.5-0.8,0S28.5,37,28.3,37s-1.4-0.3-1.5-0.7s0.4-0.7,0.8-0.9
	c0.6-0.1,1.3-0.2,1.9-0.3c0.6-0.1,1.4-0.5,1.8-0.2s-1.7,0.7-1,1.1c0.2,0.1,1.3-0.6,1.7-0.8c0.9-0.5-0.9-0.6-0.6-1.5
	s-2.1-0.6-3.3-0.5c1.6-1.1,3.5-1.6,5.5-1.6c4.7,0,8.8,3.2,9.9,7.8c0,0.2,0,0.3,0,0.5c-0.1,0.3-0.5,0.5-0.9,0.4
	c-0.1-0.1-0.3-0.2-0.3-0.3c-0.1-0.2-0.5-0.6-0.5,0.2s0.7,0.8,0,1.2c-0.3,0.2-0.7,0.4-1.1,0.4c-0.4,0.3-0.6,0.8-0.5,1.2
	c0.1,0.4,1,1.5,0.3,1.4c-0.6-0.3-1.1-0.8-1.5-1.4c-0.2-0.6-0.4-1.1-0.6-1.5c-0.1-0.3-0.4-0.5-0.8-0.4c-0.1,0-0.2,0.1-0.2,0.1
	c-0.4,0.2,0.1,0.5-0.2,1s-0.5,1-0.8,0.6c-1-1.2-2.4-0.6-2.7-1.8c-0.1-0.7-0.7-0.6-1.2-1s-0.8-0.6-0.9-0.3s1.6,1.5,1.7,1.9
	c0.2,0.5-0.5,0.9-1,1s-0.7-0.3-1.2-0.8s-0.7-0.8-0.7-0.5c0,0.7,0.4,1.3,0.9,1.7c0.4,0.3,0.9,0.4,0.7,0.8s0,0.2-0.5,0.6
	c-0.4,0.3-0.6,0.8-0.5,1.2c0,0.6-0.1,0.7-0.2,1.2S30.5,46.9,30.3,47.7 M24.9,36.4L24.9,36.4c0.3-0.2,0.6-0.3,0.9-0.4
	c0.2,0,0.6,0.1,0.6,0.2s-0.6,0.5-0.8,0.6c-0.4,0.3-0.9,1-1.2,1.1c-0.1,0-0.2,0-0.3,0C24.3,37.5,24.6,36.9,24.9,36.4 M25.4,35.5
	c0.1-0.2,0.6-0.8,0.6-0.8c0.1-0.1,0.3-0.2,0.5-0.2c0.1,0,0.4,0.1,0.4,0.2c0,0.2,0,0.4-0.1,0.7c-0.3,0.3-0.7,0.5-1.1,0.5
	C25.4,35.8,25.4,35.5,25.4,35.5 M57.9,41.5c-10-13.4-28.9-16.2-42.3-6.2c-2.4,1.8-4.5,3.9-6.2,6.2c-0.1,0.1-0.1,0.2-0.2,0.3
	c0.1,0.1,0.1,0.2,0.2,0.3c10,13.4,28.9,16.2,42.3,6.2c2.4-1.8,4.5-3.9,6.2-6.2c0.1-0.1,0.1-0.2,0.2-0.3C58,41.6,57.9,41.5,57.9,41.5
	"/>
<g>
	<path id="Path_387_1_" class="st1" d="M8.6,5.4v13.9H6.3V8.6l0,0l-1.7,1.7l0,0V7.9l2.1-2.5H8.6L8.6,5.4z"/>
	<path id="Path_388_1_" class="st1" d="M16.2,8.4v1.3c0.1,1.1-0.7,2-1.5,2.3c1.1,0.3,1.9,1.3,1.7,2.4v2.1c0,1.9-1.1,3.1-3.3,3.1
		c-2.4,0-3.2-1.3-3.2-3.5v-1.9h2.1v2c0,0.8,0.3,1.3,1.1,1.3s1.1-0.5,1.1-1.3V14c0-0.7-0.3-1.1-1.1-1.1H12v-1.7h0.8
		c0.7,0,1.3-0.4,1.3-1.1V8.5c0-0.7-0.3-1.3-1.1-1.3s-1.1,0.5-1.1,1.3v1.5H9.9V8.8c0-2.1,0.8-3.5,3.2-3.5C15.4,5.3,16.2,6.5,16.2,8.4
		"/>
	<g>
		<path class="st1" d="M21.7,9.7V7c0-0.9,0.4-1.5,1.4-1.5c1.1,0,1.3,0.6,1.3,1.4v0.7h-0.9V6.8c0-0.3-0.1-0.5-0.5-0.5
			c-0.3,0-0.5,0.3-0.5,0.6v3c0,0.3,0.1,0.6,0.5,0.6c0.3,0,0.5-0.2,0.5-0.5v-1h0.9v0.9c0,0.8-0.3,1.4-1.3,1.4
			C22.1,11.2,21.7,10.6,21.7,9.7z"/>
		<path class="st1" d="M25,5.5h0.9v4.8h1.1v0.8H25L25,5.5L25,5.5z"/>
		<path class="st1" d="M27.5,5.5h0.9v5.6h-0.9V5.5z"/>
		<path class="st1" d="M31.5,7.5L31.5,7.5l-0.7,3.6h-0.5l-0.7-3.6l0,0v3.6h-0.8V5.5h1.1l0.6,3.1l0,0l0.5-3.1h1.2v5.6h-0.9V7.5H31.5z
			"/>
		<path class="st1" d="M32.8,11.2l1.1-5.6H35l1.1,5.6h-0.9l-0.2-1h-1l-0.1,1H32.8z M34,9.3h0.7l-0.4-2.3l0,0L34,9.3z"/>
		<path class="st1" d="M35.9,5.5h2.5v0.8h-0.8v4.8h-0.9V6.3h-0.8V5.5z"/>
		<path class="st1" d="M38.8,5.5h2.3v0.8h-1.3v1.6h0.9v0.7h-0.9v1.7h1.3v0.8h-2.3V5.5z"/>
		<path class="st1" d="M21.6,19l1.1-5.6h1.1l1.1,5.6h-0.9l-0.2-1h-1l-0.1,1H21.6z M22.8,17.2h0.7L23.1,15l0,0L22.8,17.2z"/>
		<path class="st1" d="M25.1,17.6v-2.7c0-0.9,0.4-1.5,1.4-1.5c1.1,0,1.3,0.6,1.3,1.4v0.7h-0.9v-0.7c0-0.3-0.1-0.5-0.5-0.5
			c-0.3,0-0.5,0.3-0.5,0.6v3c0,0.3,0.1,0.6,0.5,0.6c0.3,0,0.5-0.2,0.5-0.5v-1h0.9v0.9c0,0.8-0.3,1.4-1.3,1.4
			C25.5,19,25.1,18.4,25.1,17.6z"/>
		<path class="st1" d="M28.1,13.4h2.5v0.8h-0.8V19h-0.9v-4.8h-0.8L28.1,13.4L28.1,13.4z"/>
		<path class="st1" d="M31.1,13.4H32V19h-0.9V13.4z"/>
		<path class="st1" d="M32.5,17.6v-2.7c0-0.9,0.4-1.5,1.4-1.5c1,0,1.4,0.7,1.4,1.5v2.7c0,0.9-0.4,1.5-1.4,1.5
			C32.9,19,32.5,18.4,32.5,17.6z M34.5,17.7v-3c0-0.3-0.1-0.6-0.5-0.6s-0.5,0.3-0.5,0.6v3c0,0.3,0.1,0.6,0.5,0.6
			C34.3,18.3,34.5,18,34.5,17.7z"/>
		<path class="st1" d="M36.8,15.5V19H36v-5.6h0.9l1,3.2v-3.2h0.8V19h-0.8L36.8,15.5z"/>
	</g>
</g>
</svg>
