<?xml version="1.0" encoding="utf-8"?>
<!-- Generator: Adobe Illustrator 25.1.0, SVG Export Plug-In . SVG Version: 6.00 Build 0)  -->
<svg version="1.1" id="Capa_1" xmlns="http://www.w3.org/2000/svg" xmlns:xlink="http://www.w3.org/1999/xlink" x="0px" y="0px"
	 viewBox="0 0 66.2 66.2" style="enable-background:new 0 0 66.2 66.2;" xml:space="preserve">
<style type="text/css">
	.st0{fill:#CD8B2A;}
	.st1{fill:#FFFFFF;}
	.st2{fill:none;stroke:#FFFFFF;stroke-width:0.41;stroke-miterlimit:10;}
</style>
<rect class="st0" width="66.2" height="66.2"/>
<path class="st1" d="M49.9,34.3c-2.4-1.7-5.3-2.5-8.2-2h-0.2c-1.6,0.4-4.2,1-7.3,4.8v0.1v0c0,0,0,0.1,0,0.2c0,0,0,0.1,0,0.1l0.1,0.1
	c0.4,0.6,0.9,1.5,1.3,2.2l0,0c0,0.1,0.1,0.1,0.2,0.2c0.1,0,0.1,0,0.2-0.1l0.1-0.1c2.7-3.7,4.8-4.2,6.3-4.6h0.2c2-0.2,4,0.3,5.6,1.4
	c1.6,1.3,2.4,3.3,2.4,6c0,4.5-2.2,6.3-4,7c-1.9,0.6-3.9,0.5-5.6-0.4l-0.1-0.1c-1.6-0.7-3.9-2.1-6.1-6.5c-4.5-9-8.2-9.8-10.7-10.4
	h-0.1c-2.9-0.5-5.8,0.3-8.1,2c-1.6,1.3-3.5,3.8-3.5,8.3c-0.1,2.4,0.6,4.7,2.1,6.6c2.4,3,6.3,4.3,10,3.5c1.4-0.3,2.8-0.9,3.9-1.8
	l1.4,1.3c0.1,0.1,0.2,0.1,0.3,0c0,0,0.1-0.1,0-0.2l0,0l1-6.2v-0.1c0-0.1,0-0.1-0.1-0.2c0,0-0.1,0-0.1,0h-0.1l-6,1.7h-0.1
	c0,0-0.1,0-0.1,0.1c-0.1,0.1-0.1,0.2,0,0.3l0.1,0.1l1.3,1.2c-0.7,0.4-1.4,0.8-2.2,0.9c-2.6,0.6-5.3-0.2-7-2.3v0
	c-1.1-1.3-1.6-3-1.4-4.7c0-2.7,0.8-4.7,2.4-6C19,35.5,21,35,23,35.3h0.1c2,0.5,4.8,1.1,8.6,8.7c2,4,4.5,6.6,7.6,8
	c1.5,0.7,3.1,1.1,4.8,1.1c1.1,0,2.3-0.2,3.3-0.6c1.8-0.7,6-3,6-9.8C53.4,38.1,51.4,35.6,49.9,34.3"/>
<path class="st2" d="M49.9,34.3c-2.4-1.8-5.3-2.5-8.2-2h-0.2c-1.6,0.4-4.2,1-7.3,4.8c0,0,0,0,0,0.1l0,0c0,0,0,0.1,0,0.2
	c0,0,0,0.1,0,0.1l0.1,0.1c0.4,0.6,0.9,1.5,1.3,2.2l0,0c0.1,0.1,0.1,0.1,0.2,0.1c0.1,0,0.1,0,0.2-0.1c0,0,0-0.1,0-0.1
	c2.7-3.7,4.8-4.3,6.3-4.6h0.2c2-0.2,4,0.3,5.6,1.5c1.6,1.3,2.4,3.3,2.4,6c0,4.5-2.2,6.3-4,7c-1.9,0.6-3.9,0.5-5.6-0.4l-0.1-0.1
	c-1.6-0.7-3.9-2.1-6.1-6.5c-4.5-9-8.2-9.8-10.7-10.4h-0.1c-2.9-0.5-5.8,0.3-8.1,2c-1.6,1.3-3.5,3.8-3.5,8.3c-0.1,2.4,0.6,4.7,2,6.6
	c2.4,3,6.3,4.3,10,3.5c1.4-0.3,2.8-0.9,3.9-1.8l1.4,1.3c0.1,0.1,0.2,0.1,0.3,0c0,0,0.1-0.1,0-0.2l0,0l1-6.2v-0.1
	c0-0.1,0-0.1-0.1-0.2c0,0-0.1-0.1-0.1-0.1h-0.1l-6,1.7h-0.1c0,0-0.1,0-0.1,0.1c-0.1,0.1-0.1,0.2,0,0.3c0,0,0,0,0,0l0.1,0.1l1.3,1.2
	c-0.7,0.4-1.4,0.8-2.2,0.9c-2.6,0.6-5.3-0.2-7-2.3l0,0c-1.1-1.3-1.6-3-1.4-4.8c0-2.7,0.8-4.7,2.4-6C19,35.5,21,35,23,35.3h0.1
	c2,0.5,4.8,1.1,8.6,8.8c2,4,4.5,6.6,7.6,8c1.5,0.7,3.1,1.1,4.8,1.1c1.1,0,2.3-0.2,3.3-0.6c1.8-0.7,6-3,6-9.8
	C53.4,38.1,51.5,35.6,49.9,34.3"/>
<g>
	<path id="Path_355_1_" class="st1" d="M5.3,8.1L5.3,8.1v10.6h2.3V4.9H5.7l-2,2.4v2.4l0,0L5.3,8.1z"/>
	<path id="Path_356_1_" class="st1" d="M9,7.7v1.7h2V7.5c0-0.8,0.4-1.1,0.9-1.1c0.4,0,0.8,0.3,0.8,1.1v1.1c0.1,0.9-0.3,1.7-0.8,2.4
		l-1.3,1.3c-1.3,1.3-1.7,2.3-1.7,3.6v2.5h6v-1.7H11v-0.7c0-0.8,0.3-1.6,0.9-2l1.5-1.5c1.1-0.8,1.5-2.1,1.5-3.5V7.7
		c0-2-0.9-2.8-3-2.8C10.4,4.6,9,5.6,8.7,7.2C9,7.2,9,7.5,9,7.7"/>
	<g>
		<path class="st1" d="M22.6,7.2v2.7h-1V4.1H23c1,0,1.3,0.5,1.3,1.3v0.7c0,0.7-0.2,1-0.8,1.1l0.9,2.6h-1L22.6,7.2z M22.6,4.9v1.8
			h0.3c0.3,0,0.5-0.2,0.5-0.5V5.3c0-0.3-0.1-0.5-0.5-0.5H22.6z"/>
		<path class="st1" d="M24.8,4.1h2.3v0.8h-1.4v1.7h1v0.8h-1v1.8h1.4v0.8h-2.3V4.1z"/>
		<path class="st1" d="M27.5,8.6V7.8h0.9v0.8c0,0.3,0.1,0.5,0.5,0.5s0.5-0.2,0.5-0.5V8.4c0-0.3-0.1-0.5-0.5-0.9L28.3,7
			c-0.5-0.5-0.8-0.9-0.8-1.6V5.2c0-0.7,0.4-1.3,1.4-1.3s1.4,0.5,1.4,1.3v0.5h-0.9V5.2c0-0.3-0.1-0.5-0.5-0.5c-0.3,0-0.5,0.1-0.5,0.5
			v0.1c0,0.3,0.2,0.5,0.5,0.8l0.7,0.6c0.5,0.5,0.8,0.9,0.8,1.5v0.3c0,0.8-0.5,1.4-1.5,1.4C27.9,9.9,27.5,9.4,27.5,8.6z"/>
		<path class="st1" d="M30.7,4.1h1.5c1,0,1.3,0.5,1.3,1.3v1.3c0,0.8-0.3,1.3-1.3,1.3h-0.5v2h-1V4.1z M31.6,4.9v2.3H32
			c0.3,0,0.5-0.1,0.5-0.5V5.4c0-0.3-0.1-0.5-0.5-0.5L31.6,4.9L31.6,4.9z"/>
		<path class="st1" d="M33.9,8.4V5.6c0-0.9,0.5-1.6,1.5-1.6c1.1,0,1.5,0.7,1.5,1.6v2.8c0,0.9-0.5,1.6-1.5,1.6
			C34.4,9.9,33.9,9.3,33.9,8.4z M35.9,8.6V5.5c0-0.3-0.1-0.6-0.5-0.6c-0.3,0-0.5,0.3-0.5,0.6v3.1c0,0.3,0.1,0.6,0.5,0.6
			C35.7,9.2,35.9,8.9,35.9,8.6z"/>
		<path class="st1" d="M38.1,6.2v3.7h-0.9V4.1h1l1.1,3.4V4.1h0.8v5.8h-0.9L38.1,6.2z"/>
		<path class="st1" d="M40.5,8.6V7.8h0.9v0.8c0,0.3,0.1,0.5,0.5,0.5s0.5-0.2,0.5-0.5V8.4c0-0.3-0.1-0.5-0.5-0.9L41.3,7
			c-0.5-0.5-0.8-0.9-0.8-1.6V5.2c0-0.7,0.4-1.3,1.4-1.3s1.4,0.5,1.4,1.3v0.5h-0.9V5.2c0-0.3-0.1-0.5-0.5-0.5c-0.3,0-0.5,0.1-0.5,0.5
			v0.1c0,0.3,0.2,0.5,0.5,0.8l0.7,0.6c0.5,0.5,0.8,0.9,0.8,1.5v0.3c0,0.8-0.5,1.4-1.5,1.4C40.9,9.9,40.5,9.4,40.5,8.6z"/>
		<path class="st1" d="M43.7,4.1h1v5.8h-1V4.1z"/>
		<path class="st1" d="M45.1,4.1h1.5c1,0,1.3,0.5,1.3,1.3v0.6c0,0.5-0.2,0.8-0.6,0.9C47.8,7,48,7.3,48,7.8v0.8
			c0,0.9-0.4,1.3-1.3,1.3h-1.5L45.1,4.1L45.1,4.1z M46.1,6.5h0.3c0.3,0,0.5-0.1,0.5-0.5V5.3c0-0.3-0.1-0.5-0.5-0.5h-0.3V6.5z
			 M46.1,7.3v1.9h0.5C46.9,9.2,47,9,47,8.7V7.8c0-0.3-0.1-0.5-0.5-0.5L46.1,7.3L46.1,7.3z"/>
		<path class="st1" d="M48.4,4.1h1v5h1.2v0.8h-2.2V4.1z"/>
		<path class="st1" d="M50.9,4.1h2.3v0.8h-1.4v1.7h1v0.8h-1v1.8h1.4v0.8h-2.3V4.1z"/>
		<path class="st1" d="M21.6,16.6v-2.8c0-0.9,0.5-1.6,1.5-1.6c1.1,0,1.4,0.6,1.4,1.5v0.7h-0.9v-0.8c0-0.3-0.1-0.6-0.5-0.6
			c-0.3,0-0.5,0.3-0.5,0.6v3.1c0,0.3,0.1,0.6,0.5,0.6c0.3,0,0.5-0.2,0.5-0.6v-1.1h0.9v1c0,0.9-0.3,1.5-1.4,1.5
			C22.1,18.1,21.6,17.5,21.6,16.6z"/>
		<path class="st1" d="M24.9,16.6v-2.8c0-0.9,0.5-1.6,1.5-1.6c1.1,0,1.5,0.7,1.5,1.6v2.8c0,0.9-0.5,1.6-1.5,1.6
			C25.3,18.1,24.9,17.5,24.9,16.6z M26.9,16.8v-3.1c0-0.3-0.1-0.6-0.5-0.6c-0.3,0-0.5,0.3-0.5,0.6v3.1c0,0.3,0.1,0.6,0.5,0.6
			C26.7,17.4,26.9,17.1,26.9,16.8z"/>
		<path class="st1" d="M29.1,14.4v3.7h-0.9v-5.8h1l1.1,3.4v-3.4h0.8v5.8h-0.9L29.1,14.4z"/>
		<path class="st1" d="M31.5,16.8V16h0.9v0.8c0,0.3,0.1,0.5,0.5,0.5c0.3,0,0.5-0.2,0.5-0.5v-0.2c0-0.3-0.1-0.5-0.5-0.9l-0.6-0.6
			c-0.5-0.5-0.8-0.9-0.8-1.6v-0.1c0-0.7,0.4-1.3,1.4-1.3s1.4,0.5,1.4,1.3V14h-0.9v-0.5c0-0.3-0.1-0.5-0.5-0.5
			c-0.3,0-0.5,0.1-0.5,0.5v0.1c0,0.3,0.2,0.5,0.5,0.8l0.7,0.6c0.5,0.5,0.8,0.9,0.8,1.5v0.3c0,0.8-0.5,1.4-1.5,1.4
			C31.9,18.1,31.5,17.6,31.5,16.8z"/>
		<path class="st1" d="M37.6,12.3v4.4c0,0.9-0.4,1.5-1.4,1.5c-1.1,0-1.5-0.6-1.5-1.5v-4.4h1v4.5c0,0.3,0.1,0.6,0.5,0.6
			s0.5-0.3,0.5-0.6v-4.5H37.6z"/>
		<path class="st1" d="M40.7,14.3L40.7,14.3L40,18.1h-0.5l-0.7-3.8l0,0v3.8h-0.8v-5.8h1.1l0.7,3.3l0,0l0.6-3.3h1.3v5.8h-1V14.3z"/>
		<path class="st1" d="M42.1,12.3h1.5c1,0,1.3,0.5,1.3,1.3v1.3c0,0.8-0.3,1.3-1.3,1.3h-0.5v2h-1V12.3z M43.1,13.1v2.3h0.3
			c0.3,0,0.5-0.1,0.5-0.5v-1.3c0-0.3-0.1-0.5-0.5-0.5L43.1,13.1L43.1,13.1z"/>
		<path class="st1" d="M45.1,12.3h2.6v0.8h-0.8v5h-1v-5h-0.8V12.3z"/>
		<path class="st1" d="M48,12.3h1v5.8h-1V12.3z"/>
		<path class="st1" d="M49.5,16.6v-2.8c0-0.9,0.5-1.6,1.5-1.6c1.1,0,1.5,0.7,1.5,1.6v2.8c0,0.9-0.5,1.6-1.5,1.6
			C50,18.1,49.5,17.5,49.5,16.6z M51.5,16.8v-3.1c0-0.3-0.1-0.6-0.5-0.6c-0.3,0-0.5,0.3-0.5,0.6v3.1c0,0.3,0.1,0.6,0.5,0.6
			C51.3,17.4,51.5,17.1,51.5,16.8z"/>
		<path class="st1" d="M53.7,14.4v3.7h-0.9v-5.8h1l1.1,3.4v-3.4h0.8v5.8h-0.9L53.7,14.4z"/>
		<path class="st1" d="M21.5,26.3l1.1-5.8h1.1l1.1,5.8h-1l-0.2-1.1h-1.1l-0.2,1.1H21.5z M22.7,24.4h0.8l-0.4-2.3l0,0L22.7,24.4z"/>
		<path class="st1" d="M25.9,22.6v3.7H25v-5.8h1l1.1,3.4v-3.4h0.8v5.8H27L25.9,22.6z"/>
		<path class="st1" d="M31.3,22v2.7c0,0.9-0.4,1.6-1.5,1.6h-1.5v-5.8h1.5C30.9,20.5,31.3,21.1,31.3,22z M29.7,25.5
			c0.4,0,0.5-0.3,0.5-0.6v-3c0-0.3-0.1-0.6-0.5-0.6h-0.4v4.2H29.7z"/>
		<path class="st1" d="M32.5,20.5H34c1,0,1.3,0.5,1.3,1.3V23c0,0.8-0.3,1.3-1.3,1.3h-0.5v2h-1V20.5z M33.5,21.3v2.3h0.3
			c0.3,0,0.5-0.1,0.5-0.5v-1.3c0-0.3-0.1-0.5-0.5-0.5L33.5,21.3L33.5,21.3z"/>
		<path class="st1" d="M36.7,23.6v2.7h-1v-5.8h1.5c1,0,1.3,0.5,1.3,1.3v0.7c0,0.7-0.2,1-0.8,1.1l0.9,2.6h-1.1L36.7,23.6z M36.7,21.3
			V23H37c0.3,0,0.5-0.2,0.5-0.5v-0.9c0-0.3-0.1-0.5-0.5-0.5H36.7z"/>
		<path class="st1" d="M38.9,24.8v-2.8c0-0.9,0.5-1.6,1.5-1.6c1.1,0,1.5,0.7,1.5,1.6v2.8c0,0.9-0.5,1.6-1.5,1.6
			C39.4,26.3,38.9,25.7,38.9,24.8z M40.9,24.9v-3.1c0-0.3-0.1-0.6-0.5-0.6c-0.3,0-0.5,0.3-0.5,0.6v3.1c0,0.3,0.1,0.6,0.5,0.6
			C40.8,25.6,40.9,25.3,40.9,24.9z"/>
		<path class="st1" d="M45.3,22v2.7c0,0.9-0.4,1.6-1.5,1.6h-1.5v-5.8h1.5C44.9,20.5,45.3,21.1,45.3,22z M43.7,25.5
			c0.4,0,0.5-0.3,0.5-0.6v-3c0-0.3-0.1-0.6-0.5-0.6h-0.4v4.2H43.7z"/>
		<path class="st1" d="M48.6,20.5v4.4c0,0.9-0.4,1.5-1.4,1.5c-1.1,0-1.5-0.6-1.5-1.5v-4.4h1V25c0,0.3,0.1,0.6,0.5,0.6
			s0.5-0.3,0.5-0.6v-4.5H48.6z"/>
		<path class="st1" d="M49,24.8v-2.8c0-0.9,0.5-1.6,1.5-1.6c1.1,0,1.4,0.6,1.4,1.5v0.7h-0.9v-0.8c0-0.3-0.1-0.6-0.5-0.6
			s-0.5,0.3-0.5,0.6v3.1c0,0.3,0.1,0.6,0.5,0.6c0.3,0,0.5-0.2,0.5-0.6v-1.1h0.9v1c0,0.9-0.3,1.5-1.4,1.5C49.4,26.3,49,25.7,49,24.8z
			"/>
		<path class="st1" d="M52.1,20.5h2.6v0.8h-0.8v5h-1v-5h-0.8V20.5z"/>
		<path class="st1" d="M55,20.5h1v5.8h-1V20.5z"/>
		<path class="st1" d="M56.4,24.8v-2.8c0-0.9,0.5-1.6,1.5-1.6c1.1,0,1.5,0.7,1.5,1.6v2.8c0,0.9-0.5,1.6-1.5,1.6
			C56.9,26.3,56.4,25.7,56.4,24.8z M58.4,24.9v-3.1c0-0.3-0.1-0.6-0.5-0.6c-0.3,0-0.5,0.3-0.5,0.6v3.1c0,0.3,0.1,0.6,0.5,0.6
			C58.3,25.6,58.4,25.3,58.4,24.9z"/>
		<path class="st1" d="M60.7,22.6v3.7h-0.8v-5.8h1l1.1,3.4v-3.4h0.8v5.8h-0.9L60.7,22.6z"/>
	</g>
</g>
</svg>
