<?xml version="1.0" encoding="utf-8"?>
<!-- Generator: Adobe Illustrator 25.1.0, SVG Export Plug-In . SVG Version: 6.00 Build 0)  -->
<svg version="1.1" id="Capa_1" xmlns="http://www.w3.org/2000/svg" xmlns:xlink="http://www.w3.org/1999/xlink" x="0px" y="0px"
	 viewBox="0 0 66.2 66.2" style="enable-background:new 0 0 66.2 66.2;" xml:space="preserve">
<style type="text/css">
	.st0{fill:#007DBB;}
	.st1{fill:#FFFFFF;}
</style>
<rect class="st0" width="66.2" height="66.2"/>
<path class="st1" d="M41.2,49.3c-1.2,0-2.2-1-2.2-2.2c0-1.2,1-2.2,2.2-2.2c1.2,0,2.2,1,2.2,2.2c0,0,0,0,0,0
	C43.4,48.3,42.4,49.3,41.2,49.3C41.2,49.3,41.2,49.3,41.2,49.3 M50.8,48.3c-0.8-1.1-6.2-8-13.8-8c-6.5,0-13.5,5.9-13.5,5.9
	s-2.6-5.4-8-5.9h-0.2c-0.1,0-0.2,0.1-0.2,0.2c0,0.1,0.1,0.1,0.1,0.2c1.4,2.3,2.3,5,2.5,7.7c-0.2,2.7-1,5.4-2.5,7.7v0.1
	c0,0,0,0.1,0,0.1c0,0.1,0.1,0.2,0.2,0.2h0.1c5.4-0.5,8-5.9,8-5.9s7,5.9,13.5,5.9c7.5,0,12.9-6.9,13.8-8l0-0.1
	C50.9,48.5,50.9,48.4,50.8,48.3C50.8,48.3,50.8,48.3,50.8,48.3"/>
<path class="st1" d="M23,34.2C23,34.1,23,34.1,23,34.2c0.1-0.1,0.1-0.1,0.2-0.1c0.1,0,0.1,0,0.1,0.1l0,0c4.1,3.9,8.4,0.7,9.3,0
	l0-0.2h0.2l0.1,0.1c0.9,0.7,5.2,3.9,9.3,0l0,0c0,0,0.1-0.1,0.2-0.1c0,0,0.1,0,0.1,0c0,0,0,0,0.1,0.1c0.8,0.8,4.2,3.8,7.9,0.6
	c0,0,0.1-0.1,0.1-0.2V33c0-0.1-0.1-0.2-0.2-0.2c0,0,0,0,0,0h0l-0.1,0c-2.5,1.4-5.7,0.9-7.8-1.1l-0.1-0.1c0,0-0.1,0-0.1,0
	c0,0,0,0-0.1,0c0,0-0.1,0-0.1,0.1c-0.9,0.7-5.2,3.6-9.1,0l-0.1-0.1c-0.1-0.1-0.2-0.1-0.3,0l-0.1,0.1c-3.8,3.6-8.2,0.7-9.1,0
	c0,0-0.1-0.1-0.1-0.1c0,0,0,0-0.1,0c0,0-0.1,0-0.1,0l-0.1,0.1c-2.1,2-5.2,2.4-7.7,1.1l-0.1,0l0,0c-0.1,0-0.2,0.1-0.2,0.2
	c0,0,0,0,0,0v1.5c0,0.1,0,0.1,0.1,0.2C18.7,37.8,22.2,34.9,23,34.2"/>
<path class="st1" d="M15.3,27.4L15.3,27.4c-0.1,0-0.2,0.1-0.2,0.2c0,0,0,0,0,0v1.5c0,0.1,0,0.1,0.1,0.1c3.6,3.2,7.1,0.2,7.9-0.6
	c0,0,0,0,0.1-0.1c0,0,0.1,0,0.1,0c0.1,0,0.1,0,0.1,0.1l0,0c4.1,3.9,8.4,0.7,9.3,0l0.1-0.1h0.2l0.1,0.1c0.9,0.7,5.2,3.9,9.3,0l0,0
	c0,0,0.1-0.1,0.2-0.1c0,0,0.1,0,0.1,0c0,0,0,0,0.1,0.1c0.8,0.8,4.2,3.7,7.9,0.6c0,0,0.1-0.1,0.1-0.1v-1.5c0-0.1-0.1-0.2-0.2-0.2
	c0,0,0,0,0,0h0l-0.1,0c-2.5,1.4-5.7,0.9-7.7-1.1l-0.1-0.1h-0.1h-0.1c0,0-0.1,0-0.1,0.1c-0.9,0.7-5.2,3.6-9.1,0.1L33,26.4
	c-0.1-0.1-0.2-0.1-0.3,0l-0.1,0.1c-3.8,3.6-8.2,0.7-9.1-0.1c0,0-0.1-0.1-0.1-0.1h-0.1h-0.1l-0.1,0.1c-2.1,2-5.2,2.4-7.8,1.1
	L15.3,27.4"/>
<g>
	<path id="Path_406_1_" class="st1" d="M8.6,5.6v14.1H6.2V8.8l0,0l-1.7,1.7l0,0V8.1l2.2-2.5L8.6,5.6L8.6,5.6z"/>
	<path id="Path_407_1_" class="st1" d="M11.5,15.5l2.1-5.8l0,0v5.8H11.5z M15.8,19.7v-2.4h0.9v-1.9h-0.9V5.5h-2.4L9.3,15.8v1.5h4.2
		v2.4L15.8,19.7L15.8,19.7z"/>
	<g>
		<path class="st1" d="M22.8,6.7h1v5.1H25v0.8h-2.2V6.7z"/>
		<path class="st1" d="M25.5,6.7h1v5.9h-1V6.7z"/>
		<path class="st1" d="M27,6.7h2.3v0.8H28v1.7h1V10h-1v2.6h-1L27,6.7L27,6.7z"/>
		<path class="st1" d="M29.8,6.7h2.4v0.8h-1.4v1.7h1V10h-1v1.8h1.4v0.8h-2.4V6.7z"/>
		<path class="st1" d="M22.8,14.9h1.4c1,0,1.4,0.5,1.4,1.3v0.6c0,0.5-0.2,0.8-0.6,0.9c0.5,0.1,0.7,0.5,0.7,1v0.8
			c0,0.8-0.4,1.3-1.4,1.3h-1.6V14.9z M23.9,17.4h0.3c0.3,0,0.5-0.1,0.5-0.5v-0.7c0-0.3-0.1-0.5-0.5-0.5h-0.3V17.4z M23.9,18.2V20
			h0.4c0.3,0,0.5-0.1,0.5-0.5v-0.9c0-0.3-0.1-0.5-0.5-0.5L23.9,18.2L23.9,18.2z"/>
		<path class="st1" d="M26.2,14.9h2.4v0.8h-1.4v1.7h1v0.8h-1V20h1.4v0.8h-2.4V14.9z"/>
		<path class="st1" d="M29.1,14.9h1V20h1.2v0.8h-2.2V14.9z"/>
		<path class="st1" d="M31.7,19.3v-2.8c0-0.9,0.5-1.6,1.5-1.6c1.1,0,1.5,0.7,1.5,1.6v2.8c0,0.9-0.5,1.6-1.5,1.6
			C32.2,20.9,31.7,20.2,31.7,19.3z M33.7,19.5v-3.2c0-0.3-0.1-0.6-0.5-0.6c-0.3,0-0.5,0.3-0.5,0.6v3.2c0,0.3,0.1,0.6,0.5,0.6
			C33.5,20.1,33.7,19.8,33.7,19.5z"/>
		<path class="st1" d="M37.3,17.2l-0.5,3.7h-0.9L35,14.9H36l0.5,3.7l0,0l0.5-3.7h0.8l0.5,3.7l0,0l0.5-3.7h0.8l-0.7,5.9h-0.9
			L37.3,17.2L37.3,17.2z"/>
		<path class="st1" d="M43.1,17.2l-0.5,3.7h-0.9l-0.8-5.9h0.9l0.5,3.7l0,0l0.5-3.7h0.8l0.5,3.7l0,0l0.5-3.7h0.8l-0.7,5.9h-0.9
			L43.1,17.2L43.1,17.2z"/>
		<path class="st1" d="M45.3,20.8l1.1-5.9h1.2l1.2,5.9h-1l-0.2-1.1h-1.1l-0.2,1.1H45.3z M46.5,18.9h0.8L47,16.5l0,0L46.5,18.9z"/>
		<path class="st1" d="M48.5,14.9h2.6v0.8h-0.8v5.1h-1v-5.1h-0.8L48.5,14.9L48.5,14.9z"/>
		<path class="st1" d="M51.6,14.9H54v0.8h-1.4v1.7h1v0.8h-1V20H54v0.8h-2.4V14.9z"/>
		<path class="st1" d="M55.6,18.1v2.7h-1v-5.9H56c1,0,1.4,0.5,1.4,1.4V17c0,0.6-0.2,1-0.8,1.2l0.9,2.7h-1L55.6,18.1z M55.6,15.7v1.8
			h0.3c0.3,0,0.5-0.2,0.5-0.5v-0.9c0-0.3-0.1-0.5-0.5-0.5H55.6z"/>
	</g>
</g>
</svg>
