<?xml version="1.0" encoding="utf-8"?>
<!-- Generator: Adobe Illustrator 25.1.0, SVG Export Plug-In . SVG Version: 6.00 Build 0)  -->
<svg version="1.1" id="Capa_1" xmlns="http://www.w3.org/2000/svg" xmlns:xlink="http://www.w3.org/1999/xlink" x="0px" y="0px"
	 viewBox="0 0 66.2 66.2" style="enable-background:new 0 0 66.2 66.2;" xml:space="preserve">
<style type="text/css">
	.st0{fill:#8F1838;}
	.st1{fill:#FFFFFF;}
</style>
<rect class="st0" width="66.2" height="66.2"/>
<path class="st1" d="M44.4,34.9l-6.1,5.8c-0.3,0.2-0.4,0.5-0.3,0.9v16.3c0,0.2,0.2,0.3,0.3,0.3h6.3c0.2,0,0.3-0.2,0.3-0.3V35.1
	C45,34.9,44.8,34.5,44.4,34.9"/>
<path class="st1" d="M26.8,42.5l-6.1,5.8c-0.3,0.2-0.4,0.5-0.4,0.9v8.7c0,0.2,0.2,0.3,0.4,0.3H27c0.2,0,0.4-0.2,0.4-0.3V42.6
	C27.4,42.4,27.2,42.1,26.8,42.5"/>
<path class="st1" d="M47.2,27.9c0,0,0-0.1,0-0.1c0-0.1-0.1-0.1-0.2-0.1c0,0,0,0,0,0h-0.1l-4.7,1.1h-0.1h-0.1c-0.1,0.1-0.1,0.2,0,0.2
	l0.1,0.1l1.1,1.1L32.6,40.8l-4.9-4.9c-0.1-0.1-0.1-0.1-0.2,0l-1.3,1.3l0,0l-7.8,7.8c-0.1,0-0.1,0.1,0,0.2c0,0,0,0,0,0l1.3,1.3
	c0,0.1,0.1,0.1,0.2,0c0,0,0,0,0,0l7.8-7.7l3.5,3.5l0,0l1.3,1.3c0,0.1,0.1,0.1,0.2,0c0,0,0,0,0,0l12-12l1.1,1.1
	c0.1,0.1,0.2,0.1,0.2,0c0,0,0-0.1,0-0.1l0,0l1-4.8L47.2,27.9z"/>
<path class="st1" d="M35.7,43.5l-3,3c-0.1,0-0.1,0-0.2,0l-2.7-2.7c-0.5-0.5-0.6-0.1-0.6,0.1v14c0,0.2,0.2,0.3,0.4,0.3h6.3
	c0.2,0,0.3-0.2,0.3-0.3V43.6C36.2,43.4,36,43.1,35.7,43.5"/>
<g>
	<path id="Path_219_1_" class="st1" d="M10.8,16c0,0.8-0.3,1.4-1.1,1.4c-0.8,0-1.1-0.6-1.1-1.4v-2.2c0-0.8,0.3-1.4,1.1-1.4
		c0.8,0,1.1,0.6,1.1,1.4V16z M8.7,8.7c0-0.8,0.3-1.3,1-1.3c0.7,0,1,0.5,1,1.3v0.9c0,0.8-0.3,1.3-1,1.3c-0.7,0-1-0.4-1-1.3V8.7z
		 M13,15.7v-1.5c0.1-1.1-0.4-2.2-1.4-2.6c0.9-0.4,1.4-1.4,1.3-2.3V8.6c0-2-1.1-3.1-3-3.1s-3,1.1-3,3.1v0.6c-0.1,1,0.4,1.9,1.3,2.3
		c-1,0.5-1.6,1.6-1.4,2.6v1.5c0,2,1,3.3,3.3,3.3C12,19.1,13,17.8,13,15.7"/>
	<g>
		<path class="st1" d="M19.8,7v2.5c0,0.8-0.3,1.4-1.3,1.4h-1.4V5.6h1.4C19.5,5.6,19.8,6.2,19.8,7z M18.4,10.1c0.4,0,0.5-0.2,0.5-0.6
			V6.8c0-0.3-0.1-0.5-0.5-0.5H18v3.8L18.4,10.1L18.4,10.1z"/>
		<path class="st1" d="M20.3,5.6h2.1v0.8h-1.3v1.5H22v0.7h-0.9v1.6h1.3v0.8h-2.1V5.6z"/>
		<path class="st1" d="M22.8,9.5V7c0-0.8,0.4-1.4,1.3-1.4c1,0,1.3,0.6,1.3,1.3v0.6h-0.8V6.8c0-0.3-0.1-0.5-0.4-0.5s-0.4,0.3-0.4,0.6
			v2.8c0,0.3,0.1,0.6,0.4,0.6s0.4-0.2,0.4-0.5V8.8h0.8v0.9c0,0.8-0.3,1.3-1.3,1.3C23.2,11,22.8,10.3,22.8,9.5z"/>
		<path class="st1" d="M25.9,5.6H28v0.8h-1.3v1.5h0.9v0.7h-0.9v1.6H28v0.8h-2.1V5.6z"/>
		<path class="st1" d="M29.2,7.6v3.3h-0.8V5.6h0.9l0.9,3v-3H31v5.3h-0.8L29.2,7.6z"/>
		<path class="st1" d="M31.4,5.6h2.3v0.8h-0.7v4.5h-0.9V6.4h-0.8V5.6z"/>
		<path class="st1" d="M37,7.6l-0.5,3.3h-0.9l-0.7-5.3h0.9l0.4,3.3l0,0l0.4-3.3h0.8l0.5,3.3l0,0l0.4-3.3H39l-0.7,5.3h-0.9L37,7.6
			L37,7.6z"/>
		<path class="st1" d="M39.3,9.5V7c0-0.8,0.4-1.4,1.3-1.4s1.3,0.6,1.3,1.4v2.6c0,0.8-0.4,1.4-1.3,1.4C39.7,11,39.3,10.3,39.3,9.5z
			 M41.1,9.6V6.8c0-0.3-0.1-0.6-0.4-0.6c-0.3,0-0.4,0.3-0.4,0.6v2.8c0,0.3,0.1,0.6,0.4,0.6C40.9,10.2,41.1,10,41.1,9.6z"/>
		<path class="st1" d="M43.4,8.4v2.4h-0.9V5.5h1.3C44.7,5.5,45,6,45,6.7v0.7c0,0.6-0.2,0.9-0.7,1l0.8,2.4h-0.9L43.4,8.4z M43.4,6.3
			v1.6h0.3c0.3,0,0.4-0.1,0.4-0.4V6.7c0-0.3-0.1-0.4-0.4-0.4L43.4,6.3L43.4,6.3z"/>
		<path class="st1" d="M46.3,8.3v2.6h-0.9V5.6h0.9v2.3l0.9-2.3h0.9l-1,2.4l1.1,2.9h-0.9L46.3,8.3z"/>
		<path class="st1" d="M49.2,10.9l1-5.3h1l1,5.3h-0.9l-0.2-0.9h-0.9l-0.1,0.9H49.2z M50.4,9.2h0.7L50.7,7l0,0L50.4,9.2z"/>
		<path class="st1" d="M53.4,7.6v3.3h-0.8V5.6h0.9l0.9,3v-3h0.8v5.3h-0.8L53.4,7.6z"/>
		<path class="st1" d="M58.4,7v2.5c0,0.8-0.3,1.4-1.3,1.4h-1.4V5.6h1.4C58.1,5.6,58.4,6.2,58.4,7z M57,10.1c0.4,0,0.5-0.2,0.5-0.6
			V6.8c0-0.3-0.1-0.5-0.5-0.5h-0.4v3.8L57,10.1L57,10.1z"/>
		<path class="st1" d="M17.1,13h2.1v0.8H18v1.5h0.9V16H18v1.6h1.3v0.8h-2.1V13z"/>
		<path class="st1" d="M19.6,16.9v-2.6c0-0.8,0.4-1.4,1.3-1.4c1,0,1.3,0.6,1.3,1.3v0.6h-0.8v-0.7c0-0.3-0.1-0.5-0.4-0.5
			c-0.3,0-0.4,0.3-0.4,0.6v2.8c0,0.3,0.1,0.6,0.4,0.6c0.3,0,0.4-0.2,0.4-0.5v-0.9h0.8v0.9c0,0.8-0.3,1.3-1.3,1.3
			C20,18.3,19.6,17.8,19.6,16.9z"/>
		<path class="st1" d="M22.7,16.9v-2.6c0-0.8,0.4-1.4,1.3-1.4s1.3,0.6,1.3,1.4v2.6c0,0.8-0.4,1.4-1.3,1.4
			C23.1,18.3,22.7,17.8,22.7,16.9z M24.5,17.1v-2.8c0-0.3-0.1-0.6-0.4-0.6s-0.4,0.3-0.4,0.6v2.8c0,0.3,0.1,0.6,0.4,0.6
			C24.4,17.6,24.5,17.4,24.5,17.1z"/>
		<path class="st1" d="M26.6,15v3.3h-0.8V13h0.9l0.9,3v-3h0.8v5.3h-0.8L26.6,15z"/>
		<path class="st1" d="M29,16.9v-2.6c0-0.8,0.4-1.4,1.3-1.4s1.3,0.6,1.3,1.4v2.6c0,0.8-0.4,1.4-1.3,1.4C29.3,18.3,29,17.8,29,16.9z
			 M30.8,17.1v-2.8c0-0.3-0.1-0.6-0.4-0.6c-0.3,0-0.4,0.3-0.4,0.6v2.8c0,0.3,0.1,0.6,0.4,0.6C30.6,17.6,30.8,17.4,30.8,17.1z"/>
		<path class="st1" d="M34.6,14.9L34.6,14.9L34,18.3h-0.4l-0.7-3.4l0,0v3.4h-0.8V13h1l0.6,3l0,0l0.5-3h1.1v5.3h-0.8v-3.4H34.6z"/>
		<path class="st1" d="M35.9,13h0.9v5.3h-0.9V13z"/>
		<path class="st1" d="M37.3,16.9v-2.6c0-0.8,0.4-1.4,1.3-1.4c1,0,1.3,0.6,1.3,1.3v0.6h-0.8v-0.7c0-0.3-0.1-0.5-0.4-0.5
			c-0.3,0-0.4,0.3-0.4,0.6v2.8c0,0.3,0.1,0.6,0.4,0.6c0.3,0,0.4-0.2,0.4-0.5v-0.9h0.8v0.9c0,0.8-0.3,1.3-1.3,1.3
			C37.7,18.3,37.3,17.8,37.3,16.9z"/>
		<path class="st1" d="M42.6,15.5h1.3v2.8h-0.6v-0.6c-0.1,0.4-0.4,0.6-0.8,0.6c-0.8,0-1.1-0.6-1.1-1.4v-2.6c0-0.8,0.4-1.4,1.3-1.4
			c1,0,1.3,0.6,1.3,1.3v0.4H43V14c0-0.3-0.1-0.5-0.4-0.5c-0.3,0-0.4,0.3-0.4,0.6v2.8c0,0.3,0.1,0.6,0.4,0.6c0.3,0,0.4-0.2,0.4-0.5
			v-0.9h-0.4L42.6,15.5L42.6,15.5z"/>
		<path class="st1" d="M45.2,15.9v2.4h-0.9V13h1.3c0.9,0,1.2,0.4,1.2,1.2v0.7c0,0.6-0.2,0.9-0.7,1l0.8,2.4H46L45.2,15.9z M45.2,13.7
			v1.6h0.3c0.3,0,0.4-0.1,0.4-0.4v-0.8c0-0.3-0.1-0.4-0.4-0.4L45.2,13.7L45.2,13.7z"/>
		<path class="st1" d="M47.3,16.9v-2.6c0-0.8,0.4-1.4,1.3-1.4s1.3,0.6,1.3,1.4v2.6c0,0.8-0.4,1.4-1.3,1.4
			C47.7,18.3,47.3,17.8,47.3,16.9z M49.1,17.1v-2.8c0-0.3-0.1-0.6-0.4-0.6c-0.3,0-0.4,0.3-0.4,0.6v2.8c0,0.3,0.1,0.6,0.4,0.6
			C49,17.6,49.1,17.4,49.1,17.1z"/>
		<path class="st1" d="M52.3,15l-0.5,3.3H51L50.3,13h0.9l0.4,3.3l0,0l0.4-3.3h0.8l0.5,3.3l0,0l0.4-3.3h0.8l-0.7,5.3H53L52.3,15
			L52.3,15z"/>
		<path class="st1" d="M54.7,13H57v0.8h-0.8v4.5h-0.9v-4.5h-0.8L54.7,13L54.7,13z"/>
		<path class="st1" d="M59.2,15.9h-0.9v2.3h-0.9V13h0.9v2.3h0.9V13h0.9v5.3h-0.9V15.9z"/>
	</g>
</g>
</svg>
