<?xml version="1.0" encoding="utf-8"?>
<!-- Generator: Adobe Illustrator 25.1.0, SVG Export Plug-In . SVG Version: 6.00 Build 0)  -->
<svg version="1.1" id="Capa_1" xmlns="http://www.w3.org/2000/svg" xmlns:xlink="http://www.w3.org/1999/xlink" x="0px" y="0px"
	 viewBox="0 0 66.2 66.2" style="enable-background:new 0 0 66.2 66.2;" xml:space="preserve">
<style type="text/css">
	.st0{fill:#FDB714;}
	.st1{fill:#FFFFFF;}
</style>
<rect class="st0" width="66.2" height="66.2"/>
<path class="st1" d="M33.1,46.7c-2.8,0.2-5.2-1.8-5.4-4.6c-0.2-2.5,1.5-4.7,3.9-5.3v1.9c-1.6,0.8-2.3,2.8-1.5,4.5
	c0.8,1.6,2.8,2.3,4.5,1.5c1.6-0.8,2.3-2.8,1.5-4.5c-0.3-0.6-0.8-1.1-1.5-1.5v-1.9c2.7,0.6,4.4,3.2,3.8,5.9
	C37.9,45.3,35.6,47,33.1,46.7 M32.4,35.9c0-0.4,0.3-0.7,0.7-0.7c0.4,0,0.7,0.3,0.7,0.7v3.3c0,0.4-0.3,0.7-0.7,0.7
	c-0.4,0-0.7-0.3-0.7-0.7V35.9z M33.1,32.1c-5.4,0-9.7,4.3-9.7,9.7s4.3,9.7,9.7,9.7c5.4,0,9.7-4.3,9.7-9.7c0,0,0,0,0,0
	C42.8,36.4,38.5,32.1,33.1,32.1"/>
<path class="st1" d="M22,41.7c0-0.4-0.3-0.8-0.8-0.8H17c-0.4,0-0.7,0.4-0.8,0.8c0,0.4,0.3,0.8,0.8,0.8h4.2
	C21.7,42.4,22,42.1,22,41.7"/>
<path class="st1" d="M50,41.7c0-0.4-0.3-0.8-0.8-0.8H45c-0.4,0-0.8,0.4-0.8,0.8c0,0.4,0.3,0.8,0.8,0.8h4.2
	C49.7,42.4,50,42.1,50,41.7"/>
<path class="st1" d="M33.1,58.5c0.4,0,0.8-0.3,0.8-0.7v-4.2c0-0.4-0.4-0.8-0.8-0.8c-0.4,0-0.8,0.4-0.8,0.8v4.2
	C32.3,58.2,32.7,58.5,33.1,58.5"/>
<path class="st1" d="M47.8,50.1c0.2-0.4,0.1-0.8-0.2-1.1l-3.7-2.1c-0.4-0.2-0.8,0-1,0.3c-0.2,0.4-0.1,0.8,0.2,1.1l3.7,2.1
	C47.1,50.5,47.5,50.4,47.8,50.1"/>
<path class="st1" d="M24.7,56.3c0.4,0.2,0.8,0.1,1.1-0.2l2.1-3.7c0.2-0.4,0.1-0.9-0.3-1.1c-0.4-0.2-0.9-0.1-1.1,0.3l0,0l-2.1,3.7
	C24.3,55.6,24.4,56.1,24.7,56.3"/>
<path class="st1" d="M41.5,56.3c0.3-0.2,0.5-0.6,0.3-1l-2.1-3.7c-0.2-0.4-0.7-0.5-1.1-0.3c-0.4,0.2-0.5,0.7-0.3,1.1l0,0l2.1,3.7
	C40.7,56.4,41.2,56.5,41.5,56.3"/>
<path class="st1" d="M18.5,50.1c0.2,0.3,0.6,0.5,1,0.3l3.7-2.1c0.4-0.3,0.4-0.8,0.2-1.1c-0.2-0.3-0.6-0.4-1-0.3L18.7,49
	C18.4,49.2,18.3,49.7,18.5,50.1"/>
<path class="st1" d="M33.1,30.5c0.4,0,0.8-0.3,0.8-0.7v-4.3c0-0.4-0.4-0.8-0.8-0.8c-0.4,0-0.8,0.4-0.8,0.8v4.2
	C32.3,30.2,32.7,30.5,33.1,30.5"/>
<path class="st1" d="M23.5,36.1c0.2-0.4,0.1-0.8-0.2-1.1L19.5,33c-0.4-0.2-0.9-0.1-1.1,0.3c-0.2,0.4-0.1,0.8,0.3,1l3.7,2.1
	C22.8,36.7,23.2,36.5,23.5,36.1"/>
<path class="st1" d="M38.6,32c0.4,0.2,0.8,0.1,1.1-0.2l2.1-3.7c0.2-0.4,0-0.9-0.4-1.1c-0.4-0.2-0.8-0.1-1,0.3L38.3,31
	C38.2,31.4,38.3,31.8,38.6,32"/>
<path class="st1" d="M27.6,32c0.3-0.2,0.5-0.6,0.3-1l-2.1-3.7c-0.2-0.4-0.7-0.5-1.1-0.3c-0.4,0.2-0.5,0.7-0.3,1l2.1,3.7
	C26.7,32.1,27.2,32.2,27.6,32"/>
<path class="st1" d="M42.8,36.1c0.2,0.4,0.7,0.5,1,0.3l3.7-2.1c0.3-0.2,0.5-0.7,0.2-1.1c-0.2-0.4-0.7-0.5-1-0.3L43,35.1
	C42.7,35.3,42.5,35.8,42.8,36.1"/>
<path id="Path_185_1_" class="st1" d="M6.4,7.4H10L6.9,19.3h2.3l3-11.6V5.6H6.4L6.4,7.4L6.4,7.4z"/>
<g>
	<path class="st1" d="M17.8,10.6l1.1-6H20l1.1,6h-1.1l-0.2-1.1h-1l-0.2,1.1H17.8z M19,8.7h0.8l-0.4-2.4l0,0L19,8.7z"/>
	<path class="st1" d="M21.6,4.6H24v0.9h-1.4v1.7h1V8h-1v2.6h-1V4.6z"/>
	<path class="st1" d="M24.4,4.6h2.4v0.9h-1.4v1.7h1V8h-1v2.6h-1V4.6z"/>
	<path class="st1" d="M27.1,9.1V6.2c0-0.9,0.5-1.6,1.5-1.6c1.1,0,1.5,0.7,1.5,1.6v2.9c0,0.9-0.5,1.6-1.5,1.6
		C27.6,10.7,27.1,10.1,27.1,9.1z M29.2,9.3V6c0-0.4-0.1-0.6-0.5-0.6c-0.3,0-0.5,0.3-0.5,0.6v3.2c0,0.4,0.1,0.6,0.5,0.6
		C29,9.9,29.2,9.7,29.2,9.3z"/>
	<path class="st1" d="M31.8,7.9v2.8h-1.1v-6h1.4c1,0,1.4,0.5,1.4,1.3v0.8c0,0.7-0.2,1.1-0.8,1.2l1,2.7h-1.1L31.8,7.9z M31.8,5.5v1.8
		h0.3c0.3,0,0.5-0.2,0.5-0.5V6c0-0.3-0.1-0.5-0.5-0.5H31.8z"/>
	<path class="st1" d="M37.2,6.3v2.8c0,0.9-0.4,1.6-1.4,1.6h-1.6v-6h1.6C36.8,4.6,37.2,5.3,37.2,6.3z M35.6,9.9
		c0.4,0,0.6-0.3,0.6-0.6V6.1c0-0.3-0.1-0.6-0.6-0.6h-0.4v4.3L35.6,9.9L35.6,9.9z"/>
	<path class="st1" d="M37.5,10.6l1.1-6h1.1l1.1,6h-1.1l-0.2-1.1h-1.1l-0.2,1.1H37.5z M38.7,8.7h0.8l-0.4-2.4l0,0L38.7,8.7z"/>
	<path class="st1" d="M41.4,4.6h1.4c1,0,1.3,0.5,1.3,1.3v0.6c0,0.5-0.2,0.9-0.6,1c0.5,0.1,0.7,0.5,0.7,1v0.8c0,0.9-0.4,1.3-1.4,1.3
		h-1.6L41.4,4.6L41.4,4.6z M42.4,7.2h0.3c0.3,0,0.5-0.2,0.5-0.5V6c0-0.3-0.1-0.5-0.5-0.5h-0.3V7.2z M42.4,7.9v1.9h0.5
		c0.3,0,0.5-0.2,0.5-0.5V8.5c0-0.3-0.1-0.5-0.5-0.5L42.4,7.9L42.4,7.9z"/>
	<path class="st1" d="M44.8,4.6h1v5.2H47v0.9h-2.2L44.8,4.6L44.8,4.6L44.8,4.6z"/>
	<path class="st1" d="M47.5,4.6h2.4v0.9h-1.4v1.7h1V8h-1v1.8h1.4v0.9h-2.4L47.5,4.6L47.5,4.6z"/>
	<path class="st1" d="M51.2,10.6l1.1-6h1.1l1.1,6h-1.1l-0.2-1.1h-1.1L52,10.6H51.2z M52.4,8.7h0.8l-0.4-2.4l0,0L52.4,8.7z"/>
	<path class="st1" d="M55.9,6.9v3.8H55v-6h1l1.1,3.4V4.6H58v6h-0.9L55.9,6.9z"/>
	<path class="st1" d="M61.5,6.3v2.8c0,0.9-0.4,1.6-1.4,1.6h-1.6v-6h1.6C61.2,4.6,61.5,5.3,61.5,6.3z M59.9,9.9
		c0.4,0,0.6-0.3,0.6-0.6V6.1c0-0.3-0.1-0.6-0.6-0.6h-0.4v4.3L59.9,9.9L59.9,9.9z"/>
	<path class="st1" d="M17.9,17.5v-2.9c0-0.9,0.5-1.6,1.5-1.6c1.1,0,1.4,0.6,1.4,1.5v0.7H20v-0.8c0-0.4-0.1-0.6-0.5-0.6
		c-0.4,0-0.5,0.3-0.5,0.6v3.2c0,0.4,0.1,0.6,0.5,0.6S20,18,20,17.6v-1.1h0.9v1.1c0,0.9-0.3,1.5-1.4,1.5
		C18.4,19.1,17.9,18.5,17.9,17.5z"/>
	<path class="st1" d="M21.4,13.1h1v5.2h1.2v0.9h-2.2L21.4,13.1L21.4,13.1L21.4,13.1z"/>
	<path class="st1" d="M24.1,13.1h2.4v0.9h-1.4v1.7h1v0.8h-1v1.8h1.4v0.9h-2.4V13.1z"/>
	<path class="st1" d="M26.9,19.1l1.1-6h1.1l1.1,6h-1.1L29,18h-1.1l-0.2,1.1H26.9z M28.1,17.2h0.8l-0.4-2.4l0,0L28.1,17.2z"/>
	<path class="st1" d="M31.5,15.3v3.8h-0.8v-6h1l1.1,3.4v-3.4h0.9v6h-1L31.5,15.3z"/>
	<path class="st1" d="M35.2,13.1h2.4v0.9h-1.4v1.7h1v0.8h-1v1.8h1.4v0.9h-2.4V13.1z"/>
	<path class="st1" d="M38.9,15.3v3.8h-0.9v-6h1l1.1,3.4v-3.4H41v6h-0.9L38.9,15.3z"/>
	<path class="st1" d="M41.6,13.1h2.4v0.9h-1.4v1.7h1v0.8h-1v1.8H44v0.9h-2.4L41.6,13.1L41.6,13.1L41.6,13.1z"/>
	<path class="st1" d="M45.6,16.3v2.8h-1v-6H46c1,0,1.4,0.5,1.4,1.3v0.8c0,0.7-0.2,1.1-0.8,1.2l1,2.7h-1.1L45.6,16.3z M45.6,13.9v1.8
		h0.3c0.3,0,0.5-0.2,0.5-0.5v-0.9c0-0.3-0.1-0.5-0.5-0.5H45.6z"/>
	<path class="st1" d="M49.5,15.8h1.4v3.2h-0.7v-0.7c-0.1,0.5-0.4,0.7-1,0.7c-0.9,0-1.3-0.7-1.3-1.6v-2.9c0-0.9,0.5-1.6,1.5-1.6
		c1.1,0,1.4,0.6,1.4,1.5V15H50v-0.6c0-0.4-0.1-0.6-0.5-0.6s-0.5,0.3-0.5,0.6v3.2c0,0.4,0.1,0.6,0.5,0.6c0.3,0,0.5-0.2,0.5-0.6v-1.1
		h-0.5L49.5,15.8L49.5,15.8z"/>
	<path class="st1" d="M53.2,16.8v2.3h-1v-2.3l-1.1-3.7h1.1l0.6,2.3l0,0l0.6-2.3h1L53.2,16.8z"/>
</g>
</svg>
