<?xml version="1.0" encoding="utf-8"?>
<!-- Generator: Adobe Illustrator 25.1.0, SVG Export Plug-In . SVG Version: 6.00 Build 0)  -->
<svg version="1.1" id="Capa_1" xmlns="http://www.w3.org/2000/svg" xmlns:xlink="http://www.w3.org/1999/xlink" x="0px" y="0px"
	 viewBox="0 0 66.2 66.2" style="enable-background:new 0 0 66.2 66.2;" xml:space="preserve">
<style type="text/css">
	.st0{fill:#2D9A47;}
	.st1{fill:#FFFFFF;}
</style>
<rect class="st0" width="66.2" height="66.2"/>
<path class="st1" d="M55.8,41.3c0.1-1.7-1.1-3.2-2.8-3.4c-0.1,0-0.1,0-0.2,0c-0.9,0-2,1-2.6,1.6C49.6,39,48.6,38,47.7,38
	c-1.8,0-3.1,1.5-3.1,3.3c0,0,0,0.1,0,0.1c0,0.9,0.4,1.8,1,2.4l4.6,4.6l4.6-4.6l0,0C55.5,43.1,55.9,42.3,55.8,41.3"/>
<path class="st1" d="M36,56L36,56c-0.3,0-0.6-0.3-0.7-0.6l-2.4-13.8l-3.6,6.6c-0.2,0.4-0.6,0.5-1,0.3c-0.2-0.1-0.4-0.3-0.4-0.6
	l-1.5-10.6l-2.8,6.2c-0.1,0.3-0.4,0.4-0.7,0.5H12.2c-0.4,0-0.8-0.3-0.9-0.7c0-0.4,0.3-0.8,0.7-0.9c0.1,0,0.1,0,0.2,0h10.3l3.6-8.2
	c0.1-0.3,0.5-0.5,0.8-0.4c0.3,0,0.6,0.3,0.6,0.7l1.6,10.9l3.5-6.5c0.2-0.3,0.5-0.4,0.8-0.4c0.3,0,0.6,0.3,0.6,0.6l2.2,12.7l8-26.4
	c0.1-0.3,0.4-0.5,0.7-0.5c0.3,0,0.6,0.1,0.7,0.4l4.2,8.6c0.2,0.4,0,0.8-0.4,1s-0.8,0-1-0.4l0,0l-3.3-6.9l-8.3,27.7
	C36.7,55.8,36.4,56,36,56"/>
<g>
	<path id="Path_95_1_" class="st1" d="M9.8,19.7c2.5,0,3.4-1.3,3.4-3.3v-2.1c0.1-1.2-0.7-2.2-1.8-2.5c1.1-0.3,1.7-1.3,1.7-2.4V8.1
		c0-2.1-1-3.2-3.2-3.2c-2.5,0-3.3,1.5-3.3,3.6v1.3h2.1V8.2c0-0.8,0.3-1.4,1.1-1.4s1.1,0.6,1.1,1.3v1.5c0,0.8-0.5,1.2-1.3,1.2H8.8
		v1.8h1c0.8,0,1.2,0.4,1.2,1.2v2.4c0,0.8-0.3,1.3-1.1,1.3c-0.8,0-1.1-0.6-1.1-1.4v-2.1H6.6V16C6.5,18.4,7.4,19.7,9.8,19.7"/>
	<g>
		<path class="st1" d="M20.3,7.7h1.4v3.1H21v-0.6c-0.1,0.4-0.4,0.7-0.9,0.7c-0.8,0-1.2-0.7-1.2-1.6V6.5c0-0.9,0.4-1.6,1.4-1.6
			c1.1,0,1.4,0.6,1.4,1.4v0.5h-0.9V6.3c0-0.3-0.1-0.6-0.5-0.6S19.8,6,19.8,6.3v3.1c0,0.3,0.1,0.6,0.5,0.6s0.5-0.2,0.5-0.6v-1h-0.5
			C20.3,8.5,20.3,7.7,20.3,7.7z"/>
		<path class="st1" d="M22.2,9.3V6.5c0-0.9,0.4-1.6,1.4-1.6c1,0,1.4,0.7,1.4,1.6v2.8c0,0.9-0.4,1.6-1.4,1.6
			C22.6,10.9,22.2,10.2,22.2,9.3z M24.2,9.4V6.3c0-0.3-0.1-0.6-0.5-0.6c-0.3,0-0.5,0.3-0.5,0.6v3.1c0,0.3,0.1,0.6,0.5,0.6
			C24,10,24.2,9.8,24.2,9.4z"/>
		<path class="st1" d="M25.7,9.3V6.5c0-0.9,0.4-1.6,1.4-1.6c1,0,1.4,0.7,1.4,1.6v2.8c0,0.9-0.4,1.6-1.4,1.6
			C26.1,10.9,25.7,10.2,25.7,9.3z M27.7,9.4V6.3c0-0.3-0.1-0.6-0.5-0.6S26.7,6,26.7,6.3v3.1c0,0.3,0.1,0.6,0.5,0.6
			C27.5,10,27.7,9.8,27.7,9.4z"/>
		<path class="st1" d="M32.1,6.5v2.7c0,0.9-0.3,1.6-1.4,1.6h-1.5V5h1.5C31.7,5,32.1,5.7,32.1,6.5z M30.6,10c0.4,0,0.6-0.2,0.6-0.6
			v-3c0-0.3-0.1-0.6-0.6-0.6h-0.4V10L30.6,10L30.6,10z"/>
		<path class="st1" d="M35.4,8.2h-1v2.5h-1V5h1v2.5h1V5h1v5.8h-1V8.2z"/>
		<path class="st1" d="M36.9,5h2.3v0.8h-1.4v1.7h1v0.8h-1V10h1.4v0.8h-2.3V5z"/>
		<path class="st1" d="M39.6,10.8L40.7,5h1.1l1.1,5.8h-1l-0.2-1h-1l-0.1,1H39.6z M40.9,8.9h0.8l-0.4-2.3l0,0L40.9,8.9z"/>
		<path class="st1" d="M43.3,5h1v5h1.2v0.8h-2.1V5z"/>
		<path class="st1" d="M45.3,5h2.5v0.8H47v5h-1v-5h-0.8L45.3,5L45.3,5z"/>
		<path class="st1" d="M50.2,8.2h-0.9v2.5h-1V5h1v2.5h1V5h1v5.8h-1L50.2,8.2L50.2,8.2z"/>
		<path class="st1" d="M18.7,18.8l1.1-5.8h1.1l1.1,5.8h-1l-0.2-1h-1l-0.1,1H18.7z M19.9,17.1h0.8l-0.4-2.3l0,0L19.9,17.1z"/>
		<path class="st1" d="M23.2,15.3v3.6h-0.8v-5.8h1l1,3.3v-3.3h0.8v5.8h-0.8L23.2,15.3z"/>
		<path class="st1" d="M28.6,14.6v2.7c0,0.9-0.3,1.6-1.4,1.6h-1.5v-5.8h1.5C28.2,13.1,28.6,13.7,28.6,14.6z M27.1,18.1
			c0.4,0,0.6-0.2,0.6-0.6v-3c0-0.3-0.1-0.6-0.6-0.6h-0.4v4.2L27.1,18.1L27.1,18.1z"/>
		<path class="st1" d="M32.1,15.3l-0.6,3.6h-0.9l-0.8-5.8h1l0.5,3.6l0,0l0.5-3.6h0.8l0.6,3.6l0,0l0.4-3.6h0.8l-0.8,5.8h-1L32.1,15.3
			L32.1,15.3z"/>
		<path class="st1" d="M34.8,13.1h2.3V14h-1.4v1.7h1v0.8h-1v1.7h1.4v0.8h-2.3V13.1z"/>
		<path class="st1" d="M37.6,13.1h1v5h1.2v0.8h-2.1L37.6,13.1z"/>
		<path class="st1" d="M40.2,13.1h1v5h1.2v0.8h-2.1V13.1z"/>
		<path class="st1" d="M42.2,15.8h1.4v0.8h-1.4V15.8z"/>
		<path class="st1" d="M44.1,13.1h1.4c1,0,1.3,0.5,1.3,1.2V15c0,0.5-0.2,0.8-0.6,0.9c0.5,0.1,0.8,0.4,0.8,1v0.8
			c0,0.8-0.3,1.2-1.3,1.2h-1.5L44.1,13.1L44.1,13.1z M45.1,15.5h0.3c0.3,0,0.5-0.1,0.5-0.5v-0.7c0-0.3-0.1-0.5-0.5-0.5h-0.3V15.5z
			 M45.1,16.3v1.8h0.4c0.3,0,0.5-0.1,0.5-0.5v-0.9c0-0.3-0.1-0.5-0.5-0.5L45.1,16.3L45.1,16.3z"/>
		<path class="st1" d="M47.4,13.1h2.3V14h-1.4v1.7h1v0.8h-1v1.7h1.4v0.8h-2.3V13.1z"/>
		<path class="st1" d="M50.2,13.1h1v5.8h-1V13.1z"/>
		<path class="st1" d="M52.6,15.3v3.6h-0.8v-5.8h1l1,3.3v-3.3h0.8v5.8h-0.8L52.6,15.3z"/>
		<path class="st1" d="M56.6,15.8H58v3.1h-0.7v-0.7c-0.1,0.4-0.4,0.7-0.9,0.7c-0.8,0-1.2-0.7-1.2-1.6v-2.8c0-0.9,0.4-1.6,1.4-1.6
			c1.1,0,1.4,0.6,1.4,1.4v0.5h-0.9v-0.6c0-0.3-0.1-0.6-0.5-0.6c-0.3,0-0.5,0.3-0.5,0.6v3.1c0,0.3,0.1,0.6,0.5,0.6
			c0.3,0,0.5-0.2,0.5-0.6v-1h-0.5C56.6,16.4,56.6,15.8,56.6,15.8z"/>
	</g>
</g>
</svg>
