<?xml version="1.0" encoding="utf-8"?>
<!-- Generator: Adobe Illustrator 25.1.0, SVG Export Plug-In . SVG Version: 6.00 Build 0)  -->
<svg version="1.1" id="Capa_1" xmlns="http://www.w3.org/2000/svg" xmlns:xlink="http://www.w3.org/1999/xlink" x="0px" y="0px"
	 viewBox="0 0 66.2 66.2" style="enable-background:new 0 0 66.2 66.2;" xml:space="preserve">
<style type="text/css">
	.st0{fill:#F36E24;}
	.st1{fill:#FFFFFF;}
</style>
<rect class="st0" width="66.2" height="66.2"/>
<path class="st1" d="M48.2,53.5l-6.4,3.7v-7.4l6.4-3.7V53.5z M27,57.2v-6.9l6,3.4L27,57.2z M26,57.2l-6.4-3.7v-7.4l6.4,3.7V57.2z
	 M32.9,36.7L27,40.1v-6.9L32.9,36.7z M40.8,40.1l-6-3.4l6-3.4V40.1z M34.9,45.2l6.4-3.7l6.4,3.7L41.3,49L34.9,45.2z M33.4,44.4
	l-6-3.4l6-3.4V44.4z M40.3,41l-5.9,3.4v-6.9L40.3,41z M33.4,53l-6-3.4l6-3.4V53z M49,44.8l-7.2-4.1v-8.3c0-0.2-0.1-0.3-0.2-0.4
	l-7.4-4.3c-0.2-0.1-0.3-0.1-0.5,0L26.2,32c-0.1,0.1-0.2,0.2-0.2,0.4v8.3l-7.2,4.1c-0.2,0.1-0.2,0.2-0.2,0.4v8.6
	c0,0.2,0.1,0.3,0.2,0.4l7.4,4.3c0.1,0,0.2,0.1,0.2,0.1c0.1,0,0.2,0,0.2-0.1l7.2-4.1l7.2,4.1c0.1,0,0.2,0.1,0.2,0.1
	c0.1,0,0.2,0,0.2-0.1l7.4-4.3c0.1-0.1,0.2-0.2,0.2-0.4v-8.6C49.2,45.1,49.1,44.9,49,44.8"/>
<g>
	<path id="Path_253_1_" class="st1" d="M8.3,11c0,0.7-0.4,1.1-1,1.1c-0.7,0-1-0.5-1-1.2V8.8c0-0.7,0.3-1.2,1-1.2c0.7,0,1,0.5,1,1.2
		L8.3,11L8.3,11L8.3,11z M10.5,9.1c0-1.9-0.8-3.4-3.1-3.4c-2.2,0-3.1,1.2-3.1,3.2v1.9c0,2.1,0.8,3.1,2.3,3.1c0.7,0,1.4-0.4,1.7-1
		l0,0v2.8c0,0.7-0.3,1.3-1,1.3s-1-0.5-1-1.2v-0.8H4.2v0.7c0,1.9,0.7,3.1,3,3.1c2.2,0,3.1-1.4,3.1-3.4L10.5,9.1z"/>
	<g>
		<path class="st1" d="M14.6,5.9h0.9v5.5h-0.9V5.9z"/>
		<path class="st1" d="M16.6,7.9v3.4h-0.8V5.9h0.9l1,3.1V5.9h0.8v5.5h-0.8L16.6,7.9z"/>
		<path class="st1" d="M21.6,7.4v2.5c0,0.8-0.4,1.4-1.3,1.4h-1.4V5.9h1.4C21.2,5.9,21.6,6.5,21.6,7.4z M20.1,10.6
			c0.4,0,0.5-0.2,0.5-0.5V7.2c0-0.3-0.1-0.5-0.5-0.5h-0.4v4L20.1,10.6L20.1,10.6z"/>
		<path class="st1" d="M24.5,5.9V10c0,0.8-0.4,1.4-1.3,1.4c-1,0-1.4-0.5-1.4-1.4V5.9h0.9v4.2c0,0.3,0.1,0.5,0.5,0.5
			c0.3,0,0.5-0.2,0.5-0.5V5.9H24.5z"/>
		<path class="st1" d="M24.8,10.2V9.4h0.8v0.8c0,0.3,0.1,0.5,0.5,0.5c0.3,0,0.4-0.2,0.4-0.5V10c0-0.3-0.1-0.5-0.4-0.8l-0.5-0.5
			c-0.5-0.5-0.8-0.8-0.8-1.4V7c0-0.7,0.4-1.2,1.3-1.2c0.9,0,1.3,0.5,1.3,1.3v0.4h-0.8V7c0-0.3-0.1-0.5-0.4-0.5
			c-0.2,0-0.4,0.1-0.4,0.5v0.1c0,0.3,0.2,0.5,0.4,0.7l0.6,0.6c0.5,0.5,0.7,0.8,0.7,1.4v0.2c0,0.8-0.4,1.3-1.3,1.3
			C25.1,11.4,24.8,10.9,24.8,10.2z"/>
		<path class="st1" d="M27.4,5.9h2.5v0.8h-0.8v4.8h-0.9V6.6h-0.8V5.9z"/>
		<path class="st1" d="M31,8.8v2.5h-0.9V5.9h1.3c0.9,0,1.3,0.5,1.3,1.2v0.7c0,0.6-0.2,1-0.7,1.1l0.9,2.5h-1L31,8.8z M31,6.6v1.7h0.3
			c0.3,0,0.5-0.2,0.5-0.5V7.1c0-0.3-0.1-0.4-0.5-0.4H31z"/>
		<path class="st1" d="M34.6,9.3v2.1h-0.9V9.3l-1-3.4h1L34.2,8l0,0l0.5-2.1h0.9L34.6,9.3z"/>
		<path class="st1" d="M36.2,10.6l-0.5,1.3h-0.5l0.1-1.3L36.2,10.6L36.2,10.6z"/>
		<path class="st1" d="M37.1,5.9H38v5.5h-0.9V5.9z"/>
		<path class="st1" d="M39.1,7.9v3.4h-0.8V5.9h0.9l1,3.1V5.9h0.8v5.5h-0.8L39.1,7.9z"/>
		<path class="st1" d="M42.1,7.9v3.4h-0.8V5.9h0.9l1,3.1V5.9H44v5.5h-0.8L42.1,7.9z"/>
		<path class="st1" d="M44.3,10V7.3c0-0.8,0.4-1.5,1.4-1.5c1,0,1.4,0.6,1.4,1.5V10c0,0.8-0.4,1.5-1.4,1.5
			C44.7,11.4,44.3,10.8,44.3,10z M46.1,10.1V7.1c0-0.4-0.1-0.5-0.5-0.5c-0.3,0-0.5,0.2-0.5,0.5v2.9c0,0.4,0.1,0.5,0.5,0.5
			C46,10.7,46.1,10.4,46.1,10.1z"/>
		<path class="st1" d="M50.2,5.9l-1,5.5h-1l-1-5.5h1l0.6,3.9l0,0l0.7-3.9H50.2z"/>
		<path class="st1" d="M49.7,11.3l1-5.5h1l1,5.5h-0.9l-0.2-1h-1l-0.2,1H49.7z M50.8,9.6h0.7l-0.4-2.2l0,0L50.8,9.6z"/>
		<path class="st1" d="M52.4,5.9h2.5v0.8h-0.8v4.8h-0.9V6.6h-0.8V5.9z"/>
		<path class="st1" d="M55.1,5.9H56v5.5h-0.9V5.9z"/>
		<path class="st1" d="M56.3,10V7.3c0-0.8,0.4-1.5,1.4-1.5c1,0,1.4,0.6,1.4,1.5V10c0,0.8-0.4,1.5-1.4,1.5
			C56.7,11.4,56.3,10.8,56.3,10z M58.2,10.1V7.1c0-0.4-0.1-0.5-0.5-0.5c-0.3,0-0.5,0.2-0.5,0.5v2.9c0,0.4,0.1,0.5,0.5,0.5
			C58,10.7,58.2,10.4,58.2,10.1z"/>
		<path class="st1" d="M60.2,7.9v3.4h-0.8V5.9h0.9l1,3.1V5.9h0.8v5.5h-0.8L60.2,7.9z"/>
		<path class="st1" d="M14.5,19l1-5.5h1l1,5.5h-1l-0.2-1h-1l-0.2,1H14.5z M15.6,17.3h0.7L16,15.1l0,0L15.6,17.3z"/>
		<path class="st1" d="M18.5,15.6V19h-0.8v-5.5h0.9l1,3.1v-3.1h0.8V19h-0.8L18.5,15.6z"/>
		<path class="st1" d="M23.4,15v2.5c0,0.8-0.4,1.4-1.3,1.4h-1.4v-5.5h1.4C23.1,13.6,23.4,14.2,23.4,15z M22,18.3
			c0.4,0,0.5-0.2,0.5-0.5v-2.9c0-0.3-0.1-0.5-0.5-0.5h-0.4v4H22z"/>
		<path class="st1" d="M24.4,13.6h0.9V19h-0.9V13.6z"/>
		<path class="st1" d="M26.4,15.6V19h-0.8v-5.5h0.9l1,3.1v-3.1h0.8V19h-0.8L26.4,15.6z"/>
		<path class="st1" d="M28.6,13.6h2.2v0.8h-1.3v1.6h0.9v0.7h-0.9V19h-0.9V13.6z"/>
		<path class="st1" d="M31.8,16.5V19h-0.9v-5.5h1.3c0.9,0,1.3,0.5,1.3,1.2v0.7c0,0.6-0.2,1-0.7,1.1l0.9,2.5h-1L31.8,16.5z
			 M31.8,14.3V16h0.3c0.3,0,0.5-0.2,0.5-0.5v-0.8c0-0.3-0.1-0.4-0.5-0.4H31.8z"/>
		<path class="st1" d="M33.6,19l1-5.5h1l1,5.5h-1l-0.2-1h-1l-0.2,1H33.6z M34.8,17.3h0.7l-0.4-2.2l0,0L34.8,17.3z"/>
		<path class="st1" d="M36.7,17.8v-0.7h0.8v0.8c0,0.3,0.1,0.5,0.5,0.5c0.3,0,0.4-0.2,0.4-0.5v-0.2c0-0.3-0.1-0.5-0.4-0.8l-0.5-0.5
			c-0.5-0.5-0.8-0.8-0.8-1.4v-0.2c0-0.7,0.4-1.2,1.3-1.2s1.3,0.5,1.3,1.3v0.4h-0.8v-0.5c0-0.3-0.1-0.5-0.4-0.5
			c-0.2,0-0.4,0.1-0.4,0.5v0.1c0,0.3,0.2,0.5,0.4,0.7l0.6,0.6c0.5,0.5,0.7,0.8,0.7,1.4v0.2c0,0.8-0.4,1.3-1.3,1.3
			C37.2,19.1,36.7,18.6,36.7,17.8z"/>
		<path class="st1" d="M39.4,13.6h2.5v0.8h-0.8v4.8h-0.9v-4.8h-0.8V13.6z"/>
		<path class="st1" d="M43,16.5V19h-0.9v-5.5h1.3c0.9,0,1.3,0.5,1.3,1.2v0.7c0,0.6-0.2,1-0.7,1.1l0.9,2.5h-1L43,16.5z M43,14.3V16
			h0.3c0.3,0,0.5-0.2,0.5-0.5v-0.8c0-0.3-0.1-0.4-0.5-0.4H43z"/>
		<path class="st1" d="M47.6,13.6v4.2c0,0.8-0.4,1.4-1.3,1.4c-1,0-1.4-0.5-1.4-1.4v-4.2h0.9v4.2c0,0.3,0.1,0.5,0.5,0.5
			c0.3,0,0.5-0.2,0.5-0.5v-4.2H47.6z"/>
		<path class="st1" d="M47.9,17.6v-2.6c0-0.8,0.4-1.5,1.4-1.5c1,0,1.3,0.5,1.3,1.4v0.7h-0.8v-0.7c0-0.4-0.1-0.5-0.4-0.5
			c-0.4,0-0.5,0.2-0.5,0.5v2.9c0,0.4,0.1,0.5,0.5,0.5c0.4,0,0.4-0.2,0.4-0.5v-1h0.8v1c0,0.8-0.3,1.4-1.3,1.4
			C48.4,19.1,47.9,18.5,47.9,17.6z"/>
		<path class="st1" d="M50.7,13.6h2.5v0.8h-0.8v4.8h-0.9v-4.8h-0.8V13.6z"/>
		<path class="st1" d="M56,13.6v4.2c0,0.8-0.4,1.4-1.3,1.4c-1,0-1.4-0.5-1.4-1.4v-4.2h0.9v4.2c0,0.3,0.1,0.5,0.5,0.5
			c0.3,0,0.5-0.2,0.5-0.5v-4.2H56z"/>
		<path class="st1" d="M57.2,16.5V19h-0.9v-5.5h1.3c0.9,0,1.3,0.5,1.3,1.2v0.7c0,0.6-0.2,1-0.7,1.1l0.9,2.5h-1L57.2,16.5z
			 M57.2,14.3V16h0.3c0.3,0,0.5-0.2,0.5-0.5v-0.8c0-0.3-0.1-0.4-0.5-0.4H57.2z"/>
		<path class="st1" d="M59.2,13.6h2.2v0.8h-1.3v1.6h0.9v0.7h-0.9v1.7h1.3v0.8h-2.2V13.6z"/>
	</g>
</g>
</svg>
