<?xml version="1.0" encoding="utf-8"?>
<!-- Generator: Adobe Illustrator 25.1.0, SVG Export Plug-In . SVG Version: 6.00 Build 0)  -->
<svg version="1.1" id="Capa_1" xmlns="http://www.w3.org/2000/svg" xmlns:xlink="http://www.w3.org/1999/xlink" x="0px" y="0px"
	 viewBox="0 0 66.2 66.2" style="enable-background:new 0 0 66.2 66.2;" xml:space="preserve">
<style type="text/css">
	.st0{fill:#00ADD8;}
	.st1{fill:#FFFFFF;}
</style>
<rect class="st0" width="66.2" height="66.2"/>
<path class="st1" d="M43.6,31.9c-0.7-0.3-1.6-0.2-2.3,0.1c-3,1.2-5,1.6-8.1,0.7c-2-0.6-3.8-1.9-6-1.1c-1.4,0.6-2.9,0.9-4.4,1l-1-4.9
	h22.5L43.6,31.9z M36,46.3c-0.8,0.7-1.8,1.1-2.9,1c-1.1,0.1-2.1-0.3-2.9-1c-1.3-1.4-1.6-3.5-0.5-5.2c0.4-0.7,3.1-4.9,3.4-5.2l0,0
	c0.2,0.4,3,4.5,3.4,5.2C37.5,42.7,37.3,44.9,36,46.3 M45.3,26.8c-0.1-0.1-0.1-0.1-0.2-0.1h-24c-0.1,0-0.2,0-0.2,0.1
	c0,0.1-0.1,0.1-0.1,0.2l4,24.4c0,0.1,0.1,0.2,0.3,0.2h5l0.3,4h-2.1l4.8,4.8l4.9-4.9h-2.1l0.3-4h5c0.1,0,0.3-0.1,0.3-0.2L45.3,27
	C45.3,26.9,45.3,26.8,45.3,26.8"/>
<g>
	<path id="Path_152_1_" class="st1" d="M8.3,13.6c0-0.7,0.4-1.2,1.1-1.2c0.8,0,1.1,0.4,1.1,1.3v2.3c0,0.8-0.3,1.3-1.1,1.3
		c-0.7,0-1-0.5-1-1.3L8.3,13.6L8.3,13.6L8.3,13.6z M9.3,19.1c2.3,0,3.3-1.3,3.3-3.3v-2c0-2.2-0.9-3.3-2.4-3.3
		c-0.8,0-1.5,0.4-1.8,1.1l0,0V8.7c0-0.8,0.3-1.4,1.1-1.4c0.8,0,1,0.5,1,1.3v0.9h2V8.7c0-2-0.7-3.3-3-3.3S6.2,6.9,6.2,9v6.4
		C6,17.6,6.9,19.1,9.3,19.1"/>
	<g>
		<path class="st1" d="M19.2,10.1V7.3c0-0.9,0.4-1.6,1.5-1.6c1.1,0,1.4,0.6,1.4,1.5v0.7h-0.9V7.1c0-0.4-0.1-0.6-0.4-0.6
			c-0.4,0-0.5,0.3-0.5,0.6v3.1c0,0.4,0.1,0.6,0.5,0.6c0.4,0,0.4-0.2,0.4-0.6V9.1h0.9v1c0,0.8-0.3,1.5-1.4,1.5
			C19.7,11.6,19.2,10.9,19.2,10.1z"/>
		<path class="st1" d="M22.6,5.8h0.9v5h1.1v0.8h-2.1L22.6,5.8L22.6,5.8L22.6,5.8z"/>
		<path class="st1" d="M25.2,5.8h2.3v0.8h-1.3v1.6h0.9V9h-0.9v1.8h1.3v0.8h-2.3V5.8z"/>
		<path class="st1" d="M27.8,11.5l1.1-5.8H30l1.1,5.8h-0.9l-0.2-1.1h-1l-0.2,1.1H27.8z M29,9.7h0.8l-0.4-2.3l0,0L29,9.7z"/>
		<path class="st1" d="M32.3,7.9v3.6h-0.8V5.8h0.9L33.5,9V5.8h0.8v5.8h-0.8L32.3,7.9z"/>
		<path class="st1" d="M37.9,8l-0.6,3.5h-0.9l-0.8-5.8h0.9l0.4,3.7l0,0l0.5-3.7h0.8l0.5,3.7l0,0l0.4-3.7h0.8l-0.8,5.8h-0.9L37.9,8
			L37.9,8z"/>
		<path class="st1" d="M40,11.5l1.1-5.8h1.1l1.1,5.8h-1l-0.2-1.1h-1l-0.2,1.1H40z M41.2,9.7H42l-0.4-2.3l0,0L41.2,9.7z"/>
		<path class="st1" d="M43.2,5.8h2.6v0.8H45v5H44v-5h-0.8V5.8z"/>
		<path class="st1" d="M46.2,5.8h2.3v0.8h-1.4v1.6h0.9V9h-0.9v1.8h1.3v0.8h-2.3L46.2,5.8L46.2,5.8L46.2,5.8z"/>
		<path class="st1" d="M50,8.9v2.7h-0.9V5.8h1.4c0.9,0,1.3,0.5,1.3,1.3v0.8c0,0.6-0.2,1-0.8,1.1l0.9,2.6h-1L50,8.9z M50,6.6v1.8h0.3
			c0.3,0,0.5-0.2,0.5-0.5V7c0-0.3-0.1-0.4-0.5-0.4H50z"/>
		<path class="st1" d="M19.1,19.6l1.1-5.8h1.1l1.1,5.8h-1l-0.2-1.1h-1l-0.2,1.1H19.1z M20.3,17.8h0.8l-0.4-2.3l0,0L20.3,17.8z"/>
		<path class="st1" d="M23.6,16v3.6h-0.8v-5.8h0.9l1.1,3.3v-3.3h0.8v5.8h-0.8L23.6,16z"/>
		<path class="st1" d="M29,15.4V18c0,0.9-0.4,1.5-1.4,1.5h-1.5v-5.8h1.5C28.7,13.8,29,14.5,29,15.4z M27.5,18.8
			c0.4,0,0.6-0.3,0.6-0.6v-3c0-0.3-0.1-0.6-0.6-0.6h-0.4v4.2H27.5z"/>
		<path class="st1" d="M30.4,18.3v-0.8h0.9v0.8c0,0.3,0.1,0.5,0.5,0.5c0.3,0,0.4-0.2,0.4-0.5v-0.2c0-0.3-0.1-0.5-0.4-0.8l-0.6-0.6
			c-0.6-0.6-0.8-0.9-0.8-1.5v-0.2c0-0.7,0.4-1.3,1.4-1.3c0.9,0,1.3,0.5,1.3,1.3v0.4h-0.9v-0.5c0-0.3-0.1-0.5-0.4-0.5
			c-0.3,0-0.4,0.1-0.4,0.5v0.1c0,0.3,0.2,0.5,0.4,0.8l0.6,0.6c0.5,0.5,0.8,0.9,0.8,1.5v0.3c0,0.8-0.4,1.3-1.4,1.3
			C30.9,19.7,30.4,19.1,30.4,18.3z"/>
		<path class="st1" d="M33.5,19.6l1.1-5.8h1.1l1.1,5.8h-0.9l-0.2-1.1h-1l-0.2,1.1H33.5z M34.7,17.8h0.8l-0.4-2.3l0,0L34.7,17.8z"/>
		<path class="st1" d="M38,16v3.6h-0.8v-5.8h0.9l1.1,3.3v-3.3H40v5.8h-0.8L38,16z"/>
		<path class="st1" d="M40.5,13.8h0.9v5.8h-0.9V13.8z"/>
		<path class="st1" d="M41.9,13.8h2.6v0.8h-0.8v5h-0.9v-5h-0.8V13.8z"/>
		<path class="st1" d="M44.4,19.6l1.1-5.8h1.1l1.1,5.8h-1l-0.2-1.1h-1l-0.2,1.1H44.4z M45.6,17.8h0.8L46,15.4l0,0L45.6,17.8z"/>
		<path class="st1" d="M47.6,13.8h2.6v0.8h-0.8v5h-0.9v-5h-0.8L47.6,13.8L47.6,13.8z"/>
		<path class="st1" d="M50.6,13.8h0.9v5.8h-0.9V13.8z"/>
		<path class="st1" d="M52.1,18.1v-2.8c0-0.9,0.4-1.6,1.5-1.6c1,0,1.5,0.6,1.5,1.6v2.8c0,0.9-0.4,1.6-1.5,1.6
			C52.5,19.7,52.1,19,52.1,18.1z M54.1,18.3v-3.1c0-0.4-0.1-0.6-0.5-0.6c-0.3,0-0.5,0.3-0.5,0.6v3.1c0,0.4,0.1,0.6,0.5,0.6
			C53.9,18.8,54.1,18.6,54.1,18.3z"/>
		<path class="st1" d="M56.4,16v3.6h-0.8v-5.8h0.9l1.1,3.3v-3.3h0.8v5.8h-0.8L56.4,16z"/>
	</g>
</g>
</svg>
