<?xml version="1.0" encoding="utf-8"?>
<!-- Generator: Adobe Illustrator 25.1.0, SVG Export Plug-In . SVG Version: 6.00 Build 0)  -->
<svg version="1.1" id="Capa_1" xmlns="http://www.w3.org/2000/svg" xmlns:xlink="http://www.w3.org/1999/xlink" x="0px" y="0px"
	 viewBox="0 0 66.2 66.2" style="enable-background:new 0 0 66.2 66.2;" xml:space="preserve">
<style type="text/css">
	.st0{fill:#EA1C2D;}
	.st1{fill:#FFFFFF;}
	.st2{fill:none;stroke:#FFFFFF;stroke-width:0.73;stroke-linecap:round;stroke-miterlimit:10;}
</style>
<rect class="st0" width="66.2" height="66.2"/>
<path class="st1" d="M51,31.6c0-1,0.8-1.8,1.8-1.8c1,0,1.8,0.8,1.8,1.8s-0.8,1.8-1.8,1.8S51,32.6,51,31.6C51,31.6,51,31.6,51,31.6"
	/>
<path class="st1" d="M54.9,34.1c1.3,0.1,2.2,1.2,2.2,2.4v5.1c0,0.4-0.3,0.7-0.7,0.7c-0.4,0-0.7-0.3-0.7-0.7v-4.4
	c0-0.2,0-0.4-0.3-0.4s-0.2,0.2-0.3,0.4v13.1c0,0.6-0.4,1-1,1s-1-0.4-1-1v-7.5c0-0.2-0.1-0.3-0.3-0.3c0,0,0,0,0,0l0,0
	c-0.2,0-0.3,0.1-0.3,0.3c0,0,0,0,0,0v7.5c0,0.6-0.4,1-1,1s-1-0.4-1-1V37.2c0-0.1-0.1-0.4-0.3-0.4s-0.3,0.2-0.3,0.4v4.4
	c0,0.4-0.3,0.7-0.7,0.7c-0.4,0-0.7-0.3-0.7-0.7v-5.1c0-1.3,1-2.3,2.2-2.4H54.9"/>
<path class="st1" d="M40.1,32.5c0-1-0.8-1.7-1.7-1.7c-1,0-1.7,0.8-1.7,1.7c0,1,0.8,1.7,1.7,1.7C39.3,34.3,40.1,33.5,40.1,32.5
	C40.1,32.5,40.1,32.5,40.1,32.5"/>
<path class="st1" d="M34.8,36.5l-1.5,4.7c0,0-0.2,0.9,0.5,1.1s0.9-0.6,0.9-0.6l1.2-3.9c0,0,0.1-0.3,0.3-0.2s0.1,0.4,0.1,0.4l-2,7.3
	h1.9v5.3c0,0.5,0.4,0.9,0.9,0.9c0.5,0,0.9-0.4,0.9-0.9c0,0,0,0,0,0v-5.3h0.5v5.3c0.1,0.5,0.5,0.9,1,0.8c0.4,0,0.8-0.4,0.8-0.8v-5.3
	h1.9l-2-7.3c0,0-0.1-0.3,0.2-0.4s0.3,0.2,0.3,0.2l1.2,3.9c0,0,0.2,0.8,0.9,0.6s0.5-1.1,0.5-1.1l-1.4-4.7c0,0-0.5-1.4-1.7-1.4h-3.8
	C35.4,35.1,34.8,36.5,34.8,36.5"/>
<path class="st1" d="M29.7,32.5c0-1-0.8-1.7-1.7-1.7c-1,0-1.7,0.8-1.7,1.7c0,1,0.8,1.7,1.7,1.7C28.9,34.3,29.7,33.5,29.7,32.5
	C29.7,32.5,29.7,32.5,29.7,32.5"/>
<path class="st1" d="M24.5,36.5L23,41.2c0,0-0.3,0.9,0.5,1.1s0.9-0.6,0.9-0.6l1.2-3.9c0,0,0.1-0.3,0.3-0.2s0.1,0.4,0.1,0.4l-2,7.3
	h1.9v5.3c0,0.5,0.4,0.9,0.9,0.9c0.5,0,0.9-0.4,0.9-0.9v-5.3h0.5v5.3c0.1,0.5,0.5,0.9,1,0.8c0.4,0,0.8-0.4,0.8-0.8v-5.3h1.9l-2-7.3
	c0,0-0.1-0.3,0.1-0.4s0.3,0.2,0.3,0.2l1.2,3.9c0,0,0.2,0.8,0.9,0.6c0.7-0.2,0.5-1.1,0.5-1.1l-1.4-4.7c0,0-0.5-1.4-1.7-1.4h-3.7
	C25,35.1,24.5,36.5,24.5,36.5"/>
<path class="st1" d="M45.9,42.2c0.8,0,1.5-0.6,1.5-1.4s-0.6-1.5-1.4-1.5c-0.8,0-1.5,0.6-1.5,1.4c0,0,0,0,0,0
	C44.5,41.6,45.1,42.2,45.9,42.2"/>
<path class="st1" d="M42.4,46.7c-0.1,0.2,0,0.5,0.2,0.7c0,0,0,0,0,0c0.2,0.1,0.5,0,0.6-0.2l0.7-2.5c0,0,0.1-0.2,0.1,0v5.9l0,0
	c0,0.4,0.3,0.7,0.7,0.7c0.4,0,0.7-0.3,0.7-0.7v-2.3c0,0,0-0.3,0.2-0.3s0.2,0.3,0.2,0.3v2.3c0,0.4,0.3,0.7,0.7,0.7h0
	c0.4,0,0.7-0.3,0.8-0.7v-5.9c0-0.2,0.1,0,0.1,0l0.6,1.7c0.1,0.3,0.2,0.5,0.3,0.8c0.3,0.1,0.6,0,0.7-0.3c0.1-0.2,0-0.4-0.1-0.5l0,0
	c0-0.1-0.9-2.3-1-2.6c-0.3-1-0.9-0.9-1.5-1s-0.9,0-0.9,0s-0.4,0-1.1,0s-1,0.4-1.8,2.5C42.8,45.6,42.4,46.6,42.4,46.7L42.4,46.7z"/>
<path class="st1" d="M14.2,31.6c0-1-0.8-1.8-1.8-1.8c-1,0-1.8,0.8-1.8,1.8s0.8,1.8,1.8,1.8S14.2,32.6,14.2,31.6"/>
<path class="st1" d="M10.2,34.1C9,34.2,8,35.3,8,36.5v5.1c0,0.4,0.4,0.7,0.8,0.6c0.3,0,0.6-0.3,0.6-0.6v-4.4c0-0.2,0-0.4,0.3-0.4
	s0.2,0.2,0.3,0.4v13.1c0,0.6,0.4,1,1,1s1-0.4,1-1v-7.5c0-0.2,0.1-0.3,0.3-0.3c0,0,0,0,0,0c0.2,0,0.3,0.1,0.3,0.3c0,0,0,0,0,0v7.5
	c0,0.6,0.4,1,1,1s1-0.4,1-1V37.2c0-0.1,0.1-0.4,0.2-0.4s0.4,0.2,0.4,0.4v4.4c0,0.4,0.3,0.7,0.7,0.7c0.4,0,0.7-0.3,0.7-0.7v-5.1
	c0-1.3-1-2.3-2.2-2.4H10.2"/>
<line class="st2" x1="8.6" y1="42.3" x2="7" y2="51"/>
<path class="st1" d="M17.6,41.5c-0.1-0.1-0.3-0.2-0.5-0.2c-0.3,0-0.5,0.2-0.5,0.5l0,0c0,0.1,0,0.2,0,0.2l1.5,2.6
	c0.1,0.1,0.1,0.2,0.1,0.3v5.7l0,0c0,0.4,0.3,0.7,0.7,0.7c0.4,0,0.7-0.3,0.7-0.7v-2.2c0,0,0-0.3,0.2-0.3s0.2,0.3,0.2,0.3v2.2
	c0,0.4,0.3,0.7,0.7,0.7c0.4,0,0.7-0.3,0.7-0.7V45c0-0.1,0-0.2,0.1-0.3l1.4-2.4c0.1-0.1,0.1-0.3,0.2-0.4c0-0.3-0.2-0.5-0.5-0.6
	c-0.2,0-0.4,0.1-0.5,0.3l0,0c-0.3,0.5-0.6,1-0.9,1.5c-0.1,0.1-0.3,0.2-0.4,0.2H19c-0.2,0-0.3-0.1-0.5-0.2
	C18.3,42.8,17.7,41.6,17.6,41.5L17.6,41.5z"/>
<path class="st1" d="M19.8,42.2c0.8,0,1.5-0.6,1.5-1.4c0-0.8-0.6-1.5-1.4-1.5c-0.8,0-1.5,0.6-1.5,1.4c0,0,0,0,0,0
	C18.4,41.6,19,42.2,19.8,42.2"/>
<polygon class="st1" points="19.8,44.3 21.5,45.5 22.2,48.3 19.8,48.3 17.4,48.3 18.2,45.5 "/>
<g>
	<path id="Path_64_1_" class="st1" d="M9.3,8.7L9.3,8.7v10.5h2.3V5.6H9.7L7.6,8v2.4l0,0L9.3,8.7z"/>
	<g>
		<path class="st1" d="M16.6,7.9v3.7h-0.9v-6h1L17.8,9V5.6h0.9v6h-0.9L16.6,7.9z"/>
		<path class="st1" d="M19.2,10.1V7.2c0-0.9,0.5-1.6,1.5-1.6s1.5,0.7,1.5,1.6v2.9c0,0.9-0.5,1.6-1.5,1.6
			C19.7,11.7,19.2,11,19.2,10.1z M21.2,10.2V7c0-0.4-0.1-0.6-0.5-0.6c-0.3,0-0.5,0.3-0.5,0.6v3.2c0,0.4,0.1,0.6,0.5,0.6
			C21.1,10.9,21.2,10.6,21.2,10.2z"/>
		<path class="st1" d="M15.7,14h1.5c1,0,1.4,0.5,1.4,1.3v1.2c0,0.9-0.4,1.4-1.4,1.4h-0.5v2h-1L15.7,14L15.7,14z M16.7,14.8v2.4h0.4
			c0.3,0,0.5-0.2,0.5-0.5v-1.4c0-0.3-0.1-0.5-0.5-0.5H16.7z"/>
		<path class="st1" d="M19.1,18.4v-2.9c0-0.9,0.5-1.6,1.5-1.6s1.5,0.7,1.5,1.6v2.9c0,0.9-0.5,1.6-1.5,1.6
			C19.6,20,19.1,19.4,19.1,18.4z M21.2,18.6v-3.2c0-0.4-0.1-0.6-0.5-0.6c-0.3,0-0.5,0.3-0.5,0.6v3.2c0,0.4,0.1,0.6,0.5,0.6
			C21,19.2,21.2,18.9,21.2,18.6z"/>
		<path class="st1" d="M25.8,14l-1.1,6h-1.1l-1.1-6h1l0.7,4.2l0,0l0.7-4.2H25.8z"/>
		<path class="st1" d="M26.2,14h2.4v0.9h-1.4v1.7h1v0.8h-1v1.8h1.4V20h-2.4L26.2,14L26.2,14L26.2,14z"/>
		<path class="st1" d="M30.1,17.2V20h-1v-6h1.4c1,0,1.4,0.5,1.4,1.3v0.8c0,0.7-0.2,1-0.8,1.2l1,2.7h-1L30.1,17.2z M30.1,14.8v1.8
			h0.3c0.3,0,0.5-0.2,0.5-0.5v-0.9c0-0.3-0.1-0.5-0.5-0.5H30.1z"/>
		<path class="st1" d="M32.3,14H35v0.9h-0.9V20h-1v-5.2h-0.9V14z"/>
		<path class="st1" d="M37.4,17.7V20h-1v-2.3L35.3,14h1l0.6,2.3l0,0l0.6-2.3h1L37.4,17.7z"/>
	</g>
</g>
</svg>
