<?xml version="1.0" encoding="utf-8"?>
<!-- Generator: Adobe Illustrator 25.1.0, SVG Export Plug-In . SVG Version: 6.00 Build 0)  -->
<svg version="1.1" id="Capa_1" xmlns="http://www.w3.org/2000/svg" xmlns:xlink="http://www.w3.org/1999/xlink" x="0px" y="0px"
	 viewBox="0 0 66.2 66.2" style="enable-background:new 0 0 66.2 66.2;" xml:space="preserve">
<style type="text/css">
	.st0{fill:#F99D25;}
	.st1{fill:#FFFFFF;}
</style>
<rect class="st0" width="66.2" height="66.2"/>
<path class="st1" d="M13.1,51.1h9.2c0.1,0,0.2-0.1,0.2-0.2c0-0.1,0-0.1-0.1-0.2l0,0l-4.6-5.9v0c0,0-0.1-0.1-0.2-0.1
	c-0.1,0-0.1,0-0.1,0.1l0,0l0,0L13,50.7l-0.1,0.1c0,0,0,0.1,0,0.1C12.9,51,13,51.1,13.1,51.1"/>
<path class="st1" d="M22.2,51.9h-9.2c-0.1,0-0.2,0.1-0.2,0.2l0,0v7.2c0,0.1,0.1,0.2,0.2,0.2c0,0,0,0,0,0h3v-4.5
	c0-0.1,0.1-0.2,0.2-0.2H19c0.1,0,0.2,0.1,0.2,0.2v4.5h3c0.1,0,0.2-0.1,0.2-0.2v-7.2C22.5,52,22.4,51.9,22.2,51.9
	C22.2,51.9,22.2,51.9,22.2,51.9"/>
<path class="st1" d="M53.2,53c0,0.1-0.1,0.2-0.2,0.2c0,0,0,0,0,0h-2.7c-0.1,0-0.2-0.1-0.2-0.2c0,0,0,0,0,0v-1.7
	c0-0.1,0.1-0.2,0.2-0.2c0,0,0,0,0,0H53c0.1,0,0.2,0.1,0.2,0.2c0,0,0,0,0,0L53.2,53z M53.2,56c0,0.1-0.1,0.2-0.2,0.2c0,0,0,0,0,0
	h-2.7c-0.1,0-0.2-0.1-0.2-0.2c0,0,0,0,0,0v-1.6c0-0.1,0.1-0.2,0.2-0.2c0,0,0,0,0,0H53c0.1,0,0.2,0.1,0.2,0.2c0,0,0,0,0,0L53.2,56z
	 M49,53c0,0.1-0.1,0.2-0.2,0.2c0,0,0,0,0,0h-2.7c-0.1,0-0.2-0.1-0.2-0.2c0,0,0,0,0,0v-1.7c0-0.1,0.1-0.2,0.2-0.2c0,0,0,0,0,0h2.7
	c0.1,0,0.2,0.1,0.2,0.2c0,0,0,0,0,0L49,53z M49,56c0,0.1-0.1,0.2-0.2,0.2c0,0,0,0,0,0h-2.7c-0.1,0-0.2-0.1-0.2-0.2c0,0,0,0,0,0v-1.6
	c0-0.1,0.1-0.2,0.2-0.2c0,0,0,0,0,0h2.7c0.1,0,0.2,0.1,0.2,0.2c0,0,0,0,0,0L49,56z M54,50h-9.1c-0.1,0-0.2,0.1-0.2,0.2c0,0,0,0,0,0
	v9.2c0,0.1,0.1,0.2,0.2,0.2H54c0.1,0,0.2-0.1,0.2-0.2v-9.1C54.2,50.1,54.1,50,54,50C54,50,54,50,54,50"/>
<path class="st1" d="M31.6,35.3c0,0.1-0.1,0.1-0.1,0.1h-2c-0.1,0-0.1-0.1-0.1-0.1V33c0-0.1,0.1-0.1,0.1-0.1h2c0.1,0,0.1,0.1,0.1,0.1
	V35.3z M31.6,40.5c0,0.1,0,0.1-0.1,0.1c0,0,0,0,0,0h-2c-0.1,0-0.1,0-0.1-0.1c0,0,0,0,0,0v-2.3c0-0.1,0.1-0.1,0.1-0.1h2
	c0.1,0,0.1,0.1,0.1,0.1V40.5z M31.6,45.7c0,0.1-0.1,0.1-0.1,0.1h-2c-0.1,0-0.1-0.1-0.1-0.1v-2.3c0-0.1,0-0.1,0.1-0.1c0,0,0,0,0,0h2
	c0.1,0,0.1,0,0.1,0.1c0,0,0,0,0,0V45.7z M31.6,50.9c0,0.1-0.1,0.1-0.1,0.1h-2c-0.1,0-0.1-0.1-0.1-0.1v-2.3c0-0.1,0.1-0.1,0.1-0.1h2
	c0.1,0,0.1,0.1,0.1,0.1V50.9z M31.6,56.1c0,0.1,0,0.1-0.1,0.1c0,0,0,0,0,0h-2c-0.1,0-0.1,0-0.1-0.1c0,0,0,0,0,0v-2.3
	c0-0.1,0.1-0.1,0.1-0.1h2c0.1,0,0.1,0.1,0.1,0.1V56.1z M27.6,35.3c0,0.1-0.1,0.1-0.1,0.1h-2c-0.1,0-0.1-0.1-0.1-0.1V33
	c0-0.1,0.1-0.1,0.1-0.1h2c0.1,0,0.1,0.1,0.1,0.1V35.3z M27.6,40.5c0,0.1-0.1,0.1-0.1,0.1h-2c-0.1,0-0.1,0-0.1-0.1v-2.3
	c0-0.1,0.1-0.1,0.1-0.1h2c0.1,0,0.1,0.1,0.1,0.1V40.5z M27.6,45.7c0,0.1-0.1,0.1-0.1,0.1h-2c-0.1,0-0.1-0.1-0.1-0.1v-2.3
	c0-0.1,0.1-0.1,0.1-0.1h2c0.1,0,0.1,0,0.1,0.1V45.7z M27.6,50.9c0,0.1-0.1,0.1-0.1,0.1h-2c-0.1,0-0.1-0.1-0.1-0.1v-2.3
	c0-0.1,0.1-0.1,0.1-0.1h2c0.1,0,0.1,0.1,0.1,0.1V50.9z M27.6,56.1c0,0.1-0.1,0.1-0.1,0.1h-2c-0.1,0-0.1,0-0.1-0.1v-2.3
	c0-0.1,0.1-0.1,0.1-0.1h2c0.1,0,0.1,0.1,0.1,0.1V56.1z M32.9,28.7H24c-0.1,0-0.2,0.1-0.2,0.2v30.4c0,0.1,0.1,0.2,0.2,0.2l0,0h8.9
	c0.1,0,0.2-0.1,0.2-0.2c0,0,0,0,0,0V29C33.1,28.9,33,28.8,32.9,28.7L32.9,28.7"/>
<path class="st1" d="M44.9,47.1H54c0.1,0,0.2,0.1,0.2,0.2v1.8c0,0.1-0.1,0.2-0.2,0.2h-9.2c-0.1,0-0.2-0.1-0.2-0.2v-1.8
	C44.7,47.2,44.8,47.1,44.9,47.1z"/>
<path class="st1" d="M42.6,43.8c0,0.1-0.1,0.2-0.2,0.2c0,0,0,0,0,0h-2.6c-0.1,0-0.2-0.1-0.2-0.2c0,0,0,0,0,0v-1.7
	c0-0.1,0.1-0.2,0.2-0.2c0,0,0,0,0,0h2.7c0.1,0,0.2,0.1,0.2,0.2c0,0,0,0,0,0L42.6,43.8z M42.6,46.8c0,0.1-0.1,0.2-0.2,0.2
	c0,0,0,0,0,0h-2.6c-0.1,0-0.2-0.1-0.2-0.2c0,0,0,0,0,0v-1.7c0-0.1,0.1-0.2,0.2-0.2c0,0,0,0,0,0h2.7c0.1,0,0.2,0.1,0.2,0.2
	c0,0,0,0,0,0L42.6,46.8z M42.6,49.9c0,0.1-0.1,0.2-0.2,0.2c0,0,0,0,0,0h-2.6c-0.1,0-0.2-0.1-0.2-0.2c0,0,0,0,0,0v-1.7
	c0-0.1,0.1-0.2,0.2-0.2c0,0,0,0,0,0h2.7c0.1,0,0.2,0.1,0.2,0.2c0,0,0,0,0,0L42.6,49.9z M42.6,53c0,0.1-0.1,0.2-0.2,0.2c0,0,0,0,0,0
	h-2.6c-0.1,0-0.2-0.1-0.2-0.2c0,0,0,0,0,0v-1.7c0-0.1,0.1-0.2,0.2-0.2c0,0,0,0,0,0h2.7c0.1,0,0.2,0.1,0.2,0.2c0,0,0,0,0,0L42.6,53z
	 M42.6,56c0,0.1-0.1,0.2-0.2,0.2c0,0,0,0,0,0h-2.6c-0.1,0-0.2-0.1-0.2-0.2c0,0,0,0,0,0v-1.7c0-0.1,0.1-0.2,0.2-0.2c0,0,0,0,0,0h2.7
	c0.1,0,0.2,0.1,0.2,0.2c0,0,0,0,0,0L42.6,56z M38.6,43.2v3.7c0,0.1-0.1,0.2-0.2,0.2h-2.7c-0.1,0-0.2-0.1-0.2-0.2c0,0,0,0,0,0v-0.5
	c0,0,0-0.1,0-0.1l0,0l0,0l0,0c0.3-0.5,1.9-2.4,2.5-3.2l0.1-0.1c0-0.1,0.1-0.1,0.2-0.1c0.1,0,0.2,0.1,0.2,0.2L38.6,43.2z M38.6,49.9
	c0,0.1-0.1,0.2-0.2,0.2c0,0,0,0,0,0h-2.7c-0.1,0-0.2-0.1-0.2-0.2c0,0,0,0,0,0v-1.7c0-0.1,0.1-0.2,0.2-0.2c0,0,0,0,0,0h2.7
	c0.1,0,0.2,0.1,0.2,0.2c0,0,0,0,0,0L38.6,49.9z M38.6,53c0,0.1-0.1,0.2-0.2,0.2c0,0,0,0,0,0h-2.7c-0.1,0-0.2-0.1-0.2-0.2
	c0,0,0,0,0,0v-1.7c0-0.1,0.1-0.2,0.2-0.2c0,0,0,0,0,0h2.7c0.1,0,0.2,0.1,0.2,0.2c0,0,0,0,0,0L38.6,53z M38.6,56
	c0,0.1-0.1,0.2-0.2,0.2c0,0,0,0,0,0h-2.7c-0.1,0-0.2-0.1-0.2-0.2c0,0,0,0,0,0v-1.7c0-0.1,0.1-0.2,0.2-0.2c0,0,0,0,0,0h2.7
	c0.1,0,0.2,0.1,0.2,0.2c0,0,0,0,0,0L38.6,56z M40,40.5L40,40.5c0.7-0.9,1.7-2.1,2.2-2.7l0.1-0.1c0-0.1,0.1-0.1,0.2-0.1
	c0.1,0,0.2,0.1,0.2,0.2v2.8c0,0.1-0.1,0.2-0.2,0.2h-2.3c-0.1,0-0.2-0.1-0.2-0.2c0,0,0-0.1,0-0.2 M43.6,34.5c0-0.1-0.1-0.2-0.2-0.2
	c0,0-0.1,0-0.1,0l0,0l-0.1,0.1l-8.8,11.1l0,0c0,0-0.1,0.1-0.1,0.2v13.7c0,0.1,0.1,0.2,0.2,0.2c0,0,0,0,0,0h8.9
	c0.1,0,0.2-0.1,0.2-0.2c0,0,0,0,0,0L43.6,34.5C43.6,34.5,43.6,34.5,43.6,34.5"/>
<g>
	<path id="Path_323_1_" class="st1" d="M4.4,7.5v2.3l0,0L6,8.2l0,0v10.1h2.2V5.2H6.4L4.4,7.5z"/>
	<path id="Path_324_1_" class="st1" d="M9.4,7.5v2.3l0,0l1.6-1.6l0,0v10.1h2.2V5.2h-1.8L9.4,7.5z"/>
	<g>
		<path class="st1" d="M18.5,10.3V9.6h0.9v0.8c0,0.3,0.1,0.5,0.4,0.5c0.3,0,0.4-0.2,0.4-0.5v-0.2c0-0.3-0.1-0.5-0.4-0.8l-0.6-0.6
			c-0.5-0.5-0.8-0.8-0.8-1.4V7.2c0-0.7,0.4-1.2,1.3-1.2s1.3,0.4,1.3,1.3v0.4h-0.8V7.2c0-0.3-0.1-0.4-0.4-0.4c-0.3,0-0.4,0.1-0.4,0.4
			v0.1c0,0.3,0.2,0.5,0.4,0.8l0.6,0.6c0.5,0.5,0.8,0.8,0.8,1.4v0.3c0,0.8-0.4,1.3-1.3,1.3C18.8,11.6,18.5,11.1,18.5,10.3z"/>
		<path class="st1" d="M24.1,6.1v4.1c0,0.8-0.4,1.4-1.3,1.4c-0.9,0-1.4-0.6-1.4-1.4V6.1h0.9v4.2c0,0.3,0.1,0.6,0.4,0.6
			c0.3,0,0.4-0.2,0.4-0.6V6.1H24.1z"/>
		<path class="st1" d="M24.5,10.3V9.6h0.9v0.8c0,0.3,0.1,0.5,0.4,0.5c0.3,0,0.4-0.2,0.4-0.5v-0.2c0-0.3-0.1-0.5-0.4-0.8l-0.6-0.6
			c-0.5-0.5-0.8-0.8-0.8-1.4V7.2c0-0.7,0.4-1.2,1.3-1.2c0.9,0,1.3,0.4,1.3,1.3v0.4h-0.8V7.2c0-0.3-0.1-0.4-0.4-0.4
			c-0.3,0-0.4,0.1-0.4,0.4v0.1c0,0.3,0.2,0.5,0.4,0.8l0.6,0.6c0.5,0.5,0.8,0.8,0.8,1.4v0.3c0,0.8-0.4,1.3-1.3,1.3
			C24.9,11.6,24.5,11.1,24.5,10.3z"/>
		<path class="st1" d="M27.3,6.1h2.5v0.8H29v4.7h-0.9V6.8h-0.8V6.1z"/>
		<path class="st1" d="M29.6,11.5l1-5.5h1.1l1.1,5.5h-0.9l-0.2-1h-1l-0.2,1H29.6z M30.7,9.8h0.8l-0.4-2.2l0,0L30.7,9.8z"/>
		<path class="st1" d="M33,6.1h0.9v5.5H33V6.1z"/>
		<path class="st1" d="M35.1,8.1v3.5h-0.8V6.1h0.9l1,3.1V6.1H37v5.5h-0.8L35.1,8.1z"/>
		<path class="st1" d="M37.3,11.5l1-5.5h1.1l1.1,5.5h-0.9l-0.2-1h-1l-0.2,1H37.3z M38.5,9.8h0.8l-0.4-2.2l0,0L38.5,9.8z"/>
		<path class="st1" d="M40.7,6.1H42c0.9,0,1.3,0.4,1.3,1.2v0.6c0,0.4-0.2,0.8-0.6,0.9c0.4,0.1,0.7,0.4,0.7,0.9v0.8
			c0,0.8-0.4,1.2-1.3,1.2h-1.4L40.7,6.1L40.7,6.1z M41.7,8.4H42c0.3,0,0.4-0.1,0.4-0.4V7.3c0-0.3-0.1-0.4-0.4-0.4h-0.3V8.4z
			 M41.7,9.1v1.7H42c0.3,0,0.4-0.1,0.4-0.4V9.5c0-0.3-0.1-0.4-0.4-0.4H41.7z"/>
		<path class="st1" d="M43.8,6.1h0.9v4.7h1.1v0.8h-2V6.1z"/>
		<path class="st1" d="M46.1,6.1h2.2v0.8h-1.3v1.6H48v0.8h-0.9v1.6h1.3v0.8h-2.2V6.1z"/>
		<path class="st1" d="M49.5,10.2V7.5c0-0.9,0.4-1.4,1.4-1.4c1,0,1.3,0.6,1.3,1.4v0.6h-0.8V7.4c0-0.3-0.1-0.5-0.4-0.5
			s-0.4,0.3-0.4,0.6v3c0,0.3,0.1,0.6,0.4,0.6s0.4-0.2,0.4-0.5v-1h0.8v0.9c0,0.8-0.3,1.4-1.3,1.4C49.9,11.6,49.5,11,49.5,10.2z"/>
		<path class="st1" d="M52.5,6.1h0.9v5.5h-0.9V6.1z"/>
		<path class="st1" d="M53.8,6.1h2.5v0.8h-0.8v4.7h-0.9V6.8h-0.8V6.1z"/>
		<path class="st1" d="M56.6,6.1h0.9v5.5h-0.9V6.1z"/>
		<path class="st1" d="M57.9,6.1h2.2v0.8h-1.3v1.6h0.9v0.8h-0.9v1.6h1.3v0.8h-2.2V6.1z"/>
		<path class="st1" d="M60.5,10.3V9.6h0.9v0.8c0,0.3,0.1,0.5,0.4,0.5c0.3,0,0.4-0.2,0.4-0.5v-0.2c0-0.3-0.1-0.5-0.4-0.8l-0.6-0.6
			c-0.5-0.5-0.8-0.8-0.8-1.4V7.2c0-0.7,0.4-1.2,1.3-1.2C62.7,6,63,6.5,63,7.3v0.4h-0.8V7.2c0-0.3-0.1-0.4-0.4-0.4
			c-0.3,0-0.4,0.1-0.4,0.4v0.1c0,0.3,0.2,0.5,0.4,0.8l0.6,0.6c0.5,0.5,0.8,0.8,0.8,1.4v0.3c0,0.8-0.4,1.3-1.3,1.3
			C60.8,11.6,60.5,11.1,60.5,10.3z"/>
		<path class="st1" d="M18.3,19.2l1-5.5h1.1l1.1,5.5h-0.9l-0.2-1h-1l-0.2,1H18.3z M19.5,17.4h0.8l-0.4-2.2l0,0L19.5,17.4z"/>
		<path class="st1" d="M22.6,15.8v3.5h-0.8v-5.5h0.9l1,3.1v-3.1h0.8v5.5h-0.8L22.6,15.8z"/>
		<path class="st1" d="M27.6,15.2v2.5c0,0.8-0.4,1.4-1.3,1.4h-1.4v-5.5h1.4C27.3,13.7,27.6,14.4,27.6,15.2z M26.1,18.5
			c0.4,0,0.5-0.3,0.5-0.6V15c0-0.3-0.1-0.6-0.5-0.6h-0.4v4L26.1,18.5L26.1,18.5z"/>
		<path class="st1" d="M28.8,17.8v-2.6c0-0.9,0.4-1.4,1.4-1.4c1,0,1.3,0.6,1.3,1.4v0.6h-0.8v-0.7c0-0.3-0.1-0.5-0.4-0.5
			s-0.4,0.3-0.4,0.6v3c0,0.3,0.1,0.6,0.4,0.6s0.4-0.2,0.4-0.5v-1h0.8v0.9c0,0.8-0.3,1.4-1.3,1.4C29.2,19.3,28.8,18.6,28.8,17.8z"/>
		<path class="st1" d="M31.9,17.8v-2.6c0-0.9,0.4-1.4,1.4-1.4c1,0,1.4,0.6,1.4,1.4v2.6c0,0.8-0.4,1.4-1.4,1.4S31.9,18.6,31.9,17.8z
			 M33.7,18v-3c0-0.3-0.1-0.6-0.5-0.6c-0.3,0-0.4,0.3-0.4,0.6v3c0,0.3,0.1,0.6,0.4,0.6C33.6,18.5,33.7,18.3,33.7,18z"/>
		<path class="st1" d="M37.6,15.6L37.6,15.6L37,19.1h-0.4l-0.7-3.5l0,0v3.5h-0.8v-5.5h1.1l0.6,3.1l0,0l0.5-3.1h1.1v5.5h-0.8
			L37.6,15.6L37.6,15.6z"/>
		<path class="st1" d="M41.4,15.6L41.4,15.6l-0.6,3.5h-0.4l-0.7-3.5l0,0v3.5h-0.8v-5.5H40l0.6,3.1l0,0l0.5-3.1h1.1v5.5h-0.8
			L41.4,15.6L41.4,15.6z"/>
		<path class="st1" d="M45.4,13.7v4.1c0,0.8-0.4,1.4-1.3,1.4c-0.9,0-1.4-0.6-1.4-1.4v-4.1h0.9V18c0,0.3,0.1,0.6,0.4,0.6
			c0.3,0,0.4-0.2,0.4-0.6v-4.2L45.4,13.7L45.4,13.7z"/>
		<path class="st1" d="M46.6,15.8v3.5h-0.8v-5.5h0.9l1,3.1v-3.1h0.8v5.5h-0.8L46.6,15.8z"/>
		<path class="st1" d="M48.9,13.7h0.9v5.5h-0.9V13.7z"/>
		<path class="st1" d="M50.1,13.7h2.5v0.8h-0.8v4.7h-0.9v-4.7h-0.8V13.7z"/>
		<path class="st1" d="M53,13.7h0.9v5.5H53V13.7z"/>
		<path class="st1" d="M54.3,13.7h2.2v0.8h-1.3v1.6h0.9v0.8h-0.9v1.6h1.3v0.8h-2.2V13.7z"/>
		<path class="st1" d="M56.8,18v-0.8h0.9V18c0,0.3,0.1,0.5,0.4,0.5s0.4-0.2,0.4-0.5v-0.2c0-0.3-0.1-0.5-0.4-0.8l-0.6-0.6
			c-0.5-0.5-0.8-0.8-0.8-1.4v-0.2c0-0.7,0.4-1.2,1.3-1.2c0.9,0,1.3,0.4,1.3,1.3v0.4h-0.8v-0.5c0-0.3-0.1-0.4-0.4-0.4
			c-0.3,0-0.4,0.1-0.4,0.4V15c0,0.3,0.2,0.5,0.4,0.8l0.6,0.6c0.5,0.5,0.8,0.8,0.8,1.4V18c0,0.8-0.4,1.3-1.3,1.3
			C57.2,19.3,56.8,18.8,56.8,18z"/>
	</g>
</g>
</svg>
