<?xml version="1.0" encoding="utf-8"?>
<!-- Generator: Adobe Illustrator 25.1.0, SVG Export Plug-In . SVG Version: 6.00 Build 0)  -->
<svg version="1.1" id="Capa_1" xmlns="http://www.w3.org/2000/svg" xmlns:xlink="http://www.w3.org/1999/xlink" x="0px" y="0px"
	 viewBox="0 0 66.2 66.2" style="enable-background:new 0 0 66.2 66.2;" xml:space="preserve">
<style type="text/css">
	.st0{fill:#00558A;}
	.st1{fill:#FFFFFF;}
</style>
<rect class="st0" width="66.2" height="66.2"/>
<path class="st1" d="M43.9,29.4c-0.4,0.5-0.5,1.1-0.5,1.7c0.2,0.6,0.6,1,1.1,1.3c0.4-0.5,0.5-1.1,0.5-1.7
	C44.9,30.1,44.4,29.7,43.9,29.4"/>
<path class="st1" d="M42.9,34.2c0.4-0.5,0.5-1.1,0.5-1.7c-0.2-0.6-0.6-1-1.1-1.3c-0.4,0.5-0.5,1.1-0.5,1.7
	C41.9,33.5,42.3,34,42.9,34.2"/>
<path class="st1" d="M45.5,33.3c0.4,0.4,0.9,0.7,1.5,0.7c0.5-0.1,1-0.4,1.3-0.9c-0.4-0.4-0.9-0.6-1.5-0.6
	C46.4,32.6,45.9,32.9,45.5,33.3"/>
<path class="st1" d="M46.6,29.7c-0.4,0.5-0.6,1.1-0.5,1.8c0.6,0.1,1.3-0.1,1.7-0.5c0.4-0.5,0.6-1.1,0.5-1.8
	C47.7,29.1,47.1,29.3,46.6,29.7"/>
<path class="st1" d="M45.2,35.9c0.6,0,1.1-0.2,1.5-0.6c-0.3-0.5-0.8-0.8-1.3-0.9c-0.6,0-1.1,0.2-1.5,0.6
	C44.2,35.4,44.7,35.7,45.2,35.9"/>
<path class="st1" d="M45.9,48.2h-5.8c-0.4,0-0.8,0.4-0.8,0.8c0,0,0,0,0,0c0,0.4,0.4,0.8,0.8,0.8h5.8c0.4,0,0.8-0.4,0.8-0.8
	C46.7,48.6,46.4,48.2,45.9,48.2C45.9,48.2,45.9,48.2,45.9,48.2"/>
<path class="st1" d="M45.9,57.2h-5.8c-0.4,0-0.8,0.4-0.8,0.8c0,0.4,0.4,0.8,0.8,0.8c0,0,0,0,0,0h5.8c0.4,0,0.8-0.4,0.8-0.8
	c0,0,0,0,0,0C46.7,57.6,46.4,57.2,45.9,57.2"/>
<path class="st1" d="M20,46.3c-0.1,0-0.3-0.1-0.4-0.1L20,46.3"/>
<path class="st1" d="M29.4,49.8c0.4,0,0.8,0,1.1,0v3h-1.1V49.8z M45.7,50.4h-5.3c-0.3,0-0.5,0.2-0.5,0.5v1.6l-3.5,0.4l-5.1-0.1v-3.1
	c0.7-0.1,1.3-0.2,2-0.4c4.9-1.4,6-4.4,5.8-7.2s0.8-4,2.1-4.5c0.4-0.1,0.7-0.2,1.1-0.3c0,0.8,0.2,1.7,0.5,2.5h0.3
	c-0.3-0.8-0.4-1.6-0.5-2.5c0.4,0,0.8,0,1.2,0c-0.4-0.2-0.8-0.5-1.1-0.8c0.3-1.2,0.9-2.2,1.8-3c0.5-0.5,1-1,1.4-1.6l-0.3-0.2
	c-0.4,0.5-0.8,1-1.2,1.5c-0.9,0.8-1.6,1.8-1.9,3c-0.3-0.3-0.6-0.5-0.8-0.8C40.5,34,39,35,36.7,37s-5,2.1-7.7-0.7
	c-3.6-3.7-6.7-3.7-8.9-3.5c1.5,0.6,2,2,2.7,5.5c0.8,3.7,2.7,5.3,5.4,5.5c-1.2,0.2-1.6,0.4-3.6,1.8c-1.6,1.1-3.8,0.7-4.7,0.5
	c1.6,0.5,3.6,2.2,5.3,2.8c1,0.4,2.1,0.6,3.2,0.7v3l-9.6-0.2v2.1l17.5-0.4l3.5,0.4v1.6c0,0.3,0.2,0.5,0.5,0.5h5.3
	c0.3,0,0.5-0.2,0.5-0.4c0,0,0,0,0,0v-5.3C46.2,50.6,46,50.4,45.7,50.4"/>
<path class="st1" d="M18.4,54.2c0,0.4-0.3,0.8-0.7,0.8h-0.4c-0.4,0-0.7-0.4-0.7-0.8v-1.4c0-0.4,0.3-0.8,0.7-0.8h0.4
	c0.4,0,0.7,0.4,0.7,0.8V54.2z"/>
<g>
	<path id="Path_462_1_" class="st1" d="M4.3,5.7V8l0,0l1.6-1.6l0,0v10.4h2.3V3.3H6.4L4.3,5.7z"/>
	<path id="Path_463_1_" class="st1" d="M14,13.8c0,0.8-0.3,1.3-1.1,1.3c-0.7,0-1-0.5-1-1.3v-2.4c0-0.7,0.4-1.2,1.1-1.2
		c0.8,0,1.1,0.5,1.1,1.3L14,13.8L14,13.8L14,13.8z M16.2,13.5v-2c0-2.3-0.9-3.4-2.5-3.4c-0.8,0-1.5,0.4-1.8,1.1l0,0v-3
		c0-0.8,0.3-1.4,1.1-1.4c0.8,0,1,0.5,1,1.3V7h2V6.3c0-2-0.7-3.4-3.1-3.4S9.7,4.4,9.7,6.5v6.6c0,2.1,0.9,3.7,3.4,3.7
		C15.3,17,16.2,15.6,16.2,13.5"/>
	<g>
		<path class="st1" d="M22,4.2h1.5c1,0,1.4,0.5,1.4,1.4v1.3c0,0.8-0.4,1.4-1.4,1.4H23v2.1h-1L22,4.2L22,4.2z M23,5v2.4h0.4
			c0.3,0,0.5-0.2,0.5-0.5V5.5c0-0.3-0.1-0.5-0.5-0.5L23,5L23,5z"/>
		<path class="st1" d="M25.4,4.2h2.4V5h-1.4v1.8h1v0.8h-1v1.8h1.4v0.8h-2.4L25.4,4.2L25.4,4.2z"/>
		<path class="st1" d="M28.3,10.2l1.2-6.1h1.2l1.2,6.1h-1l-0.2-1.1h-1.1l-0.2,1.1H28.3z M29.5,8.3h0.8l-0.4-2.4l0,0L29.5,8.3z"/>
		<path class="st1" d="M32,8.7V5.7c0-1,0.5-1.6,1.5-1.6c1.1,0,1.4,0.7,1.4,1.5v0.7H34V5.5C34,5.2,33.9,5,33.5,5S33,5.2,33,5.6v3.3
			c0,0.4,0.1,0.7,0.5,0.7S34,9.3,34,8.9V7.8H35v1c0,0.8-0.3,1.5-1.4,1.5C32.5,10.3,32,9.6,32,8.7z"/>
		<path class="st1" d="M35.5,4.2H38V5h-1.4v1.8h1v0.8h-1v1.8H38v0.8h-2.4V4.2z"/>
		<path class="st1" d="M39.6,9.3l-0.5,1.4h-0.6l0.1-1.4L39.6,9.3L39.6,9.3z"/>
		<path class="st1" d="M43.8,4.2v4.7c0,0.8-0.4,1.4-1.4,1.4c-1,0-1.4-0.6-1.4-1.4V7.7h1v1.2c0,0.3,0.1,0.5,0.4,0.5
			c0.3,0,0.4-0.2,0.4-0.5V4h1L43.8,4.2L43.8,4.2z"/>
		<path class="st1" d="M47.3,4.2v4.6c0,0.9-0.4,1.6-1.4,1.6c-1,0-1.5-0.6-1.5-1.6V4.2h1v4.7c0,0.3,0.1,0.6,0.5,0.6
			c0.3,0,0.5-0.3,0.5-0.6V4.2H47.3z"/>
		<path class="st1" d="M47.9,8.9V8.1h1V9c0,0.3,0.1,0.5,0.5,0.5c0.3,0,0.5-0.2,0.5-0.5V8.7c0-0.3-0.1-0.6-0.5-0.8l-0.6-0.6
			c-0.6-0.6-0.8-0.9-0.8-1.6V5.5c0-0.8,0.5-1.3,1.4-1.3c1,0,1.4,0.5,1.4,1.4v0.5h-0.9V5.5c0-0.3-0.1-0.5-0.5-0.5
			C49.2,5,49,5.2,49,5.5v0.1c0,0.3,0.2,0.5,0.5,0.8l0.7,0.7c0.6,0.6,0.8,0.9,0.8,1.6v0.3c0,0.8-0.5,1.4-1.5,1.4
			C48.3,10.3,47.9,9.7,47.9,8.9z"/>
		<path class="st1" d="M51.1,4.2h2.7V5H53v5.2h-1V5h-0.8V4.2z"/>
		<path class="st1" d="M54.3,4.2h1v6.1h-1V4.2z"/>
		<path class="st1" d="M55.9,8.7V5.7c0-1,0.5-1.6,1.5-1.6c1.1,0,1.4,0.7,1.4,1.5v0.7h-0.9V5.5c0-0.4-0.1-0.6-0.5-0.6
			s-0.5,0.3-0.5,0.7v3.3c0,0.4,0.1,0.7,0.5,0.7s0.5-0.3,0.5-0.6V7.8h0.9v1c0,0.8-0.3,1.5-1.4,1.5C56.3,10.3,55.9,9.6,55.9,8.7z"/>
		<path class="st1" d="M59.4,4.2h2.4V5h-1.4v1.8h1v0.8h-1v1.8h1.4v0.8h-2.4V4.2z"/>
		<path class="st1" d="M21.8,18.8l1.2-6.1h1.2l1.2,6.1h-1l-0.2-1.1H23l-0.2,1.1H21.8z M23.2,16.8h0.8l-0.4-2.4l0,0L23.2,16.8z"/>
		<path class="st1" d="M26.6,14.9v3.8h-0.8v-6.1h1l1.1,3.5v-3.5h0.8v6.1h-0.9L26.6,14.9z"/>
		<path class="st1" d="M32.3,14.3v2.8c0,0.9-0.4,1.6-1.5,1.6h-1.6v-6.1h1.6C32,12.6,32.3,13.4,32.3,14.3z M30.7,17.9
			c0.4,0,0.6-0.3,0.6-0.6v-3.2c0-0.3-0.1-0.6-0.6-0.6h-0.5V18L30.7,17.9L30.7,17.9z"/>
		<path class="st1" d="M33.8,17.4v-0.8h1v0.8c0,0.3,0.1,0.5,0.5,0.5c0.3,0,0.5-0.2,0.5-0.5v-0.3c0-0.3-0.1-0.6-0.5-0.8l-0.6-0.6
			c-0.6-0.6-0.8-0.9-0.8-1.6V14c0-0.8,0.5-1.3,1.4-1.3c1,0,1.4,0.5,1.4,1.4v0.5h-0.9V14c0-0.3-0.1-0.5-0.5-0.5
			c-0.3,0-0.5,0.1-0.5,0.5v0.1c0,0.3,0.2,0.5,0.5,0.8l0.7,0.7c0.6,0.6,0.8,0.9,0.8,1.6v0.3c0,0.8-0.5,1.4-1.5,1.4
			C34.3,19,33.8,18.3,33.8,17.4z"/>
		<path class="st1" d="M37,12.6h2.7v0.8h-0.8v5.2h-1v-5.2H37L37,12.6L37,12.6z"/>
		<path class="st1" d="M41.2,16v2.8h-1v-6.1h1.5c1,0,1.4,0.5,1.4,1.4v0.8c0,0.7-0.3,1-0.8,1.2l1,2.7h-1L41.2,16z M41.2,13.5v1.9h0.3
			c0.3,0,0.5-0.2,0.5-0.5V14c0-0.3-0.1-0.5-0.5-0.5L41.2,13.5L41.2,13.5z"/>
		<path class="st1" d="M43.6,17.2v-2.9c0-1,0.5-1.6,1.6-1.6c1.1,0,1.6,0.7,1.6,1.6v2.9c0,0.9-0.5,1.6-1.6,1.6
			C44.1,18.8,43.6,18.1,43.6,17.2z M45.7,17.3v-3.3c0-0.4-0.1-0.7-0.5-0.7c-0.3,0-0.5,0.3-0.5,0.7v3.3c0,0.4,0.1,0.7,0.5,0.7
			C45.5,18,45.7,17.7,45.7,17.3z"/>
		<path class="st1" d="M48.1,14.9v3.8h-0.8v-6.1h1l1.1,3.5v-3.5h0.8v6.1h-0.9L48.1,14.9z"/>
		<path class="st1" d="M52.4,15.5h1.4v3.3h-0.7v-0.7c-0.1,0.5-0.4,0.7-1,0.7c-0.8,0-1.3-0.7-1.3-1.6v-2.9c0-1,0.5-1.6,1.5-1.6
			c1.1,0,1.4,0.7,1.4,1.5v0.5h-0.9v-0.6c0-0.4-0.1-0.6-0.5-0.6c-0.4,0-0.5,0.3-0.5,0.7v3.3c0,0.4,0.1,0.7,0.5,0.7
			c0.3,0,0.5-0.2,0.5-0.6v-1h-0.5V15.5z"/>
		<path class="st1" d="M22,21.2h1v6.1h-1V21.2z"/>
		<path class="st1" d="M24.5,23.4v3.8h-0.8v-6.1h1l1.1,3.5v-3.5h0.8v6.1h-0.9L24.5,23.4z"/>
		<path class="st1" d="M27.1,25.9v-0.8h1V26c0,0.3,0.1,0.5,0.5,0.5c0.3,0,0.5-0.2,0.5-0.5v-0.3c0-0.3-0.1-0.6-0.5-0.8L28,24.3
			c-0.6-0.6-0.8-0.9-0.8-1.6v-0.2c0-0.8,0.5-1.3,1.4-1.3c1,0,1.4,0.5,1.4,1.4v0.5h-0.9v-0.5c0-0.3-0.1-0.5-0.5-0.5
			c-0.3,0-0.5,0.1-0.5,0.5v0.1c0,0.3,0.2,0.5,0.5,0.8l0.7,0.7c0.6,0.6,0.8,0.9,0.8,1.6v0.3c0,0.8-0.5,1.4-1.5,1.4
			C27.5,27.3,27.1,26.7,27.1,25.9z"/>
		<path class="st1" d="M30.3,21.2h2.7V22h-0.8v5.2h-1V22h-0.8L30.3,21.2L30.3,21.2z"/>
		<path class="st1" d="M33.5,21.2h1v6.1h-1V21.2z"/>
		<path class="st1" d="M35,21.2h2.7V22h-0.8v5.2h-1V22H35L35,21.2L35,21.2z"/>
		<path class="st1" d="M41.1,21.2v4.6c0,0.9-0.4,1.6-1.4,1.6c-1,0-1.5-0.6-1.5-1.6v-4.6h1v4.7c0,0.3,0.1,0.6,0.5,0.6
			c0.3,0,0.5-0.3,0.5-0.6v-4.7H41.1z"/>
		<path class="st1" d="M41.6,21.2h2.7V22h-0.8v5.2h-1V22h-0.8L41.6,21.2L41.6,21.2z"/>
		<path class="st1" d="M44.8,21.2h1v6.1h-1V21.2z"/>
		<path class="st1" d="M46.4,25.7v-2.9c0-1,0.5-1.6,1.6-1.6c1.1,0,1.6,0.7,1.6,1.6v2.9c0,0.9-0.5,1.6-1.6,1.6
			C46.9,27.3,46.4,26.6,46.4,25.7z M48.5,25.8v-3.3c0-0.4-0.1-0.7-0.5-0.7c-0.3,0-0.5,0.3-0.5,0.7v3.3c0,0.4,0.1,0.7,0.5,0.7
			C48.3,26.5,48.5,26.2,48.5,25.8z"/>
		<path class="st1" d="M50.9,23.4v3.8h-0.8v-6.1h1l1.1,3.5v-3.5H53v6.1h-0.9L50.9,23.4z"/>
		<path class="st1" d="M53.5,25.9v-0.8h1V26c0,0.3,0.1,0.5,0.5,0.5c0.3,0,0.5-0.2,0.5-0.5v-0.3c0-0.3-0.1-0.6-0.5-0.8l-0.6-0.6
			c-0.6-0.6-0.8-0.9-0.8-1.6v-0.2c0-0.8,0.5-1.3,1.4-1.3c1,0,1.4,0.5,1.4,1.4v0.5h-0.9v-0.5c0-0.3-0.1-0.5-0.5-0.5
			c-0.3,0-0.5,0.1-0.5,0.5v0.1c0,0.3,0.2,0.5,0.5,0.8l0.7,0.7c0.6,0.6,0.8,0.9,0.8,1.6v0.3c0,0.8-0.5,1.4-1.5,1.4
			S53.5,26.7,53.5,25.9z"/>
	</g>
</g>
</svg>
