<?xml version="1.0" encoding="utf-8"?>
<!-- Generator: Adobe Illustrator 25.1.0, SVG Export Plug-In . SVG Version: 6.00 Build 0)  -->
<svg version="1.1" id="Capa_1" xmlns="http://www.w3.org/2000/svg" xmlns:xlink="http://www.w3.org/1999/xlink" x="0px" y="0px"
	 viewBox="0 0 66.2 66.2" style="enable-background:new 0 0 66.2 66.2;" xml:space="preserve">
<style type="text/css">
	.st0{fill:#1A3668;}
	.st1{fill:#FFFFFF;}
</style>
<rect class="st0" width="66.2" height="66.2"/>
<path class="st1" d="M38.5,43.1c1.8-1.6,2.6-4,2.3-6.4c3,0.4,5.3,2.9,5.3,5.9c0,1.7-0.7,3.3-1.9,4.4C43.1,44.9,40.9,43.4,38.5,43.1
	 M43.5,50.5c0,3.3-2.6,5.9-5.9,5.9c-1,0-2.1-0.3-3-0.8c1.7-1.7,2.4-4.2,1.9-6.5c1.1,0.6,2.3,0.9,3.6,0.9c1.1,0,2.2-0.3,3.2-0.8
	C43.5,49.7,43.5,50.1,43.5,50.5 M23.3,50.5c0-0.4,0-0.8,0.1-1.2c2.2,1,4.7,1,6.8-0.2c-0.1,0.5-0.1,0.9-0.1,1.4
	c0,1.9,0.8,3.8,2.1,5.2c-0.9,0.5-1.9,0.8-3,0.8C26,56.4,23.4,53.8,23.3,50.5 M20.8,42.6c0-3,2.3-5.6,5.3-5.9
	c-0.3,2.4,0.5,4.8,2.4,6.5c-2.4,0.3-4.5,1.7-5.7,3.9C21.5,45.9,20.8,44.3,20.8,42.6 M33.5,31.7c2.4,0,4.5,1.4,5.4,3.6
	c-2.4,0.4-4.4,2-5.4,4.2c-1-2.2-3.1-3.8-5.5-4.2C28.9,33.1,31.1,31.7,33.5,31.7 M34.8,45.2c2.9-1.6,6.5-0.5,8,2.4
	c0,0.1,0.1,0.2,0.1,0.3c-2.9,1.5-6.5,0.4-8-2.5C35,45.3,34.9,45.2,34.8,45.2 M32.1,45.2c-1,2-3.1,3.3-5.3,3.3c-1,0-1.9-0.2-2.8-0.6
	c1.5-2.9,5-4.1,8-2.6C32,45.2,32,45.2,32.1,45.2 M27.6,36.7c2.9,0.4,5.1,2.9,5.1,5.9c0,0.3,0,0.6-0.1,0.9c-2.9-0.4-5.1-2.9-5.1-5.9
	C27.5,37.3,27.5,37,27.6,36.7 M33.5,54.7c-2.3-2.3-2.4-6-0.2-8.3c0,0,0.1-0.1,0.1-0.1c2.3,2.3,2.4,6,0.2,8.3
	C33.5,54.6,33.5,54.7,33.5,54.7 M39.4,37.6c0,2.9-2.2,5.4-5.1,5.9c0-0.3-0.1-0.6-0.1-0.9c0-2.9,2.2-5.4,5.1-5.9
	C39.3,37,39.4,37.3,39.4,37.6 M47.6,42.6c0-4-3.2-7.3-7.2-7.4c-1.4-3.9-5.6-5.9-9.5-4.5c-2.1,0.7-3.8,2.4-4.5,4.5
	c-4.1,0.1-7.3,3.6-7.2,7.7c0.1,2.2,1.1,4.2,2.9,5.6c-0.2,0.7-0.3,1.4-0.3,2.1c0,4.1,3.3,7.4,7.4,7.4c1.5,0,3-0.5,4.2-1.3
	c3.4,2.3,8,1.4,10.3-2c1.2-1.8,1.6-4.1,1-6.2C46.6,47.1,47.6,44.9,47.6,42.6"/>
<g>
	<path id="Path_492_1_" class="st1" d="M9.5,5.6v13.2H7.3V8.6l0,0l-1.6,1.6l0,0V7.9l2-2.3L9.5,5.6L9.5,5.6z"/>
	<path id="Path_493_1_" class="st1" d="M10.5,5.6h5.6v2l-2.9,11.2H11l3-11.4h-3.5L10.5,5.6L10.5,5.6z"/>
	<g>
		<path class="st1" d="M22.3,6.6h1.4c1,0,1.3,0.4,1.3,1.3V9c0,0.8-0.3,1.3-1.3,1.3h-0.4v1.9h-1V6.6z M23.2,7.4v2.2h0.3
			c0.3,0,0.4-0.1,0.4-0.4V7.8c0-0.3-0.1-0.4-0.4-0.4L23.2,7.4L23.2,7.4z"/>
		<path class="st1" d="M24.9,12.2l1-5.5H27l1.1,5.5h-1l-0.2-1h-1l-0.2,1H24.9z M26.1,10.4h0.8l-0.4-2.2l0,0L26.1,10.4z"/>
		<path class="st1" d="M29.4,9.6v2.5h-1V6.6h1.3c1,0,1.3,0.4,1.3,1.3v0.7c0,0.6-0.2,1-0.8,1.1l0.9,2.5h-1L29.4,9.6z M29.4,7.4v1.7
			h0.3c0.3,0,0.4-0.2,0.4-0.4V7.8c0-0.3-0.1-0.4-0.4-0.4H29.4z"/>
		<path class="st1" d="M31.4,6.6h2.5v0.8h-0.8v4.8h-1V7.4h-0.8V6.6z"/>
		<path class="st1" d="M35.1,8.7v3.5h-0.8V6.6h0.9l1,3.2V6.6H37v5.5h-0.8L35.1,8.7z"/>
		<path class="st1" d="M37.5,6.6h2.2v0.8h-1.3V9h1v0.8h-1v1.7h1.3v0.8h-2.2V6.6z"/>
		<path class="st1" d="M41.2,9.6v2.5h-1V6.6h1.3c1,0,1.3,0.4,1.3,1.3v0.7c0,0.6-0.2,1-0.8,1.1l0.9,2.5h-1L41.2,9.6z M41.2,7.4v1.7
			h0.3c0.3,0,0.4-0.2,0.4-0.4V7.8c0-0.3-0.1-0.4-0.4-0.4H41.2z"/>
		<path class="st1" d="M43.3,10.9v-0.8h0.9v0.8c0,0.3,0.1,0.5,0.4,0.5s0.4-0.2,0.4-0.5v-0.2c0-0.3-0.1-0.5-0.4-0.8L44,9.4
			c-0.5-0.5-0.8-0.8-0.8-1.5V7.8c0-0.7,0.4-1.2,1.3-1.2c1,0,1.3,0.4,1.3,1.3v0.4h-0.8V7.8c0-0.3-0.1-0.4-0.4-0.4
			c-0.3,0-0.4,0.1-0.4,0.4v0.1c0,0.3,0.2,0.5,0.4,0.8l0.6,0.6c0.5,0.5,0.8,0.8,0.8,1.5v0.3c0,0.8-0.4,1.3-1.3,1.3
			C43.7,12.2,43.3,11.7,43.3,10.9z"/>
		<path class="st1" d="M48.3,9.7h-0.9v2.4h-1V6.6h1V9h0.9V6.6h1v5.5h-1V9.7z"/>
		<path class="st1" d="M49.7,6.6h1v5.5h-1V6.6z"/>
		<path class="st1" d="M51.2,6.6h1.4c1,0,1.3,0.4,1.3,1.3V9c0,0.8-0.3,1.3-1.3,1.3h-0.4v1.9h-1V6.6z M52.1,7.4v2.2h0.3
			c0.3,0,0.4-0.1,0.4-0.4V7.8c0-0.3-0.1-0.4-0.4-0.4L52.1,7.4L52.1,7.4z"/>
		<path class="st1" d="M54.3,10.9v-0.8h0.9v0.8c0,0.3,0.1,0.5,0.4,0.5s0.4-0.2,0.4-0.5v-0.2c0-0.3-0.1-0.5-0.4-0.8L55,9.4
			c-0.5-0.5-0.8-0.8-0.8-1.5V7.8c0-0.7,0.4-1.2,1.3-1.2c1,0,1.3,0.4,1.3,1.3v0.4H56V7.8c0-0.3-0.1-0.4-0.4-0.4
			c-0.3,0-0.4,0.1-0.4,0.4v0.1c0,0.3,0.2,0.5,0.4,0.8l0.6,0.6c0.5,0.5,0.8,0.8,0.8,1.5v0.3c0,0.8-0.4,1.3-1.3,1.3
			C54.6,12.2,54.3,11.7,54.3,10.9z"/>
		<path class="st1" d="M22.3,14.4h2.2v0.8h-1.3v1.6h1v0.8h-1v2.4h-1L22.3,14.4L22.3,14.4z"/>
		<path class="st1" d="M24.7,18.5v-2.7c0-0.9,0.4-1.5,1.4-1.5c1,0,1.4,0.6,1.4,1.5v2.7c0,0.8-0.4,1.5-1.4,1.5
			C25.2,20,24.7,19.3,24.7,18.5z M26.6,18.6v-3c0-0.3-0.1-0.6-0.5-0.6c-0.3,0-0.4,0.3-0.4,0.6v3c0,0.3,0.1,0.6,0.4,0.6
			C26.5,19.2,26.6,18.9,26.6,18.6z"/>
		<path class="st1" d="M29.1,17.4v2.5h-1v-5.5h1.3c1,0,1.3,0.4,1.3,1.3v0.7c0,0.6-0.2,1-0.8,1.1l0.9,2.5h-1L29.1,17.4z M29.1,15.1
			v1.7h0.3c0.3,0,0.4-0.2,0.4-0.4v-0.8c0-0.3-0.1-0.4-0.4-0.4H29.1z"/>
		<path class="st1" d="M32,14.4h2.5v0.8h-0.8v4.8h-1v-4.8H32V14.4z"/>
		<path class="st1" d="M36.7,17.5h-0.9v2.4h-1v-5.5h1v2.3h0.9v-2.3h1v5.5h-1V17.5z"/>
		<path class="st1" d="M38.2,14.4h2.2v0.8h-1.3v1.6h1v0.8h-1v1.7h1.3v0.8h-2.2V14.4z"/>
		<path class="st1" d="M43.1,17h1.3v2.9h-0.7v-0.6c-0.1,0.4-0.4,0.7-0.9,0.7c-0.8,0-1.1-0.6-1.1-1.5v-2.7c0-0.9,0.4-1.5,1.4-1.5
			c1,0,1.3,0.6,1.3,1.4v0.5h-0.8v-0.6c0-0.3-0.1-0.5-0.4-0.5c-0.3,0-0.5,0.3-0.5,0.6v3c0,0.3,0.1,0.6,0.4,0.6s0.4-0.2,0.4-0.5v-1
			h-0.4V17z"/>
		<path class="st1" d="M45,18.5v-2.7c0-0.9,0.4-1.5,1.4-1.5c1,0,1.4,0.6,1.4,1.5v2.7c0,0.8-0.4,1.5-1.4,1.5C45.4,20,45,19.3,45,18.5
			z M46.9,18.6v-3c0-0.3-0.1-0.6-0.5-0.6c-0.3,0-0.4,0.3-0.4,0.6v3c0,0.3,0.1,0.6,0.4,0.6C46.8,19.2,46.9,18.9,46.9,18.6z"/>
		<path class="st1" d="M48.1,19.9l1-5.5h1.1l1.1,5.5h-1l-0.2-1h-1l-0.2,1H48.1z M49.2,18.1H50l-0.4-2.2l0,0L49.2,18.1z"/>
		<path class="st1" d="M51.6,14.4h1v4.8h1.1v0.8h-2V14.4z"/>
		<path class="st1" d="M54,18.7v-0.8h0.9v0.8c0,0.3,0.1,0.5,0.4,0.5s0.4-0.2,0.4-0.5v-0.2c0-0.3-0.1-0.5-0.4-0.8l-0.6-0.6
			c-0.5-0.5-0.8-0.8-0.8-1.5v-0.2c0-0.7,0.4-1.2,1.3-1.2c1,0,1.3,0.4,1.3,1.3V16h-0.8v-0.5c0-0.3-0.1-0.4-0.4-0.4
			c-0.3,0-0.4,0.1-0.4,0.4v0.1c0,0.3,0.2,0.5,0.4,0.8l0.6,0.6c0.5,0.5,0.8,0.8,0.8,1.5v0.3c0,0.8-0.4,1.3-1.3,1.3
			C54.4,20,54,19.5,54,18.7z"/>
	</g>
</g>
</svg>
