<?xml version="1.0" encoding="utf-8"?>
<!-- Generator: Adobe Illustrator 25.1.0, SVG Export Plug-In . SVG Version: 6.00 Build 0)  -->
<svg version="1.1" id="Capa_1" xmlns="http://www.w3.org/2000/svg" xmlns:xlink="http://www.w3.org/1999/xlink" x="0px" y="0px"
	 viewBox="0 0 66.2 66.2" style="enable-background:new 0 0 66.2 66.2;" xml:space="preserve">
<style type="text/css">
	.st0{fill:#40AE49;}
	.st1{fill:#FFFFFF;}
</style>
<rect class="st0" width="66.2" height="66.2"/>
<path class="st1" d="M26.6,46.1h1.8c0.1,0,0.1,0.1,0.1,0.1v4.3c0,0.1-0.1,0.1-0.1,0.1h-1.8c-0.1,0-0.1-0.1-0.1-0.1v-4.3
	C26.5,46.1,26.5,46.1,26.6,46.1z"/>
<path class="st1" d="M47.7,52.5H18.7c-0.1,0-0.1,0.1-0.1,0.1v1.8c0,0.1,0.1,0.1,0.1,0.1c0,0,0,0,0,0h28.9c0.1,0,0.1-0.1,0.1-0.1
	c0,0,0,0,0,0v-1.8C47.8,52.6,47.7,52.5,47.7,52.5"/>
<path class="st1" d="M47.7,56H18.7c-0.1,0-0.1,0-0.1,0.1c0,0,0,0,0,0V58c0,0.1,0.1,0.1,0.1,0.1c0,0,0,0,0,0h28.9
	c0.1,0,0.1-0.1,0.1-0.1c0,0,0,0,0,0v-1.8C47.8,56.1,47.7,56,47.7,56C47.7,56,47.7,56,47.7,56"/>
<path class="st1" d="M42.2,41.3c-0.7-0.6-1.6-0.9-2.5-0.9c-0.9,0-1.7,0.4-2.3,1c-0.1,0-0.1,0.1-0.1,0.2v0.2c0,0.1,0,0.1,0.1,0.2
	c0.1,0,0.1,0,0.2,0l0,0c0.1,0,0.1,0,0.2-0.1c0.4-0.2,0.8-0.3,1.2-0.2c1.1,0,2.2,0.5,3,1.2l0,0c0.1,0.1,0.2,0.1,0.3,0.1
	c0.1,0,0.2,0,0.2-0.1l0,0c0.8-0.8,1.9-1.2,3-1.2c0.4,0,0.8,0.1,1.2,0.2c0,0,0.1,0.1,0.2,0.1c0.1,0,0.1,0,0.2,0
	c0.1,0,0.2-0.1,0.2-0.2v-0.1c0-0.1,0-0.1-0.1-0.2c-0.6-0.6-1.5-1-2.4-1C43.7,40.3,42.8,40.7,42.2,41.3"/>
<path class="st1" d="M40.3,29.7c-0.1,0-0.1,0.1-0.1,0.1V30c0,0.1,0,0.2,0,0.2c0,0.1,0.1,0.1,0.2,0.1l0,0c0,0,0.1,0,0.1,0
	c0.1,0,0.1,0,0.2,0c0.9,0.1,1.7,0.6,2.1,1.4l0,0c0,0.1,0.1,0.1,0.2,0.1h0.1c0,0,0.1,0,0.1,0l0,0c0.4-0.2,0.8-0.3,1.3-0.3
	c0.5,0,0.9,0.1,1.3,0.4c0,0,0.1,0.1,0.1,0.1H46h0.1h0.1c0.1,0,0.1-0.1,0.1-0.1v-0.1c0,0,0,0,0-0.1c0,0,0-0.1,0-0.1
	c-0.4-0.7-1.2-1.2-2-1.2c-0.3,0-0.7,0.1-1,0.2c-0.5-0.7-1.2-1.1-2-1.1c-0.4,0-0.8,0.1-1.1,0.3"/>
<path class="st1" d="M34.2,34.2v0.1c0,0.1,0,0.2,0.1,0.2c0.1,0,0.1,0,0.2,0l0,0c0,0,0.1-0.1,0.1-0.1c0.3-0.2,0.7-0.3,1.1-0.2
	c0.8,0,1.6,0.3,2.3,0.9l0,0c0.1,0,0.1,0.1,0.2,0.1l0,0c0.1,0,0.2,0,0.2-0.1l0,0c0.6-0.7,1.6-1.2,2.5-1.2c0.3,0,0.5,0,0.8,0.1
	c0,0,0.1,0.1,0.2,0.1h0.2c0.1,0,0.2-0.1,0.2-0.2v-0.1c0-0.1,0-0.1-0.1-0.2c-0.5-0.5-1.2-0.7-1.8-0.7c-0.8,0-1.6,0.4-2.2,0.9
	c-0.6-0.4-1.2-0.6-1.9-0.6c-0.8,0-1.5,0.4-2.1,1C34.2,34.1,34.1,34.2,34.2,34.2"/>
<path class="st1" d="M19.6,36.5c0-1.7,1.4-3.1,3.1-3.1h0.2c0.2-2.3,2.2-4.1,4.5-3.9c2.2,0.2,4,2,4,4.3c0,0.6-0.1,1.3-0.4,1.9
	c2.6,0.6,4.2,3.1,3.6,5.6c-0.5,2.2-2.4,3.7-4.6,3.7h-6.3c-1.9,0-3.4-1.5-3.4-3.4c0-0.9,0.3-1.7,0.9-2.3
	C20.2,38.7,19.6,37.7,19.6,36.5"/>
<g>
	<path id="Path_425_1_" class="st1" d="M5.4,7.6V10l0,0L7,8.3l0,0V19h2.3V5.2H7.5L5.4,7.6z"/>
	<path id="Path_426_1_" class="st1" d="M14.9,9.4c-0.8-0.1-1.5,0.3-2,0.9l0,0V6.9H17V5h-6.1v7.8h2.1v-0.3c0-0.8,0.4-1.3,1.1-1.3
		c0.7,0,1.1,0.5,1.1,1.3v3.3c0,0.7-0.3,1.3-0.9,1.3c-0.8,0-1.1-0.5-1.1-1.3v-1.7H11v1.6c0,2.1,0.8,3.5,3.2,3.5s3.3-1.3,3.3-3.1v-3.5
		C17.3,10.4,16.1,9.4,14.9,9.4"/>
	<g>
		<path class="st1" d="M22.5,6.2h1v5h1.1V12h-2.1V6.2z"/>
		<path class="st1" d="M25.1,6.2h1V12h-1V6.2z"/>
		<path class="st1" d="M26.6,6.2h2.3V7h-1.3v1.7h1v0.8h-1V12h-0.9V6.2z"/>
		<path class="st1" d="M29.4,6.2h2.3V7h-1.3v1.7h1v0.8h-1v1.7h1.3V12h-2.3V6.2z"/>
		<path class="st1" d="M22.5,18.6v-2.8c0-0.9,0.5-1.5,1.5-1.5c1.1,0,1.5,0.7,1.5,1.5v2.8c0,0.9-0.5,1.5-1.5,1.5
			C23,20.2,22.5,19.5,22.5,18.6z M24.5,18.8v-3.1c0-0.3-0.1-0.6-0.5-0.6c-0.3,0-0.5,0.3-0.5,0.6v3.1c0,0.3,0.1,0.6,0.5,0.6
			S24.5,19.1,24.5,18.8z"/>
		<path class="st1" d="M26.8,16.5v3.7H26v-5.8H27l1.1,3.3v-3.3h0.8v5.8H28L26.8,16.5z"/>
		<path class="st1" d="M31.2,14.3h1v5h1.1v0.8h-2.1V14.3z"/>
		<path class="st1" d="M33.6,20.1l1.1-5.8h1.1l1.1,5.8h-1L35.7,19h-1.1l-0.2,1.1H33.6z M34.8,18.3h0.8l-0.4-2.3l0,0L34.8,18.3z"/>
		<path class="st1" d="M38.1,16.5v3.7h-0.9v-5.8h0.9l1.1,3.3v-3.3h0.8v5.8h-0.8L38.1,16.5z"/>
		<path class="st1" d="M43.6,15.9v2.7c0,0.9-0.4,1.5-1.4,1.5h-1.5v-5.8h1.5C43.2,14.3,43.6,15,43.6,15.9z M42.1,19.3
			c0.4,0,0.5-0.3,0.5-0.6v-3.1c0-0.3-0.1-0.6-0.5-0.6h-0.4v4.2L42.1,19.3L42.1,19.3z"/>
	</g>
</g>
</svg>
