<?xml version="1.0" encoding="utf-8"?>
<!-- Generator: Adobe Illustrator 25.1.0, SVG Export Plug-In . SVG Version: 6.00 Build 0)  -->
<svg version="1.1" id="Capa_1" xmlns="http://www.w3.org/2000/svg" xmlns:xlink="http://www.w3.org/1999/xlink" x="0px" y="0px"
	 viewBox="0 0 66.2 66.2" style="enable-background:new 0 0 66.2 66.2;" xml:space="preserve">
<style type="text/css">
	.st0{fill:#C22033;}
	.st1{fill:#FFFFFF;}
</style>
<rect class="st0" width="66.2" height="66.2"/>
<polygon class="st1" points="29.4,35.5 17.5,28.6 17.5,50.8 29.4,54.4 "/>
<polygon class="st1" points="30.7,35.5 30.7,54.4 42.6,50.8 42.6,28.6 "/>
<polygon class="st1" points="49.5,50.4 49.1,50.4 50.5,55.3 51.9,50.4 51.6,50.4 51.9,50.4 51.9,30.7 51.6,30.7 51.2,30.7 
	50.8,30.7 50.2,30.7 49.8,30.7 49.5,30.7 49.1,30.7 49.1,50.4 "/>
<polygon class="st1" points="45.2,29.6 43.9,28.6 43.9,51.4 30.7,55.7 30.1,55.7 30,55.7 29.4,55.7 16.2,52 16.2,28.6 14.9,29.6 
	14.9,52.9 29.3,56.8 30,56.8 30.1,56.8 30.8,56.8 44,52.7 45.2,52.3 "/>
<path class="st1" d="M51.9,28.1c0.1-0.8-0.5-1.5-1.3-1.5c-0.8-0.1-1.5,0.5-1.5,1.3c0,0.1,0,0.2,0,0.2v1.5h2.8V28.1z"/>
<g>
	<path id="Path_115_1_" class="st1" d="M7.9,15.5L10,9.7l0,0v5.7H7.9z M10,19.6h2.2v-2.4h0.9v-1.9h-0.9V5.5H9.8L5.7,15.7v1.5h4.2
		L10,19.6z"/>
	<g>
		<path class="st1" d="M20.4,11.2v-0.4c-0.8-0.1-1.1-0.7-1.1-1.6v-3c0-0.9,0.5-1.7,1.6-1.7c1.1,0,1.6,0.7,1.6,1.7v3
			c0,0.7-0.2,1.2-0.7,1.5l0.7,0.1v0.7L20.4,11.2z M21.3,9.5V6.1c0-0.4-0.1-0.6-0.5-0.6c-0.3,0-0.5,0.3-0.5,0.6v3.4
			c0,0.3,0.1,0.6,0.5,0.6C21.2,10.1,21.3,9.8,21.3,9.5z"/>
		<path class="st1" d="M25.9,4.7v4.7c0,0.9-0.4,1.6-1.5,1.6c-1.1,0-1.6-0.6-1.6-1.6V4.7h1v4.7c0,0.3,0.1,0.6,0.5,0.6
			c0.3,0,0.5-0.3,0.5-0.6V4.7H25.9z"/>
		<path class="st1" d="M26.2,10.8l1.1-6.1h1.1l1.1,6.1h-1l-0.2-1.1h-1.1l-0.2,1.1H26.2z M27.5,8.9h0.8l-0.4-2.5l0,0L27.5,8.9z"/>
		<path class="st1" d="M30.1,4.7h1V10h1.2v0.9h-2.3L30.1,4.7L30.1,4.7L30.1,4.7z"/>
		<path class="st1" d="M32.9,4.7h1v6.1h-1V4.7z"/>
		<path class="st1" d="M34.4,4.7h2.8v0.9h-0.9v5.3h-1V5.6h-0.9L34.4,4.7L34.4,4.7z"/>
		<path class="st1" d="M39.6,8.5v2.4h-1V8.5l-1.1-3.8h1.1l0.6,2.4l0,0l0.6-2.4h1L39.6,8.5z"/>
		<path class="st1" d="M19.2,13.3h2.5v0.9h-1.4v1.8h1v0.8h-1v1.9h1.4v0.9h-2.5V13.3z"/>
		<path class="st1" d="M25.3,14.9v2.8c0,0.9-0.4,1.6-1.5,1.6h-1.6v-6.1h1.6C24.9,13.3,25.3,14,25.3,14.9z M23.7,18.6
			c0.4,0,0.6-0.3,0.6-0.6v-3.2c0-0.3-0.1-0.6-0.6-0.6h-0.5v4.5H23.7z"/>
		<path class="st1" d="M28.9,13.3V18c0,0.9-0.4,1.6-1.5,1.6c-1.1,0-1.6-0.6-1.6-1.6v-4.7h1V18c0,0.3,0.1,0.6,0.5,0.6
			c0.3,0,0.5-0.3,0.5-0.6v-4.7H28.9z"/>
		<path class="st1" d="M29.5,17.8v-3c0-0.9,0.5-1.7,1.6-1.7c1.1,0,1.5,0.6,1.5,1.6v0.7h-0.9v-0.8c0-0.4-0.1-0.6-0.5-0.6
			c-0.4,0-0.5,0.3-0.5,0.6V18c0,0.4,0.1,0.6,0.5,0.6c0.4,0,0.5-0.2,0.5-0.6v-1.1h0.9v1.1c0,0.9-0.3,1.6-1.5,1.6
			C29.9,19.5,29.5,18.8,29.5,17.8z"/>
		<path class="st1" d="M32.8,19.5l1.1-6.1h1.1l1.1,6.1h-1.1L35,18.3h-1.1l-0.2,1.1H32.8z M34.1,17.5h0.8L34.5,15l0,0L34.1,17.5z"/>
		<path class="st1" d="M36.2,13.3H39v0.9h-0.9v5.3h-1v-5.3h-0.9V13.3z"/>
		<path class="st1" d="M39.4,13.3h1v6.1h-1V13.3z"/>
		<path class="st1" d="M41.1,17.8v-3c0-0.9,0.5-1.7,1.6-1.7c1.1,0,1.6,0.7,1.6,1.7v3c0,0.9-0.5,1.7-1.6,1.7
			C41.5,19.5,41.1,18.8,41.1,17.8z M43.1,18v-3.3c0-0.4-0.1-0.6-0.5-0.6c-0.3,0-0.5,0.3-0.5,0.6V18c0,0.4,0.1,0.6,0.5,0.6
			C42.9,18.6,43.1,18.4,43.1,18z"/>
		<path class="st1" d="M45.6,15.6v3.8h-0.9v-6.1h1l1.1,3.5v-3.5h0.9v6.1h-0.9L45.6,15.6z"/>
	</g>
</g>
</svg>
