<?xml version="1.0" encoding="utf-8"?>
<!-- Generator: Adobe Illustrator 25.1.0, SVG Export Plug-In . SVG Version: 6.00 Build 0)  -->
<svg version="1.1" id="Capa_1" xmlns="http://www.w3.org/2000/svg" xmlns:xlink="http://www.w3.org/1999/xlink" x="0px" y="0px"
	 viewBox="0 0 66.2 66.2" style="enable-background:new 0 0 66.2 66.2;" xml:space="preserve">
<style type="text/css">
	.st0{fill:#E01A83;}
	.st1{fill:#FFFFFF;}
</style>
<rect class="st0" width="66.2" height="66.2"/>
<path class="st1" d="M39,43.5H26.8c-0.1,0-0.1,0.1-0.1,0.1c0,0,0,0,0,0v3.7c0,0.1,0.1,0.1,0.1,0.1c0,0,0,0,0,0H39
	c0.1,0,0.1-0.1,0.1-0.2v-3.7C39.1,43.6,39.1,43.5,39,43.5C39,43.5,39,43.5,39,43.5"/>
<path class="st1" d="M39,35.7H26.8c-0.1,0-0.1,0.1-0.1,0.1c0,0,0,0,0,0v3.7c0,0.1,0.1,0.1,0.1,0.1c0,0,0,0,0,0H39
	c0.1,0,0.1-0.1,0.1-0.2v-3.7C39.1,35.7,39.1,35.7,39,35.7"/>
<path class="st1" d="M38.9,30.1L33,24.2c0,0-0.1,0-0.2,0L27,30.1c0,0-0.1,0.1,0,0.1c0,0,0.1,0,0.1,0h11.7
	C38.9,30.3,38.9,30.2,38.9,30.1C38.9,30.1,38.9,30.1,38.9,30.1"/>
<path class="st1" d="M44.4,47.5l5.9-5.9c0,0,0-0.1,0-0.1l-5.9-5.9c0,0-0.1,0-0.2,0c0,0,0,0,0,0.1v11.8
	C44.2,47.5,44.3,47.6,44.4,47.5C44.4,47.6,44.4,47.6,44.4,47.5"/>
<path class="st1" d="M27,53.1l5.8,5.9c0,0,0.1,0,0.2,0c0,0,0,0,0,0l5.9-5.9c0,0,0-0.1,0-0.1c0,0,0,0-0.1,0H27
	C26.9,52.9,26.9,53,27,53.1C26.9,53.1,26.9,53.1,27,53.1"/>
<path class="st1" d="M21.4,35.6l-5.9,5.9c0,0,0,0.1,0,0.1l5.9,5.9c0,0,0.1,0,0.1,0c0,0,0-0.1,0-0.1V35.7
	C21.6,35.6,21.6,35.6,21.4,35.6C21.5,35.6,21.4,35.6,21.4,35.6"/>
<g>
	<path id="Path_285_1_" class="st1" d="M11.5,9.1v10.1h2.2V6h-1.8l-2,2.3v2.3l0,0L11.5,9.1L11.5,9.1z"/>
	<path id="Path_286_1_" class="st1" d="M17.4,16.1V9c0-0.8,0.3-1.4,1.1-1.4c0.8,0,1.1,0.6,1.1,1.4v7.2c0,0.8-0.3,1.4-1.1,1.4
		C17.7,17.5,17.4,17.1,17.4,16.1 M21.7,15.8V9.3c0-2-1-3.6-3.3-3.6s-3.3,1.5-3.3,3.6v6.5c0,2,1,3.6,3.3,3.6
		C20.8,19.4,21.7,17.9,21.7,15.8"/>
	<g>
		<path class="st1" d="M26.7,9.3v2.5h-1V6.4h1.3c1,0,1.3,0.4,1.3,1.3v0.7c0,0.6-0.2,1-0.8,1.1l0.9,2.5h-1L26.7,9.3z M26.7,7.1v1.7
			H27c0.3,0,0.4-0.2,0.4-0.4V7.6c0-0.3-0.1-0.4-0.4-0.4H26.7z"/>
		<path class="st1" d="M28.8,6.4h2.2v0.8h-1.3v1.6h1v0.8h-1v1.6h1.3v0.8h-2.2V6.4z"/>
		<path class="st1" d="M34.4,7.8v2.5c0,0.8-0.4,1.5-1.3,1.5h-1.5V6.3H33C34,6.4,34.4,7,34.4,7.8z M32.9,11.1c0.4,0,0.5-0.3,0.5-0.6
			V7.6c0-0.3-0.1-0.6-0.5-0.6h-0.4v4L32.9,11.1L32.9,11.1z"/>
		<path class="st1" d="M37.6,6.4v4.2c0,0.8-0.4,1.4-1.3,1.4c-1,0-1.4-0.6-1.4-1.4V6.4h1v4.2c0,0.3,0.1,0.6,0.4,0.6
			c0.3,0,0.4-0.2,0.4-0.6V6.4H37.6z"/>
		<path class="st1" d="M38.1,10.5V7.8c0-0.9,0.4-1.5,1.4-1.5c1,0,1.3,0.6,1.3,1.4v0.6H40V7.7c0-0.3-0.1-0.5-0.4-0.5
			s-0.4,0.3-0.4,0.6v3c0,0.3,0.1,0.6,0.4,0.6s0.4-0.2,0.4-0.5v-1h0.8v1c0,0.8-0.3,1.4-1.3,1.4C38.5,11.9,38.1,11.3,38.1,10.5z"/>
		<path class="st1" d="M41.3,6.4h2.2v0.8h-1.3v1.6h1v0.8h-1v1.6h1.3v0.8h-2.2L41.3,6.4L41.3,6.4z"/>
		<path class="st1" d="M46.8,7.8v2.5c0,0.8-0.4,1.5-1.3,1.5H44V6.3h1.5C46.4,6.4,46.8,7,46.8,7.8z M45.3,11.1c0.4,0,0.5-0.3,0.5-0.6
			V7.6c0-0.3-0.1-0.6-0.5-0.6h-0.4v4L45.3,11.1L45.3,11.1z"/>
		<path class="st1" d="M25.7,14.1h1v5.5h-1V14.1z"/>
		<path class="st1" d="M27.9,16.1v3.5h-0.8v-5.5h0.9l1,3.2v-3.2h0.8v5.5H29L27.9,16.1z"/>
		<path class="st1" d="M30.4,14.1h2.2v0.8h-1.3v1.6h1v0.8h-1v1.6h1.3v0.8h-2.2V14.1z"/>
		<path class="st1" d="M34.1,20v-0.4c-0.8-0.1-1.1-0.7-1.1-1.4v-2.7c0-0.9,0.4-1.5,1.4-1.5c1,0,1.4,0.6,1.4,1.5v2.7
			c0,0.6-0.2,1.1-0.7,1.3l0.7,0.1v0.7L34.1,20z M34.9,18.4v-3c0-0.3-0.1-0.6-0.5-0.6c-0.3,0-0.4,0.3-0.4,0.6v3
			c0,0.3,0.1,0.6,0.4,0.6C34.8,19,34.9,18.7,34.9,18.4z"/>
		<path class="st1" d="M39,14.1v4.2c0,0.8-0.4,1.4-1.3,1.4c-1,0-1.4-0.6-1.4-1.4v-4.2h1v4.2c0,0.3,0.1,0.6,0.4,0.6
			c0.3,0,0.4-0.2,0.4-0.6v-4.2L39,14.1L39,14.1z"/>
		<path class="st1" d="M39.3,19.6l1-5.5h1.1l1.1,5.5h-1l-0.2-1h-1l-0.2,1H39.3z M40.5,17.8h0.8l-0.4-2.2l0,0L40.5,17.8z"/>
		<path class="st1" d="M42.9,14.1h1v4.8h1.1v0.8h-2V14.1z"/>
		<path class="st1" d="M45.3,14.1h1v5.5h-1V14.1z"/>
		<path class="st1" d="M46.7,14.1h2.5v0.8h-0.8v4.8h-1v-4.8h-0.8V14.1z"/>
		<path class="st1" d="M49.6,14.1h1v5.5h-1V14.1z"/>
		<path class="st1" d="M51,14.1h2.2v0.8H52v1.6h1v0.8h-1v1.6h1.3v0.8H51V14.1z"/>
		<path class="st1" d="M53.6,18.4v-0.8h0.9v0.8c0,0.3,0.1,0.5,0.4,0.5s0.4-0.2,0.4-0.5v-0.2c0-0.3-0.1-0.5-0.4-0.8l-0.6-0.6
			c-0.5-0.5-0.8-0.8-0.8-1.5v-0.2c0-0.7,0.4-1.2,1.3-1.2c1,0,1.3,0.4,1.3,1.3v0.4h-0.8v-0.5c0-0.3-0.1-0.4-0.4-0.4
			c-0.3,0-0.4,0.1-0.4,0.4v0.1c0,0.3,0.2,0.5,0.4,0.8l0.6,0.6c0.5,0.5,0.8,0.8,0.8,1.5v0.3c0,0.8-0.4,1.3-1.3,1.3
			C54,19.7,53.6,19.2,53.6,18.4z"/>
	</g>
</g>
</svg>
