<?xml version="1.0" encoding="utf-8"?>
<!-- Generator: Adobe Illustrator 25.2.1, SVG Export Plug-In . SVG Version: 6.00 Build 0)  -->
<svg version="1.1" id="Layer_1" xmlns="http://www.w3.org/2000/svg" xmlns:xlink="http://www.w3.org/1999/xlink" x="0px" y="0px"
	 viewBox="0 0 827.8 827.8" style="enable-background:new 0 0 827.8 827.8;" xml:space="preserve">
<style type="text/css">
	.st0{opacity:0.25;}
	.st1{fill:#E7ECED;}
	.st2{fill:#6AAAE4;}
	.st3{fill:#FFFFFF;}
	.st4{fill:#0071CE;}
	.st5{fill:#7F3F97;}
	.st6{fill:#002F87;}
	.st7{fill:#FFB71B;}
	.st8{fill:#A87C4F;}
	.st9{fill:#F27B21;}
	.st10{fill:#76BC21;}
</style>
<g class="st0">
	<path class="st1" d="M413.9,790.8c209,0,378.3-168.7,378.3-376.9S622.9,37,413.9,37S35.6,205.7,35.6,413.9S204.9,790.8,413.9,790.8
		"/>
</g>
<g>
	<path class="st2" d="M632.5,195.3c-58.4-58.4-136-90.5-218.6-90.5c-82.6,0-160.2,32.2-218.6,90.5c-58.4,58.4-90.5,136-90.5,218.6
		c0,82.6,32.2,160.2,90.5,218.6c58.4,58.4,136,90.5,218.6,90.5s160.2-32.2,218.6-90.5c58.4-58.4,90.5-136,90.5-218.6
		S690.9,253.7,632.5,195.3z M568.2,568.2c-41.2,41.2-96,63.9-154.3,63.9s-113.1-22.7-154.3-63.9c-41.2-41.2-63.9-96-63.9-154.3
		c0-58.3,22.7-113.1,63.9-154.3c41.2-41.2,96-63.9,154.3-63.9s113.1,22.7,154.3,63.9s63.9,96,63.9,154.3
		C632.1,472.2,609.4,527,568.2,568.2z"/>
	<path class="st3" d="M413.9,227.4c-102.8,0-186.4,83.6-186.4,186.4s83.6,186.4,186.4,186.4c102.8,0,186.4-83.6,186.4-186.4
		S516.7,227.4,413.9,227.4z M413.9,558.5c-79.7,0-144.6-64.9-144.6-144.6s64.9-144.6,144.6-144.6s144.6,64.9,144.6,144.6
		S493.6,558.5,413.9,558.5z"/>
	<g>
		<g>
			<path class="st3" d="M345.6,698.9l-1.7-0.4l0.3-1.2l4.8,1.1l-0.3,1.2l-1.7-0.4l-1.2,5l-1.4-0.3L345.6,698.9z"/>
			<path class="st3" d="M351.1,698.9l-0.5,2.4l2.3,0.5l0.5-2.4l1.4,0.3l-1.4,6.2l-1.4-0.3l0.6-2.6l-2.3-0.5l-0.6,2.6l-1.4-0.3
				l1.4-6.2L351.1,698.9z"/>
			<path class="st3" d="M356,700.1c0.5,0,1.2,0.1,1.9,0.2c0.9,0.2,1.6,0.4,1.9,0.9c0.3,0.4,0.4,0.8,0.3,1.4
				c-0.2,0.8-0.8,1.2-1.4,1.3l0,0c0.4,0.3,0.6,0.7,0.6,1.3c0.1,0.7,0.1,1.6,0.2,1.9l-1.4-0.3c-0.1-0.2-0.1-0.7-0.2-1.5
				c0-0.8-0.2-1.1-0.8-1.2l-0.4-0.1l-0.5,2.5l-1.4-0.3L356,700.1z M356.9,703l0.6,0.1c0.7,0.1,1.2-0.1,1.3-0.7
				c0.1-0.6-0.2-0.9-0.9-1.1c-0.3-0.1-0.5-0.1-0.6-0.1L356.9,703z"/>
			<path class="st3" d="M366.6,705.1c-0.4,2.1-1.8,3.1-3.7,2.8c-1.9-0.3-2.7-1.9-2.4-3.7c0.3-1.9,1.8-3.1,3.6-2.8
				C366.1,701.7,366.9,703.4,366.6,705.1z M362.1,704.4c-0.2,1.2,0.2,2.2,1.2,2.4c1,0.2,1.7-0.7,1.9-1.9c0.2-1.1-0.2-2.2-1.2-2.4
				C363,702.4,362.3,703.2,362.1,704.4z"/>
			<path class="st3" d="M369.4,702.4l-0.5,3.6c-0.2,1.1,0.2,1.7,0.9,1.8c0.7,0.1,1.2-0.3,1.4-1.5l0.5-3.6l1.4,0.2l-0.5,3.5
				c-0.3,1.9-1.4,2.7-3.1,2.5c-1.6-0.2-2.4-1.3-2.1-3.3l0.5-3.5L369.4,702.4z"/>
			<path class="st3" d="M378.8,709.8c-0.5,0.1-1.3,0.2-2.2,0.1c-1.2-0.1-2-0.5-2.5-1.2c-0.5-0.6-0.7-1.5-0.6-2.4
				c0.3-2.1,2-3.1,4-2.8c0.8,0.1,1.4,0.3,1.7,0.5l-0.4,1.1c-0.3-0.2-0.7-0.4-1.4-0.5c-1.2-0.2-2.2,0.4-2.4,1.8
				c-0.2,1.3,0.6,2.2,1.7,2.3c0.3,0,0.6,0,0.7,0l0.2-1.3l-1-0.1l0.1-1.1l2.4,0.3L378.8,709.8z"/>
			<path class="st3" d="M382.2,704l-0.3,2.4l2.4,0.2l0.3-2.4l1.4,0.1l-0.7,6.3l-1.4-0.1l0.3-2.7l-2.4-0.2l-0.3,2.7l-1.4-0.2l0.7-6.3
				L382.2,704z"/>
			<path class="st3" d="M394.5,708.3c-0.2,2.1-1.5,3.2-3.4,3.1c-1.9-0.1-2.9-1.6-2.7-3.5c0.1-1.9,1.5-3.2,3.3-3.1
				C393.6,705,394.6,706.5,394.5,708.3z M389.9,708c-0.1,1.2,0.4,2.2,1.4,2.2c1,0.1,1.6-0.8,1.7-2c0.1-1.1-0.4-2.2-1.4-2.2
				C390.6,705.9,390,706.8,389.9,708z"/>
			<path class="st3" d="M397,705.3l-0.2,3.7c-0.1,1.1,0.3,1.7,1.1,1.7c0.8,0,1.2-0.5,1.3-1.6l0.2-3.7l1.4,0.1l-0.2,3.6
				c-0.1,2-1.1,2.8-2.8,2.8c-1.6-0.1-2.5-1-2.4-3.1l0.2-3.5L397,705.3z"/>
			<path class="st3" d="M402,705.6c0.5-0.1,1.2-0.1,1.9-0.1c0.9,0,1.6,0.2,2,0.6c0.4,0.3,0.6,0.8,0.5,1.4c0,0.8-0.6,1.4-1.2,1.5l0,0
				c0.4,0.2,0.7,0.6,0.8,1.2c0.2,0.7,0.3,1.6,0.5,1.8l-1.5,0c-0.1-0.2-0.2-0.7-0.4-1.5c-0.1-0.8-0.4-1-1-1.1l-0.4,0l-0.1,2.5l-1.4,0
				L402,705.6z M403.3,708.4l0.6,0c0.7,0,1.2-0.3,1.2-0.9c0-0.6-0.4-0.9-1-0.9c-0.3,0-0.5,0-0.7,0L403.3,708.4z"/>
			<path class="st3" d="M410.3,712.1l-1.4-6.4l1.5,0l0.4,2.6c0.1,0.8,0.2,1.6,0.3,2.2l0,0c0.1-0.7,0.3-1.5,0.5-2.2l0.6-2.6l1.5,0
				l0.5,2.7c0.1,0.7,0.2,1.4,0.3,2.1l0,0c0.1-0.7,0.3-1.5,0.4-2.2l0.6-2.6l1.5,0l-1.7,6.3l-1.6,0l-0.5-2.8c-0.1-0.6-0.2-1.2-0.3-2
				l0,0c-0.1,0.7-0.2,1.3-0.4,2l-0.6,2.7L410.3,712.1z"/>
			<path class="st3" d="M419,710.4l-0.4,1.6l-1.5,0l1.8-6.4l1.9,0l2.1,6.3l-1.6,0l-0.5-1.6L419,710.4z M420.6,709.3l-0.4-1.3
				c-0.1-0.4-0.2-0.8-0.3-1.2l0,0c-0.1,0.4-0.2,0.9-0.3,1.2l-0.4,1.4L420.6,709.3z"/>
			<path class="st3" d="M424.7,711.9l-0.1-2.6l-2.2-3.7l1.6-0.1l0.7,1.5c0.2,0.5,0.4,0.8,0.5,1.2l0,0c0.1-0.4,0.3-0.8,0.4-1.2
				l0.6-1.6l1.6-0.1l-2,3.8l0.1,2.7L424.7,711.9z"/>
			<path class="st3" d="M436.4,708c0.1,2.1-1,3.4-2.9,3.6c-1.9,0.1-3.1-1.2-3.2-3c-0.1-1.9,1-3.4,2.9-3.5
				C435.1,704.9,436.3,706.3,436.4,708z M431.8,708.4c0.1,1.2,0.7,2.1,1.7,2c1-0.1,1.5-1,1.4-2.3c-0.1-1.1-0.7-2.1-1.7-2
				C432.2,706.2,431.7,707.2,431.8,708.4z"/>
			<path class="st3" d="M437.1,704.8l3.9-0.3l0.1,1.2l-2.4,0.2l0.1,1.5l2.3-0.2l0.1,1.2l-2.3,0.2l0.2,2.6l-1.4,0.1L437.1,704.8z"/>
			<path class="st3" d="M445.5,710.5l-2.2-6.2l1.5-0.2l0.8,2.6c0.2,0.7,0.5,1.5,0.6,2.2l0,0c0-0.7,0.1-1.5,0.2-2.3l0.2-2.7l1.5-0.2
				l0.8,2.6c0.2,0.7,0.4,1.4,0.6,2.1l0,0c0-0.7,0.1-1.5,0.1-2.2l0.2-2.6l1.5-0.2l-0.9,6.5l-1.5,0.2l-0.8-2.7
				c-0.2-0.6-0.4-1.2-0.5-1.9l0,0c0,0.7-0.1,1.3-0.1,2l-0.3,2.8L445.5,710.5z"/>
			<path class="st3" d="M458.1,705.6c0.3,2.1-0.8,3.5-2.6,3.8c-1.9,0.3-3.2-1-3.4-2.8c-0.3-1.9,0.7-3.5,2.6-3.7
				C456.6,702.5,457.8,703.8,458.1,705.6z M453.5,706.3c0.2,1.2,0.9,2,1.8,1.9c1-0.1,1.4-1.1,1.2-2.4c-0.2-1.1-0.8-2-1.8-1.9
				C453.8,704.1,453.4,705.1,453.5,706.3z"/>
			<path class="st3" d="M458.6,702.4c0.4-0.1,1.1-0.3,1.9-0.4c0.9-0.2,1.6-0.1,2.1,0.2c0.4,0.2,0.7,0.6,0.8,1.2
				c0.1,0.8-0.4,1.4-0.9,1.7l0,0c0.5,0.1,0.8,0.5,1,1c0.3,0.7,0.6,1.5,0.8,1.7l-1.5,0.2c-0.1-0.2-0.4-0.7-0.7-1.4
				c-0.3-0.8-0.6-0.9-1.2-0.8l-0.4,0.1l0.4,2.5l-1.4,0.2L458.6,702.4z M460.4,704.9l0.6-0.1c0.7-0.1,1.1-0.5,1-1.1
				c-0.1-0.6-0.5-0.8-1.2-0.7c-0.3,0.1-0.5,0.1-0.6,0.2L460.4,704.9z"/>
			<path class="st3" d="M464.1,701.4l1.4-0.3l0.5,2.8l0,0c0.1-0.3,0.2-0.5,0.3-0.8l1-2.3l1.7-0.3l-1.6,3l2.8,3.2l-1.7,0.3l-2-2.4
				l-0.4,0.8l0.4,2l-1.4,0.3L464.1,701.4z"/>
			<path class="st3" d="M471.3,700.1l1.2,6.2l-1.4,0.3l-1.2-6.2L471.3,700.1z"/>
			<path class="st3" d="M473.8,706.1l-1.3-6.2l1.6-0.4l1.8,2c0.5,0.6,1,1.3,1.5,1.9l0,0c-0.3-0.8-0.5-1.6-0.7-2.6l-0.4-1.8l1.3-0.3
				l1.3,6.2l-1.5,0.3l-1.8-2.1c-0.5-0.6-1.1-1.3-1.6-2l0,0c0.2,0.8,0.4,1.7,0.6,2.7l0.4,1.9L473.8,706.1z"/>
			<path class="st3" d="M485.4,703.1c-0.4,0.3-1.2,0.6-2,0.8c-1.1,0.3-2,0.2-2.7-0.2c-0.7-0.4-1.2-1.1-1.4-2
				c-0.5-2.1,0.7-3.6,2.8-4.1c0.8-0.2,1.5-0.2,1.8-0.1l0,1.2c-0.4-0.1-0.8-0.1-1.5,0.1c-1.2,0.3-1.9,1.2-1.6,2.5
				c0.3,1.3,1.3,1.8,2.4,1.6c0.3-0.1,0.6-0.2,0.7-0.3l-0.3-1.3l-1,0.2l-0.3-1.1l2.3-0.5L485.4,703.1z"/>
		</g>
	</g>
	<g>
		<g>
			<path class="st3" d="M371.7,118.4l0.3,2.4l2.4-0.3l-0.3-2.4l1.4-0.2l0.9,6.3l-1.4,0.2l-0.4-2.6l-2.4,0.3l0.4,2.6l-1.4,0.2
				l-0.9-6.3L371.7,118.4z"/>
			<path class="st3" d="M383.1,120.1c0.2,2.1-0.9,3.5-2.7,3.7c-1.9,0.2-3.1-1.1-3.3-2.9c-0.2-1.9,0.8-3.5,2.7-3.7
				C381.7,117,382.9,118.4,383.1,120.1z M378.5,120.7c0.1,1.2,0.8,2,1.8,1.9c1-0.1,1.4-1.1,1.3-2.3c-0.1-1.1-0.8-2.1-1.8-1.9
				C378.8,118.5,378.4,119.5,378.5,120.7z"/>
			<path class="st3" d="M385.4,123.2l-2.1-6.2l1.5-0.1l0.7,2.6c0.2,0.7,0.4,1.5,0.6,2.2l0,0c0-0.7,0.1-1.5,0.2-2.3l0.3-2.6l1.5-0.1
				l0.7,2.6c0.2,0.7,0.4,1.4,0.5,2.1l0,0c0-0.7,0.1-1.5,0.2-2.2l0.3-2.6l1.5-0.1l-1.1,6.5l-1.6,0.1l-0.8-2.7
				c-0.2-0.6-0.3-1.2-0.5-1.9l0,0c0,0.7-0.1,1.3-0.2,2l-0.4,2.8L385.4,123.2z"/>
			<path class="st3" d="M394.2,116.2c0.5-0.1,1.2-0.2,1.9-0.2c1.2-0.1,2,0.1,2.6,0.5c0.7,0.5,1.1,1.2,1.2,2.3
				c0.1,1.2-0.3,2.1-0.9,2.6c-0.6,0.6-1.6,0.9-2.9,1c-0.7,0-1.3,0-1.6,0L394.2,116.2z M395.9,121.3c0.1,0,0.3,0,0.5,0
				c1.3-0.1,2.1-0.8,2-2.3c-0.1-1.3-0.9-2-2.1-1.9c-0.3,0-0.5,0.1-0.6,0.1L395.9,121.3z"/>
			<path class="st3" d="M406.9,118.6c0.1,2.1-1.2,3.4-3,3.5c-1.9,0.1-3-1.3-3.1-3.1c-0.1-1.9,1.1-3.4,3-3.4
				C405.7,115.4,406.8,116.9,406.9,118.6z M402.3,118.9c0,1.2,0.7,2.1,1.6,2.1c1,0,1.5-1,1.5-2.2c0-1.1-0.6-2.1-1.6-2.1
				C402.8,116.7,402.2,117.6,402.3,118.9z"/>
			<path class="st3" d="M410.8,121.9l-1.6-6.3l1.5,0l0.5,2.6c0.2,0.8,0.3,1.6,0.4,2.2l0,0c0.1-0.7,0.2-1.5,0.4-2.2l0.5-2.6l1.5,0
				l0.6,2.7c0.2,0.7,0.3,1.4,0.4,2.1l0,0c0.1-0.7,0.2-1.5,0.3-2.2l0.5-2.6l1.5,0l-1.5,6.4l-1.6,0l-0.6-2.7c-0.1-0.6-0.2-1.2-0.3-2
				l0,0c-0.1,0.7-0.2,1.3-0.3,2l-0.6,2.8L410.8,121.9z"/>
			<path class="st3" d="M422.1,119.2l-2.3-0.1l0,1.5l2.6,0.1l0,1.2l-4.1-0.1l0.1-6.4l3.9,0.1l0,1.2l-2.5-0.1l0,1.3l2.3,0.1
				L422.1,119.2z"/>
			<path class="st3" d="M425.4,115.8c0.5-0.1,1.2-0.1,2,0c1.2,0.1,2,0.3,2.6,0.8c0.6,0.5,1,1.3,1,2.4c-0.1,1.2-0.5,2-1.2,2.5
				c-0.7,0.5-1.7,0.7-3,0.7c-0.7,0-1.3-0.1-1.6-0.2L425.4,115.8z M426.6,121c0.1,0,0.3,0,0.5,0.1c1.3,0.1,2.2-0.6,2.3-2.1
				c0.1-1.3-0.7-2.1-1.9-2.1c-0.3,0-0.5,0-0.7,0L426.6,121z"/>
			<path class="st3" d="M437.8,119.5c-0.1,2.1-1.5,3.3-3.4,3.1c-1.9-0.1-2.9-1.6-2.8-3.4c0.1-1.9,1.4-3.2,3.3-3.1
				C436.9,116.2,437.9,117.7,437.8,119.5z M433.2,119.3c-0.1,1.2,0.4,2.2,1.4,2.2c1,0.1,1.6-0.8,1.7-2.1c0.1-1.1-0.4-2.2-1.4-2.2
				C433.9,117.1,433.2,118,433.2,119.3z"/>
			<path class="st3" d="M442.4,116.8l-0.6,6.3l-1.4-0.1l0.6-6.3L442.4,116.8z"/>
			<path class="st3" d="M444.8,118.2l-1.7-0.2l0.1-1.2l4.9,0.5l-0.1,1.2l-1.7-0.2l-0.5,5.1l-1.4-0.2L444.8,118.2z"/>
			<path class="st3" d="M448.8,123.1c0.1-0.5,0.5-0.8,0.9-0.8c0.5,0.1,0.8,0.5,0.7,1c-0.1,0.5-0.4,0.8-0.9,0.8
				C449.1,124,448.8,123.6,448.8,123.1z M449.2,121.9l0-0.2c0-0.5,0.2-1,0.7-1.4c0.3-0.3,0.6-0.6,0.7-0.9c0-0.3-0.1-0.6-0.6-0.6
				c-0.3,0-0.7,0-1,0.2l-0.2-1.1c0.4-0.2,0.9-0.3,1.6-0.2c1.2,0.2,1.7,0.9,1.6,1.7c-0.1,0.7-0.6,1.1-1,1.5c-0.4,0.3-0.6,0.7-0.6,1.1
				l0,0.2L449.2,121.9z"/>
		</g>
	</g>
	<g>
		<g>
			<path class="st4" d="M250.4,471.9c-0.1,0.5,0,1.2,0.2,1.9c0.3,0.7,0.7,1,1.2,0.8c0.4-0.2,0.6-0.6,0.6-1.5c0-1.3,0.3-2.3,1.4-2.7
				c1.2-0.4,2.5,0.2,3.1,1.9c0.3,0.8,0.3,1.4,0.3,1.9l-1.4,0.1c0-0.3,0-0.9-0.2-1.6c-0.3-0.7-0.7-0.9-1.1-0.8
				c-0.4,0.2-0.5,0.6-0.5,1.7c0,1.4-0.4,2.2-1.4,2.6c-1.2,0.4-2.5-0.1-3.2-2c-0.3-0.8-0.4-1.7-0.3-2.2L250.4,471.9z"/>
			<path class="st4" d="M253.4,479.2l-2,0.2l-0.7-1.6l7.8-0.7l0.9,2.1l-6,5l-0.7-1.7l1.6-1.3L253.4,479.2z M255.3,480.4l1.3-1
				c0.4-0.3,0.8-0.6,1.2-0.9l0,0c-0.5,0.1-1,0.2-1.5,0.2l-1.6,0.2L255.3,480.4z"/>
			<path class="st4" d="M254.4,486.5l5.8-5.3l0.8,1.7l-2.5,2.2c-0.7,0.6-1.4,1.2-2.2,1.7l0,0c0.9-0.2,1.8-0.4,2.7-0.5l3.3-0.5
				l0.8,1.6l-7.9,0.8L254.4,486.5z"/>
			<path class="st4" d="M264.3,489.8l-6.7,3.3l-0.8-1.5l6.7-3.3L264.3,489.8z"/>
			<path class="st4" d="M258.4,494.7l6.6-3.6l0.9,1.7l-1.7,2.7c-0.5,0.8-1.1,1.6-1.7,2.3l0,0c0.8-0.6,1.7-1.1,2.7-1.6l1.9-1l0.7,1.4
				l-6.6,3.6l-0.8-1.6l1.8-2.8c0.5-0.8,1.1-1.7,1.7-2.4l0,0c-0.8,0.5-1.8,1-2.8,1.6l-2,1.1L258.4,494.7z"/>
			<path class="st4" d="M265.8,507.1c-0.4-0.4-1.1-1.1-1.7-1.9c-0.7-1.2-0.9-2.2-0.7-3.1c0.2-0.9,0.8-1.8,1.8-2.3
				c2.1-1.3,4.3-0.5,5.6,1.6c0.5,0.8,0.7,1.6,0.8,2l-1.3,0.4c-0.1-0.4-0.2-1-0.6-1.7c-0.7-1.2-2-1.7-3.4-0.9
				c-1.3,0.8-1.6,2.1-0.9,3.3c0.2,0.3,0.4,0.6,0.5,0.7l1.3-0.8l-0.6-1l1.1-0.7l1.4,2.4L265.8,507.1z"/>
			<path class="st4" d="M273.7,514.3c0.7-0.5,1.6-1.2,2.5-1.8l0,0c-0.9,0.4-2,0.7-2.9,1l-2.9,0.9l-0.8-1.1l1.9-2.3
				c0.6-0.7,1.3-1.5,2-2.2l0,0c-0.9,0.5-1.8,1.2-2.6,1.7l-2.4,1.5l-0.9-1.3l6.4-3.9l1.3,1.9l-1.6,2c-0.6,0.7-1.2,1.4-1.8,2l0,0
				c0.8-0.3,1.8-0.7,2.6-0.9l2.5-0.8l1.3,1.8l-5.9,4.6l-0.9-1.4L273.7,514.3z"/>
			<path class="st4" d="M280.7,521.9c-1.9,1.5-4,1.2-5.4-0.5c-1.4-1.8-0.8-3.8,0.9-5.1c1.8-1.4,4-1.3,5.3,0.5
				C282.9,518.6,282.3,520.6,280.7,521.9z M277.3,517.7c-1.2,0.9-1.6,2.1-0.9,3c0.7,0.9,2,0.8,3.1-0.1c1.1-0.8,1.6-2,0.9-3
				C279.7,516.6,278.4,516.8,277.3,517.7z"/>
			<path class="st4" d="M278.7,525.5l5.7-4.9l1.3,1.5l-1.1,3c-0.3,0.9-0.7,1.8-1.2,2.6l0,0c0.7-0.7,1.4-1.4,2.3-2.1l1.7-1.4l1,1.2
				l-5.7,4.9l-1.2-1.4l1.2-3.1c0.3-0.9,0.7-1.9,1.2-2.7l0,0c-0.7,0.7-1.5,1.4-2.4,2.2l-1.7,1.5L278.7,525.5z"/>
			<path class="st4" d="M289.4,532.7l-1.9-2l-1.3,1.2l2.1,2.3l-1,0.9l-3.3-3.5l5.5-5.1l3.2,3.4l-1,0.9l-2-2.1l-1.1,1.1l1.9,2
				L289.4,532.7z"/>
			<path class="st4" d="M289.6,537.5l2.2-2.2l1.4-4.8l1.4,1.4l-0.7,1.8c-0.2,0.6-0.4,0.9-0.6,1.4l0,0c0.4-0.2,0.9-0.4,1.4-0.6
				l1.8-0.7l1.3,1.3l-4.8,1.4l-2.2,2.2L289.6,537.5z"/>
			<path class="st4" d="M297.7,542.5l-1.7,1.1l-1.3-1.2l6.7-4.1l1.7,1.5l-3.2,7.2l-1.4-1.2l0.8-1.8L297.7,542.5z M300,542.9l0.7-1.5
				c0.2-0.4,0.5-0.9,0.7-1.3l0,0c-0.4,0.3-0.8,0.6-1.2,0.9l-1.4,0.9L300,542.9z"/>
			<path class="st4" d="M300.9,547.9l4.7-5.8l1.5,1.2l-0.5,3.1c-0.2,0.9-0.4,1.9-0.7,2.8l0,0c0.5-0.8,1.2-1.6,1.9-2.5l1.4-1.7l1.2,1
				l-4.7,5.8l-1.4-1.1l0.6-3.3c0.2-0.9,0.4-2,0.7-2.9l0,0c-0.6,0.8-1.2,1.6-2,2.6l-1.4,1.8L300.9,547.9z"/>
			<path class="st4" d="M311.7,547.1c0.6,0.3,1.2,0.7,1.9,1.2c1.1,0.8,1.7,1.6,2,2.5c0.3,0.9,0.1,2-0.7,3c-0.9,1.2-1.9,1.6-2.8,1.7
				c-1,0.1-2.2-0.4-3.4-1.3c-0.7-0.5-1.2-0.9-1.5-1.2L311.7,547.1z M309.4,553c0.1,0.1,0.3,0.3,0.5,0.4c1.2,0.9,2.5,0.8,3.6-0.6
				c0.9-1.2,0.7-2.5-0.5-3.3c-0.3-0.2-0.5-0.3-0.7-0.4L309.4,553z"/>
			<path class="st4" d="M320.3,554.8l-1.7-1.1l0.8-1.2l4.8,3.2l-0.8,1.2l-1.7-1.1l-3.3,5.1l-1.4-0.9L320.3,554.8z"/>
			<path class="st4" d="M326.5,557l-3.9,6.4l-1.4-0.9l3.9-6.4L326.5,557z"/>
			<path class="st4" d="M331,565c0.4-0.8,0.9-1.8,1.5-2.7l0,0c-0.7,0.7-1.5,1.5-2.2,2.1l-2.2,2.1l-1.2-0.7l0.7-2.9
				c0.2-0.9,0.5-1.9,0.9-2.9l0,0c-0.5,0.9-1.1,1.8-1.6,2.6l-1.5,2.4l-1.4-0.8l4.1-6.3l2,1.1l-0.6,2.5c-0.2,0.9-0.5,1.8-0.8,2.6l0,0
				c0.6-0.7,1.3-1.4,1.9-2l1.9-1.8l1.9,1.1l-3.3,6.7l-1.4-0.8L331,565z"/>
			<path class="st4" d="M338.2,568.4l-2.5-1.2l-0.8,1.6l2.8,1.4l-0.6,1.2l-4.3-2.2l3.4-6.7l4.1,2.1l-0.6,1.2l-2.6-1.3l-0.7,1.4
				l2.5,1.2L338.2,568.4z"/>
			<path class="st4" d="M343.5,566.2l4.2,1.9l-0.6,1.3l-2.6-1.2l-0.7,1.6l2.5,1.1l-0.6,1.3l-2.5-1.1l-1.2,2.8l-1.6-0.7L343.5,566.2z
				"/>
			<path class="st4" d="M353.8,574.5c-0.9,2.3-2.8,3.1-4.9,2.3c-2.1-0.8-2.7-2.9-1.9-4.8c0.8-2.1,2.8-3.1,4.8-2.3
				C354.1,570.5,354.6,572.6,353.8,574.5z M348.8,572.6c-0.5,1.4-0.3,2.6,0.8,3c1.1,0.4,2.1-0.3,2.6-1.7c0.5-1.2,0.3-2.6-0.8-3
				C350.3,570.4,349.3,571.2,348.8,572.6z"/>
			<path class="st4" d="M356.4,571.6c0.5,0.1,1.3,0.3,2.2,0.6c1.1,0.4,1.7,0.8,2.1,1.4c0.3,0.5,0.4,1.1,0.1,1.7
				c-0.3,0.9-1.2,1.3-1.9,1.3l0,0c0.4,0.4,0.5,0.9,0.5,1.7c-0.1,0.9-0.2,1.9-0.1,2.2l-1.6-0.6c0-0.2,0-0.9,0.1-1.8
				c0.1-0.9-0.1-1.3-0.7-1.5l-0.5-0.2l-1,2.8l-1.6-0.6L356.4,571.6z M356.9,575.2l0.6,0.2c0.8,0.3,1.4,0,1.6-0.6
				c0.2-0.7-0.1-1.1-0.8-1.4c-0.4-0.1-0.6-0.2-0.7-0.2L356.9,575.2z"/>
			<path class="st4" d="M370.4,579.7c-0.7,2.4-2.5,3.4-4.6,2.8c-2.1-0.6-2.9-2.6-2.3-4.6c0.6-2.2,2.5-3.4,4.6-2.8
				C370.3,575.8,371,577.8,370.4,579.7z M365.2,578.4c-0.4,1.4,0,2.6,1.1,2.9c1.1,0.3,2-0.6,2.4-2c0.4-1.3,0.1-2.6-1.1-2.9
				C366.5,576.1,365.6,577,365.2,578.4z"/>
			<path class="st4" d="M374.2,576.9l-1,4.2c-0.3,1.3,0,2,0.9,2.2c0.9,0.2,1.5-0.3,1.8-1.6l1-4.2l1.6,0.4l-1,4.1
				c-0.5,2.3-1.9,3.1-3.8,2.6c-1.8-0.4-2.7-1.7-2.1-4l1-4.1L374.2,576.9z"/>
			<path class="st4" d="M380.1,578.3c0.6,0,1.4,0.1,2.2,0.3c1.1,0.2,1.8,0.5,2.3,1c0.4,0.4,0.5,1,0.4,1.7c-0.2,0.9-1,1.5-1.6,1.6
				l0,0c0.5,0.3,0.7,0.9,0.7,1.6c0.1,0.9,0.1,1.9,0.2,2.2l-1.7-0.3c-0.1-0.2-0.1-0.9-0.2-1.8c0-1-0.3-1.3-1-1.4l-0.5-0.1l-0.6,2.9
				l-1.6-0.3L380.1,578.3z M381.1,581.8l0.7,0.1c0.8,0.2,1.4-0.2,1.5-0.8c0.1-0.7-0.3-1.1-1-1.3c-0.4-0.1-0.6-0.1-0.8-0.1
				L381.1,581.8z"/>
			<path class="st4" d="M393.3,587.8c-0.3,0.1-1,0.2-1.9,0.1c-2.6-0.3-3.7-2.1-3.4-4.2c0.3-2.5,2.3-3.7,4.6-3.4
				c0.9,0.1,1.5,0.4,1.8,0.6l-0.5,1.3c-0.3-0.2-0.8-0.4-1.4-0.5c-1.3-0.2-2.5,0.5-2.7,2.1c-0.2,1.5,0.6,2.5,2.1,2.7
				c0.5,0.1,1.1,0,1.4-0.1L393.3,587.8z"/>
			<path class="st4" d="M397.1,580.8l-0.4,4.3c-0.1,1.3,0.3,2,1.2,2.1c0.9,0.1,1.4-0.5,1.6-1.8l0.4-4.3l1.7,0.2l-0.4,4.2
				c-0.2,2.3-1.5,3.3-3.4,3.1c-1.9-0.2-2.9-1.3-2.7-3.7l0.4-4.2L397.1,580.8z"/>
			<path class="st4" d="M402.7,587.1c0.4,0.3,1.1,0.5,1.9,0.6c0.8,0,1.2-0.3,1.2-0.7c0-0.5-0.3-0.8-1.2-1.1c-1.2-0.5-2-1.2-1.9-2.3
				c0.1-1.3,1.2-2.2,2.9-2.1c0.8,0,1.5,0.3,1.9,0.5l-0.4,1.3c-0.3-0.2-0.8-0.4-1.5-0.4c-0.7,0-1.1,0.3-1.1,0.7
				c0,0.5,0.4,0.7,1.3,1.1c1.3,0.6,1.9,1.3,1.8,2.3c-0.1,1.3-1.1,2.3-3.1,2.2c-0.9,0-1.7-0.3-2.1-0.6L402.7,587.1z"/>
			<path class="st4" d="M410.4,583.1l-2,0l0-1.4l5.8,0.1l0,1.4l-2,0l-0.1,6.1l-1.7,0L410.4,583.1z"/>
			<path class="st4" d="M422.1,585.2c0.1,2.5-1.4,4-3.6,4c-2.2,0.1-3.6-1.6-3.6-3.7c-0.1-2.2,1.3-4,3.5-4
				C420.7,581.4,422,583.1,422.1,585.2z M416.6,585.4c0,1.5,0.8,2.5,1.9,2.5c1.1,0,1.8-1.1,1.7-2.6c0-1.3-0.7-2.5-1.9-2.5
				C417.2,582.9,416.6,584,416.6,585.4z"/>
			<path class="st4" d="M429.8,585.6c-0.1-0.9-0.2-2-0.3-3.1l0,0c-0.2,1-0.4,2.1-0.6,3l-0.7,3l-1.3,0.1l-1-2.8
				c-0.3-0.9-0.7-1.9-0.9-2.9l0,0c0,1,0.1,2.2,0.1,3.1l0.1,2.9l-1.6,0.1l-0.1-7.5l2.3-0.2l0.9,2.4c0.3,0.8,0.6,1.8,0.8,2.6l0,0
				c0.1-0.9,0.3-1.9,0.5-2.7l0.6-2.5l2.2-0.2l1,7.4l-1.7,0.1L429.8,585.6z"/>
			<path class="st4" d="M437.6,584.4l-2.7,0.3l0.2,1.8l3.1-0.4l0.2,1.4l-4.7,0.6l-0.9-7.4l4.6-0.6l0.2,1.4l-2.9,0.4l0.2,1.5l2.7-0.3
				L437.6,584.4z"/>
			<path class="st4" d="M438.8,579.9c0.5-0.2,1.3-0.4,2.2-0.5c1.1-0.2,1.9-0.1,2.5,0.2c0.5,0.3,0.8,0.8,0.9,1.4c0.2,0.9-0.4,1.7-1,2
				l0,0c0.6,0.1,0.9,0.6,1.2,1.2c0.4,0.8,0.8,1.7,1,2l-1.7,0.3c-0.2-0.2-0.4-0.8-0.8-1.6c-0.4-0.9-0.7-1.1-1.4-1l-0.5,0.1l0.5,2.9
				l-1.7,0.3L438.8,579.9z M441,582.8l0.7-0.1c0.8-0.1,1.3-0.6,1.2-1.3c-0.1-0.7-0.6-0.9-1.4-0.8c-0.4,0.1-0.6,0.1-0.7,0.2
				L441,582.8z"/>
			<path class="st4" d="M446.6,584.3c0.5,0.1,1.2,0.2,1.9,0.1c0.8-0.2,1.1-0.6,1-1c-0.1-0.5-0.5-0.6-1.4-0.8
				c-1.3-0.2-2.2-0.7-2.5-1.8c-0.3-1.3,0.6-2.4,2.3-2.8c0.8-0.2,1.5-0.1,2,0l-0.1,1.4c-0.3-0.1-0.9-0.2-1.6,0
				c-0.7,0.1-1,0.5-0.9,0.9c0.1,0.5,0.6,0.6,1.6,0.8c1.4,0.2,2.1,0.8,2.4,1.8c0.3,1.2-0.5,2.5-2.5,2.9c-0.8,0.2-1.7,0.1-2.2,0
				L446.6,584.3z"/>
			<path class="st4" d="M456.6,581.9l0,2l-1.7,0.4l0.3-7.8l2.2-0.6l4.1,6.7l-1.8,0.5l-1-1.7L456.6,581.9z M458.1,580.2l-0.9-1.4
				c-0.2-0.4-0.5-0.9-0.7-1.3l0,0c0,0.5,0,1,0,1.5l0,1.7L458.1,580.2z"/>
			<path class="st4" d="M462.8,582.2l-2.2-7.2l1.9-0.6l2.3,2.2c0.7,0.6,1.4,1.4,1.9,2.1l0,0c-0.4-0.9-0.7-1.9-1.1-2.9l-0.6-2.1
				l1.5-0.5l2.2,7.2l-1.7,0.5l-2.4-2.3c-0.7-0.6-1.4-1.4-2-2.1l0,0c0.3,0.9,0.7,1.9,1,3.1l0.7,2.2L462.8,582.2z"/>
			<path class="st4" d="M468,572.8c0.6-0.3,1.3-0.6,2.1-0.9c1.3-0.5,2.3-0.6,3.2-0.3c0.9,0.3,1.7,1,2.2,2.2c0.5,1.3,0.3,2.5-0.1,3.3
				c-0.5,0.9-1.5,1.6-2.9,2.1c-0.8,0.3-1.4,0.5-1.8,0.5L468,572.8z M471.7,578c0.1,0,0.4-0.1,0.6-0.2c1.4-0.5,2.1-1.6,1.5-3.3
				c-0.5-1.5-1.7-1.9-3-1.4c-0.4,0.1-0.6,0.2-0.7,0.3L471.7,578z"/>
			<path class="st4" d="M478.9,568.5l1.1,2.6l2.6-1.1l-1.1-2.6l1.6-0.7l3,6.9l-1.6,0.7l-1.2-2.9l-2.6,1.1l1.2,2.9l-1.6,0.7l-3-6.9
				L478.9,568.5z"/>
			<path class="st4" d="M490.4,568.1l-2.5,1.2l0.8,1.6l2.8-1.3l0.6,1.3l-4.3,2.1l-3.2-6.8l4.2-2l0.6,1.3l-2.6,1.3l0.7,1.4l2.5-1.2
				L490.4,568.1z"/>
			<path class="st4" d="M490,563.4l1.5-0.8l2.8,5.4l2.6-1.4l0.7,1.3l-4.2,2.2L490,563.4z"/>
			<path class="st4" d="M495.1,560.8c0.4-0.3,1-0.8,1.9-1.3c0.9-0.5,1.7-0.7,2.3-0.6c0.6,0.1,1.2,0.5,1.6,1.1
				c0.4,0.6,0.5,1.3,0.3,1.9c-0.2,0.8-0.9,1.4-1.7,1.9c-0.2,0.1-0.4,0.2-0.5,0.3l1.3,2.3l-1.5,0.8L495.1,560.8z M498.2,563
				c0.1,0,0.3-0.1,0.5-0.2c0.8-0.4,1-1.1,0.7-1.8c-0.3-0.6-1-0.7-1.7-0.3c-0.3,0.2-0.5,0.3-0.6,0.4L498.2,563z"/>
			<path class="st4" d="M502,556.6l3.9,6.4l-1.5,0.9l-3.9-6.4L502,556.6z"/>
			<path class="st4" d="M507.5,562.1l-4.1-6.3l1.7-1.1l2.8,1.4c0.8,0.4,1.7,1,2.4,1.5l0,0c-0.6-0.8-1.2-1.6-1.8-2.5l-1.2-1.8
				l1.3-0.9l4.1,6.3l-1.5,1l-2.9-1.5c-0.8-0.4-1.8-1-2.5-1.5l0,0c0.6,0.8,1.2,1.7,1.9,2.7l1.2,1.9L507.5,562.1z"/>
			<path class="st4" d="M519.1,553.7c-0.3,0.5-1,1.2-1.8,1.8c-1.1,0.8-2.1,1.1-3.1,1c-0.9-0.1-1.8-0.7-2.5-1.6
				c-1.5-2-0.8-4.2,1.2-5.7c0.8-0.6,1.5-0.9,1.9-0.9l0.5,1.3c-0.4,0.1-0.9,0.3-1.6,0.8c-1.1,0.8-1.5,2.1-0.6,3.4
				c0.9,1.3,2.2,1.4,3.4,0.6c0.3-0.2,0.5-0.4,0.6-0.6l-0.9-1.3l-0.9,0.7l-0.8-1.1l2.3-1.6L519.1,553.7z"/>
			<path class="st4" d="M519.8,545.8l-1.6,1.3l-0.9-1.1l4.5-3.6l0.9,1.1l-1.6,1.3l3.8,4.7l-1.3,1.1L519.8,545.8z"/>
			<path class="st4" d="M523.9,540.6l1.9,2.2l2.1-1.8l-1.9-2.2l1.3-1.1l5,5.6l-1.3,1.1l-2.1-2.3l-2.1,1.8l2.1,2.3l-1.3,1.1l-5-5.6
				L523.9,540.6z"/>
			<path class="st4" d="M534.6,536.6l-2,1.9l1.2,1.3l2.2-2.1l1,1l-3.4,3.3l-5.2-5.4l3.3-3.2l1,1l-2.1,2l1.1,1.1l2-1.9L534.6,536.6z"
				/>
			<path class="st4" d="M540.5,530.9c-0.7-0.6-1.5-1.3-2.3-2.1l0,0c0.5,0.8,1.1,1.8,1.5,2.6l1.5,2.7l-0.9,1l-2.7-1.4
				c-0.8-0.4-1.8-1-2.6-1.5l0,0c0.7,0.7,1.5,1.5,2.2,2.2l2,2.1l-1.1,1.1l-5.1-5.5l1.6-1.6l2.3,1.2c0.8,0.4,1.6,0.9,2.4,1.4l0,0
				c-0.5-0.8-1-1.6-1.5-2.4l-1.3-2.3l1.5-1.6l5.7,4.9l-1.1,1.2L540.5,530.9z"/>
			<path class="st4" d="M540.7,523.7l1.1-1.3l4.6,3.9l1.9-2.3l1.1,0.9l-3,3.6L540.7,523.7z"/>
			<path class="st4" d="M545.4,518l5.9,4.7l-1.1,1.3l-5.9-4.7L545.4,518z"/>
			<path class="st4" d="M553.4,519.9l-7.4-2.6l1.1-1.5l3.1,1.2c0.9,0.3,1.7,0.7,2.5,1.1l0,0c-0.6-0.7-1.2-1.4-1.7-2.1l-2-2.7
				l1.1-1.4l4.5,6.5L553.4,519.9z"/>
			<path class="st4" d="M556.7,509.9l-1.6,2.3l1.5,1l1.7-2.5l1.1,0.8l-2.7,3.9l-6.2-4.3l2.6-3.8l1.1,0.8l-1.7,2.4l1.3,0.9l1.6-2.3
				L556.7,509.9z"/>
			<path class="st4" d="M560.9,505.7l1.4,1.5l-0.9,1.5l-5.2-5.9l1.2-1.9l7.6,1.9l-1,1.6l-1.9-0.5L560.9,505.7z M560.8,503.4
				l-1.6-0.4c-0.4-0.1-1-0.3-1.4-0.4l0,0c0.3,0.3,0.7,0.7,1.1,1.1l1.1,1.2L560.8,503.4z"/>
			<path class="st4" d="M560.3,496.1c0.1-0.4,0.5-1.3,0.9-2c0.5-0.9,0.9-1.4,1.4-1.7c0.5-0.3,1.1-0.4,1.7-0.1c0.6,0.3,1,1,0.8,1.8
				l0,0c0.6-0.6,1.5-0.9,2.3-0.4c0.6,0.3,0.9,0.9,1,1.4c0.1,0.7-0.1,1.6-0.8,2.9c-0.4,0.7-0.7,1.3-1,1.6L560.3,496.1z M563.6,495.9
				l0.3-0.5c0.4-0.8,0.3-1.4-0.2-1.6c-0.5-0.3-1,0-1.3,0.6c-0.2,0.3-0.3,0.5-0.3,0.7L563.6,495.9z M566.5,497.5
				c0.1-0.1,0.2-0.3,0.3-0.6c0.4-0.7,0.4-1.4-0.3-1.8c-0.7-0.4-1.3,0.1-1.7,0.8l-0.3,0.5L566.5,497.5z"/>
			<path class="st4" d="M569.2,487.9l-1.2,2.5l1.6,0.8l1.4-2.8l1.2,0.6l-2.1,4.3l-6.7-3.3l2-4.2l1.2,0.6l-1.3,2.6l1.4,0.7l1.2-2.5
				L569.2,487.9z"/>
			<path class="st4" d="M567.9,483.8l-0.8,1.8l-1.3-0.6l2.4-5.3l1.3,0.6l-0.8,1.9l5.5,2.5l-0.7,1.6L567.9,483.8z"/>
			<path class="st4" d="M570.5,477.9l-0.8,1.9l-1.3-0.5l2.2-5.3l1.3,0.5l-0.8,1.9l5.6,2.3l-0.6,1.6L570.5,477.9z"/>
			<path class="st4" d="M576.5,470.2l-0.9,2.6l1.7,0.6l1-2.9l1.3,0.5l-1.6,4.5l-7-2.6l1.6-4.3l1.3,0.5l-1,2.7l1.5,0.5l0.9-2.6
				L576.5,470.2z"/>
			<path class="st4" d="M573.1,467.2c0.1-0.5,0.3-1.3,0.5-2.2c0.3-1.1,0.7-1.8,1.3-2.1c0.5-0.3,1-0.4,1.7-0.2
				c0.9,0.3,1.3,1.1,1.4,1.8l0,0c0.4-0.4,0.9-0.6,1.6-0.5c0.9,0,1.9,0.1,2.2,0.1l-0.5,1.7c-0.2,0.1-0.9,0-1.8,0
				c-1-0.1-1.3,0.1-1.5,0.8l-0.2,0.5l2.8,0.9l-0.5,1.6L573.1,467.2z M576.6,466.6l0.2-0.6c0.3-0.8,0-1.4-0.6-1.6
				c-0.7-0.2-1.1,0.1-1.4,0.9c-0.1,0.4-0.2,0.6-0.2,0.7L576.6,466.6z"/>
			<path class="st4" d="M575.6,458.7l0.4-1.6l5.9,1.6l0.8-2.9l1.4,0.4l-1.2,4.5L575.6,458.7z"/>
			<path class="st4" d="M577.4,451.5l7.3,1.7l-0.4,1.7l-7.3-1.7L577.4,451.5z"/>
			<path class="st4" d="M577.7,450l0.9-4.5l1.4,0.3l-0.6,2.8l1.7,0.3l0.5-2.6l1.4,0.3l-0.5,2.6l3,0.6l-0.3,1.7L577.7,450z"/>
			<path class="st4" d="M583.9,440.6l-0.5,2.7l1.8,0.3l0.5-3l1.4,0.2l-0.8,4.7l-7.4-1.3l0.8-4.6l1.4,0.2l-0.5,2.9l1.5,0.3l0.5-2.7
				L583.9,440.6z"/>
		</g>
	</g>
	<g>
		<g>
			<path class="st4" d="M403.5,572l-1.2-6.4l1.5,0.1l0.4,2.6c0.1,0.8,0.2,1.6,0.3,2.2l0,0c0.1-0.7,0.3-1.4,0.5-2.2l0.7-2.6l1.5,0.1
				l0.4,2.7c0.1,0.8,0.2,1.4,0.2,2.1l0,0c0.1-0.7,0.3-1.4,0.5-2.2l0.6-2.6l1.5,0.1l-2,6.3l-1.6-0.1l-0.4-2.8c-0.1-0.6-0.2-1.2-0.2-2
				l0,0c-0.1,0.7-0.3,1.3-0.5,1.9l-0.7,2.7L403.5,572z"/>
			<path class="st4" d="M412.5,565.9l0,2.4l2.4,0l0-2.4l1.4,0l-0.1,6.4l-1.4,0l0-2.7l-2.4,0l0,2.7l-1.4,0l0.1-6.4L412.5,565.9z"/>
			<path class="st4" d="M419.2,572.2l-0.1-2.6l-2.2-3.7l1.6-0.1l0.7,1.5c0.2,0.5,0.4,0.8,0.5,1.2l0,0c0.1-0.4,0.3-0.8,0.4-1.2
				l0.6-1.6l1.6-0.1l-2,3.8l0.1,2.7L419.2,572.2z"/>
			<path class="st4" d="M424.1,569.9l0-0.2c-0.1-0.5,0.1-1,0.5-1.5c0.3-0.4,0.5-0.7,0.5-1c0-0.3-0.3-0.5-0.7-0.5
				c-0.3,0-0.7,0.2-0.9,0.3l-0.4-1c0.3-0.2,0.9-0.5,1.5-0.5c1.2-0.1,1.9,0.6,1.9,1.3c0.1,0.7-0.4,1.2-0.7,1.6
				c-0.3,0.4-0.4,0.8-0.4,1.2l0,0.2L424.1,569.9z M423.9,571.2c0-0.5,0.3-0.9,0.8-0.9c0.5,0,0.9,0.3,0.9,0.8c0,0.5-0.3,0.9-0.8,0.9
				C424.3,572,424,571.7,423.9,571.2z"/>
		</g>
	</g>
	<g>
		<path class="st3" d="M437.1,638.6c-47.1,4.8-93.4-4.9-133.8-27.7c-11.8-6.7-26.7-3.5-34.7,7.4l-0.1,0.2
			c-9.4,12.9-5.5,31.1,8.4,38.9c28.4,16,59.7,27,92.8,32.3c62.5,10,125.1-1.1,179.5-31.4c13.9-7.7,17.9-25.9,8.6-38.9l0,0
			c-8-11-22.9-14.2-34.7-7.5C496.6,626.8,468.7,635.4,437.1,638.6z"/>
		<path class="st3" d="M635.1,460c-9.7,46.3-33,87.5-67,119.1c-9.9,9.2-11.5,24.4-3.5,35.3l0.1,0.2c9.4,12.9,28,14.6,39.6,3.8
			c23.8-22.2,43.8-48.7,58.9-78.6c28.5-56.5,36.9-119.5,24.6-180.6c-3.2-15.6-19.3-25-34.4-20v0c-12.9,4.2-20.5,17.5-17.7,30.8
			C641.8,399.7,641.6,428.9,635.1,460z"/>
		<path class="st3" d="M526.8,218.3c41,23.7,72.8,58.7,92.2,100.9c5.7,12.3,19.6,18.5,32.5,14.3l0.2-0.1c15.2-4.9,22.6-22,16-36.5
			c-13.6-29.6-32.6-56.8-56.3-80.5c-44.7-44.7-102-72.4-163.8-79.8c-15.8-1.9-29.7,10.5-29.7,26.4v0c0,13.6,10.2,24.9,23.7,26.5
			C471.6,193,499.3,202.3,526.8,218.3z"/>
		<path class="st3" d="M254.2,254.2c36.2-36.2,82.4-58.5,132.4-64.5c13.4-1.6,23.4-13,23.4-26.5v0c0-16-14-28.4-29.8-26.5
			c-61.8,7.4-119,35.1-163.8,79.8c-23.7,23.7-42.6,50.9-56.3,80.5c-6.7,14.5,0.8,31.6,16,36.5l0,0c12.9,4.2,26.8-1.9,32.5-14.2
			C219.7,295.3,235,273.3,254.2,254.2z"/>
		<path class="st3" d="M218.3,526.8c-20.6-35.8-30.3-71.6-30.3-112.9c0-14.4,1.3-28.7,4-42.5c2.5-13.2-5.1-26.3-17.9-30.4l-0.1,0
			c-15.3-5-31.4,4.6-34.4,20.3c-3.3,17.2-4.9,34.8-4.9,52.6c0,74.6,29.1,144.7,81.8,197.5c2.5,2.5,5.1,5,7.7,7.4
			c11.7,10.8,30.3,9,39.6-3.9l0,0c7.9-10.9,6.5-26-3.3-35.1C244,564.5,229.8,546.8,218.3,526.8z"/>
	</g>
	<g>
		<g>
			<path class="st4" d="M253.5,399.8l-0.2,2l-1.4-0.1l0.5-5.7l1.4,0.1l-0.2,2l6,0.6l-0.2,1.7L253.5,399.8z"/>
			<path class="st4" d="M257,388.8c2.4,0.3,3.7,2,3.4,4.2c-0.3,2.2-2.1,3.3-4.3,3c-2.2-0.3-3.7-2-3.4-4.1
				C253.1,389.5,255,388.5,257,388.8z M256.4,394.1c1.5,0.2,2.6-0.3,2.7-1.5c0.2-1.1-0.8-1.9-2.3-2.1c-1.3-0.2-2.6,0.3-2.7,1.5
				C254,393.1,255,393.9,256.4,394.1z"/>
			<path class="st4" d="M262.2,380.9c0.1,0.3,0.1,1.1-0.1,1.9c-0.5,2.5-2.3,3.5-4.4,3.1c-2.5-0.5-3.6-2.6-3.1-4.8
				c0.2-0.9,0.5-1.5,0.7-1.7l1.3,0.6c-0.2,0.3-0.4,0.8-0.5,1.3c-0.3,1.3,0.3,2.5,2,2.8c1.5,0.3,2.6-0.4,2.9-1.9
				c0.1-0.5,0.1-1.1,0-1.4L262.2,380.9z"/>
			<path class="st4" d="M260.4,372.8c2.4,0.6,3.5,2.4,3,4.5c-0.5,2.2-2.5,3-4.5,2.5c-2.2-0.5-3.5-2.3-3-4.5
				C256.4,373.1,258.4,372.3,260.4,372.8z M259.2,378c1.4,0.3,2.6-0.1,2.9-1.2c0.3-1.1-0.6-2-2.1-2.4c-1.3-0.3-2.6,0-2.9,1.2
				C256.9,376.8,257.8,377.7,259.2,378z"/>
			<path class="st4" d="M264.4,372.8l-7.2-2.1l0.6-1.9l3.1-0.7c0.9-0.2,1.9-0.4,2.8-0.4l0,0c-1-0.2-2-0.4-3-0.7l-2.1-0.6l0.4-1.5
				l7.2,2.1l-0.5,1.7l-3.2,0.7c-0.9,0.2-2,0.4-2.9,0.5l0,0c1,0.2,2,0.5,3.2,0.9l2.2,0.6L264.4,372.8z"/>
			<path class="st4" d="M261.2,362.4l-0.7,1.9l-1.3-0.5l1.9-5.4l1.3,0.5l-0.7,1.9l5.7,2l-0.6,1.6L261.2,362.4z"/>
			<path class="st4" d="M261.5,357.6c0.1-0.5,0.3-1.3,0.7-2.2c0.4-1,0.8-1.7,1.4-2c0.5-0.3,1.1-0.3,1.7-0.1c0.9,0.3,1.3,1.2,1.2,1.9
				l0,0c0.4-0.4,1-0.5,1.7-0.4c0.9,0.1,1.9,0.2,2.2,0.2l-0.6,1.6c-0.2,0-0.9,0-1.8-0.1c-0.9-0.2-1.3,0.1-1.6,0.7l-0.2,0.5l2.8,1.1
				l-0.6,1.6L261.5,357.6z M265.1,357.2l0.2-0.6c0.3-0.8,0.1-1.4-0.5-1.6c-0.6-0.2-1.1,0.1-1.4,0.8c-0.1,0.4-0.2,0.6-0.2,0.7
				L265.1,357.2z"/>
			<path class="st4" d="M264.6,349.7l6.9,2.9l-0.7,1.6l-6.9-2.9L264.6,349.7z"/>
			<path class="st4" d="M265.3,348.3c0.1-0.4,0.4-1.3,0.8-2.1c0.4-0.9,0.8-1.5,1.3-1.8c0.5-0.4,1.1-0.5,1.7-0.2
				c0.6,0.3,1,0.9,0.9,1.8l0,0c0.6-0.7,1.4-1,2.3-0.6c0.6,0.3,1,0.8,1.1,1.4c0.2,0.7,0,1.6-0.6,3c-0.3,0.8-0.7,1.3-0.9,1.6
				L265.3,348.3z M268.6,347.9l0.2-0.5c0.4-0.8,0.2-1.4-0.3-1.6c-0.5-0.2-1,0-1.3,0.7c-0.2,0.3-0.2,0.5-0.3,0.7L268.6,347.9z
				 M271.6,349.3c0.1-0.1,0.2-0.3,0.3-0.6c0.3-0.7,0.3-1.4-0.4-1.8c-0.7-0.3-1.2,0.2-1.6,0.9l-0.2,0.5L271.6,349.3z"/>
			<path class="st4" d="M268.8,340.6l3.8,2c1.1,0.6,2,0.5,2.4-0.3c0.4-0.8,0.1-1.5-1.1-2.1l-3.8-2l0.8-1.5l3.7,1.9
				c2.1,1.1,2.5,2.6,1.6,4.3c-0.9,1.7-2.3,2.2-4.4,1.1l-3.7-1.9L268.8,340.6z"/>
			<path class="st4" d="M273.5,334.8l-1,1.7l-1.2-0.7l2.9-5l1.2,0.7l-1,1.8l5.3,3l-0.8,1.5L273.5,334.8z"/>
			<path class="st4" d="M280.7,328.6l-1.5,2.3l1.5,0.9l1.6-2.6l1.2,0.7L281,334l-6.4-4l2.4-3.9l1.2,0.7l-1.5,2.5l1.3,0.8l1.5-2.3
				L280.7,328.6z"/>
			<path class="st4" d="M281.1,322.8l-1.2,1.7l-1.2-0.8l3.3-4.7l1.2,0.8l-1.2,1.7l5,3.5l-1,1.4L281.1,322.8z"/>
			<path class="st4" d="M289.6,314.9c2,1.5,2.2,3.6,0.9,5.3c-1.3,1.8-3.5,1.8-5.2,0.5c-1.8-1.4-2.3-3.5-0.9-5.3
				C285.8,313.6,288,313.7,289.6,314.9z M286.4,319.3c1.2,0.9,2.4,1,3.1,0.1c0.7-0.9,0.2-2.1-0.9-3c-1.1-0.8-2.4-1-3.1-0.1
				C284.8,317.2,285.3,318.4,286.4,319.3z"/>
			<path class="st4" d="M289.9,308.8l5.7,4.8l-1.1,1.3l-5.7-4.8L289.9,308.8z"/>
			<path class="st4" d="M298.6,306c-0.7-0.6-1.5-1.3-2.3-2l0,0c0.6,0.8,1.1,1.8,1.6,2.6l1.6,2.6l-0.9,1l-2.7-1.4
				c-0.8-0.4-1.8-0.9-2.6-1.5l0,0c0.7,0.7,1.6,1.5,2.2,2.2l2,2l-1.1,1.2l-5.2-5.4l1.5-1.7l2.3,1.1c0.8,0.4,1.6,0.9,2.4,1.3l0,0
				c-0.5-0.7-1.1-1.6-1.5-2.3l-1.3-2.3l1.5-1.6l5.8,4.7l-1.1,1.2L298.6,306z"/>
			<path class="st4" d="M297.5,300.6c0.3-0.4,0.8-1,1.5-1.7c0.7-0.7,1.4-1.1,2-1.2c0.6-0.1,1.3,0.1,1.8,0.7c0.5,0.5,0.8,1.1,0.8,1.7
				c0,0.8-0.5,1.6-1.2,2.3c-0.2,0.2-0.3,0.3-0.4,0.4l1.9,1.9l-1.2,1.2L297.5,300.6z M301.1,301.9c0.1-0.1,0.3-0.2,0.4-0.4
				c0.6-0.6,0.7-1.4,0.2-1.9c-0.5-0.5-1.1-0.4-1.7,0.2c-0.2,0.2-0.4,0.4-0.4,0.5L301.1,301.9z"/>
			<path class="st4" d="M302.1,296.1c0.3-0.4,0.9-1,1.6-1.6c0.8-0.8,1.5-1.2,2.2-1.2c0.6,0,1.1,0.2,1.6,0.7c0.6,0.7,0.6,1.6,0.3,2.3
				l0,0c0.5-0.2,1.1,0,1.7,0.4c0.7,0.5,1.6,1,1.9,1.1l-1.3,1.2c-0.2-0.1-0.8-0.4-1.6-0.9c-0.8-0.6-1.2-0.5-1.7-0.1l-0.4,0.3l2,2.2
				l-1.2,1.1L302.1,296.1z M305.5,297.4l0.5-0.5c0.6-0.6,0.7-1.2,0.3-1.7c-0.5-0.5-1-0.4-1.6,0.1c-0.3,0.3-0.5,0.5-0.5,0.6
				L305.5,297.4z"/>
			<path class="st4" d="M314.5,290c1.6,1.9,1.4,4-0.3,5.4c-1.7,1.4-3.8,1-5.2-0.7c-1.4-1.7-1.4-3.9,0.3-5.4
				C311.1,287.9,313.2,288.4,314.5,290z M310.4,293.5c0.9,1.1,2.1,1.5,3,0.7c0.9-0.7,0.7-2-0.3-3.1c-0.9-1-2.1-1.5-3-0.8
				C309.3,291.1,309.5,292.4,310.4,293.5z"/>
			<path class="st4" d="M318.9,291.4l-6.5-4.5l1.5-1.1l2.7,2c0.7,0.6,1.5,1.1,2.2,1.7l0,0c-0.4-0.8-0.8-1.7-1.1-2.5l-1.2-3.1
				l1.4-1.1l2.6,7.5L318.9,291.4z"/>
			<path class="st4" d="M324.7,283.2l-2.3,1.6l1,1.5l2.5-1.8l0.8,1.1l-3.9,2.8l-4.3-6.1l3.8-2.7l0.8,1.1l-2.4,1.7l0.9,1.3l2.3-1.6
				L324.7,283.2z"/>
			<path class="st4" d="M327.4,278l-1.7,1.1l-0.8-1.2l4.9-3.1l0.8,1.2l-1.7,1.1l3.2,5.1l-1.4,0.9L327.4,278z"/>
			<path class="st4" d="M332.1,273.5l1.4,2.5l2.4-1.4l-1.4-2.5l1.5-0.8l3.7,6.5l-1.5,0.8l-1.6-2.7l-2.4,1.4l1.6,2.7l-1.5,0.8
				l-3.7-6.5L332.1,273.5z"/>
			<path class="st4" d="M343.3,272.3l-2.5,1.3l0.8,1.6l2.7-1.4l0.6,1.2l-4.2,2.2l-3.4-6.7l4.1-2.1l0.6,1.2l-2.6,1.3l0.7,1.4l2.5-1.3
				L343.3,272.3z"/>
			<path class="st4" d="M354.2,272.2c-1.1,0.2-2,0.2-3.1,0.2c-0.2,0-0.4,0-0.5,0.1c-1.6,0.6-3.5,0.1-4.5-2.1
				c-0.9-2.1-0.3-4.2,1.7-5.1c2.1-0.9,3.9,0.1,4.8,2c0.7,1.6,0.5,3-0.3,3.8l0,0c0.6-0.1,1.2-0.2,1.8-0.4L354.2,272.2z M350.9,268.1
				c-0.6-1.2-1.6-2-2.7-1.6c-1.1,0.5-1.2,1.8-0.6,3.1c0.6,1.3,1.6,2,2.7,1.6C351.3,270.7,351.5,269.5,350.9,268.1z"/>
			<path class="st4" d="M353.7,262.9l1.6,4c0.5,1.2,1.2,1.6,2,1.3c0.8-0.3,1.1-1.1,0.6-2.3l-1.6-4l1.6-0.6l1.5,3.9
				c0.8,2.2,0.2,3.6-1.7,4.3c-1.8,0.7-3.2,0.1-4-2.1l-1.5-3.9L353.7,262.9z"/>
			<path class="st4" d="M362.4,265.6l0.1,2l-1.7,0.6l-0.2-7.8l2.1-0.7l4.6,6.4l-1.7,0.6l-1.2-1.6L362.4,265.6z M363.8,263.8l-1-1.4
				c-0.3-0.4-0.6-0.9-0.8-1.2l0,0c0,0.5,0.1,1,0.1,1.5l0.1,1.7L363.8,263.8z"/>
			<path class="st4" d="M365.9,258.6l1.6-0.5l1.7,5.8l2.9-0.8l0.4,1.4l-4.5,1.3L365.9,258.6z"/>
			<path class="st4" d="M373,256.6l1.9,7.2l-1.6,0.4l-1.9-7.2L373,256.6z"/>
			<path class="st4" d="M376.2,257.3l-2,0.5l-0.3-1.4l5.6-1.3l0.3,1.4l-2,0.5l1.4,5.9l-1.7,0.4L376.2,257.3z"/>
			<path class="st4" d="M383.8,261.8l-0.6-3l-3.2-3.9l1.9-0.4l1.1,1.6c0.3,0.5,0.6,0.9,0.8,1.3l0,0c0.1-0.5,0.2-1,0.3-1.5l0.4-1.9
				l1.9-0.4l-1.6,4.8l0.6,3.1L383.8,261.8z"/>
			<path class="st4" d="M396.8,255.9c0.3,2.4-1,4.1-3.1,4.4c-2.2,0.3-3.7-1.2-4-3.3c-0.3-2.2,0.9-4.1,3.1-4.4
				C395.1,252.3,396.6,253.9,396.8,255.9z M391.5,256.7c0.2,1.5,1,2.4,2.1,2.2c1.1-0.1,1.6-1.3,1.5-2.8c-0.2-1.3-1-2.4-2.1-2.3
				C391.8,254.1,391.3,255.3,391.5,256.7z"/>
			<path class="st4" d="M397.6,252.2l4.6-0.4l0.1,1.4l-2.9,0.2l0.1,1.7l2.7-0.2l0.1,1.4l-2.7,0.2l0.3,3l-1.7,0.1L397.6,252.2z"/>
			<path class="st4" d="M405.7,251.6l1.7-0.1l0.2,6.1l3-0.1l0.1,1.4l-4.7,0.2L405.7,251.6z"/>
			<path class="st4" d="M413.1,251.4l0.1,7.5l-1.7,0l-0.1-7.5L413.1,251.4z"/>
			<path class="st4" d="M414.7,251.4l4.6,0.1l0,1.4l-2.9-0.1l0,1.7l2.7,0.1l0,1.4l-2.7-0.1l-0.1,3l-1.7,0L414.7,251.4z"/>
			<path class="st4" d="M424.8,256.1L422,256l-0.1,1.8l3.1,0.1l-0.1,1.4l-4.8-0.2l0.3-7.5l4.6,0.2l-0.1,1.4l-2.9-0.1l-0.1,1.6
				l2.8,0.1L424.8,256.1z"/>
			<path class="st4" d="M435.1,256.5c-0.3,2.4-1.9,3.8-4.1,3.5c-2.2-0.2-3.3-2.1-3.1-4.2c0.2-2.2,1.9-3.7,4.1-3.5
				C434.3,252.6,435.3,254.4,435.1,256.5z M429.7,256c-0.2,1.5,0.4,2.6,1.5,2.7c1.1,0.1,1.9-0.9,2.1-2.3c0.1-1.3-0.4-2.6-1.5-2.7
				C430.6,253.5,429.9,254.5,429.7,256z"/>
			<path class="st4" d="M436.7,253l4.5,0.7l-0.2,1.4l-2.8-0.4l-0.3,1.7l2.7,0.4l-0.2,1.4l-2.7-0.4l-0.5,3l-1.7-0.3L436.7,253z"/>
			<path class="st4" d="M444.8,254.4l4.5,0.9l-0.3,1.4l-2.8-0.6l-0.3,1.7l2.6,0.5l-0.3,1.4l-2.6-0.5l-0.6,3l-1.7-0.3L444.8,254.4z"
				/>
			<path class="st4" d="M450.5,261.3l-1,1.7l-1.7-0.4l4-6.7l2.2,0.5l0.5,7.8l-1.8-0.4l-0.1-2L450.5,261.3z M452.6,260.5l-0.1-1.7
				c0-0.5,0-1,0-1.5l0,0c-0.2,0.4-0.5,0.9-0.7,1.3l-0.8,1.4L452.6,260.5z"/>
			<path class="st4" d="M462,263.5c0.2-0.9,0.5-1.9,0.8-3l0,0c-0.5,0.8-1.1,1.8-1.6,2.5l-1.7,2.5l-1.3-0.4l0.1-3c0-0.9,0.1-2,0.2-3
				l0,0c-0.3,1-0.7,2.1-1,2.9l-1,2.7l-1.5-0.5l2.6-7l2.2,0.7l0,2.6c0,0.9-0.1,1.9-0.2,2.7l0,0c0.5-0.8,1-1.6,1.5-2.4l1.5-2.2
				l2.1,0.6l-1.8,7.3l-1.6-0.5L462,263.5z"/>
			<path class="st4" d="M468,260.7l-2.5,7.1l-1.6-0.6l2.5-7.1L468,260.7z"/>
			<path class="st4" d="M469.5,261.2l1.6,0.6l-2.1,5.7l2.8,1.1l-0.5,1.3l-4.4-1.7L469.5,261.2z"/>
			<path class="st4" d="M476.3,263.8l-2.8,6.9l-1.6-0.6l2.8-6.9L476.3,263.8z"/>
			<path class="st4" d="M480.1,270.2l-2.5-1.1l-0.7,1.6l2.8,1.2l-0.6,1.3l-4.4-1.9l3-6.9l4.2,1.9l-0.6,1.3l-2.7-1.2l-0.6,1.4
				l2.5,1.1L480.1,270.2z"/>
			<path class="st4" d="M480.8,272.1c0.3,0.4,0.8,0.9,1.5,1.2c0.7,0.3,1.2,0.2,1.4-0.2c0.2-0.4,0-0.8-0.7-1.5
				c-0.9-0.9-1.4-1.9-0.9-2.9c0.6-1.1,2-1.6,3.5-0.8c0.8,0.4,1.2,0.8,1.6,1.2l-0.9,1.1c-0.2-0.3-0.6-0.7-1.3-1
				c-0.7-0.3-1.1-0.2-1.3,0.2c-0.2,0.4,0.1,0.8,0.8,1.6c1,1,1.2,1.9,0.8,2.9c-0.6,1.1-1.9,1.7-3.7,0.8c-0.8-0.4-1.4-0.9-1.7-1.3
				L480.8,272.1z"/>
			<path class="st4" d="M492.2,271.5l-3.6,6.6l-1.5-0.8l3.6-6.6L492.2,271.5z"/>
			<path class="st4" d="M489.8,278.7l3.8-6.5l1.7,1l-0.1,3.2c0,0.9-0.1,1.9-0.3,2.8l0,0c0.4-0.9,0.9-1.8,1.5-2.8l1.1-1.9l1.3,0.8
				l-3.8,6.5l-1.5-0.9l0.1-3.3c0-0.9,0.1-2,0.2-2.9l0,0c-0.5,0.9-1,1.8-1.6,2.9l-1.1,1.9L489.8,278.7z"/>
			<path class="st4" d="M504.7,284.7c0.5-0.8,1.1-1.7,1.7-2.6l0,0c-0.7,0.7-1.6,1.4-2.3,1.9l-2.4,1.9l-1.1-0.7l1-2.9
				c0.3-0.9,0.7-1.9,1.1-2.8l0,0c-0.6,0.8-1.3,1.7-1.9,2.5l-1.7,2.3l-1.3-0.9l4.6-5.9l1.9,1.3l-0.8,2.5c-0.3,0.8-0.6,1.8-1,2.6l0,0
				c0.7-0.6,1.4-1.3,2.1-1.8l2.1-1.6l1.8,1.2l-3.9,6.4l-1.4-0.9L504.7,284.7z"/>
			<path class="st4" d="M510.9,288.9l-2.2-1.7l-1.1,1.4l2.5,1.9l-0.8,1.1l-3.8-2.9l4.5-6l3.7,2.8l-0.8,1.1l-2.3-1.8l-0.9,1.2
				l2.2,1.7L510.9,288.9z"/>
			<path class="st4" d="M513.1,294.8l0.3-1.5c0.1-0.6,0.2-1,0.3-1.5l0,0c-0.4,0.2-0.8,0.4-1.3,0.7l-1.3,0.7l-1.5-1.2l4.1-1.6
				l0.7-4.2l1.5,1.2l-0.4,1.5c-0.1,0.5-0.2,0.9-0.4,1.3l0,0c0.4-0.3,0.8-0.4,1.2-0.6l1.4-0.7l1.5,1.2l-4,1.5l-0.7,4.4L513.1,294.8z"
				/>
			<path class="st4" d="M521.3,292l-4.9,5.6l-1.3-1.1l4.9-5.6L521.3,292z"/>
			<path class="st4" d="M521.6,302.1c-0.3-0.1-1-0.5-1.6-1.1c-1.9-1.8-1.8-3.9-0.3-5.4c1.7-1.9,4-1.7,5.7-0.1c0.6,0.6,1,1.2,1.1,1.5
				l-1.2,0.8c-0.2-0.3-0.4-0.8-0.9-1.2c-1-0.9-2.3-1-3.4,0.2c-1,1.1-1,2.4,0.1,3.4c0.4,0.3,0.9,0.7,1.2,0.8L521.6,302.1z"/>
			<path class="st4" d="M529.5,304.9c-1.8,1.7-3.9,1.7-5.4,0.1c-1.6-1.6-1.3-3.7,0.2-5.2c1.6-1.6,3.8-1.7,5.4-0.2
				C531.3,301.4,530.9,303.5,529.5,304.9z M525.6,301.2c-1,1-1.3,2.2-0.5,3.1c0.8,0.8,2,0.5,3.1-0.5c1-0.9,1.3-2.2,0.5-3
				C527.9,299.8,526.6,300.1,525.6,301.2z"/>
			<path class="st4" d="M531.3,309.9l-1.8,0.9l-1.2-1.3l7.2-3.2l1.5,1.7l-4.1,6.7l-1.2-1.4l1.1-1.7L531.3,309.9z M533.5,310.4
				l0.9-1.4c0.2-0.4,0.6-0.9,0.8-1.2l0,0c-0.4,0.2-0.9,0.5-1.3,0.7l-1.5,0.7L533.5,310.4z"/>
			<path class="st4" d="M533.3,315l5.9-4.7l1.2,1.6l-1.2,2.9c-0.3,0.8-0.8,1.8-1.3,2.6l0,0c0.7-0.7,1.5-1.4,2.4-2.1l1.7-1.4l1,1.2
				l-5.9,4.7l-1.1-1.4l1.3-3.1c0.4-0.8,0.8-1.8,1.3-2.7l0,0c-0.7,0.7-1.6,1.3-2.5,2.1l-1.8,1.4L533.3,315z"/>
			<path class="st4" d="M543.9,316.6c0.4,0.4,1,1.1,1.5,1.8c0.8,1.2,1.2,2.1,1.1,3c0,1-0.5,1.9-1.6,2.7c-1.2,0.8-2.3,1-3.2,0.8
				c-1-0.3-1.9-1.1-2.8-2.2c-0.5-0.7-0.8-1.3-1-1.6L543.9,316.6z M539.9,321.5c0.1,0.1,0.2,0.3,0.3,0.5c0.9,1.3,2.2,1.6,3.6,0.5
				c1.3-0.9,1.4-2.1,0.6-3.3c-0.2-0.3-0.4-0.5-0.5-0.6L539.9,321.5z"/>
			<path class="st4" d="M546.5,333.3c-0.3-0.2-0.8-0.7-1.3-1.5c-1.4-2.2-0.7-4.2,1.1-5.3c2.2-1.4,4.3-0.6,5.6,1.3
				c0.5,0.7,0.7,1.4,0.7,1.7l-1.3,0.4c-0.1-0.4-0.2-0.8-0.5-1.4c-0.7-1.1-2-1.6-3.4-0.7c-1.3,0.8-1.6,2.1-0.8,3.3
				c0.3,0.4,0.7,0.9,1,1.1L546.5,333.3z"/>
			<path class="st4" d="M551.8,336.4l-1.4-2.4l-1.5,0.9l1.6,2.7l-1.2,0.7l-2.4-4.1l6.5-3.8l2.3,4l-1.2,0.7l-1.5-2.5l-1.3,0.8
				l1.4,2.4L551.8,336.4z"/>
			<path class="st4" d="M549.7,339.1l6.6-3.5l0.9,1.8l-1.7,2.7c-0.5,0.8-1.1,1.6-1.7,2.3l0,0c0.8-0.6,1.7-1.1,2.7-1.6l1.9-1l0.7,1.4
				l-6.6,3.5l-0.8-1.6l1.8-2.8c0.5-0.8,1.1-1.7,1.7-2.4l0,0c-0.9,0.5-1.8,1-2.9,1.6l-2,1.1L549.7,339.1z"/>
			<path class="st4" d="M559.2,344.4l-0.9-1.8l1.3-0.6l2.5,5.2l-1.3,0.6l-0.9-1.9l-5.5,2.6l-0.7-1.5L559.2,344.4z"/>
			<path class="st4" d="M562.4,348.1c0.3,0.5,0.7,1.2,1,2c0.4,1,0.6,1.8,0.4,2.5c-0.2,0.5-0.5,1-1.2,1.2c-0.9,0.4-1.7,0-2.2-0.5l0,0
				c0,0.6-0.3,1-0.9,1.5c-0.7,0.5-1.5,1.1-1.7,1.4l-0.7-1.6c0.1-0.2,0.6-0.6,1.4-1.2c0.8-0.6,0.9-0.9,0.6-1.6l-0.2-0.5l-2.7,1.2
				l-0.7-1.5L562.4,348.1z M560.1,350.9l0.3,0.6c0.3,0.8,0.9,1.1,1.5,0.8c0.6-0.3,0.8-0.8,0.5-1.6c-0.2-0.4-0.3-0.6-0.4-0.7
				L560.1,350.9z"/>
			<path class="st4" d="M560.5,358l-2,0.2l-0.6-1.6l7.8-0.5l0.8,2.1l-6.2,4.8l-0.6-1.7l1.6-1.2L560.5,358z M562.4,359.3l1.3-1
				c0.4-0.3,0.8-0.6,1.2-0.9l0,0c-0.5,0.1-1,0.1-1.5,0.2l-1.6,0.1L562.4,359.3z"/>
			<path class="st4" d="M567.7,361.3l0.5,1.6l-5.8,1.9l0.9,2.8l-1.4,0.4l-1.5-4.5L567.7,361.3z"/>
			<path class="st4" d="M565.1,372l-2,0l-0.5-1.7l7.8,0.3l0.6,2.1l-6.6,4.2l-0.5-1.8l1.7-1.1L565.1,372z M566.8,373.5l1.4-0.9
				c0.4-0.2,0.9-0.5,1.3-0.7l0,0c-0.5,0-1,0-1.5,0l-1.7,0L566.8,373.5z"/>
			<path class="st4" d="M568.8,383.2c0.9-0.2,1.9-0.5,3-0.7l0,0c-1,0-2.1-0.1-3-0.2l-3.1-0.3l-0.3-1.3l2.7-1.4
				c0.8-0.4,1.8-0.9,2.7-1.3l0,0c-1,0.2-2.1,0.4-3.1,0.5l-2.8,0.5l-0.3-1.5l7.4-1.1l0.5,2.2l-2.3,1.2c-0.8,0.4-1.7,0.8-2.5,1.2l0,0
				c0.9,0,1.9,0.1,2.8,0.1l2.6,0.3l0.5,2.2l-7.2,2l-0.3-1.6L568.8,383.2z"/>
			<path class="st4" d="M570.3,390.4l-0.4-2.7l-1.8,0.3l0.5,3l-1.4,0.2l-0.8-4.7l7.4-1.2l0.7,4.6l-1.4,0.2l-0.5-2.9l-1.5,0.3
				l0.4,2.7L570.3,390.4z"/>
			<path class="st4" d="M574.7,391.4c0.2,0.5,0.3,1.3,0.4,2.2c0.1,1.1,0.1,1.9-0.3,2.5c-0.3,0.5-0.8,0.8-1.5,0.9
				c-0.9,0.1-1.7-0.5-2-1.1l0,0c-0.1,0.5-0.6,0.9-1.3,1.2c-0.8,0.3-1.8,0.7-2,0.9l-0.2-1.7c0.2-0.1,0.8-0.4,1.7-0.7
				c0.9-0.3,1.1-0.7,1-1.4l-0.1-0.5l-2.9,0.4l-0.2-1.7L574.7,391.4z M571.7,393.4l0.1,0.7c0.1,0.8,0.6,1.3,1.2,1.2
				c0.7-0.1,1-0.6,0.9-1.4c0-0.4-0.1-0.6-0.1-0.8L571.7,393.4z"/>
			<path class="st4" d="M575.8,399.8l-7.5,0.7l-0.2-1.7l7.5-0.7L575.8,399.8z"/>
			<path class="st4" d="M569,407.3c-0.2-0.3-0.4-1-0.4-1.9c-0.2-2.6,1.4-4,3.5-4.1c2.6-0.2,4.1,1.6,4.2,3.8c0.1,0.9-0.1,1.6-0.2,1.9
				l-1.4-0.3c0.1-0.4,0.2-0.8,0.2-1.4c-0.1-1.3-1-2.3-2.6-2.2c-1.5,0.1-2.4,1-2.3,2.5c0,0.5,0.2,1.1,0.3,1.4L569,407.3z"/>
			<path class="st4" d="M570.7,410l-1.9-0.5l0-1.8l7.5,2.2l0,2.2l-7.5,2.4l0-1.8l1.9-0.6L570.7,410z M572,411.8l1.6-0.5
				c0.4-0.1,1-0.3,1.4-0.4l0,0c-0.4-0.1-1-0.2-1.5-0.3l-1.6-0.4L572,411.8z"/>
		</g>
	</g>
	<g>
		<g>
			<path class="st4" d="M401,236l0.2,2.4l2.4-0.2l-0.2-2.4l1.4-0.1l0.4,6.4l-1.4,0.1l-0.2-2.7l-2.4,0.2l0.2,2.7l-1.4,0.1l-0.4-6.4
				L401,236z"/>
			<path class="st4" d="M412.3,238.6c0.1,2.1-1.2,3.4-3,3.4c-1.9,0.1-3-1.3-3.1-3.2c-0.1-1.9,1.1-3.4,3-3.4
				C411.1,235.5,412.2,236.9,412.3,238.6z M407.7,238.9c0,1.2,0.6,2.1,1.6,2.1c1,0,1.5-1,1.5-2.2c0-1.1-0.6-2.1-1.6-2.1
				C408.2,236.7,407.7,237.6,407.7,238.9z"/>
			<path class="st4" d="M414.2,241.9l-1.4-6.4l1.5,0l0.4,2.6c0.1,0.8,0.2,1.6,0.3,2.2l0,0c0.1-0.7,0.3-1.5,0.5-2.2l0.6-2.6l1.5,0
				l0.5,2.7c0.1,0.7,0.2,1.4,0.3,2.1l0,0c0.1-0.7,0.3-1.5,0.4-2.2l0.6-2.6l1.5,0l-1.7,6.3l-1.6,0l-0.5-2.8c-0.1-0.6-0.2-1.2-0.3-2
				l0,0c-0.1,0.7-0.2,1.3-0.4,2l-0.6,2.7L414.2,241.9z"/>
			<path class="st4" d="M422.4,240.1l0-0.2c0-0.5,0.2-1,0.6-1.5c0.3-0.3,0.6-0.6,0.6-1c0-0.3-0.2-0.6-0.7-0.6
				c-0.3,0-0.7,0.1-0.9,0.2l-0.3-1c0.4-0.2,0.9-0.3,1.6-0.3c1.2,0.1,1.8,0.8,1.7,1.6c0,0.7-0.5,1.2-0.9,1.5
				c-0.4,0.4-0.5,0.7-0.5,1.2l0,0.2L422.4,240.1z M422.1,241.4c0-0.5,0.4-0.8,0.9-0.8c0.5,0,0.8,0.4,0.8,0.9c0,0.5-0.4,0.8-0.9,0.8
				C422.4,242.2,422.1,241.9,422.1,241.4z"/>
		</g>
	</g>
	<g>
		<path class="st3" d="M305.8,246.5c0.7-0.1,1.6-0.3,2.5-0.8c0.9-0.6,1.1-1.2,0.8-1.8c-0.3-0.5-0.9-0.6-2.2-0.3
			c-1.7,0.4-3.1,0.2-3.9-1c-0.9-1.4-0.4-3.3,1.6-4.6c1-0.6,1.8-0.8,2.4-0.9l0.5,1.8c-0.4,0-1.2,0.2-2,0.7c-0.8,0.5-1,1.1-0.7,1.6
			c0.3,0.5,1,0.5,2.3,0.2c1.8-0.4,3,0,3.8,1.1c0.9,1.4,0.5,3.3-1.8,4.8c-1,0.6-2.1,1-2.7,1L305.8,246.5z"/>
		<path class="st3" d="M316.8,237.7l-3.2,1.8l1.2,2.1l3.6-2l0.9,1.6l-5.5,3.2l-5-8.7l5.4-3.1l0.9,1.6l-3.4,1.9l1,1.8l3.2-1.8
			L316.8,237.7z"/>
		<path class="st3" d="M321.5,237.1l0.5,2.6l-2.1,1.1l-1.8-10.3l2.6-1.4l7.3,7.5l-2.2,1.1l-1.9-1.9L321.5,237.1z M323,234.4
			l-1.5-1.6c-0.4-0.4-0.9-1-1.3-1.5l0,0c0.1,0.6,0.4,1.3,0.5,1.9l0.4,2.2L323,234.4z"/>
		<path class="st3" d="M335.4,229.1c-0.5-1.1-1.2-2.4-1.7-3.7l0,0c0.2,1.3,0.4,2.8,0.6,4l0.5,4.1l-1.6,0.7l-2.5-3.1
			c-0.8-0.9-1.7-2.1-2.4-3.2l0,0c0.5,1.3,1.1,2.7,1.5,3.9l1.4,3.5l-1.9,0.8l-3.5-9.4l2.7-1.2l2.2,2.7c0.8,0.9,1.5,1.9,2.2,2.9l0,0
			c-0.2-1.2-0.4-2.5-0.6-3.7l-0.4-3.5l2.7-1.2l4.6,8.9l-2,0.9L335.4,229.1z"/>
		<path class="st3" d="M337.1,221.8l2.1-0.8l2.9,7.6l3.7-1.4l0.7,1.8l-5.8,2.2L337.1,221.8z"/>
		<path class="st3" d="M352,222.5l-3.5,1.2l0.8,2.2l3.9-1.3l0.6,1.8l-6,2l-3.2-9.5l5.8-2l0.6,1.8l-3.7,1.3l0.7,2l3.5-1.2L352,222.5z
			"/>
		<path class="st3" d="M354.7,223.6c0.7,0.1,1.7,0.2,2.6-0.1c1-0.3,1.4-0.9,1.2-1.5c-0.2-0.6-0.7-0.8-2-0.9
			c-1.8-0.1-3.1-0.7-3.5-2.1c-0.5-1.6,0.5-3.3,2.8-3.9c1.1-0.3,1.9-0.3,2.6-0.2l0,1.9c-0.4-0.1-1.2-0.1-2.1,0.1
			c-0.9,0.3-1.3,0.8-1.1,1.3c0.2,0.6,0.8,0.7,2.2,0.8c1.9,0.1,2.9,0.8,3.3,2.1c0.5,1.6-0.4,3.3-3,4.1c-1.1,0.3-2.3,0.4-2.9,0.2
			L354.7,223.6z"/>
		<path class="st3" d="M362.5,221.4c0.7,0.2,1.6,0.2,2.6,0c1-0.3,1.4-0.8,1.3-1.4c-0.2-0.6-0.7-0.8-2-1c-1.8-0.2-3-0.8-3.4-2.2
			c-0.4-1.7,0.6-3.3,2.9-3.8c1.1-0.3,2-0.2,2.6-0.1l0,1.9c-0.4-0.1-1.2-0.2-2.1,0c-0.9,0.2-1.3,0.8-1.2,1.3c0.2,0.6,0.8,0.8,2.1,0.9
			c1.9,0.2,2.9,0.9,3.2,2.3c0.4,1.6-0.5,3.3-3.2,4c-1.1,0.3-2.3,0.3-2.9,0.1L362.5,221.4z"/>
		<path class="st3" d="M373.5,218.8c0.7,0.2,1.6,0.3,2.6,0.1c1-0.2,1.5-0.7,1.4-1.4c-0.1-0.6-0.6-0.9-1.9-1.1c-1.7-0.3-3-1-3.2-2.4
			c-0.3-1.7,0.8-3.2,3.2-3.7c1.1-0.2,2-0.1,2.6,0l-0.2,1.9c-0.4-0.1-1.2-0.3-2.1-0.1c-1,0.2-1.3,0.7-1.2,1.2c0.1,0.6,0.7,0.8,2.1,1
			c1.9,0.3,2.8,1.1,3.1,2.4c0.3,1.6-0.7,3.3-3.4,3.8c-1.1,0.2-2.3,0.1-2.9-0.1L373.5,218.8z"/>
		<path class="st3" d="M382.5,209.4l0.5,3.8l3.7-0.5l-0.5-3.8l2.2-0.3l1.4,9.9l-2.2,0.3l-0.6-4.1l-3.7,0.5l0.6,4.1l-2.2,0.3
			l-1.4-9.9L382.5,209.4z"/>
		<path class="st3" d="M400.4,212.3c0.3,3.3-1.5,5.4-4.4,5.7c-3,0.3-4.9-1.8-5.1-4.6c-0.3-3,1.4-5.4,4.4-5.6
			C398.3,207.4,400.2,209.6,400.4,212.3z M393.3,213.1c0.2,1.9,1.2,3.2,2.7,3.1c1.5-0.1,2.3-1.7,2.1-3.6c-0.2-1.8-1.2-3.2-2.7-3.1
			C393.8,209.6,393.1,211.2,393.3,213.1z"/>
		<path class="st3" d="M401.9,207.5c0.7-0.1,1.7-0.3,3-0.3c1.4-0.1,2.4,0.2,3.1,0.7c0.7,0.5,1.1,1.3,1.2,2.3c0,1-0.3,1.8-0.8,2.4
			c-0.7,0.8-1.9,1.1-3.2,1.2c-0.3,0-0.6,0-0.8,0l0.1,3.6l-2.2,0.1L401.9,207.5z M404.4,211.9c0.2,0,0.4,0,0.8,0
			c1.2,0,1.9-0.7,1.9-1.7c0-0.9-0.7-1.4-1.8-1.4c-0.5,0-0.8,0.1-0.9,0.1L404.4,211.9z"/>
		<path class="st3" d="M411.1,207.1c0.7-0.1,1.7-0.2,3.1-0.2c1.4,0,2.4,0.3,3,0.8c0.6,0.5,1,1.4,1,2.3c0,1-0.4,1.8-1,2.4
			c-0.8,0.7-1.9,1-3.3,1c-0.3,0-0.6,0-0.8-0.1l-0.1,3.6l-2.2,0L411.1,207.1z M413.2,211.7c0.2,0,0.4,0.1,0.8,0.1c1.2,0,2-0.6,2-1.6
			c0-0.9-0.6-1.5-1.7-1.5c-0.5,0-0.8,0-0.9,0.1L413.2,211.7z"/>
		<path class="st3" d="M422.2,207.2l-0.3,10l-2.3-0.1l0.3-10L422.2,207.2z"/>
		<path class="st3" d="M423.9,217.3l0.7-10l2.6,0.2l1.8,3.8c0.5,1.1,1,2.4,1.4,3.5l0,0c-0.1-1.3,0-2.7,0.1-4.2l0.2-2.9l2.1,0.1
			l-0.7,10l-2.4-0.2l-1.9-4c-0.5-1.1-1.1-2.4-1.5-3.6l0,0c0,1.3-0.1,2.7-0.2,4.4l-0.2,3L423.9,217.3z"/>
		<path class="st3" d="M442.4,218.6c-0.7,0.2-2.1,0.3-3.4,0.2c-1.8-0.2-3.1-0.8-3.9-1.8c-0.8-1-1.2-2.3-1-3.8c0.4-3.3,3-4.9,6.3-4.5
			c1.3,0.2,2.2,0.5,2.7,0.8l-0.7,1.7c-0.5-0.3-1.2-0.6-2.3-0.7c-1.9-0.2-3.4,0.7-3.7,2.8c-0.3,2,0.9,3.4,2.7,3.6
			c0.5,0.1,0.9,0.1,1.1,0l0.3-2.1l-1.5-0.2l0.2-1.8l3.7,0.5L442.4,218.6z"/>
		<path class="st3" d="M453.8,216.8l-3.6-0.7l-0.4,2.3l4,0.8l-0.3,1.8l-6.3-1.2l1.8-9.8l6.1,1.1l-0.3,1.8l-3.8-0.7l-0.4,2l3.6,0.7
			L453.8,216.8z"/>
		<path class="st3" d="M460.1,222.5l-0.5-2c-0.2-0.8-0.3-1.3-0.5-1.9l0,0c-0.3,0.5-0.7,1-1.2,1.6l-1.2,1.6l-2.5-0.6l4-4.3l-1.6-5.4
			l2.5,0.6l0.4,2c0.2,0.7,0.3,1.2,0.4,1.8l0,0c0.4-0.6,0.7-1,1-1.5l1.2-1.6l2.5,0.6l-3.8,4.1l1.7,5.7L460.1,222.5z"/>
		<path class="st3" d="M466.4,213.9c0.7,0.1,1.7,0.3,3,0.6c1.3,0.4,2.2,0.9,2.7,1.6c0.5,0.7,0.7,1.6,0.4,2.5c-0.3,0.9-0.8,1.7-1.5,2
			c-0.9,0.5-2.1,0.5-3.4,0.1c-0.3-0.1-0.5-0.2-0.7-0.3l-1,3.4l-2.2-0.6L466.4,213.9z M467.4,218.9c0.2,0.1,0.4,0.2,0.7,0.3
			c1.2,0.3,2-0.1,2.3-1c0.2-0.9-0.2-1.6-1.3-1.9c-0.4-0.1-0.8-0.2-0.9-0.2L467.4,218.9z"/>
		<path class="st3" d="M477.3,216.9l-3,9.5l-2.2-0.7l3-9.5L477.3,216.9z"/>
		<path class="st3" d="M479.5,217.8c0.7,0.1,1.8,0.4,2.9,0.8c1.4,0.5,2.3,1,2.8,1.8c0.4,0.6,0.5,1.4,0.2,2.3
			c-0.4,1.2-1.6,1.7-2.5,1.7l0,0c0.6,0.5,0.7,1.3,0.6,2.2c-0.1,1.2-0.2,2.5-0.2,2.9l-2.2-0.8c-0.1-0.3,0-1.2,0.1-2.4
			c0.2-1.3-0.1-1.7-1-2l-0.6-0.2l-1.3,3.7l-2.1-0.7L479.5,217.8z M480.2,222.6l0.8,0.3c1.1,0.4,1.9,0.1,2.2-0.8
			c0.3-0.9-0.1-1.5-1.1-1.9c-0.5-0.2-0.8-0.2-1-0.3L480.2,222.6z"/>
		<path class="st3" d="M490.3,221.6l-3.6,9.3l-2.1-0.8l3.6-9.3L490.3,221.6z"/>
		<path class="st3" d="M495.7,230.1l-3.4-1.4l-0.9,2.2l3.8,1.6l-0.7,1.7l-5.9-2.5l3.9-9.2l5.7,2.4l-0.7,1.7l-3.6-1.5L493,227
			l3.4,1.4L495.7,230.1z"/>
		<path class="st3" d="M495.8,234.8l4.3-9l2.4,1.1l0.3,4.2c0.1,1.2,0.1,2.6,0,3.8l0,0c0.4-1.3,1-2.5,1.6-3.8l1.3-2.6l1.9,0.9l-4.3,9
			l-2.1-1l-0.2-4.4c-0.1-1.2-0.1-2.7,0-3.9l0,0c-0.5,1.2-1.1,2.5-1.8,4l-1.3,2.7L495.8,234.8z"/>
		<path class="st3" d="M511.6,242.5c-0.5,0-1.4-0.3-2.5-0.8c-3-1.7-3.6-4.4-2.2-6.9c1.6-3,4.7-3.5,7.3-2c1,0.6,1.7,1.2,1.9,1.6
			l-1.3,1.4c-0.3-0.4-0.8-0.9-1.5-1.2c-1.6-0.9-3.3-0.6-4.4,1.4c-1,1.8-0.5,3.4,1.3,4.4c0.6,0.3,1.3,0.6,1.8,0.6L511.6,242.5z"/>
		<path class="st3" d="M520,243l-3.1-1.9l-1.2,2l3.5,2.1l-1,1.6l-5.5-3.3l5.1-8.6l5.3,3.2l-1,1.6l-3.3-2l-1.1,1.8l3.1,1.9L520,243z"
			/>
	</g>
	<g>
		<g>
			<path class="st3" d="M365.4,295.4c1.4,3,0.4,5.6-2.3,6.8c-2.7,1.2-5.2-0.1-6.4-2.7c-1.2-2.7-0.4-5.6,2.3-6.8
				C361.8,291.5,364.3,292.9,365.4,295.4z M358.9,298.5c0.8,1.8,2.2,2.7,3.6,2c1.4-0.6,1.6-2.3,0.8-4.1c-0.7-1.6-2.2-2.7-3.6-2
				C358.3,295,358.1,296.7,358.9,298.5z"/>
			<path class="st3" d="M367.5,289.4l1.9,5.4c0.6,1.6,1.5,2.2,2.6,1.8c1.1-0.4,1.5-1.4,0.9-3.1l-1.9-5.4l2.1-0.8l1.9,5.3
				c1,2.9,0.1,4.8-2.4,5.7c-2.4,0.8-4.2,0-5.3-3l-1.9-5.2L367.5,289.4z"/>
			<path class="st3" d="M375.5,286.8c0.7-0.3,1.7-0.7,2.8-1c1.4-0.4,2.5-0.5,3.3-0.1c0.7,0.3,1.2,0.9,1.4,1.8c0.3,1.2-0.3,2.3-1,2.8
				l0,0c0.7,0.1,1.3,0.6,1.8,1.4c0.6,1,1.2,2.2,1.5,2.5l-2.2,0.6c-0.2-0.2-0.7-1-1.3-2.1c-0.6-1.1-1.1-1.3-2-1.1l-0.7,0.2l1,3.8
				l-2.2,0.6L375.5,286.8z M378.7,290.4l0.9-0.2c1.1-0.3,1.6-1,1.3-1.9c-0.2-0.9-1-1.2-2-0.9c-0.5,0.1-0.8,0.3-1,0.3L378.7,290.4z"
				/>
			<path class="st3" d="M396.6,291.9c-0.4,0.3-1.3,0.7-2.5,0.9c-3.4,0.6-5.5-1.2-6-4c-0.6-3.4,1.5-5.6,4.5-6.2
				c1.2-0.2,2.1-0.1,2.5,0l-0.1,1.8c-0.5-0.1-1.1-0.2-1.9,0c-1.8,0.3-3,1.6-2.6,3.8c0.3,2,1.7,3,3.7,2.7c0.7-0.1,1.4-0.4,1.8-0.6
				L396.6,291.9z"/>
			<path class="st3" d="M399.2,281.9l0.6,5.7c0.2,1.7,0.9,2.5,2,2.4c1.2-0.1,1.7-1,1.6-2.8l-0.6-5.7l2.2-0.2l0.5,5.6
				c0.3,3.1-1.1,4.7-3.7,4.9c-2.5,0.2-4.1-1-4.4-4.2l-0.5-5.5L399.2,281.9z"/>
			<path class="st3" d="M407.8,288.9c0.6,0.3,1.6,0.6,2.5,0.6c1,0,1.6-0.5,1.6-1.1c0-0.6-0.5-1-1.7-1.4c-1.7-0.5-2.8-1.4-2.8-2.9
				c0-1.7,1.4-3,3.7-3.1c1.1,0,2,0.2,2.6,0.4l-0.5,1.8c-0.4-0.2-1.1-0.4-2.1-0.4c-1,0-1.4,0.5-1.4,1c0,0.6,0.6,0.9,1.9,1.4
				c1.8,0.6,2.6,1.5,2.7,2.9c0,1.7-1.2,3.1-4,3.2c-1.1,0-2.3-0.2-2.8-0.5L407.8,288.9z"/>
			<path class="st3" d="M417.9,283l-2.7-0.1l0.1-1.9l7.7,0.3l-0.1,1.9l-2.7-0.1l-0.3,8.1l-2.3-0.1L417.9,283z"/>
			<path class="st3" d="M432.8,287.3c-0.4,3.3-2.5,5-5.4,4.7c-2.9-0.3-4.4-2.7-4.1-5.6c0.3-3,2.5-5,5.4-4.7
				C431.7,282.1,433.1,284.5,432.8,287.3z M425.6,286.6c-0.2,1.9,0.6,3.4,2.1,3.6c1.5,0.2,2.5-1.2,2.8-3.1c0.2-1.8-0.5-3.4-2-3.6
				C426.9,283.3,425.8,284.7,425.6,286.6z"/>
			<path class="st3" d="M442.4,290.4c0.2-1.2,0.4-2.6,0.7-4l0,0c-0.6,1.2-1.2,2.5-1.9,3.6l-2,3.6l-1.7-0.4l-0.3-4
				c-0.1-1.2-0.1-2.7-0.1-4l0,0c-0.3,1.3-0.7,2.8-1,4l-0.9,3.7l-2-0.4l2.6-9.7l2.9,0.6l0.3,3.5c0.1,1.2,0.1,2.5,0.1,3.7l0,0
				c0.5-1.1,1.1-2.3,1.6-3.3l1.7-3l2.9,0.6l-1.5,9.9l-2.2-0.4L442.4,290.4z"/>
			<path class="st3" d="M452.3,292.7l-3.5-1l-0.7,2.3l3.9,1.1l-0.5,1.8l-6.1-1.8l2.8-9.6l5.9,1.7l-0.5,1.8l-3.7-1.1l-0.6,2l3.5,1
				L452.3,292.7z"/>
			<path class="st3" d="M456.2,288.1c0.7,0.1,1.8,0.4,2.9,0.8c1.4,0.5,2.3,1.1,2.8,1.8c0.4,0.6,0.5,1.4,0.1,2.3
				c-0.4,1.2-1.6,1.7-2.5,1.7l0,0c0.6,0.5,0.7,1.3,0.6,2.2c-0.1,1.2-0.2,2.5-0.2,2.9l-2.2-0.8c-0.1-0.3,0-1.2,0.1-2.4
				c0.2-1.3-0.1-1.7-1-2.1l-0.6-0.2l-1.3,3.7l-2.1-0.8L456.2,288.1z M456.8,292.9l0.8,0.3c1.1,0.4,1.9,0.1,2.2-0.7
				c0.3-0.9-0.1-1.5-1.1-1.9c-0.5-0.2-0.8-0.3-1-0.3L456.8,292.9z"/>
			<path class="st3" d="M461.9,298.3c0.4,0.5,1.2,1.2,2,1.6c0.9,0.4,1.6,0.3,1.9-0.3c0.3-0.6,0-1.1-1-2c-1.3-1.2-1.9-2.5-1.3-3.8
				c0.7-1.6,2.5-2.2,4.7-1.2c1,0.5,1.7,1,2.1,1.5l-1.2,1.5c-0.3-0.3-0.8-0.9-1.7-1.3c-0.9-0.4-1.5-0.2-1.7,0.3
				c-0.3,0.6,0.1,1.1,1.1,2c1.3,1.3,1.7,2.5,1.2,3.8c-0.7,1.5-2.4,2.3-4.9,1.2c-1-0.5-2-1.2-2.3-1.7L461.9,298.3z"/>
		</g>
	</g>
	<g>
		<path class="st2" d="M237,588.2c-0.2-0.7-0.6-1.6-1.3-2.3c-0.7-0.8-1.4-0.9-1.9-0.4c-0.5,0.4-0.4,1,0.1,2.2
			c0.7,1.6,0.8,3.1-0.2,4.1c-1.2,1.2-3.2,1.1-4.9-0.6c-0.8-0.8-1.2-1.6-1.4-2.2l1.7-0.9c0.1,0.4,0.4,1.1,1.1,1.9
			c0.7,0.7,1.3,0.7,1.7,0.4c0.5-0.4,0.3-1.1-0.3-2.3c-0.8-1.7-0.7-3,0.4-4c1.2-1.2,3.2-1.2,5.1,0.8c0.8,0.8,1.4,1.9,1.5,2.5
			L237,588.2z"/>
		<path class="st2" d="M225.9,585l1.8,2l-1.4,1.3l-5.2-5.8l1.4-1.3l1.9,2.1l6.1-5.5l1.5,1.7L225.9,585z"/>
		<path class="st2" d="M218.3,571.5c2.5-2.1,5.4-1.9,7.3,0.4c1.9,2.3,1.3,5.1-0.9,7c-2.3,2-5.3,1.9-7.2-0.4
			C215.4,576.1,216.1,573.3,218.3,571.5z M223.1,577c1.5-1.3,2-2.9,1-4.1c-1-1.2-2.7-0.9-4.2,0.3c-1.4,1.2-2,2.8-1,4
			C219.9,578.5,221.6,578.3,223.1,577z"/>
		<path class="st2" d="M213.6,573.3c-0.5-0.5-1.3-1.3-2-2.3c-0.9-1.2-1.4-2.2-1.4-3.1c0-0.8,0.4-1.5,1.1-2c1-0.8,2.3-0.6,3.1-0.1
			l0,0c-0.2-0.7,0.1-1.5,0.7-2.2c0.7-0.9,1.6-2,1.7-2.4l1.4,1.9c-0.1,0.3-0.6,1-1.4,2c-0.8,1-0.8,1.5-0.3,2.3l0.4,0.5l3.1-2.4
			l1.4,1.8L213.6,573.3z M215.6,568.9l-0.6-0.7c-0.7-0.9-1.6-1.1-2.3-0.5c-0.7,0.6-0.7,1.4-0.1,2.2c0.3,0.4,0.6,0.7,0.7,0.8
			L215.6,568.9z"/>
		<path class="st2" d="M209.2,557.9l2.2,3l1.9-1.4l-2.4-3.4l1.5-1.1l3.8,5.2l-8.2,5.9l-3.7-5.1l1.5-1.1l2.3,3.2l1.7-1.2l-2.2-3
			L209.2,557.9z"/>
		<path class="st2" d="M209.7,555.3c-0.1-0.7-0.4-1.6-0.9-2.5c-0.6-0.9-1.3-1.1-1.8-0.7c-0.5,0.4-0.6,1-0.2,2.2
			c0.5,1.7,0.3,3.2-0.9,4c-1.4,1-3.3,0.5-4.7-1.5c-0.6-0.9-0.9-1.8-1-2.4l1.8-0.6c0.1,0.4,0.2,1.2,0.8,2s1.2,1,1.6,0.7
			c0.5-0.4,0.5-1,0.1-2.4c-0.5-1.9-0.2-3.1,1-3.9c1.4-1,3.3-0.7,4.9,1.6c0.6,1,1,2.1,1.1,2.7L209.7,555.3z"/>
		<path class="st2" d="M202.2,544.4l2.6-0.7l1.2,2l-10.2,2.6l-1.6-2.6l7-8l1.3,2.1l-1.8,2L202.2,544.4z M199.4,543.1l-1.5,1.7
			c-0.4,0.5-1,1-1.4,1.5l0,0c0.6-0.2,1.3-0.5,1.9-0.6l2.1-0.6L199.4,543.1z"/>
		<path class="st2" d="M200.8,537l-8.8,4.9l-1.3-2.3l2.2-3.6c0.6-1,1.4-2.2,2.2-3.1l0,0c-1.1,0.8-2.3,1.5-3.6,2.2l-2.6,1.4l-1-1.8
			l8.8-4.9l1.2,2.1l-2.4,3.8c-0.7,1.1-1.5,2.3-2.3,3.3l0,0c1.1-0.7,2.4-1.4,3.8-2.2l2.7-1.5L200.8,537z"/>
		<path class="st2" d="M187,532.7c-0.5-0.7-1.1-1.6-1.6-2.7c-0.9-1.7-1.1-3-0.9-4.2c0.2-1.3,1-2.4,2.6-3.2c1.7-0.9,3.2-0.8,4.4-0.3
			c1.3,0.6,2.4,1.8,3.3,3.6c0.5,1.1,0.8,1.8,1,2.4L187,532.7z M193.4,526.9c0-0.2-0.2-0.5-0.3-0.7c-0.9-1.9-2.6-2.5-4.7-1.5
			c-1.9,0.9-2.3,2.5-1.4,4.3c0.2,0.5,0.4,0.7,0.5,0.9L193.4,526.9z"/>
		<path class="st2" d="M181,520.5c-0.5-0.7-1-1.7-1.4-2.7c-0.8-1.8-1-3-0.7-4.2c0.3-1.3,1.2-2.4,2.8-3.1c1.8-0.8,3.3-0.7,4.4-0.1
			c1.2,0.6,2.3,1.9,3.1,3.8c0.5,1.1,0.7,1.9,0.9,2.4L181,520.5z M187.7,515.1c0-0.2-0.2-0.5-0.3-0.7c-0.8-1.9-2.4-2.7-4.6-1.7
			c-1.9,0.8-2.5,2.4-1.7,4.2c0.2,0.5,0.4,0.8,0.5,0.9L187.7,515.1z"/>
		<path class="st2" d="M175.9,508.7l9.4-3.8l0.9,2.1l-9.4,3.8L175.9,508.7z"/>
		<path class="st2" d="M181.2,495.6c0.5,0.6,1.2,1.7,1.7,3c0.6,1.7,0.7,3.1,0.2,4.3c-0.5,1.2-1.6,2.1-2.9,2.6
			c-3.2,1.2-5.8-0.5-7-3.6c-0.5-1.2-0.6-2.3-0.5-2.8l1.9-0.2c0,0.6,0,1.3,0.4,2.4c0.7,1.8,2.2,2.8,4.2,2c2-0.7,2.7-2.4,2-4.1
			c-0.2-0.5-0.4-0.9-0.5-1l-2,0.7l0.5,1.5l-1.7,0.6l-1.3-3.5L181.2,495.6z"/>
		<path class="st2" d="M170.8,495l9.6-3.2l0.7,2.2l-9.6,3.2L170.8,495z"/>
		<path class="st2" d="M171.4,490.7l0.8,2.6l-1.8,0.6l-2.3-7.4l1.8-0.6l0.8,2.6l7.8-2.4l0.7,2.2L171.4,490.7z"/>
		<path class="st2" d="M174.6,481.8l2.7,0l0.6,2.3l-10.6-0.3l-0.8-2.9l8.9-5.7l0.7,2.4l-2.3,1.4L174.6,481.8z M172.3,479.8l-1.9,1.2
			c-0.5,0.3-1.2,0.7-1.7,1l0,0c0.6,0,1.4-0.1,2-0.1l2.2,0L172.3,479.8z"/>
		<path class="st2" d="M165.4,476.7l-0.5-2.2l8-1.9l-0.9-3.9l1.9-0.4l1.5,6.1L165.4,476.7z"/>
		<path class="st2" d="M163.1,466.1c-0.3-0.7-0.5-1.6-0.8-3c-0.3-1.4-0.2-2.4,0.2-3.2c0.4-0.7,1.1-1.3,2.1-1.5c1-0.2,1.9,0,2.5,0.5
			c0.9,0.6,1.4,1.7,1.7,3c0.1,0.3,0.1,0.6,0.1,0.8l3.6-0.7l0.4,2.2L163.1,466.1z M167.2,463c0-0.2,0-0.4-0.1-0.8
			c-0.2-1.2-1-1.8-2-1.6c-0.9,0.2-1.3,0.9-1.1,2c0.1,0.5,0.2,0.8,0.3,0.9L167.2,463z"/>
		<path class="st2" d="M161.4,457.7l-0.4-2.3l8.1-1.3l-0.6-4l1.9-0.3l1,6.2L161.4,457.7z"/>
		<path class="st2" d="M167.3,446.6l2.7,0.4l0.3,2.4l-10.4-1.8l-0.4-3l9.7-4.4l0.3,2.4l-2.5,1.1L167.3,446.6z M165.3,444.2l-2.1,0.9
			c-0.6,0.3-1.3,0.5-1.9,0.7l0,0c0.6,0.1,1.4,0.1,2,0.2l2.2,0.3L165.3,444.2z"/>
		<path class="st2" d="M160.8,438.9l0.3,2.7l-1.9,0.2l-0.7-7.7l1.9-0.2l0.3,2.8l8.2-0.8l0.2,2.3L160.8,438.9z"/>
		<path class="st2" d="M158.3,432.9l-0.4-6.2l1.9-0.1l0.2,3.9l2.3-0.1l-0.2-3.6l1.9-0.1l0.2,3.6l4.1-0.3l0.1,2.3L158.3,432.9z"/>
		<path class="st2" d="M162.6,415.7c3.3-0.1,5.4,1.9,5.5,4.8c0.1,3-2.1,4.8-5,4.9c-3,0.1-5.4-1.8-5.4-4.8
			C157.5,417.5,159.8,415.8,162.6,415.7z M162.9,423c2-0.1,3.4-1,3.3-2.6c0-1.5-1.5-2.4-3.5-2.3c-1.8,0-3.4,1-3.3,2.5
			C159.4,422.2,160.9,423.1,162.9,423z"/>
		<path class="st2" d="M157.8,414.2c-0.1-0.7-0.2-1.8-0.2-3.1c0-1.5,0.3-2.6,0.8-3.3c0.5-0.6,1.2-0.9,2.1-0.9c1.3,0,2.2,1,2.5,1.8
			l0,0c0.3-0.7,1-1.1,1.9-1.3c1.1-0.3,2.5-0.6,2.9-0.8l0,2.3c-0.3,0.2-1.1,0.4-2.4,0.7c-1.3,0.3-1.6,0.7-1.6,1.6l0,0.7l4,0.1l0,2.3
			L157.8,414.2z M162.2,412l0-0.9c0-1.1-0.5-1.8-1.4-1.8c-0.9,0-1.4,0.6-1.4,1.7c0,0.6,0,0.9,0.1,1L162.2,412z"/>
		<path class="st2" d="M164.5,397c-1.2,0-2.7-0.1-4.2-0.1l0,0c1.3,0.4,2.7,0.9,3.9,1.3l3.9,1.4l-0.1,1.8l-4,0.9
			c-1.2,0.3-2.7,0.5-4,0.7l0,0c1.4,0.1,2.9,0.3,4.2,0.4l3.8,0.4l-0.1,2.1l-10.1-1.2l0.2-3l3.4-0.8c1.2-0.3,2.5-0.5,3.7-0.7l0,0
			c-1.2-0.3-2.5-0.8-3.6-1.2l-3.3-1.3l0.2-3l10.1,0l-0.1,2.2L164.5,397z"/>
		<path class="st2" d="M166.3,393.1c0.4-0.6,0.8-1.5,0.9-2.5c0.1-1-0.3-1.6-0.9-1.7c-0.6-0.1-1,0.4-1.6,1.6
			c-0.7,1.6-1.8,2.6-3.2,2.5c-1.7-0.2-2.9-1.7-2.7-4.1c0.1-1.1,0.4-2,0.8-2.5l1.8,0.7c-0.2,0.4-0.6,1.1-0.7,2.1
			c-0.1,1,0.3,1.5,0.8,1.6c0.6,0.1,1-0.5,1.6-1.7c0.8-1.7,1.8-2.5,3.3-2.3c1.7,0.2,3,1.6,2.7,4.4c-0.1,1.2-0.5,2.3-0.9,2.8
			L166.3,393.1z"/>
		<path class="st2" d="M222.2,255.9c0.6-0.3,1.5-0.8,2.1-1.5c0.7-0.8,0.7-1.5,0.2-1.9c-0.5-0.4-1.1-0.3-2.2,0.4
			c-1.5,0.9-3,1.1-4.1,0.2c-1.3-1.1-1.4-3.1,0.1-4.9c0.7-0.9,1.5-1.4,2.1-1.6l1.1,1.6c-0.4,0.2-1.1,0.6-1.7,1.3
			c-0.6,0.8-0.6,1.4-0.2,1.8c0.5,0.4,1.1,0.2,2.3-0.5c1.7-0.9,2.9-1,4-0.1c1.3,1.1,1.6,3-0.2,5.1c-0.7,0.9-1.7,1.6-2.3,1.8
			L222.2,255.9z"/>
		<path class="st2" d="M223,243.2l4.3,3.9c1.3,1.2,2.4,1.3,3.2,0.4c0.8-0.9,0.6-1.9-0.7-3.1l-4.3-3.9l1.5-1.7l4.2,3.8
			c2.3,2.1,2.4,4.3,0.6,6.2c-1.7,1.9-3.8,2.1-6.2-0.1l-4.2-3.8L223,243.2z"/>
		<path class="st2" d="M228.5,237.4c0.4-0.6,1-1.4,2-2.4c1-1,1.9-1.5,2.7-1.6c0.8-0.1,1.7,0.2,2.4,0.9c0.7,0.7,1.1,1.5,1.1,2.3
			c0,1.1-0.6,2.1-1.5,3.1c-0.2,0.2-0.4,0.4-0.6,0.5l2.6,2.5l-1.6,1.6L228.5,237.4z M233.4,239c0.2-0.1,0.3-0.3,0.6-0.5
			c0.9-0.9,0.9-1.8,0.2-2.6c-0.7-0.7-1.5-0.6-2.3,0.2c-0.3,0.3-0.5,0.6-0.6,0.7L233.4,239z"/>
		<path class="st2" d="M234.5,231.3c0.4-0.6,1.1-1.3,2.1-2.3c1-1,1.9-1.5,2.8-1.6c0.8-0.1,1.7,0.2,2.4,0.9c0.7,0.7,1,1.6,1,2.4
			c-0.1,1.1-0.7,2.1-1.6,3c-0.2,0.2-0.4,0.4-0.6,0.5l2.5,2.6l-1.6,1.6L234.5,231.3z M239.3,233c0.2-0.1,0.4-0.3,0.6-0.5
			c0.9-0.8,1-1.8,0.3-2.6c-0.6-0.7-1.5-0.6-2.3,0.2c-0.3,0.3-0.5,0.6-0.6,0.7L239.3,233z"/>
		<path class="st2" d="M240.6,225.3l1.7-1.5l5.5,6.1l3-2.7l1.3,1.4l-4.7,4.2L240.6,225.3z"/>
		<path class="st2" d="M253.7,227.2l-2.7-3.2l-6.3-2.5l2-1.7l2.4,1.2c0.7,0.4,1.2,0.6,1.8,1l0,0c-0.2-0.6-0.4-1.2-0.7-2l-0.8-2.5
			l2-1.7l1.3,6.7l2.7,3.2L253.7,227.2z"/>
		<path class="st2" d="M266.7,216.4c-0.2,0.4-0.8,1.2-1.8,1.9c-2.8,2.1-5.5,1.5-7.3-0.8c-2.1-2.7-1.3-5.8,1.1-7.6
			c0.9-0.7,1.8-1.1,2.2-1.2l0.7,1.7c-0.5,0.1-1.1,0.4-1.8,0.9c-1.4,1.1-1.9,2.8-0.5,4.6c1.2,1.6,3,1.9,4.6,0.6
			c0.5-0.4,1.1-1,1.3-1.4L266.7,216.4z"/>
		<path class="st2" d="M263.7,206.4l2.3,3.2l3.1-2.2l-2.3-3.2l1.9-1.3l5.9,8.2l-1.9,1.3l-2.5-3.4l-3.1,2.2l2.5,3.4l-1.9,1.3
			l-5.9-8.2L263.7,206.4z"/>
		<path class="st2" d="M276.4,206.8l0.8,2.6l-2,1.3l-3-10.2l2.5-1.6l8.2,6.7l-2.1,1.4l-2.1-1.7L276.4,206.8z M277.6,203.9l-1.7-1.4
			c-0.5-0.4-1-0.9-1.5-1.4l0,0c0.2,0.6,0.5,1.3,0.7,1.9l0.7,2.1L277.6,203.9z"/>
		<path class="st2" d="M280.4,195.3l5.3,8.6l-2,1.2l-5.3-8.6L280.4,195.3z"/>
		<path class="st2" d="M287.2,202.9l-5.1-8.8l2.3-1.3l3.7,2.2c1.1,0.6,2.2,1.4,3.2,2.2l0,0c-0.8-1.1-1.5-2.2-2.3-3.6l-1.5-2.6
			l1.8-1.1l5.1,8.8l-2.1,1.2l-3.8-2.3c-1.1-0.6-2.3-1.4-3.3-2.2l0,0c0.7,1.1,1.5,2.3,2.3,3.8l1.5,2.6L287.2,202.9z"/>
		<path class="st2" d="M530.2,191.2c-1.5,3-4.2,3.9-6.8,2.5c-2.7-1.3-3.2-4.2-2-6.7c1.4-2.7,4.1-3.9,6.8-2.5
			C531,185.8,531.5,188.7,530.2,191.2z M523.6,188c-0.9,1.8-0.7,3.4,0.7,4.1c1.4,0.7,2.8-0.2,3.7-2c0.8-1.6,0.7-3.4-0.7-4.1
			C526,185.3,524.5,186.2,523.6,188z"/>
		<path class="st2" d="M535.8,188.6l-2.8,5.1c-0.8,1.5-0.7,2.6,0.3,3.2c1.1,0.6,2,0.2,2.9-1.4l2.8-5.1l2,1.1l-2.7,5
			c-1.5,2.7-3.6,3.3-5.9,2c-2.2-1.2-2.9-3.2-1.3-6l2.7-4.9L535.8,188.6z"/>
		<path class="st2" d="M542.7,192.6c0.7,0.3,1.7,0.8,2.7,1.4c1.3,0.8,2.1,1.5,2.4,2.4c0.3,0.7,0.2,1.5-0.3,2.3
			c-0.7,1.1-1.9,1.4-2.8,1.2l0,0c0.5,0.6,0.4,1.4,0.2,2.3c-0.3,1.1-0.7,2.4-0.8,2.9l-2-1.2c0-0.3,0.2-1.2,0.6-2.4
			c0.4-1.2,0.2-1.7-0.6-2.2l-0.6-0.4l-2.1,3.4l-1.9-1.2L542.7,192.6z M542.4,197.5l0.8,0.5c1,0.6,1.9,0.4,2.3-0.3
			c0.5-0.8,0.2-1.5-0.7-2.1c-0.5-0.3-0.8-0.4-0.9-0.5L542.4,197.5z"/>
		<path class="st2" d="M553.6,201.5l-2.3-1.5l1.1-1.6l6.5,4.3l-1.1,1.6l-2.3-1.5l-4.6,6.8l-1.9-1.3L553.6,201.5z"/>
		<path class="st2" d="M556.7,210.4l-2.1,1.7l-1.9-1.4l8.4-6.4l2.4,1.7l-3.3,10.1l-2-1.4l0.9-2.6L556.7,210.4z M559.8,210.5l0.7-2.1
			c0.2-0.6,0.5-1.3,0.7-1.9l0,0c-0.5,0.4-1,0.9-1.5,1.3l-1.7,1.4L559.8,210.5z"/>
		<path class="st2" d="M567.1,208.6l1.8,1.4l-5,6.5l3.2,2.4l-1.2,1.5l-5-3.8L567.1,208.6z"/>
		<path class="st2" d="M574.1,221.6l-2.9-2.4l-1.5,1.9l3.2,2.6l-1.2,1.5l-5-4.1l6.4-7.8l4.8,3.9l-1.2,1.5l-3.1-2.5l-1.3,1.6l2.9,2.4
			L574.1,221.6z"/>
		<path class="st2" d="M572.8,226l6.7-7.6l2,1.8l-0.9,4.2c-0.3,1.2-0.6,2.5-1,3.7l0,0c0.8-1.1,1.6-2.2,2.6-3.3l1.9-2.2l1.6,1.4
			l-6.7,7.6l-1.8-1.6l0.9-4.4c0.3-1.2,0.6-2.6,1-3.8l0,0c-0.8,1-1.8,2.1-2.8,3.4l-2,2.3L572.8,226z"/>
		<path class="st2" d="M587.3,228l-2-1.9l1.3-1.4l5.7,5.3l-1.3,1.4l-2-1.9l-5.6,6l-1.7-1.6L587.3,228z"/>
		<path class="st2" d="M669.9,409.2c0.1,0.8,0.2,1.9,0.3,3.1c0,1.9-0.3,3.2-1,4.2c-0.8,1.1-2,1.7-3.8,1.8c-1.9,0-3.3-0.7-4.1-1.6
			c-0.9-1.1-1.3-2.7-1.4-4.7c0-1.2,0-2,0.1-2.6L669.9,409.2z M661.7,411.6c0,0.2,0,0.5,0,0.8c0,2.1,1.2,3.4,3.6,3.4
			c2.1,0,3.2-1.3,3.2-3.2c0-0.5-0.1-0.8-0.1-1L661.7,411.6z"/>
		<path class="st2" d="M662.5,421.4l-2.6-0.8l0.1-2.4l10,3.5l-0.1,3l-10.2,2.8l0.1-2.5l2.6-0.7L662.5,421.4z M664.1,424l2.2-0.6
			c0.6-0.2,1.4-0.3,2-0.4l0,0c-0.6-0.2-1.4-0.3-1.9-0.5l-2.1-0.7L664.1,424z"/>
		<path class="st2" d="M667.7,430l0.2-2.7l1.9,0.1l-0.5,7.8l-1.9-0.1l0.2-2.8l-8.2-0.5l0.2-2.3L667.7,430z"/>
		<path class="st2" d="M661.5,437.1l-2.5-1l0.2-2.4l9.8,4.1l-0.3,3l-10.4,2.1l0.2-2.4l2.7-0.5L661.5,437.1z M663,439.9l2.2-0.4
			c0.6-0.1,1.4-0.2,2-0.3l0,0c-0.6-0.2-1.3-0.4-1.9-0.7l-2.1-0.8L663,439.9z"/>
		<path class="st2" d="M660,449.7l-2.5-1.1l0.4-2.3l9.5,4.6l-0.4,3l-10.5,1.6l0.4-2.4l2.7-0.4L660,449.7z M661.4,452.5l2.2-0.3
			c0.6-0.1,1.4-0.2,2-0.2l0,0c-0.6-0.2-1.3-0.5-1.9-0.8l-2-0.9L661.4,452.5z"/>
		<path class="st2" d="M656.4,456.2l9.9,1.9l-0.5,2.6l-4,1.4c-1.2,0.4-2.5,0.7-3.7,1l0,0c1.3,0.1,2.7,0.3,4.2,0.6l2.9,0.6l-0.4,2.1
			l-9.9-1.9l0.5-2.4l4.2-1.4c1.2-0.4,2.6-0.8,3.8-1.1l0,0c-1.3-0.2-2.7-0.4-4.4-0.7l-3-0.6L656.4,456.2z"/>
		<path class="st2" d="M664.2,468.4c-0.1,0.8-0.2,1.9-0.5,3.1c-0.4,1.9-1.1,3-2,3.8c-1,0.8-2.4,1.2-4.1,0.8c-1.9-0.4-3-1.4-3.6-2.6
			c-0.6-1.2-0.7-2.9-0.2-4.8c0.3-1.2,0.5-2,0.7-2.5L664.2,468.4z M655.6,468.7c-0.1,0.2-0.2,0.5-0.2,0.8c-0.5,2,0.3,3.6,2.7,4.1
			c2,0.5,3.4-0.5,3.9-2.4c0.1-0.5,0.1-0.8,0.1-1L655.6,468.7z"/>
		<path class="st2" d="M658.7,483l0.8-2.6l1.8,0.5l-2.2,7.5l-1.8-0.5l0.8-2.7l-7.9-2.3l0.6-2.2L658.7,483z"/>
		<path class="st2" d="M651.4,493.4l1.1-3.5l-2.3-0.7l-1.3,4l-1.8-0.6l2-6.1l9.6,3.1l-1.9,5.9l-1.8-0.6l1.2-3.8l-2-0.6l-1.1,3.5
			L651.4,493.4z"/>
		<path class="st2" d="M644.5,500.8c-0.1-0.5,0.1-1.4,0.5-2.6c1.2-3.3,3.8-4.3,6.6-3.3c3.3,1.2,4.2,4.1,3.2,7
			c-0.4,1.1-0.9,1.9-1.3,2.2l-1.6-1.1c0.3-0.4,0.7-0.9,1-1.7c0.6-1.7,0.1-3.4-2.1-4.2c-1.9-0.7-3.5,0-4.2,1.9
			c-0.2,0.7-0.4,1.4-0.3,1.9L644.5,500.8z"/>
		<path class="st2" d="M652.4,507.6l-3.6-1.5l-1.4,3.5l3.6,1.5l-0.9,2.1l-9.4-3.8l0.9-2.1l3.9,1.6l1.4-3.5l-3.9-1.6l0.9-2.1l9.4,3.8
			L652.4,507.6z"/>
		<path class="st2" d="M640.1,511l9.2,4.2l-1.1,2.4l-4.2,0.4c-1.2,0.1-2.6,0.1-3.8,0.1l0,0c1.3,0.4,2.5,0.9,3.9,1.6l2.7,1.2
			l-0.9,1.9l-9.2-4.2l1-2.2l4.4-0.4c1.2-0.1,2.7-0.2,4-0.1l0,0c-1.2-0.5-2.6-1.1-4.1-1.7l-2.8-1.3L640.1,511z"/>
		<path class="st2" d="M636.3,530.8c-3-1.5-3.9-4.2-2.5-6.8c1.4-2.7,4.2-3.2,6.7-1.9c2.7,1.4,3.9,4.1,2.5,6.8
			C641.7,531.6,638.8,532,636.3,530.8z M639.5,524.2c-1.8-0.9-3.4-0.7-4.1,0.7c-0.7,1.4,0.2,2.8,2,3.7c1.6,0.8,3.4,0.7,4.1-0.7
			C642.2,526.5,641.3,525.1,639.5,524.2z"/>
		<path class="st2" d="M640,534.4l-1.1,2l-7.2-3.9l-1.9,3.5l-1.7-0.9l3-5.5L640,534.4z"/>
		<path class="st2" d="M627.4,546.4c-2.9-1.7-3.5-4.5-2-7c1.5-2.6,4.4-2.9,6.9-1.5c2.6,1.6,3.6,4.4,2,6.9
			C632.7,547.5,629.8,547.8,627.4,546.4z M631,540c-1.7-1-3.4-0.9-4.2,0.4c-0.8,1.3,0,2.8,1.7,3.9c1.6,0.9,3.3,1,4.2-0.4
			C633.5,542.5,632.7,541,631,540z"/>
		<path class="st2" d="M618.1,552.1c0.2-0.7,0.6-2,1.4-3.1c1-1.5,2.1-2.4,3.4-2.7c1.2-0.3,2.6,0,3.9,0.8c2.8,1.9,3.1,5,1.3,7.7
			c-0.7,1.1-1.5,1.8-2,2.1l-1.3-1.4c0.5-0.3,1-0.8,1.7-1.7c1-1.6,0.9-3.4-0.9-4.6c-1.7-1.1-3.5-0.7-4.5,0.9c-0.3,0.4-0.5,0.8-0.5,1
			l1.8,1.2l0.9-1.3l1.5,1l-2.1,3.2L618.1,552.1z"/>
		<path class="st2" d="M615.6,554.8l3.4,2.4l6.7,0.8l-1.5,2.1l-2.6-0.6c-0.8-0.2-1.3-0.3-2-0.5l0,0c0.4,0.5,0.7,1.1,1.1,1.7l1.4,2.2
			l-1.5,2.1l-2.9-6.1l-3.4-2.4L615.6,554.8z"/>
	</g>
	<g>
		<path class="st2" d="M328.2,655.6c-0.5,0.1-1.4-0.1-2.6-0.5c-3.3-1.2-4.2-3.9-3.2-6.6c1.2-3.2,4.2-4.2,7.1-3.1
			c1.1,0.4,1.9,1,2.2,1.3l-1.1,1.5c-0.4-0.3-0.9-0.7-1.7-1c-1.7-0.6-3.4-0.1-4.2,2c-0.7,1.9,0,3.5,1.9,4.2c0.6,0.2,1.4,0.4,1.9,0.4
			L328.2,655.6z"/>
		<path class="st2" d="M339.8,654.4c-1,3.2-3.6,4.4-6.4,3.5c-2.9-0.9-3.8-3.6-2.9-6.4c1-2.9,3.5-4.4,6.3-3.5
			C339.8,649,340.7,651.7,339.8,654.4z M332.8,652.2c-0.6,1.9-0.2,3.5,1.3,4c1.5,0.5,2.8-0.6,3.4-2.5c0.6-1.7,0.2-3.5-1.3-4
			C334.7,649.2,333.4,650.3,332.8,652.2z"/>
		<path class="st2" d="M342.6,650.2c0.7,0.1,1.8,0.3,3,0.6c1.4,0.4,2.4,0.9,2.9,1.7c0.4,0.6,0.6,1.4,0.3,2.3
			c-0.4,1.2-1.5,1.8-2.4,1.9l0,0c0.6,0.5,0.8,1.2,0.8,2.2c0,1.2-0.1,2.5,0,3l-2.3-0.6c-0.1-0.3-0.1-1.2,0-2.5c0.1-1.3-0.2-1.7-1.1-2
			l-0.7-0.2l-1.1,3.8l-2.2-0.6L342.6,650.2z M343.6,655l0.9,0.2c1.1,0.3,1.9,0,2.1-0.9c0.3-0.9-0.2-1.5-1.2-1.8
			c-0.5-0.2-0.8-0.2-1-0.2L343.6,655z"/>
		<path class="st2" d="M351,652.5c0.7,0.1,1.7,0.2,3.1,0.5c1.4,0.3,2.3,0.8,2.8,1.5c0.5,0.7,0.7,1.6,0.5,2.5c-0.2,1-0.8,1.7-1.5,2.1
			c-0.9,0.5-2.1,0.6-3.5,0.2c-0.3-0.1-0.6-0.2-0.7-0.2l-0.9,3.5l-2.2-0.5L351,652.5z M352.1,657.5c0.2,0.1,0.4,0.2,0.7,0.2
			c1.2,0.3,2.1-0.1,2.3-1.1c0.2-0.9-0.3-1.6-1.4-1.9c-0.5-0.1-0.8-0.1-0.9-0.1L352.1,657.5z"/>
		<path class="st2" d="M367.3,661.2c-0.7,3.2-3.1,4.8-6,4.2c-2.9-0.6-4.2-3.2-3.6-6c0.6-3,3-4.8,5.9-4.2
			C366.6,655.8,367.8,658.4,367.3,661.2z M360.1,659.8c-0.4,1.9,0.2,3.5,1.7,3.8c1.5,0.3,2.7-0.9,3.1-2.9c0.4-1.8-0.2-3.5-1.7-3.8
			C361.7,656.6,360.5,657.9,360.1,659.8z"/>
		<path class="st2" d="M369.5,656.6c0.7,0,1.8,0.1,3,0.3c1.5,0.2,2.5,0.6,3.1,1.3c0.5,0.6,0.7,1.3,0.6,2.2c-0.2,1.3-1.3,2-2.2,2.2
			l0,0c0.6,0.4,0.9,1.1,1,2.1c0.1,1.2,0.2,2.5,0.3,3l-2.3-0.4c-0.1-0.3-0.2-1.2-0.3-2.4c-0.1-1.3-0.4-1.7-1.3-1.9l-0.7-0.1l-0.7,3.9
			l-2.2-0.4L369.5,656.6z M371,661.3l0.9,0.1c1.1,0.2,1.9-0.3,2-1.1c0.2-0.9-0.4-1.5-1.4-1.7c-0.5-0.1-0.9-0.1-1-0.1L371,661.3z"/>
		<path class="st2" d="M379.6,665.7l-1,2.5l-2.4-0.3l4.4-9.7l3,0.4l1.8,10.4l-2.4-0.3l-0.4-2.7L379.6,665.7z M382.4,664.3l-0.4-2.2
			c-0.1-0.6-0.2-1.4-0.3-2l0,0c-0.2,0.6-0.5,1.3-0.7,1.9l-0.9,2.1L382.4,664.3z"/>
		<path class="st2" d="M388.5,661.1l-2.7-0.3l0.2-1.9l7.7,0.7l-0.2,1.9l-2.8-0.3l-0.8,8.2l-2.3-0.2L388.5,661.1z"/>
		<path class="st2" d="M400.3,666l-3.7-0.2l-0.2,2.4l4.2,0.3l-0.1,1.9l-6.4-0.4l0.7-10.1l6.2,0.4l-0.1,1.9l-3.9-0.3l-0.1,2.1
			l3.7,0.2L400.3,666z"/>
		<path class="st2" d="M413.6,670.2c-0.7,0.2-2.1,0.5-3.4,0.5c-1.8,0-3.2-0.5-4.1-1.4c-0.9-0.9-1.4-2.2-1.4-3.7
			c0.1-3.4,2.6-5.2,5.9-5.2c1.3,0,2.3,0.3,2.8,0.5l-0.5,1.8c-0.6-0.3-1.2-0.5-2.4-0.5c-1.9,0-3.4,1-3.4,3.2c0,2.1,1.2,3.3,3.1,3.4
			c0.5,0,0.9,0,1.1-0.1l0-2.1l-1.6,0l0-1.8l3.8,0.1L413.6,670.2z"/>
		<path class="st2" d="M424.8,665.3c0.1,3.3-1.9,5.4-4.8,5.5c-3,0.1-4.8-2.2-4.9-5c-0.1-3,1.8-5.3,4.8-5.4
			C423,660.2,424.7,662.5,424.8,665.3z M417.5,665.6c0,2,1,3.4,2.5,3.3c1.5,0,2.4-1.5,2.4-3.5c0-1.8-1-3.4-2.5-3.3
			C418.3,662.1,417.4,663.6,417.5,665.6z"/>
		<path class="st2" d="M428.5,670.2l-3.9-9.9l2.5-0.2l1.5,4.2c0.4,1.2,0.8,2.3,1.1,3.6l0,0c0.2-1.2,0.4-2.4,0.7-3.6l1-4.4l2.4-0.2
			l-2.8,10.3L428.5,670.2z"/>
		<path class="st2" d="M441.3,664.9l-3.7,0.4l0.2,2.4l4.1-0.4l0.2,1.9l-6.4,0.6l-1-10.1l6.2-0.6l0.2,1.9l-3.9,0.4l0.2,2.1l3.7-0.4
			L441.3,664.9z"/>
		<path class="st2" d="M442.6,659c0.7-0.2,1.8-0.4,3-0.6c1.5-0.2,2.6-0.1,3.3,0.4c0.7,0.4,1.1,1.1,1.2,2c0.2,1.3-0.6,2.3-1.4,2.7
			l0,0c0.7,0.2,1.2,0.8,1.6,1.7c0.5,1.1,0.9,2.4,1.2,2.7l-2.3,0.3c-0.2-0.3-0.5-1-1-2.2c-0.4-1.2-0.9-1.5-1.8-1.4l-0.7,0.1l0.5,3.9
			l-2.2,0.3L442.6,659z M445.4,663l0.9-0.1c1.1-0.1,1.7-0.8,1.6-1.7c-0.1-0.9-0.8-1.3-1.9-1.2c-0.6,0.1-0.9,0.2-1,0.2L445.4,663z"/>
		<path class="st2" d="M452.9,667.7l-1.7-10l2.6-0.4l2.7,3.3c0.8,1,1.6,2.1,2.2,3.1l0,0c-0.4-1.3-0.6-2.6-0.9-4.1l-0.5-2.9l2.1-0.4
			l1.7,10l-2.4,0.4l-2.8-3.5c-0.8-1-1.6-2.1-2.3-3.2l0,0c0.3,1.3,0.6,2.7,0.8,4.3l0.5,3L452.9,667.7z"/>
		<path class="st2" d="M464.9,662.9l-0.2,2.7l-2.3,0.5l0.9-10.5l2.9-0.6l5.2,9.3l-2.4,0.5l-1.3-2.4L464.9,662.9z M467,660.7l-1.1-2
			c-0.3-0.6-0.6-1.2-0.9-1.8l0,0c0,0.6,0,1.4-0.1,2l-0.1,2.2L467,660.7z"/>
		<path class="st2" d="M472.7,663.9l-2.5-9.8l2.6-0.7l2.9,3.1c0.8,0.9,1.7,2,2.5,3l0,0c-0.5-1.3-0.9-2.6-1.2-4l-0.7-2.9l2-0.5
			l2.5,9.8l-2.3,0.6l-3.1-3.3c-0.8-0.9-1.8-2-2.6-3l0,0c0.4,1.3,0.8,2.7,1.2,4.3l0.7,3L472.7,663.9z"/>
		<path class="st2" d="M490,658.8c-0.3,0.3-1.2,0.8-2.4,1.2c-3.4,1-5.7-0.6-6.5-3.4c-1-3.3,0.8-5.9,3.8-6.7c1.1-0.3,2.1-0.4,2.5-0.3
			l0.1,1.9c-0.5-0.1-1.2,0-2,0.2c-1.7,0.5-2.8,2-2.2,4.1c0.6,1.9,2.1,2.8,4,2.3c0.7-0.2,1.4-0.6,1.7-0.9L490,658.8z"/>
		<path class="st2" d="M495.9,652.7l-3.5,1.2l0.8,2.3l3.9-1.3l0.6,1.8l-6.1,2l-3.2-9.6l5.9-2l0.6,1.8l-3.7,1.2l0.7,2l3.5-1.2
			L495.9,652.7z"/>
	</g>
	<g>
		<g>
			<path class="st4" d="M663,207.4c-5.9,0-11.7-2.4-16-7c-55.3-60.4-130.6-96.7-212-102c-12-0.8-21-11.1-20.2-23.1
				c0.8-12,11.1-21,23.1-20.2c92.7,6.1,178.3,47.3,241.2,116c8.1,8.8,7.5,22.6-1.4,30.6C673.5,205.5,668.3,207.4,663,207.4z"/>
			<path class="st5" d="M747.6,487c-1.1,0-2.2-0.1-3.3-0.3c-11.8-1.8-20-12.9-18.1-24.7c2.4-15.9,3.7-32.2,3.7-48.5
				c0-64.5-19.3-126.6-55.9-179.5c-6.8-9.9-4.4-23.4,5.5-30.2c9.9-6.8,23.4-4.4,30.2,5.5c41.6,60.2,63.6,130.8,63.6,204.2
				c0,18.4-1.4,37-4.2,55.1C767.4,479.3,758.1,487,747.6,487z"/>
			<path class="st6" d="M580.8,728.8c-7.5,0-14.9-3.9-18.9-11c-5.9-10.4-2.3-23.7,8.1-29.6c34.8-19.8,65.2-45.7,90.3-77
				c25.4-31.6,44.2-67.2,55.9-105.8c3.5-11.5,15.6-17.9,27.1-14.5c11.5,3.5,17.9,15.6,14.5,27.1c-13.3,43.9-34.7,84.4-63.6,120.3
				c-28.6,35.6-63.1,65-102.7,87.6C588.1,727.9,584.4,728.8,580.8,728.8z"/>
			<path class="st7" d="M413.9,772.8c-45.7,0-90.3-8.5-132.5-25.2c-11.1-4.4-16.6-17-12.2-28.2c4.4-11.1,17-16.6,28.2-12.2
				c37,14.7,76.2,22.2,116.5,22.2c40.3,0,79.6-7.5,116.7-22.3c11.1-4.4,23.7,1,28.2,12.1c4.4,11.1-1,23.7-12.1,28.2
				C504.4,764.3,459.7,772.8,413.9,772.8z"/>
			<path class="st8" d="M246.7,728.6c-3.6,0-7.3-0.9-10.7-2.9c-39.5-22.5-74-52-102.5-87.5C104.7,602.3,83.3,561.9,70,518
				c-3.5-11.5,3-23.6,14.5-27.1c11.5-3.5,23.6,3,27.1,14.5c11.7,38.5,30.5,74.1,55.8,105.7c25.1,31.3,55.4,57.2,90.2,77
				c10.4,5.9,14,19.2,8.1,29.6C261.6,724.7,254.3,728.6,246.7,728.6z"/>
			<path class="st9" d="M80.4,488.1c-10.5,0-19.7-7.6-21.4-18.3c-2.9-18.5-4.4-37.4-4.4-56.2c0-73.1,21.8-143.5,63.2-203.5
				c6.8-9.9,20.3-12.4,30.2-5.6c9.9,6.8,12.4,20.3,5.6,30.2C117.2,287.4,98,349.2,98,413.5c0,16.6,1.3,33.2,3.8,49.5
				c1.9,11.8-6.2,22.9-18.1,24.8C82.6,488,81.5,488.1,80.4,488.1z"/>
			<path class="st10" d="M164.4,207.8c-5.2,0-10.5-1.9-14.6-5.7c-8.9-8.1-9.5-21.8-1.4-30.6c62.8-68.8,148.4-110.2,241-116.4
				c12-0.8,22.3,8.2,23.1,20.2c0.8,12-8.2,22.3-20.2,23.1c-81.4,5.5-156.7,41.8-211.9,102.4C176.1,205.4,170.3,207.8,164.4,207.8z"
				/>
		</g>
		<g>
			<path class="st3" d="M528.2,99.9c-0.5,0.1-1.5,0-2.7-0.5c-3.4-1.2-4.4-4-3.4-6.8c1.2-3.4,4.3-4.4,7.3-3.3c1.2,0.4,2,1,2.3,1.3
				l-1.1,1.6c-0.4-0.4-1-0.8-1.7-1c-1.8-0.6-3.5,0-4.3,2.2c-0.7,2,0,3.6,2,4.4c0.7,0.2,1.5,0.4,2,0.3L528.2,99.9z"/>
			<path class="st3" d="M535.5,91.8l-2.2,5.6c-0.7,1.7-0.3,2.8,0.8,3.2c1.2,0.5,2.1-0.1,2.8-1.8l2.2-5.6l2.2,0.9l-2.1,5.5
				c-1.2,3-3.3,3.9-5.8,2.9c-2.5-1-3.4-2.9-2.2-6l2.1-5.5L535.5,91.8z"/>
			<path class="st3" d="M540.3,102.4c0.5,0.5,1.2,1.2,2.2,1.6c1,0.4,1.7,0.2,2-0.4c0.3-0.6-0.1-1.1-1-2c-1.4-1.2-2-2.6-1.4-4
				c0.7-1.6,2.6-2.3,4.9-1.4c1.1,0.5,1.8,1,2.3,1.5l-1.2,1.6c-0.3-0.4-0.9-0.9-1.8-1.3c-0.9-0.4-1.6-0.2-1.8,0.3
				c-0.3,0.6,0.2,1.1,1.2,2.1c1.4,1.4,1.9,2.6,1.3,3.9c-0.7,1.6-2.5,2.5-5.2,1.3c-1.1-0.5-2.1-1.2-2.5-1.7L540.3,102.4z"/>
			<path class="st3" d="M552.3,101l-2.6-1.2l0.8-1.8l7.4,3.3l-0.8,1.8l-2.6-1.2l-3.5,7.7l-2.2-1L552.3,101z"/>
			<path class="st3" d="M565.2,110.6c-1.5,3.1-4.3,4.1-7.1,2.7c-2.8-1.4-3.4-4.3-2.1-7c1.4-2.8,4.2-4.1,7-2.7
				C566,105,566.5,108,565.2,110.6z M558.3,107.4c-0.9,1.8-0.7,3.6,0.8,4.3c1.4,0.7,2.9-0.3,3.8-2.1c0.8-1.7,0.7-3.5-0.7-4.3
				C560.7,104.6,559.2,105.5,558.3,107.4z"/>
			<path class="st3" d="M573.9,116.7c0.6-1.1,1.2-2.5,1.9-3.9l0,0c-0.9,1-2,2.1-2.9,3l-3.1,3l-1.6-0.9l0.9-4.1
				c0.3-1.2,0.7-2.7,1.1-4.1l0,0c-0.7,1.2-1.5,2.6-2.2,3.7l-2,3.4l-1.9-1l5.5-9l2.8,1.5l-0.7,3.6c-0.3,1.2-0.6,2.5-1,3.7l0,0
				c0.8-0.9,1.8-2,2.7-2.9l2.6-2.6l2.7,1.5l-4.4,9.5l-2-1.1L573.9,116.7z"/>
			<path class="st3" d="M583.3,121.5l-3.3-1.9l-1.2,2.2l3.7,2.2l-1,1.7l-5.8-3.3l5.2-9.1l5.6,3.2l-1,1.7l-3.5-2l-1.1,1.9l3.3,1.9
				L583.3,121.5z"/>
			<path class="st3" d="M588.2,117.6c0.7,0.3,1.7,0.8,2.8,1.5c1.3,0.8,2.1,1.6,2.5,2.5c0.3,0.8,0.2,1.6-0.3,2.4
				c-0.7,1.1-2,1.4-2.9,1.2l0,0c0.5,0.6,0.4,1.4,0.2,2.4c-0.3,1.2-0.8,2.5-0.8,3l-2.1-1.3c0-0.3,0.2-1.2,0.7-2.5
				c0.4-1.3,0.2-1.8-0.6-2.3l-0.6-0.4l-2.2,3.5l-2-1.2L588.2,117.6z M587.9,122.6l0.8,0.5c1,0.6,1.9,0.5,2.4-0.3
				c0.5-0.8,0.2-1.6-0.7-2.2c-0.5-0.3-0.8-0.4-1-0.5L587.9,122.6z"/>
		</g>
		<g>
			<path class="st3" d="M727.1,297.3l-2.8,0.2l-0.8-2.3l11-0.5l1,2.9l-8.8,6.6l-0.9-2.4l2.3-1.7L727.1,297.3z M729.6,299.3l1.9-1.4
				c0.5-0.4,1.2-0.8,1.7-1.2l0,0c-0.6,0.1-1.4,0.2-2.1,0.2l-2.3,0.2L729.6,299.3z"/>
			<path class="st3" d="M729.4,304.8c-0.1,0.7-0.1,1.7,0.2,2.7c0.3,1,0.9,1.4,1.6,1.2c0.6-0.2,0.8-0.8,0.9-2.1
				c0-1.8,0.6-3.2,2.1-3.7c1.7-0.6,3.5,0.5,4.2,2.8c0.4,1.1,0.4,2,0.3,2.7l-2,0.1c0.1-0.5,0.1-1.3-0.2-2.2c-0.3-1-0.9-1.3-1.4-1.1
				c-0.6,0.2-0.7,0.9-0.8,2.3c-0.1,2-0.7,3.1-2.1,3.6c-1.7,0.5-3.5-0.3-4.4-3c-0.4-1.1-0.4-2.4-0.3-3L729.4,304.8z"/>
			<path class="st3" d="M732,312.8c-0.1,0.7-0.2,1.7,0.1,2.7c0.3,1,0.9,1.5,1.6,1.3c0.6-0.2,0.8-0.8,0.9-2.1
				c0.1-1.8,0.7-3.2,2.2-3.6c1.7-0.5,3.5,0.5,4.2,2.9c0.3,1.1,0.3,2,0.2,2.7l-2,0c0.1-0.5,0.1-1.3-0.1-2.2c-0.3-1-0.9-1.3-1.4-1.2
				c-0.6,0.2-0.8,0.8-0.9,2.3c-0.1,2-0.8,3.1-2.2,3.5c-1.7,0.5-3.5-0.4-4.3-3.1c-0.3-1.2-0.4-2.4-0.2-3L732,312.8z"/>
			<path class="st3" d="M739.6,329.4c-3.3,0.9-5.9-0.6-6.7-3.6c-0.8-3,1-5.4,3.9-6.1c3-0.8,5.8,0.5,6.6,3.5
				C744.3,326.3,742.4,328.6,739.6,329.4z M737.5,322.1c-2,0.5-3.1,1.8-2.7,3.4c0.4,1.6,2.1,2.1,4.1,1.5c1.8-0.5,3.2-1.8,2.7-3.3
				C741.2,322.1,739.5,321.6,737.5,322.1z"/>
			<path class="st3" d="M736.7,339.6c-0.3-0.4-0.8-1.3-1-2.5c-0.8-3.5,1-5.9,3.9-6.5c3.5-0.8,6,1.2,6.7,4.3c0.3,1.2,0.2,2.2,0.1,2.6
				l-1.9,0c0.1-0.5,0.1-1.2-0.1-2c-0.4-1.8-1.9-3-4.1-2.5c-2,0.5-3.1,2-2.6,4c0.2,0.7,0.5,1.4,0.8,1.9L736.7,339.6z"/>
			<path class="st3" d="M747.5,341.4l-10.3,2.1l-0.5-2.3L747,339L747.5,341.4z"/>
			<path class="st3" d="M740.7,347.4l-2.8-0.2l-0.4-2.4l10.9,1.2l0.6,3.1l-9.7,5.1l-0.5-2.5l2.5-1.3L740.7,347.4z M743,349.7l2.1-1
				c0.6-0.3,1.3-0.6,1.9-0.9l0,0c-0.6,0-1.4,0-2.1-0.1l-2.3-0.2L743,349.7z"/>
			<path class="st3" d="M748,354.8l-0.4-2.8l2-0.3l1.3,8l-2,0.3l-0.5-2.8l-8.4,1.3l-0.4-2.4L748,354.8z"/>
			<path class="st3" d="M745.8,368.1l-0.5-3.8l-2.5,0.3l0.6,4.3l-1.9,0.3l-0.9-6.6l10.4-1.4l0.9,6.4l-1.9,0.3l-0.5-4.1l-2.2,0.3
				l0.5,3.8L745.8,368.1z"/>
			<path class="st3" d="M744.1,370.5c-0.3,0.7-0.5,1.7-0.4,2.7c0.1,1.1,0.6,1.6,1.3,1.5c0.7-0.1,1-0.6,1.3-1.9
				c0.4-1.8,1.3-3,2.8-3.2c1.8-0.2,3.3,1.1,3.6,3.6c0.1,1.2,0,2.1-0.2,2.7l-2-0.3c0.2-0.4,0.4-1.2,0.3-2.2c-0.1-1-0.6-1.5-1.2-1.4
				c-0.7,0.1-0.9,0.7-1.3,2.1c-0.5,1.9-1.3,2.9-2.8,3c-1.7,0.2-3.4-1-3.7-3.9c-0.1-1.2,0.1-2.4,0.3-3L744.1,370.5z"/>
		</g>
		<g>
			<path class="st3" d="M84,371.3c0.4-0.6,0.8-1.5,1-2.5c0.1-1.1-0.2-1.7-0.9-1.8c-0.6-0.1-1.1,0.4-1.7,1.6
				c-0.8,1.7-1.9,2.7-3.4,2.5c-1.8-0.2-3-1.9-2.6-4.3c0.1-1.2,0.5-2,0.9-2.6l1.8,0.8c-0.3,0.4-0.6,1.1-0.8,2.1
				c-0.1,1,0.3,1.6,0.8,1.6c0.7,0.1,1-0.5,1.7-1.7c0.9-1.8,2-2.5,3.4-2.3c1.7,0.2,3.1,1.7,2.7,4.6c-0.1,1.2-0.6,2.3-1,2.9L84,371.3z
				"/>
			<path class="st3" d="M77.5,359.4l6,0.9c1.8,0.3,2.8-0.3,3-1.5c0.2-1.2-0.6-2-2.4-2.3l-6-0.9l0.4-2.3l5.8,0.9
				c3.2,0.5,4.5,2.3,4.1,5.1c-0.4,2.6-2.1,3.9-5.4,3.4l-5.8-0.9L77.5,359.4z"/>
			<path class="st3" d="M79,351.1c0-0.7,0.1-1.8,0.4-3.2c0.3-1.4,0.7-2.4,1.4-3c0.6-0.6,1.6-0.8,2.6-0.7c1,0.2,1.8,0.7,2.3,1.4
				c0.6,0.9,0.7,2.2,0.5,3.6c-0.1,0.3-0.1,0.6-0.2,0.8l3.7,0.7l-0.4,2.3L79,351.1z M84.1,349.6c0.1-0.2,0.1-0.4,0.2-0.8
				c0.2-1.2-0.3-2.1-1.3-2.3c-0.9-0.2-1.6,0.4-1.9,1.5c-0.1,0.5-0.1,0.8-0.1,1L84.1,349.6z"/>
			<path class="st3" d="M80.7,342c0-0.7,0.2-1.8,0.5-3.2c0.3-1.4,0.8-2.4,1.5-3c0.7-0.5,1.6-0.8,2.6-0.6c1,0.2,1.8,0.7,2.2,1.5
				c0.6,1,0.7,2.2,0.4,3.6c-0.1,0.3-0.1,0.6-0.2,0.8l3.7,0.8l-0.5,2.3L80.7,342z M85.8,340.7c0.1-0.2,0.2-0.4,0.2-0.8
				c0.3-1.2-0.2-2.1-1.3-2.4c-0.9-0.2-1.6,0.3-1.9,1.5c-0.1,0.5-0.1,0.8-0.1,1L85.8,340.7z"/>
			<path class="st3" d="M82.5,332.9l0.6-2.3l8.3,2l1-4.1l1.9,0.5l-1.5,6.4L82.5,332.9z"/>
			<path class="st3" d="M85,322.7l10.2,2.6l-0.6,2.3L84.4,325L85,322.7z"/>
			<path class="st3" d="M93.1,316.2l-1,3.7l2.4,0.7l1.2-4.2l1.9,0.5l-1.8,6.4l-10.1-2.8l1.8-6.2l1.9,0.5l-1.1,3.9l2.1,0.6l1-3.7
				L93.1,316.2z"/>
			<path class="st3" d="M88.1,312.4c0.1-0.8,0.4-1.9,0.7-3.1c0.5-1.5,1-2.5,1.8-3c0.7-0.4,1.5-0.6,2.4-0.3c1.3,0.4,1.9,1.6,1.9,2.5
				l0,0c0.5-0.6,1.3-0.8,2.3-0.8c1.2,0,2.6,0.1,3.1,0.1l-0.7,2.3c-0.3,0.1-1.2,0.1-2.6,0c-1.3-0.1-1.8,0.2-2.1,1.1l-0.2,0.7l3.9,1.2
				l-0.7,2.2L88.1,312.4z M93.1,311.5l0.3-0.9c0.4-1.1,0-2-0.9-2.2c-0.9-0.3-1.6,0.2-1.9,1.2c-0.2,0.6-0.2,0.9-0.2,1L93.1,311.5z"/>
			<path class="st3" d="M98.4,305.9c0.5-0.5,1.1-1.3,1.5-2.3c0.4-1,0.1-1.7-0.5-1.9c-0.6-0.2-1.1,0.1-2,1.2
				c-1.1,1.5-2.4,2.2-3.9,1.7c-1.7-0.6-2.5-2.4-1.7-4.8c0.4-1.1,0.9-1.9,1.4-2.4l1.6,1.1c-0.3,0.3-0.8,0.9-1.2,1.9
				c-0.3,1,0,1.6,0.5,1.8c0.6,0.2,1.1-0.3,2-1.4c1.2-1.5,2.4-2.1,3.8-1.6c1.7,0.6,2.6,2.3,1.7,5.1c-0.4,1.1-1.1,2.2-1.6,2.6
				L98.4,305.9z"/>
		</g>
		<g>
			<path class="st3" d="M242.2,116.2c0.6-0.5,1.4-1.1,2.7-1.8c1.3-0.7,2.3-1,3.2-0.9c0.8,0.1,1.7,0.7,2.2,1.6
				c0.5,0.9,0.6,1.8,0.4,2.6c-0.3,1.1-1.2,2-2.4,2.7c-0.3,0.2-0.5,0.3-0.7,0.4l1.9,3.3l-2,1.2L242.2,116.2z M246.6,119.2
				c0.2-0.1,0.4-0.2,0.7-0.3c1.1-0.6,1.5-1.6,0.9-2.5c-0.5-0.8-1.3-1-2.4-0.4c-0.4,0.2-0.7,0.4-0.8,0.6L246.6,119.2z"/>
			<path class="st3" d="M250.1,111.6l2.1-1.1l4,7.5l3.7-2l0.9,1.8l-5.8,3.1L250.1,111.6z"/>
			<path class="st3" d="M263.1,113.5l0.5,2.7l-2.2,1.1l-1.9-10.8l2.8-1.4l7.6,7.9l-2.3,1.1l-1.9-2L263.1,113.5z M264.7,110.7
				l-1.6-1.7c-0.4-0.5-1-1.1-1.4-1.6l0,0c0.1,0.6,0.4,1.4,0.5,2l0.4,2.3L264.7,110.7z"/>
			<path class="st3" d="M271.2,112.5l-4.4-9.5l2.5-1.2l3.6,2.6c1,0.7,2.1,1.7,3.1,2.5l0,0c-0.7-1.2-1.4-2.5-2-3.9l-1.3-2.8l2-0.9
				l4.4,9.5l-2.3,1.1l-3.7-2.7c-1-0.8-2.2-1.7-3.2-2.6l0,0c0.6,1.2,1.3,2.6,2,4.1l1.3,2.9L271.2,112.5z"/>
			<path class="st3" d="M284.9,101.5l-3.5,1.5l1,2.3l4-1.7l0.8,1.8l-6.2,2.6l-4.2-9.6l6-2.6l0.8,1.8l-3.8,1.6l0.9,2l3.5-1.5
				L284.9,101.5z"/>
			<path class="st3" d="M287.3,96.1l-2.6,1l-0.7-1.9l7.5-3l0.7,1.9l-2.7,1.1l3.2,7.9l-2.2,0.9L287.3,96.1z"/>
		</g>
		<g>
			<path class="st3" d="M644.7,666.2c0.7-0.2,1.6-0.6,2.4-1.3c0.8-0.7,0.9-1.5,0.5-2c-0.4-0.5-1.1-0.4-2.3,0.1
				c-1.7,0.7-3.2,0.8-4.2-0.3c-1.2-1.3-1-3.3,0.8-5c0.9-0.8,1.7-1.2,2.3-1.4l0.9,1.8c-0.4,0.1-1.2,0.4-2,1.1
				c-0.8,0.7-0.8,1.4-0.4,1.8c0.5,0.5,1.1,0.3,2.4-0.2c1.8-0.7,3.1-0.6,4.1,0.5c1.2,1.3,1.2,3.3-0.9,5.3c-0.9,0.8-2,1.4-2.6,1.5
				L644.7,666.2z"/>
			<path class="st3" d="M646.8,653.2l2.8,2.9l2.8-2.7l-2.8-2.9l1.7-1.6l7.3,7.5L657,658l-3.1-3.2l-2.8,2.7l3.1,3.2l-1.7,1.7
				l-7.3-7.5L646.8,653.2z"/>
			<path class="st3" d="M659.8,651.3l1.4,2.4l-1.7,1.8l-5.3-9.6l2.2-2.2l9.8,5l-1.8,1.8l-2.5-1.3L659.8,651.3z M660.4,648.2
				l-2.1-1.1c-0.6-0.3-1.3-0.7-1.8-1l0,0c0.3,0.5,0.8,1.2,1.1,1.8l1.2,2L660.4,648.2z"/>
			<path class="st3" d="M659.5,640.7c0.4-0.6,1.1-1.5,2-2.5c1.1-1.1,2-1.8,2.9-1.9c0.8-0.1,1.6,0.1,2.3,0.8c1,0.9,1,2.2,0.6,3.1l0,0
				c0.7-0.3,1.5-0.2,2.4,0.3c1.1,0.6,2.3,1.3,2.8,1.4l-1.6,1.8c-0.3-0.1-1.1-0.5-2.3-1.1c-1.2-0.7-1.7-0.6-2.4,0.1l-0.5,0.5l3,2.8
				l-1.6,1.7L659.5,640.7z M664.4,642l0.6-0.7c0.8-0.9,0.8-1.8,0.2-2.4c-0.7-0.7-1.5-0.5-2.3,0.3c-0.4,0.4-0.6,0.7-0.7,0.8
				L664.4,642z"/>
			<path class="st3" d="M674.1,633.3l-2.5,2.9l1.9,1.6l2.8-3.2l1.5,1.3l-4.4,5l-7.9-6.9l4.3-4.9l1.5,1.3l-2.7,3.1l1.6,1.4l2.5-2.9
				L674.1,633.3z"/>
			<path class="st3" d="M672.2,626.2l3.1,2.6l2.5-3l-3.1-2.6l1.5-1.8l8.1,6.7l-1.5,1.8l-3.4-2.8l-2.5,3l3.4,2.8l-1.5,1.8l-8.1-6.7
				L672.2,626.2z"/>
			<path class="st3" d="M687.2,615.6c2.7,2.1,3.1,5,1.2,7.5c-1.9,2.5-4.9,2.5-7.2,0.6c-2.5-1.9-3.1-5-1.2-7.4
				C681.9,613.7,684.9,613.8,687.2,615.6z M682.7,621.7c1.6,1.3,3.4,1.4,4.3,0.1c1-1.3,0.3-2.9-1.3-4.2c-1.5-1.2-3.3-1.4-4.3-0.1
				C680.4,618.8,681,620.4,682.7,621.7z"/>
			<path class="st3" d="M683.9,611.5l1.4-1.9l6.8,5l2.5-3.4l1.6,1.2l-3.9,5.3L683.9,611.5z"/>
			<path class="st3" d="M688.5,605.4c0.4-0.8,1-1.8,1.6-2.8c1.1-1.6,2.2-2.5,3.4-2.9c1.3-0.4,2.7-0.3,4.3,0.8
				c1.7,1.1,2.4,2.5,2.5,3.9c0.1,1.4-0.5,3.1-1.6,4.8c-0.7,1-1.3,1.7-1.7,2.1L688.5,605.4z M696.9,608.4c0.2-0.1,0.3-0.4,0.5-0.7
				c1.2-1.8,1.1-3.6-1-5c-1.8-1.3-3.5-0.9-4.6,0.8c-0.3,0.4-0.5,0.7-0.5,0.9L696.9,608.4z"/>
			<path class="st3" d="M702.8,594.8l-2.1,3.2l2.1,1.4l2.4-3.6l1.6,1.1l-3.7,5.6l-8.8-5.8l3.6-5.4l1.6,1.1l-2.2,3.4l1.8,1.2l2.1-3.2
				L702.8,594.8z"/>
			<path class="st3" d="M698.8,590.1c0.3-0.7,0.8-1.7,1.5-2.8c0.8-1.3,1.6-2.1,2.5-2.5c0.8-0.3,1.6-0.2,2.4,0.3
				c1.1,0.7,1.4,2,1.2,2.9l0,0c0.6-0.5,1.4-0.4,2.4-0.2c1.2,0.3,2.5,0.8,3,0.8l-1.3,2.1c-0.3,0-1.2-0.2-2.5-0.7
				c-1.3-0.5-1.8-0.3-2.3,0.6l-0.4,0.6l3.5,2.2l-1.2,2L698.8,590.1z M703.9,590.5l0.5-0.8c0.6-1,0.5-1.9-0.3-2.4
				c-0.8-0.5-1.6-0.2-2.2,0.7c-0.3,0.5-0.4,0.8-0.5,1L703.9,590.5z"/>
			<path class="st3" d="M710.3,586.4c0.6-0.4,1.4-1.1,1.9-1.9c0.6-0.9,0.5-1.7-0.1-2c-0.6-0.3-1.1-0.1-2.2,0.8
				c-1.4,1.2-2.8,1.7-4.1,0.9c-1.5-0.9-2-2.9-0.7-5c0.6-1,1.3-1.6,1.8-2l1.4,1.4c-0.4,0.3-1,0.8-1.5,1.6c-0.5,0.9-0.4,1.6,0.1,1.8
				c0.6,0.3,1.1,0,2.3-0.9c1.5-1.3,2.8-1.5,4.1-0.8c1.5,0.9,2.1,2.8,0.7,5.3c-0.6,1-1.5,1.9-2.1,2.2L710.3,586.4z"/>
		</g>
		<g>
			<path class="st3" d="M345.6,739.8c0.6,0,1.9,0.1,3.1,0.4c1.4,0.3,2.3,0.6,2.9,1.2c0.6,0.5,1,1.3,0.8,2.3
				c-0.2,0.9-0.9,1.7-2.1,1.9l0,0c1.1,0.6,1.8,1.6,1.6,2.9c-0.2,0.9-0.8,1.6-1.5,2c-0.9,0.5-2.2,0.5-4.2,0.1c-1.1-0.2-2-0.5-2.5-0.6
				L345.6,739.8z M346.3,748.8c0.2,0.1,0.5,0.1,0.9,0.2c1.1,0.2,2.1,0,2.3-1.1c0.2-1-0.6-1.6-1.8-1.9l-0.8-0.2L346.3,748.8z
				 M347.2,744.2l0.8,0.1c1.2,0.2,2-0.1,2.1-0.9c0.2-0.8-0.4-1.3-1.4-1.5c-0.5-0.1-0.8-0.1-1-0.1L347.2,744.2z"/>
			<path class="st3" d="M356.8,741.8l-1,6c-0.3,1.8,0.2,2.8,1.4,3c1.2,0.2,2-0.5,2.4-2.4l1-6l2.3,0.4l-1,5.8c-0.5,3.2-2.4,4.4-5.1,4
				c-2.6-0.4-3.9-2.1-3.4-5.4l1-5.8L356.8,741.8z"/>
			<path class="st3" d="M363.6,751c0.6,0.4,1.5,0.9,2.5,1c1.1,0.1,1.7-0.2,1.8-0.9c0.1-0.6-0.4-1.1-1.5-1.7c-1.6-0.8-2.6-2-2.4-3.5
				c0.2-1.8,1.9-2.9,4.4-2.6c1.2,0.2,2,0.5,2.6,0.9l-0.8,1.8c-0.4-0.3-1.1-0.7-2.1-0.8c-1-0.1-1.6,0.3-1.7,0.8
				c-0.1,0.7,0.5,1,1.7,1.7c1.7,0.9,2.5,2,2.3,3.5c-0.2,1.7-1.8,3-4.6,2.6c-1.2-0.2-2.3-0.6-2.9-1L363.6,751z"/>
			<path class="st3" d="M375.1,744.4l-1.2,10.4l-2.4-0.3l1.2-10.4L375.1,744.4z"/>
			<path class="st3" d="M375.9,755l1-10.4l2.8,0.3l1.8,4c0.5,1.2,1,2.5,1.4,3.7l0,0c0-1.4,0.1-2.8,0.2-4.4l0.3-3.1l2.2,0.2l-1,10.4
				l-2.5-0.2l-1.8-4.2c-0.5-1.2-1.1-2.6-1.5-3.9l0,0c-0.1,1.4-0.2,2.9-0.3,4.6l-0.3,3.1L375.9,755z"/>
			<path class="st3" d="M393,752l-3.9-0.3l-0.2,2.5l4.3,0.3l-0.1,1.9l-6.7-0.5l0.7-10.5l6.5,0.5l-0.1,1.9l-4.1-0.3l-0.2,2.2l3.9,0.3
				L393,752z"/>
			<path class="st3" d="M394.9,754.1c0.6,0.4,1.6,0.7,2.6,0.8c1.1,0,1.7-0.4,1.7-1.1c0-0.7-0.5-1.1-1.7-1.6
				c-1.7-0.7-2.8-1.7-2.7-3.2c0.1-1.8,1.6-3.1,4.1-3c1.2,0.1,2,0.3,2.7,0.7l-0.6,1.9c-0.4-0.2-1.1-0.6-2.2-0.6c-1,0-1.5,0.4-1.6,0.9
				c0,0.7,0.5,1,1.9,1.6c1.8,0.8,2.6,1.8,2.6,3.3c-0.1,1.8-1.5,3.2-4.4,3.1c-1.2-0.1-2.4-0.4-2.9-0.8L394.9,754.1z"/>
			<path class="st3" d="M403.2,754.5c0.6,0.3,1.6,0.7,2.6,0.7c1.1,0,1.7-0.4,1.7-1.1c0-0.7-0.5-1-1.7-1.5c-1.7-0.6-2.8-1.6-2.8-3.2
				c0-1.8,1.6-3.1,4-3.1c1.2,0,2,0.3,2.7,0.6l-0.6,1.9c-0.4-0.2-1.2-0.5-2.2-0.5c-1,0-1.5,0.4-1.5,1c0,0.7,0.6,1,1.9,1.5
				c1.8,0.7,2.7,1.7,2.7,3.2c0,1.8-1.4,3.2-4.3,3.2c-1.2,0-2.4-0.4-3-0.7L403.2,754.5z"/>
			<path class="st3" d="M414.5,746.8c0.7-0.1,1.8-0.2,3.2-0.3c1.5,0,2.5,0.3,3.2,0.8c0.7,0.5,1.1,1.4,1.1,2.4c0,1-0.3,1.9-0.9,2.5
				c-0.8,0.8-2,1.1-3.4,1.1c-0.3,0-0.6,0-0.8,0l0,3.8l-2.4,0L414.5,746.8z M416.9,751.5c0.2,0,0.5,0.1,0.8,0.1c1.3,0,2-0.7,2-1.7
				c0-1-0.7-1.5-1.9-1.5c-0.5,0-0.8,0.1-1,0.1L416.9,751.5z"/>
			<path class="st3" d="M425,754.2l-0.7,2.7l-2.5,0.1l2.8-10.6l3.1-0.1l3.6,10.4l-2.6,0.1l-0.9-2.7L425,754.2z M427.6,752.4
				l-0.7-2.2c-0.2-0.6-0.4-1.4-0.6-2l0,0c-0.1,0.6-0.3,1.4-0.4,2l-0.5,2.2L427.6,752.4z"/>
			<path class="st3" d="M432.2,746.3c0.8-0.2,1.9-0.3,3.1-0.4c1.6-0.1,2.7,0.1,3.4,0.6c0.7,0.5,1,1.2,1.1,2.1
				c0.1,1.3-0.8,2.3-1.7,2.7l0,0c0.7,0.2,1.2,0.9,1.5,1.9c0.4,1.2,0.8,2.5,1,2.9l-2.4,0.2c-0.2-0.3-0.5-1.1-0.9-2.4
				c-0.4-1.3-0.8-1.6-1.8-1.6l-0.7,0l0.3,4.1l-2.3,0.1L432.2,746.3z M434.8,750.6l0.9-0.1c1.2-0.1,1.8-0.7,1.8-1.6
				c-0.1-1-0.7-1.4-1.8-1.4c-0.6,0-0.9,0.1-1.1,0.1L434.8,750.6z"/>
			<path class="st3" d="M443.2,747.4l-2.8,0.2l-0.2-2l8-0.7l0.2,2l-2.9,0.3l0.8,8.5l-2.4,0.2L443.2,747.4z"/>
			<path class="st3" d="M450.4,755.2l-1.2-10.4l2.8-0.3l2.6,3.6c0.7,1,1.5,2.3,2.1,3.4l0,0c-0.3-1.4-0.5-2.8-0.7-4.3l-0.4-3l2.2-0.3
				l1.2,10.4l-2.5,0.3l-2.7-3.8c-0.7-1-1.6-2.3-2.2-3.5l0,0c0.2,1.4,0.4,2.8,0.6,4.5l0.4,3.1L450.4,755.2z"/>
			<path class="st3" d="M466.5,748.7l-3.8,0.6l0.4,2.5l4.3-0.6l0.3,1.9l-6.6,1l-1.5-10.4l6.4-0.9l0.3,1.9l-4.1,0.6l0.3,2.2l3.8-0.6
				L466.5,748.7z"/>
			<path class="st3" d="M467.4,742.6c0.7-0.3,1.8-0.5,3.1-0.7c1.5-0.3,2.7-0.2,3.5,0.2c0.7,0.4,1.2,1.1,1.3,2
				c0.2,1.3-0.6,2.4-1.4,2.9l0,0c0.8,0.2,1.3,0.8,1.7,1.7c0.5,1.1,1.1,2.4,1.3,2.8l-2.4,0.4c-0.2-0.3-0.6-1.1-1.1-2.3
				c-0.5-1.2-1-1.5-2-1.4l-0.7,0.1l0.7,4.1l-2.3,0.4L467.4,742.6z M470.5,746.6l0.9-0.2c1.2-0.2,1.8-0.9,1.6-1.8
				c-0.2-1-0.9-1.3-2-1.2c-0.6,0.1-0.9,0.2-1,0.3L470.5,746.6z"/>
			<path class="st3" d="M477.8,748.8c0.7,0.2,1.7,0.3,2.7,0.1c1.1-0.2,1.5-0.8,1.4-1.4c-0.1-0.6-0.7-0.9-2-1.1
				c-1.8-0.3-3.1-1-3.4-2.5c-0.3-1.8,0.9-3.4,3.3-3.9c1.2-0.2,2.1-0.2,2.7,0l-0.1,2c-0.5-0.1-1.2-0.3-2.3-0.1
				c-1,0.2-1.4,0.8-1.3,1.3c0.1,0.7,0.8,0.8,2.2,1.1c2,0.3,3,1.1,3.3,2.5c0.3,1.7-0.7,3.5-3.5,4c-1.2,0.2-2.4,0.2-3-0.1L477.8,748.8
				z"/>
		</g>
		<g>
			<path class="st3" d="M120.9,595.5c-0.4-0.3-1.1-1-1.8-2.1c-1.9-3.1-1-5.9,1.6-7.4c3-1.9,6.1-0.8,7.8,1.9c0.6,1,0.9,2,1,2.4
				l-1.9,0.6c-0.1-0.5-0.3-1.2-0.7-1.9c-1-1.6-2.7-2.2-4.7-1c-1.8,1.1-2.3,2.9-1.1,4.7c0.4,0.6,0.9,1.2,1.3,1.5L120.9,595.5z"/>
			<path class="st3" d="M131,601.6c-2.9,1.9-5.8,1.3-7.5-1.3c-1.7-2.6-0.7-5.4,1.8-7.1c2.6-1.7,5.7-1.3,7.4,1.3
				C134.5,597.3,133.4,600,131,601.6z M126.7,595.4c-1.7,1.1-2.4,2.7-1.5,4.1c0.9,1.3,2.7,1.3,4.4,0.2c1.6-1,2.4-2.7,1.5-4
				C130.2,594.2,128.4,594.3,126.7,595.4z"/>
			<path class="st3" d="M135.7,610.7c1-0.8,2.2-1.7,3.5-2.6l0,0c-1.3,0.5-2.8,1-4,1.4l-4.1,1.3l-1.1-1.5l2.7-3.3
				c0.8-1,1.8-2.1,2.8-3.1l0,0c-1.2,0.8-2.5,1.7-3.7,2.4l-3.4,2.2l-1.3-1.8l9-5.5l1.8,2.6l-2.3,2.9c-0.8,1-1.7,2-2.6,2.9l0,0
				c1.2-0.5,2.5-1,3.7-1.4l3.5-1.1l1.8,2.5l-8.2,6.5l-1.3-1.9L135.7,610.7z"/>
			<path class="st3" d="M143.5,621c1-0.8,2.2-1.8,3.4-2.7l0,0c-1.3,0.6-2.7,1.1-3.9,1.5l-4,1.5l-1.1-1.5l2.5-3.4
				c0.8-1,1.7-2.2,2.7-3.2l0,0c-1.2,0.8-2.5,1.8-3.6,2.5l-3.3,2.3l-1.3-1.7l8.7-5.9l1.9,2.5l-2.2,2.9c-0.8,1-1.6,2.1-2.4,3l0,0
				c1.1-0.5,2.5-1.1,3.6-1.5l3.5-1.2l1.9,2.5l-8,6.8l-1.4-1.8L143.5,621z"/>
			<path class="st3" d="M152.5,622l-4.7,3.8c-1.4,1.1-1.7,2.3-0.9,3.2c0.8,1,1.9,0.9,3.3-0.2l4.7-3.8l1.5,1.8l-4.5,3.7
				c-2.5,2.1-4.7,1.8-6.5-0.3c-1.7-2-1.5-4.2,1.1-6.3l4.5-3.7L152.5,622z"/>
			<path class="st3" d="M149.6,634.9l7.9-6.9l1.8,2.1l-1.5,4.2c-0.4,1.2-1,2.5-1.6,3.7l0,0c0.9-1,2-2,3.2-3l2.3-2l1.4,1.6l-7.9,6.9
				l-1.6-1.9l1.6-4.4c0.4-1.2,1-2.6,1.6-3.8l0,0c-1,1-2.1,2-3.4,3.1l-2.4,2.1L149.6,634.9z"/>
			<path class="st3" d="M166.1,637.6l-7.8,7.1l-1.6-1.8l7.8-7.1L166.1,637.6z"/>
			<path class="st3" d="M167.2,641.8l-1.9-2l1.4-1.4l5.5,5.9l-1.4,1.4l-2-2.1l-6.2,5.8l-1.6-1.7L167.2,641.8z"/>
			<path class="st3" d="M167.3,654.1l3-3l2-6.7l1.9,1.9l-1,2.5c-0.3,0.8-0.6,1.3-0.9,2l0,0c0.6-0.3,1.2-0.5,2-0.9l2.5-1l1.9,1.9
				l-6.8,1.9l-3.1,3.1L167.3,654.1z"/>
		</g>
	</g>
</g>
</svg>
