<?xml version="1.0" encoding="utf-8"?>
<!-- Generator: Adobe Illustrator 25.2.1, SVG Export Plug-In . SVG Version: 6.00 Build 0)  -->
<svg version="1.1" id="Layer_1" xmlns="http://www.w3.org/2000/svg" xmlns:xlink="http://www.w3.org/1999/xlink" x="0px" y="0px"
	 viewBox="0 0 649 424" style="enable-background:new 0 0 649 424;" xml:space="preserve">
<style type="text/css">
	.st0{fill:#F78D20;}
	.st1{fill:#FFFFFF;}
	.st2{fill:#FFFFFF;stroke:#6D6E70;stroke-width:0.5;stroke-miterlimit:10;}
	.st3{fill:#E6E7E8;}
	.st4{fill:none;stroke:#929497;stroke-miterlimit:10;}
	.st5{fill:#6AAAE4;stroke:#F1F1F2;stroke-miterlimit:10;}
	.st6{fill:none;stroke:#F78D20;stroke-width:2;stroke-miterlimit:10;stroke-dasharray:6.044,4.0293;}
	.st7{fill:none;stroke:#606161;stroke-width:0.5;stroke-miterlimit:10;}
	.st8{fill:#FFFFFF;stroke:#606161;stroke-width:0.5;stroke-miterlimit:10;}
	.st9{fill:none;stroke:#6D6E70;stroke-width:0.5;stroke-miterlimit:10;}
	.st10{fill:none;stroke:#808184;stroke-linecap:round;stroke-linejoin:round;stroke-miterlimit:10;}
	.st11{fill:none;stroke:#808184;stroke-width:0.719;stroke-linecap:round;stroke-linejoin:round;stroke-miterlimit:10;}
	.st12{fill:#808184;}
	.st13{fill:#58595B;}
</style>
<g>
	<path class="st0" d="M636.6,361.7H11.5c-2.8,0-5-2.2-5-5v-27.3h635v27.3C641.6,359.5,639.3,361.7,636.6,361.7z"/>
	<g>
		<g>
			<path class="st1" d="M274.3,333.3h4.6v1.4H276v1.7h2.7v1.4H276v3h-1.7V333.3z"/>
			<path class="st1" d="M283.1,340.8l-0.1-0.5h0c-0.4,0.4-0.9,0.7-1.5,0.7c-1.1,0-1.7-0.8-1.7-1.7c0-1.4,1.3-2.1,3.2-2.1v-0.1
				c0-0.3-0.2-0.7-1-0.7c-0.6,0-1.1,0.2-1.5,0.4l-0.3-1.1c0.4-0.2,1.1-0.5,2.1-0.5c1.8,0,2.4,1.1,2.4,2.3v1.9c0,0.5,0,1,0.1,1.3
				H283.1z M282.9,338.2c-0.9,0-1.6,0.2-1.6,0.9c0,0.4,0.3,0.6,0.7,0.6c0.4,0,0.8-0.3,0.9-0.6c0-0.1,0-0.2,0-0.3V338.2z"/>
			<path class="st1" d="M290.2,340.6c-0.3,0.1-0.9,0.2-1.5,0.2c-1.7,0-2.9-1.1-2.9-2.8c0-1.6,1.1-2.9,3.1-2.9c0.4,0,0.9,0.1,1.3,0.2
				l-0.3,1.2c-0.2-0.1-0.5-0.2-0.9-0.2c-0.9,0-1.5,0.6-1.4,1.5c0,1,0.7,1.5,1.5,1.5c0.4,0,0.7-0.1,1-0.2L290.2,340.6z"/>
			<path class="st1" d="M291.5,332.9h1.7v3.1h0c0.2-0.2,0.4-0.4,0.7-0.6c0.2-0.1,0.6-0.2,0.9-0.2c1.1,0,1.9,0.7,1.9,2.4v3.2h-1.7v-3
				c0-0.7-0.2-1.2-0.9-1.2c-0.4,0-0.7,0.3-0.8,0.6c0,0.1-0.1,0.3-0.1,0.4v3.2h-1.7V332.9z"/>
			<path class="st1" d="M301.3,340.8l-0.1-0.5h0c-0.4,0.4-0.9,0.7-1.5,0.7c-1.1,0-1.7-0.8-1.7-1.7c0-1.4,1.3-2.1,3.2-2.1v-0.1
				c0-0.3-0.2-0.7-1-0.7c-0.6,0-1.1,0.2-1.5,0.4l-0.3-1.1c0.4-0.2,1.1-0.5,2.1-0.5c1.8,0,2.4,1.1,2.4,2.3v1.9c0,0.5,0,1,0.1,1.3
				H301.3z M301.1,338.2c-0.9,0-1.6,0.2-1.6,0.9c0,0.4,0.3,0.6,0.7,0.6c0.4,0,0.8-0.3,0.9-0.6c0-0.1,0-0.2,0-0.3V338.2z"/>
			<path class="st1" d="M309.6,332.9v6.2c0,0.6,0,1.2,0,1.6h-1.5L308,340h0c-0.3,0.6-1,0.9-1.7,0.9c-1.3,0-2.3-1.1-2.3-2.8
				c0-1.8,1.1-2.9,2.4-2.9c0.7,0,1.2,0.2,1.4,0.6h0v-2.9H309.6z M307.9,337.6c0-0.1,0-0.2,0-0.3c-0.1-0.5-0.5-0.8-1-0.8
				c-0.8,0-1.2,0.7-1.2,1.5c0,0.9,0.5,1.5,1.1,1.5c0.5,0,0.9-0.3,1-0.8c0-0.1,0-0.2,0-0.4V337.6z"/>
			<path class="st1" d="M314.3,340.8l-0.1-0.5h0c-0.4,0.4-0.9,0.7-1.5,0.7c-1.1,0-1.7-0.8-1.7-1.7c0-1.4,1.3-2.1,3.2-2.1v-0.1
				c0-0.3-0.2-0.7-1-0.7c-0.6,0-1.1,0.2-1.5,0.4l-0.3-1.1c0.4-0.2,1.1-0.5,2.1-0.5c1.8,0,2.4,1.1,2.4,2.3v1.9c0,0.5,0,1,0.1,1.3
				H314.3z M314.1,338.2c-0.9,0-1.6,0.2-1.6,0.9c0,0.4,0.3,0.6,0.7,0.6c0.4,0,0.8-0.3,0.9-0.6c0-0.1,0-0.2,0-0.3V338.2z"/>
			<path class="st1" d="M325.2,338c0,2-1.4,2.9-2.9,2.9c-1.6,0-2.8-1-2.8-2.8c0-1.7,1.1-2.9,2.9-2.9
				C324.1,335.2,325.2,336.4,325.2,338z M321.3,338c0,0.9,0.4,1.6,1.1,1.6c0.7,0,1.1-0.7,1.1-1.6c0-0.8-0.3-1.6-1.1-1.6
				C321.6,336.4,321.3,337.3,321.3,338z"/>
			<path class="st1" d="M326.5,337.1c0-0.7,0-1.2,0-1.7h1.4l0.1,0.7h0c0.2-0.3,0.7-0.9,1.6-0.9c0.7,0,1.2,0.4,1.5,0.9h0
				c0.2-0.3,0.4-0.5,0.7-0.7c0.3-0.2,0.6-0.3,1-0.3c1,0,1.8,0.7,1.8,2.3v3.2H333v-2.9c0-0.8-0.3-1.2-0.8-1.2c-0.4,0-0.7,0.3-0.8,0.6
				c0,0.1-0.1,0.3-0.1,0.4v3.2h-1.6v-3c0-0.7-0.2-1.1-0.8-1.1c-0.4,0-0.7,0.3-0.8,0.6c-0.1,0.1-0.1,0.3-0.1,0.4v3.1h-1.6V337.1z"/>
			<path class="st1" d="M336.3,337.1c0-0.7,0-1.2,0-1.7h1.5l0.1,0.7h0c0.2-0.3,0.8-0.9,1.7-0.9c1.1,0,1.9,0.7,1.9,2.3v3.2h-1.7v-3
				c0-0.7-0.2-1.2-0.9-1.2c-0.5,0-0.7,0.3-0.9,0.6c0,0.1-0.1,0.3-0.1,0.4v3.1h-1.7V337.1z"/>
			<path class="st1" d="M344.8,333.9c0,0.5-0.4,0.8-0.9,0.8c-0.5,0-0.9-0.4-0.9-0.8c0-0.5,0.3-0.9,0.9-0.9S344.8,333.4,344.8,333.9z
				 M343.1,340.8v-5.4h1.7v5.4H343.1z"/>
			<path class="st1" d="M350.4,340.6c-0.3,0.1-0.9,0.2-1.5,0.2c-1.7,0-2.9-1.1-2.9-2.8c0-1.6,1.1-2.9,3.1-2.9c0.4,0,0.9,0.1,1.3,0.2
				l-0.3,1.2c-0.2-0.1-0.5-0.2-0.9-0.2c-0.9,0-1.5,0.6-1.4,1.5c0,1,0.7,1.5,1.5,1.5c0.4,0,0.7-0.1,1-0.2L350.4,340.6z"/>
			<path class="st1" d="M354.7,340.8l-0.1-0.5h0c-0.4,0.4-0.9,0.7-1.5,0.7c-1.1,0-1.7-0.8-1.7-1.7c0-1.4,1.3-2.1,3.2-2.1v-0.1
				c0-0.3-0.2-0.7-1-0.7c-0.6,0-1.1,0.2-1.5,0.4l-0.3-1.1c0.4-0.2,1.1-0.5,2.1-0.5c1.8,0,2.4,1.1,2.4,2.3v1.9c0,0.5,0,1,0.1,1.3
				H354.7z M354.5,338.2c-0.9,0-1.6,0.2-1.6,0.9c0,0.4,0.3,0.6,0.7,0.6c0.4,0,0.8-0.3,0.9-0.6c0-0.1,0-0.2,0-0.3V338.2z"/>
			<path class="st1" d="M357.8,337.1c0-0.7,0-1.2,0-1.7h1.5l0.1,0.7h0c0.2-0.3,0.8-0.9,1.7-0.9c1.1,0,1.9,0.7,1.9,2.3v3.2h-1.7v-3
				c0-0.7-0.2-1.2-0.9-1.2c-0.5,0-0.7,0.3-0.9,0.6c0,0.1-0.1,0.3-0.1,0.4v3.1h-1.7V337.1z"/>
			<path class="st1" d="M367.6,340.8l-0.1-0.5h0c-0.4,0.4-0.9,0.7-1.5,0.7c-1.1,0-1.7-0.8-1.7-1.7c0-1.4,1.3-2.1,3.2-2.1v-0.1
				c0-0.3-0.2-0.7-1-0.7c-0.6,0-1.1,0.2-1.5,0.4l-0.3-1.1c0.4-0.2,1.1-0.5,2.1-0.5c1.8,0,2.4,1.1,2.4,2.3v1.9c0,0.5,0,1,0.1,1.3
				H367.6z M367.4,338.2c-0.9,0-1.6,0.2-1.6,0.9c0,0.4,0.3,0.6,0.7,0.6c0.4,0,0.8-0.3,0.9-0.6c0-0.1,0-0.2,0-0.3V338.2z"/>
			<path class="st1" d="M370.7,332.9h1.7v7.8h-1.7V332.9z"/>
		</g>
	</g>
</g>
<path class="st2" d="M107.7,345.2H12.2c-3.1,0-5.7-2.5-5.7-5.7v-327c0-3.1,2.5-5.7,5.7-5.7h623.7c3.1,0,5.7,2.5,5.7,5.7v326.9
	c0,3.1-2.5,5.7-5.7,5.7h-88.4"/>
<path class="st3" d="M634.4,417.9H12.7c-2.4,0-4.4-2-4.4-4.4V372c0-2.4,2-4.4,4.4-4.4h621.7c2.4,0,4.4,2,4.4,4.4v41.6
	C638.8,416,636.8,417.9,634.4,417.9z"/>
<path class="st4" d="M196.8,52.5H33.7C24.5,52.5,17,60,17,69.2l0,207.7c0,9.9,8,17.9,17.9,17.9h67.7v-62.9h94.1c0,0,0,0,0,0
	L196.8,52.5z"/>
<rect x="107.7" y="236.3" class="st4" width="89.1" height="58.5"/>
<rect x="201.8" y="236.3" class="st4" width="258.2" height="58.5"/>
<polygon class="st4" points="201.8,101.9 418.6,101.9 418.6,170.6 460.1,170.6 460.1,231.1 201.8,231.1 "/>
<rect x="464.5" y="236.3" class="st5" width="83" height="58.5"/>
<rect x="552.8" y="236.3" class="st0" width="78.1" height="58.2"/>
<path class="st4" d="M613.9,337.2h-61.1v-36.9h78.1v19.9C630.9,329.6,623.3,337.2,613.9,337.2z"/>
<path class="st4" d="M630.9,69.6c0-9.4-7.6-17-17-17h-412v43.9H506v74.1h-41.5v60.7h166.4V69.6z"/>
<rect x="423.1" y="101.9" class="st0" width="78.1" height="64.6"/>
<path class="st0" d="M641.6,44.7H6.5v-32c0-3.2,2.6-5.8,5.8-5.8h624c2.9,0,5.3,2.4,5.3,5.3V44.7z"/>
<g>
	<path class="st6" d="M176.3,413.8H20.1c-4,0-7.3-3.3-7.3-7.3v-27.4c0-4,3.3-7.3,7.3-7.3h156.1c4,0,7.3,3.3,7.3,7.3v27.4
		C183.6,410.5,180.3,413.8,176.3,413.8z"/>
</g>
<g>
	<path class="st7" d="M121.8,345.2c0-7.8-6.3-14.1-14.1-14.1v14.1"/>
	<path class="st7" d="M121.8,345.2c0-7.8,6.3-14.1,14.1-14.1v14.1"/>
	<path class="st7" d="M154.7,345.2c0-7.8-6.3-14.1-14.1-14.1v14.1"/>
	<path class="st7" d="M154.7,345.2c0-7.8,6.3-14.1,14.1-14.1v14.1"/>
	<rect x="135.8" y="340.4" class="st7" width="4.8" height="4.8"/>
</g>
<g>
	<path class="st7" d="M500.5,345.2c0-7.8-6.3-14.1-14.1-14.1v14.1"/>
	<path class="st7" d="M500.5,345.2c0-7.8,6.3-14.1,14.1-14.1v14.1"/>
	<path class="st7" d="M533.4,345.2c0-7.8-6.3-14.1-14.1-14.1v14.1"/>
	<path class="st7" d="M533.4,345.2c0-7.8,6.3-14.1,14.1-14.1v14.1"/>
	<rect x="514.6" y="340.4" class="st7" width="4.8" height="4.8"/>
</g>
<g>
	<path class="st8" d="M533.4,44.7c0,7.8,6.3,14.1,14.1,14.1V44.7"/>
	<path class="st8" d="M533.4,44.7c0,7.8-6.3,14.1-14.1,14.1V44.7"/>
	<path class="st8" d="M500.5,44.7c0,7.8,6.3,14.1,14.1,14.1V44.7"/>
	<path class="st8" d="M500.5,44.7c0,7.8-6.3,14.1-14.1,14.1V44.7"/>
	
		<rect x="514.6" y="44.7" transform="matrix(-1 -1.224647e-16 1.224647e-16 -1 1033.9275 94.2031)" class="st8" width="4.8" height="4.8"/>
</g>
<line class="st9" x1="486.4" y1="345.2" x2="168.7" y2="345.2"/>
<g>
	<polygon class="st10" points="85,403.6 85,382.9 98.4,385.3 98.4,401.2 	"/>
	<polyline class="st11" points="91.5,384 91.5,382.9 98.4,385.3 98.4,401.2 91.5,403.6 91.5,402.4 	"/>
	<polygon class="st10" points="128.1,382.9 128.1,403.6 122.7,401.2 122.7,385.3 	"/>
	<polygon class="st10" points="100,384.3 92.9,380 128.1,380 121.1,384.3 	"/>
	<polygon class="st10" points="100,402.2 92.9,406.5 128.1,406.5 121.1,402.2 	"/>
	<line class="st10" x1="121.1" y1="384.3" x2="121.1" y2="402.2"/>
	<line class="st10" x1="100" y1="384.3" x2="100" y2="402.2"/>
	
		<rect x="127.3" y="378.6" transform="matrix(-1.836970e-16 1 -1 -1.836970e-16 509.3878 250.4115)" class="st10" width="4.4" height="2.7"/>
	
		<rect x="127.3" y="405.1" transform="matrix(-1.836970e-16 1 -1 -1.836970e-16 535.941 276.9648)" class="st10" width="4.4" height="2.7"/>
	<path class="st10" d="M132.4,406.9L132.4,406.9c0-0.3,0.2-0.5,0.5-0.5h5.3c0.3,0,0.5,0.2,0.5,0.5l0,0c0,0.3-0.2,0.5-0.5,0.5h-5.3
		C132.6,407.4,132.4,407.2,132.4,406.9z"/>
	<path class="st10" d="M132.4,379.5L132.4,379.5c0-0.3,0.2-0.5,0.5-0.5h5.3c0.3,0,0.5,0.2,0.5,0.5l0,0c0,0.3-0.2,0.5-0.5,0.5h-5.3
		C132.6,380,132.4,379.8,132.4,379.5z"/>
	<path class="st10" d="M95.7,406.9L95.7,406.9c0-0.3,0.2-0.5,0.5-0.5h5.3c0.3,0,0.5,0.2,0.5,0.5l0,0c0,0.3-0.2,0.5-0.5,0.5h-5.3
		C96,407.4,95.7,407.2,95.7,406.9z"/>
	<path class="st10" d="M95.7,379.5L95.7,379.5c0-0.3,0.2-0.5,0.5-0.5h5.3c0.3,0,0.5,0.2,0.5,0.5l0,0c0,0.3-0.2,0.5-0.5,0.5h-5.3
		C96,380,95.7,379.8,95.7,379.5z"/>
	<path class="st10" d="M91.2,380h50.5c3.3,0,5.9,2.7,5.9,5.9v14.6c0,3.3-2.7,5.9-5.9,5.9H91.2"/>
	<line class="st10" x1="126" y1="385.8" x2="126" y2="390.5"/>
	<path class="st10" d="M87.6,383.3c1-2,3-3.3,5.3-3.3h47.2c3.3,0,5.9,2.7,5.9,5.9v14.6c0,3.3-2.7,5.9-5.9,5.9H92.9
		c-2.3,0-4.4-1.4-5.3-3.3"/>
</g>
<g>
	<path class="st1" d="M241,396l-21.5,0c-1.6,0-2.9-1.3-2.9-2.9l0,0c0-1.6,1.3-2.9,2.9-2.9H241c1.6,0,2.9,1.3,2.9,2.9l0,0
		C243.9,394.8,242.6,396,241,396z"/>
	<path class="st1" d="M315.3,396l-21.5,0c-1.6,0-2.9-1.3-2.9-2.9l0,0c0-1.6,1.3-2.9,2.9-2.9h21.5c1.6,0,2.9,1.3,2.9,2.9l0,0
		C318.2,394.8,316.9,396,315.3,396z"/>
	<path class="st1" d="M389.6,396l-21.5,0c-1.6,0-2.9-1.3-2.9-2.9l0,0c0-1.6,1.3-2.9,2.9-2.9h21.5c1.6,0,2.9,1.3,2.9,2.9l0,0
		C392.5,394.8,391.2,396,389.6,396z"/>
	<path class="st1" d="M463.9,396l-21.5,0c-1.6,0-2.9-1.3-2.9-2.9l0,0c0-1.6,1.3-2.9,2.9-2.9h21.5c1.6,0,2.9,1.3,2.9,2.9l0,0
		C466.8,394.8,465.5,396,463.9,396z"/>
	<path class="st1" d="M538.2,396l-21.5,0c-1.6,0-2.9-1.3-2.9-2.9l0,0c0-1.6,1.3-2.9,2.9-2.9h21.5c1.6,0,2.9,1.3,2.9,2.9l0,0
		C541.1,394.8,539.8,396,538.2,396z"/>
	<path class="st1" d="M612.1,396l-20.8,0c-1.6,0-2.9-1.3-2.9-2.9l0,0c0-1.6,1.3-2.9,2.9-2.9h20.8c1.6,0,2.9,1.3,2.9,2.9l0,0
		C615,394.8,613.7,396,612.1,396z"/>
</g>
<line class="st9" x1="547.5" y1="44.7" x2="641.6" y2="44.7"/>
<line class="st7" x1="6.5" y1="44.7" x2="486.4" y2="44.7"/>
<g>
	<g>
		<path class="st12" d="M574.3,322l0.4-3.3c0.1-0.6,0.2-1.5,0.3-2.1h0c-0.3,0.6-0.6,1.3-0.9,2l-1.8,3.3h-0.6l-0.5-3.3
			c-0.1-0.7-0.2-1.4-0.2-2h0c-0.1,0.6-0.3,1.5-0.5,2.1l-0.8,3.3h-0.7l1.6-6.1h1l0.5,3.5c0.1,0.5,0.1,1.1,0.1,1.5h0
			c0.2-0.5,0.5-1,0.7-1.5l1.9-3.5h1L575,322H574.3z"/>
		<path class="st12" d="M579.6,322c0-0.3,0-0.7,0.1-1.1h0c-0.5,0.9-1.1,1.2-1.7,1.2c-0.8,0-1.3-0.6-1.3-1.4c0-1.5,1.1-3.1,3-3.1
			c0.4,0,0.9,0.1,1.2,0.2l-0.4,2.3c-0.1,0.8-0.2,1.5-0.2,2H579.6z M580.1,318.2c-0.1,0-0.3-0.1-0.5-0.1c-1.1,0-2,1.2-2.1,2.4
			c0,0.5,0.2,1,0.7,1c0.6,0,1.4-0.8,1.6-2L580.1,318.2z"/>
		<path class="st12" d="M581.9,322l0.5-2.8c0.1-0.6,0.2-1.1,0.2-1.5h0.7c0,0.3-0.1,0.6-0.1,0.9h0c0.3-0.6,0.7-1,1.3-1
			c0.1,0,0.2,0,0.2,0l-0.1,0.7c0,0-0.1,0-0.2,0c-0.6,0-1.2,0.8-1.4,1.8l-0.4,1.9H581.9z"/>
		<path class="st12" d="M585.2,322l1.2-6.4h0.7l-0.8,4h0c0.1-0.2,0.3-0.3,0.4-0.4l1.5-1.5h0.9l-1.9,1.8l1.3,2.6h-0.8l-1-2.2
			l-0.5,0.5L586,322H585.2z"/>
		<path class="st12" d="M592.8,321.7c-0.3,0.2-0.9,0.3-1.4,0.3c-1.2,0-1.7-0.8-1.7-1.7c0-1.3,1-2.8,2.4-2.8c0.8,0,1.3,0.5,1.3,1.1
			c0,1.1-1.3,1.4-2.9,1.4c0,0.2,0,0.6,0.1,0.8c0.2,0.4,0.5,0.6,1,0.6c0.5,0,0.9-0.2,1.2-0.3L592.8,321.7z M592,318.1
			c-0.7,0-1.2,0.7-1.4,1.4c1.2,0,2.1-0.1,2.1-0.8C592.7,318.3,592.4,318.1,592,318.1z"/>
		<path class="st12" d="M596.2,316.5l-0.2,1.2h1l-0.1,0.6h-1l-0.4,2.1c0,0.2-0.1,0.5-0.1,0.7c0,0.3,0.1,0.4,0.4,0.4
			c0.1,0,0.3,0,0.4,0l0,0.6c-0.1,0.1-0.4,0.1-0.6,0.1c-0.7,0-0.9-0.4-0.9-0.8c0-0.3,0-0.5,0.1-0.8l0.4-2.2h-0.6l0.1-0.6h0.6l0.2-1
			L596.2,316.5z"/>
		<path class="st12" d="M597.6,321.2c0.2,0.1,0.6,0.3,0.9,0.3c0.5,0,0.8-0.3,0.8-0.7c0-0.3-0.2-0.5-0.6-0.8
			c-0.5-0.3-0.8-0.7-0.8-1.1c0-0.8,0.7-1.4,1.6-1.4c0.4,0,0.7,0.1,0.9,0.2l-0.2,0.6c-0.2-0.1-0.4-0.2-0.8-0.2
			c-0.5,0-0.8,0.3-0.8,0.7c0,0.3,0.2,0.5,0.6,0.7c0.5,0.3,0.8,0.7,0.8,1.1c0,0.9-0.7,1.4-1.7,1.4c-0.5,0-0.9-0.1-1.1-0.3
			L597.6,321.2z"/>
		<path class="st12" d="M601.4,322l0.8-4.4h0.7l-0.8,4.4H601.4z M602.3,316.4c0-0.3,0.2-0.5,0.5-0.5c0.3,0,0.4,0.2,0.4,0.5
			c0,0.3-0.2,0.5-0.5,0.5C602.5,316.9,602.3,316.7,602.3,316.4z"/>
		<path class="st12" d="M608.5,315.6l-1,5c-0.1,0.5-0.2,1-0.2,1.4h-0.7l0.1-0.9h0c-0.4,0.6-0.9,1-1.6,1c-0.8,0-1.3-0.7-1.3-1.6
			c0-1.5,1.2-3,2.7-3c0.3,0,0.6,0.1,0.8,0.2l0.4-2.1H608.5z M607.3,318.3c-0.2-0.1-0.4-0.2-0.7-0.2c-1,0-1.9,1.1-1.9,2.3
			c0,0.5,0.2,1.1,0.8,1.1c0.6,0,1.3-0.7,1.5-1.6L607.3,318.3z"/>
		<path class="st12" d="M612.3,321.7c-0.3,0.2-0.9,0.3-1.4,0.3c-1.2,0-1.7-0.8-1.7-1.7c0-1.3,1-2.8,2.4-2.8c0.8,0,1.3,0.5,1.3,1.1
			c0,1.1-1.3,1.4-2.9,1.4c0,0.2,0,0.6,0.1,0.8c0.2,0.4,0.5,0.6,1,0.6c0.5,0,0.9-0.2,1.2-0.3L612.3,321.7z M611.4,318.1
			c-0.7,0-1.2,0.7-1.4,1.4c1.2,0,2.1-0.1,2.1-0.8C612.1,318.3,611.8,318.1,611.4,318.1z"/>
	</g>
</g>
<g>
	<g>
		<path class="st12" d="M95.4,155.1h3.3v0.7h-2.5v2h2.3v0.6h-2.3v2.7h-0.8V155.1z"/>
		<path class="st12" d="M100,158.2c0-0.5,0-1,0-1.4h0.7l0,0.9h0c0.2-0.6,0.7-1,1.2-1c0.1,0,0.2,0,0.2,0v0.7c-0.1,0-0.2,0-0.3,0
			c-0.6,0-1,0.4-1.1,1c0,0.1,0,0.2,0,0.4v2.3H100V158.2z"/>
		<path class="st12" d="M103.8,159.1c0,1.1,0.7,1.5,1.5,1.5c0.6,0,0.9-0.1,1.2-0.2l0.1,0.6c-0.3,0.1-0.8,0.3-1.4,0.3
			c-1.3,0-2.1-0.9-2.1-2.2s0.8-2.3,2-2.3c1.4,0,1.8,1.3,1.8,2.1c0,0.2,0,0.3,0,0.4H103.8z M106.2,158.5c0-0.5-0.2-1.3-1.1-1.3
			c-0.8,0-1.2,0.7-1.2,1.3H106.2z"/>
		<path class="st12" d="M108.3,160.3c0.2,0.2,0.6,0.3,1,0.3c0.6,0,0.8-0.3,0.8-0.6c0-0.4-0.2-0.6-0.8-0.8c-0.8-0.3-1.2-0.7-1.2-1.2
			c0-0.7,0.6-1.3,1.5-1.3c0.4,0,0.8,0.1,1.1,0.3l-0.2,0.6c-0.2-0.1-0.5-0.3-0.9-0.3c-0.5,0-0.7,0.3-0.7,0.6c0,0.4,0.3,0.5,0.8,0.7
			c0.8,0.3,1.1,0.7,1.1,1.3c0,0.8-0.6,1.3-1.6,1.3c-0.5,0-0.9-0.1-1.2-0.3L108.3,160.3z"/>
		<path class="st12" d="M112.4,154.8h0.8v2.7h0c0.1-0.2,0.3-0.4,0.6-0.6c0.2-0.1,0.5-0.2,0.8-0.2c0.6,0,1.5,0.4,1.5,1.9v2.6h-0.8
			v-2.5c0-0.7-0.3-1.3-1-1.3c-0.5,0-0.9,0.4-1.1,0.8c0,0.1-0.1,0.2-0.1,0.4v2.6h-0.8V154.8z"/>
	</g>
</g>
<g>
	<g>
		<path class="st12" d="M367.5,77.9c-0.4,0.1-1,0.3-1.9,0.3c-0.9,0-1.7-0.2-2.3-0.8c-0.5-0.5-0.8-1.3-0.8-2.3c0-1.8,1.3-3.1,3.3-3.1
			c0.7,0,1.3,0.2,1.5,0.3l-0.2,0.6c-0.3-0.1-0.7-0.3-1.3-0.3c-1.5,0-2.4,0.9-2.4,2.4c0,1.5,0.9,2.4,2.3,2.4c0.5,0,0.9-0.1,1-0.2
			v-1.8h-1.2V75h2V77.9z"/>
		<path class="st12" d="M369.7,76.1c0,1.1,0.7,1.5,1.5,1.5c0.6,0,0.9-0.1,1.2-0.2l0.1,0.6c-0.3,0.1-0.8,0.3-1.4,0.3
			c-1.3,0-2.1-0.9-2.1-2.2s0.8-2.3,2-2.3c1.4,0,1.8,1.3,1.8,2.1c0,0.2,0,0.3,0,0.4H369.7z M372,75.6c0-0.5-0.2-1.3-1.1-1.3
			c-0.8,0-1.2,0.7-1.2,1.3H372z"/>
		<path class="st12" d="M374.3,75c0-0.5,0-0.8,0-1.2h0.7l0,0.7h0c0.2-0.4,0.7-0.8,1.4-0.8c0.6,0,1.5,0.4,1.5,1.9v2.6h-0.8v-2.5
			c0-0.7-0.3-1.3-1-1.3c-0.5,0-0.9,0.4-1.1,0.8c0,0.1-0.1,0.2-0.1,0.4v2.6h-0.8V75z"/>
		<path class="st12" d="M380.2,76.1c0,1.1,0.7,1.5,1.5,1.5c0.6,0,0.9-0.1,1.2-0.2l0.1,0.6c-0.3,0.1-0.8,0.3-1.4,0.3
			c-1.3,0-2.1-0.9-2.1-2.2s0.8-2.3,2-2.3c1.4,0,1.8,1.3,1.8,2.1c0,0.2,0,0.3,0,0.4H380.2z M382.5,75.6c0-0.5-0.2-1.3-1.1-1.3
			c-0.8,0-1.2,0.7-1.2,1.3H382.5z"/>
		<path class="st12" d="M384.8,75.2c0-0.5,0-1,0-1.4h0.7l0,0.9h0c0.2-0.6,0.7-1,1.2-1c0.1,0,0.2,0,0.2,0v0.7c-0.1,0-0.2,0-0.3,0
			c-0.6,0-1,0.4-1.1,1c0,0.1,0,0.2,0,0.4v2.3h-0.8V75.2z"/>
		<path class="st12" d="M390.7,78.2l-0.1-0.5h0c-0.2,0.3-0.7,0.6-1.3,0.6c-0.9,0-1.3-0.6-1.3-1.3c0-1.1,0.9-1.6,2.6-1.6v-0.1
			c0-0.4-0.1-1-1-1c-0.4,0-0.8,0.1-1.1,0.3l-0.2-0.5c0.4-0.2,0.9-0.4,1.4-0.4c1.3,0,1.7,0.9,1.7,1.8v1.6c0,0.4,0,0.7,0.1,1H390.7z
			 M390.5,75.9c-0.9,0-1.8,0.1-1.8,1c0,0.5,0.3,0.8,0.7,0.8c0.6,0,0.9-0.4,1.1-0.7c0-0.1,0-0.2,0-0.3V75.9z"/>
		<path class="st12" d="M393.1,71.8h0.8v6.4h-0.8V71.8z"/>
		<path class="st12" d="M398,75c0-0.5,0-0.8,0-1.2h0.7l0,0.7h0c0.2-0.4,0.6-0.8,1.4-0.8c0.6,0,1,0.4,1.2,0.9h0
			c0.1-0.2,0.3-0.4,0.5-0.6c0.3-0.2,0.5-0.3,1-0.3c0.6,0,1.4,0.4,1.4,1.9v2.6h-0.8v-2.5c0-0.8-0.3-1.3-0.9-1.3
			c-0.5,0-0.8,0.3-0.9,0.7c0,0.1-0.1,0.3-0.1,0.4v2.7h-0.8v-2.6c0-0.7-0.3-1.2-0.9-1.2c-0.5,0-0.9,0.4-1,0.8c0,0.1-0.1,0.3-0.1,0.4
			v2.6H398V75z"/>
		<path class="st12" d="M406.5,76.1c0,1.1,0.7,1.5,1.5,1.5c0.6,0,0.9-0.1,1.2-0.2l0.1,0.6c-0.3,0.1-0.8,0.3-1.4,0.3
			c-1.3,0-2.1-0.9-2.1-2.2s0.8-2.3,2-2.3c1.4,0,1.8,1.3,1.8,2.1c0,0.2,0,0.3,0,0.4H406.5z M408.8,75.6c0-0.5-0.2-1.3-1.1-1.3
			c-0.8,0-1.2,0.7-1.2,1.3H408.8z"/>
		<path class="st12" d="M411,75.2c0-0.5,0-1,0-1.4h0.7l0,0.9h0c0.2-0.6,0.7-1,1.2-1c0.1,0,0.2,0,0.2,0v0.7c-0.1,0-0.2,0-0.3,0
			c-0.6,0-1,0.4-1.1,1c0,0.1,0,0.2,0,0.4v2.3H411V75.2z"/>
		<path class="st12" d="M417.5,78c-0.2,0.1-0.7,0.3-1.3,0.3c-1.3,0-2.2-0.9-2.2-2.2c0-1.3,0.9-2.3,2.3-2.3c0.5,0,0.9,0.1,1.1,0.2
			l-0.2,0.6c-0.2-0.1-0.5-0.2-0.9-0.2c-1,0-1.5,0.7-1.5,1.6c0,1,0.6,1.6,1.5,1.6c0.5,0,0.7-0.1,1-0.2L417.5,78z"/>
		<path class="st12" d="M418.9,71.8h0.8v2.7h0c0.1-0.2,0.3-0.4,0.6-0.6c0.2-0.1,0.5-0.2,0.8-0.2c0.6,0,1.5,0.4,1.5,1.9v2.6h-0.8
			v-2.5c0-0.7-0.3-1.3-1-1.3c-0.5,0-0.9,0.4-1.1,0.8c0,0.1-0.1,0.2-0.1,0.4v2.6h-0.8V71.8z"/>
		<path class="st12" d="M426.8,78.2l-0.1-0.5h0c-0.2,0.3-0.7,0.6-1.3,0.6c-0.9,0-1.3-0.6-1.3-1.3c0-1.1,0.9-1.6,2.6-1.6v-0.1
			c0-0.4-0.1-1-1-1c-0.4,0-0.8,0.1-1.1,0.3l-0.2-0.5c0.4-0.2,0.9-0.4,1.4-0.4c1.3,0,1.7,0.9,1.7,1.8v1.6c0,0.4,0,0.7,0.1,1H426.8z
			 M426.6,75.9c-0.9,0-1.8,0.1-1.8,1c0,0.5,0.3,0.8,0.7,0.8c0.6,0,0.9-0.4,1.1-0.7c0-0.1,0-0.2,0-0.3V75.9z"/>
		<path class="st12" d="M429.2,75c0-0.5,0-0.8,0-1.2h0.7l0,0.7h0c0.2-0.4,0.7-0.8,1.4-0.8c0.6,0,1.5,0.4,1.5,1.9v2.6h-0.8v-2.5
			c0-0.7-0.3-1.3-1-1.3c-0.5,0-0.9,0.4-1.1,0.8c0,0.1-0.1,0.2-0.1,0.4v2.6h-0.8V75z"/>
		<path class="st12" d="M438.4,71.8V77c0,0.4,0,0.8,0,1.1h-0.7l0-0.8h0c-0.2,0.5-0.8,0.9-1.5,0.9c-1.1,0-1.9-0.9-1.9-2.2
			c0-1.4,0.9-2.3,2-2.3c0.7,0,1.1,0.3,1.3,0.7h0v-2.6H438.4z M437.6,75.6c0-0.1,0-0.2,0-0.3c-0.1-0.5-0.5-0.9-1.1-0.9
			c-0.8,0-1.3,0.7-1.3,1.7c0,0.9,0.4,1.6,1.3,1.6c0.5,0,1-0.4,1.2-0.9c0-0.1,0-0.2,0-0.3V75.6z"/>
		<path class="st12" d="M441.1,72.6c0,0.3-0.2,0.5-0.5,0.5c-0.3,0-0.5-0.2-0.5-0.5c0-0.3,0.2-0.5,0.5-0.5
			C440.9,72.1,441.1,72.3,441.1,72.6z M440.2,78.2v-4.4h0.8v4.4H440.2z"/>
		<path class="st12" d="M442.6,77.4c0.2,0.2,0.6,0.3,1,0.3c0.6,0,0.8-0.3,0.8-0.6c0-0.4-0.2-0.6-0.8-0.8c-0.8-0.3-1.2-0.7-1.2-1.2
			c0-0.7,0.6-1.3,1.5-1.3c0.4,0,0.8,0.1,1.1,0.3l-0.2,0.6c-0.2-0.1-0.5-0.3-0.9-0.3c-0.5,0-0.7,0.3-0.7,0.6c0,0.4,0.3,0.5,0.8,0.7
			c0.8,0.3,1.1,0.7,1.1,1.3c0,0.8-0.6,1.3-1.6,1.3c-0.5,0-0.9-0.1-1.2-0.3L442.6,77.4z"/>
		<path class="st12" d="M447.3,76.1c0,1.1,0.7,1.5,1.5,1.5c0.6,0,0.9-0.1,1.2-0.2l0.1,0.6c-0.3,0.1-0.8,0.3-1.4,0.3
			c-1.3,0-2.1-0.9-2.1-2.2s0.8-2.3,2-2.3c1.4,0,1.8,1.3,1.8,2.1c0,0.2,0,0.3,0,0.4H447.3z M449.6,75.6c0-0.5-0.2-1.3-1.1-1.3
			c-0.8,0-1.2,0.7-1.2,1.3H449.6z"/>
	</g>
</g>
<g>
	<g>
		<path class="st12" d="M316.4,160.9c-0.4,0.1-1,0.3-1.9,0.3c-0.9,0-1.7-0.2-2.3-0.8c-0.5-0.5-0.8-1.3-0.8-2.3
			c0-1.8,1.3-3.1,3.3-3.1c0.7,0,1.3,0.2,1.5,0.3l-0.2,0.6c-0.3-0.1-0.7-0.3-1.3-0.3c-1.5,0-2.4,0.9-2.4,2.4c0,1.5,0.9,2.4,2.3,2.4
			c0.5,0,0.9-0.1,1-0.2v-1.8h-1.2V158h2V160.9z"/>
		<path class="st12" d="M318.1,158.2c0-0.5,0-1,0-1.4h0.7l0,0.9h0c0.2-0.6,0.7-1,1.2-1c0.1,0,0.2,0,0.2,0v0.7c-0.1,0-0.2,0-0.3,0
			c-0.6,0-1,0.4-1.1,1c0,0.1,0,0.2,0,0.4v2.3h-0.8V158.2z"/>
		<path class="st12" d="M325.4,158.9c0,1.6-1.1,2.3-2.2,2.3c-1.2,0-2.1-0.9-2.1-2.2c0-1.5,1-2.3,2.2-2.3
			C324.6,156.7,325.4,157.6,325.4,158.9z M322,159c0,1,0.5,1.7,1.3,1.7c0.8,0,1.3-0.7,1.3-1.7c0-0.7-0.4-1.7-1.3-1.7
			C322.4,157.3,322,158.2,322,159z"/>
		<path class="st12" d="M330.1,161c-0.2,0.1-0.7,0.3-1.3,0.3c-1.3,0-2.2-0.9-2.2-2.2c0-1.3,0.9-2.3,2.3-2.3c0.5,0,0.9,0.1,1.1,0.2
			l-0.2,0.6c-0.2-0.1-0.5-0.2-0.9-0.2c-1,0-1.5,0.7-1.5,1.6c0,1,0.6,1.6,1.5,1.6c0.5,0,0.7-0.1,1-0.2L330.1,161z"/>
		<path class="st12" d="M331.9,159.1c0,1.1,0.7,1.5,1.5,1.5c0.6,0,0.9-0.1,1.2-0.2l0.1,0.6c-0.3,0.1-0.8,0.3-1.4,0.3
			c-1.3,0-2.1-0.9-2.1-2.2s0.8-2.3,2-2.3c1.4,0,1.8,1.3,1.8,2.1c0,0.2,0,0.3,0,0.4H331.9z M334.2,158.5c0-0.5-0.2-1.3-1.1-1.3
			c-0.8,0-1.2,0.7-1.2,1.3H334.2z"/>
		<path class="st12" d="M336.4,158.2c0-0.5,0-1,0-1.4h0.7l0,0.9h0c0.2-0.6,0.7-1,1.2-1c0.1,0,0.2,0,0.2,0v0.7c-0.1,0-0.2,0-0.3,0
			c-0.6,0-1,0.4-1.1,1c0,0.1,0,0.2,0,0.4v2.3h-0.8V158.2z"/>
		<path class="st12" d="M340.8,155.6c0,0.3-0.2,0.5-0.5,0.5c-0.3,0-0.5-0.2-0.5-0.5c0-0.3,0.2-0.5,0.5-0.5
			C340.6,155.1,340.8,155.3,340.8,155.6z M339.9,161.1v-4.4h0.8v4.4H339.9z"/>
		<path class="st12" d="M342.9,159.1c0,1.1,0.7,1.5,1.5,1.5c0.6,0,0.9-0.1,1.2-0.2l0.1,0.6c-0.3,0.1-0.8,0.3-1.4,0.3
			c-1.3,0-2.1-0.9-2.1-2.2s0.8-2.3,2-2.3c1.4,0,1.8,1.3,1.8,2.1c0,0.2,0,0.3,0,0.4H342.9z M345.2,158.5c0-0.5-0.2-1.3-1.1-1.3
			c-0.8,0-1.2,0.7-1.2,1.3H345.2z"/>
		<path class="st12" d="M347.4,160.3c0.2,0.2,0.6,0.3,1,0.3c0.6,0,0.8-0.3,0.8-0.6c0-0.4-0.2-0.6-0.8-0.8c-0.8-0.3-1.2-0.7-1.2-1.2
			c0-0.7,0.6-1.3,1.5-1.3c0.4,0,0.8,0.1,1.1,0.3l-0.2,0.6c-0.2-0.1-0.5-0.3-0.9-0.3c-0.5,0-0.7,0.3-0.7,0.6c0,0.4,0.3,0.5,0.8,0.7
			c0.8,0.3,1.1,0.7,1.1,1.3c0,0.8-0.6,1.3-1.6,1.3c-0.5,0-0.9-0.1-1.2-0.3L347.4,160.3z"/>
	</g>
</g>
<rect x="201.8" y="303.4" class="st4" width="258.2" height="58.5"/>
<g>
	<g>
		<path class="st12" d="M318.3,267.2c-0.3,0.1-0.9,0.3-1.6,0.3c-1.7,0-3-1.1-3-3.1c0-1.9,1.3-3.2,3.2-3.2c0.8,0,1.2,0.2,1.4,0.3
			l-0.2,0.6c-0.3-0.1-0.7-0.3-1.2-0.3c-1.4,0-2.4,0.9-2.4,2.5c0,1.5,0.9,2.4,2.3,2.4c0.5,0,1-0.1,1.3-0.3L318.3,267.2z"/>
		<path class="st12" d="M322.2,267.4l-0.1-0.5h0c-0.2,0.3-0.7,0.6-1.3,0.6c-0.9,0-1.3-0.6-1.3-1.3c0-1.1,0.9-1.6,2.6-1.6v-0.1
			c0-0.4-0.1-1-1-1c-0.4,0-0.8,0.1-1.1,0.3l-0.2-0.5c0.4-0.2,0.9-0.4,1.4-0.4c1.3,0,1.7,0.9,1.7,1.8v1.6c0,0.4,0,0.7,0.1,1H322.2z
			 M322.1,265.2c-0.9,0-1.8,0.1-1.8,1c0,0.5,0.3,0.8,0.7,0.8c0.6,0,0.9-0.4,1.1-0.7c0-0.1,0-0.2,0-0.3V265.2z"/>
		<path class="st12" d="M324.5,266.6c0.2,0.2,0.6,0.3,1,0.3c0.6,0,0.8-0.3,0.8-0.6c0-0.4-0.2-0.6-0.8-0.8c-0.8-0.3-1.2-0.7-1.2-1.2
			c0-0.7,0.6-1.3,1.5-1.3c0.4,0,0.8,0.1,1.1,0.3l-0.2,0.6c-0.2-0.1-0.5-0.3-0.9-0.3c-0.5,0-0.7,0.3-0.7,0.6c0,0.4,0.3,0.5,0.8,0.7
			c0.8,0.3,1.1,0.7,1.1,1.3c0,0.8-0.6,1.3-1.6,1.3c-0.5,0-0.9-0.1-1.2-0.3L324.5,266.6z"/>
		<path class="st12" d="M328.6,261h0.8v2.7h0c0.1-0.2,0.3-0.4,0.6-0.6c0.2-0.1,0.5-0.2,0.8-0.2c0.6,0,1.5,0.4,1.5,1.9v2.6h-0.8v-2.5
			c0-0.7-0.3-1.3-1-1.3c-0.5,0-0.9,0.4-1.1,0.8c0,0.1-0.1,0.2-0.1,0.4v2.6h-0.8V261z"/>
		<path class="st12" d="M334.9,261.8c0,0.3-0.2,0.5-0.5,0.5c-0.3,0-0.5-0.2-0.5-0.5c0-0.3,0.2-0.5,0.5-0.5
			C334.7,261.3,334.9,261.6,334.9,261.8z M334.1,267.4v-4.4h0.8v4.4H334.1z"/>
		<path class="st12" d="M337.1,265.4c0,1.1,0.7,1.5,1.5,1.5c0.6,0,0.9-0.1,1.2-0.2l0.1,0.6c-0.3,0.1-0.8,0.3-1.4,0.3
			c-1.3,0-2.1-0.9-2.1-2.2s0.8-2.3,2-2.3c1.4,0,1.8,1.3,1.8,2.1c0,0.2,0,0.3,0,0.4H337.1z M339.4,264.8c0-0.5-0.2-1.3-1.1-1.3
			c-0.8,0-1.2,0.7-1.2,1.3H339.4z"/>
		<path class="st12" d="M341.7,264.4c0-0.5,0-1,0-1.4h0.7l0,0.9h0c0.2-0.6,0.7-1,1.2-1c0.1,0,0.2,0,0.2,0v0.7c-0.1,0-0.2,0-0.3,0
			c-0.6,0-1,0.4-1.1,1c0,0.1,0,0.2,0,0.4v2.3h-0.8V264.4z"/>
		<path class="st12" d="M345.1,266.6c0.2,0.2,0.6,0.3,1,0.3c0.6,0,0.8-0.3,0.8-0.6c0-0.4-0.2-0.6-0.8-0.8c-0.8-0.3-1.2-0.7-1.2-1.2
			c0-0.7,0.6-1.3,1.5-1.3c0.4,0,0.8,0.1,1.1,0.3l-0.2,0.6c-0.2-0.1-0.5-0.3-0.9-0.3c-0.5,0-0.7,0.3-0.7,0.6c0,0.4,0.3,0.5,0.8,0.7
			c0.8,0.3,1.1,0.7,1.1,1.3c0,0.8-0.6,1.3-1.6,1.3c-0.5,0-0.9-0.1-1.2-0.3L345.1,266.6z"/>
	</g>
</g>
<g>
	<g>
		<path class="st12" d="M147.4,261.4c0.5-0.1,1-0.1,1.7-0.1c1.1,0,1.9,0.3,2.5,0.8c0.5,0.5,0.9,1.2,0.9,2.2c0,1-0.3,1.8-0.9,2.4
			c-0.6,0.6-1.5,0.9-2.7,0.9c-0.6,0-1,0-1.4-0.1V261.4z M148.2,266.8c0.2,0,0.5,0,0.8,0c1.7,0,2.6-0.9,2.6-2.6
			c0-1.4-0.8-2.3-2.5-2.3c-0.4,0-0.7,0-0.9,0.1V266.8z"/>
		<path class="st12" d="M154.4,265.4c0,1.1,0.7,1.5,1.5,1.5c0.6,0,0.9-0.1,1.2-0.2l0.1,0.6c-0.3,0.1-0.8,0.3-1.4,0.3
			c-1.3,0-2.1-0.9-2.1-2.2s0.8-2.3,2-2.3c1.4,0,1.8,1.3,1.8,2.1c0,0.2,0,0.3,0,0.4H154.4z M156.7,264.8c0-0.5-0.2-1.3-1.1-1.3
			c-0.8,0-1.2,0.7-1.2,1.3H156.7z"/>
		<path class="st12" d="M159,261h0.8v6.4H159V261z"/>
		<path class="st12" d="M162.5,261.8c0,0.3-0.2,0.5-0.5,0.5c-0.3,0-0.5-0.2-0.5-0.5c0-0.3,0.2-0.5,0.5-0.5
			C162.3,261.3,162.5,261.6,162.5,261.8z M161.6,267.4v-4.4h0.8v4.4H161.6z"/>
	</g>
</g>
<g>
	<g>
		<path class="st1" d="M248.4,24.5v2.6h2.5v-2.6h1.5v6.7h-1.5v-2.8h-2.5v2.8h-1.5v-6.7H248.4z"/>
		<path class="st1" d="M258.8,28.7c0,1.8-1.3,2.6-2.6,2.6c-1.4,0-2.5-0.9-2.5-2.5s1-2.6,2.6-2.6C257.8,26.2,258.8,27.3,258.8,28.7z
			 M255.3,28.8c0,0.8,0.3,1.5,1,1.5c0.6,0,1-0.6,1-1.5c0-0.7-0.3-1.5-1-1.5C255.6,27.3,255.3,28.1,255.3,28.8z"/>
		<path class="st1" d="M260.1,27.9c0-0.6,0-1.1,0-1.6h1.3l0.1,0.7h0c0.2-0.3,0.6-0.8,1.5-0.8c0.6,0,1.1,0.3,1.3,0.8h0
			c0.2-0.2,0.4-0.4,0.6-0.6c0.3-0.2,0.6-0.2,0.9-0.2c0.9,0,1.6,0.7,1.6,2.1v2.9H266v-2.7c0-0.7-0.2-1.1-0.7-1.1
			c-0.4,0-0.6,0.2-0.7,0.5c0,0.1-0.1,0.3-0.1,0.4v2.9H263v-2.7c0-0.6-0.2-1-0.7-1c-0.4,0-0.6,0.3-0.7,0.5c0,0.1-0.1,0.3-0.1,0.4v2.8
			h-1.5V27.9z"/>
		<path class="st1" d="M270.2,29.3c0.1,0.6,0.7,0.9,1.4,0.9c0.5,0,0.9-0.1,1.3-0.2l0.2,1c-0.5,0.2-1.1,0.3-1.8,0.3
			c-1.7,0-2.6-1-2.6-2.5c0-1.2,0.8-2.6,2.5-2.6c1.6,0,2.2,1.2,2.2,2.4c0,0.3,0,0.5,0,0.6H270.2z M272,28.2c0-0.4-0.2-1-0.9-1
			c-0.6,0-0.9,0.6-0.9,1H272z"/>
		<path class="st1" d="M281.5,24.1v5.6c0,0.5,0,1.1,0,1.5h-1.3l-0.1-0.7h0c-0.3,0.5-0.9,0.8-1.5,0.8c-1.2,0-2.1-1-2.1-2.5
			c0-1.6,1-2.6,2.2-2.6c0.6,0,1.1,0.2,1.3,0.5h0v-2.6H281.5z M280,28.4c0-0.1,0-0.2,0-0.3c-0.1-0.4-0.4-0.7-0.9-0.7
			c-0.7,0-1,0.6-1,1.4c0,0.8,0.4,1.3,1,1.3c0.4,0,0.8-0.3,0.9-0.7c0-0.1,0-0.2,0-0.4V28.4z"/>
		<path class="st1" d="M284.2,29.3c0,0.6,0.7,0.9,1.4,0.9c0.5,0,0.9-0.1,1.3-0.2l0.2,1c-0.5,0.2-1.1,0.3-1.8,0.3
			c-1.7,0-2.6-1-2.6-2.5c0-1.2,0.8-2.6,2.5-2.6c1.6,0,2.2,1.2,2.2,2.4c0,0.3,0,0.5,0,0.6H284.2z M286,28.2c0-0.4-0.2-1-0.9-1
			c-0.6,0-0.9,0.6-0.9,1H286z"/>
		<path class="st1" d="M288.7,24.1h1.5v7.1h-1.5V24.1z"/>
		<path class="st1" d="M293.3,25c0,0.4-0.3,0.8-0.8,0.8c-0.5,0-0.8-0.3-0.8-0.8c0-0.4,0.3-0.8,0.8-0.8C293,24.2,293.3,24.5,293.3,25
			z M291.8,31.2v-4.9h1.5v4.9H291.8z"/>
		<path class="st1" d="M295.9,26.3l0.7,2.3c0.1,0.4,0.2,0.8,0.3,1.2h0c0.1-0.4,0.2-0.8,0.3-1.2l0.6-2.3h1.6l-1.8,4.9h-1.5l-1.8-4.9
			H295.9z"/>
		<path class="st1" d="M301.4,29.3c0.1,0.6,0.7,0.9,1.4,0.9c0.5,0,0.9-0.1,1.3-0.2l0.2,1c-0.5,0.2-1.1,0.3-1.8,0.3
			c-1.7,0-2.6-1-2.6-2.5c0-1.2,0.8-2.6,2.5-2.6c1.6,0,2.2,1.2,2.2,2.4c0,0.3,0,0.5,0,0.6H301.4z M303.2,28.2c0-0.4-0.2-1-0.9-1
			c-0.6,0-0.9,0.6-0.9,1H303.2z"/>
		<path class="st1" d="M305.9,27.9c0-0.7,0-1.2,0-1.6h1.3l0,0.9h0c0.2-0.7,0.8-1,1.3-1c0.1,0,0.2,0,0.3,0v1.4c-0.1,0-0.2,0-0.4,0
			c-0.6,0-0.9,0.3-1,0.8c0,0.1,0,0.2,0,0.3v2.5h-1.5V27.9z"/>
		<path class="st1" d="M311.3,26.3l0.7,2.4c0.1,0.3,0.2,0.6,0.2,0.9h0c0.1-0.3,0.1-0.6,0.2-0.9l0.6-2.4h1.6l-1.1,3.2
			c-0.7,1.9-1.2,2.7-1.7,3.2c-0.5,0.5-1.1,0.6-1.5,0.7l-0.3-1.3c0.2,0,0.4-0.1,0.7-0.3c0.2-0.1,0.5-0.4,0.6-0.6
			c0.1-0.1,0.1-0.1,0.1-0.2c0-0.1,0-0.1-0.1-0.2l-1.8-4.5H311.3z"/>
		<path class="st1" d="M322.8,28.7c0,1.8-1.3,2.6-2.6,2.6c-1.4,0-2.5-0.9-2.5-2.5s1-2.6,2.6-2.6C321.8,26.2,322.8,27.3,322.8,28.7z
			 M319.2,28.8c0,0.8,0.3,1.5,1,1.5c0.6,0,1-0.6,1-1.5c0-0.7-0.3-1.5-1-1.5C319.5,27.3,319.2,28.1,319.2,28.8z"/>
		<path class="st1" d="M324,28c0-0.6,0-1.2,0-1.6h1.3l0.1,0.7h0c0.4-0.5,0.9-0.8,1.6-0.8c1.1,0,2,0.9,2,2.5c0,1.8-1.1,2.6-2.2,2.6
			c-0.6,0-1-0.2-1.3-0.6h0v2.4H324V28z M325.5,29.1c0,0.1,0,0.2,0,0.3c0.1,0.4,0.4,0.7,0.9,0.7c0.7,0,1-0.5,1-1.4
			c0-0.8-0.3-1.4-1-1.4c-0.4,0-0.8,0.3-0.9,0.8c0,0.1,0,0.2,0,0.3V29.1z"/>
		<path class="st1" d="M331.5,29.3c0.1,0.6,0.7,0.9,1.4,0.9c0.5,0,0.9-0.1,1.3-0.2l0.2,1c-0.5,0.2-1.1,0.3-1.8,0.3
			c-1.7,0-2.6-1-2.6-2.5c0-1.2,0.8-2.6,2.5-2.6c1.6,0,2.2,1.2,2.2,2.4c0,0.3,0,0.5,0,0.6H331.5z M333.3,28.2c0-0.4-0.2-1-0.9-1
			c-0.6,0-0.9,0.6-0.9,1H333.3z"/>
		<path class="st1" d="M336,27.9c0-0.7,0-1.2,0-1.6h1.3l0,0.9h0c0.2-0.7,0.8-1,1.3-1c0.1,0,0.2,0,0.3,0v1.4c-0.1,0-0.2,0-0.4,0
			c-0.6,0-0.9,0.3-1,0.8c0,0.1,0,0.2,0,0.3v2.5H336V27.9z"/>
		<path class="st1" d="M342.8,31.2l-0.1-0.5h0c-0.3,0.4-0.8,0.6-1.4,0.6c-1,0-1.6-0.7-1.6-1.5c0-1.3,1.1-1.9,2.9-1.9v-0.1
			c0-0.3-0.1-0.6-0.9-0.6c-0.5,0-1,0.2-1.3,0.4l-0.3-1c0.3-0.2,1-0.4,1.9-0.4c1.6,0,2.1,1,2.1,2.1V30c0,0.5,0,0.9,0.1,1.2H342.8z
			 M342.6,28.9c-0.8,0-1.4,0.2-1.4,0.8c0,0.4,0.3,0.6,0.6,0.6c0.4,0,0.7-0.2,0.8-0.6c0-0.1,0-0.2,0-0.3V28.9z"/>
		<path class="st1" d="M347.3,24.9v1.4h1.1v1.1h-1.1v1.8c0,0.6,0.1,0.9,0.6,0.9c0.2,0,0.3,0,0.4,0l0,1.1c-0.2,0.1-0.6,0.1-1,0.1
			c-0.5,0-0.9-0.2-1.1-0.4c-0.3-0.3-0.4-0.8-0.4-1.4v-2h-0.6v-1.1h0.6v-1.1L347.3,24.9z"/>
		<path class="st1" d="M351.2,25c0,0.4-0.3,0.8-0.8,0.8c-0.5,0-0.8-0.3-0.8-0.8c0-0.4,0.3-0.8,0.8-0.8
			C350.9,24.2,351.2,24.5,351.2,25z M349.6,31.2v-4.9h1.5v4.9H349.6z"/>
		<path class="st1" d="M357.5,28.7c0,1.8-1.3,2.6-2.6,2.6c-1.4,0-2.5-0.9-2.5-2.5s1-2.6,2.6-2.6C356.5,26.2,357.5,27.3,357.5,28.7z
			 M353.9,28.8c0,0.8,0.3,1.5,1,1.5c0.6,0,1-0.6,1-1.5c0-0.7-0.3-1.5-1-1.5C354.2,27.3,353.9,28.1,353.9,28.8z"/>
		<path class="st1" d="M358.7,27.9c0-0.6,0-1.1,0-1.6h1.3l0.1,0.7h0c0.2-0.3,0.7-0.8,1.5-0.8c1,0,1.7,0.7,1.7,2.1v2.9h-1.5v-2.7
			c0-0.6-0.2-1.1-0.8-1.1c-0.4,0-0.7,0.3-0.8,0.6c0,0.1-0.1,0.2-0.1,0.4v2.8h-1.5V27.9z"/>
	</g>
</g>
<g>
	<path class="st1" d="M277.6,353.9c0,2.2-1.3,3.5-3.3,3.5c-2,0-3.2-1.5-3.2-3.4c0-2,1.3-3.5,3.3-3.5
		C276.5,350.4,277.6,352,277.6,353.9z M272.8,353.9c0,1.3,0.6,2.2,1.6,2.2c1,0,1.6-1,1.6-2.3c0-1.2-0.6-2.2-1.6-2.2
		C273.4,351.7,272.8,352.6,272.8,353.9z"/>
	<path class="st1" d="M278.9,354c0-0.6,0-1.1,0-1.6h1.3l0.1,0.7h0c0.2-0.3,0.6-0.8,1.5-0.8c0.6,0,1.1,0.3,1.3,0.8h0
		c0.2-0.2,0.4-0.5,0.6-0.6c0.3-0.2,0.6-0.2,0.9-0.2c0.9,0,1.6,0.7,1.6,2.1v2.9h-1.5v-2.7c0-0.7-0.2-1.1-0.7-1.1
		c-0.3,0-0.6,0.2-0.7,0.5c0,0.1-0.1,0.3-0.1,0.4v2.9h-1.5v-2.7c0-0.6-0.2-1-0.7-1c-0.4,0-0.6,0.3-0.7,0.5c-0.1,0.1-0.1,0.3-0.1,0.4
		v2.8h-1.5V354z"/>
	<path class="st1" d="M287.8,354c0-0.6,0-1.1,0-1.6h1.3l0.1,0.7h0c0.2-0.3,0.7-0.8,1.5-0.8c1,0,1.7,0.7,1.7,2.1v2.9H291v-2.7
		c0-0.6-0.2-1.1-0.8-1.1c-0.4,0-0.7,0.3-0.8,0.6c0,0.1-0.1,0.2-0.1,0.4v2.8h-1.5V354z"/>
	<path class="st1" d="M295.6,351c0,0.4-0.3,0.8-0.8,0.8c-0.5,0-0.8-0.3-0.8-0.8c0-0.4,0.3-0.8,0.8-0.8
		C295.2,350.3,295.6,350.6,295.6,351z M294,357.3v-4.9h1.5v4.9H294z"/>
	<path class="st1" d="M300.7,357.2c-0.3,0.1-0.8,0.2-1.4,0.2c-1.6,0-2.6-1-2.6-2.5c0-1.4,1-2.6,2.8-2.6c0.4,0,0.8,0.1,1.2,0.2
		l-0.2,1.1c-0.2-0.1-0.5-0.1-0.8-0.1c-0.8,0-1.3,0.6-1.3,1.4c0,0.9,0.6,1.4,1.3,1.4c0.4,0,0.6-0.1,0.9-0.1L300.7,357.2z"/>
	<path class="st1" d="M301.9,350.2h1.5v2.8h0c0.2-0.2,0.4-0.4,0.6-0.5c0.2-0.1,0.5-0.2,0.8-0.2c1,0,1.7,0.7,1.7,2.1v2.9H305v-2.7
		c0-0.6-0.2-1.1-0.8-1.1c-0.4,0-0.7,0.3-0.8,0.5c0,0.1,0,0.2,0,0.3v2.9h-1.5V350.2z"/>
	<path class="st1" d="M310.8,357.3l-0.1-0.5h0c-0.3,0.4-0.8,0.6-1.4,0.6c-1,0-1.6-0.7-1.6-1.5c0-1.3,1.1-1.9,2.9-1.9V354
		c0-0.3-0.1-0.6-0.9-0.6c-0.5,0-1,0.2-1.3,0.4l-0.3-1c0.3-0.2,1-0.4,1.9-0.4c1.6,0,2.1,1,2.1,2.1v1.7c0,0.5,0,0.9,0.1,1.2H310.8z
		 M310.6,355c-0.8,0-1.4,0.2-1.4,0.8c0,0.4,0.3,0.6,0.6,0.6c0.4,0,0.7-0.2,0.8-0.6c0-0.1,0-0.2,0-0.3V355z"/>
	<path class="st1" d="M313.6,354c0-0.6,0-1.1,0-1.6h1.3l0.1,0.7h0c0.2-0.3,0.7-0.8,1.5-0.8c1,0,1.7,0.7,1.7,2.1v2.9h-1.5v-2.7
		c0-0.6-0.2-1.1-0.8-1.1c-0.4,0-0.7,0.3-0.8,0.6c0,0.1-0.1,0.2-0.1,0.4v2.8h-1.5V354z"/>
	<path class="st1" d="M319.8,354c0-0.6,0-1.1,0-1.6h1.3l0.1,0.7h0c0.2-0.3,0.7-0.8,1.5-0.8c1,0,1.7,0.7,1.7,2.1v2.9h-1.5v-2.7
		c0-0.6-0.2-1.1-0.8-1.1c-0.4,0-0.7,0.3-0.8,0.6c0,0.1-0.1,0.2-0.1,0.4v2.8h-1.5V354z"/>
	<path class="st1" d="M327.1,355.3c0,0.6,0.7,0.9,1.4,0.9c0.5,0,0.9-0.1,1.3-0.2l0.2,1c-0.5,0.2-1.1,0.3-1.8,0.3
		c-1.7,0-2.6-1-2.6-2.5c0-1.2,0.8-2.6,2.5-2.6c1.6,0,2.2,1.2,2.2,2.4c0,0.3,0,0.5,0,0.6H327.1z M328.9,354.3c0-0.4-0.2-1-0.9-1
		c-0.6,0-0.9,0.6-0.9,1H328.9z"/>
	<path class="st1" d="M331.6,350.2h1.5v7.1h-1.5V350.2z"/>
	<path class="st1" d="M337,357.3v-3.8h-0.6v-1.1h0.6v-0.2c0-0.6,0.2-1.2,0.6-1.6c0.4-0.4,0.9-0.5,1.3-0.5c0.3,0,0.6,0,0.8,0.1
		l-0.1,1.2c-0.1,0-0.3-0.1-0.5-0.1c-0.5,0-0.7,0.4-0.7,0.9v0.2h1v1.1h-1v3.8H337z"/>
	<path class="st1" d="M340.6,354c0-0.7,0-1.2,0-1.6h1.3l0,0.9h0c0.2-0.7,0.8-1,1.3-1c0.1,0,0.2,0,0.3,0v1.4c-0.1,0-0.2,0-0.4,0
		c-0.6,0-0.9,0.3-1,0.8c0,0.1,0,0.2,0,0.3v2.5h-1.5V354z"/>
	<path class="st1" d="M349.5,354.8c0,1.8-1.3,2.6-2.6,2.6c-1.4,0-2.5-0.9-2.5-2.5s1-2.6,2.6-2.6
		C348.5,352.3,349.5,353.3,349.5,354.8z M346,354.8c0,0.8,0.3,1.5,1,1.5c0.6,0,1-0.6,1-1.5c0-0.7-0.3-1.5-1-1.5
		C346.2,353.4,346,354.1,346,354.8z"/>
	<path class="st1" d="M350.8,354c0-0.6,0-1.1,0-1.6h1.3l0.1,0.7h0c0.2-0.3,0.7-0.8,1.5-0.8c1,0,1.7,0.7,1.7,2.1v2.9h-1.5v-2.7
		c0-0.6-0.2-1.1-0.8-1.1c-0.4,0-0.7,0.3-0.8,0.6c0,0.1-0.1,0.2-0.1,0.4v2.8h-1.5V354z"/>
	<path class="st1" d="M358.6,351v1.4h1.1v1.1h-1.1v1.8c0,0.6,0.1,0.9,0.6,0.9c0.2,0,0.3,0,0.5,0l0,1.1c-0.2,0.1-0.6,0.1-1,0.1
		c-0.5,0-0.9-0.2-1.1-0.4c-0.3-0.3-0.4-0.8-0.4-1.4v-2h-0.6v-1.1h0.6v-1.1L358.6,351z"/>
	<path class="st1" d="M363.7,357.3l-0.1-0.5h0c-0.3,0.4-0.8,0.6-1.4,0.6c-1,0-1.6-0.7-1.6-1.5c0-1.3,1.1-1.9,2.9-1.9V354
		c0-0.3-0.1-0.6-0.9-0.6c-0.5,0-1,0.2-1.3,0.4l-0.3-1c0.3-0.2,1-0.4,1.9-0.4c1.6,0,2.1,1,2.1,2.1v1.7c0,0.5,0,0.9,0.1,1.2H363.7z
		 M363.5,355c-0.8,0-1.4,0.2-1.4,0.8c0,0.4,0.3,0.6,0.6,0.6c0.4,0,0.7-0.2,0.8-0.6c0-0.1,0-0.2,0-0.3V355z"/>
	<path class="st1" d="M371.1,352.4c0,0.3,0,0.7,0,1.4v2.7c0,0.9-0.2,1.7-0.7,2.2c-0.5,0.5-1.3,0.6-2,0.6c-0.6,0-1.3-0.1-1.8-0.4
		l0.3-1.1c0.3,0.2,0.8,0.4,1.4,0.4c0.7,0,1.3-0.4,1.3-1.3v-0.3h0c-0.3,0.4-0.8,0.6-1.3,0.6c-1.2,0-2.1-1-2.1-2.4
		c0-1.6,1-2.6,2.2-2.6c0.7,0,1.1,0.3,1.3,0.7h0l0-0.6H371.1z M369.6,354.4c0-0.1,0-0.2,0-0.3c-0.1-0.4-0.4-0.7-0.8-0.7
		c-0.5,0-1,0.5-1,1.4c0,0.7,0.4,1.3,1,1.3c0.4,0,0.7-0.3,0.8-0.6c0-0.1,0-0.3,0-0.4V354.4z"/>
	<path class="st1" d="M373.8,355.3c0.1,0.6,0.7,0.9,1.4,0.9c0.5,0,0.9-0.1,1.3-0.2l0.2,1c-0.5,0.2-1.1,0.3-1.8,0.3
		c-1.7,0-2.6-1-2.6-2.5c0-1.2,0.8-2.6,2.5-2.6c1.6,0,2.2,1.2,2.2,2.4c0,0.3,0,0.5,0,0.6H373.8z M375.6,354.3c0-0.4-0.2-1-0.9-1
		c-0.6,0-0.9,0.6-0.9,1H375.6z"/>
</g>
<g>
	<g>
		<path class="st1" d="M470.1,271.1c0.4,0.2,1,0.4,1.7,0.4c0.7,0,1.1-0.3,1.1-0.7c0-0.4-0.3-0.7-1.1-0.9c-1.1-0.4-1.8-1-1.8-2
			c0-1.1,1-2,2.5-2c0.8,0,1.3,0.2,1.7,0.3l-0.3,1.2c-0.3-0.1-0.7-0.3-1.4-0.3c-0.7,0-1,0.3-1,0.6c0,0.4,0.4,0.6,1.2,0.9
			c1.2,0.4,1.7,1.1,1.7,2c0,1.1-0.9,2.1-2.7,2.1c-0.8,0-1.5-0.2-1.9-0.4L470.1,271.1z"/>
		<path class="st1" d="M476.9,270.7c0.1,0.6,0.7,0.9,1.4,0.9c0.5,0,0.9-0.1,1.3-0.2l0.2,1c-0.5,0.2-1.1,0.3-1.8,0.3
			c-1.7,0-2.6-1-2.6-2.5c0-1.2,0.8-2.6,2.5-2.6c1.6,0,2.2,1.2,2.2,2.4c0,0.3,0,0.5,0,0.6H476.9z M478.7,269.6c0-0.4-0.2-1-0.9-1
			c-0.6,0-0.9,0.6-0.9,1H478.7z"/>
		<path class="st1" d="M481.4,265.5h1.5v7.1h-1.5V265.5z"/>
		<path class="st1" d="M484.7,272.6v-3.8H484v-1.1h0.6v-0.2c0-0.6,0.2-1.2,0.6-1.6c0.4-0.4,0.9-0.5,1.3-0.5c0.3,0,0.6,0,0.8,0.1
			l-0.1,1.2c-0.1,0-0.3-0.1-0.5-0.1c-0.5,0-0.7,0.4-0.7,0.9v0.2h1v1.1h-1v3.8H484.7z"/>
		<path class="st1" d="M490.4,269.5v1h-2.6v-1H490.4z"/>
		<path class="st1" d="M491.7,271.3c0.3,0.2,0.9,0.4,1.3,0.4c0.5,0,0.6-0.2,0.6-0.4s-0.1-0.4-0.7-0.6c-1-0.3-1.4-0.9-1.4-1.5
			c0-0.9,0.8-1.6,2-1.6c0.6,0,1.1,0.1,1.4,0.3l-0.3,1c-0.2-0.1-0.6-0.3-1.1-0.3c-0.4,0-0.6,0.1-0.6,0.4c0,0.2,0.2,0.3,0.8,0.6
			c0.9,0.3,1.3,0.8,1.3,1.5c0,0.9-0.7,1.6-2.1,1.6c-0.6,0-1.2-0.1-1.6-0.3L491.7,271.3z"/>
		<path class="st1" d="M500,272.5c-0.3,0.1-0.8,0.2-1.4,0.2c-1.6,0-2.6-1-2.6-2.5c0-1.4,1-2.6,2.8-2.6c0.4,0,0.8,0.1,1.2,0.2
			l-0.2,1.1c-0.2-0.1-0.5-0.2-0.8-0.2c-0.8,0-1.3,0.6-1.3,1.4c0,0.9,0.6,1.4,1.3,1.4c0.4,0,0.6-0.1,0.9-0.1L500,272.5z"/>
		<path class="st1" d="M503.9,272.6l-0.1-0.5h0c-0.3,0.4-0.8,0.6-1.4,0.6c-1,0-1.6-0.7-1.6-1.5c0-1.3,1.1-1.9,2.9-1.9v-0.1
			c0-0.3-0.1-0.6-0.9-0.6c-0.5,0-1,0.2-1.3,0.4l-0.3-1c0.3-0.2,1-0.4,1.9-0.4c1.6,0,2.1,1,2.1,2.1v1.7c0,0.5,0,0.9,0.1,1.2H503.9z
			 M503.7,270.3c-0.8,0-1.4,0.2-1.4,0.8c0,0.4,0.3,0.6,0.6,0.6c0.4,0,0.7-0.2,0.8-0.6c0-0.1,0-0.2,0-0.3V270.3z"/>
		<path class="st1" d="M506.7,269.3c0-0.6,0-1.1,0-1.6h1.3l0.1,0.7h0c0.2-0.3,0.7-0.8,1.5-0.8c1,0,1.7,0.7,1.7,2.1v2.9h-1.5v-2.7
			c0-0.6-0.2-1.1-0.8-1.1c-0.4,0-0.7,0.3-0.8,0.6c0,0.1-0.1,0.2-0.1,0.4v2.8h-1.5V269.3z"/>
		<path class="st1" d="M470.1,282.7c0.4,0.2,1,0.4,1.7,0.4c0.7,0,1.1-0.3,1.1-0.7c0-0.4-0.3-0.7-1.1-0.9c-1.1-0.4-1.8-1-1.8-2
			c0-1.1,1-2,2.5-2c0.8,0,1.3,0.2,1.7,0.3l-0.3,1.2c-0.3-0.1-0.7-0.3-1.4-0.3c-0.7,0-1,0.3-1,0.6c0,0.4,0.4,0.6,1.2,0.9
			c1.2,0.4,1.7,1.1,1.7,2c0,1.1-0.9,2.1-2.7,2.1c-0.8,0-1.5-0.2-1.9-0.4L470.1,282.7z"/>
		<path class="st1" d="M476.9,282.3c0.1,0.6,0.7,0.9,1.4,0.9c0.5,0,0.9-0.1,1.3-0.2l0.2,1c-0.5,0.2-1.1,0.3-1.8,0.3
			c-1.7,0-2.6-1-2.6-2.5c0-1.2,0.8-2.6,2.5-2.6c1.6,0,2.2,1.2,2.2,2.4c0,0.3,0,0.5,0,0.6H476.9z M478.7,281.3c0-0.4-0.2-1-0.9-1
			c-0.6,0-0.9,0.6-0.9,1H478.7z"/>
		<path class="st1" d="M481.4,277.2h1.5v7.1h-1.5V277.2z"/>
		<path class="st1" d="M484.7,284.3v-3.8H484v-1.1h0.6v-0.2c0-0.6,0.2-1.2,0.6-1.6c0.4-0.4,0.9-0.5,1.3-0.5c0.3,0,0.6,0,0.8,0.1
			l-0.1,1.2c-0.1,0-0.3-0.1-0.5-0.1c-0.5,0-0.7,0.4-0.7,0.9v0.2h1v1.1h-1v3.8H484.7z"/>
		<path class="st1" d="M490.4,281.2v1h-2.6v-1H490.4z"/>
		<path class="st1" d="M495.6,284.2c-0.3,0.1-0.8,0.2-1.4,0.2c-1.6,0-2.6-1-2.6-2.5c0-1.4,1-2.6,2.8-2.6c0.4,0,0.8,0.1,1.2,0.2
			l-0.2,1.1c-0.2-0.1-0.5-0.1-0.8-0.1c-0.8,0-1.3,0.6-1.3,1.4c0,0.9,0.6,1.4,1.3,1.4c0.4,0,0.6-0.1,0.9-0.1L495.6,284.2z"/>
		<path class="st1" d="M496.7,277.2h1.5v2.8h0c0.2-0.2,0.4-0.4,0.6-0.5c0.2-0.1,0.5-0.2,0.8-0.2c1,0,1.7,0.7,1.7,2.1v2.9h-1.5v-2.7
			c0-0.6-0.2-1.1-0.8-1.1c-0.4,0-0.7,0.3-0.8,0.5c0,0.1,0,0.2,0,0.3v2.9h-1.5V277.2z"/>
		<path class="st1" d="M504.1,282.3c0.1,0.6,0.7,0.9,1.4,0.9c0.5,0,0.9-0.1,1.3-0.2l0.2,1c-0.5,0.2-1.1,0.3-1.8,0.3
			c-1.7,0-2.6-1-2.6-2.5c0-1.2,0.8-2.6,2.5-2.6c1.6,0,2.2,1.2,2.2,2.4c0,0.3,0,0.5,0,0.6H504.1z M505.9,281.3c0-0.4-0.2-1-0.9-1
			c-0.6,0-0.9,0.6-0.9,1H505.9z"/>
		<path class="st1" d="M512.2,284.2c-0.3,0.1-0.8,0.2-1.4,0.2c-1.6,0-2.6-1-2.6-2.5c0-1.4,1-2.6,2.8-2.6c0.4,0,0.8,0.1,1.2,0.2
			l-0.2,1.1c-0.2-0.1-0.4-0.1-0.8-0.1c-0.8,0-1.3,0.6-1.3,1.4c0,0.9,0.6,1.4,1.3,1.4c0.4,0,0.6-0.1,0.9-0.1L512.2,284.2z"/>
		<path class="st1" d="M514.9,281.5L514.9,281.5c0.1-0.2,0.2-0.4,0.4-0.6l1-1.5h1.8l-1.7,2l2,2.9h-1.9l-1.2-2l-0.4,0.5v1.5h-1.5
			v-7.1h1.5V281.5z"/>
		<path class="st1" d="M523.8,281.8c0,1.8-1.3,2.6-2.6,2.6c-1.4,0-2.5-0.9-2.5-2.5s1-2.6,2.6-2.6
			C522.8,279.3,523.8,280.3,523.8,281.8z M520.3,281.9c0,0.8,0.3,1.5,1,1.5c0.6,0,1-0.6,1-1.5c0-0.7-0.3-1.5-1-1.5
			C520.6,280.4,520.3,281.1,520.3,281.9z"/>
		<path class="st1" d="M529.7,282.7c0,0.6,0,1.2,0,1.6h-1.3l-0.1-0.7h0c-0.2,0.3-0.6,0.8-1.5,0.8c-1,0-1.7-0.6-1.7-2.1v-2.9h1.5v2.6
			c0,0.7,0.2,1.1,0.8,1.1c0.4,0,0.7-0.3,0.8-0.5c0-0.1,0-0.2,0-0.3v-2.9h1.5V282.7z"/>
		<path class="st1" d="M533,278v1.4h1.1v1.1H533v1.8c0,0.6,0.1,0.9,0.6,0.9c0.2,0,0.3,0,0.4,0l0,1.1c-0.2,0.1-0.6,0.1-1,0.1
			c-0.5,0-0.9-0.2-1.1-0.4c-0.3-0.3-0.4-0.8-0.4-1.4v-2h-0.6v-1.1h0.6v-1.1L533,278z"/>
	</g>
</g>
<g>
	<g>
		<path class="st1" d="M560.5,266c0.5-0.1,1.1-0.1,2.1-0.1c0.9,0,1.6,0.2,2.1,0.5c0.4,0.3,0.7,0.9,0.7,1.6s-0.2,1.2-0.6,1.6
			c-0.5,0.5-1.3,0.7-2.2,0.7c-0.2,0-0.4,0-0.5,0v2.4h-1.5V266z M562,269c0.1,0,0.3,0,0.5,0c0.8,0,1.3-0.4,1.3-1.1c0-0.6-0.4-1-1.2-1
			c-0.3,0-0.5,0-0.6,0.1V269z"/>
		<path class="st1" d="M568.1,266.4c0,0.4-0.3,0.8-0.8,0.8c-0.5,0-0.8-0.3-0.8-0.8c0-0.4,0.3-0.8,0.8-0.8
			C567.7,265.6,568,265.9,568.1,266.4z M566.5,272.6v-4.9h1.5v4.9H566.5z"/>
		<path class="st1" d="M573.2,272.5c-0.3,0.1-0.8,0.2-1.4,0.2c-1.6,0-2.6-1-2.6-2.5c0-1.4,1-2.6,2.8-2.6c0.4,0,0.8,0.1,1.2,0.2
			l-0.2,1.1c-0.2-0.1-0.4-0.2-0.8-0.2c-0.8,0-1.3,0.6-1.3,1.4c0,0.9,0.6,1.4,1.3,1.4c0.4,0,0.6-0.1,0.9-0.1L573.2,272.5z"/>
		<path class="st1" d="M575.9,269.8L575.9,269.8c0.1-0.2,0.2-0.4,0.4-0.6l1-1.5h1.8l-1.7,2l2,2.9h-1.9l-1.2-2l-0.4,0.5v1.5h-1.5
			v-7.1h1.5V269.8z"/>
		<path class="st1" d="M584.7,271.1c0,0.6,0,1.2,0,1.6h-1.3l-0.1-0.7h0c-0.2,0.3-0.6,0.8-1.5,0.8c-1,0-1.7-0.6-1.7-2.1v-2.9h1.5v2.6
			c0,0.7,0.2,1.1,0.8,1.1c0.4,0,0.7-0.3,0.8-0.5c0-0.1,0-0.2,0-0.3v-2.9h1.5V271.1z"/>
		<path class="st1" d="M586.3,269.4c0-0.6,0-1.2,0-1.6h1.3l0.1,0.7h0c0.4-0.5,0.9-0.8,1.6-0.8c1.1,0,2,0.9,2,2.5
			c0,1.8-1.1,2.6-2.2,2.6c-0.6,0-1-0.2-1.3-0.6h0v2.4h-1.5V269.4z M587.8,270.5c0,0.1,0,0.2,0,0.3c0.1,0.4,0.5,0.7,0.9,0.7
			c0.7,0,1-0.5,1-1.4c0-0.8-0.3-1.4-1-1.4c-0.4,0-0.8,0.3-0.9,0.8c0,0.1,0,0.2,0,0.3V270.5z"/>
		<path class="st1" d="M564.1,284.2c-0.3,0.1-0.8,0.2-1.4,0.2c-1.6,0-2.6-1-2.6-2.5c0-1.4,1-2.6,2.8-2.6c0.4,0,0.8,0.1,1.2,0.2
			l-0.2,1.1c-0.2-0.1-0.4-0.1-0.8-0.1c-0.8,0-1.3,0.6-1.3,1.4c0,0.9,0.6,1.4,1.3,1.4c0.4,0,0.6-0.1,0.9-0.1L564.1,284.2z"/>
		<path class="st1" d="M566.4,282.3c0,0.6,0.7,0.9,1.4,0.9c0.5,0,0.9-0.1,1.3-0.2l0.2,1c-0.5,0.2-1.1,0.3-1.8,0.3
			c-1.7,0-2.6-1-2.6-2.5c0-1.2,0.8-2.6,2.5-2.6c1.6,0,2.2,1.2,2.2,2.4c0,0.3,0,0.5,0,0.6H566.4z M568.2,281.3c0-0.4-0.2-1-0.9-1
			c-0.6,0-0.9,0.6-0.9,1H568.2z"/>
		<path class="st1" d="M570.9,281c0-0.6,0-1.1,0-1.6h1.3l0.1,0.7h0c0.2-0.3,0.7-0.8,1.5-0.8c1,0,1.7,0.7,1.7,2.1v2.9H574v-2.7
			c0-0.6-0.2-1.1-0.8-1.1c-0.4,0-0.7,0.3-0.8,0.6c0,0.1-0.1,0.2-0.1,0.4v2.8h-1.5V281z"/>
		<path class="st1" d="M578.7,278v1.4h1.1v1.1h-1.1v1.8c0,0.6,0.1,0.9,0.6,0.9c0.2,0,0.3,0,0.5,0l0,1.1c-0.2,0.1-0.6,0.1-1,0.1
			c-0.5,0-0.9-0.2-1.1-0.4c-0.3-0.3-0.4-0.8-0.4-1.4v-2h-0.6v-1.1h0.6v-1.1L578.7,278z"/>
		<path class="st1" d="M582.1,282.3c0.1,0.6,0.7,0.9,1.4,0.9c0.5,0,0.9-0.1,1.3-0.2l0.2,1c-0.5,0.2-1.1,0.3-1.8,0.3
			c-1.7,0-2.6-1-2.6-2.5c0-1.2,0.8-2.6,2.5-2.6c1.6,0,2.2,1.2,2.2,2.4c0,0.3,0,0.5,0,0.6H582.1z M583.9,281.3c0-0.4-0.2-1-0.9-1
			c-0.6,0-0.9,0.6-0.9,1H583.9z"/>
		<path class="st1" d="M586.6,281c0-0.7,0-1.2,0-1.6h1.3l0,0.9h0c0.2-0.7,0.8-1,1.3-1c0.1,0,0.2,0,0.3,0v1.4c-0.1,0-0.2,0-0.4,0
			c-0.6,0-0.9,0.3-1,0.8c0,0.1,0,0.2,0,0.3v2.5h-1.5V281z"/>
	</g>
</g>
<g>
	<g>
		<path class="st1" d="M432.2,139c0.1,0.6,0.7,0.9,1.4,0.9c0.5,0,0.9-0.1,1.3-0.2l0.2,1c-0.5,0.2-1.1,0.3-1.8,0.3
			c-1.7,0-2.6-1-2.6-2.5c0-1.2,0.8-2.6,2.5-2.6c1.6,0,2.2,1.2,2.2,2.4c0,0.3,0,0.5,0,0.6H432.2z M434,138c0-0.4-0.2-1-0.9-1
			c-0.6,0-0.9,0.6-0.9,1H434z"/>
		<path class="st1" d="M441.7,140.8c-0.3,0.1-0.9,0.3-1.7,0.3c-2.3,0-3.5-1.4-3.5-3.4c0-2.3,1.6-3.6,3.7-3.6c0.8,0,1.4,0.2,1.7,0.3
			l-0.3,1.2c-0.3-0.1-0.7-0.2-1.3-0.2c-1.2,0-2.1,0.7-2.1,2.2c0,1.3,0.8,2.2,2.2,2.2c0.5,0,1-0.1,1.3-0.2L441.7,140.8z"/>
		<path class="st1" d="M447.6,138.5c0,1.8-1.3,2.6-2.6,2.6c-1.4,0-2.5-0.9-2.5-2.5s1-2.6,2.6-2.6C446.6,136,447.6,137,447.6,138.5z
			 M444.1,138.5c0,0.8,0.3,1.5,1,1.5c0.6,0,1-0.6,1-1.5c0-0.7-0.3-1.5-1-1.5C444.4,137.1,444.1,137.8,444.1,138.5z"/>
		<path class="st1" d="M448.9,137.7c0-0.6,0-1.1,0-1.6h1.3l0.1,0.7h0c0.2-0.3,0.6-0.8,1.5-0.8c0.6,0,1.1,0.3,1.3,0.8h0
			c0.2-0.2,0.4-0.4,0.6-0.6c0.3-0.2,0.6-0.2,0.9-0.2c0.9,0,1.6,0.7,1.6,2.1v2.9h-1.5v-2.7c0-0.7-0.2-1.1-0.7-1.1
			c-0.3,0-0.6,0.2-0.7,0.5c0,0.1-0.1,0.3-0.1,0.4v2.9h-1.5v-2.7c0-0.6-0.2-1-0.7-1c-0.4,0-0.6,0.3-0.7,0.5c-0.1,0.1-0.1,0.3-0.1,0.4
			v2.8h-1.5V137.7z"/>
		<path class="st1" d="M457.8,137.7c0-0.6,0-1.1,0-1.6h1.3l0.1,0.7h0c0.2-0.3,0.6-0.8,1.5-0.8c0.6,0,1.1,0.3,1.3,0.8h0
			c0.2-0.2,0.4-0.4,0.6-0.6c0.3-0.2,0.6-0.2,0.9-0.2c0.9,0,1.6,0.7,1.6,2.1v2.9h-1.5v-2.7c0-0.7-0.2-1.1-0.7-1.1
			c-0.4,0-0.6,0.2-0.7,0.5c0,0.1-0.1,0.3-0.1,0.4v2.9h-1.5v-2.7c0-0.6-0.2-1-0.7-1c-0.4,0-0.6,0.3-0.7,0.5c0,0.1-0.1,0.3-0.1,0.4
			v2.8h-1.5V137.7z"/>
		<path class="st1" d="M467.9,139c0.1,0.6,0.7,0.9,1.4,0.9c0.5,0,0.9-0.1,1.3-0.2l0.2,1c-0.5,0.2-1.1,0.3-1.8,0.3
			c-1.7,0-2.6-1-2.6-2.5c0-1.2,0.8-2.6,2.5-2.6c1.6,0,2.2,1.2,2.2,2.4c0,0.3,0,0.5,0,0.6H467.9z M469.7,138c0-0.4-0.2-1-0.9-1
			c-0.6,0-0.9,0.6-0.9,1H469.7z"/>
		<path class="st1" d="M472.3,137.7c0-0.7,0-1.2,0-1.6h1.3l0,0.9h0c0.2-0.7,0.8-1,1.3-1c0.1,0,0.2,0,0.3,0v1.4c-0.1,0-0.2,0-0.4,0
			c-0.6,0-0.9,0.3-1,0.8c0,0.1,0,0.2,0,0.3v2.5h-1.5V137.7z"/>
		<path class="st1" d="M480.1,140.9c-0.3,0.1-0.8,0.2-1.4,0.2c-1.6,0-2.6-1-2.6-2.5c0-1.4,1-2.6,2.8-2.6c0.4,0,0.8,0.1,1.2,0.2
			l-0.2,1.1c-0.2-0.1-0.4-0.1-0.8-0.1c-0.8,0-1.3,0.6-1.3,1.4c0,0.9,0.6,1.4,1.3,1.4c0.4,0,0.6-0.1,0.9-0.2L480.1,140.9z"/>
		<path class="st1" d="M482.4,139c0.1,0.6,0.7,0.9,1.4,0.9c0.5,0,0.9-0.1,1.3-0.2l0.2,1c-0.5,0.2-1.1,0.3-1.8,0.3
			c-1.7,0-2.6-1-2.6-2.5c0-1.2,0.8-2.6,2.5-2.6c1.6,0,2.2,1.2,2.2,2.4c0,0.3,0,0.5,0,0.6H482.4z M484.2,138c0-0.4-0.2-1-0.9-1
			c-0.6,0-0.9,0.6-0.9,1H484.2z"/>
		<path class="st1" d="M432.5,149.8L432.5,149.8c0.1-0.2,0.2-0.4,0.4-0.6l1-1.5h1.8l-1.7,2l2,2.9h-1.9l-1.2-2l-0.4,0.5v1.5H431v-7.1
			h1.5V149.8z"/>
		<path class="st1" d="M438.4,146.4c0,0.4-0.3,0.8-0.8,0.8c-0.5,0-0.8-0.3-0.8-0.8c0-0.4,0.3-0.8,0.8-0.8
			C438.1,145.6,438.4,146,438.4,146.4z M436.9,152.7v-4.9h1.5v4.9H436.9z"/>
		<path class="st1" d="M444.7,150.2c0,1.8-1.3,2.6-2.6,2.6c-1.4,0-2.5-0.9-2.5-2.5s1-2.6,2.6-2.6
			C443.7,147.7,444.7,148.7,444.7,150.2z M441.2,150.2c0,0.8,0.3,1.5,1,1.5c0.6,0,1-0.6,1-1.5c0-0.7-0.3-1.5-1-1.5
			C441.5,148.7,441.2,149.5,441.2,150.2z"/>
		<path class="st1" d="M445.9,151.3c0.3,0.2,0.9,0.4,1.3,0.4c0.5,0,0.6-0.2,0.6-0.4c0-0.2-0.2-0.4-0.7-0.6c-1-0.3-1.4-0.9-1.4-1.5
			c0-0.9,0.8-1.6,2-1.6c0.6,0,1.1,0.1,1.4,0.3l-0.3,1c-0.2-0.1-0.6-0.3-1.1-0.3c-0.4,0-0.6,0.2-0.6,0.4c0,0.2,0.2,0.4,0.8,0.6
			c0.9,0.3,1.3,0.8,1.3,1.5c0,0.9-0.7,1.6-2.1,1.6c-0.6,0-1.2-0.1-1.6-0.3L445.9,151.3z"/>
		<path class="st1" d="M452.1,149.8L452.1,149.8c0.1-0.2,0.2-0.4,0.4-0.6l1-1.5h1.8l-1.7,2l2,2.9h-1.9l-1.2-2l-0.4,0.5v1.5h-1.5
			v-7.1h1.5V149.8z"/>
		<path class="st1" d="M456.6,151.3c0.3,0.2,0.9,0.4,1.3,0.4c0.5,0,0.6-0.2,0.6-0.4c0-0.2-0.2-0.4-0.7-0.6c-1-0.3-1.4-0.9-1.4-1.5
			c0-0.9,0.8-1.6,2-1.6c0.6,0,1.1,0.1,1.4,0.3l-0.3,1c-0.2-0.1-0.6-0.3-1.1-0.3c-0.4,0-0.6,0.2-0.6,0.4c0,0.2,0.2,0.4,0.8,0.6
			c0.9,0.3,1.3,0.8,1.3,1.5c0,0.9-0.7,1.6-2.1,1.6c-0.6,0-1.2-0.1-1.6-0.3L456.6,151.3z"/>
	</g>
</g>
<g>
	<g>
		<path class="st13" d="M34.6,382.1c0.5-0.1,1.2-0.1,1.9-0.1c1.2,0,1.9,0.2,2.5,0.6c0.6,0.5,1,1.2,1,2.3c0,1.2-0.4,2-1,2.5
			c-0.6,0.5-1.6,0.8-2.8,0.8c-0.7,0-1.2,0-1.6-0.1V382.1z M35.9,387.1c0.1,0,0.3,0,0.5,0c1.2,0,2.1-0.7,2.1-2.1
			c0-1.3-0.7-1.9-1.9-1.9c-0.3,0-0.5,0-0.6,0.1V387.1z"/>
		<path class="st13" d="M41.1,385.2c0-0.6,0-1.1,0-1.4h1.2l0,0.8h0c0.2-0.6,0.8-0.9,1.2-0.9c0.1,0,0.2,0,0.3,0v1.3
			c-0.1,0-0.2,0-0.4,0c-0.5,0-0.8,0.3-0.9,0.7c0,0.1,0,0.2,0,0.3v2.2h-1.4V385.2z"/>
		<path class="st13" d="M46.2,382.5c0,0.4-0.3,0.7-0.7,0.7c-0.4,0-0.7-0.3-0.7-0.7c0-0.4,0.3-0.7,0.7-0.7
			C45.9,381.8,46.2,382.1,46.2,382.5z M44.8,388.1v-4.4h1.4v4.4H44.8z"/>
		<path class="st13" d="M48.6,383.7l0.6,2c0.1,0.4,0.2,0.7,0.3,1.1h0c0.1-0.4,0.1-0.7,0.2-1.1l0.6-2h1.4l-1.6,4.4h-1.4l-1.6-4.4
			H48.6z"/>
		<path class="st13" d="M53.6,386.4c0,0.6,0.6,0.8,1.2,0.8c0.5,0,0.8-0.1,1.2-0.2l0.2,0.9c-0.5,0.2-1,0.3-1.6,0.3
			c-1.5,0-2.3-0.9-2.3-2.2c0-1.1,0.7-2.3,2.2-2.3c1.4,0,2,1.1,2,2.2c0,0.2,0,0.4,0,0.5H53.6z M55.2,385.4c0-0.3-0.1-0.9-0.8-0.9
			c-0.6,0-0.8,0.5-0.8,0.9H55.2z"/>
		<path class="st13" d="M61.1,382.5v1.3h1v1h-1v1.6c0,0.5,0.1,0.8,0.5,0.8c0.2,0,0.3,0,0.4,0l0,1c-0.2,0.1-0.5,0.1-0.9,0.1
			c-0.4,0-0.8-0.2-1-0.4c-0.3-0.3-0.4-0.7-0.4-1.3v-1.8h-0.6v-1h0.6v-1L61.1,382.5z"/>
		<path class="st13" d="M63.2,381.7h1.4v2.5h0c0.1-0.2,0.3-0.3,0.5-0.5c0.2-0.1,0.5-0.2,0.7-0.2c0.9,0,1.5,0.6,1.5,1.9v2.6H66v-2.4
			c0-0.6-0.2-1-0.7-1c-0.4,0-0.6,0.2-0.7,0.5c0,0.1,0,0.2,0,0.3v2.6h-1.4V381.7z"/>
		<path class="st13" d="M68.8,385.2c0-0.6,0-1.1,0-1.4h1.2l0,0.8h0c0.2-0.6,0.8-0.9,1.2-0.9c0.1,0,0.2,0,0.3,0v1.3
			c-0.1,0-0.2,0-0.4,0c-0.5,0-0.8,0.3-0.9,0.7c0,0.1,0,0.2,0,0.3v2.2h-1.4V385.2z"/>
		<path class="st13" d="M76.6,386.7c0,0.6,0,1,0,1.4h-1.2l-0.1-0.6h0c-0.2,0.3-0.6,0.7-1.4,0.7c-0.9,0-1.5-0.6-1.5-1.9v-2.6h1.4v2.4
			c0,0.6,0.2,1,0.7,1c0.4,0,0.6-0.3,0.7-0.5c0-0.1,0-0.2,0-0.3v-2.6h1.4V386.7z"/>
		<path class="st13" d="M34.5,396c0-0.6,0-1.1,0-1.5h1.2l0.1,0.6h0c0.3-0.5,0.8-0.7,1.5-0.7c1,0,1.8,0.8,1.8,2.2c0,1.6-1,2.4-2,2.4
			c-0.5,0-0.9-0.2-1.1-0.5h0v2.2h-1.4V396z M35.9,397c0,0.1,0,0.2,0,0.3c0.1,0.4,0.4,0.6,0.8,0.6c0.6,0,0.9-0.5,0.9-1.2
			c0-0.7-0.3-1.2-0.9-1.2c-0.4,0-0.7,0.3-0.8,0.7c0,0.1,0,0.2,0,0.2V397z"/>
		<path class="st13" d="M41.6,393.3c0,0.4-0.3,0.7-0.7,0.7c-0.4,0-0.7-0.3-0.7-0.7c0-0.4,0.3-0.7,0.7-0.7S41.6,392.9,41.6,393.3z
			 M40.2,398.9v-4.4h1.4v4.4H40.2z"/>
		<path class="st13" d="M46.3,398.8c-0.2,0.1-0.7,0.2-1.2,0.2c-1.4,0-2.3-0.9-2.3-2.3c0-1.3,0.9-2.3,2.5-2.3c0.4,0,0.8,0.1,1,0.2
			l-0.2,1c-0.2-0.1-0.4-0.1-0.8-0.1c-0.7,0-1.2,0.5-1.2,1.2c0,0.8,0.5,1.2,1.2,1.2c0.3,0,0.6-0.1,0.8-0.1L46.3,398.8z"/>
		<path class="st13" d="M48.8,396.4L48.8,396.4c0.1-0.2,0.2-0.4,0.3-0.5l0.9-1.3h1.6l-1.6,1.8l1.8,2.6h-1.7l-1.1-1.8l-0.4,0.4v1.4
			h-1.4v-6.4h1.4V396.4z"/>
		<path class="st13" d="M56.7,397.5c0,0.6,0,1,0,1.4h-1.2l-0.1-0.6h0c-0.2,0.3-0.6,0.7-1.4,0.7c-0.9,0-1.5-0.6-1.5-1.9v-2.6h1.4v2.4
			c0,0.6,0.2,1,0.7,1c0.4,0,0.6-0.3,0.7-0.5c0-0.1,0-0.2,0-0.3v-2.6h1.4V397.5z"/>
		<path class="st13" d="M58.2,396c0-0.6,0-1.1,0-1.5h1.2l0.1,0.6h0c0.3-0.5,0.8-0.7,1.5-0.7c1,0,1.8,0.8,1.8,2.2c0,1.6-1,2.4-2,2.4
			c-0.5,0-0.9-0.2-1.1-0.5h0v2.2h-1.4V396z M59.5,397c0,0.1,0,0.2,0,0.3c0.1,0.4,0.4,0.6,0.8,0.6c0.6,0,0.9-0.5,0.9-1.2
			c0-0.7-0.3-1.2-0.9-1.2c-0.4,0-0.7,0.3-0.8,0.7c0,0.1,0,0.2,0,0.2V397z"/>
	</g>
</g>
</svg>
