<?xml version="1.0" encoding="utf-8"?>
<!-- Generator: Adobe Illustrator 25.1.0, SVG Export Plug-In . SVG Version: 6.00 Build 0)  -->
<svg version="1.1" id="Capa_1" xmlns="http://www.w3.org/2000/svg" xmlns:xlink="http://www.w3.org/1999/xlink" x="0px" y="0px"
	 viewBox="0 0 557.3 209" style="enable-background:new 0 0 557.3 209;" xml:space="preserve">
<style type="text/css">
	.st0{fill:#EAE8E9;}
	.st1{fill:#0078BE;}
	.st2{fill:#52BED2;}
	.st3{fill:#F9F9F9;}
	.st4{fill:#E5E6F2;}
	.st5{fill:#F1F8FB;}
	.st6{fill:none;stroke:#A0999A;stroke-width:0.25;stroke-miterlimit:10;}
	.st7{fill:none;stroke:#FFFFFF;stroke-width:5;stroke-miterlimit:10;}
	.st8{fill:none;stroke:#EDF1F3;stroke-width:5;stroke-miterlimit:10;}
	.st9{clip-path:url(#SVGID_2_);}
	.st10{clip-path:url(#SVGID_4_);}
	.st11{clip-path:url(#SVGID_6_);}
	.st12{clip-path:url(#SVGID_8_);}
	.st13{enable-background:new    ;}
	.st14{fill:#545051;}
	.st15{fill:#FFFFFF;}
</style>
<rect class="st0" width="144" height="25"/>
<rect x="144" class="st1" width="206.7" height="25"/>
<rect x="350.7" class="st2" width="206.7" height="25"/>
<path class="st3" d="M0,186h144v23H0V186z M0,163h144v23H0V163z M0,140h144v23H0V140z M0,117h144v23H0V117z M0,94h144v23H0V94z
	 M0,71h144v23H0V71z M0,48h144v23H0V48z M0,25h144v23H0V25z"/>
<path class="st4" d="M247.3,186h103.3v23H247.3V186z M144,186h103.3v23H144V186z M247.3,163h103.3v23H247.3V163z M144,163h103.3v23
	H144V163z M247.3,140h103.3v23H247.3V140z M144,140h103.3v23H144V140z M247.3,117h103.3v23H247.3V117z M144,117h103.3v23H144V117z
	 M247.3,94h103.3v23H247.3V94z M144,94h103.3v23H144V94z M247.3,71h103.3v23H247.3V71z M144,71h103.3v23H144V71z M247.3,48h103.3v23
	H247.3V48z M144,48h103.3v23H144V48z M247.3,25h103.3v23H247.3V25z M144,25h103.3v23H144V25z"/>
<path class="st5" d="M454,186h103.3v23H454V186z M350.7,186H454v23H350.7V186z M454,163h103.3v23H454V163z M350.7,163H454v23H350.7
	V163z M454,140h103.3v23H454V140z M350.7,140H454v23H350.7V140z M454,117h103.3v23H454V117z M350.7,117H454v23H350.7V117z M454,94
	h103.3v23H454V94z M350.7,94H454v23H350.7V94z M454,71h103.3v23H454V71z M350.7,71H454v23H350.7V71z M454,48h103.3v23H454V48z
	 M350.7,48H454v23H350.7V48z M454,25h103.3v23H454V25z M350.7,25H454v23H350.7V25z"/>
<line class="st6" x1="0" y1="25" x2="141.5" y2="25"/>
<line class="st6" x1="146.5" y1="25" x2="247.3" y2="25"/>
<line class="st6" x1="247.3" y1="25" x2="348.2" y2="25"/>
<line class="st6" x1="353.2" y1="25" x2="454" y2="25"/>
<line class="st6" x1="454" y1="25" x2="557.3" y2="25"/>
<line class="st6" x1="0" y1="48" x2="141.5" y2="48"/>
<line class="st6" x1="146.5" y1="48" x2="244.8" y2="48"/>
<line class="st6" x1="249.8" y1="48" x2="348.2" y2="48"/>
<line class="st6" x1="353.2" y1="48" x2="451.5" y2="48"/>
<line class="st6" x1="456.5" y1="48" x2="557.3" y2="48"/>
<line class="st6" x1="0" y1="71" x2="141.5" y2="71"/>
<line class="st6" x1="146.5" y1="71" x2="244.8" y2="71"/>
<line class="st6" x1="249.8" y1="71" x2="348.2" y2="71"/>
<line class="st6" x1="353.2" y1="71" x2="451.5" y2="71"/>
<line class="st6" x1="456.5" y1="71" x2="557.3" y2="71"/>
<line class="st6" x1="0" y1="94" x2="141.5" y2="94"/>
<line class="st6" x1="146.5" y1="94" x2="244.8" y2="94"/>
<line class="st6" x1="249.8" y1="94" x2="348.2" y2="94"/>
<line class="st6" x1="353.2" y1="94" x2="451.5" y2="94"/>
<line class="st6" x1="456.5" y1="94" x2="557.3" y2="94"/>
<line class="st7" x1="350.7" y1="25" x2="350.7" y2="0"/>
<line class="st8" x1="144" y1="25" x2="144" y2="0"/>
<line class="st8" x1="144" y1="48" x2="144" y2="25"/>
<line class="st8" x1="144" y1="71" x2="144" y2="48"/>
<line class="st8" x1="144" y1="94" x2="144" y2="71"/>
<line class="st8" x1="144" y1="116.9" x2="144" y2="94"/>
<line class="st8" x1="144" y1="139.9" x2="144" y2="117.1"/>
<line class="st8" x1="144" y1="162.9" x2="144" y2="140.1"/>
<line class="st8" x1="144" y1="185.9" x2="144" y2="163.1"/>
<g>
	<g>
		<defs>
			<rect id="SVGID_1_" x="-9" y="-33.5" width="588" height="247.1"/>
		</defs>
		<clipPath id="SVGID_2_">
			<use xlink:href="#SVGID_1_"  style="overflow:visible;"/>
		</clipPath>
		<g class="st9">
			<line class="st8" x1="144" y1="209" x2="144" y2="186.1"/>
		</g>
	</g>
</g>
<line class="st6" x1="0" y1="117" x2="144" y2="117"/>
<line class="st6" x1="0" y1="140" x2="144" y2="140"/>
<line class="st6" x1="0" y1="163" x2="144" y2="163"/>
<line class="st6" x1="0" y1="186" x2="144" y2="186"/>
<line class="st6" x1="249.8" y1="117" x2="348.2" y2="117"/>
<line class="st6" x1="249.8" y1="140" x2="348.2" y2="140"/>
<line class="st6" x1="249.8" y1="163" x2="348.2" y2="163"/>
<line class="st6" x1="249.8" y1="186" x2="348.2" y2="186"/>
<line class="st6" x1="144" y1="117" x2="244.8" y2="117"/>
<line class="st6" x1="144" y1="140" x2="244.8" y2="140"/>
<line class="st6" x1="144" y1="163" x2="244.8" y2="163"/>
<line class="st6" x1="144" y1="186" x2="244.8" y2="186"/>
<line class="st6" x1="353.2" y1="117" x2="451.5" y2="117"/>
<line class="st6" x1="353.2" y1="140" x2="451.5" y2="140"/>
<line class="st6" x1="353.2" y1="163" x2="451.5" y2="163"/>
<line class="st6" x1="353.2" y1="186" x2="451.5" y2="186"/>
<line class="st6" x1="456.5" y1="117" x2="557.3" y2="117"/>
<line class="st6" x1="456.5" y1="140" x2="557.3" y2="140"/>
<line class="st6" x1="456.5" y1="163" x2="557.3" y2="163"/>
<line class="st6" x1="456.5" y1="186" x2="557.3" y2="186"/>
<line class="st7" x1="247.3" y1="48" x2="247.3" y2="25.1"/>
<line class="st7" x1="247.3" y1="71" x2="247.3" y2="48"/>
<line class="st7" x1="247.3" y1="94" x2="247.3" y2="71"/>
<line class="st7" x1="247.3" y1="117" x2="247.3" y2="94"/>
<line class="st7" x1="247.3" y1="140" x2="247.3" y2="117"/>
<line class="st7" x1="247.3" y1="163" x2="247.3" y2="140"/>
<line class="st7" x1="247.3" y1="186" x2="247.3" y2="163"/>
<g>
	<g>
		<defs>
			<rect id="SVGID_3_" x="-9" y="-33.5" width="588" height="247.1"/>
		</defs>
		<clipPath id="SVGID_4_">
			<use xlink:href="#SVGID_3_"  style="overflow:visible;"/>
		</clipPath>
		<g class="st10">
			<line class="st7" x1="247.3" y1="209" x2="247.3" y2="186"/>
		</g>
	</g>
</g>
<line class="st7" x1="350.7" y1="48" x2="350.7" y2="25"/>
<line class="st7" x1="350.7" y1="71" x2="350.7" y2="48"/>
<line class="st7" x1="350.7" y1="94" x2="350.7" y2="71"/>
<line class="st7" x1="350.7" y1="117" x2="350.7" y2="94"/>
<line class="st7" x1="350.7" y1="140" x2="350.7" y2="117"/>
<line class="st7" x1="350.7" y1="163" x2="350.7" y2="140"/>
<line class="st7" x1="350.7" y1="186" x2="350.7" y2="163"/>
<g>
	<g>
		<defs>
			<rect id="SVGID_5_" x="-9" y="-33.5" width="588" height="247.1"/>
		</defs>
		<clipPath id="SVGID_6_">
			<use xlink:href="#SVGID_5_"  style="overflow:visible;"/>
		</clipPath>
		<g class="st11">
			<line class="st7" x1="350.7" y1="209" x2="350.7" y2="186"/>
		</g>
	</g>
</g>
<line class="st7" x1="454" y1="48" x2="454" y2="25.1"/>
<line class="st7" x1="454" y1="71" x2="454" y2="48"/>
<line class="st7" x1="454" y1="94" x2="454" y2="71"/>
<line class="st7" x1="454" y1="117" x2="454" y2="94"/>
<line class="st7" x1="454" y1="140" x2="454" y2="117"/>
<line class="st7" x1="454" y1="163" x2="454" y2="140"/>
<line class="st7" x1="454" y1="186" x2="454" y2="163"/>
<g>
	<g>
		<defs>
			<rect id="SVGID_7_" x="-9" y="-33.5" width="588" height="247.1"/>
		</defs>
		<clipPath id="SVGID_8_">
			<use xlink:href="#SVGID_7_"  style="overflow:visible;"/>
		</clipPath>
		<g class="st12">
			<line class="st7" x1="454" y1="209" x2="454" y2="186"/>
		</g>
	</g>
</g>
<g class="st13">
	<path class="st14" d="M8.8,17V8.9h2.1l1.7,3c0.5,0.9,0.9,1.9,1.3,2.8l0,0c-0.1-1.1-0.1-2.2-0.1-3.4V8.9h1.7V17h-1.9l-1.7-3.1
		c-0.5-0.9-1-1.9-1.4-2.9l0,0c0.1,1.1,0.1,2.2,0.1,3.5V17H8.8z"/>
</g>
<g class="st13">
	<path class="st14" d="M17.9,10.4c-0.6,0-0.9-0.4-0.9-0.9s0.4-0.9,1-0.9s0.9,0.4,1,0.9C18.9,10,18.5,10.4,17.9,10.4L17.9,10.4z
		 M17,17v-5.9h1.8V17H17z"/>
</g>
<g class="st13">
	<path class="st14" d="M21.6,11.1l0.8,2.7c0.1,0.5,0.2,1,0.3,1.4l0,0c0.1-0.5,0.2-0.9,0.3-1.4l0.8-2.7h1.9L23.6,17h-1.8l-2.1-5.9
		H21.6z"/>
</g>
<g class="st13">
	<path class="st14" d="M27.8,14.6c0.1,0.8,0.8,1.1,1.7,1.1c0.6,0,1.1-0.1,1.6-0.3l0.2,1.2C30.7,16.9,30,17,29.2,17
		c-2,0-3.1-1.2-3.1-3c0-1.5,0.9-3.1,3-3.1c1.9,0,2.6,1.5,2.6,2.9c0,0.3,0,0.6-0.1,0.7h-3.8V14.6z M30,13.4c0-0.4-0.2-1.2-1-1.2
		s-1.1,0.7-1.1,1.2H30z"/>
</g>
<g class="st13">
	<path class="st14" d="M32.8,8.5h1.8V17h-1.8V8.5z"/>
</g>
<g class="st13">
	<path class="st15" d="M235.8,13.9c0-1-0.1-2.1-0.1-3.3l0,0c-0.3,1-0.6,2.2-0.9,3.1l-1,3.2h-1.4l-0.9-3.1c-0.3-0.9-0.5-2.1-0.7-3.2
		l0,0c0,1.1-0.1,2.3-0.1,3.3l-0.2,3.1h-1.7l0.5-8.1h2.4l0.8,2.7c0.3,0.9,0.5,1.9,0.7,2.9l0,0c0.2-0.9,0.5-2,0.8-2.9l0.9-2.7h2.4
		l0.4,8.1h-1.8L235.8,13.9z"/>
	<path class="st15" d="M240.5,14.6c0.1,0.8,0.8,1.1,1.7,1.1c0.6,0,1.1-0.1,1.6-0.3l0.2,1.2c-0.6,0.3-1.3,0.4-2.1,0.4
		c-2,0-3.1-1.2-3.1-3c0-1.5,0.9-3.1,3-3.1c1.9,0,2.6,1.5,2.6,2.9c0,0.3,0,0.6-0.1,0.7h-3.8V14.6z M242.6,13.4c0-0.4-0.2-1.2-1-1.2
		s-1.1,0.7-1.1,1.2H242.6z M243.6,8.6l-1.5,1.8h-1.2l1-1.8H243.6z"/>
</g>
<g class="st13">
	<path class="st15" d="M246.9,11.1l0.6,1c0.2,0.3,0.3,0.6,0.5,0.9l0,0c0.2-0.3,0.3-0.6,0.5-0.9l0.5-0.9h2l-1.9,2.8l2,3.1H249
		l-0.6-1.1c-0.2-0.3-0.3-0.6-0.5-0.9l0,0c-0.1,0.3-0.3,0.6-0.4,0.9l-0.6,1.1h-2l2-3l-1.9-2.9h1.9V11.1z"/>
</g>
<g class="st13">
	<path class="st15" d="M252.6,10.4c-0.6,0-0.9-0.4-0.9-0.9s0.4-0.9,1-0.9s0.9,0.4,1,0.9C253.6,10,253.2,10.4,252.6,10.4L252.6,10.4z
		 M251.7,17v-5.9h1.8V17H251.7z"/>
</g>
<g class="st13">
	<path class="st15" d="M259.4,16.8c-0.3,0.2-0.9,0.3-1.6,0.3c-1.9,0-3.1-1.2-3.1-3c0-1.7,1.2-3.1,3.4-3.1c0.5,0,1,0.1,1.4,0.2
		l-0.3,1.4c-0.2-0.1-0.5-0.2-1-0.2c-1,0-1.6,0.7-1.6,1.6c0,1.1,0.7,1.6,1.6,1.6c0.4,0,0.8-0.1,1-0.2L259.4,16.8z"/>
</g>
<g class="st13">
	<path class="st15" d="M263,17.1c-1.7,0-3-1.1-3-3s1.2-3.1,3.1-3.1c1.8,0,3,1.2,3,3C266.1,16.1,264.6,17.1,263,17.1L263,17.1z
		 M263,15.8c0.7,0,1.2-0.7,1.2-1.8c0-0.9-0.3-1.8-1.2-1.8c-0.9,0-1.2,0.9-1.2,1.8C261.8,15.1,262.2,15.8,263,15.8L263,15.8z"/>
</g>
<g class="st13">
	<path class="st15" d="M421.4,16.8c-0.3,0.2-1.1,0.3-2.1,0.3c-2.8,0-4.2-1.8-4.2-4.1c0-2.7,2-4.3,4.4-4.3c0.9,0,1.7,0.2,2,0.3
		l-0.4,1.5c-0.4-0.2-0.9-0.3-1.5-0.3c-1.4,0-2.6,0.9-2.6,2.7c0,1.6,1,2.6,2.6,2.6c0.6,0,1.2-0.1,1.5-0.3L421.4,16.8z"/>
</g>
<g class="st13">
	<path class="st15" d="M423.8,14.6c0.1,0.8,0.8,1.1,1.7,1.1c0.6,0,1.1-0.1,1.6-0.3l0.2,1.2c-0.6,0.3-1.3,0.4-2.1,0.4
		c-2,0-3.1-1.2-3.1-3c0-1.5,0.9-3.1,3-3.1c1.9,0,2.6,1.5,2.6,2.9c0,0.3,0,0.6-0.1,0.7h-3.8V14.6z M425.9,13.4c0-0.4-0.2-1.2-1-1.2
		s-1.1,0.7-1.1,1.2H425.9z"/>
</g>
<g class="st13">
	<path class="st15" d="M428.7,13c0-0.7,0-1.3,0-1.9h1.6l0.1,0.8l0,0c0.2-0.4,0.8-0.9,1.8-0.9c1.2,0,2.1,0.8,2.1,2.5V17h-1.8v-3.2
		c0-0.8-0.3-1.3-0.9-1.3c-0.5,0-0.8,0.3-0.9,0.7c0,0.1-0.1,0.3-0.1,0.5V17h-1.8v-4H428.7z"/>
</g>
<g class="st13">
	<path class="st15" d="M437.7,9.5v1.6h1.3v1.3h-1.3v2.1c0,0.7,0.2,1,0.7,1c0.3,0,0.4,0,0.5,0v1.4c-0.2,0.1-0.7,0.2-1.2,0.2
		c-0.6,0-1.1-0.2-1.4-0.5s-0.5-0.9-0.5-1.7v-2.4H435v-1.3h0.8V10L437.7,9.5z"/>
</g>
<g class="st13">
	<path class="st15" d="M440.1,13.1c0-0.9,0-1.4,0-1.9h1.6l0.1,1.1l0,0c0.3-0.9,1-1.2,1.6-1.2c0.2,0,0.3,0,0.4,0v1.7
		c-0.1,0-0.3,0-0.5,0c-0.7,0-1.1,0.3-1.2,0.9c0,0.1,0,0.3,0,0.4v3h-1.8v-4H440.1z"/>
</g>
<g class="st13">
	<path class="st15" d="M447.4,17.1c-1.7,0-3-1.1-3-3s1.2-3.1,3.1-3.1c1.8,0,3,1.2,3,3C450.5,16.1,449,17.1,447.4,17.1L447.4,17.1z
		 M447.4,15.8c0.7,0,1.2-0.7,1.2-1.8c0-0.9-0.3-1.8-1.2-1.8c-0.9,0-1.2,0.9-1.2,1.8C446.2,15.1,446.7,15.8,447.4,15.8L447.4,15.8z"
		/>
</g>
<g class="st13">
	<path class="st15" d="M456.5,15.6c0,0.6,0,1.1,0.1,1.4H455l-0.1-0.6l0,0c-0.4,0.5-1,0.7-1.7,0.7c-1.2,0-1.9-0.9-1.9-1.8
		c0-1.5,1.4-2.2,3.4-2.2V13c0-0.3-0.2-0.8-1.1-0.8c-0.6,0-1.2,0.2-1.6,0.4l-0.3-1.2c0.4-0.2,1.2-0.5,2.3-0.5c2,0,2.6,1.2,2.6,2.5
		L456.5,15.6L456.5,15.6z M454.7,14.2c-1,0-1.7,0.2-1.7,0.9c0,0.5,0.3,0.7,0.7,0.7c0.4,0,0.8-0.3,0.9-0.7c0-0.1,0-0.2,0-0.3v-0.6
		H454.7z"/>
</g>
<g class="st13">
	<path class="st15" d="M457.9,13c0-0.7,0-1.3,0-1.9h1.5l0.1,0.8l0,0c0.3-0.4,0.8-0.9,1.8-0.9c0.8,0,1.4,0.4,1.6,1l0,0
		c0.2-0.3,0.5-0.6,0.8-0.7c0.3-0.2,0.7-0.3,1.1-0.3c1.1,0,2,0.8,2,2.5V17H465v-3.2c0-0.9-0.3-1.3-0.9-1.3c-0.4,0-0.7,0.3-0.9,0.6
		c0,0.1-0.1,0.3-0.1,0.5V17h-1.8v-3.3c0-0.7-0.3-1.2-0.9-1.2c-0.5,0-0.7,0.4-0.9,0.6c-0.1,0.1-0.1,0.3-0.1,0.5V17h-1.8v-4H457.9z"/>
</g>
<g class="st13">
	<path class="st15" d="M469.6,14.6c0.1,0.8,0.8,1.1,1.7,1.1c0.6,0,1.1-0.1,1.6-0.3l0.2,1.2c-0.6,0.3-1.3,0.4-2.1,0.4
		c-2,0-3.1-1.2-3.1-3c0-1.5,0.9-3.1,3-3.1c1.9,0,2.6,1.5,2.6,2.9c0,0.3,0,0.6-0.1,0.7h-3.8V14.6z M471.8,13.4c0-0.4-0.2-1.2-1-1.2
		s-1.1,0.7-1.1,1.2H471.8z M472.8,8.6l-1.5,1.8h-1.2l1-1.8H472.8z"/>
</g>
<g class="st13">
	<path class="st15" d="M474.6,13.1c0-0.9,0-1.4,0-1.9h1.6l0.1,1.1l0,0c0.3-0.9,1-1.2,1.6-1.2c0.2,0,0.3,0,0.4,0v1.7
		c-0.1,0-0.3,0-0.5,0c-0.7,0-1.1,0.3-1.2,0.9c0,0.1,0,0.3,0,0.4v3h-1.8v-4H474.6z"/>
</g>
<g class="st13">
	<path class="st15" d="M480,10.4c-0.6,0-0.9-0.4-0.9-0.9s0.4-0.9,1-0.9s0.9,0.4,1,0.9C481,10,480.6,10.4,480,10.4L480,10.4z
		 M479.1,17v-5.9h1.8V17H479.1z"/>
</g>
<g class="st13">
	<path class="st15" d="M486.8,16.8c-0.3,0.2-0.9,0.3-1.6,0.3c-1.9,0-3.1-1.2-3.1-3c0-1.7,1.2-3.1,3.4-3.1c0.5,0,1,0.1,1.4,0.2
		l-0.3,1.4c-0.2-0.1-0.5-0.2-1-0.2c-1,0-1.6,0.7-1.6,1.6c0,1.1,0.7,1.6,1.6,1.6c0.4,0,0.8-0.1,1-0.2L486.8,16.8z"/>
	<path class="st15" d="M492.7,15.6c0,0.6,0,1.1,0.1,1.4h-1.6l-0.1-0.6l0,0c-0.4,0.5-1,0.7-1.7,0.7c-1.2,0-1.9-0.9-1.9-1.8
		c0-1.5,1.4-2.2,3.4-2.2V13c0-0.3-0.2-0.8-1.1-0.8c-0.6,0-1.2,0.2-1.6,0.4l-0.3-1.2c0.4-0.2,1.2-0.5,2.3-0.5c2,0,2.6,1.2,2.6,2.5
		L492.7,15.6L492.7,15.6z M490.9,14.2c-1,0-1.7,0.2-1.7,0.9c0,0.5,0.3,0.7,0.7,0.7c0.4,0,0.8-0.3,0.9-0.7c0-0.1,0-0.2,0-0.3v-0.6
		H490.9z"/>
</g>
<g class="st13">
	<path class="st14" d="M167.5,33.5v2.8h3.3v-2.8h0.9v6.7h-0.9V37h-3.3v3.2h-0.9v-6.7H167.5z"/>
</g>
<g class="st13">
	<path class="st14" d="M175.1,40.4c-1.3,0-2.3-1-2.3-2.5c0-1.6,1.1-2.6,2.4-2.6c1.4,0,2.3,1,2.3,2.5
		C177.5,39.6,176.3,40.4,175.1,40.4L175.1,40.4z M175.2,39.7c0.8,0,1.5-0.8,1.5-1.9c0-0.8-0.4-1.8-1.4-1.8s-1.5,1-1.5,1.9
		C173.7,38.9,174.3,39.7,175.2,39.7L175.2,39.7z"/>
</g>
<g class="st13">
	<path class="st14" d="M178.7,36.9c0-0.6,0-1.1,0-1.5h0.8v0.9l0,0c0.2-0.6,0.8-1.1,1.3-1.1c0.1,0,0.2,0,0.2,0V36c-0.1,0-0.2,0-0.3,0
		c-0.6,0-1.1,0.5-1.2,1.1c0,0.1,0,0.3,0,0.4v2.6h-0.9L178.7,36.9L178.7,36.9z"/>
</g>
<g class="st13">
	<path class="st14" d="M185.4,39.1c0,0.4,0,0.8,0.1,1.2h-0.8l-0.1-0.6l0,0c-0.3,0.4-0.8,0.7-1.5,0.7c-1,0-1.5-0.7-1.5-1.4
		c0-1.2,1-1.8,2.9-1.8v-0.1c0-0.4-0.1-1.1-1.1-1.1c-0.5,0-0.9,0.1-1.3,0.4l-0.2-0.6c0.4-0.2,1-0.4,1.6-0.4c1.5,0,1.8,1,1.8,2v1.7
		H185.4z M184.5,37.8c-1,0-2,0.2-2,1.1c0,0.6,0.4,0.8,0.8,0.8c0.6,0,1-0.4,1.2-0.8c0-0.1,0-0.2,0-0.3V37.8z"/>
</g>
<g class="st13">
	<path class="st14" d="M186.6,39.4c0.3,0.2,0.7,0.3,1.2,0.3c0.6,0,0.9-0.3,0.9-0.7s-0.2-0.6-0.9-0.9c-0.9-0.3-1.3-0.8-1.3-1.4
		c0-0.8,0.6-1.4,1.7-1.4c0.5,0,0.9,0.1,1.2,0.3l-0.2,0.6c-0.2-0.1-0.5-0.3-1-0.3s-0.8,0.3-0.8,0.7s0.3,0.6,0.9,0.8
		c0.8,0.3,1.3,0.7,1.3,1.4c0,0.9-0.7,1.5-1.8,1.5c-0.5,0-1-0.1-1.4-0.3L186.6,39.4z"/>
</g>
<g class="st13">
	<path class="st14" d="M192.8,33.2h0.9v3l0,0c0.1-0.2,0.4-0.5,0.6-0.6c0.3-0.2,0.6-0.2,0.9-0.2c0.6,0,1.7,0.4,1.7,2.1v2.9H196v-2.8
		c0-0.8-0.3-1.4-1.1-1.4c-0.6,0-1,0.4-1.2,0.9c0,0.1-0.1,0.2-0.1,0.4v2.9h-0.9v-7.2H192.8z"/>
	<path class="st14" d="M200.3,40.4c-1.3,0-2.3-1-2.3-2.5c0-1.6,1.1-2.6,2.4-2.6c1.4,0,2.3,1,2.3,2.5
		C202.8,39.6,201.5,40.4,200.3,40.4L200.3,40.4z M200.4,39.7c0.8,0,1.5-0.8,1.5-1.9c0-0.8-0.4-1.8-1.4-1.8s-1.5,1-1.5,1.9
		C198.9,38.9,199.5,39.7,200.4,39.7L200.4,39.7z"/>
</g>
<g class="st13">
	<path class="st14" d="M203.9,36.7c0-0.5,0-0.9,0-1.3h0.8v0.8l0,0c0.3-0.5,0.7-0.9,1.5-0.9c0.6,0,1.1,0.4,1.4,1l0,0
		c0.1-0.3,0.4-0.5,0.5-0.6c0.3-0.2,0.6-0.3,1.1-0.3c0.6,0,1.6,0.4,1.6,2.1v2.8H210v-2.7c0-0.9-0.3-1.5-1-1.5c-0.5,0-0.9,0.4-1,0.8
		c0,0.1-0.1,0.3-0.1,0.4v3H207v-2.9c0-0.8-0.3-1.3-1-1.3c-0.5,0-0.9,0.4-1.1,0.9c-0.1,0.1-0.1,0.3-0.1,0.4v2.9h-0.9V36.7z"/>
</g>
<g class="st13">
	<path class="st14" d="M212.2,33.2h0.9v3l0,0c0.3-0.5,0.9-0.9,1.6-0.9c1.2,0,2,1,2,2.5c0,1.7-1.1,2.6-2.2,2.6
		c-0.7,0-1.2-0.3-1.6-0.9l0,0v0.8h-0.8c0-0.3,0-0.8,0-1.2v-5.9H212.2z M213.1,38.3c0,0.1,0,0.2,0,0.3c0.2,0.6,0.7,1,1.3,1
		c0.9,0,1.5-0.7,1.5-1.9c0-1-0.5-1.8-1.4-1.8c-0.6,0-1.2,0.4-1.3,1.1c0,0.1,0,0.2,0,0.4v0.9H213.1z"/>
</g>
<g class="st13">
	<path class="st14" d="M217.9,36.9c0-0.6,0-1.1,0-1.5h0.8v0.9l0,0c0.2-0.6,0.8-1.1,1.3-1.1c0.1,0,0.2,0,0.2,0V36c-0.1,0-0.2,0-0.3,0
		c-0.6,0-1.1,0.5-1.2,1.1c0,0.1,0,0.3,0,0.4v2.6h-0.9L217.9,36.9L217.9,36.9z"/>
</g>
<g class="st13">
	<path class="st14" d="M221.7,38c0,1.2,0.8,1.7,1.6,1.7c0.6,0,1-0.1,1.3-0.2l0.2,0.6c-0.3,0.1-0.8,0.3-1.6,0.3c-1.5,0-2.4-1-2.4-2.4
		c0-1.5,0.9-2.6,2.3-2.6c1.6,0,2,1.4,2,2.3c0,0.2,0,0.3,0,0.4L221.7,38L221.7,38z M224.3,37.4c0-0.6-0.2-1.4-1.2-1.4
		c-0.9,0-1.3,0.8-1.3,1.4H224.3z"/>
</g>
<g class="st13">
	<path class="st14" d="M260.6,33.5v2.8h3.3v-2.8h0.9v6.7h-0.9V37h-3.3v3.2h-0.9v-6.7H260.6z"/>
</g>
<g class="st13">
	<path class="st14" d="M268.3,40.4c-1.3,0-2.3-1-2.3-2.5c0-1.6,1.1-2.6,2.4-2.6c1.4,0,2.3,1,2.3,2.5
		C270.7,39.6,269.4,40.4,268.3,40.4L268.3,40.4z M268.3,39.7c0.8,0,1.5-0.8,1.5-1.9c0-0.8-0.4-1.8-1.4-1.8s-1.5,1-1.5,1.9
		C266.8,38.9,267.4,39.7,268.3,39.7L268.3,39.7z"/>
</g>
<g class="st13">
	<path class="st14" d="M271.8,36.9c0-0.6,0-1.1,0-1.5h0.8v0.9l0,0c0.2-0.6,0.8-1.1,1.3-1.1c0.1,0,0.2,0,0.2,0V36c-0.1,0-0.2,0-0.3,0
		c-0.6,0-1.1,0.5-1.2,1.1c0,0.1,0,0.3,0,0.4v2.6h-0.9v-3.2H271.8z"/>
</g>
<g class="st13">
	<path class="st14" d="M278.5,39.1c0,0.4,0,0.8,0.1,1.2h-0.8l-0.1-0.6l0,0c-0.3,0.4-0.8,0.7-1.5,0.7c-1,0-1.5-0.7-1.5-1.4
		c0-1.2,1-1.8,2.9-1.8v-0.1c0-0.4-0.1-1.1-1.1-1.1c-0.5,0-0.9,0.1-1.3,0.4l-0.2-0.6c0.4-0.2,1-0.4,1.6-0.4c1.5,0,1.8,1,1.8,2v1.7
		H278.5z M277.7,37.8c-1,0-2,0.2-2,1.1c0,0.6,0.4,0.8,0.8,0.8c0.6,0,1-0.4,1.2-0.8c0-0.1,0-0.2,0-0.3V37.8z"/>
</g>
<g class="st13">
	<path class="st14" d="M279.8,39.4c0.3,0.2,0.7,0.3,1.2,0.3c0.6,0,0.9-0.3,0.9-0.7s-0.2-0.6-0.9-0.9c-0.9-0.3-1.3-0.8-1.3-1.4
		c0-0.8,0.6-1.4,1.7-1.4c0.5,0,0.9,0.1,1.2,0.3l-0.2,0.6c-0.2-0.1-0.5-0.3-1-0.3s-0.8,0.3-0.8,0.7s0.3,0.6,0.9,0.8
		c0.8,0.3,1.3,0.7,1.3,1.4c0,0.9-0.7,1.5-1.8,1.5c-0.5,0-1-0.1-1.4-0.3L279.8,39.4z"/>
</g>
<g class="st13">
	<path class="st14" d="M286,37c0-0.6,0-1.1,0-1.6h0.8l0.1,0.8l0,0c0.3-0.6,0.9-0.9,1.7-0.9c1.2,0,2.1,1,2.1,2.5
		c0,1.7-1.1,2.6-2.2,2.6c-0.6,0-1.2-0.3-1.5-0.8l0,0v2.6h-1V37z M286.8,38.3c0,0.1,0,0.2,0,0.4c0.2,0.6,0.7,1,1.3,1
		c0.9,0,1.5-0.8,1.5-1.9c0-1-0.5-1.8-1.4-1.8c-0.6,0-1.2,0.4-1.3,1.1c0,0.1-0.1,0.2-0.1,0.3V38.3z"/>
</g>
<g class="st13">
	<path class="st14" d="M293.7,40.4c-1.3,0-2.3-1-2.3-2.5c0-1.6,1.1-2.6,2.4-2.6c1.4,0,2.3,1,2.3,2.5
		C296.1,39.6,294.9,40.4,293.7,40.4L293.7,40.4z M293.8,39.7c0.8,0,1.5-0.8,1.5-1.9c0-0.8-0.4-1.8-1.4-1.8s-1.5,1-1.5,1.9
		C292.3,38.9,292.9,39.7,293.8,39.7L293.8,39.7z"/>
</g>
<g class="st13">
	<path class="st14" d="M297.3,36.9c0-0.6,0-1.1,0-1.5h0.8v0.9l0,0c0.2-0.6,0.8-1.1,1.3-1.1c0.1,0,0.2,0,0.2,0V36c-0.1,0-0.2,0-0.3,0
		c-0.6,0-1.1,0.5-1.2,1.1c0,0.1,0,0.3,0,0.4v2.6h-0.9v-3.2H297.3z"/>
</g>
<g class="st13">
	<path class="st14" d="M306.1,39.1c0,0.4,0,0.8,0.1,1.2h-0.8l-0.1-0.6l0,0c-0.3,0.4-0.8,0.7-1.5,0.7c-1,0-1.5-0.7-1.5-1.4
		c0-1.2,1-1.8,2.9-1.8v-0.1c0-0.4-0.1-1.1-1.1-1.1c-0.5,0-0.9,0.1-1.3,0.4l-0.2-0.6c0.4-0.2,1-0.4,1.6-0.4c1.5,0,1.8,1,1.8,2v1.7
		H306.1z M305.2,37.8c-1,0-2,0.2-2,1.1c0,0.6,0.4,0.8,0.8,0.8c0.6,0,1-0.4,1.2-0.8c0-0.1,0-0.2,0-0.3V37.8z"/>
</g>
<g class="st13">
	<path class="st14" d="M307.3,39.4c0.3,0.2,0.7,0.3,1.2,0.3c0.6,0,0.9-0.3,0.9-0.7s-0.2-0.6-0.9-0.9c-0.9-0.3-1.3-0.8-1.3-1.4
		c0-0.8,0.6-1.4,1.7-1.4c0.5,0,0.9,0.1,1.2,0.3l-0.2,0.6c-0.2-0.1-0.5-0.3-1-0.3s-0.8,0.3-0.8,0.7s0.3,0.6,0.9,0.8
		c0.8,0.3,1.3,0.7,1.3,1.4c0,0.9-0.7,1.5-1.8,1.5c-0.5,0-1-0.1-1.4-0.3L307.3,39.4z"/>
</g>
<g class="st13">
	<path class="st14" d="M313.4,40.4c-1.3,0-2.3-1-2.3-2.5c0-1.6,1.1-2.6,2.4-2.6c1.4,0,2.3,1,2.3,2.5
		C315.8,39.6,314.6,40.4,313.4,40.4L313.4,40.4z M313.4,39.7c0.8,0,1.5-0.8,1.5-1.9c0-0.8-0.4-1.8-1.4-1.8s-1.5,1-1.5,1.9
		C312,38.9,312.6,39.7,313.4,39.7L313.4,39.7z"/>
</g>
<g class="st13">
	<path class="st14" d="M320.4,40.1c-0.2,0.1-0.7,0.3-1.4,0.3c-1.5,0-2.4-1-2.4-2.5s1-2.6,2.6-2.6c0.5,0,1,0.1,1.2,0.3l-0.2,0.7
		c-0.2-0.1-0.5-0.2-1-0.2c-1.1,0-1.7,0.8-1.7,1.8c0,1.1,0.7,1.8,1.7,1.8c0.5,0,0.8-0.1,1.1-0.2L320.4,40.1z"/>
</g>
<g class="st13">
	<path class="st14" d="M321.8,34.6c-0.3,0-0.5-0.2-0.5-0.5s0.2-0.5,0.5-0.5s0.5,0.2,0.5,0.5C322.4,34.3,322.2,34.6,321.8,34.6
		L321.8,34.6z M321.4,40.2v-4.8h0.9v4.8H321.4z"/>
</g>
<g class="st13">
	<path class="st14" d="M327.1,39.1c0,0.4,0,0.8,0.1,1.2h-0.8l-0.1-0.6l0,0c-0.3,0.4-0.8,0.7-1.5,0.7c-1,0-1.5-0.7-1.5-1.4
		c0-1.2,1-1.8,2.9-1.8v-0.1c0-0.4-0.1-1.1-1.1-1.1c-0.5,0-0.9,0.1-1.3,0.4l-0.2-0.6c0.4-0.2,1-0.4,1.6-0.4c1.5,0,1.8,1,1.8,2v1.7
		H327.1z M326.3,37.8c-1,0-2,0.2-2,1.1c0,0.6,0.4,0.8,0.8,0.8c0.6,0,1-0.4,1.2-0.8c0-0.1,0-0.2,0-0.3V37.8z"/>
	<path class="st14" d="M332.7,33.2V39c0,0.4,0,0.9,0,1.2H332v-0.8l0,0c-0.3,0.5-0.8,1-1.6,1c-1.2,0-2.1-1-2.1-2.5
		c0-1.6,1-2.6,2.2-2.6c0.7,0,1.2,0.3,1.5,0.7l0,0v-2.9L332.7,33.2L332.7,33.2z M331.9,37.4c0-0.1,0-0.3,0-0.4c-0.1-0.5-0.6-1-1.3-1
		c-0.9,0-1.4,0.8-1.4,1.9c0,1,0.5,1.8,1.4,1.8c0.6,0,1.1-0.4,1.3-1.1c0-0.1,0-0.2,0-0.4V37.4z"/>
</g>
<g class="st13">
	<path class="st14" d="M336.2,40.4c-1.3,0-2.3-1-2.3-2.5c0-1.6,1.1-2.6,2.4-2.6c1.4,0,2.3,1,2.3,2.5
		C338.6,39.6,337.4,40.4,336.2,40.4L336.2,40.4z M336.2,39.7c0.8,0,1.5-0.8,1.5-1.9c0-0.8-0.4-1.8-1.4-1.8s-1.5,1-1.5,1.9
		C334.8,38.9,335.4,39.7,336.2,39.7L336.2,39.7z"/>
</g>
<g class="st13">
	<path class="st14" d="M374.1,33.5v2.8h3.3v-2.8h0.9v6.7h-0.9V37h-3.3v3.2h-0.9v-6.7H374.1z"/>
</g>
<g class="st13">
	<path class="st14" d="M381.8,40.4c-1.3,0-2.3-1-2.3-2.5c0-1.6,1.1-2.6,2.4-2.6c1.4,0,2.3,1,2.3,2.5C384.2,39.6,383,40.4,381.8,40.4
		L381.8,40.4z M381.8,39.7c0.8,0,1.5-0.8,1.5-1.9c0-0.8-0.4-1.8-1.4-1.8s-1.5,1-1.5,1.9C380.4,38.9,381,39.7,381.8,39.7L381.8,39.7z
		"/>
</g>
<g class="st13">
	<path class="st14" d="M385.3,36.9c0-0.6,0-1.1,0-1.5h0.8v0.9l0,0c0.2-0.6,0.8-1.1,1.3-1.1c0.1,0,0.2,0,0.2,0V36c-0.1,0-0.2,0-0.3,0
		c-0.6,0-1.1,0.5-1.2,1.1c0,0.1,0,0.3,0,0.4v2.6h-0.9v-3.2H385.3z"/>
</g>
<g class="st13">
	<path class="st14" d="M392,39.1c0,0.4,0,0.8,0.1,1.2h-0.8l-0.1-0.6l0,0c-0.3,0.4-0.8,0.7-1.5,0.7c-1,0-1.5-0.7-1.5-1.4
		c0-1.2,1-1.8,2.9-1.8v-0.1c0-0.4-0.1-1.1-1.1-1.1c-0.5,0-0.9,0.1-1.3,0.4l-0.2-0.6c0.4-0.2,1-0.4,1.6-0.4c1.5,0,1.8,1,1.8,2v1.7
		H392z M391.2,37.8c-1,0-2,0.2-2,1.1c0,0.6,0.4,0.8,0.8,0.8c0.6,0,1-0.4,1.2-0.8c0-0.1,0-0.2,0-0.3V37.8z"/>
</g>
<g class="st13">
	<path class="st14" d="M393.3,39.4c0.3,0.2,0.7,0.3,1.2,0.3c0.6,0,0.9-0.3,0.9-0.7s-0.2-0.6-0.9-0.9c-0.9-0.3-1.3-0.8-1.3-1.4
		c0-0.8,0.6-1.4,1.7-1.4c0.5,0,0.9,0.1,1.2,0.3l-0.2,0.6c-0.2-0.1-0.5-0.3-1-0.3s-0.8,0.3-0.8,0.7s0.3,0.6,0.9,0.8
		c0.8,0.3,1.3,0.7,1.3,1.4c0,0.9-0.7,1.5-1.8,1.5c-0.5,0-1-0.1-1.4-0.3L393.3,39.4z"/>
</g>
<g class="st13">
	<path class="st14" d="M399.5,33.2h0.9v3l0,0c0.1-0.2,0.4-0.5,0.6-0.6c0.3-0.2,0.6-0.2,0.9-0.2c0.7,0,1.7,0.4,1.7,2.1v2.9h-0.9v-2.8
		c0-0.8-0.3-1.4-1.1-1.4c-0.6,0-1,0.4-1.2,0.9c0,0.1-0.1,0.2-0.1,0.4v2.9h-0.9v-7.2H399.5z"/>
	<path class="st14" d="M407,40.4c-1.3,0-2.3-1-2.3-2.5c0-1.6,1.1-2.6,2.4-2.6c1.4,0,2.3,1,2.3,2.5C409.4,39.6,408.2,40.4,407,40.4
		L407,40.4z M407,39.7c0.8,0,1.5-0.8,1.5-1.9c0-0.8-0.4-1.8-1.4-1.8s-1.5,1-1.5,1.9C405.6,38.9,406.2,39.7,407,39.7L407,39.7z"/>
</g>
<g class="st13">
	<path class="st14" d="M410.5,36.7c0-0.5,0-0.9,0-1.3h0.8v0.8l0,0c0.3-0.5,0.7-0.9,1.5-0.9c0.7,0,1.1,0.4,1.4,1l0,0
		c0.1-0.3,0.3-0.5,0.5-0.6c0.3-0.2,0.6-0.3,1.1-0.3c0.6,0,1.6,0.4,1.6,2.1v2.8h-0.9v-2.7c0-0.9-0.3-1.5-1-1.5c-0.5,0-0.9,0.4-1,0.8
		c0,0.1-0.1,0.3-0.1,0.4v3h-0.9v-2.9c0-0.8-0.3-1.3-1-1.3c-0.5,0-0.9,0.4-1.1,0.9c-0.1,0.1-0.1,0.3-0.1,0.4v2.9h-0.9v-3.6H410.5z"/>
</g>
<g class="st13">
	<path class="st14" d="M418.9,33.2h0.9v3l0,0c0.3-0.5,0.9-0.9,1.6-0.9c1.2,0,2,1,2,2.5c0,1.7-1.1,2.6-2.2,2.6
		c-0.7,0-1.2-0.3-1.6-0.9l0,0v0.8h-0.8c0-0.3,0-0.8,0-1.2v-5.9H418.9z M419.8,38.3c0,0.1,0,0.2,0,0.3c0.2,0.6,0.7,1,1.3,1
		c0.9,0,1.5-0.7,1.5-1.9c0-1-0.5-1.8-1.4-1.8c-0.6,0-1.2,0.4-1.3,1.1c0,0.1-0.1,0.2-0.1,0.4V38.3z"/>
</g>
<g class="st13">
	<path class="st14" d="M424.6,36.9c0-0.6,0-1.1,0-1.5h0.8v0.9l0,0c0.2-0.6,0.8-1.1,1.3-1.1c0.1,0,0.2,0,0.2,0V36c-0.1,0-0.2,0-0.3,0
		c-0.6,0-1.1,0.5-1.2,1.1c0,0.1,0,0.3,0,0.4v2.6h-0.9v-3.2H424.6z"/>
</g>
<g class="st13">
	<path class="st14" d="M428.3,38c0,1.2,0.8,1.7,1.6,1.7c0.6,0,1-0.1,1.3-0.2l0.2,0.6c-0.3,0.1-0.8,0.3-1.6,0.3c-1.5,0-2.4-1-2.4-2.4
		c0-1.5,0.9-2.6,2.3-2.6c1.6,0,2,1.4,2,2.3c0,0.2,0,0.3,0,0.4L428.3,38L428.3,38z M430.9,37.4c0-0.6-0.2-1.4-1.2-1.4
		c-0.9,0-1.3,0.8-1.3,1.4H430.9z"/>
</g>
<g class="st13">
	<path class="st14" d="M467.3,33.5v2.8h3.3v-2.8h0.9v6.7h-0.9V37h-3.3v3.2h-0.9v-6.7H467.3z"/>
</g>
<g class="st13">
	<path class="st14" d="M474.9,40.4c-1.3,0-2.3-1-2.3-2.5c0-1.6,1.1-2.6,2.4-2.6c1.4,0,2.3,1,2.3,2.5
		C477.3,39.6,476.1,40.4,474.9,40.4L474.9,40.4z M475,39.7c0.8,0,1.5-0.8,1.5-1.9c0-0.8-0.4-1.8-1.4-1.8s-1.5,1-1.5,1.9
		C473.5,38.9,474.1,39.7,475,39.7L475,39.7z"/>
</g>
<g class="st13">
	<path class="st14" d="M478.5,36.9c0-0.6,0-1.1,0-1.5h0.8v0.9l0,0c0.2-0.6,0.8-1.1,1.3-1.1c0.1,0,0.2,0,0.2,0V36c-0.1,0-0.2,0-0.3,0
		c-0.6,0-1.1,0.5-1.2,1.1c0,0.1,0,0.3,0,0.4v2.6h-0.9v-3.2H478.5z"/>
</g>
<g class="st13">
	<path class="st14" d="M485.2,39.1c0,0.4,0,0.8,0.1,1.2h-0.8l-0.1-0.6l0,0c-0.3,0.4-0.8,0.7-1.5,0.7c-1,0-1.5-0.7-1.5-1.4
		c0-1.2,1-1.8,2.9-1.8v-0.1c0-0.4-0.1-1.1-1.1-1.1c-0.5,0-0.9,0.1-1.3,0.4l-0.2-0.6c0.4-0.2,1-0.4,1.6-0.4c1.5,0,1.8,1,1.8,2v1.7
		H485.2z M484.3,37.8c-1,0-2,0.2-2,1.1c0,0.6,0.4,0.8,0.8,0.8c0.6,0,1-0.4,1.2-0.8c0-0.1,0-0.2,0-0.3V37.8z"/>
</g>
<g class="st13">
	<path class="st14" d="M486.4,39.4c0.3,0.2,0.7,0.3,1.2,0.3c0.6,0,0.9-0.3,0.9-0.7s-0.2-0.6-0.9-0.9c-0.9-0.3-1.3-0.8-1.3-1.4
		c0-0.8,0.6-1.4,1.7-1.4c0.5,0,0.9,0.1,1.2,0.3l-0.2,0.6c-0.2-0.1-0.5-0.3-1-0.3s-0.8,0.3-0.8,0.7s0.3,0.6,0.9,0.8
		c0.8,0.3,1.3,0.7,1.3,1.4c0,0.9-0.7,1.5-1.8,1.5c-0.5,0-1-0.1-1.4-0.3L486.4,39.4z"/>
</g>
<g class="st13">
	<path class="st14" d="M492.6,37c0-0.6,0-1.1,0-1.6h0.8l0.1,0.8l0,0c0.3-0.6,0.9-0.9,1.7-0.9c1.2,0,2.1,1,2.1,2.5
		c0,1.7-1.1,2.6-2.2,2.6c-0.6,0-1.2-0.3-1.5-0.8l0,0v2.6h-0.9V37H492.6z M493.5,38.3c0,0.1,0,0.2,0,0.4c0.2,0.6,0.7,1,1.3,1
		c0.9,0,1.5-0.8,1.5-1.9c0-1-0.5-1.8-1.4-1.8c-0.6,0-1.2,0.4-1.3,1.1c0,0.1-0.1,0.2-0.1,0.3V38.3z"/>
</g>
<g class="st13">
	<path class="st14" d="M500.4,40.4c-1.3,0-2.3-1-2.3-2.5c0-1.6,1.1-2.6,2.4-2.6c1.4,0,2.3,1,2.3,2.5
		C502.8,39.6,501.6,40.4,500.4,40.4L500.4,40.4z M500.4,39.7c0.8,0,1.5-0.8,1.5-1.9c0-0.8-0.4-1.8-1.4-1.8s-1.5,1-1.5,1.9
		C499,38.9,499.6,39.7,500.4,39.7L500.4,39.7z"/>
</g>
<g class="st13">
	<path class="st14" d="M503.9,36.9c0-0.6,0-1.1,0-1.5h0.8v0.9l0,0c0.2-0.6,0.8-1.1,1.3-1.1c0.1,0,0.2,0,0.2,0V36c-0.1,0-0.2,0-0.3,0
		c-0.6,0-1.1,0.5-1.2,1.1c0,0.1,0,0.3,0,0.4v2.6h-0.9v-3.2H503.9z"/>
</g>
<g class="st13">
	<path class="st14" d="M512.7,39.1c0,0.4,0,0.8,0.1,1.2H512l-0.1-0.6l0,0c-0.3,0.4-0.8,0.7-1.5,0.7c-1,0-1.5-0.7-1.5-1.4
		c0-1.2,1-1.8,2.9-1.8v-0.1c0-0.4-0.1-1.1-1.1-1.1c-0.5,0-0.9,0.1-1.3,0.4l-0.2-0.6c0.4-0.2,1-0.4,1.6-0.4c1.5,0,1.8,1,1.8,2v1.7
		H512.7z M511.9,37.8c-1,0-2,0.2-2,1.1c0,0.6,0.4,0.8,0.8,0.8c0.6,0,1-0.4,1.2-0.8c0-0.1,0-0.2,0-0.3V37.8z"/>
</g>
<g class="st13">
	<path class="st14" d="M514,39.4c0.3,0.2,0.7,0.3,1.2,0.3c0.6,0,0.9-0.3,0.9-0.7s-0.2-0.6-0.9-0.9c-0.9-0.3-1.3-0.8-1.3-1.4
		c0-0.8,0.6-1.4,1.7-1.4c0.5,0,0.9,0.1,1.2,0.3l-0.2,0.6c-0.2-0.1-0.5-0.3-1-0.3s-0.8,0.3-0.8,0.7s0.3,0.6,0.9,0.8
		c0.8,0.3,1.3,0.7,1.3,1.4c0,0.9-0.7,1.5-1.8,1.5c-0.5,0-1-0.1-1.4-0.3L514,39.4z"/>
</g>
<g class="st13">
	<path class="st14" d="M520.1,40.4c-1.3,0-2.3-1-2.3-2.5c0-1.6,1.1-2.6,2.4-2.6c1.4,0,2.3,1,2.3,2.5
		C522.5,39.6,521.2,40.4,520.1,40.4L520.1,40.4z M520.1,39.7c0.8,0,1.5-0.8,1.5-1.9c0-0.8-0.4-1.8-1.4-1.8s-1.5,1-1.5,1.9
		C518.6,38.9,519.2,39.7,520.1,39.7L520.1,39.7z"/>
</g>
<g class="st13">
	<path class="st14" d="M527.1,40.1c-0.2,0.1-0.7,0.3-1.4,0.3c-1.5,0-2.4-1-2.4-2.5s1-2.6,2.6-2.6c0.5,0,1,0.1,1.2,0.3l-0.2,0.7
		c-0.2-0.1-0.5-0.2-1-0.2c-1.1,0-1.7,0.8-1.7,1.8c0,1.1,0.7,1.8,1.7,1.8c0.5,0,0.8-0.1,1.1-0.2L527.1,40.1z"/>
</g>
<g class="st13">
	<path class="st14" d="M528.5,34.6c-0.3,0-0.5-0.2-0.5-0.5s0.2-0.5,0.5-0.5s0.5,0.2,0.5,0.5C529.1,34.3,528.9,34.6,528.5,34.6
		L528.5,34.6z M528.1,40.2v-4.8h0.9v4.8H528.1z"/>
</g>
<g class="st13">
	<path class="st14" d="M533.8,39.1c0,0.4,0,0.8,0.1,1.2h-0.8l-0.1-0.6l0,0c-0.3,0.4-0.8,0.7-1.5,0.7c-1,0-1.5-0.7-1.5-1.4
		c0-1.2,1-1.8,2.9-1.8v-0.1c0-0.4-0.1-1.1-1.1-1.1c-0.5,0-0.9,0.1-1.3,0.4l-0.2-0.6c0.4-0.2,1-0.4,1.6-0.4c1.5,0,1.8,1,1.8,2
		L533.8,39.1L533.8,39.1z M532.9,37.8c-1,0-2,0.2-2,1.1c0,0.6,0.4,0.8,0.8,0.8c0.6,0,1-0.4,1.2-0.8c0-0.1,0-0.2,0-0.3V37.8z"/>
	<path class="st14" d="M539.4,33.2V39c0,0.4,0,0.9,0,1.2h-0.8v-0.8l0,0c-0.3,0.5-0.8,1-1.6,1c-1.2,0-2.1-1-2.1-2.5
		c0-1.6,1-2.6,2.2-2.6c0.7,0,1.2,0.3,1.5,0.7l0,0v-2.9L539.4,33.2L539.4,33.2z M538.5,37.4c0-0.1,0-0.3,0-0.4c-0.1-0.5-0.6-1-1.3-1
		c-0.9,0-1.4,0.8-1.4,1.9c0,1,0.5,1.8,1.4,1.8c0.6,0,1.1-0.4,1.3-1.1c0-0.1,0-0.2,0-0.4V37.4z"/>
</g>
<g class="st13">
	<path class="st14" d="M542.9,40.4c-1.3,0-2.3-1-2.3-2.5c0-1.6,1.1-2.6,2.4-2.6c1.4,0,2.3,1,2.3,2.5C545.3,39.6,544,40.4,542.9,40.4
		L542.9,40.4z M542.9,39.7c0.8,0,1.5-0.8,1.5-1.9c0-0.8-0.4-1.8-1.4-1.8s-1.5,1-1.5,1.9C541.4,38.9,542,39.7,542.9,39.7L542.9,39.7z
		"/>
</g>
<g class="st13">
	<path class="st14" d="M6.7,64L4,55.9h0.6L6,60.2c0.4,1.2,0.7,2.2,0.9,3.1l0,0c0.2-0.9,0.6-2,1-3.1l1.6-4.3h0.6l-3,8.1H6.7z"/>
</g>
<g class="st13">
	<path class="st14" d="M11.1,56c0.5-0.1,1.1-0.2,1.7-0.2c1,0,1.7,0.3,2.1,0.7s0.6,0.9,0.6,1.6c0,0.7-0.2,1.2-0.6,1.6
		c-0.5,0.6-1.4,0.9-2.4,0.9c-0.4,0-0.7,0-1-0.1V64h-0.6v-8H11.1z M11.7,60c0.3,0.1,0.6,0.1,1,0.1c1.5,0,2.3-0.7,2.3-2
		s-0.9-1.8-2.2-1.8c-0.5,0-0.9,0-1.1,0.1V60z"/>
</g>
<g class="st13">
	<path class="st14" d="M188,64v-0.3l0.7-0.7c2.2-2.1,3.1-3.2,3.1-4.6c0-0.9-0.4-1.8-1.7-1.8c-0.7,0-1.3,0.4-1.7,0.7l-0.2-0.4
		c0.5-0.5,1.2-0.8,2-0.8c1.6,0,2.2,1.2,2.2,2.1c0,1.5-1.1,2.8-3.1,4.7l-0.6,0.6l0,0h3.8V64H188z"/>
</g>
<g class="st13">
	<path class="st14" d="M196.5,64v-2.3h-3.7v-0.4l3.8-5.1h0.5v5h1.2v0.5H197V64H196.5z M196.5,61.2V58c0-0.4,0-0.7,0-1.1l0,0
		c-0.2,0.4-0.4,0.7-0.6,1l-2.4,3.2l0,0L196.5,61.2L196.5,61.2z"/>
</g>
<g class="st13">
	<path class="st14" d="M199.2,63.6c0.2,0,0.5,0,0.9-0.1c0.6-0.1,1.2-0.4,1.7-0.9c0.5-0.6,0.9-1.3,1.1-2.5l0,0c-0.5,0.6-1.2,1-2,1
		c-1.5,0-2.2-1.1-2.2-2.4c0-1.4,1-2.7,2.5-2.7c1.3,0,2.4,1.1,2.4,3.2c0,1.8-0.6,3-1.3,3.7c-0.5,0.5-1.2,0.9-1.8,1
		c-0.4,0.1-0.8,0.1-1.1,0.1v-0.4H199.2z M201,56.6c-1.1,0-1.8,0.9-1.8,2.2c0,1.2,0.7,1.9,1.8,1.9c0.8,0,1.5-0.4,1.8-1
		c0-0.1,0.1-0.2,0.1-0.3C202.9,57.7,202.3,56.6,201,56.6L201,56.6z"/>
</g>
<g class="st13">
	<path class="st14" d="M295.3,56.1c1.3,0,2.1,0.9,2.1,1.9c0,0.6-0.3,1.4-1.4,1.9l0,0c1.1,0.4,1.7,1.2,1.7,2.1c0,1.3-1.2,2.2-2.4,2.2
		c-1.4,0-2.4-0.9-2.4-2.1c0-1,0.6-1.7,1.6-2.2l0,0c-0.9-0.4-1.3-1.1-1.3-1.8C293.1,56.9,294.1,56.1,295.3,56.1L295.3,56.1z
		 M295.2,63.7c1.1,0,1.9-0.7,1.9-1.6c0-1.1-0.7-1.6-2-2c-1.1,0.3-1.7,1-1.7,1.9C293.3,62.9,294,63.7,295.2,63.7L295.2,63.7z
		 M295.3,56.5c-1,0-1.6,0.7-1.6,1.5c0,0.9,0.7,1.4,1.7,1.7c0.8-0.3,1.4-0.8,1.4-1.7C296.8,57.3,296.4,56.5,295.3,56.5L295.3,56.5z"
		/>
</g>
<g class="st13">
	<path class="st14" d="M299.3,64.1c-0.3,0-0.5-0.3-0.5-0.5c0-0.3,0.2-0.5,0.5-0.5s0.5,0.2,0.5,0.5C299.8,63.9,299.6,64.1,299.3,64.1
		L299.3,64.1z"/>
</g>
<g class="st13">
	<path class="st14" d="M301,63.6c0.2,0,0.5,0,0.9-0.1c0.6-0.1,1.2-0.4,1.7-0.9c0.5-0.6,0.9-1.3,1.1-2.5l0,0c-0.5,0.6-1.2,1-2,1
		c-1.5,0-2.2-1.1-2.2-2.4c0-1.4,1-2.7,2.5-2.7c1.3,0,2.4,1.1,2.4,3.2c0,1.8-0.6,3-1.3,3.7c-0.5,0.5-1.2,0.9-1.8,1
		c-0.4,0.1-0.8,0.1-1.1,0.1v-0.4H301z M302.8,56.6c-1.1,0-1.8,0.9-1.8,2.2c0,1.2,0.7,1.9,1.8,1.9c0.8,0,1.5-0.4,1.8-1
		c0-0.1,0.1-0.2,0.1-0.3C304.7,57.7,304.1,56.6,302.8,56.6L302.8,56.6z"/>
</g>
<g class="st13">
	<path class="st14" d="M399.7,56.8L399.7,56.8l-1.3,0.7l-0.1-0.5l1.5-0.9h0.5V64h-0.6V56.8z"/>
</g>
<g class="st13">
	<path class="st14" d="M405.8,64v-2.3H402v-0.4l3.8-5.1h0.5v5h1.2v0.5h-1.2V64H405.8z M405.8,61.2V58c0-0.4,0-0.7,0-1.1l0,0
		c-0.2,0.4-0.4,0.7-0.6,1l-2.4,3.2l0,0L405.8,61.2L405.8,61.2z"/>
</g>
<g class="st13">
	<path class="st14" d="M496.1,63.1c0.3,0.2,0.9,0.5,1.7,0.5c1.6,0,2-1.1,2-1.8c0-1.3-1.1-1.8-2.3-1.8H497v-0.5h0.5
		c0.9,0,2-0.5,2-1.6c0-0.7-0.4-1.4-1.5-1.4c-0.6,0-1.2,0.3-1.5,0.5l-0.2-0.4c0.4-0.3,1.1-0.6,1.8-0.6c1.5,0,2,0.9,2,1.8
		c0,0.8-0.5,1.5-1.5,1.8l0,0c1,0.2,1.8,0.9,1.8,2.1c0,1.2-0.8,2.3-2.6,2.3c-0.8,0-1.5-0.3-1.8-0.5L496.1,63.1z"/>
</g>
<g class="st13">
	<path class="st14" d="M502.1,64.1c-0.3,0-0.5-0.3-0.5-0.5c0-0.3,0.2-0.5,0.5-0.5s0.5,0.2,0.5,0.5C502.6,63.9,502.4,64.1,502.1,64.1
		L502.1,64.1z"/>
</g>
<g class="st13">
	<path class="st14" d="M506.7,64v-2.3H503v-0.4l3.8-5.1h0.5v5h1.2v0.5h-1.2V64H506.7z M506.7,61.2V58c0-0.4,0-0.7,0-1.1l0,0
		c-0.2,0.4-0.4,0.7-0.6,1l-2.4,3.2l0,0L506.7,61.2L506.7,61.2z"/>
</g>
<g class="st13">
	<path class="st14" d="M5,87v-8.1h0.5l3.1,4.8c0.7,1,1.1,1.8,1.5,2.5l0,0c-0.1-1.1-0.1-2-0.1-3.3v-4h0.6V87h-0.5L7,82.3
		c-0.6-0.9-1.2-1.8-1.6-2.6l0,0c0.1,1,0.1,1.9,0.1,3.2V87H5z"/>
</g>
<g class="st13">
	<path class="st14" d="M12.7,80.1c-0.3,0-0.4-0.2-0.4-0.5s0.2-0.5,0.5-0.5s0.5,0.2,0.5,0.5C13.2,79.9,13,80.1,12.7,80.1L12.7,80.1z
		 M12.5,87v-5.8H13V87H12.5z"/>
</g>
<g class="st13">
	<path class="st14" d="M14.7,81.2l1.3,3.6c0.2,0.6,0.4,1,0.6,1.5l0,0c0.2-0.5,0.4-1,0.6-1.5l1.4-3.6h0.6L16.8,87h-0.5L14,81.2H14.7z
		"/>
</g>
<g class="st13">
	<path class="st14" d="M20.2,84.1c0,1.8,1,2.6,2.2,2.6c0.8,0,1.3-0.2,1.6-0.3l0.1,0.4c-0.2,0.1-0.8,0.4-1.8,0.4
		c-1.7,0-2.7-1.2-2.7-2.9c0-1.9,1.1-3.1,2.6-3.1c1.9,0,2.2,1.8,2.2,2.6c0,0.2,0,0.2,0,0.3H20.2z M23.8,83.6c0-0.8-0.3-2-1.7-2
		c-1.3,0-1.8,1.1-1.9,2H23.8z"/>
</g>
<g class="st13">
	<path class="st14" d="M25.8,78.5h0.6V87h-0.6V78.5z"/>
</g>
<g class="st13">
	<path class="st14" d="M35.6,78.5v7.2c0,0.4,0,0.9,0,1.3h-0.5v-1.1l0,0c-0.3,0.6-1,1.2-2.1,1.2c-1.4,0-2.5-1.2-2.5-2.9
		c0-1.9,1.2-3.1,2.6-3.1c1,0,1.6,0.5,1.9,1l0,0v-3.7L35.6,78.5L35.6,78.5z M35,83.5c0-0.2,0-0.4-0.1-0.5c-0.2-0.8-0.9-1.4-1.8-1.4
		c-1.3,0-2.1,1.1-2.1,2.6c0,1.3,0.6,2.5,2,2.5c0.8,0,1.6-0.6,1.8-1.5c0-0.1,0.1-0.3,0.1-0.5v-1.2H35z"/>
</g>
<g class="st13">
	<path class="st14" d="M37.6,80.1c-0.3,0-0.4-0.2-0.4-0.5s0.2-0.5,0.5-0.5s0.5,0.2,0.5,0.5C38.1,79.9,37.9,80.1,37.6,80.1L37.6,80.1
		z M37.3,87v-5.8h0.6V87H37.3z"/>
</g>
<g class="st13">
	<path class="st14" d="M39.6,83c0-0.6,0-1.2,0-1.7h0.5v1.2l0,0c0.3-0.7,0.9-1.3,1.6-1.3c0.1,0,0.2,0,0.2,0v0.5c-0.1,0-0.2,0-0.3,0
		c-0.8,0-1.4,0.7-1.5,1.6c0,0.2,0,0.4,0,0.6V87h-0.6L39.6,83L39.6,83z"/>
</g>
<g class="st13">
	<path class="st14" d="M43,84.1c0,1.8,1,2.6,2.2,2.6c0.8,0,1.3-0.2,1.6-0.3l0.1,0.4c-0.2,0.1-0.8,0.4-1.8,0.4
		c-1.7,0-2.7-1.2-2.7-2.9c0-1.9,1.1-3.1,2.6-3.1c1.9,0,2.2,1.8,2.2,2.6c0,0.2,0,0.2,0,0.3H43z M46.7,83.6c0-0.8-0.3-2-1.7-2
		c-1.3,0-1.8,1.1-1.9,2H46.7z"/>
</g>
<g class="st13">
	<path class="st14" d="M52.7,86.7c-0.3,0.1-0.9,0.4-1.7,0.4c-1.7,0-2.8-1.2-2.8-2.9c0-1.8,1.2-3.1,3-3.1c0.7,0,1.3,0.2,1.5,0.4
		L52.5,82c-0.3-0.2-0.7-0.3-1.4-0.3c-1.5,0-2.3,1.2-2.3,2.5c0,1.5,0.9,2.5,2.3,2.5c0.7,0,1.1-0.2,1.4-0.3L52.7,86.7z"/>
</g>
<g class="st13">
	<path class="st14" d="M55.1,80v1.3h1.6v0.5h-1.6v3.7c0,0.7,0.2,1.2,0.8,1.2c0.3,0,0.5,0,0.7-0.1l0.1,0.4c-0.2,0.1-0.5,0.1-0.8,0.1
		c-0.4,0-0.8-0.1-1-0.4c-0.3-0.3-0.4-0.8-0.4-1.4v-3.6h-1v-0.5h1v-1.1L55.1,80z"/>
</g>
<g class="st13">
	<path class="st14" d="M58.1,80.1c-0.3,0-0.4-0.2-0.4-0.5s0.2-0.5,0.5-0.5s0.5,0.2,0.5,0.5C58.6,79.9,58.4,80.1,58.1,80.1L58.1,80.1
		z M57.9,87v-5.8h0.6V87H57.9z"/>
</g>
<g class="st13">
	<path class="st14" d="M60.1,81.2l1.3,3.6c0.2,0.6,0.4,1,0.6,1.5l0,0c0.2-0.5,0.4-1,0.6-1.5l1.4-3.6h0.6L62.3,87h-0.5l-2.3-5.8H60.1
		z"/>
</g>
<g class="st13">
	<path class="st14" d="M67.7,87.1c-1.5,0-2.6-1.2-2.6-3c0-2,1.3-3.1,2.7-3.1c1.6,0,2.7,1.2,2.7,3C70.4,86.2,68.9,87.1,67.7,87.1
		L67.7,87.1z M67.7,86.7c1.2,0,2.1-1.1,2.1-2.6c0-1.1-0.6-2.5-2.1-2.5s-2.1,1.3-2.1,2.5C65.6,85.6,66.5,86.7,67.7,86.7L67.7,86.7z"
		/>
</g>
<g class="st13">
	<path class="st14" d="M184.4,87v-0.3l0.7-0.7c2.2-2.1,3.1-3.2,3.1-4.6c0-0.9-0.4-1.8-1.7-1.8c-0.7,0-1.3,0.4-1.7,0.7l-0.2-0.4
		c0.5-0.5,1.2-0.8,2-0.8c1.6,0,2.2,1.2,2.2,2.1c0,1.5-1.1,2.8-3.1,4.7l-0.6,0.6l0,0h3.8V87H184.4z"/>
</g>
<g class="st13">
	<path class="st14" d="M189.8,88.5c0.2-0.5,0.5-1.8,0.6-2.5l0.8-0.1c-0.2,0.9-0.7,2.3-0.9,2.6H189.8z"/>
</g>
<g class="st13">
	<path class="st14" d="M192.2,87v-0.3l0.7-0.7c2.2-2.1,3.1-3.2,3.1-4.6c0-0.9-0.4-1.8-1.7-1.8c-0.7,0-1.3,0.4-1.7,0.7l-0.2-0.4
		c0.5-0.5,1.2-0.8,2-0.8c1.6,0,2.2,1.2,2.2,2.1c0,1.5-1.1,2.8-3.1,4.7l-0.6,0.6l0,0h3.8V87H192.2z"/>
</g>
<g class="st13">
	<path class="st14" d="M200.6,87v-2.3h-3.7v-0.4l3.8-5.1h0.5v5h1.2v0.5h-1.2V87H200.6z M200.6,84.2V81c0-0.4,0-0.7,0-1.1l0,0
		c-0.2,0.4-0.4,0.7-0.6,1l-2.4,3.2l0,0L200.6,84.2L200.6,84.2z"/>
</g>
<g class="st13">
	<path class="st14" d="M204.5,79.8L204.5,79.8l-1.3,0.7l-0.1-0.5l1.5-0.9h0.5V87h-0.6L204.5,79.8L204.5,79.8z"/>
</g>
<g class="st13">
	<path class="st14" d="M293.3,79.8L293.3,79.8l-1.3,0.7l-0.1-0.5l1.5-0.9h0.5V87h-0.6V79.8z"/>
</g>
<g class="st13">
	<path class="st14" d="M300.5,79.2v0.4L297,87h-0.6l3.5-7.3l0,0h-4v-0.5H300.5z"/>
</g>
<g class="st13">
	<path class="st14" d="M300.7,87.1c-0.3,0-0.5-0.3-0.5-0.5c0-0.3,0.2-0.5,0.5-0.5s0.5,0.2,0.5,0.5S301.1,87.1,300.7,87.1L300.7,87.1
		z"/>
</g>
<g class="st13">
	<path class="st14" d="M306.5,79.7h-2.9l-0.4,2.5c0.2,0,0.4-0.1,0.7-0.1c0.5,0,1,0.1,1.5,0.3c0.6,0.3,1.2,1,1.2,2
		c0,1.6-1.2,2.6-2.6,2.6c-0.8,0-1.5-0.3-1.8-0.5l0.2-0.5c0.3,0.2,0.9,0.5,1.6,0.5c1.1,0,2-0.8,2-2c0-1.1-0.7-2-2.3-2
		c-0.5,0-0.8,0-1.1,0.1l0.5-3.5h3.4L306.5,79.7L306.5,79.7z"/>
</g>
<g class="st13">
	<path class="st14" d="M394.8,87v-0.3l0.7-0.7c2.2-2.1,3.1-3.2,3.1-4.6c0-0.9-0.4-1.8-1.7-1.8c-0.7,0-1.3,0.4-1.7,0.7l-0.2-0.4
		c0.5-0.5,1.2-0.8,2-0.8c1.6,0,2.2,1.2,2.2,2.1c0,1.5-1.1,2.8-3.1,4.7l-0.6,0.6l0,0h3.8V87H394.8z"/>
</g>
<g class="st13">
	<path class="st14" d="M404.9,79.2v0.4l-3.5,7.4h-0.6l3.5-7.3l0,0h-4v-0.5H404.9z"/>
</g>
<g class="st13">
	<path class="st14" d="M408.4,87v-2.3h-3.7v-0.4l3.8-5.1h0.5v5h1.2v0.5H409V87H408.4z M408.4,84.2V81c0-0.4,0-0.7,0-1.1l0,0
		c-0.2,0.4-0.4,0.7-0.6,1l-2.4,3.2l0,0L408.4,84.2L408.4,84.2z"/>
</g>
<g class="st13">
	<path class="st14" d="M498.2,79.1c1.3,0,2.1,0.9,2.1,1.9c0,0.6-0.3,1.4-1.4,1.9l0,0c1.1,0.4,1.7,1.2,1.7,2.1c0,1.3-1.2,2.2-2.4,2.2
		c-1.4,0-2.4-0.9-2.4-2.1c0-1,0.6-1.7,1.6-2.2l0,0c-0.9-0.4-1.3-1.1-1.3-1.8C495.9,79.9,496.9,79.1,498.2,79.1L498.2,79.1z
		 M498.1,86.7c1.1,0,1.9-0.7,1.9-1.6c0-1.1-0.7-1.6-2-2c-1.1,0.3-1.7,1-1.7,1.9C496.2,85.9,496.9,86.7,498.1,86.7L498.1,86.7z
		 M498.1,79.5c-1,0-1.6,0.7-1.6,1.5c0,0.9,0.7,1.4,1.7,1.7c0.8-0.3,1.4-0.8,1.4-1.7C499.6,80.3,499.2,79.5,498.1,79.5L498.1,79.5z"
		/>
</g>
<g class="st13">
	<path class="st14" d="M502.1,87.1c-0.3,0-0.5-0.3-0.5-0.5c0-0.3,0.2-0.5,0.5-0.5s0.5,0.2,0.5,0.5S502.4,87.1,502.1,87.1L502.1,87.1
		z"/>
</g>
<g class="st13">
	<path class="st14" d="M506.2,79.1c1.3,0,2.1,0.9,2.1,1.9c0,0.6-0.3,1.4-1.4,1.9l0,0c1.1,0.4,1.7,1.2,1.7,2.1c0,1.3-1.2,2.2-2.4,2.2
		c-1.4,0-2.4-0.9-2.4-2.1c0-1,0.6-1.7,1.6-2.2l0,0c-0.9-0.4-1.3-1.1-1.3-1.8C503.9,79.9,504.9,79.1,506.2,79.1L506.2,79.1z
		 M506.1,86.7c1.1,0,1.9-0.7,1.9-1.6c0-1.1-0.7-1.6-2-2c-1.1,0.3-1.7,1-1.7,1.9C504.2,85.9,504.9,86.7,506.1,86.7L506.1,86.7z
		 M506.1,79.5c-1,0-1.6,0.7-1.6,1.5c0,0.9,0.7,1.4,1.7,1.7c0.8-0.3,1.4-0.8,1.4-1.7C507.6,80.3,507.2,79.5,506.1,79.5L506.1,79.5z"
		/>
</g>
<g class="st13">
	<path class="st14" d="M186.7,102.1c1.3,0,2.1,0.9,2.1,1.9c0,0.6-0.3,1.4-1.4,1.9l0,0c1.1,0.4,1.7,1.2,1.7,2.1
		c0,1.3-1.2,2.2-2.4,2.2c-1.4,0-2.4-0.9-2.4-2.1c0-1,0.6-1.7,1.6-2.2l0,0c-0.9-0.4-1.3-1.1-1.3-1.8
		C184.4,102.9,185.4,102.1,186.7,102.1L186.7,102.1z M186.6,109.7c1.1,0,1.9-0.7,1.9-1.6c0-1.1-0.7-1.6-2-2c-1.1,0.3-1.7,1-1.7,1.9
		C184.7,108.9,185.4,109.7,186.6,109.7L186.6,109.7z M186.6,102.5c-1,0-1.6,0.7-1.6,1.5c0,0.9,0.7,1.4,1.7,1.7
		c0.8-0.3,1.4-0.8,1.4-1.7C188.1,103.3,187.7,102.5,186.6,102.5L186.6,102.5z"/>
</g>
<g class="st13">
	<path class="st14" d="M189.7,111.5c0.2-0.5,0.5-1.8,0.6-2.5l0.8-0.1c-0.2,0.9-0.7,2.3-0.9,2.6H189.7z"/>
</g>
<g class="st13">
	<path class="st14" d="M194.6,102.1c1.3,0,2.1,0.9,2.1,1.9c0,0.6-0.3,1.4-1.4,1.9l0,0c1.1,0.4,1.7,1.2,1.7,2.1
		c0,1.3-1.2,2.2-2.4,2.2c-1.4,0-2.4-0.9-2.4-2.1c0-1,0.6-1.7,1.6-2.2l0,0c-0.9-0.4-1.3-1.1-1.3-1.8
		C192.4,102.9,193.4,102.1,194.6,102.1L194.6,102.1z M194.5,109.7c1.1,0,1.9-0.7,1.9-1.6c0-1.1-0.7-1.6-2-2c-1.1,0.3-1.7,1-1.7,1.9
		S193.3,109.7,194.5,109.7L194.5,109.7z M194.6,102.5c-1,0-1.6,0.7-1.6,1.5c0,0.9,0.7,1.4,1.7,1.7c0.8-0.3,1.4-0.8,1.4-1.7
		C196.1,103.3,195.7,102.5,194.6,102.5L194.6,102.5z"/>
</g>
<g class="st13">
	<path class="st14" d="M199.6,102.8L199.6,102.8l-1.3,0.7l-0.1-0.5l1.5-0.9h0.5v7.8h-0.6L199.6,102.8L199.6,102.8z"/>
</g>
<g class="st13">
	<path class="st14" d="M204.8,102.1c1.3,0,2.1,0.9,2.1,1.9c0,0.6-0.3,1.4-1.4,1.9l0,0c1.1,0.4,1.7,1.2,1.7,2.1
		c0,1.3-1.2,2.2-2.4,2.2c-1.4,0-2.4-0.9-2.4-2.1c0-1,0.6-1.7,1.6-2.2l0,0c-0.9-0.4-1.3-1.1-1.3-1.8
		C202.6,102.9,203.6,102.1,204.8,102.1L204.8,102.1z M204.7,109.7c1.1,0,1.9-0.7,1.9-1.6c0-1.1-0.7-1.6-2-2c-1.1,0.3-1.7,1-1.7,1.9
		C202.8,108.9,203.5,109.7,204.7,109.7L204.7,109.7z M204.8,102.5c-1,0-1.6,0.7-1.6,1.5c0,0.9,0.7,1.4,1.7,1.7
		c0.8-0.3,1.4-0.8,1.4-1.7C206.3,103.3,205.9,102.5,204.8,102.5L204.8,102.5z"/>
</g>
<g class="st13">
	<path class="st14" d="M290.9,110v-0.3l0.7-0.7c2.2-2.1,3.1-3.2,3.1-4.6c0-0.9-0.4-1.8-1.7-1.8c-0.7,0-1.3,0.4-1.7,0.7l-0.2-0.4
		c0.5-0.5,1.2-0.8,2-0.8c1.6,0,2.2,1.2,2.2,2.1c0,1.5-1.1,2.8-3.1,4.7l-0.6,0.6l0,0h3.8v0.5L290.9,110L290.9,110z"/>
</g>
<g class="st13">
	<path class="st14" d="M298.3,102.8L298.3,102.8l-1.3,0.7l-0.1-0.5l1.5-0.9h0.5v7.8h-0.6V102.8z"/>
</g>
<g class="st13">
	<path class="st14" d="M301.7,110.1c-0.3,0-0.5-0.3-0.5-0.5c0-0.3,0.2-0.5,0.5-0.5s0.5,0.2,0.5,0.5S302,110.1,301.7,110.1
		L301.7,110.1z"/>
</g>
<g class="st13">
	<path class="st14" d="M304.6,102.8L304.6,102.8l-1.3,0.7l-0.1-0.5l1.5-0.9h0.5v7.8h-0.6V102.8z"/>
</g>
<g class="st13">
	<path class="st14" d="M397.4,110v-2.3h-3.7v-0.4l3.8-5.1h0.5v5h1.2v0.5H398v2.3H397.4z M397.4,107.2V104c0-0.4,0-0.7,0-1.1l0,0
		c-0.2,0.4-0.4,0.7-0.6,1l-2.4,3.2l0,0L397.4,107.2L397.4,107.2z"/>
</g>
<g class="st13">
	<path class="st14" d="M402.5,102.1c1.3,0,2.1,0.9,2.1,1.9c0,0.6-0.3,1.4-1.4,1.9l0,0c1.1,0.4,1.7,1.2,1.7,2.1
		c0,1.3-1.2,2.2-2.4,2.2c-1.4,0-2.4-0.9-2.4-2.1c0-1,0.6-1.7,1.6-2.2l0,0c-0.9-0.4-1.3-1.1-1.3-1.8
		C400.2,102.9,401.2,102.1,402.5,102.1L402.5,102.1z M402.4,109.7c1.1,0,1.9-0.7,1.9-1.6c0-1.1-0.7-1.6-2-2c-1.1,0.3-1.7,1-1.7,1.9
		C400.5,108.9,401.2,109.7,402.4,109.7L402.4,109.7z M402.4,102.5c-1,0-1.6,0.7-1.6,1.5c0,0.9,0.7,1.4,1.7,1.7
		c0.8-0.3,1.4-0.8,1.4-1.7C403.9,103.3,403.5,102.5,402.4,102.5L402.4,102.5z"/>
</g>
<g class="st13">
	<path class="st14" d="M408.1,110.1c-1.2,0-2.4-1.2-2.4-4s1.2-4.1,2.6-4.1s2.4,1.2,2.4,3.9C410.7,108.8,409.6,110.1,408.1,110.1
		L408.1,110.1z M408.2,109.7c1.3,0,1.9-1.5,1.9-3.6c0-2-0.6-3.5-1.9-3.5c-1.1,0-1.9,1.4-1.9,3.5C406.3,108.2,407,109.7,408.2,109.7
		L408.2,109.7z"/>
</g>
<g class="st13">
	<path class="st14" d="M501.8,102.2v0.4l-3.5,7.4h-0.6l3.5-7.3l0,0h-4v-0.5H501.8z"/>
</g>
<g class="st13">
	<path class="st14" d="M502.1,110.1c-0.3,0-0.5-0.3-0.5-0.5c0-0.3,0.2-0.5,0.5-0.5s0.5,0.2,0.5,0.5S502.4,110.1,502.1,110.1
		L502.1,110.1z"/>
</g>
<g class="st13">
	<path class="st14" d="M506.2,102.1c1.3,0,2.1,0.9,2.1,1.9c0,0.6-0.3,1.4-1.4,1.9l0,0c1.1,0.4,1.7,1.2,1.7,2.1
		c0,1.3-1.2,2.2-2.4,2.2c-1.4,0-2.4-0.9-2.4-2.1c0-1,0.6-1.7,1.6-2.2l0,0c-0.9-0.4-1.3-1.1-1.3-1.8
		C503.9,102.9,504.9,102.1,506.2,102.1L506.2,102.1z M506.1,109.7c1.1,0,1.9-0.7,1.9-1.6c0-1.1-0.7-1.6-2-2c-1.1,0.3-1.7,1-1.7,1.9
		C504.2,108.9,504.9,109.7,506.1,109.7L506.1,109.7z M506.1,102.5c-1,0-1.6,0.7-1.6,1.5c0,0.9,0.7,1.4,1.7,1.7
		c0.8-0.3,1.4-0.8,1.4-1.7C507.6,103.3,507.2,102.5,506.1,102.5L506.1,102.5z"/>
</g>
<g class="st13">
	<path class="st14" d="M5,133v-8.1h0.5l3.1,4.8c0.7,1,1.1,1.8,1.5,2.5l0,0c-0.1-1.1-0.1-2-0.1-3.3v-4h0.6v8.1h-0.5L7,128.3
		c-0.6-0.9-1.2-1.8-1.6-2.6l0,0c0.1,1,0.1,1.9,0.1,3.2v4.1L5,133L5,133z"/>
</g>
<g class="st13">
	<path class="st14" d="M12.7,126.1c-0.3,0-0.4-0.2-0.4-0.5s0.2-0.5,0.5-0.5s0.5,0.2,0.5,0.5C13.2,125.9,13,126.1,12.7,126.1
		L12.7,126.1z M12.5,133v-5.8H13v5.8H12.5z"/>
</g>
<g class="st13">
	<path class="st14" d="M14.7,127.3l1.3,3.6c0.2,0.6,0.4,1,0.6,1.5l0,0c0.2-0.5,0.4-1,0.6-1.5l1.4-3.6h0.6l-2.3,5.8h-0.5l-2.3-5.8
		H14.7z"/>
</g>
<g class="st13">
	<path class="st14" d="M20.2,130.1c0,1.8,1,2.6,2.2,2.6c0.8,0,1.3-0.2,1.6-0.3l0.1,0.4c-0.2,0.1-0.8,0.4-1.8,0.4
		c-1.7,0-2.7-1.2-2.7-2.9c0-1.9,1.1-3.1,2.6-3.1c1.9,0,2.2,1.8,2.2,2.6c0,0.2,0,0.2,0,0.3H20.2z M23.8,129.6c0-0.8-0.3-2-1.7-2
		c-1.3,0-1.8,1.1-1.9,2H23.8z"/>
</g>
<g class="st13">
	<path class="st14" d="M25.8,124.5h0.6v8.5h-0.6V124.5z"/>
</g>
<g class="st13">
	<path class="st14" d="M35.6,132.2c0,1.5-0.3,2.2-0.8,2.7s-1.3,0.7-2,0.7s-1.4-0.2-1.8-0.5l0.2-0.5c0.4,0.3,1,0.5,1.7,0.5
		c1.2,0,2.1-0.6,2.1-2.3V132l0,0c-0.3,0.6-1,1.1-2,1.1c-1.5,0-2.5-1.3-2.5-2.8c0-2,1.3-3.1,2.6-3.1c1.1,0,1.7,0.6,1.9,1.1l0,0v-1
		h0.5c0,0.4,0,0.9,0,1.5L35.6,132.2L35.6,132.2z M35,129.5c0-0.2,0-0.4-0.1-0.6c-0.2-0.7-0.8-1.3-1.8-1.3c-1.2,0-2.1,1-2.1,2.5
		c0,1.3,0.7,2.4,2,2.4c0.8,0,1.5-0.5,1.8-1.3c0.1-0.2,0.1-0.4,0.1-0.6v-1.1H35z"/>
</g>
<g class="st13">
	<path class="st14" d="M37.5,130.1c0,1.8,1,2.6,2.2,2.6c0.8,0,1.3-0.2,1.6-0.3l0.1,0.4c-0.2,0.1-0.8,0.4-1.8,0.4
		c-1.7,0-2.7-1.2-2.7-2.9c0-1.9,1.1-3.1,2.6-3.1c1.9,0,2.2,1.8,2.2,2.6c0,0.2,0,0.2,0,0.3H37.5z M41.2,129.6c0-0.8-0.3-2-1.7-2
		c-1.3,0-1.8,1.1-1.9,2H41.2z"/>
</g>
<g class="st13">
	<path class="st14" d="M43,129c0-0.6,0-1.2,0-1.7h0.5v1.2l0,0c0.3-0.7,0.9-1.3,1.6-1.3c0.1,0,0.2,0,0.2,0v0.5c-0.1,0-0.2,0-0.3,0
		c-0.8,0-1.4,0.7-1.5,1.6c0,0.2,0,0.4,0,0.6v3.2H43V129z"/>
</g>
<g class="st13">
	<path class="st14" d="M46.4,130.1c0,1.8,1,2.6,2.2,2.6c0.8,0,1.3-0.2,1.6-0.3l0.1,0.4c-0.2,0.1-0.8,0.4-1.8,0.4
		c-1.7,0-2.7-1.2-2.7-2.9c0-1.9,1.1-3.1,2.6-3.1c1.9,0,2.2,1.8,2.2,2.6c0,0.2,0,0.2,0,0.3H46.4z M50.1,129.6c0-0.8-0.3-2-1.7-2
		c-1.3,0-1.8,1.1-1.9,2H50.1z"/>
</g>
<g class="st13">
	<path class="st14" d="M52,128.6c0-0.5,0-0.9,0-1.4h0.5v1l0,0c0.3-0.6,1-1.2,2-1.2c0.6,0,2,0.3,2,2.4v3.5H56v-3.4c0-1.1-0.4-2-1.6-2
		c-0.8,0-1.5,0.6-1.7,1.3c0,0.1-0.1,0.3-0.1,0.5v3.6H52V128.6z"/>
</g>
<g class="st13">
	<path class="st14" d="M62.3,132.8c-0.3,0.1-0.9,0.4-1.7,0.4c-1.7,0-2.8-1.2-2.8-2.9c0-1.8,1.2-3.1,3-3.1c0.7,0,1.3,0.2,1.5,0.4
		l-0.2,0.5c-0.3-0.2-0.7-0.3-1.4-0.3c-1.5,0-2.3,1.2-2.3,2.5c0,1.5,0.9,2.5,2.3,2.5c0.7,0,1.1-0.2,1.4-0.3L62.3,132.8z"/>
</g>
<g class="st13">
	<path class="st14" d="M63.8,126.1c-0.3,0-0.4-0.2-0.4-0.5s0.2-0.5,0.5-0.5s0.5,0.2,0.5,0.5C64.3,125.9,64.1,126.1,63.8,126.1
		L63.8,126.1z M63.5,133v-5.8h0.6v5.8H63.5z"/>
</g>
<g class="st13">
	<path class="st14" d="M69.4,131.6c0,0.5,0,0.9,0.1,1.4H69l-0.1-0.8l0,0c-0.3,0.4-0.9,1-1.8,1c-1.2,0-1.7-0.8-1.7-1.6
		c0-1.3,1.2-2.1,3.5-2.1v-0.2c0-0.6-0.1-1.7-1.5-1.7c-0.5,0-1,0.1-1.5,0.4l-0.2-0.4c0.5-0.3,1.2-0.5,1.7-0.5c1.7,0,2,1.2,2,2.3
		V131.6z M68.8,129.9c-1.3,0-2.9,0.2-2.9,1.5c0,0.8,0.6,1.2,1.2,1.2c1,0,1.5-0.6,1.7-1.2c0-0.1,0.1-0.3,0.1-0.3L68.8,129.9
		L68.8,129.9z"/>
</g>
<g class="st13">
	<path class="st14" d="M71.1,124.5h0.6v8.5h-0.6V124.5z"/>
</g>
<g class="st13">
	<path class="st14" d="M186.1,125.2v0.4l-3.5,7.4H182l3.5-7.3l0,0h-4v-0.5H186.1z"/>
</g>
<g class="st13">
	<path class="st14" d="M187.1,132.2c0.3,0.2,0.9,0.5,1.7,0.5c1.6,0,2-1.1,2-1.8c0-1.3-1.1-1.8-2.3-1.8H188v-0.5h0.5
		c0.9,0,2-0.5,2-1.6c0-0.7-0.4-1.4-1.5-1.4c-0.6,0-1.2,0.3-1.5,0.5l-0.2-0.4c0.4-0.3,1.1-0.6,1.8-0.6c1.5,0,2,0.9,2,1.8
		c0,0.8-0.5,1.5-1.5,1.8l0,0c1,0.2,1.8,0.9,1.8,2.1c0,1.2-0.8,2.3-2.6,2.3c-0.8,0-1.5-0.3-1.8-0.5L187.1,132.2z"/>
</g>
<g class="st13">
	<path class="st14" d="M192.3,134.5c0.2-0.5,0.5-1.8,0.6-2.5l0.8-0.1c-0.2,0.9-0.7,2.3-0.9,2.6H192.3z"/>
</g>
<g class="st13">
	<path class="st14" d="M194.8,132.6c0.2,0,0.5,0,0.9-0.1c0.6-0.1,1.2-0.4,1.7-0.9c0.5-0.6,0.9-1.3,1.1-2.5l0,0c-0.5,0.6-1.2,1-2,1
		c-1.5,0-2.2-1.1-2.2-2.4c0-1.4,1-2.7,2.5-2.7c1.3,0,2.4,1.1,2.4,3.2c0,1.8-0.6,3-1.3,3.7c-0.5,0.5-1.2,0.9-1.8,1
		c-0.4,0.1-0.8,0.1-1.1,0.1v-0.4H194.8z M196.6,125.6c-1.1,0-1.8,0.9-1.8,2.2c0,1.2,0.7,1.9,1.8,1.9c0.8,0,1.5-0.4,1.8-1
		c0-0.1,0.1-0.2,0.1-0.3C198.4,126.7,197.8,125.6,196.6,125.6L196.6,125.6z"/>
</g>
<g class="st13">
	<path class="st14" d="M203.3,133v-2.3h-3.7v-0.4l3.8-5.1h0.5v5h1.2v0.5h-1.2v2.3L203.3,133L203.3,133z M203.3,130.2V127
		c0-0.4,0-0.7,0-1.1l0,0c-0.2,0.4-0.4,0.7-0.6,1l-2.4,3.2l0,0L203.3,130.2L203.3,130.2z"/>
</g>
<g class="st13">
	<path class="st14" d="M210,125.2v0.4l-3.5,7.4h-0.6l3.5-7.3l0,0h-4v-0.5H210z"/>
</g>
<g class="st13">
	<path class="st14" d="M290.9,133v-0.3l0.7-0.7c2.2-2.1,3.1-3.2,3.1-4.6c0-0.9-0.4-1.8-1.7-1.8c-0.7,0-1.3,0.4-1.7,0.7l-0.2-0.4
		c0.5-0.5,1.2-0.8,2-0.8c1.6,0,2.2,1.2,2.2,2.1c0,1.5-1.1,2.8-3.1,4.7l-0.6,0.6l0,0h3.8v0.5H290.9z"/>
</g>
<g class="st13">
	<path class="st14" d="M301,125.2v0.4l-3.5,7.4h-0.6l3.5-7.3l0,0h-4v-0.5H301z"/>
</g>
<g class="st13">
	<path class="st14" d="M301.3,133.1c-0.3,0-0.5-0.3-0.5-0.5c0-0.3,0.2-0.5,0.5-0.5s0.5,0.2,0.5,0.5
		C301.8,132.9,301.6,133.1,301.3,133.1L301.3,133.1z"/>
</g>
<g class="st13">
	<path class="st14" d="M303,132.6c0.2,0,0.5,0,0.9-0.1c0.6-0.1,1.2-0.4,1.7-0.9c0.5-0.6,0.9-1.3,1.1-2.5l0,0c-0.5,0.6-1.2,1-2,1
		c-1.5,0-2.2-1.1-2.2-2.4c0-1.4,1-2.7,2.5-2.7c1.3,0,2.4,1.1,2.4,3.2c0,1.8-0.6,3-1.3,3.7c-0.5,0.5-1.2,0.9-1.8,1
		c-0.4,0.1-0.8,0.1-1.1,0.1v-0.4H303z M304.8,125.6c-1.1,0-1.8,0.9-1.8,2.2c0,1.2,0.7,1.9,1.8,1.9c0.8,0,1.5-0.4,1.8-1
		c0-0.1,0.1-0.2,0.1-0.3C306.7,126.7,306.1,125.6,304.8,125.6L304.8,125.6z"/>
</g>
<g class="st13">
	<path class="st14" d="M394.4,133v-2.3h-3.7v-0.4l3.8-5.1h0.5v5h1.2v0.5H395v2.3L394.4,133L394.4,133z M394.4,130.2V127
		c0-0.4,0-0.7,0-1.1l0,0c-0.2,0.4-0.4,0.7-0.6,1l-2.4,3.2l0,0L394.4,130.2L394.4,130.2z"/>
</g>
<g class="st13">
	<path class="st14" d="M396.5,134.5c0.2-0.5,0.5-1.8,0.6-2.5l0.8-0.1c-0.2,0.9-0.7,2.3-0.9,2.6H396.5z"/>
</g>
<g class="st13">
	<path class="st14" d="M400.2,125.8L400.2,125.8l-1.3,0.7l-0.1-0.5l1.5-0.9h0.5v7.8h-0.6V125.8z"/>
</g>
<g class="st13">
	<path class="st14" d="M405.4,125.1c1.3,0,2.1,0.9,2.1,1.9c0,0.6-0.3,1.4-1.4,1.9l0,0c1.1,0.4,1.7,1.2,1.7,2.1
		c0,1.3-1.2,2.2-2.4,2.2c-1.4,0-2.4-0.9-2.4-2.1c0-1,0.6-1.7,1.6-2.2l0,0c-0.9-0.4-1.3-1.1-1.3-1.8
		C403.2,125.9,404.2,125.1,405.4,125.1L405.4,125.1z M405.3,132.7c1.1,0,1.9-0.7,1.9-1.6c0-1.1-0.7-1.6-2-2c-1.1,0.3-1.7,1-1.7,1.9
		C403.4,131.9,404.1,132.7,405.3,132.7L405.3,132.7z M405.4,125.5c-1,0-1.6,0.7-1.6,1.5c0,0.9,0.7,1.4,1.7,1.7
		c0.8-0.3,1.4-0.8,1.4-1.7C406.9,126.3,406.5,125.5,405.4,125.5L405.4,125.5z"/>
</g>
<g class="st13">
	<path class="st14" d="M411.2,125.1c1.3,0,2.1,0.9,2.1,1.9c0,0.6-0.3,1.4-1.4,1.9l0,0c1.1,0.4,1.7,1.2,1.7,2.1
		c0,1.3-1.2,2.2-2.4,2.2c-1.4,0-2.4-0.9-2.4-2.1c0-1,0.6-1.7,1.6-2.2l0,0c-0.9-0.4-1.3-1.1-1.3-1.8C409,125.9,410,125.1,411.2,125.1
		L411.2,125.1z M411.1,132.7c1.1,0,1.9-0.7,1.9-1.6c0-1.1-0.7-1.6-2-2c-1.1,0.3-1.7,1-1.7,1.9C409.3,131.9,409.9,132.7,411.1,132.7
		L411.1,132.7z M411.2,125.5c-1,0-1.6,0.7-1.6,1.5c0,0.9,0.7,1.4,1.7,1.7c0.8-0.3,1.4-0.8,1.4-1.7
		C412.7,126.3,412.3,125.5,411.2,125.5L411.2,125.5z"/>
</g>
<g class="st13">
	<path class="st14" d="M493.1,125.8L493.1,125.8l-1.3,0.7l-0.1-0.5l1.5-0.9h0.5v7.8h-0.6V125.8z"/>
</g>
<g class="st13">
	<path class="st14" d="M498.2,133.1c-1.2,0-2.4-1.2-2.4-4s1.2-4.1,2.6-4.1s2.4,1.2,2.4,3.9C500.7,131.8,499.7,133.1,498.2,133.1
		L498.2,133.1z M498.3,132.7c1.3,0,1.9-1.5,1.9-3.6c0-2-0.6-3.5-1.9-3.5c-1.1,0-1.9,1.4-1.9,3.5
		C496.4,131.2,497.1,132.7,498.3,132.7L498.3,132.7z"/>
</g>
<g class="st13">
	<path class="st14" d="M502.1,133.1c-0.3,0-0.5-0.3-0.5-0.5c0-0.3,0.2-0.5,0.5-0.5s0.5,0.2,0.5,0.5
		C502.6,132.9,502.4,133.1,502.1,133.1L502.1,133.1z"/>
</g>
<g class="st13">
	<path class="st14" d="M503.7,133v-0.3l0.7-0.7c2.2-2.1,3.1-3.2,3.1-4.6c0-0.9-0.4-1.8-1.7-1.8c-0.7,0-1.3,0.4-1.7,0.7l-0.2-0.4
		c0.5-0.5,1.2-0.8,2-0.8c1.6,0,2.2,1.2,2.2,2.1c0,1.5-1.1,2.8-3.1,4.7l-0.6,0.6l0,0h3.8v0.5H503.7z"/>
</g>
<g class="st13">
	<path class="st14" d="M4.7,155.1c0.5,0.3,1.1,0.5,1.8,0.5c1.2,0,2-0.7,2-1.7c0-0.9-0.5-1.4-1.6-1.9c-1.3-0.5-2.1-1.1-2.1-2.2
		c0-1.2,1-2.1,2.4-2.1c0.8,0,1.3,0.2,1.6,0.4l-0.2,0.5c-0.2-0.2-0.7-0.4-1.4-0.4c-1.3,0-1.8,0.8-1.8,1.5c0,0.9,0.5,1.3,1.7,1.8
		c1.3,0.5,2,1.2,2,2.4s-0.8,2.2-2.6,2.2c-0.7,0-1.5-0.2-1.9-0.5L4.7,155.1z"/>
</g>
<g class="st13">
	<path class="st14" d="M14.7,154.6c0,0.5,0,1,0,1.4h-0.5v-1l0,0c-0.3,0.5-0.9,1.2-2,1.2c-0.7,0-2-0.4-2-2.5v-3.3h0.6v3.2
		c0,1.2,0.4,2.1,1.5,2.1c0.8,0,1.5-0.6,1.7-1.2c0.1-0.2,0.1-0.4,0.1-0.6v-3.6h0.6C14.7,150.3,14.7,154.6,14.7,154.6z"/>
</g>
<g class="st13">
	<path class="st14" d="M16.5,147.5h0.6v3.8l0,0c0.4-0.7,1.1-1.2,2.1-1.2c1.5,0,2.5,1.2,2.5,3c0,2.1-1.3,3.1-2.6,3.1
		c-0.9,0-1.6-0.4-2.1-1.2l0,0v1h-0.5c0-0.4,0-0.9,0-1.3V147.5z M17.1,153.8c0,0.1,0,0.3,0,0.4c0.3,0.9,1,1.5,1.9,1.5
		c1.3,0,2.1-1.1,2.1-2.6c0-1.3-0.7-2.5-2-2.5c-0.8,0-1.6,0.6-1.9,1.5c0,0.1-0.1,0.3-0.1,0.5V153.8z"/>
</g>
<g class="st13">
	<path class="st14" d="M27.7,155.2c0,1.5-0.3,2.2-0.8,2.7s-1.3,0.7-2,0.7s-1.4-0.2-1.8-0.5l0.2-0.5c0.4,0.3,1,0.5,1.7,0.5
		c1.2,0,2.1-0.6,2.1-2.3V155l0,0c-0.3,0.6-1,1.1-2,1.1c-1.5,0-2.5-1.3-2.5-2.8c0-2,1.3-3.1,2.6-3.1c1.1,0,1.7,0.6,1.9,1.1l0,0v-1
		h0.5c0,0.4,0,0.9,0,1.5L27.7,155.2L27.7,155.2z M27.2,152.5c0-0.2,0-0.4-0.1-0.6c-0.2-0.7-0.8-1.3-1.8-1.3c-1.2,0-2.1,1-2.1,2.5
		c0,1.3,0.7,2.4,2,2.4c0.8,0,1.5-0.5,1.8-1.3c0.1-0.2,0.1-0.4,0.1-0.6v-1.1H27.2z"/>
</g>
<g class="st13">
	<path class="st14" d="M29.7,153.1c0,1.8,1,2.6,2.2,2.6c0.8,0,1.3-0.2,1.6-0.3l0.1,0.4c-0.2,0.1-0.8,0.4-1.8,0.4
		c-1.7,0-2.7-1.2-2.7-2.9c0-1.9,1.1-3.1,2.6-3.1c1.9,0,2.2,1.8,2.2,2.6c0,0.2,0,0.2,0,0.3H29.7z M33.3,152.6c0-0.8-0.3-2-1.7-2
		c-1.3,0-1.8,1.1-1.9,2H33.3z"/>
</g>
<g class="st13">
	<path class="st14" d="M35.2,152c0-0.6,0-1.2,0-1.7h0.5v1.2l0,0c0.3-0.7,0.9-1.3,1.6-1.3c0.1,0,0.2,0,0.2,0v0.5c-0.1,0-0.2,0-0.3,0
		c-0.8,0-1.4,0.7-1.5,1.6c0,0.2,0,0.4,0,0.6v3.2h-0.6L35.2,152L35.2,152z"/>
</g>
<g class="st13">
	<path class="st14" d="M38.6,153.1c0,1.8,1,2.6,2.2,2.6c0.8,0,1.3-0.2,1.6-0.3l0.1,0.4c-0.2,0.1-0.8,0.4-1.8,0.4
		c-1.7,0-2.7-1.2-2.7-2.9c0-1.9,1.1-3.1,2.6-3.1c1.9,0,2.2,1.8,2.2,2.6c0,0.2,0,0.2,0,0.3H38.6z M42.3,152.6c0-0.8-0.3-2-1.7-2
		c-1.3,0-1.8,1.1-1.9,2H42.3z"/>
</g>
<g class="st13">
	<path class="st14" d="M44.2,151.6c0-0.5,0-0.9,0-1.4h0.5v1l0,0c0.3-0.6,1-1.2,2-1.2c0.6,0,2,0.3,2,2.4v3.5h-0.6v-3.4
		c0-1.1-0.4-2-1.6-2c-0.8,0-1.5,0.6-1.7,1.3c0,0.1-0.1,0.3-0.1,0.5v3.6h-0.6L44.2,151.6L44.2,151.6z"/>
</g>
<g class="st13">
	<path class="st14" d="M51.2,149v1.3h1.6v0.5h-1.6v3.7c0,0.7,0.2,1.2,0.8,1.2c0.3,0,0.5,0,0.7-0.1l0.1,0.4c-0.2,0.1-0.5,0.1-0.8,0.1
		c-0.4,0-0.8-0.1-1-0.4c-0.3-0.3-0.4-0.8-0.4-1.4v-3.6h-1v-0.5h1v-1.1L51.2,149z"/>
</g>
<g class="st13">
	<path class="st14" d="M53.8,153.1c0,1.8,1,2.6,2.2,2.6c0.8,0,1.3-0.2,1.6-0.3l0.1,0.4c-0.2,0.1-0.8,0.4-1.8,0.4
		c-1.7,0-2.7-1.2-2.7-2.9c0-1.9,1.1-3.1,2.6-3.1c1.9,0,2.2,1.8,2.2,2.6c0,0.2,0,0.2,0,0.3H53.8z M57.5,152.6c0-0.8-0.3-2-1.7-2
		c-1.3,0-1.8,1.1-1.9,2H57.5z"/>
</g>
<g class="st13">
	<path class="st14" d="M59.2,155.3c0.3,0.2,0.8,0.4,1.3,0.4c0.9,0,1.3-0.5,1.3-1.1s-0.4-1-1.2-1.3c-0.9-0.4-1.5-0.9-1.5-1.6
		c0-0.8,0.7-1.6,1.8-1.6c0.5,0,1,0.2,1.3,0.4L62,151c-0.2-0.1-0.6-0.3-1.2-0.3c-0.7,0-1.1,0.5-1.1,1c0,0.6,0.4,0.9,1.2,1.2
		c0.9,0.4,1.5,0.8,1.5,1.7c0,1-0.8,1.6-1.9,1.6c-0.6,0-1.1-0.2-1.5-0.4L59.2,155.3z"/>
</g>
<g class="st13">
	<path class="st14" d="M182.5,148.7h-2.9l-0.4,2.5c0.2,0,0.4-0.1,0.7-0.1c0.5,0,1,0.1,1.5,0.3c0.6,0.3,1.2,1,1.2,2
		c0,1.6-1.2,2.6-2.6,2.6c-0.8,0-1.5-0.3-1.8-0.5l0.2-0.5c0.3,0.2,0.9,0.5,1.6,0.5c1.1,0,2-0.8,2-2c0-1.1-0.7-2-2.3-2
		c-0.5,0-0.8,0-1.1,0.1l0.5-3.5h3.4L182.5,148.7L182.5,148.7z"/>
</g>
<g class="st13">
	<path class="st14" d="M186.3,148.1c1.3,0,2.1,0.9,2.1,1.9c0,0.6-0.3,1.4-1.4,1.9l0,0c1.1,0.4,1.7,1.2,1.7,2.1
		c0,1.3-1.2,2.2-2.4,2.2c-1.4,0-2.4-0.9-2.4-2.1c0-1,0.6-1.7,1.6-2.2l0,0c-0.9-0.4-1.3-1.1-1.3-1.8
		C184.1,148.9,185,148.1,186.3,148.1L186.3,148.1z M186.2,155.7c1.1,0,1.9-0.7,1.9-1.6c0-1.1-0.7-1.6-2-2c-1.1,0.3-1.7,1-1.7,1.9
		C184.3,154.9,185,155.7,186.2,155.7L186.2,155.7z M186.2,148.6c-1,0-1.6,0.7-1.6,1.5c0,0.9,0.7,1.4,1.7,1.7
		c0.8-0.3,1.4-0.8,1.4-1.7C187.8,149.3,187.3,148.6,186.2,148.6L186.2,148.6z"/>
</g>
<g class="st13">
	<path class="st14" d="M193.1,156v-2.3h-3.7v-0.4l3.8-5.1h0.5v5h1.2v0.5h-1.2v2.3H193.1z M193.1,153.2V150c0-0.4,0-0.7,0-1.1l0,0
		c-0.2,0.4-0.4,0.7-0.6,1l-2.4,3.2l0,0h3V153.2z"/>
</g>
<g class="st13">
	<path class="st14" d="M195.2,157.5c0.2-0.5,0.5-1.8,0.6-2.5l0.8-0.1c-0.2,0.9-0.7,2.3-0.9,2.6H195.2z"/>
</g>
<g class="st13">
	<path class="st14" d="M199.7,156.2c-1.2,0-2.4-1.2-2.4-4s1.2-4.1,2.6-4.1c1.4,0,2.4,1.2,2.4,3.9
		C202.3,154.8,201.3,156.2,199.7,156.2L199.7,156.2z M199.8,155.7c1.3,0,1.9-1.5,1.9-3.6c0-2-0.6-3.5-1.9-3.5
		c-1.1,0-1.9,1.4-1.9,3.5C197.9,154.2,198.6,155.7,199.8,155.7L199.8,155.7z"/>
</g>
<g class="st13">
	<path class="st14" d="M202.8,156v-0.3l0.7-0.7c2.2-2.1,3.1-3.2,3.1-4.6c0-0.9-0.4-1.8-1.7-1.8c-0.7,0-1.3,0.4-1.7,0.7l-0.2-0.4
		c0.5-0.5,1.2-0.8,2-0.8c1.6,0,2.2,1.2,2.2,2.1c0,1.5-1.1,2.8-3.1,4.7l-0.6,0.6l0,0h3.8v0.5H202.8z"/>
</g>
<g class="st13">
	<path class="st14" d="M210.7,156.2c-1.2,0-2.4-1.2-2.4-4s1.2-4.1,2.6-4.1c1.4,0,2.4,1.2,2.4,3.9
		C213.2,154.8,212.2,156.2,210.7,156.2L210.7,156.2z M210.7,155.7c1.3,0,1.9-1.5,1.9-3.6c0-2-0.6-3.5-1.9-3.5
		c-1.1,0-1.9,1.4-1.9,3.5S209.6,155.7,210.7,155.7L210.7,155.7z"/>
</g>
<g class="st13">
	<path class="st14" d="M294.3,148.7h-2.9l-0.4,2.5c0.2,0,0.4-0.1,0.7-0.1c0.5,0,1,0.1,1.5,0.3c0.6,0.3,1.2,1,1.2,2
		c0,1.6-1.2,2.6-2.6,2.6c-0.8,0-1.5-0.3-1.8-0.5l0.2-0.5c0.3,0.2,0.9,0.5,1.6,0.5c1.1,0,2-0.8,2-2c0-1.1-0.7-2-2.3-2
		c-0.5,0-0.8,0-1.1,0.1l0.5-3.5h3.4L294.3,148.7L294.3,148.7z"/>
</g>
<g class="st13">
	<path class="st14" d="M299.7,148.6c-0.2,0-0.5,0-0.8,0.1c-1.7,0.3-2.6,1.8-2.8,3.3l0,0c0.4-0.6,1.1-1.1,2-1.1
		c1.4,0,2.3,1.1,2.3,2.5s-0.9,2.7-2.4,2.7c-1.4,0-2.5-1.1-2.5-3.3c0-1.6,0.6-2.8,1.3-3.5c0.6-0.6,1.3-1,2.2-1.2
		c0.3-0.1,0.6-0.1,0.8-0.1v0.6H299.7z M298.1,155.7c1.1,0,1.8-0.9,1.8-2.2c0-1.4-0.8-2.1-1.9-2.1c-0.7,0-1.4,0.4-1.8,1.1
		c-0.1,0.1-0.1,0.3-0.1,0.5C296.1,154.6,296.8,155.7,298.1,155.7L298.1,155.7z"/>
</g>
<g class="st13">
	<path class="st14" d="M302,156.2c-0.3,0-0.5-0.3-0.5-0.5c0-0.3,0.2-0.5,0.5-0.5s0.5,0.2,0.5,0.5C302.5,155.9,302.3,156.2,302,156.2
		L302,156.2z"/>
</g>
<g class="st13">
	<path class="st14" d="M306.6,156v-2.3h-3.7v-0.4l3.8-5.1h0.5v5h1.2v0.5h-1.2v2.3H306.6z M306.6,153.2V150c0-0.4,0-0.7,0-1.1l0,0
		c-0.2,0.4-0.4,0.7-0.6,1l-2.4,3.2l0,0h3V153.2z"/>
</g>
<g class="st13">
	<path class="st14" d="M391.1,148.8L391.1,148.8l-1.3,0.7l-0.1-0.5l1.5-0.9h0.5v7.8h-0.6V148.8z"/>
</g>
<g class="st13">
	<path class="st14" d="M395.5,148.8L395.5,148.8l-1.3,0.7l-0.1-0.5l1.5-0.9h0.5v7.8h-0.6V148.8z"/>
</g>
<g class="st13">
	<path class="st14" d="M397.9,157.5c0.2-0.5,0.5-1.8,0.6-2.5l0.8-0.1c-0.2,0.9-0.7,2.3-0.9,2.6H397.9z"/>
</g>
<g class="st13">
	<path class="st14" d="M404.4,148.6c-0.2,0-0.5,0-0.8,0.1c-1.7,0.3-2.6,1.8-2.8,3.3l0,0c0.4-0.6,1.1-1.1,2-1.1
		c1.4,0,2.3,1.1,2.3,2.5s-0.9,2.7-2.4,2.7c-1.4,0-2.5-1.1-2.5-3.3c0-1.6,0.6-2.8,1.3-3.5c0.6-0.6,1.3-1,2.2-1.2
		c0.3-0.1,0.6-0.1,0.8-0.1v0.6H404.4z M402.7,155.7c1.1,0,1.8-0.9,1.8-2.2c0-1.4-0.8-2.1-1.9-2.1c-0.7,0-1.4,0.4-1.8,1.1
		c-0.1,0.1-0.1,0.3-0.1,0.5C400.7,154.6,401.4,155.7,402.7,155.7L402.7,155.7z"/>
</g>
<g class="st13">
	<path class="st14" d="M406.5,155.6c0.2,0,0.5,0,0.9-0.1c0.6-0.1,1.2-0.4,1.7-0.9c0.5-0.6,0.9-1.3,1.1-2.5l0,0c-0.5,0.6-1.2,1-2,1
		c-1.5,0-2.2-1.1-2.2-2.4c0-1.4,1-2.7,2.5-2.7c1.3,0,2.4,1.1,2.4,3.2c0,1.8-0.6,3-1.3,3.7c-0.5,0.5-1.2,0.9-1.8,1
		c-0.4,0.1-0.8,0.1-1.1,0.1v-0.4H406.5z M408.2,148.6c-1.1,0-1.8,0.9-1.8,2.2c0,1.2,0.7,1.9,1.8,1.9c0.8,0,1.5-0.4,1.8-1
		c0-0.1,0.1-0.2,0.1-0.3C410.1,149.7,409.5,148.6,408.2,148.6L408.2,148.6z"/>
</g>
<g class="st13">
	<path class="st14" d="M411.4,155.2c0.3,0.2,0.9,0.5,1.7,0.5c1.6,0,2-1.1,2-1.8c0-1.3-1.1-1.8-2.3-1.8h-0.5v-0.5h0.5
		c0.9,0,2-0.5,2-1.6c0-0.7-0.4-1.4-1.5-1.4c-0.6,0-1.2,0.3-1.5,0.5l-0.2-0.4c0.4-0.3,1.1-0.6,1.8-0.6c1.5,0,2,0.9,2,1.8
		c0,0.8-0.5,1.5-1.5,1.8l0,0c1,0.2,1.8,0.9,1.8,2.1c0,1.2-0.8,2.3-2.6,2.3c-0.8,0-1.5-0.3-1.8-0.5L411.4,155.2z"/>
</g>
<g class="st13">
	<path class="st14" d="M493.4,148.8L493.4,148.8l-1.3,0.7L492,149l1.5-0.9h0.5v7.8h-0.6V148.8z"/>
</g>
<g class="st13">
	<path class="st14" d="M495.9,156v-0.3l0.7-0.7c2.2-2.1,3.1-3.2,3.1-4.6c0-0.9-0.4-1.8-1.7-1.8c-0.7,0-1.3,0.4-1.7,0.7l-0.2-0.4
		c0.5-0.5,1.2-0.8,2-0.8c1.6,0,2.2,1.2,2.2,2.1c0,1.5-1.1,2.8-3.1,4.7l-0.6,0.6l0,0h3.8v0.5H495.9z"/>
</g>
<g class="st13">
	<path class="st14" d="M502.1,156.2c-0.3,0-0.5-0.3-0.5-0.5c0-0.3,0.2-0.5,0.5-0.5s0.5,0.2,0.5,0.5
		C502.6,155.9,502.4,156.2,502.1,156.2L502.1,156.2z"/>
</g>
<g class="st13">
	<path class="st14" d="M506.7,156v-2.3H503v-0.4l3.8-5.1h0.5v5h1.2v0.5h-1.2v2.3H506.7z M506.7,153.2V150c0-0.4,0-0.7,0-1.1l0,0
		c-0.2,0.4-0.4,0.7-0.6,1l-2.4,3.2l0,0h3V153.2z"/>
</g>
<g class="st13">
	<path class="st14" d="M5,179v-8.1h0.5l3.1,4.8c0.7,1,1.1,1.8,1.5,2.5l0,0c-0.1-1.1-0.1-2-0.1-3.3v-4h0.6v8.1h-0.5L7,174.3
		c-0.6-0.9-1.2-1.8-1.6-2.6l0,0c0.1,1,0.1,1.9,0.1,3.2v4.1H5z"/>
</g>
<g class="st13">
	<path class="st14" d="M12.7,172.1c-0.3,0-0.4-0.2-0.4-0.5s0.2-0.5,0.5-0.5s0.5,0.2,0.5,0.5C13.2,171.9,13,172.1,12.7,172.1
		L12.7,172.1z M12.5,179v-5.8H13v5.8H12.5z"/>
</g>
<g class="st13">
	<path class="st14" d="M14.7,173.3l1.3,3.6c0.2,0.6,0.4,1,0.6,1.5l0,0c0.2-0.5,0.4-1,0.6-1.5l1.4-3.6h0.6l-2.3,5.8h-0.5l-2.3-5.8
		H14.7z"/>
</g>
<g class="st13">
	<path class="st14" d="M20.2,176.1c0,1.8,1,2.6,2.2,2.6c0.8,0,1.3-0.2,1.6-0.3l0.1,0.4c-0.2,0.1-0.8,0.4-1.8,0.4
		c-1.7,0-2.7-1.2-2.7-2.9c0-1.9,1.1-3.1,2.6-3.1c1.9,0,2.2,1.8,2.2,2.6c0,0.2,0,0.2,0,0.3H20.2z M23.8,175.6c0-0.8-0.3-2-1.7-2
		c-1.3,0-1.8,1.1-1.9,2H23.8z"/>
</g>
<g class="st13">
	<path class="st14" d="M25.8,170.5h0.6v8.5h-0.6V170.5z"/>
</g>
<g class="st13">
	<path class="st14" d="M35.6,170.5v7.2c0,0.4,0,0.9,0,1.3h-0.5v-1.1l0,0c-0.3,0.6-1,1.2-2.1,1.2c-1.4,0-2.5-1.2-2.5-2.9
		c0-1.9,1.2-3.1,2.6-3.1c1,0,1.6,0.5,1.9,1l0,0v-3.7h0.6V170.5z M35,175.5c0-0.2,0-0.4-0.1-0.5c-0.2-0.8-0.9-1.4-1.8-1.4
		c-1.3,0-2.1,1.1-2.1,2.6c0,1.3,0.6,2.5,2,2.5c0.8,0,1.6-0.6,1.8-1.5c0-0.1,0.1-0.3,0.1-0.5v-1.2H35z"/>
</g>
<g class="st13">
	<path class="st14" d="M37.5,176.1c0,1.8,1,2.6,2.2,2.6c0.8,0,1.3-0.2,1.6-0.3l0.1,0.4c-0.2,0.1-0.8,0.4-1.8,0.4
		c-1.7,0-2.7-1.2-2.7-2.9c0-1.9,1.1-3.1,2.6-3.1c1.9,0,2.2,1.8,2.2,2.6c0,0.2,0,0.2,0,0.3H37.5z M41.2,175.6c0-0.8-0.3-2-1.7-2
		c-1.3,0-1.8,1.1-1.9,2H41.2z"/>
</g>
<g class="st13">
	<path class="st14" d="M43,175.1c0-0.7,0-1.3,0-1.8h0.6v1.1l0,0c0.4-0.8,1.1-1.2,2.1-1.2c1.5,0,2.5,1.2,2.5,2.9
		c0,2.1-1.2,3.1-2.6,3.1c-0.8,0-1.6-0.4-2-1.1l0,0v3.3H43V175.1z M43.6,176.8c0,0.2,0,0.3,0,0.5c0.2,0.9,1,1.5,1.9,1.5
		c1.3,0,2.1-1.1,2.1-2.6c0-1.3-0.7-2.5-2-2.5c-0.8,0-1.7,0.6-1.9,1.5c0,0.2-0.1,0.3-0.1,0.5V176.8z"/>
</g>
<g class="st13">
	<path class="st14" d="M53.2,177.7c0,0.5,0,0.9,0.1,1.4h-0.5l-0.1-0.8l0,0c-0.3,0.4-0.9,1-1.8,1c-1.2,0-1.7-0.8-1.7-1.6
		c0-1.3,1.2-2.1,3.5-2.1v-0.2c0-0.6-0.1-1.7-1.5-1.7c-0.5,0-1,0.1-1.5,0.4l-0.2-0.4c0.5-0.3,1.2-0.5,1.7-0.5c1.7,0,2,1.2,2,2.3
		V177.7z M52.7,175.9c-1.3,0-2.9,0.2-2.9,1.5c0,0.8,0.6,1.2,1.2,1.2c1,0,1.5-0.6,1.7-1.2c0-0.1,0.1-0.3,0.1-0.3L52.7,175.9
		L52.7,175.9z"/>
</g>
<g class="st13">
	<path class="st14" d="M54.9,175c0-0.6,0-1.2,0-1.7h0.5v1.2l0,0c0.3-0.7,0.9-1.3,1.6-1.3c0.1,0,0.2,0,0.2,0v0.5c-0.1,0-0.2,0-0.3,0
		c-0.8,0-1.4,0.7-1.5,1.6c0,0.2,0,0.4,0,0.6v3.2h-0.6L54.9,175L54.9,175z"/>
</g>
<g class="st13">
	<path class="st14" d="M59.5,172v1.3h1.6v0.5h-1.6v3.7c0,0.7,0.2,1.2,0.8,1.2c0.3,0,0.5,0,0.7-0.1l0.1,0.4c-0.2,0.1-0.5,0.1-0.8,0.1
		c-0.4,0-0.8-0.1-1-0.4c-0.3-0.3-0.4-0.8-0.4-1.4v-3.6h-1v-0.5h1v-1.1L59.5,172z"/>
</g>
<g class="st13">
	<path class="st14" d="M66,177.7c0,0.5,0,0.9,0.1,1.4h-0.5l-0.1-0.8l0,0c-0.3,0.4-0.9,1-1.8,1c-1.2,0-1.7-0.8-1.7-1.6
		c0-1.3,1.2-2.1,3.5-2.1v-0.2c0-0.6-0.1-1.7-1.5-1.7c-0.5,0-1,0.1-1.5,0.4l-0.2-0.4c0.5-0.3,1.2-0.5,1.7-0.5c1.7,0,2,1.2,2,2.3
		V177.7z M65.4,175.9c-1.3,0-2.9,0.2-2.9,1.5c0,0.8,0.6,1.2,1.2,1.2c1,0,1.5-0.6,1.7-1.2c0-0.1,0.1-0.3,0.1-0.3L65.4,175.9
		L65.4,175.9z"/>
</g>
<g class="st13">
	<path class="st14" d="M67.7,174.6c0-0.5,0-0.9,0-1.4h0.5v1l0,0c0.4-0.7,0.9-1.1,1.9-1.1c0.8,0,1.4,0.5,1.7,1.2l0,0
		c0.2-0.3,0.4-0.6,0.6-0.8c0.4-0.3,0.8-0.5,1.4-0.5s1.9,0.3,1.9,2.5v3.4H75v-3.3c0-1.3-0.5-2.1-1.5-2.1c-0.7,0-1.3,0.5-1.5,1.1
		c0,0.2-0.1,0.4-0.1,0.6v3.7h-0.6v-3.6c0-1-0.5-1.8-1.4-1.8c-0.8,0-1.4,0.6-1.6,1.3c0,0.2-0.1,0.4-0.1,0.6v3.5h-0.6L67.7,174.6
		L67.7,174.6z"/>
</g>
<g class="st13">
	<path class="st14" d="M77.5,176.1c0,1.8,1,2.6,2.2,2.6c0.8,0,1.3-0.2,1.6-0.3l0.1,0.4c-0.2,0.1-0.8,0.4-1.8,0.4
		c-1.7,0-2.7-1.2-2.7-2.9c0-1.9,1.1-3.1,2.6-3.1c1.9,0,2.2,1.8,2.2,2.6c0,0.2,0,0.2,0,0.3H77.5z M81.2,175.6c0-0.8-0.3-2-1.7-2
		c-1.3,0-1.8,1.1-1.9,2H81.2z"/>
</g>
<g class="st13">
	<path class="st14" d="M83.1,174.6c0-0.5,0-0.9,0-1.4h0.5v1l0,0c0.3-0.6,1-1.2,2-1.2c0.6,0,2,0.3,2,2.4v3.5H87v-3.4
		c0-1.1-0.4-2-1.6-2c-0.8,0-1.5,0.6-1.7,1.3c0,0.1-0.1,0.3-0.1,0.5v3.6H83L83.1,174.6L83.1,174.6z"/>
</g>
<g class="st13">
	<path class="st14" d="M90,172v1.3h1.6v0.5H90v3.7c0,0.7,0.2,1.2,0.8,1.2c0.3,0,0.5,0,0.7-0.1l0.1,0.4c-0.2,0.1-0.5,0.1-0.8,0.1
		c-0.4,0-0.8-0.1-1-0.4c-0.3-0.3-0.4-0.8-0.4-1.4v-3.6h-1v-0.5h1v-1.1L90,172z"/>
</g>
<g class="st13">
	<path class="st14" d="M96.4,177.7c0,0.5,0,0.9,0.1,1.4H96l-0.1-0.8l0,0c-0.3,0.4-0.9,1-1.8,1c-1.2,0-1.7-0.8-1.7-1.6
		c0-1.3,1.2-2.1,3.5-2.1v-0.2c0-0.6-0.1-1.7-1.5-1.7c-0.5,0-1,0.1-1.5,0.4l-0.2-0.4c0.5-0.3,1.2-0.5,1.7-0.5c1.7,0,2,1.2,2,2.3
		V177.7z M95.9,175.9c-1.3,0-2.9,0.2-2.9,1.5c0,0.8,0.6,1.2,1.2,1.2c1,0,1.5-0.6,1.7-1.2c0-0.1,0.1-0.3,0.1-0.3L95.9,175.9
		L95.9,175.9z"/>
</g>
<g class="st13">
	<path class="st14" d="M98.2,170.5h0.6v8.5h-0.6V170.5z"/>
</g>
<g class="st13">
	<path class="st14" d="M182.4,171.7h-2.9l-0.4,2.5c0.2,0,0.4-0.1,0.7-0.1c0.5,0,1,0.1,1.5,0.3c0.6,0.3,1.2,1,1.2,2
		c0,1.6-1.2,2.6-2.6,2.6c-0.8,0-1.5-0.3-1.8-0.5l0.2-0.5c0.3,0.2,0.9,0.5,1.6,0.5c1.1,0,2-0.8,2-2c0-1.1-0.7-2-2.3-2
		c-0.5,0-0.8,0-1.1,0.1l0.5-3.5h3.4L182.4,171.7L182.4,171.7z"/>
</g>
<g class="st13">
	<path class="st14" d="M187.8,171.6c-0.2,0-0.5,0-0.8,0.1c-1.7,0.3-2.6,1.8-2.8,3.3l0,0c0.4-0.6,1.1-1.1,2-1.1
		c1.4,0,2.3,1.1,2.3,2.5s-0.9,2.7-2.4,2.7c-1.4,0-2.5-1.1-2.5-3.3c0-1.6,0.6-2.8,1.3-3.5c0.6-0.6,1.3-1,2.2-1.2
		c0.3-0.1,0.6-0.1,0.8-0.1v0.6H187.8z M186.2,178.7c1.1,0,1.8-0.9,1.8-2.2c0-1.4-0.8-2.1-1.9-2.1c-0.7,0-1.4,0.4-1.8,1.1
		c-0.1,0.1-0.1,0.3-0.1,0.5C184.1,177.6,184.9,178.7,186.2,178.7L186.2,178.7z"/>
</g>
<g class="st13">
	<path class="st14" d="M193.5,171.7h-2.9l-0.4,2.5c0.2,0,0.4-0.1,0.7-0.1c0.5,0,1,0.1,1.5,0.3c0.6,0.3,1.2,1,1.2,2
		c0,1.6-1.2,2.6-2.6,2.6c-0.8,0-1.5-0.3-1.8-0.5l0.2-0.5c0.3,0.2,0.9,0.5,1.6,0.5c1.1,0,2-0.8,2-2c0-1.1-0.7-2-2.3-2
		c-0.5,0-0.8,0-1.1,0.1l0.5-3.5h3.4L193.5,171.7L193.5,171.7z"/>
</g>
<g class="st13">
	<path class="st14" d="M194.4,180.5c0.2-0.5,0.5-1.8,0.6-2.5l0.8-0.1c-0.2,0.9-0.7,2.3-0.9,2.6H194.4z"/>
</g>
<g class="st13">
	<path class="st14" d="M199,179.2c-1.2,0-2.4-1.2-2.4-4s1.2-4.1,2.6-4.1c1.4,0,2.4,1.2,2.4,3.9C201.6,177.8,200.5,179.2,199,179.2
		L199,179.2z M199.1,178.7c1.3,0,1.9-1.5,1.9-3.6c0-2-0.6-3.5-1.9-3.5c-1.1,0-1.9,1.4-1.9,3.5C197.2,177.2,197.9,178.7,199.1,178.7
		L199.1,178.7z"/>
</g>
<g class="st13">
	<path class="st14" d="M205,179.2c-1.2,0-2.4-1.2-2.4-4s1.2-4.1,2.6-4.1c1.4,0,2.4,1.2,2.4,3.9C207.5,177.8,206.5,179.2,205,179.2
		L205,179.2z M205,178.7c1.3,0,1.9-1.5,1.9-3.6c0-2-0.6-3.5-1.9-3.5c-1.1,0-1.9,1.4-1.9,3.5S203.9,178.7,205,178.7L205,178.7z"/>
</g>
<g class="st13">
	<path class="st14" d="M212.7,171.6c-0.2,0-0.5,0-0.8,0.1c-1.7,0.3-2.6,1.8-2.8,3.3l0,0c0.4-0.6,1.1-1.1,2-1.1
		c1.4,0,2.3,1.1,2.3,2.5s-0.9,2.7-2.4,2.7c-1.4,0-2.5-1.1-2.5-3.3c0-1.6,0.6-2.8,1.3-3.5c0.6-0.6,1.3-1,2.2-1.2
		c0.3-0.1,0.6-0.1,0.8-0.1v0.6H212.7z M211,178.7c1.1,0,1.8-0.9,1.8-2.2c0-1.4-0.8-2.1-1.9-2.1c-0.7,0-1.4,0.4-1.8,1.1
		c-0.1,0.1-0.1,0.3-0.1,0.5C209,177.6,209.7,178.7,211,178.7L211,178.7z"/>
</g>
<g class="st13">
	<path class="st14" d="M289.9,179v-0.3l0.7-0.7c2.2-2.1,3.1-3.2,3.1-4.6c0-0.9-0.4-1.8-1.7-1.8c-0.7,0-1.3,0.4-1.7,0.7l-0.2-0.4
		c0.5-0.5,1.2-0.8,2-0.8c1.6,0,2.2,1.2,2.2,2.1c0,1.5-1.1,2.8-3.1,4.7l-0.6,0.6l0,0h3.8v0.5H289.9z"/>
</g>
<g class="st13">
	<path class="st14" d="M295.6,179v-0.3l0.7-0.7c2.2-2.1,3.1-3.2,3.1-4.6c0-0.9-0.4-1.8-1.7-1.8c-0.7,0-1.3,0.4-1.7,0.7l-0.2-0.4
		c0.5-0.5,1.2-0.8,2-0.8c1.6,0,2.2,1.2,2.2,2.1c0,1.5-1.1,2.8-3.1,4.7l-0.6,0.6l0,0h3.8v0.5H295.6z"/>
</g>
<g class="st13">
	<path class="st14" d="M301.9,179.2c-0.3,0-0.5-0.3-0.5-0.5c0-0.3,0.2-0.5,0.5-0.5s0.5,0.2,0.5,0.5
		C302.4,178.9,302.2,179.2,301.9,179.2L301.9,179.2z"/>
</g>
<g class="st13">
	<path class="st14" d="M305.6,179.2c-1.2,0-2.4-1.2-2.4-4s1.2-4.1,2.6-4.1s2.4,1.2,2.4,3.9C308.2,177.8,307.1,179.2,305.6,179.2
		L305.6,179.2z M305.7,178.7c1.3,0,1.9-1.5,1.9-3.6c0-2-0.6-3.5-1.9-3.5c-1.1,0-1.9,1.4-1.9,3.5
		C303.8,177.2,304.5,178.7,305.7,178.7L305.7,178.7z"/>
</g>
<g class="st13">
	<path class="st14" d="M388.1,179v-0.3l0.7-0.7c2.2-2.1,3.1-3.2,3.1-4.6c0-0.9-0.4-1.8-1.7-1.8c-0.7,0-1.3,0.4-1.7,0.7l-0.2-0.4
		c0.5-0.5,1.2-0.8,2-0.8c1.6,0,2.2,1.2,2.2,2.1c0,1.5-1.1,2.8-3.1,4.7l-0.6,0.6l0,0h3.8v0.5H388.1z"/>
</g>
<g class="st13">
	<path class="st14" d="M396.5,179v-2.3h-3.7v-0.4l3.8-5.1h0.5v5h1.2v0.5h-1.2v2.3H396.5z M396.5,176.2V173c0-0.4,0-0.7,0-1.1l0,0
		c-0.2,0.4-0.4,0.7-0.6,1l-2.4,3.2l0,0h3V176.2z"/>
</g>
<g class="st13">
	<path class="st14" d="M398.6,180.5c0.2-0.5,0.5-1.8,0.6-2.5l0.8-0.1c-0.2,0.9-0.7,2.3-0.9,2.6H398.6z"/>
</g>
<g class="st13">
	<path class="st14" d="M401,179v-0.3l0.7-0.7c2.2-2.1,3.1-3.2,3.1-4.6c0-0.9-0.4-1.8-1.7-1.8c-0.7,0-1.3,0.4-1.7,0.7l-0.2-0.4
		c0.5-0.5,1.2-0.8,2-0.8c1.6,0,2.2,1.2,2.2,2.1c0,1.5-1.1,2.8-3.1,4.7l-0.6,0.6l0,0h3.8v0.5H401z"/>
</g>
<g class="st13">
	<path class="st14" d="M411.1,171.2v0.4l-3.5,7.4H407l3.5-7.3l0,0h-4v-0.5L411.1,171.2L411.1,171.2z"/>
</g>
<g class="st13">
	<path class="st14" d="M412.5,178.6c0.2,0,0.5,0,0.9-0.1c0.6-0.1,1.2-0.4,1.7-0.9c0.5-0.6,0.9-1.3,1.1-2.5l0,0c-0.5,0.6-1.2,1-2,1
		c-1.5,0-2.2-1.1-2.2-2.4c0-1.4,1-2.7,2.5-2.7c1.3,0,2.4,1.1,2.4,3.2c0,1.8-0.6,3-1.3,3.7c-0.5,0.5-1.2,0.9-1.8,1
		c-0.4,0.1-0.8,0.1-1.1,0.1v-0.4H412.5z M414.2,171.6c-1.1,0-1.8,0.9-1.8,2.2c0,1.2,0.7,1.9,1.8,1.9c0.8,0,1.5-0.4,1.8-1
		c0-0.1,0.1-0.2,0.1-0.3C416.1,172.7,415.5,171.6,414.2,171.6L414.2,171.6z"/>
</g>
<g class="st13">
	<path class="st14" d="M493.1,171.8L493.1,171.8l-1.3,0.7l-0.1-0.5l1.5-0.9h0.5v7.8h-0.6V171.8z"/>
</g>
<g class="st13">
	<path class="st14" d="M498.2,179.2c-1.2,0-2.4-1.2-2.4-4s1.2-4.1,2.6-4.1s2.4,1.2,2.4,3.9C500.7,177.8,499.7,179.2,498.2,179.2
		L498.2,179.2z M498.3,178.7c1.3,0,1.9-1.5,1.9-3.6c0-2-0.6-3.5-1.9-3.5c-1.1,0-1.9,1.4-1.9,3.5S497.1,178.7,498.3,178.7
		L498.3,178.7z"/>
</g>
<g class="st13">
	<path class="st14" d="M502.1,179.2c-0.3,0-0.5-0.3-0.5-0.5c0-0.3,0.2-0.5,0.5-0.5s0.5,0.2,0.5,0.5
		C502.6,178.9,502.4,179.2,502.1,179.2L502.1,179.2z"/>
</g>
<g class="st13">
	<path class="st14" d="M508.1,171.2v0.4l-3.5,7.4H504l3.5-7.3l0,0h-4v-0.5L508.1,171.2L508.1,171.2z"/>
</g>
<g class="st13">
	<path class="st14" d="M5,202v-8.1h0.5l3.1,4.8c0.7,1,1.1,1.8,1.5,2.5l0,0c-0.1-1.1-0.1-2-0.1-3.3v-4h0.6v8.1h-0.5L7,197.3
		c-0.6-0.9-1.2-1.8-1.6-2.6l0,0c0.1,1,0.1,1.9,0.1,3.2v4.1H5z"/>
</g>
<g class="st13">
	<path class="st14" d="M12.7,195.1c-0.3,0-0.4-0.2-0.4-0.5s0.2-0.5,0.5-0.5s0.5,0.2,0.5,0.5C13.2,194.9,13,195.1,12.7,195.1
		L12.7,195.1z M12.5,202v-5.8H13v5.8H12.5z"/>
</g>
<g class="st13">
	<path class="st14" d="M14.7,196.3l1.3,3.6c0.2,0.6,0.4,1,0.6,1.5l0,0c0.2-0.5,0.4-1,0.6-1.5l1.4-3.6h0.6l-2.3,5.8h-0.5l-2.3-5.8
		H14.7z"/>
</g>
<g class="st13">
	<path class="st14" d="M20.2,199.1c0,1.8,1,2.6,2.2,2.6c0.8,0,1.3-0.2,1.6-0.3l0.1,0.4c-0.2,0.1-0.8,0.4-1.8,0.4
		c-1.7,0-2.7-1.2-2.7-2.9c0-1.9,1.1-3.1,2.6-3.1c1.9,0,2.2,1.8,2.2,2.6c0,0.2,0,0.2,0,0.3H20.2z M23.8,198.6c0-0.8-0.3-2-1.7-2
		c-1.3,0-1.8,1.1-1.9,2H23.8z"/>
</g>
<g class="st13">
	<path class="st14" d="M25.8,193.5h0.6v8.5h-0.6V193.5z"/>
</g>
<g class="st13">
	<path class="st14" d="M31,193.5h0.6v8.5H31V193.5z"/>
</g>
<g class="st13">
	<path class="st14" d="M35,193.8l-1.5,1.7h-0.4l1.1-1.7H35z M33.3,202v-5.8h0.6v5.8H33.3z"/>
</g>
<g class="st13">
	<path class="st14" d="M35.6,197.6c0-0.5,0-0.9,0-1.4h0.5v1l0,0c0.3-0.6,1-1.2,2-1.2c0.6,0,2,0.3,2,2.4v3.5h-0.6v-3.4
		c0-1.1-0.4-2-1.6-2c-0.8,0-1.5,0.6-1.7,1.3c0,0.1-0.1,0.3-0.1,0.5v3.6h-0.6L35.6,197.6L35.6,197.6z"/>
</g>
<g class="st13">
	<path class="st14" d="M42.1,199.1c0,1.8,1,2.6,2.2,2.6c0.8,0,1.3-0.2,1.6-0.3l0.1,0.4c-0.2,0.1-0.8,0.4-1.8,0.4
		c-1.7,0-2.7-1.2-2.7-2.9c0-1.9,1.1-3.1,2.6-3.1c1.9,0,2.2,1.8,2.2,2.6c0,0.2,0,0.2,0,0.3H42.1z M45.7,198.6c0-0.8-0.3-2-1.7-2
		c-1.3,0-1.8,1.1-1.9,2H45.7z"/>
</g>
<g class="st13">
	<path class="st14" d="M51.1,200.7c0,0.5,0,0.9,0.1,1.4h-0.5l-0.1-0.8l0,0c-0.3,0.4-0.9,1-1.8,1c-1.2,0-1.7-0.8-1.7-1.6
		c0-1.3,1.2-2.1,3.5-2.1v-0.2c0-0.6-0.1-1.7-1.5-1.7c-0.5,0-1,0.1-1.5,0.4l-0.2-0.4c0.5-0.3,1.2-0.5,1.7-0.5c1.7,0,2,1.2,2,2.3
		V200.7z M50.6,198.9c-1.3,0-2.9,0.2-2.9,1.5c0,0.8,0.6,1.2,1.2,1.2c1,0,1.5-0.6,1.7-1.2c0-0.1,0.1-0.3,0.1-0.3L50.6,198.9
		L50.6,198.9z"/>
</g>
<g class="st13">
	<path class="st14" d="M178.9,194.6c-0.2,0-0.5,0-0.8,0.1c-1.7,0.3-2.6,1.8-2.8,3.3l0,0c0.4-0.6,1.1-1.1,2-1.1
		c1.4,0,2.3,1.1,2.3,2.5s-0.9,2.7-2.4,2.7c-1.4,0-2.5-1.1-2.5-3.3c0-1.6,0.6-2.8,1.3-3.5c0.6-0.6,1.3-1,2.2-1.2
		c0.3-0.1,0.6-0.1,0.8-0.1v0.6H178.9z M177.3,201.7c1.1,0,1.8-0.9,1.8-2.2c0-1.4-0.8-2.1-1.9-2.1c-0.7,0-1.4,0.4-1.8,1.1
		c-0.1,0.1-0.1,0.3-0.1,0.5C175.3,200.6,176,201.7,177.3,201.7L177.3,201.7z"/>
</g>
<g class="st13">
	<path class="st14" d="M180.3,203.5c0.2-0.5,0.5-1.8,0.6-2.5l0.8-0.1c-0.2,0.9-0.7,2.3-0.9,2.6H180.3z"/>
</g>
<g class="st13">
	<path class="st14" d="M184.9,202.2c-1.2,0-2.4-1.2-2.4-4s1.2-4.1,2.6-4.1c1.4,0,2.4,1.2,2.4,3.9
		C187.4,200.8,186.4,202.2,184.9,202.2L184.9,202.2z M184.9,201.7c1.3,0,1.9-1.5,1.9-3.6c0-2-0.6-3.5-1.9-3.5
		c-1.1,0-1.9,1.4-1.9,3.5S183.8,201.7,184.9,201.7L184.9,201.7z"/>
</g>
<g class="st13">
	<path class="st14" d="M188.2,201.2c0.3,0.2,0.9,0.5,1.7,0.5c1.6,0,2-1.1,2-1.8c0-1.3-1.1-1.8-2.3-1.8h-0.5v-0.5h0.5
		c0.9,0,2-0.5,2-1.6c0-0.7-0.4-1.4-1.5-1.4c-0.6,0-1.2,0.3-1.5,0.5l-0.2-0.4c0.4-0.3,1.1-0.6,1.8-0.6c1.5,0,2,0.9,2,1.8
		c0,0.8-0.5,1.5-1.5,1.8l0,0c1,0.2,1.8,0.9,1.8,2.1c0,1.2-0.8,2.3-2.6,2.3c-0.8,0-1.5-0.3-1.8-0.5L188.2,201.2z"/>
</g>
<g class="st13">
	<path class="st14" d="M196.1,194.1c1.3,0,2.1,0.9,2.1,1.9c0,0.6-0.3,1.4-1.4,1.9l0,0c1.1,0.4,1.7,1.2,1.7,2.1
		c0,1.3-1.2,2.2-2.4,2.2c-1.4,0-2.4-0.9-2.4-2.1c0-1,0.6-1.7,1.6-2.2l0,0c-0.9-0.4-1.3-1.1-1.3-1.8
		C193.9,194.9,194.8,194.1,196.1,194.1L196.1,194.1z M196,201.7c1.1,0,1.9-0.7,1.9-1.6c0-1.1-0.7-1.6-2-2c-1.1,0.3-1.7,1-1.7,1.9
		C194.1,200.9,194.8,201.7,196,201.7L196,201.7z M196,194.6c-1,0-1.6,0.7-1.6,1.5c0,0.9,0.7,1.4,1.7,1.7c0.8-0.3,1.4-0.8,1.4-1.7
		C197.6,195.3,197.1,194.6,196,194.6L196,194.6z"/>
</g>
<g class="st13">
	<path class="st14" d="M199.1,203.5c0.2-0.5,0.5-1.8,0.6-2.5l0.8-0.1c-0.2,0.9-0.7,2.3-0.9,2.6H199.1z"/>
</g>
<g class="st13">
	<path class="st14" d="M203.7,202.2c-1.2,0-2.4-1.2-2.4-4s1.2-4.1,2.6-4.1c1.4,0,2.4,1.2,2.4,3.9
		C206.2,200.8,205.2,202.2,203.7,202.2L203.7,202.2z M203.8,201.7c1.3,0,1.9-1.5,1.9-3.6c0-2-0.6-3.5-1.9-3.5
		c-1.1,0-1.9,1.4-1.9,3.5C201.9,200.2,202.6,201.7,203.8,201.7L203.8,201.7z"/>
</g>
<g class="st13">
	<path class="st14" d="M207,201.2c0.3,0.2,0.9,0.5,1.7,0.5c1.6,0,2-1.1,2-1.8c0-1.3-1.1-1.8-2.3-1.8h-0.5v-0.5h0.5
		c0.9,0,2-0.5,2-1.6c0-0.7-0.4-1.4-1.5-1.4c-0.6,0-1.2,0.3-1.5,0.5l-0.2-0.4c0.4-0.3,1.1-0.6,1.8-0.6c1.5,0,2,0.9,2,1.8
		c0,0.8-0.5,1.5-1.5,1.8l0,0c1,0.2,1.8,0.9,1.8,2.1c0,1.2-0.8,2.3-2.6,2.3c-0.8,0-1.5-0.3-1.8-0.5L207,201.2z"/>
</g>
<g class="st13">
	<path class="st14" d="M214.1,194.8L214.1,194.8l-1.3,0.7l-0.1-0.5l1.5-0.9h0.5v7.8h-0.6L214.1,194.8L214.1,194.8z"/>
</g>
<g class="st13">
	<path class="st14" d="M291.1,202v-0.3l0.7-0.7c2.2-2.1,3.1-3.2,3.1-4.6c0-0.9-0.4-1.8-1.7-1.8c-0.7,0-1.3,0.4-1.7,0.7l-0.2-0.4
		c0.5-0.5,1.2-0.8,2-0.8c1.6,0,2.2,1.2,2.2,2.1c0,1.5-1.1,2.8-3.1,4.7l-0.6,0.6l0,0h3.8v0.5H291.1z"/>
</g>
<g class="st13">
	<path class="st14" d="M301.2,194.2v0.4l-3.5,7.4h-0.6l3.5-7.3l0,0h-4v-0.5L301.2,194.2L301.2,194.2z"/>
</g>
<g class="st13">
	<path class="st14" d="M301.5,202.2c-0.3,0-0.5-0.3-0.5-0.5c0-0.3,0.2-0.5,0.5-0.5s0.5,0.2,0.5,0.5
		C302,201.9,301.8,202.2,301.5,202.2L301.5,202.2z"/>
</g>
<g class="st13">
	<path class="st14" d="M304.4,194.8L304.4,194.8l-1.3,0.7L303,195l1.5-0.9h0.5v7.8h-0.6V194.8z"/>
</g>
<g class="st13">
	<path class="st14" d="M385.8,202v-0.3l0.7-0.7c2.2-2.1,3.1-3.2,3.1-4.6c0-0.9-0.4-1.8-1.7-1.8c-0.7,0-1.3,0.4-1.7,0.7l-0.2-0.4
		c0.5-0.5,1.2-0.8,2-0.8c1.6,0,2.2,1.2,2.2,2.1c0,1.5-1.1,2.8-3.1,4.7l-0.6,0.6l0,0h3.8v0.5H385.8z"/>
</g>
<g class="st13">
	<path class="st14" d="M394.2,202v-2.3h-3.7v-0.4l3.8-5.1h0.5v5h1.2v0.5h-1.2v2.3H394.2z M394.2,199.2V196c0-0.4,0-0.7,0-1.1l0,0
		c-0.2,0.4-0.4,0.7-0.6,1l-2.4,3.2l0,0h3V199.2z"/>
</g>
<g class="st13">
	<path class="st14" d="M400.3,202v-2.3h-3.7v-0.4l3.8-5.1h0.5v5h1.2v0.5h-1.2v2.3H400.3z M400.3,199.2V196c0-0.4,0-0.7,0-1.1l0,0
		c-0.2,0.4-0.4,0.7-0.6,1l-2.4,3.2l0,0h3V199.2z"/>
</g>
<g class="st13">
	<path class="st14" d="M402.4,203.5c0.2-0.5,0.5-1.8,0.6-2.5l0.8-0.1c-0.2,0.9-0.7,2.3-0.9,2.6H402.4z"/>
</g>
<g class="st13">
	<path class="st14" d="M406.2,194.8L406.2,194.8l-1.3,0.7l-0.1-0.5l1.5-0.9h0.5v7.8h-0.6V194.8z"/>
</g>
<g class="st13">
	<path class="st14" d="M413,194.7h-2.9l-0.4,2.5c0.2,0,0.4-0.1,0.7-0.1c0.5,0,1,0.1,1.5,0.3c0.6,0.3,1.2,1,1.2,2
		c0,1.6-1.2,2.6-2.6,2.6c-0.8,0-1.5-0.3-1.8-0.5l0.2-0.5c0.3,0.2,0.9,0.5,1.6,0.5c1.1,0,2-0.8,2-2c0-1.1-0.7-2-2.3-2
		c-0.5,0-0.8,0-1.1,0.1l0.5-3.5h3.4L413,194.7L413,194.7z"/>
</g>
<g class="st13">
	<path class="st14" d="M418.9,194.2v0.4l-3.5,7.4h-0.6l3.5-7.3l0,0h-4v-0.5L418.9,194.2L418.9,194.2z"/>
</g>
<g class="st13">
	<path class="st14" d="M499.9,194.6c-0.2,0-0.5,0-0.8,0.1c-1.7,0.3-2.6,1.8-2.8,3.3l0,0c0.4-0.6,1.1-1.1,2-1.1
		c1.4,0,2.3,1.1,2.3,2.5s-0.9,2.7-2.4,2.7c-1.4,0-2.5-1.1-2.5-3.3c0-1.6,0.6-2.8,1.3-3.5c0.6-0.6,1.3-1,2.2-1.2
		c0.3-0.1,0.6-0.1,0.8-0.1v0.6H499.9z M498.2,201.7c1.1,0,1.8-0.9,1.8-2.2c0-1.4-0.8-2.1-1.9-2.1c-0.7,0-1.4,0.4-1.8,1.1
		c-0.1,0.1-0.1,0.3-0.1,0.5C496.2,200.6,496.9,201.7,498.2,201.7L498.2,201.7z"/>
</g>
<g class="st13">
	<path class="st14" d="M502.1,202.2c-0.3,0-0.5-0.3-0.5-0.5c0-0.3,0.2-0.5,0.5-0.5s0.5,0.2,0.5,0.5
		C502.6,201.9,502.4,202.2,502.1,202.2L502.1,202.2z"/>
</g>
<g class="st13">
	<path class="st14" d="M506.7,202v-2.3H503v-0.4l3.8-5.1h0.5v5h1.2v0.5h-1.2v2.3H506.7z M506.7,199.2V196c0-0.4,0-0.7,0-1.1l0,0
		c-0.2,0.4-0.4,0.7-0.6,1l-2.4,3.2l0,0h3V199.2z"/>
</g>
<g>
	<path class="st14" d="M4.7,108.9c0.4,0.3,1.1,0.5,1.7,0.5c1.2,0,1.9-0.7,1.9-1.6c0-0.9-0.5-1.4-1.6-1.9c-1.3-0.4-2-1.1-2-2.2
		c0-1.2,1-2,2.3-2c0.7,0,1.3,0.2,1.6,0.4l-0.2,0.5c-0.2-0.2-0.7-0.4-1.4-0.4c-1.3,0-1.7,0.8-1.7,1.4c0,0.9,0.5,1.3,1.6,1.8
		c1.3,0.5,2,1.1,2,2.3c0,1.1-0.8,2.2-2.5,2.2c-0.7,0-1.5-0.2-1.9-0.5L4.7,108.9z"/>
	<path class="st14" d="M14.7,108.4c0,0.5,0,0.9,0,1.4h-0.5l0-1h0c-0.3,0.5-0.9,1.1-1.9,1.1c-0.7,0-1.9-0.4-1.9-2.5v-3.3h0.6v3.2
		c0,1.2,0.4,2.1,1.5,2.1c0.8,0,1.4-0.6,1.7-1.1c0.1-0.2,0.1-0.4,0.1-0.6v-3.5h0.6V108.4z"/>
	<path class="st14" d="M16.6,109.8c0-0.4,0-0.9,0-1.3v-7h0.6v3.7h0c0.4-0.7,1.1-1.2,2.1-1.2c1.4,0,2.4,1.2,2.4,2.9c0,2-1.3,3-2.5,3
		c-0.9,0-1.6-0.4-2-1.1h0l0,1H16.6z M17.2,107.6c0,0.1,0,0.3,0,0.4c0.2,0.9,1,1.4,1.9,1.4c1.3,0,2-1.1,2-2.5c0-1.3-0.7-2.4-2-2.4
		c-0.8,0-1.6,0.6-1.9,1.5c0,0.1-0.1,0.3-0.1,0.5V107.6z"/>
	<path class="st14" d="M27.5,101.5v7c0,0.4,0,0.9,0,1.3h-0.5l0-1.1h0c-0.3,0.6-1,1.2-2,1.2c-1.4,0-2.4-1.2-2.4-2.8
		c0-1.9,1.1-3,2.5-3c1,0,1.6,0.5,1.8,1h0v-3.6H27.5z M27,106.4c0-0.2,0-0.4-0.1-0.5c-0.2-0.8-0.9-1.4-1.8-1.4c-1.2,0-2,1.1-2,2.5
		c0,1.3,0.6,2.4,2,2.4c0.8,0,1.6-0.5,1.8-1.5c0-0.2,0.1-0.3,0.1-0.5V106.4z"/>
	<path class="st14" d="M30.2,102.5c0,0.3-0.2,0.5-0.5,0.5c-0.3,0-0.4-0.2-0.4-0.5s0.2-0.5,0.5-0.5C30,102,30.2,102.3,30.2,102.5z
		 M29.4,109.8v-5.6H30v5.6H29.4z"/>
	<path class="st14" d="M31.9,105.8c0-0.6,0-1.1,0-1.7h0.5l0,1.1h0c0.2-0.7,0.8-1.3,1.6-1.3c0.1,0,0.2,0,0.2,0v0.5
		c-0.1,0-0.2,0-0.3,0c-0.8,0-1.3,0.7-1.5,1.6c0,0.2,0,0.4,0,0.5v3.1h-0.6V105.8z"/>
	<path class="st14" d="M35.3,106.9c0,1.8,1,2.5,2.1,2.5c0.8,0,1.2-0.2,1.6-0.3l0.1,0.4c-0.2,0.1-0.8,0.4-1.8,0.4
		c-1.6,0-2.6-1.2-2.6-2.8c0-1.9,1.1-3,2.5-3c1.8,0,2.2,1.7,2.2,2.5c0,0.2,0,0.2,0,0.3H35.3z M38.9,106.5c0-0.8-0.3-2-1.7-2
		c-1.2,0-1.8,1.1-1.9,2H38.9z"/>
	<path class="st14" d="M44.8,109.5c-0.2,0.1-0.8,0.4-1.6,0.4c-1.6,0-2.7-1.2-2.7-2.9c0-1.8,1.2-3,2.9-3c0.7,0,1.3,0.2,1.5,0.4
		l-0.2,0.5c-0.3-0.2-0.7-0.3-1.3-0.3c-1.5,0-2.3,1.2-2.3,2.5c0,1.5,0.9,2.4,2.2,2.4c0.7,0,1.1-0.2,1.4-0.3L44.8,109.5z"/>
	<path class="st14" d="M47,102.5v1.6h1.6v0.4H47v3.7c0,0.7,0.2,1.2,0.8,1.2c0.3,0,0.5,0,0.6-0.1l0.1,0.4c-0.2,0.1-0.4,0.1-0.8,0.1
		c-0.4,0-0.8-0.1-1-0.4c-0.3-0.3-0.4-0.8-0.4-1.3v-3.6h-0.9v-0.4h0.9v-1.5L47,102.5z"/>
	<path class="st14" d="M54.6,106.9c0,2.1-1.4,3-2.7,3c-1.5,0-2.6-1.1-2.6-2.9c0-1.9,1.3-3,2.7-3C53.5,104,54.6,105.2,54.6,106.9z
		 M49.9,107c0,1.4,0.9,2.5,2.1,2.5c1.2,0,2.1-1.1,2.1-2.5c0-1-0.6-2.5-2.1-2.5C50.5,104.5,49.9,105.8,49.9,107z"/>
	<path class="st14" d="M56,105.8c0-0.6,0-1.1,0-1.7h0.5l0,1.1h0c0.2-0.7,0.8-1.3,1.6-1.3c0.1,0,0.2,0,0.2,0v0.5c-0.1,0-0.2,0-0.3,0
		c-0.8,0-1.3,0.7-1.5,1.6c0,0.2,0,0.4,0,0.5v3.1H56V105.8z"/>
	<path class="st14" d="M59.4,106.9c0,1.8,1,2.5,2.1,2.5c0.8,0,1.2-0.2,1.6-0.3l0.1,0.4c-0.2,0.1-0.8,0.4-1.8,0.4
		c-1.6,0-2.6-1.2-2.6-2.8c0-1.9,1.1-3,2.5-3c1.8,0,2.2,1.7,2.2,2.5c0,0.2,0,0.2,0,0.3H59.4z M63,106.5c0-0.8-0.3-2-1.7-2
		c-1.2,0-1.8,1.1-1.9,2H63z"/>
	<path class="st14" d="M64.8,109c0.3,0.2,0.8,0.4,1.3,0.4c0.9,0,1.3-0.5,1.3-1.1c0-0.6-0.4-0.9-1.2-1.3c-0.9-0.4-1.4-0.9-1.4-1.5
		c0-0.8,0.6-1.5,1.7-1.5c0.5,0,0.9,0.2,1.2,0.4l-0.2,0.5c-0.2-0.1-0.6-0.3-1.1-0.3c-0.7,0-1.1,0.5-1.1,1c0,0.6,0.4,0.8,1.2,1.2
		c0.9,0.4,1.5,0.8,1.5,1.7c0,1-0.8,1.6-1.9,1.6c-0.6,0-1.1-0.2-1.4-0.4L64.8,109z"/>
	<path class="st14" d="M74,101.6c-1,1.2-1.7,2.7-1.7,4.8c0,2.1,0.7,3.6,1.7,4.8h-0.5c-0.8-1-1.7-2.5-1.7-4.8c0-2.3,0.8-3.8,1.7-4.8
		H74z"/>
	<path class="st14" d="M74.6,108.9c0.4,0.3,0.9,0.5,1.6,0.5c1,0,2-0.7,2-1.8c0-0.7-0.3-1.2-1.2-1.7c-1.1-0.6-1.5-1.2-1.5-2
		c0-1.3,1.1-2.2,2.4-2.2c0.7,0,1.2,0.2,1.5,0.4l-0.2,0.4c-0.2-0.2-0.7-0.4-1.3-0.4c-1.1,0-1.8,0.8-1.8,1.6c0,0.8,0.4,1.2,1.3,1.7
		c1,0.5,1.5,1.1,1.5,2.1c0,1.1-0.8,2.3-2.6,2.3c-0.6,0-1.4-0.2-1.7-0.5L74.6,108.9z"/>
	<path class="st14" d="M82.9,112.1l0.7-3.5h0c-0.5,0.8-1.3,1.3-2.1,1.3c-1.2,0-1.6-1-1.6-2c0-1.9,1.5-3.9,3.4-3.9
		c0.7,0,1.3,0.2,1.6,0.4l-1.5,7.7H82.9z M84.3,104.7c-0.2-0.1-0.6-0.2-1.1-0.2c-1.5,0-2.8,1.5-2.8,3.4c0,1,0.4,1.6,1.1,1.6
		c1.1,0,2.1-1.3,2.4-2.5L84.3,104.7z"/>
	<path class="st14" d="M90.8,104.1l-0.8,4.1c-0.1,0.6-0.2,1.1-0.2,1.5h-0.5l0.2-1.2h0c-0.5,0.7-1.2,1.3-2,1.3
		c-0.6,0-1.5-0.2-1.5-1.7c0-0.2,0-0.5,0.1-0.9l0.6-3.2h0.5l-0.6,3.2c-0.1,0.4-0.1,0.6-0.1,0.9c0,0.7,0.3,1.2,1.1,1.2
		c0.8,0,1.9-0.9,2.1-2.2l0.6-3.1H90.8z"/>
	<path class="st14" d="M95.4,109.8c0-0.4,0.1-1,0.2-1.7h0c-0.7,1.3-1.5,1.8-2.4,1.8c-1,0-1.6-0.8-1.6-1.8c0-2,1.6-4.1,3.8-4.1
		c0.5,0,1,0.1,1.3,0.2l-0.6,2.9c-0.2,1.1-0.3,2.1-0.2,2.7H95.4z M96.1,104.6c-0.1,0-0.4-0.1-0.8-0.1c-1.7,0-3.2,1.6-3.2,3.5
		c0,0.7,0.2,1.4,1.1,1.4c1,0,2.2-1.3,2.5-2.9L96.1,104.6z"/>
	<path class="st14" d="M103.1,101.5l-1.3,6.8c-0.1,0.5-0.2,1.1-0.2,1.5h-0.5l0.2-1.2h0c-0.5,0.8-1.2,1.4-2.1,1.4c-1.2,0-1.7-1-1.7-2
		c0-2,1.5-3.9,3.4-3.9c0.4,0,0.9,0.1,1.1,0.2l0.5-2.8H103.1z M102,104.7c-0.2-0.2-0.6-0.3-1.1-0.3c-1.6,0-2.8,1.6-2.8,3.4
		c0,0.7,0.2,1.6,1.2,1.6c0.9,0,2-1.1,2.3-2.4L102,104.7z"/>
	<path class="st14" d="M103.4,109.1c0.2,0.2,0.6,0.3,1.1,0.3c0.8,0,1.3-0.5,1.3-1.2c0-0.5-0.2-0.9-0.8-1.2c-0.6-0.4-0.9-0.9-0.9-1.4
		c0-0.9,0.8-1.6,1.8-1.6c0.4,0,0.8,0.1,1,0.3l-0.2,0.4c-0.2-0.1-0.5-0.3-0.9-0.3c-0.7,0-1.2,0.5-1.2,1.1c0,0.5,0.3,0.8,0.8,1.1
		c0.6,0.4,0.9,0.9,0.9,1.4c0,1.1-0.9,1.8-1.9,1.8c-0.5,0-1-0.2-1.2-0.4L103.4,109.1z"/>
	<path class="st14" d="M111.1,101.9h0.5l-1.4,7.4h3.3l-0.1,0.5h-3.8L111.1,101.9z"/>
	<path class="st14" d="M117.7,109.4c-0.3,0.2-0.9,0.4-1.7,0.4c-1.4,0-2-1.1-2-2.2c0-1.7,1.3-3.7,3-3.7c1,0,1.5,0.6,1.5,1.3
		c0,1.5-1.8,1.8-3.8,1.8c-0.1,0.3-0.1,1,0.1,1.4c0.2,0.6,0.7,1,1.4,1c0.7,0,1.2-0.2,1.5-0.4L117.7,109.4z M117.9,105.3
		c0-0.6-0.4-0.9-1-0.9c-1,0-1.9,1.1-2.2,2.2C116.4,106.7,117.9,106.4,117.9,105.3L117.9,105.3z"/>
	<path class="st14" d="M122.8,109.8c0-0.4,0.1-1,0.2-1.7h0c-0.7,1.3-1.5,1.8-2.4,1.8c-1,0-1.6-0.8-1.6-1.8c0-2,1.6-4.1,3.8-4.1
		c0.5,0,1,0.1,1.3,0.2l-0.6,2.9c-0.2,1.1-0.3,2.1-0.2,2.7H122.8z M123.5,104.6c-0.1,0-0.4-0.1-0.8-0.1c-1.7,0-3.2,1.6-3.2,3.5
		c0,0.7,0.2,1.4,1.1,1.4c1,0,2.2-1.3,2.5-2.9L123.5,104.6z"/>
	<path class="st14" d="M130.5,101.5l-1.3,6.8c-0.1,0.5-0.2,1.1-0.2,1.5h-0.5l0.2-1.2h0c-0.5,0.8-1.2,1.4-2.1,1.4c-1.2,0-1.7-1-1.7-2
		c0-2,1.5-3.9,3.4-3.9c0.4,0,0.9,0.1,1.1,0.2l0.5-2.8H130.5z M129.3,104.7c-0.2-0.2-0.6-0.3-1.1-0.3c-1.6,0-2.8,1.6-2.8,3.4
		c0,0.7,0.2,1.6,1.2,1.6c0.9,0,2-1.1,2.3-2.4L129.3,104.7z"/>
	<path class="st14" d="M130.7,109.1c0.2,0.2,0.6,0.3,1.1,0.3c0.8,0,1.3-0.5,1.3-1.2c0-0.5-0.2-0.9-0.8-1.2c-0.6-0.4-0.9-0.9-0.9-1.4
		c0-0.9,0.8-1.6,1.8-1.6c0.4,0,0.8,0.1,1,0.3l-0.2,0.4c-0.2-0.1-0.5-0.3-0.9-0.3c-0.7,0-1.2,0.5-1.2,1.1c0,0.5,0.3,0.8,0.8,1.1
		c0.6,0.4,0.9,0.9,0.9,1.4c0,1.1-0.9,1.8-1.9,1.8c-0.5,0-1-0.2-1.2-0.4L130.7,109.1z"/>
	<path class="st14" d="M134.5,111.2c0.9-1.2,1.7-2.7,1.7-4.8c0-2.1-0.7-3.6-1.7-4.8h0.5c0.8,1,1.7,2.5,1.7,4.8
		c0,2.3-0.8,3.8-1.7,4.8H134.5z"/>
</g>
</svg>
