<svg id="Capa_1" data-name="Capa 1" xmlns="http://www.w3.org/2000/svg" xmlns:xlink="http://www.w3.org/1999/xlink" viewBox="0 0 557.33 209"><defs><style>.cls-1,.cls-10,.cls-8,.cls-9{fill:none;}.cls-2{fill:#eae8e9;}.cls-3{fill:#0078be;}.cls-4{fill:#52bed2;}.cls-5{fill:#f9f9f9;}.cls-6{fill:#e5e6f2;}.cls-7{fill:#f1f8fb;}.cls-8{stroke:#a0999a;stroke-width:0.25px;}.cls-10,.cls-8,.cls-9{stroke-miterlimit:10;}.cls-9{stroke:#fff;}.cls-10,.cls-9{stroke-width:5px;}.cls-10{stroke:#edf1f3;}.cls-11{clip-path:url(#clip-path);}.cls-12,.cls-16,.cls-46,.cls-47,.cls-84,.cls-88{font-size:12px;}.cls-12,.cls-28,.cls-46,.cls-47,.cls-84,.cls-88{fill:#545051;}.cls-12,.cls-16{font-family:MyriadPro-Bold, Myriad Pro;font-weight:700;}.cls-13{letter-spacing:0em;}.cls-14{letter-spacing:-0.02em;}.cls-15{letter-spacing:0em;}.cls-16{fill:#fff;}.cls-17{letter-spacing:0em;}.cls-18{letter-spacing:0em;}.cls-19{letter-spacing:0em;}.cls-20{letter-spacing:-0.01em;}.cls-21{letter-spacing:-0.02em;}.cls-22{letter-spacing:0em;}.cls-23{letter-spacing:-0.01em;}.cls-24{letter-spacing:0.01em;}.cls-25{letter-spacing:0em;}.cls-26{letter-spacing:-0.01em;}.cls-27{letter-spacing:0em;}.cls-28{font-size:10px;font-family:MyriadPro-Regular, Myriad Pro;}.cls-29{letter-spacing:0.01em;}.cls-30{letter-spacing:0em;}.cls-31{letter-spacing:0em;}.cls-32{letter-spacing:0em;}.cls-33{letter-spacing:0em;}.cls-34{letter-spacing:0em;}.cls-35{letter-spacing:0em;}.cls-36{letter-spacing:0em;}.cls-37{letter-spacing:0.01em;}.cls-38{letter-spacing:0em;}.cls-39{letter-spacing:0em;}.cls-40{letter-spacing:0.01em;}.cls-41{letter-spacing:0em;}.cls-42{letter-spacing:0em;}.cls-43{letter-spacing:0em;}.cls-44{letter-spacing:0em;}.cls-45{letter-spacing:0.01em;}.cls-46,.cls-47,.cls-84,.cls-88{font-family:MyriadPro-Light, Myriad Pro;font-weight:300;}.cls-47,.cls-62{letter-spacing:-0.06em;}.cls-48{letter-spacing:-0.04em;}.cls-49{letter-spacing:-0.03em;}.cls-50{letter-spacing:-0.07em;}.cls-51{letter-spacing:-0.02em;}.cls-52{letter-spacing:-0.02em;}.cls-53{letter-spacing:-0.01em;}.cls-54{letter-spacing:-0.01em;}.cls-55{letter-spacing:-0.02em;}.cls-56{letter-spacing:-0.01em;}.cls-57{letter-spacing:-0.01em;}.cls-58{letter-spacing:-0.01em;}.cls-59{letter-spacing:-0.02em;}.cls-60{letter-spacing:0.02em;}.cls-61{letter-spacing:-0.01em;}.cls-63{letter-spacing:-0.08em;}.cls-64{letter-spacing:-0.1em;}.cls-65{letter-spacing:-0.12em;}.cls-66{letter-spacing:0em;}.cls-67,.cls-88{letter-spacing:-0.04em;}.cls-68{letter-spacing:-0.08em;}.cls-69{letter-spacing:-0.02em;}.cls-70{letter-spacing:-0.03em;}.cls-71{letter-spacing:-0.02em;}.cls-72{letter-spacing:-0.01em;}.cls-73{letter-spacing:0em;}.cls-74{letter-spacing:-0.01em;}.cls-75{letter-spacing:0.01em;}.cls-76{letter-spacing:-0.07em;}.cls-77{letter-spacing:-0.06em;}.cls-78{letter-spacing:-0.07em;}.cls-79{letter-spacing:-0.07em;}.cls-80{letter-spacing:0.01em;}.cls-81{letter-spacing:-0.11em;}.cls-82{letter-spacing:-0.02em;}.cls-83{letter-spacing:-0.01em;}.cls-84,.cls-98{letter-spacing:-0.02em;}.cls-85{letter-spacing:-0.02em;}.cls-86{letter-spacing:-0.04em;}.cls-87{letter-spacing:-0.05em;}.cls-89{letter-spacing:-0.03em;}.cls-90{letter-spacing:-0.02em;}.cls-91{letter-spacing:-0.07em;}.cls-92{letter-spacing:-0.07em;}.cls-93{letter-spacing:0em;}.cls-94{letter-spacing:-0.06em;}.cls-95{letter-spacing:0em;}.cls-96{letter-spacing:-0.03em;}.cls-97{letter-spacing:-0.01em;}.cls-99{letter-spacing:-0.02em;}.cls-100{letter-spacing:-0.04em;}.cls-101{letter-spacing:-0.02em;}.cls-102{letter-spacing:-0.12em;}.cls-103{letter-spacing:-0.07em;}.cls-104{letter-spacing:0em;}.cls-105{letter-spacing:-0.02em;}.cls-106{letter-spacing:-0.04em;}.cls-107{letter-spacing:-0.09em;}.cls-108{letter-spacing:-0.02em;}.cls-109{letter-spacing:0.02em;}.cls-110{letter-spacing:-0.01em;}.cls-111{letter-spacing:0em;}.cls-112{letter-spacing:-0.01em;}.cls-113{letter-spacing:-0.03em;}.cls-114{letter-spacing:-0.03em;}.cls-115{letter-spacing:0.01em;}.cls-116{letter-spacing:-0.02em;}.cls-117{letter-spacing:-0.01em;}.cls-118{letter-spacing:-0.04em;}.cls-119{letter-spacing:-0.07em;}.cls-120{letter-spacing:0.02em;}.cls-121{letter-spacing:-0.07em;}.cls-122{letter-spacing:-0.09em;}.cls-123{letter-spacing:-0.03em;}</style><clipPath id="clip-path"><rect class="cls-1" x="-9" y="-33.5" width="588" height="247.13"/></clipPath></defs><rect class="cls-2" width="144" height="25"/><rect class="cls-3" x="144" width="206.67" height="25"/><rect class="cls-4" x="350.67" width="206.67" height="25"/><path class="cls-5" d="M0,186H144v23H0Zm0-23H144v23H0Zm0-23H144v23H0Zm0-23H144v23H0ZM0,94H144v23H0ZM0,71H144V94H0ZM0,48H144V71H0ZM0,25H144V48H0Z"/><path class="cls-6" d="M247.33,186H350.67v23H247.33ZM144,186H247.33v23H144Zm103.33-23H350.67v23H247.33ZM144,163H247.33v23H144Zm103.33-23H350.67v23H247.33ZM144,140H247.33v23H144Zm103.33-23H350.67v23H247.33ZM144,117H247.33v23H144ZM247.33,94H350.67v23H247.33ZM144,94H247.33v23H144ZM247.33,71H350.67V94H247.33ZM144,71H247.33V94H144ZM247.33,48H350.67V71H247.33ZM144,48H247.33V71H144ZM247.33,25H350.67V48H247.33ZM144,25H247.33V48H144Z"/><path class="cls-7" d="M454,186H557.33v23H454Zm-103.33,0H454v23H350.67ZM454,163H557.33v23H454Zm-103.33,0H454v23H350.67ZM454,140H557.33v23H454Zm-103.33,0H454v23H350.67ZM454,117H557.33v23H454Zm-103.33,0H454v23H350.67ZM454,94H557.33v23H454ZM350.67,94H454v23H350.67ZM454,71H557.33V94H454ZM350.67,71H454V94H350.67ZM454,48H557.33V71H454ZM350.67,48H454V71H350.67ZM454,25H557.33V48H454ZM350.67,25H454V48H350.67Z"/><line class="cls-8" y1="25" x2="141.5" y2="25"/><line class="cls-8" x1="146.5" y1="25" x2="247.33" y2="25"/><line class="cls-8" x1="247.33" y1="25" x2="348.17" y2="25"/><line class="cls-8" x1="353.17" y1="25" x2="454" y2="25"/><line class="cls-8" x1="454" y1="25" x2="557.33" y2="25"/><line class="cls-8" y1="48" x2="141.5" y2="48"/><line class="cls-8" x1="146.5" y1="48" x2="244.83" y2="48"/><line class="cls-8" x1="249.83" y1="48" x2="348.17" y2="48"/><line class="cls-8" x1="353.17" y1="48" x2="451.5" y2="48"/><line class="cls-8" x1="456.5" y1="48" x2="557.33" y2="48"/><line class="cls-8" y1="71" x2="141.5" y2="71"/><line class="cls-8" x1="146.5" y1="71" x2="244.83" y2="71"/><line class="cls-8" x1="249.83" y1="71" x2="348.17" y2="71"/><line class="cls-8" x1="353.17" y1="71" x2="451.5" y2="71"/><line class="cls-8" x1="456.5" y1="71" x2="557.33" y2="71"/><line class="cls-8" y1="94" x2="141.5" y2="94"/><line class="cls-8" x1="146.5" y1="94" x2="244.83" y2="94"/><line class="cls-8" x1="249.83" y1="94" x2="348.17" y2="94"/><line class="cls-8" x1="353.17" y1="94" x2="451.5" y2="94"/><line class="cls-8" x1="456.5" y1="94" x2="557.33" y2="94"/><line class="cls-9" x1="350.67" y1="25" x2="350.67"/><line class="cls-10" x1="144" y1="25" x2="144"/><line class="cls-10" x1="144" y1="48" x2="144" y2="25"/><line class="cls-10" x1="144" y1="71" x2="144" y2="48"/><line class="cls-10" x1="144" y1="94" x2="144" y2="71"/><line class="cls-10" x1="144" y1="116.88" x2="144" y2="94"/><line class="cls-10" x1="144" y1="139.88" x2="144" y2="117.13"/><line class="cls-10" x1="144" y1="162.88" x2="144" y2="140.13"/><line class="cls-10" x1="144" y1="185.88" x2="144" y2="163.13"/><g class="cls-11"><line class="cls-10" x1="144" y1="209" x2="144" y2="186.13"/></g><line class="cls-8" y1="117" x2="144" y2="117"/><line class="cls-8" y1="140" x2="144" y2="140"/><line class="cls-8" y1="163" x2="144" y2="163"/><line class="cls-8" y1="186" x2="144" y2="186"/><line class="cls-8" x1="249.83" y1="117" x2="348.17" y2="117"/><line class="cls-8" x1="249.83" y1="140" x2="348.17" y2="140"/><line class="cls-8" x1="249.83" y1="163" x2="348.17" y2="163"/><line class="cls-8" x1="249.83" y1="186" x2="348.17" y2="186"/><line class="cls-8" x1="144" y1="117" x2="244.83" y2="117"/><line class="cls-8" x1="144" y1="140" x2="244.83" y2="140"/><line class="cls-8" x1="144" y1="163" x2="244.83" y2="163"/><line class="cls-8" x1="144" y1="186" x2="244.83" y2="186"/><line class="cls-8" x1="353.17" y1="117" x2="451.5" y2="117"/><line class="cls-8" x1="353.17" y1="140" x2="451.5" y2="140"/><line class="cls-8" x1="353.17" y1="163" x2="451.5" y2="163"/><line class="cls-8" x1="353.17" y1="186" x2="451.5" y2="186"/><line class="cls-8" x1="456.5" y1="117" x2="557.33" y2="117"/><line class="cls-8" x1="456.5" y1="140" x2="557.33" y2="140"/><line class="cls-8" x1="456.5" y1="163" x2="557.33" y2="163"/><line class="cls-8" x1="456.5" y1="186" x2="557.33" y2="186"/><line class="cls-9" x1="247.33" y1="48" x2="247.33" y2="25.13"/><line class="cls-9" x1="247.33" y1="71" x2="247.33" y2="48"/><line class="cls-9" x1="247.33" y1="94" x2="247.33" y2="71"/><line class="cls-9" x1="247.33" y1="117" x2="247.33" y2="94"/><line class="cls-9" x1="247.33" y1="140" x2="247.33" y2="117"/><line class="cls-9" x1="247.33" y1="163" x2="247.33" y2="140"/><line class="cls-9" x1="247.33" y1="186" x2="247.33" y2="163"/><g class="cls-11"><line class="cls-9" x1="247.33" y1="209" x2="247.33" y2="186"/></g><line class="cls-9" x1="350.67" y1="48" x2="350.67" y2="25"/><line class="cls-9" x1="350.67" y1="71" x2="350.67" y2="48"/><line class="cls-9" x1="350.67" y1="94" x2="350.67" y2="71"/><line class="cls-9" x1="350.67" y1="117" x2="350.67" y2="94"/><line class="cls-9" x1="350.67" y1="140" x2="350.67" y2="117"/><line class="cls-9" x1="350.67" y1="163" x2="350.67" y2="140"/><line class="cls-9" x1="350.67" y1="186" x2="350.67" y2="163"/><g class="cls-11"><line class="cls-9" x1="350.67" y1="209" x2="350.67" y2="186"/></g><line class="cls-9" x1="454" y1="48" x2="454" y2="25.13"/><line class="cls-9" x1="454" y1="71" x2="454" y2="48"/><line class="cls-9" x1="454" y1="94" x2="454" y2="71"/><line class="cls-9" x1="454" y1="117" x2="454" y2="94"/><line class="cls-9" x1="454" y1="140" x2="454" y2="117"/><line class="cls-9" x1="454" y1="163" x2="454" y2="140"/><line class="cls-9" x1="454" y1="186" x2="454" y2="163"/><g class="cls-11"><line class="cls-9" x1="454" y1="209" x2="454" y2="186"/></g><text class="cls-12" transform="translate(8 17)">N<tspan class="cls-13" x="8.28" y="0">i</tspan><tspan class="cls-14" x="11.54" y="0">v</tspan><tspan class="cls-15" x="17.68" y="0">e</tspan><tspan x="24.06" y="0">l</tspan></text><text class="cls-16" transform="translate(228.19 17)"><tspan class="cls-17">Mé</tspan><tspan class="cls-18" x="16.54" y="0">x</tspan><tspan class="cls-19" x="22.76" y="0">i</tspan><tspan class="cls-20" x="26.03" y="0">c</tspan><tspan x="31.36" y="0">o</tspan></text><text class="cls-16" transform="translate(414.68 17)"><tspan class="cls-21">C</tspan><tspan class="cls-22" x="6.95" y="0">e</tspan><tspan class="cls-23" x="13.32" y="0">n</tspan><tspan class="cls-24" x="20.26" y="0">t</tspan><tspan x="24.72" y="0">r</tspan><tspan class="cls-25" x="29.28" y="0">o</tspan><tspan class="cls-13" x="36.19" y="0">a</tspan><tspan x="42.5" y="0">m</tspan><tspan class="cls-22" x="52.82" y="0">é</tspan><tspan class="cls-26" x="59.2" y="0">r</tspan><tspan class="cls-27" x="63.67" y="0">i</tspan><tspan class="cls-18" x="66.94" y="0">ca</tspan></text><text class="cls-28" transform="translate(165.85 40.25)"><tspan class="cls-29">H</tspan><tspan class="cls-30" x="6.58" y="0">o</tspan><tspan class="cls-31" x="12.09" y="0">r</tspan><tspan class="cls-32" x="15.39" y="0">a</tspan><tspan x="20.17" y="0">s </tspan><tspan class="cls-33" x="26.25" y="0">ho</tspan><tspan class="cls-34" x="37.33" y="0">m</tspan><tspan class="cls-30" x="45.66" y="0">b</tspan><tspan class="cls-35" x="51.37" y="0">r</tspan><tspan class="cls-36" x="54.62" y="0">e</tspan></text><text class="cls-28" transform="translate(258.99 40.25)"><tspan class="cls-29">H</tspan><tspan class="cls-30" x="6.58" y="0">o</tspan><tspan class="cls-31" x="12.09" y="0">r</tspan><tspan class="cls-32" x="15.39" y="0">a</tspan><tspan x="20.17" y="0">s </tspan><tspan class="cls-37" x="26.25" y="0">p</tspan><tspan class="cls-30" x="32.04" y="0">o</tspan><tspan x="37.55" y="0">r </tspan><tspan class="cls-38" x="42.94" y="0">a</tspan><tspan class="cls-39" x="47.72" y="0">s</tspan><tspan class="cls-40" x="51.71" y="0">o</tspan><tspan class="cls-38" x="57.27" y="0">c</tspan><tspan class="cls-41" x="61.71" y="0">i</tspan><tspan class="cls-30" x="64.02" y="0">ad</tspan><tspan x="74.52" y="0">o</tspan></text><text class="cls-28" transform="translate(372.52 40.25)"><tspan class="cls-29">H</tspan><tspan class="cls-42" x="6.58" y="0">o</tspan><tspan class="cls-31" x="12.08" y="0">r</tspan><tspan class="cls-38" x="15.38" y="0">a</tspan><tspan x="20.16" y="0">s </tspan><tspan class="cls-42" x="26.24" y="0">ho</tspan><tspan class="cls-34" x="37.3" y="0">m</tspan><tspan class="cls-30" x="45.63" y="0">b</tspan><tspan class="cls-43" x="51.34" y="0">r</tspan><tspan x="54.59" y="0">e</tspan></text><text class="cls-28" transform="translate(465.66 40.25)"><tspan class="cls-29">H</tspan><tspan class="cls-30" x="6.58" y="0">o</tspan><tspan class="cls-31" x="12.09" y="0">r</tspan><tspan class="cls-32" x="15.39" y="0">a</tspan><tspan x="20.17" y="0">s </tspan><tspan class="cls-37" x="26.25" y="0">p</tspan><tspan class="cls-30" x="32.04" y="0">o</tspan><tspan x="37.55" y="0">r </tspan><tspan class="cls-44" x="42.94" y="0">a</tspan><tspan class="cls-31" x="47.71" y="0">s</tspan><tspan class="cls-45" x="51.7" y="0">o</tspan><tspan class="cls-38" x="57.26" y="0">c</tspan><tspan class="cls-41" x="61.7" y="0">i</tspan><tspan class="cls-30" x="64.01" y="0">ad</tspan><tspan class="cls-36" x="74.51" y="0">o</tspan></text><text class="cls-46" transform="translate(4 64)"><tspan class="cls-17">V</tspan><tspan x="6.13" y="0">P</tspan></text><text class="cls-47" transform="translate(187.46 64)">2<tspan class="cls-48" x="5.17" y="0">4</tspan><tspan class="cls-18" x="10.58" y="0">9</tspan></text><text class="cls-46" transform="translate(292.31 64)"><tspan class="cls-13">8</tspan><tspan class="cls-49" x="5.83" y="0">.</tspan><tspan x="7.51" y="0">9</tspan></text><text class="cls-46" transform="translate(396.89 64)"><tspan class="cls-50">1</tspan><tspan x="5.03" y="0">4</tspan></text><text class="cls-46" transform="translate(495.34 64)"><tspan class="cls-51">3</tspan><tspan class="cls-52" x="5.65" y="0">.</tspan><tspan x="7.52" y="0">4</tspan></text><text class="cls-46" transform="translate(3.99 87)"><tspan class="cls-53">N</tspan><tspan class="cls-54" x="7.5" y="0">i</tspan><tspan class="cls-55" x="9.91" y="0">v</tspan><tspan class="cls-56" x="15.13" y="0">e</tspan><tspan x="20.83" y="0">l </tspan><tspan class="cls-57" x="26" y="0">d</tspan><tspan class="cls-58" x="32.36" y="0">i</tspan><tspan class="cls-59" x="34.69" y="0">r</tspan><tspan x="37.99" y="0">e</tspan><tspan class="cls-60" x="43.81" y="0">c</tspan><tspan class="cls-61" x="49.35" y="0">t</tspan><tspan class="cls-23" x="52.92" y="0">i</tspan><tspan class="cls-52" x="55.33" y="0">v</tspan><tspan x="60.54" y="0">o</tspan></text><text class="cls-46" transform="translate(183.81 87)"><tspan class="cls-51">2</tspan><tspan class="cls-24" x="5.65" y="0">,</tspan><tspan class="cls-62" x="7.8" y="0">2</tspan><tspan class="cls-63" x="12.97" y="0">4</tspan><tspan x="17.86" y="0">1</tspan></text><text class="cls-46" transform="translate(290.45 87)"><tspan class="cls-64">1</tspan><tspan class="cls-65" x="4.7" y="0">7</tspan><tspan class="cls-66" x="9.18" y="0">.</tspan><tspan x="11.22" y="0">5</tspan></text><text class="cls-46" transform="translate(394.25 87)"><tspan class="cls-67">2</tspan><tspan class="cls-68" x="5.38" y="0">7</tspan><tspan x="10.28" y="0">4</tspan></text><text class="cls-46" transform="translate(495.15 87)"><tspan class="cls-25">8</tspan><tspan class="cls-24" x="5.84" y="0">.</tspan><tspan x="7.99" y="0">8</tspan></text><text class="cls-46" transform="translate(3.98 110.01)"><tspan class="cls-69">S</tspan><tspan class="cls-57" x="5.34" y="0">u</tspan><tspan class="cls-18" x="11.54" y="0">b</tspan><tspan class="cls-57" x="18.17" y="0">d</tspan><tspan class="cls-58" x="24.53" y="0">i</tspan><tspan class="cls-59" x="26.86" y="0">r</tspan><tspan x="30.16" y="0">e</tspan><tspan class="cls-60" x="35.98" y="0">c</tspan><tspan class="cls-70" x="41.52" y="0">t</tspan><tspan class="cls-54" x="44.9" y="0">o</tspan><tspan class="cls-71" x="51.19" y="0">r</tspan><tspan class="cls-72" x="54.49" y="0">e</tspan><tspan class="cls-73" x="60.18" y="0">s</tspan></text><text class="cls-46" transform="translate(183.64 110.01)"><tspan class="cls-74">8</tspan><tspan class="cls-75" x="5.75" y="0">,</tspan><tspan class="cls-62" x="7.98" y="0">8</tspan><tspan class="cls-76" x="13.15" y="0">1</tspan><tspan x="18.17" y="0">8</tspan></text><text class="cls-46" transform="translate(290.38 110.01)"><tspan class="cls-77">2</tspan><tspan class="cls-78" x="5.09" y="0">1</tspan><tspan class="cls-79" x="10.16" y="0">.</tspan><tspan x="11.36" y="0">1</tspan></text><text class="cls-46" transform="translate(393.52 110.01)"><tspan class="cls-80">4</tspan><tspan class="cls-66" x="5.93" y="0">8</tspan><tspan x="11.74" y="0">0</tspan></text><text class="cls-46" transform="translate(496.52 110.01)"><tspan class="cls-81">7</tspan><tspan class="cls-24" x="4.48" y="0">.</tspan><tspan x="6.62" y="0">8</tspan></text><text class="cls-46" transform="translate(3.99 133.01)"><tspan class="cls-53">N</tspan><tspan class="cls-54" x="7.5" y="0">i</tspan><tspan class="cls-55" x="9.91" y="0">v</tspan><tspan class="cls-56" x="15.13" y="0">e</tspan><tspan x="20.83" y="0">l </tspan><tspan class="cls-54" x="26" y="0">g</tspan><tspan class="cls-53" x="32.44" y="0">e</tspan><tspan class="cls-59" x="38.1" y="0">r</tspan><tspan class="cls-53" x="41.4" y="0">e</tspan><tspan class="cls-54" x="47.06" y="0">n</tspan><tspan class="cls-82" x="53.4" y="0">c</tspan><tspan class="cls-14" x="58.57" y="0">i</tspan><tspan class="cls-83" x="60.85" y="0">a</tspan><tspan x="66.14" y="0">l</tspan></text><text class="cls-84" transform="translate(180.77 133.01)">7<tspan class="cls-85" x="5.6" y="0">3</tspan><tspan class="cls-86" x="11.17" y="0">,</tspan><tspan class="cls-22" x="12.83" y="0">9</tspan><tspan class="cls-87" x="18.72" y="0">4</tspan><tspan class="cls-18" x="23.93" y="0">7</tspan></text><text class="cls-88" transform="translate(290.3 133.01)">2<tspan class="cls-65" x="5.38" y="0">7</tspan><tspan class="cls-89" x="9.85" y="0">.</tspan><tspan class="cls-18" x="11.54" y="0">9</tspan></text><text class="cls-46" transform="translate(390.58 133.01)"><tspan class="cls-90">4</tspan><tspan class="cls-91" x="5.58" y="0">,</tspan><tspan class="cls-92" x="6.8" y="0">1</tspan><tspan class="cls-93" x="11.82" y="0">8</tspan><tspan x="17.64" y="0">8</tspan></text><text class="cls-46" transform="translate(490.24 133.01)"><tspan class="cls-94">1</tspan><tspan class="cls-82" x="5.1" y="0">0</tspan><tspan class="cls-80" x="10.78" y="0">.</tspan><tspan x="12.94" y="0">2</tspan></text><text class="cls-46" transform="translate(3.99 156.02)"><tspan class="cls-69">S</tspan><tspan class="cls-57" x="5.34" y="0">u</tspan><tspan class="cls-95" x="11.54" y="0">b</tspan><tspan class="cls-23" x="18.19" y="0">g</tspan><tspan class="cls-83" x="24.62" y="0">e</tspan><tspan class="cls-71" x="30.29" y="0">r</tspan><tspan class="cls-83" x="33.59" y="0">e</tspan><tspan class="cls-85" x="39.25" y="0">n</tspan><tspan class="cls-96" x="45.4" y="0">t</tspan><tspan class="cls-97" x="48.8" y="0">e</tspan><tspan x="54.49" y="0">s</tspan></text><text class="cls-46" transform="translate(177.66 156.02)"><tspan class="cls-98">5</tspan><tspan class="cls-75" x="5.6" y="0">8</tspan><tspan class="cls-99" x="11.6" y="0">4</tspan><tspan class="cls-66" x="17.18" y="0">,</tspan><tspan class="cls-100" x="19.22" y="0">0</tspan><tspan class="cls-90" x="24.59" y="0">2</tspan><tspan x="30.17" y="0">0</tspan></text><text class="cls-46" transform="translate(289.42 156.02)"><tspan class="cls-69">5</tspan><tspan class="cls-66" x="5.63" y="0">6</tspan><tspan class="cls-101" x="11.44" y="0">.</tspan><tspan x="13.31" y="0">4</tspan></text><text class="cls-46" transform="translate(388.23 156.02)"><tspan class="cls-102">1</tspan><tspan class="cls-103" x="4.39" y="0">1</tspan><tspan class="cls-104" x="9.37" y="0">,</tspan><tspan class="cls-105" x="11.47" y="0">6</tspan><tspan class="cls-106" x="17.03" y="0">9</tspan><tspan x="22.37" y="0">3</tspan></text><text class="cls-46" transform="translate(490.54 156.02)"><tspan class="cls-107">1</tspan><tspan class="cls-108" x="4.81" y="0">2</tspan><tspan class="cls-52" x="10.48" y="0">.</tspan><tspan x="12.35" y="0">4</tspan></text><text class="cls-46" transform="translate(3.99 179.02)"><tspan class="cls-53">N</tspan><tspan class="cls-54" x="7.5" y="0">i</tspan><tspan class="cls-55" x="9.91" y="0">v</tspan><tspan class="cls-56" x="15.13" y="0">e</tspan><tspan x="20.83" y="0">l </tspan><tspan class="cls-54" x="26" y="0">d</tspan><tspan class="cls-53" x="32.44" y="0">e</tspan><tspan class="cls-93" x="38.1" y="0">p</tspan><tspan class="cls-58" x="44.69" y="0">a</tspan><tspan class="cls-109" x="49.96" y="0">r</tspan><tspan class="cls-110" x="53.78" y="0">t</tspan><tspan class="cls-82" x="57.42" y="0">a</tspan><tspan class="cls-111" x="62.69" y="0">m</tspan><tspan class="cls-83" x="72.45" y="0">e</tspan><tspan class="cls-85" x="78.12" y="0">n</tspan><tspan class="cls-112" x="84.26" y="0">t</tspan><tspan class="cls-53" x="87.9" y="0">a</tspan><tspan x="93.19" y="0">l</tspan></text><text class="cls-46" transform="translate(177.5 179.02)"><tspan class="cls-69">5</tspan><tspan class="cls-113" x="5.63" y="0">6</tspan><tspan class="cls-114" x="11.16" y="0">5</tspan><tspan class="cls-66" x="16.62" y="0">,</tspan><tspan class="cls-115" x="18.66" y="0">0</tspan><tspan class="cls-17" x="24.61" y="0">0</tspan><tspan x="30.49" y="0">6</tspan></text><text class="cls-46" transform="translate(289.38 179.02)"><tspan class="cls-61">2</tspan><tspan class="cls-21" x="5.71" y="0">2</tspan><tspan class="cls-26" x="11.38" y="0">.</tspan><tspan x="13.38" y="0">0</tspan></text><text class="cls-46" transform="translate(387.54 179.02)"><tspan class="cls-62">2</tspan><tspan class="cls-90" x="5.17" y="0">4</tspan><tspan class="cls-24" x="10.75" y="0">,</tspan><tspan class="cls-67" x="12.9" y="0">2</tspan><tspan class="cls-49" x="18.28" y="0">7</tspan><tspan x="23.72" y="0">9</tspan></text><text class="cls-46" transform="translate(490.24 179.02)"><tspan class="cls-94">1</tspan><tspan class="cls-82" x="5.1" y="0">0</tspan><tspan class="cls-116" x="10.78" y="0">.</tspan><tspan x="12.6" y="0">7</tspan></text><text class="cls-46" transform="translate(3.99 202.02)"><tspan class="cls-53">N</tspan><tspan class="cls-54" x="7.5" y="0">i</tspan><tspan class="cls-55" x="9.91" y="0">v</tspan><tspan class="cls-56" x="15.13" y="0">e</tspan><tspan x="20.83" y="0">l </tspan><tspan class="cls-101" x="26" y="0">l</tspan><tspan class="cls-117" x="28.33" y="0">í</tspan><tspan class="cls-112" x="30.67" y="0">n</tspan><tspan class="cls-98" x="37.03" y="0">e</tspan><tspan x="42.6" y="0">a</tspan></text><text class="cls-46" transform="translate(174.27 202.02)"><tspan class="cls-83">6</tspan><tspan class="cls-66" x="5.7" y="0">,</tspan><tspan class="cls-48" x="7.74" y="0">0</tspan><tspan class="cls-101" x="13.15" y="0">3</tspan><tspan class="cls-74" x="18.79" y="0">8</tspan><tspan class="cls-66" x="24.54" y="0">,</tspan><tspan class="cls-118" x="26.58" y="0">0</tspan><tspan class="cls-119" x="31.99" y="0">3</tspan><tspan x="36.98" y="0">1</tspan></text><text class="cls-46" transform="translate(290.55 202.02)"><tspan class="cls-67">2</tspan><tspan class="cls-65" x="5.38" y="0">7</tspan><tspan class="cls-79" x="9.85" y="0">.</tspan><tspan x="11.05" y="0">1</tspan></text><text class="cls-47" transform="translate(385.23 202.02)">2<tspan class="cls-120" x="5.17" y="0">4</tspan><tspan class="cls-90" x="11.28" y="0">4</tspan><tspan class="cls-121" x="16.86" y="0">,</tspan><tspan class="cls-122" x="18.1" y="0">1</tspan><tspan class="cls-123" x="22.92" y="0">5</tspan><tspan class="cls-18" x="28.37" y="0">7</tspan></text><text class="cls-46" transform="translate(495.18 202.02)"><tspan class="cls-66">6</tspan><tspan class="cls-101" x="5.81" y="0">.</tspan><tspan x="7.68" y="0">4</tspan></text></svg>