<svg id="Capa_1" data-name="Capa 1" xmlns="http://www.w3.org/2000/svg" viewBox="0 0 274 193.84"><defs><style>.cls-1,.cls-2{fill:#7cbed1;}.cls-1{stroke:#52bfd3;}.cls-1,.cls-11{stroke-miterlimit:10;}.cls-3{font-size:24px;fill:#0071ce;font-family:MyriadPro-Bold, Myriad Pro;font-weight:700;}.cls-10,.cls-4,.cls-6,.cls-8{font-size:11px;fill:#545051;font-family:MyriadPro-Regular, Myriad Pro;}.cls-5{letter-spacing:-0.05em;}.cls-6{letter-spacing:-0.08em;}.cls-7{letter-spacing:0em;}.cls-8{letter-spacing:-0.06em;}.cls-9{letter-spacing:-0.07em;}.cls-10{letter-spacing:-0.02em;}.cls-11{fill:none;stroke:#ffb71b;stroke-linecap:round;stroke-width:4px;}</style></defs><line class="cls-1" y1="177.13" x2="274" y2="177.13"/><path class="cls-2" d="M38.79,12.07V181.75H29.12V12.07A4.59,4.59,0,0,1,34,7.78a4.58,4.58,0,0,1,4.83,4.29" transform="translate(0.03 -4.91)"/><path class="cls-2" d="M90.25,60.55v121.2H80.59V60.55a4.86,4.86,0,0,1,9.66,0" transform="translate(0.03 -4.91)"/><path class="cls-2" d="M141.72,109v73h-9.67V109a4.87,4.87,0,0,1,9.67,0" transform="translate(0.03 -4.91)"/><path class="cls-2" d="M193.18,125v57h-9.66V125a4.86,4.86,0,0,1,9.66,0" transform="translate(0.03 -4.91)"/><path class="cls-2" d="M244.65,161.43V182H235V161.43a4.87,4.87,0,0,1,9.67,0" transform="translate(0.03 -4.91)"/><text class="cls-3" transform="translate(212.56 20.09)">-58% </text><text class="cls-4" transform="translate(28.46 191.09)"><tspan class="cls-5">1</tspan><tspan x="5.05" y="0">6</tspan></text><text class="cls-6" transform="translate(79.92 191.09)">1<tspan class="cls-7" x="4.73" y="0">7</tspan></text><text class="cls-8" transform="translate(130.83 191.09)">1<tspan class="cls-7" x="5.03" y="0">8</tspan></text><text class="cls-4" transform="translate(182.43 191.09)"><tspan class="cls-9">1</tspan><tspan x="4.93" y="0">9</tspan></text><text class="cls-10" transform="translate(233.78 191.09)">2<tspan class="cls-7" x="5.48" y="0">0</tspan></text><line class="cls-11" x1="49.73" y1="2.09" x2="252.32" y2="143.41"/><polyline class="cls-11" points="250.24 133.75 252.32 143.41 242.55 144.78"/></svg>