<?xml version="1.0" encoding="utf-8"?>
<!-- Generator: Adobe Illustrator 25.2.0, SVG Export Plug-In . SVG Version: 6.00 Build 0)  -->
<svg version="1.1" id="Layer_1" xmlns="http://www.w3.org/2000/svg" xmlns:xlink="http://www.w3.org/1999/xlink" x="0px" y="0px"
	 viewBox="0 0 827.8 827.8" style="enable-background:new 0 0 827.8 827.8;" xml:space="preserve">
<style type="text/css">
	.st0{opacity:0.25;}
	.st1{fill:#E7ECED;}
	.st2{fill:#6AAAE4;}
	.st3{fill:#FFFFFF;}
	.st4{fill:#0071CE;}
	.st5{fill:#7F3F97;}
	.st6{fill:#002F87;}
	.st7{fill:#FFB71B;}
	.st8{fill:#A87C4F;}
	.st9{fill:#F27B21;}
	.st10{fill:#76BC21;}
</style>
<g class="st0">
	<path class="st1" d="M413.9,831.7c228.6,0,413.9-185.3,413.9-413.9S642.5,3.9,413.9,3.9S0,189.2,0,417.8S185.3,831.7,413.9,831.7"
		/>
</g>
<g>
	<path class="st2" d="M610.4,217.4C557.9,164.9,488.1,136,413.9,136c-74.2,0-144,28.9-196.5,81.4C164.9,269.9,136,339.7,136,413.9
		c0,74.2,28.9,144,81.4,196.5c52.5,52.5,122.3,81.4,196.5,81.4s144-28.9,196.5-81.4c52.5-52.5,81.4-122.3,81.4-196.5
		S662.9,269.9,610.4,217.4z M552.6,552.6c-37,37-86.3,57.4-138.7,57.4s-101.6-20.4-138.7-57.4c-37-37-57.4-86.3-57.4-138.7
		c0-52.4,20.4-101.6,57.4-138.7c37-37,86.3-57.4,138.7-57.4s101.6,20.4,138.7,57.4c37,37,57.4,86.3,57.4,138.7
		C610,466.3,589.6,515.5,552.6,552.6z"/>
	<path class="st3" d="M413.9,246.3c-92.4,0-167.6,75.2-167.6,167.6s75.2,167.6,167.6,167.6c92.4,0,167.6-75.2,167.6-167.6
		S506.3,246.3,413.9,246.3z M413.9,543.9c-71.7,0-130-58.3-130-130s58.3-130,130-130s130,58.3,130,130S485.6,543.9,413.9,543.9z"/>
	<g>
		<g>
			<path class="st3" d="M331.7,667.5l-0.8,1.3l-1.3-0.4l3.4-4.9l1.6,0.5l-0.1,6l-1.3-0.4l0-1.5L331.7,667.5z M333.3,667l0-1.3
				c0-0.4,0-0.8,0.1-1.1l0,0c-0.2,0.3-0.4,0.7-0.6,1l-0.7,1.1L333.3,667z"/>
			<path class="st3" d="M339.2,666.5l-1.5-0.4l0.3-1l4.2,1.2l-0.3,1l-1.5-0.4l-1.3,4.4l-1.2-0.4L339.2,666.5z"/>
			<path class="st3" d="M342.9,666.5c0.4,0,1,0.2,1.7,0.3c0.8,0.2,1.4,0.5,1.7,0.9c0.3,0.4,0.3,0.8,0.2,1.3
				c-0.2,0.7-0.8,1.1-1.3,1.1l0,0c0.3,0.3,0.5,0.7,0.5,1.2c0,0.7,0,1.4,0,1.7l-1.3-0.3c0-0.2-0.1-0.7,0-1.4c0-0.7-0.1-1-0.7-1.1
				l-0.4-0.1l-0.6,2.2l-1.2-0.3L342.9,666.5z M343.5,669.3l0.5,0.1c0.6,0.2,1.1,0,1.2-0.5c0.1-0.5-0.1-0.9-0.7-1
				c-0.3-0.1-0.5-0.1-0.6-0.1L343.5,669.3z"/>
			<path class="st3" d="M348.1,672.3l-0.8,1.3l-1.3-0.3l3.1-5.1l1.6,0.4l0.3,6l-1.4-0.3l-0.1-1.5L348.1,672.3z M349.7,671.7l0-1.3
				c0-0.4,0-0.8,0-1.1l0,0c-0.2,0.3-0.4,0.7-0.5,1l-0.6,1.1L349.7,671.7z"/>
			<path class="st3" d="M352.9,675l-0.5-6l1.4,0.3l0.1,2.5c0,0.7,0.1,1.4,0,2.1l0,0c0.3-0.6,0.6-1.3,1-1.9l1.3-2.2l1.3,0.3l-3.2,5.1
				L352.9,675z"/>
			<path class="st3" d="M360.7,674.2l-2.1-0.4l-0.3,1.3l2.3,0.5l-0.2,1l-3.6-0.8l1.2-5.6l3.5,0.7l-0.2,1l-2.2-0.5l-0.2,1.2l2.1,0.4
				L360.7,674.2z M361.6,669.6l-1.2,0.8l-1-0.2l0.9-0.9L361.6,669.6z"/>
			<path class="st3" d="M361.7,675.5c0.3,0.2,0.8,0.5,1.3,0.6c0.6,0.1,0.9-0.1,1-0.4c0.1-0.4-0.2-0.6-0.8-1c-0.9-0.5-1.4-1.1-1.2-2
				c0.2-1,1.1-1.5,2.5-1.3c0.6,0.1,1.1,0.3,1.4,0.6l-0.5,1c-0.2-0.2-0.6-0.4-1.1-0.5c-0.6-0.1-0.9,0.1-0.9,0.4
				c-0.1,0.4,0.2,0.6,0.9,1c0.9,0.6,1.3,1.2,1.1,2c-0.2,0.9-1.1,1.6-2.6,1.3c-0.6-0.1-1.2-0.4-1.5-0.7L361.7,675.5z"/>
			<path class="st3" d="M368.5,672.4c0.5,0,1.1,0.1,1.7,0.2c1.1,0.2,1.7,0.5,2.2,1c0.5,0.5,0.8,1.3,0.6,2.3
				c-0.2,1.1-0.7,1.8-1.3,2.1c-0.7,0.4-1.6,0.5-2.7,0.3c-0.7-0.1-1.1-0.2-1.4-0.3L368.5,672.4z M369,677.2c0.1,0,0.3,0.1,0.4,0.1
				c1.2,0.2,2-0.3,2.2-1.7c0.2-1.2-0.4-1.9-1.5-2.1c-0.3,0-0.5-0.1-0.6,0L369,677.2z"/>
			<path class="st3" d="M377.2,677l-2.1-0.3l-0.2,1.3l2.3,0.3l-0.2,1.1l-3.6-0.5l0.8-5.7l3.5,0.5l-0.2,1.1l-2.2-0.3l-0.2,1.2
				l2.1,0.3L377.2,677z"/>
			<path class="st3" d="M379.7,679.8l0.7-5.7l1.5,0.2l0.9,2.2c0.3,0.6,0.5,1.4,0.7,2.1l0,0c0-0.8,0.1-1.5,0.2-2.4l0.2-1.7l1.2,0.1
				l-0.7,5.7l-1.4-0.2l-1-2.3c-0.3-0.6-0.5-1.4-0.7-2.1l0,0c-0.1,0.8-0.1,1.6-0.2,2.5l-0.2,1.7L379.7,679.8z"/>
			<path class="st3" d="M387.4,674.9l-0.3,3.3c-0.1,1,0.2,1.5,0.9,1.6c0.7,0.1,1.1-0.4,1.2-1.4l0.3-3.3l1.3,0.1l-0.3,3.2
				c-0.2,1.8-1.1,2.5-2.6,2.4c-1.4-0.1-2.2-1-2-2.8l0.3-3.2L387.4,674.9z"/>
			<path class="st3" d="M395,678.9l-2.1-0.2l-0.1,1.4l2.3,0.2l-0.1,1.1l-3.6-0.3l0.4-5.7l3.5,0.3l-0.1,1.1l-2.2-0.2l-0.1,1.2
				l2.1,0.2L395,678.9z"/>
			<path class="st3" d="M396.2,680.1c0.3,0.2,0.9,0.4,1.4,0.4c0.6,0,0.9-0.2,0.9-0.6c0-0.4-0.2-0.6-0.9-0.9c-0.9-0.4-1.5-1-1.5-1.8
				c0.1-1,0.9-1.7,2.3-1.6c0.6,0,1.1,0.2,1.4,0.4l-0.4,1c-0.2-0.1-0.6-0.3-1.2-0.3c-0.6,0-0.8,0.2-0.9,0.5c0,0.4,0.3,0.5,1,0.9
				c1,0.4,1.4,1,1.4,1.8c-0.1,1-0.8,1.7-2.4,1.6c-0.7,0-1.3-0.2-1.6-0.4L396.2,680.1z"/>
			<path class="st3" d="M402,677.1l-1.5-0.1l0-1.1l4.4,0.2l0,1.1l-1.6-0.1l-0.2,4.6l-1.3-0.1L402,677.1z"/>
			<path class="st3" d="M405.5,676.2c0.4-0.1,1-0.1,1.7-0.1c0.9,0,1.4,0.2,1.8,0.5c0.3,0.3,0.5,0.7,0.5,1.2c0,0.7-0.5,1.2-1,1.4l0,0
				c0.4,0.2,0.6,0.6,0.7,1.1c0.2,0.7,0.3,1.4,0.4,1.6l-1.3,0c-0.1-0.2-0.2-0.6-0.4-1.3c-0.1-0.7-0.4-0.9-0.9-0.9l-0.4,0l-0.1,2.3
				l-1.3,0L405.5,676.2z M406.7,678.7l0.5,0c0.6,0,1-0.3,1-0.8c0-0.5-0.3-0.8-0.9-0.8c-0.3,0-0.5,0-0.6,0L406.7,678.7z"/>
			<path class="st3" d="M412,680.5l-0.4,1.5l-1.3,0l1.8-5.7l1.7,0l1.7,5.8l-1.4,0l-0.4-1.5L412,680.5z M413.5,679.5l-0.3-1.2
				c-0.1-0.3-0.2-0.8-0.3-1.1l0,0c-0.1,0.3-0.2,0.8-0.3,1.1l-0.4,1.2L413.5,679.5z"/>
			<path class="st3" d="M418,676.2l3.5-0.1l0,1.1l-2.2,0l0,1.3l2.1,0l0,1.1l-2.1,0l0,2.3l-1.3,0L418,676.2z"/>
			<path class="st3" d="M427.6,678.7c0.1,1.9-1,3.1-2.7,3.1c-1.7,0.1-2.7-1.2-2.8-2.8c-0.1-1.7,1-3,2.7-3.1
				C426.6,675.9,427.6,677.1,427.6,678.7z M423.5,679c0,1.1,0.6,1.9,1.5,1.9c0.9,0,1.3-0.9,1.3-2c0-1-0.6-1.9-1.5-1.9
				C423.9,677,423.5,677.8,423.5,679z"/>
			<path class="st3" d="M428.3,675.9c0.4-0.1,1-0.2,1.7-0.2c0.8-0.1,1.5,0,1.9,0.3c0.4,0.3,0.6,0.6,0.6,1.2c0,0.7-0.4,1.3-0.9,1.5
				l0,0c0.4,0.1,0.7,0.5,0.8,1c0.2,0.6,0.4,1.4,0.6,1.6l-1.3,0.1c-0.1-0.2-0.3-0.6-0.5-1.3c-0.2-0.7-0.5-0.9-1-0.9l-0.4,0l0.1,2.2
				l-1.3,0.1L428.3,675.9z M429.8,678.3l0.5,0c0.6,0,1-0.4,1-0.9c0-0.5-0.4-0.8-1-0.7c-0.3,0-0.5,0.1-0.6,0.1L429.8,678.3z"/>
			<path class="st3" d="M438.5,678.7c-0.1-0.7-0.2-1.5-0.2-2.3l0,0c-0.1,0.7-0.3,1.6-0.4,2.3l-0.5,2.3l-1,0.1l-0.8-2.2
				c-0.2-0.7-0.5-1.4-0.7-2.2l0,0c0,0.8,0.1,1.7,0.1,2.4l0.1,2.2l-1.2,0.1l-0.1-5.7l1.7-0.1l0.7,1.9c0.2,0.6,0.5,1.3,0.7,2l0,0
				c0.1-0.7,0.2-1.4,0.4-2.1l0.4-1.9l1.7-0.1l0.8,5.7l-1.3,0.1L438.5,678.7z"/>
			<path class="st3" d="M442.3,679l-0.2,1.5l-1.3,0.1l1.1-5.9l1.7-0.2l2.4,5.5l-1.4,0.2l-0.6-1.4L442.3,679z M443.6,677.9l-0.5-1.2
				c-0.1-0.3-0.3-0.7-0.4-1.1l0,0c0,0.3-0.1,0.8-0.1,1.1l-0.2,1.2L443.6,677.9z"/>
			<path class="st3" d="M447.5,674.2c0.5-0.1,1.1-0.3,1.7-0.4c1.1-0.1,1.8-0.1,2.4,0.3c0.6,0.4,1.1,1,1.3,2c0.1,1.1-0.1,1.9-0.6,2.4
				c-0.5,0.6-1.4,0.9-2.5,1.1c-0.7,0.1-1.1,0.1-1.5,0.1L447.5,674.2z M449.5,678.6c0.1,0,0.3,0,0.4,0c1.2-0.2,1.8-0.9,1.6-2.3
				c-0.2-1.2-0.9-1.7-2-1.6c-0.3,0-0.5,0.1-0.6,0.1L449.5,678.6z"/>
			<path class="st3" d="M457.2,676l-2.1,0.3l0.2,1.3l2.3-0.4l0.2,1l-3.6,0.6l-0.9-5.7l3.5-0.6l0.2,1l-2.2,0.3l0.2,1.2l2.1-0.3
				L457.2,676z"/>
			<path class="st3" d="M460.6,673.2l-1.5,0.3l-0.2-1.1l4.3-0.8l0.2,1.1l-1.5,0.3l0.8,4.6l-1.3,0.2L460.6,673.2z"/>
			<path class="st3" d="M463.9,671.5c0.4-0.1,1-0.3,1.7-0.5c0.8-0.2,1.4-0.2,1.9,0.1c0.4,0.2,0.6,0.6,0.8,1.1
				c0.1,0.7-0.3,1.3-0.7,1.6l0,0c0.4,0.1,0.7,0.4,1,0.9c0.3,0.6,0.6,1.3,0.8,1.5l-1.3,0.3c-0.1-0.1-0.3-0.6-0.7-1.2
				c-0.3-0.7-0.6-0.8-1.1-0.7l-0.4,0.1l0.4,2.2l-1.3,0.3L463.9,671.5z M465.6,673.7l0.5-0.1c0.6-0.1,0.9-0.5,0.8-1
				c-0.1-0.5-0.5-0.7-1.1-0.6c-0.3,0.1-0.5,0.1-0.6,0.2L465.6,673.7z"/>
			<path class="st3" d="M471.2,674.3l-0.1,1.5l-1.3,0.3l0.5-6l1.7-0.4l3,5.2l-1.4,0.3l-0.8-1.3L471.2,674.3z M472.4,673l-0.6-1.1
				c-0.2-0.3-0.4-0.7-0.5-1l0,0c0,0.4,0,0.8,0,1.1l-0.1,1.3L472.4,673z"/>
			<path class="st3" d="M474.3,669.3c0.3-0.1,1-0.4,1.6-0.5c0.8-0.2,1.3-0.2,1.7-0.1c0.4,0.1,0.8,0.4,0.9,0.9c0.1,0.5-0.1,1-0.6,1.4
				l0,0c0.7,0,1.3,0.4,1.4,1.1c0.1,0.5,0,1-0.3,1.3c-0.3,0.4-1,0.8-2.1,1c-0.6,0.2-1.1,0.2-1.4,0.3L474.3,669.3z M476,671.1l0.4-0.1
				c0.7-0.2,0.9-0.5,0.8-0.9c-0.1-0.4-0.5-0.6-1-0.4c-0.3,0.1-0.4,0.1-0.5,0.2L476,671.1z M476.6,673.6c0.1,0,0.3-0.1,0.5-0.1
				c0.6-0.1,1-0.5,0.9-1.1c-0.1-0.6-0.7-0.7-1.3-0.5l-0.4,0.1L476.6,673.6z"/>
			<path class="st3" d="M481.5,671.8l0,1.5l-1.3,0.3l0.2-6l1.6-0.4l3.2,5.1l-1.3,0.4l-0.8-1.3L481.5,671.8z M482.6,670.5l-0.7-1.1
				c-0.2-0.3-0.4-0.7-0.6-1l0,0c0,0.4,0,0.8,0,1.1l0,1.3L482.6,670.5z"/>
			<path class="st3" d="M485.7,666.2l1.2-0.4l1,3.5c0.4,1.6-0.1,2.3-1.4,2.7c-0.3,0.1-0.7,0.1-0.9,0.1l-0.1-1c0.2,0,0.4,0,0.7-0.1
				c0.5-0.1,0.8-0.5,0.5-1.3L485.7,666.2z"/>
			<path class="st3" d="M490.3,669.3l0,1.5l-1.3,0.4l0-6l1.6-0.5l3.4,5l-1.3,0.4l-0.9-1.3L490.3,669.3z M491.5,668l-0.7-1.1
				c-0.2-0.3-0.4-0.7-0.6-1l0,0c0,0.3,0.1,0.8,0.1,1.1l0,1.3L491.5,668z"/>
			<path class="st3" d="M493.1,664.1c0.4-0.2,0.9-0.4,1.6-0.6c0.8-0.3,1.4-0.3,1.9-0.1c0.4,0.2,0.7,0.5,0.9,1
				c0.2,0.7-0.1,1.3-0.5,1.7l0,0c0.4,0,0.8,0.3,1.1,0.8c0.4,0.6,0.8,1.2,0.9,1.4l-1.3,0.4c-0.1-0.1-0.4-0.5-0.8-1.1
				c-0.4-0.6-0.7-0.7-1.2-0.6l-0.4,0.1l0.7,2.1l-1.2,0.4L493.1,664.1z M495.1,666l0.5-0.2c0.6-0.2,0.9-0.6,0.7-1.1
				c-0.2-0.5-0.6-0.6-1.2-0.5c-0.3,0.1-0.5,0.2-0.5,0.2L495.1,666z"/>
		</g>
	</g>
	<g>
		<g>
			<path class="st3" d="M368.5,151.4l0,0.2c0.1,0.4,0,0.9-0.3,1.4c-0.2,0.4-0.4,0.7-0.3,0.9c0.1,0.3,0.3,0.5,0.7,0.4
				c0.3,0,0.6-0.2,0.8-0.4l0.4,0.9c-0.3,0.2-0.7,0.5-1.3,0.6c-1.1,0.2-1.7-0.3-1.8-1c-0.1-0.6,0.2-1.1,0.5-1.5
				c0.2-0.4,0.3-0.7,0.3-1.1l0-0.1L368.5,151.4z M368.5,150.1c0.1,0.4-0.2,0.8-0.6,0.9c-0.4,0.1-0.8-0.2-0.9-0.6
				c-0.1-0.4,0.2-0.8,0.6-0.9C368,149.4,368.4,149.7,368.5,150.1z"/>
			<path class="st3" d="M374.7,154.1c-0.2,0.2-0.7,0.4-1.4,0.5c-2,0.3-3.2-0.8-3.4-2.4c-0.3-1.9,0.9-3.2,2.6-3.5
				c0.7-0.1,1.2,0,1.4,0l-0.1,1.1c-0.3-0.1-0.7-0.1-1.1,0c-1,0.2-1.7,0.9-1.5,2.2c0.2,1.1,1,1.7,2.1,1.6c0.4-0.1,0.8-0.2,1-0.4
				L374.7,154.1z"/>
			<path class="st3" d="M380.3,150.5c0.3,1.9-0.7,3.1-2.4,3.4c-1.7,0.2-2.8-0.9-3.1-2.5c-0.2-1.7,0.7-3.1,2.4-3.3
				C378.9,147.8,380.1,148.9,380.3,150.5z M376.2,151.1c0.2,1.1,0.8,1.8,1.6,1.7c0.9-0.1,1.3-1,1.1-2.1c-0.1-1-0.7-1.8-1.6-1.7
				C376.4,149.1,376,150,376.2,151.1z M378.5,146.5l-0.9,1.2l-1,0.1l0.6-1.1L378.5,146.5z"/>
			<path class="st3" d="M386.1,150.6c-0.1-0.7-0.2-1.5-0.3-2.3l0,0c-0.1,0.7-0.2,1.6-0.4,2.3l-0.4,2.3l-1,0.1l-0.9-2.1
				c-0.3-0.6-0.5-1.4-0.8-2.2l0,0c0.1,0.8,0.1,1.7,0.2,2.4l0.1,2.2l-1.2,0.1l-0.3-5.7l1.7-0.2l0.8,1.8c0.3,0.6,0.5,1.3,0.7,2l0,0
				c0.1-0.7,0.2-1.5,0.3-2.1l0.4-2l1.7-0.2l0.9,5.7l-1.3,0.1L386.1,150.6z"/>
			<path class="st3" d="M393.7,149.2c0.2,1.9-0.9,3.1-2.5,3.2c-1.7,0.1-2.8-1.1-2.9-2.7c-0.1-1.7,0.8-3.1,2.5-3.2
				C392.5,146.4,393.6,147.6,393.7,149.2z M389.6,149.6c0.1,1.1,0.7,1.9,1.6,1.8c0.9-0.1,1.3-0.9,1.2-2.1c-0.1-1-0.7-1.9-1.5-1.8
				C389.9,147.6,389.5,148.5,389.6,149.6z"/>
			<path class="st3" d="M396.1,146.2l1.3-0.1l0.3,4.6l2.3-0.1l0.1,1.1l-3.6,0.2L396.1,146.2z"/>
			<path class="st3" d="M405.8,148.5c0.1,1.9-1,3.1-2.7,3.1c-1.7,0.1-2.7-1.2-2.8-2.8c-0.1-1.7,1-3,2.7-3.1
				C404.7,145.7,405.8,147,405.8,148.5z M401.7,148.8c0,1.1,0.6,1.9,1.5,1.9c0.9,0,1.3-0.9,1.3-2c0-1-0.6-1.9-1.5-1.9
				C402.1,146.8,401.6,147.7,401.7,148.8z"/>
			<path class="st3" d="M408.4,145.7l1.3,0l0.1,4.6l2.3,0l0,1.1l-3.6,0.1L408.4,145.7z"/>
			<path class="st3" d="M418,148.5c0,1.9-1.2,3-2.9,3c-1.7,0-2.7-1.3-2.6-3c0-1.7,1.1-3,2.8-3C417.1,145.6,418,146.9,418,148.5z
				 M413.8,148.5c0,1.1,0.5,1.9,1.4,1.9c0.9,0,1.4-0.8,1.4-1.9c0-1-0.5-1.9-1.4-1.9C414.4,146.6,413.8,147.4,413.8,148.5z"/>
			<path class="st3" d="M423.7,151.3c-0.4,0.1-1.2,0.3-1.9,0.3c-1,0-1.8-0.3-2.3-0.8c-0.5-0.5-0.8-1.3-0.8-2.1
				c0.1-1.9,1.5-3,3.4-2.9c0.7,0,1.3,0.2,1.6,0.3l-0.3,1c-0.3-0.1-0.7-0.3-1.3-0.3c-1.1,0-1.9,0.6-1.9,1.8c0,1.2,0.7,1.9,1.8,1.9
				c0.3,0,0.5,0,0.6-0.1l0-1.2l-0.9,0l0-1l2.1,0.1L423.7,151.3z"/>
			<path class="st3" d="M425,145.9c0.4,0,1-0.1,1.7,0c0.8,0,1.4,0.2,1.8,0.5c0.3,0.3,0.5,0.7,0.5,1.2c0,0.7-0.6,1.2-1.1,1.4l0,0
				c0.4,0.2,0.6,0.6,0.7,1.1c0.1,0.7,0.3,1.4,0.4,1.6l-1.3-0.1c-0.1-0.2-0.2-0.6-0.3-1.4c-0.1-0.7-0.4-0.9-0.9-1l-0.4,0l-0.1,2.2
				l-1.3-0.1L425,145.9z M426.2,148.4l0.5,0c0.6,0,1-0.3,1.1-0.8c0-0.5-0.3-0.8-0.9-0.8c-0.3,0-0.5,0-0.6,0L426.2,148.4z"/>
			<path class="st3" d="M431.4,150.5l-0.5,1.4l-1.3-0.1l2.1-5.6l1.7,0.1l1.4,5.8l-1.4-0.1l-0.3-1.5L431.4,150.5z M432.9,149.6
				l-0.3-1.2c-0.1-0.3-0.2-0.8-0.2-1.1l0,0c-0.1,0.3-0.2,0.8-0.3,1.1l-0.4,1.2L432.9,149.6z"/>
			<path class="st3" d="M440.6,150.5c0-0.7,0.1-1.5,0.2-2.4l0,0c-0.2,0.7-0.6,1.5-0.8,2.2l-0.9,2.2l-1-0.1l-0.4-2.3
				c-0.1-0.7-0.2-1.5-0.3-2.3l0,0c-0.1,0.8-0.2,1.6-0.3,2.4l-0.3,2.2l-1.2-0.1l0.9-5.7l1.7,0.2l0.4,2c0.1,0.7,0.2,1.4,0.3,2.1l0,0
				c0.2-0.6,0.5-1.4,0.7-2l0.8-1.8l1.7,0.2l-0.2,5.7l-1.3-0.1L440.6,150.5z"/>
			<path class="st3" d="M448.3,150.6c-0.2,1.9-1.5,2.9-3.1,2.7c-1.7-0.2-2.5-1.6-2.3-3.2c0.2-1.7,1.4-2.9,3.1-2.7
				C447.7,147.6,448.5,149,448.3,150.6z M444.2,150.2c-0.1,1.1,0.3,2,1.2,2.1c0.9,0.1,1.5-0.7,1.6-1.8c0.1-1-0.3-2-1.2-2.1
				C445,148.3,444.4,149.1,444.2,150.2z"/>
			<path class="st3" d="M449,152.3c0.3,0.2,0.8,0.5,1.4,0.5c0.6,0.1,0.9-0.1,1-0.5c0-0.4-0.2-0.6-0.8-0.9c-0.9-0.5-1.4-1.1-1.3-1.9
				c0.1-1,1-1.6,2.4-1.4c0.6,0.1,1.1,0.3,1.4,0.5l-0.4,1c-0.2-0.1-0.6-0.4-1.2-0.4c-0.6-0.1-0.9,0.1-0.9,0.4
				c-0.1,0.4,0.2,0.6,0.9,0.9c1,0.5,1.4,1.1,1.2,1.9c-0.1,1-1,1.7-2.5,1.4c-0.6-0.1-1.3-0.3-1.6-0.6L449,152.3z"/>
			<path class="st3" d="M453.8,153.6c0.1-0.4,0.4-0.7,0.9-0.6c0.5,0.1,0.7,0.4,0.6,0.9c-0.1,0.4-0.4,0.7-0.9,0.6
				C453.9,154.5,453.7,154.1,453.8,153.6z M454.2,152.5l0-0.2c0-0.4,0.3-0.8,0.7-1.2c0.3-0.3,0.6-0.5,0.6-0.8c0-0.3-0.1-0.5-0.5-0.6
				c-0.3,0-0.6,0-0.9,0.1l-0.1-1c0.3-0.1,0.9-0.2,1.5-0.1c1.1,0.2,1.5,0.9,1.4,1.6c-0.1,0.6-0.6,1-0.9,1.3c-0.4,0.3-0.5,0.6-0.6,1
				l0,0.2L454.2,152.5z"/>
		</g>
	</g>
	<g>
		<g>
			<path class="st4" d="M267.6,467.4l-1.8,0.2l-0.6-1.5l7-0.4l0.7,1.9l-5.6,4.3l-0.6-1.5l1.4-1.1L267.6,467.4z M269.3,468.6l1.2-0.9
				c0.3-0.3,0.8-0.5,1.1-0.8l0,0c-0.4,0-0.9,0.1-1.3,0.2l-1.5,0.1L269.3,468.6z"/>
			<path class="st4" d="M274.7,471.7l-2.4,1l1,2.3l2.4-1l0.6,1.4l-6.2,2.6l-0.6-1.4l2.6-1.1l-1-2.3l-2.6,1.1l-0.6-1.4l6.2-2.6
				L274.7,471.7z"/>
			<path class="st4" d="M276.5,483.7c-2,1-3.8,0.3-4.6-1.4c-0.9-1.8,0-3.5,1.7-4.3c1.8-0.9,3.7-0.4,4.6,1.4
				C279.1,481.2,278.2,482.9,276.5,483.7z M274.3,479.4c-1.2,0.6-1.8,1.5-1.3,2.5c0.4,0.9,1.6,1,2.8,0.5c1.1-0.5,1.8-1.5,1.3-2.4
				C276.7,478.9,275.5,478.8,274.3,479.4z"/>
			<path class="st4" d="M280,483.4c0.3,0.4,0.7,1,1.1,1.7c0.5,0.9,0.7,1.6,0.6,2.2c-0.1,0.5-0.4,0.9-0.9,1.2c-0.8,0.4-1.6,0.1-2-0.3
				l0,0c0.1,0.5-0.2,0.9-0.7,1.4c-0.6,0.5-1.2,1.1-1.4,1.4l-0.7-1.4c0.1-0.2,0.5-0.6,1.2-1.2c0.7-0.6,0.7-0.9,0.4-1.5l-0.2-0.4
				l-2.3,1.3l-0.7-1.3L280,483.4z M278.1,486.1l0.3,0.5c0.4,0.7,0.9,0.9,1.4,0.6c0.5-0.3,0.6-0.8,0.3-1.4c-0.2-0.3-0.3-0.5-0.4-0.6
				L278.1,486.1z"/>
			<path class="st4" d="M282.9,488.7c0.3,0.4,0.7,1,1.2,1.7c0.5,0.9,0.7,1.5,0.6,2.1c-0.1,0.5-0.4,0.9-0.9,1.2
				c-0.7,0.4-1.6,0.2-2-0.2l0,0c0.1,0.5-0.2,1-0.6,1.4c-0.5,0.6-1.2,1.2-1.4,1.4l-0.8-1.3c0.1-0.2,0.5-0.6,1.1-1.2
				c0.6-0.6,0.7-0.9,0.4-1.5l-0.2-0.4l-2.3,1.3l-0.8-1.3L282.9,488.7z M281.1,491.5l0.3,0.5c0.4,0.7,0.9,0.8,1.4,0.5
				c0.5-0.3,0.6-0.8,0.2-1.4c-0.2-0.3-0.3-0.5-0.4-0.6L281.1,491.5z"/>
			<path class="st4" d="M282.8,498l-1.7,0.5l-0.9-1.3l6.8-1.9l1.1,1.7l-4.5,5.4l-0.9-1.4l1.2-1.4L282.8,498z M284.6,498.9l1-1.1
				c0.3-0.3,0.6-0.7,0.9-1l0,0c-0.4,0.1-0.9,0.3-1.3,0.4l-1.4,0.4L284.6,498.9z"/>
			<path class="st4" d="M289.6,499.5c0.3,0.4,0.8,0.9,1.3,1.6c0.6,0.8,0.9,1.5,0.8,2.1c0,0.5-0.3,1-0.8,1.3c-0.7,0.5-1.5,0.3-2,0
				l0,0c0.1,0.5-0.1,1-0.5,1.5c-0.5,0.6-1.1,1.3-1.2,1.5l-0.9-1.3c0.1-0.2,0.4-0.6,1-1.3c0.6-0.6,0.6-1,0.2-1.5l-0.3-0.4l-2.2,1.5
				l-0.9-1.2L289.6,499.5z M288.1,502.4l0.3,0.5c0.4,0.6,1,0.8,1.5,0.4c0.5-0.4,0.5-0.9,0.1-1.5c-0.2-0.3-0.4-0.5-0.4-0.5
				L288.1,502.4z"/>
			<path class="st4" d="M293.2,504.4l0.9,1.2l-4.3,3.3l1.6,2.1l-1,0.8l-2.6-3.3L293.2,504.4z"/>
			<path class="st4" d="M295.9,514l-1.6-1.9l-1.2,1l1.8,2.1l-1,0.8l-2.7-3.3l5.2-4.3l2.6,3.2l-1,0.8l-1.7-2l-1.1,0.9l1.6,1.9
				L295.9,514z"/>
			<path class="st4" d="M301.1,514.2c0.4,0.4,1,0.9,1.5,1.4c0.9,0.9,1.3,1.7,1.3,2.5c0.1,0.9-0.2,1.8-1.1,2.6
				c-0.9,0.9-1.9,1.1-2.8,1c-0.9-0.1-1.9-0.7-2.8-1.7c-0.5-0.6-0.9-1-1.1-1.3L301.1,514.2z M298.1,519c0.1,0.1,0.2,0.3,0.3,0.4
				c0.9,1,2.1,1.2,3.3,0.1c1-0.9,1-2,0.1-3c-0.2-0.2-0.4-0.4-0.5-0.5L298.1,519z"/>
			<path class="st4" d="M307.1,520.3l-4.8,4.7l-1.1-1.1l4.8-4.7L307.1,520.3z"/>
			<path class="st4" d="M303.5,526.3l4.6-4.9l1.3,1.2l-0.7,2.8c-0.2,0.8-0.5,1.7-0.8,2.4l0,0c0.5-0.7,1.1-1.4,1.8-2.1l1.4-1.4l1,1
				l-4.6,4.9l-1.2-1.1l0.7-2.9c0.2-0.8,0.5-1.7,0.8-2.5l0,0c-0.6,0.7-1.2,1.4-2,2.2l-1.4,1.5L303.5,526.3z"/>
			<path class="st4" d="M313.7,531.7l-1.9-1.6l-1.1,1.2l2.1,1.8l-0.8,0.9l-3.2-2.8l4.4-5.1l3.1,2.7l-0.8,0.9l-2-1.7l-0.9,1.1
				l1.9,1.6L313.7,531.7z"/>
			<path class="st4" d="M317.3,529.8c0.4,0.2,1,0.7,1.7,1.2c0.8,0.6,1.2,1.2,1.4,1.8c0.1,0.5,0,1-0.4,1.5c-0.5,0.7-1.4,0.7-2,0.5
				l0,0c0.2,0.4,0.2,1-0.1,1.5c-0.3,0.7-0.7,1.5-0.8,1.8l-1.2-1c0-0.2,0.3-0.7,0.6-1.5c0.4-0.8,0.3-1.1-0.2-1.5l-0.4-0.3l-1.7,2.1
				l-1.2-0.9L317.3,529.8z M316.7,533l0.5,0.4c0.6,0.5,1.2,0.5,1.6,0c0.4-0.5,0.3-1-0.3-1.4c-0.3-0.2-0.5-0.3-0.6-0.4L316.7,533z"/>
			<path class="st4" d="M325.1,539.8c-1.3,1.8-3.2,2.1-4.8,0.9c-1.6-1.2-1.7-3.1-0.5-4.6c1.2-1.6,3.1-2.1,4.7-0.9
				C326.2,536.4,326.2,538.3,325.1,539.8z M321.1,537c-0.8,1.1-0.8,2.2,0,2.8c0.8,0.6,1.9,0.2,2.7-0.9c0.7-1,0.9-2.2,0-2.8
				C322.9,535.5,321.9,536,321.1,537z"/>
			<path class="st4" d="M328.1,543.9l-1.3,1.2l-1.3-0.9l5.4-4.5l1.7,1.1l-1.9,6.8l-1.4-0.9l0.5-1.7L328.1,543.9z M330.2,543.9
				l0.4-1.4c0.1-0.4,0.3-0.9,0.4-1.3l0,0c-0.3,0.3-0.7,0.7-1,0.9l-1.1,1L330.2,543.9z"/>
			<path class="st4" d="M333.5,549.4l3.3-5.9l1.5,0.9l0,2.8c0,0.8-0.1,1.7-0.2,2.6l0,0c0.4-0.8,0.8-1.6,1.3-2.5l1-1.7l1.2,0.7
				l-3.3,5.9l-1.4-0.8l0-3c0-0.8,0.1-1.8,0.2-2.6l0,0c-0.4,0.8-0.9,1.6-1.4,2.6l-1,1.8L333.5,549.4z"/>
			<path class="st4" d="M344.3,547.6l-1.8,3.5c-0.5,1-0.4,1.8,0.3,2.1c0.7,0.4,1.4,0.1,1.9-1l1.8-3.5l1.4,0.7l-1.7,3.4
				c-0.9,1.9-2.3,2.3-3.9,1.5c-1.5-0.8-2-2.1-1-4l1.7-3.3L344.3,547.6z"/>
			<path class="st4" d="M351.1,555.3l-2.3-1l-0.7,1.5l2.5,1.2l-0.5,1.1l-3.9-1.8l2.8-6.1l3.8,1.7l-0.5,1.1l-2.4-1.1l-0.6,1.3l2.3,1
				L351.1,555.3z"/>
			<path class="st4" d="M352.1,557.1c0.3,0.4,0.8,0.8,1.4,1c0.6,0.3,1.1,0.1,1.3-0.3c0.2-0.4,0-0.7-0.7-1.3
				c-0.9-0.8-1.3-1.6-0.9-2.5c0.4-1.1,1.7-1.5,3.1-0.9c0.7,0.3,1.2,0.7,1.5,1l-0.8,1c-0.2-0.2-0.6-0.6-1.2-0.8
				c-0.6-0.3-1-0.1-1.2,0.2c-0.2,0.4,0.1,0.7,0.8,1.4c0.9,0.9,1.2,1.7,0.8,2.5c-0.4,1-1.6,1.6-3.3,0.9c-0.7-0.3-1.3-0.8-1.6-1.1
				L352.1,557.1z"/>
			<path class="st4" d="M359.8,556l-1.7-0.6l0.4-1.2l4.9,1.8l-0.4,1.2l-1.7-0.6l-1.9,5.1l-1.4-0.5L359.8,556z"/>
			<path class="st4" d="M364.2,556.4c0.5,0.1,1.2,0.3,2,0.5c0.9,0.3,1.6,0.7,1.9,1.2c0.3,0.4,0.3,0.9,0.1,1.5
				c-0.3,0.8-1,1.2-1.7,1.2l0,0c0.4,0.3,0.5,0.8,0.5,1.5c0,0.8-0.1,1.7-0.1,2l-1.5-0.5c0-0.2,0-0.8,0-1.6c0.1-0.9-0.1-1.2-0.7-1.4
				l-0.4-0.1l-0.8,2.5l-1.4-0.5L364.2,556.4z M364.7,559.6l0.6,0.2c0.7,0.2,1.3,0,1.5-0.5c0.2-0.6-0.1-1-0.8-1.2
				c-0.4-0.1-0.6-0.2-0.7-0.2L364.7,559.6z"/>
			<path class="st4" d="M375,563c-0.6,2.1-2.3,3-4.2,2.5c-1.9-0.5-2.6-2.3-2.1-4.2c0.6-1.9,2.2-3,4.1-2.5
				C374.8,559.4,375.5,561.2,375,563z M370.2,561.8c-0.4,1.3,0,2.3,1,2.6c1,0.3,1.8-0.5,2.2-1.8c0.3-1.2,0.1-2.3-0.9-2.6
				C371.5,559.7,370.6,560.5,370.2,561.8z"/>
			<path class="st4" d="M375.7,565.1c0.3,0.3,0.9,0.7,1.5,0.8c0.7,0.2,1.1,0,1.2-0.5c0.1-0.4-0.2-0.7-0.9-1.2
				c-1-0.6-1.6-1.4-1.3-2.4c0.3-1.1,1.4-1.7,3-1.4c0.7,0.2,1.2,0.5,1.6,0.7l-0.6,1.1c-0.2-0.2-0.7-0.5-1.3-0.6
				c-0.6-0.2-1,0.1-1.1,0.4c-0.1,0.4,0.2,0.7,1,1.2c1.1,0.7,1.5,1.4,1.2,2.4c-0.3,1.1-1.3,1.8-3.1,1.4c-0.7-0.2-1.4-0.6-1.8-0.8
				L375.7,565.1z"/>
			<path class="st4" d="M387.8,569.1c-0.3,0.1-0.9,0.1-1.8,0c-2.3-0.4-3.2-2.1-2.9-4c0.4-2.3,2.3-3.2,4.3-2.8
				c0.8,0.1,1.3,0.4,1.6,0.6l-0.5,1.1c-0.3-0.2-0.7-0.4-1.2-0.5c-1.2-0.2-2.2,0.3-2.5,1.8c-0.2,1.3,0.4,2.3,1.7,2.6
				c0.5,0.1,1,0.1,1.3,0L387.8,569.1z"/>
			<path class="st4" d="M390,562.8l1.5,0.2l-0.8,5.4l2.6,0.4l-0.2,1.3l-4.2-0.6L390,562.8z"/>
			<path class="st4" d="M396.6,563.7l-0.8,6.7l-1.5-0.2l0.8-6.7L396.6,563.7z"/>
			<path class="st4" d="M401.6,568.1l-2.5-0.2l-0.1,1.6l2.8,0.3l-0.1,1.2l-4.3-0.4l0.6-6.7l4.1,0.4l-0.1,1.2l-2.6-0.2l-0.1,1.4
				l2.5,0.2L401.6,568.1z"/>
			<path class="st4" d="M403.1,571.1l0.3-6.7l1.8,0.1l1.3,2.5c0.4,0.7,0.7,1.6,1,2.4l0,0c-0.1-0.9,0-1.8,0-2.8l0.1-2l1.4,0.1
				l-0.3,6.7l-1.6-0.1l-1.3-2.7c-0.4-0.7-0.8-1.6-1-2.4l0,0c0,0.9,0,1.8-0.1,2.9l-0.1,2L403.1,571.1z"/>
			<path class="st4" d="M411.7,566l-1.8,0l0-1.3l5.2,0l0,1.3l-1.8,0l-0.1,5.5l-1.5,0L411.7,566z"/>
			<path class="st4" d="M420.1,568.5l-2.5,0.1l0,1.6l2.8-0.1l0,1.2l-4.3,0.1l-0.2-6.7l4.2-0.1l0,1.2l-2.6,0.1l0,1.4l2.5-0.1
				L420.1,568.5z"/>
			<path class="st4" d="M421.7,569.7c0.4,0.2,1.1,0.4,1.7,0.3c0.7,0,1-0.4,1-0.8c0-0.4-0.4-0.6-1.2-0.9c-1.1-0.3-1.9-0.9-2-1.9
				c-0.1-1.1,0.8-2.1,2.4-2.2c0.8,0,1.3,0.1,1.7,0.2l-0.3,1.2c-0.3-0.1-0.8-0.3-1.4-0.2c-0.7,0-1,0.4-0.9,0.7c0,0.4,0.4,0.6,1.3,0.9
				c1.2,0.4,1.8,0.9,1.9,1.9c0.1,1.1-0.7,2.1-2.6,2.3c-0.8,0-1.5-0.1-1.9-0.3L421.7,569.7z"/>
			<path class="st4" d="M431.1,570.5l-0.3-2.7l-2.6-3.7l1.7-0.2l0.9,1.5c0.3,0.5,0.4,0.8,0.7,1.2l0,0c0.1-0.4,0.2-0.8,0.4-1.3
				l0.5-1.7l1.7-0.2l-1.8,4.2l0.3,2.8L431.1,570.5z"/>
			<path class="st4" d="M439.2,567.6l-0.2,1.8l-1.6,0.3l0.9-7l2-0.3l3.2,6.3l-1.6,0.3l-0.8-1.6L439.2,567.6z M440.7,566.2l-0.7-1.3
				c-0.2-0.4-0.4-0.8-0.6-1.2l0,0c0,0.4,0,0.9-0.1,1.3l-0.1,1.5L440.7,566.2z"/>
			<path class="st4" d="M445.6,568.2l-0.6-2.7l-2.9-3.5l1.7-0.4l1,1.4c0.3,0.4,0.5,0.8,0.8,1.2l0,0c0.1-0.4,0.1-0.9,0.2-1.4l0.3-1.7
				l1.7-0.4l-1.4,4.3l0.6,2.7L445.6,568.2z"/>
			<path class="st4" d="M450.1,560.3l1,3.8c0.3,1.1,0.9,1.6,1.6,1.4c0.8-0.2,1.1-0.9,0.8-2l-1-3.8l1.5-0.4l0.9,3.7
				c0.5,2-0.3,3.2-2,3.7c-1.6,0.4-2.8-0.2-3.4-2.3l-0.9-3.6L450.1,560.3z"/>
			<path class="st4" d="M455.4,559c0.5-0.2,1.2-0.5,1.9-0.7c1.2-0.4,2.1-0.4,2.8-0.1c0.8,0.3,1.5,1,1.8,2.1c0.4,1.2,0.2,2.2-0.3,2.9
				c-0.5,0.8-1.5,1.4-2.7,1.7c-0.8,0.2-1.3,0.3-1.7,0.4L455.4,559z M458.5,563.8c0.1,0,0.3-0.1,0.5-0.1c1.3-0.4,2-1.4,1.5-2.9
				c-0.4-1.3-1.4-1.8-2.7-1.4c-0.3,0.1-0.5,0.2-0.6,0.3L458.5,563.8z"/>
			<path class="st4" d="M465,561.1l0.1,1.8l-1.5,0.5l-0.3-7l1.9-0.7l4.2,5.7l-1.5,0.5l-1.1-1.5L465,561.1z M466.2,559.4l-0.9-1.2
				c-0.2-0.3-0.5-0.8-0.8-1.1l0,0c0,0.4,0.1,0.9,0.1,1.3l0.1,1.5L466.2,559.4z"/>
			<path class="st4" d="M468,554.8c0.4-0.3,1.1-0.6,1.8-0.9c0.9-0.4,1.6-0.5,2.2-0.3c0.5,0.1,0.9,0.5,1.1,1.1c0.3,0.8,0,1.6-0.5,2
				l0,0c0.5,0,0.9,0.3,1.3,0.8c0.5,0.6,1,1.4,1.2,1.6l-1.4,0.6c-0.2-0.1-0.5-0.6-1-1.3c-0.5-0.7-0.8-0.8-1.4-0.6l-0.4,0.2l1,2.5
				l-1.4,0.6L468,554.8z M470.5,556.9l0.6-0.2c0.7-0.3,1-0.8,0.8-1.4c-0.2-0.6-0.7-0.7-1.4-0.5c-0.3,0.1-0.5,0.2-0.6,0.3
				L470.5,556.9z"/>
			<path class="st4" d="M473.6,552.4l1.4-0.6l2.2,5l2.4-1.1l0.5,1.2l-3.8,1.7L473.6,552.4z"/>
			<path class="st4" d="M483.6,552l-2.2,1.1l0.7,1.4l2.5-1.2l0.5,1.1l-3.9,1.9l-3-6.1l3.7-1.8l0.5,1.1l-2.4,1.2l0.6,1.3l2.2-1.1
				L483.6,552z"/>
			<path class="st4" d="M485.6,552.4c0.5,0,1.1-0.1,1.7-0.4c0.6-0.3,0.8-0.8,0.6-1.1c-0.2-0.4-0.6-0.4-1.4-0.3
				c-1.2,0.2-2.1,0-2.6-0.9c-0.5-1-0.1-2.2,1.3-3c0.7-0.4,1.2-0.5,1.7-0.5l0.3,1.2c-0.3,0-0.8,0.1-1.4,0.4c-0.6,0.3-0.7,0.7-0.6,1
				c0.2,0.4,0.6,0.4,1.6,0.3c1.3-0.2,2,0.1,2.5,1c0.5,1,0.2,2.3-1.4,3.1c-0.7,0.4-1.4,0.5-1.9,0.5L485.6,552.4z"/>
			<path class="st4" d="M493.6,547.8l0.5,1.7l-1.4,0.8l-1.7-6.8l1.7-1l5.3,4.7l-1.4,0.8l-1.3-1.2L493.6,547.8z M494.5,545.9l-1.1-1
				c-0.3-0.3-0.7-0.6-1-0.9l0,0c0.1,0.4,0.3,0.9,0.4,1.3l0.4,1.4L494.5,545.9z"/>
			<path class="st4" d="M502.1,544.4l-5.6-4.3l1.4-0.9l2.3,1.9c0.6,0.5,1.3,1,1.9,1.7l0,0c-0.3-0.8-0.6-1.5-0.8-2.3l-0.9-2.9
				l1.3-0.9l1.9,6.8L502.1,544.4z"/>
			<path class="st4" d="M503.5,535.2l4,5.4l-1.2,0.9l-4-5.4L503.5,535.2z"/>
			<path class="st4" d="M510,538.7l-5.8-4l1.3-1l2.4,1.7c0.7,0.5,1.3,1,2,1.5l0,0c-0.4-0.7-0.7-1.5-1-2.3l-1.1-2.8l1.3-1l2.4,6.7
				L510,538.7z"/>
			<path class="st4" d="M510.9,529.4l4.3,5.2l-1.2,1l-4.3-5.2L510.9,529.4z"/>
			<path class="st4" d="M512,528.6c0.3-0.4,0.8-0.9,1.4-1.4c0.7-0.7,1.4-1,2-1c0.5,0,1,0.2,1.4,0.6c0.6,0.6,0.5,1.5,0.2,2l0,0
				c0.5-0.2,1,0,1.5,0.3c0.7,0.4,1.4,1,1.7,1.1l-1.2,1c-0.2-0.1-0.7-0.4-1.4-0.9c-0.7-0.5-1.1-0.5-1.5-0.1l-0.3,0.3l1.8,2l-1.1,1
				L512,528.6z M515.1,529.7l0.4-0.4c0.6-0.5,0.7-1.1,0.3-1.5c-0.4-0.5-0.9-0.4-1.5,0c-0.3,0.2-0.4,0.4-0.5,0.5L515.1,529.7z"/>
			<path class="st4" d="M519,522.1l2.7,2.8c0.8,0.8,1.5,0.9,2.1,0.4c0.6-0.6,0.5-1.3-0.3-2.1l-2.7-2.8l1.1-1.1l2.7,2.7
				c1.5,1.5,1.4,2.9,0.2,4.2c-1.2,1.2-2.6,1.2-4.1-0.3l-2.6-2.7L519,522.1z"/>
			<path class="st4" d="M527.8,522.8l-5-4.6l1.2-1.3l2.8,0.6c0.8,0.2,1.7,0.5,2.4,0.8l0,0c-0.7-0.5-1.4-1.1-2.2-1.8l-1.4-1.3l0.9-1
				l5,4.6l-1.1,1.2l-2.9-0.7c-0.8-0.2-1.7-0.5-2.5-0.8l0,0c0.7,0.6,1.4,1.2,2.2,2l1.5,1.4L527.8,522.8z"/>
			<path class="st4" d="M532.3,515.2l1,1.5l-1,1.2l-3.8-5.9l1.3-1.5l6.5,2.7l-1.1,1.3l-1.7-0.7L532.3,515.2z M532.5,513.1l-1.4-0.6
				c-0.4-0.2-0.8-0.4-1.2-0.6l0,0c0.2,0.3,0.6,0.7,0.8,1.1l0.8,1.2L532.5,513.1z"/>
			<path class="st4" d="M539.3,509.2l-6.7-2.3l1-1.3l2.8,1.1c0.8,0.3,1.5,0.6,2.3,1l0,0c-0.5-0.6-1.1-1.3-1.5-1.9l-1.8-2.4l1-1.3
				l4,5.9L539.3,509.2z"/>
			<path class="st4" d="M537.7,500l5.5,3.9l-0.9,1.3l-5.5-3.9L537.7,500z"/>
			<path class="st4" d="M538.6,498.9c0.2-0.5,0.6-1.2,1-1.8c0.7-1.1,1.3-1.6,2.1-1.9c0.8-0.3,1.8-0.2,2.7,0.4
				c1.1,0.7,1.6,1.6,1.7,2.4c0.1,0.9-0.3,2-1,3.1c-0.4,0.7-0.8,1.1-1,1.4L538.6,498.9z M544,500.7c0.1-0.1,0.2-0.3,0.3-0.4
				c0.8-1.1,0.6-2.3-0.7-3.2c-1.2-0.8-2.2-0.5-2.9,0.6c-0.2,0.3-0.3,0.5-0.3,0.6L544,500.7z"/>
			<path class="st4" d="M547.3,494.4l1.2,1.3l-0.8,1.4l-4.7-5.2l1-1.7l6.9,1.6l-0.8,1.4l-1.8-0.4L547.3,494.4z M547.2,492.3
				l-1.4-0.4c-0.4-0.1-0.9-0.3-1.3-0.4l0,0c0.3,0.3,0.7,0.6,1,0.9l1,1.1L547.2,492.3z"/>
			<path class="st4" d="M552.8,482.5c-0.7-0.3-1.6-0.8-2.5-1.2l0,0c0.7,0.6,1.4,1.3,2,1.9l2,1.9l-0.5,1.1l-2.7-0.5
				c-0.8-0.2-1.8-0.4-2.6-0.7l0,0c0.8,0.4,1.7,0.9,2.4,1.4l2.2,1.3l-0.6,1.3l-5.8-3.4l0.9-1.8l2.3,0.4c0.8,0.2,1.6,0.4,2.4,0.6l0,0
				c-0.6-0.5-1.3-1.1-1.9-1.7l-1.7-1.7l0.9-1.8l6.2,2.7l-0.7,1.3L552.8,482.5z"/>
			<path class="st4" d="M555.6,476l-1,2.3l1.5,0.7l1.1-2.5l1.1,0.5l-1.8,3.9l-6.1-2.8l1.7-3.8l1.1,0.5l-1.1,2.4l1.3,0.6l1-2.3
				L555.6,476z"/>
			<path class="st4" d="M553.2,471.7l0.6-1.4l3.9,1.6c1.8,0.7,2,1.8,1.5,3.2c-0.1,0.3-0.4,0.7-0.6,1l-1.1-0.6
				c0.1-0.2,0.3-0.4,0.4-0.7c0.2-0.6,0.1-1.1-0.8-1.5L553.2,471.7z"/>
			<path class="st4" d="M559.5,464.4c2.1,0.8,2.9,2.5,2.2,4.3c-0.7,1.9-2.5,2.4-4.3,1.8c-1.9-0.7-2.9-2.4-2.2-4.3
				C555.9,464.3,557.8,463.7,559.5,464.4z M557.9,469c1.2,0.5,2.3,0.2,2.7-0.8c0.4-1-0.4-1.9-1.6-2.3c-1.1-0.4-2.3-0.2-2.7,0.7
				C556,467.6,556.7,468.5,557.9,469z"/>
			<path class="st4" d="M556.8,462.2c0.1-0.5,0.2-1.2,0.5-2c0.3-1,0.7-1.6,1.2-1.9c0.4-0.3,0.9-0.3,1.5-0.2c0.8,0.3,1.2,1,1.2,1.6
				l0,0c0.3-0.4,0.8-0.5,1.5-0.5c0.8,0,1.7,0.1,2,0.1l-0.5,1.5c-0.2,0-0.8,0-1.6,0c-0.9-0.1-1.2,0.1-1.4,0.7l-0.1,0.4l2.5,0.8
				l-0.5,1.4L556.8,462.2z M560.1,461.6l0.2-0.6c0.2-0.7,0-1.3-0.6-1.4c-0.6-0.2-1,0.1-1.2,0.8c-0.1,0.4-0.1,0.6-0.2,0.7
				L560.1,461.6z"/>
		</g>
	</g>
	<g>
		<g>
			<path class="st4" d="M396.5,551.4l0,0.2c0,0.4-0.2,0.8-0.7,1.2c-0.3,0.3-0.6,0.5-0.6,0.8c0,0.3,0.1,0.5,0.6,0.6
				c0.3,0,0.6,0,0.9-0.1l0.2,1c-0.3,0.1-0.9,0.2-1.5,0.2c-1.1-0.1-1.5-0.8-1.4-1.5c0.1-0.6,0.5-1,0.9-1.3c0.3-0.3,0.5-0.6,0.6-1
				l0-0.1L396.5,551.4z M396.8,550.2c-0.1,0.4-0.4,0.7-0.8,0.7c-0.4-0.1-0.7-0.4-0.7-0.9c0.1-0.4,0.4-0.7,0.9-0.7
				C396.6,549.4,396.9,549.7,396.8,550.2z"/>
			<path class="st4" d="M398.2,549.7c0.4,0,1,0,1.8,0.1c0.8,0.1,1.3,0.3,1.7,0.6c0.3,0.3,0.5,0.8,0.5,1.4s-0.3,1-0.7,1.3
				c-0.5,0.4-1.1,0.5-1.9,0.4c-0.2,0-0.3,0-0.4-0.1l-0.2,2l-1.3-0.1L398.2,549.7z M399.2,552.5c0.1,0,0.2,0.1,0.4,0.1
				c0.7,0.1,1.1-0.2,1.2-0.8c0.1-0.5-0.3-0.9-0.9-0.9c-0.3,0-0.4,0-0.5,0L399.2,552.5z"/>
			<path class="st4" d="M408,553.3c-0.1,1.9-1.3,2.9-3,2.8c-1.7-0.1-2.6-1.4-2.5-3.1c0.1-1.7,1.3-2.9,3-2.8
				C407.3,550.3,408.1,551.7,408,553.3z M403.9,553.1c-0.1,1.1,0.4,1.9,1.3,2c0.9,0.1,1.4-0.7,1.5-1.9c0.1-1-0.4-1.9-1.3-2
				C404.5,551.2,404,552,403.9,553.1z"/>
			<path class="st4" d="M409,550.5c0.4-0.1,1-0.1,1.7-0.1c0.8,0,1.4,0.2,1.8,0.5c0.3,0.3,0.5,0.7,0.5,1.2c0,0.7-0.5,1.2-1,1.4l0,0
				c0.4,0.2,0.6,0.6,0.7,1.1c0.2,0.6,0.3,1.4,0.4,1.6l-1.3,0c-0.1-0.2-0.2-0.6-0.4-1.3c-0.1-0.7-0.4-0.9-0.9-0.9l-0.4,0l0,2.3
				l-1.3,0L409,550.5z M410.2,553l0.5,0c0.6,0,1-0.3,1-0.8c0-0.5-0.3-0.8-0.9-0.8c-0.3,0-0.5,0-0.6,0L410.2,553z"/>
			<path class="st4" d="M420.6,557.1c-0.8-0.2-1.5-0.4-2.3-0.7c-0.1,0-0.3-0.1-0.4-0.1c-1.3,0-2.5-1-2.6-2.8c-0.1-1.7,1-3,2.7-3.1
				c1.8-0.1,2.8,1.2,2.8,2.8c0,1.3-0.5,2.2-1.3,2.6l0,0c0.4,0.1,0.9,0.2,1.4,0.3L420.6,557.1z M419.5,553.3c0-1-0.6-1.9-1.4-1.9
				c-0.9,0-1.4,0.9-1.3,2c0,1.1,0.6,1.9,1.4,1.9C419.1,555.2,419.5,554.4,419.5,553.3z"/>
			<path class="st4" d="M422.8,550.3l0.2,3.3c0.1,1,0.5,1.5,1.1,1.4c0.7,0,1-0.6,0.9-1.6l-0.2-3.3l1.3-0.1l0.2,3.2
				c0.1,1.8-0.7,2.7-2.2,2.8c-1.4,0.1-2.3-0.6-2.5-2.5l-0.2-3.2L422.8,550.3z"/>
			<path class="st4" d="M430.9,552.8l-2.1,0.2l0.1,1.4l2.3-0.3l0.1,1.1l-3.6,0.4l-0.6-5.7l3.5-0.4l0.1,1.1l-2.2,0.2l0.1,1.2l2.1-0.2
				L430.9,552.8z M430.3,548.2l-0.9,1.2l-1,0.1l0.6-1.1L430.3,548.2z"/>
			<path class="st4" d="M432.6,553.2l0-0.2c-0.1-0.4,0-0.9,0.3-1.4c0.2-0.4,0.4-0.7,0.4-0.9c0-0.3-0.3-0.5-0.7-0.4
				c-0.3,0-0.6,0.2-0.8,0.4l-0.4-0.9c0.3-0.2,0.8-0.5,1.4-0.5c1.1-0.2,1.7,0.4,1.8,1.1c0.1,0.6-0.2,1.1-0.5,1.5
				c-0.3,0.4-0.3,0.7-0.3,1.1l0,0.2L432.6,553.2z M432.6,554.4c-0.1-0.4,0.2-0.8,0.6-0.9c0.5-0.1,0.8,0.2,0.9,0.7
				c0.1,0.4-0.2,0.8-0.7,0.9C433,555.1,432.6,554.8,432.6,554.4z"/>
		</g>
	</g>
	<g>
		<path class="st3" d="M434.7,615.9c-42.3,4.4-84-4.4-120.3-24.9c-10.6-6-24-3.2-31.2,6.7l-0.1,0.2c-8.4,11.6-4.9,27.9,7.6,35
			c25.5,14.4,53.7,24.2,83.4,29c56.2,9,112.4-1,161.4-28.2c12.5-7,16.1-23.3,7.7-34.9l0,0c-7.1-9.9-20.6-12.8-31.2-6.8
			C488.2,605.3,463.2,613,434.7,615.9z"/>
		<path class="st3" d="M612.7,455.4C604,497,583,534,552.4,562.4c-8.9,8.3-10.3,21.9-3.1,31.8l0.1,0.2c8.5,11.6,25.1,13.2,35.6,3.4
			c21.4-20,39.4-43.8,53-70.7c25.6-50.8,33.2-107.4,22.1-162.3c-2.8-14-17.3-22.4-30.9-18l0,0c-11.6,3.8-18.4,15.7-15.9,27.7
			C618.8,401.1,618.5,427.4,612.7,455.4z"/>
		<path class="st3" d="M515.4,238c36.8,21.3,65.4,52.8,82.8,90.7c5.1,11.1,17.6,16.7,29.2,12.9l0.2-0.1
			c13.6-4.4,20.4-19.8,14.4-32.8c-12.3-26.6-29.3-51.1-50.6-72.4c-40.2-40.2-91.7-65.1-147.3-71.7c-14.2-1.7-26.7,9.4-26.7,23.8v0
			c0,12.2,9.2,22.4,21.3,23.8C465.8,215.3,490.6,223.7,515.4,238z"/>
		<path class="st3" d="M270.3,270.3c32.5-32.5,74.1-52.6,119-58c12-1.4,21.1-11.7,21.1-23.8v0c0-14.4-12.5-25.5-26.8-23.8
			c-55.6,6.6-107,31.5-147.2,71.7c-21.3,21.3-38.3,45.8-50.6,72.3c-6,13,0.7,28.4,14.4,32.9l0,0c11.6,3.8,24.1-1.7,29.2-12.8
			C239.3,307.3,253.1,287.5,270.3,270.3z"/>
		<path class="st3" d="M238,515.4c-18.6-32.1-27.2-64.4-27.2-101.5c0-13,1.2-25.8,3.6-38.2c2.3-11.9-4.6-23.6-16.1-27.3l-0.1,0
			c-13.7-4.5-28.3,4.1-30.9,18.3c-2.9,15.4-4.4,31.3-4.4,47.3c0,67.1,26.1,130.1,73.5,177.5c2.3,2.3,4.6,4.5,6.9,6.6
			c10.5,9.8,27.2,8.1,35.6-3.5l0,0c7.1-9.8,5.9-23.3-3-31.6C261.2,549.3,248.4,533.3,238,515.4z"/>
	</g>
	<g>
		<g>
			<path class="st4" d="M275.3,398.1c0.1,0.3,0.2,0.9,0.1,1.7c-0.2,2.3-1.8,3.4-3.7,3.2c-2.3-0.2-3.4-2-3.2-4
				c0.1-0.8,0.3-1.4,0.5-1.6l1.2,0.4c-0.2,0.3-0.3,0.7-0.4,1.3c-0.1,1.2,0.5,2.2,2,2.4c1.3,0.1,2.3-0.6,2.4-1.9c0-0.5,0-1-0.1-1.3
				L275.3,398.1z"/>
			<path class="st4" d="M273,390.9c2.2,0.3,3.3,1.8,3.1,3.8c-0.3,2-1.9,2.9-3.8,2.7c-2-0.3-3.3-1.8-3-3.7
				C269.4,391.6,271.1,390.7,273,390.9z M272.4,395.8c1.3,0.2,2.3-0.3,2.5-1.3c0.1-1-0.7-1.7-2-1.9c-1.2-0.2-2.3,0.3-2.5,1.3
				C270.2,394.9,271.1,395.6,272.4,395.8z"/>
			<path class="st4" d="M276.5,390.6l-6.6-1.2l0.3-1.7l2.7-0.9c0.8-0.3,1.7-0.5,2.5-0.7l0,0c-0.9-0.1-1.8-0.2-2.8-0.4l-1.9-0.4
				l0.3-1.4l6.6,1.2l-0.3,1.6l-2.8,0.9c-0.8,0.3-1.7,0.5-2.6,0.7l0,0c0.9,0.1,1.8,0.3,2.9,0.5l2,0.4L276.5,390.6z"/>
			<path class="st4" d="M272.7,381.6l-0.4,1.8l-1.2-0.3l1.2-5l1.2,0.3l-0.4,1.8l5.3,1.2l-0.3,1.5L272.7,381.6z"/>
			<path class="st4" d="M272.6,377.2c0.1-0.5,0.2-1.2,0.4-2c0.3-1,0.6-1.6,1.1-2c0.4-0.3,0.9-0.4,1.5-0.2c0.8,0.2,1.2,1,1.3,1.6l0,0
				c0.3-0.4,0.8-0.5,1.5-0.5c0.8,0,1.7,0,2,0l-0.4,1.5c-0.2,0.1-0.8,0.1-1.6,0c-0.9-0.1-1.2,0.2-1.3,0.8l-0.1,0.4l2.6,0.7L279,379
				L272.6,377.2z M275.8,376.5l0.2-0.6c0.2-0.7,0-1.3-0.6-1.4c-0.6-0.2-1,0.2-1.2,0.8c-0.1,0.4-0.1,0.6-0.1,0.7L275.8,376.5z"/>
			<path class="st4" d="M274.6,369.9l6.4,2l-0.5,1.5l-6.4-2L274.6,369.9z"/>
			<path class="st4" d="M275.1,368.6c0.1-0.4,0.3-1.2,0.5-1.9c0.3-0.9,0.6-1.4,1-1.8c0.4-0.4,0.9-0.5,1.5-0.3c0.6,0.2,1,0.7,1,1.5
				l0,0c0.4-0.7,1.2-1,2-0.7c0.6,0.2,0.9,0.6,1.1,1.1c0.2,0.6,0.2,1.4-0.3,2.7c-0.2,0.7-0.5,1.2-0.6,1.5L275.1,368.6z M278,368
				l0.2-0.5c0.3-0.8,0.1-1.3-0.4-1.4c-0.5-0.2-0.9,0.1-1.1,0.8c-0.1,0.3-0.1,0.5-0.2,0.6L278,368z M280.8,369
				c0.1-0.1,0.1-0.3,0.2-0.6c0.2-0.7,0.2-1.3-0.5-1.5c-0.6-0.2-1.1,0.3-1.3,1l-0.2,0.5L280.8,369z"/>
			<path class="st4" d="M277.5,361.4l3.6,1.4c1.1,0.4,1.8,0.2,2.1-0.5c0.3-0.7-0.1-1.4-1.2-1.8l-3.6-1.4l0.6-1.4l3.5,1.4
				c1.9,0.8,2.5,2.1,1.8,3.7c-0.6,1.6-1.9,2.2-3.9,1.4l-3.5-1.4L277.5,361.4z"/>
			<path class="st4" d="M280.2,355l6.2,2.7l-0.6,1.4l-6.2-2.7L280.2,355z"/>
			<path class="st4" d="M280.8,353.8c0.1-0.5,0.4-1.2,0.7-1.9c0.4-0.9,0.9-1.5,1.4-1.7c0.5-0.2,1-0.2,1.5,0c0.8,0.4,1.1,1.2,1,1.8
				l0,0c0.4-0.3,0.9-0.4,1.5-0.3c0.8,0.1,1.7,0.3,2,0.3l-0.7,1.4c-0.2,0-0.8-0.1-1.6-0.2c-0.8-0.2-1.2,0-1.4,0.5l-0.2,0.4l2.4,1.1
				l-0.6,1.4L280.8,353.8z M284.1,353.6l0.3-0.5c0.3-0.7,0.2-1.3-0.4-1.5c-0.6-0.3-1,0-1.3,0.6c-0.2,0.3-0.2,0.5-0.2,0.6
				L284.1,353.6z"/>
			<path class="st4" d="M289.4,347.5l1.3,1.2l-0.8,1.4l-4.9-5l1-1.8l6.9,1.4l-0.8,1.4l-1.8-0.4L289.4,347.5z M289.2,345.5l-1.5-0.3
				c-0.4-0.1-0.9-0.2-1.3-0.3l0,0c0.3,0.3,0.7,0.6,1,0.9l1.1,1L289.2,345.5z"/>
			<path class="st4" d="M295,336.4c-0.7-0.4-1.5-0.9-2.4-1.4l0,0c0.6,0.6,1.3,1.4,1.8,2l1.8,2.1l-0.6,1l-2.6-0.8
				c-0.8-0.2-1.7-0.6-2.5-0.9l0,0c0.7,0.5,1.6,1.1,2.3,1.6l2.1,1.5l-0.8,1.2l-5.5-4l1.1-1.7l2.3,0.6c0.8,0.2,1.6,0.5,2.3,0.8l0,0
				c-0.6-0.6-1.2-1.2-1.7-1.8l-1.5-1.8l1.1-1.7l5.9,3.3l-0.8,1.3L295,336.4z"/>
			<path class="st4" d="M298.6,330.7l-1.4,2l1.3,0.9l1.6-2.3l1,0.7l-2.5,3.5l-5.5-3.9l2.4-3.4l1,0.7l-1.5,2.2l1.1,0.8l1.4-2
				L298.6,330.7z"/>
			<path class="st4" d="M297.1,326.2l0.9-1.2l3.4,2.6c1.5,1.2,1.5,2.3,0.6,3.5c-0.2,0.3-0.5,0.6-0.8,0.8l-0.9-0.9
				c0.2-0.1,0.4-0.3,0.6-0.6c0.4-0.5,0.4-1-0.4-1.6L297.1,326.2z"/>
			<path class="st4" d="M305.3,321.2c1.7,1.4,1.9,3.3,0.7,4.8c-1.3,1.6-3.2,1.5-4.7,0.3c-1.6-1.3-1.9-3.2-0.7-4.8
				C301.9,319.9,303.8,320,305.3,321.2z M302.3,325c1,0.8,2.1,0.9,2.8,0.2c0.7-0.8,0.3-1.9-0.8-2.7c-0.9-0.8-2.1-1-2.8-0.2
				C300.9,323.1,301.3,324.2,302.3,325z"/>
			<path class="st4" d="M303.5,318.3c0.3-0.4,0.7-1,1.2-1.6c0.7-0.7,1.2-1.2,1.8-1.3c0.5-0.1,1,0.1,1.5,0.5c0.6,0.6,0.7,1.4,0.4,2
				l0,0c0.5-0.2,1-0.1,1.5,0.2c0.7,0.3,1.5,0.8,1.8,0.9l-1,1.2c-0.2,0-0.7-0.3-1.5-0.7c-0.7-0.4-1.1-0.4-1.5,0.1l-0.3,0.3l2,1.8
				l-1,1.1L303.5,318.3z M306.7,319.1l0.4-0.4c0.5-0.6,0.5-1.2,0.1-1.5c-0.5-0.4-1-0.3-1.4,0.2c-0.2,0.3-0.4,0.5-0.4,0.5
				L306.7,319.1z"/>
			<path class="st4" d="M312.3,316l0.9,1.6l-1.1,1.1l-3.4-6.2l1.4-1.4l6.3,3.2l-1.1,1.2l-1.6-0.8L312.3,316z M312.7,314l-1.3-0.7
				c-0.4-0.2-0.8-0.5-1.2-0.7l0,0c0.2,0.4,0.5,0.8,0.7,1.1l0.7,1.3L312.7,314z"/>
			<path class="st4" d="M312.3,309.1c0.3-0.4,0.8-0.9,1.4-1.5c0.7-0.7,1.3-1.1,2-1.1c0.5,0,1,0.2,1.4,0.6c0.6,0.6,0.5,1.5,0.3,2l0,0
				c0.5-0.2,1,0,1.5,0.3c0.7,0.4,1.4,0.9,1.7,1l-1.1,1.1c-0.2-0.1-0.7-0.4-1.4-0.8c-0.7-0.5-1.1-0.5-1.5,0l-0.3,0.3l1.8,1.9l-1.1,1
				L312.3,309.1z M315.4,310.2l0.4-0.4c0.6-0.5,0.6-1.1,0.2-1.5c-0.4-0.5-0.9-0.4-1.5,0.1c-0.3,0.3-0.4,0.4-0.5,0.5L315.4,310.2z"/>
			<path class="st4" d="M318.1,303.6l1.2-1l3.5,4.2l2-1.7l0.8,1l-3.2,2.7L318.1,303.6z"/>
			<path class="st4" d="M326.5,303.2l0.7,1.7l-1.2,1l-2.5-6.6l1.6-1.2l5.8,4l-1.3,1l-1.5-1L326.5,303.2z M327.2,301.2l-1.2-0.9
				c-0.3-0.2-0.7-0.6-1.1-0.8l0,0c0.2,0.4,0.4,0.8,0.6,1.2l0.6,1.4L327.2,301.2z"/>
			<path class="st4" d="M336.8,297.6c-0.2,0.3-0.6,0.8-1.3,1.2c-1.9,1.3-3.7,0.8-4.8-0.8c-1.3-1.9-0.7-3.9,1-5
				c0.6-0.4,1.2-0.7,1.5-0.7l0.4,1.2c-0.3,0.1-0.8,0.2-1.2,0.5c-1,0.7-1.4,1.8-0.5,3.1c0.8,1.1,1.9,1.4,3,0.6
				c0.4-0.3,0.7-0.6,0.9-0.9L336.8,297.6z"/>
			<path class="st4" d="M338.1,294.9l0.5,1.7l-1.3,0.8l-1.8-6.8l1.7-1.1l5.4,4.6l-1.4,0.9l-1.4-1.2L338.1,294.9z M338.9,293.1
				l-1.1-1c-0.3-0.3-0.7-0.6-1-0.9l0,0c0.1,0.4,0.3,0.9,0.4,1.3l0.4,1.4L338.9,293.1z"/>
			<path class="st4" d="M339.7,288.1l1.3-0.8l2.7,4.7l2.3-1.3l0.6,1.1l-3.7,2.1L339.7,288.1z"/>
			<path class="st4" d="M345.5,284.8l3.2,5.9l-1.3,0.7l-3.2-5.9L345.5,284.8z"/>
			<path class="st4" d="M346.8,284.2c0.5-0.3,1.1-0.7,1.8-1c1.1-0.6,2-0.7,2.8-0.6c0.9,0.2,1.6,0.7,2.1,1.8c0.6,1.2,0.5,2.2,0.2,2.9
				c-0.4,0.8-1.2,1.6-2.4,2.2c-0.7,0.4-1.2,0.6-1.6,0.7L346.8,284.2z M350.6,288.5c0.1,0,0.3-0.1,0.5-0.2c1.2-0.6,1.7-1.7,1-3.1
				c-0.6-1.3-1.7-1.6-2.9-1c-0.3,0.2-0.5,0.3-0.6,0.4L350.6,288.5z"/>
			<path class="st4" d="M356.2,285.1l0.3,1.8l-1.4,0.6l-0.8-7l1.8-0.8l4.6,5.3l-1.5,0.7l-1.2-1.4L356.2,285.1z M357.3,283.4l-1-1.1
				c-0.3-0.3-0.6-0.7-0.8-1.1l0,0c0.1,0.4,0.2,0.9,0.2,1.3l0.2,1.5L357.3,283.4z"/>
			<path class="st4" d="M358.8,278.6c0.5-0.3,1.2-0.6,1.9-0.9c1.2-0.5,2.1-0.5,2.8-0.3c0.8,0.2,1.5,0.9,2,2c0.5,1.2,0.3,2.2-0.1,2.9
				c-0.5,0.8-1.4,1.5-2.6,1.9c-0.7,0.3-1.3,0.4-1.7,0.5L358.8,278.6z M362.2,283.2c0.1,0,0.3-0.1,0.5-0.2c1.3-0.5,1.9-1.5,1.3-3
				c-0.5-1.3-1.5-1.7-2.7-1.2c-0.3,0.1-0.5,0.2-0.6,0.3L362.2,283.2z"/>
			<path class="st4" d="M367.3,275.5c0.5-0.3,1.2-0.5,1.9-0.8c1.2-0.4,2.1-0.4,2.9-0.1c0.8,0.3,1.5,0.9,1.9,2.1
				c0.4,1.2,0.2,2.2-0.2,2.9c-0.5,0.8-1.4,1.4-2.7,1.8c-0.8,0.2-1.3,0.4-1.7,0.4L367.3,275.5z M370.4,280.3c0.1,0,0.3-0.1,0.5-0.1
				c1.3-0.4,1.9-1.4,1.5-2.9c-0.4-1.3-1.4-1.8-2.7-1.4c-0.3,0.1-0.5,0.2-0.6,0.3L370.4,280.3z"/>
			<path class="st4" d="M378.9,276.1l-2.4,0.6l0.4,1.5l2.7-0.7l0.3,1.2l-4.2,1.1l-1.7-6.5l4-1.1l0.3,1.2l-2.5,0.7l0.4,1.4l2.4-0.6
				L378.9,276.1z"/>
			<path class="st4" d="M384.1,277.8l-3.5-6.1l1.6-0.3l1.4,2.6c0.4,0.7,0.8,1.4,1.1,2.2l0,0c0-0.8,0-1.7,0.1-2.5l0.2-3l1.6-0.3
				l-0.8,7.1L384.1,277.8z"/>
			<path class="st4" d="M388.9,269.9l1.2,6.6l-1.5,0.3l-1.2-6.6L388.9,269.9z"/>
			<path class="st4" d="M390.4,269.8c0.5-0.2,1.3-0.3,2-0.4c1.3-0.2,2.1-0.1,2.8,0.3c0.8,0.4,1.3,1.2,1.5,2.4
				c0.2,1.3-0.2,2.2-0.7,2.9c-0.6,0.7-1.6,1.1-3,1.3c-0.8,0.1-1.3,0.1-1.7,0.1L390.4,269.8z M392.6,275c0.1,0,0.3,0,0.5,0
				c1.4-0.2,2.2-1.1,1.9-2.7c-0.2-1.4-1.1-2-2.4-1.8c-0.3,0-0.5,0.1-0.7,0.2L392.6,275z"/>
			<path class="st4" d="M399.1,273.6l-0.3,1.8l-1.6,0.2l1.4-6.9l2-0.2l2.7,6.5l-1.6,0.2l-0.7-1.7L399.1,273.6z M400.7,272.3
				l-0.6-1.4c-0.2-0.4-0.3-0.9-0.5-1.3l0,0c-0.1,0.4-0.1,0.9-0.2,1.3l-0.3,1.5L400.7,272.3z"/>
			<path class="st4" d="M405.6,268.1c0.6-0.1,1.3-0.2,2.1-0.2c1.3,0,2.1,0.2,2.8,0.6c0.7,0.5,1.2,1.3,1.2,2.5c0,1.3-0.4,2.2-1,2.8
				c-0.7,0.6-1.8,0.9-3.1,1c-0.8,0-1.4,0-1.7,0L405.6,268.1z M407.4,273.6c0.1,0,0.3,0,0.5,0c1.4,0,2.3-0.8,2.2-2.4
				c0-1.4-0.9-2.1-2.2-2.1c-0.3,0-0.6,0.1-0.7,0.1L407.4,273.6z"/>
			<path class="st4" d="M416.7,271.7l-2.5,0l0,1.6l2.8,0l0,1.3l-4.3,0l0-6.7l4.2,0l0,1.3l-2.6,0l0,1.4l2.5,0L416.7,271.7z"/>
			<path class="st4" d="M420,268l1.5,0.1l-0.2,5.5l2.7,0.1l-0.1,1.3l-4.2-0.2L420,268z"/>
			<path class="st4" d="M426.5,273.4l-0.6,1.7l-1.6-0.2l2.7-6.5l2,0.2l1.4,6.9l-1.6-0.2l-0.4-1.8L426.5,273.4z M428.3,272.4L428,271
				c-0.1-0.4-0.2-0.9-0.2-1.3l0,0c-0.1,0.4-0.3,0.9-0.4,1.3l-0.5,1.4L428.3,272.4z"/>
			<path class="st4" d="M431.4,274.1c0.4,0.3,1,0.6,1.6,0.6c0.7,0.1,1.1-0.1,1.2-0.6c0.1-0.4-0.2-0.7-1-1.1
				c-1.1-0.5-1.7-1.3-1.6-2.2c0.2-1.1,1.2-1.9,2.8-1.7c0.8,0.1,1.3,0.3,1.7,0.6l-0.5,1.2c-0.2-0.2-0.7-0.4-1.4-0.5
				c-0.7-0.1-1,0.2-1.1,0.5c-0.1,0.4,0.3,0.7,1.1,1.1c1.1,0.6,1.6,1.3,1.5,2.2c-0.2,1.1-1.1,2-3,1.7c-0.8-0.1-1.5-0.4-1.8-0.7
				L431.4,274.1z"/>
			<path class="st4" d="M439.4,270.1l4,0.8l-0.2,1.2l-2.5-0.5l-0.3,1.5l2.4,0.5l-0.2,1.2l-2.4-0.5l-0.5,2.7l-1.5-0.3L439.4,270.1z"
				/>
			<path class="st4" d="M444.6,276.2l-0.9,1.6l-1.5-0.4l3.5-6.1l1.9,0.4l0.5,7l-1.6-0.4l-0.1-1.8L444.6,276.2z M446.5,275.5
				l-0.1-1.5c0-0.4,0-0.9,0-1.3l0,0c-0.2,0.4-0.4,0.8-0.6,1.2l-0.7,1.3L446.5,275.5z"/>
			<path class="st4" d="M455,278c0.2-0.8,0.4-1.7,0.7-2.7l0,0c-0.4,0.8-1,1.6-1.4,2.3l-1.5,2.3l-1.1-0.3l0-2.7c0-0.8,0-1.8,0.1-2.7
				l0,0c-0.3,0.9-0.6,1.9-0.9,2.6l-0.8,2.4l-1.4-0.4l2.3-6.4l2,0.6l0,2.3c0,0.8,0,1.7-0.1,2.5l0,0c0.4-0.7,0.9-1.5,1.3-2.2l1.3-2
				l1.9,0.5l-1.5,6.6l-1.4-0.4L455,278z"/>
			<path class="st4" d="M460.4,275.4l-2.1,6.4l-1.5-0.5l2.1-6.4L460.4,275.4z"/>
			<path class="st4" d="M461.7,275.9l1.4,0.5l-1.9,5.1l2.5,0.9l-0.4,1.2l-4-1.4L461.7,275.9z"/>
			<path class="st4" d="M467.9,278.2l-2.5,6.3l-1.4-0.6l2.5-6.3L467.9,278.2z"/>
			<path class="st4" d="M468.6,283.9l-1.1,1.4l-1.5-0.6l4.6-5.4l1.8,0.8l-0.7,7l-1.5-0.6l0.2-1.8L468.6,283.9z M470.6,283.5l0.2-1.5
				c0-0.4,0.1-0.9,0.2-1.3l0,0c-0.2,0.3-0.5,0.8-0.8,1.1l-0.9,1.2L470.6,283.5z"/>
			<path class="st4" d="M473,286c0.3,0.4,0.8,0.8,1.3,1.1c0.6,0.3,1.1,0.2,1.3-0.2c0.2-0.4,0-0.7-0.6-1.3c-0.8-0.8-1.2-1.7-0.8-2.6
				c0.5-1,1.7-1.4,3.2-0.7c0.7,0.3,1.1,0.7,1.4,1.1l-0.8,1c-0.2-0.2-0.5-0.6-1.1-0.9c-0.6-0.3-1-0.2-1.2,0.2
				c-0.2,0.4,0.1,0.7,0.7,1.4c0.9,0.9,1.1,1.7,0.7,2.6c-0.5,1-1.7,1.5-3.4,0.7c-0.7-0.3-1.3-0.8-1.5-1.2L473,286z"/>
			<path class="st4" d="M483.6,289.9l-2.2-1.2l-0.8,1.4l2.4,1.3l-0.6,1.1l-3.8-2.1l3.2-5.9l3.7,2l-0.6,1.1l-2.3-1.3l-0.7,1.2
				l2.2,1.2L483.6,289.9z"/>
			<path class="st4" d="M483.3,293l3.5-5.8l1.5,0.9l-0.1,2.8c0,0.8-0.1,1.7-0.2,2.5l0,0c0.4-0.8,0.8-1.6,1.3-2.5l1-1.7l1.2,0.7
				l-3.5,5.8l-1.4-0.8l0.1-3c0-0.8,0.1-1.8,0.2-2.6l0,0c-0.4,0.8-0.9,1.6-1.5,2.5l-1,1.7L483.3,293z"/>
			<path class="st4" d="M496.7,298.6c0.4-0.7,1-1.5,1.5-2.3l0,0c-0.7,0.6-1.4,1.2-2.1,1.7l-2.2,1.7l-1-0.7l0.9-2.6
				c0.3-0.8,0.6-1.7,1-2.5l0,0c-0.6,0.7-1.2,1.6-1.7,2.2l-1.6,2l-1.2-0.8l4.2-5.3l1.7,1.2l-0.7,2.2c-0.3,0.8-0.6,1.6-0.9,2.3l0,0
				c0.6-0.5,1.3-1.1,1.9-1.6l1.9-1.4l1.6,1.1l-3.5,5.7l-1.2-0.9L496.7,298.6z"/>
			<path class="st4" d="M502.2,302.4l-2-1.5l-1,1.3l2.2,1.7l-0.8,1l-3.4-2.6l4.1-5.3l3.3,2.5l-0.8,1l-2.1-1.6l-0.9,1.1l2,1.5
				L502.2,302.4z M505.4,298l-1.7,0.2l-1-0.7l1.4-0.5L505.4,298z"/>
			<path class="st4" d="M504.1,307.7l0.3-1.3c0.1-0.5,0.2-0.9,0.3-1.3l0,0c-0.4,0.2-0.7,0.4-1.2,0.6l-1.2,0.6l-1.3-1.1l3.7-1.4
				l0.7-3.8l1.3,1.1l-0.3,1.3c-0.1,0.4-0.2,0.8-0.3,1.2l0,0c0.4-0.2,0.7-0.4,1.1-0.6l1.2-0.6l1.3,1.1l-3.6,1.3l-0.7,3.9L504.1,307.7
				z"/>
			<path class="st4" d="M511.6,305.3l-4.5,5l-1.1-1l4.5-5L511.6,305.3z"/>
			<path class="st4" d="M511.7,314.4c-0.3-0.1-0.9-0.4-1.5-1c-1.7-1.6-1.6-3.5-0.2-4.9c1.6-1.7,3.7-1.5,5.1-0.1
				c0.6,0.5,0.9,1.1,1,1.4l-1.1,0.7c-0.1-0.3-0.4-0.7-0.8-1.1c-0.9-0.8-2.1-0.9-3.1,0.1c-0.9,1-0.9,2.1,0.1,3.1
				c0.3,0.3,0.8,0.6,1.1,0.7L511.7,314.4z"/>
			<path class="st4" d="M518.7,317c-1.6,1.5-3.5,1.5-4.9,0.1c-1.4-1.4-1.1-3.3,0.3-4.7c1.5-1.4,3.4-1.5,4.8-0.1
				C520.4,313.8,520.1,315.7,518.7,317z M515.3,313.5c-0.9,0.9-1.2,2-0.5,2.7c0.7,0.7,1.8,0.5,2.8-0.4c0.9-0.8,1.2-2,0.5-2.7
				C517.3,312.4,516.2,312.6,515.3,313.5z"/>
			<path class="st4" d="M519,322.5l2.1-1.8l1.6-4.2l1.1,1.3l-0.8,1.6c-0.2,0.5-0.4,0.8-0.6,1.2l0,0c0.4-0.2,0.8-0.3,1.3-0.5l1.7-0.5
				l1.1,1.3l-4.4,0.9l-2.1,1.8L519,322.5z"/>
			<path class="st4" d="M526.1,331c-0.3-0.1-0.8-0.5-1.3-1.2c-1.4-1.8-1-3.7,0.5-4.9c1.8-1.4,3.8-0.9,5.1,0.7
				c0.5,0.6,0.7,1.2,0.8,1.5l-1.1,0.5c-0.1-0.3-0.3-0.7-0.6-1.2c-0.7-1-1.9-1.3-3.1-0.3c-1.1,0.8-1.3,2-0.4,3.1
				c0.3,0.4,0.7,0.7,0.9,0.9L526.1,331z"/>
			<path class="st4" d="M531.1,333.4l-1.4-2l-1.3,0.9l1.6,2.3l-1,0.7l-2.5-3.5l5.5-3.9l2.4,3.4l-1,0.7l-1.5-2.1l-1.1,0.8l1.4,2
				L531.1,333.4z"/>
			<path class="st4" d="M529.4,336l5.7-3.7l1,1.5l-1.3,2.5c-0.4,0.7-0.9,1.5-1.3,2.2l0,0c0.7-0.6,1.4-1.1,2.3-1.6l1.7-1.1l0.8,1.2
				l-5.7,3.7l-0.9-1.3l1.4-2.6c0.4-0.7,0.9-1.6,1.4-2.3l0,0c-0.7,0.5-1.5,1-2.4,1.6l-1.7,1.1L529.4,336z"/>
			<path class="st4" d="M538.4,340l-0.9-1.6l1.1-0.6l2.6,4.5l-1.1,0.6l-0.9-1.6l-4.7,2.8l-0.8-1.3L538.4,340z"/>
			<path class="st4" d="M541.5,343.1c0.3,0.4,0.7,1,1.1,1.7c0.5,0.9,0.7,1.6,0.6,2.2c-0.1,0.5-0.4,0.9-1,1.2c-0.8,0.4-1.6,0.1-2-0.3
				l0,0c0.1,0.5-0.2,0.9-0.7,1.4c-0.6,0.5-1.2,1.1-1.4,1.4l-0.7-1.4c0.1-0.2,0.5-0.6,1.2-1.2c0.7-0.6,0.7-0.9,0.4-1.5l-0.2-0.4
				l-2.3,1.3l-0.7-1.3L541.5,343.1z M539.7,345.8l0.3,0.5c0.4,0.7,0.9,0.9,1.4,0.6c0.5-0.3,0.6-0.8,0.3-1.4
				c-0.2-0.3-0.3-0.5-0.4-0.6L539.7,345.8z"/>
			<path class="st4" d="M544.1,355.3c-2,1-3.8,0.3-4.6-1.5c-0.9-1.8,0-3.5,1.7-4.3c1.8-0.9,3.7-0.4,4.6,1.4
				C546.7,352.8,545.8,354.5,544.1,355.3z M541.9,350.9c-1.2,0.6-1.8,1.5-1.3,2.5c0.4,0.9,1.6,1,2.8,0.5c1.1-0.5,1.8-1.5,1.3-2.4
				C544.2,350.5,543.1,350.3,541.9,350.9z"/>
			<path class="st4" d="M543.4,358l-1.8,0.2l-0.6-1.5l7-0.7l0.8,1.8l-5.4,4.6l-0.6-1.5l1.4-1.2L543.4,358z M545.1,359.1l1.2-0.9
				c0.3-0.3,0.7-0.6,1.1-0.8l0,0c-0.4,0.1-0.9,0.2-1.3,0.2l-1.5,0.2L545.1,359.1z"/>
			<path class="st4" d="M548,367.5c0.8-0.3,1.7-0.7,2.6-1l0,0c-0.9,0.1-1.9,0.2-2.7,0.2l-2.8,0.1l-0.4-1.1l2.2-1.6
				c0.7-0.5,1.5-1,2.3-1.5l0,0c-0.9,0.3-1.9,0.6-2.7,0.8l-2.4,0.8l-0.5-1.3l6.5-1.9l0.7,1.9l-1.9,1.4c-0.7,0.5-1.4,0.9-2.1,1.4l0,0
				c0.8-0.1,1.7-0.2,2.5-0.2l2.4-0.1l0.7,1.9l-6.2,2.7l-0.5-1.4L548,367.5z"/>
			<path class="st4" d="M550.3,373.8l-0.7-2.4l-1.5,0.5l0.8,2.6l-1.2,0.4l-1.3-4.1l6.4-2l1.2,4l-1.2,0.4l-0.8-2.5l-1.3,0.4l0.7,2.4
				L550.3,373.8z M555.5,372l-1.5-0.8l-0.4-1.2l1.4,0.4L555.5,372z"/>
			<path class="st4" d="M554.4,374.1c0.2,0.5,0.4,1.1,0.7,1.9c0.3,1,0.3,1.7,0,2.2c-0.2,0.5-0.6,0.8-1.2,1c-0.8,0.2-1.6-0.2-1.9-0.7
				l0,0c-0.1,0.5-0.4,0.9-1,1.2c-0.7,0.4-1.5,0.8-1.7,1l-0.4-1.5c0.2-0.2,0.6-0.5,1.4-0.9c0.8-0.4,0.9-0.7,0.8-1.3l-0.1-0.4
				l-2.6,0.7l-0.4-1.5L554.4,374.1z M552,376.3l0.2,0.6c0.2,0.7,0.7,1.1,1.2,0.9c0.6-0.2,0.8-0.6,0.6-1.3c-0.1-0.4-0.2-0.6-0.2-0.7
				L552,376.3z"/>
			<path class="st4" d="M556.3,381.4l-6.6,1.5l-0.3-1.5l6.6-1.5L556.3,381.4z"/>
			<path class="st4" d="M551.2,388.9c-0.2-0.2-0.5-0.8-0.6-1.6c-0.5-2.3,0.7-3.7,2.6-4.1c2.3-0.5,3.8,0.9,4.2,2.9
				c0.2,0.8,0.1,1.4,0,1.7l-1.2-0.1c0.1-0.3,0.1-0.8,0-1.3c-0.2-1.2-1.1-2-2.6-1.7c-1.3,0.3-2,1.2-1.7,2.6c0.1,0.5,0.3,0.9,0.5,1.2
				L551.2,388.9z"/>
			<path class="st4" d="M553.1,391.2l-1.8-0.2l-0.2-1.6l7,1l0.3,2l-6.3,3.1l-0.3-1.6l1.6-0.8L553.1,391.2z M554.5,392.7l1.3-0.6
				c0.4-0.2,0.9-0.4,1.2-0.5l0,0c-0.4,0-0.9-0.1-1.3-0.1l-1.5-0.2L554.5,392.7z"/>
		</g>
	</g>
	<g>
		<g>
			<path class="st4" d="M403,255.9l0,0.2c0.1,0.4-0.1,0.9-0.4,1.3c-0.3,0.4-0.5,0.6-0.4,0.9c0,0.3,0.2,0.5,0.7,0.5
				c0.3,0,0.6-0.1,0.8-0.3l0.3,0.9c-0.3,0.2-0.8,0.4-1.4,0.5c-1.1,0.1-1.7-0.5-1.7-1.2c0-0.7,0.3-1.1,0.6-1.5
				c0.3-0.4,0.4-0.7,0.4-1.1l0-0.1L403,255.9z M403.1,254.6c0,0.4-0.2,0.8-0.7,0.8c-0.4,0-0.8-0.3-0.8-0.7c0-0.4,0.3-0.8,0.7-0.8
				C402.7,253.9,403.1,254.2,403.1,254.6z"/>
			<path class="st4" d="M409.7,260.3c-0.8-0.2-1.5-0.4-2.3-0.7c-0.1,0-0.3-0.1-0.4-0.1c-1.3,0-2.5-0.9-2.6-2.8
				c-0.1-1.7,1-3.1,2.7-3.1c1.8-0.1,2.8,1.2,2.8,2.8c0.1,1.3-0.5,2.2-1.2,2.6l0,0c0.4,0.1,0.9,0.2,1.4,0.3L409.7,260.3z
				 M408.5,256.5c0-1-0.6-1.9-1.5-1.9c-0.9,0-1.4,0.9-1.3,2c0,1.1,0.6,1.9,1.5,1.9C408,258.5,408.5,257.6,408.5,256.5z"/>
			<path class="st4" d="M412.1,253.6l0.1,3.3c0,1,0.4,1.5,1.1,1.5c0.7,0,1-0.5,1-1.5l-0.1-3.3l1.3,0l0.1,3.2c0,1.8-0.9,2.6-2.3,2.6
				c-1.4,0-2.3-0.8-2.3-2.6l-0.1-3.2L412.1,253.6z"/>
			<path class="st4" d="M420.1,257l-2.1-0.1l0,1.4l2.4,0.1l0,1.1l-3.7-0.1l0.2-5.7l3.5,0.1l0,1.1l-2.2-0.1l0,1.2l2.1,0.1L420.1,257z
				 M420.1,252.3l-1.1,1l-1,0l0.7-1L420.1,252.3z"/>
			<path class="st4" d="M421.8,257.7l0-0.2c0-0.4,0.2-0.9,0.6-1.3c0.3-0.3,0.5-0.6,0.5-0.9c0-0.3-0.2-0.5-0.6-0.5
				c-0.3,0-0.6,0.1-0.9,0.2l-0.2-0.9c0.3-0.2,0.8-0.3,1.4-0.3c1.1,0.1,1.6,0.7,1.6,1.4c0,0.6-0.5,1-0.8,1.4c-0.3,0.3-0.5,0.7-0.5,1
				l0,0.2L421.8,257.7z M421.5,258.8c0-0.4,0.4-0.8,0.8-0.7c0.5,0,0.7,0.4,0.7,0.8c0,0.4-0.3,0.8-0.8,0.7
				C421.8,259.6,421.5,259.3,421.5,258.8z"/>
		</g>
	</g>
	<g>
		<path class="st3" d="M305.6,269.1l-2.6,2l1.3,1.7l2.9-2.3l1,1.3l-4.5,3.5l-5.5-7.1l4.4-3.4l1,1.3l-2.8,2.1l1.1,1.5l2.6-2
			L305.6,269.1z"/>
		<path class="st3" d="M313.2,268.3l-1.6-0.9c-0.6-0.3-1.1-0.6-1.6-0.9l0,0c0.1,0.5,0.2,1,0.4,1.7l0.3,1.8l-1.9,1.3l-0.5-5.2
			l-4.6-2.2l1.9-1.3l1.6,0.9c0.5,0.3,0.9,0.5,1.4,0.8l0,0c-0.2-0.6-0.2-1-0.4-1.6L308,261l1.9-1.3l0.5,5l4.8,2.2L313.2,268.3z"/>
		<path class="st3" d="M311.3,258.9c0.5-0.4,1.2-1,2.2-1.6c1.1-0.7,1.9-1,2.7-0.9c0.7,0.1,1.5,0.5,1.9,1.2c0.5,0.7,0.6,1.5,0.5,2.2
			c-0.2,0.9-0.9,1.7-1.9,2.4c-0.2,0.1-0.4,0.3-0.6,0.3l1.7,2.7l-1.7,1.1L311.3,258.9z M315.2,261.3c0.2-0.1,0.4-0.2,0.6-0.3
			c0.9-0.6,1.2-1.4,0.7-2.2c-0.4-0.7-1.2-0.8-2-0.3c-0.3,0.2-0.6,0.4-0.7,0.5L315.2,261.3z"/>
		<path class="st3" d="M325.3,256.3l-2.9,1.7l1.1,1.8l3.2-1.9l0.8,1.4l-5,2.9l-4.5-7.8l4.8-2.8l0.8,1.4l-3,1.8l0.9,1.6l2.9-1.7
			L325.3,256.3z"/>
		<path class="st3" d="M324.6,250.8c0.5-0.4,1.4-0.9,2.3-1.4c1.2-0.6,2.1-0.9,2.9-0.7c0.7,0.1,1.2,0.5,1.6,1.3
			c0.5,1,0.2,2.1-0.4,2.7l0,0c0.7-0.1,1.3,0.3,1.8,0.9c0.7,0.8,1.5,1.7,1.8,1.9l-1.8,1c-0.2-0.2-0.8-0.7-1.5-1.6
			c-0.7-0.9-1.2-1-2-0.6l-0.5,0.3l1.6,3.1l-1.8,0.9L324.6,250.8z M328.2,253.3l0.7-0.4c0.9-0.5,1.2-1.2,0.8-1.9
			c-0.4-0.7-1.1-0.8-1.9-0.4c-0.4,0.2-0.7,0.4-0.8,0.5L328.2,253.3z"/>
		<path class="st3" d="M333.7,246.1l3.9,8.1l-1.8,0.9l-3.9-8.1L333.7,246.1z"/>
		<path class="st3" d="M342.7,247.7l-3,1.3l0.9,1.9l3.4-1.5l0.7,1.5l-5.2,2.3l-3.7-8.2l5.1-2.3l0.7,1.5l-3.2,1.4l0.8,1.7l3-1.3
			L342.7,247.7z"/>
		<path class="st3" d="M345.8,250.5l-3.3-8.4l2.2-0.9l2.9,2.4c0.8,0.7,1.7,1.5,2.5,2.3l0,0c-0.6-1.1-1-2.2-1.5-3.4l-1-2.4l1.7-0.7
			l3.3,8.4l-2,0.8l-3.1-2.5c-0.8-0.7-1.8-1.6-2.6-2.4l0,0c0.5,1.1,1,2.3,1.5,3.6l1,2.5L345.8,250.5z"/>
		<path class="st3" d="M360.5,244.8c-0.3,0.3-1,0.8-2.1,1.1c-2.9,1-5.1-0.3-5.9-2.7c-1-2.9,0.5-5.2,3.1-6.1c1-0.3,1.8-0.4,2.2-0.3
			l0.1,1.7c-0.4,0-1,0-1.7,0.2c-1.5,0.5-2.4,1.8-1.8,3.7c0.6,1.7,1.9,2.4,3.7,1.9c0.6-0.2,1.2-0.5,1.5-0.8L360.5,244.8z"/>
		<path class="st3" d="M361.3,235.5l2.6,8.6l-2,0.6l-2.6-8.6L361.3,235.5z"/>
		<path class="st3" d="M367.1,240.8l0,2.4l-2,0.5l0.4-9.4l2.6-0.7l5,8l-2.1,0.6l-1.3-2.1L367.1,240.8z M368.9,238.8l-1-1.7
			c-0.3-0.5-0.6-1.1-0.9-1.6l0,0c0,0.5,0,1.2,0,1.8l0,2L368.9,238.8z"/>
		<path class="st3" d="M375.2,232.1c0.7-0.3,1.7-0.5,2.7-0.7c1.7-0.3,2.8-0.2,3.8,0.3c1,0.5,1.8,1.5,2.1,3c0.3,1.7-0.1,3-0.8,3.9
			c-0.8,0.9-2.1,1.6-3.9,1.9c-1,0.2-1.8,0.3-2.3,0.3L375.2,232.1z M378.6,238.9c0.2,0,0.5,0,0.7-0.1c1.8-0.3,2.8-1.5,2.4-3.7
			c-0.3-1.8-1.6-2.6-3.3-2.3c-0.4,0.1-0.7,0.2-0.9,0.3L378.6,238.9z"/>
		<path class="st3" d="M390.7,234.6l-3.3,0.5l0.3,2.1l3.7-0.5l0.2,1.6l-5.7,0.8l-1.3-8.9l5.5-0.8l0.2,1.6l-3.5,0.5l0.3,1.8l3.3-0.5
			L390.7,234.6z"/>
		<path class="st3" d="M402.4,237c-0.4,0.2-1.2,0.5-2.3,0.6c-3.1,0.3-4.8-1.5-5.1-4.1c-0.3-3.1,1.8-4.9,4.5-5.2
			c1-0.1,1.9,0.1,2.2,0.2l-0.3,1.6c-0.4-0.1-1-0.2-1.7-0.2c-1.6,0.1-2.8,1.2-2.6,3.2c0.2,1.8,1.3,2.8,3.1,2.7
			c0.6-0.1,1.3-0.2,1.7-0.4L402.4,237z"/>
		<path class="st3" d="M411.4,232.3c0.1,2.9-1.6,4.8-4.2,4.9c-2.7,0.1-4.3-1.9-4.4-4.4c-0.1-2.7,1.5-4.8,4.2-4.9
			C409.7,227.9,411.3,229.9,411.4,232.3z M404.9,232.7c0.1,1.8,0.9,3,2.3,2.9c1.4-0.1,2.1-1.4,2-3.1c-0.1-1.6-0.9-3-2.3-2.9
			C405.6,229.6,404.8,230.9,404.9,232.7z"/>
		<path class="st3" d="M420.5,233.6c0-1.1,0-2.4,0-3.7l0,0c-0.3,1.1-0.7,2.4-1.1,3.5l-1.2,3.5l-1.6,0l-0.9-3.5
			c-0.3-1.1-0.6-2.3-0.7-3.5l0,0c-0.1,1.2-0.1,2.6-0.2,3.7l-0.2,3.4l-1.9,0l0.8-9l2.7,0.1l0.8,3c0.3,1,0.5,2.2,0.7,3.2l0,0
			c0.3-1,0.6-2.2,0.9-3.2l1-3l2.7,0.1l0.3,9l-2,0L420.5,233.6z"/>
		<path class="st3" d="M424.7,228.4c0.6-0.1,1.5-0.1,2.8,0c1.2,0.1,2.1,0.4,2.7,0.9c0.5,0.5,0.9,1.3,0.8,2.1c-0.1,0.9-0.4,1.6-1,2.1
			c-0.7,0.6-1.8,0.8-3,0.7c-0.3,0-0.5-0.1-0.7-0.1l-0.2,3.2l-2-0.1L424.7,228.4z M426.4,232.6c0.2,0.1,0.4,0.1,0.7,0.1
			c1.1,0.1,1.8-0.4,1.8-1.3c0.1-0.8-0.5-1.4-1.5-1.4c-0.4,0-0.7,0-0.8,0L426.4,232.6z"/>
		<path class="st3" d="M432.7,229c0.7,0,1.6,0,2.7,0.1c1.3,0.2,2.2,0.5,2.8,1c0.5,0.5,0.7,1.1,0.6,2c-0.1,1.1-1,1.8-1.8,2l0,0
			c0.6,0.3,0.9,1,1,1.8c0.2,1,0.3,2.2,0.4,2.6l-2.1-0.2c-0.1-0.3-0.2-1-0.4-2.2c-0.1-1.1-0.5-1.5-1.3-1.6l-0.6-0.1l-0.4,3.5l-2-0.2
			L432.7,229z M434.3,233.1l0.8,0.1c1,0.1,1.7-0.3,1.8-1.1c0.1-0.8-0.4-1.3-1.3-1.4c-0.5-0.1-0.8-0.1-0.9,0L434.3,233.1z"/>
		<path class="st3" d="M442.1,236.8l-1,2.2l-2.1-0.3l4.2-8.4l2.6,0.4l1.3,9.3l-2.2-0.4l-0.3-2.4L442.1,236.8z M444.6,235.7l-0.2-2
			c-0.1-0.6-0.1-1.2-0.2-1.8l0,0c-0.2,0.5-0.5,1.2-0.7,1.6l-0.8,1.8L444.6,235.7z"/>
		<path class="st3" d="M451.6,238.8c0.5,0.4,1.2,0.9,2.1,1c0.9,0.2,1.5-0.1,1.6-0.6c0.1-0.5-0.2-1-1.2-1.6c-1.3-0.8-2.1-1.9-1.8-3.1
			c0.3-1.5,1.9-2.4,3.9-1.9c1,0.2,1.7,0.6,2.1,1l-0.8,1.5c-0.3-0.2-0.9-0.6-1.7-0.8c-0.9-0.2-1.4,0.1-1.5,0.6
			c-0.1,0.6,0.3,0.9,1.3,1.6c1.4,0.9,2,1.9,1.7,3.1c-0.3,1.5-1.8,2.5-4.2,1.9c-1-0.2-1.9-0.7-2.4-1.1L451.6,238.8z"/>
		<path class="st3" d="M462.4,234.3l-2.3,8.7l-2-0.5l2.3-8.7L462.4,234.3z"/>
		<path class="st3" d="M461.8,243.5l2.6-8.6l2.3,0.7l0.8,3.7c0.2,1.1,0.4,2.3,0.5,3.4l0,0c0.2-1.2,0.5-2.3,0.9-3.6l0.8-2.5l1.8,0.5
			l-2.6,8.6l-2-0.6l-0.8-3.9c-0.2-1.1-0.5-2.4-0.6-3.5l0,0c-0.3,1.1-0.6,2.4-1.1,3.8l-0.8,2.6L461.8,243.5z"/>
		<path class="st3" d="M476.4,238.7l5.1,1.9l-0.6,1.6l-3.2-1.2l-0.7,1.9l3,1.1l-0.6,1.5l-3-1.1l-1.3,3.4l-1.9-0.7L476.4,238.7z"/>
		<path class="st3" d="M483.3,241.5c0.6,0.2,1.6,0.5,2.6,0.9c1.2,0.5,2,1.1,2.4,1.8c0.3,0.6,0.4,1.3,0,2.1c-0.4,1.1-1.5,1.5-2.3,1.4
			l0,0c0.5,0.5,0.6,1.2,0.5,2c-0.1,1-0.3,2.2-0.3,2.6l-1.9-0.8c0-0.3,0.1-1,0.2-2.2c0.2-1.1,0-1.6-0.8-1.9l-0.6-0.2l-1.4,3.3
			l-1.9-0.8L483.3,241.5z M483.7,245.8l0.7,0.3c0.9,0.4,1.7,0.2,2-0.6c0.3-0.8,0-1.4-0.9-1.7c-0.5-0.2-0.7-0.3-0.9-0.3L483.7,245.8z
			"/>
		<path class="st3" d="M492.8,245.5l-3.8,8.2l-1.9-0.9l3.8-8.2L492.8,245.5z"/>
		<path class="st3" d="M496.7,257.1c-0.4,0-1.3-0.2-2.2-0.7c-2.8-1.4-3.3-3.8-2.2-6.1c1.4-2.7,4.1-3.3,6.5-2.1
			c0.9,0.5,1.6,1,1.8,1.4l-1.1,1.3c-0.3-0.3-0.7-0.7-1.4-1.1c-1.4-0.7-3-0.4-3.9,1.4c-0.8,1.6-0.4,3.1,1.3,3.9
			c0.5,0.3,1.2,0.5,1.6,0.5L496.7,257.1z"/>
		<path class="st3" d="M503.3,260.8c-0.4,0-1.2-0.3-2.2-0.8c-2.7-1.5-3.2-4-1.9-6.2c1.5-2.7,4.2-3.1,6.6-1.8
			c0.9,0.5,1.5,1.1,1.7,1.4l-1.1,1.2c-0.3-0.4-0.7-0.8-1.3-1.1c-1.4-0.8-3-0.5-3.9,1.2c-0.9,1.6-0.5,3.1,1.1,4
			c0.5,0.3,1.2,0.5,1.6,0.6L503.3,260.8z"/>
		<path class="st3" d="M510.7,255.1l-4.6,7.7l-1.7-1.1l4.6-7.7L510.7,255.1z"/>
		<path class="st3" d="M517,264.4c-1.6,2.5-4.1,3-6.3,1.5c-2.2-1.5-2.4-4-1-6.1c1.5-2.3,4-3,6.2-1.5
			C518.3,259.8,518.4,262.3,517,264.4z M511.5,260.9c-1,1.5-1,3,0.2,3.7c1.1,0.8,2.5,0.1,3.5-1.4c0.9-1.3,1-2.9-0.2-3.7
			C513.9,258.8,512.5,259.5,511.5,260.9z M518.9,257.8l-2.3,0.5l-1.4-0.9l1.8-0.8L518.9,257.8z"/>
		<path class="st3" d="M515.6,269l5.3-7.2l1.9,1.4l-0.4,3.8c-0.1,1.1-0.4,2.3-0.6,3.3l0,0c0.6-1,1.3-2,2.1-3.1l1.6-2.1l1.5,1.1
			l-5.3,7.2l-1.7-1.3l0.5-3.9c0.1-1.1,0.3-2.4,0.6-3.5l0,0c-0.7,1-1.4,2-2.3,3.2l-1.6,2.2L515.6,269z"/>
	</g>
	<g>
		<g>
			<path class="st3" d="M356,319.8l-4.5-7.8l2.1-1.2l3.3,1.9c0.9,0.6,1.9,1.3,2.8,1.9l0,0c-0.7-1-1.3-2-2-3.2l-1.3-2.3l1.6-0.9
				l4.5,7.8l-1.9,1.1l-3.4-2.1c-0.9-0.6-2-1.3-2.9-2l0,0c0.6,1,1.3,2.1,2,3.4l1.3,2.3L356,319.8z"/>
			<path class="st3" d="M361.8,306.4l2.2,4.7c0.7,1.4,1.5,1.9,2.5,1.4c1-0.5,1.2-1.4,0.5-2.8l-2.2-4.7l1.8-0.9l2.1,4.6
				c1.2,2.5,0.5,4.3-1.7,5.3c-2.1,1-3.8,0.4-5-2.2l-2.1-4.5L361.8,306.4z"/>
			<path class="st3" d="M375.5,306.3l-3.1,1.2l0.8,2l3.4-1.3l0.6,1.6l-5.3,2l-3.2-8.4l5.2-2l0.6,1.6l-3.3,1.3l0.7,1.7l3.1-1.2
				L375.5,306.3z"/>
			<path class="st3" d="M377.9,307.3c0.6,0.1,1.5,0.1,2.3-0.1c0.9-0.3,1.2-0.8,1.1-1.4c-0.2-0.5-0.7-0.7-1.8-0.8
				c-1.6-0.1-2.8-0.6-3.1-1.8c-0.5-1.5,0.4-3,2.4-3.6c1-0.3,1.7-0.3,2.3-0.2l0.1,1.7c-0.4-0.1-1.1-0.1-1.9,0.2
				c-0.8,0.3-1.1,0.8-1,1.2c0.2,0.5,0.7,0.6,2,0.7c1.7,0.1,2.6,0.7,3,1.9c0.4,1.4-0.3,3-2.6,3.7c-1,0.3-2,0.4-2.6,0.2L377.9,307.3z"
				/>
			<path class="st3" d="M385.2,299.7l-2.3,0.6l-0.4-1.7l6.7-1.6l0.4,1.7l-2.4,0.6l1.7,7.1l-2,0.5L385.2,299.7z"/>
			<path class="st3" d="M390.7,296.9c0.6-0.2,1.6-0.5,2.6-0.6c1.3-0.2,2.3-0.2,3,0.2c0.6,0.3,1,0.9,1.1,1.7c0.2,1.1-0.5,2-1.2,2.4
				l0,0c0.7,0.1,1.1,0.7,1.5,1.5c0.4,1,0.9,2.1,1.1,2.4l-2,0.3c-0.2-0.2-0.5-0.9-1-2c-0.4-1.1-0.9-1.3-1.7-1.2l-0.6,0.1l0.6,3.5
				l-2,0.3L390.7,296.9z M393.3,300.3l0.8-0.1c1-0.2,1.5-0.8,1.4-1.5c-0.1-0.8-0.8-1.1-1.7-1c-0.5,0.1-0.8,0.2-0.9,0.2L393.3,300.3z
				"/>
			<path class="st3" d="M407.5,299c0.3,2.9-1.3,4.9-4,5.1c-2.7,0.2-4.4-1.6-4.6-4.2c-0.2-2.7,1.3-4.8,3.9-5.1
				C405.5,294.6,407.2,296.5,407.5,299z M401,299.7c0.2,1.8,1.1,2.9,2.4,2.8c1.4-0.1,2-1.5,1.9-3.2c-0.1-1.6-1-2.9-2.4-2.8
				C401.5,296.6,400.8,298,401,299.7z"/>
			<path class="st3" d="M409.1,301.5c0.6,0.3,1.4,0.5,2.3,0.5c0.9,0,1.4-0.4,1.4-1c0-0.6-0.4-0.9-1.5-1.2c-1.5-0.5-2.5-1.3-2.5-2.6
				c0-1.5,1.2-2.7,3.3-2.8c1,0,1.8,0.2,2.3,0.4l-0.4,1.6c-0.4-0.2-1-0.4-1.9-0.4c-0.9,0-1.3,0.4-1.3,0.9c0,0.6,0.5,0.8,1.7,1.2
				c1.6,0.6,2.4,1.4,2.4,2.6c0,1.5-1.1,2.8-3.6,2.9c-1,0-2-0.2-2.6-0.5L409.1,301.5z"/>
			<path class="st3" d="M425.5,303.8c-0.4,0.2-1.2,0.3-2.3,0.2c-3.1-0.2-4.6-2.3-4.4-4.8c0.2-3.1,2.5-4.6,5.2-4.4
				c1.1,0.1,1.8,0.3,2.2,0.6l-0.5,1.6c-0.4-0.2-1-0.4-1.7-0.5c-1.6-0.1-2.9,0.8-3.1,2.8c-0.1,1.8,0.9,3,2.7,3.1c0.6,0,1.3,0,1.7-0.2
				L425.5,303.8z"/>
			<path class="st3" d="M427.9,295.3l2,0.3l-1,7.2l3.5,0.5l-0.2,1.7l-5.6-0.8L427.9,295.3z"/>
			<path class="st3" d="M437,296.7l-1.7,8.8l-2-0.4l1.7-8.8L437,296.7z"/>
			<path class="st3" d="M443.1,303.4l-3.2-0.8l-0.5,2.1l3.6,0.9l-0.4,1.6l-5.6-1.3l2.1-8.7l5.4,1.3l-0.4,1.6l-3.4-0.8l-0.4,1.8
				l3.2,0.8L443.1,303.4z"/>
			<path class="st3" d="M443.8,307.5l2.7-8.6l2.3,0.7l0.8,3.7c0.2,1.1,0.4,2.3,0.5,3.4l0,0c0.2-1.2,0.6-2.3,1-3.6l0.8-2.5l1.8,0.6
				l-2.7,8.6l-2-0.6l-0.8-3.9c-0.2-1.1-0.4-2.4-0.5-3.5l0,0c-0.3,1.1-0.7,2.4-1.1,3.8l-0.8,2.6L443.8,307.5z"/>
			<path class="st3" d="M456.7,304.2l-2.2-0.9l0.6-1.6l6.4,2.6l-0.6,1.6l-2.3-0.9l-2.7,6.8L454,311L456.7,304.2z"/>
			<path class="st3" d="M465.5,311.9l-3-1.4l-0.9,1.9l3.3,1.6l-0.7,1.5l-5.2-2.5l3.9-8.1l5,2.4l-0.7,1.5l-3.2-1.5l-0.8,1.7l3,1.4
				L465.5,311.9z"/>
			<path class="st3" d="M466.4,314.3c0.3,0.5,0.9,1.2,1.7,1.6c0.8,0.5,1.4,0.4,1.7-0.2c0.3-0.5,0.1-1-0.7-1.8
				c-1-1.2-1.5-2.4-0.9-3.5c0.7-1.3,2.4-1.7,4.3-0.7c0.9,0.5,1.4,1,1.8,1.5l-1.2,1.2c-0.2-0.3-0.7-0.9-1.4-1.3
				c-0.8-0.4-1.3-0.3-1.6,0.1c-0.3,0.5,0,1,0.8,1.9c1.1,1.3,1.3,2.4,0.7,3.5c-0.7,1.3-2.4,1.9-4.5,0.7c-0.9-0.5-1.6-1.2-2-1.7
				L466.4,314.3z"/>
		</g>
	</g>
	<g>
		<path class="st2" d="M259.7,582.5l1.8,1.7l-1.2,1.3l-5.1-4.7l1.2-1.3l1.8,1.7l5-5.4l1.5,1.4L259.7,582.5z"/>
		<path class="st2" d="M253,578.5l6.3-6.5l1.5,1.4l-6.3,6.5L253,578.5z"/>
		<path class="st2" d="M251.6,569.7l2.3,2.4l1.5-1.5l-2.6-2.7l1.2-1.2l4.1,4.1l-6.5,6.4l-3.9-4l1.2-1.2l2.5,2.5l1.3-1.3l-2.3-2.4
			L251.6,569.7z"/>
		<path class="st2" d="M253.2,565.8l-6.7,6.1l-1.6-1.8l1.2-3.6c0.3-1,0.8-2.2,1.3-3.2l0,0c-0.8,0.9-1.7,1.8-2.7,2.7l-2,1.8l-1.3-1.4
			l6.7-6.1l1.5,1.6l-1.3,3.8c-0.4,1.1-0.8,2.3-1.3,3.3l0,0c0.9-0.9,1.8-1.7,2.9-2.7l2-1.8L253.2,565.8z"/>
		<path class="st2" d="M240.3,564.9c-0.6-0.5-1.3-1.2-1.9-2c-1.1-1.3-1.6-2.4-1.7-3.5c-0.1-1.2,0.4-2.4,1.6-3.4
			c1.3-1.1,2.7-1.4,3.8-1.2c1.2,0.2,2.5,1.1,3.6,2.5c0.7,0.8,1.1,1.4,1.4,1.9L240.3,564.9z M244.6,558.6c-0.1-0.2-0.3-0.4-0.4-0.6
			c-1.2-1.4-2.8-1.7-4.4-0.3c-1.5,1.2-1.5,2.7-0.4,4.1c0.3,0.4,0.5,0.6,0.7,0.7L244.6,558.6z"/>
		<path class="st2" d="M238.4,552.2l2.2-0.9l1.3,1.7l-8.9,3.4l-1.7-2.1l5.4-7.8l1.4,1.7l-1.4,2L238.4,552.2z M235.7,551.3l-1.2,1.6
			c-0.3,0.5-0.8,1-1.1,1.4l0,0c0.5-0.2,1.1-0.5,1.6-0.7l1.9-0.8L235.7,551.3z"/>
		<path class="st2" d="M234.5,546.8c-0.1-0.6-0.4-1.5-0.9-2.2c-0.6-0.8-1.2-0.9-1.6-0.6c-0.5,0.3-0.5,0.9-0.1,2
			c0.5,1.5,0.4,2.8-0.7,3.6c-1.3,0.9-3,0.6-4.2-1.2c-0.6-0.8-0.9-1.6-1-2.1l1.6-0.6c0.1,0.4,0.2,1.1,0.8,1.8
			c0.5,0.7,1.1,0.8,1.5,0.6c0.5-0.3,0.4-0.9,0-2.1c-0.5-1.6-0.2-2.8,0.8-3.5c1.2-0.9,3-0.7,4.4,1.3c0.6,0.8,1,1.8,1.1,2.4
			L234.5,546.8z"/>
		<path class="st2" d="M229.5,536l-3.1,2l-2.9,5.4l-1.3-2l1.3-2c0.4-0.6,0.7-1,1.1-1.5l0,0c-0.6,0.1-1.1,0.3-1.8,0.4l-2.3,0.4
			l-1.3-1.9l6.1-0.4l3.2-2.1L229.5,536z"/>
		<path class="st2" d="M217.2,533.5c-0.4-0.5-0.9-1.2-1.6-2.3c-0.6-1.1-0.9-2-0.8-2.8c0.1-0.7,0.5-1.5,1.3-1.9s1.6-0.6,2.3-0.4
			c0.9,0.3,1.7,1,2.3,2.1c0.1,0.2,0.2,0.4,0.3,0.6l2.8-1.7l1,1.8L217.2,533.5z M219.7,529.6c-0.1-0.2-0.2-0.4-0.3-0.6
			c-0.6-0.9-1.4-1.2-2.2-0.8c-0.7,0.4-0.9,1.2-0.3,2.1c0.2,0.4,0.4,0.6,0.5,0.7L219.7,529.6z"/>
		<path class="st2" d="M213.2,526.9l-1-1.8l6.5-3.6l-1.7-3.2l1.5-0.8l2.7,5L213.2,526.9z"/>
		<path class="st2" d="M214.9,515.6l2.4-0.5l1,1.9l-9.4,1.6l-1.2-2.4l6.9-6.6l1,2l-1.8,1.7L214.9,515.6z M212.4,514.3l-1.5,1.4
			c-0.4,0.4-0.9,0.8-1.4,1.2l0,0c0.5-0.1,1.2-0.3,1.8-0.4l2-0.4L212.4,514.3z"/>
		<path class="st2" d="M207,511.1l1,2.2l-1.6,0.7l-3-6.3l1.6-0.7l1.1,2.3l6.7-3.1l0.9,1.9L207,511.1z"/>
		<path class="st2" d="M208.8,502.8l2.4-0.3l0.8,2l-9.5,1l-1.1-2.5l7.3-6.2l0.9,2l-1.9,1.6L208.8,502.8z M206.5,501.3l-1.6,1.3
			c-0.4,0.4-1,0.8-1.4,1.1l0,0c0.5-0.1,1.2-0.2,1.8-0.3l2-0.3L206.5,501.3z"/>
		<path class="st2" d="M200,499.3l-2-5.2l1.6-0.6l1.3,3.3l1.9-0.8l-1.2-3l1.6-0.6l1.2,3l3.4-1.3l0.7,1.9L200,499.3z"/>
		<path class="st2" d="M199,483.5c2.8-1,5.1,0.1,6,2.7c0.9,2.6-0.5,4.7-3,5.6c-2.6,0.9-5.1-0.1-6-2.6
			C195.1,486.5,196.6,484.3,199,483.5z M201.2,489.7c1.7-0.6,2.6-1.8,2.1-3.1c-0.5-1.3-2-1.6-3.6-1.1c-1.5,0.5-2.6,1.7-2.1,3.1
			C198,489.9,199.6,490.3,201.2,489.7z"/>
		<path class="st2" d="M194.4,483.5c-0.3-0.6-0.7-1.5-1-2.6c-0.4-1.3-0.5-2.3-0.2-3c0.3-0.6,0.8-1.1,1.6-1.4
			c1.1-0.3,2.1,0.2,2.6,0.9l0,0c0.1-0.7,0.5-1.2,1.3-1.7c0.9-0.6,2-1.2,2.2-1.5l0.6,2c-0.2,0.2-0.9,0.6-1.8,1.2c-1,0.6-1.2,1-1,1.8
			l0.2,0.6l3.4-1l0.6,2L194.4,483.5z M197.6,480.4l-0.2-0.8c-0.3-1-1-1.4-1.7-1.2c-0.8,0.2-1,0.9-0.8,1.8c0.1,0.5,0.3,0.7,0.3,0.9
			L197.6,480.4z"/>
		<path class="st2" d="M195.5,466.9c-1,0.3-2.3,0.7-3.6,1l0,0c1.2,0,2.5,0,3.7,0.1l3.7,0.2l0.4,1.6l-3.2,1.8c-1,0.6-2.1,1.2-3.2,1.7
			l0,0c1.2-0.3,2.6-0.6,3.7-0.8l3.4-0.7l0.5,1.8l-9,1.7l-0.7-2.7l2.7-1.6c0.9-0.5,2-1.1,3-1.6l0,0c-1.1,0-2.3,0-3.4,0l-3.2-0.2
			l-0.7-2.6l8.7-2.7l0.5,1.9L195.5,466.9z"/>
		<path class="st2" d="M195.4,461.2l2.4,0.2l0.4,2.1l-9.5-0.9l-0.6-2.6l8.3-4.6l0.5,2.2l-2.1,1.2L195.4,461.2z M193.4,459.2
			l-1.8,0.9c-0.5,0.3-1.1,0.6-1.6,0.8l0,0c0.6,0,1.3,0,1.8,0.1l2,0.1L193.4,459.2z"/>
		<path class="st2" d="M194.3,454.6c0.2-0.6,0.3-1.5,0.2-2.3c-0.2-0.9-0.6-1.4-1.2-1.3c-0.6,0.1-0.8,0.6-1,1.7
			c-0.3,1.6-0.9,2.7-2.2,2.9c-1.5,0.3-2.9-0.8-3.3-2.9c-0.2-1-0.1-1.8,0.1-2.4l1.7,0.2c-0.1,0.4-0.3,1.1-0.1,1.9s0.6,1.2,1.1,1.2
			c0.6-0.1,0.7-0.6,1-1.9c0.3-1.7,1-2.6,2.3-2.8c1.5-0.3,3,0.7,3.4,3.1c0.2,1,0.1,2.1-0.1,2.6L194.3,454.6z"/>
		<path class="st2" d="M185.9,445.9c-0.2-0.7-0.4-1.7-0.5-2.7c-0.2-1.7,0-2.9,0.5-3.8c0.6-1,1.6-1.7,3.2-1.9c1.7-0.2,3,0.3,3.8,1.1
			c0.9,0.9,1.5,2.3,1.7,4c0.1,1.1,0.2,1.8,0.2,2.3L185.9,445.9z M193,442.9c0-0.2,0-0.5,0-0.7c-0.2-1.9-1.4-2.9-3.5-2.7
			c-1.9,0.2-2.7,1.4-2.5,3.2c0.1,0.5,0.1,0.7,0.2,0.9L193,442.9z"/>
		<path class="st2" d="M184.5,434.4l9.1-0.8l0.2,2.1l-9.1,0.8L184.5,434.4z"/>
		<path class="st2" d="M192.5,424.5c0.3,0.6,0.6,1.8,0.7,3c0.1,1.7-0.2,2.9-1,3.8c-0.7,0.9-1.9,1.4-3.2,1.5c-3,0.2-4.9-1.9-5.1-4.9
			c-0.1-1.2,0.1-2.1,0.3-2.5l1.7,0.3c-0.2,0.5-0.3,1.1-0.3,2.1c0.1,1.7,1.2,2.9,3.1,2.8c1.9-0.1,2.9-1.4,2.8-3c0-0.5-0.1-0.8-0.2-1
			l-1.9,0.1l0.1,1.4l-1.6,0.1l-0.2-3.4L192.5,424.5z"/>
		<path class="st2" d="M183.7,421.2l9.1-0.3l0.1,2.1l-9.1,0.3L183.7,421.2z"/>
		<path class="st2" d="M185.3,417.7l0,2.4l-1.7,0l-0.1-7l1.7,0l0,2.5l7.4-0.1l0,2.1L185.3,417.7z"/>
		<path class="st2" d="M190.4,410.9l2.3,0.7l0,2.1l-9-3l0.1-2.7l9.2-2.6l0,2.2l-2.3,0.7L190.4,410.9z M188.9,408.6l-1.9,0.5
			c-0.5,0.2-1.2,0.3-1.8,0.4l0,0c0.5,0.1,1.2,0.3,1.7,0.5l1.9,0.6L188.9,408.6z"/>
		<path class="st2" d="M183.8,404.1l0.1-2.1l7.4,0.4l0.2-3.6l1.7,0.1l-0.3,5.7L183.8,404.1z"/>
		<path class="st2" d="M189.8,392.4l-0.3,3.3l2.2,0.2l0.3-3.7l1.7,0.1l-0.5,5.8l-9.1-0.8l0.5-5.6l1.7,0.1l-0.3,3.5l1.9,0.2l0.3-3.3
			L189.8,392.4z"/>
		<path class="st2" d="M191.7,390.8c0.3-0.5,0.7-1.3,0.8-2.2c0.1-0.9-0.2-1.5-0.8-1.5c-0.6-0.1-0.9,0.3-1.4,1.4
			c-0.7,1.4-1.6,2.3-3,2.2c-1.5-0.2-2.6-1.6-2.3-3.7c0.1-1,0.4-1.7,0.7-2.3l1.6,0.6c-0.2,0.3-0.5,1-0.6,1.8
			c-0.1,0.9,0.3,1.4,0.7,1.4c0.6,0.1,0.9-0.4,1.5-1.5c0.8-1.5,1.7-2.2,3-2c1.5,0.2,2.7,1.5,2.4,4c-0.1,1-0.5,2-0.8,2.5L191.7,390.8z
			"/>
		<path class="st2" d="M233.6,285.4c-0.1,0.4-0.4,1.2-1,2.1c-1.8,2.6-4.3,2.8-6.5,1.3c-2.6-1.8-2.7-4.6-1.2-6.8
			c0.6-0.9,1.2-1.4,1.6-1.6l1.1,1.3c-0.4,0.2-0.8,0.6-1.3,1.2c-0.9,1.3-0.8,2.9,0.8,4.1c1.5,1,3.1,0.8,4.1-0.7
			c0.4-0.5,0.6-1.2,0.7-1.6L233.6,285.4z"/>
		<path class="st2" d="M233.9,281.5l1.5,1.9l-1.3,1.7l-5.6-7.7l1.6-2.2l9,3.2l-1.3,1.8l-2.3-0.8L233.9,281.5z M234,278.7l-1.9-0.7
			c-0.5-0.2-1.2-0.5-1.7-0.7l0,0c0.4,0.4,0.8,1,1.2,1.4l1.2,1.6L234,278.7z"/>
		<path class="st2" d="M232.6,272.2c0.4-0.7,0.9-1.5,1.6-2.3c1.1-1.3,2-2,3.1-2.3c1.1-0.3,2.4,0,3.6,1c1.4,1.1,1.9,2.3,1.9,3.5
			c0,1.2-0.6,2.6-1.7,4c-0.7,0.8-1.2,1.4-1.6,1.7L232.6,272.2z M239.6,275.2c0.1-0.1,0.3-0.3,0.5-0.5c1.2-1.4,1.2-3-0.5-4.4
			c-1.5-1.2-2.9-1-4,0.4c-0.3,0.4-0.4,0.6-0.5,0.8L239.6,275.2z"/>
		<path class="st2" d="M246,264.1l-2.2,2.5l1.6,1.4l2.5-2.8l1.3,1.1l-3.8,4.4l-6.9-6l3.7-4.2l1.3,1.1l-2.3,2.7l1.4,1.2l2.2-2.5
			L246,264.1z"/>
		<path class="st2" d="M250,265.4l-6.6-6.2l1.6-1.8l3.7,0.9c1.1,0.3,2.3,0.6,3.3,1l0,0c-1-0.7-1.9-1.5-2.9-2.5l-1.9-1.8l1.3-1.4
			l6.6,6.2l-1.5,1.6l-3.9-1c-1.1-0.3-2.3-0.6-3.4-1l0,0c0.9,0.8,1.9,1.6,2.9,2.7l2,1.9L250,265.4z"/>
		<path class="st2" d="M256,255.8l1.2,2.1l-1.5,1.5l-4.4-8.4l1.9-1.9l8.4,4.5l-1.6,1.6l-2.1-1.2L256,255.8z M256.5,253.1l-1.8-1
			c-0.5-0.3-1.1-0.6-1.6-0.9l0,0c0.3,0.5,0.7,1.1,0.9,1.5l1,1.8L256.5,253.1z"/>
		<path class="st2" d="M258.2,244.4c0.5-0.6,1.2-1.3,2-2c1.3-1.1,2.3-1.7,3.4-1.8c1.2-0.1,2.4,0.3,3.4,1.5c1.2,1.3,1.5,2.6,1.3,3.8
			c-0.2,1.2-1,2.5-2.4,3.7c-0.8,0.7-1.4,1.2-1.8,1.5L258.2,244.4z M264.7,248.6c0.2-0.1,0.4-0.3,0.6-0.4c1.4-1.2,1.6-2.8,0.2-4.4
			c-1.2-1.4-2.7-1.4-4.1-0.3c-0.3,0.3-0.5,0.5-0.6,0.7L264.7,248.6z"/>
		<path class="st2" d="M272.8,238.7l-2.6,2.1l1.4,1.7l2.9-2.4l1.1,1.3l-4.5,3.7l-5.8-7l4.3-3.6l1.1,1.3l-2.7,2.3l1.2,1.5l2.6-2.1
			L272.8,238.7z"/>
		<path class="st2" d="M277.3,237.3c0.6-0.1,1.5-0.4,2.2-0.9c0.8-0.6,0.9-1.2,0.6-1.7c-0.3-0.5-0.9-0.5-2-0.1
			c-1.5,0.5-2.8,0.4-3.6-0.6c-0.9-1.2-0.6-3,1.1-4.3c0.8-0.6,1.6-0.9,2.1-1l0.6,1.6c-0.4,0.1-1.1,0.3-1.8,0.8
			c-0.7,0.5-0.8,1.1-0.5,1.5c0.4,0.5,0.9,0.4,2.1,0c1.6-0.5,2.7-0.3,3.5,0.7c0.9,1.2,0.8,3-1.2,4.5c-0.8,0.6-1.8,1-2.4,1.1
			L277.3,237.3z"/>
		<path class="st2" d="M280.5,226.3l3,4.3c0.9,1.3,1.8,1.6,2.7,1c0.9-0.6,0.9-1.6,0-2.9l-3-4.3l1.7-1.2l2.9,4.2
			c1.6,2.3,1.2,4.2-0.7,5.6c-1.9,1.3-3.7,1.1-5.4-1.3l-2.9-4.2L280.5,226.3z"/>
		<path class="st2" d="M295.8,222.7c-0.6-0.9-1.4-2-2.1-3.1l0,0c0.4,1.1,0.8,2.4,1,3.5l1,3.6l-1.4,0.9l-2.7-2.4
			c-0.8-0.7-1.8-1.7-2.6-2.6l0,0c0.6,1.1,1.3,2.3,1.9,3.3l1.7,3l-1.6,1l-4.4-8l2.3-1.5l2.4,2.1c0.8,0.7,1.7,1.5,2.4,2.3l0,0
			c-0.4-1-0.7-2.2-1-3.2l-0.8-3.1l2.3-1.4l5.3,7.4l-1.7,1.1L295.8,222.7z"/>
		<path class="st2" d="M297.9,215l4.6,7.8l-1.8,1.1l-4.6-7.8L297.9,215z"/>
		<path class="st2" d="M303.9,222l-4.4-8l2.1-1.2l3.3,2c0.9,0.6,2,1.3,2.8,2l0,0c-0.7-1-1.3-2-2-3.2l-1.3-2.3l1.7-0.9l4.4,8l-1.9,1
			l-3.4-2.1c-0.9-0.6-2-1.3-2.9-2l0,0c0.6,1,1.3,2.1,2,3.4l1.3,2.4L303.9,222z"/>
		<path class="st2" d="M309.5,208.6l4.2,8.1l-1.8,0.9l-4.2-8.1L309.5,208.6z"/>
		<path class="st2" d="M314.2,214c0.6,0,1.5-0.1,2.3-0.5c0.9-0.4,1.1-1,0.9-1.5c-0.2-0.5-0.8-0.6-1.9-0.5c-1.6,0.2-2.8-0.1-3.4-1.3
			c-0.7-1.4,0-3,1.9-4c0.9-0.4,1.7-0.6,2.3-0.6l0.3,1.7c-0.4,0-1.1,0.1-1.9,0.4c-0.8,0.4-1,0.9-0.8,1.4c0.3,0.5,0.8,0.5,2.1,0.4
			c1.7-0.2,2.8,0.3,3.3,1.4c0.7,1.4,0.2,3.1-2.1,4.1c-0.9,0.5-2,0.7-2.6,0.6L314.2,214z"/>
		<path class="st2" d="M320,205.5l-2.2,1l-0.7-1.6l6.4-2.9l0.7,1.6l-2.3,1l3,6.7l-1.9,0.8L320,205.5z"/>
		<path class="st2" d="M324.5,201.7c0.6-0.3,1.5-0.8,2.5-1.2c1.3-0.5,2.2-0.7,3-0.4c0.7,0.2,1.2,0.7,1.5,1.4c0.4,1.1,0,2.1-0.6,2.7
			l0,0c0.7,0,1.2,0.4,1.8,1.1c0.6,0.8,1.4,1.8,1.7,2.1l-2,0.8c-0.2-0.2-0.7-0.8-1.4-1.7c-0.7-1-1.1-1.1-1.9-0.8l-0.6,0.2l1.4,3.3
			l-1.9,0.8L324.5,201.7z M327.9,204.6l0.8-0.3c1-0.4,1.3-1.1,1-1.8c-0.3-0.8-1-0.9-1.9-0.6c-0.5,0.2-0.7,0.3-0.8,0.4L327.9,204.6z"
			/>
		<path class="st2" d="M341.2,200c1,2.8-0.1,5.1-2.6,6c-2.5,0.9-4.7-0.5-5.6-2.9c-0.9-2.6,0-5.1,2.5-6
			C338.2,196.2,340.4,197.6,341.2,200z M335.1,202.3c0.6,1.7,1.8,2.6,3.1,2.1c1.3-0.5,1.6-2,1-3.7c-0.6-1.5-1.8-2.6-3.1-2.1
			C334.8,199.2,334.5,200.7,335.1,202.3z"/>
		<path class="st2" d="M491.6,206.7l3.4-8.5l2.2,0.9l0.5,3.8c0.1,1.1,0.2,2.3,0.2,3.4l0,0c0.3-1.2,0.7-2.3,1.2-3.6l1-2.5l1.8,0.7
			l-3.4,8.5l-2-0.8l-0.5-4c-0.1-1.1-0.3-2.4-0.3-3.6l0,0c-0.4,1.1-0.8,2.3-1.4,3.7l-1,2.5L491.6,206.7z"/>
		<path class="st2" d="M505.5,202.6l-2.1,4.8c-0.6,1.4-0.4,2.4,0.5,2.8c1,0.4,1.8,0,2.5-1.5l2.1-4.8l1.9,0.8l-2.1,4.7
			c-1.1,2.6-3,3.2-5.2,2.3c-2.1-0.9-2.8-2.6-1.6-5.3l2.1-4.6L505.5,202.6z"/>
		<path class="st2" d="M514.7,212.7l-3-1.5l-0.9,1.9l3.4,1.6l-0.7,1.5l-5.2-2.5l4-8.2l5,2.5l-0.7,1.5l-3.2-1.6l-0.8,1.7l3,1.5
			L514.7,212.7z"/>
		<path class="st2" d="M515.4,215c0.4,0.5,1,1.2,1.8,1.6c0.8,0.4,1.5,0.3,1.7-0.2c0.3-0.5,0-1-0.8-1.8c-1.1-1.2-1.6-2.4-1-3.5
			c0.7-1.4,2.4-1.8,4.3-0.8c0.9,0.5,1.5,1,1.8,1.5l-1.2,1.3c-0.2-0.3-0.7-0.9-1.5-1.3c-0.8-0.4-1.4-0.3-1.6,0.2
			c-0.3,0.5,0.1,1,0.9,1.9c1.1,1.3,1.4,2.4,0.8,3.5c-0.7,1.4-2.4,1.9-4.6,0.8c-0.9-0.5-1.7-1.2-2-1.7L515.4,215z"/>
		<path class="st2" d="M525.7,214.6l-2.1-1.2l0.9-1.5l6.1,3.5l-0.9,1.5l-2.2-1.2l-3.6,6.4l-1.8-1L525.7,214.6z"/>
		<path class="st2" d="M531.4,216c0.6,0.3,1.5,0.7,2.4,1.3c1.2,0.7,1.8,1.4,2.1,2.1c0.2,0.7,0.2,1.3-0.3,2.1c-0.6,1-1.7,1.2-2.5,1.1
			l0,0c0.4,0.6,0.4,1.3,0.1,2.1c-0.3,1-0.7,2.2-0.7,2.6l-1.8-1.1c0-0.3,0.2-1,0.6-2.1c0.4-1.1,0.2-1.6-0.5-2l-0.5-0.3l-1.9,3
			l-1.7-1.1L531.4,216z M531.1,220.4l0.7,0.4c0.9,0.5,1.7,0.4,2.1-0.3c0.4-0.7,0.2-1.4-0.6-1.9c-0.4-0.3-0.7-0.4-0.8-0.4
			L531.1,220.4z"/>
		<path class="st2" d="M542.7,228.4c-1.7,2.5-4.2,3-6.4,1.5c-2.2-1.5-2.4-4.1-1-6.2c1.5-2.3,4.1-3,6.3-1.5
			C544,223.7,544.1,226.3,542.7,228.4z M537.1,224.8c-1,1.5-1,3,0.2,3.8c1.2,0.8,2.6,0.1,3.5-1.4c0.9-1.4,1-3-0.1-3.7
			C539.5,222.7,538.1,223.4,537.1,224.8z"/>
		<path class="st2" d="M549,229.6l-2-1.5l1-1.4l5.6,4.2l-1,1.4l-2-1.5l-4.4,5.9l-1.7-1.2L549,229.6z"/>
		<path class="st2" d="M551.3,237.7l-2,1.4l-1.7-1.3l7.8-5.4l2.1,1.7l-3.4,8.9l-1.7-1.4l0.9-2.3L551.3,237.7z M554.1,237.9l0.8-1.9
			c0.2-0.5,0.5-1.2,0.7-1.7l0,0c-0.4,0.3-1,0.8-1.4,1.1l-1.6,1.2L554.1,237.9z"/>
		<path class="st2" d="M560.7,236.5l1.6,1.3l-4.8,5.6l2.8,2.3l-1.1,1.3l-4.3-3.7L560.7,236.5z"/>
		<path class="st2" d="M566.4,248.5l-2.5-2.2l-1.4,1.6l2.8,2.5l-1.1,1.3l-4.3-3.9l6.1-6.8l4.2,3.8l-1.1,1.3l-2.6-2.4L565,245
			l2.5,2.2L566.4,248.5z"/>
		<path class="st2" d="M565,252.4l6.3-6.5l1.7,1.7l-1,3.7c-0.3,1.1-0.7,2.3-1.1,3.3l0,0c0.7-1,1.6-1.9,2.5-2.8l1.9-1.9l1.4,1.3
			l-6.3,6.5l-1.6-1.5l1-3.9c0.3-1.1,0.7-2.3,1.1-3.4l0,0c-0.8,0.9-1.7,1.8-2.7,2.9l-1.9,2L565,252.4z"/>
		<path class="st2" d="M578,254.9l-1.7-1.8l1.2-1.2l4.8,5l-1.2,1.2l-1.7-1.8l-5.3,5.1l-1.4-1.5L578,254.9z"/>
		<path class="st2" d="M585.3,266.8c-2.2,2-4.8,1.8-6.6-0.1c-1.8-2-1.3-4.6,0.6-6.3c2-1.8,4.7-1.9,6.5,0.1
			C587.7,262.6,587.1,265.2,585.3,266.8z M580.8,262c-1.3,1.2-1.7,2.6-0.8,3.7c0.9,1,2.4,0.7,3.8-0.4c1.2-1.1,1.7-2.6,0.8-3.7
			C583.6,260.6,582.1,260.8,580.8,262z"/>
		<path class="st2" d="M644.1,417.1c0.1,0.8,0.1,1.7,0.1,2.8c-0.1,1.7-0.4,2.8-1.1,3.7c-0.7,0.9-1.9,1.5-3.5,1.4
			c-1.7-0.1-2.9-0.7-3.6-1.6c-0.8-1-1.1-2.4-1.1-4.2c0-1.1,0.1-1.8,0.2-2.3L644.1,417.1z M636.6,418.9c0,0.2-0.1,0.5-0.1,0.7
			c-0.1,1.9,0.9,3.1,3.1,3.2c1.9,0.1,2.9-1,3-2.8c0-0.5,0-0.8-0.1-0.9L636.6,418.9z"/>
		<path class="st2" d="M637,427.8l-2.3-0.8l0.1-2.1l8.9,3.4l-0.2,2.7l-9.3,2.2l0.2-2.2l2.4-0.5L637,427.8z M638.4,430.2l2-0.4
			c0.5-0.1,1.2-0.2,1.8-0.3l0,0c-0.5-0.2-1.2-0.4-1.7-0.5l-1.9-0.7L638.4,430.2z"/>
		<path class="st2" d="M641.5,435.7l0.2-2.4l1.7,0.2l-0.7,7l-1.7-0.2l0.2-2.5l-7.3-0.7l0.2-2.1L641.5,435.7z"/>
		<path class="st2" d="M637.1,449c-3-0.4-4.5-2.4-4.1-5.1c0.4-2.7,2.6-4,5.2-3.6c2.7,0.4,4.5,2.4,4.1,5
			C641.9,448.1,639.6,449.4,637.1,449z M637.9,442.5c-1.8-0.2-3.1,0.4-3.3,1.8c-0.2,1.4,1,2.3,2.8,2.6c1.6,0.2,3.1-0.4,3.3-1.8
			C640.8,443.7,639.6,442.7,637.9,442.5z"/>
		<path class="st2" d="M634.4,449.7c-0.4,0.5-0.8,1.3-1,2.2c-0.2,0.9,0.1,1.5,0.7,1.6c0.6,0.1,1-0.3,1.5-1.3c0.8-1.4,1.8-2.2,3.1-2
			c1.5,0.3,2.5,1.7,2.1,3.9c-0.2,1-0.5,1.7-0.9,2.2l-1.6-0.7c0.2-0.3,0.6-0.9,0.8-1.8c0.2-0.9-0.2-1.4-0.6-1.5
			c-0.6-0.1-0.9,0.4-1.6,1.4c-0.9,1.5-1.8,2.1-3.1,1.9c-1.5-0.3-2.6-1.6-2.1-4.1c0.2-1,0.6-2,1-2.4L634.4,449.7z"/>
		<path class="st2" d="M630.1,460.9l3.6,0.8l5.9-1.6l-0.5,2.3l-2.3,0.4c-0.7,0.1-1.2,0.2-1.9,0.3l0,0c0.5,0.3,1,0.6,1.6,1.1l1.9,1.4
			l-0.5,2.3l-4.5-4.1l-3.7-0.8L630.1,460.9z"/>
		<path class="st2" d="M634.8,472.7l0.6-2.4l1.7,0.5l-1.8,6.8l-1.7-0.5l0.7-2.4l-7.1-1.9l0.5-2L634.8,472.7z"/>
		<path class="st2" d="M628.4,482.2l1-3.2l-2.1-0.6l-1.1,3.6l-1.6-0.5l1.7-5.6l8.7,2.7l-1.6,5.4l-1.6-0.5l1-3.4l-1.8-0.6l-1,3.2
			L628.4,482.2z"/>
		<path class="st2" d="M622.3,488.9c-0.1-0.4,0-1.3,0.4-2.3c1-3,3.4-3.9,5.8-3c2.9,1,3.9,3.7,3,6.3c-0.3,1-0.8,1.7-1.1,2l-1.4-0.9
			c0.3-0.3,0.6-0.8,0.9-1.5c0.5-1.5,0-3.1-1.9-3.7c-1.7-0.6-3.2,0.1-3.8,1.8c-0.2,0.6-0.3,1.3-0.3,1.7L622.3,488.9z"/>
		<path class="st2" d="M621.8,489.8l8.5,3.3l-0.9,2.2l-3.8,0.6c-1.1,0.2-2.3,0.3-3.4,0.3l0,0c1.2,0.3,2.3,0.7,3.6,1.2l2.5,1
			l-0.7,1.8l-8.5-3.3l0.8-2l4-0.6c1.1-0.2,2.4-0.3,3.6-0.3l0,0c-1.1-0.4-2.3-0.8-3.7-1.4l-2.6-1L621.8,489.8z"/>
		<path class="st2" d="M619.4,507.7c-2.7-1.2-3.7-3.6-2.6-6c1.1-2.5,3.6-3.1,6-2.1c2.5,1.1,3.7,3.5,2.6,6
			C624.2,508.1,621.7,508.7,619.4,507.7z M621.9,501.6c-1.6-0.7-3.1-0.4-3.7,0.8c-0.6,1.3,0.3,2.5,2,3.2c1.5,0.7,3.1,0.5,3.7-0.8
			C624.4,503.6,623.5,502.3,621.9,501.6z"/>
		<path class="st2" d="M622.9,510.8l-0.9,1.9l-6.6-3.2l-1.6,3.3l-1.6-0.7l2.5-5.1L622.9,510.8z"/>
		<path class="st2" d="M612.2,522.1c-2.6-1.4-3.4-3.8-2.2-6.2c1.3-2.4,3.8-2.8,6.1-1.6c2.4,1.3,3.4,3.8,2.2,6.1
			C616.9,522.9,614.4,523.3,612.2,522.1z M615.1,516.2c-1.6-0.8-3.1-0.7-3.7,0.6c-0.6,1.2,0.2,2.6,1.7,3.4c1.4,0.8,3.1,0.7,3.7-0.5
			C617.5,518.4,616.7,517.1,615.1,516.2z"/>
		<path class="st2" d="M604.1,527.7c0.1-0.7,0.5-1.8,1.1-2.9c0.8-1.4,1.8-2.3,2.9-2.6c1.1-0.3,2.4-0.1,3.5,0.5
			c2.6,1.5,3,4.3,1.5,6.9c-0.6,1-1.2,1.7-1.6,2l-1.2-1.2c0.4-0.3,0.9-0.8,1.4-1.6c0.9-1.5,0.7-3.1-1-4.1c-1.6-0.9-3.2-0.5-4,1
			c-0.2,0.4-0.4,0.8-0.4,0.9l1.6,1l0.7-1.2l1.4,0.8l-1.7,2.9L604.1,527.7z"/>
		<path class="st2" d="M609.6,535.2l-7.7-4.8l1.1-1.8l7.7,4.8L609.6,535.2z M610.8,537.4l-0.5-2.3l0.9-1.4l0.8,1.8L610.8,537.4z"/>
		<path class="st2" d="M601.9,534.8l-1.6-1.8l1.2-1.8l6.1,7.3l-1.5,2.3l-9.2-2.6l1.2-1.9l2.3,0.7L601.9,534.8z M601.9,537.6l1.9,0.6
			c0.5,0.2,1.2,0.4,1.7,0.6l0,0c-0.4-0.4-0.9-0.9-1.2-1.3l-1.3-1.5L601.9,537.6z"/>
	</g>
	<g>
		<path class="st2" d="M340.2,632.2c-0.7,0-1.9-0.1-3-0.5c-1.6-0.6-2.6-1.4-3.1-2.4c-0.5-1-0.6-2.3-0.1-3.5c1-2.8,3.7-3.7,6.5-2.7
			c1.1,0.4,1.9,0.9,2.2,1.3l-1,1.4c-0.4-0.4-0.9-0.7-1.9-1.1c-1.6-0.6-3.2-0.1-3.8,1.8c-0.6,1.8,0.1,3.2,1.7,3.8
			c0.4,0.2,0.8,0.2,1,0.2l0.6-1.8l-1.3-0.5l0.5-1.5l3.2,1.1L340.2,632.2z"/>
		<path class="st2" d="M351.2,631.2c-0.9,2.8-3.1,4-5.7,3.3c-2.6-0.8-3.5-3.2-2.7-5.7c0.8-2.6,3.1-4,5.6-3.2
			C351.1,626.4,351.9,628.8,351.2,631.2z M344.8,629.4c-0.5,1.7-0.1,3.1,1.2,3.6c1.3,0.4,2.5-0.6,3-2.3c0.5-1.6,0.2-3.1-1.2-3.6
			C346.5,626.7,345.4,627.7,344.8,629.4z"/>
		<path class="st2" d="M353.6,627.4c0.5,0,1.6,0.2,2.6,0.5c1.2,0.3,1.9,0.6,2.5,1.2c0.5,0.5,0.8,1.2,0.6,2c-0.2,0.8-0.9,1.4-1.9,1.5
			l0,0c0.9,0.5,1.5,1.5,1.2,2.6c-0.2,0.8-0.7,1.3-1.4,1.6c-0.8,0.3-1.9,0.3-3.7-0.1c-1-0.3-1.7-0.5-2.1-0.7L353.6,627.4z
			 M353.6,635.2c0.2,0.1,0.4,0.1,0.8,0.2c0.9,0.2,1.8,0.1,2-0.8c0.2-0.9-0.5-1.5-1.5-1.7l-0.7-0.2L353.6,635.2z M354.7,631.3
			l0.7,0.2c1,0.3,1.7,0,1.9-0.7c0.2-0.7-0.2-1.2-1.1-1.4c-0.4-0.1-0.7-0.2-0.9-0.2L354.7,631.3z"/>
		<path class="st2" d="M363.4,629.7l-2.1,8.9l-2-0.5l2.1-8.9L363.4,629.7z"/>
		<path class="st2" d="M369.1,636.4l-3.3-0.7l-0.5,2.1l3.7,0.8l-0.4,1.6L363,639l1.9-8.9l5.5,1.2l-0.4,1.6l-3.5-0.7l-0.4,1.8
			l3.3,0.7L369.1,636.4z"/>
		<path class="st2" d="M371.8,631.7c0.7,0,1.7,0.1,2.7,0.3c1.3,0.2,2.2,0.6,2.8,1.2c0.5,0.5,0.6,1.2,0.5,2c-0.2,1.1-1.2,1.8-2,1.9
			l0,0c0.6,0.4,0.8,1,0.9,1.9c0.1,1.1,0.2,2.3,0.3,2.7l-2.1-0.4c-0.1-0.3-0.2-1-0.3-2.2c0-1.2-0.4-1.5-1.2-1.7l-0.6-0.1l-0.6,3.5
			l-2-0.4L371.8,631.7z M373.1,635.9l0.8,0.1c1,0.2,1.7-0.2,1.8-1c0.1-0.8-0.3-1.3-1.3-1.5c-0.5-0.1-0.8-0.1-0.9-0.1L373.1,635.9z"
			/>
		<path class="st2" d="M378.3,641.9l1.3-9l2.4,0.3l1.4,3.6c0.4,1,0.8,2.2,1,3.3l0,0c0-1.2,0.2-2.4,0.3-3.8l0.4-2.6l1.9,0.3l-1.3,9
			l-2.1-0.3l-1.4-3.7c-0.4-1-0.8-2.3-1.1-3.4l0,0c-0.1,1.2-0.3,2.5-0.5,3.9l-0.4,2.7L378.3,641.9z"/>
		<path class="st2" d="M396.4,639.4c-0.3,3-2.3,4.6-4.9,4.3c-2.7-0.3-4.1-2.4-3.8-5c0.3-2.7,2.2-4.6,4.9-4.3
			C395.3,634.7,396.6,636.9,396.4,639.4z M389.8,638.9c-0.2,1.8,0.5,3.1,1.9,3.2c1.4,0.1,2.3-1.1,2.5-2.9c0.2-1.6-0.5-3.1-1.9-3.2
			C390.9,635.9,390,637.1,389.8,638.9z"/>
		<path class="st2" d="M406.9,644.3c-0.4,0.2-1.2,0.3-2.4,0.3c-3.1-0.1-4.7-2.2-4.6-4.8c0.1-3.1,2.4-4.7,5.2-4.6
			c1.1,0,1.9,0.3,2.2,0.5l-0.5,1.6c-0.4-0.2-1-0.4-1.7-0.4c-1.6-0.1-2.9,0.9-3,2.9c-0.1,1.8,0.9,3,2.8,3.1c0.6,0,1.3-0.1,1.7-0.2
			L406.9,644.3z"/>
		<path class="st2" d="M416.3,640c0,3-1.9,4.8-4.5,4.8c-2.7,0-4.3-2.1-4.2-4.7c0-2.7,1.8-4.8,4.5-4.7
			C414.8,635.4,416.3,637.5,416.3,640z M409.7,640.1c0,1.8,0.8,3,2.2,3.1c1.4,0,2.2-1.3,2.2-3.1c0-1.6-0.8-3-2.2-3.1
			C410.6,637,409.8,638.3,409.7,640.1z"/>
		<path class="st2" d="M417.6,635.7c0.7-0.1,1.6-0.2,2.7-0.3c1.3,0,2.3,0.1,3,0.6c0.6,0.4,0.9,1,0.9,1.9c0,1.2-0.8,2-1.5,2.3l0,0
			c0.6,0.2,1,0.8,1.3,1.7c0.3,1,0.6,2.2,0.8,2.5l-2.1,0.1c-0.2-0.3-0.4-1-0.7-2.1c-0.3-1.1-0.7-1.4-1.5-1.4l-0.6,0l0.1,3.6l-2,0.1
			L417.6,635.7z M419.7,639.5l0.8,0c1,0,1.6-0.6,1.6-1.4c0-0.8-0.6-1.2-1.5-1.2c-0.5,0-0.8,0.1-0.9,0.1L419.7,639.5z"/>
		<path class="st2" d="M425.4,635.4c0.6-0.1,1.5-0.3,2.8-0.4c1.3-0.1,2.2,0.1,2.8,0.5c0.6,0.4,1,1.2,1.1,2c0.1,0.9-0.2,1.7-0.7,2.2
			c-0.7,0.7-1.7,1.1-2.9,1.1c-0.3,0-0.5,0-0.7,0l0.2,3.2l-2,0.1L425.4,635.4z M427.7,639.4c0.2,0,0.4,0,0.7,0
			c1.1-0.1,1.7-0.7,1.7-1.6c-0.1-0.8-0.7-1.3-1.7-1.2c-0.4,0-0.7,0.1-0.8,0.1L427.7,639.4z"/>
		<path class="st2" d="M441.7,638.4c0.3,3-1.3,5-4,5.2c-2.7,0.3-4.5-1.6-4.7-4.2c-0.3-2.7,1.2-4.9,3.9-5.2
			C439.7,633.9,441.4,635.9,441.7,638.4z M435.1,639.2c0.2,1.8,1.1,2.9,2.5,2.8c1.4-0.1,2-1.5,1.9-3.3c-0.2-1.6-1.1-2.9-2.5-2.8
			C435.6,636,435,637.4,435.1,639.2z"/>
		<path class="st2" d="M442.3,633.9c0.6-0.2,1.6-0.4,2.7-0.6c1.3-0.2,2.3-0.1,3,0.3c0.6,0.4,1,0.9,1.1,1.8c0.2,1.1-0.5,2.1-1.3,2.4
			l0,0c0.7,0.2,1.1,0.7,1.4,1.5c0.4,1,0.9,2.1,1.1,2.4l-2.1,0.3c-0.2-0.2-0.5-0.9-0.9-2c-0.4-1.1-0.8-1.3-1.7-1.2l-0.6,0.1l0.5,3.5
			l-2,0.3L442.3,633.9z M444.9,637.5l0.8-0.1c1-0.1,1.5-0.7,1.4-1.5c-0.1-0.8-0.7-1.2-1.7-1c-0.5,0.1-0.8,0.2-0.9,0.2L444.9,637.5z"
			/>
		<path class="st2" d="M453.5,638.9l-0.2,2.4l-2.1,0.4l1.1-9.5l2.7-0.5l4.4,8.5l-2.2,0.4l-1.1-2.2L453.5,638.9z M455.5,637l-0.9-1.8
			c-0.3-0.5-0.5-1.1-0.8-1.6l0,0c0,0.6,0,1.3-0.1,1.8l-0.2,2L455.5,637z"/>
		<path class="st2" d="M459.9,632.5l-2.4,0.5l-0.4-1.7l6.8-1.5l0.4,1.7l-2.4,0.5l1.5,7.2l-2,0.4L459.9,632.5z"/>
		<path class="st2" d="M466.8,629.2l2.1,8.8l-2,0.5l-2.1-8.8L466.8,629.2z"/>
		<path class="st2" d="M472.8,637l-5.2-8l2.2-0.6l2.1,3.4c0.6,1,1.1,1.9,1.6,2.9l0,0c-0.1-1.1-0.1-2.2,0-3.3l0.1-4.1l2.1-0.6
			l-0.6,9.6L472.8,637z"/>
		<path class="st2" d="M485.4,628.5c0.9,2.8-0.3,5.1-2.8,5.9c-2.6,0.8-4.7-0.7-5.5-3.1c-0.8-2.6,0.2-5.1,2.8-5.9
			C482.5,624.5,484.6,626.1,485.4,628.5z M479.1,630.6c0.5,1.7,1.7,2.7,3,2.2c1.3-0.4,1.7-1.9,1.2-3.6c-0.5-1.6-1.7-2.7-3-2.2
			C479,627.4,478.6,628.9,479.1,630.6z"/>
	</g>
	<g>
		<g>
			<path class="st4" d="M637.9,228.3c-5.3,0-10.5-2.1-14.4-6.3c-49.7-54.3-117.4-86.9-190.6-91.7c-10.7-0.7-18.9-10-18.2-20.7
				c0.7-10.7,10-18.9,20.7-18.2c83.3,5.5,160.3,42.5,216.8,104.3c7.3,7.9,6.7,20.3-1.2,27.5C647.3,226.6,642.6,228.3,637.9,228.3z"
				/>
			<path class="st5" d="M713.9,479.6c-1,0-2-0.1-3-0.2c-10.6-1.6-17.9-11.6-16.3-22.2c2.2-14.3,3.3-29,3.3-43.6
				c0-58-17.4-113.8-50.2-161.3c-6.1-8.9-3.9-21,4.9-27.1c8.9-6.1,21-3.9,27.1,4.9c37.4,54.1,57.2,117.5,57.2,183.5
				c0,16.6-1.3,33.2-3.8,49.5C731.6,472.7,723.3,479.6,713.9,479.6z"/>
			<path class="st6" d="M563.9,697c-6.8,0-13.4-3.5-17-9.9c-5.3-9.4-2.1-21.3,7.3-26.6c31.3-17.8,58.6-41.1,81.2-69.2
				c22.8-28.4,39.7-60.4,50.3-95.1c3.1-10.3,14-16.1,24.3-13c10.3,3.1,16.1,14,13,24.3c-12,39.5-31.2,75.9-57.2,108.2
				c-25.7,32-56.7,58.4-92.3,78.7C570.5,696.1,567.2,697,563.9,697z"/>
			<path class="st7" d="M413.9,736.5c-41.1,0-81.2-7.6-119.1-22.7c-10-4-14.9-15.3-10.9-25.3c4-10,15.3-14.9,25.3-10.9
				c33.3,13.2,68.5,19.9,104.7,19.9c36.2,0,71.5-6.7,104.9-20c10-4,21.3,0.9,25.3,10.9c4,10-0.9,21.3-10.9,25.3
				C495.3,728.9,455.1,736.5,413.9,736.5z"/>
			<path class="st8" d="M263.6,696.8c-3.3,0-6.6-0.8-9.6-2.6c-35.5-20.3-66.5-46.7-92.1-78.7c-25.9-32.3-45.1-68.7-57.1-108.1
				c-3.1-10.3,2.7-21.2,13-24.3c10.3-3.1,21.2,2.7,24.3,13c10.5,34.7,27.4,66.6,50.2,95c22.6,28.1,49.8,51.4,81,69.2
				c9.4,5.3,12.6,17.2,7.3,26.6C277,693.3,270.4,696.8,263.6,696.8z"/>
			<path class="st9" d="M114.1,480.6c-9.4,0-17.7-6.9-19.2-16.5c-2.6-16.6-3.9-33.6-3.9-50.5c0-65.7,19.6-129,56.8-183
				c6.1-8.9,18.2-11.1,27.1-5c8.9,6.1,11.1,18.2,5,27.1c-32.6,47.4-49.9,103-49.9,160.8c0,14.9,1.2,29.9,3.5,44.5
				c1.7,10.6-5.6,20.6-16.2,22.3C116.1,480.5,115.1,480.6,114.1,480.6z"/>
			<path class="st10" d="M189.6,228.6c-4.7,0-9.4-1.7-13.1-5.1c-8-7.3-8.5-19.6-1.3-27.5c56.4-61.9,133.4-99,216.7-104.7
				c10.7-0.7,20,7.4,20.8,18.1c0.7,10.7-7.4,20-18.1,20.8c-73.2,4.9-140.9,37.6-190.5,92C200.2,226.5,194.9,228.6,189.6,228.6z"/>
		</g>
		<g>
			<path class="st3" d="M521.8,133.6c-0.4,0-1.3-0.1-2.4-0.5c-3.1-1.1-3.9-3.6-3-6.2c1.1-3,3.9-3.9,6.6-2.9c1,0.4,1.7,0.9,2,1.2
				l-1,1.4c-0.3-0.3-0.8-0.7-1.6-1c-1.6-0.6-3.2-0.1-3.9,1.9c-0.7,1.8,0,3.3,1.8,3.9c0.6,0.2,1.3,0.3,1.8,0.3L521.8,133.6z"/>
			<path class="st3" d="M526.4,125.6l2,0.8l-2.9,7.1l3.5,1.4l-0.7,1.7l-5.5-2.2L526.4,125.6z"/>
			<path class="st3" d="M535.1,129.2l-3.7,8.7l-2-0.8l3.7-8.7L535.1,129.2z"/>
			<path class="st3" d="M539.9,137.3l-3.2-1.4l-0.9,2l3.5,1.6l-0.7,1.6l-5.5-2.5l3.9-8.6l5.3,2.4l-0.7,1.6l-3.4-1.5l-0.8,1.8
				l3.2,1.4L539.9,137.3z"/>
			<path class="st3" d="M539.8,141.7l4.1-8.5l2.2,1.1l0.3,4c0.1,1.1,0.1,2.4,0,3.6l0,0c0.4-1.2,0.9-2.3,1.6-3.6l1.2-2.5l1.8,0.9
				l-4.1,8.5l-2-1l-0.2-4.2c-0.1-1.2-0.1-2.5,0-3.7l0,0c-0.5,1.1-1.1,2.4-1.7,3.7l-1.2,2.6L539.8,141.7z"/>
			<path class="st3" d="M553.6,140l-2.2-1.2l0.8-1.6l6.4,3.4l-0.8,1.6l-2.3-1.2l-3.5,6.8l-1.9-1L553.6,140z"/>
			<path class="st3" d="M562,148.7l-3-1.7l-1.1,2l3.4,1.9l-0.8,1.5l-5.3-2.9l4.6-8.2l5.1,2.8l-0.8,1.5l-3.2-1.8l-1,1.7l3,1.7
				L562,148.7z"/>
			<path class="st3" d="M562.8,151.2c0.3,0.5,1,1.2,1.7,1.7c0.8,0.5,1.5,0.4,1.8-0.1c0.3-0.5,0.1-1-0.7-1.9
				c-1.1-1.3-1.5-2.5-0.8-3.7c0.8-1.4,2.6-1.8,4.5-0.6c0.9,0.5,1.5,1.1,1.8,1.6l-1.3,1.2c-0.2-0.3-0.7-0.9-1.5-1.4
				c-0.8-0.5-1.4-0.3-1.6,0.1c-0.3,0.5,0,1,0.8,2c1.1,1.4,1.4,2.5,0.7,3.7c-0.8,1.4-2.5,1.9-4.8,0.6c-0.9-0.5-1.7-1.3-2-1.9
				L562.8,151.2z"/>
		</g>
		<g>
			<path class="st3" d="M695.7,309.9l-2.5,0.2l-0.7-2.1l9.9-0.4l0.9,2.6l-7.9,5.9l-0.8-2.2l2-1.5L695.7,309.9z M698,311.7l1.7-1.2
				c0.5-0.3,1.1-0.7,1.6-1.1l0,0c-0.6,0.1-1.3,0.2-1.9,0.2l-2.1,0.1L698,311.7z"/>
			<path class="st3" d="M697.8,316.7c-0.1,0.6-0.1,1.6,0.2,2.4c0.3,0.9,0.8,1.3,1.4,1.1c0.6-0.2,0.7-0.7,0.8-1.9
				c0-1.7,0.6-2.9,1.9-3.3c1.5-0.5,3.1,0.4,3.8,2.5c0.3,1,0.3,1.8,0.3,2.4l-1.8,0.1c0.1-0.4,0.1-1.1-0.2-2c-0.3-0.9-0.8-1.2-1.3-1
				c-0.6,0.2-0.7,0.8-0.7,2.1c-0.1,1.8-0.7,2.8-1.9,3.2c-1.5,0.5-3.2-0.3-3.9-2.7c-0.3-1-0.4-2.1-0.3-2.7L697.8,316.7z"/>
			<path class="st3" d="M705,331.4c-3,0.9-5.3-0.4-6.1-3.1c-0.8-2.7,0.8-4.8,3.4-5.6c2.7-0.8,5.2,0.4,6,3.1
				C709.1,328.6,707.5,330.7,705,331.4z M703,324.9c-1.8,0.5-2.8,1.7-2.4,3.1c0.4,1.4,1.9,1.8,3.7,1.3c1.6-0.5,2.8-1.6,2.4-3.1
				C706.3,324.8,704.7,324.4,703,324.9z"/>
			<path class="st3" d="M702.6,340.7c-0.3-0.3-0.7-1.1-1-2.2c-0.8-3.2,0.7-5.3,3.4-6c3.1-0.8,5.4,1,6.1,3.8c0.3,1.1,0.3,1.9,0.2,2.4
				l-1.7,0c0.1-0.5,0.1-1.1-0.1-1.8c-0.4-1.6-1.7-2.7-3.8-2.1c-1.8,0.5-2.7,1.8-2.2,3.7c0.2,0.6,0.5,1.3,0.7,1.6L702.6,340.7z"/>
			<path class="st3" d="M712.3,342l-9.2,2.1l-0.5-2.1l9.2-2.1L712.3,342z"/>
			<path class="st3" d="M706.4,347.5l-2.5-0.2l-0.5-2.2l9.8,0.9l0.6,2.7l-8.6,4.8l-0.5-2.2l2.2-1.2L706.4,347.5z M708.4,349.5l1.8-1
				c0.5-0.3,1.2-0.6,1.7-0.8l0,0c-0.6,0-1.3,0-1.9-0.1l-2.1-0.1L708.4,349.5z"/>
			<path class="st3" d="M714.6,353.2c0.3,0.8,0.5,1.7,0.7,2.8c0.3,1.8,0.2,3-0.3,4c-0.5,1.1-1.6,1.9-3.2,2.2c-1.8,0.3-3.1-0.1-4-0.9
				c-1-0.8-1.6-2.3-2-4.1c-0.2-1.1-0.3-1.9-0.3-2.4L714.6,353.2z M707.3,356.6c0,0.2,0,0.5,0.1,0.7c0.3,1.9,1.6,3,3.8,2.6
				c1.9-0.3,2.8-1.6,2.4-3.4c-0.1-0.5-0.2-0.8-0.3-0.9L707.3,356.6z"/>
			<path class="st3" d="M713,372.2c-3.1,0.4-5.2-1.2-5.6-3.9c-0.4-2.8,1.5-4.7,4.1-5.1c2.8-0.4,5.1,1.1,5.5,3.9
				C717.5,370,715.6,371.8,713,372.2z M711.9,365.5c-1.8,0.3-3,1.3-2.8,2.7c0.2,1.4,1.7,2.1,3.5,1.8c1.7-0.2,3-1.2,2.8-2.7
				C715.2,365.9,713.7,365.2,711.9,365.5z"/>
			<path class="st3" d="M710.6,374c-0.2,0.6-0.4,1.5-0.3,2.4c0.1,1,0.6,1.4,1.2,1.4c0.6-0.1,0.9-0.5,1.1-1.7
				c0.4-1.6,1.1-2.7,2.5-2.9c1.6-0.2,3,1,3.2,3.2c0.1,1.1,0,1.9-0.2,2.4l-1.8-0.3c0.1-0.4,0.3-1.1,0.2-2c-0.1-0.9-0.6-1.3-1.1-1.3
				c-0.6,0.1-0.8,0.6-1.1,1.9c-0.4,1.7-1.2,2.6-2.5,2.7c-1.6,0.2-3-0.9-3.3-3.5c-0.1-1.1,0-2.2,0.3-2.7L710.6,374z"/>
		</g>
		<g>
			<path class="st3" d="M109,389.1c-0.1-0.7-0.1-1.6,0-2.9c0.1-1.3,0.4-2.2,1-2.8c0.5-0.6,1.3-0.9,2.3-0.8c0.9,0.1,1.7,0.4,2.2,1
				c0.6,0.8,0.8,1.9,0.8,3.1c0,0.3-0.1,0.5-0.1,0.7l3.4,0.3l-0.2,2.1L109,389.1z M113.4,387.4c0.1-0.2,0.1-0.4,0.1-0.7
				c0.1-1.1-0.4-1.9-1.4-1.9c-0.9-0.1-1.4,0.5-1.5,1.6c0,0.4,0,0.7,0,0.9L113.4,387.4z"/>
			<path class="st3" d="M109.7,380.9c0-0.7,0-1.7,0.1-2.8c0.1-1.4,0.5-2.3,1.1-3c0.5-0.5,1.2-0.7,2.1-0.7c1.2,0.1,1.9,1.1,2.1,1.9
				l0,0c0.3-0.6,1-0.9,1.9-1.1c1.1-0.2,2.3-0.3,2.7-0.5l-0.2,2.2c-0.3,0.1-1.1,0.3-2.3,0.4c-1.2,0.1-1.6,0.5-1.7,1.4l-0.1,0.6
				l3.7,0.4l-0.2,2.1L109.7,380.9z M113.9,379.2l0.1-0.8c0.1-1.1-0.3-1.7-1.2-1.8c-0.9-0.1-1.4,0.4-1.5,1.4c-0.1,0.5,0,0.8,0,1
				L113.9,379.2z"/>
			<path class="st3" d="M116.2,364.5c3.1,0.4,4.7,2.5,4.3,5.3c-0.4,2.8-2.7,4.1-5.4,3.7c-2.8-0.4-4.7-2.5-4.3-5.2
				C111.3,365.4,113.6,364.2,116.2,364.5z M115.4,371.3c1.8,0.2,3.2-0.4,3.4-1.8c0.2-1.4-1.1-2.4-2.9-2.7c-1.7-0.2-3.2,0.4-3.4,1.8
				C112.3,370,113.6,371,115.4,371.3z"/>
			<path class="st3" d="M121.6,361.7l-9.8,1.4l0.4-2.3l4.1-0.5c1.2-0.1,2.3-0.2,3.5-0.3l0,0c-1.1-0.4-2.1-0.9-3.1-1.4l-3.8-1.9
				l0.4-2.2l8.8,4.7L121.6,361.7z"/>
			<path class="st3" d="M119.9,348.9l-0.7,3.4l2.2,0.4l0.8-3.8l1.7,0.3l-1.2,5.9l-9.3-1.8l1.1-5.7l1.7,0.3l-0.7,3.6l1.9,0.4l0.7-3.4
				L119.9,348.9z"/>
			<path class="st3" d="M121.5,341.6l-0.8,3.4l2.2,0.5l0.8-3.8l1.7,0.4l-1.3,5.9l-9.2-2.1l1.3-5.7l1.7,0.4l-0.8,3.6l1.9,0.4l0.8-3.4
				L121.5,341.6z"/>
			<path class="st3" d="M116.8,338.4c0.1-0.8,0.3-1.8,0.5-2.8c0.4-1.7,1-2.8,1.9-3.5c0.9-0.8,2.2-1.1,3.8-0.7
				c1.8,0.4,2.8,1.4,3.3,2.5c0.6,1.2,0.6,2.7,0.1,4.5c-0.3,1.1-0.5,1.8-0.7,2.3L116.8,338.4z M124.7,338.3c0.1-0.2,0.2-0.5,0.2-0.7
				c0.5-1.9-0.2-3.4-2.4-3.9c-1.9-0.5-3.2,0.4-3.6,2.1c-0.1,0.5-0.2,0.8-0.2,1L124.7,338.3z"/>
			<path class="st3" d="M126,321.7c3,0.9,4.2,3.2,3.5,5.8c-0.8,2.7-3.3,3.7-5.8,2.9c-2.7-0.8-4.2-3.1-3.5-5.8
				C120.9,321.9,123.5,321,126,321.7z M124.2,328.3c1.8,0.5,3.3,0,3.7-1.3c0.4-1.4-0.7-2.6-2.4-3.1c-1.6-0.5-3.3-0.1-3.7,1.3
				C121.3,326.6,122.4,327.8,124.2,328.3z"/>
			<path class="st3" d="M122.1,319c0.1-0.7,0.3-1.7,0.7-2.8c0.4-1.3,0.9-2.2,1.6-2.7c0.6-0.4,1.3-0.5,2.1-0.2
				c1.1,0.4,1.7,1.4,1.7,2.3l0,0c0.5-0.5,1.2-0.7,2.1-0.7c1.1,0,2.4,0.1,2.8,0.1l-0.7,2.1c-0.3,0.1-1.1,0-2.3-0.1
				c-1.2-0.1-1.6,0.2-1.9,1l-0.2,0.6l3.5,1.1l-0.7,2L122.1,319z M126.7,318.2l0.3-0.8c0.3-1,0-1.8-0.8-2c-0.8-0.3-1.4,0.2-1.7,1.1
				c-0.2,0.5-0.2,0.8-0.2,0.9L126.7,318.2z"/>
			<path class="st3" d="M131.7,307.4l-1.2,3.3l2.1,0.7l1.3-3.7l1.6,0.6l-2,5.7l-8.9-3.1l1.9-5.5l1.6,0.6l-1.2,3.5l1.8,0.7l1.2-3.3
				L131.7,307.4z"/>
			<path class="st3" d="M134,306.1c0.5-0.4,1.1-1.1,1.4-2c0.4-0.9,0.2-1.5-0.4-1.8c-0.5-0.2-1,0.1-1.8,1c-1.1,1.3-2.2,1.9-3.5,1.4
				c-1.5-0.6-2.2-2.3-1.4-4.4c0.4-1,0.9-1.6,1.3-2.1l1.4,1.1c-0.3,0.3-0.8,0.8-1.1,1.7c-0.3,0.9-0.1,1.4,0.4,1.6
				c0.6,0.2,1-0.2,1.9-1.2c1.2-1.3,2.3-1.8,3.5-1.3c1.5,0.6,2.3,2.2,1.4,4.6c-0.4,1-1,1.9-1.5,2.3L134,306.1z"/>
		</g>
		<g>
			<path class="st3" d="M255.9,148.5c0.5-0.4,1.3-1,2.4-1.6c1.1-0.7,2.1-0.9,2.9-0.8c0.8,0.1,1.5,0.6,2,1.4s0.6,1.6,0.4,2.4
				c-0.3,1-1,1.8-2.1,2.4c-0.2,0.1-0.5,0.3-0.6,0.3l1.7,2.9l-1.8,1.1L255.9,148.5z M259.9,151.1c0.2-0.1,0.4-0.2,0.6-0.3
				c1-0.6,1.3-1.4,0.8-2.3c-0.4-0.7-1.2-0.9-2.1-0.3c-0.4,0.2-0.6,0.4-0.7,0.5L259.9,151.1z"/>
			<path class="st3" d="M263,144.2l1.9-1l3.7,6.7l3.3-1.8l0.9,1.6l-5.1,2.9L263,144.2z"/>
			<path class="st3" d="M274.7,145.8l0.5,2.5l-2,1l-1.8-9.7l2.5-1.3l7,7l-2,1.1l-1.8-1.8L274.7,145.8z M276.1,143.2l-1.4-1.5
				c-0.4-0.4-0.9-1-1.3-1.4l0,0c0.1,0.6,0.3,1.3,0.5,1.8l0.4,2L276.1,143.2z"/>
			<path class="st3" d="M282,144.7l-4.1-8.5l2.2-1.1l3.3,2.3c0.9,0.7,2,1.5,2.8,2.2l0,0c-0.7-1.1-1.3-2.2-1.9-3.5l-1.2-2.5l1.8-0.9
				l4.1,8.5l-2,1l-3.4-2.4c-0.9-0.7-2-1.5-2.9-2.3l0,0c0.6,1.1,1.2,2.3,1.9,3.7l1.2,2.6L282,144.7z"/>
			<path class="st3" d="M294.2,134.7l-3.2,1.4l0.9,2l3.5-1.6l0.7,1.6l-5.5,2.5l-3.8-8.6l5.3-2.4l0.7,1.6l-3.4,1.5l0.8,1.8l3.2-1.4
				L294.2,134.7z"/>
			<path class="st3" d="M296.2,129.8l-2.3,1l-0.7-1.7l6.7-2.8l0.7,1.7l-2.4,1l2.9,7.1l-2,0.8L296.2,129.8z"/>
			<path class="st3" d="M304.8,132l0.2,2.5l-2.1,0.8l-0.7-9.8l2.6-1l6.1,7.7l-2.1,0.8l-1.6-2L304.8,132z M306.4,129.6l-1.3-1.7
				c-0.4-0.5-0.8-1.1-1.1-1.5l0,0c0.1,0.6,0.2,1.3,0.3,1.9l0.2,2.1L306.4,129.6z"/>
		</g>
		<g>
			<path class="st3" d="M629.4,632.9l1.2,2.2l-1.6,1.5l-4.5-8.8l2-2l8.7,4.7l-1.6,1.6l-2.2-1.2L629.4,632.9z M630,630.1l-1.8-1
				c-0.5-0.3-1.1-0.7-1.6-1l0,0c0.3,0.5,0.7,1.1,1,1.6l1,1.8L630,630.1z"/>
			<path class="st3" d="M640.4,624.9c-0.1,0.4-0.6,1.2-1.4,2c-2.3,2.3-4.9,2.1-6.8,0.3c-2.3-2.2-2-5.1,0-7.2
				c0.8-0.8,1.5-1.2,1.9-1.4l0.9,1.5c-0.4,0.2-1,0.5-1.5,1c-1.2,1.2-1.4,2.9,0.1,4.3c1.4,1.3,3,1.3,4.3,0c0.4-0.5,0.8-1.1,1-1.5
				L640.4,624.9z"/>
			<path class="st3" d="M645.7,619.1c-0.1,0.4-0.6,1.2-1.3,2.1c-2.2,2.4-4.8,2.3-6.8,0.4c-2.4-2.2-2.1-5.1-0.2-7.2
				c0.8-0.8,1.5-1.3,1.9-1.4l0.9,1.5c-0.4,0.2-1,0.5-1.5,1.1c-1.2,1.2-1.3,2.9,0.2,4.3c1.4,1.3,3,1.3,4.3-0.1c0.4-0.5,0.8-1.1,1-1.5
				L645.7,619.1z"/>
			<path class="st3" d="M641.2,610.4l7.1,6.3l-1.4,1.6l-7.1-6.3L641.2,610.4z"/>
			<path class="st3" d="M651.4,605.6c2.4,2,2.6,4.6,0.8,6.7c-1.8,2.1-4.5,2-6.5,0.3c-2.2-1.8-2.6-4.6-0.8-6.7
				C646.7,603.7,649.4,603.9,651.4,605.6z M647.1,610.9c1.4,1.2,3,1.4,3.9,0.3c0.9-1.1,0.4-2.6-1-3.8c-1.3-1.1-2.9-1.4-3.9-0.3
				C645.2,608.2,645.7,609.7,647.1,610.9z"/>
			<path class="st3" d="M655.9,607.7l-7.4-5.9l1.6-1.9l3.9,0.6c1.1,0.2,2.4,0.5,3.5,0.8l0,0c-1.1-0.7-2.1-1.4-3.2-2.3l-2.2-1.7
				l1.2-1.5l7.4,5.9l-1.4,1.8l-4.1-0.7c-1.1-0.2-2.5-0.5-3.6-0.8l0,0c1,0.7,2.1,1.5,3.3,2.5l2.2,1.8L655.9,607.7z"/>
			<path class="st3" d="M655.6,592.7l7.5,5.7l-1.3,1.7l-7.5-5.7L655.6,592.7z"/>
			<path class="st3" d="M662.5,595.7c0.6-0.3,1.3-0.8,1.9-1.6c0.6-0.8,0.6-1.4,0.1-1.8c-0.5-0.3-1-0.2-2,0.5
				c-1.4,0.9-2.7,1.3-3.8,0.4c-1.3-1-1.5-2.8-0.2-4.6c0.6-0.9,1.3-1.4,1.8-1.7l1.1,1.4c-0.4,0.2-1,0.6-1.5,1.3
				c-0.5,0.7-0.5,1.4-0.1,1.6c0.5,0.4,1,0.1,2.1-0.6c1.5-1,2.6-1.1,3.7-0.3c1.3,0.9,1.6,2.7,0.1,4.8c-0.6,0.9-1.5,1.6-2,1.8
				L662.5,595.7z"/>
			<path class="st3" d="M663.4,585.1l-1.4,2.1l-1.5-1l4.1-6l1.5,1l-1.5,2.1l6.3,4.4l-1.2,1.8L663.4,585.1z"/>
			<path class="st3" d="M671.6,582.4l1.6,1.9l-1.2,1.8l-6.3-7.6l1.5-2.3l9.5,2.8l-1.3,1.9l-2.4-0.7L671.6,582.4z M671.6,579.5
				l-2-0.6c-0.6-0.2-1.2-0.4-1.8-0.6l0,0c0.4,0.4,0.9,0.9,1.3,1.4l1.4,1.6L671.6,579.5z"/>
			<path class="st3" d="M675.6,576.7c0.6-0.3,1.3-0.9,1.8-1.7c0.5-0.8,0.4-1.5-0.1-1.8c-0.5-0.3-1-0.1-2,0.6c-1.3,1-2.6,1.4-3.7,0.7
				c-1.4-0.9-1.7-2.6-0.5-4.5c0.6-0.9,1.2-1.4,1.7-1.8l1.2,1.3c-0.4,0.2-0.9,0.7-1.4,1.4c-0.5,0.8-0.4,1.4,0,1.6
				c0.5,0.3,1,0,2.1-0.8c1.4-1.1,2.6-1.3,3.7-0.6c1.3,0.8,1.8,2.6,0.5,4.8c-0.6,0.9-1.4,1.7-1.9,2L675.6,576.7z"/>
		</g>
		<g>
			<path class="st3" d="M346.7,712.9c0.5,0.4,1.3,0.9,2.2,1.1c1,0.2,1.5-0.1,1.7-0.7c0.1-0.6-0.2-1-1.3-1.6c-1.4-0.9-2.2-1.9-2-3.3
				c0.3-1.6,1.9-2.5,4.1-2c1,0.2,1.8,0.6,2.3,1l-0.8,1.6c-0.3-0.3-0.9-0.7-1.8-0.8c-0.9-0.2-1.4,0.1-1.5,0.6c-0.1,0.6,0.3,1,1.4,1.7
				c1.5,0.9,2.1,2,1.8,3.3c-0.3,1.5-1.8,2.6-4.3,2.1c-1.1-0.2-2-0.7-2.5-1.1L346.7,712.9z"/>
			<path class="st3" d="M362.9,713.4c-0.6,3-2.7,4.6-5.5,4.1c-2.8-0.5-4-2.9-3.5-5.5c0.5-2.8,2.7-4.5,5.4-4
				C362.2,708.4,363.3,710.8,362.9,713.4z M356.1,712.3c-0.3,1.8,0.3,3.3,1.7,3.5c1.4,0.3,2.5-0.9,2.8-2.7c0.3-1.7-0.2-3.2-1.7-3.5
				C357.5,709.3,356.5,710.5,356.1,712.3z"/>
			<path class="st3" d="M370.2,719.1c-0.4,0.1-1.3,0.2-2.5,0c-3.2-0.5-4.6-2.8-4.2-5.4c0.5-3.2,3-4.6,5.9-4.2
				c1.1,0.2,1.9,0.5,2.2,0.8l-0.7,1.6c-0.4-0.2-1-0.5-1.7-0.6c-1.7-0.3-3.1,0.6-3.4,2.6c-0.3,1.9,0.6,3.2,2.5,3.5
				c0.6,0.1,1.4,0.1,1.8,0L370.2,719.1z"/>
			<path class="st3" d="M374.9,710.4l-1.2,9.4l-2.1-0.3l1.2-9.4L374.9,710.4z"/>
			<path class="st3" d="M384.5,716.2c-0.3,3.1-2.4,4.7-5.2,4.4c-2.8-0.3-4.2-2.6-3.9-5.3c0.3-2.8,2.3-4.7,5.1-4.4
				C383.5,711.3,384.8,713.6,384.5,716.2z M377.7,715.6c-0.2,1.8,0.5,3.2,1.9,3.4c1.4,0.2,2.4-1.1,2.6-2.9c0.2-1.7-0.5-3.2-1.9-3.4
				C378.9,712.5,377.9,713.8,377.7,715.6z"/>
			<path class="st3" d="M385.6,718.9c0.5,0.3,1.4,0.7,2.3,0.8c1,0.1,1.5-0.3,1.6-0.9c0-0.6-0.4-1-1.5-1.5c-1.5-0.7-2.5-1.6-2.4-3
				c0.1-1.6,1.6-2.7,3.8-2.5c1.1,0.1,1.8,0.4,2.4,0.7l-0.6,1.7c-0.4-0.2-1-0.5-1.9-0.6c-0.9-0.1-1.4,0.3-1.4,0.8
				c0,0.6,0.5,0.9,1.6,1.5c1.6,0.7,2.3,1.7,2.2,3c-0.1,1.6-1.5,2.8-4,2.6c-1.1-0.1-2.1-0.5-2.6-0.8L385.6,718.9z"/>
			<path class="st3" d="M402.5,721.9c-0.4,0.2-1.3,0.3-2.4,0.3c-3.3-0.2-4.8-2.3-4.7-4.9c0.2-3.2,2.5-4.9,5.4-4.8
				c1.1,0.1,1.9,0.3,2.3,0.5l-0.5,1.7c-0.4-0.2-1-0.4-1.8-0.4c-1.7-0.1-3.1,0.9-3.2,3c-0.1,1.9,1,3.1,2.9,3.2c0.6,0,1.4-0.1,1.8-0.2
				L402.5,721.9z"/>
			<path class="st3" d="M412.2,717.6c-0.1,3.1-2,4.9-4.7,4.9c-2.8-0.1-4.4-2.2-4.3-4.9c0.1-2.8,1.9-4.9,4.7-4.8
				C410.7,712.8,412.2,715,412.2,717.6z M405.3,717.6c0,1.8,0.8,3.2,2.2,3.2c1.4,0,2.3-1.3,2.3-3.2c0-1.7-0.7-3.2-2.2-3.2
				C406.2,714.4,405.4,715.8,405.3,717.6z"/>
			<path class="st3" d="M421.4,718.7c-0.1-1.1-0.1-2.5-0.1-3.9l0,0c-0.3,1.2-0.6,2.6-1,3.7l-1.1,3.7l-1.7,0l-1.1-3.6
				c-0.3-1.1-0.7-2.4-0.9-3.7l0,0c0,1.3-0.1,2.7-0.1,3.9l-0.1,3.6l-2,0l0.5-9.4l2.8,0l1,3.1c0.3,1.1,0.6,2.3,0.8,3.4l0,0
				c0.3-1.1,0.6-2.3,0.8-3.4l1-3.1l2.8,0l0.7,9.4l-2.1,0L421.4,718.7z"/>
			<path class="st3" d="M430.7,718l-3.5,0.2l0.1,2.2l3.9-0.2l0.1,1.7l-6,0.3l-0.4-9.4l5.8-0.3l0.1,1.7l-3.7,0.2l0.1,2l3.5-0.2
				L430.7,718z"/>
			<path class="st3" d="M432,712.6c0.7-0.2,1.7-0.3,2.8-0.4c1.4-0.1,2.4,0,3.1,0.5c0.6,0.4,0.9,1,1,1.9c0.1,1.2-0.7,2.1-1.5,2.4l0,0
				c0.7,0.2,1.1,0.8,1.4,1.7c0.4,1,0.7,2.2,1,2.6l-2.2,0.1c-0.2-0.3-0.4-1-0.8-2.1c-0.3-1.2-0.8-1.4-1.6-1.4l-0.6,0l0.3,3.7
				l-2.1,0.1L432,712.6z M434.4,716.5l0.8-0.1c1.1-0.1,1.7-0.6,1.6-1.5c-0.1-0.9-0.7-1.3-1.7-1.2c-0.5,0-0.8,0.1-1,0.1L434.4,716.5z
				"/>
			<path class="st3" d="M447.7,720.4c-0.4,0.2-1.2,0.5-2.4,0.6c-3.2,0.3-5.1-1.6-5.4-4.2c-0.3-3.2,1.8-5.2,4.7-5.5
				c1.1-0.1,2,0,2.4,0.2l-0.3,1.7c-0.4-0.1-1.1-0.2-1.8-0.2c-1.7,0.2-2.9,1.3-2.7,3.4c0.2,1.9,1.4,3,3.3,2.8
				c0.6-0.1,1.3-0.3,1.7-0.5L447.7,720.4z"/>
			<path class="st3" d="M450.1,710.8l1.1,9.4l-2.1,0.2l-1.1-9.4L450.1,710.8z"/>
			<path class="st3" d="M454.8,717.3l-0.3,2.5l-2.2,0.3l1.6-9.7l2.8-0.4l4.2,9l-2.3,0.3l-1-2.3L454.8,717.3z M457,715.4l-0.9-1.9
				c-0.2-0.5-0.5-1.2-0.7-1.7l0,0c-0.1,0.6-0.1,1.3-0.2,1.9l-0.3,2.1L457,715.4z"/>
			<path class="st3" d="M460.5,709.4l2.1-0.3l1.2,7.5l3.7-0.6l0.3,1.8l-5.8,1L460.5,709.4z"/>
			<path class="st3" d="M473.8,712.6l-3.4,0.6l0.4,2.2l3.8-0.7l0.3,1.7l-5.9,1.1l-1.7-9.3l5.7-1.1l0.3,1.7l-3.6,0.7l0.4,1.9l3.4-0.6
				L473.8,712.6z"/>
			<path class="st3" d="M475.9,714c0.6,0.2,1.5,0.3,2.4,0.1c1-0.2,1.4-0.7,1.3-1.3c-0.1-0.6-0.6-0.8-1.8-1c-1.6-0.2-2.8-0.8-3.1-2.2
				c-0.3-1.6,0.7-3.1,2.9-3.5c1-0.2,1.9-0.2,2.5,0l-0.1,1.8c-0.4-0.1-1.1-0.2-2,0c-0.9,0.2-1.3,0.7-1.2,1.2c0.1,0.6,0.7,0.7,2,0.9
				c1.8,0.3,2.7,0.9,3,2.2c0.3,1.5-0.6,3.1-3.1,3.7c-1.1,0.2-2.2,0.2-2.7,0L475.9,714z"/>
		</g>
		<g>
			<path class="st3" d="M150.4,577c-0.4-0.2-1-0.9-1.6-1.8c-1.7-2.8-0.9-5.3,1.4-6.7c2.7-1.7,5.5-0.7,7,1.8c0.6,0.9,0.8,1.8,0.9,2.2
				l-1.7,0.5c-0.1-0.5-0.2-1.1-0.6-1.7c-0.9-1.4-2.5-2-4.2-0.9c-1.6,1-2,2.6-1,4.2c0.3,0.5,0.8,1.1,1.2,1.4L150.4,577z"/>
			<path class="st3" d="M159.5,582.5c-2.6,1.7-5.2,1.2-6.7-1.1c-1.5-2.3-0.7-4.9,1.6-6.3c2.4-1.6,5.1-1.2,6.7,1.1
				C162.6,578.5,161.7,581.1,159.5,582.5z M155.6,576.9c-1.5,1-2.2,2.5-1.4,3.6c0.8,1.2,2.4,1.1,3.9,0.1c1.4-0.9,2.2-2.4,1.4-3.6
				C158.8,575.8,157.2,575.9,155.6,576.9z"/>
			<path class="st3" d="M163.7,590.7c0.9-0.7,2-1.5,3.1-2.3l0,0c-1.2,0.5-2.5,0.9-3.6,1.3l-3.7,1.2l-1-1.4l2.4-2.9
				c0.7-0.9,1.6-1.9,2.5-2.8l0,0c-1.1,0.7-2.3,1.5-3.3,2.1l-3,1.9l-1.1-1.6l8.1-5l1.6,2.3l-2,2.6c-0.7,0.9-1.5,1.8-2.3,2.6l0,0
				c1-0.4,2.2-0.9,3.3-1.2l3.1-1l1.6,2.3l-7.4,5.9l-1.2-1.7L163.7,590.7z"/>
			<path class="st3" d="M171.8,591.8l-4.3,3.3c-1.3,1-1.6,2-0.9,2.8c0.7,0.9,1.7,0.9,3-0.1l4.3-3.3l1.3,1.7l-4.2,3.2
				c-2.3,1.8-4.3,1.4-5.8-0.5c-1.4-1.9-1.2-3.8,1.2-5.6l4.2-3.2L171.8,591.8z"/>
			<path class="st3" d="M168.8,603.3l7.3-5.9l1.6,1.9l-1.5,3.7c-0.4,1.1-1,2.2-1.5,3.2l0,0c0.9-0.9,1.8-1.7,2.9-2.6l2.1-1.7l1.2,1.5
				l-7.3,5.9l-1.4-1.7l1.6-3.9c0.4-1.1,1-2.3,1.6-3.4l0,0c-0.9,0.8-1.9,1.7-3.1,2.7l-2.2,1.8L168.8,603.3z"/>
			<path class="st3" d="M183.4,606.3l-7.2,6.1l-1.4-1.6l7.2-6.1L183.4,606.3z"/>
			<path class="st3" d="M184.4,607.6c0.6,0.5,1.3,1.2,2.1,2c1.2,1.3,1.7,2.4,1.8,3.6c0.1,1.2-0.4,2.4-1.6,3.5
				c-1.4,1.2-2.7,1.5-3.9,1.4c-1.3-0.2-2.6-1.1-3.8-2.5c-0.7-0.8-1.2-1.5-1.5-1.9L184.4,607.6z M180,614.3c0.1,0.2,0.3,0.4,0.5,0.6
				c1.3,1.5,2.9,1.7,4.6,0.2c1.5-1.3,1.5-2.8,0.3-4.2c-0.3-0.4-0.6-0.6-0.7-0.7L180,614.3z"/>
			<path class="st3" d="M186.9,620.8l-2.2,1.2l-1.5-1.6l8.9-4.3l1.9,2l-4.9,8.6l-1.6-1.7l1.3-2.2L186.9,620.8z M189.7,621.5l1.1-1.8
				c0.3-0.5,0.7-1.1,1-1.6l0,0c-0.5,0.3-1.1,0.7-1.6,0.9l-1.8,1L189.7,621.5z"/>
			<path class="st3" d="M196.5,620.9c0.6,0.5,1.4,1.1,2.2,1.9c1.3,1.3,1.9,2.3,2,3.5c0.2,1.2-0.2,2.5-1.4,3.6
				c-1.3,1.3-2.6,1.7-3.8,1.6c-1.3-0.1-2.6-0.9-3.9-2.2c-0.8-0.8-1.3-1.4-1.6-1.8L196.5,620.9z M192.6,627.9
				c0.1,0.2,0.3,0.4,0.5,0.6c1.4,1.4,3,1.5,4.6-0.1c1.4-1.4,1.3-2.9,0-4.2c-0.3-0.3-0.6-0.5-0.7-0.6L192.6,627.9z"/>
		</g>
	</g>
</g>
</svg>
