<svg id="Layer_1" data-name="Layer 1" xmlns="http://www.w3.org/2000/svg" xmlns:xlink="http://www.w3.org/1999/xlink" viewBox="0 0 827.76 827.76"><defs><style>.cls-1{fill:none;}.cls-2{clip-path:url(#clip-path);}.cls-3{opacity:0.25;}.cls-4{clip-path:url(#clip-path-3);}.cls-5{fill:#e7eced;}.cls-13,.cls-22,.cls-6,.cls-9{fill:#fff;}.cls-14,.cls-7{fill:#6aaae4;}.cls-8{clip-path:url(#clip-path-4);}.cls-11,.cls-9{font-size:8.5px;}.cls-10,.cls-11,.cls-12,.cls-13,.cls-14,.cls-22,.cls-9{font-family:MyriadPro-Bold, Myriad Pro;font-weight:700;}.cls-10{font-size:10px;}.cls-10,.cls-11,.cls-12,.cls-15{fill:#2670ca;}.cls-12{font-size:16.5px;}.cls-13{font-size:13.32px;}.cls-14{font-size:13.5px;}.cls-16{fill:#723988;}.cls-17{fill:#003383;}.cls-18{fill:#f1b634;}.cls-19{fill:#a37e4e;}.cls-20{fill:#d3741c;}.cls-21{fill:#8dba38;}.cls-22{font-size:14px;}</style><clipPath id="clip-path"><rect class="cls-1" width="827.76" height="827.76"/></clipPath><clipPath id="clip-path-3"><rect class="cls-1" x="-11.73" y="-9.13" width="851.23" height="838.19"/></clipPath><clipPath id="clip-path-4"><path class="cls-1" d="M413.88,313.22A100.67,100.67,0,1,0,514.54,413.88,100.78,100.78,0,0,0,413.88,313.22Z"/></clipPath></defs><g class="cls-2"><g class="cls-2"><g class="cls-3"><g class="cls-4"><path class="cls-5" d="M413.88,827.76c228.58,0,413.88-185.3,413.88-413.88S642.46,0,413.88,0,0,185.3,0,413.88,185.3,827.76,413.88,827.76"/></g></g></g></g><path class="cls-6" d="M676.52,151.25A371.42,371.42,0,1,0,151.25,676.52,371.42,371.42,0,1,0,676.52,151.25Zm-97.6,548.5a328.21,328.21,0,0,1-164.53,44.37,332,332,0,0,1-86-11.39A328,328,0,0,1,128,578.92C97.78,526.65,83.73,474.2,83.73,413.85A330.12,330.12,0,0,1,413.86,83.73c60.34,0,112.79,14,165.06,44.23a330.13,330.13,0,0,1,120.83,451C669.58,631.18,631.18,669.58,578.92,699.75Z"/><path class="cls-7" d="M610.37,217.39a277.88,277.88,0,1,0,81.39,196.49A276.06,276.06,0,0,0,610.37,217.39ZM552.55,552.56A196.12,196.12,0,1,1,610,413.9,194.83,194.83,0,0,1,552.55,552.56Z"/><path class="cls-6" d="M413.88,246.28c-92.4,0-167.58,75.17-167.58,167.58s75.18,167.57,167.58,167.57,167.58-75.17,167.58-167.57S506.29,246.28,413.88,246.28Zm0,297.58c-71.66,0-130-58.31-130-130a130.12,130.12,0,0,1,130-130c71.67,0,130,58.3,130,130A130.13,130.13,0,0,1,413.88,543.86Z"/><g class="cls-8"><image width="5760" height="3840" transform="translate(198.03 304.03) scale(0.06)" xlink:href="../../../../../Dropbox%20(Generador%20Team)/WALMART_IA_2020/walmart_IA_2020_pdf/02_nuestro_negocio_%20Folder/Links/_32A8334.jpg"/></g><text class="cls-9" transform="translate(329.38 668.29) rotate(17.88)">A</text><text class="cls-9" transform="matrix(0.96, 0.29, -0.29, 0.96, 334.68, 669.99)"> </text><text class="cls-9" transform="matrix(0.96, 0.28, -0.28, 0.96, 336.28, 670.49)">T</text><text class="cls-9" transform="translate(340.8 671.82) rotate(15.35)">R</text><text class="cls-9" transform="matrix(0.97, 0.24, -0.24, 0.97, 345.87, 673.21)">A</text><text class="cls-9" transform="translate(350.98 674.5) rotate(13.03)">V</text><text class="cls-9" transform="matrix(0.98, 0.21, -0.21, 0.98, 356.34, 675.74)">É</text><text class="cls-9" transform="translate(360.86 676.69) rotate(10.93)">S</text><text class="cls-9" transform="translate(365.34 677.55) rotate(10.25)"> </text><text class="cls-9" transform="translate(367.01 677.87) rotate(9.43)">D</text><text class="cls-9" transform="translate(372.94 678.84) rotate(8.28)">E</text><text class="cls-9" transform="translate(377.42 679.49) rotate(7.61)"> </text><text class="cls-9" transform="translate(379.11 679.73) rotate(6.8)">N</text><text class="cls-9" transform="matrix(1, 0.1, -0.1, 1, 385.03, 680.43)">U</text><text class="cls-9" transform="matrix(1, 0.08, -0.08, 1, 390.89, 680.99)">E</text><text class="cls-9" transform="translate(395.5 681.35) rotate(3.41)">S</text><text class="cls-9" transform="matrix(1, 0.04, -0.04, 1, 400.12, 681.62)">T</text><text class="cls-9" transform="matrix(1, 0.02, -0.02, 1, 404.81, 681.82)">R</text><text class="cls-9" transform="translate(410.1 681.91) rotate(0.93)">A</text><text class="cls-9" transform="translate(415.79 681.96) rotate(-0.93)"> </text><text class="cls-9" transform="matrix(1, -0.02, 0.02, 1, 417.5, 681.95)">F</text><text class="cls-9" transform="matrix(1, -0.04, 0.04, 1, 421.93, 681.86)">O</text><text class="cls-9" transform="translate(428.13 681.6) rotate(-3.55)">R</text><text class="cls-9" transform="translate(433.27 681.29) rotate(-4.88)">M</text><text class="cls-9" transform="translate(440.51 680.66) rotate(-6.27)">A</text><text class="cls-9" transform="translate(446.04 680.04) rotate(-7.05)"> </text><text class="cls-9" transform="matrix(0.99, -0.14, 0.14, 0.99, 447.73, 679.85)">D</text><text class="cls-9" transform="translate(453.69 679.02) rotate(-9.01)">E</text><text class="cls-9" transform="translate(458.15 678.3) rotate(-9.68)"> </text><text class="cls-9" transform="matrix(0.98, -0.18, 0.18, 0.98, 459.83, 678.02)">T</text><text class="cls-9" transform="matrix(0.98, -0.2, 0.2, 0.98, 464.45, 677.18)">R</text><text class="cls-9" transform="translate(469.62 676.14) rotate(-12.62)">A</text><text class="cls-9" transform="matrix(0.97, -0.24, 0.24, 0.97, 475.07, 674.91)">B</text><text class="cls-9" transform="translate(480.01 673.7) rotate(-14.94)">A</text><text class="cls-9" transform="matrix(0.96, -0.28, 0.28, 0.96, 485.68, 672.18)">J</text><text class="cls-9" transform="matrix(0.96, -0.29, 0.29, 0.96, 488.94, 671.25)">A</text><text class="cls-9" transform="translate(494.28 669.62) rotate(-18.1)">R</text><text class="cls-9" transform="translate(366.49 155.56) rotate(-9.83)">¿</text><text class="cls-9" transform="translate(370.02 154.94) rotate(-8.91)">C</text><text class="cls-9" transform="translate(374.91 154.17) rotate(-7.73)">Ó</text><text class="cls-9" transform="translate(380.99 153.34) rotate(-6.28)">M</text><text class="cls-9" transform="translate(388.16 152.55) rotate(-4.85)">O</text><text class="cls-9" transform="matrix(1, -0.07, 0.07, 1, 394.2, 152.06)"> </text><text class="cls-9" transform="translate(395.89 151.93) rotate(-3.37)">L</text><text class="cls-9" transform="matrix(1, -0.04, 0.04, 1, 400.12, 151.67)">O</text><text class="cls-9" transform="translate(406.18 151.45) rotate(-1.45)"> </text><text class="cls-9" transform="translate(407.88 151.4) rotate(-0.93)">L</text><text class="cls-9" transform="matrix(1, 0.02, -0.02, 1, 412.1, 151.29)">O</text><text class="cls-9" transform="translate(418.29 151.36) rotate(1.55)">G</text><text class="cls-9" transform="translate(424.19 151.52) rotate(2.73)">R</text><text class="cls-9" transform="matrix(1, 0.07, -0.07, 1, 429.42, 151.77)">A</text><text class="cls-9" transform="translate(435.02 152.15) rotate(5.29)">M</text><text class="cls-9" transform="translate(442.22 152.82) rotate(6.73)">O</text><text class="cls-9" transform="translate(448.25 153.54) rotate(7.88)">S</text><text class="cls-9" transform="matrix(0.99, 0.15, -0.15, 0.99, 452.69, 154.16)">?</text><text class="cls-10" transform="translate(265.18 465.88) rotate(69.57)">A</text><text class="cls-10" transform="translate(267.58 472.31) rotate(67.04)">H</text><text class="cls-10" transform="matrix(0.43, 0.9, -0.9, 0.43, 270.44, 479.05)">O</text><text class="cls-10" transform="translate(273.77 485.92) rotate(61.78)">R</text><text class="cls-10" transform="matrix(0.51, 0.86, -0.86, 0.51, 276.78, 491.51)">R</text><text class="cls-10" transform="translate(280.08 497.09) rotate(56.97)">A</text><text class="cls-10" transform="translate(283.81 502.82) rotate(54.58)">R</text><text class="cls-10" transform="translate(287.49 507.97) rotate(52.41)">L</text><text class="cls-10" transform="translate(290.75 512.2) rotate(50.42)">E</text><text class="cls-10" transform="translate(294.31 516.46) rotate(48.99)"> </text><text class="cls-10" transform="translate(295.75 518.17) rotate(47.27)">D</text><text class="cls-10" transform="translate(300.73 523.5) rotate(45.35)">I</text><text class="cls-10" transform="matrix(0.73, 0.69, -0.69, 0.73, 302.95, 525.79)">N</text><text class="cls-10" transform="matrix(0.75, 0.66, -0.66, 0.75, 308.26, 530.79)">E</text><text class="cls-10" transform="matrix(0.78, 0.63, -0.63, 0.78, 312.62, 534.59)">R</text><text class="cls-10" transform="translate(317.5 538.53) rotate(36.37)">O</text><text class="cls-10" transform="translate(323.47 542.87) rotate(34.63)"> </text><text class="cls-10" transform="matrix(0.84, 0.54, -0.54, 0.84, 325.29, 544.16)">A</text><text class="cls-10" transform="translate(330.97 547.81) rotate(31.37)"> </text><text class="cls-10" transform="translate(332.89 549.01) rotate(29.67)">N</text><text class="cls-10" transform="translate(339.25 552.63) rotate(27.04)">U</text><text class="cls-10" transform="matrix(0.91, 0.42, -0.42, 0.91, 345.67, 555.88)">E</text><text class="cls-10" transform="matrix(0.92, 0.39, -0.39, 0.92, 350.82, 558.24)">S</text><text class="cls-10" transform="translate(356.08 560.43) rotate(20.57)">T</text><text class="cls-10" transform="translate(361.46 562.45) rotate(18.41)">R</text><text class="cls-10" transform="translate(367.43 564.44) rotate(15.9)">O</text><text class="cls-10" transform="translate(374.58 566.46) rotate(13.52)">S</text><text class="cls-10" transform="matrix(0.98, 0.21, -0.21, 0.98, 380.03, 567.74)"> </text><text class="cls-10" transform="translate(382.19 568.23) rotate(10.58)">C</text><text class="cls-10" transform="translate(388.34 569.36) rotate(8.45)">L</text><text class="cls-10" transform="translate(393.56 570.12) rotate(6.93)">I</text><text class="cls-10" transform="matrix(1, 0.09, -0.09, 1, 396.67, 570.51)">E</text><text class="cls-10" transform="matrix(1, 0.05, -0.05, 1, 402.43, 571.06)">N</text><text class="cls-10" transform="translate(409.66 571.41) rotate(0.54)">T</text><text class="cls-10" transform="translate(415.41 571.45) rotate(-1.55)">E</text><text class="cls-10" transform="translate(421.09 571.29) rotate(-3.64)">S</text><text class="cls-10" transform="translate(426.66 570.92) rotate(-5.07)"> </text><text class="cls-10" transform="matrix(0.99, -0.12, 0.12, 0.99, 428.89, 570.74)">Y</text><text class="cls-10" transform="matrix(0.99, -0.14, 0.14, 0.99, 435.08, 569.99)"> </text><text class="cls-10" transform="matrix(0.99, -0.17, 0.17, 0.99, 437.28, 569.71)">A</text><text class="cls-10" transform="translate(443.42 568.65) rotate(-11.97)">Y</text><text class="cls-10" transform="translate(449.69 567.32) rotate(-14.43)">U</text><text class="cls-10" transform="matrix(0.96, -0.29, 0.29, 0.96, 456.69, 565.51)">D</text><text class="cls-10" transform="translate(463.41 563.44) rotate(-19.49)">A</text><text class="cls-10" transform="translate(469.83 561.16) rotate(-21.83)">R</text><text class="cls-10" transform="translate(475.7 558.79) rotate(-23.97)">L</text><text class="cls-10" transform="translate(480.57 556.62) rotate(-25.94)">E</text><text class="cls-10" transform="translate(485.68 554.13) rotate(-28.03)">S</text><text class="cls-10" transform="matrix(0.87, -0.49, 0.49, 0.87, 490.58, 551.5)"> </text><text class="cls-10" transform="matrix(0.86, -0.52, 0.52, 0.86, 492.54, 550.42)">A</text><text class="cls-10" transform="translate(498.33 546.89) rotate(-32.74)"> </text><text class="cls-10" transform="translate(500.23 545.7) rotate(-34.36)">V</text><text class="cls-10" transform="matrix(0.81, -0.59, 0.59, 0.81, 505.71, 541.92)">I</text><text class="cls-10" transform="matrix(0.79, -0.61, 0.61, 0.79, 508.23, 540.1)">V</text><text class="cls-10" transform="translate(513.46 535.98) rotate(-39.73)">I</text><text class="cls-10" transform="translate(515.91 533.97) rotate(-41.46)">R</text><text class="cls-10" transform="matrix(0.73, -0.68, 0.68, 0.73, 520.48, 529.9)"> </text><text class="cls-10" transform="translate(522.15 528.38) rotate(-44.68)">U</text><text class="cls-10" transform="translate(527.29 523.29) rotate(-47.33)">N</text><text class="cls-10" transform="translate(532.19 517.96) rotate(-49.91)">A</text><text class="cls-10" transform="matrix(0.62, -0.78, 0.78, 0.62, 536.52, 512.75)"> </text><text class="cls-10" transform="matrix(0.6, -0.8, 0.8, 0.6, 537.92, 511.04)">V</text><text class="cls-10" transform="translate(541.9 505.68) rotate(-54.92)">I</text><text class="cls-10" transform="translate(543.75 503.1) rotate(-56.82)">D</text><text class="cls-10" transform="matrix(0.51, -0.86, 0.86, 0.51, 547.62, 497.16)">A</text><text class="cls-10" transform="matrix(0.49, -0.87, 0.87, 0.49, 551.04, 491.33)"> </text><text class="cls-10" transform="translate(552.2 489.35) rotate(-62.93)">M</text><text class="cls-10" transform="translate(556.22 481.39) rotate(-65.58)">E</text><text class="cls-10" transform="matrix(0.38, -0.92, 0.92, 0.38, 558.6, 476.09)">J</text><text class="cls-10" transform="matrix(0.35, -0.94, 0.94, 0.35, 560.33, 471.97)">O</text><text class="cls-10" transform="translate(562.96 464.84) rotate(-72.16)">R</text><text class="cls-11" transform="translate(393.33 554.79) rotate(7.46)">¿</text><text class="cls-11" transform="translate(397.08 555.29) rotate(5.71)">P</text><text class="cls-11" transform="matrix(1, 0.06, -0.06, 1, 402.06, 555.8)">O</text><text class="cls-11" transform="translate(408.26 556.17) rotate(1.22)">R</text><text class="cls-11" transform="translate(413.41 556.27) rotate(-0.93)"> </text><text class="cls-11" transform="translate(415.15 556.28) rotate(-1.7)">Q</text><text class="cls-11" transform="matrix(1, -0.07, 0.07, 1, 421.33, 556.09)">U</text><text class="cls-11" transform="translate(427.21 555.66) rotate(-6.21)">É</text><text class="cls-11" transform="matrix(0.99, -0.14, 0.14, 0.99, 431.72, 555.16)">?</text><text class="cls-12" transform="translate(256.96 109.96) rotate(-26.6)">S</text><text class="cls-12" transform="translate(264.68 106.09) rotate(-25.16)">E</text><text class="cls-12" transform="translate(272.55 102.38) rotate(-23.61)">R</text><text class="cls-12" transform="translate(281.39 98.55) rotate(-22.53)"> </text><text class="cls-12" transform="translate(284.36 97.3) rotate(-21.56)">L</text><text class="cls-12" transform="matrix(0.94, -0.34, 0.34, 0.94, 292.19, 94.18)">A</text><text class="cls-12" transform="matrix(0.95, -0.32, 0.32, 0.95, 302.25, 90.57)"> </text><text class="cls-12" transform="translate(305.26 89.52) rotate(-17.68)">C</text><text class="cls-12" transform="translate(314.52 86.56) rotate(-15.95)">A</text><text class="cls-12" transform="translate(324.53 83.68) rotate(-14.14)">D</text><text class="cls-12" transform="matrix(0.98, -0.22, 0.22, 0.98, 335.45, 80.95)">E</text><text class="cls-12" transform="translate(343.91 79.06) rotate(-10.78)">N</text><text class="cls-12" transform="translate(354.76 76.99) rotate(-8.97)">A</text><text class="cls-12" transform="translate(365.3 75.36) rotate(-7.81)"> </text><text class="cls-12" transform="translate(368.45 74.88) rotate(-6.57)">O</text><text class="cls-12" transform="matrix(1, -0.08, 0.08, 1, 379.86, 73.54)">M</text><text class="cls-12" transform="translate(393.57 72.49) rotate(-2.41)">N</text><text class="cls-12" transform="translate(404.8 72.05) rotate(-1.11)">I</text><text class="cls-12" transform="translate(409.22 71.86) rotate(0.93)">C</text><text class="cls-12" transform="matrix(1, 0.03, -0.03, 1, 419.05, 71.94)">A</text><text class="cls-12" transform="translate(429.45 72.24) rotate(3.51)">N</text><text class="cls-12" transform="translate(440.46 72.92) rotate(5.3)">A</text><text class="cls-12" transform="matrix(0.99, 0.12, -0.12, 0.99, 450.85, 73.89)">L</text><text class="cls-12" transform="translate(459.1 74.9) rotate(7.8)"> </text><text class="cls-12" transform="translate(462.22 75.26) rotate(9.22)">M</text><text class="cls-12" transform="translate(475.77 77.48) rotate(11.27)">Á</text><text class="cls-12" transform="translate(486.16 79.57) rotate(12.89)">S</text><text class="cls-12" transform="translate(494.72 81.55) rotate(13.9)"> </text><text class="cls-12" transform="translate(497.82 82.28) rotate(14.99)">C</text><text class="cls-12" transform="translate(506.71 84.64) rotate(16.71)">O</text><text class="cls-12" transform="translate(517.83 87.98) rotate(18.63)">N</text><text class="cls-12" transform="translate(528.43 91.57) rotate(20.3)">F</text><text class="cls-12" transform="matrix(0.93, 0.36, -0.36, 0.93, 536.24, 94.47)">I</text><text class="cls-12" transform="translate(540.32 96.03) rotate(22.62)">A</text><text class="cls-12" transform="translate(549.96 100.05) rotate(24.31)">B</text><text class="cls-12" transform="translate(558.84 104.07) rotate(25.82)">L</text><text class="cls-12" transform="translate(566.08 107.56) rotate(27.2)">E</text><path class="cls-6" d="M434.7,615.91A201.54,201.54,0,0,1,314.42,591a24,24,0,0,0-31.22,6.66l-.13.18a23.94,23.94,0,0,0,7.58,35,251.82,251.82,0,0,0,244.8.82,23.94,23.94,0,0,0,7.73-34.94h0A24,24,0,0,0,512,591.88C488.22,605.24,463.16,613,434.7,615.91Z"/><path class="cls-6" d="M612.68,455.36a201.56,201.56,0,0,1-60.25,107,24,24,0,0,0-3.13,31.76l.13.18a23.94,23.94,0,0,0,35.62,3.39,251.75,251.75,0,0,0,75.05-233,23.93,23.93,0,0,0-30.94-18h0a24,24,0,0,0-15.93,27.67C618.75,401.12,618.52,427.35,612.68,455.36Z"/><path class="cls-6" d="M515.39,238a201.49,201.49,0,0,1,82.85,90.69,24,24,0,0,0,29.2,12.9l.21-.07A23.93,23.93,0,0,0,642,308.77,251.76,251.76,0,0,0,444.12,164.64a23.94,23.94,0,0,0-26.74,23.77h0a24,24,0,0,0,21.3,23.78C465.77,215.3,490.62,223.71,515.39,238Z"/><path class="cls-6" d="M270.29,270.29a201.48,201.48,0,0,1,119-58,24,24,0,0,0,21.07-23.81h0a24,24,0,0,0-26.8-23.83,251.77,251.77,0,0,0-197.79,144,24,24,0,0,0,14.39,32.86h0a24,24,0,0,0,29.19-12.77A203.13,203.13,0,0,1,270.29,270.29Z"/><path class="cls-6" d="M238,515.39c-18.56-32.14-27.2-64.4-27.2-101.52a205.52,205.52,0,0,1,3.57-38.23,24,24,0,0,0-16.11-27.34l-.08,0a24,24,0,0,0-30.94,18.28,253.71,253.71,0,0,0-4.43,47.32A249.44,249.44,0,0,0,236.36,591.4q3.4,3.39,6.9,6.64a23.94,23.94,0,0,0,35.63-3.52h0a23.91,23.91,0,0,0-3-31.57A203.4,203.4,0,0,1,238,515.39Z"/><text class="cls-10" transform="translate(274.9 403.64) rotate(-84.6)">C</text><text class="cls-10" transform="translate(275.4 398.16) rotate(-82.11)">O</text><text class="cls-10" transform="translate(276.35 391.26) rotate(-79.32)">N</text><text class="cls-10" transform="matrix(0.23, -0.97, 0.97, 0.23, 277.6, 384.72)">T</text><text class="cls-10" transform="matrix(0.27, -0.96, 0.96, 0.27, 278.78, 379.59)">R</text><text class="cls-10" transform="translate(280.36 373.96) rotate(-72.82)">I</text><text class="cls-10" transform="translate(281.14 371.36) rotate(-71.03)">B</text><text class="cls-10" transform="translate(283 365.9) rotate(-68.48)">U</text><text class="cls-10" transform="translate(285.49 359.67) rotate(-66.52)">I</text><text class="cls-10" transform="translate(286.55 357.17) rotate(-64.75)">R</text><text class="cls-10" transform="translate(289.03 351.97) rotate(-63.18)"> </text><text class="cls-10" transform="translate(289.83 350.31) rotate(-61.48)">A</text><text class="cls-10" transform="matrix(0.5, -0.86, 0.86, 0.5, 292.89, 344.72)"> </text><text class="cls-10" transform="translate(293.74 343.15) rotate(-57.72)">M</text><text class="cls-10" transform="translate(298.18 336.17) rotate(-54.96)">E</text><text class="cls-10" transform="matrix(0.6, -0.8, 0.8, 0.6, 301.27, 331.79)">J</text><text class="cls-10" transform="matrix(0.63, -0.77, 0.77, 0.63, 303.6, 328.64)">O</text><text class="cls-10" transform="matrix(0.67, -0.75, 0.75, 0.67, 308.03, 323.23)">R</text><text class="cls-10" transform="translate(311.96 318.83) rotate(-45.62)">A</text><text class="cls-10" transform="translate(316.34 314.35) rotate(-43.19)">R</text><text class="cls-10" transform="translate(320.57 310.42) rotate(-41.63)"> </text><text class="cls-10" transform="translate(321.95 309.16) rotate(-40.24)">L</text><text class="cls-10" transform="translate(325.79 305.89) rotate(-37.88)">A</text><text class="cls-10" transform="matrix(0.81, -0.59, 0.59, 0.81, 330.85, 302)"> </text><text class="cls-10" transform="matrix(0.82, -0.57, 0.57, 0.82, 332.32, 300.89)">C</text><text class="cls-10" transform="matrix(0.85, -0.53, 0.53, 0.85, 337.11, 297.56)">A</text><text class="cls-10" transform="translate(342.43 294.23) rotate(-29.85)">L</text><text class="cls-10" transform="matrix(0.88, -0.47, 0.47, 0.88, 346.71, 291.79)">I</text><text class="cls-10" transform="translate(349.09 290.47) rotate(-26.32)">D</text><text class="cls-10" transform="translate(354.88 287.6) rotate(-23.74)">A</text><text class="cls-10" transform="translate(360.6 285.07) rotate(-21.07)">D</text><text class="cls-10" transform="translate(366.93 282.67) rotate(-19.29)"> </text><text class="cls-10" transform="matrix(0.95, -0.3, 0.3, 0.95, 368.63, 282.03)">D</text><text class="cls-10" transform="translate(375.09 280) rotate(-15.05)">E</text><text class="cls-10" transform="translate(380.1 278.68) rotate(-13.59)"> </text><text class="cls-10" transform="translate(381.88 278.21) rotate(-11.92)">V</text><text class="cls-10" transform="matrix(0.98, -0.17, 0.17, 0.98, 387.96, 276.96)">I</text><text class="cls-10" transform="translate(390.62 276.44) rotate(-8.1)">D</text><text class="cls-10" transform="translate(397.04 275.52) rotate(-5.51)">A</text><text class="cls-10" transform="translate(403.37 274.94) rotate(-3.83)"> </text><text class="cls-10" transform="matrix(1, -0.04, 0.04, 1, 405.21, 274.78)">D</text><text class="cls-10" transform="matrix(1, 0.01, -0.01, 1, 411.97, 274.55)">E</text><text class="cls-10" transform="translate(417.15 274.6) rotate(1.8)"> </text><text class="cls-10" transform="translate(419.09 274.68) rotate(2.37)">L</text><text class="cls-10" transform="translate(424.07 274.9) rotate(5.51)">A</text><text class="cls-10" transform="matrix(0.99, 0.14, -0.14, 0.99, 430.44, 275.53)">S</text><text class="cls-10" transform="translate(435.61 276.26) rotate(9.32)"> </text><text class="cls-10" transform="translate(437.46 276.54) rotate(10.76)">F</text><text class="cls-10" transform="translate(442.04 277.39) rotate(12.94)">A</text><text class="cls-10" transform="translate(448.16 278.76) rotate(15.93)">M</text><text class="cls-10" transform="translate(456.16 281.1) rotate(18.22)">I</text><text class="cls-10" transform="matrix(0.94, 0.34, -0.34, 0.94, 458.79, 281.95)">L</text><text class="cls-10" transform="translate(463.4 283.62) rotate(21.4)">I</text><text class="cls-10" transform="translate(465.86 284.55) rotate(23.26)">A</text><text class="cls-10" transform="translate(471.71 287.08) rotate(25.66)">S</text><text class="cls-10" transform="translate(476.43 289.36) rotate(27.12)"> </text><text class="cls-10" transform="translate(478.09 290.19) rotate(28.58)">E</text><text class="cls-10" transform="matrix(0.86, 0.52, -0.52, 0.86, 482.67, 292.66)">N</text><text class="cls-10" transform="matrix(0.84, 0.54, -0.54, 0.84, 488.4, 296.15)"> </text><text class="cls-10" transform="matrix(0.82, 0.57, -0.57, 0.82, 489.95, 297.07)">M</text><text class="cls-10" transform="matrix(0.79, 0.61, -0.61, 0.79, 496.71, 301.83)">É</text><text class="cls-10" transform="matrix(0.77, 0.64, -0.64, 0.77, 500.87, 305.02)">X</text><text class="cls-10" transform="translate(505.42 308.86) rotate(41.71)">I</text><text class="cls-10" transform="matrix(0.73, 0.69, -0.69, 0.73, 507.46, 310.65)">C</text><text class="cls-10" transform="matrix(0.7, 0.72, -0.72, 0.7, 511.49, 314.43)">O</text><text class="cls-10" transform="matrix(0.67, 0.74, -0.74, 0.67, 516.31, 319.47)"> </text><text class="cls-10" transform="translate(517.58 320.82) rotate(49.33)">Y</text><text class="cls-10" transform="translate(521.37 325.27) rotate(50.9)"> </text><text class="cls-10" transform="translate(522.56 326.69) rotate(52.46)">C</text><text class="cls-10" transform="translate(526.04 331.22) rotate(54.68)">E</text><text class="cls-10" transform="translate(529.07 335.47) rotate(57.13)">N</text><text class="cls-10" transform="matrix(0.51, 0.86, -0.86, 0.51, 532.67, 341.06)">T</text><text class="cls-10" transform="translate(535.34 345.59) rotate(61.82)">R</text><text class="cls-10" transform="translate(538.04 350.57) rotate(64.41)">O</text><text class="cls-10" transform="translate(540.94 356.62) rotate(67.05)">A</text><text class="cls-10" transform="translate(543.42 362.41) rotate(70.04)">M</text><text class="cls-10" transform="translate(546.21 370.17) rotate(72.81)">É</text><text class="cls-10" transform="translate(547.76 375.16) rotate(75.1)">R</text><text class="cls-10" transform="translate(549.24 380.82) rotate(76.89)">I</text><text class="cls-10" transform="translate(549.88 383.47) rotate(78.66)">C</text><text class="cls-10" transform="translate(551.04 389.2) rotate(81.21)">A</text><text class="cls-10" transform="matrix(0.12, 0.99, -0.99, 0.12, 551.98, 395.5)"> </text><text class="cls-11" transform="matrix(1, -0.07, 0.07, 1, 400.58, 259.85)">¿</text><text class="cls-11" transform="translate(404.14 259.57) rotate(-2.44)">Q</text><text class="cls-11" transform="translate(410.27 259.34) rotate(-0.93)">U</text><text class="cls-11" transform="translate(416.07 259.29) rotate(1.62)">É</text><text class="cls-11" transform="translate(420.54 259.42) rotate(3.12)">?</text><text class="cls-13" transform="translate(303 275.87) rotate(-37.64)">E</text><text class="cls-13" transform="matrix(0.82, -0.58, 0.58, 0.82, 308.61, 271.53)">X</text><text class="cls-13" transform="translate(315.3 266.82) rotate(-32.61)">P</text><text class="cls-13" transform="translate(321.84 262.65) rotate(-30.2)">E</text><text class="cls-13" transform="matrix(0.88, -0.47, 0.47, 0.88, 327.97, 259.07)">R</text><text class="cls-13" transform="translate(335.02 255.39) rotate(-25.86)">I</text><text class="cls-13" transform="matrix(0.91, -0.41, 0.41, 0.91, 338.51, 253.67)">E</text><text class="cls-13" transform="translate(344.97 250.76) rotate(-21.41)">N</text><text class="cls-13" transform="translate(353.51 247.43) rotate(-18.63)">C</text><text class="cls-13" transform="matrix(0.96, -0.29, 0.29, 0.96, 361.08, 244.92)">I</text><text class="cls-13" transform="matrix(0.97, -0.25, 0.25, 0.97, 364.75, 243.77)">A</text><text class="cls-13" transform="translate(373.3 241.59) rotate(-12.75)"> </text><text class="cls-13" transform="matrix(0.98, -0.19, 0.19, 0.98, 375.96, 240.93)">D</text><text class="cls-13" transform="matrix(0.99, -0.14, 0.14, 0.99, 385.07, 239.22)">E</text><text class="cls-13" transform="translate(392.2 238.23) rotate(-6.52)"> </text><text class="cls-13" transform="translate(394.96 237.88) rotate(-4.78)">C</text><text class="cls-13" transform="translate(402.43 237.23) rotate(-2.12)">O</text><text class="cls-13" transform="translate(411.89 236.85) rotate(1.16)">M</text><text class="cls-13" transform="translate(423.12 237.12) rotate(4.18)">P</text><text class="cls-13" transform="translate(430.82 237.68) rotate(6.69)">R</text><text class="cls-13" transform="translate(438.77 238.61) rotate(9.42)">A</text><text class="cls-13" transform="translate(447.44 240.1) rotate(11.3)"> </text><text class="cls-13" transform="translate(450.17 240.61) rotate(12.93)">S</text><text class="cls-13" transform="translate(457.27 242.27) rotate(14.75)">I</text><text class="cls-13" transform="matrix(0.96, 0.29, -0.29, 0.96, 460.98, 243.19)">N</text><text class="cls-13" transform="translate(469.81 245.93) rotate(18.83)"> </text><text class="cls-13" transform="translate(472.47 246.81) rotate(20.45)">F</text><text class="cls-13" transform="translate(479.05 249.25) rotate(22.88)">R</text><text class="cls-13" transform="translate(486.36 252.37) rotate(24.8)">I</text><text class="cls-13" transform="translate(489.89 253.97) rotate(26.73)">C</text><text class="cls-13" transform="translate(496.62 257.35) rotate(29.17)">C</text><text class="cls-13" transform="translate(503.57 261.27) rotate(31.09)">I</text><text class="cls-13" transform="translate(506.88 263.2) rotate(33.26)">Ó</text><text class="cls-13" transform="matrix(0.81, 0.59, -0.59, 0.81, 514.83, 268.42)">N</text><text class="cls-13" transform="translate(355.17 320.23) rotate(-29.73)">N</text><text class="cls-13" transform="matrix(0.91, -0.42, 0.42, 0.91, 362.95, 315.78)">U</text><text class="cls-13" transform="translate(371.04 312.02) rotate(-20.96)">E</text><text class="cls-13" transform="translate(377.58 309.51) rotate(-17.28)">S</text><text class="cls-13" transform="translate(384.33 307.41) rotate(-13.56)">T</text><text class="cls-13" transform="matrix(0.99, -0.17, 0.17, 0.99, 391.27, 305.72)">R</text><text class="cls-13" transform="matrix(1, -0.09, 0.09, 1, 398.8, 304.39)">O</text><text class="cls-13" transform="translate(408.14 303.57) rotate(-1.09)">S</text><text class="cls-13" transform="translate(415.32 303.48) rotate(1.42)"> </text><text class="cls-13" transform="translate(417.99 303.48) rotate(4.12)">C</text><text class="cls-13" transform="translate(425.77 304.06) rotate(7.86)">L</text><text class="cls-13" transform="translate(432.47 305.02) rotate(10.6)">I</text><text class="cls-13" transform="matrix(0.97, 0.23, -0.23, 0.97, 436.17, 305.67)">E</text><text class="cls-13" transform="translate(442.95 307.24) rotate(17.6)">N</text><text class="cls-13" transform="matrix(0.93, 0.37, -0.37, 0.93, 451.52, 309.99)">T</text><text class="cls-13" transform="translate(458.2 312.66) rotate(25.51)">E</text><text class="cls-13" transform="translate(464.51 315.66) rotate(29.16)">S</text><text class="cls-14" transform="translate(285.16 593.71) rotate(-143.98)"> </text><text class="cls-14" transform="translate(283 592.15) rotate(-143.29)"> </text><text class="cls-14" transform="translate(280.89 590.57) rotate(-142.61)"> </text><text class="cls-14" transform="translate(278.79 588.96) rotate(-141.93)"> </text><text class="cls-14" transform="translate(276.71 587.33) rotate(-141.25)"> </text><text class="cls-14" transform="matrix(-0.77, -0.64, 0.64, -0.77, 274.65, 585.68)"> </text><text class="cls-14" transform="matrix(-0.76, -0.64, 0.64, -0.76, 272.61, 584.01)"> </text><text class="cls-14" transform="translate(270.59 582.31) rotate(-139.22)"> </text><text class="cls-14" transform="translate(268.57 580.57) rotate(-138.53)"> </text><text class="cls-14" transform="translate(266.62 578.88) rotate(-137.27)">T</text><text class="cls-14" transform="matrix(-0.72, -0.7, 0.7, -0.72, 261.4, 574.03)">I</text><text class="cls-14" transform="matrix(-0.7, -0.71, 0.71, -0.7, 258.75, 571.49)">E</text><text class="cls-14" transform="translate(253.79 566.48) rotate(-132.45)">N</text><text class="cls-14" transform="matrix(-0.64, -0.76, 0.76, -0.64, 247.68, 559.81)">D</text><text class="cls-14" transform="matrix(-0.61, -0.79, 0.79, -0.61, 242.04, 553.13)">A</text><text class="cls-14" transform="translate(236.77 546.36) rotate(-125.93)">S</text><text class="cls-14" transform="translate(232.59 540.55) rotate(-124.67)"> </text><text class="cls-14" transform="matrix(-0.55, -0.84, 0.84, -0.55, 231.11, 538.47)">Y</text><text class="cls-14" transform="matrix(-0.53, -0.85, 0.85, -0.53, 226.75, 531.78)"> </text><text class="cls-14" transform="matrix(-0.51, -0.86, 0.86, -0.51, 225.37, 529.63)">P</text><text class="cls-14" transform="translate(221.58 523.23) rotate(-118.83)">L</text><text class="cls-14" transform="translate(218.28 517.26) rotate(-116.81)">A</text><text class="cls-14" transform="translate(214.79 510.37) rotate(-114.99)">T</text><text class="cls-14" transform="translate(212.09 504.65) rotate(-113.15)">A</text><text class="cls-14" transform="translate(208.77 496.87) rotate(-111.17)">F</text><text class="cls-14" transform="matrix(-0.33, -0.94, 0.94, -0.33, 206.34, 490.68)">O</text><text class="cls-14" transform="translate(203.27 481.77) rotate(-106.86)">R</text><text class="cls-14" transform="translate(200.98 474.37) rotate(-104.39)">M</text><text class="cls-14" transform="translate(198.24 463.62) rotate(-101.83)">A</text><text class="cls-14" transform="translate(196.49 455.2) rotate(-99.79)">S</text><text class="cls-14" transform="translate(195.3 448.17) rotate(-98.52)"> </text><text class="cls-14" transform="matrix(-0.12, -0.99, 0.99, -0.12, 194.88, 445.65)">D</text><text class="cls-14" transform="translate(193.79 436.51) rotate(-95.33)">I</text><text class="cls-14" transform="translate(193.42 432.9) rotate(-93.7)">G</text><text class="cls-14" transform="translate(192.87 423.84) rotate(-92.05)">I</text><text class="cls-14" transform="translate(192.72 420.28) rotate(-90.69)">T</text><text class="cls-14" transform="translate(192.61 413.94) rotate(-88.88)">A</text><text class="cls-14" transform="translate(192.79 405.47) rotate(-86.96)">L</text><text class="cls-14" transform="matrix(0.08, -1, 1, 0.08, 193.12, 398.94)">E</text><text class="cls-14" transform="translate(193.7 392.03) rotate(-83.43)">S</text><text class="cls-14" transform="translate(194.54 384.94) rotate(-82.17)"> </text><text class="cls-14" transform="translate(194.9 382.31) rotate(-81.48)"> </text><text class="cls-14" transform="translate(195.29 379.7) rotate(-80.79)"> </text><text class="cls-14" transform="translate(195.71 377.09) rotate(-80.1)"> </text><text class="cls-14" transform="translate(196.16 374.5) rotate(-79.42)"> </text><text class="cls-14" transform="translate(196.65 371.89) rotate(-78.73)"> </text><text class="cls-14" transform="translate(197.16 369.3) rotate(-78.04)"> </text><text class="cls-14" transform="translate(197.71 366.71) rotate(-77.35)"> </text><text class="cls-14" transform="translate(198.29 364.14) rotate(-76.66)"> </text><text class="cls-14" transform="matrix(0.24, -0.97, 0.97, 0.24, 198.9, 361.56)"> </text><text class="cls-14" transform="translate(199.54 358.99) rotate(-75.27)"> </text><text class="cls-14" transform="translate(200.22 356.43) rotate(-74.58)"> </text><text class="cls-14" transform="translate(200.92 353.88) rotate(-73.89)"> </text><text class="cls-14" transform="matrix(0.29, -0.96, 0.96, 0.29, 201.65, 351.35)"> </text><text class="cls-14" transform="translate(202.41 348.82) rotate(-72.51)"> </text><text class="cls-14" transform="translate(203.2 346.31) rotate(-71.82)"> </text><text class="cls-14" transform="matrix(0.32, -0.95, 0.95, 0.32, 204.03, 343.78)"> </text><text class="cls-14" transform="matrix(0.33, -0.94, 0.94, 0.33, 204.88, 341.29)"> </text><text class="cls-14" transform="matrix(0.35, -0.94, 0.94, 0.35, 205.77, 338.8)"> </text><text class="cls-14" transform="matrix(0.36, -0.93, 0.93, 0.36, 206.68, 336.33)"> </text><text class="cls-14" transform="translate(207.63 333.84) rotate(-68.37)"> </text><text class="cls-14" transform="matrix(0.38, -0.93, 0.93, 0.38, 208.6, 331.39)"> </text><text class="cls-14" transform="translate(209.6 328.96) rotate(-66.99)"> </text><text class="cls-14" transform="matrix(0.4, -0.92, 0.92, 0.4, 210.63, 326.52)"> </text><text class="cls-14" transform="translate(211.7 324.1) rotate(-65.61)"> </text><text class="cls-14" transform="translate(212.79 321.69) rotate(-64.93)"> </text><text class="cls-14" transform="translate(213.91 319.29) rotate(-64.24)"> </text><text class="cls-14" transform="translate(215.06 316.91) rotate(-63.55)"> </text><text class="cls-14" transform="translate(216.23 314.55) rotate(-62.87)"> </text><text class="cls-14" transform="translate(217.44 312.18) rotate(-62.18)"> </text><text class="cls-14" transform="translate(218.67 309.85) rotate(-61.5)"> </text><text class="cls-14" transform="translate(219.94 307.52) rotate(-60.81)"> </text><text class="cls-14" transform="matrix(0.5, -0.87, 0.87, 0.5, 221.22, 305.22)"> </text><text class="cls-14" transform="matrix(0.51, -0.86, 0.86, 0.51, 222.54, 302.92)"> </text><text class="cls-14" transform="matrix(0.52, -0.85, 0.85, 0.52, 223.89, 300.64)"> </text><text class="cls-14" transform="matrix(0.53, -0.85, 0.85, 0.53, 225.25, 298.4)"> </text><text class="cls-14" transform="matrix(0.54, -0.84, 0.84, 0.54, 226.66, 296.13)"> </text><text class="cls-14" transform="translate(228.08 293.92) rotate(-56.71)"> </text><text class="cls-14" transform="matrix(0.57, -0.82, 0.82, 0.57, 229.46, 291.75)">C</text><text class="cls-14" transform="translate(233.94 285.25) rotate(-53.22)">A</text><text class="cls-14" transform="matrix(0.63, -0.78, 0.78, 0.63, 238.96, 278.51)">D</text><text class="cls-14" transform="translate(244.73 271.4) rotate(-48.92)">E</text><text class="cls-14" transform="matrix(0.68, -0.73, 0.73, 0.68, 249.35, 266.08)">N</text><text class="cls-14" transform="translate(255.46 259.55) rotate(-44.61)">A</text><text class="cls-14" transform="translate(261.66 253.49) rotate(-43.17)"> </text><text class="cls-14" transform="matrix(0.75, -0.66, 0.66, 0.75, 263.5, 251.71)">D</text><text class="cls-14" transform="translate(270.34 245.64) rotate(-39.59)">E</text><text class="cls-14" transform="translate(275.8 241.16) rotate(-38.35)"> </text><text class="cls-14" transform="translate(277.79 239.55) rotate(-37.1)">S</text><text class="cls-14" transform="matrix(0.82, -0.57, 0.57, 0.82, 283.26, 235.38)">U</text><text class="cls-14" transform="translate(290.45 230.29) rotate(-32.53)">M</text><text class="cls-14" transform="translate(299.95 224.3) rotate(-30.6)">I</text><text class="cls-14" transform="translate(303.06 222.41) rotate(-28.95)">N</text><text class="cls-14" transform="translate(311.07 218.02) rotate(-27.3)">I</text><text class="cls-14" transform="translate(314.29 216.33) rotate(-25.9)">S</text><text class="cls-14" transform="translate(320.59 213.27) rotate(-24.07)">T</text><text class="cls-14" transform="translate(327.03 210.38) rotate(-22.15)">R</text><text class="cls-14" transform="matrix(0.94, -0.34, 0.34, 0.94, 334.11, 207.47)">O</text><text class="cls-14" transform="translate(343.04 204.28) rotate(-18.37)"> </text><text class="cls-14" transform="translate(345.54 203.45) rotate(-17.68)"> </text><text class="cls-14" transform="matrix(0.96, -0.29, 0.29, 0.96, 348.07, 202.64)"> </text><text class="cls-14" transform="translate(350.59 201.87) rotate(-16.3)"> </text><text class="cls-14" transform="matrix(0.96, -0.27, 0.27, 0.96, 353.14, 201.13)"> </text><text class="cls-14" transform="translate(355.69 200.41) rotate(-14.91)"> </text><text class="cls-14" transform="translate(358.23 199.74) rotate(-14.22)"> </text><text class="cls-14" transform="translate(360.78 199.09) rotate(-13.53)"> </text><text class="cls-14" transform="matrix(0.97, -0.22, 0.22, 0.97, 363.36, 198.47)"> </text><text class="cls-14" transform="matrix(0.98, -0.21, 0.21, 0.98, 365.94, 197.88)"> </text><text class="cls-14" transform="matrix(0.98, -0.2, 0.2, 0.98, 368.52, 197.32)"> </text><text class="cls-14" transform="translate(371.12 196.8) rotate(-10.77)"> </text><text class="cls-14" transform="translate(373.7 196.3) rotate(-10.08)"> </text><text class="cls-14" transform="matrix(0.99, -0.16, 0.16, 0.99, 376.32, 195.84)"> </text><text class="cls-14" transform="matrix(0.99, -0.15, 0.15, 0.99, 378.93, 195.41)"> </text><text class="cls-14" transform="matrix(0.99, -0.14, 0.14, 0.99, 381.55, 195.01)"> </text><text class="cls-14" transform="translate(384.15 194.64) rotate(-7.33)"> </text><text class="cls-14" transform="translate(386.77 194.3) rotate(-6.64)"> </text><text class="cls-14" transform="translate(389.41 193.99) rotate(-5.95)"> </text><text class="cls-14" transform="translate(392.03 193.72) rotate(-5.27)"> </text><text class="cls-14" transform="matrix(1, -0.08, 0.08, 1, 394.65, 193.48)"> </text><text class="cls-14" transform="translate(397.3 193.26) rotate(-3.91)"> </text><text class="cls-14" transform="translate(399.94 193.08) rotate(-3.22)"> </text><text class="cls-14" transform="translate(402.56 192.94) rotate(-2.55)"> </text><text class="cls-14" transform="matrix(1, -0.03, 0.03, 1, 405.22, 192.82)"> </text><text class="cls-14" transform="matrix(1, -0.02, 0.02, 1, 407.86, 192.73)"> </text><text class="cls-14" transform="matrix(1, -0.02, 0.02, 1, 410.55, 192.68)"> </text><text class="cls-14" transform="matrix(1, 0.02, -0.02, 1, 413.06, 192.63)"> <tspan x="2.73" y="-0.02"> </tspan></text><text class="cls-14" transform="translate(418.44 192.7) rotate(1.51)"> </text><text class="cls-14" transform="translate(421.08 192.77) rotate(2.19)"> </text><text class="cls-14" transform="translate(423.71 192.87) rotate(2.87)"> </text><text class="cls-14" transform="translate(426.36 193) rotate(3.55)"> </text><text class="cls-14" transform="translate(429 193.16) rotate(4.23)"> </text><text class="cls-14" transform="translate(431.65 193.36) rotate(4.92)"> </text><text class="cls-14" transform="matrix(1, 0.1, -0.1, 1, 434.29, 193.58)"> </text><text class="cls-14" transform="translate(436.9 193.84) rotate(6.28)"> </text><text class="cls-14" transform="translate(439.55 194.13) rotate(6.97)"> </text><text class="cls-14" transform="translate(442.16 194.45) rotate(7.66)"> </text><text class="cls-14" transform="matrix(0.99, 0.15, -0.15, 0.99, 444.79, 194.8)"> </text><text class="cls-14" transform="translate(447.4 195.18) rotate(9.03)"> </text><text class="cls-14" transform="matrix(0.99, 0.17, -0.17, 0.99, 450.01, 195.6)"> </text><text class="cls-14" transform="matrix(0.98, 0.18, -0.18, 0.98, 452.63, 196.05)"> </text><text class="cls-14" transform="translate(455.22 196.52) rotate(11.1)"> </text><text class="cls-14" transform="translate(457.81 197.03) rotate(11.79)"> </text><text class="cls-14" transform="translate(460.4 197.57) rotate(12.48)"> </text><text class="cls-14" transform="translate(462.98 198.14) rotate(13.17)"> </text><text class="cls-14" transform="translate(465.54 198.74) rotate(13.86)"> </text><text class="cls-14" transform="matrix(0.97, 0.25, -0.25, 0.97, 468.12, 199.37)"> </text><text class="cls-14" transform="translate(470.68 200.04) rotate(15.24)"> </text><text class="cls-14" transform="matrix(0.96, 0.27, -0.27, 0.96, 473.23, 200.73)"> </text><text class="cls-14" transform="matrix(0.96, 0.29, -0.29, 0.96, 475.77, 201.46)"> </text><text class="cls-14" transform="matrix(0.95, 0.3, -0.3, 0.95, 478.29, 202.21)"> </text><text class="cls-14" transform="translate(480.82 203) rotate(18.01)"> </text><text class="cls-14" transform="translate(483.35 203.82) rotate(18.7)"> </text><text class="cls-14" transform="matrix(0.94, 0.33, -0.33, 0.94, 485.83, 204.66)"> </text><text class="cls-14" transform="translate(488.35 205.54) rotate(20.08)"> </text><text class="cls-14" transform="translate(490.74 206.37) rotate(21.6)">N</text><text class="cls-14" transform="translate(499.13 209.69) rotate(23.94)">U</text><text class="cls-14" transform="translate(507.31 213.33) rotate(26.01)">E</text><text class="cls-14" transform="translate(513.56 216.38) rotate(27.82)">S</text><text class="cls-14" transform="translate(519.75 219.63) rotate(29.65)">T</text><text class="cls-14" transform="translate(525.91 223.13) rotate(31.56)">R</text><text class="cls-14" transform="matrix(0.83, 0.56, -0.56, 0.83, 532.42, 227.1)">O</text><text class="cls-14" transform="translate(540.3 232.42) rotate(35.3)"> </text><text class="cls-14" transform="matrix(0.8, 0.6, -0.6, 0.8, 542.42, 233.88)">T</text><text class="cls-14" transform="translate(547.49 237.61) rotate(38.37)">A</text><text class="cls-14" transform="translate(554.15 242.9) rotate(40.3)">L</text><text class="cls-14" transform="matrix(0.74, 0.67, -0.67, 0.74, 559.13, 247.11)">E</text><text class="cls-14" transform="translate(564.38 251.81) rotate(44.1)">N</text><text class="cls-14" transform="matrix(0.69, 0.72, -0.72, 0.69, 570.81, 258.06)">T</text><text class="cls-14" transform="matrix(0.67, 0.75, -0.75, 0.67, 575.64, 263.04)">O</text><text class="cls-14" transform="matrix(0.65, 0.76, -0.76, 0.65, 581.92, 270.13)"> </text><text class="cls-14" transform="translate(583.64 272.16) rotate(50.45)"> </text><text class="cls-14" transform="translate(585.33 274.21) rotate(51.13)"> </text><text class="cls-14" transform="translate(586.97 276.25) rotate(51.8)"> </text><text class="cls-14" transform="translate(588.62 278.34) rotate(52.49)"> </text><text class="cls-14" transform="matrix(0.6, 0.8, -0.8, 0.6, 590.22, 280.43)"> </text><text class="cls-14" transform="translate(591.81 282.55) rotate(53.84)"> </text><text class="cls-14" transform="translate(593.38 284.7) rotate(54.53)"> </text><text class="cls-14" transform="matrix(0.57, 0.82, -0.82, 0.57, 594.9, 286.83)"> </text><text class="cls-14" transform="translate(596.42 289.02) rotate(55.89)"> </text><text class="cls-14" transform="translate(597.89 291.19) rotate(56.57)"> </text><text class="cls-14" transform="matrix(0.54, 0.84, -0.84, 0.54, 599.36, 293.41)"> </text><text class="cls-14" transform="translate(600.78 295.62) rotate(57.94)"> </text><text class="cls-14" transform="matrix(0.52, 0.85, -0.85, 0.52, 602.2, 297.88)"> </text><text class="cls-14" transform="translate(603.57 300.13) rotate(59.3)"> </text><text class="cls-14" transform="translate(604.92 302.41) rotate(59.99)"> </text><text class="cls-14" transform="translate(606.25 304.7) rotate(60.68)"> </text><text class="cls-14" transform="matrix(0.48, 0.88, -0.88, 0.48, 607.54, 307)"> </text><text class="cls-14" transform="translate(608.8 309.31) rotate(62.04)"> </text><text class="cls-14" transform="matrix(0.46, 0.89, -0.89, 0.46, 610.04, 311.64)"> </text><text class="cls-14" transform="translate(611.26 314) rotate(63.42)"> </text><text class="cls-14" transform="translate(612.44 316.37) rotate(64.1)"> </text><text class="cls-14" transform="translate(613.59 318.74) rotate(64.79)"> </text><text class="cls-14" transform="matrix(0.42, 0.91, -0.91, 0.42, 614.72, 321.14)"> </text><text class="cls-14" transform="translate(615.82 323.54) rotate(66.17)"> </text><text class="cls-14" transform="translate(616.88 325.95) rotate(66.85)"> </text><text class="cls-14" transform="matrix(0.38, 0.92, -0.92, 0.38, 617.93, 328.39)"> </text><text class="cls-14" transform="translate(618.94 330.84) rotate(68.24)"> </text><text class="cls-14" transform="translate(619.92 333.29) rotate(68.92)"> </text><text class="cls-14" transform="translate(620.87 335.75) rotate(69.61)"> </text><text class="cls-14" transform="translate(621.79 338.23) rotate(70.3)"> </text><text class="cls-14" transform="translate(622.68 340.72) rotate(70.99)"> </text><text class="cls-14" transform="translate(623.54 343.22) rotate(71.68)"> </text><text class="cls-14" transform="translate(624.38 345.74) rotate(72.38)"> </text><text class="cls-14" transform="translate(625.18 348.25) rotate(73.07)"> </text><text class="cls-14" transform="translate(625.95 350.77) rotate(73.75)"> </text><text class="cls-14" transform="matrix(0.27, 0.96, -0.96, 0.27, 626.68, 353.31)"> </text><text class="cls-14" transform="matrix(0.26, 0.97, -0.97, 0.26, 627.39, 355.86)"> </text><text class="cls-14" transform="translate(628.07 358.42) rotate(75.83)"> </text><text class="cls-14" transform="matrix(0.23, 0.97, -0.97, 0.23, 628.72, 360.99)"> </text><text class="cls-14" transform="matrix(0.22, 0.98, -0.98, 0.22, 629.34, 363.55)"> </text><text class="cls-14" transform="translate(629.92 366.13) rotate(77.9)"> </text><text class="cls-14" transform="matrix(0.2, 0.98, -0.98, 0.2, 630.48, 368.71)"> </text><text class="cls-14" transform="translate(631 371.31) rotate(79.28)"> </text><text class="cls-14" transform="translate(631.49 373.9) rotate(79.97)"> </text><text class="cls-14" transform="translate(631.95 376.49) rotate(80.66)"> </text><text class="cls-14" transform="translate(632.38 379.1) rotate(81.34)"> </text><text class="cls-14" transform="translate(632.78 381.72) rotate(82.03)"> </text><text class="cls-14" transform="translate(633.15 384.35) rotate(82.72)"> </text><text class="cls-14" transform="translate(633.49 386.96) rotate(83.41)"> </text><text class="cls-14" transform="translate(633.79 389.59) rotate(84.09)"> </text><text class="cls-14" transform="translate(634.06 392.22) rotate(84.78)"> </text><text class="cls-14" transform="translate(634.3 394.85) rotate(85.46)"> </text><text class="cls-14" transform="translate(634.51 397.5) rotate(86.15)"> </text><text class="cls-14" transform="translate(634.69 400.14) rotate(86.83)"> </text><text class="cls-14" transform="translate(634.84 402.76) rotate(87.5)"> </text><text class="cls-14" transform="translate(634.95 405.4) rotate(88.18)"> </text><text class="cls-14" transform="translate(635.04 408.06) rotate(88.86)"> </text><text class="cls-14" transform="translate(635.08 410.75) rotate(89.07)"> </text><text class="cls-14" transform="translate(635.12 413.31) rotate(90.59)"> </text><text class="cls-14" transform="translate(635.15 415.89) rotate(91.71)">D</text><text class="cls-14" transform="translate(634.9 424.6) rotate(93.88)">A</text><text class="cls-14" transform="matrix(-0.1, 1, -1, -0.1, 634.38, 432.32)">T</text><text class="cls-14" transform="translate(633.72 439.23) rotate(97.79)">O</text><text class="cls-14" transform="matrix(-0.17, 0.99, -0.99, -0.17, 632.45, 448.39)">S</text><text class="cls-14" transform="matrix(-0.19, 0.98, -0.98, -0.19, 631.2, 455.43)"> </text><text class="cls-14" transform="translate(630.74 457.94) rotate(102.53)">Y</text><text class="cls-14" transform="matrix(-0.24, 0.97, -0.97, -0.24, 628.98, 465.72)"> </text><text class="cls-14" transform="translate(628.39 468.24) rotate(105.19)">T</text><text class="cls-14" transform="translate(626.54 475.07) rotate(107.02)">E</text><text class="cls-14" transform="translate(624.53 481.66) rotate(108.92)">C</text><text class="cls-14" transform="translate(622.06 488.92) rotate(111.09)">N</text><text class="cls-14" transform="translate(618.81 497.38) rotate(113.5)">O</text><text class="cls-14" transform="matrix(-0.43, 0.9, -0.9, -0.43, 615.03, 506.02)">L</text><text class="cls-14" transform="matrix(-0.46, 0.89, -0.89, -0.46, 612.3, 511.79)">O</text><text class="cls-14" transform="translate(607.94 520.12) rotate(119.99)">G</text><text class="cls-14" transform="translate(603.39 527.94) rotate(121.64)">Í</text><text class="cls-14" transform="translate(601.57 530.97) rotate(123.2)">A</text><text class="cls-14" transform="translate(596.79 538.21) rotate(124.64)"> </text><text class="cls-14" transform="translate(595.28 540.39) rotate(125.33)"> </text><text class="cls-14" transform="translate(593.75 542.55) rotate(126.01)"> </text><text class="cls-14" transform="translate(592.2 544.69) rotate(126.69)"> </text><text class="cls-14" transform="matrix(-0.61, 0.79, -0.79, -0.61, 590.61, 546.82)"> </text><text class="cls-14" transform="matrix(-0.62, 0.79, -0.79, -0.62, 589.01, 548.92)"> </text><text class="cls-14" transform="translate(587.38 551) rotate(128.73)"> </text><text class="cls-14" transform="matrix(-0.63, 0.77, -0.77, -0.63, 585.73, 553.06)"> </text><text class="cls-14" transform="translate(584.05 555.11) rotate(130.09)"> </text><text class="cls-14" transform="matrix(-0.65, 0.76, -0.76, -0.65, 582.35, 557.13)"> </text><text class="cls-14" transform="translate(580.62 559.13) rotate(131.45)"> </text><text class="cls-14" transform="matrix(-0.67, 0.74, -0.74, -0.67, 578.87, 561.11)"> </text><text class="cls-14" transform="translate(577.1 563.07) rotate(132.8)"> </text><text class="cls-14" transform="translate(575.29 565.03) rotate(133.49)"> </text><text class="cls-14" transform="translate(573.47 566.95) rotate(134.17)"> </text><text class="cls-14" transform="translate(332.09 629.72) rotate(19.66)">G</text><text class="cls-14" transform="translate(340.95 632.89) rotate(17.25)">O</text><text class="cls-14" transform="matrix(0.97, 0.26, -0.26, 0.97, 350.4, 635.8)">B</text><text class="cls-14" transform="translate(358.34 637.89) rotate(13.45)">I</text><text class="cls-14" transform="translate(362.15 638.82) rotate(12.04)">E</text><text class="cls-14" transform="matrix(0.98, 0.18, -0.18, 0.98, 369.36, 640.37)">R</text><text class="cls-14" transform="matrix(0.99, 0.14, -0.14, 0.99, 377.39, 641.81)">N</text><text class="cls-14" transform="translate(386.74 643.11) rotate(5.51)">O</text><text class="cls-14" transform="translate(396.46 643.99) rotate(3.95)"> </text><text class="cls-14" transform="translate(399.25 644.22) rotate(2.61)">C</text><text class="cls-14" transform="translate(407.04 644.59) rotate(0.49)">O</text><text class="cls-14" transform="translate(416.92 644.66) rotate(-1.72)">R</text><text class="cls-14" transform="translate(425.08 644.41) rotate(-3.72)">P</text><text class="cls-14" transform="matrix(0.99, -0.1, 0.1, 0.99, 432.95, 643.91)">O</text><text class="cls-14" transform="translate(442.71 642.88) rotate(-8.13)">R</text><text class="cls-14" transform="translate(450.96 641.71) rotate(-10.32)">A</text><text class="cls-14" transform="translate(458.87 640.27) rotate(-12.15)">T</text><text class="cls-14" transform="matrix(0.97, -0.23, 0.23, 0.97, 466.07, 638.7)">I</text><text class="cls-14" transform="translate(469.86 637.82) rotate(-15.12)">V</text><text class="cls-14" transform="translate(477.94 635.65) rotate(-17.35)">O</text><path class="cls-15" d="M637.84,228.25a19.47,19.47,0,0,1-14.39-6.34,282.47,282.47,0,0,0-190.59-91.72,19.5,19.5,0,1,1,2.56-38.91,321.27,321.27,0,0,1,216.8,104.3,19.51,19.51,0,0,1-14.38,32.67Z"/><path class="cls-16" d="M713.84,479.57a20.35,20.35,0,0,1-3-.22,19.5,19.5,0,0,1-16.3-22.24,287.53,287.53,0,0,0,3.31-43.56,282.29,282.29,0,0,0-50.24-161.33A19.5,19.5,0,1,1,679.69,230a321.17,321.17,0,0,1,57.17,183.52A326.9,326.9,0,0,1,733.09,463,19.5,19.5,0,0,1,713.84,479.57Z"/><path class="cls-17" d="M563.87,697a19.5,19.5,0,0,1-9.67-36.45A284.76,284.76,0,0,0,685.66,496.18,19.5,19.5,0,1,1,723,507.51,323.78,323.78,0,0,1,573.5,694.39,19.44,19.44,0,0,1,563.87,697Z"/><path class="cls-18" d="M413.88,736.53a321.3,321.3,0,0,1-119.06-22.66,19.5,19.5,0,1,1,14.38-36.25,285.17,285.17,0,0,0,209.6-.09,19.5,19.5,0,1,1,14.41,36.23A321.31,321.31,0,0,1,413.88,736.53Z"/><path class="cls-19" d="M263.62,696.79a19.32,19.32,0,0,1-9.65-2.57,323.78,323.78,0,0,1-149.2-186.77,19.5,19.5,0,0,1,37.32-11.33A284.7,284.7,0,0,0,273.31,660.35a19.5,19.5,0,0,1-9.69,36.44Z"/><path class="cls-20" d="M114.07,480.55a19.51,19.51,0,0,1-19.24-16.48,327.35,327.35,0,0,1-3.93-50.52,321.21,321.21,0,0,1,56.78-183,19.5,19.5,0,1,1,32.13,22.11A282.36,282.36,0,0,0,129.9,413.55,287.88,287.88,0,0,0,133.36,458a19.5,19.5,0,0,1-16.23,22.29A19.91,19.91,0,0,1,114.07,480.55Z"/><path class="cls-21" d="M189.59,228.6A19.5,19.5,0,0,1,175.19,196,321.3,321.3,0,0,1,391.87,91.31a19.5,19.5,0,1,1,2.62,38.91,282.38,282.38,0,0,0-190.48,92A19.48,19.48,0,0,1,189.59,228.6Z"/><text class="cls-22" transform="translate(514.29 131.11) rotate(20.57)">C</text><text class="cls-22" transform="translate(522.02 134.02) rotate(22.06)">L</text><text class="cls-22" transform="translate(528.59 136.7) rotate(23.13)">I</text><text class="cls-22" transform="translate(532.23 138.23) rotate(24.24)">E</text><text class="cls-22" transform="translate(538.99 141.26) rotate(25.89)">N</text><text class="cls-22" transform="matrix(0.89, 0.46, -0.46, 0.89, 547.62, 145.46)">T</text><text class="cls-22" transform="matrix(0.87, 0.48, -0.48, 0.87, 554.36, 148.98)">E</text><text class="cls-22" transform="matrix(0.86, 0.51, -0.51, 0.86, 560.86, 152.58)">S</text><text class="cls-22" transform="translate(692.38 307.78) rotate(70.68)">A</text><text class="cls-22" transform="matrix(0.3, 0.95, -0.95, 0.3, 695.39, 316.39)">S</text><text class="cls-22" transform="translate(697.68 323.51) rotate(73.99)">O</text><text class="cls-22" transform="matrix(0.25, 0.97, -0.97, 0.25, 700.42, 333.09)">C</text><text class="cls-22" transform="translate(702.44 341.14) rotate(76.96)">I</text><text class="cls-22" transform="translate(703.35 344.95) rotate(78.23)">A</text><text class="cls-22" transform="matrix(0.17, 0.98, -0.98, 0.17, 705.21, 353.86)">D</text><text class="cls-22" transform="translate(706.89 363.39) rotate(81.95)">O</text><text class="cls-22" transform="translate(708.27 373.27) rotate(83.64)">S</text><text class="cls-22" transform="matrix(0.08, -1, 1, 0.08, 118.19, 390.78)">P</text><text class="cls-22" transform="translate(118.82 382.74) rotate(-83.95)">R</text><text class="cls-22" transform="translate(119.66 374.62) rotate(-82.2)">O</text><text class="cls-22" transform="matrix(0.17, -0.99, 0.99, 0.17, 121.01, 364.83)">V</text><text class="cls-22" transform="matrix(0.19, -0.98, 0.98, 0.19, 122.49, 356.1)">E</text><text class="cls-22" transform="matrix(0.22, -0.98, 0.98, 0.22, 123.93, 348.84)">E</text><text class="cls-22" transform="translate(125.53 341.62) rotate(-75.72)">D</text><text class="cls-22" transform="translate(127.91 332.25) rotate(-73.81)">O</text><text class="cls-22" transform="translate(130.7 322.69) rotate(-72.04)">R</text><text class="cls-22" transform="translate(133.25 314.84) rotate(-70.51)">E</text><text class="cls-22" transform="translate(135.72 307.84) rotate(-69.06)">S</text><text class="cls-22" transform="matrix(0.86, -0.51, 0.51, 0.86, 259.85, 156.94)">P</text><text class="cls-22" transform="matrix(0.87, -0.49, 0.49, 0.87, 266.81, 152.84)">L</text><text class="cls-22" transform="translate(273.08 149.33) rotate(-27.55)">A</text><text class="cls-22" transform="translate(281.16 145.11) rotate(-25.73)">N</text><text class="cls-22" transform="translate(289.79 140.96) rotate(-24.08)">E</text><text class="cls-22" transform="matrix(0.92, -0.38, 0.38, 0.92, 296.62, 137.91)">T</text><text class="cls-22" transform="matrix(0.93, -0.36, 0.36, 0.93, 302.72, 135.34)">A</text><text class="cls-22" transform="matrix(0.72, -0.7, 0.7, 0.72, 628.82, 636.8)">A</text><text class="cls-22" transform="translate(635.11 630.66) rotate(-45.84)">C</text><text class="cls-22" transform="matrix(0.68, -0.73, 0.73, 0.68, 640.56, 625.05)">C</text><text class="cls-22" transform="translate(646.19 618.93) rotate(-48.39)">I</text><text class="cls-22" transform="translate(648.83 616.01) rotate(-49.66)">O</text><text class="cls-22" transform="translate(655.27 608.42) rotate(-51.44)">N</text><text class="cls-22" transform="matrix(0.61, -0.8, 0.8, 0.61, 661.24, 600.88)">I</text><text class="cls-22" transform="matrix(0.59, -0.81, 0.81, 0.59, 663.64, 597.77)">S</text><text class="cls-22" transform="matrix(0.57, -0.82, 0.82, 0.57, 668.09, 591.7)">T</text><text class="cls-22" transform="translate(671.88 586.3) rotate(-56.46)">A</text><text class="cls-22" transform="matrix(0.53, -0.85, 0.85, 0.53, 676.93, 578.67)">S</text><text class="cls-22" transform="matrix(0.98, 0.21, -0.21, 0.98, 345.21, 714.79)">S</text><text class="cls-22" transform="matrix(0.98, 0.18, -0.18, 0.98, 352.57, 716.37)">O</text><text class="cls-22" transform="matrix(0.99, 0.15, -0.15, 0.99, 362.37, 718.15)">C</text><text class="cls-22" transform="translate(370.56 719.38) rotate(7.57)">I</text><text class="cls-22" transform="translate(374.45 719.93) rotate(6.3)">O</text><text class="cls-22" transform="translate(384.37 721.01) rotate(4.7)">S</text><text class="cls-22" transform="translate(391.87 721.61) rotate(3.76)"> </text><text class="cls-22" transform="matrix(1, 0.05, -0.05, 1, 394.66, 721.82)">C</text><text class="cls-22" transform="translate(402.48 722.21) rotate(1.18)">O</text><text class="cls-22" transform="translate(412.53 722.43) rotate(-0.79)">M</text><text class="cls-22" transform="matrix(1, -0.04, 0.04, 1, 424.3, 722.24)">E</text><text class="cls-22" transform="translate(431.72 721.92) rotate(-3.95)">R</text><text class="cls-22" transform="matrix(1, -0.09, 0.09, 1, 439.88, 721.35)">C</text><text class="cls-22" transform="translate(448.13 720.55) rotate(-6.56)">I</text><text class="cls-22" transform="translate(452.04 720.13) rotate(-7.76)">A</text><text class="cls-22" transform="translate(461.1 718.88) rotate(-9.25)">L</text><text class="cls-22" transform="translate(468.1 717.74) rotate(-10.59)">E</text><text class="cls-22" transform="translate(475.4 716.38) rotate(-11.97)">S</text><text class="cls-22" transform="translate(146.06 570.42) rotate(58.31)">C</text><text class="cls-22" transform="translate(150.18 577.13) rotate(56.71)">O</text><text class="cls-22" transform="translate(155.63 585.46) rotate(54.73)">M</text><text class="cls-22" transform="translate(162.44 595.05) rotate(52.78)">U</text><text class="cls-22" transform="matrix(0.63, 0.78, -0.78, 0.63, 168.17, 602.6)">N</text><text class="cls-22" transform="translate(174.23 610.05) rotate(49.8)">I</text><text class="cls-22" transform="translate(176.76 613.1) rotate(48.56)">D</text><text class="cls-22" transform="matrix(0.68, 0.73, -0.73, 0.68, 183.01, 620.17)">A</text><text class="cls-22" transform="translate(189.23 626.82) rotate(45.17)">D</text></svg>