<?xml version="1.0" encoding="utf-8"?>
<!-- Generator: Adobe Illustrator 25.2.1, SVG Export Plug-In . SVG Version: 6.00 Build 0)  -->
<svg version="1.1" id="Capa_1" xmlns="http://www.w3.org/2000/svg" xmlns:xlink="http://www.w3.org/1999/xlink" x="0px" y="0px"
	 viewBox="0 0 742.8 742.8" style="enable-background:new 0 0 742.8 742.8;" xml:space="preserve">
<style type="text/css">
	.st0{fill:#FFFFFF;}
	.st1{fill:#002F87;}
	.st2{fill:#FFB71B;}
	.st3{fill:#76BC21;}
	.st4{fill:#0071CE;}
	.st5{fill:none;stroke:#002F87;stroke-miterlimit:10;}
	.st6{fill:none;stroke:#76BC21;stroke-miterlimit:10;}
	.st7{fill:none;stroke:#FFB71B;stroke-miterlimit:10;}
</style>
<g>
	<path class="st0" d="M634,108.8C563.9,38.6,470.6,0,371.4,0S178.9,38.6,108.8,108.8C38.6,178.9,0,272.2,0,371.4
		S38.6,563.9,108.8,634c70.2,70.2,163.4,108.8,262.6,108.8S563.9,704.2,634,634c70.2-70.2,108.8-163.4,108.8-262.6
		S704.2,178.9,634,108.8z M536.4,657.3c-50.9,29.4-107.3,44.4-164.5,44.4c-28.7,0-57.5-3.8-86-11.4
		c-85.2-22.8-156.4-77.4-200.5-153.8c-30.2-52.3-44.2-104.7-44.2-165.1c0-88.2,34.3-171.1,96.7-233.4
		c62.4-62.4,145.3-96.7,233.4-96.7c60.3,0,112.8,14.1,165.1,44.2c76.4,44.1,131,115.3,153.8,200.5c22.8,85.2,11.1,174.1-33,250.5
		C627.1,588.7,588.7,627.1,536.4,657.3z"/>
	<path class="st1" d="M639.3,553.8c3.3-4.8,4.3-10.6,3-16.3c-1.3-5.6-4.8-10.3-9.8-13.2c-9.3-5.4-21.3-2.6-27.4,6.2
		c-53,77.1-140.3,123.2-233.8,123.2c-93.4,0-180.8-46.1-233.8-123.2c-4-5.8-10.5-9-17.2-9c-3.5,0-7,0.9-10.2,2.7
		c-5,2.9-8.5,7.6-9.8,13.3c-1.3,5.7-0.2,11.5,3.1,16.3c46,67.3,115.3,114.5,195.1,132.9c80.2,18.4,163.7,5.9,235-35.3
		C578.3,625.7,611.9,594.7,639.3,553.8z"/>
	<path class="st2" d="M163.9,177.3c48.7-52.3,114.6-84.1,185.6-89.5c10.7-0.8,19.1-9.8,19.1-20.6c0-5.8-2.3-11.2-6.6-15.1
		c-3.9-3.6-8.8-5.5-14-5.5c-0.5,0-1.1,0-1.6,0.1C265,52.9,189.5,89.3,133.7,149.2c-56.1,60.2-87,138.8-87,221.1
		c0,51.5,10.1,96.1,31.8,140.3c2.6,5.2,7.1,9.1,12.6,10.8c5.5,1.7,11.3,1,16.3-1.9c9.3-5.4,13-17.2,8.3-26.9
		C97.3,454.3,88,413.2,88,370.4C88,298.5,115,229.9,163.9,177.3z"/>
	<path class="st3" d="M635.3,519.5c5.1,2.9,10.8,3.6,16.3,1.9c5.6-1.7,10-5.5,12.6-10.8c21.7-44.2,31.8-88.8,31.8-140.3
		c0-82.3-30.9-160.9-87-221.1C553.3,89.3,477.8,52.9,396.5,46.7c-0.5,0-1.1-0.1-1.6-0.1c-5.2,0-10.2,1.9-14,5.5
		c-4.3,3.9-6.6,9.3-6.6,15.1c0,10.7,8.4,19.8,19.1,20.6c71,5.4,136.9,37.2,185.6,89.5c48.9,52.6,75.9,121.1,75.9,193
		c0,42.8-9.3,83.9-27.7,122.3C622.4,502.4,626.1,514.2,635.3,519.5z"/>
	<path class="st0" d="M567.9,173.9c-52.5-52.5-122.3-81.4-196.5-81.4c-74.2,0-144,28.9-196.5,81.4c-52.5,52.5-81.4,122.3-81.4,196.5
		c0,74.2,28.9,144,81.4,196.5s122.3,81.4,196.5,81.4s144-28.9,196.5-81.4c52.5-52.5,81.4-122.3,81.4-196.5S620.4,226.4,567.9,173.9z
		"/>
	
		<ellipse transform="matrix(0.9239 -0.3827 0.3827 0.9239 -113.4779 170.3238)" class="st4" cx="371.4" cy="370.4" rx="40" ry="40"/>
	<g>
		<path class="st2" d="M371.4,362.2c1.1,0,2-0.6,2.1-1.3l1.1-12.2c0-1.2-1.4-2.2-3.2-2.2s-3.2,1-3.2,2.2l1.1,12.2
			C369.4,361.6,370.3,362.2,371.4,362.2L371.4,362.2z"/>
		<path class="st2" d="M364.8,366c0.5-0.9,0.5-2-0.1-2.5l-10-7c-1-0.6-2.6,0.1-3.5,1.7c-0.9,1.5-0.7,3.3,0.3,3.9l11.1,5.2
			C363.3,367.4,364.3,367,364.8,366L364.8,366z"/>
		<path class="st2" d="M378,366c0.5,0.9,1.5,1.4,2.2,1.2l11.1-5.2c1-0.6,1.2-2.3,0.3-3.9c-0.9-1.5-2.5-2.3-3.5-1.7l-10,7
			C377.5,364,377.5,365.1,378,366L378,366z"/>
		<path class="st2" d="M378,373.6c0.5-0.9,1.5-1.4,2.2-1.2l11.1,5.2c1,0.6,1.2,2.3,0.3,3.9c-0.9,1.5-2.5,2.3-3.5,1.7l-10-7
			C377.5,375.6,377.5,374.6,378,373.6L378,373.6z"/>
		<path class="st2" d="M364.8,373.6c0.5,0.9,0.5,2-0.1,2.5l-10,7c-1,0.6-2.6-0.1-3.5-1.7c-0.9-1.5-0.7-3.3,0.3-3.9l11.1-5.2
			C363.3,372.2,364.3,372.7,364.8,373.6L364.8,373.6z"/>
		<path class="st2" d="M371.4,377.4c1.1,0,2,0.6,2.1,1.3l1.1,12.2c0,1.2-1.4,2.2-3.2,2.2s-3.2-1-3.2-2.2l1.1-12.2
			C369.4,378,370.3,377.4,371.4,377.4L371.4,377.4z"/>
		<path class="st2" d="M376.2,391.5L376.2,391.5c0.2,0,0.3,0,0.3-0.1c0-0.1-0.1-0.1-0.2-0.1c0,0-0.1,0-0.1,0V391.5z M376.2,392h-0.2
			v-0.9c0.1,0,0.2,0,0.4,0c0.2,0,0.3,0,0.3,0.1c0.1,0,0.1,0.1,0.1,0.2c0,0.1-0.1,0.2-0.2,0.2v0c0.1,0,0.1,0.1,0.2,0.2
			c0,0.1,0,0.2,0.1,0.2h-0.3c0,0,0-0.1-0.1-0.2c0-0.1-0.1-0.1-0.2-0.1h-0.1V392z M376.3,390.9c-0.4,0-0.7,0.3-0.7,0.7
			s0.3,0.7,0.7,0.7c0.4,0,0.7-0.3,0.7-0.7S376.7,390.9,376.3,390.9L376.3,390.9z M376.3,390.7c0.5,0,0.9,0.4,0.9,0.9
			c0,0.5-0.4,0.9-0.9,0.9c-0.5,0-0.9-0.4-0.9-0.9C375.4,391.1,375.8,390.7,376.3,390.7L376.3,390.7z"/>
	</g>
	<circle class="st1" cx="218.8" cy="551.7" r="8.4"/>
	<circle class="st1" cx="523.7" cy="552.3" r="8.4"/>
	<circle class="st1" cx="369.9" cy="608.3" r="8.4"/>
	<path class="st5" d="M175.1,504.7c44.4,64.6,117.6,103.2,195.8,103.2c78.3,0,151.5-38.6,195.8-103.2"/>
	<circle class="st3" cx="604.1" cy="329.4" r="8.4"/>
	<circle class="st3" cx="523.7" cy="189.2" r="8.4"/>
	<circle class="st3" cx="575" cy="250" r="8.4"/>
	<path class="st6" d="M585.2,472.9c15.4-32.1,23.2-66.6,23.2-102.4c0-60.2-22.6-117.6-63.6-161.7c-40.8-43.8-96-70.5-155.5-75"/>
	<path class="st7" d="M351.8,99.2"/>
	<g>
		<circle class="st2" cx="218" cy="189.2" r="8.4"/>
		<circle class="st2" cx="136.9" cy="330.4" r="8.4"/>
		<path class="st7" d="M352.7,133.7c-59.5,4.5-114.7,31.2-155.5,75c-41,44.1-63.6,101.5-63.6,161.7c0,35.9,7.8,70.3,23.2,102.4"/>
	</g>
	<g>
		<g>
			<path class="st0" d="M618.9,197.2l-1.9-2.7l-1.7,1.2l2.1,3l-1.3,1l-3.3-4.6l7.2-5.2l3.2,4.5l-1.3,1l-2-2.8l-1.5,1.1l1.9,2.7
				L618.9,197.2z"/>
			<path class="st0" d="M616.9,200.9l7.4-5l1.3,1.9l-1.7,3.4c-0.5,1-1.1,2-1.7,2.9l0,0c0.9-0.8,1.9-1.5,3-2.2l2.1-1.5l1,1.5l-7.4,5
				l-1.2-1.7l1.8-3.5c0.5-1,1.1-2.1,1.7-3l0,0c-0.9,0.7-2,1.4-3.2,2.2l-2.2,1.5L616.9,200.9z"/>
			<path class="st0" d="M623.1,210.2l6-7.2l1.2,1.9l-2.6,2.9c-0.7,0.8-1.4,1.6-2.3,2.4l0,0c1-0.4,2.1-0.7,3.1-1l3.8-1.1l1.2,1.8
				l-9.1,2.3L623.1,210.2z"/>
			<path class="st0" d="M635.1,212.6l-7.6,4.6l-1.1-1.7l7.6-4.6L635.1,212.6z"/>
			<path class="st0" d="M636,214.3c0.4,0.5,1,1.3,1.5,2.2c0.7,1.1,1,2,0.8,2.8c-0.1,0.7-0.5,1.2-1.2,1.6c-1,0.6-2.1,0.3-2.7-0.3l0,0
				c0.1,0.7-0.2,1.3-0.8,1.9c-0.7,0.7-1.6,1.6-1.8,1.9l-1-1.8c0.1-0.3,0.7-0.8,1.5-1.6c0.8-0.8,0.9-1.2,0.5-2l-0.3-0.5l-3,1.8
				l-1-1.7L636,214.3z M633.7,218l0.4,0.7c0.5,0.9,1.2,1.1,1.9,0.7c0.7-0.4,0.8-1.1,0.3-1.9c-0.2-0.4-0.4-0.6-0.5-0.8L633.7,218z"/>
			<path class="st0" d="M640.2,230.4c-2.6,1.4-5,0.7-6.2-1.6c-1.3-2.3-0.3-4.6,2-5.8c2.3-1.3,4.9-0.7,6.2,1.6
				C643.5,227,642.4,229.2,640.2,230.4z M637.1,224.8c-1.5,0.8-2.2,2.1-1.6,3.3c0.7,1.2,2.2,1.3,3.7,0.4c1.4-0.8,2.2-2.1,1.6-3.3
				C640.1,224.1,638.6,224,637.1,224.8z"/>
			<path class="st0" d="M636.9,233.8l7.9-4l1.1,2.1l-2.1,3.1c-0.6,0.9-1.3,1.9-2.1,2.7l0,0c1-0.6,2-1.2,3.2-1.8l2.3-1.2l0.8,1.6
				l-7.9,4l-1-1.9l2.2-3.2c0.6-0.9,1.4-1.9,2.1-2.8l0,0c-1,0.6-2.1,1.2-3.4,1.8l-2.4,1.2L636.9,233.8z"/>
			<path class="st0" d="M647.3,247.4c1-0.5,2.1-1.1,3.3-1.6l0,0c-1.1,0.2-2.5,0.4-3.5,0.6l-3.6,0.5l-0.7-1.4l2.7-2.3
				c0.8-0.7,1.8-1.5,2.8-2.2l0,0c-1.1,0.5-2.4,1-3.4,1.4l-3.1,1.3l-0.8-1.7l8.3-3.2l1.1,2.4l-2.3,2c-0.8,0.7-1.7,1.4-2.6,2l0,0
				c1-0.2,2.2-0.4,3.3-0.6l3.1-0.4l1.1,2.4l-7.9,4.2l-0.8-1.8L647.3,247.4z"/>
			<path class="st0" d="M651.2,255.6l-1.3-3l-1.9,0.8l1.4,3.4l-1.5,0.6l-2.2-5.2l8.2-3.5l2.2,5.1l-1.5,0.6l-1.4-3.2l-1.7,0.7l1.3,3
				L651.2,255.6z"/>
			<path class="st0" d="M648.5,258.8l8.3-3.3l0.9,2.2l-2.4,2.9c-0.7,0.8-1.5,1.7-2.3,2.5l0,0c1-0.6,2.1-1,3.4-1.5l2.4-1l0.7,1.7
				l-8.3,3.3l-0.8-2l2.5-3c0.7-0.8,1.5-1.8,2.4-2.6l0,0c-1.1,0.5-2.2,1-3.6,1.5l-2.5,1L648.5,258.8z"/>
			<path class="st0" d="M659.1,266.3l-0.8-2.2l1.6-0.6l2.3,6.4l-1.6,0.6l-0.8-2.3l-6.8,2.5l-0.7-1.9L659.1,266.3z"/>
			<path class="st0" d="M656.8,274.5l-2.4,0.1l-0.7-2l9.3-0.3l0.8,2.5l-7.6,5.5l-0.7-2.1l1.9-1.4L656.8,274.5z M658.9,276.1l1.6-1.1
				c0.5-0.3,1-0.7,1.5-1l0,0c-0.5,0-1.2,0.1-1.8,0.2l-2,0.1L658.9,276.1z"/>
			<path class="st0" d="M665.2,278.7l0.6,1.9l-6.9,2.1l1,3.4l-1.6,0.5l-1.6-5.3L665.2,278.7z"/>
		</g>
	</g>
	<g>
		<path class="st0" d="M344.6,675.8c-0.6,0.1-1.8,0.3-3,0.2c-1.6-0.2-2.7-0.7-3.5-1.5c-0.7-0.8-1.1-2-0.9-3.3
			c0.3-2.9,2.6-4.4,5.5-4.1c1.1,0.1,2,0.4,2.4,0.7l-0.6,1.6c-0.5-0.3-1.1-0.5-2-0.6c-1.7-0.2-3,0.7-3.2,2.6c-0.2,1.8,0.9,3,2.5,3.2
			c0.5,0,0.8,0,1,0l0.2-1.9l-1.4-0.1l0.2-1.6l3.3,0.3L344.6,675.8z"/>
		<path class="st0" d="M354.7,672.4c-0.2,2.9-2.1,4.6-4.7,4.4c-2.6-0.2-4-2.3-3.9-4.8c0.2-2.7,2-4.5,4.6-4.4
			C353.5,667.8,354.8,669.9,354.7,672.4z M348.2,672.1c-0.1,1.7,0.6,3,2,3.1c1.4,0.1,2.2-1.1,2.3-2.9c0.1-1.6-0.6-3-1.9-3.1
			C349.2,669.1,348.4,670.4,348.2,672.1z"/>
		<path class="st0" d="M357.6,677.1l-2.5-9l2.2,0.1l0.9,3.8c0.3,1.1,0.5,2.1,0.7,3.2l0,0c0.3-1.1,0.6-2.1,0.9-3.1l1.3-3.8l2.1,0.1
			l-3.3,8.8L357.6,677.1z"/>
		<path class="st0" d="M369.3,673.6l-3.3,0l0,2.1l3.7,0.1l0,1.6l-5.7-0.1l0.1-8.9l5.5,0.1l0,1.6l-3.5-0.1l0,1.8l3.3,0L369.3,673.6z"
			/>
		<path class="st0" d="M371.3,668.6c0.6-0.1,1.6-0.2,2.7-0.2c1.3,0,2.2,0.2,2.9,0.7c0.5,0.4,0.8,1,0.8,1.9c0,1.1-0.8,1.9-1.5,2.2
			l0,0c0.6,0.2,1,0.8,1.2,1.7c0.3,1,0.6,2.2,0.8,2.5l-2.1,0c-0.1-0.2-0.4-1-0.6-2.1c-0.2-1.1-0.6-1.4-1.5-1.4l-0.6,0l0,3.5l-2,0
			L371.3,668.6z M373.3,672.4l0.8,0c1,0,1.6-0.5,1.6-1.3c0-0.8-0.6-1.2-1.5-1.2c-0.5,0-0.8,0-0.9,0.1L373.3,672.4z"/>
		<path class="st0" d="M379.4,677.3l-0.3-8.9l2.3-0.1l2,3.2c0.6,0.9,1.1,2,1.6,3l0,0c-0.2-1.2-0.3-2.4-0.3-3.7l-0.1-2.6l1.8-0.1
			l0.3,8.9l-2.1,0.1l-2-3.4c-0.6-0.9-1.2-2.1-1.7-3.1l0,0c0.1,1.2,0.2,2.4,0.2,3.9l0.1,2.7L379.4,677.3z"/>
		<path class="st0" d="M390.4,674.5l-0.5,2.3l-2.1,0.1l2.1-9.1l2.6-0.2l3.3,8.7l-2.2,0.1l-0.8-2.2L390.4,674.5z M392.6,672.9
			l-0.7-1.8c-0.2-0.5-0.4-1.2-0.6-1.7l0,0c-0.1,0.5-0.2,1.2-0.3,1.7l-0.4,1.9L392.6,672.9z"/>
		<path class="st0" d="M397.2,676.3l-0.8-8.9l2.3-0.2l2.1,3.1c0.6,0.9,1.2,1.9,1.7,2.9l0,0c-0.2-1.2-0.4-2.3-0.5-3.7l-0.2-2.6
			l1.8-0.2l0.8,8.9l-2.1,0.2l-2.2-3.2c-0.6-0.9-1.3-2-1.8-3l0,0c0.2,1.2,0.3,2.4,0.4,3.9l0.3,2.7L397.2,676.3z"/>
		<path class="st0" d="M412.8,674.4c-0.3,0.2-1.1,0.5-2.2,0.7c-3.1,0.4-4.9-1.3-5.2-3.9c-0.4-3,1.6-5,4.3-5.3c1-0.1,1.8,0,2.2,0.1
			l-0.2,1.6c-0.4-0.1-1-0.2-1.7-0.1c-1.6,0.2-2.7,1.3-2.5,3.3c0.2,1.8,1.4,2.8,3.2,2.5c0.6-0.1,1.3-0.3,1.6-0.5L412.8,674.4z"/>
		<path class="st0" d="M418.9,670l-3.2,0.5l0.3,2.1l3.6-0.5l0.2,1.6l-5.6,0.8l-1.3-8.8l5.4-0.8l0.2,1.6l-3.4,0.5l0.3,1.8l3.2-0.5
			L418.9,670z"/>
	</g>
	<g>
		<g>
			<path class="st0" d="M96.1,254.3c0.5-0.4,1.1-1,1.4-1.8c0.4-0.8,0.2-1.4-0.3-1.7c-0.5-0.2-1,0-1.7,0.9c-1.1,1.1-2.2,1.7-3.4,1.2
				c-1.4-0.6-1.9-2.2-1.1-4.2c0.4-0.9,0.9-1.5,1.3-1.9l1.3,1.1c-0.3,0.3-0.8,0.7-1.1,1.5c-0.4,0.8-0.2,1.3,0.3,1.5
				c0.5,0.2,1-0.1,1.8-1c1.2-1.2,2.2-1.6,3.4-1c1.4,0.6,2.1,2.2,1.1,4.4c-0.4,0.9-1.1,1.7-1.5,2.1L96.1,254.3z"/>
			<path class="st0" d="M100.2,239.5c2.6,1.2,3.5,3.6,2.4,5.9c-1.1,2.4-3.6,2.9-5.9,1.9c-2.4-1.1-3.5-3.5-2.4-5.9
				C95.5,239,98,238.5,100.2,239.5z M97.5,245.4c1.6,0.7,3,0.5,3.6-0.7c0.6-1.2-0.3-2.5-1.8-3.2c-1.4-0.7-3-0.6-3.6,0.7
				C95.1,243.4,96,244.7,97.5,245.4z"/>
			<path class="st0" d="M107.6,234.4c0,0.4-0.2,1.2-0.7,2.2c-1.4,2.7-3.8,3.3-6.1,2.1c-2.7-1.4-3.2-4.1-2-6.5c0.5-0.9,1-1.5,1.3-1.8
				l1.2,1.1c-0.3,0.3-0.7,0.7-1.1,1.4c-0.7,1.4-0.4,3,1.3,3.9c1.6,0.8,3.1,0.4,3.9-1.2c0.3-0.5,0.5-1.2,0.5-1.6L107.6,234.4z"/>
			<path class="st0" d="M101.5,227.5l7.8,4.2l-1,1.8l-7.8-4.2L101.5,227.5z"/>
			<path class="st0" d="M109.1,227.3l1.7,1.7l-1,1.8l-6.4-6.7l1.3-2.3l9.1,1.9l-1.1,1.9l-2.3-0.5L109.1,227.3z M108.9,224.6
				l-1.9-0.4c-0.5-0.1-1.2-0.3-1.7-0.4l0,0c0.4,0.4,0.9,0.8,1.3,1.2l1.4,1.4L108.9,224.6z"/>
			<path class="st0" d="M106.6,218.3l1-1.7l6.2,3.7l1.8-3l1.5,0.9l-2.8,4.8L106.6,218.3z"/>
		</g>
	</g>
	<g>
		<path class="st2" d="M230.6,199.7h-2.2v-1.5h6.2v1.5h-2.2v6.5h-1.8V199.7z"/>
		<path class="st2" d="M243,202.2c0,2.7-1.6,4.3-4,4.3c-2.4,0-3.8-1.8-3.8-4.1c0-2.4,1.5-4.2,3.9-4.2
			C241.7,198.1,243,199.9,243,202.2z M237.2,202.3c0,1.6,0.7,2.7,2,2.7c1.2,0,1.9-1.2,1.9-2.7c0-1.5-0.7-2.7-2-2.7
			C237.9,199.5,237.2,200.7,237.2,202.3z"/>
		<path class="st2" d="M253.1,206.1c-0.3,0.2-1.1,0.3-2.1,0.3c-2.8,0-4.2-1.7-4.2-4c0-2.8,2-4.3,4.4-4.3c0.9,0,1.7,0.2,2,0.4
			l-0.4,1.5c-0.4-0.2-0.9-0.3-1.5-0.3c-1.5,0-2.6,0.9-2.6,2.7c0,1.6,1,2.6,2.6,2.6c0.6,0,1.2-0.1,1.5-0.3L253.1,206.1z"/>
		<path class="st2" d="M254.4,198.3c0.6-0.1,1.5-0.2,2.4-0.2c1.2,0,2,0.2,2.6,0.6c0.5,0.4,0.7,0.9,0.7,1.7c0,1-0.7,1.7-1.4,2v0
			c0.6,0.2,0.9,0.8,1.1,1.5c0.3,0.9,0.5,2,0.7,2.3h-1.9c-0.1-0.2-0.3-0.9-0.6-1.9c-0.2-1-0.6-1.3-1.3-1.3h-0.6v3.2h-1.8V198.3z
			 M256.3,201.8h0.7c0.9,0,1.5-0.5,1.5-1.2c0-0.7-0.5-1.1-1.3-1.1c-0.4,0-0.7,0-0.8,0.1V201.8z"/>
		<path class="st2" d="M266.7,202.9h-3v1.9h3.3v1.5h-5.2v-8.1h5v1.5h-3.2v1.7h3V202.9z"/>
		<path class="st2" d="M270.5,204.2l-0.6,2.1H268l2.5-8.1h2.4l2.5,8.1h-2l-0.6-2.1H270.5z M272.5,202.8l-0.5-1.7
			c-0.1-0.5-0.3-1.1-0.4-1.6h0c-0.1,0.5-0.2,1.1-0.4,1.6l-0.5,1.7H272.5z"/>
		<path class="st2" d="M277.4,199.7h-2.2v-1.5h6.2v1.5h-2.2v6.5h-1.8V199.7z"/>
		<path class="st2" d="M287.4,202.9h-3v1.9h3.3v1.5h-5.2v-8.1h5v1.5h-3.2v1.7h3V202.9z"/>
		<path class="st2" d="M236.4,216.4c0,2.7-1.6,4.3-4,4.3c-2.4,0-3.8-1.8-3.8-4.1c0-2.4,1.5-4.2,3.9-4.2
			C235,212.3,236.4,214.2,236.4,216.4z M230.6,216.5c0,1.6,0.7,2.7,2,2.7c1.2,0,1.9-1.2,1.9-2.7c0-1.5-0.7-2.7-2-2.7
			C231.3,213.7,230.6,214.9,230.6,216.5z"/>
		<path class="st2" d="M237.9,212.5c0.6-0.1,1.4-0.2,2.5-0.2c1.1,0,1.9,0.2,2.5,0.6c0.5,0.4,0.9,1.1,0.9,1.9s-0.3,1.5-0.7,1.9
			c-0.6,0.6-1.5,0.9-2.6,0.9c-0.2,0-0.5,0-0.6,0v2.9h-1.8V212.5z M239.7,216.2c0.2,0,0.3,0,0.6,0c1,0,1.6-0.5,1.6-1.3
			c0-0.7-0.5-1.2-1.4-1.2c-0.4,0-0.6,0-0.8,0.1V216.2z"/>
		<path class="st2" d="M244.9,212.5c0.6-0.1,1.4-0.2,2.5-0.2c1.1,0,1.9,0.2,2.5,0.6c0.5,0.4,0.9,1.1,0.9,1.9s-0.3,1.5-0.7,1.9
			c-0.6,0.6-1.5,0.9-2.6,0.9c-0.2,0-0.5,0-0.6,0v2.9h-1.8V212.5z M246.7,216.2c0.2,0,0.3,0,0.6,0c1,0,1.6-0.5,1.6-1.3
			c0-0.7-0.5-1.2-1.4-1.2c-0.4,0-0.6,0-0.8,0.1V216.2z"/>
		<path class="st2" d="M259.5,216.4c0,2.7-1.6,4.3-4,4.3c-2.4,0-3.8-1.8-3.8-4.1c0-2.4,1.5-4.2,3.9-4.2
			C258.1,212.3,259.5,214.2,259.5,216.4z M253.6,216.5c0,1.6,0.7,2.7,2,2.7c1.2,0,1.9-1.2,1.9-2.7c0-1.5-0.7-2.7-2-2.7
			C254.4,213.7,253.6,214.9,253.6,216.5z"/>
		<path class="st2" d="M260.9,212.5c0.6-0.1,1.5-0.2,2.4-0.2c1.2,0,2,0.2,2.6,0.6c0.5,0.4,0.7,0.9,0.7,1.7c0,1-0.7,1.7-1.4,2v0
			c0.6,0.2,0.9,0.8,1.1,1.5c0.3,0.9,0.5,2,0.7,2.3h-1.9c-0.1-0.2-0.3-0.9-0.6-1.9c-0.2-1-0.6-1.3-1.3-1.3h-0.6v3.2h-1.8V212.5z
			 M262.8,216h0.7c0.9,0,1.5-0.5,1.5-1.2c0-0.7-0.5-1.1-1.3-1.1c-0.4,0-0.7,0-0.8,0.1V216z"/>
		<path class="st2" d="M269.9,214h-2.2v-1.5h6.2v1.5h-2.2v6.5h-1.8V214z"/>
		<path class="st2" d="M276.9,212.4v4.7c0,1.4,0.5,2.1,1.5,2.1c1,0,1.5-0.7,1.5-2.1v-4.7h1.8v4.5c0,2.5-1.3,3.7-3.4,3.7
			c-2,0-3.2-1.1-3.2-3.7v-4.5H276.9z"/>
		<path class="st2" d="M283.5,220.5v-8.1h2.1l1.7,3c0.5,0.9,1,1.9,1.3,2.8h0c-0.1-1.1-0.2-2.2-0.2-3.4v-2.4h1.7v8.1h-1.9l-1.7-3.1
			c-0.5-0.9-1-1.9-1.4-2.9l0,0c0,1.1,0.1,2.2,0.1,3.5v2.4H283.5z"/>
		<path class="st2" d="M293.9,212.4v8.1h-1.8v-8.1H293.9z"/>
		<path class="st2" d="M297.2,214H295v-1.5h6.2v1.5H299v6.5h-1.8V214z"/>
		<path class="st2" d="M304.2,212.4v8.1h-1.8v-8.1H304.2z"/>
		<path class="st2" d="M310.8,217.1h-3v1.9h3.3v1.5H306v-8.1h5v1.5h-3.2v1.7h3V217.1z"/>
		<path class="st2" d="M312.7,218.6c0.5,0.3,1.2,0.5,2,0.5c0.8,0,1.3-0.3,1.3-0.9c0-0.5-0.4-0.8-1.4-1.1c-1.3-0.5-2.2-1.2-2.2-2.4
			c0-1.4,1.2-2.4,3.1-2.4c0.9,0,1.6,0.2,2.1,0.4l-0.4,1.5c-0.3-0.2-0.9-0.4-1.7-0.4s-1.2,0.4-1.2,0.8c0,0.5,0.5,0.7,1.5,1.1
			c1.4,0.5,2.1,1.3,2.1,2.4c0,1.4-1,2.5-3.3,2.5c-0.9,0-1.8-0.2-2.3-0.5L312.7,218.6z"/>
		<path class="st2" d="M229,226.7h4.9v1.5h-3.1v1.8h2.9v1.5h-2.9v3.2H229V226.7z"/>
		<path class="st2" d="M242.8,230.6c0,2.7-1.6,4.3-4,4.3c-2.4,0-3.8-1.8-3.8-4.1c0-2.4,1.5-4.2,3.9-4.2
			C241.4,226.5,242.8,228.4,242.8,230.6z M236.9,230.7c0,1.6,0.7,2.7,2,2.7c1.2,0,1.9-1.2,1.9-2.7c0-1.5-0.7-2.7-2-2.7
			C237.6,228,236.9,229.1,236.9,230.7z"/>
		<path class="st2" d="M244.2,226.8c0.6-0.1,1.5-0.2,2.4-0.2c1.2,0,2,0.2,2.6,0.6c0.5,0.4,0.7,0.9,0.7,1.7c0,1-0.7,1.7-1.4,2v0
			c0.6,0.2,0.9,0.8,1.1,1.5c0.3,0.9,0.5,2,0.7,2.3h-1.9c-0.1-0.2-0.3-0.9-0.6-1.9c-0.2-1-0.6-1.3-1.3-1.3H246v3.2h-1.8V226.8z
			 M246,230.2h0.7c0.9,0,1.5-0.5,1.5-1.2c0-0.7-0.5-1.1-1.3-1.1c-0.4,0-0.7,0-0.8,0.1V230.2z"/>
		<path class="st2" d="M261.7,230.6c0,2.7-1.6,4.3-4,4.3c-2.4,0-3.8-1.8-3.8-4.1c0-2.4,1.5-4.2,3.9-4.2
			C260.3,226.5,261.7,228.4,261.7,230.6z M255.8,230.7c0,1.6,0.7,2.7,2,2.7c1.2,0,1.9-1.2,1.9-2.7c0-1.5-0.7-2.7-2-2.7
			C256.5,228,255.8,229.1,255.8,230.7z"/>
		<path class="st2" d="M264.9,226.7v4.7c0,1.4,0.5,2.1,1.5,2.1c1,0,1.5-0.7,1.5-2.1v-4.7h1.8v4.5c0,2.5-1.3,3.7-3.4,3.7
			c-2,0-3.2-1.1-3.2-3.7v-4.5H264.9z"/>
		<path class="st2" d="M271.5,226.8c0.6-0.1,1.5-0.2,2.4-0.2c1.2,0,2,0.2,2.6,0.6c0.5,0.4,0.7,0.9,0.7,1.7c0,1-0.7,1.7-1.4,2v0
			c0.6,0.2,0.9,0.8,1.1,1.5c0.3,0.9,0.5,2,0.7,2.3h-1.9c-0.1-0.2-0.3-0.9-0.6-1.9c-0.2-1-0.6-1.3-1.3-1.3h-0.6v3.2h-1.8V226.8z
			 M273.3,230.2h0.7c0.9,0,1.5-0.5,1.5-1.2c0-0.7-0.5-1.1-1.3-1.1c-0.4,0-0.7,0-0.8,0.1V230.2z"/>
		<path class="st2" d="M283.4,232.7l-0.6,2.1h-1.9l2.5-8.1h2.4l2.5,8.1h-2l-0.6-2.1H283.4z M285.4,231.3l-0.5-1.7
			c-0.1-0.5-0.3-1.1-0.4-1.6h0c-0.1,0.5-0.2,1.1-0.4,1.6l-0.5,1.7H285.4z"/>
		<path class="st2" d="M289.7,232.9c0.5,0.3,1.2,0.5,2,0.5c0.8,0,1.3-0.3,1.3-0.9c0-0.5-0.4-0.8-1.4-1.1c-1.3-0.5-2.2-1.2-2.2-2.4
			c0-1.4,1.2-2.4,3.1-2.4c0.9,0,1.6,0.2,2.1,0.4l-0.4,1.5c-0.3-0.2-0.9-0.4-1.7-0.4s-1.2,0.4-1.2,0.8c0,0.5,0.5,0.7,1.5,1.1
			c1.4,0.5,2.1,1.3,2.1,2.4c0,1.4-1,2.5-3.3,2.5c-0.9,0-1.8-0.2-2.3-0.5L289.7,232.9z"/>
		<path class="st2" d="M296.2,232.9c0.5,0.3,1.2,0.5,2,0.5c0.8,0,1.3-0.3,1.3-0.9c0-0.5-0.4-0.8-1.4-1.1c-1.3-0.5-2.2-1.2-2.2-2.4
			c0-1.4,1.2-2.4,3.1-2.4c0.9,0,1.6,0.2,2.1,0.4l-0.4,1.5c-0.3-0.2-0.9-0.4-1.7-0.4s-1.2,0.4-1.2,0.8c0,0.5,0.5,0.7,1.5,1.1
			c1.4,0.5,2.1,1.3,2.1,2.4c0,1.4-1,2.5-3.3,2.5c-0.9,0-1.8-0.2-2.3-0.5L296.2,232.9z"/>
		<path class="st2" d="M310.2,230.6c0,2.7-1.6,4.3-4,4.3c-2.4,0-3.8-1.8-3.8-4.1c0-2.4,1.5-4.2,3.9-4.2
			C308.8,226.5,310.2,228.4,310.2,230.6z M304.3,230.7c0,1.6,0.7,2.7,2,2.7c1.2,0,1.9-1.2,1.9-2.7c0-1.5-0.7-2.7-2-2.7
			C305.1,228,304.3,229.1,304.3,230.7z"/>
		<path class="st2" d="M317.6,234.5c-0.3,0.2-1.1,0.3-2.1,0.3c-2.8,0-4.2-1.7-4.2-4c0-2.8,2-4.3,4.4-4.3c0.9,0,1.7,0.2,2,0.4
			l-0.4,1.5c-0.4-0.2-0.9-0.3-1.5-0.3c-1.5,0-2.6,0.9-2.6,2.7c0,1.6,1,2.6,2.6,2.6c0.6,0,1.2-0.1,1.5-0.3L317.6,234.5z"/>
		<path class="st2" d="M320.8,226.7v8.1h-1.8v-8.1H320.8z"/>
		<path class="st2" d="M324.4,232.7l-0.6,2.1h-1.9l2.5-8.1h2.4l2.5,8.1h-2l-0.6-2.1H324.4z M326.4,231.3l-0.5-1.7
			c-0.1-0.5-0.3-1.1-0.4-1.6h0c-0.1,0.5-0.2,1.1-0.4,1.6l-0.5,1.7H326.4z"/>
		<path class="st2" d="M331.4,228.2h-2.2v-1.5h6.2v1.5h-2.2v6.5h-1.8V228.2z"/>
		<path class="st2" d="M341.3,231.3h-3v1.9h3.3v1.5h-5.2v-8.1h5v1.5h-3.2v1.7h3V231.3z"/>
		<path class="st2" d="M343.2,232.9c0.5,0.3,1.2,0.5,2,0.5c0.8,0,1.3-0.3,1.3-0.9c0-0.5-0.4-0.8-1.4-1.1c-1.3-0.5-2.2-1.2-2.2-2.4
			c0-1.4,1.2-2.4,3.1-2.4c0.9,0,1.6,0.2,2.1,0.4l-0.4,1.5c-0.3-0.2-0.9-0.4-1.7-0.4s-1.2,0.4-1.2,0.8c0,0.5,0.5,0.7,1.5,1.1
			c1.4,0.5,2.1,1.3,2.1,2.4c0,1.4-1,2.5-3.3,2.5c-0.9,0-1.8-0.2-2.3-0.5L343.2,232.9z"/>
		<path class="st2" d="M230.9,246.9l-0.6,2.1h-1.9l2.5-8.1h2.4l2.5,8.1h-2l-0.6-2.1H230.9z M232.9,245.5l-0.5-1.7
			c-0.1-0.5-0.3-1.1-0.4-1.6h0c-0.1,0.5-0.2,1.1-0.4,1.6l-0.5,1.7H232.9z"/>
		<path class="st2" d="M237,249v-8.1h2.1l1.7,3c0.5,0.9,1,1.9,1.3,2.8h0c-0.1-1.1-0.2-2.2-0.2-3.4v-2.4h1.7v8.1h-1.9l-1.7-3.1
			c-0.5-0.9-1-1.9-1.4-2.9l0,0c0,1.1,0.1,2.2,0.1,3.5v2.4H237z"/>
		<path class="st2" d="M245.5,241c0.7-0.1,1.5-0.2,2.5-0.2c1.5,0,2.5,0.3,3.3,0.9c0.8,0.6,1.4,1.6,1.4,3c0,1.5-0.6,2.6-1.3,3.3
			c-0.9,0.7-2.1,1-3.7,1c-0.9,0-1.6-0.1-2.1-0.1V241z M247.4,247.6c0.2,0,0.4,0,0.6,0c1.7,0,2.7-0.9,2.7-2.8c0-1.7-1-2.6-2.5-2.6
			c-0.4,0-0.7,0-0.8,0.1V247.6z"/>
		<path class="st2" d="M256.9,247.1c0.5,0.3,1.2,0.5,2,0.5c0.8,0,1.3-0.3,1.3-0.9c0-0.5-0.4-0.8-1.4-1.1c-1.3-0.5-2.2-1.2-2.2-2.4
			c0-1.4,1.2-2.4,3.1-2.4c0.9,0,1.6,0.2,2.1,0.4l-0.4,1.5c-0.3-0.2-0.9-0.4-1.7-0.4s-1.2,0.4-1.2,0.8c0,0.5,0.5,0.7,1.5,1.1
			c1.4,0.5,2.1,1.3,2.1,2.4c0,1.4-1,2.5-3.3,2.5c-0.9,0-1.8-0.2-2.3-0.5L256.9,247.1z"/>
		<path class="st2" d="M265.2,240.9v4.7c0,1.4,0.5,2.1,1.5,2.1c1,0,1.5-0.7,1.5-2.1v-4.7h1.8v4.5c0,2.5-1.3,3.7-3.4,3.7
			c-2,0-3.2-1.1-3.2-3.7v-4.5H265.2z"/>
		<path class="st2" d="M271.8,241c0.6-0.1,1.4-0.2,2.5-0.2c1.1,0,1.9,0.2,2.5,0.6c0.5,0.4,0.9,1.1,0.9,1.9s-0.3,1.5-0.7,1.9
			c-0.6,0.6-1.5,0.9-2.6,0.9c-0.2,0-0.5,0-0.6,0v2.9h-1.8V241z M273.6,244.7c0.2,0,0.3,0,0.6,0c1,0,1.6-0.5,1.6-1.3
			c0-0.7-0.5-1.2-1.4-1.2c-0.4,0-0.6,0-0.8,0.1V244.7z"/>
		<path class="st2" d="M278.8,241c0.6-0.1,1.4-0.2,2.5-0.2c1.1,0,1.9,0.2,2.5,0.6c0.5,0.4,0.9,1.1,0.9,1.9s-0.3,1.5-0.7,1.9
			c-0.6,0.6-1.5,0.9-2.6,0.9c-0.2,0-0.5,0-0.6,0v2.9h-1.8V241z M280.6,244.7c0.2,0,0.3,0,0.6,0c1,0,1.6-0.5,1.6-1.3
			c0-0.7-0.5-1.2-1.4-1.2c-0.4,0-0.6,0-0.8,0.1V244.7z"/>
		<path class="st2" d="M285.9,240.9h1.8v6.5h3.2v1.5h-5V240.9z"/>
		<path class="st2" d="M293.9,240.9v8.1h-1.8v-8.1H293.9z"/>
		<path class="st2" d="M300.6,245.5h-3v1.9h3.3v1.5h-5.2v-8.1h5v1.5h-3.2v1.7h3V245.5z"/>
		<path class="st2" d="M302.5,241c0.6-0.1,1.5-0.2,2.4-0.2c1.2,0,2,0.2,2.6,0.6c0.5,0.4,0.7,0.9,0.7,1.7c0,1-0.7,1.7-1.4,2v0
			c0.6,0.2,0.9,0.8,1.1,1.5c0.3,0.9,0.5,2,0.7,2.3h-1.9c-0.1-0.2-0.3-0.9-0.6-1.9c-0.2-1-0.6-1.3-1.3-1.3h-0.6v3.2h-1.8V241z
			 M304.3,244.5h0.7c0.9,0,1.5-0.5,1.5-1.2c0-0.7-0.5-1.1-1.3-1.1c-0.4,0-0.7,0-0.8,0.1V244.5z"/>
		<path class="st2" d="M309.9,247.1c0.5,0.3,1.2,0.5,2,0.5c0.8,0,1.3-0.3,1.3-0.9c0-0.5-0.4-0.8-1.4-1.1c-1.3-0.5-2.2-1.2-2.2-2.4
			c0-1.4,1.2-2.4,3.1-2.4c0.9,0,1.6,0.2,2.1,0.4l-0.4,1.5c-0.3-0.2-0.9-0.4-1.7-0.4s-1.2,0.4-1.2,0.8c0,0.5,0.5,0.7,1.5,1.1
			c1.4,0.5,2.1,1.3,2.1,2.4c0,1.4-1,2.5-3.3,2.5c-0.9,0-1.8-0.2-2.3-0.5L309.9,247.1z"/>
	</g>
	<g>
		<g>
			<path class="st3" d="M471.4,206.1c-0.3,0.2-1.1,0.3-2.1,0.3c-2.8,0-4.2-1.7-4.2-4c0-2.8,2-4.3,4.4-4.3c0.9,0,1.7,0.2,2,0.4
				l-0.4,1.5c-0.4-0.2-0.9-0.3-1.5-0.3c-1.5,0-2.6,0.9-2.6,2.7c0,1.6,1,2.6,2.6,2.6c0.6,0,1.2-0.1,1.5-0.3L471.4,206.1z"/>
			<path class="st3" d="M472.8,198.2h1.8v6.5h3.2v1.5h-5V198.2z"/>
			<path class="st3" d="M480.8,198.2v8.1H479v-8.1H480.8z"/>
			<path class="st3" d="M489.5,203.2c0-1-0.1-2.1-0.1-3.3h0c-0.3,1-0.6,2.2-0.9,3.1l-1,3.2h-1.4l-0.9-3.1c-0.3-0.9-0.5-2.1-0.7-3.2
				h0c0,1.1-0.1,2.3-0.1,3.3l-0.1,3.1h-1.7l0.5-8.1h2.4l0.8,2.7c0.3,0.9,0.5,1.9,0.7,2.9h0c0.2-0.9,0.5-2,0.8-2.9l0.9-2.7h2.4
				l0.4,8.1h-1.8L489.5,203.2z"/>
			<path class="st3" d="M495,204.2l-0.6,2.1h-1.9l2.5-8.1h2.4l2.5,8.1h-2l-0.6-2.1H495z M497,202.8l-0.5-1.7
				c-0.1-0.5-0.3-1.1-0.4-1.6h0c-0.1,0.5-0.2,1.1-0.4,1.6l-0.5,1.7H497z"/>
			<path class="st3" d="M501.9,199.7h-2.2v-1.5h6.2v1.5h-2.2v6.5h-1.8V199.7z"/>
			<path class="st3" d="M511.9,202.9h-3v1.9h3.3v1.5h-5.2v-8.1h5v1.5H509v1.7h3V202.9z"/>
			<path class="st3" d="M472.4,220.3c-0.3,0.2-1.1,0.3-2.1,0.3c-2.8,0-4.2-1.7-4.2-4c0-2.8,2-4.3,4.4-4.3c0.9,0,1.7,0.2,2,0.4
				l-0.4,1.5c-0.4-0.2-0.9-0.3-1.5-0.3c-1.5,0-2.6,0.9-2.6,2.7c0,1.6,1,2.6,2.6,2.6c0.6,0,1.2-0.1,1.5-0.3L472.4,220.3z"/>
			<path class="st3" d="M475.6,212.4v3.1h3v-3.1h1.8v8.1h-1.8v-3.4h-3v3.4h-1.8v-8.1H475.6z"/>
			<path class="st3" d="M484,218.4l-0.6,2.1h-1.9l2.5-8.1h2.4l2.5,8.1h-2l-0.6-2.1H484z M486.1,217.1l-0.5-1.7
				c-0.1-0.5-0.3-1.1-0.4-1.6h0c-0.1,0.5-0.2,1.1-0.4,1.6l-0.5,1.7H486.1z"/>
			<path class="st3" d="M490.1,220.5v-8.1h2.1l1.7,3c0.5,0.9,1,1.9,1.3,2.8h0c-0.1-1.1-0.2-2.2-0.2-3.4v-2.4h1.7v8.1h-1.9l-1.7-3.1
				c-0.5-0.9-1-1.9-1.4-2.9l0,0c0,1.1,0.1,2.2,0.1,3.5v2.4H490.1z"/>
			<path class="st3" d="M505.4,220.1c-0.6,0.2-1.6,0.5-2.7,0.5c-1.5,0-2.5-0.4-3.3-1.1c-0.7-0.7-1.2-1.8-1.1-2.9
				c0-2.7,2-4.2,4.6-4.2c1,0,1.8,0.2,2.2,0.4l-0.4,1.5c-0.4-0.2-1-0.3-1.9-0.3c-1.5,0-2.7,0.9-2.7,2.6c0,1.7,1,2.7,2.5,2.7
				c0.4,0,0.8,0,0.9-0.1v-1.7h-1.2v-1.4h3V220.1z"/>
			<path class="st3" d="M511.9,217.1h-3v1.9h3.3v1.5h-5.2v-8.1h5v1.5H509v1.7h3V217.1z"/>
			<path class="st3" d="M452.7,231.6c0-1-0.1-2.1-0.1-3.3h0c-0.3,1-0.6,2.2-0.9,3.1l-1,3.2h-1.4l-0.9-3.1c-0.3-0.9-0.5-2.1-0.7-3.2
				h0c0,1.1-0.1,2.3-0.1,3.3l-0.1,3.1h-1.7l0.5-8.1h2.4l0.8,2.7c0.3,0.9,0.5,1.9,0.7,2.9h0c0.2-0.9,0.5-2,0.8-2.9l0.9-2.7h2.4
				l0.4,8.1h-1.8L452.7,231.6z"/>
			<path class="st3" d="M458.2,226.7v8.1h-1.8v-8.1H458.2z"/>
			<path class="st3" d="M461.5,228.2h-2.2v-1.5h6.2v1.5h-2.2v6.5h-1.8V228.2z"/>
			<path class="st3" d="M468.5,226.7v8.1h-1.8v-8.1H468.5z"/>
			<path class="st3" d="M477,234.4c-0.6,0.2-1.6,0.5-2.7,0.5c-1.5,0-2.5-0.4-3.3-1.1c-0.7-0.7-1.2-1.8-1.1-2.9c0-2.7,2-4.2,4.6-4.2
				c1,0,1.8,0.2,2.2,0.4l-0.4,1.5c-0.4-0.2-1-0.3-1.9-0.3c-1.5,0-2.7,0.9-2.7,2.6c0,1.7,1,2.7,2.5,2.7c0.4,0,0.8,0,0.9-0.1v-1.7H474
				v-1.4h3V234.4z"/>
			<path class="st3" d="M480.6,232.7l-0.6,2.1h-1.9l2.5-8.1h2.4l2.5,8.1h-2l-0.6-2.1H480.6z M482.6,231.3l-0.5-1.7
				c-0.1-0.5-0.3-1.1-0.4-1.6h0c-0.1,0.5-0.2,1.1-0.4,1.6l-0.5,1.7H482.6z"/>
			<path class="st3" d="M487.5,228.2h-2.2v-1.5h6.2v1.5h-2.2v6.5h-1.8V228.2z"/>
			<path class="st3" d="M494.6,226.7v8.1h-1.8v-8.1H494.6z"/>
			<path class="st3" d="M503.8,230.6c0,2.7-1.6,4.3-4,4.3c-2.4,0-3.8-1.8-3.8-4.1c0-2.4,1.5-4.2,3.9-4.2
				C502.4,226.5,503.8,228.4,503.8,230.6z M497.9,230.7c0,1.6,0.7,2.7,2,2.7c1.2,0,1.9-1.2,1.9-2.7c0-1.5-0.7-2.7-2-2.7
				C498.7,228,497.9,229.1,497.9,230.7z"/>
			<path class="st3" d="M505.2,234.7v-8.1h2.1l1.7,3c0.5,0.9,1,1.9,1.3,2.8h0c-0.1-1.1-0.2-2.2-0.2-3.4v-2.4h1.7v8.1H510l-1.7-3.1
				c-0.5-0.9-1-1.9-1.4-2.9l0,0c0,1.1,0.1,2.2,0.1,3.5v2.4H505.2z"/>
		</g>
		<g>
			<path class="st3" d="M492.4,260.1h4.9v1.5h-3.1v1.8h2.9v1.5h-2.9v3.2h-1.8V260.1z"/>
			<path class="st3" d="M506.1,264.1c0,2.7-1.6,4.3-4,4.3c-2.4,0-3.8-1.8-3.8-4.1c0-2.4,1.5-4.2,3.9-4.2
				C504.8,260,506.1,261.8,506.1,264.1z M500.3,264.2c0,1.6,0.7,2.7,2,2.7c1.2,0,1.9-1.2,1.9-2.7c0-1.5-0.7-2.7-2-2.7
				C501,261.4,500.3,262.6,500.3,264.2z"/>
			<path class="st3" d="M507.5,266.3c0.5,0.3,1.2,0.5,2,0.5c0.8,0,1.3-0.3,1.3-0.9c0-0.5-0.4-0.8-1.4-1.1c-1.3-0.5-2.2-1.2-2.2-2.4
				c0-1.4,1.2-2.4,3.1-2.4c0.9,0,1.6,0.2,2.1,0.4l-0.4,1.5c-0.3-0.2-0.9-0.4-1.7-0.4s-1.2,0.4-1.2,0.8c0,0.5,0.5,0.7,1.5,1.1
				c1.4,0.5,2.1,1.3,2.1,2.4c0,1.4-1,2.5-3.3,2.5c-0.9,0-1.8-0.2-2.3-0.5L507.5,266.3z"/>
			<path class="st3" d="M515.7,261.6h-2.2v-1.5h6.2v1.5h-2.2v6.5h-1.8V261.6z"/>
			<path class="st3" d="M525.6,264.8h-3v1.9h3.3v1.5h-5.2v-8.1h5v1.5h-3.2v1.7h3V264.8z"/>
			<path class="st3" d="M527.6,260.2c0.6-0.1,1.5-0.2,2.4-0.2c1.2,0,2,0.2,2.6,0.6c0.5,0.4,0.7,0.9,0.7,1.7c0,1-0.7,1.7-1.4,2v0
				c0.6,0.2,0.9,0.8,1.1,1.5c0.3,0.9,0.5,2,0.7,2.3h-1.9c-0.1-0.2-0.3-0.9-0.6-1.9c-0.2-1-0.6-1.3-1.3-1.3h-0.6v3.2h-1.8V260.2z
				 M529.4,263.7h0.7c0.9,0,1.5-0.5,1.5-1.2c0-0.7-0.5-1.1-1.3-1.1c-0.4,0-0.7,0-0.8,0.1V263.7z"/>
			<path class="st3" d="M536.8,260.1v8.1H535v-8.1H536.8z"/>
			<path class="st3" d="M538.6,268.2v-8.1h2.1l1.7,3c0.5,0.9,1,1.9,1.3,2.8h0c-0.1-1.1-0.2-2.2-0.2-3.4v-2.4h1.7v8.1h-1.9l-1.7-3.1
				c-0.5-0.9-1-1.9-1.4-2.9l0,0c0,1.1,0.1,2.2,0.1,3.5v2.4H538.6z"/>
			<path class="st3" d="M553.9,267.8c-0.6,0.2-1.6,0.5-2.7,0.5c-1.5,0-2.5-0.4-3.3-1.1c-0.7-0.7-1.2-1.8-1.1-2.9
				c0-2.7,2-4.2,4.6-4.2c1,0,1.8,0.2,2.2,0.4l-0.4,1.5c-0.4-0.2-1-0.3-1.9-0.3c-1.5,0-2.7,0.9-2.7,2.6c0,1.7,1,2.7,2.5,2.7
				c0.4,0,0.8,0,0.9-0.1V265h-1.2v-1.4h3V267.8z"/>
			<path class="st3" d="M560.1,266.1l-0.6,2.1h-1.9l2.5-8.1h2.4l2.5,8.1h-2l-0.6-2.1H560.1z M562.2,264.7l-0.5-1.7
				c-0.1-0.5-0.3-1.1-0.4-1.6h0c-0.1,0.5-0.2,1.1-0.4,1.6l-0.5,1.7H562.2z"/>
			<path class="st3" d="M456.2,282.2c-0.3,0.2-1.1,0.3-2.1,0.3c-2.8,0-4.2-1.7-4.2-4c0-2.8,2-4.3,4.4-4.3c0.9,0,1.7,0.2,2,0.4
				l-0.4,1.5c-0.4-0.2-0.9-0.3-1.5-0.3c-1.5,0-2.6,0.9-2.6,2.7c0,1.6,1,2.6,2.6,2.6c0.6,0,1.2-0.1,1.5-0.3L456.2,282.2z"/>
			<path class="st3" d="M459.4,274.3v8.1h-1.8v-8.1H459.4z"/>
			<path class="st3" d="M461.2,274.4c0.6-0.1,1.5-0.2,2.4-0.2c1.2,0,2,0.2,2.6,0.6c0.5,0.4,0.7,0.9,0.7,1.7c0,1-0.7,1.7-1.4,2v0
				c0.6,0.2,0.9,0.8,1.1,1.5c0.3,0.9,0.5,2,0.7,2.3h-1.9c-0.1-0.2-0.3-0.9-0.6-1.9c-0.2-1-0.6-1.3-1.3-1.3H463v3.2h-1.8V274.4z
				 M463,277.9h0.7c0.9,0,1.5-0.5,1.5-1.2c0-0.7-0.5-1.1-1.3-1.1c-0.4,0-0.7,0-0.8,0.1V277.9z"/>
			<path class="st3" d="M474.4,282.2c-0.3,0.2-1.1,0.3-2.1,0.3c-2.8,0-4.2-1.7-4.2-4c0-2.8,2-4.3,4.4-4.3c0.9,0,1.7,0.2,2,0.4
				l-0.4,1.5c-0.4-0.2-0.9-0.3-1.5-0.3c-1.5,0-2.6,0.9-2.6,2.7c0,1.6,1,2.6,2.6,2.6c0.6,0,1.2-0.1,1.5-0.3L474.4,282.2z"/>
			<path class="st3" d="M477.6,274.3v4.7c0,1.4,0.5,2.1,1.5,2.1c1,0,1.5-0.7,1.5-2.1v-4.7h1.8v4.5c0,2.5-1.3,3.7-3.4,3.7
				c-2,0-3.2-1.1-3.2-3.7v-4.5H477.6z"/>
			<path class="st3" d="M484.2,274.3h1.8v6.5h3.2v1.5h-5V274.3z"/>
			<path class="st3" d="M492.6,280.3l-0.6,2.1h-1.9l2.5-8.1h2.4l2.5,8.1h-2l-0.6-2.1H492.6z M494.7,279l-0.5-1.7
				c-0.1-0.5-0.3-1.1-0.4-1.6h0c-0.1,0.5-0.2,1.1-0.4,1.6l-0.5,1.7H494.7z"/>
			<path class="st3" d="M498.7,274.4c0.6-0.1,1.5-0.2,2.4-0.2c1.2,0,2,0.2,2.6,0.6c0.5,0.4,0.7,0.9,0.7,1.7c0,1-0.7,1.7-1.4,2v0
				c0.6,0.2,0.9,0.8,1.1,1.5c0.3,0.9,0.5,2,0.7,2.3h-1.9c-0.1-0.2-0.3-0.9-0.6-1.9c-0.2-1-0.6-1.3-1.3-1.3h-0.6v3.2h-1.8V274.4z
				 M500.5,277.9h0.7c0.9,0,1.5-0.5,1.5-1.2c0-0.7-0.5-1.1-1.3-1.1c-0.4,0-0.7,0-0.8,0.1V277.9z"/>
			<path class="st3" d="M513.5,279h-3v1.9h3.3v1.5h-5.2v-8.1h5v1.5h-3.2v1.7h3V279z"/>
			<path class="st3" d="M521.2,282.2c-0.3,0.2-1.1,0.3-2.1,0.3c-2.8,0-4.2-1.7-4.2-4c0-2.8,2-4.3,4.4-4.3c0.9,0,1.7,0.2,2,0.4
				L521,276c-0.4-0.2-0.9-0.3-1.5-0.3c-1.5,0-2.6,0.9-2.6,2.7c0,1.6,1,2.6,2.6,2.6c0.6,0,1.2-0.1,1.5-0.3L521.2,282.2z"/>
			<path class="st3" d="M529.8,278.3c0,2.7-1.6,4.3-4,4.3c-2.4,0-3.8-1.8-3.8-4.1c0-2.4,1.5-4.2,3.9-4.2
				C528.5,274.2,529.8,276.1,529.8,278.3z M524,278.4c0,1.6,0.7,2.7,2,2.7c1.2,0,1.9-1.2,1.9-2.7c0-1.5-0.7-2.7-2-2.7
				C524.7,275.6,524,276.8,524,278.4z"/>
			<path class="st3" d="M531.3,282.4v-8.1h2.1l1.7,3c0.5,0.9,1,1.9,1.3,2.8h0c-0.1-1.1-0.2-2.2-0.2-3.4v-2.4h1.7v8.1H536l-1.7-3.1
				c-0.5-0.9-1-1.9-1.4-2.9l0,0c0,1.1,0.1,2.2,0.1,3.5v2.4H531.3z"/>
			<path class="st3" d="M547.2,278.3c0,2.7-1.6,4.3-4,4.3c-2.4,0-3.8-1.8-3.8-4.1c0-2.4,1.5-4.2,3.9-4.2
				C545.9,274.2,547.2,276.1,547.2,278.3z M541.4,278.4c0,1.6,0.7,2.7,2,2.7c1.2,0,1.9-1.2,1.9-2.7c0-1.5-0.7-2.7-2-2.7
				C542.1,275.6,541.4,276.8,541.4,278.4z"/>
			<path class="st3" d="M555.5,279.3c0-1-0.1-2.1-0.1-3.3h0c-0.3,1-0.6,2.2-0.9,3.1l-1,3.2H552l-0.9-3.1c-0.3-0.9-0.5-2.1-0.7-3.2h0
				c0,1.1-0.1,2.3-0.1,3.3l-0.1,3.1h-1.7l0.5-8.1h2.4l0.8,2.7c0.3,0.9,0.5,1.9,0.7,2.9h0c0.2-0.9,0.5-2,0.8-2.9l0.9-2.7h2.4l0.4,8.1
				h-1.8L555.5,279.3z"/>
			<path class="st3" d="M560.7,282.4v-3.3l-2.6-4.8h2.1l0.8,1.9c0.3,0.6,0.4,1,0.6,1.5h0c0.2-0.5,0.4-1,0.6-1.5l0.8-1.9h2.1
				l-2.7,4.7v3.4H560.7z"/>
		</g>
		<g>
			<path class="st3" d="M516.4,341.9c0.5,0.3,1.2,0.5,2,0.5c0.8,0,1.3-0.3,1.3-0.9c0-0.5-0.4-0.8-1.4-1.1c-1.3-0.5-2.2-1.2-2.2-2.4
				c0-1.4,1.2-2.4,3.1-2.4c0.9,0,1.6,0.2,2.1,0.4l-0.4,1.5c-0.3-0.2-0.9-0.4-1.7-0.4s-1.2,0.4-1.2,0.8c0,0.5,0.5,0.7,1.5,1.1
				c1.4,0.5,2.1,1.3,2.1,2.4c0,1.4-1,2.5-3.3,2.5c-0.9,0-1.8-0.2-2.3-0.5L516.4,341.9z"/>
			<path class="st3" d="M524.8,335.7v4.7c0,1.4,0.5,2.1,1.5,2.1c1,0,1.5-0.7,1.5-2.1v-4.7h1.8v4.5c0,2.5-1.3,3.7-3.4,3.7
				c-2,0-3.2-1.1-3.2-3.7v-4.5H524.8z"/>
			<path class="st3" d="M531.3,341.9c0.5,0.3,1.2,0.5,2,0.5c0.8,0,1.3-0.3,1.3-0.9c0-0.5-0.4-0.8-1.4-1.1c-1.3-0.5-2.2-1.2-2.2-2.4
				c0-1.4,1.2-2.4,3.1-2.4c0.9,0,1.6,0.2,2.1,0.4l-0.4,1.5c-0.3-0.2-0.9-0.4-1.7-0.4s-1.2,0.4-1.2,0.8c0,0.5,0.5,0.7,1.5,1.1
				c1.4,0.5,2.1,1.3,2.1,2.4c0,1.4-1,2.5-3.3,2.5c-0.9,0-1.8-0.2-2.3-0.5L531.3,341.9z"/>
			<path class="st3" d="M539.4,337.2h-2.2v-1.5h6.2v1.5h-2.2v6.5h-1.8V337.2z"/>
			<path class="st3" d="M545.8,341.7l-0.6,2.1h-1.9l2.5-8.1h2.4l2.5,8.1h-2l-0.6-2.1H545.8z M547.9,340.3l-0.5-1.7
				c-0.1-0.5-0.3-1.1-0.4-1.6h0c-0.1,0.5-0.2,1.1-0.4,1.6l-0.5,1.7H547.9z"/>
			<path class="st3" d="M553.8,335.7v8.1h-1.8v-8.1H553.8z"/>
			<path class="st3" d="M555.6,343.8v-8.1h2.1l1.7,3c0.5,0.9,1,1.9,1.3,2.8h0c-0.1-1.1-0.2-2.2-0.2-3.4v-2.4h1.7v8.1h-1.9l-1.7-3.1
				c-0.5-0.9-1-1.9-1.4-2.9l0,0c0,1.1,0.1,2.2,0.1,3.5v2.4H555.6z"/>
			<path class="st3" d="M565.9,341.7l-0.6,2.1h-1.9l2.5-8.1h2.4l2.5,8.1h-2l-0.6-2.1H565.9z M568,340.3l-0.5-1.7
				c-0.1-0.5-0.3-1.1-0.4-1.6h0c-0.1,0.5-0.2,1.1-0.4,1.6l-0.5,1.7H568z"/>
			<path class="st3" d="M572,335.8c0.5-0.1,1.5-0.2,2.4-0.2c1.1,0,1.8,0.1,2.4,0.5c0.6,0.3,1,0.9,1,1.6c0,0.7-0.4,1.4-1.3,1.7v0
				c0.9,0.3,1.6,0.9,1.6,2c0,0.7-0.3,1.3-0.8,1.7c-0.6,0.5-1.6,0.7-3.2,0.7c-0.9,0-1.6-0.1-2-0.1V335.8z M573.8,338.9h0.6
				c1,0,1.5-0.4,1.5-1c0-0.6-0.5-0.9-1.3-0.9c-0.4,0-0.6,0-0.8,0V338.9z M573.8,342.5c0.2,0,0.4,0,0.7,0c0.8,0,1.6-0.3,1.6-1.2
				c0-0.8-0.7-1.1-1.6-1.1h-0.6V342.5z"/>
			<path class="st3" d="M579.5,335.7h1.8v6.5h3.2v1.5h-5V335.7z"/>
			<path class="st3" d="M590.6,340.3h-3v1.9h3.3v1.5h-5.2v-8.1h5v1.5h-3.2v1.7h3V340.3z"/>
			<path class="st3" d="M533.4,356.1c0.5,0.3,1.2,0.5,2,0.5c0.8,0,1.3-0.3,1.3-0.9c0-0.5-0.4-0.8-1.4-1.1c-1.3-0.5-2.2-1.2-2.2-2.4
				c0-1.4,1.2-2.4,3.1-2.4c0.9,0,1.6,0.2,2.1,0.4l-0.4,1.5c-0.3-0.2-0.9-0.4-1.7-0.4s-1.2,0.4-1.2,0.8c0,0.5,0.5,0.7,1.5,1.1
				c1.4,0.5,2.1,1.3,2.1,2.4c0,1.4-1,2.5-3.3,2.5c-0.9,0-1.8-0.2-2.3-0.5L533.4,356.1z"/>
			<path class="st3" d="M547.4,353.9c0,2.7-1.6,4.3-4,4.3c-2.4,0-3.8-1.8-3.8-4.1c0-2.4,1.5-4.2,3.9-4.2
				C546,349.8,547.4,351.6,547.4,353.9z M541.6,354c0,1.6,0.7,2.7,2,2.7c1.2,0,1.9-1.2,1.9-2.7c0-1.5-0.7-2.7-2-2.7
				C542.3,351.2,541.6,352.4,541.6,354z"/>
			<path class="st3" d="M550.6,349.9v4.7c0,1.4,0.5,2.1,1.5,2.1c1,0,1.5-0.7,1.5-2.1v-4.7h1.8v4.5c0,2.5-1.3,3.7-3.4,3.7
				c-2,0-3.2-1.1-3.2-3.7v-4.5H550.6z"/>
			<path class="st3" d="M557.2,350c0.6-0.1,1.5-0.2,2.4-0.2c1.2,0,2,0.2,2.6,0.6c0.5,0.4,0.7,0.9,0.7,1.7c0,1-0.7,1.7-1.4,2v0
				c0.6,0.2,0.9,0.8,1.1,1.5c0.3,0.9,0.5,2,0.7,2.3h-1.9c-0.1-0.2-0.3-0.9-0.6-1.9c-0.2-1-0.6-1.3-1.3-1.3H559v3.2h-1.8V350z
				 M559,353.5h0.7c0.9,0,1.5-0.5,1.5-1.2c0-0.7-0.5-1.1-1.3-1.1c-0.4,0-0.7,0-0.8,0.1V353.5z"/>
			<path class="st3" d="M570.4,357.8c-0.3,0.2-1.1,0.3-2.1,0.3c-2.8,0-4.2-1.7-4.2-4c0-2.8,2-4.3,4.4-4.3c0.9,0,1.7,0.2,2,0.4
				l-0.4,1.5c-0.4-0.2-0.9-0.3-1.5-0.3c-1.5,0-2.6,0.9-2.6,2.7c0,1.6,1,2.6,2.6,2.6c0.6,0,1.2-0.1,1.5-0.3L570.4,357.8z"/>
			<path class="st3" d="M573.6,349.9v8.1h-1.8v-8.1H573.6z"/>
			<path class="st3" d="M575.5,358v-8.1h2.1l1.7,3c0.5,0.9,1,1.9,1.3,2.8h0c-0.1-1.1-0.2-2.2-0.2-3.4v-2.4h1.7v8.1h-1.9l-1.7-3.1
				c-0.5-0.9-1-1.9-1.4-2.9l0,0c0,1.1,0.1,2.2,0.1,3.5v2.4H575.5z"/>
			<path class="st3" d="M590.7,357.6c-0.6,0.2-1.6,0.5-2.7,0.5c-1.5,0-2.5-0.4-3.3-1.1c-0.7-0.7-1.2-1.8-1.1-2.9
				c0-2.7,2-4.2,4.6-4.2c1,0,1.8,0.2,2.2,0.4l-0.4,1.5c-0.4-0.2-1-0.3-1.9-0.3c-1.5,0-2.7,0.9-2.7,2.6c0,1.7,1,2.7,2.5,2.7
				c0.4,0,0.8,0,0.9-0.1v-1.7h-1.2v-1.4h3V357.6z"/>
		</g>
	</g>
	<g>
		<path class="st2" d="M156.5,343.5c-0.3,0.2-1.1,0.3-2.1,0.3c-2.8,0-4.2-1.7-4.2-4c0-2.8,2-4.3,4.4-4.3c0.9,0,1.7,0.2,2,0.4
			l-0.4,1.5c-0.4-0.2-0.9-0.3-1.5-0.3c-1.5,0-2.6,0.9-2.6,2.7c0,1.6,1,2.6,2.6,2.6c0.6,0,1.2-0.1,1.5-0.3L156.5,343.5z"/>
		<path class="st2" d="M165.1,339.6c0,2.7-1.6,4.3-4,4.3c-2.4,0-3.8-1.8-3.8-4.1c0-2.4,1.5-4.2,3.9-4.2
			C163.7,335.5,165.1,337.4,165.1,339.6z M159.3,339.7c0,1.6,0.7,2.7,2,2.7c1.2,0,1.9-1.2,1.9-2.7c0-1.5-0.7-2.7-2-2.7
			C160,337,159.3,338.2,159.3,339.7z"/>
		<path class="st2" d="M173.3,340.7c0-1-0.1-2.1-0.1-3.3h0c-0.3,1-0.6,2.2-0.9,3.1l-1,3.2h-1.4l-0.9-3.1c-0.3-0.9-0.5-2.1-0.7-3.2h0
			c0,1.1-0.1,2.3-0.1,3.3l-0.1,3.1h-1.7l0.5-8.1h2.4l0.8,2.7c0.3,0.9,0.5,1.9,0.7,2.9h0c0.2-0.9,0.5-2,0.8-2.9l0.9-2.7h2.4l0.4,8.1
			h-1.8L173.3,340.7z"/>
		<path class="st2" d="M183.7,340.7c0-1-0.1-2.1-0.1-3.3h0c-0.3,1-0.6,2.2-0.9,3.1l-1,3.2h-1.4l-0.9-3.1c-0.3-0.9-0.5-2.1-0.7-3.2h0
			c0,1.1-0.1,2.3-0.1,3.3l-0.1,3.1h-1.7l0.5-8.1h2.4l0.8,2.7c0.3,0.9,0.5,1.9,0.7,2.9h0c0.2-0.9,0.5-2,0.8-2.9l0.9-2.7h2.4l0.4,8.1
			h-1.8L183.7,340.7z"/>
		<path class="st2" d="M189.2,335.7v8.1h-1.8v-8.1H189.2z"/>
		<path class="st2" d="M192.5,337.2h-2.2v-1.5h6.2v1.5h-2.2v6.5h-1.8V337.2z"/>
		<path class="st2" d="M204.4,340.7c0-1-0.1-2.1-0.1-3.3h0c-0.3,1-0.6,2.2-0.9,3.1l-1,3.2H201l-0.9-3.1c-0.3-0.9-0.5-2.1-0.7-3.2h0
			c0,1.1-0.1,2.3-0.1,3.3l-0.1,3.1h-1.7l0.5-8.1h2.4l0.8,2.7c0.3,0.9,0.5,1.9,0.7,2.9h0c0.2-0.9,0.5-2,0.8-2.9l0.9-2.7h2.4l0.4,8.1
			h-1.8L204.4,340.7z"/>
		<path class="st2" d="M212.8,340.3h-3v1.9h3.3v1.5H208v-8.1h5v1.5h-3.2v1.7h3V340.3z"/>
		<path class="st2" d="M214.7,343.8v-8.1h2.1l1.7,3c0.5,0.9,1,1.9,1.3,2.8h0c-0.1-1.1-0.2-2.2-0.2-3.4v-2.4h1.7v8.1h-1.9l-1.7-3.1
			c-0.5-0.9-1-1.9-1.4-2.9l0,0c0,1.1,0.1,2.2,0.1,3.5v2.4H214.7z"/>
		<path class="st2" d="M224.7,337.2h-2.2v-1.5h6.2v1.5h-2.2v6.5h-1.8V337.2z"/>
		<path class="st2" d="M234.2,337.2H232v-1.5h6.2v1.5H236v6.5h-1.8V337.2z"/>
		<path class="st2" d="M246.6,339.6c0,2.7-1.6,4.3-4,4.3c-2.4,0-3.8-1.8-3.8-4.1c0-2.4,1.5-4.2,3.9-4.2
			C245.3,335.5,246.6,337.4,246.6,339.6z M240.8,339.7c0,1.6,0.7,2.7,2,2.7c1.2,0,1.9-1.2,1.9-2.7c0-1.5-0.7-2.7-2-2.7
			C241.5,337,240.8,338.2,240.8,339.7z"/>
		<path class="st2" d="M252.3,337.2h-2.2v-1.5h6.2v1.5h-2.2v6.5h-1.8V337.2z"/>
		<path class="st2" d="M259.3,335.7v3.1h3v-3.1h1.8v8.1h-1.8v-3.4h-3v3.4h-1.8v-8.1H259.3z"/>
		<path class="st2" d="M270.8,340.3h-3v1.9h3.3v1.5H266v-8.1h5v1.5h-3.2v1.7h3V340.3z"/>
		<path class="st2" d="M156.5,357.8c-0.3,0.2-1.1,0.3-2.1,0.3c-2.8,0-4.2-1.7-4.2-4c0-2.8,2-4.3,4.4-4.3c0.9,0,1.7,0.2,2,0.4
			l-0.4,1.5c-0.4-0.2-0.9-0.3-1.5-0.3c-1.5,0-2.6,0.9-2.6,2.7c0,1.6,1,2.6,2.6,2.6c0.6,0,1.2-0.1,1.5-0.3L156.5,357.8z"/>
		<path class="st2" d="M165.1,353.9c0,2.7-1.6,4.3-4,4.3c-2.4,0-3.8-1.8-3.8-4.1c0-2.4,1.5-4.2,3.9-4.2
			C163.7,349.8,165.1,351.6,165.1,353.9z M159.3,354c0,1.6,0.7,2.7,2,2.7c1.2,0,1.9-1.2,1.9-2.7c0-1.5-0.7-2.7-2-2.7
			C160,351.2,159.3,352.4,159.3,354z"/>
		<path class="st2" d="M173.3,354.9c0-1-0.1-2.1-0.1-3.3h0c-0.3,1-0.6,2.2-0.9,3.1l-1,3.2h-1.4l-0.9-3.1c-0.3-0.9-0.5-2.1-0.7-3.2h0
			c0,1.1-0.1,2.3-0.1,3.3L168,358h-1.7l0.5-8.1h2.4l0.8,2.7c0.3,0.9,0.5,1.9,0.7,2.9h0c0.2-0.9,0.5-2,0.8-2.9l0.9-2.7h2.4l0.4,8.1
			h-1.8L173.3,354.9z"/>
		<path class="st2" d="M183.7,354.9c0-1-0.1-2.1-0.1-3.3h0c-0.3,1-0.6,2.2-0.9,3.1l-1,3.2h-1.4l-0.9-3.1c-0.3-0.9-0.5-2.1-0.7-3.2h0
			c0,1.1-0.1,2.3-0.1,3.3l-0.1,3.1h-1.7l0.5-8.1h2.4l0.8,2.7c0.3,0.9,0.5,1.9,0.7,2.9h0c0.2-0.9,0.5-2,0.8-2.9l0.9-2.7h2.4l0.4,8.1
			h-1.8L183.7,354.9z"/>
		<path class="st2" d="M189.1,349.9v4.7c0,1.4,0.5,2.1,1.5,2.1c1,0,1.5-0.7,1.5-2.1v-4.7h1.8v4.5c0,2.5-1.3,3.7-3.4,3.7
			c-2,0-3.2-1.1-3.2-3.7v-4.5H189.1z"/>
		<path class="st2" d="M195.7,358v-8.1h2.1l1.7,3c0.5,0.9,1,1.9,1.3,2.8h0c-0.1-1.1-0.2-2.2-0.2-3.4v-2.4h1.7v8.1h-1.9l-1.7-3.1
			c-0.5-0.9-1-1.9-1.4-2.9l0,0c0,1.1,0.1,2.2,0.1,3.5v2.4H195.7z"/>
		<path class="st2" d="M206.1,349.9v8.1h-1.8v-8.1H206.1z"/>
		<path class="st2" d="M209.4,351.4h-2.2v-1.5h6.2v1.5h-2.2v6.5h-1.8V351.4z"/>
		<path class="st2" d="M216.4,349.9v8.1h-1.8v-8.1H216.4z"/>
		<path class="st2" d="M223,354.6h-3v1.9h3.3v1.5h-5.2v-8.1h5v1.5H220v1.7h3V354.6z"/>
		<path class="st2" d="M224.9,356.1c0.5,0.3,1.2,0.5,2,0.5c0.8,0,1.3-0.3,1.3-0.9c0-0.5-0.4-0.8-1.4-1.1c-1.3-0.5-2.2-1.2-2.2-2.4
			c0-1.4,1.2-2.4,3.1-2.4c0.9,0,1.6,0.2,2.1,0.4l-0.4,1.5c-0.3-0.2-0.9-0.4-1.7-0.4s-1.2,0.4-1.2,0.8c0,0.5,0.5,0.7,1.5,1.1
			c1.4,0.5,2.1,1.3,2.1,2.4c0,1.4-1,2.5-3.3,2.5c-0.9,0-1.8-0.2-2.3-0.5L224.9,356.1z"/>
		<path class="st2" d="M235.5,358l-1.9-8.1h2l0.6,3.3c0.2,1,0.3,2,0.5,2.8h0c0.1-0.9,0.3-1.8,0.5-2.8l0.7-3.3h1.9l0.6,3.4
			c0.2,0.9,0.3,1.8,0.4,2.7h0c0.1-0.9,0.3-1.8,0.5-2.8l0.7-3.3h1.9l-2.1,8.1h-2l-0.7-3.5c-0.2-0.8-0.3-1.6-0.4-2.5h0
			c-0.1,0.9-0.3,1.7-0.5,2.5l-0.8,3.5H235.5z"/>
		<path class="st2" d="M246.9,349.9v3.1h3v-3.1h1.8v8.1h-1.8v-3.4h-3v3.4H245v-8.1H246.9z"/>
		<path class="st2" d="M258.4,354.6h-3v1.9h3.3v1.5h-5.2v-8.1h5v1.5h-3.2v1.7h3V354.6z"/>
		<path class="st2" d="M260.3,350c0.6-0.1,1.5-0.2,2.4-0.2c1.2,0,2,0.2,2.6,0.6c0.5,0.4,0.7,0.9,0.7,1.7c0,1-0.7,1.7-1.4,2v0
			c0.6,0.2,0.9,0.8,1.1,1.5c0.3,0.9,0.5,2,0.7,2.3h-1.9c-0.1-0.2-0.3-0.9-0.6-1.9c-0.2-1-0.6-1.3-1.3-1.3h-0.6v3.2h-1.8V350z
			 M262.1,353.5h0.7c0.9,0,1.5-0.5,1.5-1.2c0-0.7-0.5-1.1-1.3-1.1c-0.4,0-0.7,0-0.8,0.1V353.5z"/>
		<path class="st2" d="M272.5,354.6h-3v1.9h3.3v1.5h-5.2v-8.1h5v1.5h-3.2v1.7h3V354.6z"/>
		<path class="st2" d="M151.9,372.2l-1.9-8.1h2l0.6,3.3c0.2,1,0.3,2,0.5,2.8h0c0.1-0.9,0.3-1.8,0.5-2.8l0.7-3.3h1.9l0.6,3.4
			c0.2,0.9,0.3,1.8,0.4,2.7h0c0.1-0.9,0.3-1.8,0.5-2.8l0.7-3.3h1.9l-2.1,8.1h-2l-0.7-3.5c-0.2-0.8-0.3-1.6-0.4-2.5h0
			c-0.1,0.9-0.3,1.7-0.5,2.5l-0.8,3.5H151.9z"/>
		<path class="st2" d="M166.2,368.8h-3v1.9h3.3v1.5h-5.2v-8.1h5v1.5h-3.2v1.7h3V368.8z"/>
		<path class="st2" d="M178.2,368.1c0,2.7-1.6,4.3-4,4.3c-2.4,0-3.8-1.8-3.8-4.1c0-2.4,1.5-4.2,3.9-4.2
			C176.8,364,178.2,365.9,178.2,368.1z M172.3,368.2c0,1.6,0.7,2.7,2,2.7c1.2,0,1.9-1.2,1.9-2.7c0-1.5-0.7-2.7-2-2.7
			C173,365.5,172.3,366.6,172.3,368.2z"/>
		<path class="st2" d="M179.6,364.2c0.6-0.1,1.4-0.2,2.5-0.2c1.1,0,1.9,0.2,2.5,0.6c0.5,0.4,0.9,1.1,0.9,1.9s-0.3,1.5-0.7,1.9
			c-0.6,0.6-1.5,0.9-2.6,0.9c-0.2,0-0.5,0-0.6,0v2.9h-1.8V364.2z M181.4,367.9c0.2,0,0.3,0,0.6,0c1,0,1.6-0.5,1.6-1.3
			c0-0.7-0.5-1.2-1.4-1.2c-0.4,0-0.6,0-0.8,0.1V367.9z"/>
		<path class="st2" d="M191.5,368.8h-3v1.9h3.3v1.5h-5.2v-8.1h5v1.5h-3.2v1.7h3V368.8z"/>
		<path class="st2" d="M193.4,364.2c0.6-0.1,1.5-0.2,2.4-0.2c1.2,0,2,0.2,2.6,0.6c0.5,0.4,0.7,0.9,0.7,1.7c0,1-0.7,1.7-1.4,2v0
			c0.6,0.2,0.9,0.8,1.1,1.5c0.3,0.9,0.5,2,0.7,2.3h-1.9c-0.1-0.2-0.3-0.9-0.6-1.9c-0.2-1-0.6-1.3-1.3-1.3h-0.6v3.2h-1.8V364.2z
			 M195.2,367.7h0.7c0.9,0,1.5-0.5,1.5-1.2c0-0.7-0.5-1.1-1.3-1.1c-0.4,0-0.7,0-0.8,0.1V367.7z"/>
		<path class="st2" d="M202.8,370.1l-0.6,2.1h-1.9l2.5-8.1h2.4l2.5,8.1h-2l-0.6-2.1H202.8z M204.9,368.8l-0.5-1.7
			c-0.1-0.5-0.3-1.1-0.4-1.6h0c-0.1,0.5-0.2,1.1-0.4,1.6l-0.5,1.7H204.9z"/>
		<path class="st2" d="M209.8,365.7h-2.2v-1.5h6.2v1.5h-2.2v6.5h-1.8V365.7z"/>
		<path class="st2" d="M219.8,368.8h-3v1.9h3.3v1.5H215v-8.1h5v1.5h-3.2v1.7h3V368.8z"/>
		<path class="st2" d="M226.2,370.1l-0.6,2.1h-1.9l2.5-8.1h2.4l2.5,8.1h-2l-0.6-2.1H226.2z M228.2,368.8l-0.5-1.7
			c-0.1-0.5-0.3-1.1-0.4-1.6h0c-0.1,0.5-0.2,1.1-0.4,1.6l-0.5,1.7H228.2z"/>
		<path class="st2" d="M232.3,372.2v-8.1h2.1l1.7,3c0.5,0.9,1,1.9,1.3,2.8h0c-0.1-1.1-0.2-2.2-0.2-3.4v-2.4h1.7v8.1H237l-1.7-3.1
			c-0.5-0.9-1-1.9-1.4-2.9l0,0c0,1.1,0.1,2.2,0.1,3.5v2.4H232.3z"/>
		<path class="st2" d="M240.8,364.2c0.7-0.1,1.5-0.2,2.5-0.2c1.5,0,2.5,0.3,3.3,0.9c0.8,0.6,1.4,1.6,1.4,3c0,1.5-0.6,2.6-1.3,3.3
			c-0.9,0.7-2.1,1-3.7,1c-0.9,0-1.6-0.1-2.1-0.1V364.2z M242.6,370.8c0.2,0,0.4,0,0.6,0c1.7,0,2.7-0.9,2.7-2.8c0-1.7-1-2.6-2.5-2.6
			c-0.4,0-0.7,0-0.8,0.1V370.8z"/>
		<path class="st2" d="M151.9,386.4l-1.9-8.1h2l0.6,3.3c0.2,1,0.3,2,0.5,2.8h0c0.1-0.9,0.3-1.8,0.5-2.8l0.7-3.3h1.9l0.6,3.4
			c0.2,0.9,0.3,1.8,0.4,2.7h0c0.1-0.9,0.3-1.8,0.5-2.8l0.7-3.3h1.9l-2.1,8.1h-2l-0.7-3.5c-0.2-0.8-0.3-1.6-0.4-2.5h0
			c-0.1,0.9-0.3,1.7-0.5,2.5l-0.8,3.5H151.9z"/>
		<path class="st2" d="M163.3,378.4v8.1h-1.8v-8.1H163.3z"/>
		<path class="st2" d="M166.6,379.9h-2.2v-1.5h6.2v1.5h-2.2v6.5h-1.8V379.9z"/>
		<path class="st2" d="M173.6,378.4v3.1h3v-3.1h1.8v8.1h-1.8v-3.4h-3v3.4h-1.8v-8.1H173.6z"/>
		<path class="st2" d="M190.3,382.3c0,2.7-1.6,4.3-4,4.3c-2.4,0-3.8-1.8-3.8-4.1c0-2.4,1.5-4.2,3.9-4.2
			C189,378.2,190.3,380.1,190.3,382.3z M184.5,382.4c0,1.6,0.7,2.7,2,2.7c1.2,0,1.9-1.2,1.9-2.7c0-1.5-0.7-2.7-2-2.7
			C185.2,379.7,184.5,380.9,184.5,382.4z"/>
		<path class="st2" d="M193.5,378.4v4.7c0,1.4,0.5,2.1,1.5,2.1c1,0,1.5-0.7,1.5-2.1v-4.7h1.8v4.5c0,2.5-1.3,3.7-3.4,3.7
			c-2,0-3.2-1.1-3.2-3.7v-4.5H193.5z"/>
		<path class="st2" d="M200.1,378.5c0.6-0.1,1.5-0.2,2.4-0.2c1.2,0,2,0.2,2.6,0.6c0.5,0.4,0.7,0.9,0.7,1.7c0,1-0.7,1.7-1.4,2v0
			c0.6,0.2,0.9,0.8,1.1,1.5c0.3,0.9,0.5,2,0.7,2.3h-1.9c-0.1-0.2-0.3-0.9-0.6-1.9c-0.2-1-0.6-1.3-1.3-1.3h-0.6v3.2h-1.8V378.5z
			 M201.9,381.9h0.7c0.9,0,1.5-0.5,1.5-1.2c0-0.7-0.5-1.1-1.3-1.1c-0.4,0-0.7,0-0.8,0.1V381.9z"/>
		<path class="st2" d="M216.1,386.2c-0.3,0.2-1.1,0.3-2.1,0.3c-2.8,0-4.2-1.7-4.2-4c0-2.8,2-4.3,4.4-4.3c0.9,0,1.7,0.2,2,0.4
			l-0.4,1.5c-0.4-0.2-0.9-0.3-1.5-0.3c-1.5,0-2.6,0.9-2.6,2.7c0,1.6,1,2.6,2.6,2.6c0.6,0,1.2-0.1,1.5-0.3L216.1,386.2z"/>
		<path class="st2" d="M219.2,378.4v4.7c0,1.4,0.5,2.1,1.5,2.1c1,0,1.5-0.7,1.5-2.1v-4.7h1.8v4.5c0,2.5-1.3,3.7-3.4,3.7
			c-2,0-3.2-1.1-3.2-3.7v-4.5H219.2z"/>
		<path class="st2" d="M225.7,384.6c0.5,0.3,1.2,0.5,2,0.5c0.8,0,1.3-0.3,1.3-0.9c0-0.5-0.4-0.8-1.4-1.1c-1.3-0.5-2.2-1.2-2.2-2.4
			c0-1.4,1.2-2.4,3.1-2.4c0.9,0,1.6,0.2,2.1,0.4l-0.4,1.5c-0.3-0.2-0.9-0.4-1.7-0.4s-1.2,0.4-1.2,0.8c0,0.5,0.5,0.7,1.5,1.1
			c1.4,0.5,2.1,1.3,2.1,2.4c0,1.4-1,2.5-3.3,2.5c-0.9,0-1.8-0.2-2.3-0.5L225.7,384.6z"/>
		<path class="st2" d="M233.9,379.9h-2.2v-1.5h6.2v1.5h-2.2v6.5h-1.8V379.9z"/>
		<path class="st2" d="M246.4,382.3c0,2.7-1.6,4.3-4,4.3c-2.4,0-3.8-1.8-3.8-4.1c0-2.4,1.5-4.2,3.9-4.2
			C245,378.2,246.4,380.1,246.4,382.3z M240.5,382.4c0,1.6,0.7,2.7,2,2.7c1.2,0,1.9-1.2,1.9-2.7c0-1.5-0.7-2.7-2-2.7
			C241.2,379.7,240.5,380.9,240.5,382.4z"/>
		<path class="st2" d="M254.6,383.4c0-1-0.1-2.1-0.1-3.3h0c-0.3,1-0.6,2.2-0.9,3.1l-1,3.2h-1.4l-0.9-3.1c-0.3-0.9-0.5-2.1-0.7-3.2h0
			c0,1.1-0.1,2.3-0.1,3.3l-0.1,3.1h-1.7l0.5-8.1h2.4l0.8,2.7c0.3,0.9,0.5,1.9,0.7,2.9h0c0.2-0.9,0.5-2,0.8-2.9l0.9-2.7h2.4l0.4,8.1
			h-1.8L254.6,383.4z"/>
		<path class="st2" d="M263,383h-3v1.9h3.3v1.5h-5.2v-8.1h5v1.5H260v1.7h3V383z"/>
		<path class="st2" d="M264.9,378.5c0.6-0.1,1.5-0.2,2.4-0.2c1.2,0,2,0.2,2.6,0.6c0.5,0.4,0.7,0.9,0.7,1.7c0,1-0.7,1.7-1.4,2v0
			c0.6,0.2,0.9,0.8,1.1,1.5c0.3,0.9,0.5,2,0.7,2.3h-1.9c-0.1-0.2-0.3-0.9-0.6-1.9c-0.2-1-0.6-1.3-1.3-1.3h-0.6v3.2h-1.8V378.5z
			 M266.7,381.9h0.7c0.9,0,1.5-0.5,1.5-1.2c0-0.7-0.5-1.1-1.3-1.1c-0.4,0-0.7,0-0.8,0.1V381.9z"/>
		<path class="st2" d="M272.4,384.6c0.5,0.3,1.2,0.5,2,0.5c0.8,0,1.3-0.3,1.3-0.9c0-0.5-0.4-0.8-1.4-1.1c-1.3-0.5-2.2-1.2-2.2-2.4
			c0-1.4,1.2-2.4,3.1-2.4c0.9,0,1.6,0.2,2.1,0.4l-0.4,1.5c-0.3-0.2-0.9-0.4-1.7-0.4s-1.2,0.4-1.2,0.8c0,0.5,0.5,0.7,1.5,1.1
			c1.4,0.5,2.1,1.3,2.1,2.4c0,1.4-1,2.5-3.3,2.5c-0.9,0-1.8-0.2-2.3-0.5L272.4,384.6z"/>
	</g>
	<g>
		<g>
			<path class="st1" d="M446.6,504.1v8.1h-1.8v-8.1H446.6z"/>
			<path class="st1" d="M448.4,512.1v-8.1h2.1l1.7,3c0.5,0.9,1,1.9,1.3,2.8h0c-0.1-1.1-0.2-2.2-0.2-3.4v-2.4h1.7v8.1h-1.9l-1.7-3.1
				c-0.5-0.9-1-1.9-1.4-2.9l0,0c0,1.1,0.1,2.2,0.1,3.5v2.4H448.4z"/>
			<path class="st1" d="M457,504.1h4.9v1.5h-3.1v1.8h2.9v1.5h-2.9v3.2H457V504.1z"/>
			<path class="st1" d="M470.8,508c0,2.7-1.6,4.3-4,4.3c-2.4,0-3.8-1.8-3.8-4.1c0-2.4,1.5-4.2,3.9-4.2
				C469.4,503.9,470.8,505.8,470.8,508z M464.9,508.1c0,1.6,0.7,2.7,2,2.7c1.2,0,1.9-1.2,1.9-2.7c0-1.5-0.7-2.7-2-2.7
				C465.6,505.4,464.9,506.6,464.9,508.1z"/>
			<path class="st1" d="M472.2,504.2c0.6-0.1,1.5-0.2,2.4-0.2c1.2,0,2,0.2,2.6,0.6c0.5,0.4,0.7,0.9,0.7,1.7c0,1-0.7,1.7-1.4,2v0
				c0.6,0.2,0.9,0.8,1.1,1.5c0.3,0.9,0.5,2,0.7,2.3h-1.9c-0.1-0.2-0.3-0.9-0.6-1.9c-0.2-1-0.6-1.3-1.3-1.3H474v3.2h-1.8V504.2z
				 M474,507.6h0.7c0.9,0,1.5-0.5,1.5-1.2c0-0.7-0.5-1.1-1.3-1.1c-0.4,0-0.7,0-0.8,0.1V507.6z"/>
			<path class="st1" d="M486.5,509c0-1-0.1-2.1-0.1-3.3h0c-0.3,1-0.6,2.2-0.9,3.1l-1,3.2H483l-0.9-3.1c-0.3-0.9-0.5-2.1-0.7-3.2h0
				c0,1.1-0.1,2.3-0.1,3.3l-0.1,3.1h-1.7l0.5-8.1h2.4l0.8,2.7c0.3,0.9,0.5,1.9,0.7,2.9h0c0.2-0.9,0.5-2,0.8-2.9l0.9-2.7h2.4l0.4,8.1
				h-1.8L486.5,509z"/>
			<path class="st1" d="M491.9,510.1l-0.6,2.1h-1.9l2.5-8.1h2.4l2.5,8.1h-2l-0.6-2.1H491.9z M494,508.7l-0.5-1.7
				c-0.1-0.5-0.3-1.1-0.4-1.6h0c-0.1,0.5-0.2,1.1-0.4,1.6l-0.5,1.7H494z"/>
			<path class="st1" d="M498.9,505.6h-2.2v-1.5h6.2v1.5h-2.2v6.5h-1.8V505.6z"/>
			<path class="st1" d="M505.9,504.1v8.1h-1.8v-8.1H505.9z"/>
			<path class="st1" d="M515.1,508c0,2.7-1.6,4.3-4,4.3c-2.4,0-3.8-1.8-3.8-4.1c0-2.4,1.5-4.2,3.9-4.2
				C513.8,503.9,515.1,505.8,515.1,508z M509.3,508.1c0,1.6,0.7,2.7,2,2.7c1.2,0,1.9-1.2,1.9-2.7c0-1.5-0.7-2.7-2-2.7
				C510,505.4,509.3,506.6,509.3,508.1z"/>
			<path class="st1" d="M516.6,512.1v-8.1h2.1l1.7,3c0.5,0.9,1,1.9,1.3,2.8h0c-0.1-1.1-0.2-2.2-0.2-3.4v-2.4h1.7v8.1h-1.9l-1.7-3.1
				c-0.5-0.9-1-1.9-1.4-2.9l0,0c0,1.1,0.1,2.2,0.1,3.5v2.4H516.6z"/>
			<path class="st1" d="M470.7,524.5c0.5,0.3,1.2,0.5,2,0.5c0.8,0,1.3-0.3,1.3-0.9c0-0.5-0.4-0.8-1.4-1.1c-1.3-0.5-2.2-1.2-2.2-2.4
				c0-1.4,1.2-2.4,3.1-2.4c0.9,0,1.6,0.2,2.1,0.4l-0.4,1.5c-0.3-0.2-0.9-0.4-1.7-0.4s-1.2,0.4-1.2,0.8c0,0.5,0.5,0.7,1.5,1.1
				c1.4,0.5,2.1,1.3,2.1,2.4c0,1.4-1,2.5-3.3,2.5c-0.9,0-1.8-0.2-2.3-0.5L470.7,524.5z"/>
			<path class="st1" d="M482.1,523h-3v1.9h3.3v1.5h-5.2v-8.1h5v1.5h-3.2v1.7h3V523z"/>
			<path class="st1" d="M489.9,526.1c-0.3,0.2-1.1,0.3-2.1,0.3c-2.8,0-4.2-1.7-4.2-4c0-2.8,2-4.3,4.4-4.3c0.9,0,1.7,0.2,2,0.4
				l-0.4,1.5c-0.4-0.2-0.9-0.3-1.5-0.3c-1.5,0-2.6,0.9-2.6,2.7c0,1.6,1,2.6,2.6,2.6c0.6,0,1.2-0.1,1.5-0.3L489.9,526.1z"/>
			<path class="st1" d="M493,518.3v4.7c0,1.4,0.5,2.1,1.5,2.1c1,0,1.5-0.7,1.5-2.1v-4.7h1.8v4.5c0,2.5-1.3,3.7-3.4,3.7
				c-2,0-3.2-1.1-3.2-3.7v-4.5H493z"/>
			<path class="st1" d="M499.6,518.4c0.6-0.1,1.5-0.2,2.4-0.2c1.2,0,2,0.2,2.6,0.6c0.5,0.4,0.7,0.9,0.7,1.7c0,1-0.7,1.7-1.4,2v0
				c0.6,0.2,0.9,0.8,1.1,1.5c0.3,0.9,0.5,2,0.7,2.3h-1.9c-0.1-0.2-0.3-0.9-0.6-1.9c-0.2-1-0.6-1.3-1.3-1.3h-0.6v3.2h-1.8V518.4z
				 M501.4,521.9h0.7c0.9,0,1.5-0.5,1.5-1.2c0-0.7-0.5-1.1-1.3-1.1c-0.4,0-0.7,0-0.8,0.1V521.9z"/>
			<path class="st1" d="M508.8,518.3v8.1H507v-8.1H508.8z"/>
			<path class="st1" d="M512.1,519.8h-2.2v-1.5h6.2v1.5H514v6.5h-1.8V519.8z"/>
			<path class="st1" d="M519.5,526.4v-3.3l-2.6-4.8h2.1l0.8,1.9c0.3,0.6,0.4,1,0.6,1.5h0c0.2-0.5,0.4-1,0.6-1.5l0.8-1.9h2.1
				l-2.7,4.7v3.4H519.5z"/>
		</g>
		<g>
			<path class="st1" d="M223.9,508.7h-3v1.9h3.3v1.5h-5.2v-8.1h5v1.5h-3.2v1.7h3V508.7z"/>
			<path class="st1" d="M227.3,505.6h-2.2v-1.5h6.2v1.5h-2.2v6.5h-1.8V505.6z"/>
			<path class="st1" d="M234.3,504.1v3.1h3v-3.1h1.8v8.1h-1.8v-3.4h-3v3.4h-1.8v-8.1H234.3z"/>
			<path class="st1" d="M242.8,504.1v8.1H241v-8.1H242.8z"/>
			<path class="st1" d="M250.6,511.9c-0.3,0.2-1.1,0.3-2.1,0.3c-2.8,0-4.2-1.7-4.2-4c0-2.8,2-4.3,4.4-4.3c0.9,0,1.7,0.2,2,0.4
				l-0.4,1.5c-0.4-0.2-0.9-0.3-1.5-0.3c-1.5,0-2.6,0.9-2.6,2.7c0,1.6,1,2.6,2.6,2.6c0.6,0,1.2-0.1,1.5-0.3L250.6,511.9z"/>
			<path class="st1" d="M252.1,510.3c0.5,0.3,1.2,0.5,2,0.5c0.8,0,1.3-0.3,1.3-0.9c0-0.5-0.4-0.8-1.4-1.1c-1.3-0.5-2.2-1.2-2.2-2.4
				c0-1.4,1.2-2.4,3.1-2.4c0.9,0,1.6,0.2,2.1,0.4l-0.4,1.5c-0.3-0.2-0.9-0.4-1.7-0.4s-1.2,0.4-1.2,0.8c0,0.5,0.5,0.7,1.5,1.1
				c1.4,0.5,2.1,1.3,2.1,2.4c0,1.4-1,2.5-3.3,2.5c-0.9,0-1.8-0.2-2.3-0.5L252.1,510.3z"/>
			<path class="st1" d="M224.2,526.4c-0.2-0.2-0.3-0.4-0.5-0.6c-0.5,0.4-1.3,0.7-2.2,0.7c-2,0-2.8-1.2-2.8-2.3
				c0-1.1,0.6-1.8,1.5-2.3v0c-0.3-0.4-0.6-1-0.6-1.6c0-1,0.8-2.1,2.4-2.1c1.2,0,2.2,0.7,2.2,1.9c0,0.8-0.5,1.5-1.6,2.1l0,0
				c0.5,0.5,1,1.1,1.4,1.5c0.3-0.5,0.6-1.2,0.7-2h1.6c-0.2,1.2-0.6,2.3-1.3,3.1c0.5,0.5,0.9,1,1.4,1.6H224.2z M222.8,524.8
				c-0.5-0.5-1.2-1.2-1.8-2c-0.3,0.2-0.6,0.6-0.6,1.1c0,0.7,0.5,1.3,1.3,1.3C222.2,525.2,222.6,525,222.8,524.8z M221.2,520.1
				c0,0.4,0.2,0.8,0.6,1.2c0.6-0.4,0.9-0.7,0.9-1.2c0-0.4-0.2-0.8-0.7-0.8C221.5,519.3,221.2,519.7,221.2,520.1z"/>
			<path class="st1" d="M236,526.1c-0.3,0.2-1.1,0.3-2.1,0.3c-2.8,0-4.2-1.7-4.2-4c0-2.8,2-4.3,4.4-4.3c0.9,0,1.7,0.2,2,0.4
				l-0.4,1.5c-0.4-0.2-0.9-0.3-1.5-0.3c-1.5,0-2.6,0.9-2.6,2.7c0,1.6,1,2.6,2.6,2.6c0.6,0,1.2-0.1,1.5-0.3L236,526.1z"/>
			<path class="st1" d="M244.6,522.2c0,2.7-1.6,4.3-4,4.3c-2.4,0-3.8-1.8-3.8-4.1c0-2.4,1.5-4.2,3.9-4.2
				C243.2,518.2,244.6,520,244.6,522.2z M238.8,522.4c0,1.6,0.7,2.7,2,2.7c1.2,0,1.9-1.2,1.9-2.7c0-1.5-0.7-2.7-2-2.7
				C239.5,519.6,238.8,520.8,238.8,522.4z"/>
			<path class="st1" d="M252.8,523.3c0-1-0.1-2.1-0.1-3.3h0c-0.3,1-0.6,2.2-0.9,3.1l-1,3.2h-1.4l-0.9-3.1c-0.3-0.9-0.5-2.1-0.7-3.2
				h0c0,1.1-0.1,2.3-0.1,3.3l-0.1,3.1h-1.7l0.5-8.1h2.4l0.8,2.7c0.3,0.9,0.5,1.9,0.7,2.9h0c0.2-0.9,0.5-2,0.8-2.9l0.9-2.7h2.4
				l0.4,8.1H253L252.8,523.3z"/>
			<path class="st1" d="M256.4,518.4c0.6-0.1,1.4-0.2,2.5-0.2c1.1,0,1.9,0.2,2.5,0.6c0.5,0.4,0.9,1.1,0.9,1.9s-0.3,1.5-0.7,1.9
				c-0.6,0.6-1.5,0.9-2.6,0.9c-0.2,0-0.5,0-0.6,0v2.9h-1.8V518.4z M258.3,522.1c0.2,0,0.3,0,0.6,0c1,0,1.6-0.5,1.6-1.3
				c0-0.7-0.5-1.2-1.4-1.2c-0.4,0-0.6,0-0.8,0.1V522.1z"/>
			<path class="st1" d="M263.5,518.3h1.8v6.5h3.2v1.5h-5V518.3z"/>
			<path class="st1" d="M271.6,518.3v8.1h-1.8v-8.1H271.6z"/>
			<path class="st1" d="M275.2,524.3l-0.6,2.1h-1.9l2.5-8.1h2.4l2.5,8.1h-2l-0.6-2.1H275.2z M277.2,522.9l-0.5-1.7
				c-0.1-0.5-0.3-1.1-0.4-1.6h0c-0.1,0.5-0.2,1.1-0.4,1.6l-0.5,1.7H277.2z"/>
			<path class="st1" d="M281.3,526.4v-8.1h2.1l1.7,3c0.5,0.9,1,1.9,1.3,2.8h0c-0.1-1.1-0.2-2.2-0.2-3.4v-2.4h1.7v8.1H286l-1.7-3.1
				c-0.5-0.9-1-1.9-1.4-2.9l0,0c0,1.1,0.1,2.2,0.1,3.5v2.4H281.3z"/>
			<path class="st1" d="M295.7,526.1c-0.3,0.2-1.1,0.3-2.1,0.3c-2.8,0-4.2-1.7-4.2-4c0-2.8,2-4.3,4.4-4.3c0.9,0,1.7,0.2,2,0.4
				l-0.4,1.5c-0.4-0.2-0.9-0.3-1.5-0.3c-1.5,0-2.6,0.9-2.6,2.7c0,1.6,1,2.6,2.6,2.6c0.6,0,1.2-0.1,1.5-0.3L295.7,526.1z"/>
			<path class="st1" d="M301.9,523h-3v1.9h3.3v1.5h-5.2v-8.1h5v1.5h-3.2v1.7h3V523z"/>
		</g>
		<g>
			<path class="st1" d="M301.3,571.6c-0.3,0.2-1.1,0.3-2.1,0.3c-2.8,0-4.2-1.7-4.2-4c0-2.8,2-4.3,4.4-4.3c0.9,0,1.7,0.2,2,0.4
				l-0.4,1.5c-0.4-0.2-0.9-0.3-1.5-0.3c-1.5,0-2.6,0.9-2.6,2.7c0,1.6,1,2.6,2.6,2.6c0.6,0,1.2-0.1,1.5-0.3L301.3,571.6z"/>
			<path class="st1" d="M309.8,567.7c0,2.7-1.6,4.3-4,4.3c-2.4,0-3.8-1.8-3.8-4.1c0-2.4,1.5-4.2,3.9-4.2
				C308.5,563.7,309.8,565.5,309.8,567.7z M304,567.9c0,1.6,0.7,2.7,2,2.7c1.2,0,1.9-1.2,1.9-2.7c0-1.5-0.7-2.7-2-2.7
				C304.7,565.1,304,566.3,304,567.9z"/>
			<path class="st1" d="M311.3,563.9c0.6-0.1,1.5-0.2,2.4-0.2c1.2,0,2,0.2,2.6,0.6c0.5,0.4,0.7,0.9,0.7,1.7c0,1-0.7,1.7-1.4,2v0
				c0.6,0.2,0.9,0.8,1.1,1.5c0.3,0.9,0.5,2,0.7,2.3h-1.9c-0.1-0.2-0.3-0.9-0.6-1.9c-0.2-1-0.6-1.3-1.3-1.3h-0.6v3.2h-1.8V563.9z
				 M313.1,567.4h0.7c0.9,0,1.5-0.5,1.5-1.2c0-0.7-0.5-1.1-1.3-1.1c-0.4,0-0.7,0-0.8,0.1V567.4z"/>
			<path class="st1" d="M318.7,563.9c0.6-0.1,1.4-0.2,2.5-0.2c1.1,0,1.9,0.2,2.5,0.6c0.5,0.4,0.9,1.1,0.9,1.9s-0.3,1.5-0.7,1.9
				c-0.6,0.6-1.5,0.9-2.6,0.9c-0.2,0-0.5,0-0.6,0v2.9h-1.8V563.9z M320.5,567.6c0.2,0,0.3,0,0.6,0c1,0,1.6-0.5,1.6-1.3
				c0-0.7-0.5-1.2-1.4-1.2c-0.4,0-0.6,0-0.8,0.1V567.6z"/>
			<path class="st1" d="M333.3,567.7c0,2.7-1.6,4.3-4,4.3c-2.4,0-3.8-1.8-3.8-4.1c0-2.4,1.5-4.2,3.9-4.2
				C331.9,563.7,333.3,565.5,333.3,567.7z M327.4,567.9c0,1.6,0.7,2.7,2,2.7c1.2,0,1.9-1.2,1.9-2.7c0-1.5-0.7-2.7-2-2.7
				C328.1,565.1,327.4,566.3,327.4,567.9z"/>
			<path class="st1" d="M334.7,563.9c0.6-0.1,1.5-0.2,2.4-0.2c1.2,0,2,0.2,2.6,0.6c0.5,0.4,0.7,0.9,0.7,1.7c0,1-0.7,1.7-1.4,2v0
				c0.6,0.2,0.9,0.8,1.1,1.5c0.3,0.9,0.5,2,0.7,2.3H339c-0.1-0.2-0.3-0.9-0.6-1.9c-0.2-1-0.6-1.3-1.3-1.3h-0.6v3.2h-1.8V563.9z
				 M336.5,567.4h0.7c0.9,0,1.5-0.5,1.5-1.2c0-0.7-0.5-1.1-1.3-1.1c-0.4,0-0.7,0-0.8,0.1V567.4z"/>
			<path class="st1" d="M344.2,569.8l-0.6,2.1h-1.9l2.5-8.1h2.4l2.5,8.1h-2l-0.6-2.1H344.2z M346.2,568.4l-0.5-1.7
				c-0.1-0.5-0.3-1.1-0.4-1.6h0c-0.1,0.5-0.2,1.1-0.4,1.6l-0.5,1.7H346.2z"/>
			<path class="st1" d="M351.2,565.3H349v-1.5h6.2v1.5H353v6.5h-1.8V565.3z"/>
			<path class="st1" d="M361.1,568.5h-3v1.9h3.3v1.5h-5.2v-8.1h5v1.5h-3.2v1.7h3V568.5z"/>
			<path class="st1" d="M372.4,571.5c-0.6,0.2-1.6,0.5-2.7,0.5c-1.5,0-2.5-0.4-3.3-1.1c-0.7-0.7-1.2-1.8-1.1-2.9
				c0-2.7,2-4.2,4.6-4.2c1,0,1.8,0.2,2.2,0.4l-0.4,1.5c-0.4-0.2-1-0.3-1.9-0.3c-1.5,0-2.7,0.9-2.7,2.6c0,1.7,1,2.7,2.5,2.7
				c0.4,0,0.8,0,0.9-0.1v-1.7h-1.2v-1.4h3V571.5z"/>
			<path class="st1" d="M381.5,567.7c0,2.7-1.6,4.3-4,4.3c-2.4,0-3.8-1.8-3.8-4.1c0-2.4,1.5-4.2,3.9-4.2
				C380.1,563.7,381.5,565.5,381.5,567.7z M375.6,567.9c0,1.6,0.7,2.7,2,2.7c1.2,0,1.9-1.2,1.9-2.7c0-1.5-0.7-2.7-2-2.7
				C376.4,565.1,375.6,566.3,375.6,567.9z"/>
			<path class="st1" d="M384.5,571.9l-2.6-8.1h2l1,3.4c0.3,1,0.5,1.9,0.7,2.9h0c0.2-1,0.5-1.9,0.7-2.9l1-3.5h1.9l-2.7,8.1H384.5z"/>
			<path class="st1" d="M395.3,568.5h-3v1.9h3.3v1.5h-5.2v-8.1h5v1.5h-3.2v1.7h3V568.5z"/>
			<path class="st1" d="M397.2,563.9c0.6-0.1,1.5-0.2,2.4-0.2c1.2,0,2,0.2,2.6,0.6c0.5,0.4,0.7,0.9,0.7,1.7c0,1-0.7,1.7-1.4,2v0
				c0.6,0.2,0.9,0.8,1.1,1.5c0.3,0.9,0.5,2,0.7,2.3h-1.9c-0.1-0.2-0.3-0.9-0.6-1.9c-0.2-1-0.6-1.3-1.3-1.3H399v3.2h-1.8V563.9z
				 M399,567.4h0.7c0.9,0,1.5-0.5,1.5-1.2c0-0.7-0.5-1.1-1.3-1.1c-0.4,0-0.7,0-0.8,0.1V567.4z"/>
			<path class="st1" d="M404.6,571.9v-8.1h2.1l1.7,3c0.5,0.9,1,1.9,1.3,2.8h0c-0.1-1.1-0.2-2.2-0.2-3.4v-2.4h1.7v8.1h-1.9l-1.7-3.1
				c-0.5-0.9-1-1.9-1.4-2.9l0,0c0,1.1,0.1,2.2,0.1,3.5v2.4H404.6z"/>
			<path class="st1" d="M414.9,569.8l-0.6,2.1h-1.9l2.5-8.1h2.4l2.5,8.1h-2l-0.6-2.1H414.9z M417,568.4l-0.5-1.7
				c-0.1-0.5-0.3-1.1-0.4-1.6h0c-0.1,0.5-0.2,1.1-0.4,1.6l-0.5,1.7H417z"/>
			<path class="st1" d="M421,571.9v-8.1h2.1l1.7,3c0.5,0.9,1,1.9,1.3,2.8h0c-0.1-1.1-0.2-2.2-0.2-3.4v-2.4h1.7v8.1h-1.9l-1.7-3.1
				c-0.5-0.9-1-1.9-1.4-2.9l0,0c0,1.1,0.1,2.2,0.1,3.5v2.4H421z"/>
			<path class="st1" d="M435.5,571.6c-0.3,0.2-1.1,0.3-2.1,0.3c-2.8,0-4.2-1.7-4.2-4c0-2.8,2-4.3,4.4-4.3c0.9,0,1.7,0.2,2,0.4
				l-0.4,1.5c-0.4-0.2-0.9-0.3-1.5-0.3c-1.5,0-2.6,0.9-2.6,2.7c0,1.6,1,2.6,2.6,2.6c0.6,0,1.2-0.1,1.5-0.3L435.5,571.6z"/>
			<path class="st1" d="M441.6,568.5h-3v1.9h3.3v1.5h-5.2v-8.1h5v1.5h-3.2v1.7h3V568.5z"/>
			<path class="st1" d="M305,584l-0.6,2.1h-1.9l2.5-8.1h2.4l2.5,8.1h-2l-0.6-2.1H305z M307,582.7l-0.5-1.7c-0.1-0.5-0.3-1.1-0.4-1.6
				h0c-0.1,0.5-0.2,1.1-0.4,1.6l-0.5,1.7H307z"/>
			<path class="st1" d="M311.1,586.1V578h2.1l1.7,3c0.5,0.9,1,1.9,1.3,2.8h0c-0.1-1.1-0.2-2.2-0.2-3.4V578h1.7v8.1h-1.9l-1.7-3.1
				c-0.5-0.9-1-1.9-1.4-2.9l0,0c0,1.1,0.1,2.2,0.1,3.5v2.4H311.1z"/>
			<path class="st1" d="M319.6,578.1c0.7-0.1,1.5-0.2,2.5-0.2c1.5,0,2.5,0.3,3.3,0.9c0.8,0.6,1.4,1.6,1.4,3c0,1.5-0.6,2.6-1.3,3.3
				c-0.9,0.7-2.1,1-3.7,1c-0.9,0-1.6-0.1-2.1-0.1V578.1z M321.5,584.7c0.2,0,0.4,0,0.6,0c1.7,0,2.7-0.9,2.7-2.8c0-1.7-1-2.6-2.5-2.6
				c-0.4,0-0.7,0-0.8,0.1V584.7z"/>
			<path class="st1" d="M332.4,579.6h-2.2V578h6.2v1.5h-2.2v6.5h-1.8V579.6z"/>
			<path class="st1" d="M344.9,582c0,2.7-1.6,4.3-4,4.3c-2.4,0-3.8-1.8-3.8-4.1c0-2.4,1.5-4.2,3.9-4.2
				C343.6,577.9,344.9,579.7,344.9,582z M339.1,582.1c0,1.6,0.7,2.7,2,2.7c1.2,0,1.9-1.2,1.9-2.7c0-1.5-0.7-2.7-2-2.7
				C339.8,579.3,339.1,580.5,339.1,582.1z"/>
			<path class="st1" d="M346.4,578.1c0.6-0.1,1.4-0.2,2.5-0.2c1.1,0,1.9,0.2,2.5,0.6c0.5,0.4,0.9,1.1,0.9,1.9s-0.3,1.5-0.7,1.9
				c-0.6,0.6-1.5,0.9-2.6,0.9c-0.2,0-0.5,0-0.6,0v2.9h-1.8V578.1z M348.2,581.8c0.2,0,0.3,0,0.6,0c1,0,1.6-0.5,1.6-1.3
				c0-0.7-0.5-1.2-1.4-1.2c-0.4,0-0.6,0-0.8,0.1V581.8z"/>
			<path class="st1" d="M363.1,583c0-1-0.1-2.1-0.1-3.3h0c-0.3,1-0.6,2.2-0.9,3.1l-1,3.2h-1.4l-0.9-3.1c-0.3-0.9-0.5-2.1-0.7-3.2h0
				c0,1.1-0.1,2.3-0.1,3.3l-0.1,3.1h-1.7l0.5-8.1h2.4l0.8,2.7c0.3,0.9,0.5,1.9,0.7,2.9h0c0.2-0.9,0.5-2,0.8-2.9l0.9-2.7h2.4l0.4,8.1
				h-1.8L363.1,583z"/>
			<path class="st1" d="M368.5,584l-0.6,2.1h-1.9l2.5-8.1h2.4l2.5,8.1h-2l-0.6-2.1H368.5z M370.6,582.7l-0.5-1.7
				c-0.1-0.5-0.3-1.1-0.4-1.6h0c-0.1,0.5-0.2,1.1-0.4,1.6l-0.5,1.7H370.6z"/>
			<path class="st1" d="M374.6,586.1V578h2.1l1.7,3c0.5,0.9,1,1.9,1.3,2.8h0c-0.1-1.1-0.2-2.2-0.2-3.4V578h1.7v8.1h-1.9l-1.7-3.1
				c-0.5-0.9-1-1.9-1.4-2.9l0,0c0,1.1,0.1,2.2,0.1,3.5v2.4H374.6z"/>
			<path class="st1" d="M385,584l-0.6,2.1h-1.9l2.5-8.1h2.4l2.5,8.1h-2l-0.6-2.1H385z M387,582.7l-0.5-1.7c-0.1-0.5-0.3-1.1-0.4-1.6
				h0c-0.1,0.5-0.2,1.1-0.4,1.6l-0.5,1.7H387z"/>
			<path class="st1" d="M397.6,585.7c-0.6,0.2-1.6,0.5-2.7,0.5c-1.5,0-2.5-0.4-3.3-1.1c-0.7-0.7-1.2-1.8-1.1-2.9
				c0-2.7,2-4.2,4.6-4.2c1,0,1.8,0.2,2.2,0.4l-0.4,1.5c-0.4-0.2-1-0.3-1.9-0.3c-1.5,0-2.7,0.9-2.7,2.6c0,1.7,1,2.7,2.5,2.7
				c0.4,0,0.8,0,0.9-0.1v-1.7h-1.2v-1.4h3V585.7z"/>
			<path class="st1" d="M404.1,582.7h-3v1.9h3.3v1.5h-5.2V578h5v1.5h-3.2v1.7h3V582.7z"/>
			<path class="st1" d="M412.8,583c0-1-0.1-2.1-0.1-3.3h0c-0.3,1-0.6,2.2-0.9,3.1l-1,3.2h-1.4l-0.9-3.1c-0.3-0.9-0.5-2.1-0.7-3.2h0
				c0,1.1-0.1,2.3-0.1,3.3l-0.1,3.1h-1.7l0.5-8.1h2.4l0.8,2.7c0.3,0.9,0.5,1.9,0.7,2.9h0c0.2-0.9,0.5-2,0.8-2.9l0.9-2.7h2.4l0.4,8.1
				h-1.8L412.8,583z"/>
			<path class="st1" d="M421.2,582.7h-3v1.9h3.3v1.5h-5.2V578h5v1.5h-3.2v1.7h3V582.7z"/>
			<path class="st1" d="M423.1,586.1V578h2.1l1.7,3c0.5,0.9,1,1.9,1.3,2.8h0c-0.1-1.1-0.2-2.2-0.2-3.4V578h1.7v8.1h-1.9l-1.7-3.1
				c-0.5-0.9-1-1.9-1.4-2.9l0,0c0,1.1,0.1,2.2,0.1,3.5v2.4H423.1z"/>
			<path class="st1" d="M433.1,579.6H431V578h6.2v1.5H435v6.5h-1.8V579.6z"/>
		</g>
	</g>
</g>
</svg>
