<svg xmlns="http://www.w3.org/2000/svg" viewBox="0 0 742.85 742.85"><defs><style>.cls-1,.cls-10{fill:#fff;}.cls-2{font-size:16.5px;}.cls-2,.cls-6{fill:#0071ce;}.cls-10,.cls-11,.cls-2,.cls-38,.cls-51,.cls-63,.cls-71,.cls-79,.cls-85,.cls-87{font-family:MyriadPro-Bold, Myriad Pro;font-weight:700;}.cls-3,.cls-79,.cls-85,.cls-87{fill:#002f87;}.cls-11,.cls-4,.cls-71{fill:#ffb71b;}.cls-38,.cls-5,.cls-51,.cls-63{fill:#76bc21;}.cls-7,.cls-8,.cls-9{fill:none;stroke-miterlimit:10;}.cls-7{stroke:#002f87;}.cls-8{stroke:#76bc21;}.cls-9{stroke:#ffb71b;}.cls-10{font-size:13.2px;}.cls-11,.cls-38,.cls-51,.cls-63,.cls-71,.cls-79,.cls-85,.cls-87{font-size:12px;}.cls-11,.cls-40{letter-spacing:0.01em;}.cls-12{letter-spacing:0.02em;}.cls-13{letter-spacing:0.03em;}.cls-14,.cls-63{letter-spacing:0.01em;}.cls-15{letter-spacing:0.02em;}.cls-16{letter-spacing:0.02em;}.cls-17{letter-spacing:0.02em;}.cls-18{letter-spacing:0.02em;}.cls-19{letter-spacing:0.01em;}.cls-20,.cls-87{letter-spacing:0.02em;}.cls-21{letter-spacing:0.02em;}.cls-22,.cls-85{letter-spacing:0.02em;}.cls-23{letter-spacing:-0.01em;}.cls-24{letter-spacing:0.02em;}.cls-25{letter-spacing:-0.03em;}.cls-26{letter-spacing:0.04em;}.cls-27{letter-spacing:0.01em;}.cls-28{letter-spacing:0.01em;}.cls-29{letter-spacing:0.01em;}.cls-30{letter-spacing:0.01em;}.cls-31{letter-spacing:0.01em;}.cls-32{letter-spacing:0.01em;}.cls-33{letter-spacing:0.01em;}.cls-34{letter-spacing:-0.01em;}.cls-35{letter-spacing:0.02em;}.cls-36{letter-spacing:0.03em;}.cls-37{letter-spacing:0.02em;}.cls-38,.cls-53{letter-spacing:0.02em;}.cls-39{letter-spacing:0.01em;}.cls-41{letter-spacing:0.02em;}.cls-42{letter-spacing:0.02em;}.cls-43{letter-spacing:0.03em;}.cls-44{letter-spacing:0.03em;}.cls-45{letter-spacing:0.02em;}.cls-46{letter-spacing:0.02em;}.cls-47{letter-spacing:0.01em;}.cls-48{letter-spacing:0.02em;}.cls-49{letter-spacing:-0.05em;}.cls-50,.cls-51,.cls-71{letter-spacing:0em;}.cls-52{letter-spacing:0.01em;}.cls-54{letter-spacing:0.01em;}.cls-55{letter-spacing:0.03em;}.cls-56{letter-spacing:0.01em;}.cls-57{letter-spacing:0.01em;}.cls-58{letter-spacing:0em;}.cls-59{letter-spacing:0.02em;}.cls-60{letter-spacing:0.01em;}.cls-61{letter-spacing:0.02em;}.cls-62{letter-spacing:0.03em;}.cls-64{letter-spacing:0em;}.cls-65{letter-spacing:0.01em;}.cls-66{letter-spacing:0.01em;}.cls-67{letter-spacing:0.01em;}.cls-68{letter-spacing:0.03em;}.cls-69{letter-spacing:-0.04em;}.cls-70{letter-spacing:0.01em;}.cls-72{letter-spacing:0.02em;}.cls-73{letter-spacing:0.01em;}.cls-74{letter-spacing:0.02em;}.cls-75{letter-spacing:0.02em;}.cls-76{letter-spacing:0.02em;}.cls-77{letter-spacing:0.04em;}.cls-78{letter-spacing:0.02em;}.cls-79{letter-spacing:0.02em;}.cls-80{letter-spacing:0.02em;}.cls-81{letter-spacing:0em;}.cls-82{letter-spacing:0.02em;}.cls-83{letter-spacing:0.02em;}.cls-84{letter-spacing:-0.01em;}.cls-86{letter-spacing:0.01em;}.cls-88{letter-spacing:0.02em;}.cls-89{letter-spacing:-0.01em;}.cls-90{letter-spacing:-0.06em;}.cls-91{letter-spacing:-0.04em;}.cls-92{letter-spacing:0.02em;}.cls-93{letter-spacing:0.01em;}</style></defs><g id="Layer_4" data-name="Layer 4"><path class="cls-1" d="M634.06,108.79A371.42,371.42,0,1,0,108.79,634.06,371.42,371.42,0,1,0,634.06,108.79Zm-97.6,548.5a328.21,328.21,0,0,1-164.53,44.37,332.08,332.08,0,0,1-86-11.39A328,328,0,0,1,85.5,536.46C55.33,484.19,41.27,431.74,41.27,371.4A330.12,330.12,0,0,1,371.4,41.27c60.34,0,112.79,14.06,165.06,44.23a330.13,330.13,0,0,1,120.83,451C627.12,588.72,588.72,627.12,536.46,657.29Z"/><text class="cls-2" transform="translate(214.5 67.5) rotate(-26.6)">S</text><text class="cls-2" transform="translate(222.22 63.63) rotate(-25.16)">E</text><text class="cls-2" transform="translate(230.1 59.92) rotate(-23.61)">R</text><text class="cls-2" transform="translate(238.93 56.09) rotate(-22.53)"> </text><text class="cls-2" transform="translate(241.9 54.84) rotate(-21.56)">L</text><text class="cls-2" transform="matrix(0.94, -0.34, 0.34, 0.94, 249.74, 51.72)">A</text><text class="cls-2" transform="translate(259.79 48.11) rotate(-18.76)"> </text><text class="cls-2" transform="translate(262.8 47.06) rotate(-17.68)">C</text><text class="cls-2" transform="matrix(0.96, -0.27, 0.27, 0.96, 272.06, 44.1)">A</text><text class="cls-2" transform="matrix(0.97, -0.24, 0.24, 0.97, 282.07, 41.22)">D</text><text class="cls-2" transform="translate(292.99 38.49) rotate(-12.46)">E</text><text class="cls-2" transform="translate(301.45 36.6) rotate(-10.78)">N</text><text class="cls-2" transform="translate(312.3 34.53) rotate(-8.97)">A</text><text class="cls-2" transform="translate(322.84 32.9) rotate(-7.81)"> </text><text class="cls-2" transform="translate(325.99 32.42) rotate(-6.57)">O</text><text class="cls-2" transform="translate(337.4 31.08) rotate(-4.48)">M</text><text class="cls-2" transform="translate(351.11 30.03) rotate(-2.41)">N</text><text class="cls-2" transform="translate(362.34 29.6) rotate(-1.11)">I</text><text class="cls-2" transform="translate(366.76 29.4) rotate(0.93)">C</text><text class="cls-2" transform="matrix(1, 0.03, -0.03, 1, 376.59, 29.48)">A</text><text class="cls-2" transform="translate(386.99 29.79) rotate(3.51)">N</text><text class="cls-2" transform="translate(398 30.46) rotate(5.3)">A</text><text class="cls-2" transform="matrix(0.99, 0.12, -0.12, 0.99, 408.39, 31.43)">L</text><text class="cls-2" transform="translate(416.64 32.44) rotate(7.8)"> </text><text class="cls-2" transform="translate(419.77 32.8) rotate(9.22)">M</text><text class="cls-2" transform="translate(433.31 35.03) rotate(11.27)">Á</text><text class="cls-2" transform="matrix(0.97, 0.22, -0.22, 0.97, 443.7, 37.11)">S</text><text class="cls-2" transform="translate(452.26 39.09) rotate(13.9)"> </text><text class="cls-2" transform="translate(455.34 39.82) rotate(14.99)">C</text><text class="cls-2" transform="translate(464.25 42.18) rotate(16.71)">O</text><text class="cls-2" transform="translate(475.37 45.52) rotate(18.63)">N</text><text class="cls-2" transform="translate(485.97 49.11) rotate(20.3)">F</text><text class="cls-2" transform="matrix(0.93, 0.36, -0.36, 0.93, 493.78, 52.01)">I</text><text class="cls-2" transform="translate(497.86 53.57) rotate(22.62)">A</text><text class="cls-2" transform="translate(507.48 57.58) rotate(24.3)">B</text><text class="cls-2" transform="translate(516.38 61.61) rotate(25.82)">L</text><text class="cls-2" transform="matrix(0.89, 0.46, -0.46, 0.89, 523.62, 65.1)">E</text><path class="cls-3" d="M639.35,553.83a20.58,20.58,0,0,0,3-16.31,20.34,20.34,0,0,0-9.75-13.16,20.79,20.79,0,0,0-27.43,6.24,283.42,283.42,0,0,1-467.55,0,20.84,20.84,0,0,0-17.17-9,20.6,20.6,0,0,0-16.87,32.29A324.66,324.66,0,0,0,533.71,651.5C578.31,625.75,611.88,594.71,639.35,553.83Z"/><path class="cls-4" d="M164,177.36A282.34,282.34,0,0,1,349.59,87.84a20.72,20.72,0,0,0,19.06-20.55A20.66,20.66,0,0,0,348,46.63c-.55,0-1.09,0-1.64.06A324.66,324.66,0,0,0,46.77,370.36c0,51.5,10.09,96.09,31.76,140.33a20.61,20.61,0,0,0,12.61,10.76,20.36,20.36,0,0,0,16.28-1.86,20.81,20.81,0,0,0,8.3-26.93A283.57,283.57,0,0,1,164,177.36Z"/><path class="cls-5" d="M635.36,519.55a20.38,20.38,0,0,0,16.34,1.9,20.6,20.6,0,0,0,12.62-10.76c21.66-44.24,31.75-88.83,31.75-140.33A324.64,324.64,0,0,0,396.47,46.69c-.54,0-1.09-.06-1.63-.06A20.66,20.66,0,0,0,374.2,67.25a20.72,20.72,0,0,0,19.06,20.59A283.51,283.51,0,0,1,627.13,492.66,20.78,20.78,0,0,0,635.36,519.55Z"/><path class="cls-1" d="M567.91,173.94A277.88,277.88,0,1,0,649.3,370.43,276.06,276.06,0,0,0,567.91,173.94Z"/><circle class="cls-6" cx="371.42" cy="370.43" r="40.02" transform="translate(-113.49 170.33) rotate(-22.5)"/><path class="cls-4" d="M371.42,362.22a2,2,0,0,0,2.11-1.3l1.08-12.21c0-1.21-1.41-2.2-3.19-2.2s-3.19,1-3.19,2.2l1.08,12.21a2,2,0,0,0,2.11,1.3Z"/><path class="cls-4" d="M364.82,366a2,2,0,0,0-.07-2.49l-10-7c-1-.6-2.61.13-3.5,1.67s-.73,3.25.31,3.86l11.11,5.17a2,2,0,0,0,2.19-1.18Z"/><path class="cls-4" d="M378,366a2,2,0,0,0,2.19,1.18L391.32,362c1.05-.61,1.2-2.33.31-3.86s-2.45-2.27-3.5-1.67l-10,7A2,2,0,0,0,378,366Z"/><path class="cls-4" d="M378,373.66a2,2,0,0,1,2.19-1.18l11.11,5.17c1.05.61,1.2,2.33.31,3.87s-2.45,2.26-3.5,1.66l-10-7a2,2,0,0,1-.08-2.48Z"/><path class="cls-4" d="M364.82,373.66a2,2,0,0,1-.07,2.48l-10,7c-1,.6-2.61-.13-3.5-1.66s-.73-3.26.31-3.87l11.11-5.17a2,2,0,0,1,2.19,1.18Z"/><path class="cls-4" d="M371.42,377.47a2,2,0,0,1,2.11,1.3L374.61,391c0,1.21-1.41,2.2-3.19,2.2s-3.19-1-3.19-2.2l1.08-12.21a2,2,0,0,1,2.11-1.3Z"/><path class="cls-4" d="M376.21,391.56h.09c.1,0,.18,0,.18-.11s-.06-.12-.17-.12h-.1Zm0,.49H376v-.86a2.41,2.41,0,0,1,.36,0,.47.47,0,0,1,.32.07.2.2,0,0,1,.1.18c0,.1-.08.17-.2.2v0a.23.23,0,0,1,.17.22.67.67,0,0,0,.07.2h-.27a.7.7,0,0,1-.06-.19c0-.1-.06-.13-.16-.13h-.09Zm.12-1.15a.71.71,0,1,0,.68.71.69.69,0,0,0-.68-.71Zm0-.2a.91.91,0,0,1,.93.9.94.94,0,1,1-.93-.9Z"/><circle class="cls-3" cx="218.85" cy="551.77" r="8.39"/><circle class="cls-3" cx="523.67" cy="552.31" r="8.39"/><circle class="cls-3" cx="369.96" cy="608.31" r="8.39"/><path class="cls-7" d="M175.16,504.67a237.42,237.42,0,0,0,391.67,0"/><circle class="cls-5" cx="604.09" cy="329.43" r="8.39"/><circle class="cls-5" cx="523.67" cy="189.27" r="8.39"/><circle class="cls-5" cx="575.05" cy="250.07" r="8.39"/><path class="cls-8" d="M585.2,472.89A237.46,237.46,0,0,0,389.28,133.76"/><path class="cls-9" d="M351.81,99.24"/><circle class="cls-4" cx="218.01" cy="189.27" r="8.39"/><circle class="cls-4" cx="136.92" cy="330.41" r="8.39"/><path class="cls-9" d="M352.7,133.76A237.5,237.5,0,0,0,156.78,472.89"/><text class="cls-10" transform="matrix(0.68, 0.73, -0.73, 0.68, 590.01, 167.74)"> </text><text class="cls-10" transform="matrix(0.67, 0.74, -0.74, 0.67, 591.82, 169.7)"> </text><text class="cls-10" transform="matrix(0.67, 0.75, -0.75, 0.67, 593.62, 171.67)"> </text><text class="cls-10" transform="translate(595.41 173.67) rotate(48.69)"> </text><text class="cls-10" transform="matrix(0.65, 0.76, -0.76, 0.65, 597.17, 175.68)"> </text><text class="cls-10" transform="translate(598.91 177.69) rotate(49.7)"> </text><text class="cls-10" transform="translate(600.64 179.73) rotate(50.21)"> </text><text class="cls-10" transform="translate(602.35 181.78) rotate(50.72)"> </text><text class="cls-10" transform="translate(604.05 183.86) rotate(51.23)"> </text><text class="cls-10" transform="matrix(0.62, 0.79, -0.79, 0.62, 605.72, 185.94)"> </text><text class="cls-10" transform="matrix(0.61, 0.79, -0.79, 0.61, 607.38, 188.04)"> </text><text class="cls-10" transform="translate(609.01 190.15) rotate(52.76)"> </text><text class="cls-10" transform="matrix(0.59, 0.81, -0.81, 0.59, 610.65, 192.27)">A</text><text class="cls-10" transform="translate(615.78 199.24) rotate(55.73)">M</text><text class="cls-10" transform="translate(622.07 208.52) rotate(57.57)">B</text><text class="cls-10" transform="translate(626.34 215.28) rotate(58.7)">I</text><text class="cls-10" transform="translate(628.31 218.5) rotate(59.73)">E</text><text class="cls-10" transform="translate(631.93 224.68) rotate(61.31)">N</text><text class="cls-10" transform="translate(636.26 232.61) rotate(62.86)">T</text><text class="cls-10" transform="translate(639.2 238.31) rotate(64.23)">A</text><text class="cls-10" transform="translate(642.91 246.01) rotate(65.69)">L</text><text class="cls-10" transform="matrix(0.4, 0.92, -0.92, 0.4, 645.68, 252.18)"> </text><text class="cls-10" transform="matrix(0.97, 0.24, -0.24, 0.97, 293.51, 667.6)">G</text><text class="cls-10" transform="translate(302.41 669.75) rotate(11.86)">O</text><text class="cls-10" transform="translate(311.81 671.71) rotate(10.22)">B</text><text class="cls-10" transform="translate(319.74 673.12) rotate(9.13)">I</text><text class="cls-10" transform="translate(323.56 673.75) rotate(8.11)">E</text><text class="cls-10" transform="translate(330.73 674.77) rotate(6.71)">R</text><text class="cls-10" transform="matrix(1, 0.09, -0.09, 1, 338.68, 675.71)">N</text><text class="cls-10" transform="matrix(1, 0.06, -0.06, 1, 347.93, 676.54)">O</text><text class="cls-10" transform="translate(357.47 677.08) rotate(2.28)"> </text><text class="cls-10" transform="matrix(1, 0.02, -0.02, 1, 360.22, 677.21)">C</text><text class="cls-10" transform="translate(368.09 677.43) rotate(-0.61)">O</text><text class="cls-10" transform="translate(377.68 677.34) rotate(-1.83)">R</text><text class="cls-10" transform="translate(385.67 677.09) rotate(-3.27)">P</text><text class="cls-10" transform="matrix(1, -0.08, 0.08, 1, 393.41, 676.66)">O</text><text class="cls-10" transform="translate(403 675.83) rotate(-6.46)">R</text><text class="cls-10" transform="translate(411.15 674.91) rotate(-8.04)">A</text><text class="cls-10" transform="translate(418.95 673.81) rotate(-9.36)">T</text><text class="cls-10" transform="translate(426.08 672.62) rotate(-10.37)">I</text><text class="cls-10" transform="translate(429.83 671.95) rotate(-11.5)">V</text><text class="cls-10" transform="translate(437.81 670.34) rotate(-13.1)">O</text><text class="cls-10" transform="translate(76.11 337.94) rotate(-83.21)"> </text><text class="cls-10" transform="translate(76.42 335.32) rotate(-82.7)"> </text><text class="cls-10" transform="translate(76.76 332.67) rotate(-82.19)"> </text><text class="cls-10" transform="translate(77.12 330.04) rotate(-81.67)"> </text><text class="cls-10" transform="translate(77.51 327.41) rotate(-81.16)"> </text><text class="cls-10" transform="translate(77.91 324.79) rotate(-80.65)"> </text><text class="cls-10" transform="translate(78.34 322.17) rotate(-80.14)"> </text><text class="cls-10" transform="translate(78.8 319.57) rotate(-79.62)"> </text><text class="cls-10" transform="translate(79.28 316.94) rotate(-79.11)"> </text><text class="cls-10" transform="translate(79.78 314.35) rotate(-78.6)"> </text><text class="cls-10" transform="translate(80.3 311.74) rotate(-78.08)"> </text><text class="cls-10" transform="translate(80.85 309.14) rotate(-77.56)"> </text><text class="cls-10" transform="translate(81.42 306.55) rotate(-77.05)"> </text><text class="cls-10" transform="translate(82.02 303.96) rotate(-76.53)"> </text><text class="cls-10" transform="translate(82.64 301.39) rotate(-76.02)"> </text><text class="cls-10" transform="matrix(0.25, -0.97, 0.97, 0.25, 83.28, 298.79)"> </text><text class="cls-10" transform="translate(83.94 296.23) rotate(-74.99)"> </text><text class="cls-10" transform="matrix(0.27, -0.96, 0.96, 0.27, 84.64, 293.65)"> </text><text class="cls-10" transform="translate(85.34 291.11) rotate(-73.96)"> </text><text class="cls-10" transform="translate(86.08 288.55) rotate(-73.44)"> </text><text class="cls-10" transform="translate(86.84 286.01) rotate(-72.92)"> </text><text class="cls-10" transform="matrix(0.3, -0.95, 0.95, 0.3, 87.62, 283.47)"> </text><text class="cls-10" transform="translate(88.42 280.93) rotate(-71.89)"> </text><text class="cls-10" transform="translate(89.24 278.41) rotate(-71.37)"> </text><text class="cls-10" transform="translate(90.09 275.9) rotate(-70.86)"> </text><text class="cls-10" transform="matrix(0.34, -0.94, 0.94, 0.34, 90.96, 273.38)"> </text><text class="cls-10" transform="translate(91.85 270.89) rotate(-69.83)"> </text><text class="cls-10" transform="translate(92.77 268.38) rotate(-69.31)"> </text><text class="cls-10" transform="translate(93.71 265.91) rotate(-68.8)"> </text><text class="cls-10" transform="translate(94.67 263.43) rotate(-68.28)"> </text><text class="cls-10" transform="translate(95.65 260.98) rotate(-67.77)"> </text><text class="cls-10" transform="matrix(0.39, -0.92, 0.92, 0.39, 96.65, 258.52)"> </text><text class="cls-10" transform="matrix(0.4, -0.92, 0.92, 0.4, 97.67, 256.05)">S</text><text class="cls-10" transform="matrix(0.43, -0.9, 0.9, 0.43, 100.46, 249.64)">O</text><text class="cls-10" transform="matrix(0.45, -0.89, 0.89, 0.45, 104.49, 241.13)">C</text><text class="cls-10" transform="matrix(0.47, -0.88, 0.88, 0.47, 108.02, 234.23)">I</text><text class="cls-10" transform="translate(109.7 231.03) rotate(-60.78)">A</text><text class="cls-10" transform="matrix(0.51, -0.86, 0.86, 0.51, 113.84, 223.63)">L</text></g><g id="Layer_5" data-name="Layer 5"><text class="cls-11" transform="translate(228.24 206.3)">C<tspan class="cls-12" x="7.3" y="0">R</tspan><tspan class="cls-13" x="14.71" y="0">E</tspan><tspan class="cls-14" x="21.44" y="0">A</tspan><tspan class="cls-15" x="29.42" y="0">R</tspan><tspan class="cls-16"><tspan x="0" y="14.23">O</tspan><tspan class="cls-17" x="8.87" y="14.23">P</tspan><tspan x="16.04" y="14.23">O</tspan><tspan class="cls-18" x="24.91" y="14.23">R</tspan><tspan class="cls-19" x="32.3" y="14.23">T</tspan><tspan class="cls-20" x="39.04" y="14.23">U</tspan><tspan class="cls-21" x="47.47" y="14.23">N</tspan><tspan class="cls-22" x="56.02" y="14.23">I</tspan><tspan class="cls-23" x="59.68" y="14.23">D</tspan><tspan class="cls-14" x="67.92" y="14.23">A</tspan><tspan class="cls-15" x="75.9" y="14.23">D</tspan><tspan class="cls-24" x="84.5" y="14.23">E</tspan><tspan class="cls-20" x="91.12" y="14.23">S</tspan></tspan><tspan class="cls-25"><tspan x="0" y="28.46">P</tspan><tspan class="cls-14" x="6.58" y="28.46">A</tspan><tspan class="cls-26" x="14.57" y="28.46">R</tspan><tspan class="cls-15" x="22.13" y="28.46">A NU</tspan><tspan class="cls-24" x="49.85" y="28.46">E</tspan><tspan class="cls-27" x="56.47" y="28.46">S</tspan><tspan class="cls-28" x="63.12" y="28.46">TR</tspan><tspan class="cls-29" x="77.14" y="28.46">O</tspan><tspan class="cls-20" x="85.85" y="28.46">S A</tspan><tspan class="cls-30" x="103.35" y="28.46">S</tspan><tspan class="cls-15" x="109.98" y="28.46">O</tspan><tspan class="cls-30" x="118.83" y="28.46">C</tspan><tspan class="cls-31" x="126.12" y="28.46">I</tspan><tspan class="cls-14" x="129.68" y="28.46">A</tspan><tspan class="cls-20" x="137.67" y="28.46">D</tspan><tspan class="cls-29" x="146.26" y="28.46">O</tspan><tspan class="cls-15" x="154.97" y="28.46">S</tspan></tspan><tspan class="cls-15"><tspan x="0" y="42.68">Y </tspan><tspan class="cls-32" x="10.14" y="42.68">P</tspan><tspan class="cls-33" x="17.18" y="42.68">R</tspan><tspan class="cls-34" x="24.46" y="42.68">O</tspan><tspan class="cls-35" x="33" y="42.68">V</tspan><tspan class="cls-36" x="40.85" y="42.68">EE</tspan><tspan x="54.29" y="42.68">D</tspan><tspan class="cls-16" x="62.88" y="42.68">O</tspan><tspan class="cls-37" x="71.75" y="42.68">R</tspan><tspan class="cls-24" x="79.16" y="42.68">E</tspan><tspan x="85.78" y="42.68">S</tspan></tspan></text><text class="cls-38" transform="translate(449.14 206.3)">M<tspan class="cls-39" x="10.44" y="0">I</tspan><tspan class="cls-40" x="14.01" y="0">T</tspan><tspan class="cls-41" x="20.75" y="0">I</tspan><tspan class="cls-42" x="24.38" y="0">G</tspan><tspan class="cls-14" x="32.77" y="0">A</tspan><tspan class="cls-15" x="40.75" y="0">R </tspan><tspan class="cls-43" x="50.77" y="0">E</tspan><tspan class="cls-15" x="57.49" y="0">L</tspan><tspan class="cls-44"><tspan x="-46.03" y="14.23">C</tspan><tspan class="cls-45" x="-38.55" y="14.23">A</tspan><tspan class="cls-46" x="-30.48" y="14.23">M</tspan><tspan class="cls-20" x="-20.05" y="14.23">BIO </tspan><tspan class="cls-40" x="2.61" y="14.23">C</tspan><tspan class="cls-47" x="9.91" y="14.23">L</tspan><tspan class="cls-48" x="16.15" y="14.23">IM</tspan><tspan class="cls-49" x="30.22" y="14.23">Á</tspan><tspan class="cls-40" x="37.52" y="14.23">T</tspan><tspan class="cls-15" x="44.26" y="14.23">I</tspan><tspan class="cls-50" x="47.92" y="14.23">C</tspan><tspan class="cls-20" x="55.02" y="14.23">O</tspan></tspan></text><text class="cls-51" transform="translate(418.64 268.2)">C<tspan class="cls-16" x="7.1" y="0">O</tspan><tspan class="cls-52" x="15.97" y="0">N</tspan><tspan class="cls-40" x="24.42" y="0">T</tspan><tspan class="cls-53" x="31.15" y="0">R</tspan><tspan class="cls-22" x="38.55" y="0">I</tspan><tspan class="cls-54" x="42.22" y="0">B</tspan><tspan class="cls-48" x="49.62" y="0">UI</tspan><tspan class="cls-15" x="61.72" y="0">R A </tspan><tspan class="cls-40" x="82.51" y="0">C</tspan><tspan class="cls-12" x="89.81" y="0">R</tspan><tspan class="cls-55" x="97.22" y="0">E</tspan><tspan class="cls-14" x="103.95" y="0">A</tspan><tspan class="cls-15" x="111.93" y="0">R U</tspan><tspan class="cls-56" x="130.38" y="0">N</tspan><tspan class="cls-20" x="138.81" y="0">A</tspan><tspan class="cls-57"><tspan x="26.47" y="14.23">E</tspan><tspan class="cls-58" x="33.06" y="14.23">C</tspan><tspan class="cls-16" x="40.16" y="14.23">O</tspan><tspan class="cls-59" x="49.02" y="14.23">N</tspan><tspan class="cls-45" x="57.56" y="14.23">O</tspan><tspan class="cls-46" x="66.37" y="14.23">M</tspan><tspan class="cls-60" x="76.8" y="14.23">Í</tspan><tspan class="cls-20" x="80.36" y="14.23">A </tspan><tspan class="cls-56" x="91.13" y="14.23">C</tspan><tspan class="cls-61" x="98.43" y="14.23">I</tspan><tspan class="cls-33" x="102.1" y="14.23">R</tspan><tspan class="cls-47" x="109.38" y="14.23">C</tspan><tspan class="cls-15" x="116.63" y="14.23">U</tspan><tspan class="cls-62" x="125.05" y="14.23">L</tspan><tspan class="cls-14" x="131.58" y="14.23">A</tspan><tspan class="cls-15" x="139.57" y="14.23">R</tspan></tspan></text><text class="cls-63" transform="translate(492.54 343.79)">A<tspan class="cls-64" x="7.99" y="0">B</tspan><tspan class="cls-20" x="15.28" y="0">A</tspan><tspan class="cls-27" x="23.39" y="0">S</tspan><tspan class="cls-28" x="30.05" y="0">T</tspan><tspan class="cls-57" x="36.79" y="0">E</tspan><tspan class="cls-56" x="43.37" y="0">C</tspan><tspan class="cls-48" x="50.67" y="0">I</tspan><tspan class="cls-53" x="54.33" y="0">M</tspan><tspan class="cls-61" x="64.77" y="0">I</tspan><tspan class="cls-43" x="68.44" y="0">E</tspan><tspan class="cls-52" x="75.16" y="0">N</tspan><tspan class="cls-65" x="83.61" y="0">T</tspan><tspan class="cls-20" x="90.24" y="0">O</tspan><tspan class="cls-66"><tspan x="21.24" y="14.23">S</tspan><tspan class="cls-67" x="27.82" y="14.23">U</tspan><tspan class="cls-27" x="36.11" y="14.23">S</tspan><tspan class="cls-40" x="42.76" y="14.23">T</tspan><tspan class="cls-68" x="49.5" y="14.23">E</tspan><tspan class="cls-19" x="56.22" y="14.23">N</tspan><tspan class="cls-69" x="64.67" y="14.23">T</tspan><tspan class="cls-70" x="70.73" y="14.23">A</tspan><tspan class="cls-20" x="78.71" y="14.23">B</tspan><tspan class="cls-47" x="86.2" y="14.23">L</tspan><tspan class="cls-20" x="92.44" y="14.23">E</tspan></tspan></text><text class="cls-71" transform="translate(149.83 343.79)">C<tspan class="cls-72" x="7.1" y="0">O</tspan><tspan class="cls-46" x="15.91" y="0">M</tspan><tspan class="cls-32" x="26.33" y="0">P</tspan><tspan class="cls-73" x="33.37" y="0">R</tspan><tspan class="cls-72" x="40.65" y="0">O</tspan><tspan class="cls-53" x="49.46" y="0">M</tspan><tspan class="cls-74" x="59.9" y="0">I</tspan><tspan class="cls-56" x="63.52" y="0">S</tspan><tspan class="cls-20" x="70.16" y="0">O </tspan><tspan x="81.67" y="0">C</tspan><tspan class="cls-16" x="88.77" y="0">O</tspan><tspan class="cls-15" x="97.63" y="0">N</tspan><tspan class="cls-62"><tspan x="0" y="14.23">L</tspan><tspan class="cls-20" x="6.53" y="14.23">AS </tspan><tspan class="cls-50" x="24.03" y="14.23">C</tspan><tspan class="cls-72" x="31.13" y="14.23">O</tspan><tspan class="cls-75" x="39.94" y="14.23">M</tspan><tspan class="cls-20" x="50.28" y="14.23">U</tspan><tspan class="cls-21" x="58.71" y="14.23">N</tspan><tspan class="cls-22" x="67.26" y="14.23">I</tspan><tspan class="cls-23" x="70.92" y="14.23">D</tspan><tspan class="cls-14" x="79.16" y="14.23">A</tspan><tspan class="cls-15" x="87.15" y="14.23">D</tspan><tspan class="cls-76" x="95.74" y="14.23">E</tspan><tspan class="cls-20" x="102.36" y="14.23">S</tspan></tspan><tspan class="cls-20"><tspan x="0" y="28.46">D</tspan><tspan class="cls-16" x="8.59" y="28.46">ON</tspan><tspan x="26.01" y="28.46">DE </tspan><tspan class="cls-16" x="43.91" y="28.46">O</tspan><tspan class="cls-32" x="52.78" y="28.46">P</tspan><tspan class="cls-36" x="59.82" y="28.46">E</tspan><tspan class="cls-77" x="66.54" y="28.46">R</tspan><tspan class="cls-45" x="74.1" y="28.46">AM</tspan><tspan class="cls-29" x="92.53" y="28.46">O</tspan><tspan x="101.24" y="28.46">S Y</tspan></tspan><tspan x="0" y="42.68">C</tspan><tspan class="cls-16" x="7.1" y="42.68">O</tspan><tspan class="cls-15" x="15.97" y="42.68">N NU</tspan><tspan class="cls-24" x="44.09" y="42.68">E</tspan><tspan class="cls-27" x="50.71" y="42.68">S</tspan><tspan class="cls-40" x="57.37" y="42.68">TR</tspan><tspan class="cls-29" x="71.38" y="42.68">O</tspan><tspan class="cls-20" x="80.1" y="42.68">S </tspan><tspan class="cls-40" x="89.48" y="42.68">C</tspan><tspan class="cls-47" x="96.78" y="42.68">L</tspan><tspan class="cls-78" x="103.02" y="42.68">I</tspan><tspan class="cls-43" x="106.69" y="42.68">E</tspan><tspan class="cls-19" x="113.41" y="42.68">N</tspan><tspan class="cls-40" x="121.86" y="42.68">T</tspan><tspan class="cls-76" x="128.6" y="42.68">E</tspan><tspan class="cls-15" x="135.22" y="42.68">S</tspan></text><text class="cls-79" transform="translate(440.5 512.17)">S<tspan class="cls-39" x="6.68" y="0">E</tspan><tspan class="cls-80" x="13.23" y="0">G</tspan><tspan class="cls-20" x="21.63" y="0">U</tspan><tspan class="cls-53" x="30.06" y="0">R</tspan><tspan class="cls-22" x="37.46" y="0">I</tspan><tspan class="cls-23" x="41.13" y="0">D</tspan><tspan class="cls-14" x="49.36" y="0">A</tspan><tspan class="cls-15" x="57.35" y="0">D DE</tspan><tspan class="cls-62"><tspan x="-14.77" y="14.23">L</tspan><tspan class="cls-20" x="-8.23" y="14.23">A </tspan><tspan class="cls-61" x="2.54" y="14.23">I</tspan><tspan class="cls-21" x="6.21" y="14.23">N</tspan><tspan class="cls-81" x="14.76" y="14.23">F</tspan><tspan class="cls-16" x="21.13" y="14.23">O</tspan><tspan class="cls-82" x="29.99" y="14.23">R</tspan><tspan class="cls-83" x="37.38" y="14.23">M</tspan><tspan class="cls-84" x="47.79" y="14.23">A</tspan><tspan class="cls-56" x="55.5" y="14.23">C</tspan><tspan class="cls-20" x="62.8" y="14.23">I</tspan><tspan class="cls-16" x="66.46" y="14.23">Ó</tspan><tspan class="cls-15" x="75.33" y="14.23">N</tspan></tspan></text><text class="cls-85" transform="translate(218.3 512.17)">É<tspan class="cls-40" x="6.65" y="0">T</tspan><tspan class="cls-15" x="13.39" y="0">I</tspan><tspan class="cls-44" x="17.05" y="0">C</tspan><tspan class="cls-20" x="24.53" y="0">A Y</tspan><tspan class="cls-86"><tspan x="0" y="14.23">C</tspan><tspan class="cls-28" x="7.25" y="14.23">U</tspan><tspan class="cls-46" x="15.59" y="14.23">M</tspan><tspan class="cls-32" x="26.02" y="14.23">P</tspan><tspan class="cls-47" x="33.06" y="14.23">L</tspan><tspan class="cls-48" x="39.3" y="14.23">I</tspan><tspan class="cls-53" x="42.97" y="14.23">M</tspan><tspan class="cls-61" x="53.41" y="14.23">I</tspan><tspan class="cls-68" x="57.08" y="14.23">E</tspan><tspan class="cls-19" x="63.8" y="14.23">N</tspan><tspan class="cls-65" x="72.24" y="14.23">T</tspan><tspan class="cls-15" x="78.88" y="14.23">O</tspan></tspan></text><text class="cls-87" transform="translate(298.15 571.89)">G<tspan class="cls-16" x="8.42" y="0">O</tspan><tspan x="17.29" y="0">B</tspan><tspan class="cls-61" x="24.78" y="0">I</tspan><tspan class="cls-43" x="28.45" y="0">E</tspan><tspan class="cls-37" x="35.17" y="0">R</tspan><tspan class="cls-59" x="42.58" y="0">N</tspan><tspan class="cls-15" x="51.12" y="0">O </tspan><tspan class="cls-58" x="62.62" y="0">C</tspan><tspan class="cls-16" x="69.72" y="0">O</tspan><tspan class="cls-37" x="78.59" y="0">R</tspan><tspan class="cls-42" x="86" y="0">P</tspan><tspan class="cls-16" x="93.17" y="0">O</tspan><tspan class="cls-77" x="102.04" y="0">R</tspan><tspan class="cls-49" x="109.6" y="0">A</tspan><tspan class="cls-40" x="116.91" y="0">T</tspan><tspan class="cls-88" x="123.64" y="0">I</tspan><tspan class="cls-89" x="127.25" y="0">V</tspan><tspan class="cls-15" x="134.78" y="0">O</tspan><tspan class="cls-15"><tspan x="20.75" y="14.23">Y </tspan><tspan class="cls-14" x="30.89" y="14.23">A</tspan><tspan class="cls-90" x="38.87" y="14.23">L</tspan><tspan class="cls-91" x="44.33" y="14.23">T</tspan><tspan class="cls-20" x="50.39" y="14.23">A </tspan><tspan class="cls-92" x="61.16" y="14.23">D</tspan><tspan class="cls-61" x="69.77" y="14.23">I</tspan><tspan class="cls-12" x="73.44" y="14.23">R</tspan><tspan class="cls-93" x="80.85" y="14.23">E</tspan><tspan class="cls-50" x="87.44" y="14.23">C</tspan><tspan class="cls-56" x="94.53" y="14.23">C</tspan><tspan x="101.83" y="14.23">I</tspan><tspan class="cls-16" x="105.49" y="14.23">Ó</tspan><tspan class="cls-20" x="114.36" y="14.23">N</tspan></tspan></text></g></svg>