<?xml version="1.0" encoding="utf-8"?>
<!-- Generator: Adobe Illustrator 25.2.1, SVG Export Plug-In . SVG Version: 6.00 Build 0)  -->
<svg version="1.1" id="Capa_1" xmlns="http://www.w3.org/2000/svg" xmlns:xlink="http://www.w3.org/1999/xlink" x="0px" y="0px"
	 viewBox="0 0 557.3 209" style="enable-background:new 0 0 557.3 209;" xml:space="preserve">
<style type="text/css">
	.st0{fill:#EAE8E9;}
	.st1{fill:#0078BE;}
	.st2{fill:#52BED2;}
	.st3{fill:#F9F9F9;}
	.st4{fill:#E5E6F2;}
	.st5{fill:#F1F8FB;}
	.st6{fill:none;stroke:#A0999A;stroke-width:0.25;stroke-miterlimit:10;}
	.st7{fill:none;stroke:#FFFFFF;stroke-width:5;stroke-miterlimit:10;}
	.st8{fill:none;stroke:#EDF1F3;stroke-width:5;stroke-miterlimit:10;}
	.st9{fill:#545051;}
	.st10{fill:#FFFFFF;}
</style>
<rect class="st0" width="144" height="25"/>
<rect x="144" class="st1" width="206.7" height="25"/>
<rect x="350.7" class="st2" width="206.7" height="25"/>
<path class="st3" d="M0,186h144v23H0V186z M0,163h144v23H0V163z M0,140h144v23H0V140z M0,117h144v23H0V117z M0,94h144v23H0V94z
	 M0,71h144v23H0V71z M0,48h144v23H0V48z M0,25h144v23H0V25z"/>
<path class="st4" d="M247.3,186h103.3v23H247.3V186z M144,186h103.3v23H144V186z M247.3,163h103.3v23H247.3V163z M144,163h103.3v23
	H144V163z M247.3,140h103.3v23H247.3V140z M144,140h103.3v23H144V140z M247.3,117h103.3v23H247.3V117z M144,117h103.3v23H144V117z
	 M247.3,94h103.3v23H247.3V94z M144,94h103.3v23H144V94z M247.3,71h103.3v23H247.3V71z M144,71h103.3v23H144V71z M247.3,48h103.3v23
	H247.3V48z M144,48h103.3v23H144V48z M247.3,25h103.3v23H247.3V25z M144,25h103.3v23H144V25z"/>
<path class="st5" d="M454,186h103.3v23H454V186z M350.7,186H454v23H350.7V186z M454,163h103.3v23H454V163z M350.7,163H454v23H350.7
	V163z M454,140h103.3v23H454V140z M350.7,140H454v23H350.7V140z M454,117h103.3v23H454V117z M350.7,117H454v23H350.7V117z M454,94
	h103.3v23H454V94z M350.7,94H454v23H350.7V94z M454,71h103.3v23H454V71z M350.7,71H454v23H350.7V71z M454,48h103.3v23H454V48z
	 M350.7,48H454v23H350.7V48z M454,25h103.3v23H454V25z M350.7,25H454v23H350.7V25z"/>
<line class="st6" x1="0" y1="25" x2="141.5" y2="25"/>
<line class="st6" x1="146.5" y1="25" x2="247.3" y2="25"/>
<line class="st6" x1="247.3" y1="25" x2="348.2" y2="25"/>
<line class="st6" x1="353.2" y1="25" x2="454" y2="25"/>
<line class="st6" x1="454" y1="25" x2="557.3" y2="25"/>
<line class="st6" x1="0" y1="48" x2="141.5" y2="48"/>
<line class="st6" x1="146.5" y1="48" x2="244.8" y2="48"/>
<line class="st6" x1="249.8" y1="48" x2="348.2" y2="48"/>
<line class="st6" x1="353.2" y1="48" x2="451.5" y2="48"/>
<line class="st6" x1="456.5" y1="48" x2="557.3" y2="48"/>
<line class="st6" x1="0" y1="71" x2="141.5" y2="71"/>
<line class="st6" x1="146.5" y1="71" x2="244.8" y2="71"/>
<line class="st6" x1="249.8" y1="71" x2="348.2" y2="71"/>
<line class="st6" x1="353.2" y1="71" x2="451.5" y2="71"/>
<line class="st6" x1="456.5" y1="71" x2="557.3" y2="71"/>
<line class="st6" x1="0" y1="94" x2="141.5" y2="94"/>
<line class="st6" x1="146.5" y1="94" x2="244.8" y2="94"/>
<line class="st6" x1="249.8" y1="94" x2="348.2" y2="94"/>
<line class="st6" x1="353.2" y1="94" x2="451.5" y2="94"/>
<line class="st6" x1="456.5" y1="94" x2="557.3" y2="94"/>
<line class="st7" x1="350.7" y1="25" x2="350.7" y2="0"/>
<line class="st8" x1="144" y1="25" x2="144" y2="0"/>
<line class="st8" x1="144" y1="48" x2="144" y2="25"/>
<line class="st8" x1="144" y1="71" x2="144" y2="48"/>
<line class="st8" x1="144" y1="94" x2="144" y2="71"/>
<line class="st8" x1="144" y1="116.9" x2="144" y2="94"/>
<line class="st8" x1="144" y1="139.9" x2="144" y2="117.1"/>
<line class="st8" x1="144" y1="162.9" x2="144" y2="140.1"/>
<line class="st8" x1="144" y1="185.9" x2="144" y2="163.1"/>
<g>
	<g>
		<g>
			<line class="st8" x1="144" y1="209" x2="144" y2="186.1"/>
		</g>
	</g>
</g>
<line class="st6" x1="0" y1="117" x2="144" y2="117"/>
<line class="st6" x1="0" y1="140" x2="144" y2="140"/>
<line class="st6" x1="0" y1="163" x2="144" y2="163"/>
<line class="st6" x1="0" y1="186" x2="144" y2="186"/>
<line class="st6" x1="249.8" y1="117" x2="348.2" y2="117"/>
<line class="st6" x1="249.8" y1="140" x2="348.2" y2="140"/>
<line class="st6" x1="249.8" y1="163" x2="348.2" y2="163"/>
<line class="st6" x1="249.8" y1="186" x2="348.2" y2="186"/>
<line class="st6" x1="144" y1="117" x2="244.8" y2="117"/>
<line class="st6" x1="144" y1="140" x2="244.8" y2="140"/>
<line class="st6" x1="144" y1="163" x2="244.8" y2="163"/>
<line class="st6" x1="144" y1="186" x2="244.8" y2="186"/>
<line class="st6" x1="353.2" y1="117" x2="451.5" y2="117"/>
<line class="st6" x1="353.2" y1="140" x2="451.5" y2="140"/>
<line class="st6" x1="353.2" y1="163" x2="451.5" y2="163"/>
<line class="st6" x1="353.2" y1="186" x2="451.5" y2="186"/>
<line class="st6" x1="456.5" y1="117" x2="557.3" y2="117"/>
<line class="st6" x1="456.5" y1="140" x2="557.3" y2="140"/>
<line class="st6" x1="456.5" y1="163" x2="557.3" y2="163"/>
<line class="st6" x1="456.5" y1="186" x2="557.3" y2="186"/>
<line class="st7" x1="247.3" y1="48" x2="247.3" y2="25.1"/>
<line class="st7" x1="247.3" y1="71" x2="247.3" y2="48"/>
<line class="st7" x1="247.3" y1="94" x2="247.3" y2="71"/>
<line class="st7" x1="247.3" y1="117" x2="247.3" y2="94"/>
<line class="st7" x1="247.3" y1="140" x2="247.3" y2="117"/>
<line class="st7" x1="247.3" y1="163" x2="247.3" y2="140"/>
<line class="st7" x1="247.3" y1="186" x2="247.3" y2="163"/>
<g>
	<g>
		<g>
			<line class="st7" x1="247.3" y1="209" x2="247.3" y2="186"/>
		</g>
	</g>
</g>
<line class="st7" x1="350.7" y1="48" x2="350.7" y2="25"/>
<line class="st7" x1="350.7" y1="71" x2="350.7" y2="48"/>
<line class="st7" x1="350.7" y1="94" x2="350.7" y2="71"/>
<line class="st7" x1="350.7" y1="117" x2="350.7" y2="94"/>
<line class="st7" x1="350.7" y1="140" x2="350.7" y2="117"/>
<line class="st7" x1="350.7" y1="163" x2="350.7" y2="140"/>
<line class="st7" x1="350.7" y1="186" x2="350.7" y2="163"/>
<g>
	<g>
		<g>
			<line class="st7" x1="350.7" y1="209" x2="350.7" y2="186"/>
		</g>
	</g>
</g>
<line class="st7" x1="454" y1="48" x2="454" y2="25.1"/>
<line class="st7" x1="454" y1="71" x2="454" y2="48"/>
<line class="st7" x1="454" y1="94" x2="454" y2="71"/>
<line class="st7" x1="454" y1="117" x2="454" y2="94"/>
<line class="st7" x1="454" y1="140" x2="454" y2="117"/>
<line class="st7" x1="454" y1="163" x2="454" y2="140"/>
<line class="st7" x1="454" y1="186" x2="454" y2="163"/>
<g>
	<g>
		<g>
			<line class="st7" x1="454" y1="209" x2="454" y2="186"/>
		</g>
	</g>
</g>
<g>
	<g>
		<g>
			<path class="st9" d="M5.6,65L2.9,57h0.6l1.4,4.3c0.4,1.2,0.7,2.2,0.9,3.1h0c0.2-0.9,0.6-2,1-3.1L8.5,57h0.6l-3,8.1H5.6z"/>
			<path class="st9" d="M10,57.1c0.5-0.1,1.1-0.2,1.7-0.2c1,0,1.7,0.3,2.1,0.7c0.4,0.4,0.6,0.9,0.6,1.6c0,0.7-0.2,1.2-0.6,1.6
				c-0.5,0.6-1.4,0.9-2.4,0.9c-0.4,0-0.7,0-1-0.1V65H10V57.1z M10.6,61.1c0.3,0.1,0.6,0.1,1,0.1c1.5,0,2.3-0.7,2.3-2
				c0-1.3-0.9-1.8-2.2-1.8c-0.5,0-0.9,0-1.1,0.1V61.1z"/>
			<path class="st9" d="M3.9,80.3c0.6-0.1,1.3-0.2,2.1-0.2c1.5,0,2.6,0.4,3.3,1.1c0.6,0.7,1,1.6,1,2.8c0,1.2-0.3,2.3-1.1,3.1
				c-0.7,0.8-1.9,1.2-3.5,1.2c-0.6,0-1.2,0-1.8-0.1V80.3z M4.4,87.8c0.3,0,0.8,0.1,1.3,0.1c2.6,0,3.9-1.5,3.9-3.8
				c0-2.1-1.1-3.5-3.7-3.5c-0.6,0-1.1,0.1-1.5,0.1V87.8z"/>
			<path class="st9" d="M12.4,80.8c0,0.3-0.2,0.5-0.5,0.5c-0.3,0-0.4-0.2-0.4-0.5s0.2-0.5,0.5-0.5S12.4,80.6,12.4,80.8z M11.6,88.2
				v-5.8h0.6v5.8H11.6z"/>
			<path class="st9" d="M14.1,84.2c0-0.6,0-1.2,0-1.7h0.5l0,1.2h0c0.3-0.7,0.9-1.3,1.6-1.3c0.1,0,0.2,0,0.2,0v0.6
				c-0.1,0-0.2,0-0.3,0c-0.8,0-1.4,0.7-1.5,1.6c0,0.2,0,0.4,0,0.6v3.2h-0.6V84.2z"/>
			<path class="st9" d="M17.6,85.3c0,1.8,1,2.6,2.2,2.6c0.8,0,1.3-0.2,1.6-0.3l0.1,0.4c-0.2,0.1-0.8,0.4-1.8,0.4
				c-1.7,0-2.7-1.2-2.7-2.9c0-1.9,1.1-3.1,2.6-3.1c1.9,0,2.2,1.8,2.2,2.6c0,0.2,0,0.2,0,0.3H17.6z M21.3,84.9c0-0.8-0.3-2-1.7-2
				c-1.3,0-1.8,1.1-1.9,2H21.3z"/>
			<path class="st9" d="M27.3,88c-0.3,0.1-0.9,0.4-1.7,0.4c-1.7,0-2.8-1.2-2.8-2.9c0-1.8,1.2-3.1,3-3.1c0.7,0,1.3,0.2,1.5,0.4
				l-0.2,0.5c-0.3-0.2-0.7-0.3-1.4-0.3c-1.5,0-2.3,1.2-2.3,2.5c0,1.5,0.9,2.5,2.3,2.5c0.7,0,1.1-0.2,1.4-0.3L27.3,88z"/>
			<path class="st9" d="M29.6,81.2v1.3h1.6V83h-1.6v3.7c0,0.7,0.2,1.2,0.8,1.2c0.3,0,0.5,0,0.7-0.1l0.1,0.4
				c-0.2,0.1-0.5,0.1-0.8,0.1c-0.4,0-0.8-0.1-1-0.4c-0.3-0.3-0.4-0.8-0.4-1.4V83h-1v-0.5h1v-1.1L29.6,81.2z"/>
			<path class="st9" d="M37.4,85.3c0,2.1-1.5,3.1-2.8,3.1c-1.5,0-2.6-1.2-2.6-3c0-2,1.3-3.1,2.7-3.1C36.3,82.4,37.4,83.6,37.4,85.3z
				 M32.6,85.4c0,1.4,0.9,2.5,2.1,2.5c1.2,0,2.1-1.1,2.1-2.6c0-1.1-0.6-2.5-2.1-2.5C33.2,82.8,32.6,84.1,32.6,85.4z"/>
			<path class="st9" d="M38.9,84.2c0-0.6,0-1.2,0-1.7h0.5l0,1.2h0c0.3-0.7,0.9-1.3,1.6-1.3c0.1,0,0.2,0,0.2,0v0.6
				c-0.1,0-0.2,0-0.3,0c-0.8,0-1.4,0.7-1.5,1.6c0,0.2,0,0.4,0,0.6v3.2h-0.6V84.2z"/>
			<path class="st9" d="M42.2,87.5c0.3,0.2,0.8,0.4,1.3,0.4c0.9,0,1.3-0.5,1.3-1.1c0-0.6-0.4-1-1.2-1.3c-0.9-0.4-1.5-0.9-1.5-1.6
				c0-0.8,0.7-1.6,1.8-1.6c0.5,0,1,0.2,1.3,0.4L45,83.2c-0.2-0.1-0.6-0.3-1.2-0.3c-0.7,0-1.1,0.5-1.1,1c0,0.6,0.4,0.9,1.2,1.2
				c0.9,0.4,1.5,0.8,1.5,1.7c0,1-0.8,1.6-1.9,1.6c-0.6,0-1.1-0.2-1.5-0.4L42.2,87.5z"/>
			<path class="st9" d="M4.8,108.6l-1,2.8H3.3l2.9-8.1h0.6l2.9,8.1H9.1l-1-2.8H4.8z M7.9,108.1l-1-2.7c-0.2-0.6-0.3-1-0.4-1.4h0
				c-0.1,0.5-0.2,0.9-0.4,1.4l-1,2.7H7.9z"/>
			<path class="st9" d="M10.6,110.7c0.3,0.2,0.8,0.4,1.3,0.4c0.9,0,1.3-0.5,1.3-1.1c0-0.6-0.4-1-1.2-1.3c-0.9-0.4-1.5-0.9-1.5-1.6
				c0-0.8,0.7-1.6,1.8-1.6c0.5,0,1,0.2,1.3,0.4l-0.2,0.5c-0.2-0.1-0.6-0.3-1.2-0.3c-0.7,0-1.1,0.5-1.1,1c0,0.6,0.4,0.9,1.2,1.2
				c0.9,0.4,1.5,0.8,1.5,1.7c0,1-0.8,1.6-1.9,1.6c-0.6,0-1.1-0.2-1.5-0.4L10.6,110.7z"/>
			<path class="st9" d="M15,110.7c0.3,0.2,0.8,0.4,1.3,0.4c0.9,0,1.3-0.5,1.3-1.1c0-0.6-0.4-1-1.2-1.3c-0.9-0.4-1.5-0.9-1.5-1.6
				c0-0.8,0.7-1.6,1.8-1.6c0.5,0,1,0.2,1.3,0.4l-0.2,0.5c-0.2-0.1-0.6-0.3-1.2-0.3c-0.7,0-1.1,0.5-1.1,1c0,0.6,0.4,0.9,1.2,1.2
				c0.9,0.4,1.5,0.8,1.5,1.7c0,1-0.8,1.6-1.9,1.6c-0.6,0-1.1-0.2-1.5-0.4L15,110.7z"/>
			<path class="st9" d="M20.5,104.4v1.3h1.6v0.5h-1.6v3.7c0,0.7,0.2,1.2,0.8,1.2c0.3,0,0.5,0,0.7-0.1l0.1,0.4
				c-0.2,0.1-0.5,0.1-0.8,0.1c-0.4,0-0.8-0.1-1-0.4c-0.3-0.3-0.4-0.8-0.4-1.4v-3.6h-1v-0.5h1v-1.1L20.5,104.4z"/>
			<path class="st9" d="M23.1,111c0-0.3,0.2-0.5,0.5-0.5c0.3,0,0.5,0.2,0.5,0.5c0,0.3-0.2,0.5-0.5,0.5
				C23.3,111.6,23.1,111.3,23.1,111z"/>
			<path class="st9" d="M28.2,103.5c0.6-0.1,1.3-0.2,2.1-0.2c1.5,0,2.6,0.4,3.3,1.1c0.6,0.7,1,1.6,1,2.8c0,1.2-0.3,2.3-1.1,3.1
				c-0.7,0.8-1.9,1.2-3.5,1.2c-0.6,0-1.2,0-1.8-0.1V103.5z M28.7,111c0.3,0,0.8,0.1,1.3,0.1c2.6,0,3.9-1.5,3.9-3.8
				c0-2.1-1.1-3.5-3.7-3.5c-0.6,0-1.1,0.1-1.5,0.1V111z"/>
			<path class="st9" d="M36.7,104c0,0.3-0.2,0.5-0.5,0.5c-0.3,0-0.4-0.2-0.4-0.5s0.2-0.5,0.5-0.5S36.7,103.8,36.7,104z M35.9,111.4
				v-5.8h0.6v5.8H35.9z"/>
			<path class="st9" d="M38.4,107.4c0-0.6,0-1.2,0-1.7h0.5l0,1.2h0c0.3-0.7,0.9-1.3,1.6-1.3c0.1,0,0.2,0,0.2,0v0.6
				c-0.1,0-0.2,0-0.3,0c-0.8,0-1.4,0.7-1.5,1.6c0,0.2,0,0.4,0,0.6v3.2h-0.6V107.4z"/>
			<path class="st9" d="M41.9,108.5c0,1.8,1,2.6,2.2,2.6c0.8,0,1.3-0.2,1.6-0.3l0.1,0.4c-0.2,0.1-0.8,0.4-1.8,0.4
				c-1.7,0-2.7-1.2-2.7-2.9c0-1.9,1.1-3.1,2.6-3.1c1.9,0,2.2,1.8,2.2,2.6c0,0.2,0,0.2,0,0.3H41.9z M45.6,108c0-0.8-0.3-2-1.7-2
				c-1.3,0-1.8,1.1-1.9,2H45.6z"/>
			<path class="st9" d="M51.6,111.2c-0.3,0.1-0.9,0.4-1.7,0.4c-1.7,0-2.8-1.2-2.8-2.9c0-1.8,1.2-3.1,3-3.1c0.7,0,1.3,0.2,1.5,0.4
				l-0.2,0.5c-0.3-0.2-0.7-0.3-1.4-0.3c-1.5,0-2.3,1.2-2.3,2.5c0,1.5,0.9,2.5,2.3,2.5c0.7,0,1.1-0.2,1.4-0.3L51.6,111.2z"/>
			<path class="st9" d="M53.9,104.4v1.3h1.6v0.5h-1.6v3.7c0,0.7,0.2,1.2,0.8,1.2c0.3,0,0.5,0,0.7-0.1l0.1,0.4
				c-0.2,0.1-0.5,0.1-0.8,0.1c-0.4,0-0.8-0.1-1-0.4c-0.3-0.3-0.4-0.8-0.4-1.4v-3.6h-1v-0.5h1v-1.1L53.9,104.4z"/>
			<path class="st9" d="M61.7,108.5c0,2.1-1.5,3.1-2.8,3.1c-1.5,0-2.6-1.2-2.6-3c0-2,1.3-3.1,2.7-3.1
				C60.6,105.6,61.7,106.8,61.7,108.5z M56.9,108.6c0,1.4,0.9,2.5,2.1,2.5c1.2,0,2.1-1.1,2.1-2.6c0-1.1-0.6-2.5-2.1-2.5
				C57.5,106,56.9,107.3,56.9,108.6z"/>
			<path class="st9" d="M63.2,107.4c0-0.6,0-1.2,0-1.7h0.5l0,1.2h0c0.3-0.7,0.9-1.3,1.6-1.3c0.1,0,0.2,0,0.2,0v0.6
				c-0.1,0-0.2,0-0.3,0c-0.8,0-1.4,0.7-1.5,1.6c0,0.2,0,0.4,0,0.6v3.2h-0.6V107.4z"/>
			<path class="st9" d="M66.5,110.7c0.3,0.2,0.8,0.4,1.3,0.4c0.9,0,1.3-0.5,1.3-1.1c0-0.6-0.4-1-1.2-1.3c-0.9-0.4-1.5-0.9-1.5-1.6
				c0-0.8,0.7-1.6,1.8-1.6c0.5,0,1,0.2,1.3,0.4l-0.2,0.5c-0.2-0.1-0.6-0.3-1.2-0.3c-0.7,0-1.1,0.5-1.1,1c0,0.6,0.4,0.9,1.2,1.2
				c0.9,0.4,1.5,0.8,1.5,1.7c0,1-0.8,1.6-1.9,1.6c-0.6,0-1.1-0.2-1.5-0.4L66.5,110.7z"/>
			<path class="st9" d="M75.9,103.1c-1,1.2-1.7,2.7-1.7,5c0,2.1,0.7,3.6,1.7,4.9h-0.5c-0.8-1-1.7-2.5-1.7-4.9c0-2.4,0.9-3.9,1.7-4.9
				H75.9z"/>
			<path class="st9" d="M76.7,110.6c0.5,0.3,1.1,0.5,1.8,0.5c1.2,0,2-0.7,2-1.7c0-0.9-0.5-1.4-1.6-1.9c-1.3-0.5-2.1-1.1-2.1-2.2
				c0-1.2,1-2.1,2.4-2.1c0.8,0,1.3,0.2,1.6,0.4l-0.2,0.5c-0.2-0.2-0.7-0.4-1.4-0.4c-1.3,0-1.8,0.8-1.8,1.5c0,0.9,0.5,1.4,1.7,1.8
				c1.3,0.5,2,1.1,2,2.4c0,1.2-0.8,2.2-2.6,2.2c-0.7,0-1.5-0.2-1.9-0.6L76.7,110.6z"/>
			<path class="st9" d="M86.6,110.4L86.6,110.4c-0.3,0.6-1,1.1-2,1.1c-1.4,0-2.5-1.2-2.5-2.9c0-2.2,1.4-3.1,2.7-3.1
				c1,0,1.6,0.5,1.9,1.1h0l0-1h0.5c0,0.4,0,0.9,0,1.5v6.6h-0.6V110.4z M86.6,108c0-0.2,0-0.4-0.1-0.5c-0.2-0.7-0.9-1.4-1.8-1.4
				c-1.3,0-2.1,1.1-2.1,2.6c0,1.3,0.6,2.5,2,2.5c0.8,0,1.5-0.5,1.8-1.3c0.1-0.2,0.1-0.4,0.1-0.6V108z"/>
			<path class="st9" d="M93.6,110c0,0.5,0,1,0,1.4h-0.5l0-1h0c-0.3,0.5-0.9,1.2-2,1.2c-0.7,0-2-0.4-2-2.5v-3.3h0.6v3.2
				c0,1.2,0.4,2.1,1.5,2.1c0.8,0,1.5-0.6,1.7-1.2c0.1-0.2,0.1-0.4,0.1-0.6v-3.6h0.6V110z"/>
			<path class="st9" d="M99.1,110.1c0,0.5,0,0.9,0.1,1.4h-0.5l-0.1-0.8h0c-0.3,0.4-0.9,1-1.8,1c-1.2,0-1.7-0.8-1.7-1.6
				c0-1.3,1.2-2.1,3.5-2.1v-0.2c0-0.6-0.1-1.7-1.5-1.7c-0.5,0-1,0.1-1.5,0.4l-0.2-0.4c0.5-0.3,1.2-0.5,1.7-0.5c1.7,0,2,1.2,2,2.3
				V110.1z M98.5,108.4c-1.3,0-2.9,0.2-2.9,1.5c0,0.8,0.6,1.2,1.2,1.2c1,0,1.5-0.6,1.7-1.2c0-0.1,0.1-0.3,0.1-0.3V108.4z"/>
			<path class="st9" d="M105.5,102.9v7.2c0,0.4,0,0.9,0,1.3h-0.5l0-1.1h0c-0.3,0.6-1,1.2-2.1,1.2c-1.4,0-2.5-1.2-2.5-2.9
				c0-1.9,1.2-3.1,2.6-3.1c1,0,1.6,0.5,1.9,1h0v-3.6H105.5z M105,108c0-0.2,0-0.4-0.1-0.5c-0.2-0.8-0.9-1.4-1.8-1.4
				c-1.3,0-2.1,1.1-2.1,2.6c0,1.3,0.6,2.5,2,2.5c0.8,0,1.6-0.6,1.8-1.5c0-0.2,0.1-0.3,0.1-0.5V108z"/>
			<path class="st9" d="M110.1,103.4h0.6v7.6h3.6v0.5h-4.2V103.4z"/>
			<path class="st9" d="M115.4,108.5c0,1.8,1,2.6,2.2,2.6c0.8,0,1.3-0.2,1.6-0.3l0.1,0.4c-0.2,0.1-0.8,0.4-1.8,0.4
				c-1.7,0-2.7-1.2-2.7-2.9c0-1.9,1.1-3.1,2.6-3.1c1.9,0,2.2,1.8,2.2,2.6c0,0.2,0,0.2,0,0.3H115.4z M119,108c0-0.8-0.3-2-1.7-2
				c-1.3,0-1.8,1.1-1.9,2H119z"/>
			<path class="st9" d="M124.7,110.1c0,0.5,0,0.9,0.1,1.4h-0.5l-0.1-0.8h0c-0.3,0.4-0.9,1-1.8,1c-1.2,0-1.7-0.8-1.7-1.6
				c0-1.3,1.2-2.1,3.5-2.1v-0.2c0-0.6-0.1-1.7-1.5-1.7c-0.5,0-1,0.1-1.5,0.4L121,106c0.5-0.3,1.2-0.5,1.7-0.5c1.7,0,2,1.2,2,2.3
				V110.1z M124.1,108.4c-1.3,0-2.9,0.2-2.9,1.5c0,0.8,0.6,1.2,1.2,1.2c1,0,1.5-0.6,1.7-1.2c0-0.1,0.1-0.3,0.1-0.3V108.4z"/>
			<path class="st9" d="M131.1,102.9v7.2c0,0.4,0,0.9,0,1.3h-0.5l0-1.1h0c-0.3,0.6-1,1.2-2.1,1.2c-1.4,0-2.5-1.2-2.5-2.9
				c0-1.9,1.2-3.1,2.6-3.1c1,0,1.6,0.5,1.9,1h0v-3.6H131.1z M130.6,108c0-0.2,0-0.4-0.1-0.5c-0.2-0.8-0.9-1.4-1.8-1.4
				c-1.3,0-2.1,1.1-2.1,2.6c0,1.3,0.6,2.5,2,2.5c0.8,0,1.6-0.6,1.8-1.5c0-0.2,0.1-0.3,0.1-0.5V108z"/>
			<path class="st9" d="M132.8,110.7c0.3,0.2,0.8,0.4,1.3,0.4c0.9,0,1.3-0.5,1.3-1.1c0-0.6-0.4-1-1.2-1.3c-0.9-0.4-1.5-0.9-1.5-1.6
				c0-0.8,0.7-1.6,1.8-1.6c0.5,0,1,0.2,1.3,0.4l-0.2,0.5c-0.2-0.1-0.6-0.3-1.2-0.3c-0.7,0-1.1,0.5-1.1,1c0,0.6,0.4,0.9,1.2,1.2
				c0.9,0.4,1.5,0.8,1.5,1.7c0,1-0.8,1.6-1.9,1.6c-0.6,0-1.1-0.2-1.5-0.4L132.8,110.7z"/>
			<path class="st9" d="M136.7,112.9c1-1.2,1.7-2.7,1.7-4.9c0-2.2-0.7-3.7-1.7-4.9h0.5c0.8,1,1.7,2.5,1.7,4.9c0,2.4-0.9,3.9-1.7,4.9
				H136.7z"/>
			<path class="st9" d="M10.7,130.8c-0.1-1.2-0.2-2.7-0.2-3.6h0c-0.3,0.9-0.6,1.8-1.1,3l-1.7,4.4H7.3l-1.6-4.3
				c-0.5-1.3-0.8-2.2-1-3.1h0c0,0.9-0.1,2.4-0.2,3.7l-0.3,3.7H3.7l0.6-8.1h0.7l1.7,4.7c0.4,1,0.7,1.8,0.9,2.6h0
				c0.2-0.7,0.5-1.5,0.9-2.6l1.8-4.7H11l0.5,8.1h-0.6L10.7,130.8z"/>
			<path class="st9" d="M16.9,133.3c0,0.5,0,0.9,0.1,1.4h-0.5l-0.1-0.8h0c-0.3,0.4-0.9,1-1.8,1c-1.2,0-1.7-0.8-1.7-1.6
				c0-1.3,1.2-2.1,3.5-2.1v-0.2c0-0.6-0.1-1.7-1.5-1.7c-0.5,0-1,0.1-1.5,0.4l-0.2-0.4c0.5-0.3,1.2-0.5,1.7-0.5c1.7,0,2,1.2,2,2.3
				V133.3z M16.3,131.6c-1.3,0-2.9,0.2-2.9,1.5c0,0.8,0.6,1.2,1.2,1.2c1,0,1.5-0.6,1.7-1.2c0-0.1,0.1-0.3,0.1-0.3V131.6z"/>
			<path class="st9" d="M18.7,130.3c0-0.5,0-0.9,0-1.4h0.5l0,1h0c0.3-0.6,1-1.2,2-1.2c0.6,0,2,0.3,2,2.4v3.5h-0.6v-3.4
				c0-1-0.4-2-1.6-2c-0.8,0-1.5,0.6-1.7,1.3c0,0.1-0.1,0.3-0.1,0.5v3.6h-0.6V130.3z"/>
			<path class="st9" d="M28.8,133.3c0,0.5,0,0.9,0.1,1.4h-0.5l-0.1-0.8h0c-0.3,0.4-0.9,1-1.8,1c-1.2,0-1.7-0.8-1.7-1.6
				c0-1.3,1.2-2.1,3.5-2.1v-0.2c0-0.6-0.1-1.7-1.5-1.7c-0.5,0-1,0.1-1.5,0.4l-0.2-0.4c0.5-0.3,1.2-0.5,1.7-0.5c1.7,0,2,1.2,2,2.3
				V133.3z M28.2,131.6c-1.3,0-2.9,0.2-2.9,1.5c0,0.8,0.6,1.2,1.2,1.2c1,0,1.5-0.6,1.7-1.2c0-0.1,0.1-0.3,0.1-0.3V131.6z"/>
			<path class="st9" d="M35.2,133.8c0,1.5-0.3,2.2-0.8,2.7c-0.5,0.5-1.3,0.7-2,0.7c-0.7,0-1.4-0.2-1.8-0.5l0.2-0.5
				c0.4,0.3,1,0.5,1.7,0.5c1.2,0,2.1-0.6,2.1-2.3v-0.8h0c-0.3,0.6-1,1.1-2,1.1c-1.5,0-2.5-1.3-2.5-2.8c0-2,1.3-3.1,2.6-3.1
				c1.1,0,1.7,0.6,1.9,1.1h0l0-1h0.5c0,0.4,0,0.9,0,1.5V133.8z M34.6,131.1c0-0.2,0-0.4-0.1-0.6c-0.2-0.7-0.8-1.3-1.8-1.3
				c-1.2,0-2.1,1-2.1,2.5c0,1.3,0.7,2.4,2,2.4c0.8,0,1.5-0.5,1.8-1.3c0.1-0.2,0.1-0.4,0.1-0.6V131.1z"/>
			<path class="st9" d="M37.2,131.7c0,1.8,1,2.6,2.2,2.6c0.8,0,1.3-0.2,1.6-0.3l0.1,0.4c-0.2,0.1-0.8,0.4-1.8,0.4
				c-1.7,0-2.7-1.2-2.7-2.9c0-1.9,1.1-3.1,2.6-3.1c1.9,0,2.2,1.8,2.2,2.6c0,0.2,0,0.2,0,0.3H37.2z M40.9,131.2c0-0.8-0.3-2-1.7-2
				c-1.3,0-1.8,1.1-1.9,2H40.9z"/>
			<path class="st9" d="M43,130.6c0-0.6,0-1.2,0-1.7h0.5l0,1.2h0c0.3-0.7,0.9-1.3,1.6-1.3c0.1,0,0.2,0,0.2,0v0.6c-0.1,0-0.2,0-0.3,0
				c-0.8,0-1.4,0.7-1.5,1.6c0,0.2,0,0.4,0,0.6v3.2H43V130.6z"/>
			<path class="st9" d="M46.3,133.9c0.3,0.2,0.8,0.4,1.3,0.4c0.9,0,1.3-0.5,1.3-1.1c0-0.6-0.4-1-1.2-1.3c-0.9-0.4-1.5-0.9-1.5-1.6
				c0-0.8,0.7-1.6,1.8-1.6c0.5,0,1,0.2,1.3,0.4l-0.2,0.5c-0.2-0.1-0.6-0.3-1.2-0.3c-0.7,0-1.1,0.5-1.1,1c0,0.6,0.4,0.9,1.2,1.2
				c0.9,0.4,1.5,0.8,1.5,1.7c0,1-0.8,1.6-1.9,1.6c-0.6,0-1.1-0.2-1.5-0.4L46.3,133.9z"/>
			<path class="st9" d="M4.8,155l-1,2.8H3.3l2.9-8.1h0.6l2.9,8.1H9.1L8,155H4.8z M7.9,154.5l-1-2.7c-0.2-0.6-0.3-1-0.4-1.4h0
				c-0.1,0.5-0.2,0.9-0.4,1.4l-1,2.7H7.9z"/>
			<path class="st9" d="M10.6,157.1c0.3,0.2,0.8,0.4,1.3,0.4c0.9,0,1.3-0.5,1.3-1.1c0-0.6-0.4-1-1.2-1.3c-0.9-0.4-1.5-0.9-1.5-1.6
				c0-0.8,0.7-1.6,1.8-1.6c0.5,0,1,0.2,1.3,0.4l-0.2,0.5c-0.2-0.1-0.6-0.3-1.2-0.3c-0.7,0-1.1,0.5-1.1,1c0,0.6,0.4,0.9,1.2,1.2
				c0.9,0.4,1.5,0.8,1.5,1.7c0,1-0.8,1.6-1.9,1.6c-0.6,0-1.1-0.2-1.5-0.4L10.6,157.1z"/>
			<path class="st9" d="M15,157.1c0.3,0.2,0.8,0.4,1.3,0.4c0.9,0,1.3-0.5,1.3-1.1c0-0.6-0.4-1-1.2-1.3c-0.9-0.4-1.5-0.9-1.5-1.6
				c0-0.8,0.7-1.6,1.8-1.6c0.5,0,1,0.2,1.3,0.4l-0.2,0.5c-0.2-0.1-0.6-0.3-1.2-0.3c-0.7,0-1.1,0.5-1.1,1c0,0.6,0.4,0.9,1.2,1.2
				c0.9,0.4,1.5,0.8,1.5,1.7c0,1-0.8,1.6-1.9,1.6c-0.6,0-1.1-0.2-1.5-0.4L15,157.1z"/>
			<path class="st9" d="M20.5,150.8v1.3h1.6v0.5h-1.6v3.7c0,0.7,0.2,1.2,0.8,1.2c0.3,0,0.5,0,0.7-0.1l0.1,0.4
				c-0.2,0.1-0.5,0.1-0.8,0.1c-0.4,0-0.8-0.1-1-0.4c-0.3-0.3-0.4-0.8-0.4-1.4v-3.6h-1v-0.5h1V151L20.5,150.8z"/>
			<path class="st9" d="M23.1,157.4c0-0.3,0.2-0.5,0.5-0.5c0.3,0,0.5,0.2,0.5,0.5c0,0.3-0.2,0.5-0.5,0.5
				C23.3,158,23.1,157.7,23.1,157.4z"/>
			<path class="st9" d="M35,154c-0.1-1.2-0.2-2.7-0.2-3.6h0c-0.3,0.9-0.6,1.8-1.1,3l-1.7,4.4h-0.4l-1.6-4.3c-0.5-1.3-0.8-2.2-1-3.1
				h0c0,0.9-0.1,2.4-0.2,3.7l-0.3,3.7H28l0.6-8.1h0.7l1.7,4.7c0.4,1,0.7,1.8,0.9,2.6h0c0.2-0.7,0.5-1.5,0.9-2.6l1.8-4.7h0.7l0.5,8.1
				h-0.6L35,154z"/>
			<path class="st9" d="M41.2,156.5c0,0.5,0,0.9,0.1,1.4h-0.5l-0.1-0.8h0c-0.3,0.4-0.9,1-1.8,1c-1.2,0-1.7-0.8-1.7-1.6
				c0-1.3,1.2-2.1,3.5-2.1v-0.2c0-0.6-0.1-1.7-1.5-1.7c-0.5,0-1,0.1-1.5,0.4l-0.2-0.4c0.5-0.3,1.2-0.5,1.7-0.5c1.7,0,2,1.2,2,2.3
				V156.5z M40.6,154.8c-1.3,0-2.9,0.2-2.9,1.5c0,0.8,0.6,1.2,1.2,1.2c1,0,1.5-0.6,1.7-1.2c0-0.1,0.1-0.3,0.1-0.3V154.8z"/>
			<path class="st9" d="M43,153.5c0-0.5,0-0.9,0-1.4h0.5l0,1h0c0.3-0.6,1-1.2,2-1.2c0.6,0,2,0.3,2,2.4v3.5H47v-3.4c0-1-0.4-2-1.6-2
				c-0.8,0-1.5,0.6-1.7,1.3c0,0.1-0.1,0.3-0.1,0.5v3.6H43V153.5z"/>
			<path class="st9" d="M53.1,156.5c0,0.5,0,0.9,0.1,1.4h-0.5l-0.1-0.8h0c-0.3,0.4-0.9,1-1.8,1c-1.2,0-1.7-0.8-1.7-1.6
				c0-1.3,1.2-2.1,3.5-2.1v-0.2c0-0.6-0.1-1.7-1.5-1.7c-0.5,0-1,0.1-1.5,0.4l-0.2-0.4c0.5-0.3,1.2-0.5,1.7-0.5c1.7,0,2,1.2,2,2.3
				V156.5z M52.5,154.8c-1.3,0-2.9,0.2-2.9,1.5c0,0.8,0.6,1.2,1.2,1.2c1,0,1.5-0.6,1.7-1.2c0-0.1,0.1-0.3,0.1-0.3V154.8z"/>
			<path class="st9" d="M59.5,157c0,1.5-0.3,2.2-0.8,2.7c-0.5,0.5-1.3,0.7-2,0.7c-0.7,0-1.4-0.2-1.8-0.5l0.2-0.5
				c0.4,0.3,1,0.5,1.7,0.5c1.2,0,2.1-0.6,2.1-2.3v-0.8h0c-0.3,0.6-1,1.1-2,1.1c-1.5,0-2.5-1.3-2.5-2.8c0-2,1.3-3.1,2.6-3.1
				c1.1,0,1.7,0.6,1.9,1.1h0l0-1h0.5c0,0.4,0,0.9,0,1.5V157z M58.9,154.3c0-0.2,0-0.4-0.1-0.6c-0.2-0.7-0.8-1.3-1.8-1.3
				c-1.2,0-2.1,1-2.1,2.5c0,1.3,0.7,2.4,2,2.4c0.8,0,1.5-0.5,1.8-1.3c0.1-0.2,0.1-0.4,0.1-0.6V154.3z"/>
			<path class="st9" d="M61.5,154.9c0,1.8,1,2.6,2.2,2.6c0.8,0,1.3-0.2,1.6-0.3l0.1,0.4c-0.2,0.1-0.8,0.4-1.8,0.4
				c-1.7,0-2.7-1.2-2.7-2.9c0-1.9,1.1-3.1,2.6-3.1c1.9,0,2.2,1.8,2.2,2.6c0,0.2,0,0.2,0,0.3H61.5z M65.2,154.5c0-0.8-0.3-2-1.7-2
				c-1.3,0-1.8,1.1-1.9,2H65.2z"/>
			<path class="st9" d="M67.3,153.8c0-0.6,0-1.2,0-1.7h0.5l0,1.2h0c0.3-0.7,0.9-1.3,1.6-1.3c0.1,0,0.2,0,0.2,0v0.6
				c-0.1,0-0.2,0-0.3,0c-0.8,0-1.4,0.7-1.5,1.6c0,0.2,0,0.4,0,0.6v3.2h-0.6V153.8z"/>
			<path class="st9" d="M70.6,157.1c0.3,0.2,0.8,0.4,1.3,0.4c0.9,0,1.3-0.5,1.3-1.1c0-0.6-0.4-1-1.2-1.3c-0.9-0.4-1.5-0.9-1.5-1.6
				c0-0.8,0.7-1.6,1.8-1.6c0.5,0,1,0.2,1.3,0.4l-0.2,0.5c-0.2-0.1-0.6-0.3-1.2-0.3c-0.7,0-1.1,0.5-1.1,1c0,0.6,0.4,0.9,1.2,1.2
				c0.9,0.4,1.5,0.8,1.5,1.7c0,1-0.8,1.6-1.9,1.6c-0.6,0-1.1-0.2-1.5-0.4L70.6,157.1z"/>
			<path class="st9" d="M3.9,173.1c0.6-0.1,1.3-0.2,2.1-0.2c1.5,0,2.6,0.4,3.3,1.1c0.6,0.7,1,1.6,1,2.8c0,1.2-0.3,2.3-1.1,3.1
				c-0.7,0.8-1.9,1.2-3.5,1.2c-0.6,0-1.2,0-1.8-0.1V173.1z M4.4,180.6c0.3,0,0.8,0.1,1.3,0.1c2.6,0,3.9-1.5,3.9-3.8
				c0-2.1-1.1-3.5-3.7-3.5c-0.6,0-1.1,0.1-1.5,0.1V180.6z"/>
			<path class="st9" d="M11.8,178.1c0,1.8,1,2.6,2.2,2.6c0.8,0,1.3-0.2,1.6-0.3l0.1,0.4c-0.2,0.1-0.8,0.4-1.8,0.4
				c-1.7,0-2.7-1.2-2.7-2.9c0-1.9,1.1-3.1,2.6-3.1c1.9,0,2.2,1.8,2.2,2.6c0,0.2,0,0.2,0,0.3H11.8z M15.5,177.7c0-0.8-0.3-2-1.7-2
				c-1.3,0-1.8,1.1-1.9,2H15.5z"/>
			<path class="st9" d="M17.5,177.1c0-0.7,0-1.3,0-1.8H18l0,1.1h0c0.4-0.8,1.1-1.2,2.1-1.2c1.5,0,2.5,1.2,2.5,2.9
				c0,2.1-1.2,3.1-2.6,3.1c-0.8,0-1.6-0.4-2-1.1h0v3.3h-0.6V177.1z M18.1,178.8c0,0.2,0,0.3,0,0.5c0.2,0.9,1,1.5,1.9,1.5
				c1.3,0,2.1-1.1,2.1-2.6c0-1.3-0.7-2.5-2-2.5c-0.8,0-1.7,0.6-1.9,1.5c0,0.2-0.1,0.3-0.1,0.5V178.8z"/>
			<path class="st9" d="M24.9,174v1.3h1.6v0.5h-1.6v3.7c0,0.7,0.2,1.2,0.8,1.2c0.3,0,0.5,0,0.7-0.1l0.1,0.4
				c-0.2,0.1-0.5,0.1-0.8,0.1c-0.4,0-0.8-0.1-1-0.4c-0.3-0.3-0.4-0.8-0.4-1.4v-3.6h-1v-0.5h1v-1.1L24.9,174z"/>
			<path class="st9" d="M27.5,180.6c0-0.3,0.2-0.5,0.5-0.5c0.3,0,0.5,0.2,0.5,0.5c0,0.3-0.2,0.5-0.5,0.5
				C27.7,181.2,27.5,180.9,27.5,180.6z"/>
			<path class="st9" d="M39.4,177.2c-0.1-1.2-0.2-2.7-0.2-3.6h0c-0.3,0.9-0.6,1.8-1.1,3l-1.7,4.4H36l-1.6-4.3
				c-0.5-1.3-0.8-2.2-1-3.1h0c0,0.9-0.1,2.4-0.2,3.7l-0.3,3.7h-0.6l0.6-8.1h0.7l1.7,4.7c0.4,1,0.7,1.8,0.9,2.6h0
				c0.2-0.7,0.5-1.5,0.9-2.6L39,173h0.7l0.5,8.1h-0.6L39.4,177.2z"/>
			<path class="st9" d="M45.6,179.7c0,0.5,0,0.9,0.1,1.4h-0.5l-0.1-0.8h0c-0.3,0.4-0.9,1-1.8,1c-1.2,0-1.7-0.8-1.7-1.6
				c0-1.3,1.2-2.1,3.5-2.1v-0.2c0-0.6-0.1-1.7-1.5-1.7c-0.5,0-1,0.1-1.5,0.4l-0.2-0.4c0.5-0.3,1.2-0.5,1.7-0.5c1.7,0,2,1.2,2,2.3
				V179.7z M45,178c-1.3,0-2.9,0.2-2.9,1.5c0,0.8,0.6,1.2,1.2,1.2c1,0,1.5-0.6,1.7-1.2c0-0.1,0.1-0.3,0.1-0.3V178z"/>
			<path class="st9" d="M47.5,176.7c0-0.5,0-0.9,0-1.4h0.5l0,1h0c0.3-0.6,1-1.2,2-1.2c0.6,0,2,0.3,2,2.4v3.5h-0.6v-3.4
				c0-1-0.4-2-1.6-2c-0.8,0-1.5,0.6-1.7,1.3c0,0.1-0.1,0.3-0.1,0.5v3.6h-0.6V176.7z"/>
			<path class="st9" d="M57.5,179.7c0,0.5,0,0.9,0.1,1.4H57l-0.1-0.8h0c-0.3,0.4-0.9,1-1.8,1c-1.2,0-1.7-0.8-1.7-1.6
				c0-1.3,1.2-2.1,3.5-2.1v-0.2c0-0.6-0.1-1.7-1.5-1.7c-0.5,0-1,0.1-1.5,0.4l-0.2-0.4c0.5-0.3,1.2-0.5,1.7-0.5c1.7,0,2,1.2,2,2.3
				V179.7z M56.9,178c-1.3,0-2.9,0.2-2.9,1.5c0,0.8,0.6,1.2,1.2,1.2c1,0,1.5-0.6,1.7-1.2c0-0.1,0.1-0.3,0.1-0.3V178z"/>
			<path class="st9" d="M63.9,180.2c0,1.5-0.3,2.2-0.8,2.7c-0.5,0.5-1.3,0.7-2,0.7c-0.7,0-1.4-0.2-1.8-0.5l0.2-0.5
				c0.4,0.3,1,0.5,1.7,0.5c1.2,0,2.1-0.6,2.1-2.3v-0.8h0c-0.3,0.6-1,1.1-2,1.1c-1.5,0-2.5-1.3-2.5-2.8c0-2,1.3-3.1,2.6-3.1
				c1.1,0,1.7,0.6,1.9,1.1h0l0-1H64c0,0.4,0,0.9,0,1.5V180.2z M63.4,177.5c0-0.2,0-0.4-0.1-0.6c-0.2-0.7-0.8-1.3-1.8-1.3
				c-1.2,0-2.1,1-2.1,2.5c0,1.3,0.7,2.4,2,2.4c0.8,0,1.5-0.5,1.8-1.3c0.1-0.2,0.1-0.4,0.1-0.6V177.5z"/>
			<path class="st9" d="M65.9,178.1c0,1.8,1,2.6,2.2,2.6c0.8,0,1.3-0.2,1.6-0.3l0.1,0.4c-0.2,0.1-0.8,0.4-1.8,0.4
				c-1.7,0-2.7-1.2-2.7-2.9c0-1.9,1.1-3.1,2.6-3.1c1.9,0,2.2,1.8,2.2,2.6c0,0.2,0,0.2,0,0.3H65.9z M69.6,177.7c0-0.8-0.3-2-1.7-2
				c-1.3,0-1.8,1.1-1.9,2H69.6z"/>
			<path class="st9" d="M71.7,177c0-0.6,0-1.2,0-1.7h0.5l0,1.2h0c0.3-0.7,0.9-1.3,1.6-1.3c0.1,0,0.2,0,0.2,0v0.6c-0.1,0-0.2,0-0.3,0
				c-0.8,0-1.4,0.7-1.5,1.6c0,0.2,0,0.4,0,0.6v3.2h-0.6V177z"/>
			<path class="st9" d="M75,180.3c0.3,0.2,0.8,0.4,1.3,0.4c0.9,0,1.3-0.5,1.3-1.1c0-0.6-0.4-1-1.2-1.3c-0.9-0.4-1.5-0.9-1.5-1.6
				c0-0.8,0.7-1.6,1.8-1.6c0.5,0,1,0.2,1.3,0.4l-0.2,0.5c-0.2-0.1-0.6-0.3-1.2-0.3c-0.7,0-1.1,0.5-1.1,1c0,0.6,0.4,0.9,1.2,1.2
				c0.9,0.4,1.5,0.8,1.5,1.7c0,1-0.8,1.6-1.9,1.6c-0.6,0-1.1-0.2-1.5-0.4L75,180.3z"/>
			<path class="st9" d="M3.9,196.2h4v0.5H4.4v3.2h3.1v0.5H4.4v3.9H3.9V196.2z"/>
			<path class="st9" d="M9,200.2c0-0.6,0-1.2,0-1.7h0.5l0,1.2h0c0.3-0.7,0.9-1.3,1.6-1.3c0.1,0,0.2,0,0.2,0v0.6c-0.1,0-0.2,0-0.3,0
				c-0.8,0-1.4,0.7-1.5,1.6c0,0.2,0,0.4,0,0.6v3.2H9V200.2z"/>
			<path class="st9" d="M17.4,201.3c0,2.1-1.5,3.1-2.8,3.1c-1.5,0-2.6-1.2-2.6-3c0-2,1.3-3.1,2.7-3.1
				C16.3,198.4,17.4,199.6,17.4,201.3z M12.6,201.4c0,1.4,0.9,2.5,2.1,2.5c1.2,0,2.1-1.1,2.1-2.6c0-1.1-0.6-2.5-2.1-2.5
				C13.2,198.8,12.6,200.1,12.6,201.4z"/>
			<path class="st9" d="M18.8,199.9c0-0.5,0-0.9,0-1.4h0.5l0,1h0c0.3-0.6,1-1.2,2-1.2c0.6,0,2,0.3,2,2.4v3.5h-0.6v-3.4
				c0-1-0.4-2-1.6-2c-0.8,0-1.5,0.6-1.7,1.3c0,0.1-0.1,0.3-0.1,0.5v3.6h-0.6V199.9z"/>
			<path class="st9" d="M26.1,197.2v1.3h1.6v0.5h-1.6v3.7c0,0.7,0.2,1.2,0.8,1.2c0.3,0,0.5,0,0.7-0.1l0.1,0.4
				c-0.2,0.1-0.5,0.1-0.8,0.1c-0.4,0-0.8-0.1-1-0.4c-0.3-0.3-0.4-0.8-0.4-1.4V199h-1v-0.5h1v-1.1L26.1,197.2z"/>
			<path class="st9" d="M29,195.7h0.6v8.5H29V195.7z"/>
			<path class="st9" d="M32.3,196.8c0,0.3-0.2,0.5-0.5,0.5c-0.3,0-0.4-0.2-0.4-0.5s0.2-0.5,0.5-0.5S32.3,196.6,32.3,196.8z
				 M31.5,204.2v-5.8h0.6v5.8H31.5z"/>
			<path class="st9" d="M34,199.9c0-0.5,0-0.9,0-1.4h0.5l0,1h0c0.3-0.6,1-1.2,2-1.2c0.6,0,2,0.3,2,2.4v3.5H38v-3.4c0-1-0.4-2-1.6-2
				c-0.8,0-1.5,0.6-1.7,1.3c0,0.1-0.1,0.3-0.1,0.5v3.6H34V199.9z"/>
			<path class="st9" d="M40.6,201.3c0,1.8,1,2.6,2.2,2.6c0.8,0,1.3-0.2,1.6-0.3l0.1,0.4c-0.2,0.1-0.8,0.4-1.8,0.4
				c-1.7,0-2.7-1.2-2.7-2.9c0-1.9,1.1-3.1,2.6-3.1c1.9,0,2.2,1.8,2.2,2.6c0,0.2,0,0.2,0,0.3H40.6z M44.2,200.9c0-0.8-0.3-2-1.7-2
				c-1.3,0-1.8,1.1-1.9,2H44.2z"/>
			<path class="st9" d="M52.5,202.9c0,0.5,0,0.9,0.1,1.4h-0.5l-0.1-0.8h0c-0.3,0.4-0.9,1-1.8,1c-1.2,0-1.7-0.8-1.7-1.6
				c0-1.3,1.2-2.1,3.5-2.1v-0.2c0-0.6-0.1-1.7-1.5-1.7c-0.5,0-1,0.1-1.5,0.4l-0.2-0.4c0.5-0.3,1.2-0.5,1.7-0.5c1.7,0,2,1.2,2,2.3
				V202.9z M51.9,201.2c-1.3,0-2.9,0.2-2.9,1.5c0,0.8,0.6,1.2,1.2,1.2c1,0,1.5-0.6,1.7-1.2c0-0.1,0.1-0.3,0.1-0.3V201.2z"/>
			<path class="st9" d="M54.1,203.5c0.3,0.2,0.8,0.4,1.3,0.4c0.9,0,1.3-0.5,1.3-1.1c0-0.6-0.4-1-1.2-1.3c-0.9-0.4-1.5-0.9-1.5-1.6
				c0-0.8,0.7-1.6,1.8-1.6c0.5,0,1,0.2,1.3,0.4l-0.2,0.5c-0.2-0.1-0.6-0.3-1.2-0.3c-0.7,0-1.1,0.5-1.1,1c0,0.6,0.4,0.9,1.2,1.2
				c0.9,0.4,1.5,0.8,1.5,1.7c0,1-0.8,1.6-1.9,1.6c-0.6,0-1.1-0.2-1.5-0.4L54.1,203.5z"/>
			<path class="st9" d="M58.6,203.5c0.3,0.2,0.8,0.4,1.3,0.4c0.9,0,1.3-0.5,1.3-1.1c0-0.6-0.4-1-1.2-1.3c-0.9-0.4-1.5-0.9-1.5-1.6
				c0-0.8,0.7-1.6,1.8-1.6c0.5,0,1,0.2,1.3,0.4l-0.2,0.5c-0.2-0.1-0.6-0.3-1.2-0.3c-0.7,0-1.1,0.5-1.1,1c0,0.6,0.4,0.9,1.2,1.2
				c0.9,0.4,1.5,0.8,1.5,1.7c0,1-0.8,1.6-1.9,1.6c-0.6,0-1.1-0.2-1.5-0.4L58.6,203.5z"/>
			<path class="st9" d="M68.2,201.3c0,2.1-1.5,3.1-2.8,3.1c-1.5,0-2.6-1.2-2.6-3c0-2,1.3-3.1,2.7-3.1
				C67.2,198.4,68.2,199.6,68.2,201.3z M63.4,201.4c0,1.4,0.9,2.5,2.1,2.5c1.2,0,2.1-1.1,2.1-2.6c0-1.1-0.6-2.5-2.1-2.5
				C64.1,198.8,63.4,200.1,63.4,201.4z"/>
			<path class="st9" d="M73.7,204c-0.3,0.1-0.9,0.4-1.7,0.4c-1.7,0-2.8-1.2-2.8-2.9c0-1.8,1.2-3.1,3-3.1c0.7,0,1.3,0.2,1.5,0.4
				l-0.2,0.5c-0.3-0.2-0.7-0.3-1.4-0.3c-1.5,0-2.3,1.2-2.3,2.5c0,1.5,0.9,2.5,2.3,2.5c0.7,0,1.1-0.2,1.4-0.3L73.7,204z"/>
			<path class="st9" d="M75.8,196.8c0,0.3-0.2,0.5-0.5,0.5c-0.3,0-0.4-0.2-0.4-0.5s0.2-0.5,0.5-0.5S75.8,196.6,75.8,196.8z
				 M75.1,204.2v-5.8h0.6v5.8H75.1z"/>
			<path class="st9" d="M81.1,202.9c0,0.5,0,0.9,0.1,1.4h-0.5l-0.1-0.8h0c-0.3,0.4-0.9,1-1.8,1c-1.2,0-1.7-0.8-1.7-1.6
				c0-1.3,1.2-2.1,3.5-2.1v-0.2c0-0.6-0.1-1.7-1.5-1.7c-0.5,0-1,0.1-1.5,0.4l-0.2-0.4c0.5-0.3,1.2-0.5,1.7-0.5c1.7,0,2,1.2,2,2.3
				V202.9z M80.6,201.2c-1.3,0-2.9,0.2-2.9,1.5c0,0.8,0.6,1.2,1.2,1.2c1,0,1.5-0.6,1.7-1.2c0-0.1,0.1-0.3,0.1-0.3V201.2z"/>
			<path class="st9" d="M83.8,197.2v1.3h1.6v0.5h-1.6v3.7c0,0.7,0.2,1.2,0.8,1.2c0.3,0,0.5,0,0.7-0.1l0.1,0.4
				c-0.2,0.1-0.5,0.1-0.8,0.1c-0.4,0-0.8-0.1-1-0.4c-0.3-0.3-0.4-0.8-0.4-1.4V199h-1v-0.5h1v-1.1L83.8,197.2z"/>
			<path class="st9" d="M86.7,201.3c0,1.8,1,2.6,2.2,2.6c0.8,0,1.3-0.2,1.6-0.3l0.1,0.4c-0.2,0.1-0.8,0.4-1.8,0.4
				c-1.7,0-2.7-1.2-2.7-2.9c0-1.9,1.1-3.1,2.6-3.1c1.9,0,2.2,1.8,2.2,2.6c0,0.2,0,0.2,0,0.3H86.7z M90.4,200.9c0-0.8-0.3-2-1.7-2
				c-1.3,0-1.8,1.1-1.9,2H90.4z"/>
			<path class="st9" d="M92.2,203.5c0.3,0.2,0.8,0.4,1.3,0.4c0.9,0,1.3-0.5,1.3-1.1c0-0.6-0.4-1-1.2-1.3c-0.9-0.4-1.5-0.9-1.5-1.6
				c0-0.8,0.7-1.6,1.8-1.6c0.5,0,1,0.2,1.3,0.4l-0.2,0.5c-0.2-0.1-0.6-0.3-1.2-0.3c-0.7,0-1.1,0.5-1.1,1c0,0.6,0.4,0.9,1.2,1.2
				c0.9,0.4,1.5,0.8,1.5,1.7c0,1-0.8,1.6-1.9,1.6c-0.6,0-1.1-0.2-1.5-0.4L92.2,203.5z"/>
		</g>
	</g>
	<g>
		<g>
			<path class="st9" d="M178.3,36.6c-0.1-1.2-0.2-2.7-0.2-3.6h0c-0.3,0.9-0.6,1.8-1.1,3l-1.7,4.4h-0.4l-1.6-4.3
				c-0.5-1.3-0.8-2.2-1-3.1h0c0,0.9-0.1,2.4-0.2,3.7l-0.3,3.7h-0.6l0.6-8.1h0.7l1.7,4.7c0.4,1,0.7,1.8,0.9,2.6h0
				c0.2-0.7,0.5-1.5,0.9-2.6l1.8-4.7h0.7l0.5,8.1h-0.6L178.3,36.6z"/>
			<path class="st9" d="M184.5,39.1c0,0.5,0,0.9,0.1,1.4h-0.5l-0.1-0.8h0c-0.3,0.4-0.9,1-1.8,1c-1.2,0-1.7-0.8-1.7-1.6
				c0-1.3,1.2-2.1,3.5-2.1v-0.2c0-0.6-0.1-1.7-1.5-1.7c-0.5,0-1,0.1-1.5,0.4l-0.2-0.4c0.5-0.3,1.2-0.5,1.7-0.5c1.7,0,2,1.2,2,2.3
				V39.1z M183.9,37.4c-1.3,0-2.9,0.2-2.9,1.5c0,0.8,0.6,1.2,1.2,1.2c1,0,1.5-0.6,1.7-1.2c0-0.1,0.1-0.3,0.1-0.3V37.4z"/>
			<path class="st9" d="M186.4,36.1c0-0.5,0-0.9,0-1.4h0.5l0,1h0c0.3-0.6,1-1.2,2-1.2c0.6,0,2,0.3,2,2.4v3.5h-0.6v-3.4
				c0-1-0.4-2-1.6-2c-0.8,0-1.5,0.6-1.7,1.3c0,0.1-0.1,0.3-0.1,0.5v3.6h-0.6V36.1z"/>
			<path class="st9" d="M195.4,31.9h0.6v3.8h0c0.2-0.3,0.4-0.6,0.8-0.8c0.3-0.2,0.7-0.3,1.2-0.3c0.5,0,2,0.3,2,2.4v3.5h-0.6v-3.4
				c0-1-0.4-2-1.6-2c-0.8,0-1.5,0.6-1.7,1.3c-0.1,0.2-0.1,0.3-0.1,0.6v3.5h-0.6V31.9z"/>
			<path class="st9" d="M206.8,37.5c0,2.1-1.5,3.1-2.8,3.1c-1.5,0-2.6-1.2-2.6-3c0-2,1.3-3.1,2.7-3.1
				C205.7,34.6,206.8,35.8,206.8,37.5z M202,37.6c0,1.4,0.9,2.5,2.1,2.5c1.2,0,2.1-1.1,2.1-2.6c0-1.1-0.6-2.5-2.1-2.5
				C202.6,35.1,202,36.4,202,37.6z"/>
			<path class="st9" d="M212.7,39.1c0,0.5,0,1,0,1.4h-0.5l0-1h0c-0.3,0.5-0.9,1.2-2,1.2c-0.7,0-2-0.4-2-2.5v-3.3h0.6v3.2
				c0,1.2,0.4,2.1,1.5,2.1c0.8,0,1.5-0.6,1.7-1.2c0.1-0.2,0.1-0.4,0.1-0.6v-3.6h0.6V39.1z"/>
			<path class="st9" d="M214.6,36.4c0-0.6,0-1.2,0-1.7h0.5l0,1.2h0c0.3-0.7,0.9-1.3,1.6-1.3c0.1,0,0.2,0,0.2,0v0.6
				c-0.1,0-0.2,0-0.3,0c-0.8,0-1.4,0.7-1.5,1.6c0,0.2,0,0.4,0,0.6v3.2h-0.6V36.4z"/>
			<path class="st9" d="M217.9,39.7c0.3,0.2,0.8,0.4,1.3,0.4c0.9,0,1.3-0.5,1.3-1.1c0-0.6-0.4-1-1.2-1.3c-0.9-0.4-1.5-0.9-1.5-1.6
				c0-0.8,0.7-1.6,1.8-1.6c0.5,0,1,0.2,1.3,0.4l-0.2,0.5c-0.2-0.1-0.6-0.3-1.2-0.3c-0.7,0-1.1,0.5-1.1,1c0,0.6,0.4,0.9,1.2,1.2
				c0.9,0.4,1.5,0.8,1.5,1.7c0,1-0.8,1.6-1.9,1.6c-0.6,0-1.1-0.2-1.5-0.4L217.9,39.7z"/>
			<path class="st9" d="M187.9,63.7v-0.4l0.7-0.7c2.2-2.1,3.1-3.2,3.1-4.6c0-0.9-0.4-1.8-1.7-1.8c-0.7,0-1.3,0.4-1.7,0.7l-0.2-0.4
				c0.5-0.5,1.2-0.8,2-0.8c1.6,0,2.2,1.2,2.2,2.1c0,1.5-1.1,2.8-3.1,4.7l-0.6,0.6v0h3.8v0.5H187.9z"/>
			<path class="st9" d="M197,63.7v-2.3h-3.7V61l3.8-5.1h0.5v5h1.2v0.5h-1.2v2.3H197z M197,60.9v-3.2c0-0.4,0-0.7,0-1.1l0,0
				c-0.2,0.4-0.4,0.7-0.6,1l-2.4,3.2v0H197z"/>
			<path class="st9" d="M200.2,63.3c0.2,0,0.5,0,0.9-0.1c0.6-0.1,1.2-0.4,1.7-0.9c0.5-0.6,0.9-1.3,1.1-2.5l0,0c-0.5,0.6-1.2,1-2,1
				c-1.5,0-2.2-1.1-2.2-2.4c0-1.4,1-2.7,2.5-2.7c1.3,0,2.4,1.1,2.4,3.3c0,1.8-0.6,3-1.3,3.7c-0.5,0.5-1.2,0.9-1.8,1
				c-0.4,0.1-0.8,0.1-1.1,0.1V63.3z M200.2,58.4c0,1.2,0.7,1.9,1.8,1.9c0.8,0,1.5-0.4,1.9-1c0-0.1,0.1-0.2,0.1-0.3
				c0-1.6-0.6-2.8-1.9-2.8C200.9,56.2,200.2,57.2,200.2,58.4z"/>
			<path class="st9" d="M183.9,86.9v-0.4l0.7-0.7c2.2-2.1,3.1-3.2,3.1-4.6c0-0.9-0.4-1.8-1.7-1.8c-0.7,0-1.3,0.4-1.7,0.7l-0.2-0.4
				c0.5-0.5,1.2-0.8,2-0.8c1.6,0,2.2,1.2,2.2,2.1c0,1.5-1.1,2.8-3.1,4.7l-0.6,0.6v0h3.8v0.5H183.9z"/>
			<path class="st9" d="M189.5,88.4c0.2-0.5,0.5-1.8,0.6-2.5l0.8-0.1c-0.2,0.9-0.7,2.3-0.9,2.6L189.5,88.4z"/>
			<path class="st9" d="M191.8,86.9v-0.4l0.7-0.7c2.2-2.1,3.1-3.2,3.1-4.6c0-0.9-0.4-1.8-1.7-1.8c-0.7,0-1.3,0.4-1.7,0.7l-0.2-0.4
				c0.5-0.5,1.2-0.8,2-0.8c1.6,0,2.2,1.2,2.2,2.1c0,1.5-1.1,2.8-3.1,4.7l-0.6,0.6v0h3.8v0.5H191.8z"/>
			<path class="st9" d="M201,86.9v-2.3h-3.7v-0.4l3.8-5.1h0.5v5h1.2v0.5h-1.2v2.3H201z M201,84.1v-3.2c0-0.4,0-0.7,0-1.1l0,0
				c-0.2,0.4-0.4,0.7-0.6,1l-2.4,3.2v0H201z"/>
			<path class="st9" d="M205.8,79.7L205.8,79.7l-1.3,0.7l-0.1-0.5l1.5-0.9h0.5v7.8h-0.6V79.7z"/>
			<path class="st9" d="M185.4,105.9c-0.9-0.4-1.3-1.1-1.3-1.8c0-1.2,1-2,2.2-2c1.3,0,2.1,0.9,2.1,1.9c0,0.6-0.3,1.4-1.4,1.9v0
				c1.1,0.4,1.7,1.2,1.7,2.1c0,1.3-1.2,2.2-2.4,2.2c-1.4,0-2.4-0.9-2.4-2.1C183.8,107.1,184.4,106.4,185.4,105.9L185.4,105.9z
				 M188.1,108.1c0-1.1-0.7-1.6-2-2c-1.1,0.3-1.7,1-1.7,1.9c0,0.9,0.6,1.7,1.8,1.7C187.4,109.7,188.1,109,188.1,108.1z M184.7,104.1
				c0,0.9,0.7,1.4,1.7,1.7c0.8-0.3,1.4-0.8,1.4-1.7c0-0.7-0.4-1.5-1.5-1.5C185.3,102.6,184.7,103.3,184.7,104.1z"/>
			<path class="st9" d="M189.5,111.6c0.2-0.5,0.5-1.8,0.6-2.5l0.8-0.1c-0.2,0.9-0.7,2.3-0.9,2.6L189.5,111.6z"/>
			<path class="st9" d="M193.4,105.9c-0.9-0.4-1.3-1.1-1.3-1.8c0-1.2,1-2,2.2-2c1.3,0,2.1,0.9,2.1,1.9c0,0.6-0.3,1.4-1.4,1.9v0
				c1.1,0.4,1.7,1.2,1.7,2.1c0,1.3-1.2,2.2-2.4,2.2c-1.4,0-2.4-0.9-2.4-2.1C191.8,107.1,192.4,106.4,193.4,105.9L193.4,105.9z
				 M196.1,108.1c0-1.1-0.7-1.6-2-2c-1.1,0.3-1.7,1-1.7,1.9c0,0.9,0.6,1.7,1.8,1.7C195.3,109.7,196.1,109,196.1,108.1z M192.6,104.1
				c0,0.9,0.7,1.4,1.7,1.7c0.8-0.3,1.4-0.8,1.4-1.7c0-0.7-0.4-1.5-1.5-1.5C193.2,102.6,192.6,103.3,192.6,104.1z"/>
			<path class="st9" d="M200,102.9L200,102.9l-1.3,0.7l-0.1-0.5l1.5-0.9h0.5v7.8H200V102.9z"/>
			<path class="st9" d="M205.1,105.9c-0.9-0.4-1.3-1.1-1.3-1.8c0-1.2,1-2,2.2-2c1.3,0,2.1,0.9,2.1,1.9c0,0.6-0.3,1.4-1.4,1.9v0
				c1.1,0.4,1.7,1.2,1.7,2.1c0,1.3-1.2,2.2-2.4,2.2c-1.4,0-2.4-0.9-2.4-2.1C203.5,107.1,204.1,106.4,205.1,105.9L205.1,105.9z
				 M207.8,108.1c0-1.1-0.7-1.6-2-2c-1.1,0.3-1.7,1-1.7,1.9c0,0.9,0.6,1.7,1.8,1.7C207,109.7,207.8,109,207.8,108.1z M204.3,104.1
				c0,0.9,0.7,1.4,1.7,1.7c0.8-0.3,1.4-0.8,1.4-1.7c0-0.7-0.4-1.5-1.5-1.5C204.9,102.6,204.3,103.3,204.3,104.1z"/>
			<path class="st9" d="M185.7,125.5v0.4l-3.5,7.4h-0.6l3.5-7.3v0h-4v-0.5H185.7z"/>
			<path class="st9" d="M187,132.4c0.3,0.2,0.9,0.5,1.7,0.5c1.6,0,2-1.1,2-1.8c0-1.3-1.1-1.8-2.3-1.8h-0.5v-0.5h0.5
				c0.9,0,2-0.5,2-1.6c0-0.7-0.4-1.4-1.5-1.4c-0.6,0-1.2,0.3-1.5,0.5l-0.2-0.4c0.4-0.3,1.1-0.6,1.8-0.6c1.5,0,2,0.9,2,1.8
				c0,0.8-0.5,1.5-1.5,1.8v0c1,0.2,1.8,0.9,1.8,2.1c0,1.2-0.8,2.3-2.6,2.3c-0.8,0-1.5-0.3-1.8-0.5L187,132.4z"/>
			<path class="st9" d="M192.4,134.8c0.2-0.5,0.5-1.8,0.6-2.5l0.8-0.1c-0.2,0.9-0.7,2.3-0.9,2.6L192.4,134.8z"/>
			<path class="st9" d="M195.4,132.9c0.2,0,0.5,0,0.9-0.1c0.6-0.1,1.2-0.4,1.7-0.9c0.5-0.6,0.9-1.3,1.1-2.5l0,0c-0.5,0.6-1.2,1-2,1
				c-1.5,0-2.2-1.1-2.2-2.4c0-1.4,1-2.7,2.5-2.7c1.3,0,2.4,1.1,2.4,3.2c0,1.8-0.6,3-1.3,3.7c-0.5,0.5-1.2,0.9-1.8,1
				c-0.4,0.1-0.8,0.1-1.1,0.1V132.9z M195.3,128c0,1.2,0.7,1.9,1.8,1.9c0.8,0,1.5-0.4,1.9-1c0-0.1,0.1-0.2,0.1-0.3
				c0-1.6-0.6-2.8-1.9-2.8C196.1,125.8,195.3,126.8,195.3,128z"/>
			<path class="st9" d="M203.9,133.3V131h-3.7v-0.4l3.8-5.1h0.5v5h1.2v0.5h-1.2v2.3H203.9z M203.9,130.5v-3.2c0-0.4,0-0.7,0-1.1l0,0
				c-0.2,0.4-0.4,0.7-0.6,1l-2.4,3.2v0H203.9z"/>
			<path class="st9" d="M211.2,125.5v0.4l-3.5,7.4h-0.6l3.5-7.3v0h-4v-0.5H211.2z"/>
			<path class="st9" d="M182.4,149.2h-2.9l-0.4,2.5c0.2,0,0.4,0,0.7,0c0.5,0,1,0.1,1.5,0.3c0.6,0.3,1.2,1,1.2,2
				c0,1.6-1.2,2.6-2.6,2.6c-0.8,0-1.5-0.3-1.8-0.5l0.2-0.5c0.3,0.2,0.9,0.5,1.6,0.5c1.1,0,2-0.8,2-2c0-1.1-0.7-2-2.3-2
				c-0.5,0-0.8,0-1.1,0.1l0.5-3.5h3.4V149.2z"/>
			<path class="st9" d="M185.4,152.3c-0.9-0.4-1.3-1.1-1.3-1.8c0-1.2,1-2,2.2-2c1.3,0,2.1,0.9,2.1,1.9c0,0.6-0.3,1.4-1.4,1.9v0
				c1.1,0.4,1.7,1.2,1.7,2.1c0,1.3-1.2,2.2-2.4,2.2c-1.4,0-2.4-0.9-2.4-2.1C183.8,153.5,184.4,152.8,185.4,152.3L185.4,152.3z
				 M188.1,154.5c0-1.1-0.7-1.6-2-2c-1.1,0.3-1.7,1-1.7,1.9c0,0.9,0.6,1.7,1.8,1.7C187.4,156.1,188.1,155.4,188.1,154.5z
				 M184.7,150.5c0,0.9,0.7,1.4,1.7,1.7c0.8-0.3,1.4-0.8,1.4-1.7c0-0.7-0.4-1.5-1.5-1.5C185.3,149,184.7,149.7,184.7,150.5z"/>
			<path class="st9" d="M193,156.5v-2.3h-3.7v-0.4l3.8-5.1h0.5v5h1.2v0.5h-1.2v2.3H193z M193,153.7v-3.2c0-0.4,0-0.7,0-1.1l0,0
				c-0.2,0.4-0.4,0.7-0.6,1l-2.4,3.2v0H193z"/>
			<path class="st9" d="M195.4,158c0.2-0.5,0.5-1.8,0.6-2.5l0.8-0.1c-0.2,0.9-0.7,2.3-0.9,2.6L195.4,158z"/>
			<path class="st9" d="M202.5,152.5c0,2.8-1,4.1-2.6,4.1c-1.2,0-2.3-1.2-2.4-4c0-2.8,1.2-4.1,2.6-4.1
				C201.5,148.5,202.5,149.8,202.5,152.5z M198.2,152.6c0,2.2,0.7,3.5,1.9,3.5c1.3,0,1.9-1.5,1.9-3.6c0-2-0.6-3.5-1.9-3.5
				C199,149,198.2,150.3,198.2,152.6z"/>
			<path class="st9" d="M203.5,156.5v-0.4l0.7-0.7c2.2-2.1,3.1-3.2,3.1-4.6c0-0.9-0.4-1.8-1.7-1.8c-0.7,0-1.3,0.4-1.7,0.7l-0.2-0.4
				c0.5-0.5,1.2-0.8,2-0.8c1.6,0,2.2,1.2,2.2,2.1c0,1.5-1.1,2.8-3.1,4.7l-0.6,0.6v0h3.8v0.5H203.5z"/>
			<path class="st9" d="M214.2,152.5c0,2.8-1,4.1-2.6,4.1c-1.2,0-2.3-1.2-2.4-4c0-2.8,1.2-4.1,2.6-4.1
				C213.2,148.5,214.2,149.8,214.2,152.5z M209.9,152.6c0,2.2,0.7,3.5,1.9,3.5c1.3,0,1.9-1.5,1.9-3.6c0-2-0.6-3.5-1.9-3.5
				C210.7,149,209.9,150.3,209.9,152.6z"/>
			<path class="st9" d="M182.4,172.4h-2.9l-0.4,2.5c0.2,0,0.4,0,0.7,0c0.5,0,1,0.1,1.5,0.3c0.6,0.3,1.2,1,1.2,2
				c0,1.6-1.2,2.6-2.6,2.6c-0.8,0-1.5-0.3-1.8-0.5l0.2-0.5c0.3,0.2,0.9,0.5,1.6,0.5c1.1,0,2-0.8,2-2c0-1.1-0.7-2-2.3-2
				c-0.5,0-0.8,0-1.1,0.1l0.5-3.5h3.4V172.4z"/>
			<path class="st9" d="M188,172.3c-0.2,0-0.5,0-0.9,0.1c-1.7,0.3-2.6,1.8-2.8,3.3h0c0.4-0.6,1.1-1.1,2-1.1c1.4,0,2.3,1.1,2.3,2.5
				c0,1.4-0.8,2.7-2.4,2.7c-1.4,0-2.5-1.1-2.5-3.3c0-1.6,0.6-2.8,1.3-3.5c0.6-0.6,1.3-1,2.2-1.2c0.3-0.1,0.6-0.1,0.8-0.1V172.3z
				 M188.2,177.1c0-1.4-0.8-2.1-1.9-2.1c-0.7,0-1.4,0.4-1.8,1.1c-0.1,0.1-0.1,0.3-0.1,0.5c0,1.6,0.7,2.7,2,2.7
				C187.4,179.3,188.2,178.5,188.2,177.1z"/>
			<path class="st9" d="M194.1,172.4h-2.9l-0.4,2.5c0.2,0,0.4,0,0.7,0c0.5,0,1,0.1,1.5,0.3c0.6,0.3,1.2,1,1.2,2
				c0,1.6-1.2,2.6-2.6,2.6c-0.8,0-1.5-0.3-1.8-0.5l0.2-0.5c0.3,0.2,0.9,0.5,1.6,0.5c1.1,0,2-0.8,2-2c0-1.1-0.7-2-2.3-2
				c-0.5,0-0.8,0-1.1,0.1l0.5-3.5h3.4V172.4z"/>
			<path class="st9" d="M195.4,181.2c0.2-0.5,0.5-1.8,0.6-2.5l0.8-0.1c-0.2,0.9-0.7,2.3-0.9,2.6L195.4,181.2z"/>
			<path class="st9" d="M202.5,175.7c0,2.8-1,4.1-2.6,4.1c-1.2,0-2.3-1.2-2.4-4c0-2.8,1.2-4.1,2.6-4.1
				C201.5,171.7,202.5,173,202.5,175.7z M198.2,175.8c0,2.2,0.7,3.5,1.9,3.5c1.3,0,1.9-1.5,1.9-3.6c0-2-0.6-3.5-1.9-3.5
				C199,172.2,198.2,173.5,198.2,175.8z"/>
			<path class="st9" d="M208.4,175.7c0,2.8-1,4.1-2.6,4.1c-1.2,0-2.3-1.2-2.4-4c0-2.8,1.2-4.1,2.6-4.1
				C207.4,171.7,208.4,173,208.4,175.7z M204,175.8c0,2.2,0.7,3.5,1.9,3.5c1.3,0,1.9-1.5,1.9-3.6c0-2-0.6-3.5-1.9-3.5
				C204.8,172.2,204,173.5,204,175.8z"/>
			<path class="st9" d="M213.5,172.3c-0.2,0-0.5,0-0.9,0.1c-1.7,0.3-2.6,1.8-2.8,3.3h0c0.4-0.6,1.1-1.1,2-1.1c1.4,0,2.3,1.1,2.3,2.5
				c0,1.4-0.8,2.7-2.4,2.7c-1.4,0-2.5-1.1-2.5-3.3c0-1.6,0.6-2.8,1.3-3.5c0.6-0.6,1.3-1,2.2-1.2c0.3-0.1,0.6-0.1,0.8-0.1V172.3z
				 M213.7,177.1c0-1.4-0.8-2.1-1.9-2.1c-0.7,0-1.4,0.4-1.8,1.1c-0.1,0.1-0.1,0.3-0.1,0.5c0,1.6,0.7,2.7,2,2.7
				C212.9,179.3,213.7,178.5,213.7,177.1z"/>
			<path class="st9" d="M178.2,195.5c-0.2,0-0.5,0-0.9,0.1c-1.7,0.3-2.6,1.8-2.8,3.3h0c0.4-0.6,1.1-1.1,2-1.1c1.4,0,2.3,1.1,2.3,2.5
				c0,1.4-0.8,2.7-2.4,2.7c-1.4,0-2.5-1.1-2.5-3.3c0-1.6,0.6-2.8,1.3-3.5c0.6-0.6,1.3-1,2.2-1.2c0.3-0.1,0.6-0.1,0.8-0.1V195.5z
				 M178.3,200.3c0-1.4-0.8-2.1-1.9-2.1c-0.7,0-1.4,0.4-1.8,1.1c-0.1,0.1-0.1,0.3-0.1,0.5c0,1.6,0.7,2.7,2,2.7
				C177.6,202.5,178.3,201.7,178.3,200.3z"/>
			<path class="st9" d="M179.7,204.4c0.2-0.5,0.5-1.8,0.6-2.5l0.8-0.1c-0.2,0.9-0.7,2.3-0.9,2.6L179.7,204.4z"/>
			<path class="st9" d="M186.8,198.9c0,2.8-1,4.1-2.6,4.1c-1.2,0-2.3-1.2-2.4-4c0-2.8,1.2-4.1,2.6-4.1
				C185.8,194.9,186.8,196.2,186.8,198.9z M182.5,199c0,2.2,0.7,3.5,1.9,3.5c1.3,0,1.9-1.5,1.9-3.6c0-2-0.6-3.5-1.9-3.5
				C183.3,195.4,182.5,196.7,182.5,199z"/>
			<path class="st9" d="M188.1,202c0.3,0.2,0.9,0.5,1.7,0.5c1.6,0,2-1.1,2-1.8c0-1.3-1.1-1.8-2.3-1.8h-0.5v-0.5h0.5
				c0.9,0,2-0.5,2-1.6c0-0.7-0.4-1.4-1.5-1.4c-0.6,0-1.2,0.3-1.5,0.5l-0.2-0.4c0.4-0.3,1.1-0.6,1.8-0.6c1.5,0,2,0.9,2,1.8
				c0,0.8-0.5,1.5-1.5,1.8v0c1,0.2,1.8,0.9,1.8,2.1c0,1.2-0.8,2.3-2.6,2.3c-0.8,0-1.5-0.3-1.8-0.5L188.1,202z"/>
			<path class="st9" d="M195.3,198.7c-0.9-0.4-1.3-1.1-1.3-1.8c0-1.2,1-2,2.2-2c1.3,0,2.1,0.9,2.1,1.9c0,0.6-0.3,1.4-1.4,1.9v0
				c1.1,0.4,1.7,1.2,1.7,2.1c0,1.3-1.2,2.2-2.4,2.2c-1.4,0-2.4-0.9-2.4-2.1C193.7,199.9,194.3,199.2,195.3,198.7L195.3,198.7z
				 M197.9,200.9c0-1.1-0.7-1.6-2-2c-1.1,0.3-1.7,1-1.7,1.9c0,0.9,0.6,1.7,1.8,1.7C197.2,202.5,197.9,201.8,197.9,200.9z
				 M194.5,196.9c0,0.9,0.7,1.4,1.7,1.7c0.8-0.3,1.4-0.8,1.4-1.7c0-0.7-0.4-1.5-1.5-1.5C195.1,195.4,194.5,196.1,194.5,196.9z"/>
			<path class="st9" d="M199.3,204.4c0.2-0.5,0.5-1.8,0.6-2.5l0.8-0.1c-0.2,0.9-0.7,2.3-0.9,2.6L199.3,204.4z"/>
			<path class="st9" d="M206.5,198.9c0,2.8-1,4.1-2.6,4.1c-1.2,0-2.3-1.2-2.4-4c0-2.8,1.2-4.1,2.6-4.1
				C205.5,194.9,206.5,196.2,206.5,198.9z M202.2,199c0,2.2,0.7,3.5,1.9,3.5c1.3,0,1.9-1.5,1.9-3.6c0-2-0.6-3.5-1.9-3.5
				C203,195.4,202.2,196.7,202.2,199z"/>
			<path class="st9" d="M207.7,202c0.3,0.2,0.9,0.5,1.7,0.5c1.6,0,2-1.1,2-1.8c0-1.3-1.1-1.8-2.3-1.8h-0.5v-0.5h0.5
				c0.9,0,2-0.5,2-1.6c0-0.7-0.4-1.4-1.5-1.4c-0.6,0-1.2,0.3-1.5,0.5l-0.2-0.4c0.4-0.3,1.1-0.6,1.8-0.6c1.5,0,2,0.9,2,1.8
				c0,0.8-0.5,1.5-1.5,1.8v0c1,0.2,1.8,0.9,1.8,2.1c0,1.2-0.8,2.3-2.6,2.3c-0.8,0-1.5-0.3-1.8-0.5L207.7,202z"/>
			<path class="st9" d="M215.7,195.7L215.7,195.7l-1.3,0.7l-0.1-0.5l1.5-0.9h0.5v7.8h-0.6V195.7z"/>
		</g>
	</g>
	<g>
		<g>
			<path class="st9" d="M253.1,31.9v3.6h4.5v-3.6h0.6V40h-0.6v-4h-4.5v4h-0.6v-8.1H253.1z"/>
			<path class="st9" d="M265,37.1c0,2.1-1.5,3.1-2.8,3.1c-1.5,0-2.6-1.2-2.6-3c0-2,1.3-3.1,2.7-3.1C263.9,34.1,265,35.3,265,37.1z
				 M260.2,37.2c0,1.4,0.9,2.5,2.1,2.5c1.2,0,2.1-1.1,2.1-2.6c0-1.1-0.6-2.5-2.1-2.5C260.9,34.6,260.2,35.9,260.2,37.2z"/>
			<path class="st9" d="M270.9,38.6c0,0.5,0,1,0,1.4h-0.5l0-1h0c-0.3,0.5-0.9,1.2-2,1.2c-0.7,0-2-0.4-2-2.5v-3.3h0.6v3.2
				c0,1.2,0.4,2.1,1.5,2.1c0.8,0,1.5-0.6,1.7-1.2c0.1-0.2,0.1-0.4,0.1-0.6v-3.6h0.6V38.6z"/>
			<path class="st9" d="M272.9,36c0-0.6,0-1.2,0-1.7h0.5l0,1.2h0c0.3-0.7,0.9-1.3,1.6-1.3c0.1,0,0.2,0,0.2,0v0.6c-0.1,0-0.2,0-0.3,0
				c-0.8,0-1.4,0.7-1.5,1.6c0,0.2,0,0.4,0,0.6V40h-0.6V36z"/>
			<path class="st9" d="M276.2,39.3c0.3,0.2,0.8,0.4,1.3,0.4c0.9,0,1.3-0.5,1.3-1.1c0-0.6-0.4-1-1.2-1.3c-0.9-0.4-1.5-0.9-1.5-1.6
				c0-0.8,0.7-1.6,1.8-1.6c0.5,0,1,0.2,1.3,0.4L279,35c-0.2-0.1-0.6-0.3-1.2-0.3c-0.7,0-1.1,0.5-1.1,1c0,0.6,0.4,0.9,1.2,1.2
				c0.9,0.4,1.5,0.8,1.5,1.7c0,1-0.8,1.6-1.9,1.6c-0.6,0-1.1-0.2-1.5-0.4L276.2,39.3z"/>
			<path class="st9" d="M283.5,36.1c0-0.7,0-1.3,0-1.8h0.6l0,1.1h0c0.4-0.8,1.1-1.2,2.1-1.2c1.5,0,2.5,1.2,2.5,2.9
				c0,2.1-1.2,3.1-2.6,3.1c-0.8,0-1.6-0.4-2-1.1h0v3.3h-0.6V36.1z M284.1,37.8c0,0.2,0,0.3,0,0.5c0.2,0.9,1,1.5,1.9,1.5
				c1.3,0,2.1-1.1,2.1-2.6c0-1.3-0.7-2.5-2-2.5c-0.8,0-1.7,0.6-1.9,1.5c0,0.2-0.1,0.3-0.1,0.5V37.8z"/>
			<path class="st9" d="M290.2,37.1c0,1.8,1,2.6,2.2,2.6c0.8,0,1.3-0.2,1.6-0.3l0.1,0.4c-0.2,0.1-0.8,0.4-1.8,0.4
				c-1.7,0-2.7-1.2-2.7-2.9c0-1.9,1.1-3.1,2.6-3.1c1.9,0,2.2,1.8,2.2,2.6c0,0.2,0,0.2,0,0.3H290.2z M293.9,36.6c0-0.8-0.3-2-1.7-2
				c-1.3,0-1.8,1.1-1.9,2H293.9z"/>
			<path class="st9" d="M295.9,36c0-0.6,0-1.2,0-1.7h0.5l0,1.2h0c0.3-0.7,0.9-1.3,1.6-1.3c0.1,0,0.2,0,0.2,0v0.6c-0.1,0-0.2,0-0.3,0
				c-0.8,0-1.4,0.7-1.5,1.6c0,0.2,0,0.4,0,0.6V40h-0.6V36z"/>
			<path class="st9" d="M305.7,38.7c0,0.5,0,0.9,0.1,1.4h-0.5l-0.1-0.8h0c-0.3,0.4-0.9,1-1.8,1c-1.2,0-1.7-0.8-1.7-1.6
				c0-1.3,1.2-2.1,3.5-2.1v-0.2c0-0.6-0.1-1.7-1.5-1.7c-0.5,0-1,0.1-1.5,0.4l-0.2-0.4c0.5-0.3,1.2-0.5,1.7-0.5c1.7,0,2,1.2,2,2.3
				V38.7z M305.1,36.9c-1.3,0-2.9,0.2-2.9,1.5c0,0.8,0.6,1.2,1.2,1.2c1,0,1.5-0.6,1.7-1.2c0-0.1,0.1-0.3,0.1-0.3V36.9z"/>
			<path class="st9" d="M307.3,39.3c0.3,0.2,0.8,0.4,1.3,0.4c0.9,0,1.3-0.5,1.3-1.1c0-0.6-0.4-1-1.2-1.3c-0.9-0.4-1.5-0.9-1.5-1.6
				c0-0.8,0.7-1.6,1.8-1.6c0.5,0,1,0.2,1.3,0.4l-0.2,0.5c-0.2-0.1-0.6-0.3-1.2-0.3c-0.7,0-1.1,0.5-1.1,1c0,0.6,0.4,0.9,1.2,1.2
				c0.9,0.4,1.5,0.8,1.5,1.7c0,1-0.8,1.6-1.9,1.6c-0.6,0-1.1-0.2-1.5-0.4L307.3,39.3z"/>
			<path class="st9" d="M311.8,39.3c0.3,0.2,0.8,0.4,1.3,0.4c0.9,0,1.3-0.5,1.3-1.1c0-0.6-0.4-1-1.2-1.3c-0.9-0.4-1.5-0.9-1.5-1.6
				c0-0.8,0.7-1.6,1.8-1.6c0.5,0,1,0.2,1.3,0.4l-0.2,0.5c-0.2-0.1-0.6-0.3-1.2-0.3c-0.7,0-1.1,0.5-1.1,1c0,0.6,0.4,0.9,1.2,1.2
				c0.9,0.4,1.5,0.8,1.5,1.7c0,1-0.8,1.6-1.9,1.6c-0.6,0-1.1-0.2-1.5-0.4L311.8,39.3z"/>
			<path class="st9" d="M321.4,37.1c0,2.1-1.5,3.1-2.8,3.1c-1.5,0-2.6-1.2-2.6-3c0-2,1.3-3.1,2.7-3.1
				C320.4,34.1,321.4,35.3,321.4,37.1z M316.6,37.2c0,1.4,0.9,2.5,2.1,2.5c1.2,0,2.1-1.1,2.1-2.6c0-1.1-0.6-2.5-2.1-2.5
				C317.3,34.6,316.6,35.9,316.6,37.2z"/>
			<path class="st9" d="M326.9,39.8c-0.3,0.1-0.9,0.4-1.7,0.4c-1.7,0-2.8-1.2-2.8-2.9c0-1.8,1.2-3.1,3-3.1c0.7,0,1.3,0.2,1.5,0.4
				l-0.2,0.5c-0.3-0.2-0.7-0.3-1.4-0.3c-1.5,0-2.3,1.2-2.3,2.5c0,1.5,0.9,2.5,2.3,2.5c0.7,0,1.1-0.2,1.4-0.3L326.9,39.8z"/>
			<path class="st9" d="M329,32.6c0,0.3-0.2,0.5-0.5,0.5c-0.3,0-0.4-0.2-0.4-0.5s0.2-0.5,0.5-0.5C328.8,32.1,329,32.4,329,32.6z
				 M328.3,40v-5.8h0.6V40H328.3z"/>
			<path class="st9" d="M334.3,38.7c0,0.5,0,0.9,0.1,1.4h-0.5l-0.1-0.8h0c-0.3,0.4-0.9,1-1.8,1c-1.2,0-1.7-0.8-1.7-1.6
				c0-1.3,1.2-2.1,3.5-2.1v-0.2c0-0.6-0.1-1.7-1.5-1.7c-0.5,0-1,0.1-1.5,0.4l-0.2-0.4c0.5-0.3,1.2-0.5,1.7-0.5c1.7,0,2,1.2,2,2.3
				V38.7z M333.8,36.9c-1.3,0-2.9,0.2-2.9,1.5c0,0.8,0.6,1.2,1.2,1.2c1,0,1.5-0.6,1.7-1.2c0-0.1,0.1-0.3,0.1-0.3V36.9z"/>
			<path class="st9" d="M337,33v1.3h1.6v0.5H337v3.7c0,0.7,0.2,1.2,0.8,1.2c0.3,0,0.5,0,0.7-0.1l0.1,0.4c-0.2,0.1-0.5,0.1-0.8,0.1
				c-0.4,0-0.8-0.1-1-0.4c-0.3-0.3-0.4-0.8-0.4-1.4v-3.6h-1v-0.5h1v-1.1L337,33z"/>
			<path class="st9" d="M339.9,37.1c0,1.8,1,2.6,2.2,2.6c0.8,0,1.3-0.2,1.6-0.3l0.1,0.4c-0.2,0.1-0.8,0.4-1.8,0.4
				c-1.7,0-2.7-1.2-2.7-2.9c0-1.9,1.1-3.1,2.6-3.1c1.9,0,2.2,1.8,2.2,2.6c0,0.2,0,0.2,0,0.3H339.9z M343.6,36.6c0-0.8-0.3-2-1.7-2
				c-1.3,0-1.8,1.1-1.9,2H343.6z"/>
			<path class="st9" d="M293.3,59.1c-0.9-0.4-1.3-1.1-1.3-1.8c0-1.2,1-2,2.2-2c1.3,0,2.1,0.9,2.1,1.9c0,0.6-0.3,1.4-1.4,1.9v0
				c1.1,0.4,1.7,1.2,1.7,2.1c0,1.3-1.2,2.2-2.4,2.2c-1.4,0-2.4-0.9-2.4-2.1C291.7,60.3,292.3,59.6,293.3,59.1L293.3,59.1z M296,61.2
				c0-1.1-0.7-1.6-2-2c-1.1,0.3-1.7,1-1.7,1.9c0,0.9,0.6,1.7,1.8,1.7C295.3,62.9,296,62.2,296,61.2z M292.6,57.2
				c0,0.9,0.7,1.4,1.7,1.7c0.8-0.3,1.4-0.8,1.4-1.7c0-0.7-0.4-1.5-1.5-1.5C293.2,55.8,292.6,56.4,292.6,57.2z"/>
			<path class="st9" d="M297.7,62.8c0-0.3,0.2-0.5,0.5-0.5c0.3,0,0.5,0.2,0.5,0.5c0,0.3-0.2,0.5-0.5,0.5
				C297.9,63.4,297.7,63.1,297.7,62.8z"/>
			<path class="st9" d="M300.4,62.8c0.2,0,0.5,0,0.9-0.1c0.6-0.1,1.2-0.4,1.7-0.9c0.5-0.6,0.9-1.3,1.1-2.5l0,0c-0.5,0.6-1.2,1-2,1
				c-1.5,0-2.2-1.1-2.2-2.4c0-1.4,1-2.7,2.5-2.7c1.3,0,2.4,1.1,2.4,3.3c0,1.8-0.6,3-1.3,3.7c-0.5,0.5-1.2,0.9-1.8,1
				c-0.4,0.1-0.8,0.1-1.1,0.1V62.8z M300.3,58c0,1.2,0.7,1.9,1.8,1.9c0.8,0,1.5-0.4,1.9-1c0-0.1,0.1-0.2,0.1-0.3
				c0-1.6-0.6-2.8-1.9-2.8C301.1,55.8,300.3,56.7,300.3,58z"/>
			<path class="st9" d="M291.1,79.2L291.1,79.2l-1.3,0.7l-0.1-0.5l1.5-0.9h0.5v7.8h-0.6V79.2z"/>
			<path class="st9" d="M299.5,78.6v0.4l-3.5,7.4h-0.6l3.5-7.3v0h-4v-0.5H299.5z"/>
			<path class="st9" d="M300.7,86c0-0.3,0.2-0.5,0.5-0.5c0.3,0,0.5,0.2,0.5,0.5c0,0.3-0.2,0.5-0.5,0.5
				C300.9,86.6,300.7,86.3,300.7,86z"/>
			<path class="st9" d="M307,79.1H304l-0.4,2.5c0.2,0,0.4,0,0.7,0c0.5,0,1,0.1,1.5,0.3c0.6,0.3,1.2,1,1.2,2c0,1.6-1.2,2.6-2.6,2.6
				c-0.8,0-1.5-0.3-1.8-0.5l0.2-0.5c0.3,0.2,0.9,0.5,1.6,0.5c1.1,0,2-0.8,2-2c0-1.1-0.7-2-2.3-2c-0.5,0-0.8,0-1.1,0.1l0.5-3.5h3.4
				V79.1z"/>
			<path class="st9" d="M288.9,109.6v-0.4l0.7-0.7c2.2-2.1,3.1-3.2,3.1-4.6c0-0.9-0.4-1.8-1.7-1.8c-0.7,0-1.3,0.4-1.7,0.7l-0.2-0.4
				c0.5-0.5,1.2-0.8,2-0.8c1.6,0,2.2,1.2,2.2,2.1c0,1.5-1.1,2.8-3.1,4.7l-0.6,0.6v0h3.8v0.5H288.9z"/>
			<path class="st9" d="M297,102.4L297,102.4l-1.3,0.7l-0.1-0.5l1.5-0.9h0.5v7.8H297V102.4z"/>
			<path class="st9" d="M300.7,109.2c0-0.3,0.2-0.5,0.5-0.5c0.3,0,0.5,0.2,0.5,0.5c0,0.3-0.2,0.5-0.5,0.5
				C300.9,109.8,300.7,109.5,300.7,109.2z"/>
			<path class="st9" d="M304.9,102.4L304.9,102.4l-1.3,0.7l-0.1-0.5l1.5-0.9h0.5v7.8h-0.6V102.4z"/>
			<path class="st9" d="M288.9,132.8v-0.4l0.7-0.7c2.2-2.1,3.1-3.2,3.1-4.6c0-0.9-0.4-1.8-1.7-1.8c-0.7,0-1.3,0.4-1.7,0.7l-0.2-0.4
				c0.5-0.5,1.2-0.8,2-0.8c1.6,0,2.2,1.2,2.2,2.1c0,1.5-1.1,2.8-3.1,4.7l-0.6,0.6v0h3.8v0.5H288.9z"/>
			<path class="st9" d="M299.5,125v0.4l-3.5,7.4h-0.6l3.5-7.3v0h-4V125H299.5z"/>
			<path class="st9" d="M300.7,132.4c0-0.3,0.2-0.5,0.5-0.5c0.3,0,0.5,0.2,0.5,0.5c0,0.3-0.2,0.5-0.5,0.5
				C300.9,133,300.7,132.7,300.7,132.4z"/>
			<path class="st9" d="M303.3,132.4c0.2,0,0.5,0,0.9-0.1c0.6-0.1,1.2-0.4,1.7-0.9c0.5-0.6,0.9-1.3,1.1-2.5l0,0c-0.5,0.6-1.2,1-2,1
				c-1.5,0-2.2-1.1-2.2-2.4c0-1.4,1-2.7,2.5-2.7c1.3,0,2.4,1.1,2.4,3.3c0,1.8-0.6,3-1.3,3.7c-0.5,0.5-1.2,0.9-1.8,1
				c-0.4,0.1-0.8,0.1-1.1,0.1V132.4z M303.2,127.6c0,1.2,0.7,1.9,1.8,1.9c0.8,0,1.5-0.4,1.9-1c0-0.1,0.1-0.2,0.1-0.3
				c0-1.6-0.6-2.8-1.9-2.8C304,125.4,303.2,126.3,303.2,127.6z"/>
			<path class="st9" d="M293.2,148.7h-2.9l-0.4,2.5c0.2,0,0.4,0,0.7,0c0.5,0,1,0.1,1.5,0.3c0.6,0.3,1.2,1,1.2,2
				c0,1.6-1.2,2.6-2.6,2.6c-0.8,0-1.5-0.3-1.8-0.5l0.2-0.5c0.3,0.2,0.9,0.5,1.6,0.5c1.1,0,2-0.8,2-2c0-1.1-0.7-2-2.3-2
				c-0.5,0-0.8,0-1.1,0.1l0.5-3.5h3.4V148.7z"/>
			<path class="st9" d="M298.9,148.6c-0.2,0-0.5,0-0.9,0.1c-1.7,0.3-2.6,1.8-2.8,3.3h0c0.4-0.6,1.1-1.1,2-1.1c1.4,0,2.3,1.1,2.3,2.5
				c0,1.4-0.8,2.7-2.4,2.7c-1.4,0-2.5-1.1-2.5-3.3c0-1.6,0.6-2.8,1.3-3.5c0.6-0.6,1.3-1,2.2-1.2c0.3-0.1,0.6-0.1,0.8-0.1V148.6z
				 M299,153.5c0-1.4-0.8-2.1-1.9-2.1c-0.7,0-1.4,0.4-1.8,1.1c-0.1,0.1-0.1,0.3-0.1,0.5c0,1.6,0.7,2.7,2,2.7
				C298.2,155.7,299,154.8,299,153.5z"/>
			<path class="st9" d="M300.7,155.6c0-0.3,0.2-0.5,0.5-0.5c0.3,0,0.5,0.2,0.5,0.5c0,0.3-0.2,0.5-0.5,0.5
				C300.9,156.2,300.7,155.9,300.7,155.6z"/>
			<path class="st9" d="M305.9,156v-2.3h-3.7v-0.4l3.8-5.1h0.5v5h1.2v0.5h-1.2v2.3H305.9z M305.9,153.3v-3.2c0-0.4,0-0.7,0-1.1l0,0
				c-0.2,0.4-0.4,0.7-0.6,1l-2.4,3.2v0H305.9z"/>
			<path class="st9" d="M288.9,179.2v-0.4l0.7-0.7c2.2-2.1,3.1-3.2,3.1-4.6c0-0.9-0.4-1.8-1.7-1.8c-0.7,0-1.3,0.4-1.7,0.7l-0.2-0.4
				c0.5-0.5,1.2-0.8,2-0.8c1.6,0,2.2,1.2,2.2,2.1c0,1.5-1.1,2.8-3.1,4.7l-0.6,0.6v0h3.8v0.5H288.9z"/>
			<path class="st9" d="M294.7,179.2v-0.4l0.7-0.7c2.2-2.1,3.1-3.2,3.1-4.6c0-0.9-0.4-1.8-1.7-1.8c-0.7,0-1.3,0.4-1.7,0.7l-0.2-0.4
				c0.5-0.5,1.2-0.8,2-0.8c1.6,0,2.2,1.2,2.2,2.1c0,1.5-1.1,2.8-3.1,4.7l-0.6,0.6v0h3.8v0.5H294.7z"/>
			<path class="st9" d="M300.7,178.8c0-0.3,0.2-0.5,0.5-0.5c0.3,0,0.5,0.2,0.5,0.5c0,0.3-0.2,0.5-0.5,0.5
				C300.9,179.4,300.7,179.1,300.7,178.8z"/>
			<path class="st9" d="M307.5,175.2c0,2.8-1,4.1-2.6,4.1c-1.2,0-2.3-1.2-2.4-4c0-2.8,1.2-4.1,2.6-4.1
				C306.5,171.3,307.5,172.5,307.5,175.2z M303.1,175.4c0,2.2,0.7,3.5,1.9,3.5c1.3,0,1.9-1.5,1.9-3.6c0-2-0.6-3.5-1.9-3.5
				C304,171.8,303.1,173.1,303.1,175.4z"/>
			<path class="st9" d="M288.9,202.4v-0.4l0.7-0.7c2.2-2.1,3.1-3.2,3.1-4.6c0-0.9-0.4-1.8-1.7-1.8c-0.7,0-1.3,0.4-1.7,0.7l-0.2-0.4
				c0.5-0.5,1.2-0.8,2-0.8c1.6,0,2.2,1.2,2.2,2.1c0,1.5-1.1,2.8-3.1,4.7l-0.6,0.6v0h3.8v0.5H288.9z"/>
			<path class="st9" d="M299.5,194.6v0.4l-3.5,7.4h-0.6l3.5-7.3v0h-4v-0.5H299.5z"/>
			<path class="st9" d="M300.7,202c0-0.3,0.2-0.5,0.5-0.5c0.3,0,0.5,0.2,0.5,0.5c0,0.3-0.2,0.5-0.5,0.5
				C300.9,202.6,300.7,202.3,300.7,202z"/>
			<path class="st9" d="M304.9,195.2L304.9,195.2l-1.3,0.7l-0.1-0.5l1.5-0.9h0.5v7.8h-0.6V195.2z"/>
		</g>
	</g>
	<g>
		<g>
			<path class="st9" d="M383.7,36.6c-0.1-1.2-0.2-2.7-0.2-3.6h0c-0.3,0.9-0.6,1.8-1.1,3l-1.7,4.4h-0.4l-1.6-4.3
				c-0.5-1.3-0.8-2.2-1-3.1h0c0,0.9-0.1,2.4-0.2,3.7l-0.3,3.7h-0.6l0.6-8.1h0.7l1.7,4.7c0.4,1,0.7,1.8,0.9,2.6h0
				c0.2-0.7,0.5-1.5,0.9-2.6l1.8-4.7h0.7l0.5,8.1H384L383.7,36.6z"/>
			<path class="st9" d="M389.9,39.1c0,0.5,0,0.9,0.1,1.4h-0.5l-0.1-0.8h0c-0.3,0.4-0.9,1-1.8,1c-1.2,0-1.7-0.8-1.7-1.6
				c0-1.3,1.2-2.1,3.5-2.1v-0.2c0-0.6-0.1-1.7-1.5-1.7c-0.5,0-1,0.1-1.5,0.4l-0.2-0.4c0.5-0.3,1.2-0.5,1.7-0.5c1.7,0,2,1.2,2,2.3
				V39.1z M389.3,37.4c-1.3,0-2.9,0.2-2.9,1.5c0,0.8,0.6,1.2,1.2,1.2c1,0,1.5-0.6,1.7-1.2c0-0.1,0.1-0.3,0.1-0.3V37.4z"/>
			<path class="st9" d="M391.8,36.1c0-0.5,0-0.9,0-1.4h0.5l0,1h0c0.3-0.6,1-1.2,2-1.2c0.6,0,2,0.3,2,2.4v3.5h-0.6v-3.4
				c0-1-0.4-2-1.6-2c-0.8,0-1.5,0.6-1.7,1.3c0,0.1-0.1,0.3-0.1,0.5v3.6h-0.6V36.1z"/>
			<path class="st9" d="M400.8,31.9h0.6v3.8h0c0.2-0.3,0.4-0.6,0.8-0.8c0.3-0.2,0.7-0.3,1.2-0.3c0.5,0,2,0.3,2,2.4v3.5h-0.6v-3.4
				c0-1-0.4-2-1.6-2c-0.8,0-1.5,0.6-1.7,1.3c-0.1,0.2-0.1,0.3-0.1,0.6v3.5h-0.6V31.9z"/>
			<path class="st9" d="M412.2,37.5c0,2.1-1.5,3.1-2.8,3.1c-1.5,0-2.6-1.2-2.6-3c0-2,1.3-3.1,2.7-3.1
				C411.1,34.6,412.2,35.8,412.2,37.5z M407.4,37.6c0,1.4,0.9,2.5,2.1,2.5c1.2,0,2.1-1.1,2.1-2.6c0-1.1-0.6-2.5-2.1-2.5
				C408,35.1,407.4,36.4,407.4,37.6z"/>
			<path class="st9" d="M418.1,39.1c0,0.5,0,1,0,1.4h-0.5l0-1h0c-0.3,0.5-0.9,1.2-2,1.2c-0.7,0-2-0.4-2-2.5v-3.3h0.6v3.2
				c0,1.2,0.4,2.1,1.5,2.1c0.8,0,1.5-0.6,1.7-1.2c0.1-0.2,0.1-0.4,0.1-0.6v-3.6h0.6V39.1z"/>
			<path class="st9" d="M420,36.4c0-0.6,0-1.2,0-1.7h0.5l0,1.2h0c0.3-0.7,0.9-1.3,1.6-1.3c0.1,0,0.2,0,0.2,0v0.6c-0.1,0-0.2,0-0.3,0
				c-0.8,0-1.4,0.7-1.5,1.6c0,0.2,0,0.4,0,0.6v3.2H420V36.4z"/>
			<path class="st9" d="M423.3,39.7c0.3,0.2,0.8,0.4,1.3,0.4c0.9,0,1.3-0.5,1.3-1.1c0-0.6-0.4-1-1.2-1.3c-0.9-0.4-1.5-0.9-1.5-1.6
				c0-0.8,0.7-1.6,1.8-1.6c0.5,0,1,0.2,1.3,0.4l-0.2,0.5c-0.2-0.1-0.6-0.3-1.2-0.3c-0.7,0-1.1,0.5-1.1,1c0,0.6,0.4,0.9,1.2,1.2
				c0.9,0.4,1.5,0.8,1.5,1.7c0,1-0.8,1.6-1.9,1.6c-0.6,0-1.1-0.2-1.5-0.4L423.3,39.7z"/>
			<path class="st9" d="M398.5,56.5L398.5,56.5l-1.3,0.7l-0.1-0.5l1.5-0.9h0.5v7.8h-0.6V56.5z"/>
			<path class="st9" d="M405.3,63.7v-2.3h-3.7V61l3.8-5.1h0.5v5h1.2v0.5h-1.2v2.3H405.3z M405.3,60.9v-3.2c0-0.4,0-0.7,0-1.1l0,0
				c-0.2,0.4-0.4,0.7-0.6,1l-2.4,3.2v0H405.3z"/>
			<path class="st9" d="M393.3,86.9v-0.4l0.7-0.7c2.2-2.1,3.1-3.2,3.1-4.6c0-0.9-0.4-1.8-1.7-1.8c-0.7,0-1.3,0.4-1.7,0.7l-0.2-0.4
				c0.5-0.5,1.2-0.8,2-0.8c1.6,0,2.2,1.2,2.2,2.1c0,1.5-1.1,2.8-3.1,4.7l-0.6,0.6v0h3.8v0.5H393.3z"/>
			<path class="st9" d="M403.9,79.1v0.4l-3.5,7.4h-0.6l3.5-7.3v0h-4v-0.5H403.9z"/>
			<path class="st9" d="M408.3,86.9v-2.3h-3.7v-0.4l3.8-5.1h0.5v5h1.2v0.5h-1.2v2.3H408.3z M408.3,84.1v-3.2c0-0.4,0-0.7,0-1.1l0,0
				c-0.2,0.4-0.4,0.7-0.6,1l-2.4,3.2v0H408.3z"/>
			<path class="st9" d="M396.6,110.1v-2.3h-3.7v-0.4l3.8-5.1h0.5v5h1.2v0.5h-1.2v2.3H396.6z M396.6,107.3v-3.2c0-0.4,0-0.7,0-1.1
				l0,0c-0.2,0.4-0.4,0.7-0.6,1l-2.4,3.2v0H396.6z"/>
			<path class="st9" d="M400.7,105.9c-0.9-0.4-1.3-1.1-1.3-1.8c0-1.2,1-2,2.2-2c1.3,0,2.1,0.9,2.1,1.9c0,0.6-0.3,1.4-1.4,1.9v0
				c1.1,0.4,1.7,1.2,1.7,2.1c0,1.3-1.2,2.2-2.4,2.2c-1.4,0-2.4-0.9-2.4-2.1C399.1,107.1,399.7,106.4,400.7,105.9L400.7,105.9z
				 M403.3,108.1c0-1.1-0.7-1.6-2-2c-1.1,0.3-1.7,1-1.7,1.9c0,0.9,0.6,1.7,1.8,1.7C402.6,109.7,403.3,109,403.3,108.1z M399.9,104.1
				c0,0.9,0.7,1.4,1.7,1.7c0.8-0.3,1.4-0.8,1.4-1.7c0-0.7-0.4-1.5-1.5-1.5C400.5,102.6,399.9,103.3,399.9,104.1z"/>
			<path class="st9" d="M409.8,106.1c0,2.8-1,4.1-2.6,4.1c-1.2,0-2.3-1.2-2.4-4c0-2.8,1.2-4.1,2.6-4.1
				C408.8,102.1,409.8,103.4,409.8,106.1z M405.5,106.2c0,2.2,0.7,3.5,1.9,3.5c1.3,0,1.9-1.5,1.9-3.6c0-2-0.6-3.5-1.9-3.5
				C406.3,102.6,405.5,103.9,405.5,106.2z"/>
			<path class="st9" d="M392.6,133.3V131h-3.7v-0.4l3.8-5.1h0.5v5h1.2v0.5h-1.2v2.3H392.6z M392.6,130.5v-3.2c0-0.4,0-0.7,0-1.1l0,0
				c-0.2,0.4-0.4,0.7-0.6,1l-2.4,3.2v0H392.6z"/>
			<path class="st9" d="M394.9,134.8c0.2-0.5,0.5-1.8,0.6-2.5l0.8-0.1c-0.2,0.9-0.7,2.3-0.9,2.6L394.9,134.8z"/>
			<path class="st9" d="M399.5,126.1L399.5,126.1l-1.3,0.7l-0.1-0.5l1.5-0.9h0.5v7.8h-0.6V126.1z"/>
			<path class="st9" d="M404.7,129.1c-0.9-0.4-1.3-1.1-1.3-1.8c0-1.2,1-2,2.2-2c1.3,0,2.1,0.9,2.1,1.9c0,0.6-0.3,1.4-1.4,1.9v0
				c1.1,0.4,1.7,1.2,1.7,2.1c0,1.3-1.2,2.2-2.4,2.2c-1.4,0-2.4-0.9-2.4-2.1C403,130.3,403.6,129.6,404.7,129.1L404.7,129.1z
				 M407.3,131.3c0-1.1-0.7-1.6-2-2c-1.1,0.3-1.7,1-1.7,1.9c0,0.9,0.6,1.7,1.8,1.7C406.6,132.9,407.3,132.2,407.3,131.3z
				 M403.9,127.3c0,0.9,0.7,1.4,1.7,1.7c0.8-0.3,1.4-0.8,1.4-1.7c0-0.7-0.4-1.5-1.5-1.5C404.5,125.8,403.9,126.5,403.9,127.3z"/>
			<path class="st9" d="M410.5,129.1c-0.9-0.4-1.3-1.1-1.3-1.8c0-1.2,1-2,2.2-2c1.3,0,2.1,0.9,2.1,1.9c0,0.6-0.3,1.4-1.4,1.9v0
				c1.1,0.4,1.7,1.2,1.7,2.1c0,1.3-1.2,2.2-2.4,2.2c-1.4,0-2.4-0.9-2.4-2.1C408.9,130.3,409.5,129.6,410.5,129.1L410.5,129.1z
				 M413.2,131.3c0-1.1-0.7-1.6-2-2c-1.1,0.3-1.7,1-1.7,1.9c0,0.9,0.6,1.7,1.8,1.7C412.5,132.9,413.2,132.2,413.2,131.3z
				 M409.8,127.3c0,0.9,0.7,1.4,1.7,1.7c0.8-0.3,1.4-0.8,1.4-1.7c0-0.7-0.4-1.5-1.5-1.5C410.3,125.8,409.8,126.5,409.8,127.3z"/>
			<path class="st9" d="M388.6,149.3L388.6,149.3l-1.3,0.7l-0.1-0.5l1.5-0.9h0.5v7.8h-0.6V149.3z"/>
			<path class="st9" d="M394.5,149.3L394.5,149.3l-1.3,0.7l-0.1-0.5l1.5-0.9h0.5v7.8h-0.6V149.3z"/>
			<path class="st9" d="M397.8,158c0.2-0.5,0.5-1.8,0.6-2.5l0.8-0.1c-0.2,0.9-0.7,2.3-0.9,2.6L397.8,158z"/>
			<path class="st9" d="M404.3,149.1c-0.2,0-0.5,0-0.9,0.1c-1.7,0.3-2.6,1.8-2.8,3.3h0c0.4-0.6,1.1-1.1,2-1.1c1.4,0,2.3,1.1,2.3,2.5
				c0,1.4-0.8,2.7-2.4,2.7c-1.4,0-2.5-1.1-2.5-3.3c0-1.6,0.6-2.8,1.3-3.5c0.6-0.6,1.3-1,2.2-1.2c0.3-0.1,0.6-0.1,0.8-0.1V149.1z
				 M404.4,153.9c0-1.4-0.8-2.1-1.9-2.1c-0.7,0-1.4,0.4-1.8,1.1c-0.1,0.1-0.1,0.3-0.1,0.5c0,1.6,0.7,2.7,2,2.7
				C403.7,156.1,404.4,155.3,404.4,153.9z"/>
			<path class="st9" d="M406.7,156.1c0.2,0,0.5,0,0.9-0.1c0.6-0.1,1.2-0.4,1.7-0.9c0.5-0.6,0.9-1.3,1.1-2.5l0,0c-0.5,0.6-1.2,1-2,1
				c-1.5,0-2.2-1.1-2.2-2.4c0-1.4,1-2.7,2.5-2.7c1.3,0,2.4,1.1,2.4,3.2c0,1.8-0.6,3-1.3,3.7c-0.5,0.5-1.2,0.9-1.8,1
				c-0.4,0.1-0.8,0.1-1.1,0.1V156.1z M406.6,151.2c0,1.2,0.7,1.9,1.8,1.9c0.8,0,1.5-0.4,1.9-1c0-0.1,0.1-0.2,0.1-0.3
				c0-1.6-0.6-2.8-1.9-2.8C407.4,149,406.6,150,406.6,151.2z"/>
			<path class="st9" d="M412.1,155.6c0.3,0.2,0.9,0.5,1.7,0.5c1.6,0,2-1.1,2-1.8c0-1.3-1.1-1.8-2.3-1.8H413V152h0.5
				c0.9,0,2-0.5,2-1.6c0-0.7-0.4-1.4-1.5-1.4c-0.6,0-1.2,0.3-1.5,0.5l-0.2-0.4c0.4-0.3,1.1-0.6,1.8-0.6c1.5,0,2,0.9,2,1.8
				c0,0.8-0.5,1.5-1.5,1.8v0c1,0.2,1.8,0.9,1.8,2.1c0,1.2-0.8,2.3-2.6,2.3c-0.8,0-1.5-0.3-1.8-0.5L412.1,155.6z"/>
			<path class="st9" d="M386.4,179.7v-0.4l0.7-0.7c2.2-2.1,3.1-3.2,3.1-4.6c0-0.9-0.4-1.8-1.7-1.8c-0.7,0-1.3,0.4-1.7,0.7l-0.2-0.4
				c0.5-0.5,1.2-0.8,2-0.8c1.6,0,2.2,1.2,2.2,2.1c0,1.5-1.1,2.8-3.1,4.7l-0.6,0.6v0h3.8v0.5H386.4z"/>
			<path class="st9" d="M395.5,179.7v-2.3h-3.7V177l3.8-5.1h0.5v5h1.2v0.5h-1.2v2.3H395.5z M395.5,176.9v-3.2c0-0.4,0-0.7,0-1.1l0,0
				c-0.2,0.4-0.4,0.7-0.6,1l-2.4,3.2v0H395.5z"/>
			<path class="st9" d="M397.8,181.2c0.2-0.5,0.5-1.8,0.6-2.5l0.8-0.1c-0.2,0.9-0.7,2.3-0.9,2.6L397.8,181.2z"/>
			<path class="st9" d="M400.2,179.7v-0.4l0.7-0.7c2.2-2.1,3.1-3.2,3.1-4.6c0-0.9-0.4-1.8-1.7-1.8c-0.7,0-1.3,0.4-1.7,0.7l-0.2-0.4
				c0.5-0.5,1.2-0.8,2-0.8c1.6,0,2.2,1.2,2.2,2.1c0,1.5-1.1,2.8-3.1,4.7l-0.6,0.6v0h3.8v0.5H400.2z"/>
			<path class="st9" d="M410.8,171.9v0.4l-3.5,7.4h-0.6l3.5-7.3v0h-4v-0.5H410.8z"/>
			<path class="st9" d="M412.5,179.3c0.2,0,0.5,0,0.9-0.1c0.6-0.1,1.2-0.4,1.7-0.9c0.5-0.6,0.9-1.3,1.1-2.5l0,0c-0.5,0.6-1.2,1-2,1
				c-1.5,0-2.2-1.1-2.2-2.4c0-1.4,1-2.7,2.5-2.7c1.3,0,2.4,1.1,2.4,3.3c0,1.8-0.6,3-1.3,3.7c-0.5,0.5-1.2,0.9-1.8,1
				c-0.4,0.1-0.8,0.1-1.1,0.1V179.3z M412.5,174.4c0,1.2,0.7,1.9,1.8,1.9c0.8,0,1.5-0.4,1.9-1c0-0.1,0.1-0.2,0.1-0.3
				c0-1.6-0.6-2.8-1.9-2.8C413.2,172.2,412.5,173.2,412.5,174.4z"/>
			<path class="st9" d="M383.4,202.9v-0.4l0.7-0.7c2.2-2.1,3.1-3.2,3.1-4.6c0-0.9-0.4-1.8-1.7-1.8c-0.7,0-1.3,0.4-1.7,0.7l-0.2-0.4
				c0.5-0.5,1.2-0.8,2-0.8c1.6,0,2.2,1.2,2.2,2.1c0,1.5-1.1,2.8-3.1,4.7l-0.6,0.6v0h3.8v0.5H383.4z"/>
			<path class="st9" d="M392.6,202.9v-2.3h-3.7v-0.4l3.8-5.1h0.5v5h1.2v0.5h-1.2v2.3H392.6z M392.6,200.1v-3.2c0-0.4,0-0.7,0-1.1
				l0,0c-0.2,0.4-0.4,0.7-0.6,1l-2.4,3.2v0H392.6z"/>
			<path class="st9" d="M398.4,202.9v-2.3h-3.7v-0.4l3.8-5.1h0.5v5h1.2v0.5H399v2.3H398.4z M398.4,200.1v-3.2c0-0.4,0-0.7,0-1.1l0,0
				c-0.2,0.4-0.4,0.7-0.6,1l-2.4,3.2v0H398.4z"/>
			<path class="st9" d="M400.8,204.4c0.2-0.5,0.5-1.8,0.6-2.5l0.8-0.1c-0.2,0.9-0.7,2.3-0.9,2.6L400.8,204.4z"/>
			<path class="st9" d="M405.4,195.7L405.4,195.7l-1.3,0.7l-0.1-0.5l1.5-0.9h0.5v7.8h-0.6V195.7z"/>
			<path class="st9" d="M413.3,195.6h-2.9l-0.4,2.5c0.2,0,0.4,0,0.7,0c0.5,0,1,0.1,1.5,0.3c0.6,0.3,1.2,1,1.2,2
				c0,1.6-1.2,2.6-2.6,2.6c-0.8,0-1.5-0.3-1.8-0.5l0.2-0.5c0.3,0.2,0.9,0.5,1.6,0.5c1.1,0,2-0.8,2-2c0-1.1-0.7-2-2.3-2
				c-0.5,0-0.8,0-1.1,0.1l0.5-3.5h3.4V195.6z"/>
			<path class="st9" d="M419.6,195.1v0.4l-3.5,7.4h-0.6l3.5-7.3v0h-4v-0.5H419.6z"/>
		</g>
	</g>
	<g>
		<path class="st9" d="M462.8,31.9v3.6h4.5v-3.6h0.6V40h-0.6v-4h-4.5v4h-0.6v-8.1H462.8z"/>
		<path class="st9" d="M474.7,37.1c0,2.1-1.5,3.1-2.8,3.1c-1.5,0-2.6-1.2-2.6-3c0-2,1.3-3.1,2.7-3.1
			C473.6,34.1,474.7,35.3,474.7,37.1z M469.8,37.2c0,1.4,0.9,2.5,2.1,2.5c1.2,0,2.1-1.1,2.1-2.6c0-1.1-0.6-2.5-2.1-2.5
			C470.5,34.6,469.8,35.9,469.8,37.2z"/>
		<path class="st9" d="M480.6,38.6c0,0.5,0,1,0,1.4h-0.5l0-1h0c-0.3,0.5-0.9,1.2-2,1.2c-0.7,0-2-0.4-2-2.5v-3.3h0.6v3.2
			c0,1.2,0.4,2.1,1.5,2.1c0.8,0,1.5-0.6,1.7-1.2c0.1-0.2,0.1-0.4,0.1-0.6v-3.6h0.6V38.6z"/>
		<path class="st9" d="M482.5,36c0-0.6,0-1.2,0-1.7h0.5l0,1.2h0c0.3-0.7,0.9-1.3,1.6-1.3c0.1,0,0.2,0,0.2,0v0.6c-0.1,0-0.2,0-0.3,0
			c-0.8,0-1.4,0.7-1.5,1.6c0,0.2,0,0.4,0,0.6V40h-0.6V36z"/>
		<path class="st9" d="M485.8,39.3c0.3,0.2,0.8,0.4,1.3,0.4c0.9,0,1.3-0.5,1.3-1.1c0-0.6-0.4-1-1.2-1.3c-0.9-0.4-1.5-0.9-1.5-1.6
			c0-0.8,0.7-1.6,1.8-1.6c0.5,0,1,0.2,1.3,0.4l-0.2,0.5c-0.2-0.1-0.6-0.3-1.2-0.3c-0.7,0-1.1,0.5-1.1,1c0,0.6,0.4,0.9,1.2,1.2
			c0.9,0.4,1.5,0.8,1.5,1.7c0,1-0.8,1.6-1.9,1.6c-0.6,0-1.1-0.2-1.5-0.4L485.8,39.3z"/>
		<path class="st9" d="M493.1,36.1c0-0.7,0-1.3,0-1.8h0.6l0,1.1h0c0.4-0.8,1.1-1.2,2.1-1.2c1.5,0,2.5,1.2,2.5,2.9
			c0,2.1-1.2,3.1-2.6,3.1c-0.8,0-1.6-0.4-2-1.1h0v3.3h-0.6V36.1z M493.7,37.8c0,0.2,0,0.3,0,0.5c0.2,0.9,1,1.5,1.9,1.5
			c1.3,0,2.1-1.1,2.1-2.6c0-1.3-0.7-2.5-2-2.5c-0.8,0-1.7,0.6-1.9,1.5c0,0.2-0.1,0.3-0.1,0.5V37.8z"/>
		<path class="st9" d="M499.9,37.1c0,1.8,1,2.6,2.2,2.6c0.8,0,1.3-0.2,1.6-0.3l0.1,0.4c-0.2,0.1-0.8,0.4-1.8,0.4
			c-1.7,0-2.7-1.2-2.7-2.9c0-1.9,1.1-3.1,2.6-3.1c1.9,0,2.2,1.8,2.2,2.6c0,0.2,0,0.2,0,0.3H499.9z M503.5,36.6c0-0.8-0.3-2-1.7-2
			c-1.3,0-1.8,1.1-1.9,2H503.5z"/>
		<path class="st9" d="M505.6,36c0-0.6,0-1.2,0-1.7h0.5l0,1.2h0c0.3-0.7,0.9-1.3,1.6-1.3c0.1,0,0.2,0,0.2,0v0.6c-0.1,0-0.2,0-0.3,0
			c-0.8,0-1.4,0.7-1.5,1.6c0,0.2,0,0.4,0,0.6V40h-0.6V36z"/>
		<path class="st9" d="M515.3,38.7c0,0.5,0,0.9,0.1,1.4h-0.5l-0.1-0.8h0c-0.3,0.4-0.9,1-1.8,1c-1.2,0-1.7-0.8-1.7-1.6
			c0-1.3,1.2-2.1,3.5-2.1v-0.2c0-0.6-0.1-1.7-1.5-1.7c-0.5,0-1,0.1-1.5,0.4l-0.2-0.4c0.5-0.3,1.2-0.5,1.7-0.5c1.7,0,2,1.2,2,2.3
			V38.7z M514.8,36.9c-1.3,0-2.9,0.2-2.9,1.5c0,0.8,0.6,1.2,1.2,1.2c1,0,1.5-0.6,1.7-1.2c0-0.1,0.1-0.3,0.1-0.3V36.9z"/>
		<path class="st9" d="M517,39.3c0.3,0.2,0.8,0.4,1.3,0.4c0.9,0,1.3-0.5,1.3-1.1c0-0.6-0.4-1-1.2-1.3c-0.9-0.4-1.5-0.9-1.5-1.6
			c0-0.8,0.7-1.6,1.8-1.6c0.5,0,1,0.2,1.3,0.4l-0.2,0.5c-0.2-0.1-0.6-0.3-1.2-0.3c-0.7,0-1.1,0.5-1.1,1c0,0.6,0.4,0.9,1.2,1.2
			c0.9,0.4,1.5,0.8,1.5,1.7c0,1-0.8,1.6-1.9,1.6c-0.6,0-1.1-0.2-1.5-0.4L517,39.3z"/>
		<path class="st9" d="M521.4,39.3c0.3,0.2,0.8,0.4,1.3,0.4c0.9,0,1.3-0.5,1.3-1.1c0-0.6-0.4-1-1.2-1.3c-0.9-0.4-1.5-0.9-1.5-1.6
			c0-0.8,0.7-1.6,1.8-1.6c0.5,0,1,0.2,1.3,0.4l-0.2,0.5c-0.2-0.1-0.6-0.3-1.2-0.3c-0.7,0-1.1,0.5-1.1,1c0,0.6,0.4,0.9,1.2,1.2
			c0.9,0.4,1.5,0.8,1.5,1.7c0,1-0.8,1.6-1.9,1.6c-0.6,0-1.1-0.2-1.5-0.4L521.4,39.3z"/>
		<path class="st9" d="M531.1,37.1c0,2.1-1.5,3.1-2.8,3.1c-1.5,0-2.6-1.2-2.6-3c0-2,1.3-3.1,2.7-3.1C530,34.1,531.1,35.3,531.1,37.1
			z M526.3,37.2c0,1.4,0.9,2.5,2.1,2.5c1.2,0,2.1-1.1,2.1-2.6c0-1.1-0.6-2.5-2.1-2.5C526.9,34.6,526.3,35.9,526.3,37.2z"/>
		<path class="st9" d="M536.5,39.8c-0.3,0.1-0.9,0.4-1.7,0.4c-1.7,0-2.8-1.2-2.8-2.9c0-1.8,1.2-3.1,3-3.1c0.7,0,1.3,0.2,1.5,0.4
			l-0.2,0.5c-0.3-0.2-0.7-0.3-1.4-0.3c-1.5,0-2.3,1.2-2.3,2.5c0,1.5,0.9,2.5,2.3,2.5c0.7,0,1.1-0.2,1.4-0.3L536.5,39.8z"/>
		<path class="st9" d="M538.6,32.6c0,0.3-0.2,0.5-0.5,0.5c-0.3,0-0.4-0.2-0.4-0.5s0.2-0.5,0.5-0.5C538.4,32.1,538.6,32.4,538.6,32.6
			z M537.9,40v-5.8h0.6V40H537.9z"/>
		<path class="st9" d="M544,38.7c0,0.5,0,0.9,0.1,1.4h-0.5l-0.1-0.8h0c-0.3,0.4-0.9,1-1.8,1c-1.2,0-1.7-0.8-1.7-1.6
			c0-1.3,1.2-2.1,3.5-2.1v-0.2c0-0.6-0.1-1.7-1.5-1.7c-0.5,0-1,0.1-1.5,0.4l-0.2-0.4c0.5-0.3,1.2-0.5,1.7-0.5c1.7,0,2,1.2,2,2.3
			V38.7z M543.4,36.9c-1.3,0-2.9,0.2-2.9,1.5c0,0.8,0.6,1.2,1.2,1.2c1,0,1.5-0.6,1.7-1.2c0-0.1,0.1-0.3,0.1-0.3V36.9z"/>
		<path class="st9" d="M546.6,33v1.3h1.6v0.5h-1.6v3.7c0,0.7,0.2,1.2,0.8,1.2c0.3,0,0.5,0,0.7-0.1l0.1,0.4c-0.2,0.1-0.5,0.1-0.8,0.1
			c-0.4,0-0.8-0.1-1-0.4c-0.3-0.3-0.4-0.8-0.4-1.4v-3.6h-1v-0.5h1v-1.1L546.6,33z"/>
		<path class="st9" d="M549.6,37.1c0,1.8,1,2.6,2.2,2.6c0.8,0,1.3-0.2,1.6-0.3l0.1,0.4c-0.2,0.1-0.8,0.4-1.8,0.4
			c-1.7,0-2.7-1.2-2.7-2.9c0-1.9,1.1-3.1,2.6-3.1c1.9,0,2.2,1.8,2.2,2.6c0,0.2,0,0.2,0,0.3H549.6z M553.2,36.6c0-0.8-0.3-2-1.7-2
			c-1.3,0-1.8,1.1-1.9,2H553.2z"/>
		<path class="st9" d="M501.7,62.4c0.3,0.2,0.9,0.5,1.7,0.5c1.6,0,2-1.1,2-1.8c0-1.3-1.1-1.8-2.3-1.8h-0.5v-0.5h0.5
			c0.9,0,2-0.5,2-1.6c0-0.7-0.4-1.4-1.5-1.4c-0.6,0-1.2,0.3-1.5,0.5l-0.2-0.4c0.4-0.3,1.1-0.6,1.8-0.6c1.5,0,2,0.9,2,1.8
			c0,0.8-0.5,1.5-1.5,1.8v0c1,0.2,1.8,0.9,1.8,2.1c0,1.2-0.8,2.3-2.6,2.3c-0.8,0-1.5-0.3-1.8-0.5L501.7,62.4z"/>
		<path class="st9" d="M507.4,62.8c0-0.3,0.2-0.5,0.5-0.5c0.3,0,0.5,0.2,0.5,0.5c0,0.3-0.2,0.5-0.5,0.5
			C507.6,63.4,507.4,63.1,507.4,62.8z"/>
		<path class="st9" d="M512.7,63.2v-2.3h-3.7v-0.4l3.8-5.1h0.5v5h1.2v0.5h-1.2v2.3H512.7z M512.7,60.5v-3.2c0-0.4,0-0.7,0-1.1l0,0
			c-0.2,0.4-0.4,0.7-0.6,1l-2.4,3.2v0H512.7z"/>
		<path class="st9" d="M503,82.3c-0.9-0.4-1.3-1.1-1.3-1.8c0-1.2,1-2,2.2-2c1.3,0,2.1,0.9,2.1,1.9c0,0.6-0.3,1.4-1.4,1.9v0
			c1.1,0.4,1.7,1.2,1.7,2.1c0,1.3-1.2,2.2-2.4,2.2c-1.4,0-2.4-0.9-2.4-2.1C501.4,83.5,502,82.8,503,82.3L503,82.3z M505.7,84.4
			c0-1.1-0.7-1.6-2-2c-1.1,0.3-1.7,1-1.7,1.9c0,0.9,0.6,1.7,1.8,1.7C504.9,86.1,505.7,85.4,505.7,84.4z M502.2,80.4
			c0,0.9,0.7,1.4,1.7,1.7c0.8-0.3,1.4-0.8,1.4-1.7c0-0.7-0.4-1.5-1.5-1.5C502.8,79,502.2,79.6,502.2,80.4z"/>
		<path class="st9" d="M507.4,86c0-0.3,0.2-0.5,0.5-0.5c0.3,0,0.5,0.2,0.5,0.5c0,0.3-0.2,0.5-0.5,0.5
			C507.6,86.6,507.4,86.3,507.4,86z"/>
		<path class="st9" d="M510.9,82.3c-0.9-0.4-1.3-1.1-1.3-1.8c0-1.2,1-2,2.2-2c1.3,0,2.1,0.9,2.1,1.9c0,0.6-0.3,1.4-1.4,1.9v0
			c1.1,0.4,1.7,1.2,1.7,2.1c0,1.3-1.2,2.2-2.4,2.2c-1.4,0-2.4-0.9-2.4-2.1C509.3,83.5,509.9,82.8,510.9,82.3L510.9,82.3z
			 M513.6,84.4c0-1.1-0.7-1.6-2-2c-1.1,0.3-1.7,1-1.7,1.9c0,0.9,0.6,1.7,1.8,1.7C512.9,86.1,513.6,85.4,513.6,84.4z M510.2,80.4
			c0,0.9,0.7,1.4,1.7,1.7c0.8-0.3,1.4-0.8,1.4-1.7c0-0.7-0.4-1.5-1.5-1.5C510.7,79,510.2,79.6,510.2,80.4z"/>
		<path class="st9" d="M506.2,101.8v0.4l-3.5,7.4h-0.6l3.5-7.3v0h-4v-0.5H506.2z"/>
		<path class="st9" d="M507.4,109.2c0-0.3,0.2-0.5,0.5-0.5c0.3,0,0.5,0.2,0.5,0.5c0,0.3-0.2,0.5-0.5,0.5
			C507.6,109.8,507.4,109.5,507.4,109.2z"/>
		<path class="st9" d="M510.9,105.5c-0.9-0.4-1.3-1.1-1.3-1.8c0-1.2,1-2,2.2-2c1.3,0,2.1,0.9,2.1,1.9c0,0.6-0.3,1.4-1.4,1.9v0
			c1.1,0.4,1.7,1.2,1.7,2.1c0,1.3-1.2,2.2-2.4,2.2c-1.4,0-2.4-0.9-2.4-2.1C509.3,106.7,509.9,106,510.9,105.5L510.9,105.5z
			 M513.6,107.6c0-1.1-0.7-1.6-2-2c-1.1,0.3-1.7,1-1.7,1.9c0,0.9,0.6,1.7,1.8,1.7C512.9,109.3,513.6,108.6,513.6,107.6z
			 M510.2,103.6c0,0.9,0.7,1.4,1.7,1.7c0.8-0.3,1.4-0.8,1.4-1.7c0-0.7-0.4-1.5-1.5-1.5C510.7,102.2,510.2,102.8,510.2,103.6z"/>
		<path class="st9" d="M500.8,125.6L500.8,125.6l-1.3,0.7l-0.1-0.5l1.5-0.9h0.5v7.8h-0.6V125.6z"/>
		<path class="st9" d="M509.2,128.8c0,2.8-1,4.1-2.6,4.1c-1.2,0-2.3-1.2-2.4-4c0-2.8,1.2-4.1,2.6-4.1
			C508.2,124.9,509.2,126.1,509.2,128.8z M504.8,129c0,2.2,0.7,3.5,1.9,3.5c1.3,0,1.9-1.5,1.9-3.6c0-2-0.6-3.5-1.9-3.5
			C505.7,125.4,504.8,126.7,504.8,129z"/>
		<path class="st9" d="M510.3,132.4c0-0.3,0.2-0.5,0.5-0.5c0.3,0,0.5,0.2,0.5,0.5c0,0.3-0.2,0.5-0.5,0.5
			C510.5,133,510.3,132.7,510.3,132.4z"/>
		<path class="st9" d="M512.3,132.8v-0.4l0.7-0.7c2.2-2.1,3.1-3.2,3.1-4.6c0-0.9-0.4-1.8-1.7-1.8c-0.7,0-1.3,0.4-1.7,0.7l-0.2-0.4
			c0.5-0.5,1.2-0.8,2-0.8c1.6,0,2.2,1.2,2.2,2.1c0,1.5-1.1,2.8-3.1,4.7l-0.6,0.6v0h3.8v0.5H512.3z"/>
		<path class="st9" d="M500.8,148.8L500.8,148.8l-1.3,0.7l-0.1-0.5l1.5-0.9h0.5v7.8h-0.6V148.8z"/>
		<path class="st9" d="M504.4,156v-0.4l0.7-0.7c2.2-2.1,3.1-3.2,3.1-4.6c0-0.9-0.4-1.8-1.7-1.8c-0.7,0-1.3,0.4-1.7,0.7l-0.2-0.4
			c0.5-0.5,1.2-0.8,2-0.8c1.6,0,2.2,1.2,2.2,2.1c0,1.5-1.1,2.8-3.1,4.7l-0.6,0.6v0h3.8v0.5H504.4z"/>
		<path class="st9" d="M510.3,155.6c0-0.3,0.2-0.5,0.5-0.5c0.3,0,0.5,0.2,0.5,0.5c0,0.3-0.2,0.5-0.5,0.5
			C510.5,156.2,510.3,155.9,510.3,155.6z"/>
		<path class="st9" d="M515.6,156v-2.3h-3.7v-0.4l3.8-5.1h0.5v5h1.2v0.5h-1.2v2.3H515.6z M515.6,153.3v-3.2c0-0.4,0-0.7,0-1.1l0,0
			c-0.2,0.4-0.4,0.7-0.6,1l-2.4,3.2v0H515.6z"/>
		<path class="st9" d="M500.8,172L500.8,172l-1.3,0.7l-0.1-0.5l1.5-0.9h0.5v7.8h-0.6V172z"/>
		<path class="st9" d="M509.2,175.2c0,2.8-1,4.1-2.6,4.1c-1.2,0-2.3-1.2-2.4-4c0-2.8,1.2-4.1,2.6-4.1
			C508.2,171.3,509.2,172.5,509.2,175.2z M504.8,175.4c0,2.2,0.7,3.5,1.9,3.5c1.3,0,1.9-1.5,1.9-3.6c0-2-0.6-3.5-1.9-3.5
			C505.7,171.8,504.8,173.1,504.8,175.4z"/>
		<path class="st9" d="M510.3,178.8c0-0.3,0.2-0.5,0.5-0.5c0.3,0,0.5,0.2,0.5,0.5c0,0.3-0.2,0.5-0.5,0.5
			C510.5,179.4,510.3,179.1,510.3,178.8z"/>
		<path class="st9" d="M517,171.4v0.4l-3.5,7.4H513l3.5-7.3v0h-4v-0.5H517z"/>
		<path class="st9" d="M505.6,195c-0.2,0-0.5,0-0.9,0.1c-1.7,0.3-2.6,1.8-2.8,3.3h0c0.4-0.6,1.1-1.1,2-1.1c1.4,0,2.3,1.1,2.3,2.5
			c0,1.4-0.8,2.7-2.4,2.7c-1.4,0-2.5-1.1-2.5-3.3c0-1.6,0.6-2.8,1.3-3.5c0.6-0.6,1.3-1,2.2-1.2c0.3-0.1,0.6-0.1,0.8-0.1V195z
			 M505.7,199.9c0-1.4-0.8-2.1-1.9-2.1c-0.7,0-1.4,0.4-1.8,1.1c-0.1,0.1-0.1,0.3-0.1,0.5c0,1.6,0.7,2.7,2,2.7
			C505,202.1,505.7,201.2,505.7,199.9z"/>
		<path class="st9" d="M507.4,202c0-0.3,0.2-0.5,0.5-0.5c0.3,0,0.5,0.2,0.5,0.5c0,0.3-0.2,0.5-0.5,0.5
			C507.6,202.6,507.4,202.3,507.4,202z"/>
		<path class="st9" d="M512.7,202.4v-2.3h-3.7v-0.4l3.8-5.1h0.5v5h1.2v0.5h-1.2v2.3H512.7z M512.7,199.7v-3.2c0-0.4,0-0.7,0-1.1l0,0
			c-0.2,0.4-0.4,0.7-0.6,1l-2.4,3.2v0H512.7z"/>
	</g>
	<g>
		<g>
			<path class="st10" d="M232.5,13.5c0-1.1-0.1-2.3-0.1-3.6h0c-0.3,1.1-0.6,2.4-1,3.4l-1.1,3.4h-1.5l-0.9-3.4
				c-0.3-1-0.6-2.3-0.8-3.4h0c-0.1,1.2-0.1,2.5-0.2,3.6l-0.2,3.3h-1.8l0.6-8.8h2.6L229,11c0.3,1,0.5,2.1,0.7,3.1h0
				c0.2-1,0.5-2.2,0.8-3.1l0.9-2.9h2.6l0.5,8.8h-1.9L232.5,13.5z"/>
			<path class="st10" d="M237.6,14.3c0.1,0.8,0.9,1.2,1.8,1.2c0.7,0,1.2-0.1,1.8-0.3l0.3,1.3c-0.6,0.3-1.4,0.4-2.3,0.4
				c-2.2,0-3.4-1.2-3.4-3.2c0-1.6,1-3.4,3.2-3.4c2.1,0,2.8,1.6,2.8,3.2c0,0.3,0,0.6-0.1,0.8H237.6z M239.9,12.9
				c0-0.5-0.2-1.3-1.1-1.3c-0.8,0-1.2,0.8-1.2,1.3H239.9z"/>
			<path class="st10" d="M244.3,10.5l0.6,1.1c0.2,0.3,0.4,0.6,0.5,0.9h0c0.2-0.3,0.3-0.7,0.5-1l0.6-1h2.1l-2.1,3l2.1,3.3h-2.2
				l-0.6-1.1c-0.2-0.3-0.3-0.6-0.5-1h0c-0.2,0.3-0.3,0.6-0.5,1l-0.6,1.1H242l2.2-3.2l-2.1-3.1H244.3z"/>
			<path class="st10" d="M251.6,8.7c0,0.5-0.4,1-1.1,1c-0.6,0-1-0.4-1-1c0-0.6,0.4-1,1-1S251.6,8.1,251.6,8.7z M249.5,16.8v-6.4h2
				v6.4H249.5z"/>
			<path class="st10" d="M257.9,16.7c-0.4,0.2-1,0.3-1.8,0.3c-2.1,0-3.4-1.2-3.4-3.2c0-1.9,1.3-3.4,3.6-3.4c0.5,0,1.1,0.1,1.5,0.2
				l-0.3,1.5c-0.2-0.1-0.6-0.2-1.1-0.2c-1,0-1.7,0.7-1.7,1.8c0,1.2,0.8,1.8,1.7,1.8c0.5,0,0.8-0.1,1.1-0.2L257.9,16.7z"/>
			<path class="st10" d="M265.1,13.6c0,2.3-1.7,3.4-3.4,3.4c-1.9,0-3.3-1.2-3.3-3.3c0-2.1,1.4-3.4,3.4-3.4
				C263.8,10.3,265.1,11.7,265.1,13.6z M260.5,13.6c0,1.1,0.5,1.9,1.3,1.9c0.8,0,1.3-0.8,1.3-1.9c0-0.9-0.4-1.9-1.3-1.9
				C260.9,11.7,260.5,12.7,260.5,13.6z"/>
		</g>
	</g>
	<g>
		<g>
			<path class="st9" d="M7.6,8.1h2v7.1h3.5v1.7H7.6V8.1z"/>
			<path class="st9" d="M15.6,14.3c0.1,0.8,0.9,1.2,1.8,1.2c0.7,0,1.2-0.1,1.8-0.3l0.3,1.3C18.8,16.8,18,17,17.1,17
				c-2.2,0-3.4-1.2-3.4-3.2c0-1.6,1-3.4,3.2-3.4c2.1,0,2.8,1.6,2.8,3.2c0,0.3,0,0.6-0.1,0.8H15.6z M17.9,12.9c0-0.5-0.2-1.3-1.1-1.3
				c-0.8,0-1.2,0.8-1.2,1.3H17.9z"/>
			<path class="st9" d="M22.4,10.5l0.9,3c0.2,0.5,0.3,1,0.4,1.5h0c0.1-0.5,0.2-1,0.4-1.5l0.8-3h2.1l-2.4,6.4h-2l-2.3-6.4H22.4z"/>
			<path class="st9" d="M29.1,14.3c0.1,0.8,0.9,1.2,1.8,1.2c0.7,0,1.2-0.1,1.8-0.3l0.3,1.3c-0.6,0.3-1.4,0.4-2.3,0.4
				c-2.2,0-3.4-1.2-3.4-3.2c0-1.6,1-3.4,3.2-3.4c2.1,0,2.8,1.6,2.8,3.2c0,0.3,0,0.6-0.1,0.8H29.1z M31.4,12.9c0-0.5-0.2-1.3-1.1-1.3
				c-0.8,0-1.2,0.8-1.2,1.3H31.4z"/>
			<path class="st9" d="M34.4,7.6h2v9.2h-2V7.6z"/>
		</g>
	</g>
	<g>
		<g>
			<path class="st10" d="M411.8,16.6c-0.4,0.2-1.2,0.4-2.2,0.4c-3,0-4.6-1.9-4.6-4.4c0-3,2.1-4.7,4.8-4.7c1,0,1.8,0.2,2.2,0.4
				l-0.4,1.6c-0.4-0.2-1-0.3-1.7-0.3c-1.6,0-2.8,0.9-2.8,2.9c0,1.8,1,2.9,2.8,2.9c0.6,0,1.3-0.1,1.7-0.3L411.8,16.6z"/>
			<path class="st10" d="M414.3,14.3c0.1,0.8,0.9,1.2,1.8,1.2c0.7,0,1.2-0.1,1.8-0.3l0.3,1.3c-0.6,0.3-1.4,0.4-2.3,0.4
				c-2.2,0-3.4-1.2-3.4-3.2c0-1.6,1-3.4,3.2-3.4c2.1,0,2.8,1.6,2.8,3.2c0,0.3,0,0.6-0.1,0.8H414.3z M416.6,13c0-0.5-0.2-1.3-1.1-1.3
				c-0.8,0-1.2,0.8-1.2,1.3H416.6z"/>
			<path class="st10" d="M419.6,12.5c0-0.8,0-1.5-0.1-2h1.7l0.1,0.9h0c0.3-0.4,0.9-1,2-1c1.3,0,2.3,0.9,2.3,2.7v3.8h-2v-3.5
				c0-0.8-0.3-1.4-1-1.4c-0.5,0-0.9,0.4-1,0.7c-0.1,0.1-0.1,0.3-0.1,0.5v3.7h-2V12.5z"/>
			<path class="st10" d="M429.4,8.7v1.8h1.4V12h-1.4v2.3c0,0.8,0.2,1.1,0.8,1.1c0.2,0,0.4,0,0.6-0.1l0,1.5c-0.3,0.1-0.7,0.2-1.3,0.2
				c-0.6,0-1.2-0.2-1.5-0.5c-0.4-0.4-0.5-1-0.5-1.9V12h-0.8v-1.5h0.8V9.1L429.4,8.7z"/>
			<path class="st10" d="M431.9,12.6c0-0.9,0-1.5-0.1-2.1h1.7l0.1,1.2h0.1c0.3-0.9,1.1-1.3,1.7-1.3c0.2,0,0.3,0,0.4,0v1.9
				c-0.1,0-0.3-0.1-0.5-0.1c-0.7,0-1.2,0.4-1.4,1c0,0.1,0,0.3,0,0.4v3.2h-2V12.6z"/>
			<path class="st10" d="M440.3,16.9l-0.1-0.6h0c-0.4,0.5-1.1,0.8-1.8,0.8c-1.3,0-2.1-0.9-2.1-2c0-1.7,1.5-2.4,3.7-2.4v-0.1
				c0-0.3-0.2-0.8-1.2-0.8c-0.7,0-1.3,0.2-1.8,0.5l-0.4-1.3c0.4-0.2,1.3-0.6,2.5-0.6c2.1,0,2.8,1.2,2.8,2.7v2.2c0,0.6,0,1.2,0.1,1.5
				H440.3z M440.1,13.9c-1,0-1.8,0.2-1.8,1c0,0.5,0.3,0.8,0.8,0.8c0.5,0,0.9-0.3,1-0.7c0-0.1,0-0.2,0-0.3V13.9z"/>
			<path class="st10" d="M443.6,7.6h2v9.2h-2V7.6z"/>
			<path class="st10" d="M451.9,14.6l-0.6,2.2h-2.1l2.7-8.8h2.6l2.7,8.8h-2.1l-0.7-2.2H451.9z M454.1,13.1l-0.5-1.9
				c-0.2-0.5-0.3-1.2-0.4-1.7h0c-0.1,0.5-0.3,1.2-0.4,1.7l-0.5,1.9H454.1z"/>
			<path class="st10" d="M458.2,12.5c0-0.8,0-1.5-0.1-2h1.7l0.1,0.9h0c0.3-0.4,0.8-1,1.9-1c0.8,0,1.5,0.4,1.7,1.1h0
				c0.2-0.3,0.5-0.6,0.8-0.8c0.4-0.2,0.7-0.3,1.2-0.3c1.2,0,2.1,0.9,2.1,2.8v3.7h-1.9v-3.5c0-0.9-0.3-1.5-0.9-1.5
				c-0.5,0-0.8,0.3-0.9,0.7c-0.1,0.1-0.1,0.4-0.1,0.5v3.7h-1.9v-3.6c0-0.8-0.3-1.4-0.9-1.4c-0.5,0-0.8,0.4-0.9,0.7
				c-0.1,0.2-0.1,0.3-0.1,0.5v3.7h-1.9V12.5z"/>
			<path class="st10" d="M471,14.3c0.1,0.8,0.9,1.2,1.8,1.2c0.7,0,1.2-0.1,1.8-0.3l0.3,1.3c-0.6,0.3-1.4,0.4-2.3,0.4
				c-2.2,0-3.4-1.2-3.4-3.2c0-1.6,1-3.4,3.2-3.4c2.1,0,2.8,1.6,2.8,3.2c0,0.3,0,0.6-0.1,0.8H471z M473.3,13c0-0.5-0.2-1.3-1.1-1.3
				c-0.8,0-1.2,0.8-1.2,1.3H473.3z"/>
			<path class="st10" d="M476.3,12.6c0-0.9,0-1.5-0.1-2.1h1.7l0.1,1.2h0.1c0.3-0.9,1.1-1.3,1.7-1.3c0.2,0,0.3,0,0.4,0v1.9
				c-0.1,0-0.3-0.1-0.5-0.1c-0.7,0-1.2,0.4-1.4,1c0,0.1,0,0.3,0,0.4v3.2h-2V12.6z"/>
			<path class="st10" d="M483.3,8.8c0,0.5-0.4,1-1.1,1c-0.6,0-1-0.4-1-1c0-0.6,0.4-1,1-1C482.9,7.8,483.3,8.2,483.3,8.8z
				 M481.2,16.9v-6.4h2v6.4H481.2z"/>
			<path class="st10" d="M489.6,16.7c-0.4,0.2-1,0.3-1.8,0.3c-2.1,0-3.4-1.2-3.4-3.2c0-1.9,1.3-3.4,3.6-3.4c0.5,0,1.1,0.1,1.5,0.2
				l-0.3,1.5c-0.2-0.1-0.6-0.2-1.1-0.2c-1,0-1.7,0.7-1.7,1.8c0,1.2,0.8,1.8,1.7,1.8c0.5,0,0.8-0.1,1.1-0.2L489.6,16.7z"/>
			<path class="st10" d="M494.3,16.9l-0.1-0.6h0c-0.4,0.5-1.1,0.8-1.8,0.8c-1.3,0-2.1-0.9-2.1-2c0-1.7,1.5-2.4,3.7-2.4v-0.1
				c0-0.3-0.2-0.8-1.2-0.8c-0.7,0-1.3,0.2-1.8,0.5l-0.4-1.3c0.4-0.2,1.3-0.6,2.5-0.6c2.1,0,2.8,1.2,2.8,2.7v2.2c0,0.6,0,1.2,0.1,1.5
				H494.3z M494.1,13.9c-1,0-1.8,0.2-1.8,1c0,0.5,0.3,0.8,0.8,0.8c0.5,0,0.9-0.3,1-0.7c0-0.1,0-0.2,0-0.3V13.9z"/>
		</g>
	</g>
</g>
</svg>
