<?xml version="1.0" encoding="utf-8"?>
<!-- Generator: Adobe Illustrator 25.2.1, SVG Export Plug-In . SVG Version: 6.00 Build 0)  -->
<svg version="1.1" id="Layer_2" xmlns="http://www.w3.org/2000/svg" xmlns:xlink="http://www.w3.org/1999/xlink" x="0px" y="0px"
	 viewBox="0 0 798.7 652" style="enable-background:new 0 0 798.7 652;" xml:space="preserve">
<style type="text/css">
	.st0{opacity:0.13;fill:#6AAAE4;}
	.st1{opacity:8.000000e-02;fill:#FFB71B;}
	.st2{opacity:0.16;fill:#404041;}
	.st3{opacity:0.1;fill:#F57F20;}
	.st4{fill:none;stroke:#4E4D50;stroke-width:0.4251;stroke-linecap:round;stroke-linejoin:round;stroke-miterlimit:10;}
	.st5{fill:#4E4D50;}
	
		.st6{fill-rule:evenodd;clip-rule:evenodd;fill:none;stroke:#4E4D50;stroke-width:0.4251;stroke-linecap:round;stroke-linejoin:round;stroke-miterlimit:10;}
	.st7{fill:none;stroke:#4E4E50;stroke-width:0.4251;stroke-linecap:round;stroke-linejoin:round;stroke-miterlimit:10;}
	.st8{fill:none;stroke:#4E4D50;stroke-width:0.4251;stroke-miterlimit:10;}
	
		.st9{fill-rule:evenodd;clip-rule:evenodd;fill:none;stroke:#4E4E50;stroke-width:0.4976;stroke-linecap:round;stroke-linejoin:round;stroke-miterlimit:10;}
	.st10{fill:none;stroke:#4E4E50;stroke-width:0.4976;stroke-linecap:round;stroke-linejoin:round;stroke-miterlimit:10;}
	.st11{fill:none;stroke:#606161;stroke-width:0.4251;stroke-linecap:round;stroke-linejoin:round;stroke-miterlimit:10;}
	.st12{fill:none;stroke:#606161;stroke-width:0.4251;stroke-linejoin:round;stroke-miterlimit:10;}
	.st13{fill:none;stroke:#FFFFFF;stroke-width:6.8013;stroke-miterlimit:10;}
	.st14{fill:#F78D20;}
	.st15{fill:#3070B8;}
	.st16{fill:#FFB71B;}
	.st17{fill:#FFFFFF;}
	.st18{fill:#606161;}
	.st19{font-family:'MyriadPro-Light';}
	.st20{font-size:12px;}
</style>
<g>
	<rect x="2.3" y="268.9" class="st0" width="794" height="187"/>
	<rect x="2.3" y="74.2" class="st1" width="794" height="187"/>
	<rect x="2.3" y="15.7" class="st2" width="794" height="50.4"/>
	<rect x="2.3" y="465" class="st3" width="794" height="187"/>
	<g>
		<g>
			<line class="st4" x1="169.1" y1="169.1" x2="195.1" y2="169.1"/>
			<line class="st4" x1="169.1" y1="166.8" x2="195.1" y2="166.8"/>
			<path class="st4" d="M186.7,155c-1-0.9-2.7-1.4-4.6-1.4c-1.9,0-3.6,0.6-4.6,1.4h-8.4v6.3v7.8h26v-7.8V155H186.7z"/>
			<g>
				<path class="st4" d="M182.1,159.4c0.2,0,0.3-0.1,0.3-0.2l0.2-2c0-0.2-0.2-0.4-0.5-0.4c-0.3,0-0.5,0.2-0.5,0.4l0.2,2
					C181.8,159.3,182,159.4,182.1,159.4L182.1,159.4z"/>
				<path class="st4" d="M181.1,160.1c0.1-0.2,0.1-0.3,0-0.4l-1.6-1.1c-0.2-0.1-0.4,0-0.6,0.3c-0.1,0.3-0.1,0.5,0.1,0.6l1.8,0.8
					C180.8,160.3,181,160.2,181.1,160.1L181.1,160.1z"/>
				<path class="st4" d="M183.2,160.1c0.1,0.2,0.2,0.2,0.4,0.2l1.8-0.8c0.2-0.1,0.2-0.4,0.1-0.6c-0.1-0.3-0.4-0.4-0.6-0.3l-1.6,1.1
					C183.1,159.7,183.1,159.9,183.2,160.1L183.2,160.1z"/>
				<path class="st4" d="M182.1,161.9c0.2,0,0.3,0.1,0.3,0.2l0.2,2c0,0.2-0.2,0.4-0.5,0.4c-0.3,0-0.5-0.2-0.5-0.4l0.2-2
					C181.8,162,182,161.9,182.1,161.9L182.1,161.9z"/>
				<path class="st4" d="M183.2,161.3c0.1-0.2,0.2-0.2,0.4-0.2l1.8,0.8c0.2,0.1,0.2,0.4,0.1,0.6c-0.1,0.3-0.4,0.4-0.6,0.3l-1.6-1.1
					C183.1,161.6,183.1,161.5,183.2,161.3L183.2,161.3z"/>
				<path class="st4" d="M181.1,161.3c0.1,0.2,0.1,0.3,0,0.4l-1.6,1.1c-0.2,0.1-0.4,0-0.6-0.3c-0.1-0.3-0.1-0.5,0.1-0.6l1.8-0.8
					C180.8,161.1,181,161.1,181.1,161.3L181.1,161.3z"/>
			</g>
			<g>
				<rect x="169.1" y="179.4" class="st4" width="26" height="14.3"/>
				<rect x="169.1" y="177" class="st4" width="26" height="2.3"/>
			</g>
			<g>
				<line class="st4" x1="170.5" y1="169.1" x2="170.5" y2="177"/>
				<line class="st4" x1="193.7" y1="169.1" x2="193.7" y2="177"/>
			</g>
			<g>
				<line class="st4" x1="171.7" y1="169.1" x2="171.7" y2="177"/>
				<line class="st4" x1="192.6" y1="169.1" x2="192.6" y2="177"/>
			</g>
		</g>
	</g>
	<g>
		<g>
			<g>
				<path class="st4" d="M297.7,193.6h-17.4V146c0-1.3,1.1-2.4,2.4-2.4h12.6c1.3,0,2.4,1.1,2.4,2.4V193.6z"/>
				<rect x="282.5" y="146.6" class="st4" width="13" height="25.1"/>
				<rect x="282.5" y="173.8" class="st4" width="13" height="2.1"/>
			</g>
			<g>
				<g>
					<path class="st4" d="M318.1,193.6h-9.9c-1.3,0-2.4-1.1-2.4-2.4v-26.8c0-1.3,1.1-2.4,2.4-2.4h9.9c1.3,0,2.4,1.1,2.4,2.4v26.8
						C320.5,192.5,319.4,193.6,318.1,193.6z"/>
					<g>
						<line class="st4" x1="305.9" y1="165.3" x2="320.5" y2="165.3"/>
						<line class="st4" x1="305.9" y1="189.6" x2="320.5" y2="189.6"/>
					</g>
					<circle class="st4" cx="313.2" cy="191.6" r="0.7"/>
				</g>
				<g>
					<path class="st5" d="M311.6,172.9v2.6h-2.6v-2.6H311.6 M312.7,171.9h-4.6v4.6h4.6V171.9L312.7,171.9z"/>
					<rect x="309.6" y="173.4" class="st5" width="1.5" height="1.5"/>
					<rect x="313.6" y="177.4" class="st5" width="0.9" height="0.9"/>
					<rect x="313.6" y="177.4" class="st5" width="0.9" height="0.9"/>
					<rect x="315.4" y="177.4" class="st5" width="0.9" height="0.9"/>
					<rect x="317.2" y="177.4" class="st5" width="0.9" height="0.9"/>
					<rect x="314.5" y="178.3" class="st5" width="0.9" height="0.9"/>
					<rect x="316.3" y="178.3" class="st5" width="0.9" height="0.9"/>
					<rect x="313.6" y="179.2" class="st5" width="0.9" height="0.9"/>
					<rect x="313.6" y="179.2" class="st5" width="0.9" height="0.9"/>
					<rect x="315.4" y="179.2" class="st5" width="0.9" height="0.9"/>
					<rect x="317.2" y="179.2" class="st5" width="0.9" height="0.9"/>
					<rect x="314.5" y="180.2" class="st5" width="0.9" height="0.9"/>
					<rect x="316.3" y="180.2" class="st5" width="0.9" height="0.9"/>
					<rect x="313.6" y="181.1" class="st5" width="0.9" height="0.9"/>
					<rect x="313.6" y="181.1" class="st5" width="0.9" height="0.9"/>
					<rect x="315.4" y="181.1" class="st5" width="0.9" height="0.9"/>
					<rect x="317.2" y="181.1" class="st5" width="0.9" height="0.9"/>
					<path class="st5" d="M311.6,178.4v2.6h-2.6v-2.6H311.6 M312.7,177.4h-4.6v4.6h4.6V177.4L312.7,177.4z"/>
					<rect x="309.6" y="178.9" class="st5" width="1.5" height="1.5"/>
					<path class="st5" d="M317.1,172.9v2.6h-2.6v-2.6H317.1 M318.2,171.9h-4.6v4.6h4.6V171.9L318.2,171.9z"/>
					<rect x="315.1" y="173.4" class="st5" width="1.5" height="1.5"/>
				</g>
			</g>
		</g>
	</g>
	<g>
		<g>
			<path class="st4" d="M499.4,177.1h-35.8c-1.3,0-2.3-1-2.3-2.3v-20.9c0-1.3,1-2.3,2.3-2.3h35.8c1.3,0,2.3,1,2.3,2.3v20.9
				C501.7,176.1,500.7,177.1,499.4,177.1z"/>
			<line class="st4" x1="474.9" y1="183.3" x2="488.2" y2="183.3"/>
			<polygon class="st4" points="483.9,177.1 479.2,177.1 477.5,183.3 485.6,183.3 			"/>
			<line class="st4" x1="501.7" y1="174.8" x2="461.4" y2="174.8"/>
			<line class="st4" x1="501.7" y1="153.8" x2="461.4" y2="153.8"/>
		</g>
		<line class="st4" x1="480.6" y1="168.8" x2="482.5" y2="170.7"/>
		<polyline class="st4" points="480.5,170.6 480.5,168.7 482.3,168.7 		"/>
	</g>
	<g>
		<g>
			<g>
				<g>
					<circle class="st4" cx="558.8" cy="179.3" r="0.5"/>
					<path class="st4" d="M566.9,180.9h-16.3c-1.3,0-2.4-1.1-2.4-2.4V155c0-1.3,1.1-2.4,2.4-2.4h16.3c1.3,0,2.4,1.1,2.4,2.4v23.5
						C569.3,179.9,568.2,180.9,566.9,180.9z"/>
					<line class="st4" x1="548.3" y1="154.4" x2="569.3" y2="154.4"/>
					<line class="st4" x1="548.3" y1="177.7" x2="569.3" y2="177.7"/>
				</g>
				<g>
					<path class="st4" d="M561.6,167.5c-0.5-0.3-0.7-0.6-0.8-1.2c0-0.5,0.2-1,0.6-1.3l0.1-0.1c0,0,0-0.1-0.1-0.2
						c-0.3-0.3-0.7-0.5-1.2-0.5c-0.1,0-0.2,0-0.3,0c-0.4,0.1-0.7,0.3-1.1,0.3c-0.1,0-0.2,0-0.3-0.1c-0.3-0.1-0.6-0.2-0.9-0.2
						c0,0-0.1,0-0.1,0c-0.4,0-0.8,0.2-1.1,0.5c-0.6,0.6-0.6,1.4-0.5,2.2c0.1,0.7,0.5,1.3,0.9,1.9c0.2,0.3,0.6,0.5,0.9,0.5
						c0.2,0,0.4-0.1,0.6-0.2c0.2-0.1,0.4-0.1,0.6-0.1c0.2,0,0.4,0,0.5,0.1c0.1,0,0.2,0.1,0.3,0.1c0.1,0,0.2,0.1,0.3,0.1
						c0.2,0,0.4-0.1,0.5-0.2c0.4-0.3,0.8-0.8,1-1.3c0,0,0-0.1,0.1-0.1C561.7,167.7,561.7,167.6,561.6,167.5z"/>
					<path class="st4" d="M558.8,163.3C558.8,163.3,558.8,163.3,558.8,163.3C558.9,163.3,558.9,163.3,558.8,163.3
						c1.1-0.2,1.2-1,1.2-1.3c0,0,0-0.1-0.1-0.1c0,0,0,0,0,0c0,0,0,0,0,0C558.9,162.1,558.7,162.9,558.8,163.3
						C558.7,163.2,558.8,163.3,558.8,163.3z"/>
				</g>
			</g>
			<g>
				<g>
					<path class="st4" d="M581.6,180.9h-6.1c-1.3,0-2.4-1.1-2.4-2.4v-18.6c0-1.3,1.1-2.4,2.4-2.4h6.1c1.3,0,2.4,1.1,2.4,2.4v18.6
						C584,179.9,582.9,180.9,581.6,180.9z"/>
					<g>
						<line class="st4" x1="573.1" y1="160" x2="584" y2="160"/>
						<line class="st4" x1="573.1" y1="178" x2="584" y2="178"/>
					</g>
					<circle class="st4" cx="578.6" cy="179.4" r="0.5"/>
				</g>
				<g>
					<g>
						<path class="st4" d="M576.1,170.6c0,0.2-0.2,0.4-0.4,0.4c-0.2,0-0.4-0.2-0.4-0.4v-2.3c0-0.2,0.2-0.4,0.4-0.4
							c0.2,0,0.4,0.2,0.4,0.4V170.6z"/>
						<path class="st4" d="M581.7,170.6c0,0.2-0.2,0.4-0.4,0.4c-0.2,0-0.4-0.2-0.4-0.4v-2.3c0-0.2,0.2-0.4,0.4-0.4
							c0.2,0,0.4,0.2,0.4,0.4V170.6z"/>
					</g>
					<path class="st4" d="M576.4,168h4.2v3.5H580v1.4c0,0.2-0.2,0.4-0.4,0.4s-0.4-0.2-0.4-0.4v-1.4h-1.4v1.4c0,0.2-0.2,0.4-0.4,0.4
						c-0.2,0-0.4-0.2-0.4-0.4v-1.4h-0.7V168z"/>
					<path class="st4" d="M580.7,167.6h-4.2v-0.6c0-0.6,0.5-1.1,1.1-1.1v-0.7c0-0.2,0.2-0.4,0.4-0.4s0.4,0.2,0.4,0.4v0.7h0.7v-0.7
						c0-0.2,0.2-0.4,0.4-0.4c0.2,0,0.4,0.2,0.4,0.4v0.7c0.6,0,1.1,0.5,1.1,1.1V167.6z"/>
				</g>
			</g>
		</g>
	</g>
	<g>
		<g>
			<path class="st4" d="M733.4,162.4c-0.3-0.3-0.5-0.5-0.8-0.8c-0.1-0.1-0.2-0.2-0.3-0.3c-0.4-0.4-1.1-0.4-1.5,0
				c-0.3,0.2-0.5,0.5-0.8,0.8c0,0,0,0,0,0c0,0,0,0,0,0c0,0,0,0,0,0c0,0-0.1,0-0.1,0c0,0-0.1,0-0.1,0c0,0-0.1,0-0.1,0c0,0,0,0,0,0
				c0,0-0.1,0-0.1,0c0,0-0.1,0-0.1,0c-0.1,0-0.2,0-0.2-0.1c0,0-0.1,0-0.1,0c0,0,0,0,0,0c0,0,0,0,0,0c-0.2-0.1-0.3-0.2-0.5-0.3
				c-0.2-0.1-0.4-0.2-0.5-0.3c-0.4-0.3-0.7-0.6-1-1c-0.1-0.1-0.2-0.3-0.3-0.4c-0.1-0.2-0.2-0.4-0.3-0.5c0,0,0,0,0-0.1
				c0,0,0-0.1,0-0.1c0-0.1-0.1-0.1-0.1-0.2c0-0.1,0-0.1,0-0.2c0,0,0,0,0,0c0,0,0-0.1,0-0.1c0-0.1,0-0.1,0-0.2c0,0,0,0,0,0
				c0,0,0-0.1,0-0.1c0,0,0,0,0,0c0,0,0,0,0,0c0,0,0,0,0,0c0,0,0,0,0,0c0.1-0.1,0.3-0.3,0.4-0.4c0.1-0.1,0.2-0.2,0.4-0.4
				c0.4-0.4,0.4-1.1,0-1.5c-0.3-0.3-0.6-0.6-0.8-0.8c-0.1-0.1-0.2-0.2-0.3-0.3c-0.4-0.4-1-0.4-1.4-0.1c-0.4,0.2-0.6,0.6-0.9,0.9
				c-0.3,0.3-0.6,0.6-0.8,1c-0.2,0.6-0.2,1.2,0,1.8c0.2,0.7,0.5,1.4,0.9,2.1c1,1.6,2.3,2.9,3.9,3.9c0.6,0.4,1.3,0.7,2.1,0.9
				c0.6,0.1,1.3,0.2,1.9,0c0.3-0.1,0.6-0.3,0.8-0.5c0,0,0-0.1,0-0.1c0.3-0.3,0.5-0.5,0.8-0.8c0.1-0.1,0.2-0.2,0.3-0.3
				C733.8,163.5,733.8,162.8,733.4,162.4z M726.3,158.8C726.3,158.8,726.3,158.7,726.3,158.8L726.3,158.8z"/>
			<path class="st4" d="M732.2,151.6c-1.6-0.8-3.4-1.1-5.2-0.9c-1.8,0.2-3.5,0.9-4.9,2c-2.9,2.3-4.2,6.4-3.1,10
				c0.1,0.4,0.3,0.8,0.5,1.2c-0.5,0.9-1,1.9-1.5,2.8c-0.1,0.1-0.2,0.3-0.2,0.4c-0.2,0.5,0.2,1,0.7,0.9c1.1-0.3,2.2-0.6,3.3-0.8
				c0.1,0,0.1,0,0.2,0c1.5,1.3,3.3,2.1,5.3,2.3c1.8,0.2,3.7-0.2,5.3-1.1c3.1-1.7,5.1-5,5-8.6C737.4,156.4,735.3,153.1,732.2,151.6z"
				/>
		</g>
	</g>
	<g>
		<g>
			<path class="st6" d="M650.9,155.1l0.2-0.2c-1.2-4.3-3.8-6.4-7.7-6.4c-3.9,0-6.4,2.1-7.7,6.4l0.2,0.2l-0.1,5.7
				c-1,1.5-2.9,0.3-2.9-0.6c0-1.5,0-3,0-4.3c0-0.8,0.4-1.2,1.3-1.4c1.9-9.5,15.7-10.4,18.1-0.3c1.1,0,1.7,0.4,1.8,1.3l-0.1,4.2
				c0,0.7-0.3,1.1-1,1.5c-0.9,3.8-3.6,6-8.3,6.8c-0.1,0.8-0.8,1.3-1.6,1.3c-0.9,0-1.6-0.7-1.6-1.6s0.7-1.6,1.6-1.6
				c0.6,0,1.2,0.4,1.5,0.9c4.3-0.6,6.8-2.5,7.4-5.7c-0.3,0.1-0.6-0.1-1.1-0.7L650.9,155.1z"/>
		</g>
	</g>
	<g>
		<line class="st7" x1="304.3" y1="553.3" x2="326.9" y2="553.3"/>
		<line class="st7" x1="304.3" y1="551" x2="326.9" y2="551"/>
		<path class="st7" d="M320.2,539.2c-1-0.9-2.7-1.4-4.6-1.4c-1.9,0-3.6,0.6-4.6,1.4h-6.7v6.3v7.8h22.6v-7.8v-6.3H320.2z"/>
		<path class="st7" d="M315.6,543.6c0.2,0,0.3-0.1,0.3-0.2l0.2-2c0-0.2-0.2-0.4-0.5-0.4c-0.3,0-0.5,0.2-0.5,0.4l0.2,2
			C315.3,543.5,315.4,543.6,315.6,543.6L315.6,543.6z"/>
		<path class="st7" d="M314.5,544.3c0.1-0.2,0.1-0.3,0-0.4l-1.6-1.1c-0.2-0.1-0.4,0-0.6,0.3c-0.1,0.3-0.1,0.5,0.1,0.6l1.8,0.8
			C314.3,544.5,314.4,544.4,314.5,544.3L314.5,544.3z"/>
		<path class="st7" d="M316.7,544.3c0.1,0.2,0.2,0.2,0.4,0.2l1.8-0.8c0.2-0.1,0.2-0.4,0.1-0.6c-0.1-0.3-0.4-0.4-0.6-0.3l-1.6,1.1
			C316.6,543.9,316.6,544.1,316.7,544.3L316.7,544.3z"/>
		<path class="st7" d="M315.6,546.1c0.2,0,0.3,0.1,0.3,0.2l0.2,2c0,0.2-0.2,0.4-0.5,0.4c-0.3,0-0.5-0.2-0.5-0.4l0.2-2
			C315.3,546.2,315.4,546.1,315.6,546.1L315.6,546.1z"/>
		<path class="st7" d="M316.7,545.5c0.1-0.2,0.2-0.2,0.4-0.2l1.8,0.8c0.2,0.1,0.2,0.4,0.1,0.6c-0.1,0.3-0.4,0.4-0.6,0.3l-1.6-1.1
			C316.6,545.8,316.6,545.7,316.7,545.5L316.7,545.5z"/>
		<path class="st7" d="M314.5,545.5c0.1,0.2,0.1,0.3,0,0.4l-1.6,1.1c-0.2,0.1-0.4,0-0.6-0.3c-0.1-0.3-0.1-0.5,0.1-0.6l1.8-0.8
			C314.3,545.3,314.4,545.3,314.5,545.5L314.5,545.5z"/>
		<rect x="304.3" y="566.1" class="st7" width="22.6" height="14.3"/>
		<rect x="304.3" y="563.8" class="st7" width="22.6" height="2.3"/>
		<line class="st7" x1="305.7" y1="553.3" x2="305.7" y2="563.8"/>
		<line class="st7" x1="325.5" y1="553.3" x2="325.5" y2="563.8"/>
		<line class="st7" x1="306.9" y1="553.3" x2="306.9" y2="563.8"/>
		<line class="st7" x1="324.3" y1="553.3" x2="324.3" y2="563.8"/>
	</g>
	<g>
		<path class="st7" d="M470.3,558.2l-3.2,5.1l-3.7,1.5l0-0.5l2.9-1.5l2.5-4.9l0,0c0.2-0.3,0.5-0.5,0.8-0.5h0.7V558.2z"/>
		<polygon class="st7" points="465.6,562.1 463.1,563.7 459.7,563.7 459.7,557.7 465.6,557.7 		"/>
		<path class="st7" d="M458.2,565.2h-27.6l4-8.4c0.2-0.5,0.7-0.8,1.2-0.8H453c0.5,0,1,0.3,1.2,0.8L458.2,565.2z"/>
		<path class="st7" d="M462.8,566.1c0-0.5-0.4-0.9-0.9-0.9h-2.6h-29.7h-2.6c-0.5,0-0.9,0.4-0.9,0.9v1c0,0.5,0.4,0.9,0.9,0.9h2.6v8.4
			c0,0.4,0.3,0.7,0.7,0.7h28.3c0.4,0,0.7-0.3,0.7-0.7v-8.4h2.6c0.5,0,0.9-0.4,0.9-0.9V566.1z"/>
		<path class="st7" d="M434.8,581.2h-2.1c-1.1,0-2-0.9-2-2v-2h6.2v2C436.8,580.3,435.9,581.2,434.8,581.2z"/>
		<path class="st7" d="M456.1,581.2H454c-1.1,0-2-0.9-2-2v-2h6.2v2C458.2,580.3,457.3,581.2,456.1,581.2z"/>
		<line class="st7" x1="438.4" y1="570.8" x2="450.4" y2="570.8"/>
		<line class="st7" x1="432.6" y1="568" x2="456.2" y2="568"/>
		<line class="st7" x1="438.4" y1="572.3" x2="450.4" y2="572.3"/>
		<line class="st7" x1="438.4" y1="573.8" x2="450.4" y2="573.8"/>
		<path class="st7" d="M456.3,565.2h-23.8l3.4-7.1c0.2-0.4,0.6-0.6,1-0.6h15c0.4,0,0.8,0.2,1,0.6L456.3,565.2z"/>
		<path class="st7" d="M451.3,565.2c0-1.7-1.3-3-3-3c-1.7,0-3,1.3-3,3"/>
		<path class="st7" d="M435.2,572.3c0-0.8-0.7-1.5-1.5-1.5c-0.8,0-1.5,0.7-1.5,1.5c0,0.8,0.7,1.5,1.5,1.5
			C434.5,573.8,435.2,573.1,435.2,572.3z"/>
		<path class="st7" d="M456.7,572.3c0-0.8-0.7-1.5-1.5-1.5c-0.8,0-1.5,0.7-1.5,1.5c0,0.8,0.7,1.5,1.5,1.5
			C456,573.8,456.7,573.1,456.7,572.3z"/>
		<polygon class="st7" points="470.3,548.4 458,548.4 458,550 470.3,550 470.3,565.2 466.8,565.2 466.8,566.8 470.3,566.8 
			470.3,581.2 475,581.2 475,550 475,548.4 		"/>
		<path class="st7" d="M470.3,555.6c-0.1,0-0.1,0-0.2,0c-0.9,0-1.6-0.7-1.6-1.6v-0.5c0-0.2,0.1-0.5,0.2-0.7h-1.1V552h2.7"/>
		<line class="st7" x1="469.1" y1="560" x2="470.3" y2="563.7"/>
		<rect x="461.9" y="557.7" class="st7" width="1.5" height="2.1"/>
		<rect x="461.9" y="560.7" class="st7" width="1.5" height="1"/>
	</g>
	<g>
		<rect x="568.1" y="548.4" class="st7" width="38.2" height="28.8"/>
		<polygon class="st7" points="606.3,577.2 623.7,577.2 623.7,562.5 617.7,554.2 606.3,554.2 		"/>
		<path class="st7" d="M582.3,577.2c0-1.1-0.9-2-2-2c-1.1,0-2,0.9-2,2s0.9,2,2,2C581.5,579.2,582.3,578.3,582.3,577.2z"/>
		<path class="st7" d="M584.4,577.2c0-2.2-1.8-4-4-4c-2.2,0-4,1.8-4,4c0,2.2,1.8,4,4,4C582.6,581.2,584.4,579.4,584.4,577.2z"/>
		<path class="st7" d="M616.9,577.2c0-1.1-0.9-2-2-2c-1.1,0-2,0.9-2,2s0.9,2,2,2C616.1,579.2,616.9,578.3,616.9,577.2z"/>
		<path class="st7" d="M619,577.2c0-2.2-1.8-4-4-4c-2.2,0-4,1.8-4,4c0,2.2,1.8,4,4,4C617.2,581.2,619,579.4,619,577.2z"/>
		<line class="st7" x1="601.4" y1="554.2" x2="574.8" y2="554.2"/>
		<line class="st7" x1="601.4" y1="557.7" x2="587.7" y2="557.7"/>
		<polyline class="st7" points="623.7,565.2 611.9,565.2 611.9,554.2 		"/>
		<rect x="619.8" y="570" class="st7" width="3.9" height="2.7"/>
		<rect x="568.1" y="570" class="st7" width="3.9" height="2.7"/>
	</g>
	<g>
		<g>
			<g>
				<g>
					<path class="st4" d="M86.5,191.9v-8.5c0-1.1-0.7-2-1.7-2.4v-1.9h-1.7v1.9c-1,0.4-1.7,1.3-1.7,2.4v8.5H86.5z"/>
					<path class="st4" d="M91.6,191.9v-8.5c0-1.1-0.7-2-1.7-2.4v-1.9h-1.7v1.9c-1,0.4-1.7,1.3-1.7,2.4v8.5H91.6z"/>
					<path class="st4" d="M96.7,191.9v-8.5c0-1.1-0.7-2-1.7-2.4v-1.9h-1.7v1.9c-1,0.4-1.7,1.3-1.7,2.4v8.5H96.7z"/>
					<path class="st4" d="M101.8,191.9v-8.5c0-1.1-0.7-2-1.7-2.4v-1.9h-1.7v1.9c-1,0.4-1.7,1.3-1.7,2.4v8.5H101.8z"/>
				</g>
				<g>
					<rect x="67.8" y="188.5" class="st4" width="4.3" height="3.4"/>
					<rect x="63.5" y="188.5" class="st4" width="4.3" height="3.4"/>
					<rect x="72" y="188.5" class="st4" width="4.3" height="3.4"/>
					<rect x="72" y="185.1" class="st4" width="4.3" height="3.4"/>
					<rect x="67.8" y="185.1" class="st4" width="4.3" height="3.4"/>
					<rect x="63.5" y="185.1" class="st4" width="4.3" height="3.4"/>
					<rect x="59.3" y="185.1" class="st4" width="4.3" height="3.4"/>
					<rect x="59.3" y="188.5" class="st4" width="4.3" height="3.4"/>
				</g>
			</g>
			<g>
				<g>
					<path class="st4" d="M62.7,174h-3.4v-7.3l0.6-0.6c0.2-0.2,0.2-0.4,0.2-0.6V163h1.7v2.6c0,0.2,0.1,0.4,0.2,0.6l0.6,0.6V174z"/>
					<path class="st4" d="M66.1,174h-3.4v-7.3l0.6-0.6c0.2-0.2,0.2-0.4,0.2-0.6V163h1.7v2.6c0,0.2,0.1,0.4,0.2,0.6l0.6,0.6V174z"/>
					<path class="st4" d="M69.5,174h-3.4v-7.3l0.6-0.6c0.2-0.2,0.2-0.4,0.2-0.6V163h1.7v2.6c0,0.2,0.1,0.4,0.2,0.6l0.6,0.6V174z"/>
					<path class="st4" d="M72.9,174h-3.4v-7.3l0.6-0.6c0.2-0.2,0.2-0.4,0.2-0.6V163H72v2.6c0,0.2,0.1,0.4,0.2,0.6l0.6,0.6V174z"/>
					<path class="st4" d="M76.3,174h-3.4v-7.3l0.6-0.6c0.2-0.2,0.2-0.4,0.2-0.6V163h1.7v2.6c0,0.2,0.1,0.4,0.2,0.6l0.6,0.6V174z"/>
					<path class="st4" d="M79.7,174h-3.4v-7.3l0.6-0.6c0.2-0.2,0.2-0.4,0.2-0.6V163h1.7v2.6c0,0.2,0.1,0.4,0.2,0.6l0.6,0.6V174z"/>
				</g>
				<g>
					<rect x="89.9" y="166.1" class="st4" width="1.7" height="7.9"/>
					<rect x="93.3" y="166.1" class="st4" width="1.7" height="7.9"/>
					<rect x="96.7" y="166.1" class="st4" width="1.7" height="7.9"/>
					<rect x="100.1" y="166.1" class="st4" width="1.7" height="7.9"/>
				</g>
			</g>
			<polygon class="st4" points="55,174 55.9,174 61,174 64.4,174 69.5,174 72.9,174 78,174 86.5,174 89.9,174 93.3,174 96.7,174 
				100.1,174 106,174 106,175.7 55,175.7 			"/>
			<g>
				<g>
					<rect x="98.2" y="150.2" class="st4" width="2.7" height="7.7"/>
					<rect x="93.6" y="150.2" class="st4" width="2.7" height="7.7"/>
					<rect x="89" y="150.2" class="st4" width="2.7" height="7.7"/>
				</g>
				<g>
					<rect x="73.7" y="152.8" class="st4" width="3.4" height="5.1"/>
					<rect x="70.3" y="150.7" class="st4" width="3.4" height="7.2"/>
					<rect x="66.9" y="150.7" class="st4" width="3.4" height="7.2"/>
					<rect x="63.5" y="152.8" class="st4" width="3.4" height="5.1"/>
					<rect x="60.1" y="152.8" class="st4" width="3.4" height="5.1"/>
				</g>
			</g>
			<polygon class="st4" points="106,159.6 55,159.6 55,157.9 58.4,157.9 63.5,157.9 68.6,157.9 73.7,157.9 78.8,157.9 83.9,157.9 
				91.6,157.9 95.8,157.9 100.1,157.9 104.3,157.9 106,157.9 			"/>
			<g>
				<polygon class="st4" points="106,193.8 55,193.8 55,191.9 61,191.9 66.9,191.9 72.9,191.9 78.8,191.9 82.2,191.9 85.6,191.9 
					89,191.9 92.4,191.9 95.8,191.9 99.2,191.9 102.6,191.9 106,191.9 				"/>
				<g>
					<rect x="56.7" y="193.8" class="st4" width="1.7" height="2.3"/>
					<rect x="102.6" y="193.8" class="st4" width="1.7" height="2.3"/>
				</g>
			</g>
		</g>
	</g>
	<g>
		<g>
			<rect x="537.1" y="358.5" class="st7" width="37" height="14.3"/>
			<rect x="535.2" y="356.1" class="st7" width="40.7" height="2.3"/>
			<rect x="540.4" y="353.5" class="st7" width="14.1" height="2.6"/>
			<rect x="542" y="345.4" class="st7" width="10.8" height="8.1"/>
			<rect x="544.3" y="344.6" class="st7" width="1.1" height="0.8"/>
			<rect x="542" y="342.4" class="st7" width="5.7" height="2.2"/>
			<line class="st7" x1="543" y1="348.1" x2="545.5" y2="348.1"/>
			<line class="st7" x1="546.2" y1="348.1" x2="548.7" y2="348.1"/>
			<line class="st7" x1="549.3" y1="348.1" x2="551.8" y2="348.1"/>
			<line class="st7" x1="543" y1="349.3" x2="545.5" y2="349.3"/>
			<line class="st7" x1="546.2" y1="349.3" x2="548.7" y2="349.3"/>
			<line class="st7" x1="549.3" y1="349.3" x2="551.8" y2="349.3"/>
			<line class="st7" x1="543" y1="350.5" x2="545.5" y2="350.5"/>
			<line class="st7" x1="546.2" y1="350.5" x2="548.7" y2="350.5"/>
			<line class="st7" x1="549.3" y1="350.5" x2="551.8" y2="350.5"/>
		</g>
	</g>
	<g>
		<g>
			<g>
				<g>
					<path class="st8" d="M665.4,364.8v-1c-0.5,0-1.1-0.2-1.4-0.5l0.2-0.4c0.3,0.3,0.8,0.4,1.3,0.4c0.8,0,1.4-0.5,1.4-1.2
						c0-0.7-0.4-1.1-1.2-1.4c-1-0.4-1.6-0.9-1.6-1.7c0-0.8,0.6-1.4,1.4-1.5v-1.1h0.4v1.1c0.6,0,1,0.2,1.2,0.4l-0.2,0.4
						c-0.2-0.1-0.6-0.4-1.2-0.4c-0.9,0-1.2,0.6-1.2,1.1c0,0.6,0.4,0.9,1.3,1.3c0.9,0.4,1.5,0.9,1.5,1.8c0,0.8-0.5,1.5-1.5,1.7v1.1
						H665.4z"/>
				</g>
			</g>
			<circle class="st4" cx="645.4" cy="363.4" r="11.6"/>
			<ellipse class="st4" cx="645.4" cy="363.4" rx="7.9" ry="11.6"/>
			<ellipse class="st4" cx="645.4" cy="363.4" rx="3.4" ry="11.6"/>
			<ellipse class="st4" cx="645.4" cy="363.4" rx="11.6" ry="7.2"/>
			<line class="st4" x1="633.8" y1="363.4" x2="657.1" y2="363.4"/>
			<circle class="st4" cx="665.7" cy="360.5" r="8.6"/>
			<circle class="st4" cx="665.7" cy="360.5" r="6.8"/>
		</g>
	</g>
	<g>
		<g>
			<g>
				<g>
					<path class="st8" d="M337.5,364.8v-1c-0.5,0-1.1-0.2-1.4-0.5l0.2-0.4c0.3,0.3,0.8,0.4,1.3,0.4c0.8,0,1.4-0.5,1.4-1.2
						c0-0.7-0.4-1.1-1.2-1.4c-1-0.4-1.6-0.9-1.6-1.7c0-0.8,0.6-1.4,1.4-1.5v-1.1h0.4v1.1c0.6,0,1,0.2,1.2,0.4l-0.2,0.4
						c-0.2-0.1-0.6-0.4-1.2-0.4c-0.9,0-1.2,0.6-1.2,1.1c0,0.6,0.4,0.9,1.3,1.3c0.9,0.4,1.5,0.9,1.5,1.8c0,0.8-0.5,1.5-1.5,1.7v1.1
						H337.5z"/>
				</g>
			</g>
			<circle class="st4" cx="317.5" cy="363.3" r="11.6"/>
			<ellipse class="st4" cx="317.5" cy="363.3" rx="7.9" ry="11.6"/>
			<ellipse class="st4" cx="317.5" cy="363.3" rx="3.4" ry="11.6"/>
			<ellipse class="st4" cx="317.5" cy="363.3" rx="11.6" ry="7.2"/>
			<line class="st4" x1="305.9" y1="363.3" x2="329.2" y2="363.3"/>
			<circle class="st4" cx="337.8" cy="360.4" r="8.6"/>
			<circle class="st4" cx="337.8" cy="360.4" r="6.8"/>
		</g>
	</g>
	<g>
		<g>
			<path class="st9" d="M204.4,561.8l-3.4-2l-0.2-0.1 M194.2,563.2l0.6-6.9l1.2-2.7 M201.9,581.2l-1.3-7 M202.7,570.2l1.6,11
				 M196.6,564.2l-4.7-6.7c0-0.4,0.1-0.7,0.2-1l2.2-5.6c0.7-1.4,2.4-2.2,3.9-2.1c1.9,0.1,3.4,2.8,3,4.4l-2.1,9.6 M191.8,574.2
				l-2.3,7 M191.8,581.2l2.3-6.9 M201.6,541c-0.4-0.8-1.3-1.3-2.4-1.4c-2.8-0.3-3.8,1.6-3.3,4.2c0.3,1.6,1.1,2.8,2.8,3
				c1.3,0.2,2.4-0.3,2.9-1.6C201.8,544.2,202.1,542,201.6,541L201.6,541z M195.8,543.4c-0.6,1.7-2.1,1.1-2.1,1.1
				c-0.3,1-0.1,1.6,0.1,2c0.6,1,2.3,0.8,2.7,0.8 M195.8,543.9c2.7,1.4,2.7-3.3,6.1-1.4"/>
			<g>
				<polygon class="st10" points="201.9,563 191.2,563 190.2,574.2 203,574.2 201.9,563 				"/>
				<path class="st10" d="M199,564.4c0,0,0,0.3,0-1.2c0-0.6-0.3-1.3-0.7-1.7c-0.5-0.5-1.1-0.7-1.7-0.7c0,0,0,0,0,0
					c-0.6,0-1.3,0.3-1.7,0.7c-0.5,0.5-0.7,1.1-0.7,1.7c0,1.5,0,1.2,0,1.2"/>
			</g>
		</g>
	</g>
	<g>
		<g>
			<rect x="47.2" y="363" class="st7" width="37" height="14.3"/>
			<rect x="45.4" y="360.7" class="st7" width="40.7" height="2.3"/>
			<rect x="50.5" y="358.1" class="st7" width="14.1" height="2.6"/>
			<rect x="52.2" y="350" class="st7" width="10.8" height="8.1"/>
			<rect x="54.5" y="349.1" class="st7" width="1.1" height="0.8"/>
			<rect x="52.2" y="346.9" class="st7" width="5.7" height="2.2"/>
			<line class="st7" x1="53.2" y1="352.7" x2="55.7" y2="352.7"/>
			<line class="st7" x1="56.3" y1="352.7" x2="58.8" y2="352.7"/>
			<line class="st7" x1="59.5" y1="352.7" x2="62" y2="352.7"/>
			<line class="st7" x1="53.2" y1="353.9" x2="55.7" y2="353.9"/>
			<line class="st7" x1="56.3" y1="353.9" x2="58.8" y2="353.9"/>
			<line class="st7" x1="59.5" y1="353.9" x2="62" y2="353.9"/>
			<line class="st7" x1="53.2" y1="355.1" x2="55.7" y2="355.1"/>
			<line class="st7" x1="56.3" y1="355.1" x2="58.8" y2="355.1"/>
			<line class="st7" x1="59.5" y1="355.1" x2="62" y2="355.1"/>
		</g>
	</g>
	<g>
		<g>
			<g>
				<path class="st11" d="M149.7,360.4h-11.6c-0.4,0-0.8,0.4-0.8,0.8v7.8c0,0.4,0.4,0.8,0.8,0.8h10.8c0.4,0,0.8,0.4,0.8,0.8V387
					c0,0.4,0.4,0.8,0.8,0.8h8.2c0.4,0,0.8-0.4,0.8-0.8v-17.1v-8.7c0-0.4-0.4-0.8-0.8-0.8H149.7z"/>
				<path class="st11" d="M156.9,368.6h-17.8c-0.4,0-0.7-0.3-0.7-0.7v-5.5c0-0.4,0.3-0.7,0.7-0.7h17.8c0.4,0,0.7,0.3,0.7,0.7v5.5
					C157.6,368.3,157.3,368.6,156.9,368.6z"/>
				<path class="st11" d="M157.3,371.5h-5.6c-0.2,0-0.4-0.2-0.4-0.4v-0.9c0-0.2,0.2-0.4,0.4-0.4h5.6c0.2,0,0.4,0.2,0.4,0.4v0.9
					C157.6,371.3,157.5,371.5,157.3,371.5z"/>
				<line class="st11" x1="149.7" y1="386.4" x2="159.5" y2="386.4"/>
				<g>
					<line class="st12" x1="140.6" y1="363" x2="140.6" y2="367.3"/>
					<line class="st12" x1="144.8" y1="363" x2="144.8" y2="367.3"/>
					<line class="st12" x1="145.5" y1="363" x2="145.5" y2="367.3"/>
					<line class="st12" x1="147.9" y1="363" x2="147.9" y2="367.3"/>
					<line class="st12" x1="148.4" y1="363" x2="148.4" y2="367.3"/>
					<line class="st12" x1="146.9" y1="363" x2="146.9" y2="367.3"/>
					<line class="st12" x1="152.4" y1="363" x2="152.4" y2="367.3"/>
					<line class="st12" x1="151.8" y1="363" x2="151.8" y2="367.3"/>
					<line class="st12" x1="151.3" y1="363" x2="151.3" y2="367.3"/>
					<line class="st12" x1="155.4" y1="363" x2="155.4" y2="367.3"/>
					<line class="st12" x1="142.3" y1="363" x2="142.3" y2="367.3"/>
					<line class="st12" x1="144" y1="363" x2="144" y2="367.3"/>
					<line class="st12" x1="148.9" y1="363" x2="148.9" y2="367.3"/>
					<line class="st12" x1="154" y1="363" x2="154" y2="367.3"/>
					<line class="st12" x1="150.8" y1="363" x2="150.8" y2="367.3"/>
				</g>
			</g>
		</g>
	</g>
	<g>
		<g>
			<g>
				<g>
					<polyline class="st11" points="224,373.6 247.2,373.6 245.1,383.1 230.8,383.1 					"/>
					<polyline class="st11" points="223.7,371.3 228.5,371.3 230.8,383.1 					"/>
					<line class="st11" x1="229.6" y1="377" x2="246.5" y2="377"/>
					<line class="st11" x1="232.8" y1="379.8" x2="245.8" y2="379.8"/>
					<line class="st11" x1="238.4" y1="373.6" x2="238.4" y2="383.1"/>
					<line class="st11" x1="243.1" y1="373.6" x2="241.8" y2="383.1"/>
					<line class="st11" x1="233" y1="373.6" x2="233.7" y2="383.1"/>
					<polygon class="st11" points="242.8,370 238.4,372.2 233.9,370 233.9,364 238.4,361.8 242.8,364 					"/>
					<polygon class="st11" points="242.8,370 238.4,372.2 238.4,366.3 242.8,364 					"/>
					<polygon class="st11" points="233.9,370 238.4,372.2 238.4,366.3 233.9,364 					"/>
					<polygon class="st11" points="235.5,366.9 236.9,367.6 236.9,365.5 235.5,364.8 					"/>
					<polygon class="st11" points="235.5,368.8 236.9,369.5 236.9,368.5 235.5,367.8 					"/>
					<polygon class="st11" points="239.9,362.6 241.3,363.2 236.9,365.5 235.5,364.8 					"/>
				</g>
				<g>
					<path class="st11" d="M241.6,359.1l-3.2-1c-0.9-0.3-1.6-1.1-1.6-2l7.1,1.8L241.6,359.1z"/>
					<path class="st11" d="M252.8,364.4l-6,1.3c-0.6,0.1-1.1,0.3-1.6,0.6l-2.3,1.3l-0.1-2.1l1.4-0.8c1-0.6,1.4-1.9,0.8-2.9
						c-0.6-1-1.9-1.4-2.9-0.8l-3.3,1.9c-0.6,0.3-2.6,0.2-3.2-0.4l4.6-2.6l3.6-2l7.3,1.9c0.2,0,0.3,0,0.5-0.1l2.3-1.3l2.3,4.1
						L252.8,364.4z"/>
				</g>
			</g>
		</g>
	</g>
	<line class="st13" x1="400.2" y1="0" x2="400.2" y2="461.2"/>
	<path class="st14" d="M494.9,509.3H307c-3.7,0-6.6-3-6.6-6.6v-31.1c0-3.7,3-6.6,6.6-6.6h187.9c3.7,0,6.6,3,6.6,6.6v31.1
		C501.5,506.4,498.6,509.3,494.9,509.3z"/>
	<path class="st15" d="M494.9,313.2H307c-3.7,0-6.6-3-6.6-6.6v-31.1c0-3.7,3-6.6,6.6-6.6h187.9c3.7,0,6.6,3,6.6,6.6v31.1
		C501.5,310.3,498.6,313.2,494.9,313.2z"/>
	<path class="st16" d="M494.9,118.5H307c-3.7,0-6.6-3-6.6-6.6V80.8c0-3.7,3-6.6,6.6-6.6h187.9c3.7,0,6.6,3,6.6,6.6v31.1
		C501.5,115.6,498.6,118.5,494.9,118.5z"/>
	<g>
		<g>
			<path class="st17" d="M327,505c9.2,0,16.7-7.5,16.7-16.7c0-9.2-7.5-16.7-16.7-16.7c-9.2,0-16.7,7.5-16.7,16.7
				C310.4,497.5,317.8,505,327,505"/>
		</g>
	</g>
	<g>
		<g>
			<g>
				<path class="st17" d="M329.2,307.4c9.2,0,16.7-7.5,16.7-16.7c0-9.2-7.5-16.7-16.7-16.7c-9.2,0-16.7,7.5-16.7,16.7
					C312.6,299.9,320,307.4,329.2,307.4"/>
			</g>
		</g>
	</g>
	<g>
		<g>
			<path class="st17" d="M329.4,113.4c9.2,0,16.7-7.5,16.7-16.7c0-9.2-7.5-16.7-16.7-16.7c-9.2,0-16.7,7.5-16.7,16.7
				C312.7,106,320.2,113.4,329.4,113.4"/>
		</g>
	</g>
	<g>
		<g>
			<path class="st5" d="M124.9,39c0,3.4-2.1,5.4-5.1,5.4c-3.1,0-4.9-2.3-4.9-5.3c0-3.1,2-5.4,5-5.4C123.2,33.7,124.9,36.1,124.9,39z
				 M117.4,39.1c0,2,0.9,3.4,2.5,3.4c1.6,0,2.5-1.5,2.5-3.5c0-1.9-0.9-3.4-2.5-3.4C118.3,35.6,117.4,37.1,117.4,39.1z"/>
			<path class="st5" d="M136.4,40.3c0-1.2-0.1-2.7-0.1-4.2h0c-0.3,1.3-0.8,2.8-1.1,4l-1.3,4H132l-1.1-4c-0.3-1.2-0.7-2.7-0.9-4h0
				c-0.1,1.4-0.1,3-0.2,4.3l-0.2,3.9h-2.2l0.7-10.3h3.1l1,3.4c0.3,1.2,0.6,2.5,0.9,3.7h0c0.3-1.2,0.6-2.6,1-3.7l1.1-3.4h3l0.6,10.3
				h-2.3L136.4,40.3z"/>
			<path class="st5" d="M141.8,44.2V33.9h2.7l2.1,3.8c0.6,1.1,1.2,2.4,1.7,3.5h0c-0.2-1.4-0.2-2.8-0.2-4.3v-3h2.1v10.3h-2.4l-2.2-4
				c-0.6-1.1-1.3-2.4-1.8-3.6l0,0c0.1,1.4,0.1,2.8,0.1,4.5v3.1H141.8z"/>
			<path class="st5" d="M155.9,33.9v10.3h-2.3V33.9H155.9z"/>
			<path class="st5" d="M166.7,43.9c-0.4,0.2-1.4,0.4-2.6,0.4c-3.6,0-5.4-2.2-5.4-5.2c0-3.5,2.5-5.5,5.6-5.5c1.2,0,2.1,0.2,2.5,0.5
				l-0.5,1.9c-0.5-0.2-1.1-0.4-2-0.4c-1.9,0-3.3,1.1-3.3,3.4c0,2.1,1.2,3.4,3.3,3.4c0.7,0,1.5-0.2,1.9-0.3L166.7,43.9z"/>
			<path class="st5" d="M171.8,33.9v4h3.8v-4h2.3v10.3h-2.3v-4.3h-3.8v4.3h-2.3V33.9H171.8z"/>
			<path class="st5" d="M183.7,41.6l-0.7,2.6h-2.4l3.2-10.3h3.1l3.2,10.3h-2.5l-0.8-2.6H183.7z M186.3,39.8l-0.6-2.2
				c-0.2-0.6-0.4-1.4-0.5-2h0c-0.2,0.6-0.3,1.4-0.5,2l-0.6,2.2H186.3z"/>
			<path class="st5" d="M192.5,44.2V33.9h2.7l2.1,3.8c0.6,1.1,1.2,2.4,1.7,3.5h0c-0.2-1.4-0.2-2.8-0.2-4.3v-3h2.1v10.3h-2.4l-2.2-4
				c-0.6-1.1-1.3-2.4-1.8-3.6l0,0c0.1,1.4,0.1,2.8,0.1,4.5v3.1H192.5z"/>
			<path class="st5" d="M204.3,44.2V33.9h2.7l2.1,3.8c0.6,1.1,1.2,2.4,1.7,3.5h0c-0.2-1.4-0.2-2.8-0.2-4.3v-3h2.1v10.3h-2.4l-2.2-4
				c-0.6-1.1-1.3-2.4-1.8-3.6l0,0c0.1,1.4,0.1,2.8,0.1,4.5v3.1H204.3z"/>
			<path class="st5" d="M222.2,39.9h-3.8v2.4h4.2v1.9h-6.6V33.9h6.4v1.9h-4V38h3.8V39.9z"/>
			<path class="st5" d="M225.5,33.9h2.3v8.4h4.1v2h-6.4V33.9z"/>
			<path class="st5" d="M238.9,41.8c0.6,0.3,1.6,0.6,2.6,0.6c1.1,0,1.6-0.4,1.6-1.1c0-0.6-0.5-1-1.7-1.5c-1.7-0.6-2.8-1.5-2.8-3
				c0-1.8,1.5-3.1,3.9-3.1c1.2,0,2,0.2,2.6,0.5l-0.5,1.9c-0.4-0.2-1.1-0.5-2.2-0.5c-1,0-1.5,0.5-1.5,1c0,0.7,0.6,0.9,1.9,1.5
				c1.8,0.7,2.7,1.6,2.7,3.1c0,1.7-1.3,3.2-4.2,3.2c-1.2,0-2.3-0.3-2.9-0.6L238.9,41.8z"/>
			<path class="st5" d="M250.3,35.9h-2.8v-2h7.9v2h-2.8v8.4h-2.3V35.9z"/>
			<path class="st5" d="M267,39c0,3.4-2.1,5.4-5.1,5.4c-3.1,0-4.9-2.3-4.9-5.3c0-3.1,2-5.4,5-5.4C265.2,33.7,267,36.1,267,39z
				 M259.5,39.1c0,2,0.9,3.4,2.5,3.4c1.6,0,2.5-1.5,2.5-3.5c0-1.9-0.9-3.4-2.5-3.4C260.4,35.6,259.5,37.1,259.5,39.1z"/>
			<path class="st5" d="M269.7,34c0.8-0.1,1.9-0.2,3.1-0.2c1.5,0,2.6,0.2,3.3,0.8c0.6,0.5,0.9,1.2,0.9,2.2c0,1.3-0.9,2.2-1.8,2.5v0
				c0.7,0.3,1.1,1,1.4,1.9c0.3,1.2,0.6,2.5,0.8,2.9h-2.4c-0.2-0.3-0.4-1.1-0.7-2.4c-0.3-1.3-0.7-1.6-1.7-1.7H272v4.1h-2.3V34z
				 M272,38.5h0.9c1.2,0,1.9-0.6,1.9-1.5c0-0.9-0.6-1.4-1.7-1.4c-0.6,0-0.9,0-1.1,0.1V38.5z"/>
			<path class="st5" d="M286.1,39.9h-3.8v2.4h4.2v1.9H280V33.9h6.4v1.9h-4V38h3.8V39.9z"/>
		</g>
	</g>
	<g>
		<g>
			<path class="st5" d="M568.1,40.5c0,3.4-2.1,5.4-5.1,5.4c-3.1,0-4.9-2.3-4.9-5.3c0-3.1,2-5.4,5-5.4
				C566.4,35.3,568.1,37.7,568.1,40.5z M560.6,40.7c0,2,0.9,3.4,2.5,3.4c1.6,0,2.5-1.5,2.5-3.5c0-1.9-0.9-3.4-2.5-3.4
				C561.6,37.2,560.6,38.7,560.6,40.7z"/>
			<path class="st5" d="M570.8,45.8V35.5h2.7l2.1,3.8c0.6,1.1,1.2,2.4,1.7,3.5h0c-0.2-1.4-0.2-2.8-0.2-4.3v-3h2.1v10.3h-2.4l-2.2-4
				c-0.6-1.1-1.3-2.4-1.8-3.6l0,0c0.1,1.4,0.1,2.8,0.1,4.5v3.1H570.8z"/>
			<path class="st5" d="M582.6,35.5h2.3v8.4h4.1v2h-6.4V35.5z"/>
			<path class="st5" d="M594,35.5v10.3h-2.3V35.5H594z"/>
			<path class="st5" d="M597.3,45.8V35.5h2.7l2.1,3.8c0.6,1.1,1.2,2.4,1.7,3.5h0c-0.2-1.4-0.2-2.8-0.2-4.3v-3h2.1v10.3h-2.4l-2.2-4
				c-0.6-1.1-1.3-2.4-1.8-3.6l0,0c0.1,1.4,0.1,2.8,0.1,4.5v3.1H597.3z"/>
			<path class="st5" d="M615.2,41.4h-3.8v2.4h4.2v1.9H609V35.5h6.4v1.9h-4v2.1h3.8V41.4z"/>
			<path class="st5" d="M622.8,43.4c0.6,0.3,1.6,0.6,2.6,0.6c1.1,0,1.6-0.4,1.6-1.1c0-0.6-0.5-1-1.7-1.5c-1.7-0.6-2.8-1.5-2.8-3
				c0-1.8,1.5-3.1,3.9-3.1c1.2,0,2,0.2,2.6,0.5l-0.5,1.9c-0.4-0.2-1.1-0.5-2.2-0.5c-1,0-1.5,0.5-1.5,1c0,0.7,0.6,0.9,1.9,1.5
				c1.8,0.7,2.7,1.6,2.7,3.1c0,1.7-1.3,3.2-4.2,3.2c-1.2,0-2.3-0.3-2.9-0.6L622.8,43.4z"/>
			<path class="st5" d="M634.2,37.4h-2.8v-2h7.9v2h-2.8v8.4h-2.3V37.4z"/>
			<path class="st5" d="M650.9,40.5c0,3.4-2.1,5.4-5.1,5.4c-3.1,0-4.9-2.3-4.9-5.3c0-3.1,2-5.4,5-5.4
				C649.1,35.3,650.9,37.7,650.9,40.5z M643.4,40.7c0,2,0.9,3.4,2.5,3.4c1.6,0,2.5-1.5,2.5-3.5c0-1.9-0.9-3.4-2.5-3.4
				C644.3,37.2,643.4,38.7,643.4,40.7z"/>
			<path class="st5" d="M653.6,35.6c0.7-0.1,1.9-0.2,3.1-0.2c1.5,0,2.6,0.2,3.3,0.8c0.6,0.5,0.9,1.2,0.9,2.2c0,1.3-0.9,2.2-1.8,2.5
				v0c0.7,0.3,1.1,1,1.4,1.9c0.3,1.2,0.6,2.5,0.8,2.9H659c-0.2-0.3-0.4-1.1-0.7-2.4c-0.3-1.3-0.7-1.6-1.7-1.7h-0.7v4.1h-2.3V35.6z
				 M655.9,40.1h0.9c1.2,0,1.9-0.6,1.9-1.5c0-0.9-0.6-1.4-1.7-1.4c-0.6,0-0.9,0-1.1,0.1V40.1z"/>
			<path class="st5" d="M670,41.4h-3.8v2.4h4.2v1.9h-6.6V35.5h6.4v1.9h-4v2.1h3.8V41.4z"/>
		</g>
	</g>
	<g>
		<g>
			<path class="st18" d="M167.6,208.5h0.6v4.2h0c0.2-0.3,0.5-0.6,0.7-0.9l2.9-3.3h0.7l-3.2,3.5l3.5,4.8h-0.7l-3.2-4.4l-0.9,0.9v3.4
				h-0.6V208.5z"/>
			<path class="st18" d="M174.8,209.2c0,0.3-0.2,0.5-0.5,0.5c-0.3,0-0.5-0.2-0.5-0.5c0-0.3,0.2-0.5,0.5-0.5S174.8,208.9,174.8,209.2
				z M174,216.8v-5.9h0.6v5.9H174z"/>
			<path class="st18" d="M181.8,213.8c0,2.2-1.5,3.2-2.8,3.2c-1.5,0-2.7-1.2-2.7-3c0-2,1.3-3.1,2.8-3.1
				C180.7,210.7,181.8,212,181.8,213.8z M176.8,213.8c0,1.5,0.9,2.6,2.2,2.6c1.2,0,2.2-1.1,2.2-2.6c0-1.1-0.6-2.6-2.2-2.6
				C177.5,211.2,176.8,212.6,176.8,213.8z"/>
			<path class="st18" d="M183.2,216c0.3,0.2,0.8,0.4,1.3,0.4c0.9,0,1.4-0.5,1.4-1.1c0-0.7-0.4-1-1.2-1.3c-1-0.4-1.5-0.9-1.5-1.6
				c0-0.9,0.7-1.6,1.8-1.6c0.5,0,1,0.2,1.3,0.4l-0.2,0.5c-0.2-0.1-0.6-0.4-1.2-0.4c-0.8,0-1.1,0.5-1.1,1c0,0.6,0.4,0.9,1.2,1.2
				c1,0.4,1.5,0.9,1.5,1.8c0,1-0.8,1.7-2,1.7c-0.6,0-1.1-0.2-1.5-0.4L183.2,216z"/>
			<path class="st18" d="M188.7,213.7L188.7,213.7c0.2-0.2,0.4-0.5,0.6-0.7l2.1-2.2h0.7l-2.4,2.5l2.7,3.5h-0.7l-2.4-3.1l-0.6,0.6
				v2.5h-0.6V208h0.6V213.7z"/>
			<path class="st18" d="M193.2,216c0.3,0.2,0.8,0.4,1.3,0.4c0.9,0,1.4-0.5,1.4-1.1c0-0.7-0.4-1-1.2-1.3c-1-0.4-1.5-0.9-1.5-1.6
				c0-0.9,0.7-1.6,1.8-1.6c0.5,0,1,0.2,1.3,0.4l-0.2,0.5c-0.2-0.1-0.6-0.4-1.2-0.4c-0.8,0-1.1,0.5-1.1,1c0,0.6,0.4,0.9,1.2,1.2
				c1,0.4,1.5,0.9,1.5,1.8c0,1-0.8,1.7-2,1.7c-0.6,0-1.1-0.2-1.5-0.4L193.2,216z"/>
		</g>
	</g>
	<g>
		<g>
			<path class="st18" d="M256.8,212.6h-3.3v3.6h3.7v0.5h-4.3v-8.3h4.1v0.5h-3.5v3.2h3.3V212.6z"/>
			<path class="st18" d="M258.7,210.9l1,1.4c0.2,0.4,0.5,0.7,0.7,1h0c0.2-0.4,0.5-0.7,0.7-1l1-1.4h0.7l-2.1,2.9l2.1,3h-0.7l-1-1.5
				c-0.3-0.4-0.5-0.7-0.7-1.1h0c-0.2,0.4-0.5,0.7-0.7,1.1l-1,1.5h-0.7l2.2-3l-2-2.9H258.7z"/>
			<path class="st18" d="M265.1,209.6v1.3h1.7v0.5h-1.7v3.8c0,0.8,0.2,1.2,0.9,1.2c0.3,0,0.5,0,0.7-0.1l0.1,0.4
				c-0.2,0.1-0.5,0.1-0.8,0.1c-0.4,0-0.8-0.1-1-0.4c-0.3-0.3-0.4-0.8-0.4-1.4v-3.7h-1v-0.5h1v-1.1L265.1,209.6z"/>
			<path class="st18" d="M268.3,213.8c0,1.9,1,2.6,2.3,2.6c0.9,0,1.3-0.2,1.6-0.3l0.1,0.5c-0.2,0.1-0.8,0.4-1.9,0.4
				c-1.7,0-2.8-1.2-2.8-3c0-2,1.1-3.2,2.7-3.2c1.9,0,2.3,1.8,2.3,2.7c0,0.2,0,0.2,0,0.4H268.3z M272,213.3c0-0.8-0.3-2.1-1.8-2.1
				c-1.3,0-1.9,1.2-2,2.1H272z"/>
			<path class="st18" d="M274.3,212.3c0-0.5,0-0.9,0-1.4h0.6l0,1.1h0c0.3-0.7,1.1-1.2,2-1.2c0.6,0,2.1,0.3,2.1,2.5v3.5h-0.6v-3.5
				c0-1.1-0.4-2-1.6-2c-0.8,0-1.5,0.6-1.8,1.4c0,0.1-0.1,0.3-0.1,0.5v3.7h-0.6V212.3z"/>
			<path class="st18" d="M285.7,208v7.4c0,0.4,0,1,0,1.4h-0.5l0-1.1h0c-0.3,0.7-1,1.3-2.1,1.3c-1.5,0-2.6-1.2-2.6-3
				c0-2,1.2-3.2,2.7-3.2c1,0,1.7,0.5,1.9,1h0V208H285.7z M285.1,213.2c0-0.2,0-0.4-0.1-0.5c-0.2-0.8-0.9-1.4-1.9-1.4
				c-1.3,0-2.1,1.1-2.1,2.7c0,1.3,0.7,2.6,2.1,2.6c0.9,0,1.7-0.6,1.9-1.5c0-0.2,0.1-0.3,0.1-0.5V213.2z"/>
			<path class="st18" d="M287.9,213.8c0,1.9,1,2.6,2.3,2.6c0.9,0,1.3-0.2,1.6-0.3l0.1,0.5c-0.2,0.1-0.8,0.4-1.9,0.4
				c-1.7,0-2.8-1.2-2.8-3c0-2,1.1-3.2,2.7-3.2c1.9,0,2.3,1.8,2.3,2.7c0,0.2,0,0.2,0,0.4H287.9z M291.7,213.3c0-0.8-0.3-2.1-1.8-2.1
				c-1.3,0-1.9,1.2-2,2.1H291.7z"/>
			<path class="st18" d="M298.7,208v7.4c0,0.4,0,1,0,1.4h-0.5l0-1.1h0c-0.3,0.7-1,1.3-2.1,1.3c-1.5,0-2.6-1.2-2.6-3
				c0-2,1.2-3.2,2.7-3.2c1,0,1.7,0.5,1.9,1h0V208H298.7z M298.1,213.2c0-0.2,0-0.4-0.1-0.5c-0.2-0.8-0.9-1.4-1.9-1.4
				c-1.3,0-2.1,1.1-2.1,2.7c0,1.3,0.7,2.6,2.1,2.6c0.9,0,1.7-0.6,1.9-1.5c0-0.2,0.1-0.3,0.1-0.5V213.2z"/>
			<path class="st18" d="M307.7,216.5c-0.3,0.1-0.9,0.4-1.7,0.4c-1.7,0-2.8-1.2-2.8-3c0-1.9,1.3-3.2,3-3.2c0.7,0,1.3,0.2,1.6,0.4
				l-0.2,0.5c-0.3-0.2-0.7-0.3-1.4-0.3c-1.6,0-2.4,1.2-2.4,2.6c0,1.6,1,2.6,2.3,2.6c0.7,0,1.2-0.2,1.5-0.3L307.7,216.5z"/>
			<path class="st18" d="M312.9,215.4c0,0.5,0,0.9,0.1,1.4h-0.5l-0.1-0.9h0c-0.3,0.5-0.9,1-1.9,1c-1.2,0-1.7-0.8-1.7-1.6
				c0-1.4,1.2-2.2,3.6-2.2V213c0-0.6-0.1-1.7-1.5-1.7c-0.5,0-1.1,0.1-1.5,0.4l-0.2-0.4c0.5-0.4,1.2-0.5,1.7-0.5c1.7,0,2,1.3,2,2.3
				V215.4z M312.3,213.6c-1.3,0-3,0.2-3,1.6c0,0.9,0.6,1.2,1.2,1.2c1,0,1.6-0.6,1.8-1.2c0-0.1,0.1-0.3,0.1-0.4V213.6z"/>
			<path class="st18" d="M315.8,209.6v1.3h1.7v0.5h-1.7v3.8c0,0.8,0.2,1.2,0.9,1.2c0.3,0,0.5,0,0.7-0.1l0.1,0.4
				c-0.2,0.1-0.5,0.1-0.8,0.1c-0.4,0-0.8-0.1-1-0.4c-0.3-0.3-0.4-0.8-0.4-1.4v-3.7h-1v-0.5h1v-1.1L315.8,209.6z"/>
			<path class="st18" d="M322.6,215.4c0,0.5,0,0.9,0.1,1.4h-0.5l-0.1-0.9h0c-0.3,0.5-0.9,1-1.9,1c-1.2,0-1.7-0.8-1.7-1.6
				c0-1.4,1.2-2.2,3.6-2.2V213c0-0.6-0.1-1.7-1.5-1.7c-0.5,0-1.1,0.1-1.5,0.4l-0.2-0.4c0.5-0.4,1.2-0.5,1.7-0.5c1.7,0,2,1.3,2,2.3
				V215.4z M322,213.6c-1.3,0-3,0.2-3,1.6c0,0.9,0.6,1.2,1.2,1.2c1,0,1.6-0.6,1.8-1.2c0-0.1,0.1-0.3,0.1-0.4V213.6z"/>
			<path class="st18" d="M324.6,208h0.6v8.7h-0.6V208z"/>
			<path class="st18" d="M332.4,213.8c0,2.2-1.5,3.2-2.8,3.2c-1.5,0-2.7-1.2-2.7-3c0-2,1.3-3.1,2.8-3.1
				C331.3,210.7,332.4,212,332.4,213.8z M327.4,213.8c0,1.5,0.9,2.6,2.2,2.6c1.2,0,2.2-1.1,2.2-2.6c0-1.1-0.6-2.6-2.2-2.6
				C328.1,211.2,327.4,212.6,327.4,213.8z"/>
			<path class="st18" d="M338.7,215.9c0,1.5-0.3,2.3-0.8,2.7c-0.5,0.5-1.3,0.7-2,0.7c-0.7,0-1.4-0.2-1.9-0.5l0.2-0.5
				c0.4,0.3,1,0.5,1.8,0.5c1.2,0,2.1-0.6,2.1-2.4v-0.8h0c-0.3,0.6-1,1.1-2.1,1.1c-1.5,0-2.5-1.3-2.5-2.9c0-2.1,1.4-3.1,2.7-3.1
				c1.2,0,1.7,0.6,2,1.1h0l0-1h0.5c0,0.4,0,0.9,0,1.5V215.9z M338.1,213.1c0-0.2,0-0.4-0.1-0.6c-0.2-0.7-0.9-1.3-1.8-1.3
				c-1.3,0-2.1,1-2.1,2.6c0,1.3,0.7,2.5,2.1,2.5c0.8,0,1.5-0.5,1.8-1.3c0.1-0.2,0.1-0.4,0.1-0.6V213.1z"/>
			<path class="st18" d="M345.4,215.3c0,0.5,0,1,0,1.4h-0.6l0-1.1h0c-0.3,0.6-1,1.2-2,1.2c-0.8,0-2-0.4-2-2.6v-3.4h0.6v3.3
				c0,1.3,0.4,2.2,1.6,2.2c0.9,0,1.5-0.6,1.8-1.2c0.1-0.2,0.1-0.4,0.1-0.7v-3.7h0.6V215.3z"/>
			<path class="st18" d="M347.6,213.8c0,1.9,1,2.6,2.3,2.6c0.9,0,1.3-0.2,1.6-0.3l0.1,0.5c-0.2,0.1-0.8,0.4-1.9,0.4
				c-1.7,0-2.8-1.2-2.8-3c0-2,1.1-3.2,2.7-3.2c1.9,0,2.3,1.8,2.3,2.7c0,0.2,0,0.2,0,0.4H347.6z M351.4,213.3c0-0.8-0.3-2.1-1.8-2.1
				c-1.3,0-1.9,1.2-2,2.1H351.4z"/>
			<path class="st18" d="M259.4,230.8c0.3,0.2,0.8,0.4,1.3,0.4c0.9,0,1.4-0.5,1.4-1.1c0-0.7-0.4-1-1.2-1.3c-1-0.4-1.5-0.9-1.5-1.6
				c0-0.9,0.7-1.6,1.8-1.6c0.5,0,1,0.2,1.3,0.4l-0.2,0.5c-0.2-0.1-0.6-0.4-1.2-0.4c-0.8,0-1.1,0.5-1.1,1c0,0.6,0.4,0.9,1.2,1.2
				c1,0.4,1.5,0.9,1.5,1.8c0,1-0.8,1.7-2,1.7c-0.6,0-1.1-0.2-1.5-0.4L259.4,230.8z"/>
			<path class="st18" d="M268.5,231.3c-0.3,0.1-0.9,0.4-1.7,0.4c-1.7,0-2.8-1.2-2.8-3c0-1.9,1.3-3.2,3-3.2c0.7,0,1.3,0.2,1.6,0.4
				l-0.2,0.5c-0.3-0.2-0.7-0.3-1.4-0.3c-1.6,0-2.4,1.2-2.4,2.6c0,1.6,1,2.6,2.3,2.6c0.7,0,1.2-0.2,1.5-0.3L268.5,231.3z"/>
			<path class="st18" d="M270,227.4c0-0.6,0-1.2,0-1.8h0.5l0,1.2h0c0.3-0.7,0.9-1.3,1.7-1.3c0.1,0,0.2,0,0.2,0v0.6
				c-0.1,0-0.2,0-0.3,0c-0.8,0-1.4,0.7-1.6,1.7c0,0.2,0,0.4,0,0.6v3.3H270V227.4z"/>
			<path class="st18" d="M273.7,228.6c0,1.9,1,2.6,2.3,2.6c0.9,0,1.3-0.2,1.6-0.3l0.1,0.5c-0.2,0.1-0.8,0.4-1.9,0.4
				c-1.7,0-2.8-1.2-2.8-3c0-2,1.1-3.2,2.7-3.2c1.9,0,2.3,1.8,2.3,2.7c0,0.2,0,0.2,0,0.4H273.7z M277.5,228.1c0-0.8-0.3-2.1-1.8-2.1
				c-1.3,0-1.9,1.2-2,2.1H277.5z"/>
			<path class="st18" d="M279.8,228.6c0,1.9,1,2.6,2.3,2.6c0.9,0,1.3-0.2,1.6-0.3l0.1,0.5c-0.2,0.1-0.8,0.4-1.9,0.4
				c-1.7,0-2.8-1.2-2.8-3c0-2,1.1-3.2,2.7-3.2c1.9,0,2.3,1.8,2.3,2.7c0,0.2,0,0.2,0,0.4H279.8z M283.6,228.1c0-0.8-0.3-2.1-1.8-2.1
				c-1.3,0-1.9,1.2-2,2.1H283.6z"/>
			<path class="st18" d="M285.9,227.1c0-0.5,0-0.9,0-1.4h0.6l0,1.1h0c0.3-0.7,1.1-1.2,2-1.2c0.6,0,2.1,0.3,2.1,2.5v3.5h-0.6v-3.5
				c0-1.1-0.4-2-1.6-2c-0.8,0-1.5,0.6-1.8,1.4c0,0.1-0.1,0.3-0.1,0.5v3.7h-0.6V227.1z"/>
			<path class="st18" d="M292.3,230.8c0.3,0.2,0.8,0.4,1.3,0.4c0.9,0,1.4-0.5,1.4-1.1c0-0.7-0.4-1-1.2-1.3c-1-0.4-1.5-0.9-1.5-1.6
				c0-0.9,0.7-1.6,1.8-1.6c0.5,0,1,0.2,1.3,0.4l-0.2,0.5c-0.2-0.1-0.6-0.4-1.2-0.4c-0.8,0-1.1,0.5-1.1,1c0,0.6,0.4,0.9,1.2,1.2
				c1,0.4,1.5,0.9,1.5,1.8c0,1-0.8,1.7-2,1.7c-0.6,0-1.1-0.2-1.5-0.4L292.3,230.8z"/>
			<path class="st18" d="M302.2,223c-1,1.3-1.7,2.8-1.7,5.1c0,2.2,0.7,3.7,1.7,5h-0.6c-0.9-1.1-1.7-2.6-1.7-5c0-2.4,0.9-4,1.7-5.1
				H302.2z"/>
			<path class="st18" d="M310.2,232.7c-1.1-0.3-2.3-0.6-3.1-0.8c-0.2,0-0.3-0.1-0.5-0.1c-2,0-3.7-1.5-3.7-4.2c0-2.8,1.7-4.4,3.7-4.4
				c2.1,0,3.6,1.6,3.6,4.2c0,2.3-1.1,3.7-2.6,4.2v0c0.9,0.2,2,0.4,2.7,0.6L310.2,232.7z M309.7,227.4c0-1.8-1-3.8-3-3.8
				c-2.1,0-3.1,1.9-3.1,3.9c0,1.9,1.1,3.7,3,3.7C308.5,231.2,309.7,229.4,309.7,227.4z"/>
			<path class="st18" d="M311.8,223.4c0.5-0.1,1.2-0.2,1.8-0.2c1.1,0,1.8,0.2,2.2,0.7c0.4,0.3,0.6,0.9,0.6,1.5
				c0,1.1-0.7,1.8-1.6,2.2v0c0.7,0.2,1.1,0.8,1.3,1.8c0.3,1.3,0.4,1.9,0.6,2.2h-0.6c-0.1-0.2-0.3-1-0.5-2c-0.3-1.2-0.8-1.7-1.9-1.8
				h-1.3v3.8h-0.6V223.4z M312.4,227.3h1.3c1.3,0,2.1-0.7,2.1-1.8c0-1.3-0.9-1.8-2.2-1.8c-0.6,0-1,0.1-1.2,0.1V227.3z"/>
			<path class="st18" d="M325.1,231.3c-0.3,0.1-0.9,0.4-1.7,0.4c-1.7,0-2.8-1.2-2.8-3c0-1.9,1.3-3.2,3-3.2c0.7,0,1.3,0.2,1.6,0.4
				l-0.2,0.5c-0.3-0.2-0.7-0.3-1.4-0.3c-1.6,0-2.4,1.2-2.4,2.6c0,1.6,1,2.6,2.3,2.6c0.7,0,1.2-0.2,1.5-0.3L325.1,231.3z"/>
			<path class="st18" d="M331.7,228.6c0,2.2-1.5,3.2-2.8,3.2c-1.5,0-2.7-1.2-2.7-3c0-2,1.3-3.1,2.8-3.1
				C330.6,225.5,331.7,226.8,331.7,228.6z M326.7,228.6c0,1.5,0.9,2.6,2.2,2.6c1.2,0,2.2-1.1,2.2-2.6c0-1.1-0.6-2.6-2.2-2.6
				C327.4,226,326.7,227.4,326.7,228.6z"/>
			<path class="st18" d="M338,222.8v7.4c0,0.4,0,1,0,1.4h-0.5l0-1.1h0c-0.3,0.7-1,1.3-2.1,1.3c-1.5,0-2.6-1.2-2.6-3
				c0-2,1.2-3.2,2.7-3.2c1,0,1.7,0.5,1.9,1h0v-3.7H338z M337.5,228c0-0.2,0-0.4-0.1-0.5c-0.2-0.8-0.9-1.4-1.9-1.4
				c-1.3,0-2.1,1.1-2.1,2.7c0,1.3,0.7,2.6,2.1,2.6c0.9,0,1.7-0.6,1.9-1.5c0-0.2,0.1-0.3,0.1-0.5V228z"/>
			<path class="st18" d="M340.2,228.6c0,1.9,1,2.6,2.3,2.6c0.9,0,1.3-0.2,1.6-0.3l0.1,0.5c-0.2,0.1-0.8,0.4-1.9,0.4
				c-1.7,0-2.8-1.2-2.8-3c0-2,1.1-3.2,2.7-3.2c1.9,0,2.3,1.8,2.3,2.7c0,0.2,0,0.2,0,0.4H340.2z M344,228.1c0-0.8-0.3-2.1-1.8-2.1
				c-1.3,0-1.9,1.2-2,2.1H344z"/>
			<path class="st18" d="M345.4,233.1c1-1.3,1.7-2.8,1.7-5.1c0-2.2-0.7-3.8-1.7-5h0.6c0.9,1.1,1.7,2.6,1.7,5.1c0,2.4-0.9,4-1.7,5.1
				H345.4z"/>
		</g>
	</g>
	<g>
		<path class="st5" d="M475.3,160.2l0.2,1.2c0.1,0.3,0.1,0.6,0.2,1h0c0.1-0.3,0.1-0.7,0.2-1l0.3-1.2h0.7l0.3,1.2
			c0.1,0.3,0.2,0.7,0.2,1h0c0-0.3,0.1-0.7,0.2-1l0.2-1.2h0.9l-0.9,2.9H477l-0.3-1c-0.1-0.3-0.1-0.5-0.2-0.9h0
			c-0.1,0.4-0.1,0.6-0.2,0.9l-0.3,1h-0.9l-0.8-2.9H475.3z"/>
		<path class="st5" d="M480.2,160.2l0.2,1.2c0.1,0.3,0.1,0.6,0.2,1h0c0.1-0.3,0.1-0.7,0.2-1l0.3-1.2h0.7l0.3,1.2
			c0.1,0.3,0.2,0.7,0.2,1h0c0-0.3,0.1-0.7,0.2-1l0.2-1.2h0.9l-0.9,2.9h-0.9l-0.3-1c-0.1-0.3-0.1-0.5-0.2-0.9h0
			c-0.1,0.4-0.1,0.6-0.2,0.9l-0.3,1h-0.9l-0.8-2.9H480.2z"/>
		<path class="st5" d="M485.1,160.2l0.2,1.2c0.1,0.3,0.1,0.6,0.2,1h0c0.1-0.3,0.1-0.7,0.2-1l0.3-1.2h0.7l0.3,1.2
			c0.1,0.3,0.2,0.7,0.2,1h0c0-0.3,0.1-0.7,0.2-1l0.3-1.2h0.9l-0.9,2.9h-0.9l-0.3-1c-0.1-0.3-0.1-0.5-0.2-0.9h0
			c-0.1,0.4-0.1,0.6-0.2,0.9l-0.3,1H485l-0.8-2.9H485.1z"/>
	</g>
	<g>
		<g>
			<path class="st18" d="M461.5,199.3l-2.2-8.3h0.6l1.2,4.7c0.3,1.1,0.5,2.1,0.7,2.8h0c0.1-0.8,0.4-1.8,0.8-2.8l1.4-4.7h0.6l1.2,4.6
				c0.3,1,0.5,2,0.7,2.9h0c0.2-0.9,0.5-1.8,0.8-2.9l1.4-4.7h0.6l-2.5,8.3h-0.6l-1.2-4.8c-0.3-1.2-0.5-2-0.6-2.8h0
				c-0.1,0.8-0.4,1.6-0.7,2.8l-1.4,4.8H461.5z"/>
			<path class="st18" d="M470.1,196.3c0,1.9,1,2.6,2.3,2.6c0.9,0,1.3-0.2,1.6-0.3l0.1,0.5c-0.2,0.1-0.8,0.4-1.9,0.4
				c-1.7,0-2.8-1.2-2.8-3c0-2,1.1-3.2,2.7-3.2c1.9,0,2.3,1.8,2.3,2.7c0,0.2,0,0.2,0,0.4H470.1z M473.8,195.8c0-0.8-0.3-2.1-1.8-2.1
				c-1.3,0-1.9,1.2-2,2.1H473.8z"/>
			<path class="st18" d="M476.1,190.5h0.6v3.9h0c0.4-0.8,1.1-1.2,2.2-1.2c1.5,0,2.5,1.3,2.5,3c0,2.1-1.3,3.2-2.6,3.2
				c-1,0-1.7-0.4-2.1-1.2h0l0,1.1H476c0-0.4,0-0.9,0-1.4V190.5z M476.7,197c0,0.1,0,0.3,0,0.4c0.3,0.9,1,1.5,1.9,1.5
				c1.4,0,2.1-1.1,2.1-2.7c0-1.4-0.7-2.6-2.1-2.6c-0.9,0-1.7,0.6-2,1.6c0,0.1-0.1,0.3-0.1,0.5V197z"/>
			<path class="st18" d="M482.8,198.5c0.3,0.2,0.8,0.4,1.3,0.4c0.9,0,1.4-0.5,1.4-1.1c0-0.7-0.4-1-1.2-1.3c-1-0.4-1.5-0.9-1.5-1.6
				c0-0.9,0.7-1.6,1.8-1.6c0.5,0,1,0.2,1.3,0.4l-0.2,0.5c-0.2-0.1-0.6-0.4-1.2-0.4c-0.8,0-1.1,0.5-1.1,1c0,0.6,0.4,0.9,1.2,1.2
				c1,0.4,1.5,0.9,1.5,1.8c0,1-0.8,1.7-2,1.7c-0.6,0-1.1-0.2-1.5-0.4L482.8,198.5z"/>
			<path class="st18" d="M488.5,191.7c0,0.3-0.2,0.5-0.5,0.5c-0.3,0-0.5-0.2-0.5-0.5c0-0.3,0.2-0.5,0.5-0.5S488.5,191.4,488.5,191.7
				z M487.7,199.3v-5.9h0.6v5.9H487.7z"/>
			<path class="st18" d="M491.3,192.1v1.3h1.7v0.5h-1.7v3.8c0,0.8,0.2,1.2,0.9,1.2c0.3,0,0.5,0,0.7-0.1l0.1,0.4
				c-0.2,0.1-0.5,0.1-0.8,0.1c-0.4,0-0.8-0.1-1-0.4c-0.3-0.3-0.4-0.8-0.4-1.4v-3.7h-1v-0.5h1v-1.1L491.3,192.1z"/>
			<path class="st18" d="M494.4,196.3c0,1.9,1,2.6,2.3,2.6c0.9,0,1.3-0.2,1.6-0.3l0.1,0.5c-0.2,0.1-0.8,0.4-1.9,0.4
				c-1.7,0-2.8-1.2-2.8-3c0-2,1.1-3.2,2.7-3.2c1.9,0,2.3,1.8,2.3,2.7c0,0.2,0,0.2,0,0.4H494.4z M498.2,195.8c0-0.8-0.3-2.1-1.8-2.1
				c-1.3,0-1.9,1.2-2,2.1H498.2z"/>
			<path class="st18" d="M500.2,198.5c0.3,0.2,0.8,0.4,1.3,0.4c0.9,0,1.4-0.5,1.4-1.1c0-0.7-0.4-1-1.2-1.3c-1-0.4-1.5-0.9-1.5-1.6
				c0-0.9,0.7-1.6,1.8-1.6c0.5,0,1,0.2,1.3,0.4l-0.2,0.5c-0.2-0.1-0.6-0.4-1.2-0.4c-0.8,0-1.1,0.5-1.1,1c0,0.6,0.4,0.9,1.2,1.2
				c1,0.4,1.5,0.9,1.5,1.8c0,1-0.8,1.7-2,1.7c-0.6,0-1.1-0.2-1.5-0.4L500.2,198.5z"/>
		</g>
	</g>
	<g>
		<g>
			<path class="st18" d="M557,194l-1,2.9h-0.6l3-8.3h0.6l3,8.3h-0.6l-1-2.9H557z M560.1,193.5l-1-2.8c-0.2-0.6-0.3-1-0.4-1.5h0
				c-0.1,0.5-0.2,0.9-0.4,1.4l-1,2.8H560.1z"/>
			<path class="st18" d="M563.4,192.8c0-0.7,0-1.3,0-1.9h0.6l0,1.1h0c0.4-0.8,1.2-1.3,2.2-1.3c1.5,0,2.6,1.3,2.6,3
				c0,2.1-1.3,3.2-2.7,3.2c-0.9,0-1.6-0.4-2-1.1h0v3.4h-0.6V192.8z M563.9,194.5c0,0.2,0,0.3,0,0.5c0.2,0.9,1,1.5,1.9,1.5
				c1.4,0,2.1-1.1,2.1-2.7c0-1.3-0.7-2.5-2.1-2.5c-0.9,0-1.7,0.6-2,1.6c0,0.2-0.1,0.3-0.1,0.5V194.5z"/>
			<path class="st18" d="M570.3,192.8c0-0.7,0-1.3,0-1.9h0.6l0,1.1h0c0.4-0.8,1.2-1.3,2.2-1.3c1.5,0,2.6,1.3,2.6,3
				c0,2.1-1.3,3.2-2.7,3.2c-0.9,0-1.6-0.4-2-1.1h0v3.4h-0.6V192.8z M570.9,194.5c0,0.2,0,0.3,0,0.5c0.2,0.9,1,1.5,1.9,1.5
				c1.4,0,2.1-1.1,2.1-2.7c0-1.3-0.7-2.5-2.1-2.5c-0.9,0-1.7,0.6-2,1.6c0,0.2-0.1,0.3-0.1,0.5V194.5z"/>
			<path class="st18" d="M577,196.1c0.3,0.2,0.8,0.4,1.3,0.4c0.9,0,1.4-0.5,1.4-1.1c0-0.7-0.4-1-1.2-1.3c-1-0.4-1.5-0.9-1.5-1.6
				c0-0.9,0.7-1.6,1.8-1.6c0.5,0,1,0.2,1.3,0.4l-0.2,0.5c-0.2-0.1-0.6-0.4-1.2-0.4c-0.8,0-1.1,0.5-1.1,1c0,0.6,0.4,0.9,1.2,1.2
				c1,0.4,1.5,0.9,1.5,1.8c0,1-0.8,1.7-2,1.7c-0.6,0-1.1-0.2-1.5-0.4L577,196.1z"/>
		</g>
	</g>
	<g>
		<g>
			<path class="st18" d="M703.7,187.5l-2.2-8.3h0.6l1.2,4.7c0.3,1.1,0.5,2.1,0.7,2.8h0c0.1-0.8,0.4-1.8,0.8-2.8l1.4-4.7h0.6l1.2,4.6
				c0.3,1,0.5,2,0.7,2.9h0c0.2-0.9,0.5-1.8,0.8-2.9l1.4-4.7h0.6l-2.5,8.3h-0.6l-1.2-4.8c-0.3-1.2-0.5-2-0.6-2.8h0
				c-0.1,0.8-0.4,1.6-0.7,2.8l-1.4,4.8H703.7z"/>
			<path class="st18" d="M712.6,178.8h0.6v3.9h0c0.2-0.3,0.5-0.7,0.8-0.9c0.3-0.2,0.8-0.3,1.2-0.3c0.6,0,2.1,0.3,2.1,2.5v3.6h-0.6
				V184c0-1.1-0.4-2-1.6-2c-0.8,0-1.5,0.6-1.8,1.3c-0.1,0.2-0.1,0.3-0.1,0.6v3.6h-0.6V178.8z"/>
			<path class="st18" d="M723,186.1c0,0.5,0,0.9,0.1,1.4h-0.5l-0.1-0.9h0c-0.3,0.5-0.9,1-1.9,1c-1.2,0-1.7-0.8-1.7-1.6
				c0-1.4,1.2-2.2,3.6-2.2v-0.2c0-0.6-0.1-1.7-1.5-1.7c-0.5,0-1.1,0.1-1.5,0.4l-0.2-0.4c0.5-0.4,1.2-0.5,1.7-0.5c1.7,0,2,1.3,2,2.3
				V186.1z M722.4,184.4c-1.3,0-3,0.2-3,1.6c0,0.9,0.6,1.2,1.2,1.2c1,0,1.6-0.6,1.8-1.2c0-0.1,0.1-0.3,0.1-0.4V184.4z"/>
			<path class="st18" d="M725.8,180.3v1.3h1.7v0.5h-1.7v3.8c0,0.8,0.2,1.2,0.9,1.2c0.3,0,0.5,0,0.7-0.1l0.1,0.4
				c-0.2,0.1-0.5,0.1-0.8,0.1c-0.4,0-0.8-0.1-1-0.4c-0.3-0.3-0.4-0.8-0.4-1.4v-3.7h-1v-0.5h1v-1.1L725.8,180.3z"/>
			<path class="st18" d="M728.7,186.8c0.3,0.2,0.8,0.4,1.3,0.4c0.9,0,1.4-0.5,1.4-1.1c0-0.7-0.4-1-1.2-1.3c-1-0.4-1.5-0.9-1.5-1.6
				c0-0.9,0.7-1.6,1.8-1.6c0.5,0,1,0.2,1.3,0.4l-0.2,0.5c-0.2-0.1-0.6-0.4-1.2-0.4c-0.8,0-1.1,0.5-1.1,1c0,0.6,0.4,0.9,1.2,1.2
				c1,0.4,1.5,0.9,1.5,1.8c0,1-0.8,1.7-2,1.7c-0.6,0-1.1-0.2-1.5-0.4L728.7,186.8z"/>
			<path class="st18" d="M734.7,184.6l-1,2.9h-0.6l3-8.3h0.6l3,8.3H739l-1-2.9H734.7z M737.8,184.1l-1-2.8c-0.2-0.6-0.3-1-0.4-1.5h0
				c-0.1,0.5-0.2,0.9-0.4,1.4l-1,2.8H737.8z"/>
			<path class="st18" d="M741,183.5c0-0.7,0-1.3,0-1.9h0.6l0,1.1h0c0.4-0.8,1.2-1.3,2.2-1.3c1.5,0,2.6,1.3,2.6,3
				c0,2.1-1.3,3.2-2.7,3.2c-0.9,0-1.6-0.4-2-1.1h0v3.4H741V183.5z M741.6,185.2c0,0.2,0,0.3,0,0.5c0.2,0.9,1,1.5,1.9,1.5
				c1.4,0,2.1-1.1,2.1-2.7c0-1.3-0.7-2.5-2.1-2.5c-0.9,0-1.7,0.6-2,1.6c0,0.2-0.1,0.3-0.1,0.5V185.2z"/>
			<path class="st18" d="M747.9,183.5c0-0.7,0-1.3,0-1.9h0.6l0,1.1h0c0.4-0.8,1.2-1.3,2.2-1.3c1.5,0,2.6,1.3,2.6,3
				c0,2.1-1.3,3.2-2.7,3.2c-0.9,0-1.6-0.4-2-1.1h0v3.4h-0.6V183.5z M748.5,185.2c0,0.2,0,0.3,0,0.5c0.2,0.9,1,1.5,1.9,1.5
				c1.4,0,2.1-1.1,2.1-2.7c0-1.3-0.7-2.5-2.1-2.5c-0.9,0-1.7,0.6-2,1.6c0,0.2-0.1,0.3-0.1,0.5V185.2z"/>
		</g>
	</g>
	<g>
		<g>
			<path class="st18" d="M618.6,174.8c0.5-0.1,1.1-0.2,1.8-0.2c1,0,1.7,0.3,2.2,0.7c0.4,0.4,0.6,0.9,0.6,1.6c0,0.7-0.2,1.2-0.6,1.7
				c-0.5,0.6-1.4,0.9-2.4,0.9c-0.4,0-0.7,0-1-0.1v3.5h-0.6V174.8z M619.2,178.9c0.3,0.1,0.7,0.1,1.1,0.1c1.5,0,2.4-0.7,2.4-2
				c0-1.3-0.9-1.9-2.3-1.9c-0.5,0-0.9,0-1.2,0.1V178.9z"/>
			<path class="st18" d="M624.8,174.2h0.6v3.9h0c0.2-0.3,0.5-0.7,0.8-0.9c0.3-0.2,0.8-0.3,1.2-0.3c0.6,0,2.1,0.3,2.1,2.5v3.6h-0.6
				v-3.5c0-1.1-0.4-2-1.6-2c-0.8,0-1.5,0.6-1.8,1.3c-0.1,0.2-0.1,0.3-0.1,0.6v3.6h-0.6V174.2z"/>
			<path class="st18" d="M636.6,180c0,2.2-1.5,3.2-2.8,3.2c-1.5,0-2.7-1.2-2.7-3c0-2,1.3-3.1,2.8-3.1
				C635.5,176.9,636.6,178.2,636.6,180z M631.6,180c0,1.5,0.9,2.6,2.2,2.6c1.2,0,2.2-1.1,2.2-2.6c0-1.1-0.6-2.6-2.2-2.6
				C632.3,177.4,631.6,178.8,631.6,180z"/>
			<path class="st18" d="M638.2,178.5c0-0.5,0-0.9,0-1.4h0.6l0,1.1h0c0.3-0.7,1.1-1.2,2-1.2c0.6,0,2.1,0.3,2.1,2.5v3.5h-0.6v-3.5
				c0-1.1-0.4-2-1.6-2c-0.8,0-1.5,0.6-1.8,1.4c0,0.1-0.1,0.3-0.1,0.5v3.7h-0.6V178.5z"/>
			<path class="st18" d="M645,180c0,1.9,1,2.6,2.3,2.6c0.9,0,1.3-0.2,1.6-0.3l0.1,0.5c-0.2,0.1-0.8,0.4-1.9,0.4
				c-1.7,0-2.8-1.2-2.8-3c0-2,1.1-3.2,2.7-3.2c1.9,0,2.3,1.8,2.3,2.7c0,0.2,0,0.2,0,0.4H645z M648.8,179.5c0-0.8-0.3-2.1-1.8-2.1
				c-1.3,0-1.9,1.2-2,2.1H648.8z"/>
			<path class="st18" d="M658,182.7c-0.3,0.1-0.9,0.4-1.7,0.4c-1.7,0-2.8-1.2-2.8-3c0-1.9,1.3-3.2,3-3.2c0.7,0,1.3,0.2,1.6,0.4
				l-0.2,0.5c-0.3-0.2-0.7-0.3-1.4-0.3c-1.6,0-2.4,1.2-2.4,2.6c0,1.6,1,2.6,2.3,2.6c0.7,0,1.2-0.2,1.5-0.3L658,182.7z"/>
			<path class="st18" d="M663.2,181.6c0,0.5,0,0.9,0.1,1.4h-0.5l-0.1-0.9h0c-0.3,0.5-0.9,1-1.9,1c-1.2,0-1.7-0.8-1.7-1.6
				c0-1.4,1.2-2.2,3.6-2.2v-0.2c0-0.6-0.1-1.7-1.5-1.7c-0.5,0-1.1,0.1-1.5,0.4l-0.2-0.4c0.5-0.4,1.2-0.5,1.7-0.5c1.7,0,2,1.3,2,2.3
				V181.6z M662.6,179.8c-1.3,0-3,0.2-3,1.6c0,0.9,0.6,1.2,1.2,1.2c1,0,1.6-0.6,1.8-1.2c0-0.1,0.1-0.3,0.1-0.4V179.8z"/>
			<path class="st18" d="M665.2,174.2h0.6v8.7h-0.6V174.2z"/>
			<path class="st18" d="M667.9,174.2h0.6v8.7h-0.6V174.2z"/>
		</g>
	</g>
	<g>
		<g>
			<path class="st18" d="M278.5,590.2v8.3h-0.6v-8.3H278.5z"/>
			<path class="st18" d="M280.8,594c0-0.5,0-0.9,0-1.4h0.6l0,1.1h0c0.3-0.7,1.1-1.2,2-1.2c0.6,0,2.1,0.3,2.1,2.5v3.5h-0.6V595
				c0-1.1-0.4-2-1.6-2c-0.8,0-1.5,0.6-1.8,1.4c0,0.1-0.1,0.3-0.1,0.5v3.7h-0.6V594z"/>
			<path class="st18" d="M289.8,594.9v0.5h-2.9v-0.5H289.8z"/>
			<path class="st18" d="M291.1,597.7c0.3,0.2,0.8,0.4,1.3,0.4c0.9,0,1.4-0.5,1.4-1.1c0-0.7-0.4-1-1.2-1.3c-1-0.4-1.5-0.9-1.5-1.6
				c0-0.9,0.7-1.6,1.8-1.6c0.5,0,1,0.2,1.3,0.4l-0.2,0.5c-0.2-0.1-0.6-0.4-1.2-0.4c-0.8,0-1.1,0.5-1.1,1c0,0.6,0.4,0.9,1.2,1.2
				c1,0.4,1.5,0.9,1.5,1.8c0,1-0.8,1.7-2,1.7c-0.6,0-1.1-0.2-1.5-0.4L291.1,597.7z"/>
			<path class="st18" d="M296.9,591.3v1.3h1.7v0.5h-1.7v3.8c0,0.8,0.2,1.2,0.9,1.2c0.3,0,0.5,0,0.7-0.1l0.1,0.4
				c-0.2,0.1-0.5,0.1-0.8,0.1c-0.4,0-0.8-0.1-1-0.4c-0.3-0.3-0.4-0.8-0.4-1.4v-3.7h-1v-0.5h1v-1.1L296.9,591.3z"/>
			<path class="st18" d="M305,595.5c0,2.2-1.5,3.2-2.8,3.2c-1.5,0-2.7-1.2-2.7-3c0-2,1.3-3.1,2.8-3.1
				C303.9,592.5,305,593.7,305,595.5z M300,595.6c0,1.5,0.9,2.6,2.2,2.6c1.2,0,2.2-1.1,2.2-2.6c0-1.1-0.6-2.6-2.2-2.6
				C300.7,592.9,300,594.3,300,595.6z"/>
			<path class="st18" d="M306.6,594.4c0-0.6,0-1.2,0-1.8h0.5l0,1.2h0c0.3-0.7,0.9-1.3,1.7-1.3c0.1,0,0.2,0,0.2,0v0.6
				c-0.1,0-0.2,0-0.3,0c-0.8,0-1.4,0.7-1.6,1.7c0,0.2,0,0.4,0,0.6v3.3h-0.6V594.4z"/>
			<path class="st18" d="M310.3,595.5c0,1.9,1,2.6,2.3,2.6c0.9,0,1.3-0.2,1.6-0.3l0.1,0.5c-0.2,0.1-0.8,0.4-1.9,0.4
				c-1.7,0-2.8-1.2-2.8-3c0-2,1.1-3.2,2.7-3.2c1.9,0,2.3,1.8,2.3,2.7c0,0.2,0,0.2,0,0.4H310.3z M314.1,595c0-0.8-0.3-2.1-1.8-2.1
				c-1.3,0-1.9,1.2-2,2.1H314.1z"/>
			<path class="st18" d="M319.1,594.5c0-0.7,0-1.3,0-1.9h0.6l0,1.1h0c0.4-0.8,1.2-1.3,2.2-1.3c1.5,0,2.6,1.3,2.6,3
				c0,2.1-1.3,3.2-2.7,3.2c-0.9,0-1.6-0.4-2-1.1h0v3.4h-0.6V594.5z M319.7,596.2c0,0.2,0,0.3,0,0.5c0.2,0.9,1,1.5,1.9,1.5
				c1.4,0,2.1-1.1,2.1-2.7c0-1.3-0.7-2.5-2.1-2.5c-0.9,0-1.7,0.6-2,1.6c0,0.2-0.1,0.3-0.1,0.5V596.2z"/>
			<path class="st18" d="M326.8,590.9c0,0.3-0.2,0.5-0.5,0.5c-0.3,0-0.5-0.2-0.5-0.5c0-0.3,0.2-0.5,0.5-0.5
				C326.6,590.4,326.8,590.6,326.8,590.9z M326.1,598.5v-5.9h0.6v5.9H326.1z"/>
			<path class="st18" d="M332.8,598.2c-0.3,0.1-0.9,0.4-1.7,0.4c-1.7,0-2.8-1.2-2.8-3c0-1.9,1.3-3.2,3-3.2c0.7,0,1.3,0.2,1.6,0.4
				l-0.2,0.5c-0.3-0.2-0.7-0.3-1.4-0.3c-1.6,0-2.4,1.2-2.4,2.6c0,1.6,1,2.6,2.3,2.6c0.7,0,1.2-0.2,1.5-0.3L332.8,598.2z"/>
			<path class="st18" d="M335,595.4L335,595.4c0.2-0.2,0.4-0.5,0.6-0.7l2.1-2.2h0.7L336,595l2.7,3.5H338l-2.4-3.1L335,596v2.5h-0.6
				v-8.7h0.6V595.4z"/>
			<path class="st18" d="M344.4,597.1c0,0.5,0,1,0,1.4h-0.6l0-1.1h0c-0.3,0.6-1,1.2-2,1.2c-0.8,0-2-0.4-2-2.6v-3.4h0.6v3.3
				c0,1.3,0.4,2.2,1.6,2.2c0.9,0,1.5-0.6,1.7-1.2c0.1-0.2,0.1-0.4,0.1-0.7v-3.7h0.6V597.1z"/>
			<path class="st18" d="M346.5,594.5c0-0.7,0-1.3,0-1.9h0.6l0,1.1h0c0.4-0.8,1.2-1.3,2.2-1.3c1.5,0,2.6,1.3,2.6,3
				c0,2.1-1.3,3.2-2.7,3.2c-0.9,0-1.6-0.4-2-1.1h0v3.4h-0.6V594.5z M347.1,596.2c0,0.2,0,0.3,0,0.5c0.2,0.9,1,1.5,1.9,1.5
				c1.4,0,2.1-1.1,2.1-2.7c0-1.3-0.7-2.5-2.1-2.5c-0.9,0-1.7,0.6-2,1.6c0,0.2-0.1,0.3-0.1,0.5V596.2z"/>
		</g>
	</g>
	<g>
		<g>
			<path class="st18" d="M412.4,590.3c0.6-0.1,1.3-0.2,2.1-0.2c1.5,0,2.7,0.4,3.4,1.1c0.7,0.7,1,1.6,1,2.9c0,1.2-0.3,2.3-1.1,3.1
				c-0.7,0.8-2,1.3-3.6,1.3c-0.6,0-1.2,0-1.8-0.1V590.3z M413,598c0.3,0,0.8,0.1,1.3,0.1c2.7,0,4-1.5,4-3.9c0-2.1-1.1-3.5-3.8-3.5
				c-0.6,0-1.1,0.1-1.5,0.1V598z"/>
			<path class="st18" d="M420.5,594.4c0-0.6,0-1.2,0-1.8h0.5l0,1.2h0c0.3-0.7,0.9-1.3,1.7-1.3c0.1,0,0.2,0,0.2,0v0.6
				c-0.1,0-0.2,0-0.3,0c-0.8,0-1.4,0.7-1.6,1.7c0,0.2,0,0.4,0,0.6v3.3h-0.6V594.4z"/>
			<path class="st18" d="M425.1,590.9c0,0.3-0.2,0.5-0.5,0.5c-0.3,0-0.5-0.2-0.5-0.5c0-0.3,0.2-0.5,0.5-0.5
				C425,590.4,425.1,590.6,425.1,590.9z M424.4,598.5v-5.9h0.6v5.9H424.4z"/>
			<path class="st18" d="M426.9,592.6l1.4,3.7c0.2,0.6,0.4,1.1,0.6,1.6h0c0.2-0.5,0.4-1,0.6-1.6l1.4-3.7h0.6l-2.4,5.9h-0.5l-2.3-5.9
				H426.9z"/>
			<path class="st18" d="M432.8,595.5c0,1.9,1,2.6,2.3,2.6c0.9,0,1.3-0.2,1.6-0.3l0.1,0.5c-0.2,0.1-0.8,0.4-1.9,0.4
				c-1.7,0-2.8-1.2-2.8-3c0-2,1.1-3.2,2.7-3.2c1.9,0,2.3,1.8,2.3,2.7c0,0.2,0,0.2,0,0.4H432.8z M436.6,595c0-0.8-0.3-2.1-1.8-2.1
				c-1.3,0-1.9,1.2-2,2.1H436.6z"/>
			<path class="st18" d="M442.4,591.3v1.3h1.7v0.5h-1.7v3.8c0,0.8,0.2,1.2,0.9,1.2c0.3,0,0.5,0,0.7-0.1l0.1,0.4
				c-0.2,0.1-0.5,0.1-0.8,0.1c-0.4,0-0.8-0.1-1-0.4c-0.3-0.3-0.4-0.8-0.4-1.4v-3.7h-1v-0.5h1v-1.1L442.4,591.3z"/>
			<path class="st18" d="M445.6,589.8h0.6v3.9h0c0.2-0.3,0.5-0.7,0.8-0.9c0.3-0.2,0.8-0.3,1.2-0.3c0.6,0,2.1,0.3,2.1,2.5v3.6h-0.6
				V595c0-1.1-0.4-2-1.6-2c-0.8,0-1.5,0.6-1.8,1.3c-0.1,0.2-0.1,0.3-0.1,0.6v3.6h-0.6V589.8z"/>
			<path class="st18" d="M452.3,594.4c0-0.6,0-1.2,0-1.8h0.5l0,1.2h0c0.3-0.7,0.9-1.3,1.7-1.3c0.1,0,0.2,0,0.2,0v0.6
				c-0.1,0-0.2,0-0.3,0c-0.8,0-1.4,0.7-1.6,1.7c0,0.2,0,0.4,0,0.6v3.3h-0.6V594.4z"/>
			<path class="st18" d="M460.6,597.1c0,0.5,0,1,0,1.4h-0.6l0-1.1h0c-0.3,0.6-1,1.2-2,1.2c-0.8,0-2-0.4-2-2.6v-3.4h0.6v3.3
				c0,1.3,0.4,2.2,1.6,2.2c0.9,0,1.5-0.6,1.7-1.2c0.1-0.2,0.1-0.4,0.1-0.7v-3.7h0.6V597.1z"/>
			<path class="st18" d="M465.5,594.5c0-0.7,0-1.3,0-1.9h0.6l0,1.1h0c0.4-0.8,1.2-1.3,2.2-1.3c1.5,0,2.6,1.3,2.6,3
				c0,2.1-1.3,3.2-2.7,3.2c-0.9,0-1.6-0.4-2-1.1h0v3.4h-0.6V594.5z M466.1,596.2c0,0.2,0,0.3,0,0.5c0.2,0.9,1,1.5,1.9,1.5
				c1.4,0,2.1-1.1,2.1-2.7c0-1.3-0.7-2.5-2.1-2.5c-0.9,0-1.7,0.6-2,1.6c0,0.2-0.1,0.3-0.1,0.5V596.2z"/>
			<path class="st18" d="M473.2,590.9c0,0.3-0.2,0.5-0.5,0.5c-0.3,0-0.5-0.2-0.5-0.5c0-0.3,0.2-0.5,0.5-0.5
				C473,590.4,473.2,590.6,473.2,590.9z M472.5,598.5v-5.9h0.6v5.9H472.5z"/>
			<path class="st18" d="M479.2,598.2c-0.3,0.1-0.9,0.4-1.7,0.4c-1.7,0-2.8-1.2-2.8-3c0-1.9,1.3-3.2,3-3.2c0.7,0,1.3,0.2,1.6,0.4
				l-0.2,0.5c-0.3-0.2-0.7-0.3-1.4-0.3c-1.6,0-2.4,1.2-2.4,2.6c0,1.6,1,2.6,2.3,2.6c0.7,0,1.2-0.2,1.5-0.3L479.2,598.2z"/>
			<path class="st18" d="M481.4,595.4L481.4,595.4c0.2-0.2,0.4-0.5,0.6-0.7l2.1-2.2h0.7l-2.4,2.5l2.7,3.5h-0.7l-2.4-3.1l-0.6,0.6
				v2.5h-0.6v-8.7h0.6V595.4z"/>
			<path class="st18" d="M490.8,597.1c0,0.5,0,1,0,1.4h-0.6l0-1.1h0c-0.3,0.6-1,1.2-2,1.2c-0.8,0-2-0.4-2-2.6v-3.4h0.6v3.3
				c0,1.3,0.4,2.2,1.6,2.2c0.9,0,1.5-0.6,1.7-1.2c0.1-0.2,0.1-0.4,0.1-0.7v-3.7h0.6V597.1z"/>
			<path class="st18" d="M492.9,594.5c0-0.7,0-1.3,0-1.9h0.6l0,1.1h0c0.4-0.8,1.2-1.3,2.2-1.3c1.5,0,2.6,1.3,2.6,3
				c0,2.1-1.3,3.2-2.7,3.2c-0.9,0-1.6-0.4-2-1.1h0v3.4h-0.6V594.5z M493.5,596.2c0,0.2,0,0.3,0,0.5c0.2,0.9,1,1.5,1.9,1.5
				c1.4,0,2.1-1.1,2.1-2.7c0-1.3-0.7-2.5-2.1-2.5c-0.9,0-1.7,0.6-2,1.6c0,0.2-0.1,0.3-0.1,0.5V596.2z"/>
		</g>
	</g>
	<g>
		<g>
			<path class="st18" d="M559.4,590.2v3.7h4.6v-3.7h0.6v8.3H564v-4.2h-4.6v4.2h-0.6v-8.3H559.4z"/>
			<path class="st18" d="M571.8,595.5c0,2.2-1.5,3.2-2.8,3.2c-1.5,0-2.7-1.2-2.7-3c0-2,1.3-3.1,2.8-3.1
				C570.7,592.5,571.8,593.7,571.8,595.5z M566.8,595.6c0,1.5,0.9,2.6,2.2,2.6c1.2,0,2.2-1.1,2.2-2.6c0-1.1-0.6-2.6-2.2-2.6
				C567.5,592.9,566.8,594.3,566.8,595.6z"/>
			<path class="st18" d="M573.4,594c0-0.5,0-0.9,0-1.4h0.6l0,1h0c0.4-0.7,0.9-1.2,1.9-1.2c0.8,0,1.4,0.5,1.7,1.3h0
				c0.2-0.4,0.4-0.6,0.6-0.8c0.4-0.3,0.8-0.5,1.4-0.5c0.6,0,1.9,0.3,1.9,2.6v3.5H581v-3.4c0-1.3-0.5-2.1-1.5-2.1
				c-0.7,0-1.3,0.5-1.6,1.2c0,0.2-0.1,0.4-0.1,0.6v3.8h-0.6v-3.7c0-1.1-0.5-1.8-1.5-1.8c-0.8,0-1.4,0.6-1.6,1.3
				c0,0.2-0.1,0.4-0.1,0.6v3.6h-0.6V594z"/>
			<path class="st18" d="M583.7,595.5c0,1.9,1,2.6,2.3,2.6c0.9,0,1.3-0.2,1.6-0.3l0.1,0.5c-0.2,0.1-0.8,0.4-1.9,0.4
				c-1.7,0-2.8-1.2-2.8-3c0-2,1.1-3.2,2.7-3.2c1.9,0,2.3,1.8,2.3,2.7c0,0.2,0,0.2,0,0.4H583.7z M587.5,595c0-0.8-0.3-2.1-1.8-2.1
				c-1.3,0-1.9,1.2-2,2.1H587.5z"/>
			<path class="st18" d="M597.3,589.8v7.4c0,0.4,0,1,0,1.4h-0.5l0-1.1h0c-0.3,0.7-1,1.3-2.1,1.3c-1.5,0-2.6-1.2-2.6-3
				c0-2,1.2-3.2,2.7-3.2c1,0,1.7,0.5,1.9,1h0v-3.7H597.3z M596.7,594.9c0-0.2,0-0.4-0.1-0.5c-0.2-0.8-0.9-1.4-1.9-1.4
				c-1.3,0-2.1,1.1-2.1,2.7c0,1.3,0.7,2.6,2.1,2.6c0.9,0,1.7-0.6,1.9-1.5c0-0.2,0.1-0.3,0.1-0.5V594.9z"/>
			<path class="st18" d="M599.5,595.5c0,1.9,1,2.6,2.3,2.6c0.9,0,1.3-0.2,1.6-0.3l0.1,0.5c-0.2,0.1-0.8,0.4-1.9,0.4
				c-1.7,0-2.8-1.2-2.8-3c0-2,1.1-3.2,2.7-3.2c1.9,0,2.3,1.8,2.3,2.7c0,0.2,0,0.2,0,0.4H599.5z M603.2,595c0-0.8-0.3-2.1-1.8-2.1
				c-1.3,0-1.9,1.2-2,2.1H603.2z"/>
			<path class="st18" d="M605.5,589.8h0.6v8.7h-0.6V589.8z"/>
			<path class="st18" d="M609,590.9c0,0.3-0.2,0.5-0.5,0.5c-0.3,0-0.5-0.2-0.5-0.5c0-0.3,0.2-0.5,0.5-0.5
				C608.8,590.4,609,590.6,609,590.9z M608.2,598.5v-5.9h0.6v5.9H608.2z"/>
			<path class="st18" d="M610.7,592.6l1.4,3.7c0.2,0.6,0.4,1.1,0.6,1.6h0c0.2-0.5,0.4-1,0.6-1.6l1.4-3.7h0.6l-2.4,5.9h-0.5l-2.3-5.9
				H610.7z"/>
			<path class="st18" d="M616.6,595.5c0,1.9,1,2.6,2.3,2.6c0.9,0,1.3-0.2,1.6-0.3l0.1,0.5c-0.2,0.1-0.8,0.4-1.9,0.4
				c-1.7,0-2.8-1.2-2.8-3c0-2,1.1-3.2,2.7-3.2c1.9,0,2.3,1.8,2.3,2.7c0,0.2,0,0.2,0,0.4H616.6z M620.4,595c0-0.8-0.3-2.1-1.8-2.1
				c-1.3,0-1.9,1.2-2,2.1H620.4z"/>
			<path class="st18" d="M622.6,594.4c0-0.6,0-1.2,0-1.8h0.5l0,1.2h0c0.3-0.7,0.9-1.3,1.7-1.3c0.1,0,0.2,0,0.2,0v0.6
				c-0.1,0-0.2,0-0.3,0c-0.8,0-1.4,0.7-1.6,1.7c0,0.2,0,0.4,0,0.6v3.3h-0.6V594.4z"/>
			<path class="st18" d="M626.5,592.6l1.6,3.9c0.2,0.4,0.3,0.9,0.4,1.3h0c0.1-0.4,0.3-0.8,0.5-1.3l1.4-3.8h0.6l-1.8,4.4
				c-0.7,1.8-1.2,2.9-2,3.6c-0.5,0.4-0.9,0.6-1,0.6l-0.2-0.5c0.3-0.1,0.7-0.3,1-0.7c0.3-0.3,0.7-0.8,1-1.5c0-0.1,0.1-0.2,0.1-0.3
				c0,0,0-0.1-0.1-0.3l-2.2-5.5H626.5z"/>
		</g>
	</g>
	<g>
		<g>
			<path class="st18" d="M68.9,215.9c0.5,0.3,1.1,0.5,1.8,0.5c1.2,0,2-0.7,2-1.7c0-0.9-0.5-1.5-1.7-1.9c-1.3-0.5-2.1-1.2-2.1-2.3
				c0-1.2,1-2.1,2.4-2.1c0.8,0,1.4,0.2,1.7,0.4l-0.2,0.5c-0.2-0.2-0.8-0.4-1.5-0.4c-1.3,0-1.8,0.9-1.8,1.5c0,0.9,0.5,1.4,1.7,1.9
				c1.4,0.6,2.1,1.2,2.1,2.4c0,1.2-0.9,2.3-2.6,2.3c-0.7,0-1.6-0.2-2-0.6L68.9,215.9z"/>
			<path class="st18" d="M75,208h0.6v3.9h0c0.2-0.3,0.5-0.7,0.8-0.9c0.3-0.2,0.8-0.3,1.2-0.3c0.6,0,2.1,0.3,2.1,2.5v3.6H79v-3.5
				c0-1.1-0.4-2-1.6-2c-0.8,0-1.5,0.6-1.8,1.3c-0.1,0.2-0.1,0.3-0.1,0.6v3.6H75V208z"/>
			<path class="st18" d="M81.8,213.8c0,1.9,1,2.6,2.3,2.6c0.9,0,1.3-0.2,1.6-0.3l0.1,0.5c-0.2,0.1-0.8,0.4-1.9,0.4
				c-1.7,0-2.8-1.2-2.8-3c0-2,1.1-3.2,2.7-3.2c1.9,0,2.3,1.8,2.3,2.7c0,0.2,0,0.2,0,0.4H81.8z M85.6,213.3c0-0.8-0.3-2.1-1.8-2.1
				c-1.3,0-1.9,1.2-2,2.1H85.6z"/>
			<path class="st18" d="M87.8,208h0.6v8.7h-0.6V208z"/>
			<path class="st18" d="M90.6,216.8v-5.4h-0.9v-0.5h0.9v-0.3c0-0.9,0.2-1.7,0.7-2.1c0.4-0.4,0.9-0.5,1.3-0.5c0.4,0,0.7,0.1,0.9,0.2
				l-0.2,0.5c-0.2-0.1-0.4-0.2-0.8-0.2c-1.1,0-1.3,1-1.3,2.1v0.3h1.6v0.5h-1.6v5.4H90.6z"/>
		</g>
	</g>
	<g>
		<g>
			<path class="st18" d="M530.3,385.9h-2.7v-0.5h6v0.5h-2.7v7.8h-0.6V385.9z"/>
			<path class="st18" d="M534.1,389.6c0-0.6,0-1.2,0-1.8h0.5l0,1.2h0c0.3-0.7,0.9-1.3,1.7-1.3c0.1,0,0.2,0,0.2,0v0.6
				c-0.1,0-0.2,0-0.3,0c-0.8,0-1.4,0.7-1.6,1.7c0,0.2,0,0.4,0,0.6v3.3h-0.6V389.6z"/>
			<path class="st18" d="M541.5,392.3c0,0.5,0,0.9,0.1,1.4h-0.5l-0.1-0.9h0c-0.3,0.5-0.9,1-1.9,1c-1.2,0-1.7-0.8-1.7-1.6
				c0-1.4,1.2-2.2,3.6-2.2v-0.2c0-0.6-0.1-1.8-1.5-1.7c-0.5,0-1.1,0.1-1.5,0.4l-0.2-0.4c0.5-0.4,1.2-0.5,1.7-0.5c1.7,0,2,1.3,2,2.3
				V392.3z M540.9,390.5c-1.3,0-3,0.2-3,1.6c0,0.9,0.6,1.2,1.2,1.2c1,0,1.6-0.6,1.8-1.2c0-0.1,0.1-0.3,0.1-0.4V390.5z"/>
			<path class="st18" d="M548.3,384.9v7.4c0,0.4,0,1,0,1.4h-0.5l0-1.1h0c-0.3,0.7-1,1.3-2.1,1.3c-1.5,0-2.6-1.2-2.6-3
				c0-2,1.2-3.2,2.7-3.2c1,0,1.7,0.5,1.9,1h0v-3.7H548.3z M547.7,390.1c0-0.2,0-0.4-0.1-0.5c-0.2-0.8-0.9-1.4-1.9-1.4
				c-1.3,0-2.1,1.1-2.1,2.6c0,1.3,0.7,2.6,2.1,2.6c0.9,0,1.7-0.6,1.9-1.5c0-0.2,0.1-0.3,0.1-0.5V390.1z"/>
			<path class="st18" d="M551.2,386.1c0,0.3-0.2,0.5-0.5,0.5c-0.3,0-0.5-0.2-0.5-0.5s0.2-0.5,0.5-0.5
				C551,385.6,551.2,385.8,551.2,386.1z M550.4,393.7v-5.9h0.6v5.9H550.4z"/>
			<path class="st18" d="M553.9,386.5v1.3h1.7v0.5h-1.7v3.8c0,0.8,0.2,1.2,0.9,1.2c0.3,0,0.5,0,0.7-0.1l0.1,0.4
				c-0.2,0.1-0.5,0.1-0.8,0.1c-0.4,0-0.8-0.1-1-0.4c-0.3-0.3-0.4-0.8-0.4-1.4v-3.7h-1v-0.5h1v-1.1L553.9,386.5z"/>
			<path class="st18" d="M557.8,386.1c0,0.3-0.2,0.5-0.5,0.5c-0.3,0-0.5-0.2-0.5-0.5s0.2-0.5,0.5-0.5
				C557.6,385.6,557.8,385.8,557.8,386.1z M557,393.7v-5.9h0.6v5.9H557z"/>
			<path class="st18" d="M564.8,390.7c0,2.2-1.5,3.2-2.8,3.2c-1.5,0-2.7-1.2-2.7-3c0-2,1.3-3.1,2.8-3.1
				C563.7,387.6,564.8,388.9,564.8,390.7z M559.8,390.7c0,1.5,0.9,2.6,2.2,2.6c1.2,0,2.2-1.1,2.2-2.6c0-1.1-0.6-2.6-2.2-2.6
				C560.5,388.1,559.8,389.5,559.8,390.7z"/>
			<path class="st18" d="M566.4,389.2c0-0.5,0-0.9,0-1.4h0.6l0,1.1h0c0.3-0.7,1.1-1.2,2-1.2c0.6,0,2.1,0.3,2.1,2.5v3.6h-0.6v-3.5
				c0-1.1-0.4-2-1.6-2c-0.8,0-1.5,0.6-1.8,1.4c0,0.1-0.1,0.3-0.1,0.5v3.7h-0.6V389.2z"/>
			<path class="st18" d="M576.8,392.3c0,0.5,0,0.9,0.1,1.4h-0.5l-0.1-0.9h0c-0.3,0.5-0.9,1-1.9,1c-1.2,0-1.7-0.8-1.7-1.6
				c0-1.4,1.2-2.2,3.6-2.2v-0.2c0-0.6-0.1-1.8-1.5-1.7c-0.5,0-1.1,0.1-1.5,0.4l-0.2-0.4c0.5-0.4,1.2-0.5,1.7-0.5c1.7,0,2,1.3,2,2.3
				V392.3z M576.2,390.5c-1.3,0-3,0.2-3,1.6c0,0.9,0.6,1.2,1.2,1.2c1,0,1.6-0.6,1.8-1.2c0-0.1,0.1-0.3,0.1-0.4V390.5z"/>
			<path class="st18" d="M578.9,384.9h0.6v8.8h-0.6V384.9z"/>
			<path class="st18" d="M541.2,408.2c-0.3,0.1-0.9,0.4-1.7,0.4c-1.7,0-2.8-1.2-2.8-3c0-1.9,1.3-3.2,3-3.2c0.7,0,1.3,0.2,1.6,0.4
				l-0.2,0.5c-0.3-0.2-0.7-0.3-1.4-0.3c-1.6,0-2.4,1.2-2.4,2.6c0,1.6,1,2.6,2.3,2.6c0.7,0,1.2-0.2,1.5-0.3L541.2,408.2z"/>
			<path class="st18" d="M546.4,407.1c0,0.5,0,0.9,0.1,1.4h-0.5l-0.1-0.9h0c-0.3,0.5-0.9,1-1.9,1c-1.2,0-1.7-0.8-1.7-1.6
				c0-1.4,1.2-2.2,3.6-2.2v-0.2c0-0.6-0.1-1.8-1.5-1.7c-0.5,0-1.1,0.1-1.5,0.4l-0.2-0.4c0.5-0.4,1.2-0.5,1.7-0.5c1.7,0,2,1.3,2,2.3
				V407.1z M545.8,405.3c-1.3,0-3,0.2-3,1.6c0,0.9,0.6,1.2,1.2,1.2c1,0,1.6-0.6,1.8-1.2c0-0.1,0.1-0.3,0.1-0.4V405.3z"/>
			<path class="st18" d="M548.2,407.7c0.3,0.2,0.8,0.4,1.3,0.4c0.9,0,1.4-0.5,1.4-1.1c0-0.7-0.4-1-1.2-1.3c-1-0.4-1.5-0.9-1.5-1.6
				c0-0.9,0.7-1.6,1.8-1.6c0.5,0,1,0.2,1.3,0.4l-0.2,0.5c-0.2-0.1-0.6-0.4-1.2-0.4c-0.8,0-1.1,0.5-1.1,1c0,0.6,0.4,0.9,1.2,1.2
				c1,0.4,1.5,0.9,1.5,1.8c0,1-0.8,1.7-2,1.7c-0.6,0-1.1-0.2-1.5-0.4L548.2,407.7z"/>
			<path class="st18" d="M553.1,399.7h0.6v3.9h0c0.2-0.3,0.5-0.7,0.8-0.9c0.3-0.2,0.8-0.3,1.2-0.3c0.6,0,2.1,0.3,2.1,2.5v3.6h-0.6
				V405c0-1.1-0.4-2-1.6-2c-0.8,0-1.5,0.6-1.8,1.3c-0.1,0.2-0.1,0.3-0.1,0.6v3.6h-0.6V399.7z"/>
			<path class="st18" d="M560.6,400.9c0,0.3-0.2,0.5-0.5,0.5c-0.3,0-0.5-0.2-0.5-0.5c0-0.3,0.2-0.5,0.5-0.5
				C560.4,400.4,560.6,400.6,560.6,400.9z M559.9,408.5v-5.9h0.6v5.9H559.9z"/>
			<path class="st18" d="M562.7,405.5c0,1.9,1,2.6,2.3,2.6c0.9,0,1.3-0.2,1.6-0.3l0.1,0.5c-0.2,0.1-0.8,0.4-1.9,0.4
				c-1.7,0-2.8-1.2-2.8-3c0-2,1.1-3.2,2.7-3.2c1.9,0,2.3,1.8,2.3,2.7c0,0.2,0,0.2,0,0.4H562.7z M566.4,405c0-0.8-0.3-2.1-1.8-2.1
				c-1.3,0-1.9,1.2-2,2.1H566.4z"/>
			<path class="st18" d="M568.7,404.3c0-0.6,0-1.2,0-1.8h0.5l0,1.2h0c0.3-0.7,0.9-1.3,1.7-1.3c0.1,0,0.2,0,0.2,0v0.6
				c-0.1,0-0.2,0-0.3,0c-0.8,0-1.4,0.7-1.6,1.7c0,0.2,0,0.4,0,0.6v3.3h-0.6V404.3z"/>
			<path class="st18" d="M573.1,400.1L573.1,400.1l-0.8,0.4l-0.1-0.3l0.9-0.5h0.3v4.7h-0.3V400.1z"/>
		</g>
	</g>
	<g>
		<g>
			<path class="st18" d="M634.1,389.6h-3.3v3.6h3.7v0.5h-4.3v-8.3h4.1v0.5h-3.5v3.2h3.3V389.6z"/>
			<path class="st18" d="M636,384.9h0.6v8.7H636V384.9z"/>
			<path class="st18" d="M638.8,390.7c0,1.9,1,2.6,2.3,2.6c0.9,0,1.3-0.2,1.6-0.3l0.1,0.5c-0.2,0.1-0.8,0.4-1.9,0.4
				c-1.7,0-2.8-1.2-2.8-3c0-2,1.1-3.2,2.7-3.2c1.9,0,2.3,1.8,2.3,2.7c0,0.2,0,0.2,0,0.4H638.8z M642.6,390.2c0-0.8-0.3-2.1-1.8-2.1
				c-1.3,0-1.9,1.2-2,2.1H642.6z"/>
			<path class="st18" d="M648.9,393.4c-0.3,0.1-0.9,0.4-1.7,0.4c-1.7,0-2.8-1.2-2.8-3c0-1.9,1.3-3.2,3-3.2c0.7,0,1.3,0.2,1.6,0.4
				l-0.2,0.5c-0.3-0.2-0.7-0.3-1.4-0.3c-1.6,0-2.4,1.2-2.4,2.6c0,1.6,1,2.6,2.3,2.6c0.7,0,1.2-0.2,1.5-0.3L648.9,393.4z"/>
			<path class="st18" d="M651.4,386.5v1.3h1.7v0.5h-1.7v3.8c0,0.8,0.2,1.2,0.9,1.2c0.3,0,0.5,0,0.7-0.1l0.1,0.4
				c-0.2,0.1-0.5,0.1-0.8,0.1c-0.4,0-0.8-0.1-1-0.4c-0.3-0.3-0.4-0.8-0.4-1.4v-3.7h-1v-0.5h1v-1.1L651.4,386.5z"/>
			<path class="st18" d="M654.5,389.6c0-0.6,0-1.2,0-1.8h0.5l0,1.2h0c0.3-0.7,0.9-1.3,1.7-1.3c0.1,0,0.2,0,0.2,0v0.6
				c-0.1,0-0.2,0-0.3,0c-0.8,0-1.4,0.7-1.6,1.7c0,0.2,0,0.4,0,0.6v3.3h-0.6V389.6z"/>
			<path class="st18" d="M663.2,390.7c0,2.2-1.5,3.2-2.8,3.2c-1.5,0-2.7-1.2-2.7-3c0-2,1.3-3.1,2.8-3.1
				C662.1,387.6,663.2,388.9,663.2,390.7z M658.3,390.7c0,1.5,0.9,2.6,2.2,2.6c1.2,0,2.2-1.1,2.2-2.6c0-1.1-0.6-2.6-2.2-2.6
				C658.9,388.1,658.3,389.5,658.3,390.7z"/>
			<path class="st18" d="M664.9,389.2c0-0.5,0-0.9,0-1.4h0.6l0,1.1h0c0.3-0.7,1.1-1.2,2-1.2c0.6,0,2.1,0.3,2.1,2.5v3.5h-0.6v-3.5
				c0-1.1-0.4-2-1.6-2c-0.8,0-1.5,0.6-1.8,1.4c0,0.1-0.1,0.3-0.1,0.5v3.7h-0.6V389.2z"/>
			<path class="st18" d="M672.3,386.1c0,0.3-0.2,0.5-0.5,0.5c-0.3,0-0.5-0.2-0.5-0.5c0-0.3,0.2-0.5,0.5-0.5
				C672.1,385.6,672.3,385.8,672.3,386.1z M671.6,393.7v-5.9h0.6v5.9H671.6z"/>
			<path class="st18" d="M678.4,393.4c-0.3,0.1-0.9,0.4-1.7,0.4c-1.7,0-2.8-1.2-2.8-3c0-1.9,1.3-3.2,3-3.2c0.7,0,1.3,0.2,1.6,0.4
				l-0.2,0.5c-0.3-0.2-0.7-0.3-1.4-0.3c-1.6,0-2.4,1.2-2.4,2.6c0,1.6,1,2.6,2.3,2.6c0.7,0,1.2-0.2,1.5-0.3L678.4,393.4z"/>
			<path class="st18" d="M632.5,404.5c0-0.7,0-1.3,0-1.9h0.6l0,1.1h0c0.4-0.8,1.2-1.3,2.2-1.3c1.5,0,2.6,1.3,2.6,3
				c0,2.1-1.3,3.2-2.7,3.2c-0.9,0-1.6-0.4-2-1.1h0v3.4h-0.6V404.5z M633.1,406.2c0,0.2,0,0.3,0,0.5c0.2,0.9,1,1.5,1.9,1.5
				c1.4,0,2.1-1.1,2.1-2.7c0-1.3-0.7-2.5-2.1-2.5c-0.9,0-1.7,0.6-2,1.6c0,0.2-0.1,0.3-0.1,0.5V406.2z"/>
			<path class="st18" d="M643.1,407.1c0,0.5,0,0.9,0.1,1.4h-0.5l-0.1-0.9h0c-0.3,0.5-0.9,1-1.9,1c-1.2,0-1.7-0.8-1.7-1.6
				c0-1.4,1.2-2.2,3.6-2.2v-0.2c0-0.6-0.1-1.8-1.5-1.7c-0.5,0-1.1,0.1-1.5,0.4l-0.2-0.4c0.5-0.4,1.2-0.5,1.7-0.5c1.7,0,2,1.3,2,2.3
				V407.1z M642.5,405.3c-1.3,0-3,0.2-3,1.6c0,0.9,0.6,1.2,1.2,1.2c1,0,1.6-0.6,1.8-1.2c0-0.1,0.1-0.3,0.1-0.4V405.3z"/>
			<path class="st18" d="M644.8,402.6l1.6,3.9c0.2,0.4,0.3,0.9,0.4,1.3h0c0.1-0.4,0.3-0.8,0.5-1.3l1.4-3.8h0.6l-1.8,4.4
				c-0.7,1.8-1.2,2.9-2,3.6c-0.5,0.4-0.9,0.6-1,0.6l-0.2-0.5c0.3-0.1,0.7-0.3,1-0.7c0.3-0.3,0.7-0.8,1-1.5c0-0.1,0.1-0.2,0.1-0.3
				c0,0,0-0.1-0.1-0.3l-2.2-5.5H644.8z"/>
			<path class="st18" d="M650.6,404c0-0.5,0-0.9,0-1.4h0.6l0,1h0c0.4-0.7,0.9-1.2,1.9-1.2c0.8,0,1.4,0.5,1.7,1.3h0
				c0.2-0.4,0.4-0.6,0.6-0.8c0.4-0.3,0.8-0.5,1.4-0.5c0.6,0,1.9,0.3,1.9,2.6v3.5h-0.6v-3.4c0-1.3-0.5-2.1-1.5-2.1
				c-0.7,0-1.3,0.5-1.6,1.2c0,0.2-0.1,0.4-0.1,0.6v3.8h-0.6v-3.7c0-1.1-0.5-1.8-1.5-1.8c-0.8,0-1.4,0.6-1.6,1.3
				c0,0.2-0.1,0.4-0.1,0.6v3.6h-0.6V404z"/>
			<path class="st18" d="M660.9,405.5c0,1.9,1,2.6,2.3,2.6c0.9,0,1.3-0.2,1.6-0.3l0.1,0.5c-0.2,0.1-0.8,0.4-1.9,0.4
				c-1.7,0-2.8-1.2-2.8-3c0-2,1.1-3.2,2.7-3.2c1.9,0,2.3,1.8,2.3,2.7c0,0.2,0,0.2,0,0.4H660.9z M664.7,405c0-0.8-0.3-2.1-1.8-2.1
				c-1.3,0-1.9,1.2-2,2.1H664.7z"/>
			<path class="st18" d="M666.9,404c0-0.5,0-0.9,0-1.4h0.6l0,1.1h0c0.3-0.7,1.1-1.2,2-1.2c0.6,0,2.1,0.3,2.1,2.5v3.5H671V405
				c0-1.1-0.4-2-1.6-2c-0.8,0-1.5,0.6-1.8,1.4c0,0.1-0.1,0.3-0.1,0.5v3.7h-0.6V404z"/>
			<path class="st18" d="M674.5,401.3v1.3h1.7v0.5h-1.7v3.8c0,0.8,0.2,1.2,0.9,1.2c0.3,0,0.5,0,0.7-0.1l0.1,0.4
				c-0.2,0.1-0.5,0.1-0.8,0.1c-0.4,0-0.8-0.1-1-0.4c-0.3-0.3-0.4-0.8-0.4-1.4V403h-1v-0.5h1v-1.1L674.5,401.3z"/>
		</g>
	</g>
	<g>
		<g>
			<path class="st18" d="M306.2,389.5h-3.3v3.6h3.7v0.5h-4.3v-8.3h4.1v0.5h-3.5v3.2h3.3V389.5z"/>
			<path class="st18" d="M308.1,384.9h0.6v8.7h-0.6V384.9z"/>
			<path class="st18" d="M311,390.6c0,1.9,1,2.6,2.3,2.6c0.9,0,1.3-0.2,1.6-0.3l0.1,0.5c-0.2,0.1-0.8,0.4-1.9,0.4
				c-1.7,0-2.8-1.2-2.8-3c0-2,1.1-3.2,2.7-3.2c1.9,0,2.3,1.8,2.3,2.7c0,0.2,0,0.2,0,0.4H311z M314.7,390.2c0-0.8-0.3-2.1-1.8-2.1
				c-1.3,0-1.9,1.2-2,2.1H314.7z"/>
			<path class="st18" d="M321,393.4c-0.3,0.1-0.9,0.4-1.7,0.4c-1.7,0-2.8-1.2-2.8-3c0-1.9,1.3-3.2,3-3.2c0.7,0,1.3,0.2,1.6,0.4
				l-0.2,0.5c-0.3-0.2-0.7-0.3-1.4-0.3c-1.6,0-2.4,1.2-2.4,2.6c0,1.6,1,2.6,2.3,2.6c0.7,0,1.2-0.2,1.5-0.3L321,393.4z"/>
			<path class="st18" d="M323.5,386.4v1.3h1.7v0.5h-1.7v3.8c0,0.8,0.2,1.2,0.9,1.2c0.3,0,0.5,0,0.7-0.1l0.1,0.4
				c-0.2,0.1-0.5,0.1-0.8,0.1c-0.4,0-0.8-0.1-1-0.4c-0.3-0.3-0.4-0.8-0.4-1.4v-3.7h-1v-0.5h1v-1.1L323.5,386.4z"/>
			<path class="st18" d="M326.6,389.5c0-0.6,0-1.2,0-1.8h0.5l0,1.2h0c0.3-0.7,0.9-1.3,1.7-1.3c0.1,0,0.2,0,0.2,0v0.6
				c-0.1,0-0.2,0-0.3,0c-0.8,0-1.4,0.7-1.6,1.7c0,0.2,0,0.4,0,0.6v3.3h-0.6V389.5z"/>
			<path class="st18" d="M335.3,390.6c0,2.2-1.5,3.2-2.8,3.2c-1.5,0-2.7-1.2-2.7-3c0-2,1.3-3.1,2.8-3.1
				C334.2,387.6,335.3,388.8,335.3,390.6z M330.4,390.7c0,1.5,0.9,2.6,2.2,2.6c1.2,0,2.2-1.1,2.2-2.6c0-1.1-0.6-2.6-2.2-2.6
				C331.1,388.1,330.4,389.4,330.4,390.7z"/>
			<path class="st18" d="M337,389.2c0-0.5,0-0.9,0-1.4h0.6l0,1.1h0c0.3-0.7,1.1-1.2,2-1.2c0.6,0,2.1,0.3,2.1,2.5v3.5H341v-3.5
				c0-1.1-0.4-2-1.6-2c-0.8,0-1.5,0.6-1.8,1.4c0,0.1-0.1,0.3-0.1,0.5v3.7H337V389.2z"/>
			<path class="st18" d="M344.5,386.1c0,0.3-0.2,0.5-0.5,0.5c-0.3,0-0.5-0.2-0.5-0.5c0-0.3,0.2-0.5,0.5-0.5
				C344.3,385.5,344.5,385.8,344.5,386.1z M343.7,393.7v-5.9h0.6v5.9H343.7z"/>
			<path class="st18" d="M350.5,393.4c-0.3,0.1-0.9,0.4-1.7,0.4c-1.7,0-2.8-1.2-2.8-3c0-1.9,1.3-3.2,3-3.2c0.7,0,1.3,0.2,1.6,0.4
				l-0.2,0.5c-0.3-0.2-0.7-0.3-1.4-0.3c-1.6,0-2.4,1.2-2.4,2.6c0,1.6,1,2.6,2.3,2.6c0.7,0,1.2-0.2,1.5-0.3L350.5,393.4z"/>
			<path class="st18" d="M304.6,404.4c0-0.7,0-1.3,0-1.9h0.6l0,1.1h0c0.4-0.8,1.2-1.3,2.2-1.3c1.5,0,2.6,1.3,2.6,3
				c0,2.1-1.3,3.2-2.7,3.2c-0.9,0-1.6-0.4-2-1.1h0v3.4h-0.6V404.4z M305.2,406.1c0,0.2,0,0.3,0,0.5c0.2,0.9,1,1.5,1.9,1.5
				c1.4,0,2.1-1.1,2.1-2.7c0-1.3-0.7-2.5-2.1-2.5c-0.9,0-1.7,0.6-2,1.6c0,0.2-0.1,0.3-0.1,0.5V406.1z"/>
			<path class="st18" d="M315.2,407c0,0.5,0,0.9,0.1,1.4h-0.5l-0.1-0.9h0c-0.3,0.5-0.9,1-1.9,1c-1.2,0-1.7-0.8-1.7-1.6
				c0-1.4,1.2-2.2,3.6-2.2v-0.2c0-0.6-0.1-1.8-1.5-1.7c-0.5,0-1.1,0.1-1.5,0.4l-0.2-0.4c0.5-0.4,1.2-0.5,1.7-0.5c1.7,0,2,1.3,2,2.3
				V407z M314.6,405.3c-1.3,0-3,0.2-3,1.6c0,0.9,0.6,1.2,1.2,1.2c1,0,1.6-0.6,1.8-1.2c0-0.1,0.1-0.3,0.1-0.4V405.3z"/>
			<path class="st18" d="M316.9,402.5l1.6,3.9c0.2,0.4,0.3,0.9,0.4,1.3h0c0.1-0.4,0.3-0.8,0.5-1.3l1.4-3.8h0.6l-1.8,4.4
				c-0.7,1.8-1.2,2.9-2,3.6c-0.5,0.4-0.9,0.6-1,0.6l-0.2-0.5c0.3-0.1,0.7-0.3,1-0.7c0.3-0.3,0.7-0.8,1-1.5c0-0.1,0.1-0.2,0.1-0.3
				c0,0,0-0.1-0.1-0.3l-2.2-5.5H316.9z"/>
			<path class="st18" d="M322.7,403.9c0-0.5,0-0.9,0-1.4h0.6l0,1h0c0.4-0.7,0.9-1.2,1.9-1.2c0.8,0,1.4,0.5,1.7,1.3h0
				c0.2-0.4,0.4-0.6,0.6-0.8c0.4-0.3,0.8-0.5,1.4-0.5c0.6,0,1.9,0.3,1.9,2.6v3.5h-0.6V405c0-1.3-0.5-2.1-1.5-2.1
				c-0.7,0-1.3,0.5-1.6,1.2c0,0.2-0.1,0.4-0.1,0.6v3.8h-0.6v-3.7c0-1.1-0.5-1.8-1.5-1.8c-0.8,0-1.4,0.6-1.6,1.3
				c0,0.2-0.1,0.4-0.1,0.6v3.6h-0.6V403.9z"/>
			<path class="st18" d="M333,405.4c0,1.9,1,2.6,2.3,2.6c0.9,0,1.3-0.2,1.6-0.3l0.1,0.5c-0.2,0.1-0.8,0.4-1.9,0.4
				c-1.7,0-2.8-1.2-2.8-3c0-2,1.1-3.2,2.7-3.2c1.9,0,2.3,1.8,2.3,2.7c0,0.2,0,0.2,0,0.4H333z M336.8,405c0-0.8-0.3-2.1-1.8-2.1
				c-1.3,0-1.9,1.2-2,2.1H336.8z"/>
			<path class="st18" d="M339,403.9c0-0.5,0-0.9,0-1.4h0.6l0,1.1h0c0.3-0.7,1.1-1.2,2-1.2c0.6,0,2.1,0.3,2.1,2.5v3.5h-0.6v-3.5
				c0-1.1-0.4-2-1.6-2c-0.8,0-1.5,0.6-1.8,1.4c0,0.1-0.1,0.3-0.1,0.5v3.7H339V403.9z"/>
			<path class="st18" d="M346.6,401.2v1.3h1.7v0.5h-1.7v3.8c0,0.8,0.2,1.2,0.9,1.2c0.3,0,0.5,0,0.7-0.1l0.1,0.4
				c-0.2,0.1-0.5,0.1-0.8,0.1c-0.4,0-0.8-0.1-1-0.4c-0.3-0.3-0.4-0.8-0.4-1.4V403h-1v-0.5h1v-1.1L346.6,401.2z"/>
		</g>
	</g>
	<g>
		<g>
			<path class="st18" d="M163.9,590.2v5c0,2.1,1,2.9,2.2,2.9c1.4,0,2.3-0.9,2.3-2.9v-5h0.6v5c0,2.6-1.4,3.5-2.9,3.5
				c-1.5,0-2.8-0.9-2.8-3.4v-5.1H163.9z"/>
			<path class="st18" d="M171.2,594.5c0-0.7,0-1.3,0-1.9h0.6l0,1.1h0c0.4-0.8,1.2-1.3,2.2-1.3c1.5,0,2.6,1.3,2.6,3
				c0,2.1-1.3,3.2-2.7,3.2c-0.9,0-1.6-0.4-2-1.1h0v3.4h-0.6V594.5z M171.8,596.2c0,0.2,0,0.3,0,0.5c0.2,0.9,1,1.5,1.9,1.5
				c1.4,0,2.1-1.1,2.1-2.7c0-1.3-0.7-2.5-2.1-2.5c-0.9,0-1.7,0.6-2,1.6c0,0.2-0.1,0.3-0.1,0.5V596.2z"/>
			<path class="st18" d="M183.2,595.5c0,2.2-1.5,3.2-2.8,3.2c-1.5,0-2.7-1.2-2.7-3c0-2,1.3-3.1,2.8-3.1
				C182.1,592.5,183.2,593.7,183.2,595.5z M178.2,595.6c0,1.5,0.9,2.6,2.2,2.6c1.2,0,2.2-1.1,2.2-2.6c0-1.1-0.6-2.6-2.2-2.6
				C178.9,592.9,178.2,594.3,178.2,595.6z"/>
			<path class="st18" d="M184.8,594c0-0.5,0-0.9,0-1.4h0.6l0,1.1h0c0.3-0.7,1.1-1.2,2-1.2c0.6,0,2.1,0.3,2.1,2.5v3.5h-0.6V595
				c0-1.1-0.4-2-1.6-2c-0.8,0-1.5,0.6-1.8,1.4c0,0.1-0.1,0.3-0.1,0.5v3.7h-0.6V594z"/>
			<path class="st18" d="M199.1,589.8v7.4c0,0.4,0,1,0,1.4h-0.5l0-1.1h0c-0.3,0.7-1,1.3-2.1,1.3c-1.5,0-2.6-1.2-2.6-3
				c0-2,1.2-3.2,2.7-3.2c1,0,1.7,0.5,1.9,1h0v-3.7H199.1z M198.5,594.9c0-0.2,0-0.4-0.1-0.5c-0.2-0.8-0.9-1.4-1.9-1.4
				c-1.3,0-2.1,1.1-2.1,2.7c0,1.3,0.7,2.6,2.1,2.6c0.9,0,1.7-0.6,1.9-1.5c0-0.2,0.1-0.3,0.1-0.5V594.9z"/>
			<path class="st18" d="M201.3,595.5c0,1.9,1,2.6,2.3,2.6c0.9,0,1.3-0.2,1.6-0.3l0.1,0.5c-0.2,0.1-0.8,0.4-1.9,0.4
				c-1.7,0-2.8-1.2-2.8-3c0-2,1.1-3.2,2.7-3.2c1.9,0,2.3,1.8,2.3,2.7c0,0.2,0,0.2,0,0.4H201.3z M205,595c0-0.8-0.3-2.1-1.8-2.1
				c-1.3,0-1.9,1.2-2,2.1H205z"/>
			<path class="st18" d="M207.3,589.8h0.6v8.7h-0.6V589.8z"/>
			<path class="st18" d="M210.8,590.9c0,0.3-0.2,0.5-0.5,0.5c-0.3,0-0.5-0.2-0.5-0.5c0-0.3,0.2-0.5,0.5-0.5S210.8,590.6,210.8,590.9
				z M210,598.5v-5.9h0.6v5.9H210z"/>
			<path class="st18" d="M212.5,592.6l1.4,3.7c0.2,0.6,0.4,1.1,0.6,1.6h0c0.2-0.5,0.4-1,0.6-1.6l1.4-3.7h0.6l-2.4,5.9h-0.5l-2.3-5.9
				H212.5z"/>
			<path class="st18" d="M218.4,595.5c0,1.9,1,2.6,2.3,2.6c0.9,0,1.3-0.2,1.6-0.3l0.1,0.5c-0.2,0.1-0.8,0.4-1.9,0.4
				c-1.7,0-2.8-1.2-2.8-3c0-2,1.1-3.2,2.7-3.2c1.9,0,2.3,1.8,2.3,2.7c0,0.2,0,0.2,0,0.4H218.4z M222.2,595c0-0.8-0.3-2.1-1.8-2.1
				c-1.3,0-1.9,1.2-2,2.1H222.2z"/>
			<path class="st18" d="M224.4,594.4c0-0.6,0-1.2,0-1.8h0.5l0,1.2h0c0.3-0.7,0.9-1.3,1.7-1.3c0.1,0,0.2,0,0.2,0v0.6
				c-0.1,0-0.2,0-0.3,0c-0.8,0-1.4,0.7-1.6,1.7c0,0.2,0,0.4,0,0.6v3.3h-0.6V594.4z"/>
			<path class="st18" d="M228.3,592.6l1.6,3.9c0.2,0.4,0.3,0.9,0.4,1.3h0c0.1-0.4,0.3-0.8,0.5-1.3l1.4-3.8h0.6l-1.8,4.4
				c-0.7,1.8-1.2,2.9-2,3.6c-0.5,0.4-0.9,0.6-1,0.6l-0.2-0.5c0.3-0.1,0.7-0.3,1-0.7c0.3-0.3,0.7-0.8,1-1.5c0-0.1,0.1-0.2,0.1-0.3
				c0,0,0-0.1-0.1-0.3l-2.2-5.5H228.3z"/>
		</g>
	</g>
	<g>
		<g>
			<path class="st18" d="M40.5,384.2h-2.7v-0.5h6v0.5h-2.7v7.8h-0.6V384.2z"/>
			<path class="st18" d="M44.3,387.8c0-0.6,0-1.2,0-1.8h0.5l0,1.2h0c0.3-0.7,0.9-1.3,1.7-1.3c0.1,0,0.2,0,0.2,0v0.6
				c-0.1,0-0.2,0-0.3,0c-0.8,0-1.4,0.7-1.6,1.7c0,0.2,0,0.4,0,0.6v3.3h-0.6V387.8z"/>
			<path class="st18" d="M51.7,390.6c0,0.5,0,0.9,0.1,1.4h-0.5l-0.1-0.9h0c-0.3,0.5-0.9,1-1.9,1c-1.2,0-1.7-0.8-1.7-1.6
				c0-1.4,1.2-2.2,3.6-2.2v-0.2c0-0.6-0.1-1.8-1.5-1.7c-0.5,0-1.1,0.1-1.5,0.4l-0.2-0.4c0.5-0.4,1.2-0.5,1.7-0.5c1.7,0,2,1.3,2,2.3
				V390.6z M51.1,388.8c-1.3,0-3,0.2-3,1.6c0,0.9,0.6,1.2,1.2,1.2c1,0,1.6-0.6,1.7-1.2c0-0.1,0.1-0.3,0.1-0.4V388.8z"/>
			<path class="st18" d="M58.5,383.2v7.4c0,0.4,0,1,0,1.4H58l0-1.1h0c-0.3,0.7-1,1.3-2.1,1.3c-1.5,0-2.6-1.2-2.6-3
				c0-2,1.2-3.2,2.7-3.2c1,0,1.7,0.5,1.9,1h0v-3.7H58.5z M57.9,388.4c0-0.2,0-0.4-0.1-0.5c-0.2-0.8-0.9-1.4-1.9-1.4
				c-1.3,0-2.1,1.1-2.1,2.7c0,1.3,0.7,2.6,2.1,2.6c0.9,0,1.7-0.6,1.9-1.5c0-0.2,0.1-0.3,0.1-0.5V388.4z"/>
			<path class="st18" d="M61.3,384.4c0,0.3-0.2,0.5-0.5,0.5c-0.3,0-0.5-0.2-0.5-0.5c0-0.3,0.2-0.5,0.5-0.5
				C61.1,383.8,61.3,384.1,61.3,384.4z M60.6,392v-5.9h0.6v5.9H60.6z"/>
			<path class="st18" d="M64.1,384.7v1.3h1.7v0.5h-1.7v3.8c0,0.8,0.2,1.2,0.9,1.2c0.3,0,0.5,0,0.7-0.1l0.1,0.4
				c-0.2,0.1-0.5,0.1-0.8,0.1c-0.4,0-0.8-0.1-1-0.4c-0.3-0.3-0.4-0.8-0.4-1.4v-3.7h-1v-0.5h1V385L64.1,384.7z"/>
			<path class="st18" d="M68,384.4c0,0.3-0.2,0.5-0.5,0.5c-0.3,0-0.5-0.2-0.5-0.5c0-0.3,0.2-0.5,0.5-0.5
				C67.8,383.8,68,384.1,68,384.4z M67.2,392v-5.9h0.6v5.9H67.2z"/>
			<path class="st18" d="M75,388.9c0,2.2-1.5,3.2-2.8,3.2c-1.5,0-2.7-1.2-2.7-3c0-2,1.3-3.1,2.8-3.1C73.8,385.9,75,387.1,75,388.9z
				 M70,389c0,1.5,0.9,2.6,2.2,2.6c1.2,0,2.2-1.1,2.2-2.6c0-1.1-0.6-2.6-2.2-2.6C70.7,386.4,70,387.8,70,389z"/>
			<path class="st18" d="M76.6,387.5c0-0.5,0-0.9,0-1.4h0.6l0,1.1h0c0.3-0.7,1.1-1.2,2-1.2c0.6,0,2.1,0.3,2.1,2.5v3.5h-0.6v-3.5
				c0-1.1-0.4-2-1.6-2c-0.8,0-1.5,0.6-1.8,1.4c0,0.1-0.1,0.3-0.1,0.5v3.7h-0.6V387.5z"/>
			<path class="st18" d="M87,390.6c0,0.5,0,0.9,0.1,1.4h-0.5l-0.1-0.9h0c-0.3,0.5-0.9,1-1.9,1c-1.2,0-1.7-0.8-1.7-1.6
				c0-1.4,1.2-2.2,3.6-2.2v-0.2c0-0.6-0.1-1.8-1.5-1.7c-0.5,0-1.1,0.1-1.5,0.4l-0.2-0.4c0.5-0.4,1.2-0.5,1.7-0.5c1.7,0,2,1.3,2,2.3
				V390.6z M86.4,388.8c-1.3,0-3,0.2-3,1.6c0,0.9,0.6,1.2,1.2,1.2c1,0,1.6-0.6,1.7-1.2c0-0.1,0.1-0.3,0.1-0.4V388.8z"/>
			<path class="st18" d="M89,383.2h0.6v8.7H89V383.2z"/>
			<path class="st18" d="M51.3,406.5c-0.3,0.1-0.9,0.4-1.7,0.4c-1.7,0-2.8-1.2-2.8-3c0-1.9,1.3-3.2,3-3.2c0.7,0,1.3,0.2,1.6,0.4
				l-0.2,0.5c-0.3-0.2-0.7-0.3-1.4-0.3c-1.6,0-2.4,1.2-2.4,2.6c0,1.6,1,2.6,2.3,2.6c0.7,0,1.2-0.2,1.5-0.3L51.3,406.5z"/>
			<path class="st18" d="M56.6,405.4c0,0.5,0,0.9,0.1,1.4h-0.5l-0.1-0.9h0c-0.3,0.5-0.9,1-1.9,1c-1.2,0-1.7-0.8-1.7-1.6
				c0-1.4,1.2-2.2,3.6-2.2v-0.2c0-0.6-0.1-1.8-1.5-1.7c-0.5,0-1.1,0.1-1.5,0.4l-0.2-0.4c0.5-0.4,1.2-0.5,1.7-0.5c1.7,0,2,1.3,2,2.3
				V405.4z M56,403.6c-1.3,0-3,0.2-3,1.6c0,0.9,0.6,1.2,1.2,1.2c1,0,1.6-0.6,1.7-1.2c0-0.1,0.1-0.3,0.1-0.4V403.6z"/>
			<path class="st18" d="M58.4,406c0.3,0.2,0.8,0.4,1.3,0.4c0.9,0,1.4-0.5,1.4-1.1c0-0.7-0.4-1-1.2-1.3c-1-0.4-1.5-0.9-1.5-1.6
				c0-0.9,0.7-1.6,1.8-1.6c0.5,0,1,0.2,1.3,0.4l-0.2,0.5c-0.2-0.1-0.6-0.4-1.2-0.4c-0.8,0-1.1,0.5-1.1,1c0,0.6,0.4,0.9,1.2,1.2
				c1,0.4,1.5,0.9,1.5,1.8c0,1-0.8,1.7-2,1.7c-0.6,0-1.1-0.2-1.5-0.4L58.4,406z"/>
			<path class="st18" d="M63.3,398h0.6v3.9h0c0.2-0.3,0.5-0.7,0.8-0.9c0.3-0.2,0.8-0.3,1.2-0.3c0.6,0,2.1,0.3,2.1,2.5v3.6h-0.6v-3.5
				c0-1.1-0.4-2-1.6-2c-0.8,0-1.5,0.6-1.8,1.3c-0.1,0.2-0.1,0.3-0.1,0.6v3.6h-0.6V398z"/>
			<path class="st18" d="M70.8,399.2c0,0.3-0.2,0.5-0.5,0.5c-0.3,0-0.5-0.2-0.5-0.5c0-0.3,0.2-0.5,0.5-0.5S70.8,398.9,70.8,399.2z
				 M70,406.8v-5.9h0.6v5.9H70z"/>
			<path class="st18" d="M72.8,403.7c0,1.9,1,2.6,2.3,2.6c0.9,0,1.3-0.2,1.6-0.3l0.1,0.5c-0.2,0.1-0.8,0.4-1.9,0.4
				c-1.7,0-2.8-1.2-2.8-3c0-2,1.1-3.2,2.7-3.2c1.9,0,2.3,1.8,2.3,2.7c0,0.2,0,0.2,0,0.4H72.8z M76.6,403.3c0-0.8-0.3-2.1-1.8-2.1
				c-1.3,0-1.9,1.2-2,2.1H76.6z"/>
			<path class="st18" d="M78.8,402.6c0-0.6,0-1.2,0-1.8h0.5l0,1.2h0c0.3-0.7,0.9-1.3,1.7-1.3c0.1,0,0.2,0,0.2,0v0.6
				c-0.1,0-0.2,0-0.3,0c-0.8,0-1.4,0.7-1.6,1.7c0,0.2,0,0.4,0,0.6v3.3h-0.6V402.6z"/>
			<path class="st18" d="M83.3,398.3L83.3,398.3l-0.8,0.4l-0.1-0.3l0.9-0.5h0.3v4.7h-0.3V398.3z"/>
		</g>
	</g>
	<g>
		<g>
			<path class="st18" d="M129.8,404.7c0.5,0.3,1.1,0.5,1.8,0.5c1.2,0,2-0.7,2-1.7c0-0.9-0.5-1.5-1.7-1.9c-1.3-0.5-2.1-1.2-2.1-2.3
				c0-1.2,1-2.1,2.4-2.1c0.8,0,1.4,0.2,1.7,0.4l-0.2,0.5c-0.2-0.2-0.8-0.4-1.5-0.4c-1.3,0-1.8,0.9-1.8,1.5c0,0.9,0.5,1.4,1.7,1.9
				c1.4,0.6,2.1,1.2,2.1,2.4c0,1.2-0.9,2.3-2.6,2.3c-0.7,0-1.6-0.2-2-0.6L129.8,404.7z"/>
			<path class="st18" d="M136,402.5c0,1.9,1,2.6,2.3,2.6c0.9,0,1.3-0.2,1.6-0.3l0.1,0.5c-0.2,0.1-0.8,0.4-1.9,0.4
				c-1.7,0-2.8-1.2-2.8-3c0-2,1.1-3.2,2.7-3.2c1.9,0,2.3,1.8,2.3,2.7c0,0.2,0,0.2,0,0.4H136z M139.8,402.1c0-0.8-0.3-2.1-1.8-2.1
				c-1.3,0-1.9,1.2-2,2.1H139.8z"/>
			<path class="st18" d="M142.1,396.8h0.6v8.7h-0.6V396.8z"/>
			<path class="st18" d="M144.8,405.6v-5.4H144v-0.5h0.9v-0.3c0-0.9,0.2-1.7,0.7-2.1c0.4-0.4,0.9-0.5,1.3-0.5c0.4,0,0.7,0.1,0.9,0.2
				l-0.2,0.5c-0.2-0.1-0.4-0.2-0.8-0.2c-1.1,0-1.3,1-1.3,2.1v0.3h1.6v0.5h-1.6v5.4H144.8z"/>
			<path class="st18" d="M150.5,401.9v0.5h-2.9v-0.5H150.5z"/>
			<path class="st18" d="M151.7,404.8c0.3,0.2,0.8,0.4,1.3,0.4c0.9,0,1.4-0.5,1.4-1.1c0-0.7-0.4-1-1.2-1.3c-1-0.4-1.5-0.9-1.5-1.6
				c0-0.9,0.7-1.6,1.8-1.6c0.5,0,1,0.2,1.3,0.4l-0.2,0.5c-0.2-0.1-0.6-0.4-1.2-0.4c-0.8,0-1.1,0.5-1.1,1c0,0.6,0.4,0.9,1.2,1.2
				c1,0.4,1.5,0.9,1.5,1.8c0,1-0.8,1.7-2,1.7c-0.6,0-1.1-0.2-1.5-0.4L151.7,404.8z"/>
			<path class="st18" d="M160.7,405.3c-0.3,0.1-0.9,0.4-1.7,0.4c-1.7,0-2.8-1.2-2.8-3c0-1.9,1.3-3.2,3-3.2c0.7,0,1.3,0.2,1.6,0.4
				l-0.2,0.5c-0.3-0.2-0.7-0.3-1.4-0.3c-1.6,0-2.4,1.2-2.4,2.6c0,1.6,1,2.6,2.3,2.6c0.7,0,1.2-0.2,1.5-0.3L160.7,405.3z"/>
			<path class="st18" d="M166,404.2c0,0.5,0,0.9,0.1,1.4h-0.5l-0.1-0.9h0c-0.3,0.5-0.9,1-1.9,1c-1.2,0-1.7-0.8-1.7-1.6
				c0-1.4,1.2-2.2,3.6-2.2v-0.2c0-0.6-0.1-1.8-1.5-1.7c-0.5,0-1.1,0.1-1.5,0.4l-0.2-0.4c0.5-0.4,1.2-0.5,1.7-0.5c1.7,0,2,1.3,2,2.3
				V404.2z M165.4,402.4c-1.3,0-3,0.2-3,1.6c0,0.9,0.6,1.2,1.2,1.2c1,0,1.6-0.6,1.7-1.2c0-0.1,0.1-0.3,0.1-0.4V402.4z"/>
			<path class="st18" d="M168,401.1c0-0.5,0-0.9,0-1.4h0.6l0,1.1h0c0.3-0.7,1.1-1.2,2-1.2c0.6,0,2.1,0.3,2.1,2.5v3.5h-0.6v-3.5
				c0-1.1-0.4-2-1.6-2c-0.8,0-1.5,0.6-1.8,1.4c0,0.1-0.1,0.3-0.1,0.5v3.7H168V401.1z"/>
		</g>
	</g>
	<g>
		<g>
			<path class="st18" d="M205,404.6c0.5,0.3,1.1,0.5,1.8,0.5c1.2,0,2-0.7,2-1.7c0-0.9-0.5-1.5-1.7-1.9c-1.3-0.5-2.1-1.2-2.1-2.3
				c0-1.2,1-2.1,2.4-2.1c0.8,0,1.4,0.2,1.7,0.4l-0.2,0.5c-0.2-0.2-0.8-0.4-1.5-0.4c-1.3,0-1.8,0.9-1.8,1.5c0,0.9,0.5,1.4,1.7,1.9
				c1.4,0.6,2.1,1.2,2.1,2.4c0,1.2-0.9,2.3-2.6,2.3c-0.7,0-1.6-0.2-2-0.6L205,404.6z"/>
			<path class="st18" d="M211.3,402.5c0,1.9,1,2.6,2.3,2.6c0.9,0,1.3-0.2,1.6-0.3l0.1,0.5c-0.2,0.1-0.8,0.4-1.9,0.4
				c-1.7,0-2.8-1.2-2.8-3c0-2,1.1-3.2,2.7-3.2c1.9,0,2.3,1.8,2.3,2.7c0,0.2,0,0.2,0,0.4H211.3z M215.1,402.1c0-0.8-0.3-2.1-1.8-2.1
				c-1.3,0-1.9,1.2-2,2.1H215.1z"/>
			<path class="st18" d="M217.3,396.8h0.6v8.7h-0.6V396.8z"/>
			<path class="st18" d="M220.1,405.5v-5.4h-0.9v-0.5h0.9v-0.3c0-0.9,0.2-1.7,0.7-2.1c0.4-0.4,0.9-0.5,1.3-0.5
				c0.4,0,0.7,0.1,0.9,0.2l-0.2,0.5c-0.2-0.1-0.4-0.2-0.8-0.2c-1.1,0-1.3,1-1.3,2.1v0.3h1.6v0.5h-1.6v5.4H220.1z"/>
			<path class="st18" d="M225.7,401.9v0.5h-2.9v-0.5H225.7z"/>
			<path class="st18" d="M231.5,405.3c-0.3,0.1-0.9,0.4-1.7,0.4c-1.7,0-2.8-1.2-2.8-3c0-1.9,1.3-3.2,3-3.2c0.7,0,1.3,0.2,1.6,0.4
				l-0.2,0.5c-0.3-0.2-0.7-0.3-1.4-0.3c-1.6,0-2.4,1.2-2.4,2.6c0,1.6,1,2.6,2.3,2.6c0.7,0,1.2-0.2,1.5-0.3L231.5,405.3z"/>
			<path class="st18" d="M233.1,396.8h0.6v3.9h0c0.2-0.3,0.5-0.7,0.8-0.9c0.3-0.2,0.8-0.3,1.2-0.3c0.6,0,2.1,0.3,2.1,2.5v3.6h-0.6
				V402c0-1.1-0.4-2-1.6-2c-0.8,0-1.5,0.6-1.8,1.3c-0.1,0.2-0.1,0.3-0.1,0.6v3.6h-0.6V396.8z"/>
			<path class="st18" d="M239.9,402.5c0,1.9,1,2.6,2.3,2.6c0.9,0,1.3-0.2,1.6-0.3l0.1,0.5c-0.2,0.1-0.8,0.4-1.9,0.4
				c-1.7,0-2.8-1.2-2.8-3c0-2,1.1-3.2,2.7-3.2c1.9,0,2.3,1.8,2.3,2.7c0,0.2,0,0.2,0,0.4H239.9z M243.6,402.1c0-0.8-0.3-2.1-1.8-2.1
				c-1.3,0-1.9,1.2-2,2.1H243.6z"/>
			<path class="st18" d="M250,405.3c-0.3,0.1-0.9,0.4-1.7,0.4c-1.7,0-2.8-1.2-2.8-3c0-1.9,1.3-3.2,3-3.2c0.7,0,1.3,0.2,1.6,0.4
				l-0.2,0.5c-0.3-0.2-0.7-0.3-1.4-0.3c-1.6,0-2.4,1.2-2.4,2.6c0,1.6,1,2.6,2.3,2.6c0.7,0,1.2-0.2,1.5-0.3L250,405.3z"/>
			<path class="st18" d="M252.1,402.5L252.1,402.5c0.2-0.2,0.4-0.5,0.6-0.7l2.1-2.2h0.7l-2.4,2.5l2.7,3.5h-0.7l-2.4-3.1l-0.6,0.6
				v2.5h-0.6v-8.7h0.6V402.5z"/>
			<path class="st18" d="M262,402.5c0,2.2-1.5,3.2-2.8,3.2c-1.5,0-2.7-1.2-2.7-3c0-2,1.3-3.1,2.8-3.1
				C260.9,399.5,262,400.7,262,402.5z M257.1,402.6c0,1.5,0.9,2.6,2.2,2.6c1.2,0,2.2-1.1,2.2-2.6c0-1.1-0.6-2.6-2.2-2.6
				C257.8,400,257.1,401.3,257.1,402.6z"/>
			<path class="st18" d="M268.2,404.1c0,0.5,0,1,0,1.4h-0.6l0-1.1h0c-0.3,0.6-1,1.2-2,1.2c-0.8,0-2-0.4-2-2.6v-3.4h0.6v3.3
				c0,1.3,0.4,2.2,1.6,2.2c0.9,0,1.5-0.6,1.7-1.2c0.1-0.2,0.1-0.4,0.1-0.7v-3.7h0.6V404.1z"/>
			<path class="st18" d="M271.1,398.3v1.3h1.7v0.5h-1.7v3.8c0,0.8,0.2,1.2,0.9,1.2c0.3,0,0.5,0,0.7-0.1l0.1,0.4
				c-0.2,0.1-0.5,0.1-0.8,0.1c-0.4,0-0.8-0.1-1-0.4c-0.3-0.3-0.4-0.8-0.4-1.4v-3.7h-1v-0.5h1v-1.1L271.1,398.3z"/>
			<path class="st18" d="M275,397.1L275,397.1l-0.8,0.4l-0.1-0.3l0.9-0.5h0.3v4.7H275V397.1z"/>
		</g>
	</g>
	<g>
		<path class="st17" d="M352.2,484.2c0.8-0.1,1.8-0.2,2.8-0.2c1.7,0,2.9,0.3,3.8,1c1,0.7,1.6,1.8,1.6,3.5c0,1.8-0.6,3-1.5,3.7
			c-1,0.8-2.4,1.2-4.2,1.2c-1.1,0-1.8-0.1-2.4-0.1V484.2z M354.3,491.7c0.2,0,0.5,0,0.7,0c1.9,0,3.1-1,3.1-3.2
			c0-1.9-1.1-2.9-2.9-2.9c-0.5,0-0.8,0-0.9,0.1V491.7z"/>
		<path class="st17" d="M367.1,489.4h-3.4v2.2h3.8v1.7h-5.9v-9.2h5.7v1.7h-3.6v1.9h3.4V489.4z"/>
		<path class="st17" d="M368.9,484.1h2.1v7.4h3.6v1.7h-5.7V484.1z"/>
		<path class="st17" d="M378,484.1v9.2h-2.1v-9.2H378z"/>
		<path class="st17" d="M381.9,493.2l-2.9-9.2h2.3l1.1,3.9c0.3,1.1,0.6,2.1,0.8,3.3h0c0.2-1.1,0.5-2.2,0.8-3.2l1.2-3.9h2.2l-3.1,9.2
			H381.9z"/>
		<path class="st17" d="M393.9,489.4h-3.4v2.2h3.8v1.7h-5.9v-9.2h5.7v1.7h-3.6v1.9h3.4V489.4z"/>
		<path class="st17" d="M395.7,484.2c0.7-0.1,1.7-0.2,2.8-0.2c1.4,0,2.3,0.2,3,0.7c0.5,0.4,0.8,1.1,0.8,1.9c0,1.2-0.8,2-1.6,2.3v0
			c0.6,0.3,1,0.9,1.2,1.7c0.3,1,0.6,2.2,0.7,2.6h-2.1c-0.1-0.3-0.4-1-0.6-2.1c-0.2-1.1-0.6-1.5-1.5-1.5h-0.6v3.6h-2.1V484.2z
			 M397.7,488.1h0.8c1,0,1.6-0.5,1.6-1.3c0-0.8-0.6-1.3-1.5-1.3c-0.5,0-0.8,0-0.9,0.1V488.1z"/>
		<path class="st17" d="M405.8,493.2v-3.8l-2.9-5.4h2.4l0.9,2.2c0.3,0.7,0.5,1.2,0.7,1.8h0c0.2-0.6,0.4-1.1,0.7-1.8l0.9-2.2h2.3
			l-3,5.3v3.8H405.8z"/>
	</g>
	<g>
		<path class="st14" d="M323.5,491.4c0.6,0.3,1.9,0.9,3.2,0.9c1.7,0,2.5-0.8,2.5-1.8c0-1.4-1.4-2-2.8-2h-1.3v-2.3h1.3
			c1.1,0,2.5-0.4,2.5-1.6c0-0.8-0.7-1.4-2-1.4c-1.1,0-2.3,0.5-2.9,0.8l-0.7-2.3c0.8-0.5,2.5-1,4.3-1c3,0,4.6,1.6,4.6,3.4
			c0,1.5-0.8,2.6-2.5,3.2v0c1.7,0.3,3,1.6,3,3.4c0,2.4-2.1,4.2-5.7,4.2c-1.8,0-3.3-0.5-4.1-1L323.5,491.4z"/>
	</g>
	<g>
		<path class="st17" d="M353.5,286.6c0.6-0.1,1.5-0.2,2.8-0.2c1.3,0,2.2,0.2,2.8,0.7c0.6,0.5,1,1.2,1,2.1c0,0.9-0.3,1.7-0.8,2.2
			c-0.7,0.7-1.8,1-3,1c-0.3,0-0.5,0-0.7,0v3.3h-2.1V286.6z M355.6,290.7c0.2,0,0.4,0.1,0.7,0.1c1.1,0,1.8-0.6,1.8-1.5
			c0-0.8-0.6-1.3-1.6-1.3c-0.4,0-0.7,0-0.9,0.1V290.7z"/>
		<path class="st17" d="M363.6,293.3l-0.7,2.4h-2.2l2.8-9.2h2.7l2.8,9.2h-2.2l-0.7-2.4H363.6z M365.9,291.7l-0.6-1.9
			c-0.2-0.5-0.3-1.2-0.5-1.8h0c-0.1,0.5-0.3,1.2-0.4,1.8l-0.5,1.9H365.9z"/>
		<path class="st17" d="M372.5,295.6v-3.8l-2.9-5.4h2.4l0.9,2.2c0.3,0.7,0.5,1.2,0.7,1.8h0c0.2-0.6,0.4-1.1,0.7-1.8l0.9-2.2h2.3
			l-3,5.3v3.8H372.5z"/>
		<path class="st17" d="M386.3,292.1c0-1.1-0.1-2.4-0.1-3.8h0c-0.3,1.2-0.7,2.5-1,3.6l-1.1,3.6h-1.6l-1-3.6
			c-0.3-1.1-0.6-2.4-0.8-3.6h0c-0.1,1.2-0.1,2.7-0.2,3.8l-0.2,3.5h-1.9l0.6-9.2h2.8l0.9,3.1c0.3,1.1,0.6,2.2,0.8,3.3h0
			c0.3-1.1,0.6-2.3,0.9-3.3l1-3h2.7l0.5,9.2h-2L386.3,292.1z"/>
		<path class="st17" d="M395.5,291.8h-3.4v2.2h3.8v1.7h-5.9v-9.2h5.7v1.7h-3.6v1.9h3.4V291.8z"/>
		<path class="st17" d="M397.3,295.6v-9.2h2.4l1.9,3.4c0.5,1,1.1,2.1,1.5,3.1h0c-0.1-1.2-0.2-2.4-0.2-3.8v-2.7h1.9v9.2h-2.2l-2-3.5
			c-0.5-1-1.1-2.2-1.6-3.2l0,0c0.1,1.2,0.1,2.5,0.1,4v2.8H397.3z"/>
		<path class="st17" d="M408.5,288.2H406v-1.7h7v1.7h-2.5v7.4h-2.1V288.2z"/>
	</g>
	<g>
		<path class="st15" d="M325.1,297v-2l1.8-1.6c3-2.7,4.5-4.2,4.5-5.9c0-1.1-0.7-2-2.3-2c-1.2,0-2.2,0.6-3,1.1l-0.9-2.3
			c1-0.8,2.7-1.4,4.5-1.4c3.1,0,4.8,1.8,4.8,4.3c0,2.3-1.7,4.2-3.7,5.9l-1.3,1.1v0h5.2v2.7H325.1z"/>
	</g>
	<g>
		<path class="st17" d="M353.4,93.3c0.6-0.1,1.5-0.2,2.8-0.2c1.3,0,2.2,0.2,2.8,0.7c0.6,0.5,1,1.2,1,2.1c0,0.9-0.3,1.7-0.8,2.2
			c-0.7,0.7-1.8,1-3,1c-0.3,0-0.5,0-0.7,0v3.3h-2.1V93.3z M355.4,97.5c0.2,0,0.4,0.1,0.7,0.1c1.1,0,1.8-0.6,1.8-1.5
			c0-0.8-0.6-1.3-1.6-1.3c-0.4,0-0.7,0-0.9,0.1V97.5z"/>
		<path class="st17" d="M363.3,93.2v5.3c0,1.6,0.6,2.4,1.7,2.4c1.1,0,1.7-0.8,1.7-2.4v-5.3h2.1v5.1c0,2.8-1.4,4.2-3.8,4.2
			c-2.3,0-3.7-1.3-3.7-4.2v-5.1H363.3z"/>
		<path class="st17" d="M370.5,93.3c0.7-0.1,1.7-0.2,2.8-0.2c1.4,0,2.3,0.2,3,0.7c0.5,0.4,0.8,1.1,0.8,1.9c0,1.2-0.8,2-1.6,2.3v0
			c0.6,0.3,1,0.9,1.2,1.7c0.3,1,0.6,2.2,0.7,2.6h-2.1c-0.1-0.3-0.4-1-0.6-2.1c-0.2-1.1-0.6-1.5-1.5-1.5h-0.6v3.6h-2.1V93.3z
			 M372.6,97.3h0.8c1,0,1.6-0.5,1.6-1.3c0-0.8-0.6-1.3-1.5-1.3c-0.5,0-0.8,0-0.9,0.1V97.3z"/>
		<path class="st17" d="M385.3,102.1c-0.4,0.2-1.2,0.4-2.4,0.4c-3.2,0-4.8-2-4.8-4.6c0-3.1,2.2-4.9,5-4.9c1.1,0,1.9,0.2,2.3,0.4
			l-0.4,1.6c-0.4-0.2-1-0.3-1.7-0.3c-1.6,0-2.9,1-2.9,3c0,1.8,1.1,3,2.9,3c0.6,0,1.3-0.1,1.7-0.3L385.3,102.1z"/>
		<path class="st17" d="M388.8,93.2v3.5h3.4v-3.5h2.1v9.2h-2.1v-3.8h-3.4v3.8h-2.1v-9.2H388.8z"/>
		<path class="st17" d="M398.2,100l-0.7,2.4h-2.2l2.8-9.2h2.7l2.8,9.2h-2.2l-0.7-2.4H398.2z M400.5,98.4l-0.6-1.9
			c-0.2-0.5-0.3-1.2-0.5-1.8h0c-0.1,0.5-0.3,1.2-0.4,1.8l-0.5,1.9H400.5z"/>
		<path class="st17" d="M405.1,100.2c0.6,0.3,1.4,0.6,2.3,0.6c1,0,1.5-0.4,1.5-1c0-0.6-0.4-0.9-1.5-1.3c-1.5-0.5-2.5-1.4-2.5-2.7
			c0-1.6,1.3-2.8,3.5-2.8c1,0,1.8,0.2,2.3,0.5l-0.5,1.7c-0.4-0.2-1-0.4-1.9-0.4s-1.3,0.4-1.3,0.9c0,0.6,0.5,0.8,1.7,1.3
			c1.6,0.6,2.4,1.4,2.4,2.7c0,1.5-1.2,2.8-3.7,2.8c-1,0-2.1-0.3-2.6-0.6L405.1,100.2z"/>
		<path class="st17" d="M417.8,98.5h-3.4v2.2h3.8v1.7h-5.9v-9.2h5.7v1.7h-3.6v1.9h3.4V98.5z"/>
	</g>
	<g>
		<path class="st16" d="M329,92.4L329,92.4l-2.7,1.3l-0.5-2.4l3.7-1.7h2.7v13.8H329V92.4z"/>
	</g>
</g>
<text transform="matrix(1 0 0 1 536.3 643.4)" class="st18 st19 st20">1 Payment in cash, credit or debit card</text>
</svg>
