<?xml version="1.0" encoding="utf-8"?>
<!-- Generator: Adobe Illustrator 25.2.1, SVG Export Plug-In . SVG Version: 6.00 Build 0)  -->
<svg version="1.1" id="Layer_1" xmlns="http://www.w3.org/2000/svg" xmlns:xlink="http://www.w3.org/1999/xlink" x="0px" y="0px"
	 viewBox="0 0 634.9 634.9" style="enable-background:new 0 0 634.9 634.9;" xml:space="preserve">
<style type="text/css">
	.st0{opacity:0.2;}
	.st1{fill:#EEF2F4;}
	.st2{fill:#3C7CBF;}
	.st3{fill:#EBB533;}
	.st4{fill:#ED7303;}
	.st5{fill:#92C04F;}
	.st6{fill:#007DC3;}
	.st7{fill:#FFFFFF;}
</style>
<g id="Capa_1-2">
	<g class="st0">
		<g>
			<g>
				<path class="st1" d="M317.5,634.9c175.3,0,317.5-142.1,317.5-317.5S492.8,0,317.5,0S0,142.1,0,317.5S142.1,634.9,317.5,634.9"/>
			</g>
		</g>
	</g>
	<path class="st1" d="M317.5,490.2c96.7,0,175.1-78.4,175.1-175.1s-78.4-175.1-175.1-175.1s-175.1,78.4-175.1,175.1c0,0,0,0,0,0
		C142.4,411.9,220.8,490.2,317.5,490.2C317.5,490.2,317.5,490.2,317.5,490.2"/>
	<path class="st2" d="M64,307c-16.7,0-30.3-13.5-30.3-30.2c0-1.5,0.1-2.9,0.3-4.4C52.1,150.7,147.7,55.1,269.5,37
		c16.5-2.4,31.9,9.1,34.3,25.6s-9.1,31.9-25.6,34.3l0,0c-95,14.5-169.5,89.2-183.9,184.2c-2.1,14.9-14.9,26-29.9,25.9H64z"/>
	<path class="st3" d="M558.3,307c-15,0-27.8-11-29.9-25.9C514,186,439.3,111.2,344.1,96.8c-16.6-1.7-28.7-16.5-27-33.1
		s16.5-28.7,33.1-27c0.9,0.1,1.7,0.2,2.5,0.4c121.8,18,217.5,113.7,235.6,235.5c2.4,16.5-9.1,31.8-25.6,34.2
		c-1.4,0.2-2.9,0.3-4.4,0.3L558.3,307z"/>
	<path class="st4" d="M348.2,590.7c-16.6,0-30.1-13.6-30-30.2c0-14.9,11-27.6,25.8-29.7c95.4-14.4,170.2-89.4,184.4-184.8
		c2.1-14.8,14.8-25.9,29.8-25.8h0.4c16.6,0,30.1,13.4,30.1,30.1c0,1.4-0.1,2.9-0.3,4.3c-18,122-113.8,217.8-235.8,235.8
		C351.2,590.6,349.7,590.7,348.2,590.7L348.2,590.7z"/>
	<path class="st5" d="M274.1,590.7c-1.5,0-2.9-0.1-4.4-0.3C147.8,572.3,52,476.6,34,354.6c-2.4-16.5,9-31.7,25.5-34.1
		c1.4-0.2,2.9-0.3,4.3-0.3h0.7c15,0,27.7,11,29.8,25.8c14.2,95.3,88.9,170.2,184.1,184.7c16.5,2.4,27.8,17.7,25.4,34.2
		C301.7,579.7,289,590.6,274.1,590.7L274.1,590.7z"/>
</g>
<g>
	<path class="st6" d="M226.6,276.1h-5.3v-1H233v1h-5.3v15.2h-1.2V276.1z"/>
	<path class="st6" d="M234.9,274.3h1.2v7.6h0c0.3-0.6,0.9-1.3,1.6-1.7c0.7-0.4,1.5-0.7,2.3-0.7c1.1,0,4,0.6,4,4.8v6.9h-1.2v-6.8
		c0-2.1-0.8-4-3.2-4c-1.6,0-3,1.2-3.5,2.6c-0.1,0.4-0.1,0.7-0.1,1.2v7h-1.2V274.3z"/>
	<path class="st6" d="M248,285.5c0,3.7,2,5.1,4.4,5.1c1.7,0,2.5-0.3,3.2-0.6l0.3,0.9c-0.4,0.2-1.6,0.7-3.6,0.7
		c-3.3,0-5.4-2.4-5.4-5.8c0-3.8,2.2-6.2,5.2-6.2c3.8,0,4.5,3.6,4.5,5.2c0,0.3,0,0.5,0,0.7H248z M255.3,284.6c0-1.6-0.6-4-3.4-4
		c-2.5,0-3.6,2.3-3.9,4H255.3z"/>
	<path class="st6" d="M259.2,283.3c0-1.2,0-2.3-0.1-3.5h1.1l0,2.3h0.1c0.5-1.4,1.7-2.6,3.3-2.6c0.2,0,0.3,0,0.5,0v1.1
		c-0.2,0-0.3,0-0.6,0c-1.6,0-2.7,1.4-3,3.2c-0.1,0.3-0.1,0.7-0.1,1.1v6.4h-1.2V283.3z"/>
	<path class="st6" d="M266.1,285.5c0,3.7,2,5.1,4.4,5.1c1.7,0,2.5-0.3,3.2-0.6l0.3,0.9c-0.4,0.2-1.6,0.7-3.6,0.7
		c-3.3,0-5.4-2.4-5.4-5.8c0-3.8,2.2-6.2,5.2-6.2c3.8,0,4.5,3.6,4.5,5.2c0,0.3,0,0.5,0,0.7H266.1z M273.5,284.6c0-1.6-0.6-4-3.4-4
		c-2.5,0-3.6,2.3-3.9,4H273.5z"/>
	<path class="st6" d="M290.5,288.6c0,0.9,0,1.8,0.2,2.7h-1.1l-0.2-1.7h0c-0.6,0.9-1.8,1.9-3.7,1.9c-2.3,0-3.4-1.6-3.4-3.2
		c0-2.7,2.3-4.3,7-4.2v-0.3c0-1.1-0.2-3.4-3-3.4c-1,0-2.1,0.3-2.9,0.9l-0.4-0.8c1.1-0.7,2.4-1,3.4-1c3.3,0,4,2.5,4,4.5V288.6z
		 M289.3,285.2c-2.5-0.1-5.8,0.3-5.8,3.1c0,1.7,1.1,2.4,2.3,2.4c1.9,0,3-1.2,3.4-2.3c0.1-0.2,0.1-0.5,0.1-0.7V285.2z"/>
	<path class="st6" d="M294,283.3c0-1.2,0-2.3-0.1-3.5h1.1l0,2.3h0.1c0.5-1.4,1.7-2.6,3.3-2.6c0.2,0,0.3,0,0.5,0v1.1
		c-0.2,0-0.3,0-0.6,0c-1.6,0-2.7,1.4-3,3.2c-0.1,0.3-0.1,0.7-0.1,1.1v6.4H294V283.3z"/>
	<path class="st6" d="M300.9,285.5c0,3.7,2,5.1,4.4,5.1c1.7,0,2.5-0.3,3.2-0.6l0.3,0.9c-0.4,0.2-1.6,0.7-3.6,0.7
		c-3.3,0-5.4-2.4-5.4-5.8c0-3.8,2.2-6.2,5.2-6.2c3.8,0,4.5,3.6,4.5,5.2c0,0.3,0,0.5,0,0.7H300.9z M308.3,284.6c0-1.6-0.6-4-3.4-4
		c-2.5,0-3.6,2.3-3.9,4H308.3z"/>
	<path class="st6" d="M318.2,291.3v-10.6h-1.7v-0.9h1.7v-0.6c0-1.8,0.3-3.2,1.3-4.2c0.7-0.7,1.7-1,2.6-1c0.7,0,1.4,0.2,1.7,0.4
		l-0.4,0.9c-0.3-0.2-0.8-0.3-1.5-0.3c-2.2,0-2.6,2-2.6,4.2v0.6h3.1v0.9h-3.1v10.6H318.2z"/>
	<path class="st6" d="M334,285.5c0,4.3-3,6.1-5.5,6.1c-3,0-5.3-2.3-5.3-5.9c0-3.9,2.6-6.1,5.4-6.1C331.8,279.6,334,282,334,285.5z
		 M324.3,285.6c0,2.9,1.8,5,4.2,5c2.4,0,4.3-2.2,4.3-5.1c0-2.1-1.2-5-4.2-5C325.7,280.5,324.3,283.1,324.3,285.6z"/>
	<path class="st6" d="M345.8,288.5c0,1,0,1.9,0.1,2.8h-1.1l-0.1-2.1h0c-0.6,1.1-1.9,2.3-3.9,2.3c-1.5,0-3.9-0.7-3.9-5.1v-6.7h1.2
		v6.5c0,2.5,0.8,4.3,3,4.3c1.7,0,2.9-1.2,3.4-2.3c0.1-0.4,0.2-0.8,0.2-1.3v-7.2h1.2V288.5z"/>
	<path class="st6" d="M349.4,283.3c0-1.2,0-2.3-0.1-3.5h1.1l0,2.3h0.1c0.5-1.4,1.7-2.6,3.3-2.6c0.2,0,0.3,0,0.5,0v1.1
		c-0.2,0-0.3,0-0.6,0c-1.6,0-2.7,1.4-3,3.2c-0.1,0.3-0.1,0.7-0.1,1.1v6.4h-1.2V283.3z"/>
	<path class="st6" d="M362.2,283.5c0-1.4,0-2.6-0.1-3.7h1.1l0.1,2.2h0c0.8-1.5,2.3-2.4,4.2-2.4c3,0,5,2.4,5,5.8
		c0,4.1-2.4,6.2-5.2,6.2c-1.7,0-3.1-0.7-3.9-2.1h0v6.6h-1.2V283.5z M363.3,286.8c0,0.3,0,0.6,0.1,0.9c0.5,1.8,2,2.9,3.8,2.9
		c2.6,0,4.2-2.1,4.2-5.2c0-2.6-1.4-4.9-4.1-4.9c-1.7,0-3.3,1.2-3.8,3c-0.1,0.3-0.2,0.7-0.2,1V286.8z"/>
	<path class="st6" d="M376.9,276.5c0,0.5-0.4,1-1,1c-0.5,0-0.9-0.5-0.9-1c0-0.5,0.4-1,0.9-1C376.5,275.5,376.9,276,376.9,276.5z
		 M375.4,291.3v-11.5h1.2v11.5H375.4z"/>
	<path class="st6" d="M380.2,274.3h1.2v17h-1.2V274.3z"/>
	<path class="st6" d="M385,274.3h1.2v17H385V274.3z"/>
	<path class="st6" d="M397.1,288.6c0,0.9,0,1.8,0.2,2.7h-1.1l-0.2-1.7h0c-0.6,0.9-1.8,1.9-3.7,1.9c-2.3,0-3.4-1.6-3.4-3.2
		c0-2.7,2.3-4.3,7-4.2v-0.3c0-1.1-0.2-3.4-3-3.4c-1,0-2.1,0.3-2.9,0.9l-0.4-0.8c1.1-0.7,2.4-1,3.4-1c3.3,0,4,2.5,4,4.5V288.6z
		 M395.9,285.2c-2.5-0.1-5.8,0.3-5.8,3.1c0,1.7,1.1,2.4,2.3,2.4c1.9,0,3-1.2,3.4-2.3c0.1-0.2,0.1-0.5,0.1-0.7V285.2z"/>
	<path class="st6" d="M400.6,283.3c0-1.2,0-2.3-0.1-3.5h1.1l0,2.3h0.1c0.5-1.4,1.7-2.6,3.3-2.6c0.2,0,0.3,0,0.5,0v1.1
		c-0.2,0-0.3,0-0.6,0c-1.6,0-2.7,1.4-3,3.2c-0.1,0.3-0.1,0.7-0.1,1.1v6.4h-1.2V283.3z"/>
	<path class="st6" d="M407.2,289.8c0.6,0.4,1.6,0.8,2.6,0.8c1.8,0,2.7-1,2.7-2.2c0-1.3-0.8-1.9-2.4-2.6c-1.9-0.7-2.9-1.8-2.9-3.1
		c0-1.7,1.3-3.1,3.6-3.1c1.1,0,2,0.3,2.5,0.7l-0.4,0.9c-0.4-0.3-1.2-0.7-2.3-0.7c-1.5,0-2.2,0.9-2.2,2c0,1.2,0.8,1.7,2.4,2.4
		c1.9,0.7,3,1.7,3,3.4c0,2-1.5,3.3-3.9,3.3c-1.1,0-2.2-0.3-2.9-0.8L407.2,289.8z"/>
</g>
<g>
	<path class="st6" d="M259.2,311.5c0,4.3-3,6.1-5.5,6.1c-3,0-5.3-2.3-5.3-5.9c0-3.9,2.6-6.1,5.4-6.1
		C257,305.6,259.2,308,259.2,311.5z M249.5,311.6c0,2.9,1.8,5,4.2,5c2.4,0,4.3-2.2,4.3-5.1c0-2.1-1.2-5-4.2-5
		C250.9,306.5,249.5,309.1,249.5,311.6z"/>
	<path class="st6" d="M262.1,317.3v-10.6h-1.7v-0.9h1.7v-0.6c0-1.8,0.3-3.2,1.3-4.2c0.7-0.7,1.7-1,2.6-1c0.7,0,1.4,0.2,1.7,0.4
		l-0.4,0.9c-0.3-0.2-0.8-0.3-1.5-0.3c-2.2,0-2.6,2-2.6,4.2v0.6h3.1v0.9h-3.1v10.6H262.1z"/>
	<path class="st6" d="M283.9,311.5c0,4.3-3,6.1-5.5,6.1c-3,0-5.3-2.3-5.3-5.9c0-3.9,2.6-6.1,5.4-6.1
		C281.8,305.6,283.9,308,283.9,311.5z M274.3,311.6c0,2.9,1.8,5,4.2,5c2.4,0,4.3-2.2,4.3-5.1c0-2.1-1.2-5-4.2-5
		C275.6,306.5,274.3,309.1,274.3,311.6z"/>
	<path class="st6" d="M295.7,314.5c0,1,0,1.9,0.1,2.8h-1.1l-0.1-2.1h0c-0.6,1.1-1.9,2.3-3.9,2.3c-1.5,0-3.9-0.7-3.9-5.1v-6.7h1.2
		v6.5c0,2.5,0.8,4.3,3,4.3c1.7,0,2.9-1.2,3.4-2.3c0.1-0.4,0.2-0.8,0.2-1.3v-7.2h1.2V314.5z"/>
	<path class="st6" d="M299.3,309.3c0-1.2,0-2.3-0.1-3.5h1.1l0,2.3h0.1c0.5-1.4,1.7-2.6,3.3-2.6c0.2,0,0.3,0,0.5,0v1.1
		c-0.2,0-0.3,0-0.6,0c-1.6,0-2.7,1.4-3,3.2c-0.1,0.3-0.1,0.7-0.1,1.1v6.4h-1.2V309.3z"/>
	<path class="st6" d="M311.7,315.8c0.6,0.4,1.6,0.8,2.6,0.8c1.8,0,2.7-1,2.7-2.2c0-1.3-0.8-1.9-2.4-2.6c-1.9-0.7-2.9-1.8-2.9-3.1
		c0-1.7,1.3-3.1,3.6-3.1c1.1,0,2,0.3,2.5,0.7l-0.4,0.9c-0.4-0.3-1.2-0.7-2.3-0.7c-1.5,0-2.2,0.9-2.2,2c0,1.2,0.8,1.7,2.4,2.4
		c1.9,0.7,3,1.7,3,3.4c0,2-1.5,3.3-3.9,3.3c-1.1,0-2.2-0.3-2.9-0.8L311.7,315.8z"/>
	<path class="st6" d="M322.9,303.3v2.5h3.3v0.9h-3.3v7.5c0,1.5,0.5,2.4,1.7,2.4c0.6,0,1-0.1,1.3-0.2l0.1,0.9
		c-0.4,0.2-0.9,0.3-1.6,0.3c-0.8,0-1.5-0.3-2-0.8c-0.5-0.6-0.7-1.6-0.7-2.8v-7.3h-1.9v-0.9h1.9v-2.1L322.9,303.3z"/>
	<path class="st6" d="M328.6,309.3c0-1.2,0-2.3-0.1-3.5h1.1l0,2.3h0.1c0.5-1.4,1.7-2.6,3.3-2.6c0.2,0,0.3,0,0.5,0v1.1
		c-0.2,0-0.3,0-0.6,0c-1.6,0-2.7,1.4-3,3.2c-0.1,0.3-0.1,0.7-0.1,1.1v6.4h-1.2V309.3z"/>
	<path class="st6" d="M342.9,314.6c0,0.9,0,1.8,0.2,2.7H342l-0.2-1.7h0c-0.6,0.9-1.8,1.9-3.7,1.9c-2.3,0-3.4-1.6-3.4-3.2
		c0-2.7,2.3-4.3,7-4.2v-0.3c0-1.1-0.2-3.4-3-3.4c-1,0-2.1,0.3-2.9,0.9l-0.4-0.8c1.1-0.7,2.4-1,3.4-1c3.3,0,4,2.5,4,4.5V314.6z
		 M341.8,311.2c-2.5-0.1-5.8,0.3-5.8,3.1c0,1.7,1.1,2.4,2.3,2.4c1.9,0,3-1.2,3.4-2.3c0.1-0.2,0.1-0.5,0.1-0.7V311.2z"/>
	<path class="st6" d="M347.9,303.3v2.5h3.3v0.9h-3.3v7.5c0,1.5,0.5,2.4,1.7,2.4c0.6,0,1-0.1,1.3-0.2l0.1,0.9
		c-0.4,0.2-0.9,0.3-1.6,0.3c-0.8,0-1.5-0.3-2-0.8c-0.5-0.6-0.7-1.6-0.7-2.8v-7.3h-1.9v-0.9h1.9v-2.1L347.9,303.3z"/>
	<path class="st6" d="M353.4,311.5c0,3.7,2,5.1,4.4,5.1c1.7,0,2.5-0.3,3.2-0.6l0.3,0.9c-0.4,0.2-1.6,0.7-3.6,0.7
		c-3.3,0-5.4-2.4-5.4-5.8c0-3.8,2.2-6.2,5.2-6.2c3.8,0,4.5,3.6,4.5,5.2c0,0.3,0,0.5,0,0.7H353.4z M360.8,310.5c0-1.6-0.6-4-3.4-4
		c-2.5,0-3.6,2.3-3.9,4H360.8z"/>
	<path class="st6" d="M374.2,315.7c0,3-0.6,4.4-1.6,5.3c-1.1,1-2.6,1.4-3.9,1.4c-1.3,0-2.8-0.3-3.7-1l0.4-0.9c0.8,0.5,1.9,1,3.4,1
		c2.4,0,4.2-1.2,4.2-4.7v-1.6h0c-0.6,1.2-1.9,2.2-4,2.2c-2.9,0-4.9-2.5-4.9-5.7c0-4,2.6-6.1,5.2-6.1c2.3,0,3.4,1.2,3.9,2.2h0
		l0.1-1.9h1.1c-0.1,0.9-0.1,1.8-0.1,3V315.7z M373.1,310.3c0-0.4,0-0.8-0.1-1.1c-0.5-1.4-1.7-2.6-3.6-2.6c-2.4,0-4.1,2-4.1,5
		c0,2.6,1.4,4.8,4.1,4.8c1.6,0,3-0.9,3.6-2.6c0.1-0.4,0.2-0.8,0.2-1.2V310.3z"/>
	<path class="st6" d="M377.7,305.8l3,7.5c0.3,0.8,0.6,1.8,0.8,2.5h0c0.2-0.7,0.5-1.6,0.9-2.5l2.8-7.5h1.2l-3.5,8.6
		c-1.4,3.6-2.4,5.7-3.9,7c-0.9,0.8-1.7,1.1-2,1.2l-0.4-1c0.6-0.2,1.3-0.6,2-1.3c0.6-0.6,1.3-1.5,1.9-2.9c0.1-0.2,0.1-0.4,0.1-0.5
		c0-0.1,0-0.3-0.1-0.5l-4.3-10.7H377.7z"/>
</g>
<g>
	<path class="st6" d="M233,343.6c0,4.8-3.4,7-7,7c-3.9,0-6.8-2.5-6.8-6.8c0-4.3,2.8-7,7-7C230.3,336.9,233,339.6,233,343.6z
		 M223.4,343.7c0,2.3,0.9,4,2.7,4c1.6,0,2.6-1.6,2.6-4c0-2-0.8-4-2.6-4C224.1,339.8,223.4,341.8,223.4,343.7z"/>
	<path class="st6" d="M235.6,341.4c0-1.6-0.1-3.1-0.1-4.2h3.6l0.2,1.8h0.1c0.5-0.8,1.9-2.1,4.1-2.1c2.7,0,4.7,1.8,4.7,5.7v7.8H244
		V343c0-1.7-0.6-2.9-2.1-2.9c-1.1,0-1.8,0.8-2.1,1.5c-0.1,0.2-0.2,0.6-0.2,1v7.6h-4.1V341.4z"/>
	<path class="st6" d="M257.5,332.4c1.5-0.2,3.5-0.4,5.6-0.4c3.5,0,5.7,0.6,7.4,1.9c1.9,1.4,3.1,3.6,3.1,6.9c0,3.5-1.3,5.9-3,7.4
		c-1.9,1.6-4.8,2.3-8.4,2.3c-2.1,0-3.6-0.1-4.7-0.3V332.4z M261.7,347.2c0.4,0.1,0.9,0.1,1.4,0.1c3.7,0,6.2-2,6.2-6.4
		c0-3.8-2.2-5.8-5.7-5.8c-0.9,0-1.5,0.1-1.9,0.2V347.2z"/>
	<path class="st6" d="M280.6,333.5c0,1.1-0.9,2.1-2.2,2.1c-1.3,0-2.2-0.9-2.1-2.1c0-1.2,0.8-2.1,2.2-2.1
		C279.7,331.4,280.6,332.3,280.6,333.5z M276.4,350.3v-13.2h4.1v13.2H276.4z"/>
	<path class="st6" d="M286.9,337.2l1.8,6.1c0.3,1.1,0.6,2.2,0.8,3.2h0.1c0.2-1.1,0.4-2.1,0.7-3.2l1.7-6.1h4.3l-4.9,13.2h-4.1
		l-4.8-13.2H286.9z"/>
	<path class="st6" d="M300.9,345.1c0.1,1.7,1.8,2.5,3.7,2.5c1.4,0,2.5-0.2,3.6-0.5l0.5,2.8c-1.3,0.5-3,0.8-4.8,0.8
		c-4.5,0-7-2.6-7-6.7c0-3.3,2.1-7,6.7-7c4.3,0,5.9,3.3,5.9,6.6c0,0.7-0.1,1.3-0.1,1.6H300.9z M305.7,342.3c0-1-0.4-2.7-2.3-2.7
		c-1.7,0-2.4,1.6-2.5,2.7H305.7z"/>
	<path class="st6" d="M312.2,341.5c0-1.9-0.1-3.2-0.1-4.3h3.5l0.1,2.4h0.1c0.7-1.9,2.3-2.7,3.6-2.7c0.4,0,0.6,0,0.9,0.1v3.9
		c-0.3-0.1-0.6-0.1-1.1-0.1c-1.5,0-2.5,0.8-2.8,2.1c-0.1,0.3-0.1,0.6-0.1,0.9v6.7h-4.1V341.5z"/>
	<path class="st6" d="M322.6,346.8c0.8,0.5,2.3,1,3.5,1c1.2,0,1.8-0.4,1.8-1.1s-0.4-1-1.9-1.5c-2.7-0.9-3.8-2.4-3.8-4
		c0-2.5,2.1-4.3,5.4-4.3c1.5,0,2.9,0.4,3.7,0.8l-0.7,2.8c-0.6-0.3-1.7-0.8-2.9-0.8c-1,0-1.6,0.4-1.6,1.1c0,0.6,0.5,0.9,2.1,1.5
		c2.5,0.9,3.6,2.1,3.6,4.1c0,2.5-1.9,4.3-5.7,4.3c-1.7,0-3.3-0.4-4.3-0.9L322.6,346.8z"/>
	<path class="st6" d="M338.7,333.5c0,1.1-0.9,2.1-2.2,2.1c-1.3,0-2.2-0.9-2.1-2.1c0-1.2,0.8-2.1,2.2-2.1
		C337.9,331.4,338.7,332.3,338.7,333.5z M334.5,350.3v-13.2h4.1v13.2H334.5z"/>
	<path class="st6" d="M346.6,333.4v3.8h2.9v3h-2.9v4.8c0,1.6,0.4,2.3,1.6,2.3c0.5,0,0.9-0.1,1.2-0.1l0,3.1c-0.5,0.2-1.5,0.4-2.7,0.4
		c-1.3,0-2.4-0.5-3.1-1.1c-0.8-0.8-1.1-2.1-1.1-3.9v-5.4h-1.8v-3h1.8v-2.9L346.6,333.4z"/>
	<path class="st6" d="M355.5,337.2l2,6.5c0.2,0.8,0.5,1.8,0.6,2.5h0.1c0.2-0.7,0.4-1.7,0.6-2.5l1.6-6.5h4.4l-3.1,8.7
		c-1.9,5.2-3.2,7.3-4.6,8.7c-1.4,1.2-2.9,1.7-4,1.8l-0.9-3.5c0.5-0.1,1.2-0.3,1.8-0.7c0.6-0.3,1.3-1,1.7-1.6
		c0.1-0.2,0.2-0.4,0.2-0.6c0-0.1,0-0.4-0.2-0.7l-4.8-12.1H355.5z"/>
	<path class="st6" d="M380.1,350.3l-0.2-1.3h-0.1c-0.9,1.1-2.2,1.6-3.8,1.6c-2.7,0-4.3-1.9-4.3-4c0-3.4,3.1-5.1,7.7-5v-0.2
		c0-0.7-0.4-1.7-2.4-1.7c-1.3,0-2.8,0.5-3.6,1l-0.8-2.6c0.9-0.5,2.7-1.2,5.1-1.2c4.4,0,5.8,2.6,5.8,5.7v4.6c0,1.3,0.1,2.5,0.2,3.2
		H380.1z M379.6,344.1c-2.2,0-3.8,0.5-3.8,2.1c0,1.1,0.7,1.6,1.6,1.6c1,0,1.9-0.7,2.1-1.5c0.1-0.2,0.1-0.5,0.1-0.7V344.1z"/>
	<path class="st6" d="M386.9,341.4c0-1.6-0.1-3.1-0.1-4.2h3.6l0.2,1.8h0.1c0.5-0.8,1.9-2.1,4.1-2.1c2.7,0,4.7,1.8,4.7,5.7v7.8h-4.1
		V343c0-1.7-0.6-2.9-2.1-2.9c-1.1,0-1.8,0.8-2.1,1.5c-0.1,0.2-0.2,0.6-0.2,1v7.6h-4.1V341.4z"/>
	<path class="st6" d="M415.6,331.2v15.2c0,1.5,0.1,3.1,0.1,3.9h-3.6l-0.2-1.9h-0.1c-0.8,1.5-2.4,2.2-4.1,2.2c-3.1,0-5.6-2.7-5.6-6.8
		c0-4.5,2.8-7,5.9-7c1.6,0,2.9,0.6,3.5,1.5h0.1v-7.2H415.6z M411.5,342.7c0-0.2,0-0.5-0.1-0.7c-0.2-1.1-1.1-2-2.4-2
		c-1.9,0-2.8,1.7-2.8,3.8c0,2.2,1.1,3.6,2.8,3.6c1.2,0,2.1-0.8,2.4-2c0.1-0.3,0.1-0.6,0.1-0.9V342.7z"/>
</g>
<g>
	<path class="st6" d="M268.1,365.2v18.2H264v-18.2H268.1z"/>
	<path class="st6" d="M271.7,374.4c0-1.6-0.1-3.1-0.1-4.2h3.6l0.2,1.8h0.1c0.5-0.8,1.9-2.1,4.1-2.1c2.7,0,4.7,1.8,4.7,5.7v7.8h-4.1
		V376c0-1.7-0.6-2.9-2.1-2.9c-1.1,0-1.8,0.8-2.1,1.5c-0.1,0.2-0.2,0.6-0.2,1v7.6h-4.1V374.4z"/>
	<path class="st6" d="M297.5,383c-0.7,0.3-2.1,0.6-3.7,0.6c-4.3,0-7-2.6-7-6.7c0-3.9,2.6-7,7.6-7c1.1,0,2.3,0.2,3.1,0.5l-0.6,3
		c-0.5-0.2-1.2-0.4-2.3-0.4c-2.2,0-3.6,1.5-3.5,3.7c0,2.4,1.6,3.7,3.6,3.7c1,0,1.7-0.2,2.3-0.4L297.5,383z"/>
	<path class="st6" d="M300,364.2h4.1v19.2H300V364.2z"/>
	<path class="st6" d="M319.9,379.1c0,1.7,0.1,3.1,0.1,4.2h-3.6l-0.2-1.9h-0.1c-0.5,0.8-1.8,2.2-4.1,2.2c-2.7,0-4.6-1.7-4.6-5.7v-7.7
		h4.1v7.1c0,1.9,0.6,3.1,2.1,3.1c1.1,0,1.8-0.8,2.1-1.4c0.1-0.2,0.1-0.6,0.1-0.9v-7.9h4.1V379.1z"/>
	<path class="st6" d="M323.3,379.8c0.8,0.5,2.3,1,3.5,1c1.2,0,1.8-0.4,1.8-1.1s-0.4-1-1.9-1.5c-2.7-0.9-3.8-2.4-3.8-4
		c0-2.5,2.1-4.3,5.4-4.3c1.5,0,2.9,0.4,3.7,0.8l-0.7,2.8c-0.6-0.3-1.7-0.8-2.9-0.8c-1,0-1.6,0.4-1.6,1.1c0,0.6,0.5,0.9,2.1,1.5
		c2.5,0.9,3.6,2.1,3.6,4.1c0,2.5-1.9,4.3-5.7,4.3c-1.7,0-3.3-0.4-4.3-0.9L323.3,379.8z"/>
	<path class="st6" d="M339.5,366.5c0,1.1-0.9,2.1-2.2,2.1c-1.3,0-2.2-0.9-2.1-2.1c0-1.2,0.8-2.1,2.2-2.1
		C338.6,364.4,339.4,365.3,339.5,366.5z M335.2,383.3v-13.2h4.1v13.2H335.2z"/>
	<path class="st6" d="M355.7,376.6c0,4.8-3.4,7-7,7c-3.9,0-6.8-2.5-6.8-6.8c0-4.3,2.8-7,7-7C353,369.8,355.7,372.6,355.7,376.6z
		 M346.2,376.7c0,2.3,0.9,4,2.7,4c1.6,0,2.6-1.6,2.6-4c0-2-0.8-4-2.6-4C346.9,372.8,346.2,374.8,346.2,376.7z"/>
	<path class="st6" d="M358.4,374.4c0-1.6-0.1-3.1-0.1-4.2h3.6l0.2,1.8h0.1c0.5-0.8,1.9-2.1,4.1-2.1c2.7,0,4.7,1.8,4.7,5.7v7.8h-4.1
		V376c0-1.7-0.6-2.9-2.1-2.9c-1.1,0-1.8,0.8-2.1,1.5c-0.1,0.2-0.2,0.6-0.2,1v7.6h-4.1V374.4z"/>
</g>
<g>
	<g>
		<path class="st7" d="M401.6,73.1l-3.8-1.5l0.5-1.4l9.3,3.5l-0.5,1.4l-3.9-1.5L399,84.9l-1.6-0.6L401.6,73.1z"/>
		<path class="st7" d="M406.8,83.5l-3,3.3l-1.7-0.7l9.5-10.6l1.9,0.8l-1.1,14.2l-1.7-0.7l0.3-4.5L406.8,83.5z M411.4,84l0.3-4.1
			c0.1-0.9,0.2-1.7,0.3-2.5l0,0c-0.5,0.7-1,1.3-1.6,2l-2.7,3.1L411.4,84z"/>
		<path class="st7" d="M420.5,79.4l1.6,0.8L416.9,91l5.2,2.5l-0.6,1.3l-6.8-3.3L420.5,79.4z"/>
		<path class="st7" d="M432.6,93.6l-4.6-2.5l-2.3,4.3l5.1,2.8l-0.7,1.3l-6.7-3.6l6.4-11.9l6.4,3.4l-0.7,1.3l-4.9-2.6l-2,3.8l4.6,2.5
			L432.6,93.6z"/>
		<path class="st7" d="M432.4,100.7l6.9-11.5l1.6,1l0.2,8.1c0,1.9,0,3.5-0.2,5l0,0c0.8-1.6,1.6-3.1,2.7-4.8l2.9-4.8l1.4,0.8
			l-6.9,11.5l-1.5-0.9l-0.1-8.1c0-1.8,0-3.6,0.2-5.2l-0.1,0c-0.8,1.5-1.6,2.9-2.7,4.8l-3,4.9L432.4,100.7z"/>
		<path class="st7" d="M452.7,99.3l-3.4-2.3l0.8-1.2l8.3,5.6l-0.8,1.2l-3.4-2.3l-6.7,10l-1.5-1L452.7,99.3z"/>
		<path class="st7" d="M457.3,117.2l5.6-12.7l1.5,1.1l-2.9,6.4c-0.7,1.6-1.5,3.1-2.1,4.3l0,0c1-0.9,2.3-1.9,3.7-3l5.6-4.3l1.4,1.1
			l-2.9,6.4c-0.7,1.5-1.4,3-2.1,4.2l0,0c1.1-1,2.4-1.9,3.7-3l5.6-4.3l1.4,1.1l-11.3,8.3l-1.4-1.1l3-6.6c0.7-1.6,1.3-2.8,2-4l0,0
			c-1,0.9-2.1,1.8-3.5,2.8l-5.8,4.4L457.3,117.2z"/>
		<path class="st7" d="M479.1,117.5l-8.8,10.2l-1.3-1.1l8.8-10.2L479.1,117.5z"/>
		<path class="st7" d="M482.9,122.8l-3-2.8l1-1.1l7.4,6.7l-1,1.1l-3-2.8l-8.1,8.9l-1.3-1.2L482.9,122.8z"/>
		<path class="st7" d="M491.3,128.6l-4,4l4.6,4.6l4-4l1.2,1.2l-9.6,9.5l-1.2-1.2l4.5-4.5l-4.6-4.6l-4.5,4.5l-1.2-1.2l9.6-9.5
			L491.3,128.6z"/>
		<path class="st7" d="M503.1,141.3c0.8,0.7,1.7,1.6,2.6,2.6c1.6,1.9,2.3,3.6,2.3,5.2c-0.1,1.6-0.8,3.2-2.4,4.6
			c-1.7,1.4-3.5,2.1-5.2,1.9c-1.8-0.1-3.6-1.3-5.3-3.3c-0.8-0.9-1.4-1.8-1.9-2.5L503.1,141.3z M495.1,150.3c0.2,0.4,0.6,0.9,1.1,1.4
			c2.4,2.8,5.3,3,8.1,0.7c2.4-2,2.8-4.7,0.4-7.5c-0.6-0.7-1.1-1.1-1.5-1.4L495.1,150.3z"/>
		<path class="st7" d="M513.4,153.4l-10.6,8.4l-1.1-1.4l10.6-8.4L513.4,153.4z"/>
		<path class="st7" d="M506.4,163c0.1,0.9,0.4,2.1,1.1,3c1.1,1.4,2.4,1.7,3.5,0.9c1-0.7,1.2-1.8,0.6-3.6c-0.7-2.2-0.6-4,1-5.1
			c1.7-1.2,4-0.8,5.5,1.3c0.8,1.1,1.2,2.1,1.2,2.8l-1.4,0.5c-0.1-0.5-0.3-1.5-1-2.4c-1.1-1.5-2.4-1.4-3.1-0.8c-1,0.7-1,1.8-0.5,3.7
			c0.6,2.4,0.5,3.9-1.1,5.1c-1.7,1.2-4,1.1-5.9-1.5c-0.8-1-1.3-2.4-1.4-3.3L506.4,163z"/>
		<path class="st7" d="M515.6,172.1l-4.3,1.2l-1-1.5l13.8-3.7l1.2,1.7l-8.7,11.3l-1-1.5l2.7-3.6L515.6,172.1z M519.2,175l2.5-3.3
			c0.6-0.7,1.1-1.4,1.7-2l0,0c-0.8,0.3-1.6,0.6-2.4,0.8l-4,1.1L519.2,175z"/>
		<path class="st7" d="M529.2,176.3c0.5,0.6,1.2,1.5,1.9,2.6c0.9,1.5,1.2,2.6,1.1,3.7c-0.1,0.9-0.6,1.6-1.5,2.2
			c-1.1,0.7-2.5,0.5-3.7-0.4l0,0c0.4,1.3,0.2,3.1-1.5,4.1c-1,0.6-2,0.7-2.9,0.4c-1.2-0.4-2.3-1.5-3.5-3.3c-0.6-1-1-1.9-1.3-2.4
			L529.2,176.3z M519.8,184c0.1,0.3,0.4,0.8,0.7,1.3c0.9,1.5,2.3,2.6,4,1.6c1.6-0.9,1.4-2.7,0.4-4.3l-0.7-1.2L519.8,184z
			 M525.4,180.6l0.8,1.4c0.9,1.6,2.3,2,3.4,1.3c1.4-0.8,1.3-2.2,0.4-3.7c-0.4-0.7-0.7-1-0.9-1.3L525.4,180.6z"/>
		<path class="st7" d="M536.1,187.8l-11.8,6.5l-0.8-1.5l11.8-6.5L536.1,187.8z"/>
		<path class="st7" d="M537.9,191.1l0.8,1.5l-10.7,5.5l2.6,5.1l-1.3,0.7l-3.4-6.7L537.9,191.1z"/>
		<path class="st7" d="M543.2,201.8l-12.2,5.8l-0.7-1.6l12.2-5.8L543.2,201.8z"/>
		<path class="st7" d="M544.5,208.2l-1.6-3.8l1.4-0.6l4,9.1l-1.4,0.6l-1.7-3.8l-11,4.8l-0.7-1.6L544.5,208.2z"/>
		<path class="st7" d="M537.9,223.4l5.3-2l5.7-6.7l0.7,1.8l-2.8,3.1c-0.8,0.8-1.4,1.5-2.1,2.2l0,0c1,0,1.9,0.2,3.1,0.3l4.2,0.5
			l0.7,1.8l-8.8-1.5l-5.4,2L537.9,223.4z"/>
	</g>
	<g>
		<path class="st7" d="M99.1,195.8c-0.1,0.8-0.4,2.4-1.2,4c-0.9,1.8-2.2,3.1-3.9,3.7c-1.5,0.5-3.5,0.3-5.3-0.6
			c-3.6-1.8-4.9-5.6-2.9-9.7c0.7-1.4,1.6-2.3,2.1-2.7l1.1,1c-0.6,0.5-1.3,1.2-1.9,2.4c-1.5,2.9-0.6,5.8,2.4,7.3
			c3,1.6,5.8,0.6,7.2-2.2c0.5-1,0.7-1.8,0.7-2.2l-3.6-1.8l-1.2,2.4l-1.2-0.6l2-4L99.1,195.8z"/>
		<path class="st7" d="M99.1,184.3l-2.6,4.5l4.2,2.4l2.9-5.1l1.3,0.7l-3.8,6.6l-11.7-6.7l3.6-6.3l1.3,0.7l-2.8,4.8l3.7,2.1l2.6-4.5
			L99.1,184.3z"/>
		<path class="st7" d="M106.2,184.7l-11.4-7.3l1-1.6l8.1,0c1.9,0,3.5,0.1,5,0.3l0,0c-1.6-0.8-3-1.7-4.8-2.8l-4.8-3l0.9-1.4l11.4,7.3
			l-0.9,1.5l-8.1-0.1c-1.8,0-3.6-0.1-5.1-0.3l0,0.1c1.5,0.8,2.9,1.7,4.8,2.9l4.9,3.1L106.2,184.7z"/>
		<path class="st7" d="M102.8,165.6c0.5-1,1.1-2,1.9-3.2c1.5-2,3-3.1,4.6-3.4c1.6-0.3,3.3,0,5,1.3c1.8,1.3,2.8,2.9,3.1,4.6
			c0.3,1.8-0.4,3.8-1.9,6c-0.7,1-1.4,1.8-2,2.5L102.8,165.6z M113.4,171.2c0.3-0.3,0.7-0.8,1.1-1.4c2.2-3,1.7-5.9-1.3-8
			c-2.6-1.9-5.3-1.6-7.4,1.4c-0.5,0.7-0.9,1.3-1,1.8L113.4,171.2z"/>
		<path class="st7" d="M121.1,153l-3.3,4.1l3.8,3l3.6-4.6l1.1,0.9l-4.7,5.9l-10.5-8.4l4.5-5.7l1.1,0.9l-3.5,4.3l3.3,2.7l3.3-4.1
			L121.1,153z"/>
		<path class="st7" d="M118,145.7c0.4-0.8,1.2-1.8,2-2.7c1.2-1.4,2.3-2.1,3.4-2.2c0.9-0.1,1.8,0.2,2.6,0.9c1.3,1.2,1.5,2.8,0.9,4.2
			l0,0c1-0.5,2.1-0.4,3.4,0.3c1.7,0.9,2.9,1.5,3.5,1.7l-1.2,1.4c-0.4-0.1-1.5-0.6-3-1.4c-1.7-0.9-2.7-0.8-3.8,0.3l-1.1,1.2l4.4,3.8
			l-1.1,1.3L118,145.7z M123.8,148.5l1.2-1.3c1.2-1.4,1.2-3,0.1-4c-1.3-1.1-2.7-0.7-3.9,0.7c-0.6,0.6-0.9,1.1-1,1.4L123.8,148.5z"/>
		<path class="st7" d="M139,133.4l-3.7,3.7l3.4,3.4l4.1-4.1l1,1l-5.3,5.4l-9.6-9.5l5.1-5.2l1,1l-3.9,3.9l3,3l3.7-3.7L139,133.4z"/>
		<path class="st7" d="M155.3,129.6c-1.7,0.9-3.3,1.7-4.9,2.3c-0.3,0.1-0.5,0.2-0.7,0.4c-2.4,2.1-6.1,2.2-9-1
			c-2.9-3.2-2.8-7-0.1-9.5c2.7-2.5,6.4-2,9.1,1c2.3,2.6,2.6,5.3,1.5,7.4l0.1,0.1c1.2-0.7,2.5-1.4,3.5-2L155.3,129.6z M148.3,124.1
			c-1.8-2-4.7-3.1-6.8-1.2c-2.2,2-1.4,5,0.6,7.1c1.9,2.1,4.8,3,6.8,1.1C151,129.3,150.4,126.4,148.3,124.1z"/>
		<path class="st7" d="M149.1,114.7l5,6.2c1.9,2.3,3.8,2.5,5.1,1.4c1.6-1.3,1.7-3.1-0.2-5.4l-5-6.2l1.4-1.1l5,6.1
			c2.6,3.2,2,5.9-0.3,7.7c-2.1,1.7-4.8,1.8-7.4-1.4l-5-6.2L149.1,114.7z"/>
		<path class="st7" d="M165.3,113.6l1.4,4.2l-1.5,1.1l-4.3-13.6l1.7-1.2l11.7,8.2l-1.5,1.1l-3.7-2.6L165.3,113.6z M168.1,109.9
			l-3.4-2.3c-0.8-0.5-1.4-1.1-2-1.6l0,0c0.3,0.8,0.6,1.6,0.9,2.4l1.2,3.9L168.1,109.9z"/>
		<path class="st7" d="M168.8,99.8l1.4-1l6.6,10l4.8-3.2l0.8,1.2l-6.2,4.1L168.8,99.8z"/>
		<path class="st7" d="M178.9,93.3l7.1,11.5l-1.5,0.9l-7.1-11.5L178.9,93.3z"/>
		<path class="st7" d="M185.1,91.3l-3.6,2l-0.7-1.3l8.6-5l0.7,1.3l-3.6,2.1l6,10.4l-1.5,0.9L185.1,91.3z"/>
		<path class="st7" d="M201,96.2l-2.6-5.1l-7.3-4.9l1.8-0.9l3.4,2.4c0.9,0.7,1.7,1.2,2.5,1.9l0,0c-0.1-1-0.1-1.9-0.1-3.1l0-4.2
			l1.8-0.9l-0.5,8.9l2.6,5.1L201,96.2z"/>
	</g>
	<g>
		<path class="st7" d="M75.4,411.3l12.3-5.5l0.8,1.7l-4.5,6.7c-1,1.6-2,2.9-3,4l0,0c1.6-0.9,3.1-1.6,5-2.5l5.1-2.3l0.7,1.5
			l-12.3,5.5l-0.7-1.6l4.5-6.7c1-1.5,2-2.9,3.1-4.1l0,0c-1.5,0.8-3,1.5-5,2.4l-5.3,2.4L75.4,411.3z"/>
		<path class="st7" d="M92.6,431c-4.1,2.1-7.6,0.8-9.2-2.3c-1.6-3.2-0.3-6.6,3.3-8.5c3.8-2,7.5-0.9,9.2,2.3
			C97.6,425.7,96.2,429.1,92.6,431z M87.6,421.8c-2.6,1.3-4.1,3.9-2.9,6.3c1.3,2.5,4.2,2.7,7,1.3c2.4-1.2,4.2-3.8,2.9-6.3
			C93.3,420.5,90.2,420.4,87.6,421.8z"/>
		<path class="st7" d="M87.9,436.7l11.6-6.8l1,1.6l-3.7,7.2c-0.9,1.7-1.7,3.1-2.5,4.3l0,0c1.5-1.1,2.9-1.9,4.7-3l4.9-2.9l0.8,1.4
			L93,445.4l-0.9-1.5l3.7-7.2c0.8-1.6,1.7-3.1,2.6-4.5l0,0c-1.4,0.9-2.8,1.8-4.7,2.9l-5,2.9L87.9,436.7z"/>
		<path class="st7" d="M102.3,448.5l-1.1,0.7l-2.7-4.2l1.1-0.7L102.3,448.5z"/>
		<path class="st7" d="M109.5,446.4c0.7,0.8,1.6,1.7,2.4,2.9c1.4,2,2,3.8,1.8,5.4c-0.2,1.6-1.1,3.1-2.9,4.3
			c-1.8,1.3-3.7,1.7-5.4,1.4c-1.8-0.3-3.5-1.6-5-3.8c-0.7-1-1.3-1.9-1.7-2.7L109.5,446.4z M100.8,454.7c0.2,0.4,0.5,0.9,0.9,1.5
			c2.1,3,5,3.5,8,1.4c2.6-1.8,3.2-4.4,1.1-7.5c-0.5-0.7-1-1.2-1.3-1.6L100.8,454.7z"/>
		<path class="st7" d="M118.5,458.6l-10.7,8.1l-1.1-1.4l10.7-8.1L118.5,458.6z"/>
		<path class="st7" d="M111.5,468.1c0.1,0.9,0.5,2,1.3,3c1.1,1.4,2.5,1.6,3.6,0.7c1-0.8,1.1-1.8,0.5-3.7c-0.8-2.2-0.7-4,0.7-5.2
			c1.6-1.3,3.9-0.9,5.6,1.1c0.9,1.1,1.2,2.1,1.4,2.7l-1.4,0.5c-0.1-0.5-0.3-1.4-1.1-2.4c-1.2-1.4-2.5-1.3-3.2-0.7
			c-1,0.8-0.9,1.8-0.3,3.7c0.7,2.3,0.6,3.9-0.9,5.2c-1.6,1.3-4,1.2-6-1.2c-0.8-1-1.4-2.4-1.5-3.2L111.5,468.1z"/>
		<path class="st7" d="M123.2,484.5c-0.7-0.3-1.8-1-2.8-2.2c-2.5-2.8-2.6-6.6,0.7-9.5c3.2-2.8,7.2-2.5,10,0.6
			c1.1,1.3,1.5,2.3,1.7,2.8l-1.3,0.6c-0.2-0.7-0.6-1.6-1.4-2.4c-2.1-2.4-5-2.6-7.6-0.3c-2.5,2.2-2.8,5-0.6,7.5
			c0.7,0.8,1.6,1.5,2.3,1.8L123.2,484.5z"/>
		<path class="st7" d="M134.3,477.5c0.7,0.5,1.7,1.3,2.5,2.2c1.3,1.3,1.9,2.4,1.9,3.6c0,0.9-0.4,1.8-1.1,2.5
			c-1.3,1.2-2.9,1.3-4.2,0.6l0,0c0.5,1,0.2,2.1-0.6,3.3c-1,1.6-1.8,2.8-1.9,3.3l-1.3-1.3c0.1-0.4,0.7-1.4,1.7-2.9
			c1.1-1.6,1.1-2.6,0-3.8l-1.1-1.2L126,488l-1.2-1.2L134.3,477.5z M131.1,483l1.2,1.3c1.3,1.3,2.8,1.5,4,0.4c1.3-1.2,0.9-2.6-0.3-4
			c-0.6-0.6-1.1-1-1.3-1.1L131.1,483z"/>
		<path class="st7" d="M143.3,486.4l-9.4,9.7l-1.2-1.2l9.4-9.7L143.3,486.4z"/>
		<path class="st7" d="M148.9,501.7c1.2-1.5,2.6-3.2,3.7-4.5l0,0c-1.4,0.9-2.9,1.8-4.7,2.7l-6.1,3.3l-1-0.9l2.6-6.2
			c0.8-1.8,1.5-3.5,2.3-5l0,0c-1.1,1.2-2.7,2.8-4.2,4.3l-4.1,4.1l-1.2-1.1l9.7-9.4l1.7,1.5l-2.6,6.4c-0.7,1.6-1.3,3-2,4.3l0,0
			c1.2-0.8,2.5-1.6,4.1-2.4l6.1-3.3l1.7,1.5l-8.3,10.6l-1.3-1.1L148.9,501.7z"/>
		<path class="st7" d="M159,500.2l-8.5,10.4l-1.3-1.1l8.5-10.4L159,500.2z"/>
		<path class="st7" d="M153.3,512.9l8.1-10.7l1.5,1.1l-0.7,8c-0.2,1.9-0.4,3.5-0.7,5l0,0c1-1.5,1.9-2.9,3.2-4.5l3.4-4.5l1.3,1
			l-8.1,10.7l-1.4-1.1l0.7-8c0.2-1.8,0.4-3.5,0.7-5.1l-0.1,0c-0.9,1.4-1.9,2.7-3.2,4.5l-3.5,4.6L153.3,512.9z"/>
		<path class="st7" d="M168.5,518.9l-3.5,2.7l-1.5-1l11.4-8.6l1.7,1.2l-3.8,13.7l-1.5-1l1.2-4.3L168.5,518.9z M172.9,520.2l1.1-4
			c0.2-0.9,0.5-1.7,0.8-2.4l0,0c-0.6,0.6-1.3,1.1-1.9,1.6l-3.3,2.5L172.9,520.2z"/>
		<path class="st7" d="M182.2,518.6l-3.5-2.2l0.8-1.3l8.5,5.3l-0.8,1.3l-3.5-2.2l-6.3,10.2l-1.5-0.9L182.2,518.6z"/>
		<path class="st7" d="M190.9,522.1l-6.8,11.7l-1.5-0.9l6.8-11.7L190.9,522.1z"/>
		<path class="st7" d="M200.7,534.9c-2.2,4.1-5.8,5-8.9,3.3c-3.1-1.7-4.1-5.3-2.1-8.9c2-3.8,5.7-5,8.8-3.3
			C201.8,527.8,202.5,531.4,200.7,534.9z M191.3,530.2c-1.3,2.5-1.2,5.6,1.2,6.8c2.4,1.3,5-0.2,6.4-2.9c1.3-2.4,1.3-5.5-1.2-6.9
			C195.2,525.9,192.7,527.6,191.3,530.2z"/>
		<path class="st7" d="M200.1,542.3l5.7-12.2l1.7,0.8l1.1,8c0.2,1.9,0.4,3.5,0.4,5l0,0c0.6-1.7,1.3-3.2,2.1-5.1l2.4-5.1l1.5,0.7
			l-5.7,12.2l-1.6-0.7l-1-8c-0.2-1.8-0.4-3.5-0.4-5.1l-0.1,0c-0.6,1.6-1.3,3.1-2.2,5.1l-2.4,5.2L200.1,542.3z"/>
	</g>
	<g>
		<path class="st7" d="M418.3,530.5l1.6-0.8l5.4,10.8l5.2-2.6l0.7,1.3l-6.7,3.3L418.3,530.5z"/>
		<path class="st7" d="M441.3,532.9c-0.5,0.6-1.7,1.8-3.3,2.7c-1.8,1-3.5,1.3-5.3,0.9c-1.6-0.4-3.1-1.6-4.1-3.5
			c-1.9-3.5-0.9-7.4,3-9.6c1.4-0.8,2.6-1,3.2-1.1l0.3,1.4c-0.8,0.1-1.7,0.3-2.9,0.9c-2.9,1.6-3.8,4.4-2.1,7.4c1.7,3,4.4,3.8,7.2,2.2
			c1-0.6,1.6-1.1,1.9-1.4l-1.9-3.5l-2.4,1.3l-0.7-1.2l3.9-2.2L441.3,532.9z"/>
		<path class="st7" d="M437.4,520.4c0.6-0.5,1.5-1.3,2.6-1.9c1.5-0.9,2.6-1.2,3.7-1.1c0.9,0.1,1.6,0.5,2.2,1.4
			c0.7,1.1,0.6,2.5-0.4,3.7l0,0c1.3-0.4,3.1-0.3,4.1,1.4c0.6,1,0.7,2,0.5,2.9c-0.3,1.2-1.4,2.4-3.3,3.5c-1,0.6-1.8,1-2.4,1.3
			L437.4,520.4z M441.8,524.2l1.3-0.8c1.6-1,2-2.4,1.3-3.5c-0.8-1.3-2.2-1.2-3.7-0.3c-0.7,0.4-1,0.7-1.2,0.9L441.8,524.2z
			 M445.2,529.7c0.3-0.1,0.8-0.4,1.3-0.7c1.5-0.9,2.6-2.4,1.6-4c-1-1.6-2.7-1.4-4.3-0.4l-1.2,0.8L445.2,529.7z"/>
		<path class="st7" d="M449.3,514.4l-3.4,2.3l-0.8-1.2l8.3-5.6l0.8,1.2l-3.4,2.3l6.7,9.9l-1.5,1L449.3,514.4z"/>
		<path class="st7" d="M460.3,508.2l2.8,3.8l3.6-2.7l0.7,1l-3.6,2.7l2.8,3.8l-1,0.8l-2.8-3.8l-3.6,2.7l-0.7-1l3.6-2.7l-2.8-3.8
			L460.3,508.2z"/>
		<path class="st7" d="M483.2,502.8c-0.3,0.7-1,1.7-2.3,2.8c-2.9,2.5-6.6,2.5-9.5-0.9c-2.7-3.2-2.4-7.2,0.8-10
			c1.3-1.1,2.3-1.5,2.8-1.6l0.6,1.4c-0.7,0.2-1.6,0.6-2.4,1.3c-2.4,2.1-2.7,5-0.4,7.6c2.1,2.5,5,2.9,7.5,0.8
			c0.8-0.7,1.5-1.6,1.8-2.3L483.2,502.8z"/>
		<path class="st7" d="M488.9,488.6c3.2,3.4,2.8,7.1,0.3,9.5c-2.6,2.4-6.3,2.2-9.1-0.8c-2.9-3.1-2.9-7-0.3-9.4
			C482.5,485.3,486.1,485.7,488.9,488.6z M481.4,495.9c2,2.1,4.9,2.9,6.9,1c2-1.9,1.4-4.8-0.7-7c-1.8-1.9-4.8-3-6.9-1
			C478.6,490.9,479.4,493.8,481.4,495.9z"/>
		<path class="st7" d="M499.2,479.2c-1.4-1.2-3.2-2.7-4.4-3.8l0,0c0.8,1.4,1.7,3,2.6,4.7l3.1,6.2l-0.9,1l-6.2-2.8
			c-1.8-0.8-3.5-1.6-4.9-2.5l0,0c1.2,1.2,2.8,2.8,4.2,4.3l4,4.2l-1.1,1.2l-9.2-9.9l1.5-1.6l6.3,2.8c1.6,0.7,3,1.4,4.2,2.1l0,0
			c-0.8-1.2-1.5-2.5-2.3-4.1l-3.1-6.2l1.5-1.6l10.4,8.6l-1.2,1.2L499.2,479.2z"/>
		<path class="st7" d="M509.8,466.7c-1.5-1.1-3.3-2.5-4.6-3.5l0,0c0.9,1.4,1.9,2.9,2.9,4.6l3.5,6l-0.8,1l-6.3-2.4
			c-1.9-0.7-3.6-1.4-5-2.1l0,0c1.3,1.1,2.9,2.6,4.4,4l4.2,4l-1.1,1.3l-9.8-9.3l1.4-1.7l6.5,2.4c1.6,0.6,3.1,1.2,4.4,1.8l0,0
			c-0.8-1.1-1.7-2.4-2.6-4l-3.5-6l1.4-1.7l10.9,7.9l-1.1,1.3L509.8,466.7z"/>
		<path class="st7" d="M507.8,456.8l6.4,4.7c2.4,1.8,4.3,1.5,5.3,0c1.2-1.6,0.9-3.4-1.5-5.2l-6.4-4.7l1-1.4l6.4,4.6
			c3.3,2.4,3.4,5.2,1.7,7.6c-1.6,2.2-4.1,3-7.5,0.5l-6.4-4.7L507.8,456.8z"/>
		<path class="st7" d="M525.6,455.2l-11.3-7.4l1-1.6l8.1,0.1c1.9,0,3.5,0.1,5,0.4l0,0c-1.6-0.8-3-1.7-4.8-2.9l-4.7-3.1l0.9-1.4
			l11.3,7.4l-1,1.5l-8.1-0.2c-1.8,0-3.6-0.1-5.1-0.3l0,0.1c1.5,0.8,2.9,1.7,4.7,2.9l4.8,3.1L525.6,455.2z"/>
		<path class="st7" d="M522.3,435.2l11.6,6.9l-0.9,1.5l-11.6-6.9L522.3,435.2z"/>
		<path class="st7" d="M526.4,430.9l-2,3.6l-1.3-0.7l4.9-8.7l1.3,0.7l-2,3.6l10.5,5.9l-0.9,1.5L526.4,430.9z"/>
		<path class="st7" d="M542.4,426.6l-5.1-2.6l-8.8,0.3l0.9-1.8l4.2,0c1.1,0,2.1,0,3.1,0l0,0c-0.6-0.7-1.2-1.5-1.9-2.5l-2.5-3.4
			l0.9-1.8l4.9,7.5l5.1,2.6L542.4,426.6z"/>
	</g>
</g>
</svg>
