<?xml version="1.0" encoding="utf-8"?>
<!-- Generator: Adobe Illustrator 25.2.1, SVG Export Plug-In . SVG Version: 6.00 Build 0)  -->
<svg version="1.1" id="Capa_1" xmlns="http://www.w3.org/2000/svg" xmlns:xlink="http://www.w3.org/1999/xlink" x="0px" y="0px"
	 viewBox="0 0 397.7 451" style="enable-background:new 0 0 397.7 451;" xml:space="preserve">
<style type="text/css">
	.st0{fill:#EDF1F3;}
	.st1{fill:#007DC2;}
	.st2{fill:#4D4D4F;}
	.st3{fill:#6AAAE4;}
	.st4{fill:#FFB71B;}
	.st5{fill:#76BC21;}
	.st6{fill:#4A5B6D;}
	.st7{fill:none;stroke:#A5BCD0;stroke-miterlimit:10;}
	.st8{fill:#A5BCD0;}
	.st9{fill:#FFFFFF;}
	.st10{clip-path:url(#SVGID_2_);fill:#FFB71B;}
	.st11{clip-path:url(#SVGID_4_);fill:#FFB71B;}
	.st12{clip-path:url(#SVGID_6_);fill:#FFB71B;}
	.st13{clip-path:url(#SVGID_8_);fill:#FFB71B;}
	.st14{clip-path:url(#SVGID_10_);fill:#FFB71B;}
</style>
<g>
	<g>
		<g>
			<g>
				<g>
					<path class="st0" d="M9.4,188c-2.9,0-5.3,2.4-5.3,5.3v64.5c0,2.9,2.4,5.3,5.3,5.3h296.9c2.9,0,5.3-2.4,5.3-5.3v-64.5
						c0-2.9-2.4-5.3-5.3-5.3L9.4,188L9.4,188z"/>
				</g>
				<g>
					<path class="st1" d="M46.5,239.1c10.8,0,19.6-8.8,19.6-19.6s-8.8-19.6-19.6-19.6s-19.6,8.8-19.6,19.6S35.6,239.1,46.5,239.1"/>
				</g>
			</g>
		</g>
		<g>
			<g>
				<path class="st2" d="M88.8,220.3l-2.6-9.8H87l1.4,5.5c0.3,1.3,0.6,2.4,0.8,3.3l0,0c0.2-0.9,0.5-2.1,0.9-3.3l1.6-5.5h0.7l1.4,5.5
					c0.3,1.2,0.6,2.4,0.8,3.4l0,0c0.2-1.1,0.5-2.1,0.9-3.4l1.6-5.5h0.7l-2.9,9.8h-0.7l-1.5-5.6c-0.4-1.4-0.6-2.4-0.8-3.3l0,0
					c-0.2,0.9-0.4,1.9-0.9,3.3l-1.7,5.6H88.8z"/>
				<path class="st2" d="M103.3,218.7c0,0.6,0,1.1,0.1,1.7h-0.6l-0.1-1l0,0c-0.3,0.5-1.1,1.2-2.2,1.2c-1.4,0-2-1-2-1.9
					c0-1.6,1.4-2.6,4.2-2.6v-0.2c0-0.7-0.1-2.1-1.8-2c-0.6,0-1.2,0.2-1.8,0.5l-0.2-0.5c0.6-0.4,1.4-0.6,2-0.6c2,0,2.4,1.5,2.4,2.7
					V218.7z M102.6,216.6c-1.5,0-3.5,0.2-3.5,1.9c0,1,0.7,1.5,1.4,1.5c1.2,0,1.8-0.7,2.1-1.4c0.1-0.1,0.1-0.3,0.1-0.4L102.6,216.6
					L102.6,216.6z"/>
				<path class="st2" d="M105.6,210h0.7v10.3h-0.7V210z"/>
				<path class="st2" d="M108.7,215c0-0.6,0-1.1-0.1-1.7h0.7v1.2l0,0c0.4-0.8,1.1-1.4,2.3-1.4c1,0,1.7,0.6,2,1.5l0,0
					c0.2-0.4,0.4-0.7,0.7-0.9c0.4-0.4,0.9-0.6,1.7-0.6c0.7,0,2.3,0.4,2.3,3v4.1h-0.7v-4c0-1.6-0.6-2.5-1.8-2.5
					c-0.9,0-1.6,0.6-1.8,1.4c-0.1,0.2-0.1,0.4-0.1,0.7v4.5h-0.7V216c0-1.3-0.6-2.2-1.7-2.2c-0.9,0-1.7,0.8-1.9,1.6
					c-0.1,0.2-0.1,0.4-0.1,0.7v4.3h-0.7V215H108.7z"/>
				<path class="st2" d="M125,218.7c0,0.6,0,1.1,0.1,1.7h-0.6l-0.1-1l0,0c-0.3,0.5-1.1,1.2-2.2,1.2c-1.4,0-2-1-2-1.9
					c0-1.6,1.4-2.6,4.2-2.6v-0.2c0-0.7-0.1-2.1-1.8-2c-0.6,0-1.2,0.2-1.8,0.5l-0.2-0.5c0.6-0.4,1.4-0.6,2-0.6c2,0,2.4,1.5,2.4,2.7
					V218.7z M124.3,216.6c-1.5,0-3.5,0.2-3.5,1.9c0,1,0.7,1.5,1.4,1.5c1.2,0,1.8-0.7,2.1-1.4c0.1-0.1,0.1-0.3,0.1-0.4L124.3,216.6
					L124.3,216.6z"/>
				<path class="st2" d="M127.3,215.5c0-0.7,0-1.4-0.1-2.1h0.6v1.4l0,0c0.3-0.9,1-1.6,2-1.6c0.1,0,0.2,0,0.3,0v0.7
					c-0.1,0-0.2,0-0.3,0c-1,0-1.6,0.8-1.8,1.9c0,0.2-0.1,0.4-0.1,0.7v3.8h-0.7L127.3,215.5L127.3,215.5z"/>
				<path class="st2" d="M133.2,211.8v1.5h2v0.6h-2v4.5c0,0.9,0.3,1.4,1,1.4c0.4,0,0.6,0,0.8-0.1l0.1,0.5c-0.2,0.1-0.6,0.2-1,0.2
					c-0.5,0-0.9-0.2-1.2-0.5c-0.3-0.4-0.4-1-0.4-1.7v-4.4h-1.2v-0.6h1.2v-1.3L133.2,211.8z"/>
				<path class="st2" d="M138.3,210.3c-0.3,1.1-0.9,2.7-1.1,3.1l-0.5,0.1c0.2-0.6,0.6-2.2,0.8-3.1L138.3,210.3z"/>
				<path class="st2" d="M139.2,219.4c0.4,0.2,0.9,0.5,1.6,0.5c1.1,0,1.6-0.6,1.6-1.3c0-0.8-0.5-1.2-1.5-1.6
					c-1.1-0.4-1.8-1.1-1.8-1.9c0-1,0.8-1.9,2.1-1.9c0.6,0,1.2,0.2,1.5,0.4l-0.3,0.6c-0.2-0.2-0.7-0.4-1.4-0.4
					c-0.9,0-1.3,0.6-1.3,1.2c0,0.7,0.5,1,1.4,1.4c1.1,0.4,1.8,1,1.8,2.1c0,1.2-0.9,2-2.3,2c-0.7,0-1.3-0.2-1.8-0.5L139.2,219.4z"/>
				<path class="st2" d="M148.6,215.6c0-0.9,0-1.6-0.1-2.2h0.7v1.3l0,0c0.5-0.9,1.4-1.5,2.6-1.5c1.8,0,3,1.5,3,3.5
					c0,2.5-1.5,3.8-3.2,3.8c-1,0-1.9-0.4-2.4-1.3l0,0v4h-0.7L148.6,215.6L148.6,215.6z M149.3,217.6c0,0.2,0,0.4,0.1,0.6
					c0.3,1.1,1.2,1.8,2.3,1.8c1.6,0,2.5-1.3,2.5-3.1c0-1.6-0.9-3-2.4-3c-1,0-2,0.7-2.3,1.8c0,0.2-0.1,0.4-0.1,0.6v1.3H149.3z"/>
				<path class="st2" d="M162.2,218.6c0,0.6,0,1.2,0.1,1.7h-0.7v-1.2l0,0c-0.3,0.7-1.1,1.4-2.4,1.4c-0.9,0-2.4-0.4-2.4-3.1v-4h0.7
					v3.9c0,1.5,0.5,2.6,1.8,2.6c1,0,1.8-0.7,2.1-1.4c0.1-0.2,0.1-0.5,0.1-0.8v-4.3h0.7L162.2,218.6L162.2,218.6z"/>
				<path class="st2" d="M164.6,215.5c0-0.7,0-1.4-0.1-2.1h0.6v1.4l0,0c0.3-0.9,1-1.6,2-1.6c0.1,0,0.2,0,0.3,0v0.7
					c-0.1,0-0.2,0-0.3,0c-1,0-1.6,0.8-1.8,1.9c0,0.2-0.1,0.4-0.1,0.7v3.8h-0.7v-4.8H164.6z"/>
				<path class="st2" d="M169,215.6c0-0.9,0-1.6-0.1-2.2h0.7v1.3l0,0c0.5-0.9,1.4-1.5,2.6-1.5c1.8,0,3,1.5,3,3.5
					c0,2.5-1.5,3.8-3.2,3.8c-1,0-1.9-0.4-2.4-1.3l0,0v4H169V215.6z M169.7,217.6c0,0.2,0,0.4,0.1,0.6c0.3,1.1,1.2,1.8,2.3,1.8
					c1.6,0,2.5-1.3,2.5-3.1c0-1.6-0.9-3-2.4-3c-1,0-2,0.7-2.3,1.8c0,0.2-0.1,0.4-0.1,0.6v1.3H169.7z"/>
				<path class="st2" d="M183.3,216.8c0,2.6-1.8,3.7-3.3,3.7c-1.8,0-3.2-1.4-3.2-3.6c0-2.4,1.6-3.7,3.3-3.7
					C182,213.2,183.3,214.7,183.3,216.8z M177.5,216.9c0,1.7,1.1,3,2.5,3s2.6-1.3,2.6-3.1c0-1.3-0.7-3-2.6-3
					C178.3,213.8,177.5,215.4,177.5,216.9z"/>
				<path class="st2" d="M184.9,219.4c0.4,0.2,0.9,0.5,1.6,0.5c1.1,0,1.6-0.6,1.6-1.3c0-0.8-0.5-1.2-1.5-1.6
					c-1.1-0.4-1.8-1.1-1.8-1.9c0-1,0.8-1.9,2.1-1.9c0.6,0,1.2,0.2,1.5,0.4l-0.3,0.6c-0.2-0.2-0.7-0.4-1.4-0.4
					c-0.9,0-1.3,0.6-1.3,1.2c0,0.7,0.5,1,1.4,1.4c1.1,0.4,1.8,1,1.8,2.1c0,1.2-0.9,2-2.3,2c-0.7,0-1.3-0.2-1.8-0.5L184.9,219.4z"/>
				<path class="st2" d="M190.8,216.8c0,2.2,1.2,3.1,2.7,3.1c1,0,1.5-0.2,1.9-0.4l0.2,0.5c-0.3,0.1-1,0.4-2.2,0.4
					c-2,0-3.2-1.4-3.2-3.5c0-2.3,1.3-3.8,3.1-3.8c2.3,0,2.7,2.1,2.7,3.1c0,0.2,0,0.3,0,0.4h-5.2V216.8z M195.3,216.2
					c0-1-0.4-2.4-2.1-2.4c-1.5,0-2.2,1.4-2.3,2.4H195.3z"/>
				<path class="st2" d="M196.9,222.2c0.2-0.6,0.6-2.2,0.8-3.1l0.9-0.1c-0.3,1.1-0.9,2.7-1.1,3.1L196.9,222.2z"/>
				<path class="st2" d="M203.7,213.4l1.6,4.3c0.3,0.7,0.5,1.3,0.7,1.9l0,0c0.2-0.6,0.4-1.2,0.7-1.9l1.7-4.3h0.7l-2.8,7h-0.6l-2.7-7
					H203.7z"/>
				<path class="st2" d="M215,218.7c0,0.6,0,1.1,0.1,1.7h-0.6l-0.1-1l0,0c-0.3,0.5-1.1,1.2-2.2,1.2c-1.4,0-2-1-2-1.9
					c0-1.6,1.4-2.6,4.2-2.6v-0.2c0-0.7-0.1-2.1-1.8-2c-0.6,0-1.2,0.2-1.8,0.5l-0.2-0.5c0.6-0.4,1.4-0.6,2-0.6c2,0,2.4,1.5,2.4,2.7
					L215,218.7L215,218.7z M214.3,216.6c-1.5,0-3.5,0.2-3.5,1.9c0,1,0.7,1.5,1.4,1.5c1.2,0,1.8-0.7,2.1-1.4c0.1-0.1,0.1-0.3,0.1-0.4
					v-1.6H214.3z"/>
				<path class="st2" d="M217.3,210h0.7v10.3h-0.7V210z"/>
				<path class="st2" d="M225.8,218.6c0,0.6,0,1.2,0.1,1.7h-0.7v-1.2l0,0c-0.3,0.7-1.1,1.4-2.4,1.4c-0.9,0-2.4-0.4-2.4-3.1v-4h0.7
					v3.9c0,1.5,0.5,2.6,1.8,2.6c1,0,1.8-0.7,2.1-1.4c0.1-0.2,0.1-0.5,0.1-0.8v-4.3h0.7L225.8,218.6L225.8,218.6z"/>
				<path class="st2" d="M228.4,216.8c0,2.2,1.2,3.1,2.7,3.1c1,0,1.5-0.2,1.9-0.4l0.2,0.5c-0.3,0.1-1,0.4-2.2,0.4
					c-2,0-3.2-1.4-3.2-3.5c0-2.3,1.3-3.8,3.1-3.8c2.3,0,2.7,2.1,2.7,3.1c0,0.2,0,0.3,0,0.4h-5.2V216.8z M232.8,216.2
					c0-1-0.4-2.4-2.1-2.4c-1.5,0-2.2,1.4-2.3,2.4H232.8z"/>
				<path class="st2" d="M235.1,219.4c0.4,0.2,0.9,0.5,1.6,0.5c1.1,0,1.6-0.6,1.6-1.3c0-0.8-0.5-1.2-1.5-1.6
					c-1.1-0.4-1.8-1.1-1.8-1.9c0-1,0.8-1.9,2.1-1.9c0.6,0,1.2,0.2,1.5,0.4l-0.3,0.6c-0.2-0.2-0.7-0.4-1.4-0.4
					c-0.9,0-1.3,0.6-1.3,1.2c0,0.7,0.5,1,1.4,1.4c1.1,0.4,1.8,1,1.8,2.1c0,1.2-0.9,2-2.3,2c-0.7,0-1.3-0.2-1.8-0.5L235.1,219.4z"/>
			</g>
		</g>
		<g>
			<g>
				<path class="st2" d="M91.6,238.7c0,0.6,0,1.1,0.1,1.7H91l-0.1-1l0,0c-0.3,0.5-1.1,1.2-2.2,1.2c-1.4,0-2-1-2-1.9
					c0-1.6,1.4-2.6,4.2-2.6v-0.2c0-0.7-0.1-2.1-1.8-2c-0.6,0-1.2,0.2-1.8,0.5l-0.2-0.5c0.6-0.4,1.4-0.6,2-0.6c2,0,2.4,1.5,2.4,2.7
					L91.6,238.7L91.6,238.7z M90.9,236.6c-1.5,0-3.5,0.2-3.5,1.9c0,1,0.7,1.5,1.4,1.5c1.2,0,1.8-0.7,2.1-1.4
					c0.1-0.1,0.1-0.3,0.1-0.4L90.9,236.6L90.9,236.6z"/>
				<path class="st2" d="M93.9,235c0-0.6,0-1.1-0.1-1.7h0.7v1.3l0,0c0.4-0.8,1.3-1.4,2.4-1.4c0.7,0,2.4,0.3,2.4,2.9v4.2h-0.7v-4.1
					c0-1.3-0.5-2.4-1.9-2.4c-1,0-1.8,0.7-2.1,1.6c0,0.2-0.1,0.4-0.1,0.6v4.3h-0.7L93.9,235L93.9,235z"/>
				<path class="st2" d="M107.3,230v8.7c0,0.5,0,1.1,0.1,1.6h-0.6l-0.1-1.3l0,0c-0.4,0.8-1.2,1.5-2.5,1.5c-1.7,0-3-1.4-3-3.5
					c0-2.3,1.4-3.8,3.1-3.8c1.2,0,2,0.6,2.3,1.2l0,0V230H107.3z M106.7,236.1c0-0.2,0-0.4-0.1-0.6c-0.2-0.9-1.1-1.7-2.2-1.7
					c-1.5,0-2.5,1.3-2.5,3.1c0,1.6,0.8,3,2.4,3c1,0,1.9-0.7,2.2-1.8c0.1-0.2,0.1-0.4,0.1-0.6L106.7,236.1L106.7,236.1z"/>
				<path class="st2" d="M113.4,230h0.7v4.6l0,0c0.5-0.9,1.3-1.5,2.5-1.5c1.8,0,3,1.5,3,3.6c0,2.5-1.6,3.7-3.1,3.7
					c-1.1,0-1.9-0.5-2.5-1.4l0,0l-0.1,1.3h-0.6c0-0.5,0.1-1.1,0.1-1.6V230z M114.1,237.6c0,0.2,0,0.3,0.1,0.5
					c0.3,1.1,1.2,1.8,2.3,1.8c1.6,0,2.5-1.3,2.5-3.1c0-1.6-0.9-3-2.4-3c-1,0-2,0.7-2.3,1.9c0,0.2-0.1,0.4-0.1,0.6L114.1,237.6
					L114.1,237.6z"/>
				<path class="st2" d="M127,238.6c0,0.6,0,1.2,0.1,1.7h-0.7v-1.2l0,0c-0.3,0.7-1.1,1.4-2.4,1.4c-0.9,0-2.4-0.4-2.4-3.1v-4h0.7v3.9
					c0,1.5,0.5,2.6,1.8,2.6c1,0,1.8-0.7,2.1-1.4c0.1-0.2,0.1-0.5,0.1-0.8v-4.3h0.7C127,233.4,127,238.6,127,238.6z"/>
				<path class="st2" d="M129,239.4c0.4,0.2,0.9,0.5,1.6,0.5c1.1,0,1.6-0.6,1.6-1.3c0-0.8-0.5-1.2-1.5-1.6c-1.1-0.4-1.8-1.1-1.8-1.9
					c0-1,0.8-1.9,2.1-1.9c0.6,0,1.2,0.2,1.5,0.4l-0.3,0.6c-0.2-0.2-0.7-0.4-1.4-0.4c-0.9,0-1.3,0.6-1.3,1.2c0,0.7,0.5,1,1.4,1.4
					c1.1,0.4,1.8,1,1.8,2.1c0,1.2-0.9,2-2.3,2c-0.7,0-1.3-0.2-1.8-0.5L129,239.4z"/>
				<path class="st2" d="M135.6,231.4c0,0.3-0.2,0.6-0.6,0.6c-0.3,0-0.5-0.3-0.5-0.6s0.2-0.6,0.6-0.6S135.6,231.1,135.6,231.4z
					 M134.7,240.3v-7h0.7v7H134.7z"/>
				<path class="st2" d="M137.8,235c0-0.6,0-1.1-0.1-1.7h0.7v1.3l0,0c0.4-0.8,1.3-1.4,2.4-1.4c0.7,0,2.4,0.3,2.4,2.9v4.2h-0.7v-4.1
					c0-1.3-0.5-2.4-1.9-2.4c-1,0-1.8,0.7-2.1,1.6c0,0.2-0.1,0.4-0.1,0.6v4.3h-0.7V235H137.8z"/>
				<path class="st2" d="M145.8,236.8c0,2.2,1.2,3.1,2.7,3.1c1,0,1.5-0.2,1.9-0.4l0.2,0.5c-0.3,0.1-1,0.4-2.2,0.4
					c-2,0-3.2-1.4-3.2-3.5c0-2.3,1.3-3.8,3.1-3.8c2.3,0,2.7,2.1,2.7,3.1c0,0.2,0,0.3,0,0.4h-5.2V236.8z M150.3,236.2
					c0-1-0.4-2.4-2.1-2.4c-1.5,0-2.2,1.4-2.3,2.4H150.3z"/>
				<path class="st2" d="M152.6,239.4c0.4,0.2,0.9,0.5,1.6,0.5c1.1,0,1.6-0.6,1.6-1.3c0-0.8-0.5-1.2-1.5-1.6
					c-1.1-0.4-1.8-1.1-1.8-1.9c0-1,0.8-1.9,2.1-1.9c0.6,0,1.2,0.2,1.5,0.4l-0.3,0.6c-0.2-0.2-0.7-0.4-1.4-0.4
					c-0.9,0-1.3,0.6-1.3,1.2c0,0.7,0.5,1,1.4,1.4c1.1,0.4,1.8,1,1.8,2.1c0,1.2-0.9,2-2.3,2c-0.7,0-1.3-0.2-1.8-0.5L152.6,239.4z"/>
				<path class="st2" d="M158,239.4c0.4,0.2,0.9,0.5,1.6,0.5c1.1,0,1.6-0.6,1.6-1.3c0-0.8-0.5-1.2-1.5-1.6c-1.1-0.4-1.8-1.1-1.8-1.9
					c0-1,0.8-1.9,2.1-1.9c0.6,0,1.2,0.2,1.5,0.4l-0.3,0.6c-0.2-0.2-0.7-0.4-1.4-0.4c-0.9,0-1.3,0.6-1.3,1.2c0,0.7,0.5,1,1.4,1.4
					c1.1,0.4,1.8,1,1.8,2.1c0,1.2-0.9,2-2.3,2c-0.7,0-1.3-0.2-1.8-0.5L158,239.4z"/>
				<path class="st2" d="M167.2,239.4c0.4,0.2,0.9,0.5,1.6,0.5c1.1,0,1.6-0.6,1.6-1.3c0-0.8-0.5-1.2-1.5-1.6
					c-1.1-0.4-1.8-1.1-1.8-1.9c0-1,0.8-1.9,2.1-1.9c0.6,0,1.2,0.2,1.5,0.4l-0.3,0.6c-0.2-0.2-0.7-0.4-1.4-0.4
					c-0.9,0-1.3,0.6-1.3,1.2c0,0.7,0.5,1,1.4,1.4c1.1,0.4,1.8,1,1.8,2.1c0,1.2-0.9,2-2.3,2c-0.7,0-1.3-0.2-1.8-0.5L167.2,239.4z"/>
				<path class="st2" d="M174.1,231.8v1.5h2v0.6h-2v4.5c0,0.9,0.3,1.4,1,1.4c0.4,0,0.6,0,0.8-0.1l0.1,0.5c-0.2,0.1-0.6,0.2-1,0.2
					c-0.5,0-0.9-0.2-1.2-0.5c-0.3-0.4-0.4-1-0.4-1.7v-4.4h-1.2v-0.6h1.2v-1.3L174.1,231.8z"/>
				<path class="st2" d="M177.7,235.5c0-0.7,0-1.4-0.1-2.1h0.6v1.4l0,0c0.3-0.9,1-1.6,2-1.6c0.1,0,0.2,0,0.3,0v0.7
					c-0.1,0-0.2,0-0.3,0c-1,0-1.6,0.8-1.8,1.9c0,0.2-0.1,0.4-0.1,0.7v3.8h-0.7v-4.8H177.7z"/>
				<path class="st2" d="M186.6,238.7c0,0.6,0,1.1,0.1,1.7h-0.6l-0.1-1l0,0c-0.3,0.5-1.1,1.2-2.2,1.2c-1.4,0-2-1-2-1.9
					c0-1.6,1.4-2.6,4.2-2.6v-0.2c0-0.7-0.1-2.1-1.8-2c-0.6,0-1.2,0.2-1.8,0.5l-0.2-0.5c0.6-0.4,1.4-0.6,2-0.6c2,0,2.4,1.5,2.4,2.7
					L186.6,238.7L186.6,238.7z M185.9,236.6c-1.5,0-3.5,0.2-3.5,1.9c0,1,0.7,1.5,1.4,1.5c1.2,0,1.8-0.7,2.1-1.4
					c0.1-0.1,0.1-0.3,0.1-0.4v-1.6H185.9z"/>
				<path class="st2" d="M189.8,231.8v1.5h2v0.6h-2v4.5c0,0.9,0.3,1.4,1,1.4c0.4,0,0.6,0,0.8-0.1l0.1,0.5c-0.2,0.1-0.6,0.2-1,0.2
					c-0.5,0-0.9-0.2-1.2-0.5c-0.3-0.4-0.4-1-0.4-1.7v-4.4h-1.2v-0.6h1.2v-1.3L189.8,231.8z"/>
				<path class="st2" d="M193.3,236.8c0,2.2,1.2,3.1,2.7,3.1c1,0,1.5-0.2,1.9-0.4l0.2,0.5c-0.3,0.1-1,0.4-2.2,0.4
					c-2,0-3.2-1.4-3.2-3.5c0-2.3,1.3-3.8,3.1-3.8c2.3,0,2.7,2.1,2.7,3.1c0,0.2,0,0.3,0,0.4h-5.2V236.8z M197.8,236.2
					c0-1-0.4-2.4-2.1-2.4c-1.5,0-2.2,1.4-2.3,2.4H197.8z"/>
				<path class="st2" d="M206.1,239.3c0,1.8-0.4,2.7-1,3.2c-0.6,0.6-1.6,0.8-2.4,0.8c-0.8,0-1.7-0.2-2.2-0.6l0.2-0.6
					c0.5,0.3,1.2,0.6,2.1,0.6c1.5,0,2.5-0.8,2.5-2.8v-1l0,0c-0.4,0.7-1.2,1.3-2.4,1.3c-1.8,0-3-1.5-3-3.4c0-2.4,1.6-3.7,3.1-3.7
					c1.4,0,2.1,0.8,2.3,1.3l0,0v-1.2h0.6c0,0.5-0.1,1.1-0.1,1.8v4.3H206.1z M205.4,236.1c0-0.3,0-0.5-0.1-0.7
					c-0.3-0.8-1-1.6-2.2-1.6c-1.5,0-2.5,1.2-2.5,3c0,1.6,0.8,2.9,2.5,2.9c0.9,0,1.8-0.6,2.2-1.6c0.1-0.2,0.1-0.5,0.1-0.7V236.1z"/>
				<path class="st2" d="M208.4,233.4l1.8,4.6c0.2,0.5,0.4,1.1,0.5,1.5l0,0c0.1-0.4,0.3-1,0.5-1.5l1.7-4.5h0.7l-2.1,5.2
					c-0.8,2.2-1.4,3.5-2.3,4.2c-0.6,0.5-1,0.7-1.2,0.7l-0.2-0.6c0.3-0.1,0.8-0.4,1.2-0.8c0.3-0.3,0.8-0.9,1.2-1.8
					c0.1-0.1,0.1-0.2,0.1-0.3s0-0.2-0.1-0.3l-2.6-6.5h0.8V233.4z"/>
			</g>
		</g>
		<g>
			<g>
				<g>
					<path class="st0" d="M91.3,96c-2.9,0-5.3,2.4-5.3,5.3v64.5c0,2.9,2.4,5.3,5.3,5.3h296.9c2.9,0,5.3-2.4,5.3-5.3v-64.5
						c0-2.9-2.4-5.3-5.3-5.3H91.3z"/>
				</g>
				<g>
					<path class="st3" d="M128.3,147.1c10.8,0,19.6-8.8,19.6-19.6s-8.8-19.6-19.6-19.6s-19.6,8.8-19.6,19.6
						C108.7,138.3,117.5,147.1,128.3,147.1"/>
				</g>
			</g>
		</g>
		<g>
			<g>
				<path class="st2" d="M177.3,123.7c-0.1-1.5-0.2-3.3-0.2-4.3l0,0c-0.4,1.1-0.8,2.2-1.3,3.6l-2.1,5.3h-0.5l-1.9-5.2
					c-0.6-1.5-1-2.7-1.3-3.8l0,0c0,1.1-0.1,2.8-0.2,4.5l-0.3,4.5h-0.7l0.7-9.8h0.8l2.1,5.6c0.5,1.2,0.8,2.2,1.1,3.2l0,0
					c0.2-0.9,0.6-1.9,1.1-3.2l2.2-5.6h0.8l0.7,9.8h-0.7L177.3,123.7z"/>
				<path class="st2" d="M180.7,124.8c0,2.2,1.2,3.1,2.7,3.1c1,0,1.5-0.2,1.9-0.4l0.2,0.5c-0.3,0.1-1,0.4-2.2,0.4
					c-2,0-3.2-1.4-3.2-3.5c0-2.3,1.3-3.8,3.1-3.8c2.3,0,2.7,2.1,2.7,3.1c0,0.2,0,0.3,0,0.4h-5.2V124.8z M185.1,124.2
					c0-1-0.4-2.4-2.1-2.4c-1.5,0-2.2,1.4-2.3,2.4H185.1z"/>
				<path class="st2" d="M188.7,119.8v1.5h2v0.6h-2v4.5c0,0.9,0.3,1.4,1,1.4c0.4,0,0.6,0,0.8-0.1l0.1,0.5c-0.2,0.1-0.6,0.2-1,0.2
					c-0.5,0-0.9-0.2-1.2-0.5c-0.3-0.4-0.4-1-0.4-1.7v-4.4h-1.2v-0.6h1.2v-1.3L188.7,119.8z"/>
				<path class="st2" d="M192.3,123.5c0-0.7,0-1.4-0.1-2.1h0.6v1.4l0,0c0.3-0.9,1-1.6,2-1.6c0.1,0,0.2,0,0.3,0v0.7
					c-0.1,0-0.2,0-0.3,0c-1,0-1.6,0.8-1.8,1.9c0,0.2-0.1,0.4-0.1,0.7v3.8h-0.7v-4.8H192.3z"/>
				<path class="st2" d="M197.7,119.4c0,0.3-0.2,0.6-0.6,0.6c-0.3,0-0.5-0.3-0.5-0.6c0-0.3,0.2-0.6,0.6-0.6S197.7,119.1,197.7,119.4
					z M196.8,128.3v-7h0.7v7H196.8z"/>
				<path class="st2" d="M204.7,128c-0.3,0.1-1,0.4-2,0.4c-2,0-3.3-1.5-3.3-3.6c0-2.2,1.5-3.7,3.6-3.7c0.9,0,1.6,0.2,1.8,0.4
					l-0.2,0.6c-0.3-0.2-0.9-0.4-1.6-0.4c-1.9,0-2.8,1.4-2.8,3.1c0,1.8,1.1,3,2.8,3c0.8,0,1.4-0.2,1.7-0.4V128z"/>
				<path class="st2" d="M206.4,127.4c0.4,0.2,0.9,0.5,1.6,0.5c1.1,0,1.6-0.6,1.6-1.3c0-0.8-0.5-1.2-1.5-1.6
					c-1.1-0.4-1.8-1.1-1.8-1.9c0-1,0.8-1.9,2.1-1.9c0.6,0,1.2,0.2,1.5,0.4l-0.3,0.6c-0.2-0.2-0.7-0.4-1.4-0.4
					c-0.9,0-1.3,0.6-1.3,1.2c0,0.7,0.5,1,1.4,1.4c1.1,0.4,1.8,1,1.8,2.1c0,1.2-0.9,2-2.3,2c-0.7,0-1.3-0.2-1.8-0.5L206.4,127.4z"/>
				<path class="st2" d="M220.1,126.7c0,0.6,0,1.1,0.1,1.7h-0.6l-0.1-1l0,0c-0.3,0.5-1.1,1.2-2.2,1.2c-1.4,0-2-1-2-1.9
					c0-1.6,1.4-2.6,4.2-2.6v-0.2c0-0.7-0.1-2.1-1.8-2c-0.6,0-1.2,0.2-1.8,0.5l-0.2-0.5c0.6-0.4,1.4-0.6,2-0.6c2,0,2.4,1.5,2.4,2.7
					L220.1,126.7L220.1,126.7z M219.4,124.6c-1.5,0-3.5,0.2-3.5,1.9c0,1,0.7,1.5,1.4,1.5c1.2,0,1.8-0.7,2.1-1.4
					c0.1-0.1,0.1-0.3,0.1-0.4v-1.6H219.4z"/>
				<path class="st2" d="M222.5,123c0-0.6,0-1.1-0.1-1.7h0.7v1.3l0,0c0.4-0.8,1.3-1.4,2.4-1.4c0.7,0,2.4,0.3,2.4,2.9v4.2h-0.7v-4.1
					c0-1.3-0.5-2.4-1.9-2.4c-1,0-1.8,0.7-2.1,1.6c0,0.2-0.1,0.4-0.1,0.6v4.3h-0.7V123H222.5z"/>
				<path class="st2" d="M235.9,118v8.7c0,0.5,0,1.1,0.1,1.6h-0.6l-0.1-1.3l0,0c-0.4,0.8-1.2,1.5-2.5,1.5c-1.7,0-3-1.4-3-3.5
					c0-2.3,1.4-3.8,3.1-3.8c1.2,0,2,0.6,2.3,1.2l0,0V118H235.9z M235.2,124.1c0-0.2,0-0.4-0.1-0.6c-0.2-0.9-1.1-1.7-2.2-1.7
					c-1.5,0-2.5,1.3-2.5,3.1c0,1.6,0.8,3,2.4,3c1,0,1.9-0.7,2.2-1.8c0.1-0.2,0.1-0.4,0.1-0.6v-1.4H235.2z"/>
			</g>
		</g>
		<g>
			<g>
				<path class="st2" d="M170,139.4c0,0.3-0.2,0.6-0.6,0.6c-0.3,0-0.5-0.3-0.5-0.6s0.2-0.6,0.6-0.6S170,139.1,170,139.4z
					 M169.1,148.3v-7h0.7v7H169.1z"/>
				<path class="st2" d="M172.2,143c0-0.6,0-1.1-0.1-1.7h0.7v1.3l0,0c0.4-0.8,1.3-1.4,2.4-1.4c0.7,0,2.4,0.3,2.4,2.9v4.2H177v-4.1
					c0-1.3-0.5-2.4-1.9-2.4c-1,0-1.8,0.7-2.1,1.6c0,0.2-0.1,0.4-0.1,0.6v4.3h-0.7V143z"/>
				<path class="st2" d="M185.6,138v8.7c0,0.5,0,1.1,0.1,1.6h-0.6L185,147l0,0c-0.4,0.8-1.2,1.5-2.5,1.5c-1.7,0-3-1.4-3-3.5
					c0-2.3,1.4-3.8,3.1-3.8c1.2,0,2,0.6,2.3,1.2l0,0V138H185.6z M185,144.1c0-0.2,0-0.4-0.1-0.6c-0.2-0.9-1.1-1.7-2.2-1.7
					c-1.5,0-2.5,1.3-2.5,3.1c0,1.6,0.8,3,2.4,3c1,0,1.9-0.7,2.2-1.8c0.1-0.2,0.1-0.4,0.1-0.6v-1.4H185z"/>
				<path class="st2" d="M188.9,139.4c0,0.3-0.2,0.6-0.6,0.6c-0.3,0-0.5-0.3-0.5-0.6s0.2-0.6,0.6-0.6S188.9,139.1,188.9,139.4z
					 M188,148.3v-7h0.7v7H188z"/>
				<path class="st2" d="M196,148c-0.3,0.1-1,0.4-2,0.4c-2,0-3.3-1.5-3.3-3.6c0-2.2,1.5-3.7,3.6-3.7c0.9,0,1.6,0.2,1.8,0.4l-0.2,0.6
					c-0.3-0.2-0.9-0.4-1.6-0.4c-1.9,0-2.8,1.4-2.8,3.1c0,1.8,1.1,3,2.8,3c0.8,0,1.4-0.2,1.7-0.4V148z"/>
				<path class="st2" d="M202.2,146.7c0,0.6,0,1.1,0.1,1.7h-0.6l-0.1-1l0,0c-0.3,0.5-1.1,1.2-2.2,1.2c-1.4,0-2-1-2-1.9
					c0-1.6,1.4-2.6,4.2-2.6v-0.2c0-0.7-0.1-2.1-1.8-2c-0.6,0-1.2,0.2-1.8,0.5l-0.2-0.5c0.6-0.4,1.4-0.6,2-0.6c2,0,2.4,1.5,2.4,2.7
					L202.2,146.7L202.2,146.7z M201.5,144.6c-1.5,0-3.5,0.2-3.5,1.9c0,1,0.7,1.5,1.4,1.5c1.2,0,1.8-0.7,2.1-1.4
					c0.1-0.1,0.1-0.3,0.1-0.4v-1.6H201.5z"/>
				<path class="st2" d="M205.4,139.8v1.5h2v0.6h-2v4.5c0,0.9,0.3,1.4,1,1.4c0.4,0,0.6,0,0.8-0.1l0.1,0.5c-0.2,0.1-0.6,0.2-1,0.2
					c-0.5,0-0.9-0.2-1.2-0.5c-0.3-0.4-0.4-1-0.4-1.7v-4.4h-1.2v-0.6h1.2v-1.3L205.4,139.8z"/>
				<path class="st2" d="M214.7,144.8c0,2.6-1.8,3.7-3.3,3.7c-1.8,0-3.2-1.4-3.2-3.6c0-2.4,1.6-3.7,3.3-3.7
					C213.4,141.2,214.7,142.7,214.7,144.8z M208.9,144.9c0,1.7,1.1,3,2.5,3s2.6-1.3,2.6-3.1c0-1.3-0.7-3-2.6-3
					C209.7,141.8,208.9,143.4,208.9,144.9z"/>
				<path class="st2" d="M216.6,143.5c0-0.7,0-1.4-0.1-2.1h0.6v1.4l0,0c0.3-0.9,1-1.6,2-1.6c0.1,0,0.2,0,0.3,0v0.7
					c-0.1,0-0.2,0-0.3,0c-1,0-1.6,0.8-1.8,1.9c0,0.2-0.1,0.4-0.1,0.7v3.8h-0.7v-4.8H216.6z"/>
				<path class="st2" d="M220.8,147.4c0.4,0.2,0.9,0.5,1.6,0.5c1.1,0,1.6-0.6,1.6-1.3c0-0.8-0.5-1.2-1.5-1.6
					c-1.1-0.4-1.8-1.1-1.8-1.9c0-1,0.8-1.9,2.1-1.9c0.6,0,1.2,0.2,1.5,0.4l-0.3,0.6c-0.2-0.2-0.7-0.4-1.4-0.4
					c-0.9,0-1.3,0.6-1.3,1.2c0,0.7,0.5,1,1.4,1.4c1.1,0.4,1.8,1,1.8,2.1c0,1.2-0.9,2-2.3,2c-0.7,0-1.3-0.2-1.8-0.5L220.8,147.4z"/>
			</g>
		</g>
		<g>
			<g>
				<g>
					<path class="st0" d="M91.3,280c-2.9,0-5.3,2.4-5.3,5.3v64.5c0,2.9,2.4,5.3,5.3,5.3h296.9c2.9,0,5.3-2.4,5.3-5.3v-64.5
						c0-2.9-2.4-5.3-5.3-5.3H91.3z"/>
				</g>
				<g>
					<path class="st4" d="M128.3,331.1c10.8,0,19.6-8.8,19.6-19.6c0-10.8-8.8-19.6-19.6-19.6s-19.6,8.8-19.6,19.6
						C108.7,322.3,117.5,331.1,128.3,331.1"/>
				</g>
			</g>
		</g>
		<g>
			<g>
				<path class="st2" d="M169.1,302.7c0.6-0.1,1.4-0.2,2.1-0.2c1.3,0,2.1,0.3,2.6,0.8c0.4,0.4,0.7,1,0.7,1.7c0,1.3-0.8,2.2-1.9,2.6
					l0,0c0.8,0.2,1.3,1,1.5,2.1c0.3,1.5,0.5,2.2,0.7,2.6h-0.7c-0.2-0.3-0.4-1.1-0.6-2.4c-0.3-1.4-0.9-2-2.2-2.1h-1.5v4.5h-0.7
					L169.1,302.7L169.1,302.7z M169.8,307.3h1.6c1.5,0,2.5-0.8,2.5-2.1c0-1.5-1.1-2.1-2.6-2.1c-0.7,0-1.2,0.1-1.4,0.1v4.1H169.8z"/>
				<path class="st2" d="M176.7,308.8c0,2.2,1.2,3.1,2.7,3.1c1,0,1.5-0.2,1.9-0.4l0.2,0.5c-0.3,0.1-1,0.4-2.2,0.4
					c-2,0-3.2-1.4-3.2-3.5c0-2.3,1.3-3.8,3.1-3.8c2.3,0,2.7,2.1,2.7,3.1c0,0.2,0,0.3,0,0.4h-5.2V308.8z M181.1,308.2
					c0-1-0.4-2.4-2.1-2.4c-1.5,0-2.2,1.4-2.3,2.4H181.1z"/>
				<path class="st2" d="M183.7,307.6c0-0.9,0-1.6-0.1-2.2h0.7v1.3l0,0c0.5-0.9,1.4-1.5,2.6-1.5c1.8,0,3,1.5,3,3.5
					c0,2.5-1.5,3.8-3.2,3.8c-1,0-1.9-0.4-2.4-1.3l0,0v4h-0.7L183.7,307.6L183.7,307.6z M184.4,309.6c0,0.2,0,0.4,0.1,0.6
					c0.3,1.1,1.2,1.8,2.3,1.8c1.6,0,2.5-1.3,2.5-3.1c0-1.6-0.9-3-2.4-3c-1,0-2,0.7-2.3,1.8c0,0.2-0.1,0.4-0.1,0.6v1.3H184.4z"/>
				<path class="st2" d="M197.9,308.8c0,2.6-1.8,3.7-3.3,3.7c-1.8,0-3.2-1.4-3.2-3.6c0-2.4,1.6-3.7,3.3-3.7
					C196.6,305.2,197.9,306.7,197.9,308.8z M192.1,308.9c0,1.7,1.1,3,2.5,3s2.6-1.3,2.6-3.1c0-1.3-0.7-3-2.6-3
					C192.9,305.8,192.1,307.4,192.1,308.9z"/>
				<path class="st2" d="M199.9,307.5c0-0.7,0-1.4-0.1-2.1h0.6v1.4l0,0c0.3-0.9,1-1.6,2-1.6c0.1,0,0.2,0,0.3,0v0.7
					c-0.1,0-0.2,0-0.3,0c-1,0-1.6,0.8-1.8,1.9c0,0.2-0.1,0.4-0.1,0.7v3.8h-0.7v-4.8H199.9z"/>
				<path class="st2" d="M205.7,303.8v1.5h2v0.6h-2v4.5c0,0.9,0.3,1.4,1,1.4c0.4,0,0.6,0,0.8-0.1l0.1,0.5c-0.2,0.1-0.6,0.2-1,0.2
					c-0.5,0-0.9-0.2-1.2-0.5c-0.3-0.4-0.4-1-0.4-1.7v-4.4h-1.2v-0.6h1.2v-1.3L205.7,303.8z"/>
				<path class="st2" d="M210.2,303.4c0,0.3-0.2,0.6-0.6,0.6c-0.3,0-0.5-0.3-0.5-0.6c0-0.3,0.2-0.6,0.6-0.6
					C210,302.8,210.2,303.1,210.2,303.4z M209.3,312.3v-7h0.7v7H209.3z"/>
				<path class="st2" d="M212.4,307c0-0.6,0-1.1-0.1-1.7h0.7v1.3l0,0c0.4-0.8,1.3-1.4,2.4-1.4c0.7,0,2.4,0.3,2.4,2.9v4.2h-0.7v-4.1
					c0-1.3-0.5-2.4-1.9-2.4c-1,0-1.8,0.7-2.1,1.6c0,0.2-0.1,0.4-0.1,0.6v4.3h-0.7V307H212.4z"/>
				<path class="st2" d="M225.9,311.3c0,1.8-0.4,2.7-1,3.2c-0.6,0.6-1.6,0.8-2.4,0.8c-0.8,0-1.7-0.2-2.2-0.6l0.2-0.6
					c0.5,0.3,1.2,0.6,2.1,0.6c1.5,0,2.5-0.8,2.5-2.8v-1l0,0c-0.4,0.7-1.2,1.3-2.4,1.3c-1.8,0-3-1.5-3-3.4c0-2.4,1.6-3.7,3.1-3.7
					c1.4,0,2.1,0.8,2.3,1.3l0,0v-1.2h0.6c0,0.5-0.1,1.1-0.1,1.8v4.3H225.9z M225.2,308.1c0-0.3,0-0.5-0.1-0.7
					c-0.3-0.8-1-1.6-2.2-1.6c-1.5,0-2.5,1.2-2.5,3c0,1.6,0.8,2.9,2.5,2.9c0.9,0,1.8-0.6,2.2-1.6c0.1-0.2,0.1-0.5,0.1-0.7V308.1z"/>
				<path class="st2" d="M227.5,314.2c0.2-0.6,0.6-2.2,0.8-3.1l0.9-0.1c-0.3,1.1-0.9,2.7-1.1,3.1L227.5,314.2z"/>
				<path class="st2" d="M240.1,302v8.7c0,0.5,0,1.1,0.1,1.6h-0.6l-0.1-1.3l0,0c-0.4,0.8-1.2,1.5-2.5,1.5c-1.7,0-3-1.4-3-3.5
					c0-2.3,1.4-3.8,3.1-3.8c1.2,0,2,0.6,2.3,1.2l0,0V302H240.1z M239.4,308.1c0-0.2,0-0.4-0.1-0.6c-0.2-0.9-1.1-1.7-2.2-1.7
					c-1.5,0-2.5,1.3-2.5,3.1c0,1.6,0.8,3,2.4,3c1,0,1.9-0.7,2.2-1.8c0.1-0.2,0.1-0.4,0.1-0.6v-1.4H239.4z"/>
				<path class="st2" d="M243.4,303.4c0,0.3-0.2,0.6-0.6,0.6c-0.3,0-0.5-0.3-0.5-0.6c0-0.3,0.2-0.6,0.6-0.6
					C243.2,302.8,243.4,303.1,243.4,303.4z M242.5,312.3v-7h0.7v7H242.5z"/>
				<path class="st2" d="M249.9,310.7c0,0.6,0,1.1,0.1,1.7h-0.6l-0.1-1l0,0c-0.3,0.5-1.1,1.2-2.2,1.2c-1.4,0-2-1-2-1.9
					c0-1.6,1.4-2.6,4.2-2.6v-0.2c0-0.7-0.1-2.1-1.8-2c-0.6,0-1.2,0.2-1.8,0.5l-0.2-0.5c0.6-0.4,1.4-0.6,2-0.6c2,0,2.4,1.5,2.4,2.7
					L249.9,310.7L249.9,310.7z M249.2,308.6c-1.5,0-3.5,0.2-3.5,1.9c0,1,0.7,1.5,1.4,1.5c1.2,0,1.8-0.7,2.1-1.4
					c0.1-0.1,0.1-0.3,0.1-0.4v-1.6H249.2z"/>
				<path class="st2" d="M252.2,302h0.7v10.3h-0.7V302z"/>
				<path class="st2" d="M261.4,308.8c0,2.6-1.8,3.7-3.3,3.7c-1.8,0-3.2-1.4-3.2-3.6c0-2.4,1.6-3.7,3.3-3.7
					C260.1,305.2,261.4,306.7,261.4,308.8z M255.6,308.9c0,1.7,1.1,3,2.5,3s2.6-1.3,2.6-3.1c0-1.3-0.7-3-2.6-3
					C256.4,305.8,255.6,307.4,255.6,308.9z"/>
				<path class="st2" d="M269,311.3c0,1.8-0.4,2.7-1,3.2c-0.6,0.6-1.6,0.8-2.4,0.8s-1.7-0.2-2.2-0.6l0.2-0.6
					c0.5,0.3,1.2,0.6,2.1,0.6c1.5,0,2.5-0.8,2.5-2.8v-1l0,0c-0.4,0.7-1.2,1.3-2.4,1.3c-1.8,0-3-1.5-3-3.4c0-2.4,1.6-3.7,3.1-3.7
					c1.4,0,2.1,0.8,2.3,1.3l0,0v-1.2h0.6c0,0.5-0.1,1.1-0.1,1.8v4.3H269z M268.3,308.1c0-0.3,0-0.5-0.1-0.7c-0.3-0.8-1-1.6-2.2-1.6
					c-1.5,0-2.5,1.2-2.5,3c0,1.6,0.8,2.9,2.5,2.9c0.9,0,1.8-0.6,2.2-1.6c0.1-0.2,0.1-0.5,0.1-0.7V308.1z"/>
				<path class="st2" d="M276.7,310.6c0,0.6,0,1.2,0.1,1.7h-0.7v-1.2l0,0c-0.3,0.7-1.1,1.4-2.4,1.4c-0.9,0-2.4-0.4-2.4-3.1v-4h0.7
					v3.9c0,1.5,0.5,2.6,1.8,2.6c1,0,1.8-0.7,2.1-1.4c0.1-0.2,0.1-0.5,0.1-0.8v-4.3h0.7L276.7,310.6L276.7,310.6z"/>
				<path class="st2" d="M279.3,308.8c0,2.2,1.2,3.1,2.7,3.1c1,0,1.5-0.2,1.9-0.4l0.2,0.5c-0.3,0.1-1,0.4-2.2,0.4
					c-2,0-3.2-1.4-3.2-3.5c0-2.3,1.3-3.8,3.1-3.8c2.3,0,2.7,2.1,2.7,3.1c0,0.2,0,0.3,0,0.4h-5.2V308.8z M283.8,308.2
					c0-1-0.4-2.4-2.1-2.4c-1.5,0-2.2,1.4-2.3,2.4H283.8z"/>
			</g>
		</g>
		<g>
			<g>
				<path class="st2" d="M173.4,330.7c0,0.6,0,1.1,0.1,1.7h-0.6l-0.1-1l0,0c-0.3,0.5-1.1,1.2-2.2,1.2c-1.4,0-2-1-2-1.9
					c0-1.6,1.4-2.6,4.2-2.6v-0.2c0-0.7-0.1-2.1-1.8-2c-0.6,0-1.2,0.2-1.8,0.5l-0.2-0.5c0.6-0.4,1.4-0.6,2-0.6c2,0,2.4,1.5,2.4,2.7
					L173.4,330.7L173.4,330.7z M172.7,328.6c-1.5,0-3.5,0.2-3.5,1.9c0,1,0.7,1.5,1.4,1.5c1.2,0,1.8-0.7,2.1-1.4
					c0.1-0.1,0.1-0.3,0.1-0.4v-1.6H172.7z"/>
				<path class="st2" d="M175.7,327c0-0.6,0-1.1-0.1-1.7h0.7v1.3l0,0c0.4-0.8,1.3-1.4,2.4-1.4c0.7,0,2.4,0.3,2.4,2.9v4.2h-0.7v-4.1
					c0-1.3-0.5-2.4-1.9-2.4c-1,0-1.8,0.7-2.1,1.6c0,0.2-0.1,0.4-0.1,0.6v4.3h-0.7V327H175.7z"/>
				<path class="st2" d="M189.2,322v8.7c0,0.5,0,1.1,0.1,1.6h-0.6l-0.1-1.3l0,0c-0.4,0.8-1.2,1.5-2.5,1.5c-1.7,0-3-1.4-3-3.5
					c0-2.3,1.4-3.8,3.1-3.8c1.2,0,2,0.6,2.3,1.2l0,0V322H189.2z M188.5,328.1c0-0.2,0-0.4-0.1-0.6c-0.2-0.9-1.1-1.7-2.2-1.7
					c-1.5,0-2.5,1.3-2.5,3.1c0,1.6,0.8,3,2.4,3c1,0,1.9-0.7,2.2-1.8c0.1-0.2,0.1-0.4,0.1-0.6v-1.4H188.5z"/>
				<path class="st2" d="M195.3,322h0.7v10.3h-0.7V322z"/>
				<path class="st2" d="M198.6,328.8c0,2.2,1.2,3.1,2.7,3.1c1,0,1.5-0.2,1.9-0.4l0.2,0.5c-0.3,0.1-1,0.4-2.2,0.4
					c-2,0-3.2-1.4-3.2-3.5c0-2.3,1.3-3.8,3.1-3.8c2.3,0,2.7,2.1,2.7,3.1c0,0.2,0,0.3,0,0.4h-5.2V328.8z M203.1,328.2
					c0-1-0.4-2.4-2.1-2.4c-1.5,0-2.2,1.4-2.3,2.4H203.1z"/>
				<path class="st2" d="M209.9,330.7c0,0.6,0,1.1,0.1,1.7h-0.6l-0.1-1l0,0c-0.3,0.5-1.1,1.2-2.2,1.2c-1.4,0-2-1-2-1.9
					c0-1.6,1.4-2.6,4.2-2.6v-0.2c0-0.7-0.1-2.1-1.8-2c-0.6,0-1.2,0.2-1.8,0.5l-0.2-0.5c0.6-0.4,1.4-0.6,2-0.6c2,0,2.4,1.5,2.4,2.7
					L209.9,330.7L209.9,330.7z M209.2,328.6c-1.5,0-3.5,0.2-3.5,1.9c0,1,0.7,1.5,1.4,1.5c1.2,0,1.8-0.7,2.1-1.4
					c0.1-0.1,0.1-0.3,0.1-0.4v-1.6H209.2z"/>
				<path class="st2" d="M212.2,327.5c0-0.7,0-1.4-0.1-2.1h0.6v1.4l0,0c0.3-0.9,1-1.6,2-1.6c0.1,0,0.2,0,0.3,0v0.7
					c-0.1,0-0.2,0-0.3,0c-1,0-1.6,0.8-1.8,1.9c0,0.2-0.1,0.4-0.1,0.7v3.8h-0.7v-4.8H212.2z"/>
				<path class="st2" d="M216.7,327c0-0.6,0-1.1-0.1-1.7h0.7v1.3l0,0c0.4-0.8,1.3-1.4,2.4-1.4c0.7,0,2.4,0.3,2.4,2.9v4.2h-0.7v-4.1
					c0-1.3-0.5-2.4-1.9-2.4c-1,0-1.8,0.7-2.1,1.6c0,0.2-0.1,0.4-0.1,0.6v4.3h-0.7V327H216.7z"/>
				<path class="st2" d="M225.4,323.4c0,0.3-0.2,0.6-0.6,0.6c-0.3,0-0.5-0.3-0.5-0.6c0-0.3,0.2-0.6,0.6-0.6
					C225.1,322.8,225.4,323.1,225.4,323.4z M224.5,332.3v-7h0.7v7H224.5z"/>
				<path class="st2" d="M227.5,327c0-0.6,0-1.1-0.1-1.7h0.7v1.3l0,0c0.4-0.8,1.3-1.4,2.4-1.4c0.7,0,2.4,0.3,2.4,2.9v4.2h-0.7v-4.1
					c0-1.3-0.5-2.4-1.9-2.4c-1,0-1.8,0.7-2.1,1.6c0,0.2-0.1,0.4-0.1,0.6v4.3h-0.7V327H227.5z"/>
				<path class="st2" d="M241,331.3c0,1.8-0.4,2.7-1,3.2c-0.6,0.6-1.6,0.8-2.4,0.8c-0.8,0-1.7-0.2-2.2-0.6l0.2-0.6
					c0.5,0.3,1.2,0.6,2.1,0.6c1.5,0,2.5-0.8,2.5-2.8v-1l0,0c-0.4,0.7-1.2,1.3-2.4,1.3c-1.8,0-3-1.5-3-3.4c0-2.4,1.6-3.7,3.1-3.7
					c1.4,0,2.1,0.8,2.3,1.3l0,0v-1.2h0.6c0,0.5-0.1,1.1-0.1,1.8v4.3H241z M240.3,328.1c0-0.3,0-0.5-0.1-0.7c-0.3-0.8-1-1.6-2.2-1.6
					c-1.5,0-2.5,1.2-2.5,3c0,1.6,0.8,2.9,2.5,2.9c0.9,0,1.8-0.6,2.2-1.6c0.1-0.2,0.1-0.5,0.1-0.7V328.1z"/>
			</g>
		</g>
		<g>
			<g>
				<g>
					<path class="st0" d="M9.4,4C6.5,4,4.2,6.4,4.2,9.3v64.5c0,2.9,2.4,5.3,5.3,5.3h296.9c2.9,0,5.3-2.4,5.3-5.3V9.3
						c0-2.9-2.4-5.3-5.3-5.3H9.4z"/>
				</g>
				<g>
					<path class="st5" d="M46.5,55.1c10.8,0,19.6-8.8,19.6-19.6s-8.8-19.6-19.6-19.6s-19.6,8.8-19.6,19.6S35.6,55.1,46.5,55.1"/>
				</g>
			</g>
		</g>
		<g>
			<g>
				<path class="st2" d="M92.8,32.2h-3.6v2.3h4v1.8H87v-9.8h6v1.8h-3.8v2h3.6C92.8,30.3,92.8,32.2,92.8,32.2z"/>
				<path class="st2" d="M95.1,34.1c0.6,0.3,1.5,0.6,2.4,0.6c1,0,1.6-0.4,1.6-1.1c0-0.6-0.5-1-1.6-1.4c-1.6-0.6-2.7-1.5-2.7-2.9
					c0-1.7,1.4-2.9,3.7-2.9c1.1,0,1.9,0.2,2.5,0.5l-0.5,1.8c-0.4-0.2-1.1-0.5-2-0.5s-1.5,0.5-1.5,1c0,0.6,0.6,0.9,1.8,1.4
					c1.7,0.6,2.5,1.5,2.5,2.9c0,1.6-1.3,3-3.9,3c-1.1,0-2.2-0.3-2.8-0.6L95.1,34.1z"/>
				<path class="st2" d="M111.1,35.9c-0.7,0.2-2,0.6-3.3,0.6c-1.8,0-3.1-0.4-4-1.3c-0.9-0.8-1.4-2.1-1.4-3.6c0-3.2,2.4-5.1,5.6-5.1
					c1.3,0,2.2,0.2,2.7,0.5l-0.5,1.8c-0.5-0.2-1.2-0.4-2.3-0.4c-1.8,0-3.2,1-3.2,3.2c0,2,1.3,3.2,3.1,3.2c0.5,0,0.9-0.1,1.1-0.1v-2
					h-1.5V31h3.6v4.9H111.1z"/>
			</g>
		</g>
		<g>
			<g>
				<path class="st2" d="M116.8,31.6c0-0.9,0-1.6-0.1-2.2h0.7v1.3l0,0c0.5-0.9,1.4-1.5,2.6-1.5c1.8,0,3,1.5,3,3.5
					c0,2.5-1.5,3.8-3.2,3.8c-1,0-1.9-0.4-2.4-1.3l0,0v4h-0.7L116.8,31.6L116.8,31.6z M117.5,33.6c0,0.2,0,0.4,0.1,0.6
					c0.3,1.1,1.2,1.8,2.3,1.8c1.6,0,2.5-1.3,2.5-3.1c0-1.6-0.9-3-2.4-3c-1,0-2,0.7-2.3,1.8c0,0.2-0.1,0.4-0.1,0.6L117.5,33.6
					L117.5,33.6z"/>
				<path class="st2" d="M125,31.5c0-0.7,0-1.4-0.1-2.1h0.6v1.4l0,0c0.3-0.9,1-1.6,2-1.6c0.1,0,0.2,0,0.3,0v0.7c-0.1,0-0.2,0-0.3,0
					c-1,0-1.6,0.8-1.8,1.9c0,0.2-0.1,0.4-0.1,0.7v3.8H125V31.5z"/>
				<path class="st2" d="M130.4,27.4c0,0.3-0.2,0.6-0.6,0.6c-0.3,0-0.5-0.3-0.5-0.6s0.2-0.6,0.6-0.6S130.4,27.1,130.4,27.4z
					 M129.5,36.3v-7h0.7v7H129.5z"/>
				<path class="st2" d="M138.5,32.8c0,2.6-1.8,3.7-3.3,3.7c-1.8,0-3.2-1.4-3.2-3.6c0-2.4,1.6-3.7,3.3-3.7
					C137.2,29.2,138.5,30.7,138.5,32.8z M132.7,32.9c0,1.7,1.1,3,2.5,3s2.6-1.3,2.6-3.1c0-1.3-0.7-3-2.6-3
					C133.5,29.8,132.7,31.4,132.7,32.9z"/>
				<path class="st2" d="M140.5,31.5c0-0.7,0-1.4-0.1-2.1h0.6v1.4l0,0c0.3-0.9,1-1.6,2-1.6c0.1,0,0.2,0,0.3,0v0.7
					c-0.1,0-0.2,0-0.3,0c-1,0-1.6,0.8-1.8,1.9c0,0.2-0.1,0.4-0.1,0.7v3.8h-0.7v-4.8H140.5z"/>
				<path class="st2" d="M145.8,27.4c0,0.3-0.2,0.6-0.6,0.6c-0.3,0-0.5-0.3-0.5-0.6s0.2-0.6,0.6-0.6S145.8,27.1,145.8,27.4z
					 M144.9,36.3v-7h0.7v7H144.9z"/>
				<path class="st2" d="M149,27.8v1.5h2v0.6h-2v4.5c0,0.9,0.3,1.4,1,1.4c0.4,0,0.6,0,0.8-0.1l0.1,0.5c-0.2,0.1-0.6,0.2-1,0.2
					c-0.5,0-0.9-0.2-1.2-0.5c-0.3-0.4-0.4-1-0.4-1.7v-4.4h-1.2v-0.6h1.2v-1.3L149,27.8z"/>
				<path class="st2" d="M153.5,27.4c0,0.3-0.2,0.6-0.6,0.6c-0.3,0-0.5-0.3-0.5-0.6s0.2-0.6,0.6-0.6S153.5,27.1,153.5,27.4z
					 M152.6,36.3v-7h0.7v7H152.6z"/>
				<path class="st2" d="M155.9,32.8c0,2.2,1.2,3.1,2.7,3.1c1,0,1.5-0.2,1.9-0.4l0.2,0.5c-0.3,0.1-1,0.4-2.2,0.4
					c-2,0-3.2-1.4-3.2-3.5c0-2.3,1.3-3.8,3.1-3.8c2.3,0,2.7,2.1,2.7,3.1c0,0.2,0,0.3,0,0.4h-5.2V32.8z M160.3,32.2
					c0-1-0.4-2.4-2.1-2.4c-1.5,0-2.2,1.4-2.3,2.4H160.3z"/>
				<path class="st2" d="M162.7,35.4c0.4,0.2,0.9,0.5,1.6,0.5c1.1,0,1.6-0.6,1.6-1.3c0-0.8-0.5-1.2-1.5-1.6
					c-1.1-0.4-1.8-1.1-1.8-1.9c0-1,0.8-1.9,2.1-1.9c0.6,0,1.2,0.2,1.5,0.4l-0.3,0.6c-0.2-0.2-0.7-0.4-1.4-0.4
					c-0.9,0-1.3,0.6-1.3,1.2c0,0.7,0.5,1,1.4,1.4c1.1,0.4,1.8,1,1.8,2.1c0,1.2-0.9,2-2.3,2c-0.7,0-1.3-0.2-1.8-0.5L162.7,35.4z"/>
				<path class="st2" d="M167.7,38.2c0.2-0.6,0.6-2.2,0.8-3.1l0.9-0.1c-0.3,1.1-0.9,2.7-1.1,3.1L167.7,38.2z"/>
			</g>
		</g>
		<g>
			<g>
				<path class="st2" d="M92,56c-0.3,0.1-1,0.4-2,0.4c-2,0-3.3-1.5-3.3-3.6c0-2.2,1.5-3.7,3.6-3.7c0.9,0,1.6,0.2,1.8,0.4l-0.2,0.6
					c-0.3-0.2-0.9-0.4-1.6-0.4c-1.9,0-2.8,1.4-2.8,3.1c0,1.8,1.1,3,2.8,3c0.8,0,1.4-0.2,1.7-0.4V56z"/>
				<path class="st2" d="M99.5,52.8c0,2.6-1.8,3.7-3.3,3.7c-1.8,0-3.2-1.4-3.2-3.6c0-2.4,1.6-3.7,3.3-3.7
					C98.2,49.2,99.5,50.7,99.5,52.8z M93.7,52.9c0,1.7,1.1,3,2.5,3s2.6-1.3,2.6-3.1c0-1.3-0.7-3-2.6-3
					C94.5,49.8,93.7,51.4,93.7,52.9z"/>
				<path class="st2" d="M101.4,51c0-0.6,0-1.1-0.1-1.7h0.7v1.2l0,0c0.4-0.8,1.1-1.4,2.3-1.4c1,0,1.7,0.6,2,1.5l0,0
					c0.2-0.4,0.4-0.7,0.7-0.9c0.4-0.4,0.9-0.6,1.7-0.6c0.7,0,2.3,0.4,2.3,3v4.1h-0.7v-4c0-1.6-0.6-2.5-1.8-2.5
					c-0.9,0-1.6,0.6-1.8,1.4c-0.1,0.2-0.1,0.4-0.1,0.7v4.5h-0.7V52c0-1.3-0.6-2.2-1.7-2.2c-0.9,0-1.7,0.8-1.9,1.6
					c-0.1,0.2-0.1,0.4-0.1,0.7v4.3h-0.7V51H101.4z"/>
				<path class="st2" d="M113.4,51c0-0.6,0-1.1-0.1-1.7h0.7v1.2l0,0c0.4-0.8,1.1-1.4,2.3-1.4c1,0,1.7,0.6,2,1.5l0,0
					c0.2-0.4,0.4-0.7,0.7-0.9c0.4-0.4,0.9-0.6,1.7-0.6c0.7,0,2.3,0.4,2.3,3v4.1h-0.7v-4c0-1.6-0.6-2.5-1.8-2.5
					c-0.9,0-1.6,0.6-1.8,1.4c-0.1,0.2-0.1,0.4-0.1,0.7v4.5h-0.7V52c0-1.3-0.6-2.2-1.7-2.2c-0.9,0-1.7,0.8-1.9,1.6
					c-0.1,0.2-0.1,0.4-0.1,0.7v4.3h-0.7V51H113.4z"/>
				<path class="st2" d="M126.2,47.4c0,0.3-0.2,0.6-0.6,0.6c-0.3,0-0.5-0.3-0.5-0.6s0.2-0.6,0.6-0.6S126.2,47.1,126.2,47.4z
					 M125.3,56.3v-7h0.7v7H125.3z"/>
				<path class="st2" d="M129.4,47.8v1.5h2v0.6h-2v4.5c0,0.9,0.3,1.4,1,1.4c0.4,0,0.6,0,0.8-0.1l0.1,0.5c-0.2,0.1-0.6,0.2-1,0.2
					c-0.5,0-0.9-0.2-1.2-0.5c-0.3-0.4-0.4-1-0.4-1.7v-4.4h-1.2v-0.6h1.2v-1.3L129.4,47.8z"/>
				<path class="st2" d="M133.1,51c0-0.6,0-1.1-0.1-1.7h0.7v1.2l0,0c0.4-0.8,1.1-1.4,2.3-1.4c1,0,1.7,0.6,2,1.5l0,0
					c0.2-0.4,0.4-0.7,0.7-0.9c0.4-0.4,0.9-0.6,1.7-0.6c0.7,0,2.3,0.4,2.3,3v4.1H142v-4c0-1.6-0.6-2.5-1.8-2.5
					c-0.9,0-1.6,0.6-1.8,1.4c-0.1,0.2-0.1,0.4-0.1,0.7v4.5h-0.7V52c0-1.3-0.6-2.2-1.7-2.2c-0.9,0-1.7,0.8-1.9,1.6
					c-0.1,0.2-0.1,0.4-0.1,0.7v4.3h-0.7L133.1,51L133.1,51z"/>
				<path class="st2" d="M145.3,52.8c0,2.2,1.2,3.1,2.7,3.1c1,0,1.5-0.2,1.9-0.4L150,56c-0.3,0.1-1,0.4-2.2,0.4
					c-2,0-3.2-1.4-3.2-3.5c0-2.3,1.3-3.8,3.1-3.8c2.3,0,2.7,2.1,2.7,3.1c0,0.2,0,0.3,0,0.4h-5.1V52.8z M149.7,52.2
					c0-1-0.4-2.4-2.1-2.4c-1.5,0-2.2,1.4-2.3,2.4H149.7z"/>
				<path class="st2" d="M152.3,51c0-0.6,0-1.1-0.1-1.7h0.7v1.3l0,0c0.4-0.8,1.3-1.4,2.4-1.4c0.7,0,2.4,0.3,2.4,2.9v4.2H157v-4.1
					c0-1.3-0.5-2.4-1.9-2.4c-1,0-1.8,0.7-2.1,1.6c0,0.2-0.1,0.4-0.1,0.6v4.3h-0.7V51H152.3z"/>
				<path class="st2" d="M160.9,47.8v1.5h2v0.6h-2v4.5c0,0.9,0.3,1.4,1,1.4c0.4,0,0.6,0,0.8-0.1l0.1,0.5c-0.2,0.1-0.6,0.2-1,0.2
					c-0.5,0-0.9-0.2-1.2-0.5c-0.3-0.4-0.4-1-0.4-1.7v-4.4H159v-0.6h1.2v-1.3L160.9,47.8z"/>
				<path class="st2" d="M164.5,55.4c0.4,0.2,0.9,0.5,1.6,0.5c1.1,0,1.6-0.6,1.6-1.3c0-0.8-0.5-1.2-1.5-1.6
					c-1.1-0.4-1.8-1.1-1.8-1.9c0-1,0.8-1.9,2.1-1.9c0.6,0,1.2,0.2,1.5,0.4l-0.3,0.6c-0.2-0.2-0.7-0.4-1.4-0.4
					c-0.9,0-1.3,0.6-1.3,1.2c0,0.7,0.5,1,1.4,1.4c1.1,0.4,1.8,1,1.8,2.1c0,1.2-0.9,2-2.3,2c-0.7,0-1.3-0.2-1.8-0.5L164.5,55.4z"/>
				<path class="st2" d="M178.2,54.7c0,0.6,0,1.1,0.1,1.7h-0.6l-0.1-1l0,0c-0.3,0.5-1.1,1.2-2.2,1.2c-1.4,0-2-1-2-1.9
					c0-1.6,1.4-2.6,4.2-2.6v-0.2c0-0.7-0.1-2.1-1.8-2c-0.6,0-1.2,0.2-1.8,0.5l-0.2-0.5c0.6-0.4,1.4-0.6,2-0.6c2,0,2.4,1.5,2.4,2.7
					L178.2,54.7L178.2,54.7z M177.5,52.6c-1.5,0-3.5,0.2-3.5,1.9c0,1,0.7,1.5,1.4,1.5c1.2,0,1.8-0.7,2.1-1.4
					c0.1-0.1,0.1-0.3,0.1-0.4v-1.6H177.5z"/>
				<path class="st2" d="M180.6,51c0-0.6,0-1.1-0.1-1.7h0.7v1.3l0,0c0.4-0.8,1.3-1.4,2.4-1.4c0.7,0,2.4,0.3,2.4,2.9v4.2h-0.7v-4.1
					c0-1.3-0.5-2.4-1.9-2.4c-1,0-1.8,0.7-2.1,1.6c0,0.2-0.1,0.4-0.1,0.6v4.3h-0.7V51H180.6z"/>
				<path class="st2" d="M194,46v8.7c0,0.5,0,1.1,0.1,1.6h-0.6l-0.1-1.3l0,0c-0.4,0.8-1.2,1.5-2.5,1.5c-1.7,0-3-1.4-3-3.5
					c0-2.3,1.4-3.8,3.1-3.8c1.2,0,2,0.6,2.3,1.2l0,0V46H194z M193.3,52.1c0-0.2,0-0.4-0.1-0.6c-0.2-0.9-1.1-1.7-2.2-1.7
					c-1.5,0-2.5,1.3-2.5,3.1c0,1.6,0.8,3,2.4,3c1,0,1.9-0.7,2.2-1.8c0.1-0.2,0.1-0.4,0.1-0.6v-1.4H193.3z"/>
				<path class="st2" d="M201.1,47.8v1.5h2v0.6h-2v4.5c0,0.9,0.3,1.4,1,1.4c0.4,0,0.6,0,0.8-0.1l0.1,0.5c-0.2,0.1-0.6,0.2-1,0.2
					c-0.5,0-0.9-0.2-1.2-0.5c-0.3-0.4-0.4-1-0.4-1.7v-4.4h-1.2v-0.6h1.2v-1.3L201.1,47.8z"/>
				<path class="st2" d="M209.1,54.7c0,0.6,0,1.1,0.1,1.7h-0.6l-0.1-1l0,0c-0.3,0.5-1.1,1.2-2.2,1.2c-1.4,0-2-1-2-1.9
					c0-1.6,1.4-2.6,4.2-2.6v-0.2c0-0.7-0.1-2.1-1.8-2c-0.6,0-1.2,0.2-1.8,0.5l-0.2-0.5c0.6-0.4,1.4-0.6,2-0.6c2,0,2.4,1.5,2.4,2.7
					L209.1,54.7L209.1,54.7z M208.4,52.6c-1.5,0-3.5,0.2-3.5,1.9c0,1,0.7,1.5,1.4,1.5c1.2,0,1.8-0.7,2.1-1.4
					c0.1-0.1,0.1-0.3,0.1-0.4v-1.6H208.4z"/>
				<path class="st2" d="M211.4,51.5c0-0.7,0-1.4-0.1-2.1h0.6v1.4l0,0c0.3-0.9,1-1.6,2-1.6c0.1,0,0.2,0,0.3,0v0.7
					c-0.1,0-0.2,0-0.3,0c-1,0-1.6,0.8-1.8,1.9c0,0.2-0.1,0.4-0.1,0.7v3.8h-0.7v-4.8H211.4z"/>
				<path class="st2" d="M221.2,55.3c0,1.8-0.4,2.7-1,3.2c-0.6,0.6-1.6,0.8-2.4,0.8c-0.8,0-1.7-0.2-2.2-0.6l0.2-0.6
					c0.5,0.3,1.2,0.6,2.1,0.6c1.5,0,2.5-0.8,2.5-2.8v-1l0,0c-0.4,0.7-1.2,1.3-2.4,1.3c-1.8,0-3-1.5-3-3.4c0-2.4,1.6-3.7,3.1-3.7
					c1.4,0,2.1,0.8,2.3,1.3l0,0v-1.2h0.6c0,0.5-0.1,1.1-0.1,1.8v4.3H221.2z M220.5,52.1c0-0.3,0-0.5-0.1-0.7c-0.3-0.8-1-1.6-2.2-1.6
					c-1.5,0-2.5,1.2-2.5,3c0,1.6,0.8,2.9,2.5,2.9c0.9,0,1.8-0.6,2.2-1.6c0.1-0.2,0.1-0.5,0.1-0.7V52.1z"/>
				<path class="st2" d="M223.8,52.8c0,2.2,1.2,3.1,2.7,3.1c1,0,1.5-0.2,1.9-0.4l0.2,0.5c-0.3,0.1-1,0.4-2.2,0.4
					c-2,0-3.2-1.4-3.2-3.5c0-2.3,1.3-3.8,3.1-3.8c2.3,0,2.7,2.1,2.7,3.1c0,0.2,0,0.3,0,0.4h-5.2V52.8z M228.3,52.2
					c0-1-0.4-2.4-2.1-2.4c-1.5,0-2.2,1.4-2.3,2.4H228.3z"/>
				<path class="st2" d="M231.8,47.8v1.5h2v0.6h-2v4.5c0,0.9,0.3,1.4,1,1.4c0.4,0,0.6,0,0.8-0.1l0.1,0.5c-0.2,0.1-0.6,0.2-1,0.2
					c-0.5,0-0.9-0.2-1.2-0.5c-0.3-0.4-0.4-1-0.4-1.7v-4.4h-1.2v-0.6h1.2v-1.3L231.8,47.8z"/>
				<path class="st2" d="M235.3,55.4c0.4,0.2,0.9,0.5,1.6,0.5c1.1,0,1.6-0.6,1.6-1.3c0-0.8-0.5-1.2-1.5-1.6
					c-1.1-0.4-1.8-1.1-1.8-1.9c0-1,0.8-1.9,2.1-1.9c0.6,0,1.2,0.2,1.5,0.4l-0.3,0.6c-0.2-0.2-0.7-0.4-1.4-0.4
					c-0.9,0-1.3,0.6-1.3,1.2c0,0.7,0.5,1,1.4,1.4c1.1,0.4,1.8,1,1.8,2.1c0,1.2-0.9,2-2.3,2c-0.7,0-1.3-0.2-1.8-0.5L235.3,55.4z"/>
			</g>
		</g>
		<g>
			<g>
				<g>
					<path class="st0" d="M9.4,372c-2.9,0-5.3,2.4-5.3,5.3v64.5c0,2.9,2.4,5.3,5.3,5.3h296.9c2.9,0,5.3-2.4,5.3-5.3v-64.5
						c0-2.9-2.4-5.3-5.3-5.3H9.4z"/>
				</g>
				<g>
					<path class="st6" d="M46.5,423.1c10.8,0,19.6-8.8,19.6-19.6c0-10.8-8.8-19.6-19.6-19.6s-19.6,8.8-19.6,19.6
						C26.9,414.3,35.6,423.1,46.5,423.1"/>
				</g>
			</g>
		</g>
		<g>
			<g>
				<path class="st2" d="M87.2,394.7c0.6-0.1,1.3-0.2,2.1-0.2c1.2,0,2,0.3,2.6,0.8c0.5,0.4,0.8,1.1,0.8,1.9s-0.2,1.5-0.7,2
					c-0.6,0.7-1.7,1.1-2.9,1.1c-0.4,0-0.8,0-1.2-0.1v4.2h-0.7C87.2,404.4,87.2,394.7,87.2,394.7z M87.9,399.6
					c0.3,0.1,0.8,0.1,1.2,0.1c1.8,0,2.8-0.8,2.8-2.4c0-1.5-1.1-2.2-2.7-2.2c-0.6,0-1.1,0.1-1.4,0.1L87.9,399.6L87.9,399.6z"/>
				<path class="st2" d="M100.3,400.8c0,2.6-1.8,3.7-3.3,3.7c-1.8,0-3.2-1.4-3.2-3.6c0-2.4,1.6-3.7,3.3-3.7
					C99,397.2,100.3,398.7,100.3,400.8z M94.5,400.9c0,1.7,1.1,3,2.5,3s2.6-1.3,2.6-3.1c0-1.3-0.7-3-2.6-3
					C95.3,397.8,94.5,399.4,94.5,400.9z"/>
				<path class="st2" d="M102.2,394h0.7v10.3h-0.7V394z"/>
				<path class="st2" d="M106.2,395.4c0,0.3-0.2,0.6-0.6,0.6c-0.3,0-0.5-0.3-0.5-0.6c0-0.3,0.2-0.6,0.6-0.6S106.2,395.1,106.2,395.4
					z M105.3,404.3v-7h0.7v7H105.3z"/>
				<path class="st2" d="M113.3,404c-0.3,0.1-1,0.4-2,0.4c-2,0-3.3-1.5-3.3-3.6c0-2.2,1.5-3.7,3.6-3.7c0.9,0,1.6,0.2,1.8,0.4
					l-0.2,0.6c-0.3-0.2-0.9-0.4-1.6-0.4c-1.9,0-2.8,1.4-2.8,3.1c0,1.8,1.1,3,2.8,3c0.8,0,1.4-0.2,1.7-0.4V404z"/>
				<path class="st2" d="M115.9,395.4c0,0.3-0.2,0.6-0.6,0.6c-0.3,0-0.5-0.3-0.5-0.6c0-0.3,0.2-0.6,0.6-0.6S115.9,395.1,115.9,395.4
					z M115,404.3v-7h0.7v7H115z"/>
				<path class="st2" d="M118.2,400.8c0,2.2,1.2,3.1,2.7,3.1c1,0,1.5-0.2,1.9-0.4l0.2,0.5c-0.3,0.1-1,0.4-2.2,0.4
					c-2,0-3.2-1.4-3.2-3.5c0-2.3,1.3-3.8,3.1-3.8c2.3,0,2.7,2.1,2.7,3.1c0,0.2,0,0.3,0,0.4h-5.2V400.8z M122.7,400.2
					c0-1-0.4-2.4-2.1-2.4c-1.5,0-2.2,1.4-2.3,2.4H122.7z"/>
				<path class="st2" d="M125,403.4c0.4,0.2,0.9,0.5,1.6,0.5c1.1,0,1.6-0.6,1.6-1.3c0-0.8-0.5-1.2-1.5-1.6c-1.1-0.4-1.8-1.1-1.8-1.9
					c0-1,0.8-1.9,2.1-1.9c0.6,0,1.2,0.2,1.5,0.4l-0.3,0.6c-0.2-0.2-0.7-0.4-1.4-0.4c-0.9,0-1.3,0.6-1.3,1.2c0,0.7,0.5,1,1.4,1.4
					c1.1,0.4,1.8,1,1.8,2.1c0,1.2-0.9,2-2.3,2c-0.7,0-1.3-0.2-1.8-0.5L125,403.4z"/>
				<path class="st2" d="M130,406.2c0.2-0.6,0.6-2.2,0.8-3.1l0.9-0.1c-0.3,1.1-0.9,2.7-1.1,3.1L130,406.2z"/>
				<path class="st2" d="M137.1,399.6c0-0.9,0-1.6-0.1-2.2h0.7v1.3l0,0c0.5-0.9,1.4-1.5,2.6-1.5c1.8,0,3,1.5,3,3.5
					c0,2.5-1.5,3.8-3.2,3.8c-1,0-1.9-0.4-2.4-1.3l0,0v4H137L137.1,399.6L137.1,399.6z M137.8,401.6c0,0.2,0,0.4,0.1,0.6
					c0.3,1.1,1.2,1.8,2.3,1.8c1.6,0,2.5-1.3,2.5-3.1c0-1.6-0.9-3-2.4-3c-1,0-2,0.7-2.3,1.8c0,0.2-0.1,0.4-0.1,0.6v1.3H137.8z"/>
				<path class="st2" d="M145.2,399.5c0-0.7,0-1.4-0.1-2.1h0.6v1.4l0,0c0.3-0.9,1-1.6,2-1.6c0.1,0,0.2,0,0.3,0v0.7
					c-0.1,0-0.2,0-0.3,0c-1,0-1.6,0.8-1.8,1.9c0,0.2-0.1,0.4-0.1,0.7v3.8h-0.7v-4.8H145.2z"/>
				<path class="st2" d="M154.1,402.7c0,0.6,0,1.1,0.1,1.7h-0.6l-0.1-1l0,0c-0.3,0.5-1.1,1.2-2.2,1.2c-1.4,0-2-1-2-1.9
					c0-1.6,1.4-2.6,4.2-2.6v-0.2c0-0.7-0.1-2.1-1.8-2c-0.6,0-1.2,0.2-1.8,0.5l-0.2-0.5c0.6-0.4,1.4-0.6,2-0.6c2,0,2.4,1.5,2.4,2.7
					L154.1,402.7L154.1,402.7z M153.4,400.6c-1.5,0-3.5,0.2-3.5,1.9c0,1,0.7,1.5,1.4,1.5c1.2,0,1.8-0.7,2.1-1.4
					c0.1-0.1,0.1-0.3,0.1-0.4v-1.6H153.4z"/>
				<path class="st2" d="M161.3,404c-0.3,0.1-1,0.4-2,0.4c-2,0-3.3-1.5-3.3-3.6c0-2.2,1.5-3.7,3.6-3.7c0.9,0,1.6,0.2,1.8,0.4
					l-0.2,0.6c-0.3-0.2-0.9-0.4-1.6-0.4c-1.9,0-2.8,1.4-2.8,3.1c0,1.8,1.1,3,2.8,3c0.8,0,1.4-0.2,1.7-0.4V404z"/>
				<path class="st2" d="M164.4,395.8v1.5h2v0.6h-2v4.5c0,0.9,0.3,1.4,1,1.4c0.4,0,0.6,0,0.8-0.1l0.1,0.5c-0.2,0.1-0.6,0.2-1,0.2
					c-0.5,0-0.9-0.2-1.2-0.5c-0.3-0.4-0.4-1-0.4-1.7v-4.4h-1.2v-0.6h1.2v-1.3L164.4,395.8z"/>
				<path class="st2" d="M168.9,395.4c0,0.3-0.2,0.6-0.6,0.6c-0.3,0-0.5-0.3-0.5-0.6c0-0.3,0.2-0.6,0.6-0.6S168.9,395.1,168.9,395.4
					z M168,404.3v-7h0.7v7H168z"/>
				<path class="st2" d="M176,404c-0.3,0.1-1,0.4-2,0.4c-2,0-3.3-1.5-3.3-3.6c0-2.2,1.5-3.7,3.6-3.7c0.9,0,1.6,0.2,1.8,0.4l-0.2,0.6
					c-0.3-0.2-0.9-0.4-1.6-0.4c-1.9,0-2.8,1.4-2.8,3.1c0,1.8,1.1,3,2.8,3c0.8,0,1.4-0.2,1.7-0.4V404z"/>
				<path class="st2" d="M177.6,400.8c0,2.2,1.2,3.1,2.7,3.1c1,0,1.5-0.2,1.9-0.4l0.2,0.5c-0.3,0.1-1,0.4-2.2,0.4
					c-2,0-3.2-1.4-3.2-3.5c0-2.3,1.3-3.8,3.1-3.8c2.3,0,2.7,2.1,2.7,3.1c0,0.2,0,0.3,0,0.4h-5.2V400.8z M182.1,400.2
					c0-1-0.4-2.4-2.1-2.4c-1.5,0-2.2,1.4-2.3,2.4H182.1z"/>
				<path class="st2" d="M184.4,403.4c0.4,0.2,0.9,0.5,1.6,0.5c1.1,0,1.6-0.6,1.6-1.3c0-0.8-0.5-1.2-1.5-1.6
					c-1.1-0.4-1.8-1.1-1.8-1.9c0-1,0.8-1.9,2.1-1.9c0.6,0,1.2,0.2,1.5,0.4l-0.3,0.6c-0.2-0.2-0.7-0.4-1.4-0.4
					c-0.9,0-1.3,0.6-1.3,1.2c0,0.7,0.5,1,1.4,1.4c1.1,0.4,1.8,1,1.8,2.1c0,1.2-0.9,2-2.3,2c-0.7,0-1.3-0.2-1.8-0.5L184.4,403.4z"/>
			</g>
		</g>
		<g>
			<g>
				<path class="st2" d="M91.6,422.7c0,0.6,0,1.1,0.1,1.7H91l-0.1-1l0,0c-0.3,0.5-1.1,1.2-2.2,1.2c-1.4,0-2-1-2-1.9
					c0-1.6,1.4-2.6,4.2-2.6v-0.2c0-0.7-0.1-2.1-1.8-2c-0.6,0-1.2,0.2-1.8,0.5l-0.2-0.5c0.6-0.4,1.4-0.6,2-0.6c2,0,2.4,1.5,2.4,2.7
					L91.6,422.7L91.6,422.7z M90.9,420.6c-1.5,0-3.5,0.2-3.5,1.9c0,1,0.7,1.5,1.4,1.5c1.2,0,1.8-0.7,2.1-1.4
					c0.1-0.1,0.1-0.3,0.1-0.4L90.9,420.6L90.9,420.6z"/>
				<path class="st2" d="M93.9,419c0-0.6,0-1.1-0.1-1.7h0.7v1.3l0,0c0.4-0.8,1.3-1.4,2.4-1.4c0.7,0,2.4,0.3,2.4,2.9v4.2h-0.7v-4.1
					c0-1.3-0.5-2.4-1.9-2.4c-1,0-1.8,0.7-2.1,1.6c0,0.2-0.1,0.4-0.1,0.6v4.3h-0.7L93.9,419L93.9,419z"/>
				<path class="st2" d="M107.3,414v8.7c0,0.5,0,1.1,0.1,1.6h-0.6l-0.1-1.3l0,0c-0.4,0.8-1.2,1.5-2.5,1.5c-1.7,0-3-1.4-3-3.5
					c0-2.3,1.4-3.8,3.1-3.8c1.2,0,2,0.6,2.3,1.2l0,0V414H107.3z M106.7,420.1c0-0.2,0-0.4-0.1-0.6c-0.2-0.9-1.1-1.7-2.2-1.7
					c-1.5,0-2.5,1.3-2.5,3.1c0,1.6,0.8,3,2.4,3c1,0,1.9-0.7,2.2-1.8c0.1-0.2,0.1-0.4,0.1-0.6L106.7,420.1L106.7,420.1z"/>
				<path class="st2" d="M114.3,415.4c0,0.3-0.2,0.6-0.6,0.6c-0.3,0-0.5-0.3-0.5-0.6c0-0.3,0.2-0.6,0.6-0.6S114.3,415.1,114.3,415.4
					z M113.4,424.3v-7h0.7v7H113.4z"/>
				<path class="st2" d="M116.5,419c0-0.6,0-1.1-0.1-1.7h0.7v1.3l0,0c0.4-0.8,1.3-1.4,2.4-1.4c0.7,0,2.4,0.3,2.4,2.9v4.2h-0.7v-4.1
					c0-1.3-0.5-2.4-1.9-2.4c-1,0-1.8,0.7-2.1,1.6c0,0.2-0.1,0.4-0.1,0.6v4.3h-0.7L116.5,419L116.5,419z"/>
				<path class="st2" d="M125.2,415.4c0,0.3-0.2,0.6-0.6,0.6c-0.3,0-0.5-0.3-0.5-0.6c0-0.3,0.2-0.6,0.6-0.6S125.2,415.1,125.2,415.4
					z M124.3,424.3v-7h0.7v7H124.3z"/>
				<path class="st2" d="M128.4,415.8v1.5h2v0.6h-2v4.5c0,0.9,0.3,1.4,1,1.4c0.4,0,0.6,0,0.8-0.1l0.1,0.5c-0.2,0.1-0.6,0.2-1,0.2
					c-0.5,0-0.9-0.2-1.2-0.5c-0.3-0.4-0.4-1-0.4-1.7v-4.4h-1.2v-0.6h1.2v-1.3L128.4,415.8z"/>
				<path class="st2" d="M133,415.4c0,0.3-0.2,0.6-0.6,0.6c-0.3,0-0.5-0.3-0.5-0.6c0-0.3,0.2-0.6,0.6-0.6S133,415.1,133,415.4z
					 M132.1,424.3v-7h0.7v7H132.1z"/>
				<path class="st2" d="M139.5,422.7c0,0.6,0,1.1,0.1,1.7H139l-0.1-1l0,0c-0.3,0.5-1.1,1.2-2.2,1.2c-1.4,0-2-1-2-1.9
					c0-1.6,1.4-2.6,4.2-2.6v-0.2c0-0.7-0.1-2.1-1.8-2c-0.6,0-1.2,0.2-1.8,0.5l-0.2-0.5c0.6-0.4,1.4-0.6,2-0.6c2,0,2.4,1.5,2.4,2.7
					L139.5,422.7L139.5,422.7z M138.8,420.6c-1.5,0-3.5,0.2-3.5,1.9c0,1,0.7,1.5,1.4,1.5c1.2,0,1.8-0.7,2.1-1.4
					c0.1-0.1,0.1-0.3,0.1-0.4v-1.6H138.8z"/>
				<path class="st2" d="M142.6,415.8v1.5h2v0.6h-2v4.5c0,0.9,0.3,1.4,1,1.4c0.4,0,0.6,0,0.8-0.1l0.1,0.5c-0.2,0.1-0.6,0.2-1,0.2
					c-0.5,0-0.9-0.2-1.2-0.5c-0.3-0.4-0.4-1-0.4-1.7v-4.4h-1.2v-0.6h1.2v-1.3L142.6,415.8z"/>
				<path class="st2" d="M147.2,415.4c0,0.3-0.2,0.6-0.6,0.6c-0.3,0-0.5-0.3-0.5-0.6c0-0.3,0.2-0.6,0.6-0.6S147.2,415.1,147.2,415.4
					z M146.3,424.3v-7h0.7v7H146.3z"/>
				<path class="st2" d="M149.2,417.4l1.6,4.3c0.3,0.7,0.5,1.3,0.7,1.9l0,0c0.2-0.6,0.4-1.2,0.7-1.9l1.7-4.3h0.7l-2.8,7h-0.6l-2.7-7
					H149.2z"/>
				<path class="st2" d="M156.1,420.8c0,2.2,1.2,3.1,2.7,3.1c1,0,1.5-0.2,1.9-0.4l0.2,0.5c-0.3,0.1-1,0.4-2.2,0.4
					c-2,0-3.2-1.4-3.2-3.5c0-2.3,1.3-3.8,3.1-3.8c2.3,0,2.7,2.1,2.7,3.1c0,0.2,0,0.3,0,0.4h-5.2V420.8z M160.6,420.2
					c0-1-0.4-2.4-2.1-2.4c-1.5,0-2.2,1.4-2.3,2.4H160.6z"/>
				<path class="st2" d="M162.9,423.4c0.4,0.2,0.9,0.5,1.6,0.5c1.1,0,1.6-0.6,1.6-1.3c0-0.8-0.5-1.2-1.5-1.6
					c-1.1-0.4-1.8-1.1-1.8-1.9c0-1,0.8-1.9,2.1-1.9c0.6,0,1.2,0.2,1.5,0.4l-0.3,0.6c-0.2-0.2-0.7-0.4-1.4-0.4
					c-0.9,0-1.3,0.6-1.3,1.2c0,0.7,0.5,1,1.4,1.4c1.1,0.4,1.8,1,1.8,2.1c0,1.2-0.9,2-2.3,2c-0.7,0-1.3-0.2-1.8-0.5L162.9,423.4z"/>
			</g>
		</g>
		<g>
			<g>
				<g>
					<path class="st7" d="M311.5,39h28.2c6.6,0,12,5.4,12,12v37"/>
				</g>
				<g>
					<path class="st8" d="M311.5,41c1.1,0,2-0.9,2-2s-0.9-2-2-2s-2,0.9-2,2S310.3,41,311.5,41"/>
				</g>
				<g>
					<polyline class="st7" points="355.4,84 351.6,88 347.9,84 					"/>
				</g>
				<g>
					<path class="st7" d="M356.5,355v42.2c0,6.6-5.4,12-12,12h-37"/>
				</g>
				<g>
					<path class="st8" d="M354.5,355c0,1.1,0.9,2,2,2s2-0.9,2-2s-0.9-2-2-2S354.5,353.9,354.5,355"/>
				</g>
				<g>
					<polyline class="st7" points="311.5,412.9 307.5,409.2 311.5,405.5 					"/>
				</g>
				<g>
					<path class="st7" d="M356.5,170.7v27.2c0,6.6-5.4,12-12,12h-37"/>
				</g>
				<g>
					<path class="st8" d="M354.5,170.7c0,1.1,0.9,2,2,2s2-0.9,2-2s-0.9-2-2-2S354.5,169.6,354.5,170.7"/>
				</g>
				<g>
					<polyline class="st7" points="311.5,213.6 307.5,209.9 311.5,206.2 					"/>
				</g>
				<g>
					<path class="st7" d="M40.3,372v-27.2c0-6.6,5.4-12,12-12h37"/>
				</g>
				<g>
					<path class="st8" d="M42.3,372c0-1.1-0.9-2-2-2s-2,0.9-2,2s0.9,2,2,2C41.4,374,42.3,373.1,42.3,372"/>
				</g>
				<g>
					<polyline class="st7" points="85.3,329.1 89.3,332.8 85.3,336.5 					"/>
				</g>
				<g>
					<path class="st7" d="M40.3,188v-27.2c0-6.6,5.4-12,12-12h37"/>
				</g>
				<g>
					<path class="st8" d="M42.3,188c0-1.1-0.9-2-2-2s-2,0.9-2,2s0.9,2,2,2C41.4,190,42.3,189.1,42.3,188"/>
				</g>
				<g>
					<polyline class="st7" points="85.3,145.1 89.3,148.8 85.3,152.5 					"/>
				</g>
				<g>
					<path class="st7" d="M311.2,240h31.2c6.6,0,12,5.4,12,12v22"/>
				</g>
				<g>
					<path class="st8" d="M311.2,242c1.1,0,2-0.9,2-2s-0.9-2-2-2s-2,0.9-2,2S310.1,242,311.2,242"/>
				</g>
				<g>
					<polyline class="st7" points="358.1,270 354.4,274 350.6,270 					"/>
				</g>
				<g>
					<path class="st7" d="M85.6,302.7H54.4c-6.6,0-12-5.4-12-12v-22"/>
				</g>
				<g>
					<path class="st8" d="M85.6,300.7c-1.1,0-2,0.9-2,2s0.9,2,2,2s2-0.9,2-2S86.7,300.7,85.6,300.7"/>
				</g>
				<g>
					<polyline class="st7" points="38.7,272.7 42.4,268.7 46.1,272.7 					"/>
				</g>
				<g>
					<path class="st7" d="M85.6,118.7H54.4c-6.6,0-12-5.4-12-12v-22"/>
				</g>
				<g>
					<path class="st8" d="M85.6,116.7c-1.1,0-2,0.9-2,2s0.9,2,2,2s2-0.9,2-2S86.7,116.7,85.6,116.7"/>
				</g>
				<g>
					<polyline class="st7" points="38.7,88.7 42.4,84.7 46.1,88.7 					"/>
				</g>
				<g>
					<path class="st9" d="M42,28c-0.3,0-0.5,0.2-0.5,0.5V35H47c0.8,0,1.5,0.7,1.5,1.5c0,0.3,0.2,0.5,0.5,0.5h4l-2.4-3.2
						c-0.1-0.2-0.1-0.4,0-0.6L53,30h-4.5v1.5c0,0.3-0.2,0.5-0.5,0.5s-0.5-0.2-0.5-0.5v-3c0-0.3-0.2-0.5-0.5-0.5H42z M41,45
						c-0.3,0-0.5-0.2-0.5-0.5v-16c0-0.8,0.7-1.5,1.5-1.5h5c0.8,0,1.5,0.7,1.5,1.5V29H54c0.3,0,0.5,0.2,0.5,0.5c0,0.1,0,0.2-0.1,0.3
						l-2.8,3.7l2.8,3.7c0.2,0.2,0.1,0.5-0.1,0.7C54.2,38,54.1,38,54,38h-5c-0.8,0-1.5-0.7-1.5-1.5c0-0.3-0.2-0.5-0.5-0.5h-5.5v8.5
						C41.5,44.8,41.3,45,41,45"/>
				</g>
				<g>
					<path class="st9" d="M121.8,133.5h3v-2h-3V133.5z M123.3,136.5c-0.3,0-0.5-0.2-0.5-0.5v-1.5h-1c-0.6,0-1-0.4-1-1v-2
						c0-0.6,0.4-1,1-1h1V119c0-0.3,0.2-0.5,0.5-0.5s0.5,0.2,0.5,0.5v11.5h1c0.6,0,1,0.4,1,1v2c0,0.6-0.4,1-1,1h-1v1.5
						C123.8,136.3,123.6,136.5,123.3,136.5 M126.8,124.5h3v-2h-3V124.5z M128.3,136.5c-0.3,0-0.5-0.2-0.5-0.5v-10.5h-1
						c-0.6,0-1-0.4-1-1v-2c0-0.6,0.4-1,1-1h1V119c0-0.3,0.2-0.5,0.5-0.5s0.5,0.2,0.5,0.5v2.5h1c0.6,0,1,0.4,1,1v2c0,0.6-0.4,1-1,1
						h-1V136C128.8,136.3,128.6,136.5,128.3,136.5 M131.8,130.5h3v-2h-3V130.5z M133.3,136.5c-0.3,0-0.5-0.2-0.5-0.5v-4.5h-1
						c-0.6,0-1-0.4-1-1v-2c0-0.6,0.4-1,1-1h1V119c0-0.3,0.2-0.5,0.5-0.5s0.5,0.2,0.5,0.5v8.5h1c0.6,0,1,0.4,1,1v2c0,0.6-0.4,1-1,1
						h-1v4.5C133.8,136.3,133.6,136.5,133.3,136.5"/>
				</g>
				<g>
					<path class="st9" d="M120.8,304.5c-0.8,0-1.5,0.7-1.5,1.5v11c0,0.8,0.7,1.5,1.5,1.5h1c0.8,0,1.5-0.7,1.5-1.5v-5
						c0-1.4,1.1-2.5,2.5-2.5h10c0.5,0,1.1,0.2,1.5,0.5v-1c0-0.8-0.7-1.5-1.5-1.5h-5.5c-1.1,0-2-0.9-2-2c0-0.6-0.4-1-1-1H120.8z
						 M125.8,310.5c-0.8,0-1.5,0.7-1.5,1.5v5c0,0.5-0.2,1.1-0.5,1.5h12c0.8,0,1.5-0.7,1.5-1.5v-5c0-0.8-0.7-1.5-1.5-1.5H125.8z
						 M135.8,319.5h-15c-1.4,0-2.5-1.1-2.5-2.5v-11c0-1.4,1.1-2.5,2.5-2.5h6.5c1.1,0,2,0.9,2,2c0,0.6,0.4,1,1,1h5.5
						c1.4,0,2.5,1.1,2.5,2.5v8C138.3,318.4,137.2,319.5,135.8,319.5"/>
				</g>
				<g>
					<path class="st9" d="M51,398.5h-9c-0.3,0-0.5-0.2-0.5-0.5s0.2-0.5,0.5-0.5h9c0.3,0,0.5,0.2,0.5,0.5S51.3,398.5,51,398.5
						 M51,400.5h-9c-0.3,0-0.5-0.2-0.5-0.5s0.2-0.5,0.5-0.5h9c0.3,0,0.5,0.2,0.5,0.5S51.3,400.5,51,400.5 M42.5,405.5
						c-0.6,0-1-0.4-1-1s0.4-1,1-1s1,0.4,1,1S43.1,405.5,42.5,405.5 M43,407.5h-1c-0.3,0-0.5-0.2-0.5-0.5s0.2-0.5,0.5-0.5h1
						c0.3,0,0.5,0.2,0.5,0.5S43.3,407.5,43,407.5 M43,409.5h-1c-0.3,0-0.5-0.2-0.5-0.5s0.2-0.5,0.5-0.5h1c0.3,0,0.5,0.2,0.5,0.5
						S43.3,409.5,43,409.5 M42,393.5c-0.8,0-1.5,0.7-1.5,1.5v0.5h12V395c0-0.8-0.7-1.5-1.5-1.5H42z M40.5,410.5h12v-14h-12V410.5z
						 M40.5,411.5v0.5c0,0.8,0.7,1.5,1.5,1.5h9c0.8,0,1.5-0.7,1.5-1.5v-0.5H40.5z M51,414.5h-9c-1.4,0-2.5-1.1-2.5-2.5v-17
						c0-1.4,1.1-2.5,2.5-2.5h9c1.4,0,2.5,1.1,2.5,2.5v17C53.5,413.4,52.4,414.5,51,414.5"/>
				</g>
			</g>
		</g>
		<g>
			<g>
				<g>
					<defs>
						<rect id="SVGID_1_" x="36" y="208.5" width="21" height="22"/>
					</defs>
					<clipPath id="SVGID_2_">
						<use xlink:href="#SVGID_1_"  style="overflow:visible;"/>
					</clipPath>
					<path class="st10" d="M47,215.7c0.5,0,0.9-0.3,1-0.6l0.5-5.8c0-0.6-0.7-1-1.5-1s-1.5,0.5-1.5,1l0.5,5.8
						C46.1,215.5,46.5,215.7,47,215.7L47,215.7z"/>
				</g>
				<g>
					<defs>
						<rect id="SVGID_3_" x="36" y="208.5" width="21" height="22"/>
					</defs>
					<clipPath id="SVGID_4_">
						<use xlink:href="#SVGID_3_"  style="overflow:visible;"/>
					</clipPath>
					<path class="st11" d="M43.9,217.5c0.3-0.4,0.2-1,0-1.2l-4.8-3.4c-0.5-0.3-1.2,0.1-1.7,0.8c-0.4,0.7-0.3,1.6,0.1,1.8l5.3,2.5
						C43.2,218.2,43.6,218,43.9,217.5L43.9,217.5z"/>
				</g>
				<g>
					<defs>
						<rect id="SVGID_5_" x="36" y="208.5" width="21" height="22"/>
					</defs>
					<clipPath id="SVGID_6_">
						<use xlink:href="#SVGID_5_"  style="overflow:visible;"/>
					</clipPath>
					<path class="st12" d="M50.2,217.5c0.3,0.4,0.7,0.7,1,0.6l5.3-2.5c0.5-0.3,0.6-1.1,0.1-1.8c-0.4-0.7-1.2-1.1-1.7-0.8l-4.8,3.4
						C49.9,216.6,49.9,217.1,50.2,217.5L50.2,217.5z"/>
				</g>
				<g>
					<defs>
						<rect id="SVGID_7_" x="36" y="208.5" width="21" height="22"/>
					</defs>
					<clipPath id="SVGID_8_">
						<use xlink:href="#SVGID_7_"  style="overflow:visible;"/>
					</clipPath>
					<path class="st13" d="M50.2,221.2c0.3-0.5,0.7-0.7,1-0.6l5.3,2.5c0.5,0.3,0.6,1.1,0.1,1.8c-0.4,0.7-1.2,1.1-1.7,0.8l-4.8-3.3
						C49.9,222.1,49.9,221.6,50.2,221.2L50.2,221.2z"/>
				</g>
				<g>
					<defs>
						<rect id="SVGID_9_" x="36" y="208.5" width="21" height="22"/>
					</defs>
					<clipPath id="SVGID_10_">
						<use xlink:href="#SVGID_9_"  style="overflow:visible;"/>
					</clipPath>
					<path class="st14" d="M43.9,221.2c0.3,0.4,0.2,1,0,1.2l-4.8,3.3c-0.5,0.3-1.2-0.1-1.7-0.8c-0.4-0.7-0.3-1.6,0.1-1.8l5.3-2.5
						C43.2,220.5,43.6,220.7,43.9,221.2L43.9,221.2z"/>
				</g>
			</g>
		</g>
		<g>
			<g>
				<g>
					<path class="st4" d="M47,223c0.5,0,0.9,0.3,1,0.6l0.5,5.8c0,0.6-0.7,1-1.5,1s-1.5-0.5-1.5-1l0.5-5.8
						C46.1,223.3,46.5,223,47,223L47,223z"/>
				</g>
				<g>
					<path class="st4" d="M49.3,229.7L49.3,229.7c0.1,0,0.1,0,0.1-0.1c0,0,0-0.1-0.1-0.1l0,0V229.7z M49.3,229.9L49.3,229.9
						l-0.1-0.4c0,0,0.1,0,0.2,0c0.1,0,0.1,0,0.2,0c0,0,0,0,0,0.1c0,0,0,0.1-0.1,0.1l0,0c0,0,0.1,0,0.1,0.1s0,0.1,0,0.1h-0.1v-0.1
						c0,0,0-0.1-0.1-0.1l0,0v0.2H49.3z M49.4,229.4c-0.2,0-0.3,0.2-0.3,0.3c0,0.2,0.1,0.3,0.3,0.3s0.3-0.1,0.3-0.3
						S49.6,229.4,49.4,229.4L49.4,229.4z M49.4,229.3c0.2,0,0.4,0.2,0.4,0.4s-0.2,0.4-0.4,0.4s-0.4-0.2-0.4-0.4
						C48.9,229.5,49.1,229.3,49.4,229.3L49.4,229.3z"/>
				</g>
			</g>
		</g>
	</g>
</g>
</svg>
