<?xml version="1.0" encoding="utf-8"?>
<!-- Generator: Adobe Illustrator 25.2.1, SVG Export Plug-In . SVG Version: 6.00 Build 0)  -->
<svg version="1.1" id="Layer_2_1_" xmlns="http://www.w3.org/2000/svg" xmlns:xlink="http://www.w3.org/1999/xlink" x="0px" y="0px"
	 viewBox="0 0 798.7 652" style="enable-background:new 0 0 798.7 652;" xml:space="preserve">
<style type="text/css">
	.st0{enable-background:new    ;}
	.st1{fill:#606161;}
	.st2{opacity:8.000000e-02;fill:#FFB71B;}
	.st3{opacity:0.13;fill:#6AAAE4;}
	.st4{opacity:0.16;fill:#404041;}
	.st5{opacity:0.1;fill:#F57F20;}
	.st6{fill:none;stroke:#4E4D50;stroke-width:0.4276;stroke-linecap:round;stroke-linejoin:round;stroke-miterlimit:10;}
	.st7{fill:#4E4D50;}
	
		.st8{fill-rule:evenodd;clip-rule:evenodd;fill:none;stroke:#4E4D50;stroke-width:0.4276;stroke-linecap:round;stroke-linejoin:round;stroke-miterlimit:10;}
	.st9{fill:none;stroke:#4E4E50;stroke-width:0.4276;stroke-linecap:round;stroke-linejoin:round;stroke-miterlimit:10;}
	.st10{fill:none;stroke:#4E4D50;stroke-width:0.4276;stroke-miterlimit:10;}
	
		.st11{fill-rule:evenodd;clip-rule:evenodd;fill:none;stroke:#4E4E50;stroke-width:0.5005;stroke-linecap:round;stroke-linejoin:round;stroke-miterlimit:10;}
	.st12{fill:none;stroke:#4E4E50;stroke-width:0.5005;stroke-linecap:round;stroke-linejoin:round;stroke-miterlimit:10;}
	.st13{fill:none;stroke:#606161;stroke-width:0.4276;stroke-linecap:round;stroke-linejoin:round;stroke-miterlimit:10;}
	.st14{fill:none;stroke:#606161;stroke-width:0.4276;stroke-linejoin:round;stroke-miterlimit:10;}
	.st15{fill:none;stroke:#FFFFFF;stroke-width:6.8411;stroke-miterlimit:10;}
	.st16{fill:#F78D20;}
	.st17{fill:#3070B8;}
	.st18{fill:#FFB71B;}
	.st19{fill:#FFFFFF;}
</style>
<g class="st0">
	<path class="st1" d="M539.1,636.2L539.1,636.2l-1.3,0.7l-0.1-0.5l1.5-0.9h0.5v7.8h-0.6V636.2z"/>
	<path class="st1" d="M545.8,635.4c0.5-0.1,1.1-0.2,1.7-0.2c1,0,1.7,0.3,2.1,0.7c0.4,0.4,0.6,0.9,0.6,1.6c0,0.7-0.2,1.2-0.6,1.6
		c-0.5,0.6-1.4,0.9-2.4,0.9c-0.4,0-0.7,0-1-0.1v3.5h-0.6V635.4z M546.3,639.4c0.3,0.1,0.6,0.1,1,0.1c1.5,0,2.3-0.7,2.3-2
		c0-1.3-0.9-1.8-2.2-1.8c-0.5,0-0.9,0-1.1,0.1V639.4z"/>
	<path class="st1" d="M555,642c0,0.5,0,0.9,0.1,1.4h-0.5l-0.1-0.8h0c-0.3,0.4-0.9,1-1.8,1c-1.2,0-1.7-0.8-1.7-1.6
		c0-1.3,1.2-2.1,3.5-2.1v-0.2c0-0.6-0.1-1.7-1.5-1.7c-0.5,0-1,0.1-1.5,0.4l-0.2-0.4c0.5-0.3,1.2-0.5,1.7-0.5c1.7,0,2,1.2,2,2.3V642z
		 M554.4,640.3c-1.3,0-2.9,0.2-2.9,1.5c0,0.8,0.6,1.2,1.2,1.2c1,0,1.5-0.6,1.7-1.2c0-0.1,0.1-0.3,0.1-0.3V640.3z"/>
	<path class="st1" d="M556.6,637.6l1.5,3.8c0.2,0.4,0.3,0.9,0.4,1.2h0c0.1-0.3,0.3-0.8,0.4-1.3l1.4-3.7h0.6l-1.7,4.3
		c-0.7,1.8-1.2,2.9-1.9,3.5c-0.5,0.4-0.9,0.6-1,0.6l-0.2-0.5c0.3-0.1,0.7-0.3,1-0.6c0.3-0.3,0.7-0.8,1-1.5c0-0.1,0.1-0.2,0.1-0.3
		c0,0,0-0.1-0.1-0.3l-2.1-5.3H556.6z"/>
	<path class="st1" d="M562.1,639c0-0.5,0-0.9,0-1.4h0.5l0,1h0c0.4-0.7,0.9-1.2,1.9-1.2c0.8,0,1.4,0.5,1.7,1.3h0
		c0.2-0.3,0.4-0.6,0.6-0.8c0.4-0.3,0.8-0.5,1.4-0.5c0.6,0,1.9,0.3,1.9,2.5v3.4h-0.6v-3.3c0-1.3-0.5-2.1-1.5-2.1
		c-0.7,0-1.3,0.5-1.5,1.1c0,0.2-0.1,0.4-0.1,0.6v3.7h-0.6v-3.6c0-1-0.5-1.8-1.4-1.8c-0.8,0-1.4,0.6-1.6,1.3c0,0.2-0.1,0.4-0.1,0.6
		v3.5h-0.6V639z"/>
	<path class="st1" d="M572,640.5c0,1.8,1,2.6,2.2,2.6c0.8,0,1.3-0.2,1.6-0.3l0.1,0.4c-0.2,0.1-0.8,0.4-1.8,0.4
		c-1.7,0-2.7-1.2-2.7-2.9c0-1.9,1.1-3.1,2.6-3.1c1.9,0,2.2,1.8,2.2,2.6c0,0.2,0,0.2,0,0.3H572z M575.7,640c0-0.8-0.3-2-1.7-2
		c-1.3,0-1.8,1.1-1.9,2H575.7z"/>
	<path class="st1" d="M577.7,639c0-0.5,0-0.9,0-1.4h0.5l0,1h0c0.3-0.6,1-1.2,2-1.2c0.6,0,2,0.3,2,2.4v3.5h-0.6V640c0-1-0.4-2-1.6-2
		c-0.8,0-1.5,0.6-1.7,1.3c0,0.1-0.1,0.3-0.1,0.5v3.6h-0.6V639z"/>
	<path class="st1" d="M584.9,636.4v1.3h1.6v0.5h-1.6v3.7c0,0.7,0.2,1.2,0.8,1.2c0.3,0,0.5,0,0.7-0.1l0.1,0.4
		c-0.2,0.1-0.5,0.1-0.8,0.1c-0.4,0-0.8-0.1-1-0.4c-0.3-0.3-0.4-0.8-0.4-1.4v-3.6h-1v-0.5h1v-1.1L584.9,636.4z"/>
	<path class="st1" d="M591.2,636c0,0.3-0.2,0.5-0.5,0.5c-0.3,0-0.4-0.2-0.4-0.5c0-0.3,0.2-0.5,0.5-0.5S591.2,635.7,591.2,636z
		 M590.5,643.4v-5.8h0.6v5.8H590.5z"/>
	<path class="st1" d="M593,639c0-0.5,0-0.9,0-1.4h0.5l0,1h0c0.3-0.6,1-1.2,2-1.2c0.6,0,2,0.3,2,2.4v3.5H597V640c0-1-0.4-2-1.6-2
		c-0.8,0-1.5,0.6-1.7,1.3c0,0.1-0.1,0.3-0.1,0.5v3.6H593V639z"/>
	<path class="st1" d="M606,643.1c-0.3,0.1-0.9,0.4-1.7,0.4c-1.7,0-2.8-1.2-2.8-2.9c0-1.8,1.2-3.1,3-3.1c0.7,0,1.3,0.2,1.5,0.4
		l-0.2,0.5c-0.3-0.2-0.7-0.3-1.4-0.3c-1.5,0-2.3,1.2-2.3,2.5c0,1.5,0.9,2.5,2.3,2.5c0.7,0,1.1-0.2,1.4-0.3L606,643.1z"/>
	<path class="st1" d="M611,642c0,0.5,0,0.9,0.1,1.4h-0.5l-0.1-0.8h0c-0.3,0.4-0.9,1-1.8,1c-1.2,0-1.7-0.8-1.7-1.6
		c0-1.3,1.2-2.1,3.5-2.1v-0.2c0-0.6-0.1-1.7-1.5-1.7c-0.5,0-1,0.1-1.5,0.4l-0.2-0.4c0.5-0.3,1.2-0.5,1.7-0.5c1.7,0,2,1.2,2,2.3V642z
		 M610.4,640.3c-1.3,0-2.9,0.2-2.9,1.5c0,0.8,0.6,1.2,1.2,1.2c1,0,1.5-0.6,1.7-1.2c0-0.1,0.1-0.3,0.1-0.3V640.3z"/>
	<path class="st1" d="M612.6,642.6c0.3,0.2,0.8,0.4,1.3,0.4c0.9,0,1.3-0.5,1.3-1.1c0-0.6-0.4-1-1.2-1.3c-0.9-0.4-1.5-0.9-1.5-1.6
		c0-0.8,0.7-1.6,1.8-1.6c0.5,0,1,0.2,1.3,0.4l-0.2,0.5c-0.2-0.1-0.6-0.3-1.2-0.3c-0.7,0-1.1,0.5-1.1,1c0,0.6,0.4,0.9,1.2,1.2
		c0.9,0.4,1.5,0.8,1.5,1.7c0,1-0.8,1.6-1.9,1.6c-0.6,0-1.1-0.2-1.5-0.4L612.6,642.6z"/>
	<path class="st1" d="M617.3,634.9h0.6v3.8h0c0.2-0.3,0.4-0.6,0.8-0.8c0.3-0.2,0.7-0.3,1.2-0.3c0.5,0,2,0.3,2,2.4v3.5h-0.6V640
		c0-1-0.4-2-1.6-2c-0.8,0-1.5,0.6-1.7,1.3c-0.1,0.2-0.1,0.3-0.1,0.6v3.5h-0.6V634.9z"/>
	<path class="st1" d="M623.1,644.9c0.2-0.5,0.5-1.8,0.6-2.5l0.8-0.1c-0.2,0.9-0.7,2.3-0.9,2.6L623.1,644.9z"/>
	<path class="st1" d="M632.5,643.1c-0.3,0.1-0.9,0.4-1.7,0.4c-1.7,0-2.8-1.2-2.8-2.9c0-1.8,1.2-3.1,3-3.1c0.7,0,1.3,0.2,1.5,0.4
		l-0.2,0.5c-0.3-0.2-0.7-0.3-1.4-0.3c-1.5,0-2.3,1.2-2.3,2.5c0,1.5,0.9,2.5,2.3,2.5c0.7,0,1.1-0.2,1.4-0.3L632.5,643.1z"/>
	<path class="st1" d="M633.8,639.4c0-0.6,0-1.2,0-1.7h0.5l0,1.2h0c0.3-0.7,0.9-1.3,1.6-1.3c0.1,0,0.2,0,0.2,0v0.6
		c-0.1,0-0.2,0-0.3,0c-0.8,0-1.4,0.7-1.5,1.6c0,0.2,0,0.4,0,0.6v3.2h-0.6V639.4z"/>
	<path class="st1" d="M637.3,640.5c0,1.8,1,2.6,2.2,2.6c0.8,0,1.3-0.2,1.6-0.3l0.1,0.4c-0.2,0.1-0.8,0.4-1.8,0.4
		c-1.7,0-2.7-1.2-2.7-2.9c0-1.9,1.1-3.1,2.6-3.1c1.9,0,2.2,1.8,2.2,2.6c0,0.2,0,0.2,0,0.3H637.3z M641,640c0-0.8-0.3-2-1.7-2
		c-1.3,0-1.8,1.1-1.9,2H641z"/>
	<path class="st1" d="M647.7,634.9v7.2c0,0.4,0,0.9,0,1.3h-0.5l0-1.1h0c-0.3,0.6-1,1.2-2.1,1.2c-1.4,0-2.5-1.2-2.5-2.9
		c0-1.9,1.2-3.1,2.6-3.1c1,0,1.6,0.5,1.9,1h0v-3.6H647.7z M647.1,639.9c0-0.2,0-0.4-0.1-0.5c-0.2-0.8-0.9-1.4-1.8-1.4
		c-1.3,0-2.1,1.1-2.1,2.6c0,1.3,0.6,2.5,2,2.5c0.8,0,1.6-0.6,1.8-1.5c0-0.2,0.1-0.3,0.1-0.5V639.9z"/>
	<path class="st1" d="M650.3,636c0,0.3-0.2,0.5-0.5,0.5c-0.3,0-0.4-0.2-0.4-0.5c0-0.3,0.2-0.5,0.5-0.5S650.3,635.7,650.3,636z
		 M649.6,643.4v-5.8h0.6v5.8H649.6z"/>
	<path class="st1" d="M652.9,636.4v1.3h1.6v0.5h-1.6v3.7c0,0.7,0.2,1.2,0.8,1.2c0.3,0,0.5,0,0.7-0.1l0.1,0.4
		c-0.2,0.1-0.5,0.1-0.8,0.1c-0.4,0-0.8-0.1-1-0.4c-0.3-0.3-0.4-0.8-0.4-1.4v-3.6h-1v-0.5h1v-1.1L652.9,636.4z"/>
	<path class="st1" d="M663.4,640.5c0,2.1-1.5,3.1-2.8,3.1c-1.5,0-2.6-1.2-2.6-3c0-2,1.3-3.1,2.7-3.1
		C662.3,637.5,663.4,638.7,663.4,640.5z M658.5,640.5c0,1.4,0.9,2.5,2.1,2.5c1.2,0,2.1-1.1,2.1-2.6c0-1.1-0.6-2.5-2.1-2.5
		C659.2,638,658.5,639.3,658.5,640.5z"/>
	<path class="st1" d="M664.8,639.4c0-0.6,0-1.2,0-1.7h0.5l0,1.2h0c0.3-0.7,0.9-1.3,1.6-1.3c0.1,0,0.2,0,0.2,0v0.6
		c-0.1,0-0.2,0-0.3,0c-0.8,0-1.4,0.7-1.5,1.6c0,0.2,0,0.4,0,0.6v3.2h-0.6V639.4z"/>
	<path class="st1" d="M675.6,634.9v7.2c0,0.4,0,0.9,0,1.3h-0.5l0-1.1h0c-0.3,0.6-1,1.2-2.1,1.2c-1.4,0-2.5-1.2-2.5-2.9
		c0-1.9,1.2-3.1,2.6-3.1c1,0,1.6,0.5,1.9,1h0v-3.6H675.6z M675,639.9c0-0.2,0-0.4-0.1-0.5c-0.2-0.8-0.9-1.4-1.8-1.4
		c-1.3,0-2.1,1.1-2.1,2.6c0,1.3,0.6,2.5,2,2.5c0.8,0,1.6-0.6,1.8-1.5c0-0.2,0.1-0.3,0.1-0.5V639.9z"/>
	<path class="st1" d="M677.6,640.5c0,1.8,1,2.6,2.2,2.6c0.8,0,1.3-0.2,1.6-0.3l0.1,0.4c-0.2,0.1-0.8,0.4-1.8,0.4
		c-1.7,0-2.7-1.2-2.7-2.9c0-1.9,1.1-3.1,2.6-3.1c1.9,0,2.2,1.8,2.2,2.6c0,0.2,0,0.2,0,0.3H677.6z M681.3,640c0-0.8-0.3-2-1.7-2
		c-1.3,0-1.8,1.1-1.9,2H681.3z"/>
	<path class="st1" d="M683.3,634.9h0.6v3.8h0c0.4-0.7,1.1-1.2,2.1-1.2c1.5,0,2.5,1.2,2.5,3c0,2.1-1.3,3.1-2.6,3.1
		c-0.9,0-1.6-0.4-2.1-1.2h0l0,1h-0.5c0-0.4,0-0.9,0-1.3V634.9z M683.9,641.2c0,0.1,0,0.3,0,0.4c0.3,0.9,1,1.5,1.9,1.5
		c1.3,0,2.1-1.1,2.1-2.6c0-1.3-0.7-2.5-2-2.5c-0.8,0-1.6,0.6-1.9,1.5c0,0.1-0.1,0.3-0.1,0.5V641.2z"/>
	<path class="st1" d="M690.7,636c0,0.3-0.2,0.5-0.5,0.5c-0.3,0-0.4-0.2-0.4-0.5c0-0.3,0.2-0.5,0.5-0.5S690.7,635.7,690.7,636z
		 M690,643.4v-5.8h0.6v5.8H690z"/>
	<path class="st1" d="M693.3,636.4v1.3h1.6v0.5h-1.6v3.7c0,0.7,0.2,1.2,0.8,1.2c0.3,0,0.5,0,0.7-0.1l0.1,0.4
		c-0.2,0.1-0.5,0.1-0.8,0.1c-0.4,0-0.8-0.1-1-0.4c-0.3-0.3-0.4-0.8-0.4-1.4v-3.6h-1v-0.5h1v-1.1L693.3,636.4z"/>
	<path class="st1" d="M702.8,643.1c-0.3,0.1-0.9,0.4-1.7,0.4c-1.7,0-2.8-1.2-2.8-2.9c0-1.8,1.2-3.1,3-3.1c0.7,0,1.3,0.2,1.5,0.4
		l-0.2,0.5c-0.3-0.2-0.7-0.3-1.4-0.3c-1.5,0-2.3,1.2-2.3,2.5c0,1.5,0.9,2.5,2.3,2.5c0.7,0,1.1-0.2,1.4-0.3L702.8,643.1z"/>
	<path class="st1" d="M707.7,642c0,0.5,0,0.9,0.1,1.4h-0.5l-0.1-0.8h0c-0.3,0.4-0.9,1-1.8,1c-1.2,0-1.7-0.8-1.7-1.6
		c0-1.3,1.2-2.1,3.5-2.1v-0.2c0-0.6-0.1-1.7-1.5-1.7c-0.5,0-1,0.1-1.5,0.4l-0.2-0.4c0.5-0.3,1.2-0.5,1.7-0.5c1.7,0,2,1.2,2,2.3V642z
		 M707.2,640.3c-1.3,0-2.9,0.2-2.9,1.5c0,0.8,0.6,1.2,1.2,1.2c1,0,1.5-0.6,1.7-1.2c0-0.1,0.1-0.3,0.1-0.3V640.3z"/>
	<path class="st1" d="M709.6,639.4c0-0.6,0-1.2,0-1.7h0.5l0,1.2h0c0.3-0.7,0.9-1.3,1.6-1.3c0.1,0,0.2,0,0.2,0v0.6
		c-0.1,0-0.2,0-0.3,0c-0.8,0-1.4,0.7-1.5,1.6c0,0.2,0,0.4,0,0.6v3.2h-0.6V639.4z"/>
	<path class="st1" d="M717.6,634.9v7.2c0,0.4,0,0.9,0,1.3h-0.5l0-1.1h0c-0.3,0.6-1,1.2-2.1,1.2c-1.4,0-2.5-1.2-2.5-2.9
		c0-1.9,1.2-3.1,2.6-3.1c1,0,1.6,0.5,1.9,1h0v-3.6H717.6z M717,639.9c0-0.2,0-0.4-0.1-0.5c-0.2-0.8-0.9-1.4-1.8-1.4
		c-1.3,0-2.1,1.1-2.1,2.6c0,1.3,0.6,2.5,2,2.5c0.8,0,1.6-0.6,1.8-1.5c0-0.2,0.1-0.3,0.1-0.5V639.9z"/>
</g>
<g>
	<rect y="65.2" class="st2" width="798.7" height="188.1"/>
	<g>
		<rect y="261" class="st3" width="798.7" height="188.1"/>
		<rect y="6.3" class="st4" width="798.7" height="50.7"/>
		<rect y="458.2" class="st5" width="798.7" height="188.1"/>
		<g>
			<g>
				<line class="st6" x1="167.8" y1="160.6" x2="193.9" y2="160.6"/>
				<line class="st6" x1="167.8" y1="158.3" x2="193.9" y2="158.3"/>
				<path class="st6" d="M185.5,146.4c-1-0.9-2.7-1.4-4.6-1.4c-1.9,0-3.6,0.6-4.6,1.4h-8.5v6.3v7.8h26.1v-7.8v-6.3H185.5z"/>
				<g>
					<path class="st6" d="M180.9,150.9c0.2,0,0.3-0.1,0.3-0.2l0.2-2c0-0.2-0.2-0.4-0.5-0.4c-0.3,0-0.5,0.2-0.5,0.4l0.2,2
						C180.5,150.8,180.7,150.9,180.9,150.9L180.9,150.9z"/>
					<path class="st6" d="M179.8,151.5c0.1-0.2,0.1-0.3,0-0.4l-1.6-1.2c-0.2-0.1-0.4,0-0.6,0.3c-0.1,0.3-0.1,0.5,0.1,0.6l1.8,0.8
						C179.5,151.7,179.7,151.6,179.8,151.5L179.8,151.5z"/>
					<path class="st6" d="M181.9,151.5c0.1,0.2,0.2,0.2,0.4,0.2l1.8-0.8c0.2-0.1,0.2-0.4,0.1-0.6c-0.1-0.3-0.4-0.4-0.6-0.3l-1.6,1.2
						C181.9,151.2,181.9,151.3,181.9,151.5L181.9,151.5z"/>
					<path class="st6" d="M180.9,153.4c0.2,0,0.3,0.1,0.3,0.2l0.2,2c0,0.2-0.2,0.4-0.5,0.4c-0.3,0-0.5-0.2-0.5-0.4l0.2-2
						C180.5,153.5,180.7,153.4,180.9,153.4L180.9,153.4z"/>
					<path class="st6" d="M181.9,152.7c0.1-0.2,0.2-0.2,0.4-0.2l1.8,0.8c0.2,0.1,0.2,0.4,0.1,0.6c-0.1,0.3-0.4,0.4-0.6,0.3l-1.6-1.2
						C181.9,153.1,181.9,152.9,181.9,152.7L181.9,152.7z"/>
					<path class="st6" d="M179.8,152.7c0.1,0.2,0.1,0.3,0,0.4l-1.6,1.2c-0.2,0.1-0.4,0-0.6-0.3c-0.1-0.3-0.1-0.5,0.1-0.6l1.8-0.8
						C179.5,152.5,179.7,152.6,179.8,152.7L179.8,152.7z"/>
				</g>
				<g>
					<rect x="167.8" y="170.9" class="st6" width="26.1" height="14.3"/>
					<rect x="167.8" y="168.6" class="st6" width="26.1" height="2.3"/>
				</g>
				<g>
					<line class="st6" x1="169.2" y1="160.6" x2="169.2" y2="168.6"/>
					<line class="st6" x1="192.5" y1="160.6" x2="192.5" y2="168.6"/>
				</g>
				<g>
					<line class="st6" x1="170.4" y1="160.6" x2="170.4" y2="168.6"/>
					<line class="st6" x1="191.4" y1="160.6" x2="191.4" y2="168.6"/>
				</g>
			</g>
		</g>
		<g>
			<g>
				<g>
					<path class="st6" d="M297.1,185.2h-17.5v-47.9c0-1.3,1.1-2.4,2.4-2.4h12.7c1.3,0,2.4,1.1,2.4,2.4V185.2z"/>
					<rect x="281.8" y="138" class="st6" width="13" height="25.3"/>
					<rect x="281.8" y="165.3" class="st6" width="13" height="2.1"/>
				</g>
				<g>
					<g>
						<path class="st6" d="M317.7,185.2h-9.9c-1.3,0-2.4-1.1-2.4-2.4v-27c0-1.3,1.1-2.4,2.4-2.4h9.9c1.3,0,2.4,1.1,2.4,2.4v27
							C320.1,184.2,319,185.2,317.7,185.2z"/>
						<g>
							<line class="st6" x1="305.3" y1="156.8" x2="320.1" y2="156.8"/>
							<line class="st6" x1="305.3" y1="181.2" x2="320.1" y2="181.2"/>
						</g>
						<circle class="st6" cx="312.7" cy="183.2" r="0.7"/>
					</g>
					<g>
						<path class="st7" d="M311.1,164.4v2.6h-2.6v-2.6H311.1 M312.1,163.4h-4.6v4.6h4.6V163.4L312.1,163.4z"/>
						<rect x="309.1" y="164.9" class="st7" width="1.5" height="1.5"/>
						<rect x="313.1" y="168.9" class="st7" width="0.9" height="0.9"/>
						<rect x="313.1" y="168.9" class="st7" width="0.9" height="0.9"/>
						<rect x="314.9" y="168.9" class="st7" width="0.9" height="0.9"/>
						<rect x="316.7" y="168.9" class="st7" width="0.9" height="0.9"/>
						<rect x="314" y="169.9" class="st7" width="0.9" height="0.9"/>
						<rect x="315.8" y="169.9" class="st7" width="0.9" height="0.9"/>
						<rect x="313.1" y="170.8" class="st7" width="0.9" height="0.9"/>
						<rect x="313.1" y="170.8" class="st7" width="0.9" height="0.9"/>
						<rect x="314.9" y="170.8" class="st7" width="0.9" height="0.9"/>
						<rect x="316.7" y="170.8" class="st7" width="0.9" height="0.9"/>
						<rect x="314" y="171.7" class="st7" width="0.9" height="0.9"/>
						<rect x="315.8" y="171.7" class="st7" width="0.9" height="0.9"/>
						<rect x="313.1" y="172.6" class="st7" width="0.9" height="0.9"/>
						<rect x="313.1" y="172.6" class="st7" width="0.9" height="0.9"/>
						<rect x="314.9" y="172.6" class="st7" width="0.9" height="0.9"/>
						<rect x="316.7" y="172.6" class="st7" width="0.9" height="0.9"/>
						<path class="st7" d="M311.1,170v2.6h-2.6V170H311.1 M312.1,168.9h-4.6v4.6h4.6V168.9L312.1,168.9z"/>
						<rect x="309.1" y="170.5" class="st7" width="1.5" height="1.5"/>
						<path class="st7" d="M316.6,164.4v2.6h-2.6v-2.6H316.6 M317.7,163.4h-4.6v4.6h4.6V163.4L317.7,163.4z"/>
						<rect x="314.6" y="164.9" class="st7" width="1.5" height="1.5"/>
					</g>
				</g>
			</g>
		</g>
		<g>
			<g>
				<path class="st6" d="M500,168.7h-36c-1.3,0-2.3-1-2.3-2.3v-21.1c0-1.3,1-2.3,2.3-2.3h36c1.3,0,2.3,1,2.3,2.3v21.1
					C502.3,167.6,501.3,168.7,500,168.7z"/>
				<line class="st6" x1="475.3" y1="174.9" x2="488.7" y2="174.9"/>
				<polygon class="st6" points="484.4,168.7 479.7,168.7 477.9,174.9 486.1,174.9 				"/>
				<line class="st6" x1="502.3" y1="166.3" x2="461.8" y2="166.3"/>
				<line class="st6" x1="502.3" y1="145.2" x2="461.8" y2="145.2"/>
			</g>
			<line class="st6" x1="481" y1="160.3" x2="483" y2="162.2"/>
			<polyline class="st6" points="481,162.1 481,160.2 482.8,160.2 			"/>
		</g>
		<g>
			<g>
				<g>
					<g>
						<circle class="st6" cx="559.7" cy="170.9" r="0.5"/>
						<path class="st6" d="M567.9,172.5h-16.4c-1.3,0-2.4-1.1-2.4-2.4v-23.6c0-1.3,1.1-2.4,2.4-2.4h16.4c1.3,0,2.4,1.1,2.4,2.4v23.6
							C570.3,171.4,569.2,172.5,567.9,172.5z"/>
						<line class="st6" x1="549.2" y1="145.8" x2="570.3" y2="145.8"/>
						<line class="st6" x1="549.2" y1="169.2" x2="570.3" y2="169.2"/>
					</g>
					<g>
						<path class="st6" d="M562.5,159c-0.5-0.3-0.7-0.6-0.8-1.2c0-0.5,0.2-1,0.6-1.3l0.1-0.1c0,0,0-0.1-0.1-0.2
							c-0.3-0.3-0.7-0.5-1.2-0.5c-0.1,0-0.2,0-0.3,0c-0.4,0.1-0.7,0.3-1.1,0.3c-0.1,0-0.2,0-0.3-0.1c-0.3-0.1-0.6-0.2-0.9-0.2
							c0,0-0.1,0-0.1,0c-0.4,0-0.8,0.2-1.1,0.5c-0.6,0.6-0.6,1.4-0.5,2.2c0.1,0.7,0.5,1.4,0.9,1.9c0.2,0.3,0.6,0.5,0.9,0.5
							c0.2,0,0.4-0.1,0.6-0.2c0.2-0.1,0.4-0.1,0.6-0.1c0.2,0,0.4,0,0.6,0.1c0.1,0,0.2,0.1,0.3,0.1c0.1,0,0.2,0.1,0.3,0.1
							c0.2,0,0.4-0.1,0.5-0.2c0.5-0.3,0.8-0.9,1-1.3c0,0,0-0.1,0.1-0.1C562.7,159.1,562.6,159,562.5,159z"/>
						<path class="st6" d="M559.8,154.7C559.8,154.7,559.8,154.7,559.8,154.7C559.8,154.7,559.8,154.7,559.8,154.7
							c1.1-0.2,1.2-1,1.2-1.3c0,0,0-0.1-0.1-0.1c0,0,0,0,0,0c0,0,0,0,0,0C559.8,153.6,559.7,154.4,559.8,154.7
							C559.7,154.7,559.7,154.7,559.8,154.7z"/>
					</g>
				</g>
				<g>
					<g>
						<path class="st6" d="M582.7,172.5h-6.1c-1.3,0-2.4-1.1-2.4-2.4v-18.7c0-1.3,1.1-2.4,2.4-2.4h6.1c1.3,0,2.4,1.1,2.4,2.4v18.7
							C585.1,171.4,584,172.5,582.7,172.5z"/>
						<g>
							<line class="st6" x1="574.2" y1="151.4" x2="585.1" y2="151.4"/>
							<line class="st6" x1="574.2" y1="169.5" x2="585.1" y2="169.5"/>
						</g>
						<circle class="st6" cx="579.6" cy="171" r="0.5"/>
					</g>
					<g>
						<g>
							<path class="st6" d="M577.1,162.1c0,0.2-0.2,0.4-0.4,0.4s-0.4-0.2-0.4-0.4v-2.3c0-0.2,0.2-0.4,0.4-0.4s0.4,0.2,0.4,0.4V162.1
								z"/>
							<path class="st6" d="M582.8,162.1c0,0.2-0.2,0.4-0.4,0.4c-0.2,0-0.4-0.2-0.4-0.4v-2.3c0-0.2,0.2-0.4,0.4-0.4
								c0.2,0,0.4,0.2,0.4,0.4V162.1z"/>
						</g>
						<path class="st6" d="M577.5,159.5h4.3v3.5H581v1.4c0,0.2-0.2,0.4-0.4,0.4s-0.4-0.2-0.4-0.4V163h-1.4v1.4
							c0,0.2-0.2,0.4-0.4,0.4s-0.4-0.2-0.4-0.4V163h-0.7V159.5z"/>
						<path class="st6" d="M581.7,159.1h-4.3v-0.6c0-0.6,0.5-1.1,1.1-1.1v-0.7c0-0.2,0.2-0.4,0.4-0.4s0.4,0.2,0.4,0.4v0.7h0.7v-0.7
							c0-0.2,0.2-0.4,0.4-0.4s0.4,0.2,0.4,0.4v0.7c0.6,0,1.1,0.5,1.1,1.1V159.1z"/>
					</g>
				</g>
			</g>
		</g>
		<g>
			<g>
				<path class="st6" d="M735.4,160.7c-0.3-0.3-0.5-0.5-0.8-0.8c-0.1-0.1-0.2-0.2-0.3-0.3c-0.4-0.4-1.1-0.4-1.5,0
					c-0.3,0.2-0.5,0.5-0.8,0.8c0,0,0,0,0,0c0,0,0,0,0,0c0,0,0,0,0,0c0,0-0.1,0-0.1,0c0,0-0.1,0-0.1,0c0,0-0.1,0-0.1,0c0,0,0,0,0,0
					c0,0-0.1,0-0.1,0c0,0-0.1,0-0.1,0c-0.1,0-0.2,0-0.2-0.1c0,0-0.1,0-0.1,0c0,0,0,0,0,0c0,0,0,0,0,0c-0.2-0.1-0.3-0.2-0.5-0.3
					c-0.2-0.1-0.4-0.2-0.5-0.3c-0.4-0.3-0.7-0.6-1-1c-0.1-0.1-0.2-0.3-0.3-0.4c-0.1-0.2-0.2-0.4-0.3-0.5c0,0,0,0,0-0.1
					c0,0,0-0.1,0-0.1c0-0.1-0.1-0.1-0.1-0.2c0-0.1,0-0.1,0-0.2c0,0,0,0,0,0c0,0,0-0.1,0-0.1c0-0.1,0-0.1,0-0.2c0,0,0,0,0,0
					c0,0,0-0.1,0-0.1c0,0,0,0,0,0c0,0,0,0,0,0c0,0,0,0,0,0c0,0,0,0,0,0c0.1-0.1,0.3-0.3,0.4-0.4c0.1-0.1,0.2-0.2,0.4-0.4
					c0.4-0.4,0.4-1.1,0-1.5c-0.3-0.3-0.6-0.6-0.8-0.8c-0.1-0.1-0.2-0.2-0.3-0.3c-0.4-0.4-1-0.4-1.4-0.1c-0.4,0.2-0.6,0.6-0.9,0.9
					c-0.3,0.3-0.6,0.6-0.8,1.1c-0.2,0.6-0.2,1.2,0,1.8c0.2,0.7,0.5,1.4,0.9,2.1c1,1.6,2.3,2.9,3.9,3.9c0.6,0.4,1.3,0.7,2.1,0.9
					c0.6,0.1,1.3,0.2,1.9,0c0.3-0.1,0.6-0.3,0.8-0.5c0,0,0-0.1,0-0.1c0.3-0.3,0.5-0.5,0.8-0.8c0.1-0.1,0.2-0.2,0.3-0.3
					C735.8,161.7,735.8,161.1,735.4,160.7z M728.2,157.1C728.2,157,728.2,157,728.2,157.1L728.2,157.1z"/>
				<path class="st6" d="M734.1,149.8c-1.6-0.8-3.4-1.1-5.2-0.9c-1.8,0.2-3.5,0.9-4.9,2.1c-3,2.4-4.2,6.4-3.1,10
					c0.1,0.4,0.3,0.8,0.5,1.2c-0.5,0.9-1,1.9-1.5,2.8c-0.1,0.1-0.2,0.3-0.2,0.4c-0.2,0.5,0.2,1.1,0.7,0.9c1.1-0.3,2.2-0.6,3.3-0.8
					c0.1,0,0.1,0,0.2,0c1.5,1.3,3.4,2.1,5.3,2.3c1.8,0.2,3.7-0.2,5.3-1.1c3.1-1.7,5.1-5.1,5-8.6
					C739.4,154.7,737.3,151.3,734.1,149.8z"/>
			</g>
		</g>
		<g>
			<g>
				<path class="st8" d="M652.4,153.3l0.2-0.2c-1.2-4.3-3.8-6.4-7.7-6.4c-3.9,0-6.5,2.1-7.7,6.4l0.2,0.2l-0.1,5.7
					c-1,1.5-2.9,0.3-2.9-0.6c0-1.5,0-3,0-4.3c0-0.8,0.5-1.2,1.4-1.4c2-9.6,15.8-10.4,18.2-0.3c1.1,0,1.7,0.4,1.8,1.3l-0.1,4.2
					c0,0.7-0.3,1.2-1,1.5c-0.9,3.8-3.7,6.1-8.4,6.8c-0.1,0.8-0.8,1.3-1.6,1.3c-0.9,0-1.6-0.7-1.6-1.6c0-0.9,0.7-1.6,1.6-1.6
					c0.6,0,1.2,0.4,1.5,0.9c4.3-0.6,6.8-2.5,7.4-5.8c-0.3,0.1-0.6-0.1-1.1-0.7L652.4,153.3z"/>
			</g>
		</g>
		<g>
			<line class="st9" x1="303.8" y1="547" x2="326.5" y2="547"/>
			<line class="st9" x1="303.8" y1="544.7" x2="326.5" y2="544.7"/>
			<path class="st9" d="M319.7,532.9c-1-0.9-2.7-1.4-4.6-1.4c-1.9,0-3.6,0.6-4.6,1.4h-6.7v6.3v7.8h22.7v-7.8v-6.3H319.7z"/>
			<path class="st9" d="M315.1,537.3c0.2,0,0.3-0.1,0.3-0.2l0.2-2c0-0.2-0.2-0.4-0.5-0.4c-0.3,0-0.5,0.2-0.5,0.4l0.2,2
				C314.8,537.2,314.9,537.3,315.1,537.3L315.1,537.3z"/>
			<path class="st9" d="M314,537.9c0.1-0.2,0.1-0.3,0-0.4l-1.6-1.2c-0.2-0.1-0.4,0-0.6,0.3c-0.1,0.3-0.1,0.5,0.1,0.6l1.8,0.8
				C313.8,538.2,313.9,538.1,314,537.9L314,537.9z"/>
			<path class="st9" d="M316.2,537.9c0.1,0.2,0.2,0.2,0.4,0.2l1.8-0.8c0.2-0.1,0.2-0.4,0.1-0.6c-0.1-0.3-0.4-0.4-0.6-0.3l-1.6,1.2
				C316.1,537.6,316.1,537.8,316.2,537.9L316.2,537.9z"/>
			<path class="st9" d="M315.1,539.8c0.2,0,0.3,0.1,0.3,0.2l0.2,2c0,0.2-0.2,0.4-0.5,0.4c-0.3,0-0.5-0.2-0.5-0.4l0.2-2
				C314.8,539.9,314.9,539.8,315.1,539.8L315.1,539.8z"/>
			<path class="st9" d="M316.2,539.2c0.1-0.2,0.2-0.2,0.4-0.2l1.8,0.8c0.2,0.1,0.2,0.4,0.1,0.6c-0.1,0.3-0.4,0.4-0.6,0.3l-1.6-1.2
				C316.1,539.5,316.1,539.4,316.2,539.2L316.2,539.2z"/>
			<path class="st9" d="M314,539.2c0.1,0.2,0.1,0.3,0,0.4l-1.6,1.2c-0.2,0.1-0.4,0-0.6-0.3c-0.1-0.3-0.1-0.5,0.1-0.6l1.8-0.8
				C313.8,539,313.9,539,314,539.2L314,539.2z"/>
			<rect x="303.8" y="559.9" class="st9" width="22.7" height="14.3"/>
			<rect x="303.8" y="557.6" class="st9" width="22.7" height="2.3"/>
			<line class="st9" x1="305.2" y1="547" x2="305.2" y2="557.6"/>
			<line class="st9" x1="325.1" y1="547" x2="325.1" y2="557.6"/>
			<line class="st9" x1="306.3" y1="547" x2="306.3" y2="557.6"/>
			<line class="st9" x1="323.9" y1="547" x2="323.9" y2="557.6"/>
		</g>
		<g>
			<path class="st9" d="M470.7,551.9l-3.3,5.2l-3.8,1.5l0-0.5l2.9-1.5l2.5-4.9l0,0c0.2-0.3,0.5-0.5,0.8-0.5h0.7V551.9z"/>
			<polygon class="st9" points="466,555.9 463.5,557.5 460,557.5 460,551.5 466,551.5 			"/>
			<path class="st9" d="M458.5,559h-27.7l4-8.5c0.2-0.5,0.7-0.8,1.2-0.8h17.3c0.5,0,1,0.3,1.2,0.8L458.5,559z"/>
			<path class="st9" d="M463.2,559.9c0-0.5-0.4-1-1-1h-2.6h-29.9h-2.6c-0.5,0-1,0.4-1,1v1c0,0.5,0.4,1,1,1h2.6v8.4
				c0,0.4,0.3,0.7,0.7,0.7h28.4c0.4,0,0.7-0.3,0.7-0.7v-8.4h2.6c0.5,0,1-0.4,1-1V559.9z"/>
			<path class="st9" d="M435,575.1h-2.1c-1.1,0-2.1-0.9-2.1-2.1v-2h6.3v2C437.1,574.2,436.1,575.1,435,575.1z"/>
			<path class="st9" d="M456.5,575.1h-2.1c-1.1,0-2.1-0.9-2.1-2.1v-2h6.3v2C458.5,574.2,457.6,575.1,456.5,575.1z"/>
			<line class="st9" x1="438.7" y1="564.7" x2="450.7" y2="564.7"/>
			<line class="st9" x1="432.8" y1="561.8" x2="456.5" y2="561.8"/>
			<line class="st9" x1="438.7" y1="566.1" x2="450.7" y2="566.1"/>
			<line class="st9" x1="438.7" y1="567.6" x2="450.7" y2="567.6"/>
			<path class="st9" d="M456.6,559h-23.9l3.4-7.2c0.2-0.4,0.6-0.6,1-0.6h15.1c0.4,0,0.8,0.2,1,0.6L456.6,559z"/>
			<path class="st9" d="M451.6,559c0-1.7-1.4-3-3-3c-1.7,0-3,1.4-3,3"/>
			<path class="st9" d="M435.4,566.1c0-0.8-0.7-1.5-1.5-1.5c-0.8,0-1.5,0.7-1.5,1.5s0.7,1.5,1.5,1.5
				C434.7,567.6,435.4,567,435.4,566.1z"/>
			<path class="st9" d="M457,566.1c0-0.8-0.7-1.5-1.5-1.5c-0.8,0-1.5,0.7-1.5,1.5s0.7,1.5,1.5,1.5C456.3,567.6,457,567,457,566.1z"
				/>
			<polygon class="st9" points="470.7,542.1 458.3,542.1 458.3,543.7 470.7,543.7 470.7,559 467.2,559 467.2,560.6 470.7,560.6 
				470.7,575.1 475.4,575.1 475.4,543.7 475.4,542.1 			"/>
			<path class="st9" d="M470.7,549.3c-0.1,0-0.1,0-0.2,0c-0.9,0-1.6-0.7-1.6-1.6v-0.5c0-0.2,0.1-0.5,0.2-0.7H468v-0.9h2.7"/>
			<line class="st9" x1="469.5" y1="553.8" x2="470.7" y2="557.5"/>
			<rect x="462.3" y="551.5" class="st9" width="1.5" height="2.1"/>
			<rect x="462.3" y="554.5" class="st9" width="1.5" height="1"/>
		</g>
		<g>
			<rect x="569.1" y="542.1" class="st9" width="38.4" height="29"/>
			<polygon class="st9" points="607.5,571.1 625,571.1 625,556.3 618.9,548 607.5,548 			"/>
			<path class="st9" d="M583.4,571.1c0-1.1-0.9-2-2-2c-1.1,0-2,0.9-2,2c0,1.1,0.9,2,2,2C582.5,573.1,583.4,572.2,583.4,571.1z"/>
			<path class="st9" d="M585.5,571.1c0-2.2-1.8-4-4-4c-2.2,0-4,1.8-4,4c0,2.2,1.8,4,4,4C583.6,575.1,585.5,573.3,585.5,571.1z"/>
			<path class="st9" d="M618.2,571.1c0-1.1-0.9-2-2-2c-1.1,0-2,0.9-2,2c0,1.1,0.9,2,2,2C617.3,573.1,618.2,572.2,618.2,571.1z"/>
			<path class="st9" d="M620.3,571.1c0-2.2-1.8-4-4-4c-2.2,0-4,1.8-4,4c0,2.2,1.8,4,4,4C618.5,575.1,620.3,573.3,620.3,571.1z"/>
			<line class="st9" x1="602.5" y1="548" x2="575.9" y2="548"/>
			<line class="st9" x1="602.5" y1="551.5" x2="588.8" y2="551.5"/>
			<polyline class="st9" points="625,559 613.1,559 613.1,548 			"/>
			<rect x="621" y="563.9" class="st9" width="3.9" height="2.7"/>
			<rect x="569.1" y="563.9" class="st9" width="3.9" height="2.7"/>
		</g>
		<g>
			<g>
				<g>
					<g>
						<path class="st6" d="M84.6,183.5v-8.6c0-1.1-0.7-2.1-1.7-2.4v-1.9h-1.7v1.9c-1,0.4-1.7,1.3-1.7,2.4v8.6H84.6z"/>
						<path class="st6" d="M89.8,183.5v-8.6c0-1.1-0.7-2.1-1.7-2.4v-1.9h-1.7v1.9c-1,0.4-1.7,1.3-1.7,2.4v8.6H89.8z"/>
						<path class="st6" d="M94.9,183.5v-8.6c0-1.1-0.7-2.1-1.7-2.4v-1.9h-1.7v1.9c-1,0.4-1.7,1.3-1.7,2.4v8.6H94.9z"/>
						<path class="st6" d="M100,183.5v-8.6c0-1.1-0.7-2.1-1.7-2.4v-1.9h-1.7v1.9c-1,0.4-1.7,1.3-1.7,2.4v8.6H100z"/>
					</g>
					<g>
						<rect x="65.8" y="180.1" class="st6" width="4.3" height="3.4"/>
						<rect x="61.5" y="180.1" class="st6" width="4.3" height="3.4"/>
						<rect x="70.1" y="180.1" class="st6" width="4.3" height="3.4"/>
						<rect x="70.1" y="176.6" class="st6" width="4.3" height="3.4"/>
						<rect x="65.8" y="176.6" class="st6" width="4.3" height="3.4"/>
						<rect x="61.5" y="176.6" class="st6" width="4.3" height="3.4"/>
						<rect x="57.3" y="176.6" class="st6" width="4.3" height="3.4"/>
						<rect x="57.3" y="180.1" class="st6" width="4.3" height="3.4"/>
					</g>
				</g>
				<g>
					<g>
						<path class="st6" d="M60.7,165.5h-3.4v-7.3l0.6-0.6c0.2-0.2,0.3-0.4,0.3-0.6v-2.6h1.7v2.6c0,0.2,0.1,0.4,0.3,0.6l0.6,0.6
							V165.5z"/>
						<path class="st6" d="M64.1,165.5h-3.4v-7.3l0.6-0.6c0.2-0.2,0.3-0.4,0.3-0.6v-2.6h1.7v2.6c0,0.2,0.1,0.4,0.3,0.6l0.6,0.6
							V165.5z"/>
						<path class="st6" d="M67.5,165.5h-3.4v-7.3l0.6-0.6c0.2-0.2,0.3-0.4,0.3-0.6v-2.6h1.7v2.6c0,0.2,0.1,0.4,0.3,0.6l0.6,0.6
							V165.5z"/>
						<path class="st6" d="M70.9,165.5h-3.4v-7.3l0.6-0.6c0.2-0.2,0.3-0.4,0.3-0.6v-2.6h1.7v2.6c0,0.2,0.1,0.4,0.3,0.6l0.6,0.6
							V165.5z"/>
						<path class="st6" d="M74.4,165.5h-3.4v-7.3l0.6-0.6c0.2-0.2,0.3-0.4,0.3-0.6v-2.6h1.7v2.6c0,0.2,0.1,0.4,0.3,0.6l0.6,0.6
							V165.5z"/>
						<path class="st6" d="M77.8,165.5h-3.4v-7.3l0.6-0.6c0.2-0.2,0.3-0.4,0.3-0.6v-2.6h1.7v2.6c0,0.2,0.1,0.4,0.3,0.6l0.6,0.6
							V165.5z"/>
					</g>
					<g>
						<rect x="88" y="157.6" class="st6" width="1.7" height="7.9"/>
						<rect x="91.5" y="157.6" class="st6" width="1.7" height="7.9"/>
						<rect x="94.9" y="157.6" class="st6" width="1.7" height="7.9"/>
						<rect x="98.3" y="157.6" class="st6" width="1.7" height="7.9"/>
					</g>
				</g>
				<polygon class="st6" points="53,165.5 53.8,165.5 59,165.5 62.4,165.5 67.5,165.5 70.9,165.5 76.1,165.5 84.6,165.5 88,165.5 
					91.5,165.5 94.9,165.5 98.3,165.5 104.3,165.5 104.3,167.2 53,167.2 				"/>
				<g>
					<g>
						<rect x="96.4" y="141.6" class="st6" width="2.8" height="7.7"/>
						<rect x="91.8" y="141.6" class="st6" width="2.8" height="7.7"/>
						<rect x="87.2" y="141.6" class="st6" width="2.8" height="7.7"/>
					</g>
					<g>
						<rect x="71.8" y="144.2" class="st6" width="3.4" height="5.1"/>
						<rect x="68.4" y="142" class="st6" width="3.4" height="7.2"/>
						<rect x="65" y="142" class="st6" width="3.4" height="7.2"/>
						<rect x="61.5" y="144.2" class="st6" width="3.4" height="5.1"/>
						<rect x="58.1" y="144.2" class="st6" width="3.4" height="5.1"/>
					</g>
				</g>
				<polygon class="st6" points="104.3,151 53,151 53,149.3 56.4,149.3 61.5,149.3 66.7,149.3 71.8,149.3 76.9,149.3 82.1,149.3 
					89.8,149.3 94,149.3 98.3,149.3 102.6,149.3 104.3,149.3 				"/>
				<g>
					<polygon class="st6" points="104.3,185.4 53,185.4 53,183.5 59,183.5 65,183.5 70.9,183.5 76.9,183.5 80.4,183.5 83.8,183.5 
						87.2,183.5 90.6,183.5 94,183.5 97.5,183.5 100.9,183.5 104.3,183.5 					"/>
					<g>
						<rect x="54.7" y="185.4" class="st6" width="1.7" height="2.3"/>
						<rect x="100.9" y="185.4" class="st6" width="1.7" height="2.3"/>
					</g>
				</g>
			</g>
		</g>
		<g>
			<g>
				<rect x="537.9" y="351" class="st9" width="37.2" height="14.3"/>
				<rect x="536" y="348.7" class="st9" width="41" height="2.3"/>
				<rect x="541.2" y="346.1" class="st9" width="14.2" height="2.6"/>
				<rect x="542.8" y="337.9" class="st9" width="10.9" height="8.2"/>
				<rect x="545.1" y="337.1" class="st9" width="1.1" height="0.8"/>
				<rect x="542.8" y="334.9" class="st9" width="5.7" height="2.2"/>
				<line class="st9" x1="543.8" y1="340.7" x2="546.3" y2="340.7"/>
				<line class="st9" x1="547" y1="340.7" x2="549.5" y2="340.7"/>
				<line class="st9" x1="550.2" y1="340.7" x2="552.7" y2="340.7"/>
				<line class="st9" x1="543.8" y1="341.9" x2="546.3" y2="341.9"/>
				<line class="st9" x1="547" y1="341.9" x2="549.5" y2="341.9"/>
				<line class="st9" x1="550.2" y1="341.9" x2="552.7" y2="341.9"/>
				<line class="st9" x1="543.8" y1="343" x2="546.3" y2="343"/>
				<line class="st9" x1="547" y1="343" x2="549.5" y2="343"/>
				<line class="st9" x1="550.2" y1="343" x2="552.7" y2="343"/>
			</g>
		</g>
		<g>
			<g>
				<g>
					<g>
						<path class="st10" d="M666.9,357.5v-1.1c-0.5,0-1.1-0.2-1.5-0.5l0.2-0.4c0.3,0.3,0.8,0.4,1.3,0.4c0.8,0,1.4-0.5,1.4-1.2
							c0-0.7-0.4-1.1-1.2-1.4c-1-0.4-1.6-0.9-1.6-1.7c0-0.8,0.6-1.4,1.4-1.5V349h0.4v1.1c0.6,0,1,0.2,1.2,0.4l-0.2,0.4
							c-0.2-0.1-0.6-0.4-1.2-0.4c-0.9,0-1.2,0.6-1.2,1.1c0,0.6,0.4,0.9,1.3,1.3c1,0.4,1.5,0.9,1.5,1.8c0,0.8-0.5,1.5-1.5,1.7v1.1
							H666.9z"/>
					</g>
				</g>
				<circle class="st6" cx="646.9" cy="356" r="11.7"/>
				<ellipse class="st6" cx="646.9" cy="356" rx="8" ry="11.7"/>
				<ellipse class="st6" cx="646.9" cy="356" rx="3.4" ry="11.7"/>
				<ellipse class="st6" cx="646.9" cy="356" rx="11.7" ry="7.2"/>
				<line class="st6" x1="635.1" y1="356" x2="658.6" y2="356"/>
				<circle class="st6" cx="667.3" cy="353.1" r="8.7"/>
				<circle class="st6" cx="667.3" cy="353.1" r="6.8"/>
			</g>
		</g>
		<g>
			<g>
				<g>
					<g>
						<path class="st10" d="M337.1,357.4v-1.1c-0.5,0-1.1-0.2-1.5-0.5l0.2-0.4c0.3,0.3,0.8,0.4,1.3,0.4c0.8,0,1.4-0.5,1.4-1.2
							c0-0.7-0.4-1.1-1.2-1.4c-1-0.4-1.6-0.9-1.6-1.7c0-0.8,0.6-1.4,1.4-1.5V349h0.4v1.1c0.6,0,1,0.2,1.2,0.4l-0.2,0.4
							c-0.2-0.1-0.6-0.4-1.2-0.4c-0.9,0-1.2,0.6-1.2,1.1c0,0.6,0.4,0.9,1.3,1.3c1,0.4,1.5,0.9,1.5,1.8c0,0.8-0.5,1.5-1.5,1.7v1.1
							H337.1z"/>
					</g>
				</g>
				<circle class="st6" cx="317" cy="356" r="11.7"/>
				<ellipse class="st6" cx="317" cy="356" rx="8" ry="11.7"/>
				<ellipse class="st6" cx="317" cy="356" rx="3.4" ry="11.7"/>
				<ellipse class="st6" cx="317" cy="356" rx="11.7" ry="7.2"/>
				<line class="st6" x1="305.3" y1="356" x2="328.8" y2="356"/>
				<circle class="st6" cx="337.4" cy="353" r="8.7"/>
				<circle class="st6" cx="337.4" cy="353" r="6.8"/>
			</g>
		</g>
		<g>
			<g>
				<path class="st11" d="M203.3,555.6l-3.4-2l-0.2-0.1 M192.9,557l0.6-6.9l1.2-2.7 M200.7,575.1l-1.3-7.1 M201.6,564.1l1.6,11
					 M195.4,558l-4.7-6.7c0-0.4,0.1-0.7,0.2-1l2.2-5.7c0.7-1.5,2.4-2.2,3.9-2.1c1.9,0.1,3.4,2.8,3,4.5l-2.1,9.7 M190.6,568.1
					l-2.3,7.1 M190.6,575.1l2.3-6.9 M200.4,534.7c-0.4-0.8-1.3-1.3-2.4-1.4c-2.9-0.3-3.8,1.6-3.4,4.2c0.3,1.6,1.1,2.8,2.8,3
					c1.3,0.2,2.4-0.3,2.9-1.7C200.7,537.9,201,535.7,200.4,534.7L200.4,534.7z M194.6,537.1c-0.6,1.7-2.1,1.1-2.1,1.1
					c-0.3,1-0.1,1.7,0.1,2c0.6,1,2.3,0.8,2.7,0.8 M194.6,537.6c2.7,1.4,2.7-3.3,6.1-1.4"/>
				<g>
					<polygon class="st12" points="200.8,556.8 190,556.8 188.9,568.1 201.9,568.1 200.8,556.8 					"/>
					<path class="st12" d="M197.9,558.2c0,0,0,0.3,0-1.2c0-0.7-0.3-1.3-0.7-1.7c-0.5-0.5-1.1-0.7-1.7-0.7c0,0,0,0,0,0
						c-0.7,0-1.3,0.3-1.7,0.7c-0.5,0.5-0.7,1.1-0.7,1.7c0,1.5,0,1.2,0,1.2"/>
				</g>
			</g>
		</g>
		<g>
			<g>
				<rect x="45.2" y="355.6" class="st9" width="37.2" height="14.3"/>
				<rect x="43.3" y="353.3" class="st9" width="41" height="2.3"/>
				<rect x="48.5" y="350.7" class="st9" width="14.2" height="2.6"/>
				<rect x="50.1" y="342.5" class="st9" width="10.9" height="8.2"/>
				<rect x="52.4" y="341.7" class="st9" width="1.1" height="0.8"/>
				<rect x="50.1" y="339.5" class="st9" width="5.7" height="2.2"/>
				<line class="st9" x1="51.1" y1="345.2" x2="53.6" y2="345.2"/>
				<line class="st9" x1="54.3" y1="345.2" x2="56.8" y2="345.2"/>
				<line class="st9" x1="57.5" y1="345.2" x2="60" y2="345.2"/>
				<line class="st9" x1="51.1" y1="346.4" x2="53.6" y2="346.4"/>
				<line class="st9" x1="54.3" y1="346.4" x2="56.8" y2="346.4"/>
				<line class="st9" x1="57.5" y1="346.4" x2="60" y2="346.4"/>
				<line class="st9" x1="51.1" y1="347.6" x2="53.6" y2="347.6"/>
				<line class="st9" x1="54.3" y1="347.6" x2="56.8" y2="347.6"/>
				<line class="st9" x1="57.5" y1="347.6" x2="60" y2="347.6"/>
			</g>
		</g>
		<g>
			<g>
				<g>
					<path class="st13" d="M148.2,353h-11.7c-0.5,0-0.8,0.4-0.8,0.8v7.9c0,0.5,0.4,0.8,0.8,0.8h10.8c0.5,0,0.8,0.4,0.8,0.8v16.3
						c0,0.5,0.4,0.8,0.8,0.8h8.2c0.5,0,0.8-0.4,0.8-0.8v-17.2v-8.7c0-0.5-0.4-0.8-0.8-0.8H148.2z"/>
					<path class="st13" d="M155.5,361.3h-17.9c-0.4,0-0.7-0.3-0.7-0.7V355c0-0.4,0.3-0.7,0.7-0.7h17.9c0.4,0,0.7,0.3,0.7,0.7v5.6
						C156.2,361,155.9,361.3,155.5,361.3z"/>
					<path class="st13" d="M155.8,364.2h-5.6c-0.2,0-0.4-0.2-0.4-0.4v-0.9c0-0.2,0.2-0.4,0.4-0.4h5.6c0.2,0,0.4,0.2,0.4,0.4v0.9
						C156.2,364,156,364.2,155.8,364.2z"/>
					<line class="st13" x1="148.2" y1="379.2" x2="158.1" y2="379.2"/>
					<g>
						<line class="st14" x1="139" y1="355.6" x2="139" y2="360"/>
						<line class="st14" x1="143.3" y1="355.6" x2="143.3" y2="360"/>
						<line class="st14" x1="144" y1="355.6" x2="144" y2="360"/>
						<line class="st14" x1="146.4" y1="355.6" x2="146.4" y2="360"/>
						<line class="st14" x1="146.9" y1="355.6" x2="146.9" y2="360"/>
						<line class="st14" x1="145.4" y1="355.6" x2="145.4" y2="360"/>
						<line class="st14" x1="150.9" y1="355.6" x2="150.9" y2="360"/>
						<line class="st14" x1="150.4" y1="355.6" x2="150.4" y2="360"/>
						<line class="st14" x1="149.9" y1="355.6" x2="149.9" y2="360"/>
						<line class="st14" x1="154" y1="355.6" x2="154" y2="360"/>
						<line class="st14" x1="140.8" y1="355.6" x2="140.8" y2="360"/>
						<line class="st14" x1="142.5" y1="355.6" x2="142.5" y2="360"/>
						<line class="st14" x1="147.4" y1="355.6" x2="147.4" y2="360"/>
						<line class="st14" x1="152.5" y1="355.6" x2="152.5" y2="360"/>
						<line class="st14" x1="149.3" y1="355.6" x2="149.3" y2="360"/>
					</g>
				</g>
			</g>
		</g>
		<g>
			<g>
				<g>
					<g>
						<polyline class="st13" points="223,366.3 246.3,366.3 244.1,375.8 229.9,375.8 						"/>
						<polyline class="st13" points="222.7,364 227.5,364 229.9,375.9 						"/>
						<line class="st13" x1="228.6" y1="369.7" x2="245.6" y2="369.7"/>
						<line class="st13" x1="231.9" y1="372.5" x2="244.9" y2="372.5"/>
						<line class="st13" x1="237.4" y1="366.3" x2="237.4" y2="375.8"/>
						<line class="st13" x1="242.2" y1="366.3" x2="240.9" y2="375.8"/>
						<line class="st13" x1="232" y1="366.3" x2="232.8" y2="375.8"/>
						<polygon class="st13" points="241.9,362.7 237.4,364.9 233,362.7 233,356.7 237.4,354.4 241.9,356.7 						"/>
						<polygon class="st13" points="241.9,362.7 237.4,364.9 237.4,358.9 241.9,356.7 						"/>
						<polygon class="st13" points="233,362.7 237.4,364.9 237.4,358.9 233,356.7 						"/>
						<polygon class="st13" points="234.5,359.6 235.9,360.2 235.9,358.2 234.5,357.5 						"/>
						<polygon class="st13" points="234.5,361.5 235.9,362.1 235.9,361.2 234.5,360.5 						"/>
						<polygon class="st13" points="238.9,355.2 240.4,355.8 235.9,358.2 234.5,357.5 						"/>
					</g>
					<g>
						<path class="st13" d="M240.6,351.7l-3.3-1c-0.9-0.3-1.6-1.1-1.6-2.1l7.1,1.8L240.6,351.7z"/>
						<path class="st13" d="M252,357l-6,1.3c-0.6,0.1-1.1,0.3-1.6,0.6l-2.3,1.3l-0.1-2.1l1.4-0.8c1-0.6,1.4-1.9,0.8-2.9
							c-0.6-1-1.9-1.4-2.9-0.8l-3.3,1.9c-0.6,0.3-2.6,0.2-3.2-0.4l4.6-2.6l3.6-2l7.4,1.9c0.2,0,0.3,0,0.5-0.1l2.4-1.3l2.3,4.1
							L252,357z"/>
					</g>
				</g>
			</g>
		</g>
		<line class="st15" x1="400.2" y1="5.7" x2="400.2" y2="454.4"/>
		<path class="st16" d="M495.5,502.8h-189c-3.7,0-6.7-3-6.7-6.7v-31.3c0-3.7,3-6.7,6.7-6.7h189c3.7,0,6.7,3,6.7,6.7v31.3
			C502.1,499.8,499.2,502.8,495.5,502.8z"/>
		<path class="st17" d="M495.5,305.6h-189c-3.7,0-6.7-3-6.7-6.7v-31.3c0-3.7,3-6.7,6.7-6.7h189c3.7,0,6.7,3,6.7,6.7v31.3
			C502.1,302.6,499.2,305.6,495.5,305.6z"/>
		<path class="st18" d="M495.5,109.7h-189c-3.7,0-6.7-3-6.7-6.7V71.7c0-3.7,3-6.7,6.7-6.7h189c3.7,0,6.7,3,6.7,6.7v31.3
			C502.1,106.7,499.2,109.7,495.5,109.7z"/>
		<g>
			<g>
				<path class="st19" d="M326.6,498.4c9.3,0,16.8-7.5,16.8-16.8c0-9.3-7.5-16.8-16.8-16.8c-9.3,0-16.8,7.5-16.8,16.8
					C309.8,490.9,317.3,498.4,326.6,498.4"/>
			</g>
		</g>
		<g>
			<g>
				<g>
					<path class="st19" d="M328.8,299.7c9.3,0,16.8-7.5,16.8-16.8c0-9.3-7.5-16.8-16.8-16.8c-9.3,0-16.8,7.5-16.8,16.8
						C312,292.2,319.6,299.7,328.8,299.7"/>
				</g>
			</g>
		</g>
		<g>
			<g>
				<path class="st19" d="M328.9,104.6c9.3,0,16.8-7.5,16.8-16.8c0-9.3-7.5-16.8-16.8-16.8c-9.3,0-16.8,7.5-16.8,16.8
					C312.2,97.1,319.7,104.6,328.9,104.6"/>
			</g>
		</g>
		<g>
			<g>
				<path class="st7" d="M123.3,29.7c0,3.4-2.1,5.5-5.1,5.5c-3.1,0-4.9-2.3-4.9-5.3c0-3.1,2-5.4,5-5.4
					C121.5,24.4,123.3,26.8,123.3,29.7z M115.8,29.8c0,2,1,3.5,2.5,3.5c1.6,0,2.5-1.5,2.5-3.5c0-1.9-0.9-3.5-2.5-3.5
					C116.7,26.3,115.8,27.8,115.8,29.8z"/>
				<path class="st7" d="M134.8,31c0-1.2-0.1-2.8-0.1-4.3h0c-0.3,1.3-0.8,2.8-1.2,4l-1.3,4h-1.8l-1.1-4c-0.3-1.2-0.7-2.7-0.9-4h0
					c-0.1,1.4-0.1,3-0.2,4.3L128,35h-2.2l0.7-10.4h3.1l1,3.5c0.3,1.2,0.6,2.5,0.9,3.7h0c0.3-1.2,0.6-2.6,1-3.7l1.1-3.4h3.1l0.6,10.4
					H135L134.8,31z"/>
				<path class="st7" d="M140.3,35V24.6h2.7l2.2,3.8c0.6,1.1,1.2,2.4,1.7,3.6h0c-0.2-1.4-0.2-2.8-0.2-4.3v-3h2.2V35h-2.5l-2.2-4
					c-0.6-1.1-1.3-2.4-1.8-3.7l0,0c0.1,1.4,0.1,2.8,0.1,4.5V35H140.3z"/>
				<path class="st7" d="M154.5,24.6V35h-2.4V24.6H154.5z"/>
				<path class="st7" d="M165.4,34.7c-0.4,0.2-1.4,0.4-2.7,0.4c-3.6,0-5.4-2.2-5.4-5.2c0-3.5,2.5-5.5,5.7-5.5c1.2,0,2.1,0.2,2.6,0.5
					l-0.5,1.9c-0.5-0.2-1.1-0.4-2-0.4c-1.9,0-3.3,1.1-3.3,3.4c0,2.1,1.2,3.4,3.3,3.4c0.7,0,1.5-0.2,2-0.3L165.4,34.7z"/>
				<path class="st7" d="M170.5,24.6v4h3.9v-4h2.3V35h-2.3v-4.3h-3.9V35h-2.4V24.6H170.5z"/>
				<path class="st7" d="M182.4,32.3l-0.7,2.7h-2.4l3.2-10.4h3.1l3.2,10.4h-2.5l-0.8-2.7H182.4z M185,30.6l-0.6-2.2
					c-0.2-0.6-0.4-1.4-0.5-2h0c-0.2,0.6-0.3,1.4-0.5,2l-0.6,2.2H185z"/>
				<path class="st7" d="M191.3,35V24.6h2.7l2.2,3.8c0.6,1.1,1.2,2.4,1.7,3.6h0c-0.2-1.4-0.2-2.8-0.2-4.3v-3h2.2V35h-2.5l-2.2-4
					c-0.6-1.1-1.3-2.4-1.8-3.7l0,0c0.1,1.4,0.1,2.8,0.1,4.5V35H191.3z"/>
				<path class="st7" d="M203.2,35V24.6h2.7l2.2,3.8c0.6,1.1,1.2,2.4,1.7,3.6h0c-0.2-1.4-0.2-2.8-0.2-4.3v-3h2.2V35h-2.5l-2.2-4
					c-0.6-1.1-1.3-2.4-1.8-3.7l0,0c0.1,1.4,0.1,2.8,0.1,4.5V35H203.2z"/>
				<path class="st7" d="M221.2,30.6h-3.8v2.5h4.3V35H215V24.6h6.4v1.9h-4v2.2h3.8V30.6z"/>
				<path class="st7" d="M224.5,24.6h2.4V33h4.1v2h-6.5V24.6z"/>
				<path class="st7" d="M238,32.6c0.6,0.3,1.6,0.6,2.6,0.6c1.1,0,1.6-0.4,1.6-1.1c0-0.6-0.5-1-1.7-1.5c-1.7-0.6-2.8-1.6-2.8-3.1
					c0-1.8,1.5-3.1,3.9-3.1c1.2,0,2,0.2,2.6,0.5l-0.5,1.9c-0.4-0.2-1.2-0.5-2.2-0.5s-1.5,0.5-1.5,1c0,0.7,0.6,1,1.9,1.5
					c1.8,0.7,2.7,1.6,2.7,3.1c0,1.7-1.3,3.2-4.2,3.2c-1.2,0-2.4-0.3-2.9-0.6L238,32.6z"/>
				<path class="st7" d="M249.5,26.6h-2.8v-2h8v2h-2.8V35h-2.4V26.6z"/>
				<path class="st7" d="M266.2,29.7c0,3.4-2.1,5.5-5.1,5.5c-3.1,0-4.9-2.3-4.9-5.3c0-3.1,2-5.4,5-5.4
					C264.4,24.4,266.2,26.8,266.2,29.7z M258.7,29.8c0,2,1,3.5,2.5,3.5c1.6,0,2.5-1.5,2.5-3.5c0-1.9-0.9-3.5-2.5-3.5
					C259.6,26.3,258.7,27.8,258.7,29.8z"/>
				<path class="st7" d="M268.9,24.7c0.8-0.1,1.9-0.2,3.1-0.2c1.5,0,2.6,0.2,3.4,0.8c0.6,0.5,1,1.2,1,2.2c0,1.3-0.9,2.2-1.8,2.6v0
					c0.7,0.3,1.1,1,1.4,1.9c0.3,1.2,0.6,2.5,0.8,2.9h-2.4c-0.2-0.3-0.4-1.1-0.7-2.4c-0.3-1.3-0.7-1.6-1.7-1.7h-0.7V35h-2.3V24.7z
					 M271.3,29.2h0.9c1.2,0,1.9-0.6,1.9-1.5c0-1-0.6-1.4-1.7-1.4c-0.6,0-0.9,0-1.1,0.1V29.2z"/>
				<path class="st7" d="M285.5,30.6h-3.8v2.5h4.3V35h-6.6V24.6h6.4v1.9h-4v2.2h3.8V30.6z"/>
			</g>
		</g>
		<g>
			<g>
				<path class="st7" d="M569.1,31.3c0,3.4-2.1,5.5-5.1,5.5c-3.1,0-4.9-2.3-4.9-5.3c0-3.1,2-5.4,5-5.4
					C567.3,26,569.1,28.4,569.1,31.3z M561.6,31.4c0,2,1,3.5,2.5,3.5c1.6,0,2.5-1.5,2.5-3.5c0-1.9-0.9-3.5-2.5-3.5
					C562.5,27.9,561.6,29.4,561.6,31.4z"/>
				<path class="st7" d="M571.8,36.6V26.2h2.7l2.2,3.8c0.6,1.1,1.2,2.4,1.7,3.6h0c-0.2-1.4-0.2-2.8-0.2-4.3v-3h2.2v10.4H578l-2.2-4
					c-0.6-1.1-1.3-2.4-1.8-3.7l0,0c0.1,1.4,0.1,2.8,0.1,4.5v3.1H571.8z"/>
				<path class="st7" d="M583.7,26.2h2.4v8.4h4.1v2h-6.5V26.2z"/>
				<path class="st7" d="M595.2,26.2v10.4h-2.4V26.2H595.2z"/>
				<path class="st7" d="M598.4,36.6V26.2h2.7l2.2,3.8c0.6,1.1,1.2,2.4,1.7,3.6h0c-0.2-1.4-0.2-2.8-0.2-4.3v-3h2.2v10.4h-2.5l-2.2-4
					c-0.6-1.1-1.3-2.4-1.8-3.7l0,0c0.1,1.4,0.1,2.8,0.1,4.5v3.1H598.4z"/>
				<path class="st7" d="M616.4,32.2h-3.8v2.5h4.3v1.9h-6.6V26.2h6.4v1.9h-4v2.2h3.8V32.2z"/>
				<path class="st7" d="M624.1,34.2c0.6,0.3,1.6,0.6,2.6,0.6c1.1,0,1.6-0.4,1.6-1.1c0-0.6-0.5-1-1.7-1.5c-1.7-0.6-2.8-1.6-2.8-3.1
					c0-1.8,1.5-3.1,3.9-3.1c1.2,0,2,0.2,2.6,0.5l-0.5,1.9c-0.4-0.2-1.2-0.5-2.2-0.5c-1,0-1.5,0.5-1.5,1c0,0.7,0.6,1,1.9,1.5
					c1.8,0.7,2.7,1.6,2.7,3.1c0,1.7-1.3,3.2-4.2,3.2c-1.2,0-2.4-0.3-2.9-0.6L624.1,34.2z"/>
				<path class="st7" d="M635.6,28.2h-2.8v-2h8v2H638v8.4h-2.4V28.2z"/>
				<path class="st7" d="M652.3,31.3c0,3.4-2.1,5.5-5.1,5.5c-3.1,0-4.9-2.3-4.9-5.3c0-3.1,2-5.4,5-5.4
					C650.6,26,652.3,28.4,652.3,31.3z M644.8,31.4c0,2,1,3.5,2.5,3.5c1.6,0,2.5-1.5,2.5-3.5c0-1.9-0.9-3.5-2.5-3.5
					C645.7,27.9,644.8,29.4,644.8,31.4z"/>
				<path class="st7" d="M655.1,26.3c0.8-0.1,1.9-0.2,3.1-0.2c1.5,0,2.6,0.2,3.4,0.8c0.6,0.5,1,1.2,1,2.2c0,1.3-0.9,2.2-1.8,2.6v0
					c0.7,0.3,1.1,1,1.4,1.9c0.3,1.2,0.6,2.5,0.8,2.9h-2.4c-0.2-0.3-0.4-1.1-0.7-2.4c-0.3-1.3-0.7-1.6-1.7-1.7h-0.7v4.1h-2.3V26.3z
					 M657.4,30.8h0.9c1.2,0,1.9-0.6,1.9-1.5c0-1-0.6-1.4-1.7-1.4c-0.6,0-0.9,0-1.1,0.1V30.8z"/>
				<path class="st7" d="M671.6,32.2h-3.8v2.5h4.3v1.9h-6.6V26.2h6.4v1.9h-4v2.2h3.8V32.2z"/>
			</g>
		</g>
		<g>
			<g>
				<path class="st1" d="M166.2,200.2h0.6v4.2h0c0.2-0.3,0.5-0.6,0.7-0.9l3-3.4h0.7l-3.2,3.5l3.5,4.8h-0.7l-3.2-4.4l-0.9,0.9v3.5
					h-0.6V200.2z"/>
				<path class="st1" d="M173.5,200.9c0,0.3-0.2,0.5-0.5,0.5c-0.3,0-0.5-0.2-0.5-0.5s0.2-0.5,0.5-0.5S173.5,200.6,173.5,200.9z
					 M172.7,208.5v-6h0.6v6H172.7z"/>
				<path class="st1" d="M180.5,205.5c0,2.2-1.5,3.2-2.9,3.2c-1.5,0-2.7-1.2-2.7-3.1c0-2,1.3-3.2,2.8-3.2
					C179.4,202.5,180.5,203.7,180.5,205.5z M175.5,205.6c0,1.5,1,2.6,2.2,2.6c1.2,0,2.2-1.1,2.2-2.6c0-1.1-0.6-2.6-2.2-2.6
					C176.2,203,175.5,204.3,175.5,205.6z"/>
				<path class="st1" d="M181.9,207.8c0.3,0.2,0.8,0.4,1.3,0.4c0.9,0,1.4-0.5,1.4-1.1c0-0.7-0.4-1-1.3-1.4c-1-0.4-1.5-0.9-1.5-1.6
					c0-0.9,0.7-1.6,1.8-1.6c0.5,0,1,0.2,1.3,0.4l-0.2,0.5c-0.2-0.1-0.6-0.4-1.2-0.4c-0.8,0-1.2,0.5-1.2,1c0,0.6,0.4,0.9,1.2,1.2
					c1,0.4,1.5,0.9,1.5,1.8c0,1-0.8,1.7-2,1.7c-0.6,0-1.1-0.2-1.5-0.4L181.9,207.8z"/>
				<path class="st1" d="M187.5,205.5L187.5,205.5c0.2-0.2,0.4-0.5,0.6-0.7l2.1-2.2h0.7l-2.4,2.5l2.7,3.5h-0.7l-2.4-3.1l-0.6,0.6
					v2.5h-0.6v-8.8h0.6V205.5z"/>
				<path class="st1" d="M192,207.8c0.3,0.2,0.8,0.4,1.3,0.4c0.9,0,1.4-0.5,1.4-1.1c0-0.7-0.4-1-1.3-1.4c-1-0.4-1.5-0.9-1.5-1.6
					c0-0.9,0.7-1.6,1.8-1.6c0.5,0,1,0.2,1.3,0.4l-0.2,0.5c-0.2-0.1-0.6-0.4-1.2-0.4c-0.8,0-1.2,0.5-1.2,1c0,0.6,0.4,0.9,1.2,1.2
					c1,0.4,1.5,0.9,1.5,1.8c0,1-0.8,1.7-2,1.7c-0.6,0-1.1-0.2-1.5-0.4L192,207.8z"/>
			</g>
		</g>
		<g>
			<g>
				<path class="st1" d="M256,204.4h-3.3v3.7h3.7v0.5H252v-8.4h4.1v0.5h-3.5v3.2h3.3V204.4z"/>
				<path class="st1" d="M257.9,202.6l1,1.5c0.2,0.4,0.5,0.7,0.7,1h0c0.2-0.4,0.5-0.7,0.7-1l1-1.5h0.7l-2.1,2.9l2.2,3.1h-0.7
					l-1.1-1.5c-0.3-0.4-0.5-0.7-0.7-1.1h0c-0.2,0.4-0.5,0.7-0.7,1.1l-1,1.5h-0.7l2.2-3l-2.1-2.9H257.9z"/>
				<path class="st1" d="M264.4,201.3v1.3h1.7v0.5h-1.7v3.9c0,0.8,0.2,1.2,0.9,1.2c0.3,0,0.5,0,0.7-0.1l0.1,0.4
					c-0.2,0.1-0.5,0.1-0.8,0.1c-0.4,0-0.8-0.1-1-0.4c-0.3-0.3-0.4-0.8-0.4-1.4v-3.8h-1v-0.5h1v-1.1L264.4,201.3z"/>
				<path class="st1" d="M267.5,205.5c0,1.9,1,2.7,2.3,2.7c0.9,0,1.3-0.2,1.6-0.3l0.1,0.5c-0.2,0.1-0.8,0.4-1.9,0.4
					c-1.7,0-2.8-1.2-2.8-3c0-2,1.1-3.2,2.7-3.2c1.9,0,2.3,1.8,2.3,2.7c0,0.2,0,0.2,0,0.4H267.5z M271.3,205c0-0.8-0.3-2.1-1.8-2.1
					c-1.3,0-1.9,1.2-2,2.1H271.3z"/>
				<path class="st1" d="M273.6,204c0-0.5,0-1,0-1.4h0.6l0,1.1h0c0.3-0.7,1.1-1.2,2-1.2c0.6,0,2.1,0.3,2.1,2.5v3.6h-0.6V205
					c0-1.1-0.4-2.1-1.6-2.1c-0.8,0-1.6,0.6-1.8,1.4c0,0.1-0.1,0.3-0.1,0.5v3.7h-0.6V204z"/>
				<path class="st1" d="M285.1,199.7v7.4c0,0.4,0,1,0,1.4h-0.5l0-1.1h0c-0.3,0.7-1,1.3-2.1,1.3c-1.5,0-2.6-1.2-2.6-3
					c0-2,1.2-3.2,2.7-3.2c1,0,1.7,0.5,1.9,1.1h0v-3.8H285.1z M284.5,204.9c0-0.2,0-0.4-0.1-0.5c-0.2-0.8-0.9-1.5-1.9-1.5
					c-1.3,0-2.1,1.1-2.1,2.7c0,1.3,0.7,2.6,2.1,2.6c0.9,0,1.7-0.6,1.9-1.6c0-0.2,0.1-0.3,0.1-0.5V204.9z"/>
				<path class="st1" d="M287.3,205.5c0,1.9,1,2.7,2.3,2.7c0.9,0,1.3-0.2,1.6-0.3l0.1,0.5c-0.2,0.1-0.8,0.4-1.9,0.4
					c-1.7,0-2.8-1.2-2.8-3c0-2,1.1-3.2,2.7-3.2c1.9,0,2.3,1.8,2.3,2.7c0,0.2,0,0.2,0,0.4H287.3z M291.1,205c0-0.8-0.3-2.1-1.8-2.1
					c-1.3,0-1.9,1.2-2,2.1H291.1z"/>
				<path class="st1" d="M298.1,199.7v7.4c0,0.4,0,1,0,1.4h-0.5l0-1.1h0c-0.3,0.7-1,1.3-2.1,1.3c-1.5,0-2.6-1.2-2.6-3
					c0-2,1.2-3.2,2.7-3.2c1,0,1.7,0.5,1.9,1.1h0v-3.8H298.1z M297.5,204.9c0-0.2,0-0.4-0.1-0.5c-0.2-0.8-0.9-1.5-1.9-1.5
					c-1.3,0-2.1,1.1-2.1,2.7c0,1.3,0.7,2.6,2.1,2.6c0.9,0,1.7-0.6,1.9-1.6c0-0.2,0.1-0.3,0.1-0.5V204.9z"/>
				<path class="st1" d="M307.1,208.3c-0.3,0.1-0.9,0.4-1.7,0.4c-1.7,0-2.9-1.3-2.9-3c0-1.9,1.3-3.2,3.1-3.2c0.7,0,1.3,0.2,1.6,0.4
					l-0.2,0.5c-0.3-0.2-0.7-0.3-1.4-0.3c-1.6,0-2.4,1.2-2.4,2.6c0,1.6,1,2.6,2.4,2.6c0.7,0,1.2-0.2,1.5-0.3L307.1,208.3z"/>
				<path class="st1" d="M312.4,207.1c0,0.5,0,1,0.1,1.4h-0.5l-0.1-0.9h0c-0.3,0.5-1,1-1.9,1c-1.2,0-1.7-0.8-1.7-1.6
					c0-1.4,1.2-2.2,3.6-2.2v-0.2c0-0.6-0.1-1.8-1.5-1.7c-0.5,0-1.1,0.1-1.5,0.4l-0.2-0.4c0.5-0.4,1.2-0.5,1.7-0.5
					c1.7,0,2.1,1.3,2.1,2.3V207.1z M311.8,205.4c-1.3,0-3,0.2-3,1.6c0,0.9,0.6,1.2,1.2,1.2c1,0,1.6-0.6,1.8-1.2
					c0-0.1,0.1-0.3,0.1-0.4V205.4z"/>
				<path class="st1" d="M315.3,201.3v1.3h1.7v0.5h-1.7v3.9c0,0.8,0.2,1.2,0.9,1.2c0.3,0,0.5,0,0.7-0.1l0.1,0.4
					c-0.2,0.1-0.5,0.1-0.8,0.1c-0.4,0-0.8-0.1-1-0.4c-0.3-0.3-0.4-0.8-0.4-1.4v-3.8h-1v-0.5h1v-1.1L315.3,201.3z"/>
				<path class="st1" d="M322.1,207.1c0,0.5,0,1,0.1,1.4h-0.5l-0.1-0.9h0c-0.3,0.5-1,1-1.9,1c-1.2,0-1.7-0.8-1.7-1.6
					c0-1.4,1.2-2.2,3.6-2.2v-0.2c0-0.6-0.1-1.8-1.5-1.7c-0.5,0-1.1,0.1-1.5,0.4l-0.2-0.4c0.5-0.4,1.2-0.5,1.7-0.5
					c1.7,0,2.1,1.3,2.1,2.3V207.1z M321.5,205.4c-1.3,0-3,0.2-3,1.6c0,0.9,0.6,1.2,1.2,1.2c1,0,1.6-0.6,1.8-1.2
					c0-0.1,0.1-0.3,0.1-0.4V205.4z"/>
				<path class="st1" d="M324.2,199.7h0.6v8.8h-0.6V199.7z"/>
				<path class="st1" d="M332,205.5c0,2.2-1.5,3.2-2.9,3.2c-1.5,0-2.7-1.2-2.7-3.1c0-2,1.3-3.2,2.8-3.2
					C330.9,202.5,332,203.7,332,205.5z M327,205.6c0,1.5,1,2.6,2.2,2.6c1.2,0,2.2-1.1,2.2-2.6c0-1.1-0.6-2.6-2.2-2.6
					C327.7,203,327,204.3,327,205.6z"/>
				<path class="st1" d="M338.4,207.7c0,1.5-0.3,2.3-0.8,2.8c-0.5,0.5-1.4,0.7-2,0.7c-0.7,0-1.4-0.2-1.9-0.5l0.2-0.5
					c0.4,0.3,1,0.5,1.8,0.5c1.3,0,2.2-0.6,2.2-2.4v-0.8h0c-0.3,0.6-1,1.2-2.1,1.2c-1.5,0-2.6-1.3-2.6-2.9c0-2.1,1.4-3.2,2.7-3.2
					c1.2,0,1.8,0.6,2,1.1h0l0-1h0.5c0,0.4,0,0.9,0,1.5V207.7z M337.8,204.9c0-0.2,0-0.4-0.1-0.6c-0.2-0.7-0.9-1.4-1.8-1.4
					c-1.3,0-2.1,1-2.1,2.6c0,1.3,0.7,2.5,2.1,2.5c0.8,0,1.5-0.5,1.8-1.3c0.1-0.2,0.1-0.4,0.1-0.6V204.9z"/>
				<path class="st1" d="M345.1,207.1c0,0.5,0,1,0,1.5h-0.6l0-1.1h0c-0.3,0.6-1,1.2-2,1.2c-0.8,0-2-0.4-2-2.6v-3.5h0.6v3.3
					c0,1.3,0.4,2.2,1.6,2.2c0.9,0,1.5-0.6,1.8-1.2c0.1-0.2,0.1-0.4,0.1-0.7v-3.7h0.6V207.1z"/>
				<path class="st1" d="M347.3,205.5c0,1.9,1,2.7,2.3,2.7c0.9,0,1.3-0.2,1.6-0.3l0.1,0.5c-0.2,0.1-0.8,0.4-1.9,0.4
					c-1.7,0-2.8-1.2-2.8-3c0-2,1.1-3.2,2.7-3.2c1.9,0,2.3,1.8,2.3,2.7c0,0.2,0,0.2,0,0.4H347.3z M351.1,205c0-0.8-0.3-2.1-1.8-2.1
					c-1.3,0-1.9,1.2-2,2.1H351.1z"/>
				<path class="st1" d="M258.6,222.6c0.3,0.2,0.8,0.4,1.3,0.4c0.9,0,1.4-0.5,1.4-1.1c0-0.7-0.4-1-1.3-1.4c-1-0.4-1.5-0.9-1.5-1.6
					c0-0.9,0.7-1.6,1.8-1.6c0.5,0,1,0.2,1.3,0.4l-0.2,0.5c-0.2-0.1-0.6-0.4-1.2-0.4c-0.8,0-1.2,0.5-1.2,1c0,0.6,0.4,0.9,1.2,1.2
					c1,0.4,1.5,0.9,1.5,1.8c0,1-0.8,1.7-2,1.7c-0.6,0-1.1-0.2-1.5-0.4L258.6,222.6z"/>
				<path class="st1" d="M267.7,223.2c-0.3,0.1-0.9,0.4-1.7,0.4c-1.7,0-2.9-1.3-2.9-3c0-1.9,1.3-3.2,3.1-3.2c0.7,0,1.3,0.2,1.6,0.4
					l-0.2,0.5c-0.3-0.2-0.7-0.3-1.4-0.3c-1.6,0-2.4,1.2-2.4,2.6c0,1.6,1,2.6,2.4,2.6c0.7,0,1.2-0.2,1.5-0.3L267.7,223.2z"/>
				<path class="st1" d="M269.3,219.3c0-0.6,0-1.2,0-1.8h0.5l0,1.2h0c0.3-0.7,0.9-1.3,1.7-1.3c0.1,0,0.2,0,0.2,0v0.6
					c-0.1,0-0.2,0-0.3,0c-0.8,0-1.4,0.7-1.6,1.7c0,0.2,0,0.4,0,0.6v3.3h-0.6V219.3z"/>
				<path class="st1" d="M273,220.4c0,1.9,1,2.7,2.3,2.7c0.9,0,1.3-0.2,1.6-0.3l0.1,0.5c-0.2,0.1-0.8,0.4-1.9,0.4
					c-1.7,0-2.8-1.2-2.8-3c0-2,1.1-3.2,2.7-3.2c1.9,0,2.3,1.8,2.3,2.7c0,0.2,0,0.2,0,0.4H273z M276.8,219.9c0-0.8-0.3-2.1-1.8-2.1
					c-1.3,0-1.9,1.2-2,2.1H276.8z"/>
				<path class="st1" d="M279.1,220.4c0,1.9,1,2.7,2.3,2.7c0.9,0,1.3-0.2,1.6-0.3l0.1,0.5c-0.2,0.1-0.8,0.4-1.9,0.4
					c-1.7,0-2.8-1.2-2.8-3c0-2,1.1-3.2,2.7-3.2c1.9,0,2.3,1.8,2.3,2.7c0,0.2,0,0.2,0,0.4H279.1z M282.9,219.9c0-0.8-0.3-2.1-1.8-2.1
					c-1.3,0-1.9,1.2-2,2.1H282.9z"/>
				<path class="st1" d="M285.2,218.9c0-0.5,0-1,0-1.4h0.6l0,1.1h0c0.3-0.7,1.1-1.2,2-1.2c0.6,0,2.1,0.3,2.1,2.5v3.6h-0.6v-3.5
					c0-1.1-0.4-2.1-1.6-2.1c-0.8,0-1.6,0.6-1.8,1.4c0,0.1-0.1,0.3-0.1,0.5v3.7h-0.6V218.9z"/>
				<path class="st1" d="M291.7,222.6c0.3,0.2,0.8,0.4,1.3,0.4c0.9,0,1.4-0.5,1.4-1.1c0-0.7-0.4-1-1.3-1.4c-1-0.4-1.5-0.9-1.5-1.6
					c0-0.9,0.7-1.6,1.8-1.6c0.5,0,1,0.2,1.3,0.4l-0.2,0.5c-0.2-0.1-0.6-0.4-1.2-0.4c-0.8,0-1.2,0.5-1.2,1c0,0.6,0.4,0.9,1.2,1.2
					c1,0.4,1.5,0.9,1.5,1.8c0,1-0.8,1.7-2,1.7c-0.6,0-1.1-0.2-1.5-0.4L291.7,222.6z"/>
				<path class="st1" d="M301.7,214.8c-1,1.3-1.7,2.8-1.7,5.1c0,2.2,0.7,3.8,1.7,5h-0.6c-0.9-1.1-1.7-2.6-1.7-5.1
					c0-2.5,0.9-4,1.7-5.1H301.7z"/>
				<path class="st1" d="M309.7,224.5c-1.1-0.3-2.3-0.6-3.1-0.8c-0.2,0-0.3-0.1-0.5-0.1c-2,0-3.7-1.6-3.7-4.2c0-2.8,1.7-4.4,3.8-4.4
					c2.1,0,3.6,1.6,3.6,4.2c0,2.3-1.1,3.7-2.6,4.2v0c0.9,0.2,2,0.4,2.7,0.6L309.7,224.5z M309.1,219.2c0-1.8-1-3.8-3-3.8
					c-2.1,0-3.1,2-3.1,3.9c0,1.9,1.1,3.7,3.1,3.7C308,223.1,309.1,221.3,309.1,219.2z"/>
				<path class="st1" d="M311.3,215.2c0.5-0.1,1.2-0.2,1.8-0.2c1.1,0,1.8,0.2,2.3,0.7c0.4,0.3,0.6,0.9,0.6,1.5
					c0,1.1-0.7,1.8-1.6,2.2v0c0.7,0.2,1.1,0.8,1.3,1.8c0.3,1.3,0.4,1.9,0.6,2.3h-0.6c-0.1-0.2-0.3-1-0.5-2c-0.3-1.2-0.8-1.7-1.9-1.8
					h-1.3v3.8h-0.6V215.2z M311.9,219.1h1.3c1.3,0,2.1-0.7,2.1-1.8c0-1.3-0.9-1.8-2.3-1.8c-0.6,0-1,0.1-1.2,0.1V219.1z"/>
				<path class="st1" d="M324.7,223.2c-0.3,0.1-0.9,0.4-1.7,0.4c-1.7,0-2.9-1.3-2.9-3c0-1.9,1.3-3.2,3.1-3.2c0.7,0,1.3,0.2,1.6,0.4
					l-0.2,0.5c-0.3-0.2-0.7-0.3-1.4-0.3c-1.6,0-2.4,1.2-2.4,2.6c0,1.6,1,2.6,2.4,2.6c0.7,0,1.2-0.2,1.5-0.3L324.7,223.2z"/>
				<path class="st1" d="M331.3,220.4c0,2.2-1.5,3.2-2.9,3.2c-1.5,0-2.7-1.2-2.7-3.1c0-2,1.3-3.2,2.8-3.2
					C330.2,217.3,331.3,218.6,331.3,220.4z M326.3,220.5c0,1.5,1,2.6,2.2,2.6c1.2,0,2.2-1.1,2.2-2.6c0-1.1-0.6-2.6-2.2-2.6
					C327,217.8,326.3,219.2,326.3,220.5z"/>
				<path class="st1" d="M337.7,214.6v7.4c0,0.4,0,1,0,1.4h-0.5l0-1.1h0c-0.3,0.7-1,1.3-2.1,1.3c-1.5,0-2.6-1.2-2.6-3
					c0-2,1.2-3.2,2.7-3.2c1,0,1.7,0.5,1.9,1.1h0v-3.8H337.7z M337.1,219.8c0-0.2,0-0.4-0.1-0.5c-0.2-0.8-0.9-1.5-1.9-1.5
					c-1.3,0-2.1,1.1-2.1,2.7c0,1.3,0.7,2.6,2.1,2.6c0.9,0,1.7-0.6,1.9-1.6c0-0.2,0.1-0.3,0.1-0.5V219.8z"/>
				<path class="st1" d="M339.9,220.4c0,1.9,1,2.7,2.3,2.7c0.9,0,1.3-0.2,1.6-0.3l0.1,0.5c-0.2,0.1-0.8,0.4-1.9,0.4
					c-1.7,0-2.8-1.2-2.8-3c0-2,1.1-3.2,2.7-3.2c1.9,0,2.3,1.8,2.3,2.7c0,0.2,0,0.2,0,0.4H339.9z M343.7,219.9c0-0.8-0.3-2.1-1.8-2.1
					c-1.3,0-1.9,1.2-2,2.1H343.7z"/>
				<path class="st1" d="M345.1,225c1-1.3,1.7-2.8,1.7-5.1c0-2.2-0.7-3.8-1.7-5.1h0.6c0.9,1.1,1.7,2.6,1.7,5.1c0,2.4-0.9,4-1.7,5.1
					H345.1z"/>
			</g>
		</g>
		<g>
			<path class="st7" d="M475.8,151.6l0.2,1.2c0.1,0.3,0.1,0.6,0.2,1h0c0.1-0.3,0.1-0.7,0.2-1l0.3-1.2h0.7l0.3,1.2
				c0.1,0.3,0.2,0.7,0.2,1h0c0-0.3,0.1-0.7,0.2-1l0.3-1.2h0.9l-0.9,2.9h-0.9l-0.3-1c-0.1-0.3-0.1-0.6-0.2-0.9h0
				c-0.1,0.4-0.1,0.6-0.2,0.9l-0.3,1h-0.9l-0.8-2.9H475.8z"/>
			<path class="st7" d="M480.7,151.6l0.2,1.2c0.1,0.3,0.1,0.6,0.2,1h0c0.1-0.3,0.1-0.7,0.2-1l0.3-1.2h0.7l0.3,1.2
				c0.1,0.3,0.2,0.7,0.2,1h0c0-0.3,0.1-0.7,0.2-1l0.3-1.2h0.9l-0.9,2.9h-0.9l-0.3-1c-0.1-0.3-0.1-0.6-0.2-0.9h0
				c-0.1,0.4-0.1,0.6-0.2,0.9l-0.3,1h-0.9l-0.8-2.9H480.7z"/>
			<path class="st7" d="M485.6,151.6l0.2,1.2c0.1,0.3,0.1,0.6,0.2,1h0c0.1-0.3,0.1-0.7,0.2-1l0.3-1.2h0.7l0.3,1.2
				c0.1,0.3,0.2,0.7,0.2,1h0c0-0.3,0.1-0.7,0.2-1l0.3-1.2h0.9l-0.9,2.9h-0.9l-0.3-1c-0.1-0.3-0.1-0.6-0.2-0.9h0
				c-0.1,0.4-0.1,0.6-0.2,0.9l-0.3,1h-0.9l-0.8-2.9H485.6z"/>
		</g>
		<g>
			<g>
				<path class="st1" d="M461.8,191l-2.2-8.4h0.6l1.2,4.7c0.3,1.1,0.5,2.1,0.7,2.9h0c0.1-0.8,0.4-1.8,0.8-2.9l1.4-4.7h0.6l1.2,4.7
					c0.3,1,0.5,2.1,0.7,2.9h0c0.2-0.9,0.5-1.8,0.8-2.9l1.4-4.7h0.6L467,191h-0.6l-1.3-4.8c-0.3-1.2-0.5-2-0.6-2.8h0
					c-0.1,0.8-0.4,1.6-0.7,2.8l-1.4,4.8H461.8z"/>
				<path class="st1" d="M470.5,187.9c0,1.9,1,2.7,2.3,2.7c0.9,0,1.3-0.2,1.6-0.3l0.1,0.5c-0.2,0.1-0.8,0.4-1.9,0.4
					c-1.7,0-2.8-1.2-2.8-3c0-2,1.1-3.2,2.7-3.2c1.9,0,2.3,1.8,2.3,2.7c0,0.2,0,0.2,0,0.4H470.5z M474.3,187.4c0-0.8-0.3-2.1-1.8-2.1
					c-1.3,0-1.9,1.2-2,2.1H474.3z"/>
				<path class="st1" d="M476.5,182.2h0.6v4h0c0.4-0.8,1.1-1.3,2.2-1.3c1.5,0,2.6,1.3,2.6,3.1c0,2.1-1.4,3.2-2.7,3.2
					c-1,0-1.7-0.4-2.1-1.2h0l0,1.1h-0.5c0-0.4,0-0.9,0-1.4V182.2z M477.1,188.7c0,0.1,0,0.3,0,0.4c0.3,0.9,1,1.5,2,1.5
					c1.4,0,2.1-1.1,2.1-2.7c0-1.4-0.7-2.6-2.1-2.6c-0.9,0-1.7,0.6-2,1.6c0,0.1-0.1,0.3-0.1,0.5V188.7z"/>
				<path class="st1" d="M483.3,190.2c0.3,0.2,0.8,0.4,1.3,0.4c0.9,0,1.4-0.5,1.4-1.1c0-0.7-0.4-1-1.3-1.4c-1-0.4-1.5-0.9-1.5-1.6
					c0-0.9,0.7-1.6,1.8-1.6c0.5,0,1,0.2,1.3,0.4l-0.2,0.5c-0.2-0.1-0.6-0.4-1.2-0.4c-0.8,0-1.2,0.5-1.2,1c0,0.6,0.4,0.9,1.2,1.2
					c1,0.4,1.5,0.9,1.5,1.8c0,1-0.8,1.7-2,1.7c-0.6,0-1.1-0.2-1.5-0.4L483.3,190.2z"/>
				<path class="st1" d="M489,183.3c0,0.3-0.2,0.5-0.5,0.5c-0.3,0-0.5-0.2-0.5-0.5s0.2-0.5,0.5-0.5C488.8,182.8,489,183,489,183.3z
					 M488.3,191v-6h0.6v6H488.3z"/>
				<path class="st1" d="M491.8,183.7v1.3h1.7v0.5h-1.7v3.9c0,0.8,0.2,1.2,0.9,1.2c0.3,0,0.5,0,0.7-0.1l0.1,0.4
					c-0.2,0.1-0.5,0.1-0.8,0.1c-0.4,0-0.8-0.1-1-0.4c-0.3-0.3-0.4-0.8-0.4-1.4v-3.8h-1V185h1v-1.1L491.8,183.7z"/>
				<path class="st1" d="M494.9,187.9c0,1.9,1,2.7,2.3,2.7c0.9,0,1.3-0.2,1.6-0.3l0.1,0.5c-0.2,0.1-0.8,0.4-1.9,0.4
					c-1.7,0-2.8-1.2-2.8-3c0-2,1.1-3.2,2.7-3.2c1.9,0,2.3,1.8,2.3,2.7c0,0.2,0,0.2,0,0.4H494.9z M498.7,187.4c0-0.8-0.3-2.1-1.8-2.1
					c-1.3,0-1.9,1.2-2,2.1H498.7z"/>
				<path class="st1" d="M500.7,190.2c0.3,0.2,0.8,0.4,1.3,0.4c0.9,0,1.4-0.5,1.4-1.1c0-0.7-0.4-1-1.3-1.4c-1-0.4-1.5-0.9-1.5-1.6
					c0-0.9,0.7-1.6,1.8-1.6c0.5,0,1,0.2,1.3,0.4l-0.2,0.5c-0.2-0.1-0.6-0.4-1.2-0.4c-0.8,0-1.2,0.5-1.2,1c0,0.6,0.4,0.9,1.2,1.2
					c1,0.4,1.5,0.9,1.5,1.8c0,1-0.8,1.7-2,1.7c-0.6,0-1.1-0.2-1.5-0.4L500.7,190.2z"/>
			</g>
		</g>
		<g>
			<g>
				<path class="st1" d="M558,185.7l-1,2.9h-0.6l3-8.4h0.6l3,8.4h-0.6l-1.1-2.9H558z M561.1,185.2l-1-2.8c-0.2-0.6-0.3-1-0.4-1.5h0
					c-0.1,0.5-0.2,0.9-0.4,1.5l-1,2.8H561.1z"/>
				<path class="st1" d="M564.3,184.6c0-0.7,0-1.3,0-1.9h0.6l0,1.1h0c0.4-0.8,1.2-1.3,2.2-1.3c1.5,0,2.6,1.3,2.6,3
					c0,2.1-1.3,3.2-2.7,3.2c-0.9,0-1.6-0.4-2-1.1h0v3.4h-0.6V184.6z M564.9,186.3c0,0.2,0,0.3,0,0.5c0.2,0.9,1,1.5,2,1.5
					c1.4,0,2.1-1.1,2.1-2.7c0-1.3-0.7-2.5-2.1-2.5c-0.9,0-1.7,0.6-2,1.6c0,0.2-0.1,0.3-0.1,0.5V186.3z"/>
				<path class="st1" d="M571.3,184.6c0-0.7,0-1.3,0-1.9h0.6l0,1.1h0c0.4-0.8,1.2-1.3,2.2-1.3c1.5,0,2.6,1.3,2.6,3
					c0,2.1-1.3,3.2-2.7,3.2c-0.9,0-1.6-0.4-2-1.1h0v3.4h-0.6V184.6z M571.9,186.3c0,0.2,0,0.3,0,0.5c0.2,0.9,1,1.5,2,1.5
					c1.4,0,2.1-1.1,2.1-2.7c0-1.3-0.7-2.5-2.1-2.5c-0.9,0-1.7,0.6-2,1.6c0,0.2-0.1,0.3-0.1,0.5V186.3z"/>
				<path class="st1" d="M578,187.9c0.3,0.2,0.8,0.4,1.3,0.4c0.9,0,1.4-0.5,1.4-1.1c0-0.7-0.4-1-1.3-1.4c-1-0.4-1.5-0.9-1.5-1.6
					c0-0.9,0.7-1.6,1.8-1.6c0.5,0,1,0.2,1.3,0.4l-0.2,0.5c-0.2-0.1-0.6-0.4-1.2-0.4c-0.8,0-1.2,0.5-1.2,1c0,0.6,0.4,0.9,1.2,1.2
					c1,0.4,1.5,0.9,1.5,1.8c0,1-0.8,1.7-2,1.7c-0.6,0-1.1-0.2-1.5-0.4L578,187.9z"/>
			</g>
		</g>
		<g>
			<g>
				<path class="st1" d="M705.5,188.6l-2.2-8.4h0.6l1.2,4.7c0.3,1.1,0.5,2.1,0.7,2.9h0c0.1-0.8,0.4-1.8,0.8-2.9l1.4-4.7h0.6l1.2,4.7
					c0.3,1,0.5,2.1,0.7,2.9h0c0.2-0.9,0.5-1.8,0.8-2.9l1.4-4.7h0.6l-2.5,8.4h-0.6l-1.3-4.8c-0.3-1.2-0.5-2-0.6-2.8h0
					c-0.1,0.8-0.4,1.6-0.7,2.8l-1.4,4.8H705.5z"/>
				<path class="st1" d="M714.4,179.8h0.6v3.9h0c0.2-0.3,0.5-0.7,0.8-0.9c0.3-0.2,0.8-0.3,1.2-0.3c0.6,0,2.1,0.3,2.1,2.5v3.6h-0.6
					v-3.5c0-1.1-0.4-2-1.6-2c-0.8,0-1.5,0.6-1.8,1.3c-0.1,0.2-0.1,0.3-0.1,0.6v3.6h-0.6V179.8z"/>
				<path class="st1" d="M724.9,187.2c0,0.5,0,1,0.1,1.4h-0.5l-0.1-0.9h0c-0.3,0.5-1,1-1.9,1c-1.2,0-1.8-0.8-1.8-1.6
					c0-1.4,1.2-2.2,3.6-2.2v-0.2c0-0.6-0.1-1.8-1.5-1.7c-0.5,0-1.1,0.1-1.5,0.4l-0.2-0.4c0.5-0.4,1.2-0.5,1.7-0.5
					c1.7,0,2.1,1.3,2.1,2.3V187.2z M724.3,185.5c-1.3,0-3,0.2-3,1.6c0,0.9,0.6,1.2,1.2,1.2c1,0,1.6-0.6,1.8-1.2
					c0-0.1,0.1-0.3,0.1-0.4V185.5z"/>
				<path class="st1" d="M727.8,181.4v1.3h1.7v0.5h-1.7v3.9c0,0.8,0.2,1.2,0.9,1.2c0.3,0,0.5,0,0.7-0.1l0.1,0.4
					c-0.2,0.1-0.5,0.1-0.8,0.1c-0.4,0-0.8-0.1-1-0.4c-0.3-0.3-0.4-0.8-0.4-1.4v-3.8h-1v-0.5h1v-1.1L727.8,181.4z"/>
				<path class="st1" d="M730.6,187.9c0.3,0.2,0.8,0.4,1.3,0.4c0.9,0,1.4-0.5,1.4-1.1c0-0.7-0.4-1-1.3-1.4c-1-0.4-1.5-0.9-1.5-1.6
					c0-0.9,0.7-1.6,1.8-1.6c0.5,0,1,0.2,1.3,0.4l-0.2,0.5c-0.2-0.1-0.6-0.4-1.2-0.4c-0.8,0-1.2,0.5-1.2,1c0,0.6,0.4,0.9,1.2,1.2
					c1,0.4,1.5,0.9,1.5,1.8c0,1-0.8,1.7-2,1.7c-0.6,0-1.1-0.2-1.5-0.4L730.6,187.9z"/>
				<path class="st1" d="M736.6,185.7l-1,2.9H735l3-8.4h0.6l3,8.4H741l-1.1-2.9H736.6z M739.8,185.2l-1-2.8c-0.2-0.6-0.3-1-0.4-1.5
					h0c-0.1,0.5-0.2,0.9-0.4,1.5l-1,2.8H739.8z"/>
				<path class="st1" d="M743,184.6c0-0.7,0-1.3,0-1.9h0.6l0,1.1h0c0.4-0.8,1.2-1.3,2.2-1.3c1.5,0,2.6,1.3,2.6,3
					c0,2.1-1.3,3.2-2.7,3.2c-0.9,0-1.6-0.4-2-1.1h0v3.4H743V184.6z M743.6,186.3c0,0.2,0,0.3,0,0.5c0.2,0.9,1,1.5,2,1.5
					c1.4,0,2.1-1.1,2.1-2.7c0-1.3-0.7-2.5-2.1-2.5c-0.9,0-1.7,0.6-2,1.6c0,0.2-0.1,0.3-0.1,0.5V186.3z"/>
				<path class="st1" d="M750,184.6c0-0.7,0-1.3,0-1.9h0.6l0,1.1h0c0.4-0.8,1.2-1.3,2.2-1.3c1.5,0,2.6,1.3,2.6,3
					c0,2.1-1.3,3.2-2.7,3.2c-0.9,0-1.6-0.4-2-1.1h0v3.4H750V184.6z M750.6,186.3c0,0.2,0,0.3,0,0.5c0.2,0.9,1,1.5,2,1.5
					c1.4,0,2.1-1.1,2.1-2.7c0-1.3-0.7-2.5-2.1-2.5c-0.9,0-1.7,0.6-2,1.6c0,0.2-0.1,0.3-0.1,0.5V186.3z"/>
			</g>
		</g>
		<g>
			<g>
				<path class="st1" d="M619.9,180.7c0.5-0.1,1.1-0.2,1.8-0.2c1,0,1.7,0.3,2.2,0.7c0.4,0.4,0.6,0.9,0.6,1.6c0,0.7-0.2,1.3-0.6,1.7
					c-0.5,0.6-1.4,0.9-2.5,0.9c-0.4,0-0.7,0-1-0.1v3.6h-0.6V180.7z M620.5,184.9c0.3,0.1,0.7,0.1,1.1,0.1c1.5,0,2.4-0.7,2.4-2
					c0-1.3-1-1.9-2.3-1.9c-0.5,0-1,0-1.2,0.1V184.9z"/>
				<path class="st1" d="M626.1,180.2h0.6v3.9h0c0.2-0.3,0.5-0.7,0.8-0.9c0.3-0.2,0.8-0.3,1.2-0.3c0.6,0,2.1,0.3,2.1,2.5v3.6h-0.6
					v-3.5c0-1.1-0.4-2-1.6-2c-0.8,0-1.5,0.6-1.8,1.3c-0.1,0.2-0.1,0.3-0.1,0.6v3.6h-0.6V180.2z"/>
				<path class="st1" d="M638,185.9c0,2.2-1.5,3.2-2.9,3.2c-1.5,0-2.7-1.2-2.7-3.1c0-2,1.3-3.2,2.8-3.2
					C636.9,182.9,638,184.1,638,185.9z M633,186c0,1.5,1,2.6,2.2,2.6c1.2,0,2.2-1.1,2.2-2.6c0-1.1-0.6-2.6-2.2-2.6
					C633.7,183.4,633,184.7,633,186z"/>
				<path class="st1" d="M639.6,184.4c0-0.5,0-1,0-1.4h0.6l0,1.1h0c0.3-0.7,1.1-1.2,2-1.2c0.6,0,2.1,0.3,2.1,2.5v3.6h-0.6v-3.5
					c0-1.1-0.4-2.1-1.7-2.1c-0.8,0-1.6,0.6-1.8,1.4c0,0.1-0.1,0.3-0.1,0.5v3.7h-0.6V184.4z"/>
				<path class="st1" d="M646.5,185.9c0,1.9,1,2.7,2.3,2.7c0.9,0,1.3-0.2,1.6-0.3l0.1,0.5c-0.2,0.1-0.8,0.4-1.9,0.4
					c-1.7,0-2.8-1.2-2.8-3c0-2,1.1-3.2,2.7-3.2c1.9,0,2.3,1.8,2.3,2.7c0,0.2,0,0.2,0,0.4H646.5z M650.3,185.5c0-0.8-0.3-2.1-1.8-2.1
					c-1.3,0-1.9,1.2-2,2.1H650.3z"/>
				<path class="st1" d="M659.5,188.7c-0.3,0.1-0.9,0.4-1.7,0.4c-1.7,0-2.9-1.3-2.9-3c0-1.9,1.3-3.2,3.1-3.2c0.7,0,1.3,0.2,1.6,0.4
					l-0.2,0.5c-0.3-0.2-0.7-0.3-1.4-0.3c-1.6,0-2.4,1.2-2.4,2.6c0,1.6,1,2.6,2.4,2.6c0.7,0,1.2-0.2,1.5-0.3L659.5,188.7z"/>
				<path class="st1" d="M664.7,187.5c0,0.5,0,1,0.1,1.4h-0.5l-0.1-0.9h0c-0.3,0.5-1,1-1.9,1c-1.2,0-1.8-0.8-1.8-1.6
					c0-1.4,1.2-2.2,3.6-2.2v-0.2c0-0.6-0.1-1.8-1.5-1.7c-0.5,0-1.1,0.1-1.5,0.4l-0.2-0.4c0.5-0.4,1.2-0.5,1.7-0.5
					c1.7,0,2.1,1.3,2.1,2.3V187.5z M664.1,185.8c-1.3,0-3,0.2-3,1.6c0,0.9,0.6,1.2,1.2,1.2c1,0,1.6-0.6,1.8-1.2
					c0-0.1,0.1-0.3,0.1-0.4V185.8z"/>
				<path class="st1" d="M666.8,180.2h0.6v8.8h-0.6V180.2z"/>
				<path class="st1" d="M669.5,180.2h0.6v8.8h-0.6V180.2z"/>
			</g>
		</g>
		<g>
			<g>
				<path class="st1" d="M277.8,584.1v8.4h-0.6v-8.4H277.8z"/>
				<path class="st1" d="M280.1,588c0-0.5,0-1,0-1.4h0.6l0,1.1h0c0.3-0.7,1.1-1.2,2-1.2c0.6,0,2.1,0.3,2.1,2.5v3.6h-0.6V589
					c0-1.1-0.4-2.1-1.6-2.1c-0.8,0-1.6,0.6-1.8,1.4c0,0.1-0.1,0.3-0.1,0.5v3.7h-0.6V588z"/>
				<path class="st1" d="M289.2,588.8v0.5h-3v-0.5H289.2z"/>
				<path class="st1" d="M290.5,591.7c0.3,0.2,0.8,0.4,1.3,0.4c0.9,0,1.4-0.5,1.4-1.1c0-0.7-0.4-1-1.3-1.4c-1-0.4-1.5-0.9-1.5-1.6
					c0-0.9,0.7-1.6,1.8-1.6c0.5,0,1,0.2,1.3,0.4l-0.2,0.5c-0.2-0.1-0.6-0.4-1.2-0.4c-0.8,0-1.2,0.5-1.2,1c0,0.6,0.4,0.9,1.2,1.2
					c1,0.4,1.5,0.9,1.5,1.8c0,1-0.8,1.7-2,1.7c-0.6,0-1.1-0.2-1.5-0.4L290.5,591.7z"/>
				<path class="st1" d="M296.3,585.2v1.3h1.7v0.5h-1.7v3.9c0,0.8,0.2,1.2,0.9,1.2c0.3,0,0.5,0,0.7-0.1l0.1,0.4
					c-0.2,0.1-0.5,0.1-0.8,0.1c-0.4,0-0.8-0.1-1-0.4c-0.3-0.3-0.4-0.8-0.4-1.4V587h-1v-0.5h1v-1.1L296.3,585.2z"/>
				<path class="st1" d="M304.4,589.5c0,2.2-1.5,3.2-2.9,3.2c-1.5,0-2.7-1.2-2.7-3.1c0-2,1.3-3.2,2.8-3.2
					C303.3,586.4,304.4,587.7,304.4,589.5z M299.4,589.5c0,1.5,1,2.6,2.2,2.6c1.2,0,2.2-1.1,2.2-2.6c0-1.1-0.6-2.6-2.2-2.6
					C300.1,586.9,299.4,588.3,299.4,589.5z"/>
				<path class="st1" d="M306,588.3c0-0.6,0-1.2,0-1.8h0.5l0,1.2h0c0.3-0.7,0.9-1.3,1.7-1.3c0.1,0,0.2,0,0.2,0v0.6
					c-0.1,0-0.2,0-0.3,0c-0.8,0-1.4,0.7-1.6,1.7c0,0.2,0,0.4,0,0.6v3.3H306V588.3z"/>
				<path class="st1" d="M309.8,589.5c0,1.9,1,2.7,2.3,2.7c0.9,0,1.3-0.2,1.6-0.3l0.1,0.5c-0.2,0.1-0.8,0.4-1.9,0.4
					c-1.7,0-2.8-1.2-2.8-3c0-2,1.1-3.2,2.7-3.2c1.9,0,2.3,1.8,2.3,2.7c0,0.2,0,0.2,0,0.4H309.8z M313.6,589c0-0.8-0.3-2.1-1.8-2.1
					c-1.3,0-1.9,1.2-2,2.1H313.6z"/>
				<path class="st1" d="M318.7,588.5c0-0.7,0-1.3,0-1.9h0.6l0,1.1h0c0.4-0.8,1.2-1.3,2.2-1.3c1.5,0,2.6,1.3,2.6,3
					c0,2.1-1.3,3.2-2.7,3.2c-0.9,0-1.6-0.4-2-1.1h0v3.4h-0.6V588.5z M319.3,590.2c0,0.2,0,0.3,0,0.5c0.2,0.9,1,1.5,2,1.5
					c1.4,0,2.1-1.1,2.1-2.7c0-1.3-0.7-2.5-2.1-2.5c-0.9,0-1.7,0.6-2,1.6c0,0.2-0.1,0.3-0.1,0.5V590.2z"/>
				<path class="st1" d="M326.4,584.9c0,0.3-0.2,0.5-0.5,0.5c-0.3,0-0.5-0.2-0.5-0.5c0-0.3,0.2-0.5,0.5-0.5S326.4,584.6,326.4,584.9
					z M325.6,592.5v-6h0.6v6H325.6z"/>
				<path class="st1" d="M332.5,592.2c-0.3,0.1-0.9,0.4-1.7,0.4c-1.7,0-2.9-1.3-2.9-3c0-1.9,1.3-3.2,3.1-3.2c0.7,0,1.3,0.2,1.6,0.4
					l-0.2,0.5c-0.3-0.2-0.7-0.3-1.4-0.3c-1.6,0-2.4,1.2-2.4,2.6c0,1.6,1,2.6,2.4,2.6c0.7,0,1.2-0.2,1.5-0.3L332.5,592.2z"/>
				<path class="st1" d="M334.6,589.4L334.6,589.4c0.2-0.2,0.4-0.5,0.6-0.7l2.1-2.2h0.7l-2.4,2.5l2.7,3.5h-0.7l-2.4-3.1l-0.6,0.6
					v2.5H334v-8.8h0.6V589.4z"/>
				<path class="st1" d="M344.1,591.1c0,0.5,0,1,0,1.5h-0.6l0-1.1h0c-0.3,0.6-1,1.2-2,1.2c-0.8,0-2-0.4-2-2.6v-3.5h0.6v3.3
					c0,1.3,0.4,2.2,1.6,2.2c0.9,0,1.5-0.6,1.8-1.2c0.1-0.2,0.1-0.4,0.1-0.7v-3.7h0.6V591.1z"/>
				<path class="st1" d="M346.2,588.5c0-0.7,0-1.3,0-1.9h0.6l0,1.1h0c0.4-0.8,1.2-1.3,2.2-1.3c1.5,0,2.6,1.3,2.6,3
					c0,2.1-1.3,3.2-2.7,3.2c-0.9,0-1.6-0.4-2-1.1h0v3.4h-0.6V588.5z M346.8,590.2c0,0.2,0,0.3,0,0.5c0.2,0.9,1,1.5,2,1.5
					c1.4,0,2.1-1.1,2.1-2.7c0-1.3-0.7-2.5-2.1-2.5c-0.9,0-1.7,0.6-2,1.6c0,0.2-0.1,0.3-0.1,0.5V590.2z"/>
			</g>
		</g>
		<g>
			<g>
				<path class="st1" d="M412.5,584.3c0.6-0.1,1.4-0.2,2.1-0.2c1.5,0,2.7,0.4,3.4,1.1c0.7,0.7,1,1.6,1,2.9c0,1.2-0.3,2.3-1.1,3.2
					c-0.7,0.8-2,1.3-3.6,1.3c-0.6,0-1.3,0-1.9-0.1V584.3z M413.1,592c0.3,0,0.8,0.1,1.4,0.1c2.7,0,4-1.5,4-3.9
					c0-2.1-1.2-3.6-3.8-3.6c-0.6,0-1.2,0.1-1.5,0.1V592z"/>
				<path class="st1" d="M420.7,588.3c0-0.6,0-1.2,0-1.8h0.5l0,1.2h0c0.3-0.7,0.9-1.3,1.7-1.3c0.1,0,0.2,0,0.2,0v0.6
					c-0.1,0-0.2,0-0.3,0c-0.8,0-1.4,0.7-1.6,1.7c0,0.2,0,0.4,0,0.6v3.3h-0.6V588.3z"/>
				<path class="st1" d="M425.3,584.9c0,0.3-0.2,0.5-0.5,0.5c-0.3,0-0.5-0.2-0.5-0.5c0-0.3,0.2-0.5,0.5-0.5
					C425.1,584.3,425.3,584.6,425.3,584.9z M424.5,592.5v-6h0.6v6H424.5z"/>
				<path class="st1" d="M427.1,586.6l1.4,3.7c0.2,0.6,0.4,1.1,0.6,1.6h0c0.2-0.5,0.4-1,0.6-1.6l1.4-3.7h0.6l-2.4,6h-0.5l-2.3-6
					H427.1z"/>
				<path class="st1" d="M433,589.5c0,1.9,1,2.7,2.3,2.7c0.9,0,1.3-0.2,1.6-0.3l0.1,0.5c-0.2,0.1-0.8,0.4-1.9,0.4
					c-1.7,0-2.8-1.2-2.8-3c0-2,1.1-3.2,2.7-3.2c1.9,0,2.3,1.8,2.3,2.7c0,0.2,0,0.2,0,0.4H433z M436.8,589c0-0.8-0.3-2.1-1.8-2.1
					c-1.3,0-1.9,1.2-2,2.1H436.8z"/>
				<path class="st1" d="M442.7,585.2v1.3h1.7v0.5h-1.7v3.9c0,0.8,0.2,1.2,0.9,1.2c0.3,0,0.5,0,0.7-0.1l0.1,0.4
					c-0.2,0.1-0.5,0.1-0.8,0.1c-0.4,0-0.8-0.1-1-0.4c-0.3-0.3-0.4-0.8-0.4-1.4V587h-1v-0.5h1v-1.1L442.7,585.2z"/>
				<path class="st1" d="M445.8,583.7h0.6v3.9h0c0.2-0.3,0.5-0.7,0.8-0.9c0.3-0.2,0.8-0.3,1.2-0.3c0.6,0,2.1,0.3,2.1,2.5v3.6h-0.6
					V589c0-1.1-0.4-2-1.6-2c-0.8,0-1.5,0.6-1.8,1.3c-0.1,0.2-0.1,0.3-0.1,0.6v3.6h-0.6V583.7z"/>
				<path class="st1" d="M452.6,588.3c0-0.6,0-1.2,0-1.8h0.5l0,1.2h0c0.3-0.7,0.9-1.3,1.7-1.3c0.1,0,0.2,0,0.2,0v0.6
					c-0.1,0-0.2,0-0.3,0c-0.8,0-1.4,0.7-1.6,1.7c0,0.2,0,0.4,0,0.6v3.3h-0.6V588.3z"/>
				<path class="st1" d="M461,591.1c0,0.5,0,1,0,1.5h-0.6l0-1.1h0c-0.3,0.6-1,1.2-2,1.2c-0.8,0-2-0.4-2-2.6v-3.5h0.6v3.3
					c0,1.3,0.4,2.2,1.6,2.2c0.9,0,1.5-0.6,1.8-1.2c0.1-0.2,0.1-0.4,0.1-0.7v-3.7h0.6V591.1z"/>
				<path class="st1" d="M465.9,588.5c0-0.7,0-1.3,0-1.9h0.6l0,1.1h0c0.4-0.8,1.2-1.3,2.2-1.3c1.5,0,2.6,1.3,2.6,3
					c0,2.1-1.3,3.2-2.7,3.2c-0.9,0-1.6-0.4-2-1.1h0v3.4h-0.6V588.5z M466.5,590.2c0,0.2,0,0.3,0,0.5c0.2,0.9,1,1.5,2,1.5
					c1.4,0,2.1-1.1,2.1-2.7c0-1.3-0.7-2.5-2.1-2.5c-0.9,0-1.7,0.6-2,1.6c0,0.2-0.1,0.3-0.1,0.5V590.2z"/>
				<path class="st1" d="M473.7,584.9c0,0.3-0.2,0.5-0.5,0.5c-0.3,0-0.5-0.2-0.5-0.5c0-0.3,0.2-0.5,0.5-0.5
					C473.5,584.3,473.7,584.6,473.7,584.9z M472.9,592.5v-6h0.6v6H472.9z"/>
				<path class="st1" d="M479.7,592.2c-0.3,0.1-0.9,0.4-1.7,0.4c-1.7,0-2.9-1.3-2.9-3c0-1.9,1.3-3.2,3.1-3.2c0.7,0,1.3,0.2,1.6,0.4
					l-0.2,0.5c-0.3-0.2-0.7-0.3-1.4-0.3c-1.6,0-2.4,1.2-2.4,2.6c0,1.6,1,2.6,2.4,2.6c0.7,0,1.2-0.2,1.5-0.3L479.7,592.2z"/>
				<path class="st1" d="M481.8,589.4L481.8,589.4c0.2-0.2,0.4-0.5,0.6-0.7l2.1-2.2h0.7l-2.4,2.5l2.7,3.5h-0.7l-2.4-3.1l-0.6,0.6
					v2.5h-0.6v-8.8h0.6V589.4z"/>
				<path class="st1" d="M491.3,591.1c0,0.5,0,1,0,1.5h-0.6l0-1.1h0c-0.3,0.6-1,1.2-2,1.2c-0.8,0-2-0.4-2-2.6v-3.5h0.6v3.3
					c0,1.3,0.4,2.2,1.6,2.2c0.9,0,1.5-0.6,1.8-1.2c0.1-0.2,0.1-0.4,0.1-0.7v-3.7h0.6V591.1z"/>
				<path class="st1" d="M493.4,588.5c0-0.7,0-1.3,0-1.9h0.6l0,1.1h0c0.4-0.8,1.2-1.3,2.2-1.3c1.5,0,2.6,1.3,2.6,3
					c0,2.1-1.3,3.2-2.7,3.2c-0.9,0-1.6-0.4-2-1.1h0v3.4h-0.6V588.5z M494,590.2c0,0.2,0,0.3,0,0.5c0.2,0.9,1,1.5,2,1.5
					c1.4,0,2.1-1.1,2.1-2.7c0-1.3-0.7-2.5-2.1-2.5c-0.9,0-1.7,0.6-2,1.6c0,0.2-0.1,0.3-0.1,0.5V590.2z"/>
			</g>
		</g>
		<g>
			<g>
				<path class="st1" d="M560.4,584.1v3.7h4.6v-3.7h0.6v8.4H565v-4.2h-4.6v4.2h-0.6v-8.4H560.4z"/>
				<path class="st1" d="M572.8,589.5c0,2.2-1.5,3.2-2.9,3.2c-1.5,0-2.7-1.2-2.7-3.1c0-2,1.3-3.2,2.8-3.2
					C571.7,586.4,572.8,587.7,572.8,589.5z M567.8,589.5c0,1.5,1,2.6,2.2,2.6c1.2,0,2.2-1.1,2.2-2.6c0-1.1-0.6-2.6-2.2-2.6
					C568.5,586.9,567.8,588.3,567.8,589.5z"/>
				<path class="st1" d="M574.4,588c0-0.5,0-1,0-1.4h0.6l0,1.1h0c0.4-0.7,1-1.2,1.9-1.2c0.8,0,1.5,0.5,1.7,1.3h0
					c0.2-0.4,0.4-0.6,0.6-0.8c0.4-0.3,0.8-0.5,1.4-0.5c0.6,0,1.9,0.3,1.9,2.6v3.5H582v-3.4c0-1.3-0.5-2.1-1.6-2.1
					c-0.7,0-1.3,0.5-1.6,1.2c0,0.2-0.1,0.4-0.1,0.6v3.8h-0.6v-3.7c0-1.1-0.5-1.9-1.5-1.9c-0.8,0-1.4,0.6-1.6,1.3
					c0,0.2-0.1,0.4-0.1,0.6v3.7h-0.6V588z"/>
				<path class="st1" d="M584.8,589.5c0,1.9,1,2.7,2.3,2.7c0.9,0,1.3-0.2,1.6-0.3l0.1,0.5c-0.2,0.1-0.8,0.4-1.9,0.4
					c-1.7,0-2.8-1.2-2.8-3c0-2,1.1-3.2,2.7-3.2c1.9,0,2.3,1.8,2.3,2.7c0,0.2,0,0.2,0,0.4H584.8z M588.6,589c0-0.8-0.3-2.1-1.8-2.1
					c-1.3,0-1.9,1.2-2,2.1H588.6z"/>
				<path class="st1" d="M598.4,583.7v7.4c0,0.4,0,1,0,1.4h-0.5l0-1.1h0c-0.3,0.7-1,1.3-2.1,1.3c-1.5,0-2.6-1.2-2.6-3
					c0-2,1.2-3.2,2.7-3.2c1,0,1.7,0.5,1.9,1.1h0v-3.8H598.4z M597.8,588.9c0-0.2,0-0.4-0.1-0.5c-0.2-0.8-0.9-1.5-1.9-1.5
					c-1.3,0-2.1,1.1-2.1,2.7c0,1.3,0.7,2.6,2.1,2.6c0.9,0,1.7-0.6,1.9-1.6c0-0.2,0.1-0.3,0.1-0.5V588.9z"/>
				<path class="st1" d="M600.6,589.5c0,1.9,1,2.7,2.3,2.7c0.9,0,1.3-0.2,1.6-0.3l0.1,0.5c-0.2,0.1-0.8,0.4-1.9,0.4
					c-1.7,0-2.8-1.2-2.8-3c0-2,1.1-3.2,2.7-3.2c1.9,0,2.3,1.8,2.3,2.7c0,0.2,0,0.2,0,0.4H600.6z M604.4,589c0-0.8-0.3-2.1-1.8-2.1
					c-1.3,0-1.9,1.2-2,2.1H604.4z"/>
				<path class="st1" d="M606.7,583.7h0.6v8.8h-0.6V583.7z"/>
				<path class="st1" d="M610.2,584.9c0,0.3-0.2,0.5-0.5,0.5c-0.3,0-0.5-0.2-0.5-0.5c0-0.3,0.2-0.5,0.5-0.5
					C610,584.3,610.2,584.6,610.2,584.9z M609.4,592.5v-6h0.6v6H609.4z"/>
				<path class="st1" d="M612,586.6l1.4,3.7c0.2,0.6,0.4,1.1,0.6,1.6h0c0.2-0.5,0.4-1,0.6-1.6l1.4-3.7h0.6l-2.4,6h-0.5l-2.3-6H612z"
					/>
				<path class="st1" d="M617.9,589.5c0,1.9,1,2.7,2.3,2.7c0.9,0,1.3-0.2,1.6-0.3l0.1,0.5c-0.2,0.1-0.8,0.4-1.9,0.4
					c-1.7,0-2.8-1.2-2.8-3c0-2,1.1-3.2,2.7-3.2c1.9,0,2.3,1.8,2.3,2.7c0,0.2,0,0.2,0,0.4H617.9z M621.7,589c0-0.8-0.3-2.1-1.8-2.1
					c-1.3,0-1.9,1.2-2,2.1H621.7z"/>
				<path class="st1" d="M623.9,588.3c0-0.6,0-1.2,0-1.8h0.5l0,1.2h0c0.3-0.7,0.9-1.3,1.7-1.3c0.1,0,0.2,0,0.2,0v0.6
					c-0.1,0-0.2,0-0.3,0c-0.8,0-1.4,0.7-1.6,1.7c0,0.2,0,0.4,0,0.6v3.3h-0.6V588.3z"/>
				<path class="st1" d="M627.9,586.6l1.6,3.9c0.2,0.4,0.3,0.9,0.4,1.3h0c0.1-0.4,0.3-0.8,0.5-1.3l1.5-3.9h0.6l-1.8,4.4
					c-0.7,1.8-1.2,3-2,3.6c-0.5,0.4-0.9,0.6-1,0.6l-0.2-0.5c0.3-0.1,0.7-0.3,1-0.7c0.3-0.3,0.7-0.8,1-1.5c0-0.1,0.1-0.2,0.1-0.3
					c0,0,0-0.1-0.1-0.3l-2.2-5.5H627.9z"/>
			</g>
		</g>
		<g>
			<g>
				<path class="st1" d="M66.9,207.6c0.5,0.3,1.1,0.5,1.8,0.5c1.3,0,2-0.7,2-1.7c0-0.9-0.5-1.5-1.7-2c-1.3-0.5-2.1-1.2-2.1-2.3
					c0-1.2,1-2.1,2.4-2.1c0.8,0,1.4,0.2,1.7,0.4l-0.2,0.5c-0.2-0.2-0.8-0.4-1.5-0.4c-1.4,0-1.8,0.9-1.8,1.5c0,0.9,0.5,1.4,1.7,1.9
					c1.4,0.6,2.1,1.2,2.1,2.4c0,1.2-0.9,2.3-2.7,2.3c-0.7,0-1.6-0.2-2-0.6L66.9,207.6z"/>
				<path class="st1" d="M73.1,199.7h0.6v3.9h0c0.2-0.3,0.5-0.7,0.8-0.9c0.3-0.2,0.8-0.3,1.2-0.3c0.6,0,2.1,0.3,2.1,2.5v3.6h-0.6
					V205c0-1.1-0.4-2-1.6-2c-0.8,0-1.5,0.6-1.8,1.3c-0.1,0.2-0.1,0.3-0.1,0.6v3.6h-0.6V199.7z"/>
				<path class="st1" d="M79.9,205.5c0,1.9,1,2.7,2.3,2.7c0.9,0,1.3-0.2,1.6-0.3l0.1,0.5c-0.2,0.1-0.8,0.4-1.9,0.4
					c-1.7,0-2.8-1.2-2.8-3c0-2,1.1-3.2,2.7-3.2c1.9,0,2.3,1.8,2.3,2.7c0,0.2,0,0.2,0,0.4H79.9z M83.7,205c0-0.8-0.3-2.1-1.8-2.1
					c-1.3,0-1.9,1.2-2,2.1H83.7z"/>
				<path class="st1" d="M86,199.7h0.6v8.8H86V199.7z"/>
				<path class="st1" d="M88.8,208.5v-5.5h-0.9v-0.5h0.9v-0.3c0-0.9,0.2-1.7,0.7-2.1c0.4-0.4,0.9-0.5,1.3-0.5c0.4,0,0.7,0.1,0.9,0.2
					l-0.2,0.5c-0.2-0.1-0.4-0.2-0.8-0.2c-1.1,0-1.3,1-1.3,2.2v0.3h1.6v0.5h-1.6v5.5H88.8z"/>
			</g>
		</g>
		<g>
			<g>
				<path class="st1" d="M531.1,378.6h-2.7v-0.5h6.1v0.5h-2.7v7.9h-0.6V378.6z"/>
				<path class="st1" d="M534.9,382.3c0-0.6,0-1.2,0-1.8h0.5l0,1.2h0c0.3-0.7,0.9-1.3,1.7-1.3c0.1,0,0.2,0,0.2,0v0.6
					c-0.1,0-0.2,0-0.3,0c-0.8,0-1.4,0.7-1.6,1.7c0,0.2,0,0.4,0,0.6v3.3h-0.6V382.3z"/>
				<path class="st1" d="M542.4,385.1c0,0.5,0,1,0.1,1.4h-0.5l-0.1-0.9h0c-0.3,0.5-1,1-1.9,1c-1.2,0-1.8-0.8-1.8-1.6
					c0-1.4,1.2-2.2,3.6-2.2v-0.2c0-0.6-0.1-1.8-1.5-1.7c-0.5,0-1.1,0.1-1.5,0.4l-0.2-0.4c0.5-0.4,1.2-0.5,1.7-0.5
					c1.7,0,2.1,1.3,2.1,2.3V385.1z M541.8,383.3c-1.3,0-3,0.2-3,1.6c0,0.9,0.6,1.2,1.2,1.2c1,0,1.6-0.6,1.8-1.2
					c0-0.1,0.1-0.3,0.1-0.4V383.3z"/>
				<path class="st1" d="M549.2,377.7v7.4c0,0.4,0,1,0,1.4h-0.5l0-1.1h0c-0.3,0.7-1,1.3-2.1,1.3c-1.5,0-2.6-1.2-2.6-3
					c0-2,1.2-3.2,2.7-3.2c1,0,1.7,0.5,1.9,1.1h0v-3.8H549.2z M548.6,382.9c0-0.2,0-0.4-0.1-0.5c-0.2-0.8-0.9-1.5-1.9-1.5
					c-1.3,0-2.1,1.1-2.1,2.7c0,1.3,0.7,2.6,2.1,2.6c0.9,0,1.7-0.6,1.9-1.6c0-0.2,0.1-0.3,0.1-0.5V382.9z"/>
				<path class="st1" d="M552.1,378.8c0,0.3-0.2,0.5-0.5,0.5c-0.3,0-0.5-0.2-0.5-0.5c0-0.3,0.2-0.5,0.5-0.5
					C551.9,378.3,552.1,378.6,552.1,378.8z M551.3,386.5v-6h0.6v6H551.3z"/>
				<path class="st1" d="M554.8,379.2v1.3h1.7v0.5h-1.7v3.9c0,0.8,0.2,1.2,0.9,1.2c0.3,0,0.5,0,0.7-0.1l0.1,0.4
					c-0.2,0.1-0.5,0.1-0.8,0.1c-0.4,0-0.8-0.1-1-0.4c-0.3-0.3-0.4-0.8-0.4-1.4V381h-1v-0.5h1v-1.1L554.8,379.2z"/>
				<path class="st1" d="M558.7,378.8c0,0.3-0.2,0.5-0.5,0.5c-0.3,0-0.5-0.2-0.5-0.5c0-0.3,0.2-0.5,0.5-0.5
					C558.5,378.3,558.7,378.6,558.7,378.8z M558,386.5v-6h0.6v6H558z"/>
				<path class="st1" d="M565.8,383.5c0,2.2-1.5,3.2-2.9,3.2c-1.5,0-2.7-1.2-2.7-3.1c0-2,1.3-3.2,2.8-3.2
					C564.6,380.4,565.8,381.6,565.8,383.5z M560.8,383.5c0,1.5,1,2.6,2.2,2.6c1.2,0,2.2-1.1,2.2-2.6c0-1.1-0.6-2.6-2.2-2.6
					C561.5,380.9,560.8,382.3,560.8,383.5z"/>
				<path class="st1" d="M567.4,382c0-0.5,0-1,0-1.4h0.6l0,1.1h0c0.3-0.7,1.1-1.2,2-1.2c0.6,0,2.1,0.3,2.1,2.5v3.6h-0.6V383
					c0-1.1-0.4-2.1-1.7-2.1c-0.8,0-1.6,0.6-1.8,1.4c0,0.1-0.1,0.3-0.1,0.5v3.7h-0.6V382z"/>
				<path class="st1" d="M577.9,385.1c0,0.5,0,1,0.1,1.4h-0.5l-0.1-0.9h0c-0.3,0.5-1,1-1.9,1c-1.2,0-1.8-0.8-1.8-1.6
					c0-1.4,1.2-2.2,3.6-2.2v-0.2c0-0.6-0.1-1.8-1.5-1.7c-0.5,0-1.1,0.1-1.5,0.4l-0.2-0.4c0.5-0.4,1.2-0.5,1.7-0.5
					c1.7,0,2.1,1.3,2.1,2.3V385.1z M577.3,383.3c-1.3,0-3,0.2-3,1.6c0,0.9,0.6,1.2,1.2,1.2c1,0,1.6-0.6,1.8-1.2
					c0-0.1,0.1-0.3,0.1-0.4V383.3z"/>
				<path class="st1" d="M579.9,377.7h0.6v8.8h-0.6V377.7z"/>
				<path class="st1" d="M542,401.1c-0.3,0.1-0.9,0.4-1.7,0.4c-1.7,0-2.9-1.3-2.9-3c0-1.9,1.3-3.2,3.1-3.2c0.7,0,1.3,0.2,1.6,0.4
					l-0.2,0.5c-0.3-0.2-0.7-0.3-1.4-0.3c-1.6,0-2.4,1.2-2.4,2.6c0,1.6,1,2.6,2.4,2.6c0.7,0,1.2-0.2,1.5-0.3L542,401.1z"/>
				<path class="st1" d="M547.3,400c0,0.5,0,1,0.1,1.4h-0.5l-0.1-0.9h0c-0.3,0.5-1,1-1.9,1c-1.2,0-1.8-0.8-1.8-1.6
					c0-1.4,1.2-2.2,3.6-2.2v-0.2c0-0.6-0.1-1.8-1.5-1.7c-0.5,0-1.1,0.1-1.5,0.4l-0.2-0.4c0.5-0.4,1.2-0.5,1.7-0.5
					c1.7,0,2.1,1.3,2.1,2.3V400z M546.7,398.2c-1.3,0-3,0.2-3,1.6c0,0.9,0.6,1.2,1.2,1.2c1,0,1.6-0.6,1.8-1.2c0-0.1,0.1-0.3,0.1-0.4
					V398.2z"/>
				<path class="st1" d="M549,400.6c0.3,0.2,0.8,0.4,1.3,0.4c0.9,0,1.4-0.5,1.4-1.1c0-0.7-0.4-1-1.3-1.4c-1-0.4-1.5-0.9-1.5-1.6
					c0-0.9,0.7-1.6,1.8-1.6c0.5,0,1,0.2,1.3,0.4l-0.2,0.5c-0.2-0.1-0.6-0.4-1.2-0.4c-0.8,0-1.2,0.5-1.2,1c0,0.6,0.4,0.9,1.2,1.2
					c1,0.4,1.5,0.9,1.5,1.8c0,1-0.8,1.7-2,1.7c-0.6,0-1.1-0.2-1.5-0.4L549,400.6z"/>
				<path class="st1" d="M554,392.6h0.6v3.9h0c0.2-0.3,0.5-0.7,0.8-0.9c0.3-0.2,0.8-0.3,1.2-0.3c0.6,0,2.1,0.3,2.1,2.5v3.6h-0.6
					v-3.5c0-1.1-0.4-2-1.6-2c-0.8,0-1.5,0.6-1.8,1.3c-0.1,0.2-0.1,0.3-0.1,0.6v3.6H554V392.6z"/>
				<path class="st1" d="M561.6,393.7c0,0.3-0.2,0.5-0.5,0.5c-0.3,0-0.5-0.2-0.5-0.5c0-0.3,0.2-0.5,0.5-0.5
					C561.4,393.2,561.6,393.4,561.6,393.7z M560.8,401.4v-6h0.6v6H560.8z"/>
				<path class="st1" d="M563.6,398.3c0,1.9,1,2.7,2.3,2.7c0.9,0,1.3-0.2,1.6-0.3l0.1,0.5c-0.2,0.1-0.8,0.4-1.9,0.4
					c-1.7,0-2.8-1.2-2.8-3c0-2,1.1-3.2,2.7-3.2c1.9,0,2.3,1.8,2.3,2.7c0,0.2,0,0.2,0,0.4H563.6z M567.4,397.9c0-0.8-0.3-2.1-1.8-2.1
					c-1.3,0-1.9,1.2-2,2.1H567.4z"/>
				<path class="st1" d="M569.7,397.2c0-0.6,0-1.2,0-1.8h0.5l0,1.2h0c0.3-0.7,0.9-1.3,1.7-1.3c0.1,0,0.2,0,0.2,0v0.6
					c-0.1,0-0.2,0-0.3,0c-0.8,0-1.4,0.7-1.6,1.7c0,0.2,0,0.4,0,0.6v3.3h-0.6V397.2z"/>
				<path class="st1" d="M574.2,392.9L574.2,392.9l-0.8,0.4l-0.1-0.3l0.9-0.5h0.3v4.7h-0.3V392.9z"/>
			</g>
		</g>
		<g>
			<g>
				<path class="st1" d="M635.5,382.3h-3.3v3.7h3.7v0.5h-4.3v-8.4h4.1v0.5h-3.5v3.2h3.3V382.3z"/>
				<path class="st1" d="M637.4,377.7h0.6v8.8h-0.6V377.7z"/>
				<path class="st1" d="M640.2,383.5c0,1.9,1,2.7,2.3,2.7c0.9,0,1.3-0.2,1.6-0.3l0.1,0.5c-0.2,0.1-0.8,0.4-1.9,0.4
					c-1.7,0-2.8-1.2-2.8-3c0-2,1.1-3.2,2.7-3.2c1.9,0,2.3,1.8,2.3,2.7c0,0.2,0,0.2,0,0.4H640.2z M644,383c0-0.8-0.3-2.1-1.8-2.1
					c-1.3,0-1.9,1.2-2,2.1H644z"/>
				<path class="st1" d="M650.4,386.2c-0.3,0.1-0.9,0.4-1.7,0.4c-1.7,0-2.9-1.3-2.9-3c0-1.9,1.3-3.2,3.1-3.2c0.7,0,1.3,0.2,1.6,0.4
					l-0.2,0.5c-0.3-0.2-0.7-0.3-1.4-0.3c-1.6,0-2.4,1.2-2.4,2.6c0,1.6,1,2.6,2.4,2.6c0.7,0,1.2-0.2,1.5-0.3L650.4,386.2z"/>
				<path class="st1" d="M652.9,379.2v1.3h1.7v0.5h-1.7v3.9c0,0.8,0.2,1.2,0.9,1.2c0.3,0,0.5,0,0.7-0.1l0.1,0.4
					c-0.2,0.1-0.5,0.1-0.8,0.1c-0.4,0-0.8-0.1-1-0.4c-0.3-0.3-0.4-0.8-0.4-1.4V381h-1v-0.5h1v-1.1L652.9,379.2z"/>
				<path class="st1" d="M656,382.3c0-0.6,0-1.2,0-1.8h0.5l0,1.2h0c0.3-0.7,0.9-1.3,1.7-1.3c0.1,0,0.2,0,0.2,0v0.6
					c-0.1,0-0.2,0-0.3,0c-0.8,0-1.4,0.7-1.6,1.7c0,0.2,0,0.4,0,0.6v3.3H656V382.3z"/>
				<path class="st1" d="M664.8,383.5c0,2.2-1.5,3.2-2.9,3.2c-1.5,0-2.7-1.2-2.7-3.1c0-2,1.3-3.2,2.8-3.2
					C663.7,380.4,664.8,381.6,664.8,383.5z M659.8,383.5c0,1.5,1,2.6,2.2,2.6c1.2,0,2.2-1.1,2.2-2.6c0-1.1-0.6-2.6-2.2-2.6
					C660.5,380.9,659.8,382.3,659.8,383.5z"/>
				<path class="st1" d="M666.4,382c0-0.5,0-1,0-1.4h0.6l0,1.1h0c0.3-0.7,1.1-1.2,2-1.2c0.6,0,2.1,0.3,2.1,2.5v3.6h-0.6V383
					c0-1.1-0.4-2.1-1.7-2.1c-0.8,0-1.6,0.6-1.8,1.4c0,0.1-0.1,0.3-0.1,0.5v3.7h-0.6V382z"/>
				<path class="st1" d="M673.9,378.8c0,0.3-0.2,0.5-0.5,0.5c-0.3,0-0.5-0.2-0.5-0.5c0-0.3,0.2-0.5,0.5-0.5
					C673.7,378.3,673.9,378.6,673.9,378.8z M673.2,386.5v-6h0.6v6H673.2z"/>
				<path class="st1" d="M680,386.2c-0.3,0.1-0.9,0.4-1.7,0.4c-1.7,0-2.9-1.3-2.9-3c0-1.9,1.3-3.2,3.1-3.2c0.7,0,1.3,0.2,1.6,0.4
					l-0.2,0.5c-0.3-0.2-0.7-0.3-1.4-0.3c-1.6,0-2.4,1.2-2.4,2.6c0,1.6,1,2.6,2.4,2.6c0.7,0,1.2-0.2,1.5-0.3L680,386.2z"/>
				<path class="st1" d="M633.8,397.3c0-0.7,0-1.3,0-1.9h0.6l0,1.1h0c0.4-0.8,1.2-1.3,2.2-1.3c1.5,0,2.6,1.3,2.6,3
					c0,2.1-1.3,3.2-2.7,3.2c-0.9,0-1.6-0.4-2-1.1h0v3.4h-0.6V397.3z M634.4,399c0,0.2,0,0.3,0,0.5c0.2,0.9,1,1.5,2,1.5
					c1.4,0,2.1-1.1,2.1-2.7c0-1.3-0.7-2.5-2.1-2.5c-0.9,0-1.7,0.6-2,1.6c0,0.2-0.1,0.3-0.1,0.5V399z"/>
				<path class="st1" d="M644.5,400c0,0.5,0,1,0.1,1.4h-0.5l-0.1-0.9h0c-0.3,0.5-1,1-1.9,1c-1.2,0-1.8-0.8-1.8-1.6
					c0-1.4,1.2-2.2,3.6-2.2v-0.2c0-0.6-0.1-1.8-1.5-1.7c-0.5,0-1.1,0.1-1.5,0.4l-0.2-0.4c0.5-0.4,1.2-0.5,1.7-0.5
					c1.7,0,2.1,1.3,2.1,2.3V400z M643.9,398.2c-1.3,0-3,0.2-3,1.6c0,0.9,0.6,1.2,1.2,1.2c1,0,1.6-0.6,1.8-1.2c0-0.1,0.1-0.3,0.1-0.4
					V398.2z"/>
				<path class="st1" d="M646.3,395.4l1.6,3.9c0.2,0.4,0.3,0.9,0.4,1.3h0c0.1-0.4,0.3-0.8,0.5-1.3l1.5-3.9h0.6l-1.8,4.4
					c-0.7,1.8-1.2,3-2,3.6c-0.5,0.4-0.9,0.6-1,0.6l-0.2-0.5c0.3-0.1,0.7-0.3,1-0.7c0.3-0.3,0.7-0.8,1-1.5c0-0.1,0.1-0.2,0.1-0.3
					c0,0,0-0.1-0.1-0.3l-2.2-5.5H646.3z"/>
				<path class="st1" d="M652.1,396.8c0-0.5,0-1,0-1.4h0.6l0,1.1h0c0.4-0.7,1-1.2,1.9-1.2c0.8,0,1.5,0.5,1.7,1.3h0
					c0.2-0.4,0.4-0.6,0.6-0.8c0.4-0.3,0.8-0.5,1.4-0.5c0.6,0,1.9,0.3,1.9,2.6v3.5h-0.6v-3.4c0-1.3-0.5-2.1-1.6-2.1
					c-0.7,0-1.3,0.5-1.6,1.2c0,0.2-0.1,0.4-0.1,0.6v3.8h-0.6v-3.7c0-1.1-0.5-1.9-1.5-1.9c-0.8,0-1.4,0.6-1.6,1.3
					c0,0.2-0.1,0.4-0.1,0.6v3.7h-0.6V396.8z"/>
				<path class="st1" d="M662.5,398.3c0,1.9,1,2.7,2.3,2.7c0.9,0,1.3-0.2,1.6-0.3l0.1,0.5c-0.2,0.1-0.8,0.4-1.9,0.4
					c-1.7,0-2.8-1.2-2.8-3c0-2,1.1-3.2,2.7-3.2c1.9,0,2.3,1.8,2.3,2.7c0,0.2,0,0.2,0,0.4H662.5z M666.2,397.9c0-0.8-0.3-2.1-1.8-2.1
					c-1.3,0-1.9,1.2-2,2.1H666.2z"/>
				<path class="st1" d="M668.5,396.8c0-0.5,0-1,0-1.4h0.6l0,1.1h0c0.3-0.7,1.1-1.2,2-1.2c0.6,0,2.1,0.3,2.1,2.5v3.6h-0.6v-3.5
					c0-1.1-0.4-2.1-1.7-2.1c-0.8,0-1.6,0.6-1.8,1.4c0,0.1-0.1,0.3-0.1,0.5v3.7h-0.6V396.8z"/>
				<path class="st1" d="M676.1,394.1v1.3h1.7v0.5h-1.7v3.9c0,0.8,0.2,1.2,0.9,1.2c0.3,0,0.5,0,0.7-0.1l0.1,0.4
					c-0.2,0.1-0.5,0.1-0.8,0.1c-0.4,0-0.8-0.1-1-0.4c-0.3-0.3-0.4-0.8-0.4-1.4v-3.8h-1v-0.5h1v-1.1L676.1,394.1z"/>
			</g>
		</g>
		<g>
			<g>
				<path class="st1" d="M305.7,382.3h-3.3v3.7h3.7v0.5h-4.3v-8.4h4.1v0.5h-3.5v3.2h3.3V382.3z"/>
				<path class="st1" d="M307.6,377.7h0.6v8.8h-0.6V377.7z"/>
				<path class="st1" d="M310.4,383.4c0,1.9,1,2.7,2.3,2.7c0.9,0,1.3-0.2,1.6-0.3l0.1,0.5c-0.2,0.1-0.8,0.4-1.9,0.4
					c-1.7,0-2.8-1.2-2.8-3c0-2,1.1-3.2,2.7-3.2c1.9,0,2.3,1.8,2.3,2.7c0,0.2,0,0.2,0,0.4H310.4z M314.2,382.9c0-0.8-0.3-2.1-1.8-2.1
					c-1.3,0-1.9,1.2-2,2.1H314.2z"/>
				<path class="st1" d="M320.6,386.2c-0.3,0.1-0.9,0.4-1.7,0.4c-1.7,0-2.9-1.3-2.9-3c0-1.9,1.3-3.2,3.1-3.2c0.7,0,1.3,0.2,1.6,0.4
					l-0.2,0.5c-0.3-0.2-0.7-0.3-1.4-0.3c-1.6,0-2.4,1.2-2.4,2.6c0,1.6,1,2.6,2.4,2.6c0.7,0,1.2-0.2,1.5-0.3L320.6,386.2z"/>
				<path class="st1" d="M323.1,379.2v1.3h1.7v0.5h-1.7v3.9c0,0.8,0.2,1.2,0.9,1.2c0.3,0,0.5,0,0.7-0.1l0.1,0.4
					c-0.2,0.1-0.5,0.1-0.8,0.1c-0.4,0-0.8-0.1-1-0.4c-0.3-0.3-0.4-0.8-0.4-1.4V381h-1v-0.5h1v-1.1L323.1,379.2z"/>
				<path class="st1" d="M326.2,382.3c0-0.6,0-1.2,0-1.8h0.5l0,1.2h0c0.3-0.7,0.9-1.3,1.7-1.3c0.1,0,0.2,0,0.2,0v0.6
					c-0.1,0-0.2,0-0.3,0c-0.8,0-1.4,0.7-1.6,1.7c0,0.2,0,0.4,0,0.6v3.3h-0.6V382.3z"/>
				<path class="st1" d="M335,383.4c0,2.2-1.5,3.2-2.9,3.2c-1.5,0-2.7-1.2-2.7-3.1c0-2,1.3-3.2,2.8-3.2
					C333.8,380.4,335,381.6,335,383.4z M330,383.5c0,1.5,1,2.6,2.2,2.6c1.2,0,2.2-1.1,2.2-2.6c0-1.1-0.6-2.6-2.2-2.6
					C330.7,380.9,330,382.2,330,383.5z"/>
				<path class="st1" d="M336.6,381.9c0-0.5,0-1,0-1.4h0.6l0,1.1h0c0.3-0.7,1.1-1.2,2-1.2c0.6,0,2.1,0.3,2.1,2.5v3.6h-0.6v-3.5
					c0-1.1-0.4-2.1-1.6-2.1c-0.8,0-1.6,0.6-1.8,1.4c0,0.1-0.1,0.3-0.1,0.5v3.7h-0.6V381.9z"/>
				<path class="st1" d="M344.1,378.8c0,0.3-0.2,0.5-0.5,0.5c-0.3,0-0.5-0.2-0.5-0.5c0-0.3,0.2-0.5,0.5-0.5S344.1,378.5,344.1,378.8
					z M343.4,386.5v-6h0.6v6H343.4z"/>
				<path class="st1" d="M350.2,386.2c-0.3,0.1-0.9,0.4-1.7,0.4c-1.7,0-2.9-1.3-2.9-3c0-1.9,1.3-3.2,3.1-3.2c0.7,0,1.3,0.2,1.6,0.4
					l-0.2,0.5c-0.3-0.2-0.7-0.3-1.4-0.3c-1.6,0-2.4,1.2-2.4,2.6c0,1.6,1,2.6,2.4,2.6c0.7,0,1.2-0.2,1.5-0.3L350.2,386.2z"/>
				<path class="st1" d="M304,397.3c0-0.7,0-1.3,0-1.9h0.6l0,1.1h0c0.4-0.8,1.2-1.3,2.2-1.3c1.5,0,2.6,1.3,2.6,3
					c0,2.1-1.3,3.2-2.7,3.2c-0.9,0-1.6-0.4-2-1.1h0v3.4H304V397.3z M304.6,399c0,0.2,0,0.3,0,0.5c0.2,0.9,1,1.5,2,1.5
					c1.4,0,2.1-1.1,2.1-2.7c0-1.3-0.7-2.5-2.1-2.5c-0.9,0-1.7,0.6-2,1.6c0,0.2-0.1,0.3-0.1,0.5V399z"/>
				<path class="st1" d="M314.7,399.9c0,0.5,0,1,0.1,1.4h-0.5l-0.1-0.9h0c-0.3,0.5-1,1-1.9,1c-1.2,0-1.7-0.8-1.7-1.6
					c0-1.4,1.2-2.2,3.6-2.2v-0.2c0-0.6-0.1-1.8-1.5-1.7c-0.5,0-1.1,0.1-1.5,0.4l-0.2-0.4c0.5-0.4,1.2-0.5,1.7-0.5
					c1.7,0,2.1,1.3,2.1,2.3V399.9z M314.1,398.2c-1.3,0-3,0.2-3,1.6c0,0.9,0.6,1.2,1.2,1.2c1,0,1.6-0.6,1.8-1.2
					c0-0.1,0.1-0.3,0.1-0.4V398.2z"/>
				<path class="st1" d="M316.5,395.4l1.6,3.9c0.2,0.4,0.3,0.9,0.4,1.3h0c0.1-0.4,0.3-0.8,0.5-1.3l1.5-3.9h0.6l-1.8,4.4
					c-0.7,1.8-1.2,3-2,3.6c-0.5,0.4-0.9,0.6-1,0.6l-0.2-0.5c0.3-0.1,0.7-0.3,1-0.7c0.3-0.3,0.7-0.8,1-1.5c0-0.1,0.1-0.2,0.1-0.3
					c0,0,0-0.1-0.1-0.3l-2.2-5.5H316.5z"/>
				<path class="st1" d="M322.3,396.8c0-0.5,0-1,0-1.4h0.6l0,1.1h0c0.4-0.7,1-1.2,1.9-1.2c0.8,0,1.5,0.5,1.7,1.3h0
					c0.2-0.4,0.4-0.6,0.6-0.8c0.4-0.3,0.8-0.5,1.4-0.5c0.6,0,1.9,0.3,1.9,2.6v3.5h-0.6v-3.4c0-1.3-0.5-2.1-1.6-2.1
					c-0.7,0-1.3,0.5-1.6,1.2c0,0.2-0.1,0.4-0.1,0.6v3.8h-0.6v-3.7c0-1.1-0.5-1.9-1.5-1.9c-0.8,0-1.4,0.6-1.6,1.3
					c0,0.2-0.1,0.4-0.1,0.6v3.7h-0.6V396.8z"/>
				<path class="st1" d="M332.6,398.3c0,1.9,1,2.7,2.3,2.7c0.9,0,1.3-0.2,1.6-0.3l0.1,0.5c-0.2,0.1-0.8,0.4-1.9,0.4
					c-1.7,0-2.8-1.2-2.8-3c0-2,1.1-3.2,2.7-3.2c1.9,0,2.3,1.8,2.3,2.7c0,0.2,0,0.2,0,0.4H332.6z M336.4,397.8c0-0.8-0.3-2.1-1.8-2.1
					c-1.3,0-1.9,1.2-2,2.1H336.4z"/>
				<path class="st1" d="M338.7,396.8c0-0.5,0-1,0-1.4h0.6l0,1.1h0c0.3-0.7,1.1-1.2,2-1.2c0.6,0,2.1,0.3,2.1,2.5v3.6h-0.6v-3.5
					c0-1.1-0.4-2.1-1.6-2.1c-0.8,0-1.6,0.6-1.8,1.4c0,0.1-0.1,0.3-0.1,0.5v3.7h-0.6V396.8z"/>
				<path class="st1" d="M346.3,394.1v1.3h1.7v0.5h-1.7v3.9c0,0.8,0.2,1.2,0.9,1.2c0.3,0,0.5,0,0.7-0.1l0.1,0.4
					c-0.2,0.1-0.5,0.1-0.8,0.1c-0.4,0-0.8-0.1-1-0.4c-0.3-0.3-0.4-0.8-0.4-1.4v-3.8h-1v-0.5h1v-1.1L346.3,394.1z"/>
			</g>
		</g>
		<g>
			<g>
				<path class="st1" d="M178.8,584.1v8.4h-0.6v-8.4H178.8z"/>
				<path class="st1" d="M181.2,588c0-0.5,0-1,0-1.4h0.6l0,1.1h0c0.3-0.7,1.1-1.2,2-1.2c0.6,0,2.1,0.3,2.1,2.5v3.6h-0.6V589
					c0-1.1-0.4-2.1-1.6-2.1c-0.8,0-1.6,0.6-1.8,1.4c0,0.1-0.1,0.3-0.1,0.5v3.7h-0.6V588z"/>
				<path class="st1" d="M190.2,588.8v0.5h-3v-0.5H190.2z"/>
				<path class="st1" d="M191.5,591.7c0.3,0.2,0.8,0.4,1.3,0.4c0.9,0,1.4-0.5,1.4-1.1c0-0.7-0.4-1-1.3-1.4c-1-0.4-1.5-0.9-1.5-1.6
					c0-0.9,0.7-1.6,1.8-1.6c0.5,0,1,0.2,1.3,0.4l-0.2,0.5c-0.2-0.1-0.6-0.4-1.2-0.4c-0.8,0-1.2,0.5-1.2,1c0,0.6,0.4,0.9,1.2,1.2
					c1,0.4,1.5,0.9,1.5,1.8c0,1-0.8,1.7-2,1.7c-0.6,0-1.1-0.2-1.5-0.4L191.5,591.7z"/>
				<path class="st1" d="M197.3,585.2v1.3h1.7v0.5h-1.7v3.9c0,0.8,0.2,1.2,0.9,1.2c0.3,0,0.5,0,0.7-0.1l0.1,0.4
					c-0.2,0.1-0.5,0.1-0.8,0.1c-0.4,0-0.8-0.1-1-0.4c-0.3-0.3-0.4-0.8-0.4-1.4V587h-1v-0.5h1v-1.1L197.3,585.2z"/>
				<path class="st1" d="M205.5,589.5c0,2.2-1.5,3.2-2.9,3.2c-1.5,0-2.7-1.2-2.7-3.1c0-2,1.3-3.2,2.8-3.2
					C204.3,586.4,205.5,587.7,205.5,589.5z M200.5,589.5c0,1.5,1,2.6,2.2,2.6c1.2,0,2.2-1.1,2.2-2.6c0-1.1-0.6-2.6-2.2-2.6
					C201.2,586.9,200.5,588.3,200.5,589.5z"/>
				<path class="st1" d="M207.1,588.3c0-0.6,0-1.2,0-1.8h0.5l0,1.2h0c0.3-0.7,0.9-1.3,1.7-1.3c0.1,0,0.2,0,0.2,0v0.6
					c-0.1,0-0.2,0-0.3,0c-0.8,0-1.4,0.7-1.6,1.7c0,0.2,0,0.4,0,0.6v3.3h-0.6V588.3z"/>
				<path class="st1" d="M210.8,589.5c0,1.9,1,2.7,2.3,2.7c0.9,0,1.3-0.2,1.6-0.3l0.1,0.5c-0.2,0.1-0.8,0.4-1.9,0.4
					c-1.7,0-2.8-1.2-2.8-3c0-2,1.1-3.2,2.7-3.2c1.9,0,2.3,1.8,2.3,2.7c0,0.2,0,0.2,0,0.4H210.8z M214.6,589c0-0.8-0.3-2.1-1.8-2.1
					c-1.3,0-1.9,1.2-2,2.1H214.6z"/>
			</g>
		</g>
		<g>
			<g>
				<path class="st1" d="M38.4,376.9h-2.7v-0.5h6.1v0.5H39v7.9h-0.6V376.9z"/>
				<path class="st1" d="M42.2,380.6c0-0.6,0-1.2,0-1.8h0.5l0,1.2h0c0.3-0.7,0.9-1.3,1.7-1.3c0.1,0,0.2,0,0.2,0v0.6
					c-0.1,0-0.2,0-0.3,0c-0.8,0-1.4,0.7-1.6,1.7c0,0.2,0,0.4,0,0.6v3.3h-0.6V380.6z"/>
				<path class="st1" d="M49.7,383.3c0,0.5,0,1,0.1,1.4h-0.5l-0.1-0.9h0c-0.3,0.5-1,1-1.9,1c-1.2,0-1.7-0.8-1.7-1.6
					c0-1.4,1.2-2.2,3.6-2.2v-0.2c0-0.6-0.1-1.8-1.5-1.7c-0.5,0-1.1,0.1-1.5,0.4l-0.2-0.4c0.5-0.4,1.2-0.5,1.7-0.5
					c1.7,0,2.1,1.3,2.1,2.3V383.3z M49.1,381.6c-1.3,0-3,0.2-3,1.6c0,0.9,0.6,1.2,1.2,1.2c1,0,1.6-0.6,1.8-1.2
					c0-0.1,0.1-0.3,0.1-0.4V381.6z"/>
				<path class="st1" d="M56.5,376v7.4c0,0.4,0,1,0,1.4H56l0-1.1h0c-0.3,0.7-1,1.3-2.1,1.3c-1.5,0-2.6-1.2-2.6-3
					c0-2,1.2-3.2,2.7-3.2c1,0,1.7,0.5,1.9,1.1h0V376H56.5z M55.9,381.2c0-0.2,0-0.4-0.1-0.5c-0.2-0.8-0.9-1.5-1.9-1.5
					c-1.3,0-2.1,1.1-2.1,2.7c0,1.3,0.7,2.6,2.1,2.6c0.9,0,1.7-0.6,1.9-1.6c0-0.2,0.1-0.3,0.1-0.5V381.2z"/>
				<path class="st1" d="M59.4,377.1c0,0.3-0.2,0.5-0.5,0.5c-0.3,0-0.5-0.2-0.5-0.5c0-0.3,0.2-0.5,0.5-0.5S59.4,376.8,59.4,377.1z
					 M58.6,384.8v-6h0.6v6H58.6z"/>
				<path class="st1" d="M62.1,377.5v1.3h1.7v0.5h-1.7v3.9c0,0.8,0.2,1.2,0.9,1.2c0.3,0,0.5,0,0.7-0.1l0.1,0.4
					c-0.2,0.1-0.5,0.1-0.8,0.1c-0.4,0-0.8-0.1-1-0.4c-0.3-0.3-0.4-0.8-0.4-1.4v-3.8h-1v-0.5h1v-1.1L62.1,377.5z"/>
				<path class="st1" d="M66,377.1c0,0.3-0.2,0.5-0.5,0.5c-0.3,0-0.5-0.2-0.5-0.5c0-0.3,0.2-0.5,0.5-0.5S66,376.8,66,377.1z
					 M65.3,384.8v-6h0.6v6H65.3z"/>
				<path class="st1" d="M73.1,381.7c0,2.2-1.5,3.2-2.9,3.2c-1.5,0-2.7-1.2-2.7-3.1c0-2,1.3-3.2,2.8-3.2
					C71.9,378.7,73.1,379.9,73.1,381.7z M68.1,381.8c0,1.5,1,2.6,2.2,2.6c1.2,0,2.2-1.1,2.2-2.6c0-1.1-0.6-2.6-2.2-2.6
					C68.8,379.2,68.1,380.5,68.1,381.8z"/>
				<path class="st1" d="M74.7,380.2c0-0.5,0-1,0-1.4h0.6l0,1.1h0c0.3-0.7,1.1-1.2,2-1.2c0.6,0,2.1,0.3,2.1,2.5v3.6h-0.6v-3.5
					c0-1.1-0.4-2.1-1.6-2.1c-0.8,0-1.6,0.6-1.8,1.4c0,0.1-0.1,0.3-0.1,0.5v3.7h-0.6V380.2z"/>
				<path class="st1" d="M85.2,383.3c0,0.5,0,1,0.1,1.4h-0.5l-0.1-0.9h0c-0.3,0.5-1,1-1.9,1c-1.2,0-1.7-0.8-1.7-1.6
					c0-1.4,1.2-2.2,3.6-2.2v-0.2c0-0.6-0.1-1.8-1.5-1.7c-0.5,0-1.1,0.1-1.5,0.4l-0.2-0.4c0.5-0.4,1.2-0.5,1.7-0.5
					c1.7,0,2.1,1.3,2.1,2.3V383.3z M84.6,381.6c-1.3,0-3,0.2-3,1.6c0,0.9,0.6,1.2,1.2,1.2c1,0,1.6-0.6,1.8-1.2
					c0-0.1,0.1-0.3,0.1-0.4V381.6z"/>
				<path class="st1" d="M87.2,376h0.6v8.8h-0.6V376z"/>
				<path class="st1" d="M49.3,399.4c-0.3,0.1-0.9,0.4-1.7,0.4c-1.7,0-2.9-1.3-2.9-3c0-1.9,1.3-3.2,3.1-3.2c0.7,0,1.3,0.2,1.6,0.4
					l-0.2,0.5c-0.3-0.2-0.7-0.3-1.4-0.3c-1.6,0-2.4,1.2-2.4,2.6c0,1.6,1,2.6,2.4,2.6c0.7,0,1.2-0.2,1.5-0.3L49.3,399.4z"/>
				<path class="st1" d="M54.6,398.2c0,0.5,0,1,0.1,1.4h-0.5l-0.1-0.9h0c-0.3,0.5-1,1-1.9,1c-1.2,0-1.7-0.8-1.7-1.6
					c0-1.4,1.2-2.2,3.6-2.2v-0.2c0-0.6-0.1-1.8-1.5-1.7c-0.5,0-1.1,0.1-1.5,0.4l-0.2-0.4c0.5-0.4,1.2-0.5,1.7-0.5
					c1.7,0,2.1,1.3,2.1,2.3V398.2z M54,396.5c-1.3,0-3,0.2-3,1.6c0,0.9,0.6,1.2,1.2,1.2c1,0,1.6-0.6,1.8-1.2c0-0.1,0.1-0.3,0.1-0.4
					V396.5z"/>
				<path class="st1" d="M56.4,398.9c0.3,0.2,0.8,0.4,1.3,0.4c0.9,0,1.4-0.5,1.4-1.1c0-0.7-0.4-1-1.3-1.4c-1-0.4-1.5-0.9-1.5-1.6
					c0-0.9,0.7-1.6,1.8-1.6c0.5,0,1,0.2,1.3,0.4l-0.2,0.5c-0.2-0.1-0.6-0.4-1.2-0.4c-0.8,0-1.2,0.5-1.2,1c0,0.6,0.4,0.9,1.2,1.2
					c1,0.4,1.5,0.9,1.5,1.8c0,1-0.8,1.7-2,1.7c-0.6,0-1.1-0.2-1.5-0.4L56.4,398.9z"/>
				<path class="st1" d="M61.3,390.8h0.6v3.9h0c0.2-0.3,0.5-0.7,0.8-0.9c0.3-0.2,0.8-0.3,1.2-0.3c0.6,0,2.1,0.3,2.1,2.5v3.6h-0.6
					v-3.5c0-1.1-0.4-2-1.6-2c-0.8,0-1.5,0.6-1.8,1.3c-0.1,0.2-0.1,0.3-0.1,0.6v3.6h-0.6V390.8z"/>
				<path class="st1" d="M68.9,392c0,0.3-0.2,0.5-0.5,0.5c-0.3,0-0.5-0.2-0.5-0.5c0-0.3,0.2-0.5,0.5-0.5S68.9,391.7,68.9,392z
					 M68.1,399.6v-6h0.6v6H68.1z"/>
				<path class="st1" d="M70.9,396.6c0,1.9,1,2.7,2.3,2.7c0.9,0,1.3-0.2,1.6-0.3l0.1,0.5c-0.2,0.1-0.8,0.4-1.9,0.4
					c-1.7,0-2.8-1.2-2.8-3c0-2,1.1-3.2,2.7-3.2c1.9,0,2.3,1.8,2.3,2.7c0,0.2,0,0.2,0,0.4H70.9z M74.7,396.1c0-0.8-0.3-2.1-1.8-2.1
					c-1.3,0-1.9,1.2-2,2.1H74.7z"/>
				<path class="st1" d="M77,395.5c0-0.6,0-1.2,0-1.8h0.5l0,1.2h0c0.3-0.7,0.9-1.3,1.7-1.3c0.1,0,0.2,0,0.2,0v0.6
					c-0.1,0-0.2,0-0.3,0c-0.8,0-1.4,0.7-1.6,1.7c0,0.2,0,0.4,0,0.6v3.3H77V395.5z"/>
				<path class="st1" d="M81.5,391.2L81.5,391.2l-0.8,0.4l-0.1-0.3l0.9-0.5h0.3v4.7h-0.3V391.2z"/>
			</g>
		</g>
		<g>
			<g>
				<path class="st1" d="M128.2,397.5c0.5,0.3,1.1,0.5,1.8,0.5c1.3,0,2-0.7,2-1.7c0-0.9-0.5-1.5-1.7-2c-1.3-0.5-2.1-1.2-2.1-2.3
					c0-1.2,1-2.1,2.4-2.1c0.8,0,1.4,0.2,1.7,0.4l-0.2,0.5c-0.2-0.2-0.8-0.4-1.5-0.4c-1.4,0-1.8,0.9-1.8,1.5c0,0.9,0.5,1.4,1.7,1.9
					c1.4,0.6,2.1,1.2,2.1,2.4c0,1.2-0.9,2.3-2.7,2.3c-0.7,0-1.6-0.2-2-0.6L128.2,397.5z"/>
				<path class="st1" d="M134.5,395.4c0,1.9,1,2.7,2.3,2.7c0.9,0,1.3-0.2,1.6-0.3l0.1,0.5c-0.2,0.1-0.8,0.4-1.9,0.4
					c-1.7,0-2.8-1.2-2.8-3c0-2,1.1-3.2,2.7-3.2c1.9,0,2.3,1.8,2.3,2.7c0,0.2,0,0.2,0,0.4H134.5z M138.3,394.9c0-0.8-0.3-2.1-1.8-2.1
					c-1.3,0-1.9,1.2-2,2.1H138.3z"/>
				<path class="st1" d="M140.6,389.6h0.6v8.8h-0.6V389.6z"/>
				<path class="st1" d="M143.3,398.4V393h-0.9v-0.5h0.9v-0.3c0-0.9,0.2-1.7,0.7-2.1c0.4-0.4,0.9-0.5,1.3-0.5c0.4,0,0.7,0.1,0.9,0.2
					l-0.2,0.5c-0.2-0.1-0.4-0.2-0.8-0.2c-1.1,0-1.3,1-1.3,2.2v0.3h1.6v0.5h-1.6v5.5H143.3z"/>
				<path class="st1" d="M149,394.8v0.5h-3v-0.5H149z"/>
				<path class="st1" d="M150.3,397.7c0.3,0.2,0.8,0.4,1.3,0.4c0.9,0,1.4-0.5,1.4-1.1c0-0.7-0.4-1-1.3-1.4c-1-0.4-1.5-0.9-1.5-1.6
					c0-0.9,0.7-1.6,1.8-1.6c0.5,0,1,0.2,1.3,0.4l-0.2,0.5c-0.2-0.1-0.6-0.4-1.2-0.4c-0.8,0-1.2,0.5-1.2,1c0,0.6,0.4,0.9,1.2,1.2
					c1,0.4,1.5,0.9,1.5,1.8c0,1-0.8,1.7-2,1.7c-0.6,0-1.1-0.2-1.5-0.4L150.3,397.7z"/>
				<path class="st1" d="M159.4,398.2c-0.3,0.1-0.9,0.4-1.7,0.4c-1.7,0-2.9-1.3-2.9-3c0-1.9,1.3-3.2,3.1-3.2c0.7,0,1.3,0.2,1.6,0.4
					l-0.2,0.5c-0.3-0.2-0.7-0.3-1.4-0.3c-1.6,0-2.4,1.2-2.4,2.6c0,1.6,1,2.6,2.4,2.6c0.7,0,1.2-0.2,1.5-0.3L159.4,398.2z"/>
				<path class="st1" d="M164.6,397c0,0.5,0,1,0.1,1.4h-0.5l-0.1-0.9h0c-0.3,0.5-1,1-1.9,1c-1.2,0-1.7-0.8-1.7-1.6
					c0-1.4,1.2-2.2,3.6-2.2v-0.2c0-0.6-0.1-1.8-1.5-1.7c-0.5,0-1.1,0.1-1.5,0.4l-0.2-0.4c0.5-0.4,1.2-0.5,1.7-0.5
					c1.7,0,2.1,1.3,2.1,2.3V397z M164,395.3c-1.3,0-3,0.2-3,1.6c0,0.9,0.6,1.2,1.2,1.2c1,0,1.6-0.6,1.8-1.2c0-0.1,0.1-0.3,0.1-0.4
					V395.3z"/>
				<path class="st1" d="M166.7,393.9c0-0.5,0-1,0-1.4h0.6l0,1.1h0c0.3-0.7,1.1-1.2,2-1.2c0.6,0,2.1,0.3,2.1,2.5v3.6h-0.6v-3.5
					c0-1.1-0.4-2.1-1.6-2.1c-0.8,0-1.6,0.6-1.8,1.4c0,0.1-0.1,0.3-0.1,0.5v3.7h-0.6V393.9z"/>
			</g>
		</g>
		<g>
			<g>
				<path class="st1" d="M203.9,397.5c0.5,0.3,1.1,0.5,1.8,0.5c1.3,0,2-0.7,2-1.7c0-0.9-0.5-1.5-1.7-2c-1.3-0.5-2.1-1.2-2.1-2.3
					c0-1.2,1-2.1,2.4-2.1c0.8,0,1.4,0.2,1.7,0.4l-0.2,0.5c-0.2-0.2-0.8-0.4-1.5-0.4c-1.4,0-1.8,0.9-1.8,1.5c0,0.9,0.5,1.4,1.7,1.9
					c1.4,0.6,2.1,1.2,2.1,2.4c0,1.2-0.9,2.3-2.7,2.3c-0.7,0-1.6-0.2-2-0.6L203.9,397.5z"/>
				<path class="st1" d="M210.2,395.4c0,1.9,1,2.7,2.3,2.7c0.9,0,1.3-0.2,1.6-0.3l0.1,0.5c-0.2,0.1-0.8,0.4-1.9,0.4
					c-1.7,0-2.8-1.2-2.8-3c0-2,1.1-3.2,2.7-3.2c1.9,0,2.3,1.8,2.3,2.7c0,0.2,0,0.2,0,0.4H210.2z M214,394.9c0-0.8-0.3-2.1-1.8-2.1
					c-1.3,0-1.9,1.2-2,2.1H214z"/>
				<path class="st1" d="M216.2,389.6h0.6v8.8h-0.6V389.6z"/>
				<path class="st1" d="M219,398.4V393h-0.9v-0.5h0.9v-0.3c0-0.9,0.2-1.7,0.7-2.1c0.4-0.4,0.9-0.5,1.3-0.5c0.4,0,0.7,0.1,0.9,0.2
					l-0.2,0.5c-0.2-0.1-0.4-0.2-0.8-0.2c-1.1,0-1.3,1-1.3,2.2v0.3h1.6v0.5h-1.6v5.5H219z"/>
				<path class="st1" d="M224.7,394.8v0.5h-3v-0.5H224.7z"/>
				<path class="st1" d="M230.5,398.2c-0.3,0.1-0.9,0.4-1.7,0.4c-1.7,0-2.9-1.3-2.9-3c0-1.9,1.3-3.2,3.1-3.2c0.7,0,1.3,0.2,1.6,0.4
					l-0.2,0.5c-0.3-0.2-0.7-0.3-1.4-0.3c-1.6,0-2.4,1.2-2.4,2.6c0,1.6,1,2.6,2.4,2.6c0.7,0,1.2-0.2,1.5-0.3L230.5,398.2z"/>
				<path class="st1" d="M232.1,389.6h0.6v3.9h0c0.2-0.3,0.5-0.7,0.8-0.9c0.3-0.2,0.8-0.3,1.2-0.3c0.6,0,2.1,0.3,2.1,2.5v3.6h-0.6
					v-3.5c0-1.1-0.4-2-1.6-2c-0.8,0-1.5,0.6-1.8,1.3c-0.1,0.2-0.1,0.3-0.1,0.6v3.6h-0.6V389.6z"/>
				<path class="st1" d="M238.9,395.4c0,1.9,1,2.7,2.3,2.7c0.9,0,1.3-0.2,1.6-0.3l0.1,0.5c-0.2,0.1-0.8,0.4-1.9,0.4
					c-1.7,0-2.8-1.2-2.8-3c0-2,1.1-3.2,2.7-3.2c1.9,0,2.3,1.8,2.3,2.7c0,0.2,0,0.2,0,0.4H238.9z M242.7,394.9c0-0.8-0.3-2.1-1.8-2.1
					c-1.3,0-1.9,1.2-2,2.1H242.7z"/>
				<path class="st1" d="M249.1,398.2c-0.3,0.1-0.9,0.4-1.7,0.4c-1.7,0-2.9-1.3-2.9-3c0-1.9,1.3-3.2,3.1-3.2c0.7,0,1.3,0.2,1.6,0.4
					l-0.2,0.5c-0.3-0.2-0.7-0.3-1.4-0.3c-1.6,0-2.4,1.2-2.4,2.6c0,1.6,1,2.6,2.4,2.6c0.7,0,1.2-0.2,1.5-0.3L249.1,398.2z"/>
				<path class="st1" d="M251.2,395.3L251.2,395.3c0.2-0.2,0.4-0.5,0.6-0.7l2.1-2.2h0.7l-2.4,2.5l2.7,3.5h-0.7l-2.4-3.1l-0.6,0.6
					v2.5h-0.6v-8.8h0.6V395.3z"/>
				<path class="st1" d="M261.2,395.4c0,2.2-1.5,3.2-2.9,3.2c-1.5,0-2.7-1.2-2.7-3.1c0-2,1.3-3.2,2.8-3.2
					C260.1,392.3,261.2,393.6,261.2,395.4z M256.2,395.5c0,1.5,1,2.6,2.2,2.6c1.2,0,2.2-1.1,2.2-2.6c0-1.1-0.6-2.6-2.2-2.6
					C256.9,392.8,256.2,394.2,256.2,395.5z"/>
				<path class="st1" d="M267.5,397c0,0.5,0,1,0,1.5h-0.6l0-1.1h0c-0.3,0.6-1,1.2-2,1.2c-0.8,0-2-0.4-2-2.6v-3.5h0.6v3.3
					c0,1.3,0.4,2.2,1.6,2.2c0.9,0,1.5-0.6,1.8-1.2c0.1-0.2,0.1-0.4,0.1-0.7v-3.7h0.6V397z"/>
				<path class="st1" d="M270.4,391.2v1.3h1.7v0.5h-1.7v3.9c0,0.8,0.2,1.2,0.9,1.2c0.3,0,0.5,0,0.7-0.1l0.1,0.4
					c-0.2,0.1-0.5,0.1-0.8,0.1c-0.4,0-0.8-0.1-1-0.4c-0.3-0.3-0.4-0.8-0.4-1.4V393h-1v-0.5h1v-1.1L270.4,391.2z"/>
				<path class="st1" d="M274.2,389.9L274.2,389.9l-0.8,0.4l-0.1-0.3l0.9-0.5h0.3v4.7h-0.3V389.9z"/>
			</g>
		</g>
		<g>
			<path class="st19" d="M351.9,477.5c0.8-0.1,1.8-0.2,2.8-0.2c1.8,0,2.9,0.3,3.8,1c1,0.7,1.6,1.8,1.6,3.5c0,1.8-0.6,3-1.5,3.7
				c-1,0.8-2.4,1.2-4.3,1.2c-1.1,0-1.8-0.1-2.4-0.1V477.5z M354,485c0.2,0,0.5,0,0.7,0c1.9,0,3.1-1,3.1-3.2c0-1.9-1.1-2.9-2.9-2.9
				c-0.5,0-0.8,0-0.9,0.1V485z"/>
			<path class="st19" d="M366.9,482.7h-3.4v2.2h3.8v1.7h-5.9v-9.2h5.7v1.7h-3.6v1.9h3.4V482.7z"/>
			<path class="st19" d="M368.7,477.4h2.1v7.5h3.7v1.8h-5.8V477.4z"/>
			<path class="st19" d="M377.8,477.4v9.2h-2.1v-9.2H377.8z"/>
			<path class="st19" d="M381.8,486.6l-3-9.2h2.3l1.1,3.9c0.3,1.1,0.6,2.1,0.8,3.3h0c0.2-1.1,0.5-2.2,0.8-3.3l1.2-3.9h2.2l-3.1,9.2
				H381.8z"/>
			<path class="st19" d="M393.8,482.7h-3.4v2.2h3.8v1.7h-5.9v-9.2h5.7v1.7h-3.6v1.9h3.4V482.7z"/>
			<path class="st19" d="M395.6,477.5c0.7-0.1,1.7-0.2,2.8-0.2c1.4,0,2.3,0.2,3,0.7c0.5,0.4,0.8,1.1,0.8,1.9c0,1.2-0.8,2-1.6,2.3v0
				c0.6,0.3,1,0.9,1.2,1.7c0.3,1,0.6,2.2,0.8,2.6h-2.1c-0.2-0.3-0.4-1-0.6-2.1c-0.2-1.2-0.6-1.5-1.5-1.5h-0.6v3.6h-2.1V477.5z
				 M397.7,481.5h0.8c1,0,1.7-0.5,1.7-1.3c0-0.8-0.6-1.3-1.5-1.3c-0.5,0-0.8,0-0.9,0.1V481.5z"/>
			<path class="st19" d="M405.9,486.6v-3.8l-2.9-5.4h2.4l0.9,2.2c0.3,0.7,0.5,1.2,0.7,1.8h0c0.2-0.6,0.4-1.1,0.7-1.8l0.9-2.2h2.3
				l-3,5.4v3.8H405.9z"/>
		</g>
		<g>
			<path class="st16" d="M323,484.8c0.6,0.3,1.9,0.9,3.2,0.9c1.7,0,2.5-0.8,2.5-1.9c0-1.4-1.4-2-2.8-2h-1.3v-2.3h1.3
				c1.1,0,2.5-0.4,2.5-1.6c0-0.8-0.7-1.5-2.1-1.5c-1.1,0-2.3,0.5-2.9,0.8l-0.7-2.4c0.8-0.5,2.5-1,4.3-1c3,0,4.6,1.6,4.6,3.5
				c0,1.5-0.8,2.6-2.5,3.2v0c1.7,0.3,3,1.6,3,3.4c0,2.5-2.2,4.3-5.7,4.3c-1.8,0-3.3-0.5-4.1-1L323,484.8z"/>
		</g>
		<g>
			<path class="st19" d="M353.3,278.8c0.6-0.1,1.5-0.2,2.8-0.2c1.3,0,2.2,0.2,2.8,0.7c0.6,0.5,1,1.2,1,2.1s-0.3,1.7-0.8,2.2
				c-0.7,0.7-1.8,1-3,1c-0.3,0-0.5,0-0.7,0v3.3h-2.1V278.8z M355.3,283c0.2,0,0.4,0.1,0.7,0.1c1.1,0,1.8-0.6,1.8-1.5
				c0-0.8-0.6-1.4-1.6-1.4c-0.4,0-0.7,0-0.9,0.1V283z"/>
			<path class="st19" d="M363.4,285.5l-0.7,2.4h-2.2l2.8-9.2h2.7l2.9,9.2h-2.2l-0.7-2.4H363.4z M365.7,283.9l-0.6-2
				c-0.2-0.5-0.3-1.2-0.5-1.8h0c-0.1,0.5-0.3,1.2-0.4,1.8l-0.5,2H365.7z"/>
			<path class="st19" d="M372.3,287.9v-3.8l-2.9-5.4h2.4l0.9,2.2c0.3,0.7,0.5,1.2,0.7,1.8h0c0.2-0.6,0.4-1.1,0.7-1.8l0.9-2.2h2.3
				l-3,5.4v3.8H372.3z"/>
			<path class="st19" d="M386.2,284.3c0-1.1-0.1-2.5-0.1-3.8h0c-0.3,1.2-0.7,2.5-1,3.6l-1.1,3.6h-1.6l-1-3.6
				c-0.3-1.1-0.6-2.4-0.8-3.6h0c-0.1,1.2-0.1,2.7-0.2,3.8l-0.2,3.5h-1.9l0.6-9.2h2.8l0.9,3.1c0.3,1.1,0.6,2.2,0.8,3.3h0
				c0.3-1.1,0.6-2.3,0.9-3.3l1-3.1h2.7l0.5,9.2h-2L386.2,284.3z"/>
			<path class="st19" d="M395.5,284h-3.4v2.2h3.8v1.7H390v-9.2h5.7v1.7h-3.6v1.9h3.4V284z"/>
			<path class="st19" d="M397.3,287.9v-9.2h2.4l1.9,3.4c0.5,1,1.1,2.1,1.5,3.2h0c-0.1-1.2-0.2-2.5-0.2-3.8v-2.7h1.9v9.2h-2.2l-2-3.6
				c-0.5-1-1.1-2.2-1.6-3.3l0,0c0.1,1.2,0.1,2.5,0.1,4v2.8H397.3z"/>
			<path class="st19" d="M408.5,280.4h-2.5v-1.8h7.1v1.8h-2.5v7.5h-2.1V280.4z"/>
		</g>
		<g>
			<path class="st17" d="M324.7,289.2v-2l1.8-1.6c3-2.7,4.5-4.3,4.6-5.9c0-1.1-0.7-2-2.3-2c-1.2,0-2.2,0.6-3,1.2l-0.9-2.3
				c1-0.8,2.7-1.4,4.6-1.4c3.1,0,4.9,1.8,4.9,4.4c0,2.3-1.7,4.2-3.7,6l-1.3,1.1v0h5.2v2.7H324.7z"/>
		</g>
		<g>
			<path class="st19" d="M353.1,84.3c0.6-0.1,1.5-0.2,2.8-0.2c1.3,0,2.2,0.2,2.8,0.7c0.6,0.5,1,1.2,1,2.1s-0.3,1.7-0.8,2.2
				c-0.7,0.7-1.8,1-3,1c-0.3,0-0.5,0-0.7,0v3.3h-2.1V84.3z M355.1,88.5c0.2,0,0.4,0.1,0.7,0.1c1.1,0,1.8-0.6,1.8-1.5
				c0-0.8-0.6-1.4-1.6-1.4c-0.4,0-0.7,0-0.9,0.1V88.5z"/>
			<path class="st19" d="M363.1,84.2v5.3c0,1.6,0.6,2.4,1.7,2.4c1.1,0,1.7-0.8,1.7-2.4v-5.3h2.1v5.2c0,2.8-1.4,4.2-3.8,4.2
				c-2.3,0-3.7-1.3-3.7-4.2v-5.1H363.1z"/>
			<path class="st19" d="M370.4,84.3c0.7-0.1,1.7-0.2,2.8-0.2c1.4,0,2.3,0.2,3,0.7c0.5,0.4,0.8,1.1,0.8,1.9c0,1.2-0.8,2-1.6,2.3v0
				c0.6,0.3,1,0.9,1.2,1.7c0.3,1,0.6,2.2,0.8,2.6h-2.1c-0.2-0.3-0.4-1-0.6-2.1c-0.2-1.1-0.6-1.5-1.5-1.5h-0.6v3.6h-2.1V84.3z
				 M372.4,88.3h0.8c1,0,1.7-0.5,1.7-1.3c0-0.8-0.6-1.3-1.5-1.3c-0.5,0-0.8,0-0.9,0.1V88.3z"/>
			<path class="st19" d="M385.3,93.2c-0.4,0.2-1.2,0.4-2.4,0.4c-3.2,0-4.8-2-4.8-4.6c0-3.1,2.2-4.9,5-4.9c1.1,0,1.9,0.2,2.3,0.4
				l-0.4,1.7c-0.4-0.2-1-0.3-1.8-0.3c-1.7,0-2.9,1-2.9,3.1c0,1.8,1.1,3,3,3c0.6,0,1.3-0.1,1.7-0.3L385.3,93.2z"/>
			<path class="st19" d="M388.7,84.2v3.5h3.4v-3.5h2.1v9.2h-2.1v-3.9h-3.4v3.9h-2.1v-9.2H388.7z"/>
			<path class="st19" d="M398.2,91.1l-0.7,2.4h-2.2l2.8-9.2h2.7l2.9,9.2h-2.2l-0.7-2.4H398.2z M400.5,89.5l-0.6-2
				c-0.2-0.5-0.3-1.2-0.5-1.8h0c-0.1,0.5-0.3,1.2-0.4,1.8l-0.5,2H400.5z"/>
			<path class="st19" d="M405.1,91.3c0.6,0.3,1.4,0.6,2.3,0.6c1,0,1.5-0.4,1.5-1c0-0.6-0.4-0.9-1.5-1.3c-1.5-0.5-2.5-1.4-2.5-2.7
				c0-1.6,1.3-2.8,3.5-2.8c1,0,1.8,0.2,2.4,0.5l-0.5,1.7c-0.4-0.2-1-0.4-1.9-0.4s-1.3,0.4-1.3,0.9c0,0.6,0.5,0.8,1.7,1.3
				c1.6,0.6,2.4,1.5,2.4,2.8c0,1.5-1.2,2.9-3.7,2.9c-1.1,0-2.1-0.3-2.6-0.6L405.1,91.3z"/>
			<path class="st19" d="M417.9,89.6h-3.4v2.2h3.8v1.7h-5.9v-9.2h5.7v1.7h-3.6v1.9h3.4V89.6z"/>
		</g>
		<g>
			<path class="st18" d="M328.6,83.5L328.6,83.5l-2.7,1.3l-0.5-2.4l3.7-1.7h2.7v13.9h-3.1V83.5z"/>
		</g>
	</g>
</g>
</svg>
