<?xml version="1.0" encoding="utf-8"?>
<!-- Generator: Adobe Illustrator 25.2.1, SVG Export Plug-In . SVG Version: 6.00 Build 0)  -->
<svg version="1.1" id="Layer_1" xmlns="http://www.w3.org/2000/svg" xmlns:xlink="http://www.w3.org/1999/xlink" x="0px" y="0px"
	 viewBox="0 0 1104.2 445" style="enable-background:new 0 0 1104.2 445;" xml:space="preserve">
<style type="text/css">
	.st0{clip-path:url(#SVGID_2_);}
	.st1{clip-path:url(#SVGID_4_);fill:#6AAAE4;}
	
		.st2{clip-path:url(#SVGID_6_);fill:none;stroke:#FFB71C;stroke-width:2;stroke-linecap:round;stroke-linejoin:round;stroke-miterlimit:10;}
	.st3{enable-background:new    ;}
	.st4{fill:#FFFFFF;}
	.st5{fill:none;stroke:#FFFFFF;stroke-width:0.75;}
	.st6{fill:none;stroke:#F17A30;stroke-width:2;stroke-linecap:round;}
	.st7{clip-path:url(#SVGID_8_);fill:none;stroke:#F17A30;stroke-width:2;stroke-linecap:round;}
	.st8{clip-path:url(#SVGID_10_);fill:none;stroke:#F17A30;stroke-width:2;stroke-linecap:round;}
	.st9{clip-path:url(#SVGID_12_);fill:none;stroke:#F17A30;stroke-width:2;stroke-linecap:round;}
	.st10{clip-path:url(#SVGID_14_);fill:none;stroke:#F17A30;stroke-width:2;stroke-linecap:round;}
	.st11{clip-path:url(#SVGID_16_);fill:none;stroke:#F17A30;stroke-width:2;stroke-linecap:round;}
	.st12{clip-path:url(#SVGID_18_);}
	.st13{clip-path:url(#SVGID_20_);fill:none;stroke:#FFFFFF;}
	.st14{clip-path:url(#SVGID_22_);fill:none;stroke:#FFFFFF;}
	.st15{clip-path:url(#SVGID_24_);fill:none;stroke:#FFFFFF;}
	.st16{clip-path:url(#SVGID_26_);fill:none;stroke:#FFFFFF;}
</style>
<g>
	<g>
		<g>
			<defs>
				<rect id="SVGID_1_" x="-16.5" y="35.9" width="1127.1" height="408.2"/>
			</defs>
			<clipPath id="SVGID_2_">
				<use xlink:href="#SVGID_1_"  style="overflow:visible;"/>
			</clipPath>
			<g class="st0">
				<g>
					<g>
						<defs>
							<rect id="SVGID_3_" x="8.9" y="119" width="1082" height="302.3"/>
						</defs>
						<clipPath id="SVGID_4_">
							<use xlink:href="#SVGID_3_"  style="overflow:visible;"/>
						</clipPath>
						<path class="st1" d="M1081.9,420.3H17.9V267.6v6.6l2.6,2.1l1.3,3.9v2.1l1.6,2.4l0.9,9.8l1.3,2.1l2.4,9.2v4.7l1.4,2.8l0.9-4.6
							l1.6-4.2l1.4-9.1l1.4,2.3l2.4-9.6v8.6l2.7-11.8l1.1,10.3v3.6l1.2,1.7l1,3.9l2.1,3.6v2.7l0.9,24.1l0.7-15.5l1-4.3l0.9-6.5v-4.9
							V299l1.6-6.7l1.8,6.1l0.3-5.2v-5.9v-3.6l1.7-4.3v9.4v4.1l1.8,2l0.3-1.5c0,0-0.3-3.1,0-3.5s0.9-3.2,0.9-3.2v-4.1l1.6-2.1
							l0.2-2.6l2.4-0.5l1.9-17.2l1.1,9.4v6.2l-0.1,3.3l1.3,1.2l0.8,2.2l1.8-6.3l1.4,9.5l-0.2,24.5l1.4-1.1l1,7.2l0.7,3l0.6,3.7
							l1.4-8.5l1.1-6.3l1.3,0.7l0.7-4.5l0.6-6.9l1.8,11v10.3l1.6-7.4l2.9,10.4l1.5-9.3l2.6,14.3v6.4h2.8l0.8-8.1l0.7-9.6l0.9,9.6
							c0,0,1.3-7.9,1.3-7s2.9,6.7,2.9,6.7l0.5,8.2l2.6-10.6v-2.8l1.6,0.3l0.2,4.2l2.4,2.7v3l1.6,4.1l2.5,3.3v-37.5l2.2,12
							c0,0,1.1-19.4,1.3-19.4c0.2,0,1.3,11.6,1.3,11.6l0.3-6.7l2.3,7.5v-7.9l1.3,10.1l2.4-8.8v5.4l1.6,2.6l2.9-3.8l-0.6-7l1.6-7.3
							l1,3l1.4,2.7V306l1.8-13.7l1.1,7.3c0,0,1.3-15,1.3-14.4s1.3,7.2,1.3,7.5v7.6l-0.5,4l1.7,4.4l1.2-1.7c0,0,1.1-7.4,1-6.9
							c-0.1,0.6,1,4.7,1,4.7l1.6-7.2v4.2l1.7-3.2l2.6,7.1v-10.4l1.1-2.2l1.3-4.1l1.7-1.4l0.6,17.2l2.8-18.1l2.2,4.2v-7.8l1.8,6.6
							l2.5-6.6v-9.8l2.2,3.9c0,0-0.3,10.4,0,10.7c0.3,0.3,0,8.8,0,8.8l1.3,6.8v2l2.2,2.5v-7l1.9-3.6v-1.7c0,0,1.3-3.6,1.9-3.6
							c0.6,0,1.8,6.9,1.7,6.3c0-0.6,0-11.7,0-11.7l1.3,1.8c0,0,2.3-1.9,1.9-0.9c-0.4,1-0.6,6.7-0.6,6.7l1.9,1.8l1.5,2.1l0.6,3.5
							l1.1-7.8c0,0,1,9.8,1.1,9.8s1.2-4.5,1.2-4.5l1.2,5.8l1.8-2.8l2.6,0.6l-0.7,11.4l1.8,6.5c0,0,1.3-8.5,1.4-7.8
							c0.1,0.7,1.2,15.4,1.2,15.4l1.3-16.6l1.8,6.8v-7.1v-7.6l1.9-5.3l1.6,5.8l1.2-10.6l0.8,14.5l2.6-10.3l1.6,8.8
							c0,0,0.4,11.5,0,11c-0.3-0.5,2.8-5,2.8-5s-0.3,4.3,0,4.6c0.3,0.3,1.8,2.4,1.8,2.4v2.4c0,0,2.2-8.9,2.3-8.2
							c0.1,0.7,0.8,7.8,0.8,7.8l1.7-3.3l1.1,2.4l1.5,6.1l-0.6,4.1l1.4,6.6l1.6-3.4l0.7,2.6l1.1-3.2c0,0-0.2,3.3,0.2,2.1
							c0.5-1.1,1.9-13.6,1.9-13.6l0.8,40.4l1.9-11.9l1.1,7.8c0,0,1.1-2.2,1.2-1.8c0.1,0.4,0,6,0,6l1.7-6.9l1.3,1.4l1.8-1.9l0.8,5.7
							l1.2-3.8l0.4,2.6c0,0,1.4-2.4,1.7-1.4c0.3,0.9,0.3,2.1,0.3,2.1l2.1,2.1l1.3-12.7v-10.3l3.1,5.8l0.9,13.2v4l2.7,3
							c0,0,0,6.5,0,5.9s2.6-13.5,2.1-12.1c-0.5,1.3,1.8,5.6,1.8,5.6l1.7-4.4l1.2,5.4l2.3-7.7l3.5,23.4l1.8-6l2.3,7.7l0.5-4.8l2.2,10
							c0,0,1.2-13.3,1.5-12.7c0.3,0.5,1.3,2.9,1.3,2.9l2.1-10.2v-6.8l1.7-10.3c0,0,2.6,5,2.5,4.6c0-0.4,0.7-7.1,0.7-7.1l2.7-7.6
							v-2.8l2.2-3.3l2.5,1l-0.5-6.6h1.6l2.3,6.6v10.4l1.4-1.1l0.1,1.4l2.2-8.7v8.2c0,0,1.7-4.1,1.7-3.3c0,0.8,2.2,5,2.2,5v-7.7
							l1.9-1.8v-9.4v-11.8l2.4-4l1.4,2.1l2.2-1.4l1.4-8.1l2.9-7.9l1.5,4.1l3.2-8.9l3-1l0.9,3.1l1.3-5.2v15.6l1.4-1.8l2.1,18
							l0.5-14.6l2.3-2l1.4,2.6v-8.7l1.1,2.6l1.7-1.6l0.9,2.4v2.6l3.1-4.8l-0.8,9.4l1.4,1.7l0.6,2.9l2.3-12.6l2.6-6.8l2.3,8.3v12.5
							l2.8-17l1.3,7.5v4.5l3.7,12.5l-0.4-10.9l1.6-3.4l0.6-6.3l1.7,14.5v2.9c0,0,1.8-7.4,1.8-7.2s0.4,6.1,0.4,6.1l1.1-4.6l2.4,3.6
							v-4.8l3,3l0.7,5.2l1.5-4.6l2.6,4.1v-6.6l2.6,1.6l0.8,5.8c0,0,2.3-3.8,2.2-4.2c-0.1-0.4,1.6-10.3,1.6-10.3l3,16.9V310l1.6-4.1
							l-0.4-4.2l2.8,3.4l1.4-12.3l2.7,8.9l1-12.2l1.3,4l3.8-4.1l-1.2,9.2l1.8,0.6l0.6,4.8l2.3-6l0.2,5.8c0,0,1.5,1.4,1.6,1.5
							s1.9-1.3,1.9-1.3l-0.5,10.7l1.3-1.8l2.3-5.9v3.4l1.2,2.6v8.7l2.8-10.7l1.7,3.1v4.1l2.2-1.7l1,4.4l2.6-10.8l0.3,4.4l1.8-8.3
							l1.3-2.3l1.8,6.9V294c0,0,1.5-0.8,1.5-0.2s0.6,6,0.6,6l2.1-3.8l1.5,7.3l-0.6,12.2l2.5-9.9l0.1,8.9l1.4-14.3l1.5,9.5l1.6-4.2
							l0.7-13l2.5,4.3l1-13.3c0,0,2,5.4,2.3,5.2c0.3-0.2,0.6-7.5,0.6-7.5l1.4,0.4l-0.4-5.6l2.7-14.4l1.8,7.6l-0.5,7l2.7,18.2
							l1.2-19.1l0.4,19.1l3.1-7.3l0.6,4.4l0.8-13.2l1.7-4.2l1.6,4.7l2.1-9.3l1.4,4.6v-6.9l2.5,6l1.7-0.6v-8.7l1-3.9l-0.4-10.2
							l2.8,6.3l2.6-7.7l1.6,18.2l-0.6,14.6l1.2,2.1l1-7.9l2-1.4v-17.1l1.4,2.5l2.6-8.1v8.1h1.4l-0.4,17.8l2-3.8l0.6,7.3l1.6-14.5
							c0,0,0.6,9.5,0.6,9.3s0.8-8.9,0.8-8.9s1.4,20.4,1.3,20.4s1.6-9.4,1.6-9.4c-0.1,0,0.6,10.9,0.6,10.9l1.4-5c0,0,1.2,2.4,1.4,1.5
							c0.1-0.8,2.2-2.9,2.2-2.9v8.2l2.8-9.4l2.3,12.4v-12l1.7-4.1l1.2,1.3l1-10.7l1.4-4.2l3-1.3l-0.3,4.9l1.5-0.5l3-3.7l0.7,5.5v6.6
							l3-14.2v8.5l3.4-1.1v-9l1.5-2.2l-0.4-14l4.2-7.8v-5.2l1.4-3.7h1.3l1.4,8.4l1.4-1.2l0.9,4.4l1.9-8.5V216l-0.7-4.9l1.6-3.2
							l0.6,3c0,0,1.8-1.4,1.7-1.4c-0.2,0,0.2,4.2,0.2,4.2l1.4-0.2l2.5,13.6l-0.7,9l2.2-5.3l2.2,8l1.2-3.8l0.1,7.5l1.6-0.2l1-15.3
							l1.4-0.8l2.3,7.5V220l1.6,11.7l0.6-1.2l1.8,1.2v6.6c0-0.1,1.7-9.3,1.7-9.3v10.3l1.2-9.8l1.6,2.1c0,0,0-5.7,0-6.2
							s2.4-10.9,2.4-10.9l1.1-9.4l1.6,9.4l0.7-12.7l1.5-0.5v5.2l1.6,2.1l2.1,2.1v5.1l1.3-2.3v-13.2l2.6-5.3l0.8-17.6l0.7,20.6l1,1.1
							l1.5,5.8l1.7-15.1l-0.6-9.2l1.7-0.9l-0.2-7.6l2.8-18.7l1.4,35.9l2-8.3l0.1,7l2-3.4v10.1l2.2-5.7v15.3l1.4,7.6l-0.7,10.6
							l3.2-12.5v-6.9c0,0,0.9,3.8,1.2,2.8c0.4-0.9,0-8.1,0-8.1l2.6,4.9l0.9-23.4l1.6,10l1.2-11.5l0.9,9.6v12.8l2.1,4.7
							c0,0,0.5-5.9,0.4-5.7s2.4,8.5,2.4,8.5l1.5-4.2l1.4,0.5l-0.5-19.9l1.7-4.2l1.7,2.9l0.7-3.3v-13.2l2,7.8l0.9-5.5l1.4-3.1
							l-0.5-4.5l1.4-3.9l2.7,25.7l0.5-9.2l0.9,21.7l2.3-16.9l1.5,13.4l2.7-15.6l-0.1-16.4l1.6,15.9l2.1-26.7l0.2,12.5l1.5-8.1
							l2.5,49.7l-0.6,4.2l2.1,4.2l2.2-22l0.1,13.7l1.7-14.8l-0.4,47.3l2.1-5.6l0.7,14.2l1.4-11.2v13.8l1.8-15l2-5.2l0.4-4l3,25.2
							c0,0,2.5-31.8,2.6-31.5s1.8,4.2,1.8,4.2v7.9l0.5,3.5l0.4,2.5l3.1-6.2l1.3,3.9l-0.7,14.9l2.6,12.8l1.8-25.4h3.4l0.1,3.5
							l2.6-6.9l0.9,13.7l2.1-11.6l1-7.3l2.2,25.4l1.6-18.3l1.6,6.5l2,1.6c0,0,0,5.6,0,6s2.8,8.3,2.8,8.3l-0.9-13.5l2.3,6.2l1-17.6
							c0,0,1.2,5.5,1.2,4.8c0.1-0.8,0-6.6,0-6.6l2.6,10.1v-12.2l4.4,21.3l0.8-41.2l1.6,0.7l1-4.9l1,1.3l0.7-3.7l2.7,2.1l1,32
							l2.4,1.6l1.3-6.9v-6.1l2.6,5.5l1.3-18.5l0.5,13.8l1.7-5.1l1.6-8.9l1.8,15.3l2-4.5l0.2-8.9l2.4-6.1l1.4,7.9l2.1-50.2l2.7,25.5
							l2.2-14.8l2.4-9.4l2.1,9.4l1.5-2.6l2.5-12.1v12.3l1.3-2v6.2c0,0,2.4-2.3,2.4-2.1s-0.1,14.5-0.1,14.5l1.5-2.9v7.8l1.8-2.1v3.5
							l1.2,1.9l1.1-11c0,0,1.9,9.2,1.5,8.7s0.1-21.6,0.1-21.6l2,15.2l0.1-8.8l3.3,4.2v-10.5l2.7,8.1l1.2,2.8l1.6,8.1l1.2-11.6l2,9
							V167l2.6,31.4l1.1-11l1.9,18.4c0,0,1.1-12.9,1.3-12.3c0.2,0.6,1.7,13,1.7,13l1.1-19.3l1.6,12.3l3.2-16.9v23.3
							c0,0,1.8-14.2,1.8-14.5s2.3-14.7,2.3-14.7l1.1,5.8l1-3.8l0.7,1.8l0.9-6.4l1.5-3.5l2.3-11.2l0.9,4.9l1.4-2.6l1.5,12
							c0,0,0.4-7.7,0.5-7c0.1,0.8,0.2,10,0.8,8.5s1.9-6.5,2-6.3s1.2,3,1.2,3s0.8-3.5,0.6-3.2s1,1.9,1,1.9l2.5-4.7
							c0,0,0.8-13.2,0.8-12.9s2.8,25.4,2.8,25.4l0.2-8.5l1.6,3.6l0.5-13.2l2.1,8v-16.5l1.4-13.5l0.9,8.2l1.7,1.9l0.5,14.3l1.8-19.3
							c0,0,2.2,17.4,2.3,17.8s1,18,1,18l2.9-2.5l1.3-6l-0.6-13.2l2.5-15.2l1.5,12.3l1.5-16.7l1,34.2l1.3,3.2l1.1,3.2l1.4-9.4l1-5.2
							l0.4-5.3l1.4,4.7l1-3l1.1,1.8v-21.7l2.5,4.7l1-3.4l1.5,8.5c0,0,0.5-13.9,0.8-13s2.1,26.9,2.1,26.9l0.2-10.5l3.3,35.1l1.7-11.7
							l0.9,5.1c0,0,0.6-6.8,0.8-2.8c0.2,3.9,1.9,14,1.9,14l0.4-14.8l1.2,13.9l1.5-13.8v14.8l2-8.8l4,8.7l1.2,1.4V182l2.6-9.4
							c0,0,2,19.3,1.8,14.6s-0.5-21.1-0.5-21.1l0.5-6.2l2-1.9l1.5,17.9l2.4-3l1.3,14.2h1.5l0.4-9.1c0,0,2,4.8,1.6,4.5s0.1-8,0.1-8
							s1.5,5.6,1.7,4.4c0.2-1.2,0-7.7,0-7.7s1.4,2.4,1.4,1.6c0-0.8-0.6-6.3-0.6-6.3l1.2-5.1c0,0,2.5,2.6,2.4,2.6
							c0,0-0.3-10.1,0-10.6s0-6.6,0-6.6l3.2-1.2l-0.8,16.8l2.2-5.9l2.2,22.5l1.4-12.7v14l3-18.6l0.6,15.3l2-12.6l1.4,3v-12.1
							c0,0,1.4,13.1,1.3,11.5c-0.1-1.6,0-20.8,0-20.8l1.7-1.2l1.6,22.8l1.4-27.6l1.2,24.8l1.6,4.2v8.1l1.6-24.3l1.6-4.8
							c0,0,0.5-6.9,0.6-6.9s1.9,29.8,1.9,29.8l1.8-35.8l0.5,37.9l1.4-6.9l1.3,24.6l1-10.2l1.2,36.1l1.8-35l1.7,15.4l2.4-18.3v-10.9
							l2.1,12.5l1.6-4.5c0,0,1-10.9,1-11.1s2.9-10,2.9-10l1.4,30l1-36.7l1.6,22.2l0.9-15l0.8,19.7l1.6-17.8l0.7-3.1l1-27.9l1,23.1
							l1.7,3l1.2,7.4v-15l1.8-3.7l0.8,7.8l1.4-5.1l0.3,15.8l0.8,9.2l1.6-26.2l1,24.2l1,5.2l1.1-1.1l0.7,1.3l1.2-10.3l1.3,14.2
							l2.5-11.5l-0.1,14.3l1.1,1.8c0,0,2.8-26.4,2.8-25.4s1.2,22,1.2,22l-0.3,8.7l3-10.4l0.2,5.7l1.4-4l-0.5,6.7l4-10
							c0,0-1,9.8-0.9,9.2c0.1-0.7,1.1-4.6,1.1-4.6l1.7,0.6l0.2-5.7l1.1,4.6l1-19.5l2.2,20.6l0.9-9l0.7,7.5l1.1,3l0.6,10l1.6-23.3
							l1.4-3.5l0.8,3.2l1.5-4.6l1.4,10.2l0.5-9.7l3.7,44.9l1.7-19.7l0.7-9l2,9.4c0,0,0.1-16.2,0-16.5s1.9-5,1.9-5l-0.1-4l1.6,1.5
							l-0.6-8c0,0,1.8-4.4,2.2-5.2s1-2.8,1-2.8l1.4,12l2.3-3.5l1.1,16.2l-0.3,7.7l1.5,5.7l0.6,17.9l1.6-5.2l1,6l0.7,6.9l1-2.6v9.1
							l2,2.7v7.8l2-7.6l1.7,1.9l2.8-7.5l0.6,6.4l0.1-26.6l3.2-4.9l2.5,12.3l-0.4,7.6l4.2-19.1l3.6,19l-0.4,11l-0.8,2.8l3.2-6.8
							l1.1-20.7l4.4,10.1l-0.2,4.3l0.2,4.7l3.7-20.1v-11.8l3,12.5l-0.1-8.6l5.3-34.8v9.4l1.1-7.2l1.8,41.6c0,0,2.1-6.2,2.1-5.4
							c-0.1,0.8,0,9.2,0,9.2l2.2-34.1l1.8-5l-0.8,24.3l2.8,3.1v3.4l1.8-34l2.3,14.1l1.3-9.8l2.3,12.7l0.4-7.3l1.2,2.5l2.2-2.7
							l0.2-14.9L1081.9,420.3z"/>
					</g>
				</g>
			</g>
		</g>
		<g>
			<defs>
				<rect id="SVGID_5_" x="-16.5" y="35.9" width="1127.1" height="408.2"/>
			</defs>
			<clipPath id="SVGID_6_">
				<use xlink:href="#SVGID_5_"  style="overflow:visible;"/>
			</clipPath>
			<path class="st2" d="M18.4,267.5v6.6l2.6,2.1l1.3,3.9v2.1l1.6,2.4l0.9,9.8l1.3,2.1l2.4,9.2v4.7l1.4,2.8l0.9-4.6l1.6-4.2l1.4-9
				l1.4,2.3l2.4-9.6v8.6l2.7-11.8l1.1,10.3v3.6l1.2,1.7l1,3.9l2.1,3.6v2.7l0.9,24l0.7-15.4l1-4.3l0.9-6.5v-4.9V299l1.6-6.7l1.8,6.1
				l0.4-5.1v-6v-3.5l1.7-4.3v9.4v4.1l1.8,2l0.3-1.5c0,0-0.3-3.1,0-3.5s0.9-3.2,0.9-3.2v-4.1l1.6-2.1l0.2-2.6l2.4-0.5l1.9-17.1
				l1.1,9.4v6.2l-0.1,3.3l1.3,1.2l0.8,2.2l1.8-6.3l1.4,9.5l-0.3,24.4l1.4-1.1l1,7.1l0.7,3l0.6,3.7l1.4-8.5l1.1-6.3l1.3,0.7l0.7-4.5
				l0.6-6.9l1.8,11v10.2l1.6-7.4l2.9,10.4l1.5-9.3l2.6,14.3v6.4h2.8l0.8-8.1l0.7-9.5l0.9,9.5c0,0,1.3-7.9,1.3-7s2.9,6.6,2.9,6.6
				l0.5,8.1l2.6-10.6v-2.8l1.6,0.3l0.2,4.2l2.4,2.7v3l1.6,4.1l2.5,3.3v-37.4l2.2,11.9c0,0,1.1-19.4,1.3-19.4
				c0.2,0,1.3,11.6,1.3,11.6l0.3-6.7l2.3,7.5v-7.9l1.3,10.1l2.4-8.8v5.4l1.6,2.6l2.9-3.8l-0.6-7l1.6-7.3l1,3l1.4,2.7v12.3l1.8-13.6
				l1.1,7.3c0,0,1.3-14.9,1.3-14.3s1.3,7.2,1.3,7.5v7.6l-0.5,4l1.7,4.4l1.2-1.7c0,0,1.1-7.4,1-6.9c-0.1,0.6,1,4.7,1,4.7l1.6-7.2v4.2
				l1.7-3.2l2.6,7.1v-10.3l1.1-2.2l1.3-4.1l1.7-1.4l0.6,17.2l2.8-18.1l2.2,4.1v-7.5l1.8,6.6l2.5-6.6v-9.7l2.2,3.9
				c0,0-0.3,10.4,0,10.7c0.3,0.3,0,8.8,0,8.8l1.3,6.7v2l2.2,2.5v-7l1.9-3.6v-1.7c0,0,1.3-3.6,1.9-3.6s1.8,6.9,1.7,6.3
				c0-0.6,0-11.7,0-11.7l1.3,1.8c0,0,2.3-1.9,1.9-0.9c-0.4,1-0.6,6.7-0.6,6.7l1.9,1.8l1.5,2.1l0.6,3.5l1.1-7.8c0,0,1,9.8,1.1,9.8
				s1.2-4.4,1.2-4.4l1.2,5.8l1.8-2.8l2.6,0.6l-0.7,11.4l1.8,6.5c0,0,1.3-8.5,1.4-7.8c0.1,0.7,1.2,15.4,1.2,15.4l1.3-16.6l1.8,6.8v-7
				v-7.6l1.9-5.3l1.6,5.8l1.2-10.6l0.8,14.5l2.6-10.3l1.6,8.8c0,0,0.4,11.5,0,11s2.8-5,2.8-5s-0.3,4.3,0,4.6
				c0.3,0.3,1.8,2.4,1.8,2.4v2.4c0,0,2.2-8.9,2.3-8.1c0.1,0.7,0.8,7.8,0.8,7.8l1.7-3.3l1.1,2.4l1.5,6l-0.6,4.1l1.4,6.6l1.6-3.4
				l0.7,2.6l1.1-3.2c0,0-0.2,3.3,0.2,2.1c0.5-1.1,1.9-13.6,1.9-13.6l0.8,39.8l1.9-11.9l1.1,7.8c0,0,1.1-2.2,1.2-1.8c0.1,0.4,0,6,0,6
				l1.7-6.9l1.3,1.4l1.8-1.9l0.8,5.7l1.2-3.7l0.4,2.6c0,0,1.4-2.3,1.7-1.4s0.3,2.1,0.3,2.1l2.1,2.1l1.3-12.6v-10.3l3.1,5.8l0.9,13.2
				v4l2.7,3c0,0,0,6.5,0,5.9s2.6-13.4,2.1-12.1s1.8,5.6,1.8,5.6l1.7-4.4l1.1,5.4l2.3-7.7l3.5,23.4l1.8-6l2.3,7.7l0.5-4.8l2.2,10
				c0,0,1.2-13.3,1.5-12.7c0.3,0.5,1.3,2.9,1.3,2.9l2.1-10.2v-6.7l1.7-10.3c0,0,2.6,5,2.5,4.6c0-0.4,0.7-7.1,0.7-7.1l2.7-7.6v-2.8
				l2.2-3.3l2.5,1l-0.5-6.6h1.6l2.3,6.6v10.4l1.4-1.1l0.1,1.4l2.2-8.7v8.1c0,0,1.7-4.1,1.7-3.3c0,0.8,2.2,5,2.2,5v-7.7l1.9-1.8v-9.4
				v-11.8l2.4-3.9l1.4,2.1l2.2-1.4l1.4-8.1l2.9-7.9l1.5,4.1l3.2-8.9l3-1l0.9,3.1l1.3-5.2v15.5l1.4-1.8l2.1,17.9l0.5-14.5l2.2-2
				l1.4,2.5v-8.8l1.1,2.6l1.7-1.6l0.9,2.4v2.6l3.1-4.8l-0.8,9.4l1.4,1.7l0.6,2.9l2.3-12.6l2.6-6.8l2.3,8.3v12.5l2.8-16.9l1.3,7.5
				v4.5l3.7,12.4l-0.4-10.9l1.6-3.4l0.6-6.3l1.7,14.4v2.9c0,0,1.8-7.4,1.8-7.1c0,0.2,0.4,6.1,0.4,6.1l1.1-4.6l2.4,3.6v-4.8l3,3
				l0.7,5.2l1.5-4.6l2.6,4.1v-6.6l2.6,1.6l0.8,5.8c0,0,2.3-3.8,2.2-4.2c-0.1-0.4,1.6-10.3,1.6-10.3l3,16.9v-14.2l1.6-4.1l-0.4-4.2
				l2.8,3.4l1.4-12.2l2.7,8.9l1-12.2l1.3,4l3.8-4.1l-1.2,9.2l1.8,0.6l0.6,4.8l2.3-6l0.2,5.8c0,0,1.4,1.4,1.6,1.5
				c0.1,0.2,1.9-1.3,1.9-1.3l-0.5,10.6l1.3-1.8l2.3-5.9v3.4l1.2,2.6v8.7l2.8-10.7l1.7,3.1v4.1l2.2-1.7l1,4.4l2.6-10.8l0.3,4.4
				l1.8-8.3l1.3-2.3l1.8,6.9v-16.7c0,0,1.5-0.8,1.5-0.2c0,0.6,0.6,6,0.6,6l2.1-3.8l1.5,7.3l-0.6,12.2l2.5-9.8l0.1,8.9l1.4-14.3
				l1.5,9.4l1.6-4.1l0.7-13l2.5,4.2l1-13.3c0,0,2,5.4,2.3,5.2c0.3-0.2,0.6-7.5,0.6-7.5l1.4,0.4l-0.4-5.6l2.7-14.4l1.8,7.6l-0.5,7
				l2.7,18.2l1.2-19.1l0.4,19.1l3.1-7.3l0.6,4.4l0.8-13.1l1.7-4.2l1.6,4.6l2.1-9.3l1.4,4.5V267l2.5,6l1.7-0.6v-8.7l1-3.9l-0.4-10.2
				l2.8,6.3l2.6-7.7l1.6,18.2l-0.6,14.6l1.2,2.1l1-7.9l2-1.4v-17.1l1.4,2.4l2.6-8.1v8.1h1.4l-0.4,17.8l2-3.8l0.6,7.3l1.6-14.5
				c0,0,0.5,9.5,0.6,9.2c0-0.2,0.8-8.8,0.8-8.8s1.4,20.4,1.3,20.4l1.6-9.4c-0.1,0,0.6,10.9,0.6,10.9l1.4-4.9c0,0,1.2,2.3,1.4,1.5
				c0.1-0.8,2.2-2.9,2.2-2.9v8.2l2.8-9.4l2.3,12.4v-12l1.7-4.1l1.2,1.3l1-10.7l1.4-4.2l3-1.3l-0.3,4.9l1.5-0.5l3-3.7l0.7,5.5v6.6
				l3-14.2v8.5l3.4-1.1v-9l1.5-2.2l-0.4-14l4.2-7.8v-5.2l1.4-3.7h1.3l1.4,8.4l1.4-1.2l0.9,4.4l1.9-8.5v-13.5l-0.7-4.9l1.6-3.1l0.6,3
				c0,0,1.8-1.4,1.7-1.4c-0.2,0,0.2,4.2,0.2,4.2l1.4-0.2l2.5,13.6l-0.7,9l2.2-5.3l2.2,8l1.2-3.8l0.1,7.5l1.6-0.2l1-15.3l1.4-0.8
				l2.3,7.4v-13.7l1.6,11.7l0.6-1.2l1.8,1.2v6.6c0-0.1,1.7-9.3,1.7-9.3v10.4l1.2-9.8l1.6,2.1c0,0,0-5.7,0-6.2s2.4-10.9,2.4-10.9
				l1.1-9.4l1.6,9.4l0.7-12.7l1.5-0.5v5.1l1.6,2.1l2.1,2.1v5.1l1.3-2.3v-13.2l2.6-5.3l0.8-17.6l0.7,20.6l1,1.1l1.5,5.8l1.7-15.1
				l-0.6-9.2l1.7-0.9l-0.2-7.6l2.8-18.7l1.4,35.8l2-8.3l0.1,7l2-3.4v10.1l2.2-5.6v15.3l1.4,7.6l-0.7,10.6l3.2-12.4V203
				c0,0,0.9,3.8,1.2,2.8c0.4-0.9,0-8.1,0-8.1l2.6,4.9l0.9-23.4l1.6,10l1.2-11.4l0.9,9.6v12.8l2.1,4.7c0,0,0.5-5.9,0.4-5.7
				s2.4,8.4,2.4,8.4l1.5-4.1l1.4,0.5l-0.5-19.9l1.7-4.1l1.7,2.9l0.7-3.3v-13.2l2,7.8l0.9-5.5l1.4-3.1l-0.5-4.5l1.4-3.9l2.7,25.7
				l0.5-9.2l0.9,21.6l2.3-16.8l1.5,13.4l2.7-15.5l-0.1-16.4l1.6,15.9l2-26.7l0.2,12.5l1.5-8.1l2.5,49.6l-0.6,4.2l2.1,4.2l2.2-21.9
				l0.1,13.6l1.7-14.8l-0.4,47.3l2.1-5.6l0.7,14.2l1.4-11.2v13.7l1.8-15l2-5.2l0.4-4l3,25.2c0,0,2.5-31.7,2.6-31.5
				c0.1,0.3,1.8,4.1,1.8,4.1v7.9l0.5,3.5l0.4,2.5l3.1-6.1l1.3,3.9l-0.7,14.9l2.6,12.8l1.8-25.4h3.4l0.1,3.5l2.6-6.9l0.9,13.7
				l2.1-11.6l1-7.3l2.2,25.3L676,233l1.6,6.5l2,1.6c0,0,0,5.6,0,6s2.8,8.3,2.8,8.3l-1-13.5l2.3,6.2l1-17.5c0,0,1.2,5.5,1.2,4.8
				c0.1-0.8,0-6.6,0-6.6l2.6,10v-12.2l4.4,21.3l0.8-41.1l1.6,0.7l1-4.9l1,1.3l0.7-3.7l2.7,2.1l1,32l2.4,1.6l1.3-6.9v-6l2.6,5.5
				l1.3-18.4l0.5,13.8l1.7-5.1l1.6-8.9l1.8,15.3l2-4.5l0.2-8.9l2.4-6.1l1.4,7.9l2.1-50.1l2.7,25.5l2.2-14.8l2.4-9.4l2.1,9.4l1.5-2.6
				l2.5-12.1v12.3l1.3-2v6.2c0,0,2.4-2.3,2.4-2.1s-0.1,14.4-0.1,14.4l1.5-2.8v7.8l1.8-2.1v3.4l1.2,1.9l1.1-11c0,0,1.9,9.2,1.5,8.7
				s0.1-21.6,0.1-21.6l2,15.2l0.1-8.8l3.3,4.2v-10.5l2.7,8.1l1.2,2.7l1.6,8l1.2-11.6l2,8.9V167l2.6,31.3l1.1-11l1.9,18.3
				c0,0,1.1-12.8,1.3-12.3c0.2,0.6,1.7,12.9,1.7,12.9L771,187l1.6,12.3l3.2-16.9v23.3c0,0,1.8-14.2,1.8-14.5s2.3-14.7,2.3-14.7
				l1.1,5.8l1-3.8l0.7,1.8l0.9-6.4l1.5-3.5l2.3-11.2l0.9,4.9l1.4-2.6l1.5,12c0,0,0.4-7.7,0.5-7c0.1,0.8,0.2,10,0.8,8.5
				c0.6-1.4,1.9-6.5,2-6.3s1.2,3,1.2,3s0.8-3.5,0.6-3.2s1,1.9,1,1.9l2.5-4.7c0,0,0.8-13.2,0.8-12.9s2.8,25.3,2.8,25.3l0.2-8.4
				l1.6,3.6l0.5-13.2l2.1,7.9v-16.5l1.4-13.4l0.9,8.2l1.7,1.9l0.5,14.3l1.8-19.3c0,0,2.2,17.4,2.3,17.8c0.1,0.4,1,17.9,1,17.9
				l2.9-2.5l1.3-6l-0.6-13.2l2.5-15.2l1.5,12.2l1.5-16.7l1,34.2l1.3,3.2l1.1,3.2l1.4-9.4l1-5.1l0.4-5.3l1.4,4.7l1-3l1.1,1.8v-21.7
				l2.5,4.7l0.9-3.4l1.5,8.5c0,0,0.5-13.9,0.8-13s2.1,26.8,2.1,26.8l0.2-10.5l3.3,35l1.7-11.6l0.9,5.1c0,0,0.6-6.8,0.8-2.8
				c0.2,3.9,1.9,14,1.9,14l0.4-14.8l1.2,13.9l1.5-13.8V193l2-8.8l4,8.7l1.2,1.4v-12l2.6-9.4c0,0,2,19.3,1.8,14.6s-0.5-21-0.5-21
				l0.5-6.2l2-1.9l1.5,17.8l2.4-3l1.3,14.2h1.5l0.4-9c0,0,2,4.8,1.6,4.5s0.1-8,0.1-8s1.5,5.6,1.7,4.4c0.2-1.2,0-7.6,0-7.6
				s1.4,2.4,1.4,1.6c0-0.8-0.6-6.3-0.6-6.3l1.2-5.1c0,0,2.5,2.6,2.4,2.6c0,0-0.3-10.1,0-10.6s0-6.6,0-6.6l3.2-1.2l-0.8,16.7l2.2-5.9
				l2.2,22.5l1.4-12.7v13.8l3-18.5l0.6,15.3l2-12.6l1.4,3v-12.3c0,0,1.4,13.1,1.3,11.5c-0.1-1.6,0-20.7,0-20.7l1.7-1.2l1.6,22.7
				l1.4-27.6l1.2,24.8l1.6,4.2v8l1.6-24.3l1.6-4.8c0,0,0.5-6.9,0.6-6.9s1.9,29.7,1.9,29.7l1.8-35.7l0.5,37.9l1.4-6.8l1.3,24.5
				l1-10.2l1.2,36.1l1.8-35l1.7,15.4l2.4-18.3v-10.9l2.1,12.5l1.6-4.5c0,0,1-10.9,1-11.1c0-0.2,2.8-10,2.8-10l1.4,30l1-36.7
				l1.6,22.2l0.9-15l0.8,19.7l1.6-17.7l0.7-3.1l1-27.9l0.9,23.1l1.7,3l1.2,7.4v-14.9l1.8-3.7l0.8,7.8l1.4-5.1l0.3,15.8l0.8,9.2
				l1.6-26.2l1,24.2l1,5.2l1.1-1.1l0.7,1.3l1.2-10.3l1.3,14.2l2.5-11.5l-0.1,14.3l1.1,1.8c0,0,2.8-26.3,2.8-25.3s1.2,22,1.2,22
				l-0.3,8.7l3-10.4l0.2,5.7l1.4-4l-0.5,6.7l4-9.9c0,0-1,9.8-0.9,9.2c0.1-0.7,1-4.6,1-4.6l1.7,0.6l0.2-5.6l1.1,4.6l1-19.5l2.2,20.6
				l0.9-8.9l0.7,7.5l1.1,3l0.6,9.9l1.6-23.2l1.4-3.5l0.8,3.2l1.5-4.6l1.4,10.2l0.5-9.7l3.7,44.8l1.7-19.6l0.7-9l2,9.4
				c0,0,0.1-16.1,0-16.4c-0.1-0.3,1.9-5,1.9-5l-0.1-4l1.6,1.5l-0.6-7.9c0,0,1.8-4.4,2.2-5.2s1-2.8,1-2.8l1.4,12l2.3-3.5l1.1,16.2
				l-0.3,7.7l1.5,5.6l0.6,17.9l1.6-5.2l1,6l0.7,6.9l1-2.6v9l2,2.7v7.8l2-7.5l1.7,1.9l2.8-7.4l0.6,6.4l0.1-26.5l3.2-4.9l2.5,12.3
				l-0.4,7.6l4.2-19.1l3.6,19l-0.4,10.9l-0.8,2.8l3.2-6.7l1.1-20.7l4.4,10.1l-0.2,4.3l0.2,4.7l3.7-20v-11.8l3,12.5l-0.1-8.6
				l5.3-34.8v9.3l1.1-7.2l1.8,41.6c0,0,2.1-6.2,2.1-5.4c-0.1,0.8,0,9.1,0,9.1l2.2-34.1l1.8-5l-0.8,24.2l2.8,3.1v3.4l1.8-33.9
				l2.3,14.1l1.3-9.8l2.3,12.6l0.4-7.3l1.2,2.5l2.2-2.7l0.2-14.9"/>
		</g>
	</g>
	<g class="st3">
		<path class="st4" d="M963.8,64.9v-2.5c-1.7-0.1-3.4-0.5-4.4-1.1l0.8-3c1.1,0.6,2.6,1.1,4.3,1.1c1.5,0,2.5-0.6,2.5-1.6
			c0-1-0.8-1.6-2.8-2.3c-2.8-0.9-4.7-2.2-4.7-4.8c0-2.3,1.6-4.1,4.4-4.6v-2.5h2.5V46c1.7,0.1,2.9,0.4,3.8,0.9l-0.8,2.9
			c-0.7-0.3-1.9-0.9-3.7-0.9c-1.7,0-2.2,0.7-2.2,1.5c0,0.9,0.9,1.4,3.1,2.2c3.1,1.1,4.3,2.5,4.3,4.9c0,2.3-1.6,4.3-4.6,4.8v2.7
			H963.8z"/>
		<path class="st4" d="M984.3,48.5c-0.4,0-0.9,0-1.5,0.1c-3.5,0.3-5.1,2.1-5.5,4.1h0.1c0.8-0.9,2-1.4,3.6-1.4c2.8,0,5.2,2,5.2,5.5
			c0,3.4-2.6,6.1-6.2,6.1c-4.5,0-6.7-3.4-6.7-7.4c0-3.2,1.2-5.8,3-7.5c1.7-1.5,3.9-2.4,6.5-2.5c0.7-0.1,1.2-0.1,1.6,0V48.5z
			 M982.1,57c0-1.6-0.8-2.9-2.5-2.9c-1.1,0-2,0.7-2.3,1.5c-0.1,0.2-0.2,0.5-0.2,1c0.1,1.8,0.9,3.4,2.7,3.4
			C981.2,60,982.1,58.7,982.1,57z"/>
		<path class="st4" d="M1000.4,54.1c0,5.2-2.1,8.8-6.4,8.8c-4.4,0-6.3-3.9-6.3-8.7c0-4.9,2.1-8.8,6.4-8.8
			C998.6,45.4,1000.4,49.5,1000.4,54.1z M991.6,54.2c0,3.9,0.9,5.7,2.4,5.7c1.5,0,2.4-1.9,2.4-5.8c0-3.7-0.8-5.7-2.4-5.7
			C992.6,48.4,991.6,50.3,991.6,54.2z"/>
		<path class="st4" d="M1002.6,60.5c0-1.4,1-2.4,2.3-2.4s2.3,1,2.3,2.4c0,1.4-0.9,2.4-2.3,2.4C1003.5,62.9,1002.6,61.9,1002.6,60.5z
			"/>
		<path class="st4" d="M1014.2,49.2L1014.2,49.2l-3.3,1.5l-0.6-3l4.5-2.1h3.3v16.9h-3.8V49.2z"/>
		<path class="st4" d="M1036,54.1c0,5.2-2.1,8.8-6.4,8.8c-4.4,0-6.3-3.9-6.3-8.7c0-4.9,2.1-8.8,6.4-8.8
			C1034.3,45.4,1036,49.5,1036,54.1z M1027.3,54.2c0,3.9,0.9,5.7,2.4,5.7s2.4-1.9,2.4-5.8c0-3.7-0.8-5.7-2.4-5.7
			C1028.2,48.4,1027.2,50.3,1027.3,54.2z"/>
	</g>
	<g class="st3">
		<path class="st4" d="M959,72.7c0.7-0.1,1.8-0.2,3-0.2c1.5,0,2.5,0.2,3.3,0.8c0.6,0.5,0.9,1.2,0.9,2.1c0,1.3-0.9,2.2-1.8,2.5v0
			c0.7,0.3,1.1,1,1.3,1.9c0.3,1.1,0.6,2.5,0.8,2.8h-2.3c-0.2-0.3-0.4-1.1-0.7-2.4c-0.3-1.3-0.7-1.6-1.6-1.6h-0.7v4H959V72.7z
			 M961.2,77h0.9c1.1,0,1.8-0.6,1.8-1.5c0-0.9-0.6-1.4-1.7-1.4c-0.6,0-0.9,0-1,0.1V77z"/>
		<path class="st4" d="M969.5,79.7c0.1,0.9,1,1.4,2.1,1.4c0.8,0,1.4-0.1,2-0.3l0.3,1.5c-0.8,0.3-1.7,0.5-2.7,0.5
			c-2.5,0-3.9-1.4-3.9-3.7c0-1.9,1.2-3.9,3.7-3.9c2.4,0,3.3,1.8,3.3,3.7c0,0.4,0,0.7-0.1,0.9H969.5z M972.2,78.1
			c0-0.6-0.2-1.5-1.3-1.5c-1,0-1.3,0.9-1.4,1.5H972.2z"/>
		<path class="st4" d="M981.2,82.4c-0.4,0.2-1.2,0.3-2,0.3c-2.4,0-3.9-1.4-3.9-3.8c0-2.1,1.5-3.9,4.2-3.9c0.6,0,1.3,0.1,1.7,0.3
			l-0.4,1.7c-0.3-0.1-0.7-0.2-1.3-0.2c-1.2,0-2,0.9-2,2.1c0,1.3,0.9,2.1,2,2.1c0.5,0,1-0.1,1.3-0.2L981.2,82.4z"/>
		<path class="st4" d="M989.5,78.9c0,2.7-1.9,3.9-3.9,3.9c-2.1,0-3.8-1.4-3.8-3.8c0-2.4,1.6-3.9,3.9-3.9
			C988,75.1,989.5,76.7,989.5,78.9z M984.2,79c0,1.3,0.5,2.2,1.5,2.2c0.9,0,1.5-0.9,1.5-2.2c0-1.1-0.4-2.2-1.5-2.2
			C984.6,76.7,984.2,77.9,984.2,79z"/>
		<path class="st4" d="M991,77.7c0-1.1,0-1.8-0.1-2.4h2l0.1,1.4h0.1c0.4-1.1,1.3-1.5,2-1.5c0.2,0,0.3,0,0.5,0v2.1
			c-0.2,0-0.4-0.1-0.6-0.1c-0.8,0-1.4,0.5-1.6,1.2c0,0.1,0,0.3,0,0.5v3.7H991V77.7z"/>
		<path class="st4" d="M1003.6,72v8.5c0,0.8,0,1.7,0.1,2.2h-2l-0.1-1.1h0c-0.5,0.8-1.4,1.2-2.3,1.2c-1.7,0-3.1-1.5-3.1-3.8
			c0-2.5,1.5-3.9,3.3-3.9c0.9,0,1.6,0.3,1.9,0.8h0v-4H1003.6z M1001.4,78.4c0-0.1,0-0.3,0-0.4c-0.1-0.6-0.6-1.1-1.3-1.1
			c-1,0-1.6,0.9-1.6,2.1c0,1.2,0.6,2,1.6,2c0.7,0,1.2-0.4,1.3-1.1c0-0.2,0.1-0.3,0.1-0.5V78.4z"/>
		<path class="st4" d="M1008.5,72h2.3v4.2h0c0.2-0.3,0.5-0.6,0.9-0.8c0.3-0.2,0.8-0.3,1.2-0.3c1.5,0,2.6,1,2.6,3.2v4.3h-2.3v-4
			c0-1-0.3-1.6-1.2-1.6c-0.6,0-1,0.4-1.1,0.8c-0.1,0.1-0.1,0.3-0.1,0.5v4.3h-2.3V72z"/>
		<path class="st4" d="M1019.6,73.3c0,0.6-0.5,1.1-1.2,1.1c-0.7,0-1.2-0.5-1.2-1.1c0-0.7,0.5-1.2,1.2-1.2S1019.6,72.6,1019.6,73.3z
			 M1017.3,82.6v-7.3h2.3v7.3H1017.3z"/>
		<path class="st4" d="M1028.4,75.3c0,0.5-0.1,1.1-0.1,2.2v4.1c0,1.4-0.3,2.6-1.1,3.3c-0.8,0.7-1.9,0.9-3,0.9c-1,0-2-0.2-2.6-0.6
			l0.5-1.7c0.5,0.3,1.3,0.6,2.1,0.6c1.1,0,1.9-0.6,1.9-1.9v-0.5h0c-0.4,0.6-1.1,1-2,1c-1.8,0-3.1-1.5-3.1-3.6c0-2.4,1.5-3.9,3.3-3.9
			c1,0,1.6,0.4,2,1h0l0.1-0.9H1028.4z M1026.1,78.3c0-0.2,0-0.3,0-0.4c-0.2-0.6-0.6-1-1.2-1c-0.8,0-1.5,0.8-1.5,2.1
			c0,1.1,0.5,1.9,1.5,1.9c0.6,0,1.1-0.4,1.2-0.9c0.1-0.2,0.1-0.4,0.1-0.6V78.3z"/>
		<path class="st4" d="M1030.2,72h2.3v4.2h0c0.2-0.3,0.5-0.6,0.9-0.8c0.3-0.2,0.8-0.3,1.2-0.3c1.5,0,2.6,1,2.6,3.2v4.3h-2.3v-4
			c0-1-0.3-1.6-1.2-1.6c-0.6,0-1,0.4-1.1,0.8c-0.1,0.1-0.1,0.3-0.1,0.5v4.3h-2.3V72z"/>
	</g>
	<g class="st3">
		<path class="st4" d="M959.1,97.7c0-0.9,0-1.7-0.1-2.4h1.2l0.1,1.2h0c0.5-0.9,1.4-1.4,2.6-1.4c1.8,0,3.1,1.5,3.1,3.7
			c0,2.6-1.6,3.9-3.3,3.9c-1,0-1.8-0.4-2.2-1.1h0v3.9h-1.3V97.7z M960.4,99.7c0,0.2,0,0.4,0.1,0.5c0.2,0.9,1,1.5,2,1.5
			c1.4,0,2.2-1.1,2.2-2.8c0-1.5-0.8-2.7-2.2-2.7c-0.9,0-1.7,0.6-2,1.6c0,0.2-0.1,0.4-0.1,0.5V99.7z"/>
		<path class="st4" d="M967.6,97.6c0-0.9,0-1.6-0.1-2.3h1.2l0,1.4h0.1c0.3-1,1.1-1.6,2-1.6c0.1,0,0.3,0,0.4,0v1.2
			c-0.1,0-0.3,0-0.5,0c-0.9,0-1.6,0.7-1.8,1.7c0,0.2-0.1,0.4-0.1,0.6v3.9h-1.3V97.6z"/>
		<path class="st4" d="M974,93.3c0,0.5-0.3,0.8-0.8,0.8c-0.5,0-0.8-0.4-0.8-0.8c0-0.5,0.3-0.8,0.8-0.8C973.7,92.5,974,92.9,974,93.3
			z M972.6,102.6v-7.3h1.3v7.3H972.6z"/>
		<path class="st4" d="M981.2,102.4c-0.3,0.2-1.1,0.4-2.1,0.4c-2.2,0-3.6-1.5-3.6-3.7c0-2.2,1.5-3.9,3.9-3.9c0.8,0,1.5,0.2,1.8,0.4
			l-0.3,1c-0.3-0.2-0.8-0.3-1.5-0.3c-1.7,0-2.6,1.2-2.6,2.7c0,1.7,1.1,2.7,2.5,2.7c0.8,0,1.2-0.2,1.6-0.4L981.2,102.4z"/>
		<path class="st4" d="M983.4,99.2c0,1.8,1.2,2.5,2.5,2.5c0.9,0,1.5-0.2,2-0.4l0.2,0.9c-0.5,0.2-1.3,0.5-2.4,0.5
			c-2.2,0-3.6-1.5-3.6-3.7c0-2.2,1.3-3.9,3.4-3.9c2.4,0,3,2.1,3,3.4c0,0.3,0,0.5,0,0.6H983.4z M987.3,98.3c0-0.8-0.3-2.1-1.8-2.1
			c-1.3,0-1.9,1.2-2,2.1H987.3z"/>
		<path class="st4" d="M993.4,97.7c0-0.9,0-1.7-0.1-2.4h1.2l0.1,1.2h0c0.5-0.9,1.4-1.4,2.6-1.4c1.8,0,3.1,1.5,3.1,3.7
			c0,2.6-1.6,3.9-3.3,3.9c-1,0-1.8-0.4-2.2-1.1h0v3.9h-1.3V97.7z M994.7,99.7c0,0.2,0,0.4,0.1,0.5c0.2,0.9,1,1.5,2,1.5
			c1.4,0,2.2-1.1,2.2-2.8c0-1.5-0.8-2.7-2.2-2.7c-0.9,0-1.7,0.6-2,1.6c0,0.2-0.1,0.4-0.1,0.5V99.7z"/>
		<path class="st4" d="M1002.7,99.2c0,1.8,1.2,2.5,2.5,2.5c0.9,0,1.5-0.2,2-0.4l0.2,0.9c-0.5,0.2-1.3,0.5-2.4,0.5
			c-2.2,0-3.6-1.5-3.6-3.7c0-2.2,1.3-3.9,3.4-3.9c2.4,0,3,2.1,3,3.4c0,0.3,0,0.5,0,0.6H1002.7z M1006.5,98.3c0-0.8-0.3-2.1-1.8-2.1
			c-1.3,0-1.9,1.2-2,2.1H1006.5z"/>
		<path class="st4" d="M1009.4,97.6c0-0.9,0-1.6-0.1-2.3h1.2l0,1.4h0.1c0.3-1,1.1-1.6,2-1.6c0.2,0,0.3,0,0.4,0v1.2
			c-0.1,0-0.3,0-0.4,0c-0.9,0-1.6,0.7-1.8,1.7c0,0.2-0.1,0.4-0.1,0.6v3.9h-1.3V97.6z"/>
		<path class="st4" d="M1017.4,101.3c0.4,0.3,1.1,0.5,1.7,0.5c1,0,1.4-0.5,1.4-1.1c0-0.6-0.4-1-1.4-1.3c-1.3-0.5-1.9-1.2-1.9-2.1
			c0-1.2,0.9-2.1,2.5-2.1c0.7,0,1.4,0.2,1.8,0.5l-0.3,1c-0.3-0.2-0.8-0.4-1.5-0.4c-0.8,0-1.2,0.5-1.2,1c0,0.6,0.4,0.9,1.4,1.2
			c1.3,0.5,1.9,1.1,1.9,2.2c0,1.3-1,2.2-2.7,2.2c-0.8,0-1.5-0.2-2-0.5L1017.4,101.3z"/>
		<path class="st4" d="M1023.5,92h1.3v4.5h0c0.2-0.4,0.5-0.7,0.9-0.9c0.4-0.2,0.9-0.4,1.3-0.4c1,0,2.5,0.6,2.5,3.1v4.3h-1.3v-4.2
			c0-1.2-0.4-2.2-1.7-2.2c-0.9,0-1.5,0.6-1.8,1.3c-0.1,0.2-0.1,0.4-0.1,0.6v4.4h-1.3V92z"/>
		<path class="st4" d="M1035.8,102.6l-0.1-0.9h0c-0.4,0.6-1.2,1.1-2.2,1.1c-1.5,0-2.2-1-2.2-2.1c0-1.8,1.6-2.7,4.4-2.7v-0.1
			c0-0.6-0.2-1.7-1.6-1.7c-0.7,0-1.4,0.2-1.9,0.5l-0.3-0.9c0.6-0.4,1.5-0.6,2.4-0.6c2.2,0,2.8,1.5,2.8,3v2.7c0,0.6,0,1.2,0.1,1.7
			H1035.8z M1035.6,98.9c-1.4,0-3.1,0.2-3.1,1.6c0,0.9,0.6,1.3,1.2,1.3c0.9,0,1.5-0.6,1.8-1.2c0-0.1,0.1-0.3,0.1-0.4V98.9z"/>
		<path class="st4" d="M1039,97.6c0-0.9,0-1.6-0.1-2.3h1.2l0,1.4h0.1c0.3-1,1.1-1.6,2-1.6c0.1,0,0.3,0,0.4,0v1.2c-0.1,0-0.3,0-0.5,0
			c-0.9,0-1.6,0.7-1.8,1.7c0,0.2-0.1,0.4-0.1,0.6v3.9h-1.3V97.6z"/>
		<path class="st4" d="M1044.5,99.2c0,1.8,1.2,2.5,2.5,2.5c0.9,0,1.5-0.2,2-0.4l0.2,0.9c-0.5,0.2-1.3,0.5-2.4,0.5
			c-2.2,0-3.6-1.5-3.6-3.7c0-2.2,1.3-3.9,3.4-3.9c2.4,0,3,2.1,3,3.4c0,0.3,0,0.5,0,0.6H1044.5z M1048.4,98.3c0-0.8-0.3-2.1-1.8-2.1
			c-1.3,0-1.9,1.2-2,2.1H1048.4z"/>
	</g>
	<g class="st3">
		<path class="st4" d="M960.7,119.4l-1,3.2h-1.4l3.4-10.1h1.6l3.5,10.1h-1.4l-1.1-3.2H960.7z M964.1,118.4l-1-2.9
			c-0.2-0.7-0.4-1.3-0.5-1.8h0c-0.1,0.6-0.3,1.2-0.5,1.8l-1,2.9H964.1z"/>
		<path class="st4" d="M968.2,117.7c0-0.9,0-1.7-0.1-2.4h1.2l0.1,1.2h0c0.5-0.9,1.4-1.4,2.6-1.4c1.8,0,3.1,1.5,3.1,3.7
			c0,2.6-1.6,3.9-3.3,3.9c-1,0-1.8-0.4-2.2-1.1h0v3.9h-1.3V117.7z M969.5,119.7c0,0.2,0,0.4,0.1,0.5c0.2,0.9,1,1.5,2,1.5
			c1.4,0,2.2-1.1,2.2-2.8c0-1.5-0.8-2.7-2.2-2.7c-0.9,0-1.7,0.6-2,1.6c0,0.2-0.1,0.4-0.1,0.5V119.7z"/>
		<path class="st4" d="M976.7,117.6c0-0.9,0-1.6-0.1-2.3h1.2l0,1.4h0.1c0.3-1,1.1-1.6,2-1.6c0.2,0,0.3,0,0.4,0v1.2
			c-0.1,0-0.3,0-0.4,0c-0.9,0-1.6,0.7-1.8,1.7c0,0.2-0.1,0.4-0.1,0.6v3.9h-1.3V117.6z"/>
		<path class="st4" d="M983.2,113.3c0,0.5-0.3,0.8-0.8,0.8c-0.5,0-0.8-0.4-0.8-0.8c0-0.5,0.3-0.8,0.8-0.8
			C982.9,112.5,983.2,112.9,983.2,113.3z M981.7,122.6v-7.3h1.3v7.3H981.7z"/>
		<path class="st4" d="M985.2,112h1.3v10.6h-1.3V112z"/>
		<path class="st4" d="M991.5,122.6v-0.8l1-1c2.5-2.4,3.6-3.6,3.6-5.1c0-1-0.5-1.9-1.9-1.9c-0.9,0-1.6,0.4-2.1,0.8l-0.4-0.9
			c0.7-0.6,1.6-1,2.8-1c2.1,0,3,1.4,3,2.8c0,1.8-1.3,3.3-3.4,5.2l-0.8,0.7v0h4.4v1.1H991.5z"/>
		<path class="st4" d="M1000,121.7c0.3,0,0.6,0,1.1,0c0.8-0.1,1.5-0.4,2-0.9c0.6-0.6,1.1-1.4,1.3-2.6h0c-0.5,0.7-1.3,1-2.3,1
			c-1.8,0-2.9-1.3-2.9-3c0-1.8,1.3-3.5,3.3-3.5s3.2,1.6,3.2,4.1c0,2.1-0.7,3.6-1.7,4.6c-0.8,0.7-1.8,1.2-2.8,1.3
			c-0.5,0.1-0.9,0.1-1.2,0.1V121.7z M1000.4,116.1c0,1.2,0.7,2.1,1.9,2.1c0.9,0,1.6-0.4,1.9-1c0.1-0.1,0.1-0.3,0.1-0.5
			c0-1.7-0.6-2.9-2-2.9C1001.2,113.7,1000.4,114.7,1000.4,116.1z"/>
		<path class="st4" d="M1010.1,122.6v-0.8l1-1c2.5-2.4,3.6-3.6,3.6-5.1c0-1-0.5-1.9-1.9-1.9c-0.9,0-1.6,0.4-2.1,0.8l-0.4-0.9
			c0.7-0.6,1.6-1,2.8-1c2.1,0,3,1.4,3,2.8c0,1.8-1.3,3.3-3.4,5.2l-0.8,0.7v0h4.4v1.1H1010.1z"/>
		<path class="st4" d="M1024.3,117.6c0,3.3-1.2,5.1-3.4,5.1c-1.9,0-3.2-1.8-3.2-5c0-3.3,1.4-5.1,3.4-5.1
			C1023.1,112.7,1024.3,114.5,1024.3,117.6z M1019,117.8c0,2.5,0.8,4,2,4c1.3,0,2-1.6,2-4.1c0-2.4-0.6-4-2-4
			C1019.8,113.7,1019,115.1,1019,117.8z"/>
		<path class="st4" d="M1025.5,122.6v-0.8l1-1c2.5-2.4,3.6-3.6,3.6-5.1c0-1-0.5-1.9-1.9-1.9c-0.9,0-1.6,0.4-2.1,0.8l-0.4-0.9
			c0.7-0.6,1.6-1,2.8-1c2.1,0,3,1.4,3,2.8c0,1.8-1.3,3.3-3.4,5.2l-0.8,0.7v0h4.4v1.1H1025.5z"/>
		<path class="st4" d="M1039.6,117.6c0,3.3-1.2,5.1-3.4,5.1c-1.9,0-3.2-1.8-3.2-5c0-3.3,1.4-5.1,3.4-5.1
			C1038.5,112.7,1039.6,114.5,1039.6,117.6z M1034.3,117.8c0,2.5,0.8,4,2,4c1.3,0,2-1.6,2-4.1c0-2.4-0.6-4-2-4
			C1035.2,113.7,1034.3,115.1,1034.3,117.8z"/>
	</g>
	<g class="st3">
		<path class="st4" d="M71.6,201.3v-1.4c-1,0-1.9-0.3-2.5-0.6l0.4-1.7c0.6,0.3,1.5,0.6,2.4,0.6c0.8,0,1.4-0.3,1.4-0.9
			c0-0.6-0.5-0.9-1.5-1.3c-1.6-0.5-2.6-1.2-2.6-2.7c0-1.3,0.9-2.3,2.4-2.6v-1.4h1.4v1.3c1,0,1.6,0.2,2.1,0.5l-0.4,1.6
			c-0.4-0.2-1-0.5-2.1-0.5c-0.9,0-1.2,0.4-1.2,0.8c0,0.5,0.5,0.8,1.7,1.2c1.7,0.6,2.4,1.4,2.4,2.7c0,1.3-0.9,2.4-2.6,2.7v1.5H71.6z"
			/>
		<path class="st4" d="M80.9,200v-2.2h-4.2v-1.4l3.6-5.7H83v5.5h1.1v1.7H83v2.2H80.9z M80.9,196.1V194c0-0.6,0-1.1,0.1-1.8h-0.1
			c-0.3,0.6-0.6,1.2-0.9,1.8l-1.3,2.1v0H80.9z"/>
		<path class="st4" d="M91.8,190.6v1.4l-3.9,8h-2.3l3.9-7.6v0h-4.3v-1.8H91.8z"/>
		<path class="st4" d="M93.2,198.8c0-0.8,0.5-1.3,1.3-1.3c0.8,0,1.3,0.6,1.3,1.3c0,0.8-0.5,1.3-1.3,1.3
			C93.8,200.2,93.2,199.6,93.2,198.8z"/>
		<path class="st4" d="M96.9,200v-1.3l1.2-1.1c2.1-1.8,3.1-2.9,3.1-4c0-0.8-0.5-1.4-1.6-1.4c-0.8,0-1.5,0.4-2,0.8l-0.6-1.6
			c0.7-0.5,1.8-1,3.1-1c2.1,0,3.3,1.2,3.3,3c0,1.6-1.1,2.8-2.5,4.1l-0.9,0.7v0h3.6v1.8H96.9z"/>
		<path class="st4" d="M104.9,200v-1.3l1.2-1.1c2.1-1.8,3.1-2.9,3.1-4c0-0.8-0.5-1.4-1.6-1.4c-0.8,0-1.5,0.4-2,0.8l-0.6-1.6
			c0.7-0.5,1.8-1,3.1-1c2.1,0,3.3,1.2,3.3,3c0,1.6-1.1,2.8-2.5,4.1l-0.9,0.7v0h3.6v1.8H104.9z"/>
	</g>
	<g class="st3">
		<path class="st4" d="M469.3,190.3v-1.4c-1,0-1.9-0.3-2.5-0.6l0.4-1.7c0.6,0.3,1.5,0.6,2.4,0.6c0.8,0,1.4-0.3,1.4-0.9
			c0-0.6-0.5-0.9-1.5-1.3c-1.6-0.5-2.6-1.2-2.6-2.7c0-1.3,0.9-2.3,2.4-2.6v-1.4h1.4v1.3c1,0,1.6,0.2,2.1,0.5l-0.4,1.6
			c-0.4-0.2-1-0.5-2.1-0.5c-0.9,0-1.2,0.4-1.2,0.8c0,0.5,0.5,0.8,1.7,1.2c1.7,0.6,2.4,1.4,2.4,2.7c0,1.3-0.9,2.4-2.6,2.7v1.5H469.3z
			"/>
		<path class="st4" d="M478.6,189v-2.2h-4.2v-1.4l3.6-5.7h2.7v5.5h1.1v1.7h-1.1v2.2H478.6z M478.6,185.1V183c0-0.6,0-1.1,0.1-1.8
			h-0.1c-0.3,0.6-0.6,1.2-0.9,1.8l-1.3,2.1v0H478.6z"/>
		<path class="st4" d="M482.6,186.5c0-1.1,0.7-1.9,1.7-2.4v0c-0.9-0.5-1.4-1.2-1.4-2.1c0-1.6,1.4-2.7,3.3-2.7c2.2,0,3.1,1.3,3.1,2.4
			c0,0.8-0.4,1.6-1.4,2.1v0c0.9,0.3,1.7,1.1,1.7,2.3c0,1.7-1.4,2.9-3.6,2.9C483.7,189.2,482.6,187.8,482.6,186.5z M487.5,186.5
			c0-0.8-0.6-1.3-1.5-1.6c-0.7,0.2-1.1,0.7-1.1,1.4c0,0.7,0.5,1.3,1.3,1.3C487,187.6,487.5,187.1,487.5,186.5z M485,182
			c0,0.6,0.6,1,1.3,1.3c0.5-0.1,1-0.6,1-1.2c0-0.6-0.3-1.2-1.1-1.2C485.4,180.9,485,181.4,485,182z"/>
		<path class="st4" d="M490.9,187.8c0-0.8,0.5-1.3,1.3-1.3c0.8,0,1.3,0.6,1.3,1.3c0,0.8-0.5,1.3-1.3,1.3
			C491.4,189.2,490.9,188.6,490.9,187.8z"/>
		<path class="st4" d="M497.4,181.5L497.4,181.5l-1.8,0.9l-0.4-1.7l2.5-1.2h1.8v9.4h-2.1V181.5z"/>
		<path class="st4" d="M503.3,187.4c0.3,0,0.5,0,1,0c0.7,0,1.3-0.2,1.9-0.6c0.6-0.4,1-1,1.2-1.7l0,0c-0.4,0.4-1,0.7-1.9,0.7
			c-1.6,0-2.9-1.1-2.9-2.9c0-1.8,1.5-3.4,3.6-3.4c2.4,0,3.6,1.9,3.6,4.1c0,2-0.6,3.4-1.7,4.3c-0.9,0.8-2.1,1.3-3.6,1.3
			c-0.4,0-0.8,0-1,0V187.4z M504.6,182.7c0,0.8,0.4,1.5,1.3,1.5c0.6,0,1-0.3,1.2-0.6c0.1-0.1,0.1-0.3,0.1-0.6c0-1-0.4-2-1.4-2
			C505.2,181,504.6,181.7,504.6,182.7z"/>
	</g>
	<g class="st3">
		<path class="st4" d="M634.8,91.3v-1.4c-1,0-1.9-0.3-2.5-0.6l0.4-1.7c0.6,0.3,1.5,0.6,2.4,0.6c0.8,0,1.4-0.3,1.4-0.9
			c0-0.6-0.5-0.9-1.5-1.3c-1.6-0.5-2.6-1.2-2.6-2.7c0-1.3,0.9-2.3,2.4-2.6v-1.4h1.4v1.3c1,0,1.6,0.2,2.1,0.5l-0.4,1.6
			c-0.4-0.2-1-0.5-2.1-0.5c-0.9,0-1.2,0.4-1.2,0.8c0,0.5,0.5,0.8,1.7,1.2c1.7,0.6,2.4,1.4,2.4,2.7c0,1.3-0.9,2.4-2.6,2.7v1.5H634.8z
			"/>
		<path class="st4" d="M646.5,82.4h-3.7l-0.2,1.4c0.2,0,0.4,0,0.6,0c0.9,0,1.8,0.2,2.5,0.7c0.7,0.5,1.1,1.3,1.1,2.4
			c0,1.8-1.5,3.3-4,3.3c-1.1,0-2.1-0.3-2.6-0.5l0.4-1.7c0.4,0.2,1.3,0.5,2.1,0.5c0.9,0,1.9-0.4,1.9-1.4c0-1-0.8-1.6-2.7-1.6
			c-0.5,0-0.9,0-1.3,0.1l0.6-4.9h5.2V82.4z"/>
		<path class="st4" d="M655,80.6V82l-3.9,8h-2.3l3.9-7.6v0h-4.3v-1.8H655z"/>
		<path class="st4" d="M656.4,88.8c0-0.8,0.5-1.3,1.3-1.3s1.3,0.6,1.3,1.3c0,0.8-0.5,1.3-1.3,1.3C656.9,90.2,656.4,89.6,656.4,88.8z
			"/>
		<path class="st4" d="M659.9,87.5c0-1.1,0.7-1.9,1.7-2.4v0c-0.9-0.5-1.4-1.2-1.4-2.1c0-1.6,1.4-2.7,3.3-2.7c2.2,0,3.1,1.3,3.1,2.4
			c0,0.8-0.4,1.6-1.4,2.1v0c0.9,0.3,1.7,1.1,1.7,2.3c0,1.7-1.4,2.9-3.6,2.9C661,90.2,659.9,88.8,659.9,87.5z M664.8,87.5
			c0-0.8-0.6-1.3-1.5-1.6c-0.7,0.2-1.1,0.7-1.1,1.4c0,0.7,0.5,1.3,1.3,1.3C664.3,88.6,664.8,88.1,664.8,87.5z M662.3,83
			c0,0.6,0.6,1,1.3,1.3c0.5-0.1,1-0.6,1-1.2c0-0.6-0.3-1.2-1.1-1.2C662.7,81.9,662.3,82.4,662.3,83z"/>
		<path class="st4" d="M674.1,82.1c-0.2,0-0.5,0-0.9,0c-2,0.2-2.8,1.2-3.1,2.3h0c0.5-0.5,1.1-0.8,2-0.8c1.6,0,2.9,1.1,2.9,3.1
			c0,1.9-1.4,3.4-3.5,3.4c-2.5,0-3.7-1.9-3.7-4.1c0-1.8,0.7-3.2,1.7-4.2c0.9-0.9,2.2-1.3,3.6-1.4c0.4,0,0.7,0,0.9,0V82.1z
			 M672.9,86.9c0-0.9-0.5-1.6-1.4-1.6c-0.6,0-1.1,0.4-1.3,0.8c-0.1,0.1-0.1,0.3-0.1,0.6c0,1,0.5,1.9,1.5,1.9
			C672.4,88.5,672.9,87.8,672.9,86.9z"/>
	</g>
	<g class="st3">
		<path class="st4" d="M849.4,78.2v-1.4c-1,0-1.9-0.3-2.5-0.6l0.4-1.7c0.6,0.3,1.5,0.6,2.4,0.6c0.8,0,1.4-0.3,1.4-0.9
			c0-0.6-0.5-0.9-1.5-1.3c-1.6-0.5-2.6-1.2-2.6-2.7c0-1.3,0.9-2.3,2.4-2.6v-1.4h1.4v1.3c1,0,1.6,0.2,2.1,0.5l-0.4,1.6
			c-0.4-0.2-1-0.5-2.1-0.5c-0.9,0-1.2,0.4-1.2,0.8c0,0.5,0.5,0.8,1.7,1.2c1.7,0.6,2.4,1.4,2.4,2.7c0,1.3-0.9,2.4-2.6,2.7v1.5H849.4z
			"/>
		<path class="st4" d="M861.1,69.4h-3.7l-0.2,1.4c0.2,0,0.4,0,0.6,0c0.9,0,1.8,0.2,2.5,0.7c0.7,0.5,1.1,1.3,1.1,2.4
			c0,1.8-1.5,3.3-4,3.3c-1.1,0-2.1-0.3-2.6-0.5l0.4-1.7c0.4,0.2,1.3,0.5,2.1,0.5c0.9,0,1.9-0.4,1.9-1.4c0-1-0.8-1.6-2.7-1.6
			c-0.5,0-0.9,0-1.3,0.1l0.6-4.9h5.2V69.4z"/>
		<path class="st4" d="M863.5,75.4c0.3,0,0.5,0,1,0c0.7,0,1.3-0.2,1.9-0.6c0.6-0.4,1-1,1.2-1.7l0,0c-0.4,0.4-1,0.7-1.9,0.7
			c-1.6,0-2.9-1.1-2.9-2.9c0-1.8,1.5-3.4,3.6-3.4c2.4,0,3.6,1.9,3.6,4.1c0,2-0.6,3.4-1.7,4.3c-0.9,0.8-2.1,1.3-3.6,1.3
			c-0.4,0-0.8,0-1,0V75.4z M864.8,70.7c0,0.8,0.4,1.5,1.3,1.5c0.6,0,1-0.3,1.2-0.6c0.1-0.1,0.1-0.3,0.1-0.6c0-1-0.4-2-1.4-2
			C865.4,69,864.8,69.7,864.8,70.7z"/>
		<path class="st4" d="M871,75.8c0-0.8,0.5-1.3,1.3-1.3s1.3,0.6,1.3,1.3c0,0.8-0.5,1.3-1.3,1.3C871.5,77.1,871,76.6,871,75.8z"/>
		<path class="st4" d="M881.6,72.2c0,2.9-1.2,4.9-3.6,4.9c-2.4,0-3.5-2.2-3.5-4.9c0-2.7,1.2-4.9,3.6-4.9
			C880.6,67.4,881.6,69.6,881.6,72.2z M876.7,72.3c0,2.2,0.5,3.2,1.4,3.2c0.9,0,1.3-1.1,1.3-3.2c0-2.1-0.4-3.2-1.3-3.2
			C877.2,69.1,876.7,70.1,876.7,72.3z"/>
		<path class="st4" d="M886.6,77v-2.2h-4.2v-1.4l3.6-5.7h2.7v5.5h1.1v1.7h-1.1V77H886.6z M886.6,73.1V71c0-0.6,0-1.1,0.1-1.8h-0.1
			c-0.3,0.6-0.6,1.2-0.9,1.8l-1.3,2.1v0H886.6z"/>
	</g>
	<line class="st5" x1="1101.8" y1="405.9" x2="5.5" y2="405.9"/>
	<line class="st6" x1="943" y1="119.1" x2="943" y2="44.1"/>
	<g>
		<g>
			<defs>
				<rect id="SVGID_7_" x="-16.5" y="35.9" width="1127.1" height="408.2"/>
			</defs>
			<clipPath id="SVGID_8_">
				<use xlink:href="#SVGID_7_"  style="overflow:visible;"/>
			</clipPath>
			<circle class="st7" cx="943" cy="123.1" r="4"/>
		</g>
	</g>
	<line class="st6" x1="64" y1="254.1" x2="64" y2="190.1"/>
	<g>
		<g>
			<defs>
				<rect id="SVGID_9_" x="-16.5" y="35.9" width="1127.1" height="408.2"/>
			</defs>
			<clipPath id="SVGID_10_">
				<use xlink:href="#SVGID_9_"  style="overflow:visible;"/>
			</clipPath>
			<circle class="st8" cx="64" cy="258.1" r="4"/>
		</g>
	</g>
	<line class="st6" x1="461.8" y1="243.1" x2="461.8" y2="179.1"/>
	<g>
		<g>
			<defs>
				<rect id="SVGID_11_" x="-16.5" y="35.9" width="1127.1" height="408.2"/>
			</defs>
			<clipPath id="SVGID_12_">
				<use xlink:href="#SVGID_11_"  style="overflow:visible;"/>
			</clipPath>
			<circle class="st9" cx="461.8" cy="247.1" r="4"/>
		</g>
	</g>
	<line class="st6" x1="627.2" y1="144.1" x2="627.2" y2="80.1"/>
	<g>
		<g>
			<defs>
				<rect id="SVGID_13_" x="-16.5" y="35.9" width="1127.1" height="408.2"/>
			</defs>
			<clipPath id="SVGID_14_">
				<use xlink:href="#SVGID_13_"  style="overflow:visible;"/>
			</clipPath>
			<circle class="st10" cx="627.2" cy="148.1" r="4"/>
		</g>
	</g>
	<line class="st6" x1="841.1" y1="134.1" x2="841.1" y2="70.1"/>
	<g>
		<g>
			<defs>
				<rect id="SVGID_15_" x="-16.5" y="35.9" width="1127.1" height="408.2"/>
			</defs>
			<clipPath id="SVGID_16_">
				<use xlink:href="#SVGID_15_"  style="overflow:visible;"/>
			</clipPath>
			<circle class="st11" cx="841.1" cy="138.1" r="4"/>
		</g>
	</g>
	<g class="st3">
		<path class="st4" d="M8.3,424.6c0.6-0.1,1.4-0.2,2.3-0.2c1.4,0,2.3,0.3,3,0.8c0.8,0.6,1.3,1.5,1.3,2.8c0,1.4-0.5,2.4-1.2,3
			c-0.8,0.6-2,1-3.4,1c-0.9,0-1.5-0.1-1.9-0.1V424.6z M10,430.6c0.1,0,0.4,0,0.6,0c1.5,0,2.5-0.8,2.5-2.6c0-1.5-0.9-2.4-2.3-2.4
			c-0.4,0-0.6,0-0.8,0.1V430.6z"/>
	</g>
	<g class="st3">
		<path class="st4" d="M17.7,425c0,0.5-0.4,0.8-0.9,0.8c-0.5,0-0.9-0.4-0.9-0.8c0-0.5,0.3-0.8,0.9-0.8S17.6,424.5,17.7,425z
			 M15.9,431.9v-5.4h1.7v5.4H15.9z"/>
		<path class="st4" d="M23,431.7c-0.3,0.1-0.9,0.2-1.5,0.2c-1.7,0-2.8-1.1-2.8-2.8c0-1.6,1.1-2.9,3.1-2.9c0.4,0,0.9,0.1,1.3,0.2
			l-0.3,1.2c-0.2-0.1-0.5-0.2-0.9-0.2c-0.9,0-1.5,0.6-1.4,1.5c0,1,0.7,1.5,1.5,1.5c0.4,0,0.7-0.1,1-0.2L23,431.7z"/>
		<path class="st4" d="M28,426.2L28,426.2l-1.4,0.6l-0.3-1.3l1.9-0.9h1.4v7.2H28V426.2z"/>
		<path class="st4" d="M36.8,426.1H34l-0.2,1.1c0.2,0,0.3,0,0.5,0c0.7,0,1.4,0.2,1.9,0.5c0.5,0.4,0.9,1,0.9,1.8
			c0,1.3-1.1,2.5-3.1,2.5c-0.9,0-1.6-0.2-2-0.4l0.3-1.3c0.3,0.2,1,0.4,1.6,0.4c0.7,0,1.4-0.3,1.4-1.1c0-0.7-0.6-1.2-2-1.2
			c-0.4,0-0.7,0-1,0.1l0.5-3.8h3.9V426.1z"/>
	</g>
	<g class="st3">
		<path class="st4" d="M228.7,424.6c0.6-0.1,1.4-0.2,2.3-0.2c1.4,0,2.3,0.3,3,0.8c0.8,0.6,1.3,1.5,1.3,2.8c0,1.4-0.5,2.4-1.2,3
			c-0.8,0.6-2,1-3.4,1c-0.9,0-1.5-0.1-1.9-0.1V424.6z M230.4,430.6c0.1,0,0.4,0,0.6,0c1.5,0,2.5-0.8,2.5-2.6c0-1.5-0.9-2.4-2.3-2.4
			c-0.4,0-0.6,0-0.8,0.1V430.6z"/>
	</g>
	<g class="st3">
		<path class="st4" d="M238,425c0,0.5-0.4,0.8-0.9,0.8c-0.5,0-0.9-0.4-0.9-0.8c0-0.5,0.3-0.8,0.9-0.8S238,424.5,238,425z
			 M236.3,431.9v-5.4h1.7v5.4H236.3z"/>
		<path class="st4" d="M243.4,431.7c-0.3,0.1-0.9,0.2-1.5,0.2c-1.7,0-2.8-1.1-2.8-2.8c0-1.6,1.1-2.9,3.1-2.9c0.4,0,0.9,0.1,1.3,0.2
			l-0.3,1.2c-0.2-0.1-0.5-0.2-0.9-0.2c-0.9,0-1.5,0.6-1.4,1.5c0,1,0.7,1.5,1.5,1.5c0.4,0,0.7-0.1,1-0.2L243.4,431.7z"/>
		<path class="st4" d="M248.4,426.2L248.4,426.2l-1.4,0.6l-0.3-1.3l1.9-0.9h1.4v7.2h-1.6V426.2z"/>
		<path class="st4" d="M257,425.9c-0.2,0-0.4,0-0.6,0c-1.5,0.1-2.1,0.9-2.3,1.7h0c0.4-0.4,0.8-0.6,1.5-0.6c1.2,0,2.2,0.8,2.2,2.3
			c0,1.4-1.1,2.6-2.6,2.6c-1.9,0-2.8-1.4-2.8-3.1c0-1.3,0.5-2.5,1.3-3.2c0.7-0.6,1.6-1,2.8-1.1c0.3,0,0.5,0,0.7,0V425.9z
			 M256.1,429.5c0-0.7-0.4-1.2-1.1-1.2c-0.5,0-0.8,0.3-1,0.6c0,0.1-0.1,0.2-0.1,0.4c0,0.8,0.4,1.4,1.2,1.4
			C255.7,430.8,256.1,430.2,256.1,429.5z"/>
	</g>
	<g class="st3">
		<path class="st4" d="M442.5,424.6c0.6-0.1,1.4-0.2,2.3-0.2c1.4,0,2.3,0.3,3,0.8c0.8,0.6,1.3,1.5,1.3,2.8c0,1.4-0.5,2.4-1.2,3
			c-0.8,0.6-2,1-3.4,1c-0.9,0-1.5-0.1-1.9-0.1V424.6z M444.2,430.6c0.1,0,0.4,0,0.6,0c1.5,0,2.5-0.8,2.5-2.6c0-1.5-0.9-2.4-2.3-2.4
			c-0.4,0-0.6,0-0.8,0.1V430.6z"/>
	</g>
	<g class="st3">
		<path class="st4" d="M451.9,425c0,0.5-0.4,0.8-0.9,0.8c-0.5,0-0.9-0.4-0.9-0.8c0-0.5,0.3-0.8,0.9-0.8S451.8,424.5,451.9,425z
			 M450.1,431.9v-5.4h1.7v5.4H450.1z"/>
		<path class="st4" d="M457.2,431.7c-0.3,0.1-0.9,0.2-1.5,0.2c-1.7,0-2.8-1.1-2.8-2.8c0-1.6,1.1-2.9,3.1-2.9c0.4,0,0.9,0.1,1.3,0.2
			l-0.3,1.2c-0.2-0.1-0.5-0.2-0.9-0.2c-0.9,0-1.5,0.6-1.4,1.5c0,1,0.7,1.5,1.5,1.5c0.4,0,0.7-0.1,1-0.2L457.2,431.7z"/>
		<path class="st4" d="M462.2,426.2L462.2,426.2l-1.4,0.6l-0.3-1.3l1.9-0.9h1.4v7.2h-1.6V426.2z"/>
		<path class="st4" d="M471.3,424.7v1.1l-2.9,6.1h-1.8l2.9-5.8v0h-3.3v-1.4H471.3z"/>
	</g>
	<g class="st3">
		<path class="st4" d="M668,424.6c0.6-0.1,1.4-0.2,2.3-0.2c1.4,0,2.3,0.3,3,0.8c0.8,0.6,1.3,1.5,1.3,2.8c0,1.4-0.5,2.4-1.2,3
			c-0.8,0.6-2,1-3.4,1c-0.9,0-1.5-0.1-1.9-0.1V424.6z M669.7,430.6c0.1,0,0.4,0,0.6,0c1.5,0,2.5-0.8,2.5-2.6c0-1.5-0.9-2.4-2.3-2.4
			c-0.4,0-0.6,0-0.8,0.1V430.6z"/>
	</g>
	<g class="st3">
		<path class="st4" d="M677.4,425c0,0.5-0.4,0.8-0.9,0.8c-0.5,0-0.9-0.4-0.9-0.8c0-0.5,0.3-0.8,0.9-0.8S677.4,424.5,677.4,425z
			 M675.7,431.9v-5.4h1.7v5.4H675.7z"/>
		<path class="st4" d="M682.7,431.7c-0.3,0.1-0.9,0.2-1.5,0.2c-1.7,0-2.8-1.1-2.8-2.8c0-1.6,1.1-2.9,3.1-2.9c0.4,0,0.9,0.1,1.3,0.2
			l-0.3,1.2c-0.2-0.1-0.5-0.2-0.9-0.2c-0.9,0-1.5,0.6-1.4,1.5c0,1,0.7,1.5,1.5,1.5c0.4,0,0.7-0.1,1-0.2L682.7,431.7z"/>
		<path class="st4" d="M687.8,426.2L687.8,426.2l-1.4,0.6l-0.3-1.3l1.9-0.9h1.4v7.2h-1.6V426.2z"/>
		<path class="st4" d="M691.7,430c0-0.9,0.5-1.5,1.3-1.8v0c-0.7-0.4-1-0.9-1-1.6c0-1.2,1.1-2,2.5-2c1.7,0,2.4,1,2.4,1.8
			c0,0.6-0.3,1.2-1,1.6v0c0.7,0.3,1.3,0.9,1.3,1.8c0,1.3-1.1,2.2-2.8,2.2C692.5,432,691.7,431,691.7,430z M695.4,430
			c0-0.6-0.5-1-1.1-1.2c-0.5,0.2-0.9,0.5-0.9,1.1c0,0.5,0.4,1,1,1C695,430.8,695.4,430.5,695.4,430z M693.5,426.6c0,0.5,0.4,0.8,1,1
			c0.4-0.1,0.7-0.5,0.7-0.9c0-0.4-0.3-0.9-0.9-0.9C693.8,425.7,693.5,426.1,693.5,426.6z"/>
	</g>
	<g class="st3">
		<path class="st4" d="M877.3,424.6c0.6-0.1,1.4-0.2,2.3-0.2c1.4,0,2.3,0.3,3,0.8c0.8,0.6,1.3,1.5,1.3,2.8c0,1.4-0.5,2.4-1.2,3
			c-0.8,0.6-2,1-3.4,1c-0.9,0-1.5-0.1-1.9-0.1V424.6z M879,430.6c0.1,0,0.4,0,0.6,0c1.5,0,2.5-0.8,2.5-2.6c0-1.5-0.9-2.4-2.3-2.4
			c-0.4,0-0.6,0-0.8,0.1V430.6z"/>
	</g>
	<g class="st3">
		<path class="st4" d="M886.7,425c0,0.5-0.4,0.8-0.9,0.8c-0.5,0-0.9-0.4-0.9-0.8c0-0.5,0.3-0.8,0.9-0.8S886.7,424.5,886.7,425z
			 M884.9,431.9v-5.4h1.7v5.4H884.9z"/>
		<path class="st4" d="M892,431.7c-0.3,0.1-0.9,0.2-1.5,0.2c-1.7,0-2.8-1.1-2.8-2.8c0-1.6,1.1-2.9,3.1-2.9c0.4,0,0.9,0.1,1.3,0.2
			l-0.3,1.2c-0.2-0.1-0.5-0.2-0.9-0.2c-0.9,0-1.5,0.6-1.4,1.5c0,1,0.7,1.5,1.5,1.5c0.4,0,0.7-0.1,1-0.2L892,431.7z"/>
		<path class="st4" d="M897.1,426.2L897.1,426.2l-1.4,0.6l-0.3-1.3l1.9-0.9h1.4v7.2h-1.6V426.2z"/>
		<path class="st4" d="M901.6,430.7c0.2,0,0.4,0,0.7,0c0.5,0,1-0.2,1.4-0.4c0.5-0.3,0.8-0.8,0.9-1.3l0,0c-0.3,0.3-0.8,0.5-1.4,0.5
			c-1.2,0-2.2-0.8-2.2-2.2c0-1.4,1.1-2.6,2.7-2.6c1.8,0,2.7,1.4,2.7,3.1c0,1.5-0.5,2.6-1.3,3.3c-0.7,0.6-1.6,1-2.7,1
			c-0.3,0-0.6,0-0.8,0V430.7z M902.6,427.1c0,0.6,0.3,1.1,1,1.1c0.5,0,0.8-0.2,0.9-0.5c0.1-0.1,0.1-0.2,0.1-0.4c0-0.8-0.3-1.5-1-1.5
			C903,425.8,902.6,426.3,902.6,427.1z"/>
	</g>
	<g class="st3">
		<path class="st4" d="M1047.3,424.6c0.6-0.1,1.4-0.2,2.3-0.2c1.4,0,2.3,0.3,3,0.8c0.8,0.6,1.3,1.5,1.3,2.8c0,1.4-0.5,2.4-1.2,3
			c-0.8,0.6-2,1-3.4,1c-0.9,0-1.5-0.1-1.9-0.1V424.6z M1049,430.6c0.1,0,0.4,0,0.6,0c1.5,0,2.5-0.8,2.5-2.6c0-1.5-0.9-2.4-2.3-2.4
			c-0.4,0-0.6,0-0.8,0.1V430.6z"/>
	</g>
	<g class="st3">
		<path class="st4" d="M1056.7,425c0,0.5-0.4,0.8-0.9,0.8c-0.5,0-0.9-0.4-0.9-0.8c0-0.5,0.3-0.8,0.9-0.8S1056.7,424.5,1056.7,425z
			 M1055,431.9v-5.4h1.7v5.4H1055z"/>
		<path class="st4" d="M1062,431.7c-0.3,0.1-0.9,0.2-1.5,0.2c-1.7,0-2.8-1.1-2.8-2.8c0-1.6,1.1-2.9,3.1-2.9c0.4,0,0.9,0.1,1.3,0.2
			l-0.3,1.2c-0.2-0.1-0.5-0.2-0.9-0.2c-0.9,0-1.5,0.6-1.4,1.5c0,1,0.7,1.5,1.5,1.5c0.4,0,0.7-0.1,1-0.2L1062,431.7z"/>
		<path class="st4" d="M1065,431.9v-1l0.9-0.8c1.6-1.4,2.3-2.2,2.3-3c0-0.6-0.4-1-1.2-1c-0.6,0-1.2,0.3-1.5,0.6l-0.5-1.2
			c0.5-0.4,1.4-0.7,2.3-0.7c1.6,0,2.5,0.9,2.5,2.2c0,1.2-0.9,2.2-1.9,3.1l-0.7,0.5v0h2.7v1.4H1065z"/>
		<path class="st4" d="M1076.4,428.3c0,2.2-0.9,3.7-2.7,3.7c-1.8,0-2.7-1.7-2.7-3.7c0-2.1,0.9-3.7,2.7-3.7
			C1075.6,424.6,1076.4,426.3,1076.4,428.3z M1072.7,428.3c0,1.6,0.4,2.4,1,2.4s1-0.8,1-2.4c0-1.6-0.3-2.4-1-2.4
			C1073.1,425.9,1072.6,426.7,1072.7,428.3z"/>
	</g>
	<g>
		<g>
			<defs>
				<rect id="SVGID_17_" x="-16.5" y="35.9" width="1127.1" height="408.2"/>
			</defs>
			<clipPath id="SVGID_18_">
				<use xlink:href="#SVGID_17_"  style="overflow:visible;"/>
			</clipPath>
			<g class="st12">
				<g>
					<g>
						<defs>
							<rect id="SVGID_19_" x="225.4" y="167.3" width="683.1" height="239.8"/>
						</defs>
						<clipPath id="SVGID_20_">
							<use xlink:href="#SVGID_19_"  style="overflow:visible;"/>
						</clipPath>
						<line class="st13" x1="242.9" y1="180.3" x2="242.9" y2="406.1"/>
					</g>
					<g>
						<defs>
							<rect id="SVGID_21_" x="225.4" y="167.3" width="683.1" height="239.8"/>
						</defs>
						<clipPath id="SVGID_22_">
							<use xlink:href="#SVGID_21_"  style="overflow:visible;"/>
						</clipPath>
						<line class="st14" x1="457.3" y1="180.3" x2="457.3" y2="406.1"/>
					</g>
					<g>
						<defs>
							<rect id="SVGID_23_" x="225.4" y="167.3" width="683.1" height="239.8"/>
						</defs>
						<clipPath id="SVGID_24_">
							<use xlink:href="#SVGID_23_"  style="overflow:visible;"/>
						</clipPath>
						<line class="st15" x1="681.8" y1="180.3" x2="681.8" y2="406.1"/>
					</g>
					<g>
						<defs>
							<rect id="SVGID_25_" x="225.4" y="167.3" width="683.1" height="239.8"/>
						</defs>
						<clipPath id="SVGID_26_">
							<use xlink:href="#SVGID_25_"  style="overflow:visible;"/>
						</clipPath>
						<line class="st16" x1="891.1" y1="180.3" x2="891.1" y2="406.1"/>
					</g>
				</g>
			</g>
		</g>
	</g>
</g>
</svg>
