<?xml version="1.0" encoding="utf-8"?>
<!-- Generator: Adobe Illustrator 25.2.1, SVG Export Plug-In . SVG Version: 6.00 Build 0)  -->
<svg version="1.1" id="Layer_1" xmlns="http://www.w3.org/2000/svg" xmlns:xlink="http://www.w3.org/1999/xlink" x="0px" y="0px"
	 viewBox="0 0 674.2 397.7" style="enable-background:new 0 0 674.2 397.7;" xml:space="preserve">
<style type="text/css">
	.st0{fill:#EDF1F3;}
	.st1{fill:#6AAAE4;}
	.st2{fill:#A5BCD0;}
	.st3{fill:#C7DCF4;}
	.st4{fill:#DAE3EC;}
	.st5{fill:#E2EDF9;}
	.st6{fill:none;stroke:#F0F1F1;stroke-width:0.2732;stroke-miterlimit:10;}
	.st7{fill:none;stroke:#FFFFFF;stroke-width:0.5463;stroke-miterlimit:10;}
	.st8{clip-path:url(#SVGID_2_);fill:none;stroke:#EDF1F3;stroke-width:4.3707;stroke-miterlimit:10;}
	.st9{fill:none;stroke:#EDF1F3;stroke-width:4.3707;stroke-miterlimit:10;}
	.st10{clip-path:url(#SVGID_4_);fill:none;stroke:#EDF1F3;stroke-width:4.3707;stroke-miterlimit:10;}
	.st11{clip-path:url(#SVGID_6_);fill:none;stroke:#EDF1F3;stroke-width:4.3707;stroke-miterlimit:10;}
	.st12{fill:none;stroke:#EDF1F3;stroke-width:0.5463;stroke-miterlimit:10;}
	.st13{clip-path:url(#SVGID_8_);fill:none;stroke:#FFFFFF;stroke-width:4.3707;stroke-miterlimit:10;}
	.st14{fill:none;stroke:#FFFFFF;stroke-width:4.3707;stroke-miterlimit:10;}
	.st15{clip-path:url(#SVGID_10_);fill:none;stroke:#FFFFFF;stroke-width:4.3707;stroke-miterlimit:10;}
	.st16{fill:#FFFFFF;}
	.st17{fill:#4D4D4F;}
</style>
<g>
	<path class="st0" d="M23.8,37.5h230.6v27.3H23.8V37.5z M23.8,10.2h230.6v27.3H23.8V10.2z"/>
	<rect x="254.4" y="10.2" class="st1" width="157.3" height="27.3"/>
	<path class="st2" d="M569.1,10.2h78.7v27.3h-78.7V10.2z M411.8,10.2h157.3v27.3H411.8V10.2z"/>
	<path class="st3" d="M333.1,343.6h78.7V390h-78.7V343.6z M254.4,343.6h78.7V390h-78.7V343.6z M333.1,297.1h78.7v46.5h-78.7V297.1z
		 M254.4,297.1h78.7v46.5h-78.7V297.1z M333.1,250.6h78.7v46.5h-78.7V250.6z M254.4,250.6h78.7v46.5h-78.7V250.6z M333.1,204.2h78.7
		v46.5h-78.7V204.2z M254.4,204.2h78.7v46.5h-78.7V204.2z M333.1,157.7h78.7v46.5h-78.7V157.7z M254.4,157.7h78.7v46.5h-78.7V157.7z
		 M333.1,111.3h78.7v46.5h-78.7V111.3z M254.4,111.3h78.7v46.5h-78.7V111.3z M333.1,64.8h78.7v46.5h-78.7V64.8z M254.4,64.8h78.7
		v46.5h-78.7V64.8z M333.1,37.5h78.7v27.3h-78.7V37.5z M254.4,37.5h78.7v27.3h-78.7V37.5z"/>
	<path class="st4" d="M569.1,343.6h78.7V390h-78.7V343.6z M490.5,343.6h78.7V390h-78.7V343.6z M411.8,343.6h78.7V390h-78.7V343.6z
		 M569.1,297.1h78.7v46.5h-78.7V297.1z M490.5,297.1h78.7v46.5h-78.7V297.1z M411.8,297.1h78.7v46.5h-78.7V297.1z M569.1,250.6h78.7
		v46.5h-78.7V250.6z M490.5,250.6h78.7v46.5h-78.7V250.6z M411.8,250.6h78.7v46.5h-78.7V250.6z M569.1,204.2h78.7v46.5h-78.7V204.2z
		 M490.5,204.2h78.7v46.5h-78.7V204.2z M411.8,204.2h78.7v46.5h-78.7V204.2z M569.1,157.7h78.7v46.5h-78.7V157.7z M490.5,157.7h78.7
		v46.5h-78.7V157.7z M411.8,157.7h78.7v46.5h-78.7V157.7z M569.1,111.3h78.7v46.5h-78.7V111.3z M490.5,111.3h78.7v46.5h-78.7V111.3z
		 M411.8,111.3h78.7v46.5h-78.7V111.3z M569.1,64.8h78.7v46.5h-78.7V64.8z M490.5,64.8h78.7v46.5h-78.7V64.8z M411.8,64.8h78.7v46.5
		h-78.7V64.8z M569.1,37.5h78.7v27.3h-78.7V37.5z M490.5,37.5h78.7v27.3h-78.7V37.5z M411.8,37.5h78.7v27.3h-78.7V37.5z"/>
	<path class="st5" d="M23.8,343.6h230.6V390H23.8V343.6z M23.8,297.1h230.6v46.5H23.8V297.1z M23.8,250.6h230.6v46.5H23.8V250.6z
		 M23.8,204.2h230.6v46.5H23.8V204.2z M23.8,157.7h230.6v46.5H23.8V157.7z M23.8,111.3h230.6v46.5H23.8V111.3z M23.8,64.8h230.6
		v46.5H23.8V64.8z"/>
	<line class="st6" x1="23.8" y1="390" x2="254.4" y2="390"/>
	<line class="st6" x1="254.4" y1="390" x2="333.1" y2="390"/>
	<line class="st6" x1="333.1" y1="390" x2="411.8" y2="390"/>
	<line class="st6" x1="411.8" y1="390" x2="490.5" y2="390"/>
	<line class="st6" x1="490.5" y1="390" x2="569.1" y2="390"/>
	<line class="st6" x1="569.1" y1="390" x2="647.8" y2="390"/>
	<line class="st7" x1="23.8" y1="64.8" x2="252.3" y2="64.8"/>
	<line class="st7" x1="256.6" y1="64.8" x2="332.8" y2="64.8"/>
	<line class="st7" x1="333.4" y1="64.8" x2="409.6" y2="64.8"/>
	<line class="st7" x1="414" y1="64.8" x2="490.2" y2="64.8"/>
	<line class="st7" x1="490.7" y1="64.8" x2="567" y2="64.8"/>
	<line class="st7" x1="571.3" y1="64.8" x2="647.8" y2="64.8"/>
	<line class="st7" x1="23.8" y1="111.3" x2="252.3" y2="111.3"/>
	<line class="st7" x1="256.6" y1="111.3" x2="332.8" y2="111.3"/>
	<line class="st7" x1="333.4" y1="111.3" x2="409.6" y2="111.3"/>
	<line class="st7" x1="414" y1="111.3" x2="490.2" y2="111.3"/>
	<line class="st7" x1="490.7" y1="111.3" x2="567" y2="111.3"/>
	<line class="st7" x1="571.3" y1="111.3" x2="647.8" y2="111.3"/>
	<line class="st7" x1="23.8" y1="157.7" x2="252.3" y2="157.7"/>
	<line class="st7" x1="256.6" y1="157.7" x2="332.8" y2="157.7"/>
	<line class="st7" x1="333.4" y1="157.7" x2="409.6" y2="157.7"/>
	<line class="st7" x1="414" y1="157.7" x2="490.2" y2="157.7"/>
	<line class="st7" x1="490.7" y1="157.7" x2="567" y2="157.7"/>
	<line class="st7" x1="571.3" y1="157.7" x2="647.8" y2="157.7"/>
	<line class="st7" x1="23.8" y1="204.2" x2="252.3" y2="204.2"/>
	<line class="st7" x1="256.6" y1="204.2" x2="332.8" y2="204.2"/>
	<line class="st7" x1="333.4" y1="204.2" x2="409.6" y2="204.2"/>
	<line class="st7" x1="414" y1="204.2" x2="490.2" y2="204.2"/>
	<line class="st7" x1="490.7" y1="204.2" x2="567" y2="204.2"/>
	<line class="st7" x1="571.3" y1="204.2" x2="647.8" y2="204.2"/>
	<line class="st7" x1="23.8" y1="250.6" x2="252.3" y2="250.6"/>
	<line class="st7" x1="256.6" y1="250.6" x2="332.8" y2="250.6"/>
	<line class="st7" x1="333.4" y1="250.6" x2="409.6" y2="250.6"/>
	<line class="st7" x1="414" y1="250.6" x2="490.2" y2="250.6"/>
	<line class="st7" x1="490.7" y1="250.6" x2="567" y2="250.6"/>
	<line class="st7" x1="571.3" y1="250.6" x2="647.8" y2="250.6"/>
	<line class="st7" x1="23.8" y1="297.1" x2="252.3" y2="297.1"/>
	<line class="st7" x1="256.6" y1="297.1" x2="332.8" y2="297.1"/>
	<line class="st7" x1="333.4" y1="297.1" x2="409.6" y2="297.1"/>
	<line class="st7" x1="414" y1="297.1" x2="490.2" y2="297.1"/>
	<line class="st7" x1="490.7" y1="297.1" x2="567" y2="297.1"/>
	<line class="st7" x1="571.3" y1="297.1" x2="647.8" y2="297.1"/>
	<line class="st7" x1="23.8" y1="343.6" x2="252.3" y2="343.6"/>
	<line class="st7" x1="256.6" y1="343.6" x2="332.8" y2="343.6"/>
	<line class="st7" x1="333.4" y1="343.6" x2="409.6" y2="343.6"/>
	<line class="st7" x1="414" y1="343.6" x2="490.2" y2="343.6"/>
	<line class="st7" x1="490.7" y1="343.6" x2="567" y2="343.6"/>
	<line class="st7" x1="571.3" y1="343.6" x2="647.8" y2="343.6"/>
	<g>
		<defs>
			<rect id="SVGID_1_" x="14" y="2.5" width="652.6" height="392.7"/>
		</defs>
		<clipPath id="SVGID_2_">
			<use xlink:href="#SVGID_1_"  style="overflow:visible;"/>
		</clipPath>
		<line class="st8" x1="411.8" y1="37.5" x2="411.8" y2="10.2"/>
	</g>
	<line class="st9" x1="411.8" y1="64.8" x2="411.8" y2="37.5"/>
	<line class="st9" x1="411.8" y1="111.3" x2="411.8" y2="64.8"/>
	<line class="st9" x1="411.8" y1="157.7" x2="411.8" y2="111.3"/>
	<line class="st9" x1="411.8" y1="204.2" x2="411.8" y2="157.7"/>
	<line class="st9" x1="411.8" y1="250.6" x2="411.8" y2="204.2"/>
	<line class="st9" x1="411.8" y1="297.1" x2="411.8" y2="250.6"/>
	<line class="st9" x1="411.8" y1="343.6" x2="411.8" y2="297.1"/>
	<g>
		<defs>
			<rect id="SVGID_3_" x="14" y="2.5" width="652.6" height="392.7"/>
		</defs>
		<clipPath id="SVGID_4_">
			<use xlink:href="#SVGID_3_"  style="overflow:visible;"/>
		</clipPath>
		<line class="st10" x1="411.8" y1="389.9" x2="411.8" y2="343.6"/>
		<line class="st10" x1="569.1" y1="37.5" x2="569.1" y2="10.2"/>
	</g>
	<line class="st9" x1="569.1" y1="64.8" x2="569.1" y2="37.5"/>
	<line class="st9" x1="569.1" y1="111.3" x2="569.1" y2="64.8"/>
	<line class="st9" x1="569.1" y1="157.7" x2="569.1" y2="111.3"/>
	<line class="st9" x1="569.1" y1="204.2" x2="569.1" y2="157.7"/>
	<line class="st9" x1="569.1" y1="250.6" x2="569.1" y2="204.2"/>
	<line class="st9" x1="569.1" y1="297.1" x2="569.1" y2="250.6"/>
	<line class="st9" x1="569.1" y1="343.6" x2="569.1" y2="297.1"/>
	<g>
		<defs>
			<rect id="SVGID_5_" x="14" y="2.5" width="652.6" height="392.7"/>
		</defs>
		<clipPath id="SVGID_6_">
			<use xlink:href="#SVGID_5_"  style="overflow:visible;"/>
		</clipPath>
		<line class="st11" x1="569.1" y1="389.9" x2="569.1" y2="343.6"/>
	</g>
	<line class="st12" x1="333.1" y1="64.8" x2="333.1" y2="37.5"/>
	<line class="st12" x1="333.1" y1="111.3" x2="333.1" y2="64.8"/>
	<line class="st12" x1="333.1" y1="157.7" x2="333.1" y2="111.3"/>
	<line class="st12" x1="333.1" y1="204.2" x2="333.1" y2="157.7"/>
	<line class="st12" x1="333.1" y1="250.6" x2="333.1" y2="204.2"/>
	<line class="st12" x1="333.1" y1="297.1" x2="333.1" y2="250.6"/>
	<line class="st12" x1="333.1" y1="343.6" x2="333.1" y2="297.1"/>
	<line class="st12" x1="333.1" y1="389.9" x2="333.1" y2="343.6"/>
	<line class="st12" x1="490.5" y1="64.8" x2="490.5" y2="37.5"/>
	<line class="st12" x1="490.5" y1="111.3" x2="490.5" y2="64.8"/>
	<line class="st12" x1="490.5" y1="157.7" x2="490.5" y2="111.3"/>
	<line class="st12" x1="490.5" y1="204.2" x2="490.5" y2="157.7"/>
	<line class="st12" x1="490.5" y1="250.6" x2="490.5" y2="204.2"/>
	<line class="st12" x1="490.5" y1="297.1" x2="490.5" y2="250.6"/>
	<line class="st12" x1="490.5" y1="343.6" x2="490.5" y2="297.1"/>
	<line class="st12" x1="490.5" y1="389.9" x2="490.5" y2="343.6"/>
	<g>
		<defs>
			<rect id="SVGID_7_" x="14" y="2.5" width="652.6" height="392.7"/>
		</defs>
		<clipPath id="SVGID_8_">
			<use xlink:href="#SVGID_7_"  style="overflow:visible;"/>
		</clipPath>
		<line class="st13" x1="254.4" y1="37.5" x2="254.4" y2="10.2"/>
	</g>
	<line class="st14" x1="254.4" y1="64.8" x2="254.4" y2="37.5"/>
	<line class="st14" x1="254.4" y1="111.3" x2="254.4" y2="64.8"/>
	<line class="st14" x1="254.4" y1="157.7" x2="254.4" y2="111.3"/>
	<line class="st14" x1="254.4" y1="204.2" x2="254.4" y2="157.7"/>
	<line class="st14" x1="254.4" y1="250.6" x2="254.4" y2="204.2"/>
	<line class="st14" x1="254.4" y1="297.1" x2="254.4" y2="250.6"/>
	<line class="st14" x1="254.4" y1="343.6" x2="254.4" y2="297.1"/>
	<g>
		<defs>
			<rect id="SVGID_9_" x="14" y="2.5" width="652.6" height="392.7"/>
		</defs>
		<clipPath id="SVGID_10_">
			<use xlink:href="#SVGID_9_"  style="overflow:visible;"/>
		</clipPath>
		<line class="st15" x1="254.4" y1="389.9" x2="254.4" y2="343.6"/>
	</g>
	<g>
		<path class="st16" d="M316,29.8v-1.5l1.3-1.2c2.2-2,3.3-3.2,3.4-4.4c0-0.8-0.5-1.5-1.7-1.5c-0.9,0-1.7,0.4-2.2,0.9l-0.7-1.7
			c0.8-0.6,2-1.1,3.4-1.1c2.3,0,3.6,1.4,3.6,3.2c0,1.7-1.3,3.1-2.7,4.4l-1,0.8v0h3.9v2H316z"/>
		<path class="st16" d="M332.6,24.6c0,3.2-1.3,5.4-3.9,5.4c-2.7,0-3.8-2.4-3.8-5.3c0-3,1.3-5.3,3.9-5.3
			C331.5,19.3,332.6,21.8,332.6,24.6z M327.3,24.6c0,2.4,0.6,3.5,1.5,3.5s1.4-1.2,1.4-3.5c0-2.3-0.5-3.5-1.5-3.5
			C327.8,21.1,327.2,22.3,327.3,24.6z"/>
		<path class="st16" d="M333.8,29.8v-1.5l1.3-1.2c2.2-2,3.3-3.2,3.4-4.4c0-0.8-0.5-1.5-1.7-1.5c-0.9,0-1.7,0.4-2.2,0.9l-0.7-1.7
			c0.8-0.6,2-1.1,3.4-1.1c2.3,0,3.6,1.4,3.6,3.2c0,1.7-1.3,3.1-2.7,4.4l-1,0.8v0h3.9v2H333.8z"/>
		<path class="st16" d="M350.3,24.6c0,3.2-1.3,5.4-3.9,5.4c-2.7,0-3.8-2.4-3.8-5.3c0-3,1.3-5.3,3.9-5.3
			C349.3,19.3,350.3,21.8,350.3,24.6z M345,24.6c0,2.4,0.6,3.5,1.5,3.5s1.4-1.2,1.4-3.5c0-2.3-0.5-3.5-1.5-3.5
			C345.6,21.1,345,22.3,345,24.6z"/>
	</g>
	<g>
		<path class="st16" d="M473.9,29.8v-1.5l1.3-1.2c2.2-2,3.3-3.2,3.4-4.4c0-0.8-0.5-1.5-1.7-1.5c-0.9,0-1.7,0.4-2.2,0.9l-0.7-1.7
			c0.8-0.6,2-1.1,3.4-1.1c2.3,0,3.6,1.4,3.6,3.2c0,1.7-1.3,3.1-2.7,4.4l-1,0.8v0h3.9v2H473.9z"/>
		<path class="st16" d="M490.5,24.6c0,3.2-1.3,5.4-3.9,5.4c-2.7,0-3.8-2.4-3.8-5.3c0-3,1.3-5.3,3.9-5.3
			C489.4,19.3,490.5,21.8,490.5,24.6z M485.2,24.6c0,2.4,0.6,3.5,1.5,3.5s1.4-1.2,1.4-3.5c0-2.3-0.5-3.5-1.5-3.5
			C485.7,21.1,485.1,22.3,485.2,24.6z"/>
		<path class="st16" d="M494.4,21.6L494.4,21.6l-2,0.9l-0.4-1.8l2.7-1.3h2v10.3h-2.3V21.6z"/>
		<path class="st16" d="M500.3,28c0.3,0,0.6,0,1,0c0.7,0,1.5-0.3,2-0.6c0.7-0.5,1.1-1.1,1.3-1.9l0,0c-0.5,0.5-1.1,0.7-2.1,0.7
			c-1.7,0-3.2-1.2-3.2-3.2c0-2,1.6-3.7,3.9-3.7c2.6,0,3.9,2,3.9,4.4c0,2.1-0.7,3.7-1.8,4.7c-1,0.9-2.3,1.4-3.9,1.4
			c-0.4,0-0.8,0-1.1,0V28z M501.8,22.9c0,0.9,0.5,1.6,1.5,1.6c0.6,0,1.1-0.3,1.3-0.7c0.1-0.1,0.1-0.3,0.1-0.6c0-1.1-0.4-2.2-1.5-2.2
			C502.4,21.1,501.8,21.8,501.8,22.9z"/>
	</g>
	<g>
		<path class="st16" d="M601,29.8l-3.4-10.7h2.6l1.3,4.5c0.4,1.3,0.7,2.5,1,3.8h0c0.3-1.3,0.6-2.5,1-3.8l1.4-4.6h2.6l-3.6,10.7H601z
			"/>
		<path class="st16" d="M611.4,29.8l-0.1-0.8h0c-0.5,0.6-1.3,1-2.2,1c-1.6,0-2.5-1.1-2.5-2.4c0-2,1.8-3,4.5-3v-0.1
			c0-0.4-0.2-1-1.4-1c-0.8,0-1.6,0.3-2.1,0.6l-0.4-1.6c0.5-0.3,1.6-0.7,3-0.7c2.6,0,3.4,1.5,3.4,3.3v2.7c0,0.7,0,1.5,0.1,1.9H611.4z
			 M611.1,26.1c-1.3,0-2.2,0.3-2.2,1.2c0,0.6,0.4,0.9,1,0.9c0.6,0,1.1-0.4,1.3-0.9c0-0.1,0-0.3,0-0.4V26.1z"/>
		<path class="st16" d="M614.4,24.6c0-1.1,0-1.9-0.1-2.5h2.1l0.1,1.4h0.1c0.4-1.1,1.3-1.6,2.1-1.6c0.2,0,0.3,0,0.5,0v2.3
			c-0.2,0-0.4-0.1-0.6-0.1c-0.9,0-1.5,0.5-1.6,1.2c0,0.2,0,0.3,0,0.5v3.9h-2.4V24.6z"/>
		<path class="st16" d="M618.4,28.5c0-0.9,0.6-1.5,1.4-1.5c0.8,0,1.4,0.6,1.4,1.5c0,0.8-0.6,1.5-1.4,1.5
			C619,30,618.4,29.3,618.4,28.5z"/>
	</g>
	<g>
		<path class="st17" d="M367.1,49.7c0,2.2-1.4,3.3-2.9,3.3c-1.6,0-2.8-1.2-2.8-3.1c0-1.8,1.1-3.2,2.9-3.2
			C366.1,46.6,367.1,47.9,367.1,49.7z M363.2,49.8c0,1.1,0.4,1.9,1.1,1.9c0.7,0,1-0.7,1-1.9c0-1-0.3-1.9-1-1.9
			C363.5,47.9,363.2,48.8,363.2,49.8z M364.3,57.3l5.9-10.6h1.3l-5.9,10.6H364.3z M374.5,54c0,2.2-1.4,3.3-2.9,3.3
			c-1.6,0-2.8-1.2-2.8-3.1c0-1.8,1.1-3.2,2.9-3.2C373.5,50.9,374.5,52.2,374.5,54z M370.6,54.1c0,1.1,0.3,1.9,1,1.9
			c0.7,0,1-0.7,1-1.9c0-1-0.3-1.9-1-1.9C370.9,52.2,370.6,53,370.6,54.1z"/>
	</g>
	<g>
		<path class="st17" d="M446.7,58.5V57c-1.1,0-2.1-0.3-2.7-0.7l0.5-1.9c0.7,0.4,1.6,0.7,2.6,0.7c0.9,0,1.5-0.3,1.5-1
			c0-0.6-0.5-1-1.7-1.4c-1.7-0.6-2.9-1.4-2.9-2.9c0-1.4,1-2.5,2.7-2.8v-1.5h1.6v1.4c1.1,0,1.8,0.3,2.3,0.5l-0.5,1.8
			c-0.4-0.2-1.1-0.5-2.3-0.5c-1,0-1.4,0.4-1.4,0.9c0,0.5,0.6,0.9,1.9,1.4c1.9,0.7,2.6,1.5,2.6,3c0,1.4-1,2.6-2.8,2.9v1.6H446.7z"/>
	</g>
	<g>
		<path class="st17" d="M524.4,49.7c0,2.2-1.4,3.3-2.9,3.3c-1.6,0-2.8-1.2-2.8-3.1c0-1.8,1.1-3.2,2.9-3.2
			C523.4,46.6,524.4,47.9,524.4,49.7z M520.5,49.8c0,1.1,0.4,1.9,1.1,1.9c0.7,0,1-0.7,1-1.9c0-1-0.3-1.9-1-1.9
			C520.9,47.9,520.5,48.8,520.5,49.8z M521.7,57.3l5.9-10.6h1.3L523,57.3H521.7z M531.8,54c0,2.2-1.4,3.3-2.9,3.3
			c-1.6,0-2.8-1.2-2.8-3.1c0-1.8,1.1-3.2,2.9-3.2C530.8,50.9,531.8,52.2,531.8,54z M528,54.1c0,1.1,0.3,1.9,1,1.9c0.7,0,1-0.7,1-1.9
			c0-1-0.3-1.9-1-1.9C528.3,52.2,528,53,528,54.1z"/>
	</g>
	<g>
		<path class="st17" d="M604,49.7c0,2.2-1.4,3.3-2.9,3.3c-1.6,0-2.8-1.2-2.8-3.1c0-1.8,1.1-3.2,2.9-3.2C603,46.6,604,47.9,604,49.7z
			 M600.2,49.8c0,1.1,0.4,1.9,1.1,1.9c0.7,0,1-0.7,1-1.9c0-1-0.3-1.9-1-1.9C600.5,47.9,600.2,48.8,600.2,49.8z M601.3,57.3l5.9-10.6
			h1.3l-5.9,10.6H601.3z M611.5,54c0,2.2-1.4,3.3-2.9,3.3c-1.6,0-2.8-1.2-2.8-3.1c0-1.8,1.1-3.2,2.9-3.2
			C610.5,50.9,611.5,52.2,611.5,54z M607.6,54.1c0,1.1,0.3,1.9,1,1.9c0.7,0,1-0.7,1-1.9c0-1-0.3-1.9-1-1.9
			C607.9,52.2,607.6,53,607.6,54.1z"/>
	</g>
	<g>
		<path class="st17" d="M42.6,83.9h-3.5v-0.6h7.7v0.6h-3.5v10h-0.8V83.9z"/>
		<path class="st17" d="M53.6,90.1c0,2.8-1.9,4.1-3.6,4.1c-2,0-3.5-1.5-3.5-3.9c0-2.6,1.7-4,3.6-4C52.2,86.2,53.6,87.8,53.6,90.1z
			 M47.2,90.2c0,1.9,1.2,3.3,2.8,3.3c1.6,0,2.8-1.4,2.8-3.4c0-1.4-0.8-3.3-2.8-3.3C48.1,86.8,47.2,88.6,47.2,90.2z"/>
		<path class="st17" d="M56.6,84.7v1.7h2.2V87h-2.2v4.9c0,1,0.3,1.6,1.1,1.6c0.4,0,0.7,0,0.9-0.1l0.1,0.6c-0.3,0.1-0.6,0.2-1.1,0.2
			c-0.6,0-1-0.2-1.3-0.5c-0.3-0.4-0.5-1-0.5-1.8V87h-1.3v-0.6h1.3V85L56.6,84.7z"/>
		<path class="st17" d="M65.4,92.2c0,0.6,0,1.2,0.1,1.8h-0.7l-0.1-1.1h0c-0.4,0.6-1.2,1.3-2.4,1.3c-1.5,0-2.2-1.1-2.2-2.1
			c0-1.8,1.5-2.8,4.6-2.8v-0.2c0-0.7-0.1-2.2-1.9-2.2c-0.7,0-1.4,0.2-1.9,0.6l-0.2-0.6c0.7-0.5,1.6-0.6,2.2-0.6c2.2,0,2.6,1.6,2.6,3
			V92.2z M64.6,89.9c-1.7,0-3.8,0.2-3.8,2c0,1.1,0.7,1.6,1.5,1.6c1.3,0,2-0.8,2.2-1.5c0.1-0.2,0.1-0.3,0.1-0.5V89.9z"/>
		<path class="st17" d="M67.9,82.7h0.8V94h-0.8V82.7z"/>
		<path class="st17" d="M75.4,88.7c0-0.8,0-1.5-0.1-2.3H76l0,1.5h0c0.3-1,1.1-1.7,2.2-1.7c0.1,0,0.2,0,0.3,0V87c-0.1,0-0.2,0-0.4,0
			c-1,0-1.8,0.9-2,2.1c0,0.2-0.1,0.5-0.1,0.7V94h-0.8V88.7z"/>
		<path class="st17" d="M80.1,90.1c0,2.4,1.3,3.4,2.9,3.4c1.1,0,1.7-0.2,2.1-0.4l0.2,0.6c-0.3,0.2-1.1,0.5-2.4,0.5
			c-2.2,0-3.5-1.6-3.5-3.8c0-2.5,1.5-4.1,3.4-4.1c2.5,0,3,2.3,3,3.4c0,0.2,0,0.3,0,0.5H80.1z M85,89.5c0-1.1-0.4-2.7-2.3-2.7
			c-1.7,0-2.4,1.5-2.6,2.7H85z"/>
		<path class="st17" d="M87.6,86.4l1.8,4.7c0.3,0.7,0.5,1.4,0.7,2h0c0.2-0.6,0.5-1.3,0.8-2l1.8-4.7h0.8L90.4,94h-0.7l-3-7.6H87.6z"
			/>
		<path class="st17" d="M95.1,90.1c0,2.4,1.3,3.4,2.9,3.4c1.1,0,1.7-0.2,2.1-0.4l0.2,0.6c-0.3,0.2-1.1,0.5-2.4,0.5
			c-2.2,0-3.5-1.6-3.5-3.8c0-2.5,1.5-4.1,3.4-4.1c2.5,0,3,2.3,3,3.4c0,0.2,0,0.3,0,0.5H95.1z M99.9,89.5c0-1.1-0.4-2.7-2.3-2.7
			c-1.7,0-2.4,1.5-2.6,2.7H99.9z"/>
		<path class="st17" d="M102.7,88.2c0-0.7,0-1.2-0.1-1.8h0.7l0,1.4h0c0.4-0.9,1.4-1.6,2.6-1.6c0.7,0,2.7,0.4,2.7,3.2V94H108v-4.5
			c0-1.4-0.5-2.6-2.1-2.6c-1.1,0-2,0.8-2.3,1.7c0,0.2-0.1,0.4-0.1,0.7V94h-0.8V88.2z"/>
		<path class="st17" d="M117.1,92.1c0,0.7,0,1.3,0.1,1.9h-0.7l0-1.4h0c-0.4,0.7-1.3,1.5-2.6,1.5c-1,0-2.6-0.5-2.6-3.4v-4.4h0.8v4.3
			c0,1.6,0.5,2.8,2,2.8c1.1,0,1.9-0.8,2.2-1.5c0.1-0.2,0.1-0.5,0.1-0.8v-4.7h0.8V92.1z"/>
		<path class="st17" d="M120,90.1c0,2.4,1.3,3.4,2.9,3.4c1.1,0,1.7-0.2,2.1-0.4l0.2,0.6c-0.3,0.2-1.1,0.5-2.4,0.5
			c-2.2,0-3.5-1.6-3.5-3.8c0-2.5,1.5-4.1,3.4-4.1c2.5,0,3,2.3,3,3.4c0,0.2,0,0.3,0,0.5H120z M124.8,89.5c0-1.1-0.4-2.7-2.3-2.7
			c-1.7,0-2.4,1.5-2.6,2.7H124.8z"/>
		<path class="st17" d="M127.3,93c0.4,0.3,1,0.5,1.7,0.5c1.2,0,1.8-0.6,1.8-1.4c0-0.8-0.5-1.3-1.6-1.7c-1.3-0.5-1.9-1.2-1.9-2.1
			c0-1.1,0.9-2.1,2.3-2.1c0.7,0,1.3,0.2,1.7,0.5l-0.3,0.6c-0.3-0.2-0.8-0.5-1.5-0.5c-1,0-1.5,0.6-1.5,1.3c0,0.8,0.5,1.1,1.6,1.6
			c1.2,0.5,2,1.1,2,2.2c0,1.3-1,2.2-2.6,2.2c-0.7,0-1.4-0.2-1.9-0.5L127.3,93z"/>
	</g>
	<g>
		<path class="st17" d="M293.1,83.7v1.5l-4.2,8.8h-2.5l4.2-8.3v0h-4.7v-2H293.1z"/>
		<path class="st17" d="M302.1,88.8c0,3.2-1.3,5.4-3.9,5.4c-2.7,0-3.8-2.4-3.8-5.3c0-3,1.3-5.3,3.9-5.3
			C301,83.5,302.1,86,302.1,88.8z M296.8,88.8c0,2.4,0.6,3.5,1.5,3.5s1.4-1.2,1.4-3.5c0-2.3-0.5-3.5-1.5-3.5
			C297.3,85.3,296.7,86.5,296.8,88.8z"/>
		<path class="st17" d="M306.1,85.8L306.1,85.8l-2,0.9l-0.4-1.8l2.7-1.3h2V94h-2.3V85.8z"/>
		<path class="st17" d="M311.6,92.7c0-0.9,0.6-1.5,1.4-1.5s1.4,0.6,1.4,1.5c0,0.8-0.6,1.5-1.4,1.5C312.1,94.1,311.6,93.5,311.6,92.7
			z"/>
		<path class="st17" d="M323.1,83.7v1.5l-4.2,8.8h-2.5l4.2-8.3v0h-4.7v-2H323.1z"/>
	</g>
	<g>
		<path class="st17" d="M366.5,85.8L366.5,85.8l-2,0.9l-0.4-1.8l2.7-1.3h2V94h-2.3V85.8z"/>
		<path class="st17" d="M379.4,88.8c0,3.2-1.3,5.4-3.9,5.4c-2.7,0-3.8-2.4-3.8-5.3c0-3,1.3-5.3,3.9-5.3
			C378.3,83.5,379.4,86,379.4,88.8z M374.1,88.8c0,2.4,0.6,3.5,1.5,3.5s1.4-1.2,1.4-3.5c0-2.3-0.5-3.5-1.5-3.5
			C374.7,85.3,374.1,86.5,374.1,88.8z"/>
		<path class="st17" d="M388.7,88.8c0,3.2-1.3,5.4-3.9,5.4c-2.7,0-3.8-2.4-3.8-5.3c0-3,1.3-5.3,3.9-5.3
			C387.6,83.5,388.7,86,388.7,88.8z M383.3,88.8c0,2.4,0.6,3.5,1.5,3.5s1.4-1.2,1.4-3.5c0-2.3-0.5-3.5-1.5-3.5
			C383.9,85.3,383.3,86.5,383.3,88.8z"/>
		<path class="st17" d="M390.1,92.7c0-0.9,0.6-1.5,1.4-1.5c0.8,0,1.4,0.6,1.4,1.5c0,0.8-0.6,1.5-1.4,1.5
			C390.7,94.1,390.1,93.5,390.1,92.7z"/>
		<path class="st17" d="M402,88.8c0,3.2-1.3,5.4-3.9,5.4c-2.7,0-3.8-2.4-3.8-5.3c0-3,1.3-5.3,3.9-5.3C400.9,83.5,402,86,402,88.8z
			 M396.6,88.8c0,2.4,0.6,3.5,1.5,3.5s1.4-1.2,1.4-3.5c0-2.3-0.5-3.5-1.5-3.5C397.2,85.3,396.6,86.5,396.6,88.8z"/>
	</g>
	<g>
		<path class="st17" d="M451.9,84.2c-0.3,0-0.7,0-1.1,0.1c-2.2,0.5-3.5,2.4-3.7,4.4h0c0.5-0.8,1.4-1.4,2.7-1.4
			c1.9,0,3.1,1.4,3.1,3.3c0,1.8-1.1,3.6-3.2,3.6c-1.9,0-3.4-1.5-3.4-4.3c0-2.1,0.7-3.7,1.7-4.7c0.7-0.8,1.8-1.3,2.9-1.5
			c0.4-0.1,0.8-0.1,1-0.1V84.2z M452.1,90.6c0-1.8-1.1-2.7-2.5-2.7c-1,0-1.9,0.6-2.4,1.5c-0.1,0.2-0.2,0.4-0.2,0.6
			c0,2.1,0.9,3.5,2.6,3.5C451.1,93.5,452.1,92.4,452.1,90.6z"/>
		<path class="st17" d="M459.1,94v-3h-4.9v-0.5l5-6.8h0.6v6.6h1.6v0.6h-1.6v3H459.1z M459.1,90.3v-4.2c0-0.5,0-1,0-1.4l0,0
			c-0.3,0.6-0.6,0.9-0.8,1.3l-3.2,4.3v0H459.1z"/>
		<path class="st17" d="M468.4,84.2c-0.3,0-0.7,0-1.1,0.1c-2.2,0.5-3.5,2.4-3.7,4.4h0c0.5-0.8,1.4-1.4,2.7-1.4
			c1.9,0,3.1,1.4,3.1,3.3c0,1.8-1.1,3.6-3.2,3.6c-1.9,0-3.4-1.5-3.4-4.3c0-2.1,0.7-3.7,1.7-4.7c0.7-0.8,1.8-1.3,2.9-1.5
			c0.4-0.1,0.8-0.1,1-0.1V84.2z M468.6,90.6c0-1.8-1.1-2.7-2.5-2.7c-1,0-1.9,0.6-2.4,1.5c-0.1,0.2-0.2,0.4-0.2,0.6
			c0,2.1,0.9,3.5,2.6,3.5C467.6,93.5,468.6,92.4,468.6,90.6z"/>
		<path class="st17" d="M471.1,93.4c0-0.4,0.3-0.7,0.6-0.7s0.6,0.3,0.6,0.7c0,0.4-0.3,0.7-0.7,0.7C471.3,94.1,471.1,93.8,471.1,93.4
			z"/>
		<path class="st17" d="M476.2,88.5c-1.3-0.5-1.7-1.4-1.7-2.3c0-1.6,1.3-2.6,2.9-2.6c1.7,0,2.7,1.2,2.7,2.5c0,0.9-0.4,1.8-1.8,2.5
			v0.1c1.5,0.6,2.2,1.5,2.2,2.7c0,1.7-1.5,2.9-3.2,2.9c-1.8,0-3.2-1.2-3.2-2.7C474.1,90.1,474.9,89.1,476.2,88.5L476.2,88.5z
			 M479.7,91.3c0-1.5-1-2.1-2.6-2.6c-1.5,0.4-2.2,1.4-2.2,2.5c-0.1,1.2,0.9,2.3,2.4,2.3C478.8,93.5,479.7,92.6,479.7,91.3z
			 M475.2,86c0,1.2,0.9,1.9,2.3,2.2c1.1-0.4,1.9-1.1,1.9-2.2c0-0.9-0.6-1.9-2-1.9C476,84.1,475.2,85,475.2,86z"/>
	</g>
	<g>
		<path class="st17" d="M530,84.5L530,84.5l-1.7,1l-0.2-0.6l1.9-1.2h0.7V94H530V84.5z"/>
		<path class="st17" d="M540.4,88.7c0,3.7-1.3,5.5-3.4,5.5c-1.6,0-3.1-1.6-3.1-5.3c0-3.7,1.6-5.4,3.4-5.4
			C539,83.5,540.4,85.1,540.4,88.7z M534.6,88.9c0,2.9,1,4.6,2.5,4.6c1.7,0,2.5-1.9,2.5-4.8c0-2.7-0.7-4.6-2.5-4.6
			C535.7,84.1,534.6,85.8,534.6,88.9z"/>
		<path class="st17" d="M548.5,88.7c0,3.7-1.3,5.5-3.4,5.5c-1.6,0-3.1-1.6-3.1-5.3c0-3.7,1.6-5.4,3.4-5.4
			C547.2,83.5,548.5,85.1,548.5,88.7z M542.8,88.9c0,2.9,1,4.6,2.5,4.6c1.7,0,2.5-1.9,2.5-4.8c0-2.7-0.7-4.6-2.5-4.6
			C543.9,84.1,542.8,85.8,542.8,88.9z"/>
		<path class="st17" d="M550.1,93.4c0-0.4,0.3-0.7,0.6-0.7s0.6,0.3,0.6,0.7c0,0.4-0.3,0.7-0.7,0.7C550.3,94.1,550,93.8,550.1,93.4z"
			/>
		<path class="st17" d="M559.2,88.7c0,3.7-1.3,5.5-3.4,5.5c-1.6,0-3.1-1.6-3.1-5.3c0-3.7,1.6-5.4,3.4-5.4
			C557.9,83.5,559.2,85.1,559.2,88.7z M553.5,88.9c0,2.9,1,4.6,2.5,4.6c1.7,0,2.5-1.9,2.5-4.8c0-2.7-0.7-4.6-2.5-4.6
			C554.6,84.1,553.5,85.8,553.5,88.9z"/>
	</g>
	<g>
		<path class="st17" d="M616.4,91.3c0-1.2,0.7-2.1,1.8-2.6v0c-1-0.5-1.5-1.3-1.5-2.2c0-1.7,1.6-2.9,3.6-2.9c2.4,0,3.4,1.4,3.4,2.6
			c0,0.9-0.5,1.8-1.5,2.3v0c1,0.4,1.9,1.2,1.9,2.6c0,1.9-1.6,3.1-4,3.1C617.6,94.1,616.4,92.7,616.4,91.3z M621.7,91.2
			c0-0.9-0.7-1.4-1.6-1.7c-0.8,0.2-1.3,0.8-1.3,1.5c0,0.7,0.6,1.4,1.5,1.4C621.1,92.5,621.7,91.9,621.7,91.2z M619,86.3
			c0,0.7,0.6,1.1,1.5,1.4c0.6-0.2,1-0.7,1-1.3c0-0.6-0.4-1.3-1.3-1.3C619.4,85.1,619,85.7,619,86.3z"/>
		<path class="st17" d="M625.8,92.7c0-0.9,0.6-1.5,1.4-1.5c0.8,0,1.4,0.6,1.4,1.5c0,0.8-0.6,1.5-1.4,1.5
			C626.4,94.1,625.8,93.5,625.8,92.7z"/>
		<path class="st17" d="M637.2,85.7h-4l-0.2,1.6c0.2,0,0.4,0,0.7,0c1,0,2,0.2,2.7,0.7c0.8,0.5,1.3,1.4,1.3,2.6
			c0,1.9-1.6,3.6-4.4,3.6c-1.3,0-2.3-0.3-2.9-0.6l0.4-1.8c0.5,0.2,1.4,0.5,2.3,0.5c1,0,2.1-0.5,2.1-1.6c0-1.1-0.8-1.7-2.9-1.7
			c-0.6,0-1,0-1.4,0.1l0.7-5.4h5.7V85.7z"/>
	</g>
	<g>
		<path class="st17" d="M48.3,140c-0.5,0.2-1.7,0.6-3.1,0.6c-1.4,0-2.7-0.4-3.8-1.4c-0.9-0.9-1.5-2.3-1.5-4c0-3,1.9-5.5,5.6-5.5
			c1.1,0,2.1,0.3,2.5,0.5l-0.3,0.6c-0.6-0.3-1.3-0.5-2.3-0.5c-2.9,0-4.7,1.9-4.7,4.8c0,3,1.8,4.8,4.6,4.8c1.1,0,1.8-0.2,2.2-0.4
			v-3.8H45v-0.6h3.2V140z"/>
		<path class="st17" d="M50.7,135.1c0-0.8,0-1.5-0.1-2.3h0.7l0,1.5h0c0.3-1,1.1-1.7,2.2-1.7c0.1,0,0.2,0,0.3,0v0.7
			c-0.1,0-0.2,0-0.4,0c-1,0-1.8,0.9-2,2.1c0,0.2-0.1,0.5-0.1,0.7v4.2h-0.8V135.1z"/>
		<path class="st17" d="M61.8,136.5c0,2.8-1.9,4.1-3.6,4.1c-2,0-3.5-1.5-3.5-3.9c0-2.6,1.7-4,3.6-4
			C60.4,132.7,61.8,134.2,61.8,136.5z M55.4,136.6c0,1.9,1.2,3.3,2.8,3.3c1.6,0,2.8-1.4,2.8-3.4c0-1.4-0.8-3.3-2.8-3.3
			C56.3,133.3,55.4,135,55.4,136.6z"/>
		<path class="st17" d="M63.5,139.4c0.4,0.3,1,0.5,1.7,0.5c1.2,0,1.8-0.6,1.8-1.4c0-0.8-0.5-1.3-1.6-1.7c-1.3-0.5-1.9-1.2-1.9-2.1
			c0-1.1,0.9-2.1,2.3-2.1c0.7,0,1.3,0.2,1.7,0.5l-0.3,0.6c-0.3-0.2-0.8-0.5-1.5-0.5c-1,0-1.5,0.6-1.5,1.3c0,0.8,0.5,1.1,1.6,1.6
			c1.2,0.5,2,1.1,2,2.2c0,1.3-1,2.2-2.6,2.2c-0.7,0-1.4-0.2-1.9-0.5L63.5,139.4z"/>
		<path class="st17" d="M69.4,139.4c0.4,0.3,1,0.5,1.7,0.5c1.2,0,1.8-0.6,1.8-1.4c0-0.8-0.5-1.3-1.6-1.7c-1.3-0.5-1.9-1.2-1.9-2.1
			c0-1.1,0.9-2.1,2.3-2.1c0.7,0,1.3,0.2,1.7,0.5l-0.3,0.6c-0.3-0.2-0.8-0.5-1.5-0.5c-1,0-1.5,0.6-1.5,1.3c0,0.8,0.5,1.1,1.6,1.6
			c1.2,0.5,2,1.1,2,2.2c0,1.3-1,2.2-2.6,2.2c-0.7,0-1.4-0.2-1.9-0.5L69.4,139.4z"/>
		<path class="st17" d="M79.7,135.2c0-1,0-1.7-0.1-2.4h0.7l0,1.4h0c0.6-1,1.5-1.6,2.8-1.6c2,0,3.3,1.6,3.3,3.8
			c0,2.7-1.6,4.1-3.5,4.1c-1.1,0-2.1-0.5-2.6-1.4h0v4.4h-0.8V135.2z M80.5,137.4c0,0.2,0,0.4,0.1,0.6c0.3,1.2,1.3,1.9,2.5,1.9
			c1.7,0,2.7-1.4,2.7-3.4c0-1.7-1-3.2-2.7-3.2c-1.1,0-2.2,0.8-2.5,2c0,0.2-0.1,0.4-0.1,0.6V137.4z"/>
		<path class="st17" d="M88.7,135.1c0-0.8,0-1.5-0.1-2.3h0.7l0,1.5h0c0.3-1,1.1-1.7,2.2-1.7c0.1,0,0.2,0,0.3,0v0.7
			c-0.1,0-0.2,0-0.4,0c-1,0-1.8,0.9-2,2.1c0,0.2-0.1,0.5-0.1,0.7v4.2h-0.8V135.1z"/>
		<path class="st17" d="M99.8,136.5c0,2.8-1.9,4.1-3.6,4.1c-2,0-3.5-1.5-3.5-3.9c0-2.6,1.7-4,3.6-4
			C98.4,132.7,99.8,134.2,99.8,136.5z M93.4,136.6c0,1.9,1.2,3.3,2.8,3.3c1.6,0,2.8-1.4,2.8-3.4c0-1.4-0.8-3.3-2.8-3.3
			C94.3,133.3,93.4,135,93.4,136.6z"/>
		<path class="st17" d="M102,140.4v-7h-1.1v-0.6h1.1v-0.5c0-1.9,0.9-3.3,2.9-3.3c0.6,0,1.4,0.2,1.7,0.5l-0.3,0.6
			c-0.3-0.3-0.9-0.5-1.5-0.5c-1.6,0-2,1.3-2,2.7v0.4h4.3v7.6h-0.8v-7h-3.5v7H102z"/>
		<path class="st17" d="M110.8,131.1v1.7h2.2v0.6h-2.2v4.9c0,1,0.3,1.6,1.1,1.6c0.4,0,0.7,0,0.9-0.1l0.1,0.6
			c-0.3,0.1-0.6,0.2-1.1,0.2c-0.6,0-1-0.2-1.3-0.5c-0.3-0.4-0.5-1-0.5-1.8v-4.8h-1.3v-0.6h1.3v-1.4L110.8,131.1z"/>
	</g>
	<g>
		<path class="st17" d="M287.7,132.3L287.7,132.3l-2,0.9l-0.4-1.8l2.7-1.3h2v10.3h-2.3V132.3z"/>
		<path class="st17" d="M299.5,131.8c-0.3,0-0.6,0-0.9,0c-2.1,0.2-3.1,1.3-3.4,2.5h0c0.5-0.5,1.2-0.8,2.2-0.8c1.7,0,3.2,1.2,3.2,3.4
			c0,2-1.6,3.7-3.8,3.7c-2.7,0-4.1-2-4.1-4.5c0-1.9,0.7-3.5,1.8-4.6c1-0.9,2.4-1.4,4-1.5c0.4,0,0.7,0,1,0V131.8z M298.2,137
			c0-1-0.5-1.8-1.5-1.8c-0.6,0-1.2,0.4-1.4,0.9c-0.1,0.1-0.1,0.3-0.1,0.6c0,1.1,0.6,2.1,1.7,2.1C297.7,138.8,298.2,138.1,298.2,137z
			"/>
		<path class="st17" d="M301.9,140.4V139l1.3-1.2c2.2-2,3.3-3.2,3.4-4.4c0-0.8-0.5-1.5-1.7-1.5c-0.9,0-1.7,0.4-2.2,0.9L302,131
			c0.8-0.6,2-1.1,3.4-1.1c2.3,0,3.6,1.4,3.6,3.2c0,1.7-1.3,3.1-2.7,4.4l-1,0.8v0h3.9v2H301.9z"/>
		<path class="st17" d="M311.3,139.1c0-0.9,0.6-1.5,1.4-1.5s1.4,0.6,1.4,1.5c0,0.8-0.6,1.5-1.4,1.5
			C311.9,140.6,311.3,140,311.3,139.1z"/>
		<path class="st17" d="M323.3,135.2c0,3.2-1.3,5.4-3.9,5.4c-2.7,0-3.8-2.4-3.8-5.3c0-3,1.3-5.3,3.9-5.3
			C322.2,130,323.3,132.4,323.3,135.2z M318,135.3c0,2.4,0.6,3.5,1.5,3.5s1.4-1.2,1.4-3.5c0-2.3-0.5-3.5-1.5-3.5
			C318.6,131.8,318,132.9,318,135.3z"/>
	</g>
	<g>
		<path class="st17" d="M373.2,140.4V139l1.3-1.2c2.2-2,3.3-3.2,3.4-4.4c0-0.8-0.5-1.5-1.7-1.5c-0.9,0-1.7,0.4-2.2,0.9l-0.7-1.7
			c0.8-0.6,2-1.1,3.4-1.1c2.3,0,3.6,1.4,3.6,3.2c0,1.7-1.3,3.1-2.7,4.4l-1,0.8v0h3.9v2H373.2z"/>
		<path class="st17" d="M382.6,138.1c0.4,0.2,1.4,0.6,2.4,0.6c1.3,0,1.9-0.6,1.9-1.4c0-1-1-1.5-2.1-1.5h-1v-1.7h0.9
			c0.8,0,1.8-0.3,1.8-1.2c0-0.6-0.5-1.1-1.5-1.1c-0.8,0-1.7,0.4-2.2,0.6l-0.5-1.7c0.6-0.4,1.9-0.8,3.2-0.8c2.2,0,3.4,1.2,3.4,2.6
			c0,1.1-0.6,1.9-1.9,2.4v0c1.2,0.2,2.2,1.2,2.2,2.5c0,1.8-1.6,3.2-4.2,3.2c-1.3,0-2.5-0.3-3.1-0.7L382.6,138.1z"/>
		<path class="st17" d="M391.2,139.1c0-0.9,0.6-1.5,1.4-1.5c0.8,0,1.4,0.6,1.4,1.5c0,0.8-0.6,1.5-1.4,1.5
			C391.8,140.6,391.2,140,391.2,139.1z"/>
		<path class="st17" d="M397.4,132.3L397.4,132.3l-2,0.9l-0.4-1.8l2.7-1.3h2v10.3h-2.3V132.3z"/>
	</g>
	<g>
		<path class="st17" d="M452,130.9L452,130.9l-1.7,1l-0.2-0.6l1.9-1.2h0.7v10.3H452V130.9z"/>
		<path class="st17" d="M460.3,140.4v-3h-4.9v-0.5l5-6.8h0.6v6.6h1.6v0.6h-1.6v3H460.3z M460.3,136.8v-4.2c0-0.5,0-1,0-1.4l0,0
			c-0.3,0.6-0.6,0.9-0.8,1.3l-3.2,4.3v0H460.3z"/>
		<path class="st17" d="M466.2,134.9c-1.3-0.5-1.7-1.4-1.7-2.3c0-1.6,1.3-2.6,2.9-2.6c1.7,0,2.7,1.2,2.7,2.5c0,0.9-0.4,1.8-1.8,2.5
			v0.1c1.5,0.6,2.2,1.5,2.2,2.7c0,1.7-1.5,2.9-3.2,2.9c-1.8,0-3.2-1.2-3.2-2.7C464.1,136.5,464.9,135.6,466.2,134.9L466.2,134.9z
			 M469.8,137.8c0-1.5-1-2.1-2.6-2.6c-1.5,0.4-2.2,1.4-2.2,2.5c-0.1,1.2,0.9,2.3,2.4,2.3C468.8,140,469.8,139,469.8,137.8z
			 M465.2,132.5c0,1.2,0.9,1.9,2.3,2.2c1.1-0.4,1.9-1.1,1.9-2.2c0-0.9-0.6-1.9-2-1.9C466,130.6,465.2,131.5,465.2,132.5z"/>
		<path class="st17" d="M472.4,139.9c0-0.4,0.3-0.7,0.6-0.7s0.6,0.3,0.6,0.7c0,0.4-0.3,0.7-0.7,0.7
			C472.6,140.6,472.3,140.3,472.4,139.9z"/>
		<path class="st17" d="M477.2,130.9L477.2,130.9l-1.7,1l-0.2-0.6l1.9-1.2h0.7v10.3h-0.7V130.9z"/>
	</g>
	<g>
		<path class="st17" d="M534.8,140.4V140l1-1c2.9-2.8,4.1-4.2,4.1-6c0-1.2-0.5-2.3-2.2-2.3c-1,0-1.7,0.5-2.2,0.9l-0.3-0.5
			c0.7-0.6,1.6-1,2.6-1c2.1,0,2.9,1.6,2.9,2.8c0,2-1.5,3.7-4.1,6.2l-0.7,0.7v0h5.1v0.6H534.8z"/>
		<path class="st17" d="M542.6,140.4V140l1-1c2.9-2.8,4.1-4.2,4.1-6c0-1.2-0.5-2.3-2.2-2.3c-1,0-1.7,0.5-2.2,0.9l-0.3-0.5
			c0.7-0.6,1.6-1,2.6-1c2.1,0,2.9,1.6,2.9,2.8c0,2-1.5,3.7-4.1,6.2l-0.7,0.7v0h5.1v0.6H542.6z"/>
		<path class="st17" d="M550.5,139.9c0-0.4,0.3-0.7,0.6-0.7s0.6,0.3,0.6,0.7c0,0.4-0.3,0.7-0.7,0.7
			C550.7,140.6,550.4,140.3,550.5,139.9z"/>
		<path class="st17" d="M553.7,139.9c0.3,0,0.7,0,1.2-0.1c0.8-0.1,1.6-0.5,2.2-1.2c0.7-0.7,1.2-1.8,1.4-3.3l0,0
			c-0.6,0.8-1.6,1.3-2.7,1.3c-1.9,0-2.9-1.5-2.9-3.1c0-1.9,1.3-3.6,3.3-3.6c1.8,0,3.1,1.5,3.1,4.3c0,2.3-0.8,3.9-1.8,4.9
			c-0.7,0.7-1.6,1.2-2.4,1.3c-0.6,0.1-1,0.2-1.4,0.1V139.9z M553.6,133.5c0,1.5,1,2.5,2.3,2.5c1.1,0,2-0.6,2.5-1.3
			c0.1-0.1,0.1-0.3,0.1-0.5c0-2.2-0.8-3.7-2.5-3.7C554.6,130.6,553.6,131.8,553.6,133.5z"/>
	</g>
	<g>
		<path class="st17" d="M618,138.7c0.3,0,0.6,0,1,0c0.7,0,1.5-0.3,2-0.6c0.7-0.5,1.1-1.1,1.3-1.9l0,0c-0.5,0.5-1.1,0.7-2.1,0.7
			c-1.7,0-3.2-1.2-3.2-3.2c0-2,1.6-3.7,3.9-3.7c2.6,0,3.9,2,3.9,4.4c0,2.1-0.7,3.7-1.8,4.7c-1,0.9-2.3,1.4-3.9,1.4
			c-0.4,0-0.8,0-1.1,0V138.7z M619.5,133.5c0,0.9,0.5,1.6,1.5,1.6c0.6,0,1.1-0.3,1.3-0.7c0.1-0.1,0.1-0.3,0.1-0.6
			c0-1.1-0.4-2.2-1.5-2.2C620.1,131.7,619.5,132.4,619.5,133.5z"/>
		<path class="st17" d="M626,139.1c0-0.9,0.6-1.5,1.4-1.5c0.8,0,1.4,0.6,1.4,1.5c0,0.8-0.6,1.5-1.4,1.5
			C626.6,140.6,626,140,626,139.1z"/>
		<path class="st17" d="M634.7,140.4V138h-4.6v-1.6l3.9-6.3h2.9v6h1.2v1.8h-1.2v2.5H634.7z M634.7,136.2v-2.3c0-0.6,0-1.3,0.1-1.9
			h-0.1c-0.3,0.7-0.6,1.3-1,1.9l-1.4,2.2v0H634.7z"/>
	</g>
	<g>
		<path class="st17" d="M40.3,185.7c0.6,0.4,1.4,0.7,2.3,0.7c1.6,0,2.6-0.9,2.6-2.2c0-1.2-0.6-1.9-2.2-2.5c-1.7-0.6-2.7-1.5-2.7-2.9
			c0-1.6,1.3-2.7,3.1-2.7c1,0,1.8,0.3,2.1,0.5l-0.3,0.6c-0.3-0.2-1-0.5-1.9-0.5c-1.7,0-2.3,1.1-2.3,1.9c0,1.2,0.7,1.8,2.2,2.4
			c1.8,0.7,2.7,1.5,2.7,3.1c0,1.6-1.1,2.9-3.4,2.9c-0.9,0-2-0.3-2.6-0.7L40.3,185.7z"/>
		<path class="st17" d="M55.7,186.4c-0.5,0.2-1.7,0.6-3.1,0.6c-1.4,0-2.7-0.4-3.8-1.4c-0.9-0.9-1.5-2.3-1.5-4c0-3,1.9-5.5,5.6-5.5
			c1.1,0,2.1,0.3,2.5,0.5l-0.3,0.6c-0.6-0.3-1.3-0.5-2.3-0.5c-2.9,0-4.7,1.9-4.7,4.8c0,3,1.8,4.8,4.6,4.8c1.1,0,1.8-0.2,2.2-0.4
			v-3.8h-2.5v-0.6h3.2V186.4z"/>
		<path class="st17" d="M64.8,186.9c-0.3-0.3-0.7-0.7-1.2-1.2c-1.1,1-2.1,1.4-3.2,1.4c-1.8,0-3-1.3-3-3c0-1.5,0.9-2.5,2.1-3.2v0
			c-0.6-0.8-0.9-1.6-0.9-2.3c0-1.3,0.9-2.5,2.4-2.5c1.1,0,2,0.8,2,2.1c0,1.1-0.7,2-2.5,2.9v0c1.1,1.3,2.3,2.7,3.1,3.6
			c0.5-0.8,0.9-1.9,1.1-3.4h0.7c-0.3,1.7-0.7,3-1.4,3.9c0.6,0.6,1.1,1.1,1.7,1.8H64.8z M63.2,185.2c-0.6-0.7-2-2.2-3.4-3.8
			c-0.7,0.4-1.7,1.2-1.7,2.6c0,1.4,1,2.5,2.5,2.5C61.6,186.4,62.5,185.9,63.2,185.2z M59.2,178.5c0,0.9,0.4,1.6,0.9,2.2
			c1.3-0.7,2.2-1.3,2.2-2.4c0-0.8-0.4-1.6-1.5-1.6C59.8,176.6,59.2,177.5,59.2,178.5z"/>
		<path class="st17" d="M68.9,183.1l-1.3,3.7h-0.8l3.9-10.7h0.7l3.8,10.7h-0.8l-1.3-3.7H68.9z M72.9,182.5l-1.3-3.6
			c-0.3-0.7-0.4-1.3-0.6-1.9h0c-0.1,0.6-0.3,1.2-0.6,1.9l-1.3,3.6H72.9z"/>
	</g>
	<g>
		<path class="st17" d="M287.9,178.7L287.9,178.7l-2,0.9l-0.4-1.8l2.7-1.3h2v10.3h-2.3V178.7z"/>
		<path class="st17" d="M300.8,181.7c0,3.2-1.3,5.4-3.9,5.4c-2.7,0-3.8-2.4-3.8-5.3c0-3,1.3-5.3,3.9-5.3
			C299.7,176.4,300.8,178.9,300.8,181.7z M295.5,181.8c0,2.4,0.6,3.5,1.5,3.5s1.4-1.2,1.4-3.5c0-2.3-0.5-3.5-1.5-3.5
			C296.1,178.2,295.5,179.4,295.5,181.8z"/>
		<path class="st17" d="M309.1,178.6h-4l-0.2,1.6c0.2,0,0.4,0,0.7,0c1,0,2,0.2,2.7,0.7c0.8,0.5,1.3,1.4,1.3,2.6
			c0,1.9-1.6,3.6-4.4,3.6c-1.3,0-2.3-0.3-2.9-0.6l0.4-1.8c0.5,0.2,1.4,0.5,2.3,0.5c1,0,2.1-0.5,2.1-1.6c0-1.1-0.8-1.7-2.9-1.7
			c-0.6,0-1,0-1.4,0.1l0.7-5.4h5.7V178.6z"/>
		<path class="st17" d="M311.3,185.6c0-0.9,0.6-1.5,1.4-1.5s1.4,0.6,1.4,1.5c0,0.8-0.6,1.5-1.4,1.5
			C311.9,187.1,311.3,186.4,311.3,185.6z"/>
		<path class="st17" d="M323.3,181.7c0,3.2-1.3,5.4-3.9,5.4c-2.7,0-3.8-2.4-3.8-5.3c0-3,1.3-5.3,3.9-5.3
			C322.2,176.4,323.3,178.9,323.3,181.7z M318,181.8c0,2.4,0.6,3.5,1.5,3.5s1.4-1.2,1.4-3.5c0-2.3-0.5-3.5-1.5-3.5
			C318.6,178.2,318,179.4,318,181.8z"/>
	</g>
	<g>
		<path class="st17" d="M376,178.7L376,178.7l-2,0.9l-0.4-1.8l2.7-1.3h2v10.3H376V178.7z"/>
		<path class="st17" d="M387.9,178.6h-4l-0.2,1.6c0.2,0,0.4,0,0.7,0c1,0,2,0.2,2.7,0.7c0.8,0.5,1.3,1.4,1.3,2.6
			c0,1.9-1.6,3.6-4.4,3.6c-1.3,0-2.3-0.3-2.9-0.6l0.4-1.8c0.5,0.2,1.4,0.5,2.3,0.5c1,0,2.1-0.5,2.1-1.6c0-1.1-0.8-1.7-2.9-1.7
			c-0.6,0-1,0-1.4,0.1l0.7-5.4h5.7V178.6z"/>
		<path class="st17" d="M390.1,185.6c0-0.9,0.6-1.5,1.4-1.5c0.8,0,1.4,0.6,1.4,1.5c0,0.8-0.6,1.5-1.4,1.5
			C390.7,187.1,390.1,186.4,390.1,185.6z"/>
		<path class="st17" d="M402,181.7c0,3.2-1.3,5.4-3.9,5.4c-2.7,0-3.8-2.4-3.8-5.3c0-3,1.3-5.3,3.9-5.3
			C400.9,176.4,402,178.9,402,181.7z M396.6,181.8c0,2.4,0.6,3.5,1.5,3.5s1.4-1.2,1.4-3.5c0-2.3-0.5-3.5-1.5-3.5
			C397.2,178.2,396.6,179.4,396.6,181.8z"/>
	</g>
	<g>
		<path class="st17" d="M456.2,186.4c0.3,0,0.7,0,1.2-0.1c0.8-0.1,1.6-0.5,2.2-1.2c0.7-0.7,1.2-1.8,1.4-3.3l0,0
			c-0.6,0.8-1.6,1.3-2.7,1.3c-1.9,0-2.9-1.5-2.9-3.1c0-1.9,1.3-3.6,3.3-3.6c1.8,0,3.1,1.5,3.1,4.3c0,2.3-0.8,3.9-1.8,4.9
			c-0.7,0.7-1.6,1.2-2.4,1.3c-0.6,0.1-1,0.2-1.4,0.1V186.4z M456.1,180c0,1.5,1,2.5,2.3,2.5c1.1,0,2-0.6,2.5-1.3
			c0.1-0.1,0.1-0.3,0.1-0.5c0-2.2-0.8-3.7-2.5-3.7C457.1,177,456.1,178.3,456.1,180z"/>
		<path class="st17" d="M467.8,186.9v-3h-4.9v-0.5l5-6.8h0.6v6.6h1.6v0.6h-1.6v3H467.8z M467.8,183.2v-4.2c0-0.5,0-1,0-1.4l0,0
			c-0.3,0.6-0.6,0.9-0.8,1.3l-3.2,4.3v0H467.8z"/>
		<path class="st17" d="M471.4,186.3c0-0.4,0.3-0.7,0.6-0.7s0.6,0.3,0.6,0.7c0,0.4-0.3,0.7-0.7,0.7
			C471.7,187.1,471.4,186.7,471.4,186.3z"/>
		<path class="st17" d="M478.5,186.9v-3h-4.9v-0.5l5-6.8h0.6v6.6h1.6v0.6h-1.6v3H478.5z M478.5,183.2v-4.2c0-0.5,0-1,0-1.4l0,0
			c-0.3,0.6-0.6,0.9-0.8,1.3l-3.2,4.3v0H478.5z"/>
	</g>
	<g>
		<path class="st17" d="M538.2,177.4L538.2,177.4l-1.7,1l-0.2-0.6l1.9-1.2h0.7v10.3h-0.7V177.4z"/>
		<path class="st17" d="M546.5,186.9v-3h-4.9v-0.5l5-6.8h0.6v6.6h1.6v0.6h-1.6v3H546.5z M546.5,183.2v-4.2c0-0.5,0-1,0-1.4l0,0
			c-0.3,0.6-0.6,0.9-0.8,1.3l-3.2,4.3v0H546.5z"/>
		<path class="st17" d="M550,186.3c0-0.4,0.3-0.7,0.6-0.7s0.6,0.3,0.6,0.7c0,0.4-0.3,0.7-0.7,0.7C550.3,187.1,550,186.7,550,186.3z"
			/>
		<path class="st17" d="M558.3,177.1c-0.3,0-0.7,0-1.1,0.1c-2.2,0.5-3.5,2.4-3.7,4.4h0c0.5-0.8,1.4-1.4,2.7-1.4
			c1.9,0,3.1,1.4,3.1,3.3c0,1.8-1.1,3.6-3.2,3.6c-1.9,0-3.4-1.5-3.4-4.3c0-2.1,0.7-3.7,1.7-4.7c0.7-0.8,1.8-1.3,2.9-1.5
			c0.4-0.1,0.8-0.1,1-0.1V177.1z M558.5,183.5c0-1.8-1.1-2.7-2.5-2.7c-1,0-1.9,0.6-2.4,1.5c-0.1,0.2-0.2,0.4-0.2,0.6
			c0,2.1,0.9,3.5,2.6,3.5C557.5,186.4,558.5,185.3,558.5,183.5z"/>
	</g>
	<g>
		<path class="st17" d="M612.8,178.7L612.8,178.7l-2,0.9l-0.4-1.8l2.7-1.3h2v10.3h-2.3V178.7z"/>
		<path class="st17" d="M620.4,178.7L620.4,178.7l-2,0.9l-0.4-1.8l2.7-1.3h2v10.3h-2.3V178.7z"/>
		<path class="st17" d="M625.8,185.6c0-0.9,0.6-1.5,1.4-1.5c0.8,0,1.4,0.6,1.4,1.5c0,0.8-0.6,1.5-1.4,1.5
			C626.4,187.1,625.8,186.4,625.8,185.6z"/>
		<path class="st17" d="M630.4,186.9v-1.5l1.3-1.2c2.2-2,3.3-3.2,3.4-4.4c0-0.8-0.5-1.5-1.7-1.5c-0.9,0-1.7,0.4-2.2,0.9l-0.7-1.7
			c0.8-0.6,2-1.1,3.4-1.1c2.3,0,3.6,1.4,3.6,3.2c0,1.7-1.3,3.1-2.7,4.4l-1,0.8v0h3.9v2H630.4z"/>
	</g>
	<g>
		<path class="st17" d="M49.4,227.9c0,3.8-2.3,5.6-4.8,5.6c-2.6,0-4.7-2.1-4.7-5.4c0-3.5,2.1-5.6,4.8-5.6
			C47.4,222.5,49.4,224.6,49.4,227.9z M40.7,228.1c0,2.4,1.4,4.8,3.9,4.8s3.9-2.3,3.9-4.9c0-2.3-1.2-4.8-3.9-4.8
			C42,223.1,40.7,225.6,40.7,228.1z"/>
		<path class="st17" d="M52.7,224.1v1.7h2.2v0.6h-2.2v4.9c0,1,0.3,1.6,1.1,1.6c0.4,0,0.7,0,0.9-0.1l0.1,0.6
			c-0.3,0.1-0.6,0.2-1.1,0.2c-0.6,0-1-0.2-1.3-0.5c-0.3-0.4-0.5-1-0.5-1.8v-4.8h-1.3v-0.6H52v-1.4L52.7,224.1z"/>
		<path class="st17" d="M56.7,222.1h0.8v5h0c0.2-0.4,0.6-0.8,1-1.1c0.4-0.3,1-0.4,1.5-0.4c0.7,0,2.6,0.4,2.6,3.2v4.6h-0.8v-4.5
			c0-1.4-0.5-2.6-2.1-2.6c-1.1,0-2,0.8-2.3,1.7c-0.1,0.2-0.1,0.4-0.1,0.8v4.6h-0.8V222.1z"/>
		<path class="st17" d="M65.5,229.5c0,2.4,1.3,3.4,2.9,3.4c1.1,0,1.7-0.2,2.1-0.4l0.2,0.6c-0.3,0.2-1.1,0.5-2.4,0.5
			c-2.2,0-3.5-1.6-3.5-3.8c0-2.5,1.5-4.1,3.4-4.1c2.5,0,3,2.3,3,3.4c0,0.2,0,0.3,0,0.5H65.5z M70.3,228.9c0-1.1-0.4-2.7-2.3-2.7
			c-1.7,0-2.4,1.5-2.6,2.7H70.3z"/>
		<path class="st17" d="M73.1,228c0-0.8,0-1.5-0.1-2.3h0.7l0,1.5h0c0.3-1,1.1-1.7,2.2-1.7c0.1,0,0.2,0,0.3,0v0.7c-0.1,0-0.2,0-0.4,0
			c-1,0-1.8,0.9-2,2.1c0,0.2-0.1,0.5-0.1,0.7v4.2h-0.8V228z"/>
		<path class="st17" d="M82.9,223.6c0,0.3-0.2,0.6-0.6,0.6c-0.3,0-0.6-0.3-0.6-0.6s0.3-0.7,0.6-0.7S82.9,223.2,82.9,223.6z
			 M81.9,233.3v-7.6h0.8v7.6H81.9z"/>
		<path class="st17" d="M85.3,227.6c0-0.7,0-1.2-0.1-1.8h0.7l0,1.4h0c0.4-0.9,1.4-1.6,2.6-1.6c0.7,0,2.7,0.4,2.7,3.2v4.6h-0.8v-4.5
			c0-1.4-0.5-2.6-2.1-2.6c-1.1,0-2,0.8-2.3,1.7c0,0.2-0.1,0.4-0.1,0.7v4.7h-0.8V227.6z"/>
		<path class="st17" d="M99.2,233c-0.3,0.2-1.1,0.5-2.2,0.5c-2.2,0-3.6-1.6-3.6-3.9c0-2.4,1.6-4.1,3.9-4.1c0.9,0,1.7,0.3,2,0.5
			l-0.3,0.6c-0.4-0.2-1-0.4-1.8-0.4c-2,0-3.1,1.6-3.1,3.3c0,2,1.3,3.3,3,3.3c0.9,0,1.5-0.3,1.9-0.4L99.2,233z"/>
		<path class="st17" d="M107.4,229.5c0,2.8-1.9,4.1-3.6,4.1c-2,0-3.5-1.5-3.5-3.9c0-2.6,1.7-4,3.6-4
			C105.9,225.6,107.4,227.1,107.4,229.5z M101,229.5c0,1.9,1.2,3.3,2.8,3.3c1.6,0,2.8-1.4,2.8-3.4c0-1.4-0.8-3.3-2.8-3.3
			C101.9,226.2,101,227.9,101,229.5z"/>
		<path class="st17" d="M109.4,227.6c0-0.7,0-1.2-0.1-1.8h0.7l0,1.3h0c0.5-0.9,1.2-1.5,2.5-1.5c1,0,1.9,0.7,2.2,1.7h0
			c0.2-0.5,0.5-0.8,0.8-1c0.5-0.4,1-0.6,1.8-0.6c0.7,0,2.5,0.4,2.5,3.3v4.5h-0.8v-4.4c0-1.7-0.7-2.7-2-2.7c-1,0-1.7,0.7-2,1.5
			c-0.1,0.2-0.1,0.5-0.1,0.7v4.9h-0.8v-4.8c0-1.4-0.6-2.4-1.9-2.4c-1,0-1.8,0.8-2.1,1.7c-0.1,0.2-0.1,0.5-0.1,0.7v4.7h-0.8V227.6z"
			/>
		<path class="st17" d="M122.8,229.5c0,2.4,1.3,3.4,2.9,3.4c1.1,0,1.7-0.2,2.1-0.4l0.2,0.6c-0.3,0.2-1.1,0.5-2.4,0.5
			c-2.2,0-3.5-1.6-3.5-3.8c0-2.5,1.5-4.1,3.4-4.1c2.5,0,3,2.3,3,3.4c0,0.2,0,0.3,0,0.5H122.8z M127.6,228.9c0-1.1-0.4-2.7-2.3-2.7
			c-1.7,0-2.4,1.5-2.6,2.7H127.6z"/>
		<path class="st17" d="M129.3,235.3c0.3-0.7,0.7-2.4,0.8-3.4l1-0.2c-0.3,1.2-1,3-1.2,3.4L129.3,235.3z"/>
		<path class="st17" d="M137.1,227.6c0-0.7,0-1.2-0.1-1.8h0.7l0,1.4h0c0.4-0.9,1.4-1.6,2.6-1.6c0.7,0,2.7,0.4,2.7,3.2v4.6h-0.8v-4.5
			c0-1.4-0.5-2.6-2.1-2.6c-1.1,0-2,0.8-2.3,1.7c0,0.2-0.1,0.4-0.1,0.7v4.7h-0.8V227.6z"/>
		<path class="st17" d="M145.9,229.5c0,2.4,1.3,3.4,2.9,3.4c1.1,0,1.7-0.2,2.1-0.4l0.2,0.6c-0.3,0.2-1.1,0.5-2.4,0.5
			c-2.2,0-3.5-1.6-3.5-3.8c0-2.5,1.5-4.1,3.4-4.1c2.5,0,3,2.3,3,3.4c0,0.2,0,0.3,0,0.5H145.9z M150.7,228.9c0-1.1-0.4-2.7-2.3-2.7
			c-1.7,0-2.4,1.5-2.6,2.7H150.7z"/>
		<path class="st17" d="M154.6,224.1v1.7h2.2v0.6h-2.2v4.9c0,1,0.3,1.6,1.1,1.6c0.4,0,0.7,0,0.9-0.1l0.1,0.6
			c-0.3,0.1-0.6,0.2-1.1,0.2c-0.6,0-1-0.2-1.3-0.5c-0.3-0.4-0.5-1-0.5-1.8v-4.8h-1.3v-0.6h1.3v-1.4L154.6,224.1z"/>
	</g>
	<g>
		<path class="st17" d="M309.7,228.1c0,3.2-1.3,5.4-3.9,5.4c-2.7,0-3.8-2.4-3.8-5.3c0-3,1.3-5.3,3.9-5.3
			C308.6,222.9,309.7,225.3,309.7,228.1z M304.4,228.2c0,2.4,0.6,3.5,1.5,3.5s1.4-1.2,1.4-3.5c0-2.3-0.5-3.5-1.5-3.5
			C305,224.7,304.4,225.8,304.4,228.2z"/>
		<path class="st17" d="M311.3,232.1c0-0.9,0.6-1.5,1.4-1.5s1.4,0.6,1.4,1.5c0,0.8-0.6,1.5-1.4,1.5
			C311.8,233.5,311.3,232.9,311.3,232.1z"/>
		<path class="st17" d="M320,233.3v-2.5h-4.6v-1.6l3.9-6.3h2.9v6h1.2v1.8h-1.2v2.5H320z M320,229.1v-2.3c0-0.6,0-1.3,0.1-1.9H320
			c-0.3,0.7-0.6,1.3-1,1.9l-1.4,2.2v0H320z"/>
	</g>
	<g>
		<path class="st17" d="M389.8,228.1c0,3.2-1.3,5.4-3.9,5.4c-2.7,0-3.8-2.4-3.8-5.3c0-3,1.3-5.3,3.9-5.3
			C388.7,222.9,389.8,225.3,389.8,228.1z M384.4,228.2c0,2.4,0.6,3.5,1.5,3.5s1.4-1.2,1.4-3.5c0-2.3-0.5-3.5-1.5-3.5
			C385,224.7,384.4,225.8,384.4,228.2z"/>
		<path class="st17" d="M391.2,232.1c0-0.9,0.6-1.5,1.4-1.5c0.8,0,1.4,0.6,1.4,1.5c0,0.8-0.6,1.5-1.4,1.5
			C391.8,233.5,391.2,232.9,391.2,232.1z"/>
		<path class="st17" d="M397.5,225.2L397.5,225.2l-2,0.9l-0.4-1.8l2.7-1.3h2v10.3h-2.3V225.2z"/>
	</g>
	<g>
		<path class="st17" d="M469.9,228c0,3.7-1.3,5.5-3.4,5.5c-1.6,0-3.1-1.6-3.1-5.3c0-3.7,1.6-5.4,3.4-5.4
			C468.5,222.9,469.9,224.5,469.9,228z M464.1,228.3c0,2.9,1,4.6,2.5,4.6c1.7,0,2.5-1.9,2.5-4.8c0-2.7-0.7-4.6-2.5-4.6
			C465.2,223.5,464.1,225.2,464.1,228.3z"/>
		<path class="st17" d="M471.5,232.8c0-0.4,0.3-0.7,0.6-0.7s0.6,0.3,0.6,0.7c0,0.4-0.3,0.7-0.7,0.7
			C471.7,233.5,471.5,233.2,471.5,232.8z"/>
		<path class="st17" d="M478.5,233.3v-3h-4.9v-0.5l5-6.8h0.6v6.6h1.6v0.6h-1.6v3H478.5z M478.5,229.7v-4.2c0-0.5,0-1,0-1.4l0,0
			c-0.3,0.6-0.6,0.9-0.8,1.3l-3.2,4.3v0H478.5z"/>
	</g>
	<g>
		<path class="st17" d="M549.6,228c0,3.7-1.3,5.5-3.4,5.5c-1.6,0-3.1-1.6-3.1-5.3c0-3.7,1.6-5.4,3.4-5.4
			C548.3,222.9,549.6,224.5,549.6,228z M543.9,228.3c0,2.9,1,4.6,2.5,4.6c1.7,0,2.5-1.9,2.5-4.8c0-2.7-0.7-4.6-2.5-4.6
			C544.9,223.5,543.9,225.2,543.9,228.3z"/>
		<path class="st17" d="M551.1,232.8c0-0.4,0.3-0.7,0.6-0.7s0.6,0.3,0.6,0.7c0,0.4-0.3,0.7-0.7,0.7
			C551.4,233.5,551.1,233.2,551.1,232.8z"/>
		<path class="st17" d="M555.9,223.8L555.9,223.8l-1.7,1l-0.2-0.6l1.9-1.2h0.7v10.3h-0.7V223.8z"/>
	</g>
	<g>
		<path class="st17" d="M611.8,225.2L611.8,225.2l-2,0.9l-0.4-1.8l2.7-1.3h2v10.3h-2.3V225.2z"/>
		<path class="st17" d="M616.8,230.6c0-1.2,0.7-2.1,1.8-2.6v0c-1-0.5-1.5-1.3-1.5-2.2c0-1.7,1.6-2.9,3.6-2.9c2.4,0,3.4,1.4,3.4,2.6
			c0,0.9-0.5,1.8-1.5,2.3v0c1,0.4,1.9,1.2,1.9,2.6c0,1.9-1.6,3.1-4,3.1C618,233.5,616.8,232,616.8,230.6z M622.2,230.6
			c0-0.9-0.7-1.4-1.6-1.7c-0.8,0.2-1.3,0.8-1.3,1.5c0,0.7,0.6,1.4,1.5,1.4C621.6,231.8,622.2,231.3,622.2,230.6z M619.5,225.7
			c0,0.7,0.6,1.1,1.5,1.4c0.6-0.2,1-0.7,1-1.3c0-0.6-0.4-1.3-1.3-1.3C619.9,224.5,619.5,225,619.5,225.7z"/>
		<path class="st17" d="M626.3,232.1c0-0.9,0.6-1.5,1.4-1.5c0.8,0,1.4,0.6,1.4,1.5c0,0.8-0.6,1.5-1.4,1.5
			C626.9,233.5,626.3,232.9,626.3,232.1z"/>
		<path class="st17" d="M637.8,223v1.5l-4.2,8.8H631l4.2-8.3v0h-4.7v-2H637.8z"/>
	</g>
	<g>
		<path class="st17" d="M49.4,274.3c0,3.8-2.3,5.6-4.8,5.6c-2.6,0-4.7-2.1-4.7-5.4c0-3.5,2.1-5.6,4.8-5.6
			C47.4,268.9,49.4,271,49.4,274.3z M40.7,274.5c0,2.4,1.4,4.8,3.9,4.8s3.9-2.3,3.9-4.9c0-2.3-1.2-4.8-3.9-4.8
			C42,269.6,40.7,272,40.7,274.5z"/>
		<path class="st17" d="M51.5,274.6c0-1,0-1.7-0.1-2.4h0.7l0,1.4h0c0.6-1,1.5-1.6,2.8-1.6c2,0,3.3,1.6,3.3,3.8
			c0,2.7-1.6,4.1-3.5,4.1c-1.1,0-2.1-0.5-2.6-1.4h0v4.4h-0.8V274.6z M52.2,276.8c0,0.2,0,0.4,0.1,0.6c0.3,1.2,1.3,1.9,2.5,1.9
			c1.7,0,2.7-1.4,2.7-3.4c0-1.7-1-3.2-2.7-3.2c-1.1,0-2.2,0.8-2.5,2c0,0.2-0.1,0.4-0.1,0.6V276.8z"/>
		<path class="st17" d="M60.7,275.9c0,2.4,1.3,3.4,2.9,3.4c1.1,0,1.7-0.2,2.1-0.4l0.2,0.6c-0.3,0.2-1.1,0.5-2.4,0.5
			c-2.2,0-3.5-1.6-3.5-3.8c0-2.5,1.5-4.1,3.4-4.1c2.5,0,3,2.3,3,3.4c0,0.2,0,0.3,0,0.5H60.7z M65.5,275.3c0-1.1-0.4-2.7-2.3-2.7
			c-1.7,0-2.4,1.5-2.6,2.7H65.5z"/>
		<path class="st17" d="M68.3,274.5c0-0.8,0-1.5-0.1-2.3h0.7l0,1.5h0c0.3-1,1.1-1.7,2.2-1.7c0.1,0,0.2,0,0.3,0v0.7
			c-0.1,0-0.2,0-0.4,0c-1,0-1.8,0.9-2,2.1c0,0.2-0.1,0.5-0.1,0.7v4.2h-0.8V274.5z"/>
		<path class="st17" d="M78,278c0,0.6,0,1.2,0.1,1.8h-0.7l-0.1-1.1h0c-0.4,0.6-1.2,1.3-2.4,1.3c-1.5,0-2.2-1.1-2.2-2.1
			c0-1.8,1.5-2.8,4.6-2.8v-0.2c0-0.7-0.1-2.2-1.9-2.2c-0.7,0-1.4,0.2-1.9,0.6l-0.2-0.6c0.7-0.5,1.6-0.6,2.2-0.6c2.2,0,2.6,1.6,2.6,3
			V278z M77.2,275.7c-1.7,0-3.8,0.2-3.8,2c0,1.1,0.7,1.6,1.5,1.6c1.3,0,2-0.8,2.2-1.5c0.1-0.2,0.1-0.3,0.1-0.5V275.7z"/>
		<path class="st17" d="M81.5,270.5v1.7h2.2v0.6h-2.2v4.9c0,1,0.3,1.6,1.1,1.6c0.4,0,0.7,0,0.9-0.1l0.1,0.6
			c-0.3,0.1-0.6,0.2-1.1,0.2c-0.6,0-1-0.2-1.3-0.5c-0.3-0.4-0.5-1-0.5-1.8v-4.8h-1.3v-0.6h1.3v-1.4L81.5,270.5z"/>
		<path class="st17" d="M86.4,270c0,0.3-0.2,0.6-0.6,0.6c-0.3,0-0.6-0.3-0.6-0.6s0.3-0.7,0.6-0.7S86.4,269.7,86.4,270z M85.4,279.8
			v-7.6h0.8v7.6H85.4z"/>
		<path class="st17" d="M88.8,274c0-0.7,0-1.2-0.1-1.8h0.7l0,1.4h0c0.4-0.9,1.4-1.6,2.6-1.6c0.7,0,2.7,0.4,2.7,3.2v4.6H94v-4.5
			c0-1.4-0.5-2.6-2.1-2.6c-1.1,0-2,0.8-2.3,1.7c0,0.2-0.1,0.4-0.1,0.7v4.7h-0.8V274z"/>
		<path class="st17" d="M103.5,278.7c0,1.9-0.4,2.9-1,3.5c-0.7,0.7-1.7,0.9-2.6,0.9c-0.9,0-1.8-0.2-2.4-0.7l0.3-0.6
			c0.5,0.3,1.3,0.6,2.3,0.6c1.6,0,2.8-0.8,2.8-3.1v-1.1h0c-0.4,0.8-1.3,1.5-2.6,1.5c-1.9,0-3.3-1.7-3.3-3.7c0-2.6,1.7-4,3.4-4
			c1.5,0,2.2,0.8,2.6,1.5h0l0-1.3h0.7c0,0.6-0.1,1.2-0.1,2V278.7z M102.7,275.1c0-0.3,0-0.5-0.1-0.7c-0.3-0.9-1.1-1.7-2.4-1.7
			c-1.6,0-2.7,1.3-2.7,3.3c0,1.7,0.9,3.2,2.7,3.2c1,0,2-0.6,2.4-1.7c0.1-0.3,0.1-0.5,0.1-0.8V275.1z"/>
		<path class="st17" d="M111.1,270c0,0.3-0.2,0.6-0.6,0.6c-0.3,0-0.6-0.3-0.6-0.6s0.3-0.7,0.6-0.7S111.1,269.7,111.1,270z
			 M110.1,279.8v-7.6h0.8v7.6H110.1z"/>
		<path class="st17" d="M113.5,274c0-0.7,0-1.2-0.1-1.8h0.7l0,1.4h0c0.4-0.9,1.4-1.6,2.6-1.6c0.7,0,2.7,0.4,2.7,3.2v4.6h-0.8v-4.5
			c0-1.4-0.5-2.6-2.1-2.6c-1.1,0-2,0.8-2.3,1.7c0,0.2-0.1,0.4-0.1,0.7v4.7h-0.8V274z"/>
		<path class="st17" d="M127.4,279.5c-0.3,0.2-1.1,0.5-2.2,0.5c-2.2,0-3.6-1.6-3.6-3.9c0-2.4,1.6-4.1,3.9-4.1c0.9,0,1.7,0.3,2,0.5
			l-0.3,0.6c-0.4-0.2-1-0.4-1.8-0.4c-2,0-3.1,1.6-3.1,3.3c0,2,1.3,3.3,3,3.3c0.9,0,1.5-0.3,1.9-0.4L127.4,279.5z"/>
		<path class="st17" d="M135.6,275.9c0,2.8-1.9,4.1-3.6,4.1c-2,0-3.5-1.5-3.5-3.9c0-2.6,1.7-4,3.6-4
			C134.2,272,135.6,273.6,135.6,275.9z M129.2,276c0,1.9,1.2,3.3,2.8,3.3c1.6,0,2.8-1.4,2.8-3.4c0-1.4-0.8-3.3-2.8-3.3
			C130.1,272.6,129.2,274.4,129.2,276z"/>
		<path class="st17" d="M137.7,274c0-0.7,0-1.2-0.1-1.8h0.7l0,1.3h0c0.5-0.9,1.2-1.5,2.5-1.5c1,0,1.9,0.7,2.2,1.7h0
			c0.2-0.5,0.5-0.8,0.8-1c0.5-0.4,1-0.6,1.8-0.6c0.7,0,2.5,0.4,2.5,3.3v4.5h-0.8v-4.4c0-1.7-0.7-2.7-2-2.7c-1,0-1.7,0.7-2,1.5
			c-0.1,0.2-0.1,0.5-0.1,0.7v4.9h-0.8V275c0-1.4-0.6-2.4-1.9-2.4c-1,0-1.8,0.8-2.1,1.7c-0.1,0.2-0.1,0.5-0.1,0.7v4.7h-0.8V274z"/>
		<path class="st17" d="M151,275.9c0,2.4,1.3,3.4,2.9,3.4c1.1,0,1.7-0.2,2.1-0.4l0.2,0.6c-0.3,0.2-1.1,0.5-2.4,0.5
			c-2.2,0-3.5-1.6-3.5-3.8c0-2.5,1.5-4.1,3.4-4.1c2.5,0,3,2.3,3,3.4c0,0.2,0,0.3,0,0.5H151z M155.9,275.3c0-1.1-0.4-2.7-2.3-2.7
			c-1.7,0-2.4,1.5-2.6,2.7H155.9z"/>
	</g>
	<g>
		<path class="st17" d="M301.7,271.5h-4l-0.2,1.6c0.2,0,0.4,0,0.7,0c1,0,2,0.2,2.7,0.7c0.8,0.5,1.3,1.4,1.3,2.6
			c0,1.9-1.6,3.6-4.4,3.6c-1.3,0-2.3-0.3-2.9-0.6l0.4-1.8c0.5,0.2,1.4,0.5,2.3,0.5c1,0,2.1-0.5,2.1-1.6c0-1.1-0.8-1.7-2.9-1.7
			c-0.6,0-1,0-1.4,0.1l0.7-5.4h5.7V271.5z"/>
		<path class="st17" d="M310.9,269.5v1.5l-4.2,8.8h-2.5l4.2-8.3v0h-4.7v-2H310.9z"/>
		<path class="st17" d="M311.3,278.5c0-0.9,0.6-1.5,1.4-1.5s1.4,0.6,1.4,1.5c0,0.8-0.6,1.5-1.4,1.5
			C311.8,280,311.3,279.3,311.3,278.5z"/>
		<path class="st17" d="M320,279.8v-2.5h-4.6v-1.6l3.9-6.3h2.9v6h1.2v1.8h-1.2v2.5H320z M320,275.5v-2.3c0-0.6,0-1.3,0.1-1.9H320
			c-0.3,0.7-0.6,1.3-1,1.9l-1.4,2.2v0H320z"/>
	</g>
	<g>
		<path class="st17" d="M380.3,277.1c0-1.2,0.7-2.1,1.8-2.6v0c-1-0.5-1.5-1.3-1.5-2.2c0-1.7,1.6-2.9,3.6-2.9c2.4,0,3.4,1.4,3.4,2.6
			c0,0.9-0.5,1.8-1.5,2.3v0c1,0.4,1.9,1.2,1.9,2.6c0,1.9-1.6,3.1-4,3.1C381.5,280,380.3,278.5,380.3,277.1z M385.6,277
			c0-0.9-0.7-1.4-1.6-1.7c-0.8,0.2-1.3,0.8-1.3,1.5c0,0.7,0.6,1.4,1.5,1.4C385.1,278.3,385.6,277.7,385.6,277z M382.9,272.1
			c0,0.7,0.6,1.1,1.5,1.4c0.6-0.2,1-0.7,1-1.3c0-0.6-0.4-1.3-1.3-1.3C383.3,271,382.9,271.5,382.9,272.1z"/>
		<path class="st17" d="M389.7,278.5c0-0.9,0.6-1.5,1.4-1.5c0.8,0,1.4,0.6,1.4,1.5c0,0.8-0.6,1.5-1.4,1.5
			C390.3,280,389.7,279.3,389.7,278.5z"/>
		<path class="st17" d="M394.4,279.8v-1.5l1.3-1.2c2.2-2,3.3-3.2,3.4-4.4c0-0.8-0.5-1.5-1.7-1.5c-0.9,0-1.7,0.4-2.2,0.9l-0.7-1.7
			c0.8-0.6,2-1.1,3.4-1.1c2.3,0,3.6,1.4,3.6,3.2c0,1.7-1.3,3.1-2.7,4.4l-1,0.8v0h3.9v2H394.4z"/>
	</g>
	<g>
		<path class="st17" d="M461.1,270.2h-3.9l-0.5,3.3c0.2,0,0.5-0.1,1-0.1c0.7,0,1.3,0.1,1.9,0.4c0.8,0.4,1.6,1.3,1.6,2.7
			c0,2.1-1.6,3.5-3.5,3.5c-1.1,0-1.9-0.3-2.4-0.7l0.3-0.6c0.4,0.3,1.2,0.6,2.1,0.6c1.5,0,2.7-1.1,2.7-2.7c0-1.5-0.9-2.6-3-2.6
			c-0.6,0-1.1,0-1.5,0.1l0.7-4.7h4.5V270.2z"/>
		<path class="st17" d="M467.7,279.8v-3h-4.9v-0.5l5-6.8h0.6v6.6h1.6v0.6h-1.6v3H467.7z M467.7,276.1V272c0-0.5,0-1,0-1.4l0,0
			c-0.3,0.6-0.6,0.9-0.8,1.3l-3.2,4.3v0H467.7z"/>
		<path class="st17" d="M471.3,279.2c0-0.4,0.3-0.7,0.6-0.7s0.6,0.3,0.6,0.7c0,0.4-0.3,0.7-0.7,0.7
			C471.5,280,471.3,279.6,471.3,279.2z"/>
		<path class="st17" d="M480.5,274.5c0,3.7-1.3,5.5-3.4,5.5c-1.6,0-3.1-1.6-3.1-5.3c0-3.7,1.6-5.4,3.4-5.4
			C479.2,269.3,480.5,271,480.5,274.5z M474.8,274.7c0,2.9,1,4.6,2.5,4.6c1.7,0,2.5-1.9,2.5-4.8c0-2.7-0.7-4.6-2.5-4.6
			C475.9,270,474.8,271.7,474.8,274.7z"/>
	</g>
	<g>
		<path class="st17" d="M543.9,274.3c-1.3-0.5-1.7-1.4-1.7-2.3c0-1.6,1.3-2.6,2.9-2.6c1.7,0,2.7,1.2,2.7,2.5c0,0.9-0.4,1.8-1.8,2.5
			v0.1c1.5,0.6,2.2,1.5,2.2,2.7c0,1.7-1.5,2.9-3.2,2.9c-1.8,0-3.2-1.2-3.2-2.7C541.8,275.9,542.6,274.9,543.9,274.3L543.9,274.3z
			 M547.4,277.2c0-1.5-1-2.1-2.6-2.6c-1.5,0.4-2.2,1.4-2.2,2.5c-0.1,1.2,0.9,2.3,2.4,2.3C546.5,279.3,547.4,278.4,547.4,277.2z
			 M542.9,271.9c0,1.2,0.9,1.9,2.3,2.2c1.1-0.4,1.9-1.1,1.9-2.2c0-0.9-0.6-1.9-2-1.9C543.6,269.9,542.9,270.8,542.9,271.9z"/>
		<path class="st17" d="M550,279.2c0-0.4,0.3-0.7,0.6-0.7s0.6,0.3,0.6,0.7c0,0.4-0.3,0.7-0.7,0.7C550.2,280,549.9,279.6,550,279.2z"
			/>
		<path class="st17" d="M553.1,278.7c0.4,0.3,1.2,0.6,2.2,0.6c2.1,0,2.6-1.5,2.6-2.4c0-1.7-1.5-2.4-3-2.4h-0.6v-0.6h0.7
			c1.1,0,2.6-0.6,2.6-2.1c0-1-0.5-1.8-2-1.8c-0.8,0-1.5,0.4-2,0.7l-0.3-0.6c0.5-0.4,1.4-0.8,2.4-0.8c1.9,0,2.7,1.2,2.7,2.4
			c0,1-0.7,2-1.9,2.4v0c1.3,0.3,2.3,1.2,2.3,2.7c0,1.5-1.1,3.1-3.5,3.1c-1,0-2-0.4-2.4-0.7L553.1,278.7z"/>
	</g>
	<g>
		<path class="st17" d="M623.3,271.2c-0.3,0-0.6,0-0.9,0c-2.1,0.2-3.1,1.3-3.4,2.5h0c0.5-0.5,1.2-0.8,2.2-0.8c1.7,0,3.2,1.2,3.2,3.4
			c0,2-1.6,3.7-3.8,3.7c-2.7,0-4.1-2-4.1-4.5c0-1.9,0.7-3.5,1.8-4.6c1-0.9,2.4-1.4,4-1.5c0.4,0,0.7,0,1,0V271.2z M622,276.4
			c0-1-0.5-1.8-1.5-1.8c-0.6,0-1.2,0.4-1.4,0.9c-0.1,0.1-0.1,0.3-0.1,0.6c0,1.1,0.6,2.1,1.7,2.1C621.5,278.2,622,277.4,622,276.4z"
			/>
		<path class="st17" d="M626,278.5c0-0.9,0.6-1.5,1.4-1.5c0.8,0,1.4,0.6,1.4,1.5c0,0.8-0.6,1.5-1.4,1.5
			C626.6,280,626,279.3,626,278.5z"/>
		<path class="st17" d="M634.7,279.8v-2.5h-4.6v-1.6l3.9-6.3h2.9v6h1.2v1.8h-1.2v2.5H634.7z M634.7,275.5v-2.3c0-0.6,0-1.3,0.1-1.9
			h-0.1c-0.3,0.7-0.6,1.3-1,1.9l-1.4,2.2v0H634.7z"/>
	</g>
	<g>
		<path class="st17" d="M45.6,320.9h-4.3v4.7h4.8v0.6h-5.5v-10.7h5.3v0.6h-4.5v4.1h4.3V320.9z"/>
		<path class="st17" d="M48,315.7c0.6-0.1,1.4-0.2,2.2-0.2c1.3,0,2.2,0.3,2.8,0.9c0.4,0.4,0.7,1,0.7,1.7c0,1.1-0.8,2-1.8,2.4v0
			c0.9,0.2,2.3,1,2.3,2.7c0,0.9-0.3,1.5-0.8,2c-0.7,0.7-1.9,1-3.4,1c-0.8,0-1.4-0.1-1.9-0.1V315.7z M48.7,320.3h1.6
			c1.6,0,2.5-0.9,2.5-2.1c0-1.5-1.1-2-2.7-2c-0.7,0-1.1,0-1.3,0.1V320.3z M48.7,325.6c0.3,0.1,0.7,0.1,1.3,0.1
			c1.6,0,3.2-0.6,3.2-2.4c0-1.7-1.4-2.4-3.1-2.4h-1.3V325.6z"/>
		<path class="st17" d="M56.9,315.6v10.7h-0.8v-10.7H56.9z"/>
		<path class="st17" d="M61.8,316.2h-3.5v-0.6H66v0.6h-3.5v10h-0.8V316.2z"/>
		<path class="st17" d="M67.5,315.7c0.8-0.1,1.7-0.2,2.7-0.2c1.9,0,3.4,0.5,4.3,1.5c0.9,0.9,1.3,2.1,1.3,3.7c0,1.6-0.4,3-1.4,4
			c-0.9,1-2.5,1.6-4.6,1.6c-0.8,0-1.6,0-2.4-0.1V315.7z M68.2,325.6c0.4,0.1,1,0.1,1.7,0.1c3.4,0,5.1-1.9,5.1-5
			c0-2.7-1.5-4.6-4.9-4.6c-0.8,0-1.5,0.1-1.9,0.2V325.6z"/>
		<path class="st17" d="M78.6,322.5l-1.3,3.7h-0.8l3.9-10.7h0.7l3.8,10.7h-0.8l-1.3-3.7H78.6z M82.6,321.9l-1.3-3.6
			c-0.3-0.7-0.4-1.3-0.6-1.9h0c-0.1,0.6-0.3,1.2-0.6,1.9l-1.3,3.6H82.6z"/>
	</g>
	<g>
		<path class="st17" d="M301,315.9v1.5l-4.2,8.8h-2.5l4.2-8.3v0h-4.7v-2H301z"/>
		<path class="st17" d="M309,317.9h-4l-0.2,1.6c0.2,0,0.4,0,0.7,0c1,0,2,0.2,2.7,0.7c0.8,0.5,1.3,1.4,1.3,2.6c0,1.9-1.6,3.6-4.4,3.6
			c-1.3,0-2.3-0.3-2.9-0.6l0.4-1.8c0.5,0.2,1.4,0.5,2.3,0.5c1,0,2.1-0.5,2.1-1.6c0-1.1-0.8-1.7-2.9-1.7c-0.6,0-1,0-1.4,0.1l0.7-5.4
			h5.7V317.9z"/>
		<path class="st17" d="M311.3,325c0-0.9,0.6-1.5,1.4-1.5s1.4,0.6,1.4,1.5c0,0.8-0.6,1.5-1.4,1.5C311.8,326.4,311.3,325.8,311.3,325
			z"/>
		<path class="st17" d="M320,326.2v-2.5h-4.6v-1.6l3.9-6.3h2.9v6h1.2v1.8h-1.2v2.5H320z M320,322v-2.3c0-0.6,0-1.3,0.1-1.9H320
			c-0.3,0.7-0.6,1.3-1,1.9l-1.4,2.2v0H320z"/>
	</g>
	<g>
		<path class="st17" d="M376,318.1L376,318.1l-2,0.9l-0.4-1.8l2.7-1.3h2v10.3H376V318.1z"/>
		<path class="st17" d="M388.8,321c0,3.2-1.3,5.4-3.9,5.4c-2.7,0-3.8-2.4-3.8-5.3c0-3,1.3-5.3,3.9-5.3
			C387.8,315.8,388.8,318.2,388.8,321z M383.5,321.1c0,2.4,0.6,3.5,1.5,3.5s1.4-1.2,1.4-3.5c0-2.3-0.5-3.5-1.5-3.5
			C384.1,317.6,383.5,318.7,383.5,321.1z"/>
		<path class="st17" d="M390.3,325c0-0.9,0.6-1.5,1.4-1.5c0.8,0,1.4,0.6,1.4,1.5c0,0.8-0.6,1.5-1.4,1.5
			C390.9,326.4,390.3,325.8,390.3,325z"/>
		<path class="st17" d="M401.7,315.9v1.5l-4.2,8.8H395l4.2-8.3v0h-4.7v-2H401.7z"/>
	</g>
	<g>
		<path class="st17" d="M463.1,315.9v0.6l-4.6,9.7h-0.7l4.6-9.6v0H457v-0.6H463.1z"/>
		<path class="st17" d="M467.1,316.7L467.1,316.7l-1.7,1l-0.2-0.6l1.9-1.2h0.7v10.3h-0.7V316.7z"/>
		<path class="st17" d="M471.3,325.7c0-0.4,0.3-0.7,0.6-0.7s0.6,0.3,0.6,0.7c0,0.4-0.3,0.7-0.7,0.7
			C471.6,326.4,471.3,326.1,471.3,325.7z"/>
		<path class="st17" d="M480.6,321c0,3.7-1.3,5.5-3.4,5.5c-1.6,0-3.1-1.6-3.1-5.3c0-3.7,1.6-5.4,3.4-5.4
			C479.2,315.8,480.6,317.4,480.6,321z M474.8,321.2c0,2.9,1,4.6,2.5,4.6c1.7,0,2.5-1.9,2.5-4.8c0-2.7-0.7-4.6-2.5-4.6
			C475.9,316.4,474.8,318.1,474.8,321.2z"/>
	</g>
	<g>
		<path class="st17" d="M539.9,316.7L539.9,316.7l-1.7,1l-0.2-0.6l1.9-1.2h0.7v10.3h-0.7V316.7z"/>
		<path class="st17" d="M546,316.7L546,316.7l-1.7,1l-0.2-0.6l1.9-1.2h0.7v10.3H546V316.7z"/>
		<path class="st17" d="M550.1,325.7c0-0.4,0.3-0.7,0.6-0.7s0.6,0.3,0.6,0.7c0,0.4-0.3,0.7-0.7,0.7
			C550.3,326.4,550.1,326.1,550.1,325.7z"/>
		<path class="st17" d="M559.2,321c0,3.7-1.3,5.5-3.4,5.5c-1.6,0-3.1-1.6-3.1-5.3c0-3.7,1.6-5.4,3.4-5.4
			C557.9,315.8,559.2,317.4,559.2,321z M553.5,321.2c0,2.9,1,4.6,2.5,4.6c1.7,0,2.5-1.9,2.5-4.8c0-2.7-0.7-4.6-2.5-4.6
			C554.6,316.4,553.5,318.1,553.5,321.2z"/>
	</g>
	<g>
		<path class="st17" d="M623.1,317.7c-0.3,0-0.6,0-0.9,0c-2.1,0.2-3.1,1.3-3.4,2.5h0c0.5-0.5,1.2-0.8,2.2-0.8c1.7,0,3.2,1.2,3.2,3.4
			c0,2-1.6,3.7-3.8,3.7c-2.7,0-4.1-2-4.1-4.5c0-1.9,0.7-3.5,1.8-4.6c1-0.9,2.4-1.4,4-1.5c0.4,0,0.7,0,1,0V317.7z M621.8,322.8
			c0-1-0.5-1.8-1.5-1.8c-0.6,0-1.2,0.4-1.4,0.9c-0.1,0.1-0.1,0.3-0.1,0.6c0,1.1,0.6,2.1,1.7,2.1
			C621.3,324.6,621.8,323.9,621.8,322.8z"/>
		<path class="st17" d="M625.8,325c0-0.9,0.6-1.5,1.4-1.5c0.8,0,1.4,0.6,1.4,1.5c0,0.8-0.6,1.5-1.4,1.5
			C626.4,326.4,625.8,325.8,625.8,325z"/>
		<path class="st17" d="M630.4,326.2v-1.5l1.3-1.2c2.2-2,3.3-3.2,3.4-4.4c0-0.8-0.5-1.5-1.7-1.5c-0.9,0-1.7,0.4-2.2,0.9l-0.7-1.7
			c0.8-0.6,2-1.1,3.4-1.1c2.3,0,3.6,1.4,3.6,3.2c0,1.7-1.3,3.1-2.7,4.4l-1,0.8v0h3.9v2H630.4z"/>
	</g>
	<g>
		<path class="st17" d="M40.6,372.7V362h0.7l4.1,6.3c0.9,1.3,1.5,2.3,2,3.4l0,0c-0.1-1.4-0.1-2.7-0.1-4.3V362h0.7v10.7h-0.7
			l-4.1-6.2c-0.8-1.2-1.5-2.4-2.1-3.5l0,0c0.1,1.3,0.1,2.5,0.1,4.2v5.4H40.6z"/>
		<path class="st17" d="M51,368.8c0,2.4,1.3,3.4,2.9,3.4c1.1,0,1.7-0.2,2.1-0.4l0.2,0.6c-0.3,0.2-1.1,0.5-2.4,0.5
			c-2.2,0-3.5-1.6-3.5-3.8c0-2.5,1.5-4.1,3.4-4.1c2.5,0,3,2.3,3,3.4c0,0.2,0,0.3,0,0.5H51z M55.9,368.2c0-1.1-0.4-2.7-2.3-2.7
			c-1.7,0-2.4,1.5-2.6,2.7H55.9z"/>
		<path class="st17" d="M59.7,363.4v1.7h2.2v0.6h-2.2v4.9c0,1,0.3,1.6,1.1,1.6c0.4,0,0.7,0,0.9-0.1l0.1,0.6
			c-0.3,0.1-0.6,0.2-1.1,0.2c-0.6,0-1-0.2-1.3-0.5c-0.3-0.4-0.5-1-0.5-1.8v-4.8h-1.3v-0.6H59v-1.4L59.7,363.4z"/>
		<path class="st17" d="M68.7,362.9c0,0.3-0.2,0.6-0.6,0.6c-0.3,0-0.6-0.3-0.6-0.6s0.3-0.7,0.6-0.7S68.7,362.6,68.7,362.9z
			 M67.7,372.7v-7.6h0.8v7.6H67.7z"/>
		<path class="st17" d="M71,366.9c0-0.7,0-1.2-0.1-1.8h0.7l0,1.4h0c0.4-0.9,1.4-1.6,2.6-1.6c0.7,0,2.7,0.4,2.7,3.2v4.6h-0.8v-4.5
			c0-1.4-0.5-2.6-2.1-2.6c-1.1,0-2,0.8-2.3,1.7c0,0.2-0.1,0.4-0.1,0.7v4.7H71V366.9z"/>
		<path class="st17" d="M84.9,372.4c-0.3,0.2-1.1,0.5-2.2,0.5c-2.2,0-3.6-1.6-3.6-3.9c0-2.4,1.6-4.1,3.9-4.1c0.9,0,1.7,0.3,2,0.5
			l-0.3,0.6c-0.4-0.2-1-0.4-1.8-0.4c-2,0-3.1,1.6-3.1,3.3c0,2,1.3,3.3,3,3.3c0.9,0,1.5-0.3,1.9-0.4L84.9,372.4z"/>
		<path class="st17" d="M93.1,368.8c0,2.8-1.9,4.1-3.6,4.1c-2,0-3.5-1.5-3.5-3.9c0-2.6,1.7-4,3.6-4
			C91.7,364.9,93.1,366.5,93.1,368.8z M86.8,368.9c0,1.9,1.2,3.3,2.8,3.3c1.6,0,2.8-1.4,2.8-3.4c0-1.4-0.8-3.3-2.8-3.3
			C87.6,365.6,86.8,367.3,86.8,368.9z"/>
		<path class="st17" d="M95.2,366.9c0-0.7,0-1.2-0.1-1.8h0.7l0,1.3h0c0.5-0.9,1.2-1.5,2.5-1.5c1,0,1.9,0.7,2.2,1.7h0
			c0.2-0.5,0.5-0.8,0.8-1c0.5-0.4,1-0.6,1.8-0.6c0.7,0,2.5,0.4,2.5,3.3v4.5H105v-4.4c0-1.7-0.7-2.7-2-2.7c-1,0-1.7,0.7-2,1.5
			c-0.1,0.2-0.1,0.5-0.1,0.7v4.9h-0.8v-4.8c0-1.4-0.6-2.4-1.9-2.4c-1,0-1.8,0.8-2.1,1.7c-0.1,0.2-0.1,0.5-0.1,0.7v4.7h-0.8V366.9z"
			/>
		<path class="st17" d="M108.5,368.8c0,2.4,1.3,3.4,2.9,3.4c1.1,0,1.7-0.2,2.1-0.4l0.2,0.6c-0.3,0.2-1.1,0.5-2.4,0.5
			c-2.2,0-3.5-1.6-3.5-3.8c0-2.5,1.5-4.1,3.4-4.1c2.5,0,3,2.3,3,3.4c0,0.2,0,0.3,0,0.5H108.5z M113.4,368.2c0-1.1-0.4-2.7-2.3-2.7
			c-1.7,0-2.4,1.5-2.6,2.7H113.4z"/>
	</g>
	<g>
		<path class="st17" d="M293.8,370.3c0.4,0.2,1.4,0.6,2.4,0.6c1.3,0,1.9-0.6,1.9-1.4c0-1-1-1.5-2.1-1.5h-1v-1.7h0.9
			c0.8,0,1.8-0.3,1.8-1.2c0-0.6-0.5-1.1-1.5-1.1c-0.8,0-1.7,0.4-2.2,0.6l-0.5-1.7c0.6-0.4,1.9-0.8,3.2-0.8c2.2,0,3.4,1.2,3.4,2.6
			c0,1.1-0.6,1.9-1.9,2.4v0c1.2,0.2,2.2,1.2,2.2,2.5c0,1.8-1.6,3.2-4.2,3.2c-1.3,0-2.5-0.3-3.1-0.7L293.8,370.3z"/>
		<path class="st17" d="M302.5,370.3c0.4,0.2,1.4,0.6,2.4,0.6c1.3,0,1.9-0.6,1.9-1.4c0-1-1-1.5-2.1-1.5h-1v-1.7h0.9
			c0.8,0,1.8-0.3,1.8-1.2c0-0.6-0.5-1.1-1.5-1.1c-0.8,0-1.7,0.4-2.2,0.6l-0.5-1.7c0.6-0.4,1.9-0.8,3.2-0.8c2.2,0,3.4,1.2,3.4,2.6
			c0,1.1-0.6,1.9-1.9,2.4v0c1.2,0.2,2.2,1.2,2.2,2.5c0,1.8-1.6,3.2-4.2,3.2c-1.3,0-2.5-0.3-3.1-0.7L302.5,370.3z"/>
		<path class="st17" d="M311.2,371.4c0-0.9,0.6-1.5,1.4-1.5s1.4,0.6,1.4,1.5c0,0.8-0.6,1.5-1.4,1.5
			C311.8,372.9,311.2,372.3,311.2,371.4z"/>
		<path class="st17" d="M320,372.7v-2.5h-4.6v-1.6l3.9-6.3h2.9v6h1.2v1.8h-1.2v2.5H320z M320,368.4v-2.3c0-0.6,0-1.3,0.1-1.9H320
			c-0.3,0.7-0.6,1.3-1,1.9l-1.4,2.2v0H320z"/>
	</g>
	<g>
		<path class="st17" d="M384.8,372.7v-2.5h-4.6v-1.6l3.9-6.3h2.9v6h1.2v1.8h-1.2v2.5H384.8z M384.8,368.4v-2.3c0-0.6,0-1.3,0.1-1.9
			h-0.1c-0.3,0.7-0.6,1.3-1,1.9l-1.4,2.2v0H384.8z"/>
		<path class="st17" d="M389.8,371.4c0-0.9,0.6-1.5,1.4-1.5c0.8,0,1.4,0.6,1.4,1.5c0,0.8-0.6,1.5-1.4,1.5
			C390.4,372.9,389.8,372.3,389.8,371.4z"/>
		<path class="st17" d="M394.2,370c0-1.2,0.7-2.1,1.8-2.6v0c-1-0.5-1.5-1.3-1.5-2.2c0-1.7,1.6-2.9,3.6-2.9c2.4,0,3.4,1.4,3.4,2.6
			c0,0.9-0.5,1.8-1.5,2.3v0c1,0.4,1.9,1.2,1.9,2.6c0,1.9-1.6,3.1-4,3.1C395.4,372.9,394.2,371.4,394.2,370z M399.5,369.9
			c0-0.9-0.7-1.4-1.6-1.7c-0.8,0.2-1.3,0.8-1.3,1.5c0,0.7,0.6,1.4,1.5,1.4C399,371.2,399.5,370.7,399.5,369.9z M396.8,365
			c0,0.7,0.6,1.1,1.5,1.4c0.6-0.2,1-0.7,1-1.3c0-0.6-0.4-1.3-1.3-1.3C397.2,363.9,396.8,364.4,396.8,365z"/>
	</g>
	<g>
		<path class="st17" d="M458.4,371.6c0.4,0.3,1.2,0.6,2.2,0.6c2.1,0,2.6-1.5,2.6-2.4c0-1.7-1.5-2.4-3-2.4h-0.6v-0.6h0.7
			c1.1,0,2.6-0.6,2.6-2.1c0-1-0.5-1.8-2-1.8c-0.8,0-1.5,0.4-2,0.7l-0.3-0.6c0.5-0.4,1.4-0.8,2.4-0.8c1.9,0,2.7,1.2,2.7,2.4
			c0,1-0.7,2-1.9,2.4v0c1.3,0.3,2.3,1.2,2.3,2.7c0,1.5-1.1,3.1-3.5,3.1c-1,0-2-0.4-2.4-0.7L458.4,371.6z"/>
		<path class="st17" d="M471.6,362.4v0.6l-4.6,9.7h-0.7l4.6-9.6v0h-5.2v-0.6H471.6z"/>
		<path class="st17" d="M471.7,372.2c0-0.4,0.3-0.7,0.6-0.7s0.6,0.3,0.6,0.7c0,0.4-0.3,0.7-0.7,0.7
			C472,372.9,471.7,372.5,471.7,372.2z"/>
		<path class="st17" d="M475.1,372.2c0.3,0,0.7,0,1.2-0.1c0.8-0.1,1.6-0.5,2.2-1.2c0.7-0.7,1.2-1.8,1.4-3.3l0,0
			c-0.6,0.8-1.6,1.3-2.7,1.3c-1.9,0-2.9-1.5-2.9-3.1c0-1.9,1.3-3.6,3.3-3.6c1.8,0,3.1,1.5,3.1,4.3c0,2.3-0.8,3.9-1.8,4.9
			c-0.7,0.7-1.6,1.2-2.4,1.3c-0.6,0.1-1,0.2-1.4,0.1V372.2z M475,365.8c0,1.5,1,2.5,2.3,2.5c1.1,0,2-0.6,2.5-1.3
			c0.1-0.1,0.1-0.3,0.1-0.5c0-2.2-0.8-3.7-2.5-3.7C476,362.9,475,364.1,475,365.8z"/>
	</g>
	<g>
		<path class="st17" d="M548.4,363.1h-3.9l-0.5,3.3c0.2,0,0.5-0.1,1-0.1c0.7,0,1.3,0.1,1.9,0.4c0.8,0.4,1.6,1.3,1.6,2.7
			c0,2.1-1.6,3.5-3.5,3.5c-1.1,0-1.9-0.3-2.4-0.7l0.3-0.6c0.4,0.3,1.2,0.6,2.1,0.6c1.5,0,2.7-1.1,2.7-2.7c0-1.5-0.9-2.6-3-2.6
			c-0.6,0-1.1,0-1.5,0.1l0.7-4.7h4.5V363.1z"/>
		<path class="st17" d="M550.5,372.2c0-0.4,0.3-0.7,0.6-0.7s0.6,0.3,0.6,0.7c0,0.4-0.3,0.7-0.7,0.7
			C550.7,372.9,550.5,372.5,550.5,372.2z"/>
		<path class="st17" d="M553.7,372.2c0.3,0,0.7,0,1.2-0.1c0.8-0.1,1.6-0.5,2.2-1.2c0.7-0.7,1.2-1.8,1.4-3.3l0,0
			c-0.6,0.8-1.6,1.3-2.7,1.3c-1.9,0-2.9-1.5-2.9-3.1c0-1.9,1.3-3.6,3.3-3.6c1.8,0,3.1,1.5,3.1,4.3c0,2.3-0.8,3.9-1.8,4.9
			c-0.7,0.7-1.6,1.2-2.4,1.3c-0.6,0.1-1,0.2-1.4,0.1V372.2z M553.7,365.8c0,1.5,1,2.5,2.3,2.5c1.1,0,2-0.6,2.5-1.3
			c0.1-0.1,0.1-0.3,0.1-0.5c0-2.2-0.8-3.7-2.5-3.7C554.6,362.9,553.7,364.1,553.7,365.8z"/>
	</g>
	<g>
		<path class="st17" d="M609.6,367.7v1.6h-4.1v-1.6H609.6z"/>
		<path class="st17" d="M612.9,364.5L612.9,364.5l-2,0.9l-0.4-1.8l2.7-1.3h2v10.3h-2.3V364.5z"/>
		<path class="st17" d="M620.5,364.5L620.5,364.5l-2,0.9l-0.4-1.8l2.7-1.3h2v10.3h-2.3V364.5z"/>
		<path class="st17" d="M625.9,371.4c0-0.9,0.6-1.5,1.4-1.5c0.8,0,1.4,0.6,1.4,1.5c0,0.8-0.6,1.5-1.4,1.5
			C626.5,372.9,625.9,372.3,625.9,371.4z"/>
		<path class="st17" d="M630.3,370c0-1.2,0.7-2.1,1.8-2.6v0c-1-0.5-1.5-1.3-1.5-2.2c0-1.7,1.6-2.9,3.6-2.9c2.4,0,3.4,1.4,3.4,2.6
			c0,0.9-0.5,1.8-1.5,2.3v0c1,0.4,1.9,1.2,1.9,2.6c0,1.9-1.6,3.1-4,3.1C631.5,372.9,630.3,371.4,630.3,370z M635.6,369.9
			c0-0.9-0.7-1.4-1.6-1.7c-0.8,0.2-1.3,0.8-1.3,1.5c0,0.7,0.6,1.4,1.5,1.4C635,371.2,635.6,370.7,635.6,369.9z M632.9,365
			c0,0.7,0.6,1.1,1.5,1.4c0.6-0.2,1-0.7,1-1.3c0-0.6-0.4-1.3-1.3-1.3C633.3,363.9,632.9,364.4,632.9,365z"/>
	</g>
</g>
</svg>
