<?xml version="1.0" encoding="utf-8"?>
<!-- Generator: Adobe Illustrator 25.2.1, SVG Export Plug-In . SVG Version: 6.00 Build 0)  -->
<svg version="1.1" id="Layer_2" xmlns="http://www.w3.org/2000/svg" xmlns:xlink="http://www.w3.org/1999/xlink" x="0px" y="0px"
	 viewBox="0 0 808.5 541" style="enable-background:new 0 0 808.5 541;" xml:space="preserve">
<style type="text/css">
	.st0{fill:#EEF2F4;}
	.st1{fill:#A7A9AC;}
	.st2{clip-path:url(#SVGID_4_);}
	.st3{opacity:0.7;clip-path:url(#SVGID_6_);fill:#47C3D3;enable-background:new    ;}
	.st4{fill:none;stroke:#FFFFFF;stroke-width:0.499;stroke-miterlimit:10;}
	.st5{enable-background:new    ;}
	.st6{fill:#002F87;}
	.st7{fill:#47C3D3;}
	.st8{fill:none;stroke:#58595B;stroke-width:0.998;stroke-miterlimit:10;}
	.st9{fill:#58595B;}
	.st10{fill:none;stroke:#6D6E71;stroke-width:0.998;stroke-miterlimit:10;}
	.st11{fill:#6D6E71;}
	.st12{fill:#606163;}
	.st13{fill:none;stroke:#58595B;stroke-width:0.499;stroke-linecap:round;stroke-miterlimit:10;}
	.st14{fill:#6FCCDD;}
	.st15{fill:none;stroke:#58595B;stroke-width:0.419;stroke-linecap:round;stroke-miterlimit:10;}
	.st16{opacity:0.65;fill:#004186;enable-background:new    ;}
	.st17{clip-path:url(#SVGID_8_);}
	.st18{clip-path:url(#SVGID_12_);fill:none;stroke:#FFFFFF;stroke-width:0.998;stroke-miterlimit:10.0001;}
</style>
<path class="st0" d="M9.5,0.1c-2.9,0-5.3,2-5.3,4.4v532.1c0,2.4,2.4,4.4,5.3,4.4h788.6c2.9,0,5.3-2,5.3-4.4V4.4
	c0-2.4-2.4-4.4-5.3-4.4L9.5,0.1L9.5,0.1z"/>
<g>
	<g>
		<g>
			<g>
				<g>
					<g>
						<defs>
							<rect id="SVGID_1_" x="30.3" y="28.9" width="380.1" height="328.3"/>
						</defs>
						<clipPath id="SVGID_2_">
							<use xlink:href="#SVGID_1_"  style="overflow:visible;"/>
						</clipPath>
					</g>
				</g>
			</g>
			<path class="st1" d="M344.5,287.3c0,0.3,0,0.6,0,0.9c0.5-0.2,1-0.3,1.7,0c0.2,0.1,0.4,0.2,0.6,0.3c0.7,0.1,1.6,0.3,2.4,0.5
				c0.6,0.1,1.5,0.4,1.7,0.4c1.6-0.1,1.9-0.6,2.1-1.5c0.1-0.4,0.1-1.1,0-1.7c-0.1-1.4-0.1-2.9,0.8-4.2c0.9-1.3,2.1-1.3,2.8-1.3
				c0.2,0,0.3,0,0.5,0c0.4-0.1,0.4-0.1,0.6-0.4s0.5-0.8,1.1-1.3c2.1-1.7,4.4-0.6,6,0.2c0.7,0.3,1.4,0.7,1.8,0.7
				c1.8,0.1,4.2-1.7,5.6-2.7c0.4-0.3,0.4-0.5,0.5-1.2c0.1-0.4,0.1-0.9,0.3-1.3c0.7-2.2,2.2-2.2,2.9-2.3c0.3,0,0.4,0,0.6-0.1
				c0,0,0.2-0.3,0.3-0.5c0.4-0.7,1-1.8,2.3-2c2.1-0.3,2.9,1.5,3.3,2.3c0,0.1,0.1,0.2,0.1,0.3c0.1-0.1,0.1-0.1,0.2-0.2
				c0.3-0.2,0.5-0.4,0.8-0.5c0.9-0.5,1.4-0.6,2.4-0.7c0.3,0,0.7-0.1,1-0.1c1.9-0.1,2-0.3,2.2-0.9c0.6-2.3,2.2-3.4,4.6-3.1
				c0.5,0,0.8,0.2,1.1,0.3c0.1,0,0.3,0.1,0.4,0.1c0.3,0,0.7,0,1.2,0c0.2,0,0.5,0,0.7,0c0.2-3-0.5-5.7-4.4-4.4c0.1,0.5-0.1,1.1,0,1.5
				c-2.1,0.5-2-0.7-3.4-1.3c-1.7-0.8-3.5-0.4-5.3-0.8c-0.2-2.1,4.5,0.1,5.1-2.6c0.9-4.1-5-1.6-7.3-1.8c-3.9-0.3-7.8-0.3-11.7-0.5
				c-3.6-0.2-4.3-3.1-7.9-2.9c0.3,2-0.4,1.5-1.3,2.1c-1.4,0.8-3.5,1.4-5.2,1.6c-3.6,0.2-7.1-0.4-10.7-0.3c-1.4,1.5-3.1,2.4-4.7,3.3
				c-1.4,0.8-2.8,1.5-3.9,2.6c-1.5,1.5-2.7,2.3-4.5,3.4c-0.2,0.1-0.4,0.2-0.7,0.4c-0.7,0.4-2.5,1.3-2.6,1.9c-0.1,0.4,0,0.8,0,1.4
				c0.1,1.1,0.2,2.4-0.5,3.6c-0.2,0.3-0.4,0.5-0.6,0.7c0.1,0,0.1,0,0.2,0c0.8,0.1,1.7,0.4,2.5,0.7c0.4-0.3,0.9-0.5,1.6-0.5
				c1.2,0.1,1.9,0.4,2.7,0.9l0.4,0.2c0.1,0.1,0.3,0.1,0.4,0.1c0.5,0.1,1.1,0.3,1.6,0.7c1,0.8,1.2,1.8,1.3,2.5c0,0.1,0,0.2,0.1,0.2
				h0.1h0.1c0.1-0.6,0.4-1.5,1.2-2.2c0.7-0.6,1.6-0.8,2.6-0.7c1.4,0.2,2.8,1,3.6,2.1c1.5,2.2,0.2,4.1-0.5,5.3
				C344.9,285.1,344.6,286.1,344.5,287.3"/>
			<path class="st1" d="M330.4,239.7c0,1.8-0.3,3.6-0.5,5.3l-0.1,0.9c-0.4,2.7-0.4,5.3-0.4,7.8c0,0.1,0,0.3,0,0.4
				c0.7,0.1,1.6,0.1,2.4,0.1c0.3,0,0.6,0,0.9,0c0.7-0.8,2.3-1.5,3.2-1.9c1.4-0.7,3.3-1.1,4.3-2.5c0.6-1,0.3-1.6,0.5-2.7
				c0.4-1.7,1.5-3.5,0.8-5.3c-0.5-1.3-1.9-1.6-2-3c-0.1-0.8,0.8-1.5,0.9-2.3c0.3-1.6-0.1-3.4,0.2-5c0.3-1.2,0.9-2.7,0.6-3.7
				c-0.7,0.4-1.4,0.6-2.1,0.8c-0.2,0.1-0.5,0.1-0.7,0.2c-0.3,0.1-0.5,0.1-0.8,0.1c0,0.1,0,0.2-0.1,0.3c-0.3,0.8-0.7,1.4-1.3,1.9
				c-0.2,0.1-0.3,0.3-0.4,0.4c-0.1,0-0.1,0.1-0.1,0.1s0,0,0,0.1c-0.5,1.8-2.6,2.7-4.3,2.6c-0.4,0-0.8,0.1-1.1,0.2
				c0.4,1.2,0.3,2.7,0.2,4C330.4,239,330.4,239.4,330.4,239.7"/>
			<path class="st1" d="M294.4,260.1c0.1-0.3,0.3-0.7,0.4-1.2c0.3-1.1,0.7-2.8,2.6-3.5c0.6-0.2,1.2-0.2,1.7-0.2c0.1,0,0.2,0,0.3,0
				c0-0.1,0.1-0.1,0.1-0.2c0.2-0.4,0.5-1.1,1.2-1.5c1.2-0.8,3-0.7,5.2-0.6c1.8,0.1,2.3,0,3.5-0.3l0.4-0.1c1.3-0.3,2.3,0.5,2.8,0.9
				c0.2,0.1,0.4,0.3,0.5,0.4c0.1,0,0.2-0.1,0.4-0.3c0.4-0.5,0.5-1.4,0.3-2.2c-0.2,0-0.3,0-0.5,0l-0.5-0.1c-1.3-0.2-2.8-0.4-3-2.6
				c0-0.3-0.1-0.6-0.1-0.8l0,0c-0.4,0-1-0.1-1.6-0.4c-1.2-0.7-1.9-2.1-2.1-3.4c-1.6-0.7-4-2-3.7-4.1c0.1-0.7,0.7-1.3,1.5-1.3
				c1,0,1.9,0,2.9,0h0.1c0-0.4-0.1-0.8-0.1-1.3c-0.1-0.9-0.2-1.8-0.2-2.8c0-0.7,0.4-1.2,1.1-1.5c2.4-0.8,5.4-0.6,8.1-0.4
				c2.4,0.2,4.2,0.1,6.1,0.2c1.9,0,3.8,0.1,5.6,0c0.1-0.1,0.2-0.3,0.3-0.4c1.3-1.4,3.7-1.2,3.8-1.2c0.5,0,1.1-0.2,1.2-0.4
				c0.3-1,0.7-1.4,1.2-1.8c0.1-0.1,0.2-0.1,0.3-0.2c0.1-0.1,0.3-0.3,0.3-0.5v-0.1c0-0.4,0-0.9,0.3-1.4c0.5-0.9,1.6-1,2.3-1.1
				c0.1,0,0.3,0,0.4,0c0.2-0.1,0.5-0.1,0.8-0.2c0.7-0.2,1.4-0.4,1.8-0.7c0.4-0.4,1-0.6,1.6-0.4c0.4-0.5,0.8-0.9,1.5-1.2
				c-0.5,0.8-0.7,1.3-0.7,1.8c0.2,0.2,0.3,0.5,0.3,0.8c0.6,0.8,1.8,1.2,2.5,2.1s1,4.3,3,2.3c1.1-1.1,0.3-4.8,0.7-6.3
				c0.6-2.1,2.8-3.8,1.9-6.2c-0.6,0.2-1.2,0-1.8,0.1c-1-2.6,2.7-1.9,3.1-3.8c0.6-3.1-2.7-2.1-4.1-2.5c-0.3-1.8,0.9-1.7,2.1-2.3
				c1.7-0.9,1.4-0.8,2-2.2c0.4-0.9,0.3-1.2,0.8-2s1.3-1.5,2-2.2c2.1-2.1,5.5-4.2,6.8-7c0.7-1.5,0.7-5.9-2.1-4.9
				c-0.2-1.8,0.3-4.4-1.7-5c-1.5-0.4-3.2,1.1-4.8,1.1c-1.8,0-4.1-1.3-6.1-0.5c-0.5,0.2-1.2,1.2-1.8,1.6c-1.2,0.6-2.3,1.5-3.5,0.9
				c-2.2-1.1-3.1,0.5-4.9,1.3c-1.6,0.6-4-0.4-5.7-0.3c-3,0.1-6.5,0.3-9.2,1.6c-0.7,0.3-1.9,0.9-1.6,1.8c0.2,0.8,1.4,0.8,2.1,1
				c0,1.4-2.3,2.3-3.1,3.2c-1.5,1.5-1.5,3.2-1.2,5.2c0.3,2.2,0.8,4-1.4,5.2c-1.8,1-2.3,0.8-2.3,2.8c0,2.2,0.6,5.8-1.8,6.7
				c-1.3,0.4-2.7,0.4-4,0.7c-1.2,0.2-3.5,1.3-3.7,2.7c-0.2,1,1.1,1.7,1.1,2.7c0.1,1-0.5,2.5-1,3.2c-1,1.3-1.8,0.7-3.2,0.6
				c-1-0.1-1.6,0.4-1.7-0.8c-0.1-0.9,0.6-1,0.8-1.7c0.1-0.4,0-1.5-0.3-1.8c-0.7-0.8-0.7-0.1-1.6,0.1c-1.4,0.3-3.4-0.9-4.8-0.2
				c-0.8,0.4-0.8,1.7-1.6,2c-1.2,0.5-3-0.5-4.2,0.3c-0.9,0.6-0.8,1.5-1.8,1.7c-1.1,0.2-2.3-0.2-3.4,0c-1.3,0.2-1.4,0.9-2,1.9
				c-0.3,0.5-0.1,0.7-0.8,1.1c-0.6,0.3-2.8,0.1-3.3-0.2c-0.7-0.4-0.9-0.9-1.8-1.1c-0.6-0.1-1.7-0.1-2.3,0.1c-0.9,0.4-1,1.4-1.7,1.8
				s-2.6-0.3-3.2-0.7c-1.6-1.1-2.3-3.4-2.6-5.2c-0.3-1.8-1.5-2.1-3.2-2.8c-1.6-0.7-2.8-0.3-4.4-0.4c-1.7-0.1-3.2-0.9-4.3-2.2
				c-1.7-1.8-1.8-4.1-2.6-6.3c-0.8-2-2-3.4-3.4-5c-1.4-1.7-1-2.6-1.4-4.5c-0.3-1.5-1.7-2.1-2.8-2.8c-2.1-1.4-3.5-4.6-3.9-7
				c-0.2-1.5,0.6-3.1,0.2-4.6c-0.5-2-2.1-2.7-1.7-4.9c0.2-1.6-0.3-1.9-0.4-3.4c-0.2-3.6-0.6-7.8-0.3-11.2c0.3-3.9-1-8.1-0.3-11.9
				c0.4-2.4,2.3-4.2,2.7-6.6c0.3-1.6,0.4-3.3,0.8-4.8c0.3-1.6,0-3.7,0.5-5.3c0.7-2.6,1.3-1.5,3.4-2.7c0.9-0.5,1.7-1,2.1-1.8
				c-0.5-0.2-1-0.5-1.5-0.9c-0.4-0.3-0.7-0.6-0.9-0.9l-0.1-0.1H244c-0.4-0.1-1-0.2-1.6-0.6c-0.6-0.4-1.2-0.9-1.6-1.3
				c-0.4-0.3-0.9-0.8-1.1-0.8c-0.2,0-0.4-0.1-0.7-0.1c-1.4-0.2-3.7-0.6-4.8-2.6c-1-0.7-2.2-1.3-3.4-1.8c-2.1-0.9-4.4-2-6.1-4.1
				c-2.2-2.7-1.7-5.9-1.3-8.4c0.3-1.6,0.5-3.1,0.1-4.1c-0.1-0.2-0.5-0.5-0.9-0.8c-0.7-0.5-1.5-1-2.2-2c-0.5-0.8-0.7-1.6-0.8-2.2
				c0-0.2-0.1-0.3-0.1-0.5c-0.2-0.7-0.7-1.5-1.3-2.2c-0.5-0.7-1.1-1.5-1.5-2.5c-1-2.2-1.5-4.6-2-7c-0.1-0.5-0.2-1-0.3-1.5
				c-0.3-2-0.8-4.8-1.9-5.8c-0.1,0-0.2-0.1-0.4-0.2c-0.5-0.2-1.4-0.6-2.1-1.6c-0.7-1-1-2-1.3-2.9c-0.3-1-0.5-1.5-0.8-1.7
				s-1-0.3-1.5-0.4c-3.6-0.6-6.9-0.2-10,1.3c-1.8,0.9-1.9,1.4-2.5,4.2c-0.3,1.3-1.1,3.2-4.1,2.9c-0.6,1.1-1.5,1.6-2.7,1.7
				c-1.3,0.1-2.7-0.5-3-0.6c-1.5-0.6-2.8-1.5-4.1-2.2c-1.1-0.7-2.2-1.4-3.3-1.9l-0.4-0.2c-2.3-1-5.8-2.6-6.8-5.9l-0.2-0.6
				c-0.1-0.4-0.3-1-0.4-1.1c-0.1-0.1-0.1-0.1-0.2-0.1c-0.3-0.2-0.8-0.5-1.2-1c-1.2-1.5-0.8-3.3-0.6-4.3c0.1-0.3,0.2-0.7,0.2-0.8
				c0-0.3-0.4-1-0.7-1.5c-0.7-1.1-1.6-2.7-1.2-4.6c-2.3-0.8-4.1-2.8-4.7-5.1c0-0.2-0.1-0.4-0.1-0.6c0-0.2-0.1-0.3-0.1-0.5
				c0,0-0.3-0.1-0.5-0.2c-0.6-0.3-1.4-0.8-2-1.7s-0.8-1.8-0.9-2.5c0-0.2,0-0.3-0.1-0.5c-0.2-1-2.3-2.9-3.7-3.5
				c-0.3-0.1-0.4-0.1-0.4-0.1c-0.2,0-0.3,0-0.5,0H152c-0.5,0-1.2,0-3.3-0.2c-2.6-0.2-9.8-0.9-12.5-0.5c-0.1,1.1-0.5,2.4-1.3,3.3
				c-0.7,0.8-1.6,1.2-2.5,1.2c-0.7,0-1.5,0.1-2.3,0.2c-0.9,0.1-1.9,0.3-3,0.3c-5.3,0-10.7-0.2-15.9-0.4c-1.7-0.1-3.5-0.1-5.2-0.2
				c-6.2-0.2-11.1-1.5-15.9-4.1c-1-0.5-1.8-1.2-2.6-1.8c-0.8-0.7-1.6-1.3-2.5-1.6c-0.5-0.2-1.1-0.3-1.8-0.4c-1.5-0.2-3.3-0.6-4.8-2
				c-0.4-0.4-0.7-0.8-1-1.1c-0.3-0.4-0.4-0.5-0.6-0.6c-0.6-0.3-1.4-0.4-2.2-0.6c-1.5-0.3-3.2-0.6-4.7-1.8c-0.4-0.3-0.7-0.6-1-0.9
				c-0.2-0.3-0.4-0.4-0.5-0.5c-0.2-0.1-0.6-0.3-1.1-0.4c-0.9-0.3-2.1-0.7-3-1.6c-0.5-0.5-0.8-1-1-1.3c-1.3-0.3-2.7-0.3-4.1-0.2
				c-1,0-2,0.1-3,0c-1.5-0.1-2.9-0.3-4.2-0.6c-1.3-0.2-2.6-0.4-3.8-0.5c-1.8-0.1-3.6-0.1-5.5,0c-2.1,0-4.3,0.1-6.5-0.1
				c-0.4,0-0.8,0-1.3,0c0.2,1.2,0.2,2.3,0.1,3.7c-0.1,0.9,0,1.6,0.3,2.3c0.3,0.6,1.2,0.7,1.3,1.4c0.6,0.4,3.3,2.5,2.4,3.4
				c-0.5,0.5-1.2-0.2-1.4,0.7c-0.1,0.7,0.3,1.7,0.4,2.4c0.2,1.2,0.9,2.3,2,2.9c0.8,0.5,2,1.1,1.8,2.2c-0.2,0.7-1,0.5-1.1,1.1
				c-0.2,0.9,1.2,1.3,1.7,1.8c2.2,2,1.1,3.8,0.9,6.1c-0.1,0.9,0.3,1.7,0.8,2.4c0.5,0.8,0.5,1.6,0.8,2.4C45,67,45,67.6,45,68.2
				c0,1.4-0.2,2.9,0.8,4c0.4,0.4,0.7,0.7,0.9,1.2c0.3,0.5,0.5,1.1,0.9,1.5c1.4,1.3,4.3,0.8,6,1.9c-0.1,2.3,0.8,2.6,1.8,4.6
				c0.7,1.3,0.5,2.2,1.5,3.4c1.3,1.5,1.3,3.2,2.8,4.5c0.5,0.4,1.6,0.7,1.8,1.3c0.4,0.9-1,1.9-0.6,2.8c-1.6,0.1-0.2,2.1-0.2,2.9
				c0,0.9-0.2,1.1-1,1c-0.8,0-1.6,0-2.3,0.4c-0.4,0.2-0.8,0.5-0.6,1c0.4,0.8,1.7,0.7,2.3,0.9c0.7,0.2,0.8,0.8,0.2,1.5
				c-0.8,1-1.7-0.1-2.3-0.6c-0.5-0.3-0.9-0.6-1.4-0.4c-0.4,0.1-0.8,0.4-1.3,0.3c-0.4-0.1-0.6-0.4-0.9-0.5c-0.6-0.3-1.5-0.2-2.1-0.2
				c-0.8,0-3.9,0.2-2.3,1.3c0.4,0.3,0.8,0.5,1.2,0.8c0.4,0.4,0.5,0.9,0.8,1.4c0.4,0.6,0.6,0.3,1.1,0.5c0.4,0.2,0.4,0.7,0.7,1.1
				c0,0.5,0.2,1,0.4,1.4c0.3,0.6,0.3,1.1,0.3,1.8c0,0.6,0,0.9,0.4,1.3c0.8,0.7,1.7,0.7,2.7,0.7c0.9,0,0.6,0.2,1.1,0.8
				c0.5,0.4,1.3,0.7,1.9,0.8c0.5,0.1,1.1-0.1,1.5,0.4c0.3,0.4,0.3,1,0.4,1.4c0.4,1.2,1.8,1.8,3,1.6c0.6-0.1,1.2-0.2,1.5-0.8
				c0.3-0.5,0-1.1,0.3-1.6c0.6-0.8,2-0.4,2.2,0.5c0.3,1.4-0.7,2.6-0.6,4c0.1,1,1.4,1.1,1.8,2c0.8,1.9,2.5,2.4,4.4,2.8
				c0.7,0.2,1.3,0.4,1.7,1.1c0.2,0.4,0.3,0.9,0.6,1.4c0.3,0.5,0.8,0.9,1.2,1.3c1.3,1.6,2,3.5,1.4,5.5c-0.5,1.5-0.7,3.1-1.1,4.6
				c-0.3,1-0.7,1.9-1.3,2.8c-0.5,0.7-1.2,2.6-0.8,3.4c0.5,1,2.3,1.5,3.3,1.5c0.9,0,2.4,0,3,0.6c0.7,0.6,0.6,1.7,0.9,2.5
				c0.7,1.8,2.8,1.9,3.8,3.4c0.7,0.9,0.8,2.2,1.6,3.1c0.7,0.8,1.4,1.1,2.2,1.7c0.6,0.4,0.5,0.4,0.8,1c0.4,0.9,1,1,1.7,1.5
				c1.3,0.7,1.9,1.9,2,3.3c0.1,0.8,0.1,1,0.6,1.6c0.6,0.7,0.9,1.1,1,2c0.1,1.4,0.1,2.4,1.5,3.2c0.9,0.5,1.2,0.1,1.8-0.5
				c1.1-1.3,2.7-0.8,4.1-1.5c1.8-0.8,1.3-3.8,1.3-5.4c0-1.4-0.5-1.3-1.6-1.9c-1-0.5-1-1.2-1.3-2.2c-0.4-1.2-1.6-1.5-2.5-2.4
				c-0.7-0.7-0.4-1.2-0.6-2.1c-0.2-0.7-0.9-1.3-1.6-1.3c-1,0.1-0.3,0.7-0.6,1.5c-0.7-0.1-1.3-0.6-2-0.9c-0.9-0.4-1.8-0.7-2.4-1.5
				c-0.5-0.8-0.5-1.8-1-2.7c-0.4-0.8-1.1-1.3-1.1-2.4c0.1-1,1-1.7,1.1-2.7c0.3-1.6-1.7-1.8-1.4-3.3c0.1-0.7,0.5-1.3,0.2-2.1
				c-0.2-0.5-0.8-0.8-0.9-1.3c-0.2-0.6,0.5-1.1,0.1-1.8s-1.5-0.7-1.7-1.5c-0.3-0.9,0.1-2.3,0.1-3.3c0-1.3-0.2-2.1-0.8-3.2
				c-1-2,0.6-3.8,0.3-5.8c-0.1-0.9-0.5-1.1-1.1-1.6c-0.5-0.4-0.5-0.5-0.5-1.2c0-0.6,0.1-1.2-0.3-1.7s-1.5-0.7-1.9-0.1
				c-0.3,0.5,0.2,1.4,0,1.9c-0.2,0.6-1,1-1.6,0.5s-0.1-1.7-0.6-2.4c-0.5-0.6-1-0.7-1.1-1.5c-0.1-0.5,0.1-1,0.2-1.5
				c0.1-1.3-0.6-1.8-1-2.9c-0.4-1.2,0.8-2.6,0-3.7c-0.4-0.6-1.2-0.6-1.7-1s-0.5-0.7-0.7-1.2c0.3-2.2-1.6-0.7-2.4-1.8
				c-1.5-2.1,0.8-4.7-0.2-6.9c-0.4-0.9-1.6-1.2-2-2c-0.5-1-0.3-2-0.2-3.1c-1-0.5-2.1-0.4-3.2-0.7c0.2-1.7-2.1-2.4-2.6-3.8
				c-0.6-1.6,0.7-2.8,0.6-4.2c-0.3-3.4-4.5-1.8-6.1-4.2c-0.3-0.4-0.5-1.9-0.7-2.5c-0.3-0.8-0.9-1.2-1.1-2.1c-0.3-1.3,0-1.9-0.7-3.1
				c-0.8-1.4-1.5-1.6-1.6-3.3c-0.1-1.5,0.6-2.8,0.7-4.3c0-1.6-0.7-2.8-0.9-4.3c-0.3-1.8,0.3-3.2,1-4.8c0.7-1.8,0.5-3.6,1.1-5.3
				c1.2-3.5,3.3-0.5,4.8,1.3c2.2,2.6,3.8-0.5,6.3,1.2c1.1,0.7,1.3,1.9,2.7,2.5c0.9,0.4,3.8,0.5,4.3,1.3c1.2,1.8-1.8,3.3-2.3,4.4
				c-0.5,1.2-0.1,2.3,0.2,3.2c0.5,1.5,0.9,1.9,0.9,3.7c0.1,1.4-0.6,3.5,1.4,3c0.7,2.7,1.1,5.5,2.3,8.2c0.8,1.9,2,3.3,2.8,5.1
				c0.5,1.2,0.5,2,1.2,3.3c1,1.7,0.5,3.4,1.3,4.9c0.6,1.1,2.2,1.4,2.9,2.3c0.7,0.8,0.6,1.5,0.9,2.3c1,2.7,1.8,3.5,4.6,4.3
				c1.9,0.6,4.7,1.2,5.5,3.4c0.6,1.8-0.2,4.5,0,6.4c0.3,3.4,2.8,3,3.9,5.6c0.6,1.6-0.2,2,1.7,2.7c1,0.4,2.4,0.1,3.5,0.3
				c4.1,1,1.2,2.3,2.4,4.5c-0.1,1.2,2.4,1.1,3.1,1.5c1.1,0.6,0.4,1.9-0.6,2.2s-2-0.3-2.9,0.4c-0.6,0.5-1.3,1.5-1.7,2.2
				c-0.5,0.9-1.2,3-0.5,4c0.6,0.8,2.4,0.8,3.3,1.1c1,0.4,1.9,1.5,2.9,2.3c0.8,0.6,1.8,1,2.5,1.6c0.4,0.4,0.4,0.8,0.9,1.1
				c1.2,0.8,2.7,0.7,4.1,0.8c1.2,0,1.9,0.9,1.9,2.2c1.5,1.4,0,3.5-1.3,4.3c-0.8,0.4-1.7,1.4-0.6,2.1c1.2,0.8,3-0.3,4.2,0.4
				c0.5,0.3,0.8,1.3,1.1,1.7c0.5,0.8,1.1,1,1.7,1.7c0.4,0.4,0.7,1,1.2,1.4c0.6,0.6,1.3,1.6,2,2c0.3,0.7,0.4,1.2,0.9,1.8
				s1.1,1.1,1.6,1.7c1,1.1,1.8,2.5,2.3,3.9c0.8,2,2.1,3.7,2.9,5.7c0.7,1.8,0.4,2.9,2,4.3c1.2,1.1,3.4,1.9,4,3.6
				c0.5,1.7-0.8,3.1-0.9,4.6c0,1.8,1.3,3.2,2.1,4.7c1.1,2.3,4.2,6.7,2.1,9.1c-1,1.1-4.4,1.2-4.6,3.2c-0.2,1.5,3,2.2,4.5,2.1
				c0.7,2.4-3,2-4.5,2.5s-1.3-0.2-1.6,1.6c-0.2,0.9,0,2,0.3,2.8c0.6,2.2,2,3.7,3.6,5.1c2,1.8,1.8,3.4,3.5,5.1
				c1.2,1.2,2.8,2.6,4.6,2.8c0.6,0.1,2.1-0.3,2.6,0.2s0,1.2,0.8,1.6c1.8,0.9,4.1,0.1,5,2.4c0.3,0.8,0.5,1.1,1.2,1.6
				c0.8,0.6,2,1.1,2.2,2.2c0.1,0.5-1.1,3.6,0.3,3.3c0.4,0.2,0.8,0.2,1.3,0.2c1.4,0.2,2.3,1,3.5,1.7c0.9,0.5,1.6,0.8,2.6,0.8
				c2,0.1,3.8,0.9,5.8,1c0.7,0,1.5-0.1,2.2,0c0.9,0.1,0.8,0.6,1.4,1.2c1.2,1.2,3,1.7,4.4,2.6c1,0.6,1.8,1.6,2.8,2.3
				c2.5,2,4.9,4.8,8.2,5.5c1.6,0.3,3.3,0,4.9,0.3c1.1,0.1,2.2,0.3,3.3,0.7c1,0.4,1.3,1.2,1.6,2.2c1,2.5,4.7,1.4,6.8,1.9
				c0.8,0.2,1.8,0.6,2.2,1.4s0.8,2,1.6,2.4c1,0.5,2.5,0,3.5,0.2c1.2,0.3,1.9,1.2,2.8,1.9c2.2,1.6,5.7,1.3,8.3,1.8
				c2.2,0.4,3.7,1.4,5.6,2.4c1.3,0.7,2.5,0.5,3.9,1.1c1.6,0.8,2.6,1.2,4.4,0.7c1.7-0.4,2.9-1.6,4.4-2.2c0.7-0.3,1.6-0.2,2.3-0.5
				c0.6-0.3,0.8-0.9,1.4-1.3c1.5-1.1,8.5-0.7,8.8-1.7c-0.8-0.6-4.5-0.9-4.1-1.8c0.2-0.5,2.1-0.3,2.5-0.3c1.4,0.1,0.9,0.6,1.8,1.1
				c1.1,0.7,2.6,0.1,3.7,0.8c1.1,0.7,2.7,3.7,4.1,2.9c-0.3-1-1.3-2-2.1-2.6c-0.8-0.6-2.3-0.8-2.5-1.9c1.1-0.7,3.8,0.7,4.7,1.4
				c1.7,1.2,2.9,2.9,4,4.6c1,1.7,0.6,3.3,2.7,4.3c1.5,0.7,5.6,0.3,5.1,2.8c1.7,2.2,4,3.9,6.1,5.7c0.1-0.1,0.2-0.2,0.3-0.4
				c0.5-0.8,0.5-2.5,0.5-4c0-1.1,0-2.2,0.2-3.2c0.3-1.4,1.1-2.3,1.7-3C293.9,260.9,294.2,260.5,294.4,260.1"/>
			<path class="st1" d="M317.9,277.7c1.2-1.2,2.5-1.5,3.6-1.8c0.6-0.1,1.1-0.3,1.6-0.5c0.3-0.1,0.4-0.3,0.7-0.8l0.3-0.4
				c0.2-0.3,0.5-0.6,0.8-0.9c0.2-0.2,0.4-0.4,0.5-0.6c0.2-0.3,0.2-1.1,0.1-1.8c0-0.6-0.1-1.3,0-2c0.3-2.1,2.6-3.3,4.2-4.2
				c0.2-0.1,0.4-0.2,0.6-0.3c1.6-0.9,2.5-1.5,3.8-2.8c1.4-1.4,3-2.3,4.6-3.2c0.5-0.3,1-0.6,1.5-0.8c-1.3-0.1-2.8-0.1-4.2-0.1
				c-1.1,0-2.2,0.1-3.3,0c-0.3,0-0.7,0-1.1,0c-1.5,0-3.2,0-4.7-0.7c-0.4-0.2-0.7-0.5-0.8-0.9c-0.2-0.6-0.2-1.2-0.1-1.7
				c0-0.1,0-0.2,0-0.3c0-2.5,0-5.4,0.5-8.3l0.1-0.9c0.2-1.7,0.5-3.2,0.5-4.8c0-0.4,0-0.9,0.1-1.4c0-0.5,0.1-1.5,0.1-2.3
				c-1.9,0.1-3.8,0-5.7,0c-2,0-4,0-6.3-0.2c-1.9-0.1-4.1-0.3-5.8,0c0,0.4,0.1,0.8,0.1,1.3c0.1,1,0.2,2.1,0.1,3.2
				c0,0.8-0.7,1.4-1.4,1.5c0.4,0.3,0.6,0.8,0.6,1.2c0,0.9,0.4,1.6,0.6,1.8c0,0,0.1,0,0.2,0c0.5,0,1.5,0.1,2.3,1
				c0.2,0.2,0.6,0.7,0.8,2.4c0.1,0,0.2,0,0.4,0.1l0.6,0.1c0.2,0,0.4,0,0.6,0c0.7,0,1.8-0.1,2.4,0.9c0.4,0.7,0.3,1.4,0.1,1.9
				c0.3,1.6,0,3.2-0.9,4.4c-0.8,1-1.8,1.5-3.1,1.6c-1,0-1.8-0.6-2.3-1c-0.1-0.1-0.3-0.2-0.4-0.3H310c-1,0.2-1.8,0.4-3.1,0.4
				c-0.4,0-0.8,0-1.3-0.1c-0.8-0.1-2.8-0.2-3.3,0.1c0,0,0,0.1-0.1,0.2c-0.2,0.4-0.5,1-1.1,1.4c-0.8,0.5-1.7,0.5-2.2,0.5
				c-0.2,0-0.4,0-0.5,0c-0.2,0.1-0.3,0.4-0.6,1.3c-0.1,0.6-0.3,1.2-0.6,1.8c-0.4,0.7-0.9,1.3-1.3,1.8c-0.5,0.6-0.9,1-0.9,1.5
				c-0.1,0.7-0.1,1.6-0.1,2.6c0,1.9,0,4.1-1,5.7c-0.2,0.3-0.4,0.6-0.6,0.8c0.4,0.4,0.9,0.9,1.1,1.4c0.4,0.9,0.3,1.9,0.9,2.7
				c0.8,1.1,2.9,2.4,4.2,2.5c0.6,0.1,1.4-0.1,2,0s1.1,0.7,1.6,1c2,1.3,3.8,0.5,6.1,0.5c1.4,0,2.7,0.6,4,0.9c0.2-0.6,0.4-1.2,0.8-1.9
				c0.7-1.1,1.8-1.8,2.7-2.4C317.1,278.3,317.6,278,317.9,277.7"/>
			<path class="st1" d="M363.7,313c0.7-1.4,1.8-2,2.5-2.2c1.8-0.5,3.8,0.4,5.1,1.2c1.5,1,3.4,0.9,5.4,0.9c0.8,0,1.6,0,2.5-0.1
				c1-0.1,2.2-0.2,3.3,0.1c1.7,0.5,2.3,1.5,2.7,2.3c0.1,0.2,0.2,0.4,0.3,0.5c0.5,0.7,1,1,2,1.1c0.4,0,0.9,0,1.4-0.2
				c0-0.1,0-0.2,0.1-0.3c0.1-0.9,0-1.6-0.7-2.2c-0.7-0.7-1.5-1.5-1.3-2.6c0.1-0.7,0.5-1.7,1.1-2.1c1.2-0.8,2.1-1,2.3-2.6
				c0.1-0.8-0.5-2.1-1.3-1.2c-0.6,0.7-0.8,2.1-2,1.9c-0.3-0.8,0.4-1.2,0.6-2c0.1-0.4,0-1,0.1-1.4c0-0.7,0.2-0.9,0.5-1.5
				c0.7-1,0.6-1.8,0.6-2.9c0-0.6,0.9-3.5,1.6-2.8c0.6,0.6-1.3,5.2,0.9,4.3c0.7-0.2,1.3-0.9,1.7-1.4c0.5-0.7,0.4-1.3,0.2-2
				c-0.3-1.6-0.3-3.2-0.3-4.9c0-1.2,0.7-3.3-0.1-4.4c0.2-0.8-1.3-1.1-1.5-1.9c-0.2-0.7,0.3-0.8,0.7-1.2c0.6-0.6,0.4-1.5,0.4-2.2
				c1.8-1.1,7.7-3.7,5.6-6.3c-1-1.3-1.9-0.4-2.2-2.3c0-0.2,0.4-1.6,0.4-2.2c0.1-0.6,0.2-1.4,0.3-2.3c-0.1,0-0.1,0-0.2,0
				c-0.6,0-1.2,0.1-1.8,0c-0.4-0.1-0.8-0.2-1.1-0.3c-0.1,0-0.2-0.1-0.3-0.1c-0.8-0.1-0.9,0-1.1,0.8c-0.7,2.9-3.3,3.1-5,3.2
				c-0.3,0-0.6,0-0.9,0.1c-0.8,0.1-0.8,0.1-1.3,0.3c-0.1,0.1-0.3,0.2-0.4,0.3c-0.6,0.5-1.8,1.4-3.3,0.7c-1-0.4-1.4-1.4-1.8-2.1v-0.1
				c-0.3,0.6-0.7,1.3-1.5,1.7c-0.8,0.4-1.5,0.5-1.9,0.5l0,0v0.1c-0.1,0.3-0.1,0.6-0.2,0.9c-0.1,0.9-0.3,2.1-1.8,3.2
				c-1.9,1.4-4.8,3.6-7.7,3.4c-1.1-0.1-2-0.5-2.9-1c-1.6-0.7-2.2-0.9-2.6-0.5c-0.2,0.2-0.3,0.3-0.4,0.5c-0.5,0.7-1,1.4-2.5,1.7
				c-0.4,0.1-0.7,0.1-1.1,0.1c-0.1,0-0.3,0-0.4,0c-0.2,0.4-0.1,1.4-0.1,2.2c0,0.8,0.1,1.7-0.1,2.6c-0.8,3.6-3.9,3.9-5,4
				c-0.1,0-0.1,0-0.2,0c-0.6,0-1.4-0.2-2.5-0.5c-0.1,0-0.3-0.1-0.5-0.1c-0.1,0.1-0.1,0.2-0.2,0.3c-0.3-0.1-1-0.4-1.7-0.6
				c-0.3,0.2-0.6,0.2-1,0.2c0.1,0.7,0.1,1.3,0,1.9c0.9,0.5,1.9,0.8,2.3,0.9c3.3,0.9,1.9,4,4.1,5.9c0.8,0.7,2,0.7,2.7,1.2
				c0.8,0.7,0.6,1.6,0.8,2.5c0.6,2.2,2.8,2.8,4,4.7c0.6,1,0.9,2.2,1.7,3.3c0.8,1,1.9,1,2.8,1.4C363.6,313.3,363.6,313.2,363.7,313"
				/>
			<path class="st1" d="M341.9,279.9c-0.1,0.1-0.1,0.2-0.2,0.6c-0.2,0.7-0.6,2.7-3.5,2.4c-2.4-0.2-2.7-2-2.9-2.7
				c-0.1-0.4-0.1-0.5-0.2-0.6c-0.1,0-0.2-0.1-0.4-0.1c-0.4-0.1-0.8-0.2-1.1-0.4l-0.5-0.2c-0.6-0.3-0.8-0.4-1.2-0.5
				c-0.4,0.3-1.2,0.8-2.3,0.4c-0.6-0.2-1.7-0.7-2.3-0.7c-0.2,0-0.5,0-0.7,0c-0.4,0-1,0-1.7-0.2c-0.2,0.1-0.3,0.2-0.5,0.3
				c-0.8,0.4-1.6,0.6-2.2,0.7c-0.9,0.2-1.6,0.4-2.2,1s-1.3,1.1-2,1.5s-1.4,0.9-1.7,1.3c-0.1,0.1-0.1,0.2-0.2,0.3
				c0.6,0,1.2,0.1,1.8,0.4c1,0.5,1.3,1.5,2.4,1.9c1.7,0.7,5.9,0.7,6.2,3c1.1,0.5,2.3,1,3.5,0.9c1.1-0.1,1.8-0.9,2.9-0.8
				c1.9,0.2,2.1,2.8,3.9,3.2c1.1,0.2,3.4-0.6,4.6-1.2c-0.2-1-0.3-2-0.3-3.3c0.1-1.7,0.6-3.3,1.6-4.7c0.9-1.3,0.8-1.4,0.6-1.7
				C343.2,280.2,342.2,279.8,341.9,279.9"/>
			<path class="st1" d="M400.4,331.6c0.2,0,0.4,0,0.6,0c0.5,0,0.8-0.1,1.2-0.2l-0.1-0.1c-0.7-0.5-2-0.3-2.9-0.4
				c-0.4,0-2.7-0.4-2.2-0.8c0.1,0.1,0.2,0.1,0.3,0.1c0.2-0.9-1.2-1-1.5-1.7c-0.2-0.3-0.1-0.8-0.3-1.1c-0.2-0.6-0.6-0.8-1.1-1.1
				c-0.4-0.2-1.4-0.6-1.6-1s0.2-1.3,0-1.8c-0.2-1-0.7-1.1-0.7-2.2c0-0.6,0.1-1.3,0-1.9c0-0.3-0.1-0.5-0.2-0.7
				c-1.5,0.9-3.4,1.3-4.7,1.2c-2-0.2-3.4-1-4.4-2.5c-0.2-0.3-0.3-0.5-0.4-0.7c-0.3-0.6-0.4-0.7-0.8-0.8c-0.6-0.2-1.4-0.1-2.3,0
				c-1,0.1-1.8,0.1-2.7,0.1c-2.3,0-4.9,0.1-7.2-1.4c-1.2-0.8-2.1-0.9-2.5-0.8c-0.1,0-0.3,0.1-0.6,0.6c-0.1,0.2-0.1,0.4-0.2,0.7
				c-0.1,0.6-0.2,1.6-1.1,2.4c-0.2,0.2-0.5,0.4-0.8,0.7c1.1,0.6,2.1,0.7,1.8,2.2c-0.3,1.6-1.5,0.9-2.4,1.8c-0.9,0.8-2.1,3.9-1.5,5.1
				c0.7,1.5,2.6,1.1,3.9,1c1.5-0.2,1.6-0.3,2.7,0.8c1.6,1.6,2.9,2.4,5.4,1.6c0.3-2.2-1.1-2-2.4-3.1c-1.5-1.2-1.3-3.2,0.9-2.6
				c1.2,0.3,2.9,1.4,3.9,2.2c1,0.8,1.1,1.4,1.2,2.5c0.1,0.8-0.1,1.7,0.8,2.4c1.4,1.1,2.7,2.5,4.2,3.4c1.4,0.8,4.5,1.4,4.9,3.3
				c0.3,1.4-1.2,2.4-1.2,3.7c-0.1,1.4,0.8,2.1,1.4,3.2c1,1.5,2.2,2.3,4.1,2c0.9-0.1,1.2-0.7,1.1-1.7s-0.7-1.2-1.6-1.6
				c-0.6-0.2-2.8-1.7-1-2.2c0.7-0.2,1.4,0.8,2,1c0.6,0.3,2.3,0.9,2.4,1.7c0.1,1.2-0.6,2.2,0.2,3.3c0.3,0.4,0.7,0.6,1.1,0.7
				c-0.1-0.4-0.2-0.9-0.3-1.4c-0.1-0.3-0.1-0.5-0.2-0.8c-0.5-2,0.4-3.2,1-4c0.3-0.4,0.5-0.7,0.6-1c0.1-0.4,0.2-1.3,0.1-1.6
				c0,0.1-0.1-0.1-0.3-0.2c-0.4-0.3-0.9-0.7-1.2-1.5c-0.4-1-0.5-2.3,1.3-3.2c0.1,0,0.1-0.1,0.2-0.1V335c0-0.3-0.1-0.7,0-1.1
				C397.6,331.5,399.6,331.5,400.4,331.6"/>
			<g>
				<g>
					<g>
						<defs>
							<rect id="SVGID_3_" x="335.1" y="247" width="47.2" height="47.3"/>
						</defs>
						<clipPath id="SVGID_4_">
							<use xlink:href="#SVGID_3_"  style="overflow:visible;"/>
						</clipPath>
						<g class="st2">
							<g>
								<g>
									<defs>
										<rect id="SVGID_5_" x="335.1" y="247" width="47.2" height="47.3"/>
									</defs>
									<clipPath id="SVGID_6_">
										<use xlink:href="#SVGID_5_"  style="overflow:visible;"/>
									</clipPath>
									<path class="st3" d="M382.4,270.6c0,13-10.6,23.6-23.6,23.6s-23.6-10.6-23.6-23.6s10.6-23.6,23.6-23.6
										C371.8,247,382.4,257.6,382.4,270.6"/>
								</g>
							</g>
						</g>
					</g>
				</g>
			</g>
			<path class="st4" d="M380,270.6c0,11.7-9.5,21.3-21.3,21.3c-11.7,0-21.3-9.5-21.3-21.3c0-11.7,9.5-21.3,21.3-21.3
				C370.5,249.4,380,258.9,380,270.6z"/>
		</g>
		<g class="st5">
			<path class="st6" d="M162.3,12.9c-0.5,0-1,0-1.6,0.1c-3.8,0.3-5.5,2.2-5.9,4.4h0.1c0.9-0.9,2.2-1.5,3.9-1.5c3,0,5.6,2.2,5.6,5.9
				c0,3.6-2.8,6.6-6.7,6.6c-4.8,0-7.2-3.6-7.2-7.9c0-3.4,1.3-6.3,3.2-8.1c1.8-1.6,4.2-2.5,7-2.7c0.8-0.1,1.3-0.1,1.7,0V12.9z
				 M159.9,22c0-1.7-0.9-3.1-2.7-3.1c-1.1,0-2.1,0.7-2.5,1.6c-0.1,0.2-0.2,0.6-0.2,1.1c0.1,1.9,1,3.7,2.9,3.7
				C159,25.2,159.9,23.9,159.9,22z"/>
			<path class="st6" d="M166.4,25.8c0-1.5,1-2.6,2.5-2.6s2.5,1.1,2.5,2.6c0,1.5-1,2.6-2.5,2.6C167.4,28.4,166.4,27.3,166.4,25.8z"/>
			<path class="st6" d="M186.5,9.9v2.7L179,28.1h-4.5l7.5-14.6v-0.1h-8.3V9.9H186.5z"/>
			<path class="st6" d="M198.5,15c0,3.8-2.4,5.8-5,5.8c-2.8,0-4.9-2.1-4.9-5.5c0-3.2,2-5.7,5.1-5.7C196.8,9.6,198.5,11.9,198.5,15z
				 M191.7,15.2c0,1.9,0.6,3.3,1.9,3.3c1.2,0,1.8-1.2,1.8-3.3c0-1.8-0.5-3.3-1.8-3.3C192.3,11.9,191.7,13.4,191.7,15.2z M193.7,28.4
				l10.4-18.8h2.3L196,28.4H193.7z M211.6,22.5c0,3.8-2.4,5.8-5,5.8c-2.7,0-4.9-2.1-4.9-5.5c0-3.2,2-5.7,5.1-5.7
				C209.8,17.1,211.6,19.4,211.6,22.5z M204.8,22.7c0,1.9,0.6,3.3,1.8,3.3c1.2,0,1.8-1.2,1.8-3.3c0-1.8-0.5-3.3-1.8-3.3
				C205.4,19.5,204.8,20.9,204.8,22.7z"/>
		</g>
		<g class="st5">
			<path class="st7" d="M331,135.4v2.8h-7.3v-2.8H331z"/>
			<path class="st7" d="M333,144.2v-2.6l2.3-2.1c4-3.5,5.9-5.6,6-7.7c0-1.5-0.9-2.7-3-2.7c-1.6,0-2.9,0.8-3.9,1.5l-1.2-3
				c1.4-1,3.5-1.9,6-1.9c4.1,0,6.4,2.4,6.4,5.7c0,3-2.2,5.5-4.8,7.8l-1.7,1.4v0.1h6.8v3.5H333z"/>
			<path class="st7" d="M348.7,141.9c0-1.5,1-2.6,2.5-2.6s2.5,1.1,2.5,2.6c0,1.5-1,2.6-2.5,2.6C349.8,144.5,348.7,143.4,348.7,141.9
				z"/>
			<path class="st7" d="M363.3,144.2v-4.3h-8.1v-2.8l6.9-11.1h5.2v10.7h2.2v3.2h-2.2v4.3H363.3z M363.3,136.7v-4
				c0-1.1,0.1-2.2,0.1-3.4h-0.1c-0.6,1.2-1.1,2.2-1.7,3.4l-2.4,4v0.1H363.3z"/>
			<path class="st7" d="M380.9,131.1c0,3.8-2.4,5.8-5,5.8c-2.8,0-4.9-2.1-4.9-5.5c0-3.2,2-5.7,5.1-5.7
				C379.1,125.7,380.9,128,380.9,131.1z M374,131.3c0,1.9,0.6,3.3,1.9,3.3c1.2,0,1.8-1.2,1.8-3.3c0-1.8-0.5-3.3-1.8-3.3
				C374.6,128,374,129.5,374,131.3z M376,144.5l10.4-18.8h2.3l-10.5,18.8H376z M393.9,138.7c0,3.8-2.4,5.8-5,5.8
				c-2.7,0-4.9-2.1-4.9-5.5c0-3.2,2-5.7,5.1-5.7C392.2,133.3,393.9,135.5,393.9,138.7z M387.1,138.8c0,1.9,0.6,3.3,1.8,3.3
				c1.2,0,1.8-1.2,1.8-3.3c0-1.8-0.5-3.3-1.8-3.3C387.7,135.6,387.1,137,387.1,138.8z"/>
		</g>
		<line class="st8" x1="180.8" y1="49.9" x2="180.8" y2="72.1"/>
		<g>
			<path class="st9" d="M179,72c0,1,0.8,1.9,1.9,1.9c1,0,1.9-0.8,1.9-1.9c0-1-0.8-1.9-1.9-1.9S179,71,179,72"/>
			<line class="st10" x1="358.8" y1="171.8" x2="358.8" y2="240.6"/>
			<path class="st11" d="M356.9,240.5c0,1,0.8,1.9,1.9,1.9c1,0,1.9-0.8,1.9-1.9c0-1-0.8-1.9-1.9-1.9
				C357.7,238.6,356.9,239.5,356.9,240.5"/>
		</g>
		<g class="st5">
			<path class="st12" d="M562.1,201.9h5.4v1.6h-3.4v2h3.1v1.6h-3.1v3.5h-2V201.9z"/>
			<path class="st12" d="M574.8,207.4c0,2.3-1.6,3.4-3.4,3.4c-1.9,0-3.3-1.2-3.3-3.3c0-2.1,1.4-3.4,3.4-3.4
				C573.5,204.1,574.8,205.5,574.8,207.4z M570.2,207.5c0,1.1,0.5,1.9,1.3,1.9c0.8,0,1.3-0.8,1.3-1.9c0-0.9-0.4-1.9-1.3-1.9
				C570.6,205.6,570.2,206.5,570.2,207.5z"/>
			<path class="st12" d="M576,206.4c0-0.9,0-1.5-0.1-2.1h1.7l0.1,1.2h0.1c0.3-0.9,1.1-1.3,1.7-1.3c0.2,0,0.3,0,0.4,0v1.9
				c-0.1,0-0.3-0.1-0.5-0.1c-0.7,0-1.2,0.4-1.4,1c0,0.1,0,0.3,0,0.4v3.2h-2V206.4z"/>
			<path class="st12" d="M581,206.3c0-0.8,0-1.5-0.1-2h1.7l0.1,0.9h0c0.3-0.4,0.8-1,1.9-1c0.8,0,1.5,0.4,1.7,1.1h0
				c0.2-0.3,0.5-0.6,0.8-0.8c0.4-0.2,0.7-0.3,1.2-0.3c1.2,0,2.1,0.9,2.1,2.8v3.7h-1.9v-3.5c0-0.9-0.3-1.5-0.9-1.5
				c-0.5,0-0.8,0.3-0.9,0.7c-0.1,0.1-0.1,0.4-0.1,0.5v3.7h-1.9v-3.6c0-0.8-0.3-1.4-0.9-1.4c-0.5,0-0.8,0.4-0.9,0.7
				c-0.1,0.2-0.1,0.3-0.1,0.5v3.7H581V206.3z"/>
			<path class="st12" d="M595.7,210.6l-0.1-0.6h0c-0.4,0.5-1.1,0.8-1.8,0.8c-1.3,0-2.1-0.9-2.1-1.9c0-1.6,1.5-2.4,3.7-2.4v-0.1
				c0-0.3-0.2-0.8-1.2-0.8c-0.6,0-1.3,0.2-1.8,0.5l-0.4-1.3c0.4-0.2,1.3-0.6,2.5-0.6c2.1,0,2.8,1.2,2.8,2.7v2.2c0,0.6,0,1.2,0.1,1.5
				H595.7z M595.5,207.6c-1,0-1.8,0.2-1.8,1c0,0.5,0.3,0.8,0.8,0.8c0.5,0,0.9-0.3,1-0.7c0-0.1,0-0.2,0-0.3V207.6z"/>
			<path class="st12" d="M601.1,202.5v1.8h1.4v1.5h-1.4v2.3c0,0.8,0.2,1.1,0.8,1.1c0.2,0,0.4,0,0.6-0.1l0,1.5
				c-0.3,0.1-0.7,0.2-1.3,0.2c-0.6,0-1.2-0.2-1.5-0.5c-0.4-0.4-0.5-1-0.5-1.9v-2.6h-0.8v-1.5h0.8v-1.4L601.1,202.5z"/>
			<path class="st12" d="M607.7,202.4l-1.4,1.6l0,0l2.1-0.4v1.3l-2.1-0.4l0,0l1.4,1.6l-1.2,0.7l-0.7-2l0,0l-0.8,2l-1.1-0.7l1.4-1.6
				v0l-2,0.4v-1.3l2,0.4l0,0l-1.4-1.6l1.2-0.7l0.7,2h0l0.7-2L607.7,202.4z"/>
		</g>
		<g>
			<path class="st6" d="M561.3,230.2H753c3.1,0,5.7,2.5,5.7,5.7c0,3.1-2.5,5.7-5.7,5.7H561.3V230.2z"/>
			<path class="st6" d="M561.3,254.7h146.9c3.1,0,5.7,2.5,5.7,5.7c0,3.1-2.5,5.7-5.7,5.7H561.3V254.7z"/>
			<path class="st6" d="M561.3,279.1h144.9c3.1,0,5.7,2.5,5.7,5.7c0,3.1-2.5,5.7-5.7,5.7H561.3V279.1z"/>
			<path class="st6" d="M561.3,303.6h85.9c3.1,0,5.7,2.5,5.7,5.7c0,3.1-2.5,5.7-5.7,5.7h-85.9V303.6z"/>
			<line class="st13" x1="561.3" y1="321.5" x2="561.3" y2="223.6"/>
		</g>
		<g class="st5">
			<path class="st9" d="M473.9,302.3c0.5-0.1,1.1-0.2,1.8-0.2c1.1,0,1.8,0.2,2.3,0.7c0.4,0.4,0.5,0.8,0.5,1.4c0,0.9-0.6,1.6-1.5,1.9
				v0c0.7,0.2,1.9,0.8,1.9,2.2c0,0.7-0.3,1.3-0.6,1.7c-0.6,0.6-1.5,0.8-2.8,0.8c-0.7,0-1.2-0.1-1.5-0.1V302.3z M474.6,306.1h1.3
				c1.3,0,2.1-0.8,2.1-1.7c0-1.2-0.9-1.7-2.2-1.7c-0.6,0-0.9,0-1.1,0.1V306.1z M474.6,310.4c0.3,0.1,0.6,0.1,1.1,0.1
				c1.3,0,2.6-0.5,2.6-2c0-1.4-1.2-2-2.6-2h-1.1V310.4z"/>
			<path class="st9" d="M485.9,307.8c0,2.3-1.6,3.3-3,3.3c-1.6,0-2.9-1.3-2.9-3.2c0-2.1,1.4-3.3,2.9-3.3
				C484.7,304.6,485.9,305.9,485.9,307.8z M480.6,307.9c0,1.6,1,2.7,2.3,2.7c1.3,0,2.3-1.2,2.3-2.8c0-1.1-0.6-2.7-2.3-2.7
				C481.4,305.1,480.6,306.5,480.6,307.9z"/>
			<path class="st9" d="M492.4,301.7v7.8c0,0.5,0,1,0.1,1.5h-0.6l-0.1-1.2h0c-0.3,0.7-1.1,1.3-2.2,1.3c-1.5,0-2.7-1.3-2.7-3.1
				c0-2.1,1.3-3.4,2.8-3.4c1.1,0,1.8,0.6,2,1.1h0v-3.9H492.4z M491.8,307.2c0-0.2,0-0.4-0.1-0.6c-0.2-0.8-0.9-1.5-2-1.5
				c-1.4,0-2.2,1.2-2.2,2.8c0,1.4,0.7,2.7,2.2,2.7c0.9,0,1.7-0.6,2-1.6c0.1-0.2,0.1-0.3,0.1-0.5V307.2z"/>
			<path class="st9" d="M494.6,307.8c0,2,1.1,2.8,2.4,2.8c0.9,0,1.4-0.2,1.7-0.4l0.2,0.5c-0.2,0.1-0.9,0.4-2,0.4
				c-1.8,0-2.9-1.3-2.9-3.1c0-2.1,1.2-3.4,2.8-3.4c2,0,2.4,1.9,2.4,2.8c0,0.2,0,0.3,0,0.4H494.6z M498.6,307.3
				c0-0.9-0.4-2.2-1.9-2.2c-1.4,0-2,1.2-2.1,2.2H498.6z"/>
			<path class="st9" d="M505.8,310.1c0,1.6-0.3,2.4-0.9,2.9c-0.6,0.5-1.4,0.7-2.1,0.7c-0.7,0-1.5-0.2-2-0.5l0.2-0.5
				c0.4,0.3,1.1,0.5,1.9,0.5c1.3,0,2.3-0.7,2.3-2.5v-0.9h0c-0.3,0.6-1.1,1.2-2.2,1.2c-1.6,0-2.7-1.4-2.7-3.1c0-2.2,1.4-3.3,2.8-3.3
				c1.2,0,1.8,0.7,2.1,1.2h0l0-1.1h0.6c0,0.5-0.1,1-0.1,1.6V310.1z M505.1,307.1c0-0.2,0-0.4-0.1-0.6c-0.3-0.8-0.9-1.4-1.9-1.4
				c-1.3,0-2.2,1.1-2.2,2.7c0,1.4,0.7,2.6,2.2,2.6c0.8,0,1.6-0.5,1.9-1.4c0.1-0.2,0.1-0.4,0.1-0.7V307.1z"/>
			<path class="st9" d="M511.7,309.5c0,0.5,0,1,0.1,1.5h-0.6l-0.1-0.9h0c-0.3,0.5-1,1-2,1c-1.3,0-1.8-0.9-1.8-1.7
				c0-1.4,1.3-2.3,3.8-2.3v-0.2c0-0.6-0.1-1.8-1.6-1.8c-0.5,0-1.1,0.1-1.6,0.5l-0.2-0.5c0.6-0.4,1.3-0.5,1.8-0.5
				c1.8,0,2.2,1.4,2.2,2.5V309.5z M511.1,307.6c-1.4,0-3.2,0.2-3.2,1.7c0,0.9,0.6,1.3,1.2,1.3c1,0,1.6-0.6,1.8-1.2
				c0.1-0.1,0.1-0.3,0.1-0.4V307.6z"/>
			<path class="st9" d="M517.6,307.9l-1.1,3.1h-0.6l3.2-8.8h0.6l3.1,8.8h-0.6l-1.1-3.1H517.6z M520.9,307.4l-1.1-2.9
				c-0.2-0.6-0.3-1.1-0.5-1.5h0c-0.1,0.5-0.3,1-0.5,1.5l-1.1,2.9H520.9z"/>
			<path class="st9" d="M528.9,309.4c0,0.5,0,1,0.1,1.5h-0.6l0-1.1h0c-0.3,0.6-1,1.3-2.1,1.3c-0.8,0-2.1-0.4-2.1-2.8v-3.6h0.6v3.5
				c0,1.4,0.4,2.3,1.6,2.3c0.9,0,1.6-0.6,1.8-1.3c0.1-0.2,0.1-0.4,0.1-0.7v-3.9h0.6V309.4z"/>
			<path class="st9" d="M530.9,306.6c0-0.6,0-1.3-0.1-1.9h0.6l0,1.3h0c0.3-0.8,0.9-1.4,1.8-1.4c0.1,0,0.2,0,0.3,0v0.6
				c-0.1,0-0.2,0-0.3,0c-0.9,0-1.5,0.7-1.6,1.7c0,0.2-0.1,0.4-0.1,0.6v3.4h-0.6V306.6z"/>
			<path class="st9" d="M534.9,306.6c0-0.6,0-1.3-0.1-1.9h0.6l0,1.3h0c0.3-0.8,0.9-1.4,1.8-1.4c0.1,0,0.2,0,0.3,0v0.6
				c-0.1,0-0.2,0-0.3,0c-0.9,0-1.5,0.7-1.6,1.7c0,0.2-0.1,0.4-0.1,0.6v3.4h-0.6V306.6z"/>
			<path class="st9" d="M538.6,307.8c0,2,1.1,2.8,2.4,2.8c0.9,0,1.4-0.2,1.7-0.4l0.2,0.5c-0.2,0.1-0.9,0.4-2,0.4
				c-1.8,0-2.9-1.3-2.9-3.1c0-2.1,1.2-3.4,2.8-3.4c2,0,2.4,1.9,2.4,2.8c0,0.2,0,0.3,0,0.4H538.6z M542.6,307.3
				c0-0.9-0.4-2.2-1.9-2.2c-1.4,0-2,1.2-2.1,2.2H542.6z"/>
			<path class="st9" d="M544.8,306.6c0-0.6,0-1.3-0.1-1.9h0.6l0,1.3h0c0.3-0.8,0.9-1.4,1.8-1.4c0.1,0,0.2,0,0.3,0v0.6
				c-0.1,0-0.2,0-0.3,0c-0.9,0-1.5,0.7-1.6,1.7c0,0.2-0.1,0.4-0.1,0.6v3.4h-0.6V306.6z"/>
			<path class="st9" d="M552.6,309.5c0,0.5,0,1,0.1,1.5h-0.6l-0.1-0.9h0c-0.3,0.5-1,1-2,1c-1.3,0-1.8-0.9-1.8-1.7
				c0-1.4,1.3-2.3,3.8-2.3v-0.2c0-0.6-0.1-1.8-1.6-1.8c-0.5,0-1.1,0.1-1.6,0.5l-0.2-0.5c0.6-0.4,1.3-0.5,1.8-0.5
				c1.8,0,2.2,1.4,2.2,2.5V309.5z M551.9,307.6c-1.4,0-3.2,0.2-3.2,1.7c0,0.9,0.6,1.3,1.2,1.3c1,0,1.6-0.6,1.8-1.2
				c0.1-0.1,0.1-0.3,0.1-0.4V307.6z"/>
		</g>
		<g class="st5">
			<path class="st9" d="M501.8,285.5c0.5,0.3,1.2,0.6,1.9,0.6c1.3,0,2.1-0.7,2.1-1.8c0-1-0.5-1.6-1.8-2.1c-1.4-0.5-2.2-1.2-2.2-2.4
				c0-1.3,1.1-2.2,2.5-2.2c0.8,0,1.4,0.2,1.7,0.4l-0.2,0.5c-0.2-0.2-0.8-0.4-1.5-0.4c-1.4,0-1.9,0.9-1.9,1.6c0,1,0.6,1.5,1.8,2
				c1.4,0.6,2.2,1.2,2.2,2.5c0,1.3-0.9,2.4-2.8,2.4c-0.8,0-1.6-0.2-2.1-0.6L501.8,285.5z"/>
			<path class="st9" d="M512.9,285c0,0.5,0,1,0.1,1.5h-0.6l0-1.1h0c-0.3,0.6-1,1.3-2.1,1.3c-0.8,0-2.1-0.4-2.1-2.8v-3.6h0.6v3.5
				c0,1.4,0.4,2.3,1.6,2.3c0.9,0,1.6-0.6,1.8-1.3c0.1-0.2,0.1-0.4,0.1-0.7v-3.9h0.6V285z"/>
			<path class="st9" d="M515,282.2c0-0.8,0-1.4-0.1-2h0.6l0,1.2h0c0.5-0.8,1.2-1.3,2.3-1.3c1.6,0,2.7,1.3,2.7,3.2
				c0,2.2-1.3,3.4-2.8,3.4c-0.9,0-1.7-0.4-2.1-1.2h0v3.6H515V282.2z M515.6,284c0,0.2,0,0.3,0.1,0.5c0.3,1,1.1,1.6,2.1,1.6
				c1.4,0,2.2-1.2,2.2-2.8c0-1.4-0.8-2.7-2.2-2.7c-0.9,0-1.8,0.6-2.1,1.6c0,0.2-0.1,0.4-0.1,0.5V284z"/>
			<path class="st9" d="M522.3,283.3c0,2,1.1,2.8,2.4,2.8c0.9,0,1.4-0.2,1.7-0.4l0.2,0.5c-0.2,0.1-0.9,0.4-2,0.4
				c-1.8,0-2.9-1.3-2.9-3.1c0-2.1,1.2-3.4,2.8-3.4c2,0,2.4,1.9,2.4,2.8c0,0.2,0,0.3,0,0.4H522.3z M526.2,282.8
				c0-0.9-0.4-2.2-1.9-2.2c-1.4,0-2,1.2-2.1,2.2H526.2z"/>
			<path class="st9" d="M528.5,282.1c0-0.6,0-1.3-0.1-1.9h0.6l0,1.3h0c0.3-0.8,0.9-1.4,1.8-1.4c0.1,0,0.2,0,0.3,0v0.6
				c-0.1,0-0.2,0-0.3,0c-0.9,0-1.5,0.7-1.6,1.7c0,0.2-0.1,0.4-0.1,0.6v3.4h-0.6V282.1z"/>
			<path class="st9" d="M536.2,285c0,0.5,0,1,0.1,1.5h-0.6l-0.1-0.9h0c-0.3,0.5-1,1-2,1c-1.3,0-1.8-0.9-1.8-1.7
				c0-1.4,1.3-2.3,3.8-2.3v-0.2c0-0.6-0.1-1.8-1.6-1.8c-0.5,0-1.1,0.1-1.6,0.5l-0.2-0.5c0.6-0.4,1.3-0.5,1.8-0.5
				c1.8,0,2.2,1.4,2.2,2.5V285z M535.6,283.2c-1.4,0-3.2,0.2-3.2,1.7c0,0.9,0.6,1.3,1.2,1.3c1,0,1.6-0.6,1.8-1.2
				c0.1-0.1,0.1-0.3,0.1-0.4V283.2z"/>
			<path class="st9" d="M538.2,281.8c0-0.6,0-1-0.1-1.5h0.6l0,1.1h0c0.4-0.7,1-1.2,2-1.2c0.9,0,1.5,0.6,1.8,1.4h0
				c0.2-0.4,0.4-0.6,0.6-0.8c0.4-0.3,0.8-0.5,1.5-0.5c0.6,0,2,0.3,2,2.7v3.7h-0.6v-3.6c0-1.4-0.5-2.2-1.6-2.2
				c-0.8,0-1.4,0.6-1.6,1.2c-0.1,0.2-0.1,0.4-0.1,0.6v4h-0.6v-3.9c0-1.1-0.5-1.9-1.5-1.9c-0.8,0-1.5,0.7-1.7,1.4
				c-0.1,0.2-0.1,0.4-0.1,0.6v3.8h-0.6V281.8z"/>
			<path class="st9" d="M552.7,285c0,0.5,0,1,0.1,1.5h-0.6l-0.1-0.9h0c-0.3,0.5-1,1-2,1c-1.3,0-1.8-0.9-1.8-1.7
				c0-1.4,1.3-2.3,3.8-2.3v-0.2c0-0.6-0.1-1.8-1.6-1.8c-0.5,0-1.1,0.1-1.6,0.5l-0.2-0.5c0.6-0.4,1.3-0.5,1.8-0.5
				c1.8,0,2.2,1.4,2.2,2.5V285z M552.1,283.2c-1.4,0-3.2,0.2-3.2,1.7c0,0.9,0.6,1.3,1.2,1.3c1,0,1.6-0.6,1.8-1.2
				c0.1-0.1,0.1-0.3,0.1-0.4V283.2z"/>
		</g>
		<g class="st5">
			<path class="st9" d="M512,262l-2.3-8.8h0.6l1.3,4.9c0.3,1.1,0.6,2.2,0.7,3h0c0.1-0.8,0.5-1.9,0.8-3l1.4-4.9h0.6l1.3,4.9
				c0.3,1.1,0.6,2.2,0.7,3h0c0.2-0.9,0.5-1.9,0.8-3l1.4-4.9h0.6l-2.6,8.8h-0.6l-1.3-5c-0.4-1.3-0.6-2.1-0.7-3h0
				c-0.1,0.8-0.4,1.7-0.8,3l-1.5,5H512z"/>
			<path class="st9" d="M524.7,260.5c0,0.5,0,1,0.1,1.5h-0.6l-0.1-0.9h0c-0.3,0.5-1,1-2,1c-1.3,0-1.8-0.9-1.8-1.7
				c0-1.4,1.3-2.3,3.8-2.3V258c0-0.6-0.1-1.8-1.6-1.8c-0.5,0-1.1,0.1-1.6,0.5l-0.2-0.5c0.6-0.4,1.3-0.5,1.8-0.5
				c1.8,0,2.2,1.4,2.2,2.5V260.5z M524.1,258.7c-1.4,0-3.2,0.2-3.2,1.7c0,0.9,0.6,1.3,1.2,1.3c1,0,1.6-0.6,1.8-1.2
				c0.1-0.1,0.1-0.3,0.1-0.4V258.7z"/>
			<path class="st9" d="M526.7,252.8h0.6v9.2h-0.6V252.8z"/>
			<path class="st9" d="M529.4,257.3c0-0.6,0-1-0.1-1.5h0.6l0,1.1h0c0.4-0.7,1-1.2,2-1.2c0.9,0,1.5,0.6,1.8,1.4h0
				c0.2-0.4,0.4-0.6,0.6-0.8c0.4-0.3,0.8-0.5,1.5-0.5c0.6,0,2,0.3,2,2.7v3.7h-0.6v-3.6c0-1.4-0.5-2.2-1.6-2.2
				c-0.8,0-1.4,0.6-1.6,1.2c-0.1,0.2-0.1,0.4-0.1,0.6v4h-0.6v-3.9c0-1.1-0.5-1.9-1.5-1.9c-0.8,0-1.5,0.7-1.7,1.4
				c-0.1,0.2-0.1,0.4-0.1,0.6v3.8h-0.6V257.3z"/>
			<path class="st9" d="M544,260.5c0,0.5,0,1,0.1,1.5h-0.6l-0.1-0.9h0c-0.3,0.5-1,1-2,1c-1.3,0-1.8-0.9-1.8-1.7
				c0-1.4,1.3-2.3,3.8-2.3V258c0-0.6-0.1-1.8-1.6-1.8c-0.5,0-1.1,0.1-1.6,0.5l-0.2-0.5c0.6-0.4,1.3-0.5,1.8-0.5
				c1.8,0,2.2,1.4,2.2,2.5V260.5z M543.3,258.7c-1.4,0-3.2,0.2-3.2,1.7c0,0.9,0.6,1.3,1.2,1.3c1,0,1.6-0.6,1.8-1.2
				c0.1-0.1,0.1-0.3,0.1-0.4V258.7z"/>
			<path class="st9" d="M546,257.7c0-0.6,0-1.3-0.1-1.9h0.6l0,1.3h0c0.3-0.8,0.9-1.4,1.8-1.4c0.1,0,0.2,0,0.3,0v0.6
				c-0.1,0-0.2,0-0.3,0c-0.9,0-1.5,0.7-1.6,1.7c0,0.2-0.1,0.4-0.1,0.6v3.4H546V257.7z"/>
			<path class="st9" d="M551,254.4v1.4h1.8v0.5H551v4.1c0,0.8,0.2,1.3,0.9,1.3c0.3,0,0.6,0,0.7-0.1l0.1,0.5
				c-0.2,0.1-0.5,0.2-0.9,0.2c-0.5,0-0.8-0.1-1.1-0.4c-0.3-0.3-0.4-0.9-0.4-1.5v-3.9h-1.1v-0.5h1.1v-1.1L551,254.4z"/>
		</g>
		<g class="st5">
			<path class="st9" d="M497.4,236.6c0.5,0.3,1.2,0.6,1.9,0.6c1.3,0,2.1-0.7,2.1-1.8c0-1-0.5-1.6-1.8-2.1c-1.4-0.5-2.2-1.2-2.2-2.4
				c0-1.3,1.1-2.2,2.5-2.2c0.8,0,1.4,0.2,1.7,0.4l-0.2,0.5c-0.2-0.2-0.8-0.4-1.5-0.4c-1.4,0-1.9,0.9-1.9,1.6c0,1,0.6,1.5,1.8,2
				c1.4,0.6,2.2,1.2,2.2,2.5c0,1.3-0.9,2.4-2.8,2.4c-0.8,0-1.6-0.2-2.1-0.6L497.4,236.6z"/>
			<path class="st9" d="M507.5,236.1c0,0.5,0,1,0.1,1.5h-0.6l-0.1-0.9h0c-0.3,0.5-1,1-2,1c-1.3,0-1.8-0.9-1.8-1.7
				c0-1.4,1.3-2.3,3.8-2.3v-0.2c0-0.6-0.1-1.8-1.6-1.8c-0.5,0-1.1,0.1-1.6,0.5l-0.2-0.5c0.6-0.4,1.3-0.5,1.8-0.5
				c1.8,0,2.2,1.4,2.2,2.5V236.1z M506.9,234.2c-1.4,0-3.2,0.2-3.2,1.7c0,0.9,0.6,1.3,1.2,1.3c1,0,1.6-0.6,1.8-1.2
				c0.1-0.1,0.1-0.3,0.1-0.4V234.2z"/>
			<path class="st9" d="M509.5,232.8c0-0.6,0-1-0.1-1.5h0.6l0,1.1h0c0.4-0.7,1-1.2,2-1.2c0.9,0,1.5,0.6,1.8,1.4h0
				c0.2-0.4,0.4-0.6,0.6-0.8c0.4-0.3,0.8-0.5,1.5-0.5c0.6,0,2,0.3,2,2.7v3.7h-0.6v-3.6c0-1.4-0.5-2.2-1.6-2.2
				c-0.8,0-1.4,0.6-1.6,1.2c-0.1,0.2-0.1,0.4-0.1,0.6v4h-0.6v-3.9c0-1.1-0.5-1.9-1.5-1.9c-0.8,0-1.5,0.7-1.7,1.4
				c-0.1,0.2-0.1,0.4-0.1,0.6v3.8h-0.6V232.8z"/>
			<path class="st9" d="M520.6,228.6l-0.2,2.9H520l-0.2-2.9H520.6z"/>
			<path class="st9" d="M522.2,236.7c0.3,0.2,0.8,0.4,1.4,0.4c1,0,1.5-0.5,1.5-1.2c0-0.7-0.4-1.1-1.3-1.4c-1-0.4-1.6-0.9-1.6-1.7
				c0-0.9,0.7-1.7,1.9-1.7c0.6,0,1.1,0.2,1.4,0.4l-0.2,0.5c-0.2-0.2-0.6-0.4-1.2-0.4c-0.8,0-1.2,0.5-1.2,1.1c0,0.6,0.4,0.9,1.3,1.3
				c1,0.4,1.6,0.9,1.6,1.8c0,1.1-0.8,1.8-2.1,1.8c-0.6,0-1.2-0.2-1.6-0.4L522.2,236.7z"/>
			<path class="st9" d="M536.1,237.2c-0.4,0.2-1.3,0.4-2.4,0.4c-2.1,0-4.1-1.4-4.1-4.5c0-2.6,1.7-4.6,4.4-4.6c1.1,0,1.8,0.2,2,0.4
				l-0.2,0.5c-0.4-0.2-1.1-0.4-1.8-0.4c-2.4,0-3.8,1.5-3.8,4.1c0,2.4,1.4,3.9,3.7,3.9c0.7,0,1.5-0.2,2-0.4L536.1,237.2z"/>
			<path class="st9" d="M537.5,228.3h0.6v9.2h-0.6V228.3z"/>
			<path class="st9" d="M545.1,236c0,0.5,0,1,0.1,1.5h-0.6l0-1.1h0c-0.3,0.6-1,1.3-2.1,1.3c-0.8,0-2.1-0.4-2.1-2.8v-3.6h0.6v3.5
				c0,1.4,0.4,2.3,1.6,2.3c0.9,0,1.6-0.6,1.8-1.3c0.1-0.2,0.1-0.4,0.1-0.7v-3.9h0.6V236z"/>
			<path class="st9" d="M547.2,228.3h0.6v4.2h0c0.4-0.8,1.2-1.3,2.3-1.3c1.6,0,2.7,1.3,2.7,3.2c0,2.2-1.4,3.3-2.8,3.3
				c-1,0-1.7-0.4-2.2-1.3h0l-0.1,1.1h-0.6c0-0.4,0.1-1,0.1-1.5V228.3z M547.8,235.2c0,0.1,0,0.3,0.1,0.5c0.3,0.9,1.1,1.6,2.1,1.6
				c1.4,0,2.2-1.2,2.2-2.8c0-1.4-0.8-2.7-2.2-2.7c-0.9,0-1.8,0.6-2.1,1.7c0,0.2-0.1,0.3-0.1,0.5V235.2z"/>
		</g>
		<g class="st5">
			<path class="st12" d="M569,42.7c-0.6,0.2-1.8,0.5-2.9,0.5c-1.6,0-2.8-0.4-3.6-1.2c-0.8-0.8-1.2-1.9-1.2-3.2c0-2.9,2.1-4.6,5-4.6
				c1.1,0,2,0.2,2.4,0.4l-0.4,1.6c-0.5-0.2-1.1-0.4-2-0.4c-1.6,0-2.9,0.9-2.9,2.8c0,1.8,1.1,2.9,2.8,2.9c0.5,0,0.8-0.1,1-0.1v-1.8
				h-1.4v-1.5h3.3V42.7z"/>
			<path class="st12" d="M572.1,40.5c0.1,0.8,0.9,1.2,1.8,1.2c0.7,0,1.2-0.1,1.8-0.3l0.3,1.3c-0.6,0.3-1.4,0.4-2.3,0.4
				c-2.2,0-3.4-1.2-3.4-3.2c0-1.6,1-3.4,3.2-3.4c2.1,0,2.8,1.6,2.8,3.2c0,0.3,0,0.6-0.1,0.8H572.1z M574.4,39.2
				c0-0.5-0.2-1.3-1.1-1.3c-0.8,0-1.2,0.8-1.2,1.3H574.4z"/>
			<path class="st12" d="M583.7,39.8c0,2.3-1.6,3.4-3.3,3.4c-1.9,0-3.3-1.2-3.3-3.3c0-2.1,1.3-3.4,3.4-3.4
				C582.4,36.6,583.7,37.9,583.7,39.8z M579.1,39.9c0,1.1,0.5,1.9,1.3,1.9c0.8,0,1.3-0.8,1.3-1.9c0-0.9-0.4-1.9-1.3-1.9
				C579.4,38,579.1,39,579.1,39.9z"/>
			<path class="st12" d="M591,36.7c0,0.4-0.1,0.9-0.1,1.9v3.5c0,1.2-0.2,2.2-1,2.9c-0.7,0.6-1.6,0.8-2.6,0.8c-0.8,0-1.7-0.2-2.3-0.5
				l0.4-1.5c0.4,0.2,1.1,0.5,1.8,0.5c0.9,0,1.6-0.5,1.6-1.7v-0.4h0c-0.4,0.5-1,0.8-1.7,0.8c-1.6,0-2.7-1.3-2.7-3.1
				c0-2,1.3-3.3,2.9-3.3c0.9,0,1.4,0.4,1.7,0.9h0l0.1-0.8H591z M589,39.3c0-0.1,0-0.3,0-0.4c-0.1-0.5-0.5-0.9-1.1-0.9
				c-0.7,0-1.3,0.6-1.3,1.8c0,0.9,0.5,1.7,1.3,1.7c0.5,0,0.9-0.3,1-0.8c0.1-0.1,0.1-0.4,0.1-0.5V39.3z"/>
			<path class="st12" d="M592.5,38.8c0-0.9,0-1.5-0.1-2.1h1.7l0.1,1.2h0.1c0.3-0.9,1.1-1.3,1.7-1.3c0.2,0,0.3,0,0.4,0v1.9
				c-0.1,0-0.3-0.1-0.5-0.1c-0.7,0-1.2,0.4-1.4,1c0,0.1,0,0.3,0,0.4v3.2h-2V38.8z"/>
			<path class="st12" d="M600.9,43.1l-0.1-0.6h0c-0.4,0.5-1.1,0.8-1.8,0.8c-1.3,0-2.1-0.9-2.1-1.9c0-1.6,1.5-2.4,3.7-2.4v-0.1
				c0-0.3-0.2-0.8-1.2-0.8c-0.6,0-1.3,0.2-1.8,0.5l-0.4-1.3c0.4-0.2,1.3-0.6,2.5-0.6c2.1,0,2.8,1.2,2.8,2.7v2.2c0,0.6,0,1.2,0.1,1.5
				H600.9z M600.7,40.1c-1,0-1.8,0.2-1.8,1c0,0.5,0.3,0.8,0.8,0.8c0.5,0,0.9-0.3,1-0.7c0-0.1,0-0.2,0-0.3V40.1z"/>
			<path class="st12" d="M604.2,38.9c0-0.8,0-1.5-0.1-2.1h1.7l0.1,0.9h0c0.5-0.7,1.2-1,2.1-1c1.4,0,2.6,1.2,2.6,3.2
				c0,2.3-1.5,3.4-2.9,3.4c-0.8,0-1.4-0.3-1.6-0.7h0v3.2h-2V38.9z M606.2,40.4c0,0.2,0,0.3,0,0.4c0.1,0.5,0.6,0.9,1.2,0.9
				c0.9,0,1.4-0.7,1.4-1.8c0-1-0.5-1.8-1.3-1.8c-0.6,0-1.1,0.4-1.2,1c0,0.1,0,0.2,0,0.4V40.4z"/>
			<path class="st12" d="M611.9,33.9h2v3.6h0c0.2-0.3,0.5-0.5,0.8-0.6c0.3-0.2,0.7-0.2,1-0.2c1.3,0,2.2,0.9,2.2,2.8v3.7h-2v-3.5
				c0-0.8-0.3-1.4-1-1.4c-0.5,0-0.8,0.3-1,0.7c-0.1,0.1-0.1,0.3-0.1,0.4v3.8h-2V33.9z"/>
			<path class="st12" d="M621.6,35c0,0.5-0.4,1-1.1,1c-0.6,0-1-0.4-1-1c0-0.6,0.4-1,1-1C621.2,34,621.6,34.4,621.6,35z M619.6,43.1
				v-6.3h2v6.3H619.6z"/>
			<path class="st12" d="M627.9,42.9c-0.4,0.2-1,0.3-1.8,0.3c-2.1,0-3.4-1.2-3.4-3.2c0-1.9,1.3-3.4,3.6-3.4c0.5,0,1.1,0.1,1.5,0.2
				l-0.3,1.5c-0.2-0.1-0.6-0.2-1.1-0.2c-1,0-1.7,0.7-1.7,1.8c0,1.2,0.8,1.8,1.7,1.8c0.5,0,0.8-0.1,1.1-0.2L627.9,42.9z"/>
			<path class="st12" d="M635.2,43.1l-0.1-0.6h0c-0.4,0.5-1.1,0.8-1.8,0.8c-1.3,0-2.1-0.9-2.1-1.9c0-1.6,1.5-2.4,3.7-2.4v-0.1
				c0-0.3-0.2-0.8-1.2-0.8c-0.6,0-1.3,0.2-1.8,0.5l-0.4-1.3c0.4-0.2,1.3-0.6,2.5-0.6c2.1,0,2.8,1.2,2.8,2.7v2.2c0,0.6,0,1.2,0.1,1.5
				H635.2z M635,40.1c-1,0-1.8,0.2-1.8,1c0,0.5,0.3,0.8,0.8,0.8c0.5,0,0.9-0.3,1-0.7c0-0.1,0-0.2,0-0.3V40.1z"/>
			<path class="st12" d="M638.4,38.8c0-0.9,0-1.5-0.1-2.1h1.7l0.1,1.2h0.1c0.3-0.9,1.1-1.3,1.7-1.3c0.2,0,0.3,0,0.4,0v1.9
				c-0.1,0-0.3-0.1-0.5-0.1c-0.7,0-1.2,0.4-1.4,1c0,0.1,0,0.3,0,0.4v3.2h-2V38.8z"/>
			<path class="st12" d="M644.8,40.5c0.1,0.8,0.9,1.2,1.8,1.2c0.7,0,1.2-0.1,1.8-0.3l0.3,1.3c-0.6,0.3-1.4,0.4-2.3,0.4
				c-2.2,0-3.4-1.2-3.4-3.2c0-1.6,1-3.4,3.2-3.4c2.1,0,2.8,1.6,2.8,3.2c0,0.3,0,0.6-0.1,0.8H644.8z M647.1,39.2
				c0-0.5-0.2-1.3-1.1-1.3c-0.8,0-1.2,0.8-1.2,1.3H647.1z"/>
			<path class="st12" d="M653.7,43.1l-0.1-0.6h0c-0.4,0.5-1.1,0.8-1.8,0.8c-1.3,0-2.1-0.9-2.1-1.9c0-1.6,1.5-2.4,3.7-2.4v-0.1
				c0-0.3-0.2-0.8-1.2-0.8c-0.6,0-1.3,0.2-1.8,0.5l-0.4-1.3c0.4-0.2,1.3-0.6,2.5-0.6c2.1,0,2.8,1.2,2.8,2.7v2.2c0,0.6,0,1.2,0.1,1.5
				H653.7z M653.5,40.1c-1,0-1.8,0.2-1.8,1c0,0.5,0.3,0.8,0.8,0.8c0.5,0,0.9-0.3,1-0.7c0-0.1,0-0.2,0-0.3V40.1z"/>
		</g>
		<g class="st5">
			<path class="st9" d="M524.9,143.1c-0.4,0.2-1.3,0.4-2.4,0.4c-2.1,0-4.1-1.4-4.1-4.5c0-2.6,1.7-4.6,4.4-4.6c1.1,0,1.8,0.2,2,0.4
				l-0.2,0.5c-0.4-0.2-1.1-0.4-1.8-0.4c-2.4,0-3.8,1.5-3.8,4.1c0,2.4,1.3,3.9,3.7,3.9c0.7,0,1.5-0.2,2-0.4L524.9,143.1z"/>
			<path class="st9" d="M526.4,140.2c0,2,1.1,2.8,2.4,2.8c0.9,0,1.4-0.2,1.7-0.4l0.2,0.5c-0.2,0.1-0.9,0.4-2,0.4
				c-1.8,0-2.9-1.3-2.9-3.1c0-2.1,1.2-3.4,2.8-3.4c2,0,2.4,1.9,2.4,2.8c0,0.2,0,0.3,0,0.4H526.4z M530.4,139.7
				c0-0.9-0.4-2.2-1.9-2.2c-1.4,0-2,1.2-2.1,2.2H530.4z"/>
			<path class="st9" d="M532.6,138.7c0-0.6,0-1-0.1-1.5h0.6l0,1.1h0c0.3-0.7,1.1-1.3,2.1-1.3c0.6,0,2.2,0.3,2.2,2.6v3.7h-0.6v-3.7
				c0-1.1-0.4-2.2-1.7-2.2c-0.9,0-1.6,0.6-1.9,1.4c0,0.2-0.1,0.4-0.1,0.6v3.9h-0.6V138.7z"/>
			<path class="st9" d="M540.4,135.8v1.4h1.8v0.5h-1.8v4.1c0,0.8,0.2,1.3,0.9,1.3c0.3,0,0.6,0,0.7-0.1l0.1,0.5
				c-0.2,0.1-0.5,0.2-0.9,0.2c-0.5,0-0.8-0.1-1.1-0.4c-0.3-0.3-0.4-0.9-0.4-1.5v-3.9h-1.1v-0.5h1.1V136L540.4,135.8z"/>
			<path class="st9" d="M543.6,139c0-0.6,0-1.3-0.1-1.9h0.6l0,1.3h0c0.3-0.8,0.9-1.4,1.8-1.4c0.1,0,0.2,0,0.3,0v0.6
				c-0.1,0-0.2,0-0.3,0c-0.9,0-1.5,0.7-1.6,1.7c0,0.2-0.1,0.4-0.1,0.6v3.4h-0.6V139z"/>
			<path class="st9" d="M552.6,140.2c0,2.3-1.6,3.3-3,3.3c-1.6,0-2.9-1.3-2.9-3.2c0-2.1,1.4-3.3,2.9-3.3
				C551.4,137,552.6,138.3,552.6,140.2z M547.4,140.3c0,1.6,1,2.7,2.3,2.7c1.3,0,2.3-1.2,2.3-2.8c0-1.1-0.6-2.7-2.3-2.7
				C548.1,137.6,547.4,139,547.4,140.3z"/>
		</g>
		<g class="st5">
			<path class="st9" d="M537,118c0.5,0.3,1.2,0.6,1.9,0.6c1.3,0,2.1-0.7,2.1-1.8c0-1-0.5-1.6-1.8-2.1c-1.4-0.5-2.2-1.2-2.2-2.4
				c0-1.3,1.1-2.2,2.5-2.2c0.8,0,1.4,0.2,1.7,0.4l-0.2,0.5c-0.2-0.2-0.8-0.4-1.5-0.4c-1.4,0-1.9,0.9-1.9,1.6c0,1,0.6,1.5,1.8,2
				c1.4,0.6,2.2,1.2,2.2,2.5c0,1.3-0.9,2.4-2.8,2.4c-0.8,0-1.6-0.2-2.1-0.6L537,118z"/>
			<path class="st9" d="M548.1,117.4c0,0.5,0,1,0.1,1.5h-0.6l0-1.1h0c-0.3,0.6-1,1.3-2.1,1.3c-0.8,0-2.1-0.4-2.1-2.8v-3.6h0.6v3.5
				c0,1.4,0.4,2.3,1.6,2.3c0.9,0,1.6-0.6,1.8-1.3c0.1-0.2,0.1-0.4,0.1-0.7v-3.9h0.6V117.4z"/>
			<path class="st9" d="M550.2,114.6c0-0.6,0-1.3-0.1-1.9h0.6l0,1.3h0c0.3-0.8,0.9-1.4,1.8-1.4c0.1,0,0.2,0,0.3,0v0.6
				c-0.1,0-0.2,0-0.3,0c-0.9,0-1.5,0.7-1.6,1.7c0,0.2-0.1,0.4-0.1,0.6v3.4h-0.6V114.6z"/>
		</g>
		<g class="st5">
			<path class="st9" d="M488.3,90.3c-0.1-1.3-0.2-2.9-0.2-3.9h0c-0.3,0.9-0.7,2-1.2,3.3l-1.8,4.8h-0.4l-1.7-4.6
				c-0.5-1.4-0.9-2.4-1.1-3.4h0c0,1-0.1,2.5-0.2,4l-0.3,4h-0.6l0.6-8.8h0.7l1.9,5c0.4,1.1,0.7,2,1,2.8h0c0.2-0.8,0.5-1.7,1-2.8
				l2-5.1h0.7l0.6,8.8h-0.6L488.3,90.3z"/>
			<path class="st9" d="M491.2,91.3c0,2,1.1,2.8,2.4,2.8c0.9,0,1.4-0.2,1.7-0.4l0.2,0.5c-0.2,0.1-0.9,0.4-2,0.4
				c-1.8,0-2.9-1.3-2.9-3.1c0-2.1,1.2-3.4,2.8-3.4c2,0,2.4,1.9,2.4,2.8c0,0.2,0,0.3,0,0.4H491.2z M495.2,90.8c0-0.9-0.4-2.2-1.9-2.2
				c-1.4,0-2,1.2-2.1,2.2H495.2z"/>
			<path class="st9" d="M498.3,86.9v1.4h1.8v0.5h-1.8v4.1c0,0.8,0.2,1.3,0.9,1.3c0.3,0,0.6,0,0.7-0.1l0.1,0.5
				c-0.2,0.1-0.5,0.2-0.9,0.2c-0.5,0-0.8-0.1-1.1-0.4c-0.3-0.3-0.4-0.9-0.4-1.5v-3.9h-1.1v-0.5h1.1v-1.1L498.3,86.9z"/>
			<path class="st9" d="M501.4,90.1c0-0.6,0-1.3-0.1-1.9h0.6l0,1.3h0c0.3-0.8,0.9-1.4,1.8-1.4c0.1,0,0.2,0,0.3,0v0.6
				c-0.1,0-0.2,0-0.3,0c-0.9,0-1.5,0.7-1.6,1.7c0,0.2-0.1,0.4-0.1,0.6v3.4h-0.6V90.1z"/>
			<path class="st9" d="M510.5,91.3c0,2.3-1.6,3.3-3,3.3c-1.6,0-2.9-1.3-2.9-3.2c0-2.1,1.4-3.3,2.9-3.3
				C509.3,88.1,510.5,89.4,510.5,91.3z M505.2,91.4c0,1.6,1,2.7,2.3,2.7c1.3,0,2.3-1.2,2.3-2.8c0-1.1-0.6-2.7-2.3-2.7
				C506,88.6,505.2,90,505.2,91.4z"/>
			<path class="st9" d="M512,90.2c0-0.8,0-1.4-0.1-2h0.6l0,1.2h0c0.5-0.8,1.2-1.3,2.3-1.3c1.6,0,2.7,1.3,2.7,3.2
				c0,2.2-1.3,3.4-2.8,3.4c-0.9,0-1.7-0.4-2.1-1.2h0V97H512V90.2z M512.7,92c0,0.2,0,0.3,0.1,0.5c0.3,1,1.1,1.6,2.1,1.6
				c1.4,0,2.2-1.2,2.2-2.8c0-1.4-0.8-2.7-2.2-2.7c-0.9,0-1.8,0.6-2.1,1.6c0,0.2-0.1,0.4-0.1,0.5V92z"/>
			<path class="st9" d="M524.5,91.3c0,2.3-1.6,3.3-3,3.3c-1.6,0-2.9-1.3-2.9-3.2c0-2.1,1.4-3.3,2.9-3.3
				C523.4,88.1,524.5,89.4,524.5,91.3z M519.3,91.4c0,1.6,1,2.7,2.3,2.7c1.3,0,2.3-1.2,2.3-2.8c0-1.1-0.6-2.7-2.3-2.7
				C520,88.6,519.3,90,519.3,91.4z"/>
			<path class="st9" d="M526.1,85.3h0.6v9.2h-0.6V85.3z"/>
			<path class="st9" d="M529.7,86.5c0,0.3-0.2,0.5-0.5,0.5c-0.3,0-0.5-0.2-0.5-0.5c0-0.3,0.2-0.5,0.5-0.5
				C529.5,85.9,529.7,86.2,529.7,86.5z M528.9,94.5v-6.2h0.6v6.2H528.9z"/>
			<path class="st9" d="M532.4,86.9v1.4h1.8v0.5h-1.8v4.1c0,0.8,0.2,1.3,0.9,1.3c0.3,0,0.6,0,0.7-0.1l0.1,0.5
				c-0.2,0.1-0.5,0.2-0.9,0.2c-0.5,0-0.8-0.1-1.1-0.4c-0.3-0.3-0.4-0.9-0.4-1.5v-3.9h-1.1v-0.5h1.1v-1.1L532.4,86.9z"/>
			<path class="st9" d="M539.5,93c0,0.5,0,1,0.1,1.5H539l-0.1-0.9h0c-0.3,0.5-1,1-2,1c-1.3,0-1.8-0.9-1.8-1.7c0-1.4,1.3-2.3,3.8-2.3
				v-0.2c0-0.6-0.1-1.8-1.6-1.8c-0.5,0-1.1,0.1-1.6,0.5l-0.2-0.5c0.6-0.4,1.3-0.5,1.8-0.5c1.8,0,2.2,1.4,2.2,2.5V93z M538.9,91.1
				c-1.4,0-3.2,0.2-3.2,1.7c0,0.9,0.6,1.3,1.2,1.3c1,0,1.6-0.6,1.8-1.2c0.1-0.1,0.1-0.3,0.1-0.4V91.1z"/>
			<path class="st9" d="M541.5,89.7c0-0.6,0-1-0.1-1.5h0.6l0,1.1h0c0.3-0.7,1.1-1.3,2.1-1.3c0.6,0,2.2,0.3,2.2,2.6v3.7h-0.6v-3.7
				c0-1.1-0.4-2.2-1.7-2.2c-0.9,0-1.6,0.6-1.9,1.4c0,0.2-0.1,0.4-0.1,0.6v3.9h-0.6V89.7z"/>
			<path class="st9" d="M552.3,93c0,0.5,0,1,0.1,1.5h-0.6l-0.1-0.9h0c-0.3,0.5-1,1-2,1c-1.3,0-1.8-0.9-1.8-1.7
				c0-1.4,1.3-2.3,3.8-2.3v-0.2c0-0.6-0.1-1.8-1.6-1.8c-0.5,0-1.1,0.1-1.6,0.5l-0.2-0.5c0.6-0.4,1.3-0.5,1.8-0.5
				c1.8,0,2.2,1.4,2.2,2.5V93z M551.7,91.1c-1.4,0-3.2,0.2-3.2,1.7c0,0.9,0.6,1.3,1.2,1.3c1,0,1.6-0.6,1.8-1.2
				c0.1-0.1,0.1-0.3,0.1-0.4V91.1z"/>
		</g>
		<g class="st5">
			<path class="st9" d="M525.1,70v-8.8h0.6l3.4,5.2c0.7,1.1,1.2,1.9,1.6,2.8l0,0c-0.1-1.2-0.1-2.2-0.1-3.6v-4.3h0.6V70h-0.6
				l-3.3-5.1c-0.6-1-1.2-1.9-1.7-2.8l0,0c0.1,1.1,0.1,2,0.1,3.5V70H525.1z"/>
			<path class="st9" d="M538.7,66.8c0,2.3-1.6,3.3-3,3.3c-1.6,0-2.9-1.3-2.9-3.2c0-2.1,1.4-3.3,2.9-3.3
				C537.5,63.6,538.7,64.9,538.7,66.8z M533.4,66.9c0,1.6,1,2.7,2.3,2.7c1.3,0,2.3-1.2,2.3-2.8c0-1.1-0.6-2.7-2.3-2.7
				C534.2,64.1,533.4,65.6,533.4,66.9z"/>
			<path class="st9" d="M540.2,65.6c0-0.6,0-1.3-0.1-1.9h0.6l0,1.3h0c0.3-0.8,0.9-1.4,1.8-1.4c0.1,0,0.2,0,0.3,0v0.6
				c-0.1,0-0.2,0-0.3,0c-0.9,0-1.5,0.7-1.6,1.7c0,0.2-0.1,0.4-0.1,0.6V70h-0.6V65.6z"/>
			<path class="st9" d="M545.3,62.4v1.4h1.8v0.5h-1.8v4.1c0,0.8,0.2,1.3,0.9,1.3c0.3,0,0.6,0,0.7-0.1L547,70
				c-0.2,0.1-0.5,0.2-0.9,0.2c-0.5,0-0.8-0.1-1.1-0.4c-0.3-0.3-0.4-0.9-0.4-1.5v-3.9h-1.1v-0.5h1.1v-1.1L545.3,62.4z"/>
			<path class="st9" d="M548.4,66.8c0,2,1.1,2.8,2.4,2.8c0.9,0,1.4-0.2,1.7-0.4l0.2,0.5c-0.2,0.1-0.9,0.4-2,0.4
				c-1.8,0-2.9-1.3-2.9-3.1c0-2.1,1.2-3.4,2.8-3.4c2,0,2.4,1.9,2.4,2.8c0,0.2,0,0.3,0,0.4H548.4z M552.4,66.3c0-0.9-0.4-2.2-1.9-2.2
				c-1.4,0-2,1.2-2.1,2.2H552.4z"/>
		</g>
		<g>
			<path class="st6" d="M561.3,62.7H732c3.1,0,5.7,2.5,5.7,5.7c0,3.1-2.5,5.7-5.7,5.7H561.3V62.7z"/>
			<path class="st6" d="M561.3,87.1h111.3c3.1,0,5.7,2.5,5.7,5.7c0,3.1-2.5,5.7-5.7,5.7H561.3V87.1z"/>
			<path class="st6" d="M561.3,111.6h97.8c3.1,0,5.7,2.5,5.7,5.7c0,3.1-2.5,5.7-5.7,5.7h-97.8V111.6z"/>
			<path class="st6" d="M561.3,136.1h72.3c3.1,0,5.7,2.5,5.7,5.7c0,3.1-2.5,5.7-5.7,5.7h-72.3V136.1z"/>
			<line class="st13" x1="561.3" y1="154" x2="561.3" y2="56.1"/>
		</g>
		<g class="st5">
			<path class="st9" d="M562.6,369.5c0.7-0.1,1.7-0.2,2.7-0.2c1.7,0,2.7,0.3,3.6,0.9c0.9,0.7,1.5,1.8,1.5,3.3c0,1.7-0.6,2.8-1.5,3.5
				c-0.9,0.8-2.3,1.1-4,1.1c-1,0-1.8-0.1-2.2-0.1V369.5z M564.6,376.7c0.2,0,0.4,0,0.7,0c1.8,0,3-1,3-3.1c0-1.8-1.1-2.8-2.8-2.8
				c-0.4,0-0.7,0-0.9,0.1V376.7z"/>
			<path class="st9" d="M573.7,370.1c0,0.5-0.4,1-1.1,1c-0.6,0-1-0.4-1-1c0-0.6,0.4-1,1-1C573.3,369.1,573.7,369.5,573.7,370.1z
				 M571.6,378.2v-6.3h2v6.3H571.6z"/>
			<path class="st9" d="M576.7,371.8l0.9,2.9c0.2,0.5,0.3,1,0.4,1.5h0c0.1-0.5,0.2-1,0.4-1.5l0.8-2.9h2.1l-2.4,6.3h-2l-2.3-6.3
				H576.7z"/>
			<path class="st9" d="M584.1,370.1c0,0.5-0.4,1-1.1,1c-0.6,0-1-0.4-1-1c0-0.6,0.4-1,1-1C583.7,369.1,584.1,369.5,584.1,370.1z
				 M582.1,378.2v-6.3h2v6.3H582.1z"/>
			<path class="st9" d="M585.6,376.5c0.4,0.2,1.1,0.5,1.7,0.5c0.6,0,0.8-0.2,0.8-0.5c0-0.3-0.2-0.5-0.9-0.7
				c-1.3-0.4-1.8-1.2-1.8-1.9c0-1.2,1-2.1,2.6-2.1c0.7,0,1.4,0.2,1.8,0.4l-0.4,1.4c-0.3-0.2-0.8-0.4-1.4-0.4c-0.5,0-0.8,0.2-0.8,0.5
				c0,0.3,0.2,0.5,1,0.7c1.2,0.4,1.7,1,1.7,2c0,1.2-0.9,2.1-2.8,2.1c-0.8,0-1.6-0.2-2.1-0.4L585.6,376.5z"/>
			<path class="st9" d="M593.3,370.1c0,0.5-0.4,1-1.1,1c-0.6,0-1-0.4-1-1c0-0.6,0.4-1,1-1C592.9,369.1,593.3,369.5,593.3,370.1z
				 M591.3,378.2v-6.3h2v6.3H591.3z"/>
			<path class="st9" d="M601.1,374.9c0,2.3-1.6,3.4-3.4,3.4c-1.9,0-3.3-1.2-3.3-3.3c0-2.1,1.4-3.4,3.4-3.4
				C599.8,371.7,601.1,373,601.1,374.9z M596.5,375c0,1.1,0.5,1.9,1.3,1.9c0.8,0,1.3-0.8,1.3-1.9c0-0.9-0.4-1.9-1.3-1.9
				C596.9,373.1,596.5,374.1,596.5,375z"/>
			<path class="st9" d="M602.3,373.9c0-0.8,0-1.5-0.1-2h1.7l0.1,0.9h0c0.3-0.4,0.9-1,2-1c1.3,0,2.3,0.9,2.3,2.7v3.8h-2v-3.5
				c0-0.8-0.3-1.4-1-1.4c-0.5,0-0.9,0.4-1,0.7c-0.1,0.1-0.1,0.3-0.1,0.5v3.7h-2V373.9z"/>
		</g>
		<line class="st13" x1="561.3" y1="489" x2="561.3" y2="391.2"/>
		<g class="st5">
			<path class="st12" d="M575.9,471.4l-1.1,3.1h-0.6l3.2-8.8h0.6l3.1,8.8h-0.6l-1.1-3.1H575.9z M579.2,470.8l-1.1-2.9
				c-0.2-0.6-0.3-1.1-0.5-1.5h0c-0.1,0.5-0.3,1-0.5,1.5l-1.1,2.9H579.2z"/>
			<path class="st12" d="M582.4,470.2c0-0.8,0-1.4-0.1-2h0.6l0,1.2h0c0.5-0.8,1.2-1.3,2.3-1.3c1.6,0,2.7,1.3,2.7,3.2
				c0,2.2-1.3,3.4-2.8,3.4c-0.9,0-1.7-0.4-2.1-1.2h0v3.6h-0.6V470.2z M583.1,472c0,0.2,0,0.3,0.1,0.5c0.3,1,1.1,1.6,2.1,1.6
				c1.4,0,2.2-1.2,2.2-2.8c0-1.4-0.8-2.7-2.2-2.7c-0.9,0-1.8,0.6-2.1,1.6c0,0.2-0.1,0.4-0.1,0.5V472z"/>
			<path class="st12" d="M589.6,470.2c0-0.8,0-1.4-0.1-2h0.6l0,1.2h0c0.5-0.8,1.2-1.3,2.3-1.3c1.6,0,2.7,1.3,2.7,3.2
				c0,2.2-1.3,3.4-2.8,3.4c-0.9,0-1.7-0.4-2.1-1.2h0v3.6h-0.6V470.2z M590.2,472c0,0.2,0,0.3,0.1,0.5c0.3,1,1.1,1.6,2.1,1.6
				c1.4,0,2.2-1.2,2.2-2.8c0-1.4-0.8-2.7-2.2-2.7c-0.9,0-1.8,0.6-2.1,1.6c0,0.2-0.1,0.4-0.1,0.5V472z"/>
			<path class="st12" d="M600.7,472.9c0,0.5,0,1,0.1,1.5h-0.6l-0.1-0.9h0c-0.3,0.5-1,1-2,1c-1.3,0-1.8-0.9-1.8-1.7
				c0-1.4,1.3-2.3,3.8-2.3v-0.2c0-0.6-0.1-1.8-1.6-1.8c-0.5,0-1.1,0.1-1.6,0.5l-0.2-0.5c0.6-0.4,1.3-0.5,1.8-0.5
				c1.8,0,2.2,1.4,2.2,2.5V472.9z M600,471.1c-1.4,0-3.2,0.2-3.2,1.7c0,0.9,0.6,1.3,1.2,1.3c1,0,1.6-0.6,1.8-1.2
				c0.1-0.1,0.1-0.3,0.1-0.4V471.1z"/>
			<path class="st12" d="M602.7,470.1c0-0.6,0-1.3-0.1-1.9h0.6l0,1.3h0c0.3-0.8,0.9-1.4,1.8-1.4c0.1,0,0.2,0,0.3,0v0.6
				c-0.1,0-0.2,0-0.3,0c-0.9,0-1.5,0.7-1.6,1.7c0,0.2-0.1,0.4-0.1,0.6v3.4h-0.6V470.1z"/>
			<path class="st12" d="M606.5,471.2c0,2,1.1,2.8,2.4,2.8c0.9,0,1.4-0.2,1.7-0.4l0.2,0.5c-0.2,0.1-0.9,0.4-2,0.4
				c-1.8,0-2.9-1.3-2.9-3.1c0-2.1,1.2-3.4,2.8-3.4c2,0,2.4,1.9,2.4,2.8c0,0.2,0,0.3,0,0.4H606.5z M610.4,470.7
				c0-0.9-0.4-2.2-1.9-2.2c-1.4,0-2,1.2-2.1,2.2H610.4z"/>
			<path class="st12" d="M612.7,465.2h0.6v9.2h-0.6V465.2z"/>
		</g>
		<g class="st5">
			<path class="st12" d="M447.9,441.4c-0.4,0.2-1.4,0.5-2.6,0.5c-1.2,0-2.2-0.3-3.1-1.1c-0.7-0.7-1.2-1.9-1.2-3.3
				c0-2.4,1.6-4.5,4.6-4.5c0.9,0,1.7,0.2,2,0.4l-0.2,0.5c-0.5-0.2-1-0.4-1.9-0.4c-2.4,0-3.9,1.6-3.9,3.9c0,2.5,1.4,3.9,3.8,3.9
				c0.9,0,1.5-0.1,1.8-0.3V438h-2v-0.5h2.6V441.4z"/>
			<path class="st12" d="M449.9,438.6c0,2,1.1,2.8,2.4,2.8c0.9,0,1.4-0.2,1.7-0.4l0.2,0.5c-0.2,0.1-0.9,0.4-2,0.4
				c-1.8,0-2.9-1.3-2.9-3.1c0-2.1,1.2-3.4,2.8-3.4c2,0,2.4,1.9,2.4,2.8c0,0.2,0,0.3,0,0.4H449.9z M453.9,438.1
				c0-0.9-0.4-2.2-1.9-2.2c-1.4,0-2,1.2-2.1,2.2H453.9z"/>
			<path class="st12" d="M456.1,437.1c0-0.6,0-1-0.1-1.5h0.6l0,1.1h0c0.3-0.7,1.1-1.3,2.1-1.3c0.6,0,2.2,0.3,2.2,2.6v3.7h-0.6v-3.7
				c0-1.1-0.4-2.2-1.7-2.2c-0.9,0-1.6,0.6-1.9,1.4c0,0.2-0.1,0.4-0.1,0.6v3.9h-0.6V437.1z"/>
			<path class="st12" d="M463.2,438.6c0,2,1.1,2.8,2.4,2.8c0.9,0,1.4-0.2,1.7-0.4l0.2,0.5c-0.2,0.1-0.9,0.4-2,0.4
				c-1.8,0-2.9-1.3-2.9-3.1c0-2.1,1.2-3.4,2.8-3.4c2,0,2.4,1.9,2.4,2.8c0,0.2,0,0.3,0,0.4H463.2z M467.1,438.1
				c0-0.9-0.4-2.2-1.9-2.2c-1.4,0-2,1.2-2.1,2.2H467.1z"/>
			<path class="st12" d="M469.3,437.4c0-0.6,0-1.3-0.1-1.9h0.6l0,1.3h0c0.3-0.8,0.9-1.4,1.8-1.4c0.1,0,0.2,0,0.3,0v0.6
				c-0.1,0-0.2,0-0.3,0c-0.9,0-1.5,0.7-1.6,1.7c0,0.2-0.1,0.4-0.1,0.6v3.4h-0.6V437.4z"/>
			<path class="st12" d="M477.1,440.3c0,0.5,0,1,0.1,1.5h-0.6l-0.1-0.9h0c-0.3,0.5-1,1-2,1c-1.3,0-1.8-0.9-1.8-1.7
				c0-1.4,1.3-2.3,3.8-2.3v-0.2c0-0.6-0.1-1.8-1.6-1.8c-0.5,0-1.1,0.1-1.6,0.5l-0.2-0.5c0.6-0.4,1.3-0.5,1.8-0.5
				c1.8,0,2.2,1.4,2.2,2.5V440.3z M476.5,438.5c-1.4,0-3.2,0.2-3.2,1.7c0,0.9,0.6,1.3,1.2,1.3c1,0,1.6-0.6,1.8-1.2
				c0.1-0.1,0.1-0.3,0.1-0.4V438.5z"/>
			<path class="st12" d="M479.1,432.6h0.6v9.2h-0.6V432.6z"/>
			<path class="st12" d="M484.7,437.1c0-0.6,0-1-0.1-1.5h0.6l0,1.1h0c0.4-0.7,1-1.2,2-1.2c0.9,0,1.5,0.6,1.8,1.4h0
				c0.2-0.4,0.4-0.6,0.6-0.8c0.4-0.3,0.8-0.5,1.5-0.5c0.6,0,2,0.3,2,2.7v3.7h-0.6v-3.6c0-1.4-0.5-2.2-1.6-2.2
				c-0.8,0-1.4,0.6-1.6,1.2c-0.1,0.2-0.1,0.4-0.1,0.6v4h-0.6v-3.9c0-1.1-0.5-1.9-1.5-1.9c-0.8,0-1.5,0.7-1.7,1.4
				c-0.1,0.2-0.1,0.4-0.1,0.6v3.8h-0.6V437.1z"/>
			<path class="st12" d="M495.4,438.6c0,2,1.1,2.8,2.4,2.8c0.9,0,1.4-0.2,1.7-0.4l0.2,0.5c-0.2,0.1-0.9,0.4-2,0.4
				c-1.8,0-2.9-1.3-2.9-3.1c0-2.1,1.2-3.4,2.8-3.4c2,0,2.4,1.9,2.4,2.8c0,0.2,0,0.3,0,0.4H495.4z M499.4,438.1
				c0-0.9-0.4-2.2-1.9-2.2c-1.4,0-2,1.2-2.1,2.2H499.4z"/>
			<path class="st12" d="M501.6,437.4c0-0.6,0-1.3-0.1-1.9h0.6l0,1.3h0c0.3-0.8,0.9-1.4,1.8-1.4c0.1,0,0.2,0,0.3,0v0.6
				c-0.1,0-0.2,0-0.3,0c-0.9,0-1.5,0.7-1.6,1.7c0,0.2-0.1,0.4-0.1,0.6v3.4h-0.6V437.4z"/>
			<path class="st12" d="M509.6,441.5c-0.3,0.1-0.9,0.4-1.8,0.4c-1.8,0-3-1.3-3-3.2c0-2,1.4-3.3,3.2-3.3c0.8,0,1.4,0.2,1.6,0.4
				l-0.2,0.5c-0.3-0.2-0.8-0.4-1.5-0.4c-1.7,0-2.5,1.3-2.5,2.7c0,1.6,1,2.7,2.5,2.7c0.7,0,1.2-0.2,1.6-0.4L509.6,441.5z"/>
			<path class="st12" d="M511.1,432.6h0.6v4.1h0c0.2-0.4,0.5-0.7,0.8-0.9c0.4-0.2,0.8-0.4,1.3-0.4c0.6,0,2.2,0.3,2.2,2.6v3.8h-0.6
				v-3.7c0-1.1-0.4-2.1-1.7-2.1c-0.9,0-1.6,0.6-1.9,1.4c-0.1,0.2-0.1,0.4-0.1,0.6v3.8h-0.6V432.6z"/>
			<path class="st12" d="M521.9,440.3c0,0.5,0,1,0.1,1.5h-0.6l-0.1-0.9h0c-0.3,0.5-1,1-2,1c-1.3,0-1.8-0.9-1.8-1.7
				c0-1.4,1.3-2.3,3.8-2.3v-0.2c0-0.6-0.1-1.8-1.6-1.8c-0.5,0-1.1,0.1-1.6,0.5l-0.2-0.5c0.6-0.4,1.3-0.5,1.8-0.5
				c1.8,0,2.2,1.4,2.2,2.5V440.3z M521.3,438.5c-1.4,0-3.2,0.2-3.2,1.7c0,0.9,0.6,1.3,1.2,1.3c1,0,1.6-0.6,1.8-1.2
				c0.1-0.1,0.1-0.3,0.1-0.4V438.5z"/>
			<path class="st12" d="M523.9,437.1c0-0.6,0-1-0.1-1.5h0.6l0,1.1h0c0.3-0.7,1.1-1.3,2.1-1.3c0.6,0,2.2,0.3,2.2,2.6v3.7h-0.6v-3.7
				c0-1.1-0.4-2.2-1.7-2.2c-0.9,0-1.6,0.6-1.9,1.4c0,0.2-0.1,0.4-0.1,0.6v3.9h-0.6V437.1z"/>
			<path class="st12" d="M535.9,432.6v7.8c0,0.5,0,1,0.1,1.5h-0.6l-0.1-1.2h0c-0.3,0.7-1.1,1.3-2.2,1.3c-1.5,0-2.7-1.3-2.7-3.1
				c0-2.1,1.3-3.4,2.8-3.4c1.1,0,1.8,0.6,2,1.1h0v-3.9H535.9z M535.2,438c0-0.2,0-0.4-0.1-0.6c-0.2-0.8-0.9-1.5-2-1.5
				c-1.4,0-2.2,1.2-2.2,2.8c0,1.4,0.7,2.7,2.2,2.7c0.9,0,1.7-0.6,2-1.6c0.1-0.2,0.1-0.3,0.1-0.5V438z"/>
			<path class="st12" d="M538.8,433.8c0,0.3-0.2,0.5-0.5,0.5c-0.3,0-0.5-0.2-0.5-0.5c0-0.3,0.2-0.5,0.5-0.5
				C538.5,433.2,538.8,433.5,538.8,433.8z M537.9,441.8v-6.2h0.6v6.2H537.9z"/>
			<path class="st12" d="M540.4,441c0.3,0.2,0.8,0.4,1.4,0.4c1,0,1.5-0.5,1.5-1.2c0-0.7-0.4-1.1-1.3-1.4c-1-0.4-1.6-0.9-1.6-1.7
				c0-0.9,0.7-1.7,1.9-1.7c0.6,0,1.1,0.2,1.4,0.4l-0.2,0.5c-0.2-0.2-0.6-0.4-1.2-0.4c-0.8,0-1.2,0.5-1.2,1.1c0,0.6,0.4,0.9,1.3,1.3
				c1,0.4,1.6,0.9,1.6,1.8c0,1.1-0.8,1.8-2.1,1.8c-0.6,0-1.2-0.2-1.6-0.4L540.4,441z"/>
			<path class="st12" d="M545.6,438.6c0,2,1.1,2.8,2.4,2.8c0.9,0,1.4-0.2,1.7-0.4l0.2,0.5c-0.2,0.1-0.9,0.4-2,0.4
				c-1.8,0-2.9-1.3-2.9-3.1c0-2.1,1.2-3.4,2.8-3.4c2,0,2.4,1.9,2.4,2.8c0,0.2,0,0.3,0,0.4H545.6z M549.6,438.1
				c0-0.9-0.4-2.2-1.9-2.2c-1.4,0-2,1.2-2.1,2.2H549.6z"/>
		</g>
		<g class="st5">
			<path class="st12" d="M429.8,400.4h4.3v0.5h-3.7v3.5h3.4v0.5h-3.4v4.2h-0.6V400.4z"/>
			<path class="st12" d="M440.7,406c0,2.3-1.6,3.3-3,3.3c-1.6,0-2.9-1.3-2.9-3.2c0-2.1,1.4-3.3,2.9-3.3
				C439.5,402.8,440.7,404.1,440.7,406z M435.5,406.1c0,1.6,1,2.7,2.3,2.7c1.3,0,2.3-1.2,2.3-2.8c0-1.1-0.6-2.7-2.3-2.7
				C436.2,403.3,435.5,404.7,435.5,406.1z"/>
			<path class="st12" d="M447.6,406c0,2.3-1.6,3.3-3,3.3c-1.6,0-2.9-1.3-2.9-3.2c0-2.1,1.4-3.3,2.9-3.3
				C446.4,402.8,447.6,404.1,447.6,406z M442.4,406.1c0,1.6,1,2.7,2.3,2.7c1.3,0,2.3-1.2,2.3-2.8c0-1.1-0.6-2.7-2.3-2.7
				C443.1,403.3,442.4,404.7,442.4,406.1z"/>
			<path class="st12" d="M454.2,400v7.8c0,0.5,0,1,0.1,1.5h-0.6l-0.1-1.2h0c-0.3,0.7-1.1,1.3-2.2,1.3c-1.5,0-2.7-1.3-2.7-3.1
				c0-2.1,1.3-3.4,2.8-3.4c1.1,0,1.8,0.6,2,1.1h0V400H454.2z M453.5,405.4c0-0.2,0-0.4-0.1-0.6c-0.2-0.8-0.9-1.5-2-1.5
				c-1.4,0-2.2,1.2-2.2,2.8c0,1.4,0.7,2.7,2.2,2.7c0.9,0,1.7-0.6,2-1.6c0.1-0.2,0.1-0.3,0.1-0.5V405.4z"/>
			<path class="st12" d="M463,407.7c0,0.5,0,1,0.1,1.5h-0.6l-0.1-0.9h0c-0.3,0.5-1,1-2,1c-1.3,0-1.8-0.9-1.8-1.7
				c0-1.4,1.3-2.3,3.8-2.3v-0.2c0-0.6-0.1-1.8-1.6-1.8c-0.5,0-1.1,0.1-1.6,0.5l-0.2-0.5c0.6-0.4,1.3-0.5,1.8-0.5
				c1.8,0,2.2,1.4,2.2,2.5V407.7z M462.4,405.8c-1.4,0-3.2,0.2-3.2,1.7c0,0.9,0.6,1.3,1.2,1.3c1,0,1.6-0.6,1.8-1.2
				c0.1-0.1,0.1-0.3,0.1-0.4V405.8z"/>
			<path class="st12" d="M465,404.4c0-0.6,0-1-0.1-1.5h0.6l0,1.1h0c0.3-0.7,1.1-1.3,2.1-1.3c0.6,0,2.2,0.3,2.2,2.6v3.7h-0.6v-3.7
				c0-1.1-0.4-2.2-1.7-2.2c-0.9,0-1.6,0.6-1.9,1.4c0,0.2-0.1,0.4-0.1,0.6v3.9H465V404.4z"/>
			<path class="st12" d="M476.9,400v7.8c0,0.5,0,1,0.1,1.5h-0.6l-0.1-1.2h0c-0.3,0.7-1.1,1.3-2.2,1.3c-1.5,0-2.7-1.3-2.7-3.1
				c0-2.1,1.3-3.4,2.8-3.4c1.1,0,1.8,0.6,2,1.1h0V400H476.9z M476.3,405.4c0-0.2,0-0.4-0.1-0.6c-0.2-0.8-0.9-1.5-2-1.5
				c-1.4,0-2.2,1.2-2.2,2.8c0,1.4,0.7,2.7,2.2,2.7c0.9,0,1.7-0.6,2-1.6c0.1-0.2,0.1-0.3,0.1-0.5V405.4z"/>
			<path class="st12" d="M486.2,408.9c-0.3,0.1-0.9,0.4-1.8,0.4c-1.8,0-3-1.3-3-3.2c0-2,1.4-3.3,3.2-3.3c0.8,0,1.4,0.2,1.6,0.4
				l-0.2,0.5c-0.3-0.2-0.8-0.4-1.5-0.4c-1.7,0-2.5,1.3-2.5,2.7c0,1.6,1,2.7,2.5,2.7c0.7,0,1.2-0.2,1.6-0.4L486.2,408.9z"/>
			<path class="st12" d="M493,406c0,2.3-1.6,3.3-3,3.3c-1.6,0-2.9-1.3-2.9-3.2c0-2.1,1.4-3.3,2.9-3.3C491.8,402.8,493,404.1,493,406
				z M487.7,406.1c0,1.6,1,2.7,2.3,2.7c1.3,0,2.3-1.2,2.3-2.8c0-1.1-0.6-2.7-2.3-2.7C488.5,403.3,487.7,404.7,487.7,406.1z"/>
			<path class="st12" d="M494.5,404.4c0-0.6,0-1-0.1-1.5h0.6l0,1.1h0c0.3-0.7,1.1-1.3,2.1-1.3c0.6,0,2.2,0.3,2.2,2.6v3.7h-0.6v-3.7
				c0-1.1-0.4-2.2-1.7-2.2c-0.9,0-1.6,0.6-1.9,1.4c0,0.2-0.1,0.4-0.1,0.6v3.9h-0.6V404.4z"/>
			<path class="st12" d="M501.2,408.4c0.3,0.2,0.8,0.4,1.4,0.4c1,0,1.5-0.5,1.5-1.2c0-0.7-0.4-1.1-1.3-1.4c-1-0.4-1.6-0.9-1.6-1.7
				c0-0.9,0.7-1.7,1.9-1.7c0.6,0,1.1,0.2,1.4,0.4l-0.2,0.5c-0.2-0.2-0.6-0.4-1.2-0.4c-0.8,0-1.2,0.5-1.2,1.1c0,0.6,0.4,0.9,1.3,1.3
				c1,0.4,1.6,0.9,1.6,1.8c0,1.1-0.8,1.8-2.1,1.8c-0.6,0-1.2-0.2-1.6-0.4L501.2,408.4z"/>
			<path class="st12" d="M511.2,407.7c0,0.5,0,1,0.1,1.5h-0.6l0-1.1h0c-0.3,0.6-1,1.3-2.1,1.3c-0.8,0-2.1-0.4-2.1-2.8V403h0.6v3.5
				c0,1.4,0.4,2.3,1.6,2.3c0.9,0,1.6-0.6,1.8-1.3c0.1-0.2,0.1-0.4,0.1-0.7V403h0.6V407.7z"/>
			<path class="st12" d="M513.2,404.4c0-0.6,0-1-0.1-1.5h0.6l0,1.1h0c0.4-0.7,1-1.2,2-1.2c0.9,0,1.5,0.6,1.8,1.4h0
				c0.2-0.4,0.4-0.6,0.6-0.8c0.4-0.3,0.8-0.5,1.5-0.5c0.6,0,2,0.3,2,2.7v3.7h-0.6v-3.6c0-1.4-0.5-2.2-1.6-2.2
				c-0.8,0-1.4,0.6-1.6,1.2c-0.1,0.2-0.1,0.4-0.1,0.6v4h-0.6v-3.9c0-1.1-0.5-1.9-1.5-1.9c-0.8,0-1.5,0.7-1.7,1.4
				c-0.1,0.2-0.1,0.4-0.1,0.6v3.8h-0.6V404.4z"/>
			<path class="st12" d="M527.8,407.7c0,0.5,0,1,0.1,1.5h-0.6l-0.1-0.9h0c-0.3,0.5-1,1-2,1c-1.3,0-1.8-0.9-1.8-1.7
				c0-1.4,1.3-2.3,3.8-2.3v-0.2c0-0.6-0.1-1.8-1.6-1.8c-0.5,0-1.1,0.1-1.6,0.5l-0.2-0.5c0.6-0.4,1.3-0.5,1.8-0.5
				c1.8,0,2.2,1.4,2.2,2.5V407.7z M527.1,405.8c-1.4,0-3.2,0.2-3.2,1.7c0,0.9,0.6,1.3,1.2,1.3c1,0,1.6-0.6,1.8-1.2
				c0.1-0.1,0.1-0.3,0.1-0.4V405.8z"/>
			<path class="st12" d="M529.8,400h0.6v4.2h0c0.4-0.8,1.2-1.3,2.3-1.3c1.6,0,2.7,1.3,2.7,3.2c0,2.2-1.4,3.3-2.8,3.3
				c-1,0-1.7-0.4-2.2-1.3h0l-0.1,1.1h-0.6c0-0.4,0.1-1,0.1-1.5V400z M530.4,406.8c0,0.1,0,0.3,0.1,0.5c0.3,0.9,1.1,1.6,2.1,1.6
				c1.4,0,2.2-1.2,2.2-2.8c0-1.4-0.8-2.7-2.2-2.7c-0.9,0-1.8,0.6-2.1,1.7c0,0.2-0.1,0.3-0.1,0.5V406.8z"/>
			<path class="st12" d="M536.9,400h0.6v9.2h-0.6V400z"/>
			<path class="st12" d="M539.8,406c0,2,1.1,2.8,2.4,2.8c0.9,0,1.4-0.2,1.7-0.4l0.2,0.5c-0.2,0.1-0.9,0.4-2,0.4
				c-1.8,0-2.9-1.3-2.9-3.1c0-2.1,1.2-3.4,2.8-3.4c2,0,2.4,1.9,2.4,2.8c0,0.2,0,0.3,0,0.4H539.8z M543.7,405.5
				c0-0.9-0.4-2.2-1.9-2.2c-1.4,0-2,1.2-2.1,2.2H543.7z"/>
			<path class="st12" d="M545.7,408.4c0.3,0.2,0.8,0.4,1.4,0.4c1,0,1.5-0.5,1.5-1.2c0-0.7-0.4-1.1-1.3-1.4c-1-0.4-1.6-0.9-1.6-1.7
				c0-0.9,0.7-1.7,1.9-1.7c0.6,0,1.1,0.2,1.4,0.4l-0.2,0.5c-0.2-0.2-0.6-0.4-1.2-0.4c-0.8,0-1.2,0.5-1.2,1.1c0,0.6,0.4,0.9,1.3,1.3
				c1,0.4,1.6,0.9,1.6,1.8c0,1.1-0.8,1.8-2.1,1.8c-0.6,0-1.2-0.2-1.6-0.4L545.7,408.4z"/>
		</g>
		<g class="st5">
			<path class="st12" d="M276,377.8c-0.4,0.2-1.2,0.4-2.2,0.4c-3,0-4.6-1.9-4.6-4.4c0-3,2.1-4.6,4.8-4.6c1,0,1.8,0.2,2.2,0.4
				l-0.4,1.6c-0.4-0.2-1-0.3-1.7-0.3c-1.6,0-2.8,0.9-2.8,2.9c0,1.8,1,2.9,2.8,2.9c0.6,0,1.3-0.1,1.6-0.3L276,377.8z"/>
			<path class="st12" d="M283.2,374.8c0,2.3-1.6,3.4-3.4,3.4c-1.9,0-3.3-1.2-3.3-3.3c0-2.1,1.4-3.4,3.4-3.4
				C281.9,371.6,283.2,372.9,283.2,374.8z M278.6,374.9c0,1.1,0.5,1.9,1.3,1.9c0.8,0,1.3-0.8,1.3-1.9c0-0.9-0.4-1.9-1.3-1.9
				C279,373,278.6,374,278.6,374.9z"/>
			<path class="st12" d="M290.4,376c0,0.8,0,1.5,0.1,2h-1.7l-0.1-0.9h0c-0.2,0.4-0.8,1-2,1c-1.3,0-2.2-0.8-2.2-2.8v-3.7h2v3.4
				c0,0.9,0.3,1.5,1,1.5c0.5,0,0.9-0.4,1-0.7c0.1-0.1,0.1-0.3,0.1-0.4v-3.8h2V376z"/>
			<path class="st12" d="M292,373.7c0-0.8,0-1.5-0.1-2h1.7l0.1,0.9h0c0.3-0.4,0.9-1,2-1c1.3,0,2.3,0.9,2.3,2.7v3.8h-2v-3.5
				c0-0.8-0.3-1.4-1-1.4c-0.5,0-0.9,0.4-1,0.7c-0.1,0.1-0.1,0.3-0.1,0.5v3.7h-2V373.7z"/>
			<path class="st12" d="M301.7,369.9v1.8h1.4v1.5h-1.4v2.3c0,0.8,0.2,1.1,0.8,1.1c0.2,0,0.4,0,0.6-0.1l0,1.5
				c-0.3,0.1-0.7,0.2-1.3,0.2c-0.6,0-1.2-0.2-1.5-0.5c-0.4-0.4-0.5-1-0.5-1.9v-2.6H299v-1.5h0.8v-1.4L301.7,369.9z"/>
			<path class="st12" d="M304.3,373.8c0-0.9,0-1.5-0.1-2.1h1.7l0.1,1.2h0.1c0.3-0.9,1.1-1.3,1.7-1.3c0.2,0,0.3,0,0.4,0v1.9
				c-0.1,0-0.3-0.1-0.5-0.1c-0.7,0-1.2,0.4-1.4,1c0,0.1,0,0.3,0,0.4v3.2h-2V373.8z"/>
			<path class="st12" d="M310.9,371.7l0.9,3.1c0.1,0.4,0.2,0.8,0.3,1.2h0c0.1-0.3,0.2-0.8,0.3-1.2l0.8-3.1h2.1l-1.5,4.2
				c-0.9,2.5-1.5,3.5-2.2,4.2c-0.7,0.6-1.4,0.8-1.9,0.9l-0.4-1.7c0.2,0,0.6-0.2,0.9-0.3c0.3-0.2,0.6-0.5,0.8-0.8
				c0.1-0.1,0.1-0.2,0.1-0.3c0-0.1,0-0.2-0.1-0.3l-2.3-5.8H310.9z"/>
		</g>
		<g>
			<path class="st14" d="M268.7,395.3h45.6c3.1,0,5.7,2.5,5.7,5.7c0,3.1-2.5,5.7-5.7,5.7h-45.6V395.3z"/>
			<path class="st14" d="M268.7,414.9h35.6c3.1,0,5.7,2.5,5.7,5.7c0,3.1-2.5,5.7-5.7,5.7h-35.6V414.9z"/>
			<path class="st14" d="M268.7,434.4L268.7,434.4c1.3,0,2.4,1.1,2.4,2.4v6.5c0,1.3-1.1,2.4-2.4,2.4V434.4z"/>
			<path class="st14" d="M268.7,454h-9.2c-3.1,0-5.7,2.5-5.7,5.7c0,3.1,2.5,5.7,5.7,5.7h9.2V454z"/>
			<path class="st14" d="M268.7,473.6H75.2c-3.1,0-5.7,2.5-5.7,5.7c0,3.1,2.5,5.7,5.7,5.7h193.4v-11.4H268.7z"/>
		</g>
		<g class="st5">
			<path class="st9" d="M281.3,472.2v3.9h4.8v-3.9h0.6v8.8h-0.6v-4.4h-4.8v4.4h-0.6v-8.8H281.3z"/>
			<path class="st9" d="M294.2,477.8c0,2.3-1.6,3.3-3,3.3c-1.6,0-2.9-1.3-2.9-3.2c0-2.1,1.4-3.3,2.9-3.3
				C293,474.6,294.2,475.9,294.2,477.8z M288.9,477.8c0,1.6,1,2.7,2.3,2.7c1.3,0,2.3-1.2,2.3-2.8c0-1.1-0.6-2.7-2.3-2.7
				C289.7,475.1,288.9,476.5,288.9,477.8z"/>
			<path class="st9" d="M295.7,476.2c0-0.6,0-1-0.1-1.5h0.6l0,1.1h0c0.3-0.7,1.1-1.3,2.1-1.3c0.6,0,2.2,0.3,2.2,2.6v3.7H300v-3.7
				c0-1.1-0.4-2.2-1.7-2.2c-0.9,0-1.6,0.6-1.9,1.4c0,0.2-0.1,0.4-0.1,0.6v3.9h-0.6V476.2z"/>
			<path class="st9" d="M307.7,471.7v7.8c0,0.5,0,1,0.1,1.5h-0.6l-0.1-1.2h0c-0.3,0.7-1.1,1.3-2.2,1.3c-1.5,0-2.7-1.3-2.7-3.1
				c0-2.1,1.3-3.4,2.8-3.4c1.1,0,1.8,0.6,2,1.1h0v-3.9H307.7z M307,477.2c0-0.2,0-0.4-0.1-0.6c-0.2-0.8-0.9-1.5-2-1.5
				c-1.4,0-2.2,1.2-2.2,2.8c0,1.4,0.7,2.7,2.2,2.7c0.9,0,1.7-0.6,2-1.6c0.1-0.2,0.1-0.3,0.1-0.5V477.2z"/>
			<path class="st9" d="M314.6,479.4c0,0.5,0,1,0.1,1.5H314l0-1.1h0c-0.3,0.6-1,1.3-2.1,1.3c-0.8,0-2.1-0.4-2.1-2.8v-3.6h0.6v3.5
				c0,1.4,0.4,2.3,1.6,2.3c0.9,0,1.6-0.6,1.8-1.3c0.1-0.2,0.1-0.4,0.1-0.7v-3.9h0.6V479.4z"/>
			<path class="st9" d="M316.6,476.6c0-0.6,0-1.3-0.1-1.9h0.6l0,1.3h0c0.3-0.8,0.9-1.4,1.8-1.4c0.1,0,0.2,0,0.3,0v0.6
				c-0.1,0-0.2,0-0.3,0c-0.9,0-1.5,0.7-1.6,1.7c0,0.2-0.1,0.4-0.1,0.6v3.4h-0.6V476.6z"/>
			<path class="st9" d="M324.4,479.5c0,0.5,0,1,0.1,1.5h-0.6l-0.1-0.9h0c-0.3,0.5-1,1-2,1c-1.3,0-1.8-0.9-1.8-1.7
				c0-1.4,1.3-2.3,3.8-2.3v-0.2c0-0.6-0.1-1.8-1.6-1.8c-0.5,0-1.1,0.1-1.6,0.5l-0.2-0.5c0.6-0.4,1.3-0.5,1.8-0.5
				c1.8,0,2.2,1.4,2.2,2.5V479.5z M323.7,477.6c-1.4,0-3.2,0.2-3.2,1.7c0,0.9,0.6,1.3,1.2,1.3c1,0,1.6-0.6,1.8-1.2
				c0.1-0.1,0.1-0.3,0.1-0.4V477.6z"/>
			<path class="st9" d="M326.1,480.1c0.3,0.2,0.8,0.4,1.4,0.4c1,0,1.5-0.5,1.5-1.2c0-0.7-0.4-1.1-1.3-1.4c-1-0.4-1.6-0.9-1.6-1.7
				c0-0.9,0.7-1.7,1.9-1.7c0.6,0,1.1,0.2,1.4,0.4l-0.2,0.5c-0.2-0.2-0.6-0.4-1.2-0.4c-0.8,0-1.2,0.5-1.2,1.1c0,0.6,0.4,0.9,1.3,1.3
				c1,0.4,1.6,0.9,1.6,1.8c0,1.1-0.8,1.8-2.1,1.8c-0.6,0-1.2-0.2-1.6-0.4L326.1,480.1z"/>
		</g>
		<g class="st5">
			<path class="st9" d="M287.2,461.1c-0.4,0.2-1.3,0.4-2.4,0.4c-2.1,0-4.1-1.4-4.1-4.5c0-2.6,1.7-4.6,4.4-4.6c1.1,0,1.8,0.2,2,0.4
				l-0.2,0.5c-0.4-0.2-1.1-0.4-1.8-0.4c-2.4,0-3.8,1.5-3.8,4.1c0,2.4,1.4,3.9,3.7,3.9c0.7,0,1.5-0.2,2-0.4L287.2,461.1z"/>
			<path class="st9" d="M293.9,458.2c0,2.3-1.6,3.3-3,3.3c-1.6,0-2.9-1.3-2.9-3.2c0-2.1,1.4-3.3,2.9-3.3
				C292.7,455,293.9,456.3,293.9,458.2z M288.7,458.3c0,1.6,1,2.7,2.3,2.7c1.3,0,2.3-1.2,2.3-2.8c0-1.1-0.6-2.7-2.3-2.7
				C289.4,455.5,288.7,456.9,288.7,458.3z"/>
			<path class="st9" d="M295.2,460.6c0.3,0.2,0.8,0.4,1.4,0.4c1,0,1.5-0.5,1.5-1.2c0-0.7-0.4-1.1-1.3-1.4c-1-0.4-1.6-0.9-1.6-1.7
				c0-0.9,0.7-1.7,1.9-1.7c0.6,0,1.1,0.2,1.4,0.4l-0.2,0.5c-0.2-0.2-0.6-0.4-1.2-0.4c-0.8,0-1.2,0.5-1.2,1.1c0,0.6,0.4,0.9,1.3,1.3
				c1,0.4,1.6,0.9,1.6,1.8c0,1.1-0.8,1.8-2.1,1.8c-0.6,0-1.2-0.2-1.6-0.4L295.2,460.6z"/>
			<path class="st9" d="M301.2,453.8v1.4h1.8v0.5h-1.8v4.1c0,0.8,0.2,1.3,0.9,1.3c0.3,0,0.6,0,0.7-0.1l0.1,0.5
				c-0.2,0.1-0.5,0.2-0.9,0.2c-0.5,0-0.8-0.1-1.1-0.4c-0.3-0.3-0.4-0.9-0.4-1.5v-3.9h-1.1v-0.5h1.1V454L301.2,453.8z"/>
			<path class="st9" d="M308.2,459.9c0,0.5,0,1,0.1,1.5h-0.6l-0.1-0.9h0c-0.3,0.5-1,1-2,1c-1.3,0-1.8-0.9-1.8-1.7
				c0-1.4,1.3-2.3,3.8-2.3v-0.2c0-0.6-0.1-1.8-1.6-1.8c-0.5,0-1.1,0.1-1.6,0.5l-0.2-0.5c0.6-0.4,1.3-0.5,1.8-0.5
				c1.8,0,2.2,1.4,2.2,2.5V459.9z M307.6,458c-1.4,0-3.2,0.2-3.2,1.7c0,0.9,0.6,1.3,1.2,1.3c1,0,1.6-0.6,1.8-1.2
				c0.1-0.1,0.1-0.3,0.1-0.4V458z"/>
			<path class="st9" d="M313,452.8c0.5-0.1,1.3-0.2,1.9-0.2c1.1,0,1.9,0.2,2.4,0.7c0.4,0.4,0.6,0.9,0.6,1.5c0,1.2-0.7,1.9-1.7,2.3v0
				c0.7,0.2,1.1,0.9,1.4,1.9c0.3,1.4,0.5,2,0.6,2.4h-0.6c-0.1-0.3-0.3-1-0.6-2.1c-0.3-1.3-0.8-1.8-2-1.9h-1.4v4H313V452.8z
				 M313.7,456.9h1.4c1.4,0,2.2-0.8,2.2-1.9c0-1.3-1-1.9-2.4-1.9c-0.6,0-1,0.1-1.3,0.1V456.9z"/>
			<path class="st9" d="M320.5,453.4c0,0.3-0.2,0.5-0.5,0.5c-0.3,0-0.5-0.2-0.5-0.5c0-0.3,0.2-0.5,0.5-0.5S320.5,453.1,320.5,453.4z
				 M319.7,461.4v-6.2h0.6v6.2H319.7z"/>
			<path class="st9" d="M326.8,461.1c-0.3,0.1-0.9,0.4-1.8,0.4c-1.8,0-3-1.3-3-3.2c0-2,1.4-3.3,3.2-3.3c0.8,0,1.4,0.2,1.6,0.4
				l-0.2,0.5c-0.3-0.2-0.8-0.4-1.5-0.4c-1.7,0-2.5,1.3-2.5,2.7c0,1.6,1,2.7,2.5,2.7c0.7,0,1.2-0.2,1.6-0.4L326.8,461.1z"/>
			<path class="st9" d="M332.1,459.9c0,0.5,0,1,0.1,1.5h-0.6l-0.1-0.9h0c-0.3,0.5-1,1-2,1c-1.3,0-1.8-0.9-1.8-1.7
				c0-1.4,1.3-2.3,3.8-2.3v-0.2c0-0.6-0.1-1.8-1.6-1.8c-0.5,0-1.1,0.1-1.6,0.5l-0.2-0.5c0.6-0.4,1.3-0.5,1.8-0.5
				c1.8,0,2.2,1.4,2.2,2.5V459.9z M331.5,458c-1.4,0-3.2,0.2-3.2,1.7c0,0.9,0.6,1.3,1.2,1.3c1,0,1.6-0.6,1.8-1.2
				c0.1-0.1,0.1-0.3,0.1-0.4V458z"/>
		</g>
		<g class="st5">
			<path class="st9" d="M206.1,441.4c-0.4,0.2-1.4,0.5-2.6,0.5c-1.2,0-2.2-0.3-3.1-1.1c-0.7-0.7-1.2-1.9-1.2-3.3
				c0-2.4,1.6-4.5,4.6-4.5c0.9,0,1.7,0.2,2,0.4l-0.2,0.5c-0.5-0.2-1-0.4-1.9-0.4c-2.4,0-3.9,1.6-3.9,3.9c0,2.5,1.4,3.9,3.8,3.9
				c0.9,0,1.5-0.1,1.8-0.3V438h-2v-0.5h2.6V441.4z"/>
			<path class="st9" d="M212.7,440.3c0,0.5,0,1,0.1,1.5h-0.6l0-1.1h0c-0.3,0.6-1,1.3-2.1,1.3c-0.8,0-2.1-0.4-2.1-2.8v-3.6h0.6v3.5
				c0,1.4,0.4,2.3,1.6,2.3c0.9,0,1.6-0.6,1.8-1.3c0.1-0.2,0.1-0.4,0.1-0.7v-3.9h0.6V440.3z"/>
			<path class="st9" d="M218.7,440.3c0,0.5,0,1,0.1,1.5h-0.6l-0.1-0.9h0c-0.3,0.5-1,1-2,1c-1.3,0-1.8-0.9-1.8-1.7
				c0-1.4,1.3-2.3,3.8-2.3v-0.2c0-0.6-0.1-1.8-1.6-1.8c-0.5,0-1.1,0.1-1.6,0.5l-0.2-0.5c0.6-0.4,1.3-0.5,1.8-0.5
				c1.8,0,2.2,1.4,2.2,2.5V440.3z M218,438.5c-1.4,0-3.2,0.2-3.2,1.7c0,0.9,0.6,1.3,1.2,1.3c1,0,1.6-0.6,1.8-1.2
				c0.1-0.1,0.1-0.3,0.1-0.4V438.5z"/>
			<path class="st9" d="M221.5,434.2v1.4h1.8v0.5h-1.8v4.1c0,0.8,0.2,1.3,0.9,1.3c0.3,0,0.6,0,0.7-0.1l0.1,0.5
				c-0.2,0.1-0.5,0.2-0.9,0.2c-0.5,0-0.8-0.1-1.1-0.4c-0.3-0.3-0.4-0.9-0.4-1.5v-3.9h-1.1v-0.5h1.1v-1.1L221.5,434.2z"/>
			<path class="st9" d="M224.7,438.6c0,2,1.1,2.8,2.4,2.8c0.9,0,1.4-0.2,1.7-0.4l0.2,0.5c-0.2,0.1-0.9,0.4-2,0.4
				c-1.8,0-2.9-1.3-2.9-3.1c0-2.1,1.2-3.4,2.8-3.4c2,0,2.4,1.9,2.4,2.8c0,0.2,0,0.3,0,0.4H224.7z M228.7,438.1
				c0-0.9-0.4-2.2-1.9-2.2c-1.4,0-2,1.2-2.1,2.2H228.7z"/>
			<path class="st9" d="M230.9,437.1c0-0.6,0-1-0.1-1.5h0.6l0,1.1h0c0.4-0.7,1-1.2,2-1.2c0.9,0,1.5,0.6,1.8,1.4h0
				c0.2-0.4,0.4-0.6,0.6-0.8c0.4-0.3,0.8-0.5,1.5-0.5c0.6,0,2,0.3,2,2.7v3.7h-0.6v-3.6c0-1.4-0.5-2.2-1.6-2.2
				c-0.8,0-1.4,0.6-1.6,1.2c-0.1,0.2-0.1,0.4-0.1,0.6v4h-0.6v-3.9c0-1.1-0.5-1.9-1.5-1.9c-0.8,0-1.5,0.7-1.7,1.4
				c-0.1,0.2-0.1,0.4-0.1,0.6v3.8h-0.6V437.1z"/>
			<path class="st9" d="M245.4,440.3c0,0.5,0,1,0.1,1.5h-0.6l-0.1-0.9h0c-0.3,0.5-1,1-2,1c-1.3,0-1.8-0.9-1.8-1.7
				c0-1.4,1.3-2.3,3.8-2.3v-0.2c0-0.6-0.1-1.8-1.6-1.8c-0.5,0-1.1,0.1-1.6,0.5l-0.2-0.5c0.6-0.4,1.3-0.5,1.8-0.5
				c1.8,0,2.2,1.4,2.2,2.5V440.3z M244.8,438.5c-1.4,0-3.2,0.2-3.2,1.7c0,0.9,0.6,1.3,1.2,1.3c1,0,1.6-0.6,1.8-1.2
				c0.1-0.1,0.1-0.3,0.1-0.4V438.5z"/>
			<path class="st9" d="M247.4,432.6h0.6v9.2h-0.6V432.6z"/>
			<path class="st9" d="M254,440.3c0,0.5,0,1,0.1,1.5h-0.6l-0.1-0.9h0c-0.3,0.5-1,1-2,1c-1.3,0-1.8-0.9-1.8-1.7
				c0-1.4,1.3-2.3,3.8-2.3v-0.2c0-0.6-0.1-1.8-1.6-1.8c-0.5,0-1.1,0.1-1.6,0.5l-0.2-0.5c0.6-0.4,1.3-0.5,1.8-0.5
				c1.8,0,2.2,1.4,2.2,2.5V440.3z M253.4,438.5c-1.4,0-3.2,0.2-3.2,1.7c0,0.9,0.6,1.3,1.2,1.3c1,0,1.6-0.6,1.8-1.2
				c0.1-0.1,0.1-0.3,0.1-0.4V438.5z"/>
		</g>
		<g class="st5">
			<path class="st9" d="M203.7,417.9h-3.5v3.8h3.9v0.5h-4.5v-8.8h4.3v0.5h-3.7v3.4h3.5V417.9z"/>
			<path class="st9" d="M205.6,413h0.6v9.2h-0.6V413z"/>
			<path class="st9" d="M210.9,421.3c0.5,0.3,1.2,0.6,1.9,0.6c1.3,0,2.1-0.7,2.1-1.8c0-1-0.5-1.6-1.8-2.1c-1.4-0.5-2.2-1.2-2.2-2.4
				c0-1.3,1.1-2.2,2.5-2.2c0.8,0,1.4,0.2,1.7,0.4l-0.2,0.5c-0.2-0.2-0.8-0.4-1.5-0.4c-1.4,0-1.9,0.9-1.9,1.6c0,1,0.6,1.5,1.8,2
				c1.4,0.6,2.2,1.2,2.2,2.5c0,1.3-0.9,2.4-2.8,2.4c-0.8,0-1.6-0.2-2.1-0.6L210.9,421.3z"/>
			<path class="st9" d="M221.1,420.7c0,0.5,0,1,0.1,1.5h-0.6l-0.1-0.9h0c-0.3,0.5-1,1-2,1c-1.3,0-1.8-0.9-1.8-1.7
				c0-1.4,1.3-2.3,3.8-2.3v-0.2c0-0.6-0.1-1.8-1.6-1.8c-0.5,0-1.1,0.1-1.6,0.5l-0.2-0.5c0.6-0.4,1.3-0.5,1.8-0.5
				c1.8,0,2.2,1.4,2.2,2.5V420.7z M220.5,418.9c-1.4,0-3.2,0.2-3.2,1.7c0,0.9,0.6,1.3,1.2,1.3c1,0,1.6-0.6,1.8-1.2
				c0.1-0.1,0.1-0.3,0.1-0.4V418.9z"/>
			<path class="st9" d="M223.1,413h0.6v9.2h-0.6V413z"/>
			<path class="st9" d="M225.7,416l1.5,3.9c0.2,0.6,0.4,1.1,0.6,1.7h0c0.2-0.5,0.4-1.1,0.6-1.7l1.5-3.9h0.6l-2.5,6.2h-0.5L225,416
				H225.7z"/>
			<path class="st9" d="M235.6,420.7c0,0.5,0,1,0.1,1.5h-0.6l-0.1-0.9h0c-0.3,0.5-1,1-2,1c-1.3,0-1.8-0.9-1.8-1.7
				c0-1.4,1.3-2.3,3.8-2.3v-0.2c0-0.6-0.1-1.8-1.6-1.8c-0.5,0-1.1,0.1-1.6,0.5l-0.2-0.5c0.6-0.4,1.3-0.5,1.8-0.5
				c1.8,0,2.2,1.4,2.2,2.5V420.7z M235,418.9c-1.4,0-3.2,0.2-3.2,1.7c0,0.9,0.6,1.3,1.2,1.3c1,0,1.6-0.6,1.8-1.2
				c0.1-0.1,0.1-0.3,0.1-0.4V418.9z"/>
			<path class="st9" d="M242.6,413v7.8c0,0.5,0,1,0.1,1.5h-0.6L242,421h0c-0.3,0.7-1.1,1.3-2.2,1.3c-1.5,0-2.7-1.3-2.7-3.1
				c0-2.1,1.3-3.4,2.8-3.4c1.1,0,1.8,0.6,2,1.1h0V413H242.6z M242,418.5c0-0.2,0-0.4-0.1-0.6c-0.2-0.8-0.9-1.5-2-1.5
				c-1.4,0-2.2,1.2-2.2,2.8c0,1.4,0.7,2.7,2.2,2.7c0.9,0,1.7-0.6,2-1.6c0.1-0.2,0.1-0.3,0.1-0.5V418.5z"/>
			<path class="st9" d="M250,419c0,2.3-1.6,3.3-3,3.3c-1.6,0-2.9-1.3-2.9-3.2c0-2.1,1.4-3.3,2.9-3.3C248.8,415.8,250,417.1,250,419z
				 M244.8,419.1c0,1.6,1,2.7,2.3,2.7c1.3,0,2.3-1.2,2.3-2.8c0-1.1-0.6-2.7-2.3-2.7C245.5,416.4,244.8,417.8,244.8,419.1z"/>
			<path class="st9" d="M251.6,417.9c0-0.6,0-1.3-0.1-1.9h0.6l0,1.3h0c0.3-0.8,0.9-1.4,1.8-1.4c0.1,0,0.2,0,0.3,0v0.6
				c-0.1,0-0.2,0-0.3,0c-0.9,0-1.5,0.7-1.6,1.7c0,0.2-0.1,0.4-0.1,0.6v3.4h-0.6V417.9z"/>
		</g>
		<g class="st5">
			<path class="st9" d="M203.9,402.6v-8.8h0.6l3.4,5.2c0.7,1.1,1.2,1.9,1.6,2.8l0,0c-0.1-1.2-0.1-2.2-0.1-3.6v-4.3h0.6v8.8h-0.6
				l-3.3-5.1c-0.6-1-1.2-1.9-1.7-2.8l0,0c0.1,1.1,0.1,2,0.1,3.5v4.4H203.9z"/>
			<path class="st9" d="M213.2,394.6c0,0.3-0.2,0.5-0.5,0.5c-0.3,0-0.5-0.2-0.5-0.5c0-0.3,0.2-0.5,0.5-0.5S213.2,394.3,213.2,394.6z
				 M212.4,402.6v-6.2h0.6v6.2H212.4z"/>
			<path class="st9" d="M219.4,402.4c-0.3,0.1-0.9,0.4-1.8,0.4c-1.8,0-3-1.3-3-3.2c0-2,1.4-3.3,3.2-3.3c0.8,0,1.4,0.2,1.6,0.4
				l-0.2,0.5c-0.3-0.2-0.8-0.4-1.5-0.4c-1.7,0-2.5,1.3-2.5,2.7c0,1.6,1,2.7,2.5,2.7c0.7,0,1.2-0.2,1.6-0.4L219.4,402.4z"/>
			<path class="st9" d="M224.8,401.2c0,0.5,0,1,0.1,1.5h-0.6l-0.1-0.9h0c-0.3,0.5-1,1-2,1c-1.3,0-1.8-0.9-1.8-1.7
				c0-1.4,1.3-2.3,3.8-2.3v-0.2c0-0.6-0.1-1.8-1.6-1.8c-0.5,0-1.1,0.1-1.6,0.5l-0.2-0.5c0.6-0.4,1.3-0.5,1.8-0.5
				c1.8,0,2.2,1.4,2.2,2.5V401.2z M224.1,399.3c-1.4,0-3.2,0.2-3.2,1.7c0,0.9,0.6,1.3,1.2,1.3c1,0,1.6-0.6,1.8-1.2
				c0.1-0.1,0.1-0.3,0.1-0.4V399.3z"/>
			<path class="st9" d="M226.8,398.3c0-0.6,0-1.3-0.1-1.9h0.6l0,1.3h0c0.3-0.8,0.9-1.4,1.8-1.4c0.1,0,0.2,0,0.3,0v0.6
				c-0.1,0-0.2,0-0.3,0c-0.9,0-1.5,0.7-1.6,1.7c0,0.2-0.1,0.4-0.1,0.6v3.4h-0.6V398.3z"/>
			<path class="st9" d="M234.5,401.2c0,0.5,0,1,0.1,1.5H234l-0.1-0.9h0c-0.3,0.5-1,1-2,1c-1.3,0-1.8-0.9-1.8-1.7
				c0-1.4,1.3-2.3,3.8-2.3v-0.2c0-0.6-0.1-1.8-1.6-1.8c-0.5,0-1.1,0.1-1.6,0.5l-0.2-0.5c0.6-0.4,1.3-0.5,1.8-0.5
				c1.8,0,2.2,1.4,2.2,2.5V401.2z M233.9,399.3c-1.4,0-3.2,0.2-3.2,1.7c0,0.9,0.6,1.3,1.2,1.3c1,0,1.6-0.6,1.8-1.2
				c0.1-0.1,0.1-0.3,0.1-0.4V399.3z"/>
			<path class="st9" d="M241.5,401.7c0,1.6-0.3,2.4-0.9,2.9c-0.6,0.5-1.4,0.7-2.1,0.7c-0.7,0-1.5-0.2-2-0.5l0.2-0.5
				c0.4,0.3,1.1,0.5,1.9,0.5c1.3,0,2.3-0.7,2.3-2.5v-0.9h0c-0.3,0.6-1.1,1.2-2.2,1.2c-1.6,0-2.7-1.4-2.7-3.1c0-2.2,1.4-3.3,2.8-3.3
				c1.2,0,1.8,0.7,2.1,1.2h0l0-1.1h0.6c0,0.5-0.1,1-0.1,1.6V401.7z M240.8,398.8c0-0.2,0-0.4-0.1-0.6c-0.3-0.8-0.9-1.4-1.9-1.4
				c-1.3,0-2.2,1.1-2.2,2.7c0,1.4,0.7,2.6,2.2,2.6c0.8,0,1.6-0.5,1.9-1.4c0.1-0.2,0.1-0.4,0.1-0.7V398.8z"/>
			<path class="st9" d="M248.4,401.1c0,0.5,0,1,0.1,1.5h-0.6l0-1.1h0c-0.3,0.6-1,1.3-2.1,1.3c-0.8,0-2.1-0.4-2.1-2.8v-3.6h0.6v3.5
				c0,1.4,0.4,2.3,1.6,2.3c0.9,0,1.6-0.6,1.8-1.3c0.1-0.2,0.1-0.4,0.1-0.7v-3.9h0.6V401.1z"/>
			<path class="st9" d="M254.3,401.2c0,0.5,0,1,0.1,1.5h-0.6l-0.1-0.9h0c-0.3,0.5-1,1-2,1c-1.3,0-1.8-0.9-1.8-1.7
				c0-1.4,1.3-2.3,3.8-2.3v-0.2c0-0.6-0.1-1.8-1.6-1.8c-0.5,0-1.1,0.1-1.6,0.5l-0.2-0.5c0.6-0.4,1.3-0.5,1.8-0.5
				c1.8,0,2.2,1.4,2.2,2.5V401.2z M253.7,399.3c-1.4,0-3.2,0.2-3.2,1.7c0,0.9,0.6,1.3,1.2,1.3c1,0,1.6-0.6,1.8-1.2
				c0.1-0.1,0.1-0.3,0.1-0.4V399.3z"/>
		</g>
		<line class="st15" x1="268.7" y1="489" x2="268.7" y2="391.2"/>
		<g>
			<path class="st6" d="M561.3,401.8H654c3.1,0,5.7,2.5,5.7,5.7c0,3.1-2.5,5.7-5.7,5.7h-92.7V401.8z"/>
			<path class="st6" d="M561.3,434.4h49c3.3,0,6,2.5,6,5.7c0,3.1-2.7,5.7-6,5.7h-49V434.4z"/>
			<path class="st6" d="M561.3,467.1h-86.2c-3.8,0-6.9,2.5-6.9,5.7c0,3.1,3.1,5.7,6.9,5.7h86.2V467.1z"/>
		</g>
	</g>
	<circle class="st16" cx="180.9" cy="163.6" r="87.2"/>
	<g>
		<g>
			<g>
				<defs>
					<rect id="SVGID_7_" x="96.6" y="79.2" width="168.6" height="168.6"/>
				</defs>
				<clipPath id="SVGID_8_">
					<use xlink:href="#SVGID_7_"  style="overflow:visible;"/>
				</clipPath>
				<g class="st17">
					<g>
						<g>
							<defs>
								<rect id="SVGID_9_" x="96.6" y="79.2" width="168.6" height="168.6"/>
							</defs>
							<clipPath id="SVGID_10_">
								<use xlink:href="#SVGID_9_"  style="overflow:visible;"/>
							</clipPath>
						</g>
					</g>
					<g>
						<g>
							<defs>
								
									<rect id="SVGID_11_" x="96.6" y="79.2" transform="matrix(1 -5.181061e-03 5.181061e-03 1 -0.8446 0.9395)" width="168.6" height="168.6"/>
							</defs>
							<clipPath id="SVGID_12_">
								<use xlink:href="#SVGID_11_"  style="overflow:visible;"/>
							</clipPath>
							<ellipse class="st18" cx="180.9" cy="163.4" rx="75.8" ry="75.8"/>
						</g>
					</g>
				</g>
			</g>
		</g>
	</g>
	<g class="st5">
		<path class="st6" d="M169.4,40.1c-0.1-1.3-0.2-2.9-0.1-4.1h0c-0.3,1.1-0.7,2.3-1.2,3.6l-1.7,4.6h-0.9l-1.5-4.5
			c-0.4-1.3-0.8-2.5-1.1-3.7h0c0,1.2-0.1,2.8-0.2,4.2l-0.3,4h-1.2l0.7-9.4h1.6l1.6,4.6c0.4,1.2,0.7,2.2,1,3.2h0c0.2-1,0.6-2,1-3.2
			l1.7-4.6h1.6l0.6,9.4h-1.2L169.4,40.1z"/>
	</g>
	<g class="st5">
		<path class="st6" d="M173.4,41c0,1.7,1.1,2.3,2.3,2.3c0.9,0,1.4-0.2,1.9-0.3l0.2,0.9c-0.4,0.2-1.2,0.4-2.3,0.4
			c-2.1,0-3.3-1.4-3.3-3.4c0-2,1.2-3.6,3.2-3.6c2.2,0,2.8,1.9,2.8,3.2c0,0.3,0,0.4,0,0.6H173.4z M177,40.2c0-0.8-0.3-2-1.7-2
			c-1.2,0-1.8,1.1-1.9,2H177z"/>
	</g>
	<g class="st5">
		<path class="st6" d="M180.3,37.4l1,1.5c0.3,0.4,0.5,0.7,0.7,1.1h0c0.2-0.4,0.4-0.8,0.7-1.1l1-1.4h1.3l-2.3,3.3l2.4,3.5h-1.4
			l-1-1.5c-0.3-0.4-0.5-0.8-0.7-1.2h0c-0.2,0.4-0.5,0.8-0.7,1.2l-1,1.5h-1.4l2.4-3.5l-2.3-3.3H180.3z"/>
		<path class="st6" d="M187.5,35.5c0,0.4-0.3,0.8-0.8,0.8c-0.4,0-0.7-0.3-0.7-0.8c0-0.4,0.3-0.8,0.8-0.8
			C187.2,34.8,187.5,35.1,187.5,35.5z M186.2,44.2v-6.8h1.2v6.8H186.2z"/>
	</g>
	<g class="st5">
		<path class="st6" d="M194.2,44c-0.3,0.2-1,0.4-1.9,0.4c-2,0-3.4-1.4-3.4-3.5c0-2.1,1.4-3.6,3.6-3.6c0.7,0,1.4,0.2,1.7,0.3l-0.3,1
			c-0.3-0.2-0.8-0.3-1.4-0.3c-1.6,0-2.4,1.1-2.4,2.6c0,1.6,1,2.5,2.3,2.5c0.7,0,1.2-0.2,1.5-0.3L194.2,44z"/>
	</g>
	<g class="st5">
		<path class="st6" d="M201.7,40.8c0,2.5-1.7,3.6-3.4,3.6c-1.8,0-3.2-1.3-3.2-3.5c0-2.3,1.5-3.6,3.4-3.6
			C200.4,37.3,201.7,38.7,201.7,40.8z M196.3,40.8c0,1.5,0.9,2.6,2.1,2.6c1.2,0,2.1-1.1,2.1-2.6c0-1.1-0.6-2.6-2-2.6
			C197,38.2,196.3,39.6,196.3,40.8z"/>
	</g>
	<g class="st5">
		<path class="st7" d="M320.4,160c-0.4,0.2-1.3,0.4-2.5,0.4c-2.7,0-4.7-1.7-4.7-4.8c0-2.9,2-4.9,4.9-4.9c1.2,0,1.9,0.3,2.2,0.4
			l-0.3,1c-0.5-0.2-1.1-0.4-1.9-0.4c-2.2,0-3.7,1.4-3.7,3.9c0,2.3,1.3,3.8,3.6,3.8c0.7,0,1.5-0.2,2-0.4L320.4,160z"/>
	</g>
	<g class="st5">
		<path class="st7" d="M322.4,157.2c0,1.7,1.1,2.3,2.3,2.3c0.9,0,1.4-0.2,1.9-0.3l0.2,0.9c-0.4,0.2-1.2,0.4-2.3,0.4
			c-2.1,0-3.3-1.4-3.3-3.4c0-2,1.2-3.6,3.2-3.6c2.2,0,2.8,1.9,2.8,3.2c0,0.3,0,0.4,0,0.6H322.4z M326,156.3c0-0.8-0.3-2-1.7-2
			c-1.2,0-1.8,1.1-1.9,2H326z"/>
	</g>
	<g class="st5">
		<path class="st7" d="M328.7,155.4c0-0.7,0-1.3-0.1-1.8h1.1l0.1,1.1h0c0.3-0.6,1.1-1.3,2.2-1.3c0.9,0,2.4,0.6,2.4,2.9v4h-1.2v-3.9
			c0-1.1-0.4-2-1.6-2c-0.8,0-1.4,0.6-1.6,1.3c-0.1,0.2-0.1,0.4-0.1,0.6v4.1h-1.2V155.4z"/>
	</g>
	<g class="st5">
		<path class="st7" d="M337.9,151.6v1.9h1.8v0.9h-1.8v3.6c0,0.8,0.2,1.3,0.9,1.3c0.3,0,0.6,0,0.7-0.1l0.1,0.9
			c-0.2,0.1-0.6,0.2-1.1,0.2c-0.6,0-1-0.2-1.3-0.5c-0.3-0.4-0.5-1-0.5-1.8v-3.7h-1v-0.9h1v-1.6L337.9,151.6z"/>
	</g>
	<g class="st5">
		<path class="st7" d="M341,155.7c0-0.8,0-1.5-0.1-2.1h1.1l0,1.3h0.1c0.3-0.9,1-1.5,1.9-1.5c0.1,0,0.2,0,0.3,0v1.2
			c-0.1,0-0.3,0-0.4,0c-0.9,0-1.5,0.7-1.6,1.6c0,0.2-0.1,0.4-0.1,0.6v3.6H341V155.7z"/>
	</g>
	<g class="st5">
		<path class="st7" d="M349.3,160.3l-0.1-0.9h0c-0.4,0.5-1.1,1-2.1,1c-1.4,0-2.1-1-2.1-1.9c0-1.6,1.5-2.5,4.1-2.5v-0.1
			c0-0.6-0.2-1.6-1.5-1.6c-0.6,0-1.3,0.2-1.8,0.5l-0.3-0.8c0.6-0.4,1.4-0.6,2.2-0.6c2.1,0,2.6,1.4,2.6,2.8v2.5c0,0.6,0,1.2,0.1,1.6
			H349.3z M349.1,156.9c-1.3,0-2.9,0.2-2.9,1.5c0,0.8,0.5,1.2,1.2,1.2c0.9,0,1.4-0.6,1.6-1.1c0-0.1,0.1-0.3,0.1-0.4V156.9z"/>
		<path class="st7" d="M352.3,150.4h1.2v9.9h-1.2V150.4z"/>
	</g>
	<g class="st5">
		<path class="st7" d="M360.1,157.4l-1,3h-1.3l3.2-9.4h1.5l3.2,9.4h-1.3l-1-3H360.1z M363.2,156.4l-0.9-2.7
			c-0.2-0.6-0.3-1.2-0.5-1.7h0c-0.1,0.6-0.3,1.1-0.5,1.7l-0.9,2.7H363.2z"/>
	</g>
	<g class="st5">
		<path class="st7" d="M367,155.4c0-0.7,0-1.3-0.1-1.8h1.1l0.1,1.1h0c0.4-0.6,1-1.2,2.1-1.2c0.9,0,1.6,0.6,1.9,1.4h0
			c0.2-0.4,0.5-0.7,0.8-0.9c0.4-0.3,0.9-0.5,1.5-0.5c0.9,0,2.2,0.6,2.2,2.9v4h-1.2v-3.8c0-1.3-0.5-2.1-1.5-2.1
			c-0.7,0-1.2,0.5-1.5,1.1c-0.1,0.2-0.1,0.4-0.1,0.6v4.2h-1.2v-4.1c0-1.1-0.5-1.9-1.4-1.9c-0.8,0-1.3,0.6-1.5,1.2
			c-0.1,0.2-0.1,0.4-0.1,0.6v4.1H367V155.4z"/>
		<path class="st7" d="M379.4,157.2c0,1.7,1.1,2.3,2.3,2.3c0.9,0,1.4-0.2,1.9-0.3l0.2,0.9c-0.4,0.2-1.2,0.4-2.3,0.4
			c-2.1,0-3.3-1.4-3.3-3.4c0-2,1.2-3.6,3.2-3.6c2.2,0,2.8,1.9,2.8,3.2c0,0.3,0,0.4,0,0.6H379.4z M383,156.3c0-0.8-0.3-2-1.7-2
			c-1.2,0-1.8,1.1-1.9,2H383z"/>
	</g>
	<g class="st5">
		<path class="st7" d="M385.7,155.7c0-0.8,0-1.5-0.1-2.1h1.1l0,1.3h0.1c0.3-0.9,1-1.5,1.9-1.5c0.1,0,0.2,0,0.3,0v1.2
			c-0.1,0-0.3,0-0.4,0c-0.9,0-1.5,0.7-1.6,1.6c0,0.2-0.1,0.4-0.1,0.6v3.6h-1.2V155.7z"/>
	</g>
	<g class="st5">
		<path class="st7" d="M391.7,151.7c0,0.4-0.3,0.8-0.8,0.8c-0.4,0-0.7-0.3-0.7-0.8c0-0.4,0.3-0.8,0.8-0.8
			C391.4,150.9,391.7,151.2,391.7,151.7z M390.3,160.3v-6.8h1.2v6.8H390.3z"/>
		<path class="st7" d="M398.4,160.1c-0.3,0.2-1,0.4-1.9,0.4c-2,0-3.4-1.4-3.4-3.5c0-2.1,1.4-3.6,3.6-3.6c0.7,0,1.4,0.2,1.7,0.3
			l-0.3,1c-0.3-0.2-0.8-0.3-1.4-0.3c-1.6,0-2.4,1.1-2.4,2.6c0,1.6,1,2.5,2.3,2.5c0.7,0,1.2-0.2,1.5-0.3L398.4,160.1z"/>
		<path class="st7" d="M403.6,160.3l-0.1-0.9h0c-0.4,0.5-1.1,1-2.1,1c-1.4,0-2.1-1-2.1-1.9c0-1.6,1.5-2.5,4.1-2.5v-0.1
			c0-0.6-0.2-1.6-1.5-1.6c-0.6,0-1.3,0.2-1.8,0.5l-0.3-0.8c0.6-0.4,1.4-0.6,2.2-0.6c2.1,0,2.6,1.4,2.6,2.8v2.5c0,0.6,0,1.2,0.1,1.6
			H403.6z M403.4,156.9c-1.3,0-2.9,0.2-2.9,1.5c0,0.8,0.5,1.2,1.2,1.2c0.9,0,1.4-0.6,1.6-1.1c0-0.1,0.1-0.3,0.1-0.4V156.9z"/>
	</g>
	<g class="st5">
		<path class="st12" d="M564.3,522.2l-0.9,1.2v0l1.5-0.1v0.5l-1.4-0.1v0l0.9,1.2l-0.5,0.3l-0.6-1.3h0l-0.7,1.3l-0.4-0.3l0.9-1.2v0
			l-1.4,0.1v-0.5l1.4,0.1v0l-0.9-1.2l0.4-0.3l0.6,1.3h0l0.6-1.3L564.3,522.2z"/>
		<path class="st12" d="M566.1,526.4c0,1.5,0.8,2.1,1.8,2.1c0.7,0,1.1-0.1,1.3-0.3l0.1,0.4c-0.2,0.1-0.7,0.3-1.5,0.3
			c-1.4,0-2.2-1-2.2-2.4c0-1.6,0.9-2.6,2.2-2.6c1.6,0,1.9,1.5,1.9,2.2c0,0.1,0,0.2,0,0.3H566.1z M569.1,526c0-0.7-0.3-1.7-1.4-1.7
			c-1.1,0-1.5,0.9-1.6,1.7H569.1z"/>
		<path class="st12" d="M575.4,528.6c-0.3,0.2-1,0.3-1.8,0.3c-1.6,0-3.2-1-3.2-3.4c0-2,1.3-3.5,3.4-3.5c0.9,0,1.4,0.2,1.6,0.3
			l-0.1,0.4c-0.3-0.2-0.8-0.3-1.4-0.3c-1.8,0-2.9,1.2-2.9,3.1c0,1.8,1,3,2.8,3c0.6,0,1.1-0.1,1.5-0.3L575.4,528.6z"/>
		<path class="st12" d="M580.6,526.4c0,1.8-1.2,2.6-2.3,2.6c-1.2,0-2.2-1-2.2-2.5c0-1.6,1.1-2.5,2.3-2.5
			C579.7,523.9,580.6,524.9,580.6,526.4z M576.6,526.5c0,1.2,0.8,2.1,1.7,2.1c1,0,1.8-0.9,1.8-2.1c0-0.9-0.5-2.1-1.8-2.1
			C577.1,524.3,576.6,525.4,576.6,526.5z"/>
		<path class="st12" d="M581.8,525.2c0-0.4,0-0.8,0-1.1h0.4l0,0.8h0c0.3-0.5,0.8-1,1.6-1c0.7,0,1.2,0.4,1.4,1h0
			c0.1-0.3,0.3-0.5,0.5-0.6c0.3-0.3,0.6-0.4,1.1-0.4c0.5,0,1.6,0.3,1.6,2.1v2.8h-0.5v-2.8c0-1.1-0.4-1.7-1.2-1.7
			c-0.6,0-1.1,0.4-1.3,0.9c0,0.1-0.1,0.3-0.1,0.5v3.1h-0.5v-3c0-0.9-0.4-1.5-1.2-1.5c-0.6,0-1.1,0.5-1.3,1.1c0,0.1-0.1,0.3-0.1,0.5
			v3h-0.5V525.2z"/>
		<path class="st12" d="M590,525.2c0-0.4,0-0.8,0-1.1h0.4l0,0.8h0c0.3-0.5,0.8-1,1.6-1c0.7,0,1.2,0.4,1.4,1h0
			c0.1-0.3,0.3-0.5,0.5-0.6c0.3-0.3,0.6-0.4,1.1-0.4c0.5,0,1.6,0.3,1.6,2.1v2.8h-0.5v-2.8c0-1.1-0.4-1.7-1.2-1.7
			c-0.6,0-1.1,0.4-1.3,0.9c0,0.1-0.1,0.3-0.1,0.5v3.1H593v-3c0-0.9-0.4-1.5-1.2-1.5c-0.6,0-1.1,0.5-1.3,1.1c0,0.1-0.1,0.3-0.1,0.5v3
			H590V525.2z"/>
		<path class="st12" d="M598.2,526.4c0,1.5,0.8,2.1,1.8,2.1c0.7,0,1.1-0.1,1.3-0.3l0.1,0.4c-0.2,0.1-0.7,0.3-1.5,0.3
			c-1.4,0-2.2-1-2.2-2.4c0-1.6,0.9-2.6,2.2-2.6c1.6,0,1.9,1.5,1.9,2.2c0,0.1,0,0.2,0,0.3H598.2z M601.3,526c0-0.7-0.3-1.7-1.4-1.7
			c-1.1,0-1.5,0.9-1.6,1.7H601.3z"/>
		<path class="st12" d="M603,525.5c0-0.5,0-1,0-1.4h0.4l0,1h0c0.2-0.6,0.7-1.1,1.4-1.1c0.1,0,0.1,0,0.2,0v0.5c-0.1,0-0.1,0-0.2,0
			c-0.7,0-1.1,0.6-1.3,1.3c0,0.1,0,0.3,0,0.5v2.6H603V525.5z"/>
		<path class="st12" d="M609.1,528.6c-0.2,0.1-0.7,0.3-1.4,0.3c-1.4,0-2.3-1-2.3-2.4c0-1.5,1-2.6,2.5-2.6c0.6,0,1.1,0.2,1.3,0.3
			l-0.2,0.4c-0.2-0.1-0.6-0.3-1.1-0.3c-1.3,0-1.9,1-1.9,2.1c0,1.3,0.8,2.1,1.9,2.1c0.6,0,0.9-0.2,1.2-0.3L609.1,528.6z"/>
		<path class="st12" d="M610.4,526.4c0,1.5,0.8,2.1,1.8,2.1c0.7,0,1.1-0.1,1.3-0.3l0.1,0.4c-0.2,0.1-0.7,0.3-1.5,0.3
			c-1.4,0-2.2-1-2.2-2.4c0-1.6,0.9-2.6,2.2-2.6c1.6,0,1.9,1.5,1.9,2.2c0,0.1,0,0.2,0,0.3H610.4z M613.4,526c0-0.7-0.3-1.7-1.4-1.7
			c-1.1,0-1.5,0.9-1.6,1.7H613.4z"/>
		<path class="st12" d="M617.1,528.2c0.3,0.2,0.6,0.3,1.1,0.3c0.8,0,1.1-0.4,1.1-0.9c0-0.5-0.3-0.8-1-1.1c-0.8-0.3-1.2-0.7-1.2-1.3
			c0-0.7,0.5-1.3,1.5-1.3c0.4,0,0.8,0.1,1.1,0.3l-0.2,0.4c-0.2-0.1-0.5-0.3-1-0.3c-0.6,0-0.9,0.4-0.9,0.8c0,0.5,0.3,0.7,1,1
			c0.8,0.3,1.2,0.7,1.2,1.4c0,0.8-0.6,1.4-1.6,1.4c-0.5,0-0.9-0.1-1.2-0.3L617.1,528.2z"/>
		<path class="st12" d="M624,527.7c0,0.4,0,0.8,0.1,1.1h-0.4l-0.1-0.7h0c-0.2,0.4-0.8,0.8-1.5,0.8c-1,0-1.4-0.7-1.4-1.3
			c0-1.1,1-1.8,2.9-1.8v-0.1c0-0.5-0.1-1.4-1.2-1.4c-0.4,0-0.9,0.1-1.2,0.4l-0.1-0.3c0.4-0.3,1-0.4,1.4-0.4c1.4,0,1.7,1,1.7,1.9
			V527.7z M623.5,526.3c-1,0-2.4,0.1-2.4,1.3c0,0.7,0.5,1,1,1c0.8,0,1.3-0.5,1.4-1c0-0.1,0-0.2,0-0.3V526.3z"/>
		<path class="st12" d="M625.6,521.8h0.5v7.1h-0.5V521.8z"/>
		<path class="st12" d="M627.8,526.4c0,1.5,0.8,2.1,1.8,2.1c0.7,0,1.1-0.1,1.3-0.3l0.1,0.4c-0.2,0.1-0.7,0.3-1.5,0.3
			c-1.4,0-2.2-1-2.2-2.4c0-1.6,0.9-2.6,2.2-2.6c1.6,0,1.9,1.5,1.9,2.2c0,0.1,0,0.2,0,0.3H627.8z M630.8,526c0-0.7-0.3-1.7-1.4-1.7
			c-1.1,0-1.5,0.9-1.6,1.7H630.8z"/>
		<path class="st12" d="M632.3,528.2c0.3,0.2,0.6,0.3,1.1,0.3c0.8,0,1.1-0.4,1.1-0.9c0-0.5-0.3-0.8-1-1.1c-0.8-0.3-1.2-0.7-1.2-1.3
			c0-0.7,0.5-1.3,1.5-1.3c0.4,0,0.8,0.1,1.1,0.3l-0.2,0.4c-0.2-0.1-0.5-0.3-1-0.3c-0.6,0-0.9,0.4-0.9,0.8c0,0.5,0.3,0.7,1,1
			c0.8,0.3,1.2,0.7,1.2,1.4c0,0.8-0.6,1.4-1.6,1.4c-0.5,0-0.9-0.1-1.2-0.3L632.3,528.2z"/>
		<path class="st12" d="M639.1,522.7c0,0.2-0.1,0.4-0.4,0.4c-0.2,0-0.4-0.2-0.4-0.4s0.2-0.4,0.4-0.4S639.1,522.5,639.1,522.7z
			 M638.4,528.8V524h0.5v4.8H638.4z"/>
		<path class="st12" d="M640.5,525.2c0-0.4,0-0.8,0-1.1h0.4l0,0.9h0c0.3-0.5,0.9-1,1.6-1c0.5,0,1.7,0.2,1.7,2v2.9h-0.5V526
			c0-0.9-0.3-1.7-1.3-1.7c-0.7,0-1.2,0.5-1.4,1.1c0,0.1-0.1,0.3-0.1,0.4v3h-0.5V525.2z"/>
		<path class="st12" d="M649.2,528.6c-0.2,0.1-0.7,0.3-1.4,0.3c-1.4,0-2.3-1-2.3-2.4c0-1.5,1-2.6,2.5-2.6c0.6,0,1.1,0.2,1.3,0.3
			l-0.2,0.4c-0.2-0.1-0.6-0.3-1.1-0.3c-1.3,0-1.9,1-1.9,2.1c0,1.3,0.8,2.1,1.9,2.1c0.6,0,0.9-0.2,1.2-0.3L649.2,528.6z"/>
		<path class="st12" d="M650.3,521.8h0.5v7.1h-0.5V521.8z"/>
		<path class="st12" d="M656.1,527.7c0,0.4,0,0.8,0,1.2h-0.4l0-0.9h0c-0.2,0.4-0.8,1-1.6,1c-0.6,0-1.6-0.3-1.6-2.1V524h0.5v2.7
			c0,1,0.3,1.8,1.3,1.8c0.7,0,1.2-0.5,1.4-1c0.1-0.1,0.1-0.3,0.1-0.5v-3h0.5V527.7z"/>
		<path class="st12" d="M661.6,521.8v6c0,0.4,0,0.8,0,1.1h-0.4l0-0.9h0c-0.2,0.5-0.8,1-1.7,1c-1.2,0-2.1-1-2.1-2.4
			c0-1.6,1-2.6,2.2-2.6c0.8,0,1.4,0.4,1.6,0.8h0v-3H661.6z M661.1,525.9c0-0.1,0-0.3,0-0.4c-0.2-0.6-0.7-1.2-1.5-1.2
			c-1,0-1.7,0.9-1.7,2.1c0,1.1,0.5,2.1,1.7,2.1c0.7,0,1.3-0.5,1.5-1.2c0-0.1,0-0.2,0-0.4V525.9z"/>
		<path class="st12" d="M663.2,526.4c0,1.5,0.8,2.1,1.8,2.1c0.7,0,1.1-0.1,1.3-0.3l0.1,0.4c-0.2,0.1-0.7,0.3-1.5,0.3
			c-1.4,0-2.2-1-2.2-2.4c0-1.6,0.9-2.6,2.2-2.6c1.6,0,1.9,1.5,1.9,2.2c0,0.1,0,0.2,0,0.3H663.2z M666.3,526c0-0.7-0.3-1.7-1.4-1.7
			c-1.1,0-1.5,0.9-1.6,1.7H666.3z"/>
		<path class="st12" d="M671.8,521.8v6c0,0.4,0,0.8,0,1.1h-0.4l0-0.9h0c-0.2,0.5-0.8,1-1.7,1c-1.2,0-2.1-1-2.1-2.4
			c0-1.6,1-2.6,2.2-2.6c0.8,0,1.4,0.4,1.6,0.8h0v-3H671.8z M671.4,525.9c0-0.1,0-0.3,0-0.4c-0.2-0.6-0.7-1.2-1.5-1.2
			c-1,0-1.7,0.9-1.7,2.1c0,1.1,0.5,2.1,1.7,2.1c0.7,0,1.3-0.5,1.5-1.2c0-0.1,0-0.2,0-0.4V525.9z"/>
		<path class="st12" d="M673.1,528.5c0-0.3,0.2-0.4,0.4-0.4s0.4,0.2,0.4,0.4c0,0.2-0.2,0.4-0.4,0.4
			C673.2,528.9,673.1,528.7,673.1,528.5z"/>
	</g>
</g>
</svg>
