<?xml version="1.0" encoding="utf-8"?>
<!-- Generator: Adobe Illustrator 25.2.1, SVG Export Plug-In . SVG Version: 6.00 Build 0)  -->
<svg version="1.1" id="Layer_2_1_" xmlns="http://www.w3.org/2000/svg" xmlns:xlink="http://www.w3.org/1999/xlink" x="0px" y="0px"
	 viewBox="0 0 808.5 541" style="enable-background:new 0 0 808.5 541;" xml:space="preserve">
<style type="text/css">
	.st0{fill:#EEF2F4;}
	.st1{fill:#A6A8AB;}
	.st2{opacity:0.85;}
	.st3{fill:#055598;}
	.st4{fill:none;stroke:#FFFFFF;stroke-miterlimit:10;}
	.st5{fill:#47C3D3;}
	.st6{fill:none;stroke:#FFFFFF;stroke-width:0.5;stroke-miterlimit:10;}
	.st7{fill:#002F87;}
	.st8{fill:none;stroke:#58595B;stroke-miterlimit:10;}
	.st9{fill:#58595B;}
	.st10{fill:none;stroke:#6D6E70;stroke-miterlimit:10;}
	.st11{fill:#6D6E70;}
	.st12{fill:none;stroke:#58595B;stroke-width:0.5;stroke-linecap:round;stroke-miterlimit:10;}
	.st13{fill:#6FCBDC;}
	.st14{fill:none;stroke:#58595B;stroke-width:0.4197;stroke-linecap:round;stroke-miterlimit:10;}
</style>
<path class="st0" d="M9.5,0.1c-2.9,0-5.3,2-5.3,4.4v532.1c0,2.4,2.4,4.4,5.3,4.4h788.6c2.9,0,5.3-2,5.3-4.4V4.4
	c0-2.4-2.4-4.4-5.3-4.4L9.5,0.1L9.5,0.1z"/>
<g>
	<g>
		
			<image style="overflow:visible;opacity:0.12;" width="381" height="329" xlink:href="501B5B885E8A2731.png"  transform="matrix(1 0 0 1 31 29)">
		</image>
		<g>
			<g>
				<path class="st1" d="M345.8,287.7c0,0.3,0,0.6,0,0.9c0.5-0.2,1-0.3,1.7,0c0.2,0.1,0.4,0.2,0.6,0.3c0.7,0.1,1.6,0.3,2.4,0.5
					c0.6,0.2,1.5,0.4,1.7,0.4c1.6-0.1,1.9-0.6,2.1-1.5c0.1-0.4,0.1-1.1,0-1.7c-0.1-1.4-0.1-2.9,0.8-4.2c0.9-1.3,2.1-1.3,2.8-1.3
					c0.2,0,0.3,0,0.5,0c0.4-0.1,0.4-0.1,0.6-0.4c0.2-0.3,0.5-0.8,1.1-1.3c2.1-1.7,4.4-0.6,6,0.2c0.7,0.3,1.4,0.7,1.8,0.7
					c1.8,0.1,4.2-1.7,5.7-2.7c0.4-0.3,0.4-0.5,0.5-1.2c0.1-0.4,0.1-0.9,0.3-1.3c0.7-2.2,2.2-2.2,2.9-2.3c0.3,0,0.4,0,0.6-0.1
					c0,0,0.2-0.3,0.3-0.5c0.4-0.7,1-1.8,2.3-2c2.1-0.3,2.9,1.5,3.3,2.3c0,0.1,0.1,0.2,0.1,0.3c0.1-0.1,0.1-0.1,0.2-0.2
					c0.3-0.2,0.5-0.4,0.8-0.5c0.9-0.5,1.4-0.6,2.4-0.7c0.3,0,0.7-0.1,1-0.1c1.9-0.1,2-0.3,2.2-0.9c0.6-2.3,2.2-3.4,4.6-3.1
					c0.5,0,0.8,0.2,1.1,0.3c0.1,0,0.3,0.1,0.4,0.1c0.3,0,0.7,0,1.2,0c0.2,0,0.5,0,0.7,0c0.2-3-0.5-5.7-4.4-4.4
					c0.1,0.5-0.1,1.1,0,1.5c-2.2,0.5-2-0.7-3.4-1.3c-1.7-0.8-3.5-0.4-5.3-0.8c-0.2-2.1,4.5,0.1,5.1-2.6c0.9-4.1-5-1.6-7.3-1.8
					c-3.9-0.3-7.8-0.3-11.8-0.5c-3.6-0.2-4.3-3.1-7.9-2.9c0.3,2-0.4,1.5-1.3,2.1c-1.4,0.8-3.5,1.4-5.2,1.6
					c-3.6,0.2-7.1-0.4-10.7-0.3c-1.4,1.5-3.1,2.5-4.7,3.3c-1.4,0.8-2.8,1.5-3.9,2.6c-1.5,1.5-2.7,2.4-4.5,3.4
					c-0.2,0.1-0.4,0.2-0.7,0.4c-0.7,0.4-2.5,1.3-2.6,1.9c-0.1,0.4,0,0.8,0,1.4c0.1,1.1,0.2,2.4-0.5,3.6c-0.2,0.3-0.4,0.5-0.6,0.7
					c0.1,0,0.1,0,0.2,0c0.8,0.1,1.7,0.4,2.5,0.7c0.4-0.3,0.9-0.5,1.6-0.5c1.2,0.1,1.9,0.4,2.7,0.9l0.4,0.2c0.1,0.1,0.3,0.1,0.4,0.1
					c0.5,0.1,1.1,0.3,1.6,0.7c1,0.8,1.2,1.8,1.3,2.5c0,0.1,0,0.2,0.1,0.2c0,0,0.1,0,0.1,0c0,0,0.1,0,0.1,0c0.1-0.6,0.4-1.5,1.2-2.3
					c0.7-0.6,1.6-0.8,2.6-0.7c1.4,0.2,2.8,1,3.6,2.1c1.5,2.2,0.2,4.1-0.5,5.3C346.2,285.6,345.9,286.6,345.8,287.7z"/>
				<path class="st1" d="M331.7,240.1c0,1.8-0.3,3.6-0.5,5.3l-0.1,0.9c-0.4,2.7-0.4,5.4-0.4,7.8c0,0.1,0,0.3,0,0.4
					c0.7,0.1,1.6,0.1,2.4,0.1c0.3,0,0.6,0,0.9,0c0.7-0.8,2.3-1.5,3.2-1.9c1.4-0.7,3.3-1.1,4.3-2.5c0.6-1,0.3-1.6,0.5-2.7
					c0.4-1.7,1.5-3.5,0.8-5.3c-0.5-1.3-1.9-1.6-2-3c-0.1-0.8,0.8-1.5,0.9-2.3c0.3-1.6-0.1-3.4,0.2-5c0.3-1.2,0.9-2.7,0.6-3.7
					c-0.7,0.4-1.4,0.6-2.1,0.8c-0.2,0.1-0.5,0.1-0.7,0.2c-0.3,0.1-0.5,0.1-0.8,0.1c0,0.1,0,0.2-0.1,0.3c-0.3,0.8-0.7,1.4-1.3,1.9
					c-0.2,0.1-0.3,0.3-0.4,0.4c-0.1,0-0.1,0.1-0.1,0.1c0,0,0,0,0,0.1c-0.5,1.8-2.6,2.7-4.3,2.6c-0.4,0-0.8,0.1-1.1,0.2
					c0.4,1.2,0.3,2.7,0.2,4C331.7,239.4,331.7,239.8,331.7,240.1z"/>
				<path class="st1" d="M295.6,260.6c0.1-0.3,0.3-0.7,0.4-1.2c0.3-1.1,0.7-2.9,2.6-3.5c0.6-0.2,1.2-0.2,1.7-0.2c0.1,0,0.2,0,0.3,0
					c0-0.1,0.1-0.1,0.1-0.2c0.2-0.4,0.5-1.1,1.2-1.5c1.2-0.8,3-0.7,5.2-0.6c1.8,0.1,2.3,0,3.5-0.3l0.4-0.1c1.3-0.3,2.3,0.5,2.8,0.9
					c0.2,0.1,0.4,0.3,0.5,0.4c0.1,0,0.2-0.1,0.4-0.3c0.4-0.5,0.5-1.4,0.3-2.2c-0.2,0-0.3,0-0.5,0l-0.5-0.1c-1.3-0.2-2.8-0.4-3-2.6
					c0-0.3-0.1-0.6-0.1-0.8c0,0,0,0,0,0c-0.4,0-1-0.1-1.6-0.4c-1.2-0.7-1.9-2.1-2.1-3.4c-1.6-0.7-4-2-3.7-4.1
					c0.1-0.7,0.7-1.3,1.5-1.3c1,0,1.9,0,2.9,0c0,0,0.1,0,0.1,0c0-0.4-0.1-0.8-0.1-1.3c-0.1-0.9-0.2-1.8-0.2-2.8
					c0-0.7,0.4-1.2,1.1-1.5c2.4-0.8,5.4-0.6,8.1-0.4c2.4,0.2,4.2,0.2,6.2,0.2c1.9,0,3.8,0.1,5.6,0c0.1-0.1,0.2-0.3,0.3-0.4
					c1.3-1.4,3.7-1.2,3.9-1.2c0.5,0,1.1-0.2,1.2-0.4c0.3-1,0.7-1.4,1.2-1.8c0.1-0.1,0.2-0.1,0.3-0.2c0.1-0.1,0.3-0.3,0.3-0.5l0-0.1
					c0-0.4,0-0.9,0.3-1.4c0.5-0.9,1.6-1,2.3-1.1c0.1,0,0.3,0,0.4,0c0.2-0.1,0.5-0.1,0.8-0.2c0.7-0.2,1.4-0.4,1.8-0.7
					c0.4-0.4,1-0.6,1.6-0.4c0.4-0.5,0.8-0.9,1.5-1.2c-0.5,0.8-0.7,1.3-0.7,1.8c0.2,0.2,0.3,0.5,0.3,0.8c0.6,0.8,1.8,1.2,2.5,2.1
					c0.7,0.9,1,4.3,3,2.3c1.1-1.1,0.3-4.8,0.7-6.4c0.6-2.1,2.8-3.8,1.9-6.2c-0.6,0.2-1.2,0-1.8,0.1c-1-2.6,2.7-1.9,3.1-3.9
					c0.6-3.1-2.7-2.1-4.1-2.5c-0.3-1.8,0.9-1.7,2.1-2.3c1.7-0.9,1.4-0.8,2-2.2c0.4-0.9,0.3-1.2,0.8-2c0.5-0.8,1.3-1.5,2-2.2
					c2.1-2.1,5.5-4.2,6.8-7.1c0.7-1.5,0.7-6-2.1-4.9c-0.2-1.8,0.3-4.4-1.7-5c-1.5-0.4-3.2,1.1-4.8,1.2c-1.8,0-4.1-1.3-6.1-0.5
					c-0.5,0.2-1.2,1.2-1.8,1.6c-1.2,0.6-2.3,1.5-3.5,0.9c-2.2-1.1-3.1,0.6-4.9,1.3c-1.6,0.6-4-0.4-5.7-0.4c-3,0.1-6.5,0.3-9.2,1.6
					c-0.7,0.3-1.9,0.9-1.6,1.8c0.2,0.8,1.4,0.8,2.1,1c0,1.4-2.3,2.3-3.1,3.2c-1.5,1.5-1.5,3.2-1.2,5.2c0.3,2.2,0.8,4-1.4,5.2
					c-1.8,1-2.3,0.8-2.3,2.8c0,2.2,0.6,5.9-1.9,6.7c-1.3,0.4-2.7,0.4-4,0.7c-1.2,0.2-3.5,1.3-3.8,2.7c-0.2,1,1.1,1.7,1.1,2.7
					c0.1,1-0.5,2.5-1,3.2c-1,1.3-1.8,0.7-3.2,0.6c-1-0.1-1.6,0.4-1.7-0.8c-0.1-0.9,0.6-1,0.8-1.7c0.1-0.4,0-1.5-0.3-1.8
					c-0.7-0.8-0.7-0.1-1.6,0.1c-1.4,0.3-3.4-0.9-4.8-0.2c-0.8,0.4-0.8,1.7-1.6,2c-1.2,0.5-3-0.5-4.2,0.3c-0.9,0.6-0.8,1.5-1.8,1.7
					c-1.1,0.2-2.3-0.2-3.4,0c-1.3,0.2-1.4,0.9-2,1.9c-0.3,0.5-0.1,0.7-0.8,1.1c-0.6,0.3-2.8,0.1-3.3-0.2c-0.7-0.4-0.9-0.9-1.8-1.1
					c-0.6-0.1-1.7-0.1-2.3,0.1c-0.9,0.4-1,1.4-1.7,1.8c-0.7,0.4-2.6-0.3-3.2-0.7c-1.6-1.1-2.3-3.4-2.6-5.2c-0.3-1.8-1.5-2.1-3.2-2.8
					c-1.6-0.7-2.8-0.3-4.4-0.4c-1.7-0.1-3.2-1-4.3-2.2c-1.7-1.8-1.8-4.1-2.6-6.3c-0.8-2-2-3.4-3.4-5c-1.4-1.7-1-2.6-1.4-4.5
					c-0.3-1.5-1.7-2.1-2.8-2.9c-2.1-1.4-3.5-4.6-3.9-7.1c-0.2-1.5,0.6-3.1,0.2-4.6c-0.5-2-2.1-2.7-1.7-4.9c0.2-1.6-0.3-1.9-0.4-3.4
					c-0.2-3.7-0.6-7.8-0.3-11.3c0.3-3.9-1-8.1-0.3-11.9c0.4-2.4,2.3-4.2,2.7-6.6c0.3-1.6,0.4-3.3,0.8-4.8c0.3-1.6,0-3.7,0.5-5.3
					c0.7-2.6,1.3-1.5,3.4-2.7c0.9-0.5,1.7-1,2.1-1.8c-0.5-0.2-1-0.5-1.5-0.9c-0.4-0.3-0.7-0.6-0.9-0.9c0,0-0.1-0.1-0.1-0.1
					c0,0-0.1,0-0.1,0c-0.4-0.1-1-0.2-1.6-0.6c-0.6-0.4-1.2-0.9-1.6-1.3c-0.4-0.3-0.9-0.8-1.1-0.8c-0.2,0-0.4-0.1-0.7-0.1
					c-1.4-0.2-3.7-0.6-4.8-2.6c-1-0.7-2.2-1.3-3.4-1.8c-2.1-0.9-4.4-2-6.1-4.1c-2.3-2.7-1.7-5.9-1.3-8.4c0.3-1.6,0.5-3.1,0.1-4.1
					c-0.1-0.2-0.5-0.5-0.9-0.8c-0.7-0.5-1.5-1-2.2-2c-0.5-0.8-0.7-1.6-0.8-2.2c0-0.2-0.1-0.3-0.1-0.5c-0.2-0.7-0.7-1.5-1.3-2.3
					c-0.5-0.7-1.1-1.5-1.5-2.5c-1-2.2-1.5-4.6-2-7c-0.1-0.5-0.2-1-0.3-1.5c-0.3-2-0.8-4.8-1.9-5.8c-0.1,0-0.2-0.1-0.4-0.2
					c-0.5-0.2-1.4-0.6-2.1-1.6c-0.7-1-1-2.1-1.3-2.9c-0.3-1-0.5-1.5-0.8-1.7c-0.3-0.2-1-0.3-1.5-0.4c-3.6-0.6-6.9-0.2-10,1.3
					c-1.8,0.9-1.9,1.4-2.5,4.2c-0.3,1.3-1.1,3.2-4.1,2.9c-0.6,1.1-1.5,1.6-2.7,1.7c-1.3,0.1-2.7-0.5-3-0.6c-1.5-0.6-2.8-1.5-4.1-2.3
					c-1.1-0.7-2.2-1.4-3.4-1.9l-0.4-0.2c-2.3-1-5.8-2.6-6.8-5.9l-0.2-0.6c-0.1-0.4-0.3-1-0.4-1.1c-0.1-0.1-0.1-0.1-0.2-0.1
					c-0.3-0.2-0.8-0.5-1.2-1c-1.2-1.5-0.8-3.3-0.6-4.3c0.1-0.3,0.2-0.7,0.2-0.8c0-0.3-0.4-1-0.7-1.5c-0.7-1.1-1.6-2.7-1.2-4.6
					c-2.3-0.8-4.1-2.8-4.7-5.2c0-0.2-0.1-0.4-0.1-0.6c0-0.2-0.1-0.3-0.1-0.5c0,0-0.3-0.1-0.5-0.2c-0.6-0.3-1.4-0.8-2-1.7
					c-0.6-0.9-0.8-1.8-0.9-2.5c0-0.2,0-0.3-0.1-0.5c-0.2-1-2.3-2.9-3.7-3.5c-0.3-0.1-0.4-0.1-0.4-0.1c-0.2,0-0.3,0-0.5,0l-0.2,0
					c-0.5,0-1.2,0-3.3-0.2c-2.6-0.2-9.8-0.9-12.5-0.5c-0.1,1.1-0.5,2.4-1.3,3.3c-0.7,0.8-1.6,1.2-2.5,1.2c-0.7,0-1.5,0.1-2.3,0.2
					c-0.9,0.1-1.9,0.3-3,0.3c-5.3,0-10.7-0.2-15.9-0.4c-1.7-0.1-3.5-0.1-5.2-0.2c-6.2-0.2-11.1-1.5-15.9-4.1c-1-0.5-1.8-1.2-2.6-1.8
					c-0.8-0.7-1.6-1.3-2.5-1.6c-0.5-0.2-1.1-0.3-1.8-0.4c-1.5-0.2-3.3-0.6-4.8-2c-0.4-0.4-0.7-0.8-1-1.1c-0.3-0.4-0.4-0.5-0.6-0.6
					c-0.6-0.3-1.4-0.4-2.2-0.6c-1.5-0.3-3.2-0.6-4.7-1.8c-0.4-0.3-0.7-0.6-1-0.9c-0.2-0.3-0.4-0.4-0.5-0.5c-0.2-0.1-0.6-0.3-1.1-0.4
					c-0.9-0.3-2.1-0.7-3-1.6c-0.5-0.5-0.8-1-1-1.3c-1.3-0.3-2.7-0.3-4.1-0.2c-1,0-2,0.1-3,0c-1.5-0.1-2.9-0.3-4.2-0.6
					c-1.3-0.2-2.6-0.4-3.8-0.5c-1.8-0.1-3.6-0.1-5.5,0c-2.1,0-4.3,0.1-6.5-0.1c-0.4,0-0.8,0-1.3,0c0.2,1.2,0.2,2.3,0.1,3.7
					c-0.1,0.9,0,1.6,0.3,2.3c0.3,0.6,1.2,0.7,1.3,1.4c0.6,0.4,3.3,2.5,2.4,3.4c-0.5,0.5-1.2-0.2-1.4,0.7c-0.1,0.7,0.3,1.7,0.4,2.4
					c0.2,1.2,0.9,2.3,2,2.9c0.8,0.5,2.1,1.1,1.8,2.2c-0.2,0.7-1,0.5-1.1,1.1c-0.2,0.9,1.2,1.3,1.7,1.8c2.3,2,1.1,3.8,0.9,6.1
					c-0.1,0.9,0.3,1.7,0.8,2.4c0.5,0.8,0.6,1.6,0.8,2.4c0.1,0.5,0.1,1.1,0.1,1.7c0,1.4-0.2,2.9,0.8,4c0.4,0.4,0.7,0.7,0.9,1.2
					c0.3,0.5,0.5,1.1,0.9,1.5c1.4,1.3,4.4,0.8,6.1,1.9C54,78.7,55,79,55.9,80.9c0.7,1.3,0.5,2.2,1.5,3.4c1.3,1.5,1.3,3.2,2.8,4.5
					c0.5,0.4,1.6,0.7,1.8,1.3c0.4,0.9-1,1.9-0.6,2.8c-1.6,0.1-0.2,2.1-0.2,2.9c0,0.9-0.2,1.1-1,1c-0.8,0-1.6,0-2.3,0.4
					c-0.4,0.2-0.8,0.5-0.6,1c0.4,0.8,1.7,0.7,2.3,0.9c0.7,0.2,0.8,0.8,0.2,1.5c-0.8,1-1.7-0.1-2.3-0.6c-0.5-0.3-0.9-0.6-1.5-0.4
					c-0.4,0.1-0.8,0.4-1.3,0.3c-0.4-0.1-0.6-0.4-0.9-0.5c-0.6-0.3-1.5-0.2-2.1-0.2c-0.8,0-3.9,0.2-2.3,1.3c0.4,0.3,0.8,0.5,1.2,0.8
					c0.4,0.4,0.5,1,0.8,1.4c0.4,0.6,0.6,0.3,1.1,0.5c0.4,0.2,0.4,0.7,0.7,1.1c0,0.5,0.2,1,0.4,1.4c0.3,0.6,0.3,1.1,0.3,1.8
					c0,0.6,0,0.9,0.4,1.3c0.8,0.7,1.7,0.7,2.7,0.7c0.9,0,0.6,0.2,1.1,0.8c0.5,0.4,1.3,0.7,1.9,0.8c0.5,0.1,1.1-0.1,1.5,0.4
					c0.3,0.4,0.3,1,0.4,1.4c0.4,1.2,1.8,1.8,3,1.6c0.6-0.1,1.2-0.2,1.5-0.8c0.3-0.5,0-1.1,0.3-1.6c0.6-0.8,2-0.4,2.2,0.5
					c0.3,1.4-0.7,2.6-0.6,4c0.1,1,1.4,1.1,1.8,2c0.8,1.9,2.5,2.4,4.4,2.8c0.7,0.2,1.3,0.4,1.7,1.1c0.2,0.4,0.3,0.9,0.6,1.4
					c0.3,0.5,0.8,0.9,1.2,1.3c1.3,1.6,2,3.5,1.4,5.5c-0.5,1.5-0.7,3.1-1.1,4.7c-0.3,1-0.7,1.9-1.3,2.8c-0.5,0.7-1.2,2.6-0.8,3.4
					c0.5,1,2.3,1.5,3.4,1.5c0.9,0,2.4,0,3,0.6c0.7,0.6,0.6,1.7,0.9,2.5c0.7,1.8,2.8,1.9,3.8,3.4c0.7,0.9,0.8,2.2,1.6,3.1
					c0.7,0.8,1.4,1.1,2.2,1.7c0.6,0.4,0.5,0.4,0.8,1c0.4,0.9,1,1,1.8,1.5c1.3,0.7,1.9,1.9,2,3.3c0.1,0.8,0.1,1,0.6,1.6
					c0.6,0.7,0.9,1.1,1,2c0.1,1.4,0.1,2.5,1.5,3.2c0.9,0.5,1.3,0.1,1.8-0.5c1.1-1.3,2.7-0.8,4.1-1.5c1.8-0.8,1.3-3.8,1.3-5.4
					c0-1.4-0.5-1.3-1.6-1.9c-1-0.5-1-1.2-1.3-2.2c-0.4-1.2-1.6-1.5-2.5-2.4c-0.7-0.7-0.4-1.2-0.6-2.1c-0.2-0.7-0.9-1.3-1.6-1.3
					c-1,0.1-0.3,0.7-0.6,1.5c-0.7-0.1-1.3-0.6-2-0.9c-0.9-0.4-1.8-0.7-2.4-1.5c-0.5-0.8-0.5-1.8-1-2.7c-0.4-0.8-1.1-1.3-1.1-2.4
					c0.1-1,1-1.7,1.1-2.7c0.3-1.6-1.7-1.8-1.4-3.3c0.1-0.7,0.5-1.3,0.2-2.1c-0.2-0.5-0.8-0.8-0.9-1.3c-0.2-0.6,0.5-1.2,0.1-1.8
					c-0.4-0.7-1.5-0.7-1.7-1.5c-0.3-0.9,0.1-2.3,0.1-3.3c0-1.3-0.2-2.1-0.8-3.3c-1-2,0.6-3.8,0.3-5.8c-0.1-0.9-0.5-1.1-1.1-1.6
					c-0.5-0.4-0.5-0.5-0.5-1.2c0-0.6,0.1-1.2-0.3-1.7c-0.4-0.5-1.5-0.7-1.9-0.1c-0.3,0.5,0.2,1.4,0,1.9c-0.2,0.6-1,1-1.6,0.5
					c-0.6-0.5-0.1-1.7-0.6-2.4c-0.5-0.6-1-0.7-1.1-1.5c-0.1-0.5,0.1-1,0.2-1.5c0.1-1.3-0.6-1.8-1-2.9c-0.4-1.2,0.8-2.6,0-3.7
					c-0.4-0.6-1.2-0.6-1.7-1c-0.5-0.4-0.5-0.7-0.7-1.2c0.3-2.2-1.6-0.7-2.4-1.8c-1.5-2.1,0.8-4.7-0.2-6.9c-0.4-0.9-1.6-1.2-2-2
					c-0.5-1-0.3-2-0.2-3.1c-1-0.5-2.1-0.4-3.2-0.7c0.2-1.7-2.1-2.4-2.6-3.8c-0.6-1.6,0.7-2.8,0.6-4.2c-0.3-3.4-4.5-1.8-6.1-4.2
					c-0.3-0.4-0.5-1.9-0.7-2.5c-0.3-0.8-0.9-1.2-1.1-2.1c-0.3-1.3,0-1.9-0.7-3.1c-0.8-1.4-1.5-1.6-1.6-3.3c-0.1-1.5,0.6-2.8,0.7-4.3
					c0-1.6-0.7-2.8-0.9-4.3c-0.3-1.8,0.3-3.2,1-4.8c0.7-1.8,0.5-3.6,1.1-5.3c1.2-3.5,3.3-0.5,4.8,1.3c2.2,2.6,3.9-0.5,6.4,1.2
					c1.1,0.7,1.3,1.9,2.7,2.5c0.9,0.4,3.8,0.5,4.3,1.3c1.2,1.8-1.8,3.3-2.3,4.4c-0.5,1.2-0.1,2.3,0.2,3.2c0.5,1.5,0.9,1.9,0.9,3.7
					c0.1,1.4-0.6,3.5,1.4,3c0.7,2.7,1.1,5.5,2.3,8.2c0.8,1.9,2,3.3,2.8,5.1c0.5,1.2,0.5,2.1,1.2,3.3c1,1.7,0.5,3.4,1.3,4.9
					c0.6,1.1,2.2,1.4,2.9,2.3c0.7,0.8,0.6,1.5,0.9,2.3c1,2.7,1.8,3.5,4.6,4.4c1.9,0.6,4.7,1.2,5.5,3.4c0.6,1.8-0.2,4.5,0,6.4
					c0.3,3.4,2.8,3,3.9,5.6c0.6,1.6-0.2,2,1.7,2.7c1,0.4,2.4,0.1,3.5,0.3c4.1,1,1.2,2.3,2.4,4.5c-0.1,1.2,2.4,1.1,3.1,1.5
					c1.1,0.6,0.4,1.9-0.6,2.2c-1,0.3-2-0.3-2.9,0.4c-0.6,0.5-1.3,1.5-1.7,2.2c-0.5,0.9-1.2,3-0.5,4c0.6,0.8,2.4,0.8,3.3,1.1
					c1,0.4,1.9,1.5,2.9,2.3c0.8,0.6,1.8,1,2.5,1.6c0.4,0.4,0.4,0.8,0.9,1.1c1.2,0.8,2.7,0.7,4.1,0.8c1.2,0,1.9,0.9,1.9,2.2
					c1.5,1.4,0,3.5-1.3,4.3c-0.8,0.4-1.7,1.4-0.6,2.1c1.2,0.8,3-0.3,4.2,0.4c0.5,0.3,0.8,1.3,1.1,1.7c0.5,0.8,1.1,1,1.7,1.7
					c0.4,0.4,0.7,1,1.2,1.4c0.6,0.6,1.3,1.6,2,2c0.3,0.7,0.4,1.3,0.9,1.8c0.5,0.6,1.1,1.1,1.6,1.7c1,1.1,1.8,2.5,2.3,3.9
					c0.8,2,2.1,3.7,3,5.7c0.7,1.8,0.4,2.9,2,4.3c1.2,1.1,3.4,1.9,4,3.6c0.5,1.7-0.8,3.1-0.9,4.6c0,1.8,1.3,3.2,2.1,4.7
					c1.1,2.3,4.2,6.7,2.1,9.1c-1,1.1-4.4,1.2-4.6,3.2c-0.2,1.5,3,2.2,4.5,2.1c0.7,2.4-3,2-4.5,2.5c-1.5,0.5-1.3-0.2-1.6,1.6
					c-0.2,0.9,0,2,0.3,2.8c0.6,2.2,2,3.7,3.6,5.1c2,1.8,1.8,3.4,3.5,5.1c1.2,1.2,2.8,2.6,4.6,2.8c0.6,0.1,2.1-0.3,2.6,0.2
					c0.5,0.5,0,1.2,0.8,1.6c1.8,1,4.1,0.2,5,2.4c0.3,0.8,0.5,1.1,1.2,1.6c0.8,0.6,2,1.1,2.2,2.2c0.1,0.5-1.1,3.6,0.3,3.3
					c0.4,0.2,0.8,0.2,1.3,0.2c1.4,0.2,2.3,1,3.5,1.7c0.9,0.5,1.6,0.8,2.6,0.8c2,0.1,3.8,0.9,5.8,1c0.7,0,1.5-0.1,2.2,0
					c0.9,0.1,0.8,0.6,1.4,1.2c1.2,1.2,3.1,1.7,4.5,2.6c1,0.6,1.8,1.6,2.8,2.3c2.5,2,4.9,4.8,8.2,5.5c1.6,0.3,3.3,0,4.9,0.3
					c1.1,0.1,2.2,0.3,3.3,0.7c1,0.4,1.3,1.2,1.6,2.2c1,2.5,4.7,1.4,6.8,1.9c0.8,0.2,1.8,0.6,2.2,1.4c0.4,0.8,0.8,2,1.6,2.4
					c1,0.5,2.5,0,3.5,0.2c1.2,0.3,1.9,1.2,2.8,1.9c2.2,1.6,5.7,1.3,8.4,1.8c2.2,0.4,3.7,1.4,5.6,2.4c1.3,0.7,2.5,0.5,3.9,1.1
					c1.6,0.8,2.6,1.2,4.5,0.7c1.7-0.4,2.9-1.6,4.4-2.2c0.7-0.3,1.6-0.2,2.3-0.5c0.6-0.3,0.8-0.9,1.4-1.3c1.5-1.1,8.5-0.7,8.8-1.7
					c-0.8-0.6-4.5-0.9-4.1-1.8c0.2-0.5,2.1-0.3,2.5-0.3c1.4,0.1,0.9,0.6,1.8,1.1c1.1,0.7,2.6,0.1,3.8,0.8c1.1,0.7,2.7,3.7,4.1,2.9
					c-0.3-1-1.3-2-2.1-2.6c-0.8-0.6-2.3-0.8-2.5-1.9c1.1-0.7,3.8,0.7,4.7,1.4c1.7,1.2,2.9,2.9,4,4.6c1,1.7,0.6,3.3,2.7,4.3
					c1.5,0.7,5.6,0.3,5.1,2.8c1.7,2.2,4,3.9,6.1,5.7c0.1-0.1,0.2-0.2,0.3-0.4c0.5-0.8,0.5-2.5,0.5-4c0-1.1,0-2.2,0.2-3.2
					c0.3-1.4,1.1-2.3,1.7-3C295.1,261.3,295.4,261,295.6,260.6z"/>
				<path class="st1" d="M319.2,278.1c1.2-1.2,2.5-1.5,3.6-1.8c0.6-0.1,1.1-0.3,1.6-0.5c0.3-0.1,0.4-0.3,0.7-0.8l0.3-0.4
					c0.2-0.3,0.5-0.6,0.8-0.9c0.2-0.2,0.4-0.4,0.5-0.6c0.2-0.3,0.2-1.1,0.1-1.8c0-0.6-0.1-1.3,0-2c0.3-2.1,2.6-3.3,4.2-4.2
					c0.2-0.1,0.4-0.2,0.6-0.3c1.6-0.9,2.5-1.5,3.8-2.8c1.4-1.4,3-2.3,4.6-3.2c0.5-0.3,1-0.6,1.5-0.8c-1.3-0.1-2.8-0.1-4.2-0.1
					c-1.1,0-2.2,0.1-3.3,0c-0.4,0-0.7,0-1.1,0c-1.5,0-3.2,0-4.7-0.7c-0.4-0.2-0.7-0.5-0.8-0.9c-0.2-0.6-0.2-1.2-0.1-1.7
					c0-0.1,0-0.2,0-0.3c0-2.5,0-5.4,0.5-8.3l0.1-0.9c0.2-1.7,0.5-3.2,0.5-4.8c0-0.4,0-0.9,0.1-1.4c0-0.5,0.1-1.5,0.1-2.3
					c-1.9,0.1-3.8,0-5.7,0c-2,0-4,0-6.3-0.2c-1.9-0.1-4.1-0.3-5.8,0c0,0.4,0.1,0.8,0.1,1.3c0.1,1,0.2,2.1,0.1,3.2
					c0,0.8-0.7,1.4-1.4,1.5c0.4,0.3,0.6,0.8,0.6,1.2c0,0.9,0.4,1.6,0.6,1.8c0,0,0.1,0,0.2,0c0.5,0,1.5,0.1,2.3,1
					c0.2,0.2,0.6,0.7,0.8,2.4c0.1,0,0.2,0,0.4,0.1l0.6,0.1c0.2,0,0.4,0,0.6,0c0.7,0,1.8-0.1,2.4,0.9c0.4,0.7,0.3,1.4,0.1,1.9
					c0.3,1.6,0,3.2-0.9,4.4c-0.8,1-1.8,1.5-3.1,1.6c-1,0-1.8-0.6-2.3-1c-0.1-0.1-0.3-0.2-0.4-0.3l-0.2,0c-1,0.2-1.8,0.4-3.1,0.4
					c-0.4,0-0.8,0-1.3-0.1c-0.8-0.1-2.8-0.2-3.3,0.1c0,0,0,0.1-0.1,0.2c-0.2,0.4-0.5,1-1.1,1.4c-0.8,0.5-1.7,0.5-2.2,0.5
					c-0.2,0-0.4,0-0.5,0c-0.2,0.1-0.3,0.4-0.6,1.3c-0.1,0.6-0.3,1.2-0.6,1.8c-0.4,0.7-0.9,1.3-1.3,1.8c-0.5,0.6-0.9,1-1,1.5
					c-0.1,0.7-0.1,1.6-0.1,2.6c0,1.9,0,4.1-1,5.7c-0.2,0.3-0.4,0.6-0.6,0.8c0.4,0.4,0.9,0.9,1.1,1.4c0.4,0.9,0.3,1.9,0.9,2.7
					c0.8,1.1,2.9,2.4,4.2,2.5c0.6,0.1,1.4-0.1,2,0c0.6,0.1,1.1,0.7,1.6,1c2,1.3,3.8,0.5,6.1,0.5c1.4,0,2.7,0.6,4,0.9
					c0.2-0.6,0.4-1.2,0.8-1.9c0.7-1.1,1.8-1.8,2.7-2.4C318.3,278.8,318.9,278.5,319.2,278.1z"/>
				<path class="st1" d="M365,313.5c0.7-1.4,1.8-2,2.5-2.2c1.8-0.5,3.8,0.4,5.1,1.2c1.5,1,3.4,0.9,5.4,0.9c0.8,0,1.6,0,2.5-0.1
					c1-0.1,2.2-0.2,3.3,0.1c1.7,0.5,2.3,1.5,2.7,2.3c0.1,0.2,0.2,0.4,0.3,0.5c0.5,0.7,1,1,2,1.1c0.4,0,0.9,0,1.4-0.2
					c0-0.1,0-0.2,0.1-0.3c0.1-0.9,0-1.6-0.7-2.2c-0.7-0.7-1.5-1.5-1.3-2.6c0.1-0.7,0.5-1.7,1.1-2.1c1.2-0.8,2.1-1,2.3-2.6
					c0.1-0.8-0.5-2.1-1.3-1.2c-0.6,0.7-0.8,2.1-2,1.9c-0.3-0.8,0.4-1.2,0.6-2c0.1-0.4,0-1,0.1-1.4c0-0.7,0.2-0.9,0.5-1.5
					c0.7-1,0.6-1.8,0.6-2.9c0-0.6,0.9-3.5,1.6-2.8c0.6,0.6-1.3,5.2,0.9,4.4c0.7-0.2,1.3-0.9,1.7-1.4c0.5-0.7,0.4-1.3,0.2-2
					c-0.3-1.6-0.3-3.2-0.3-4.9c0-1.2,0.7-3.3-0.1-4.4c0.2-0.8-1.3-1.1-1.5-1.9c-0.2-0.7,0.3-0.8,0.7-1.2c0.6-0.6,0.4-1.5,0.4-2.2
					c1.8-1.1,7.7-3.7,5.6-6.3c-1-1.3-1.9-0.4-2.2-2.3c0-0.2,0.4-1.6,0.4-2.2c0.1-0.6,0.2-1.4,0.3-2.3c-0.1,0-0.1,0-0.2,0
					c-0.6,0-1.2,0.1-1.8,0c-0.4-0.1-0.8-0.2-1.1-0.3c-0.1,0-0.2-0.1-0.3-0.1c-0.8-0.1-0.9,0-1.2,0.8c-0.7,2.9-3.3,3.1-5,3.2
					c-0.3,0-0.6,0-0.9,0.1c-0.8,0.1-0.8,0.1-1.3,0.3c-0.1,0.1-0.3,0.2-0.4,0.3c-0.6,0.5-1.8,1.4-3.3,0.7c-1-0.4-1.4-1.4-1.8-2.1
					c0,0,0-0.1,0-0.1c-0.3,0.6-0.7,1.3-1.5,1.7c-0.8,0.4-1.5,0.5-1.9,0.5c0,0,0,0,0,0c0,0,0,0.1,0,0.1c-0.1,0.3-0.1,0.6-0.2,0.9
					c-0.1,0.9-0.3,2.1-1.8,3.2c-1.9,1.4-4.8,3.6-7.8,3.4c-1.1-0.1-2-0.5-3-1c-1.6-0.7-2.2-0.9-2.7-0.5c-0.2,0.2-0.3,0.3-0.4,0.5
					c-0.5,0.7-1,1.4-2.5,1.8c-0.4,0.1-0.7,0.1-1.1,0.1c-0.1,0-0.3,0-0.4,0c-0.2,0.4-0.1,1.4-0.1,2.2c0,0.8,0.1,1.7-0.1,2.6
					c-0.8,3.6-3.9,3.9-5,4c-0.1,0-0.2,0-0.2,0c-0.6,0-1.4-0.2-2.5-0.5c-0.1,0-0.3-0.1-0.5-0.1c-0.1,0.1-0.1,0.2-0.2,0.3
					c-0.3-0.1-1-0.4-1.7-0.6c-0.3,0.2-0.6,0.2-1,0.2c0.1,0.7,0.1,1.3,0,1.9c0.9,0.5,2,0.8,2.3,0.9c3.3,0.9,1.9,4,4.1,5.9
					c0.8,0.7,2,0.7,2.7,1.2c0.8,0.7,0.6,1.6,0.8,2.5c0.6,2.2,2.8,2.8,4,4.7c0.6,1,0.9,2.2,1.7,3.3c0.8,1,1.9,1,2.8,1.4
					C364.9,313.8,365,313.7,365,313.5z"/>
				<path class="st1" d="M343.2,280.4c-0.1,0.1-0.1,0.2-0.2,0.6c-0.2,0.7-0.6,2.7-3.5,2.4c-2.4-0.2-2.7-2-2.9-2.7
					c-0.1-0.4-0.1-0.5-0.2-0.6c-0.1,0-0.2-0.1-0.4-0.1c-0.4-0.1-0.8-0.2-1.1-0.4l-0.5-0.2c-0.6-0.3-0.8-0.4-1.2-0.5
					c-0.4,0.3-1.2,0.8-2.3,0.4c-0.6-0.2-1.7-0.7-2.3-0.7c-0.2,0-0.5,0-0.7,0c-0.4,0-1,0-1.7-0.2c-0.2,0.1-0.3,0.2-0.5,0.3
					c-0.8,0.4-1.6,0.6-2.2,0.7c-0.9,0.2-1.6,0.4-2.2,1c-0.6,0.6-1.3,1.1-2,1.5c-0.7,0.4-1.4,0.9-1.7,1.3c-0.1,0.1-0.1,0.2-0.2,0.3
					c0.6,0,1.2,0.1,1.8,0.4c1,0.5,1.3,1.5,2.4,1.9c1.7,0.7,5.9,0.7,6.2,3.1c1.1,0.5,2.3,1,3.5,0.9c1.1-0.1,1.8-0.9,2.9-0.8
					c1.9,0.2,2.1,2.8,3.9,3.2c1.1,0.2,3.4-0.6,4.6-1.2c-0.2-1-0.3-2.1-0.3-3.3c0.1-1.7,0.6-3.3,1.6-4.7c0.9-1.3,0.8-1.4,0.6-1.7
					C344.5,280.7,343.5,280.2,343.2,280.4z"/>
				<path class="st1" d="M401.8,332.1c0.2,0,0.4,0,0.6,0c0.5,0,0.8-0.1,1.2-0.2c0,0-0.1-0.1-0.1-0.1c-0.7-0.5-2-0.3-2.9-0.4
					c-0.4,0-2.7-0.4-2.2-0.8c0.1,0.1,0.2,0.1,0.3,0.1c0.2-0.9-1.2-1-1.5-1.7c-0.2-0.3-0.1-0.8-0.3-1.1c-0.2-0.6-0.6-0.8-1.1-1.1
					c-0.4-0.2-1.4-0.6-1.6-1c-0.2-0.4,0.2-1.3,0-1.8c-0.2-1-0.7-1.1-0.7-2.2c0-0.6,0.1-1.3,0-1.9c0-0.3-0.1-0.5-0.2-0.7
					c-1.5,0.9-3.4,1.3-4.7,1.2c-2-0.2-3.4-1-4.4-2.5c-0.2-0.3-0.3-0.5-0.4-0.7c-0.3-0.6-0.4-0.7-0.8-0.8c-0.6-0.2-1.4-0.1-2.3,0
					c-1,0.1-1.8,0.1-2.7,0.1c-2.3,0-4.9,0.1-7.2-1.4c-1.2-0.8-2.1-1-2.5-0.8c-0.1,0-0.3,0.1-0.6,0.6c-0.1,0.2-0.1,0.4-0.2,0.7
					c-0.1,0.6-0.2,1.6-1.1,2.5c-0.2,0.2-0.5,0.4-0.8,0.7c1.1,0.6,2.1,0.7,1.8,2.2c-0.3,1.6-1.5,1-2.4,1.8c-0.9,0.8-2.1,3.9-1.5,5.1
					c0.7,1.5,2.6,1.1,3.9,1c1.5-0.2,1.6-0.3,2.7,0.8c1.6,1.6,3,2.4,5.4,1.6c0.3-2.2-1.1-2-2.4-3.1c-1.5-1.2-1.3-3.2,0.9-2.7
					c1.2,0.3,2.9,1.4,3.9,2.2c1,0.8,1.1,1.4,1.2,2.6c0.1,0.8-0.1,1.7,0.8,2.4c1.4,1.1,2.7,2.5,4.2,3.4c1.4,0.8,4.5,1.4,4.9,3.3
					c0.3,1.4-1.2,2.4-1.2,3.7c-0.1,1.4,0.8,2.1,1.4,3.2c1,1.5,2.2,2.3,4.1,2c0.9-0.1,1.2-0.7,1.1-1.7c-0.1-1-0.7-1.2-1.6-1.6
					c-0.6-0.2-2.8-1.7-1-2.2c0.7-0.2,1.4,0.8,2,1c0.6,0.3,2.3,0.9,2.4,1.7c0.1,1.2-0.6,2.2,0.2,3.3c0.3,0.4,0.7,0.6,1.1,0.7
					c-0.1-0.4-0.2-0.9-0.3-1.4c-0.1-0.3-0.1-0.5-0.2-0.8c-0.5-2,0.4-3.2,1-4c0.3-0.4,0.5-0.7,0.6-1c0.1-0.4,0.2-1.3,0.1-1.6
					c0,0.1-0.1-0.1-0.3-0.2c-0.4-0.3-0.9-0.7-1.2-1.5c-0.4-1-0.5-2.3,1.3-3.2c0.1,0,0.1-0.1,0.2-0.1c0,0,0-0.1,0-0.1
					c0-0.3-0.1-0.7,0-1.2C399,332.1,401,332.1,401.8,332.1z"/>
			</g>
		</g>
	</g>
	<g class="st2">
		<circle class="st3" cx="180" cy="164.7" r="84.4"/>
		<circle class="st4" cx="180" cy="164.7" r="76"/>
	</g>
	<g>
		<circle class="st5" cx="360.1" cy="271.1" r="23.7"/>
		<circle class="st6" cx="360.1" cy="271.1" r="21.3"/>
	</g>
	<g>
		<path class="st7" d="M163.3,13c-0.5,0-1,0-1.7,0.1c-3.8,0.3-5.5,2.2-5.9,4.4h0.1c0.9-0.9,2.2-1.5,3.9-1.5c3.1,0,5.6,2.2,5.6,5.9
			c0,3.6-2.8,6.6-6.7,6.6c-4.8,0-7.2-3.6-7.2-8c0-3.4,1.3-6.3,3.2-8.1c1.8-1.7,4.2-2.5,7-2.7c0.8-0.1,1.3-0.1,1.7,0V13z M161,22.1
			c0-1.7-0.9-3.1-2.7-3.1c-1.1,0-2.1,0.7-2.5,1.6c-0.1,0.2-0.2,0.6-0.2,1.1c0.1,1.9,1,3.7,2.9,3.7C160,25.3,161,24,161,22.1z"/>
		<path class="st7" d="M167.4,25.9c0-1.5,1-2.6,2.5-2.6c1.5,0,2.5,1.1,2.5,2.6c0,1.5-1,2.6-2.5,2.6
			C168.5,28.5,167.4,27.4,167.4,25.9z"/>
		<path class="st7" d="M187.5,10v2.7L180,28.2h-4.5l7.5-14.6v-0.1h-8.3V10H187.5z"/>
		<path class="st7" d="M199.6,15.1c0,3.8-2.4,5.8-5,5.8c-2.8,0-5-2.1-5-5.5c0-3.2,2-5.7,5.1-5.7C197.8,9.7,199.6,12,199.6,15.1z
			 M192.8,15.3c0,1.9,0.6,3.3,1.9,3.3c1.2,0,1.8-1.2,1.8-3.3c0-1.8-0.5-3.3-1.8-3.3C193.4,12,192.8,13.4,192.8,15.3z M194.8,28.5
			l10.4-18.8h2.3l-10.5,18.8H194.8z M212.7,22.6c0,3.8-2.4,5.8-5,5.8c-2.7,0-4.9-2.1-5-5.5c0-3.2,2-5.7,5.1-5.7
			C211,17.2,212.7,19.5,212.7,22.6z M205.9,22.8c0,1.9,0.6,3.3,1.8,3.3c1.2,0,1.8-1.2,1.8-3.3c0-1.8-0.5-3.3-1.8-3.3
			C206.5,19.6,205.9,21,205.9,22.8z"/>
		<path class="st7" d="M170,40.8c-0.1-1.3-0.2-2.9-0.1-4.1h0c-0.3,1.1-0.7,2.3-1.2,3.6l-1.7,4.6h-0.9l-1.5-4.5
			c-0.4-1.3-0.8-2.5-1.1-3.7h0c0,1.2-0.1,2.8-0.2,4.2l-0.3,4h-1.2l0.7-9.4h1.6l1.6,4.6c0.4,1.2,0.7,2.2,1,3.2h0c0.2-1,0.6-2,1-3.2
			l1.7-4.6h1.6l0.6,9.4h-1.2L170,40.8z"/>
		<path class="st7" d="M174.1,41.8c0,1.7,1.1,2.4,2.3,2.4c0.9,0,1.4-0.2,1.9-0.4l0.2,0.9c-0.4,0.2-1.2,0.4-2.3,0.4
			c-2.1,0-3.3-1.4-3.3-3.4s1.2-3.7,3.2-3.7c2.2,0,2.8,1.9,2.8,3.2c0,0.3,0,0.4,0,0.6H174.1z M177.7,40.9c0-0.8-0.3-2-1.7-2
			c-1.2,0-1.8,1.1-1.9,2H177.7z"/>
		<path class="st7" d="M180.9,38.2l1,1.5c0.3,0.4,0.5,0.7,0.7,1.1h0c0.2-0.4,0.4-0.8,0.7-1.1l1-1.4h1.3l-2.3,3.3l2.4,3.5h-1.4
			l-1-1.5c-0.3-0.4-0.5-0.8-0.7-1.2h0c-0.2,0.4-0.5,0.8-0.7,1.2l-1,1.5h-1.4l2.4-3.5l-2.3-3.3H180.9z"/>
		<path class="st7" d="M188.2,36.3c0,0.4-0.3,0.8-0.8,0.8c-0.4,0-0.7-0.3-0.7-0.8c0-0.4,0.3-0.8,0.8-0.8
			C187.9,35.5,188.2,35.9,188.2,36.3z M186.8,45v-6.8h1.2V45H186.8z"/>
		<path class="st7" d="M195,44.7c-0.3,0.2-1,0.4-1.9,0.4c-2,0-3.4-1.4-3.4-3.5c0-2.1,1.4-3.6,3.6-3.6c0.7,0,1.4,0.2,1.7,0.3l-0.3,1
			c-0.3-0.2-0.8-0.3-1.4-0.3c-1.6,0-2.4,1.1-2.4,2.6c0,1.6,1,2.5,2.4,2.5c0.7,0,1.2-0.2,1.5-0.3L195,44.7z"/>
		<path class="st7" d="M202.4,41.5c0,2.5-1.7,3.6-3.4,3.6c-1.8,0-3.2-1.3-3.2-3.5c0-2.3,1.5-3.6,3.4-3.6
			C201.1,38,202.4,39.5,202.4,41.5z M197.1,41.6c0,1.5,0.9,2.6,2.1,2.6c1.2,0,2.1-1.1,2.1-2.6c0-1.1-0.6-2.6-2-2.6
			S197.1,40.3,197.1,41.6z"/>
	</g>
	<g>
		<path class="st5" d="M332.3,135.7v2.8h-7.3v-2.8H332.3z"/>
		<path class="st5" d="M334.3,144.5v-2.6l2.4-2.1c4-3.6,5.9-5.6,6-7.7c0-1.5-0.9-2.7-3-2.7c-1.6,0-2.9,0.8-3.9,1.5l-1.2-3.1
			c1.4-1,3.5-1.9,6-1.9c4.1,0,6.4,2.4,6.4,5.7c0,3.1-2.2,5.5-4.8,7.8l-1.7,1.4v0.1h6.9v3.5H334.3z"/>
		<path class="st5" d="M350.1,142.2c0-1.5,1-2.6,2.5-2.6s2.5,1.1,2.5,2.6c0,1.5-1,2.6-2.5,2.6C351.1,144.8,350.1,143.7,350.1,142.2z
			"/>
		<path class="st5" d="M364.6,144.5v-4.3h-8.1v-2.8l6.9-11.1h5.2v10.7h2.2v3.2h-2.2v4.3H364.6z M364.6,136.9v-4
			c0-1.1,0.1-2.2,0.1-3.4h-0.1c-0.6,1.2-1.1,2.2-1.7,3.4l-2.4,4v0.1H364.6z"/>
		<path class="st5" d="M382.2,131.4c0,3.8-2.4,5.8-5,5.8c-2.8,0-5-2.1-5-5.5c0-3.2,2-5.7,5.1-5.7C380.5,126,382.2,128.3,382.2,131.4
			z M375.4,131.6c0,1.9,0.6,3.3,1.9,3.3c1.2,0,1.8-1.2,1.8-3.3c0-1.8-0.5-3.3-1.8-3.3C376,128.3,375.4,129.7,375.4,131.6z
			 M377.4,144.8l10.4-18.8h2.3l-10.5,18.8H377.4z M395.3,138.9c0,3.8-2.4,5.8-5,5.8c-2.7,0-4.9-2.1-5-5.5c0-3.2,2-5.7,5.1-5.7
			C393.6,133.5,395.3,135.8,395.3,138.9z M388.5,139.1c0,1.9,0.6,3.3,1.8,3.3c1.2,0,1.8-1.2,1.8-3.3c0-1.8-0.5-3.3-1.8-3.3
			C389.1,135.8,388.5,137.3,388.5,139.1z"/>
		<path class="st5" d="M321.3,161c-0.4,0.2-1.3,0.4-2.5,0.4c-2.7,0-4.7-1.7-4.7-4.8c0-3,2-5,4.9-5c1.2,0,1.9,0.3,2.2,0.4l-0.3,1
			c-0.5-0.2-1.1-0.4-1.9-0.4c-2.2,0-3.7,1.4-3.7,3.9c0,2.3,1.3,3.8,3.6,3.8c0.7,0,1.5-0.2,2-0.4L321.3,161z"/>
		<path class="st5" d="M323.3,158.1c0,1.7,1.1,2.4,2.3,2.4c0.9,0,1.4-0.2,1.9-0.4l0.2,0.9c-0.4,0.2-1.2,0.4-2.3,0.4
			c-2.1,0-3.3-1.4-3.3-3.4c0-2,1.2-3.7,3.2-3.7c2.2,0,2.8,1.9,2.8,3.2c0,0.3,0,0.4,0,0.6H323.3z M326.9,157.2c0-0.8-0.3-2-1.7-2
			c-1.2,0-1.8,1.1-1.9,2H326.9z"/>
		<path class="st5" d="M329.6,156.3c0-0.7,0-1.3-0.1-1.8h1.1l0.1,1.1h0c0.3-0.6,1.1-1.3,2.2-1.3c0.9,0,2.4,0.6,2.4,2.9v4h-1.2v-3.9
			c0-1.1-0.4-2-1.6-2c-0.8,0-1.4,0.6-1.7,1.3c-0.1,0.2-0.1,0.4-0.1,0.6v4.1h-1.2V156.3z"/>
		<path class="st5" d="M338.8,152.5v1.9h1.8v0.9h-1.8v3.7c0,0.8,0.2,1.3,0.9,1.3c0.3,0,0.6,0,0.7-0.1l0.1,0.9
			c-0.2,0.1-0.6,0.2-1.1,0.2c-0.6,0-1-0.2-1.3-0.5c-0.4-0.4-0.5-1-0.5-1.8v-3.7h-1.1v-0.9h1.1v-1.6L338.8,152.5z"/>
		<path class="st5" d="M342,156.6c0-0.8,0-1.5-0.1-2.1h1.1l0,1.3h0.1c0.3-0.9,1.1-1.5,1.9-1.5c0.1,0,0.2,0,0.4,0v1.2
			c-0.1,0-0.3,0-0.4,0c-0.9,0-1.5,0.7-1.7,1.6c0,0.2-0.1,0.4-0.1,0.6v3.6H342V156.6z"/>
		<path class="st5" d="M350.2,161.3l-0.1-0.9h0c-0.4,0.5-1.1,1-2.1,1c-1.4,0-2.1-1-2.1-1.9c0-1.6,1.5-2.5,4.1-2.5v-0.1
			c0-0.6-0.2-1.6-1.5-1.6c-0.6,0-1.3,0.2-1.8,0.5l-0.3-0.8c0.6-0.4,1.4-0.6,2.2-0.6c2.1,0,2.6,1.4,2.6,2.8v2.5c0,0.6,0,1.2,0.1,1.6
			H350.2z M350,157.8c-1.3,0-2.9,0.2-2.9,1.5c0,0.8,0.5,1.2,1.2,1.2c0.9,0,1.4-0.6,1.6-1.1c0-0.1,0.1-0.3,0.1-0.4V157.8z"/>
		<path class="st5" d="M353.2,151.3h1.2v9.9h-1.2V151.3z"/>
		<path class="st5" d="M361.1,158.3l-1,3h-1.3l3.2-9.4h1.5l3.2,9.4h-1.3l-1-3H361.1z M364.2,157.4l-0.9-2.7
			c-0.2-0.6-0.4-1.2-0.5-1.7h0c-0.1,0.6-0.3,1.1-0.5,1.7l-0.9,2.7H364.2z"/>
		<path class="st5" d="M368,156.3c0-0.7,0-1.3-0.1-1.8h1.1l0.1,1.1h0c0.4-0.6,1-1.2,2.1-1.2c0.9,0,1.6,0.6,1.9,1.4h0
			c0.2-0.4,0.5-0.7,0.8-0.9c0.4-0.3,0.9-0.5,1.5-0.5c0.9,0,2.2,0.6,2.2,2.9v4h-1.2v-3.8c0-1.3-0.5-2.1-1.5-2.1
			c-0.7,0-1.2,0.5-1.5,1.1c-0.1,0.2-0.1,0.4-0.1,0.6v4.2h-1.2v-4.1c0-1.1-0.5-1.9-1.4-1.9c-0.8,0-1.3,0.6-1.5,1.2
			c-0.1,0.2-0.1,0.4-0.1,0.6v4.1H368V156.3z"/>
		<path class="st5" d="M380.4,158.1c0,1.7,1.1,2.4,2.3,2.4c0.9,0,1.4-0.2,1.9-0.4l0.2,0.9c-0.4,0.2-1.2,0.4-2.3,0.4
			c-2.1,0-3.3-1.4-3.3-3.4c0-2,1.2-3.7,3.2-3.7c2.2,0,2.8,1.9,2.8,3.2c0,0.3,0,0.4,0,0.6H380.4z M384,157.2c0-0.8-0.3-2-1.7-2
			c-1.2,0-1.8,1.1-1.9,2H384z"/>
		<path class="st5" d="M386.7,156.6c0-0.8,0-1.5-0.1-2.1h1.1l0,1.3h0.1c0.3-0.9,1.1-1.5,1.9-1.5c0.1,0,0.2,0,0.4,0v1.2
			c-0.1,0-0.3,0-0.4,0c-0.9,0-1.5,0.7-1.7,1.6c0,0.2-0.1,0.4-0.1,0.6v3.6h-1.2V156.6z"/>
		<path class="st5" d="M392.7,152.6c0,0.4-0.3,0.8-0.8,0.8c-0.4,0-0.7-0.3-0.7-0.8c0-0.4,0.3-0.8,0.8-0.8
			C392.4,151.8,392.7,152.2,392.7,152.6z M391.3,161.3v-6.8h1.2v6.8H391.3z"/>
		<path class="st5" d="M399.4,161c-0.3,0.2-1,0.4-1.9,0.4c-2,0-3.4-1.4-3.4-3.5c0-2.1,1.4-3.6,3.6-3.6c0.7,0,1.4,0.2,1.7,0.4l-0.3,1
			c-0.3-0.2-0.8-0.3-1.4-0.3c-1.6,0-2.4,1.1-2.4,2.6c0,1.6,1,2.5,2.4,2.5c0.7,0,1.2-0.2,1.5-0.3L399.4,161z"/>
		<path class="st5" d="M404.6,161.3l-0.1-0.9h0c-0.4,0.5-1.1,1-2.1,1c-1.4,0-2.1-1-2.1-1.9c0-1.6,1.5-2.5,4.1-2.5v-0.1
			c0-0.6-0.2-1.6-1.5-1.6c-0.6,0-1.3,0.2-1.8,0.5l-0.3-0.8c0.6-0.4,1.4-0.6,2.2-0.6c2.1,0,2.6,1.4,2.6,2.8v2.5c0,0.6,0,1.2,0.1,1.6
			H404.6z M404.5,157.8c-1.3,0-2.9,0.2-2.9,1.5c0,0.8,0.5,1.2,1.2,1.2c0.9,0,1.4-0.6,1.6-1.1c0-0.1,0.1-0.3,0.1-0.4V157.8z"/>
	</g>
	<g>
		<g>
			<line class="st8" x1="181.9" y1="50" x2="181.9" y2="72.2"/>
			<g>
				<circle class="st9" cx="181.9" cy="72.2" r="1.9"/>
			</g>
		</g>
	</g>
	<g>
		<g>
			<line class="st10" x1="360.1" y1="172.1" x2="360.1" y2="241"/>
			<g>
				<circle class="st11" cx="360.1" cy="240.9" r="1.9"/>
			</g>
		</g>
	</g>
	<g>
		<g>
			<g>
				<path class="st9" d="M563.7,202.3h5.4v1.6h-3.4v2h3.1v1.6h-3.1v3.5h-2V202.3z"/>
				<path class="st9" d="M576.8,207.8c0,2.3-1.7,3.4-3.4,3.4c-1.9,0-3.3-1.2-3.3-3.3c0-2.1,1.4-3.4,3.4-3.4
					C575.5,204.5,576.8,205.9,576.8,207.8z M572.2,207.8c0,1.1,0.5,1.9,1.3,1.9c0.8,0,1.3-0.8,1.3-1.9c0-0.9-0.4-1.9-1.3-1.9
					C572.6,205.9,572.2,206.9,572.2,207.8z"/>
				<path class="st9" d="M578,206.8c0-0.9,0-1.5-0.1-2.1h1.7l0.1,1.2h0.1c0.3-0.9,1.1-1.3,1.7-1.3c0.2,0,0.3,0,0.4,0v1.9
					c-0.1,0-0.3-0.1-0.5-0.1c-0.7,0-1.2,0.4-1.4,1c0,0.1,0,0.3,0,0.4v3.2h-2V206.8z"/>
				<path class="st9" d="M583,206.7c0-0.8,0-1.5-0.1-2h1.7l0.1,0.9h0c0.3-0.4,0.8-1,1.9-1c0.8,0,1.5,0.4,1.7,1.1h0
					c0.2-0.3,0.5-0.6,0.8-0.8c0.4-0.2,0.7-0.3,1.2-0.3c1.2,0,2.1,0.9,2.1,2.8v3.7h-1.9v-3.5c0-0.9-0.3-1.5-0.9-1.5
					c-0.5,0-0.8,0.3-0.9,0.7c-0.1,0.1-0.1,0.4-0.1,0.5v3.7h-1.9v-3.6c0-0.8-0.3-1.4-0.9-1.4c-0.5,0-0.8,0.4-0.9,0.7
					c-0.1,0.2-0.1,0.3-0.1,0.5v3.7H583V206.7z"/>
				<path class="st9" d="M597.8,211l-0.1-0.6h0c-0.4,0.5-1.1,0.8-1.8,0.8c-1.3,0-2.1-0.9-2.1-2c0-1.7,1.5-2.4,3.7-2.4v-0.1
					c0-0.3-0.2-0.8-1.2-0.8c-0.7,0-1.3,0.2-1.8,0.5l-0.4-1.3c0.4-0.2,1.3-0.6,2.5-0.6c2.1,0,2.8,1.2,2.8,2.7v2.2
					c0,0.6,0,1.2,0.1,1.5H597.8z M597.5,208c-1,0-1.8,0.2-1.8,1c0,0.5,0.3,0.8,0.8,0.8c0.5,0,0.9-0.3,1-0.7c0-0.1,0-0.2,0-0.3V208z"
					/>
				<path class="st9" d="M603.2,202.9v1.8h1.4v1.5h-1.4v2.3c0,0.8,0.2,1.1,0.8,1.1c0.2,0,0.4,0,0.6-0.1l0,1.5
					c-0.3,0.1-0.7,0.2-1.3,0.2c-0.6,0-1.2-0.2-1.5-0.5c-0.4-0.4-0.5-1-0.5-1.9v-2.6h-0.8v-1.5h0.8v-1.4L603.2,202.9z"/>
				<path class="st9" d="M609.8,202.8l-1.4,1.7l0,0l2.1-0.4v1.3l-2.1-0.4l0,0l1.4,1.6l-1.2,0.7l-0.7-2l0,0l-0.8,2l-1.1-0.7l1.4-1.6
					v0l-2,0.4V204l2,0.4l0,0l-1.4-1.6l1.2-0.7l0.7,2h0l0.7-2L609.8,202.8z"/>
			</g>
		</g>
		<path class="st7" d="M562.9,230.6h192c3.1,0,5.7,2.5,5.7,5.7v0c0,3.1-2.5,5.7-5.7,5.7h-192V230.6z"/>
		<path class="st7" d="M562.9,255.1h147.2c3.1,0,5.7,2.5,5.7,5.7l0,0c0,3.1-2.5,5.7-5.7,5.7H562.9V255.1z"/>
		<path class="st7" d="M562.9,279.6h145.1c3.1,0,5.7,2.5,5.7,5.7l0,0c0,3.1-2.5,5.7-5.7,5.7H562.9V279.6z"/>
		<path class="st7" d="M562.9,304.1h86c3.1,0,5.7,2.5,5.7,5.7l0,0c0,3.1-2.5,5.7-5.7,5.7h-86V304.1z"/>
		<line class="st12" x1="562.9" y1="322" x2="562.9" y2="224"/>
		<g>
			<g>
				<path class="st9" d="M475.5,302.9c0.5-0.1,1.1-0.2,1.8-0.2c1.1,0,1.8,0.2,2.3,0.7c0.4,0.4,0.5,0.8,0.5,1.4c0,0.9-0.6,1.7-1.5,2
					v0c0.7,0.2,1.9,0.8,1.9,2.2c0,0.7-0.3,1.3-0.7,1.7c-0.6,0.6-1.5,0.8-2.8,0.8c-0.7,0-1.2-0.1-1.5-0.1V302.9z M476.1,306.6h1.3
					c1.3,0,2.1-0.8,2.1-1.7c0-1.2-0.9-1.7-2.2-1.7c-0.6,0-0.9,0-1.1,0.1V306.6z M476.1,311c0.3,0.1,0.6,0.1,1.1,0.1
					c1.3,0,2.6-0.5,2.6-2c0-1.4-1.2-2-2.6-2h-1.1V311z"/>
				<path class="st9" d="M487.3,308.3c0,2.3-1.6,3.3-3,3.3c-1.6,0-2.9-1.3-2.9-3.2c0-2.1,1.4-3.3,3-3.3
					C486.2,305.1,487.3,306.4,487.3,308.3z M482.1,308.4c0,1.6,1,2.7,2.3,2.7c1.3,0,2.3-1.2,2.3-2.8c0-1.1-0.6-2.7-2.3-2.7
					C482.8,305.6,482.1,307.1,482.1,308.4z"/>
				<path class="st9" d="M493.9,302.3v7.8c0,0.5,0,1,0.1,1.5h-0.6l-0.1-1.2h0c-0.3,0.7-1.1,1.3-2.2,1.3c-1.5,0-2.7-1.3-2.7-3.1
					c0-2.1,1.3-3.4,2.8-3.4c1.1,0,1.8,0.6,2,1.1h0v-4H493.9z M493.3,307.7c0-0.2,0-0.4-0.1-0.6c-0.2-0.8-0.9-1.5-2-1.5
					c-1.4,0-2.2,1.2-2.2,2.8c0,1.4,0.7,2.7,2.2,2.7c0.9,0,1.7-0.6,2-1.6c0.1-0.2,0.1-0.3,0.1-0.5V307.7z"/>
				<path class="st9" d="M496.1,308.3c0,2,1.1,2.8,2.4,2.8c0.9,0,1.4-0.2,1.7-0.4l0.2,0.5c-0.2,0.1-0.9,0.4-2,0.4
					c-1.8,0-2.9-1.3-2.9-3.1c0-2.1,1.2-3.4,2.8-3.4c2,0,2.4,1.9,2.4,2.8c0,0.2,0,0.3,0,0.4H496.1z M500.1,307.8
					c0-0.9-0.4-2.2-1.9-2.2c-1.4,0-2,1.2-2.1,2.2H500.1z"/>
				<path class="st9" d="M507.3,310.6c0,1.6-0.3,2.4-0.9,2.9c-0.6,0.5-1.4,0.7-2.1,0.7c-0.7,0-1.5-0.2-2-0.5l0.2-0.5
					c0.4,0.3,1.1,0.5,1.9,0.5c1.3,0,2.3-0.7,2.3-2.5v-0.9h0c-0.3,0.6-1.1,1.2-2.2,1.2c-1.6,0-2.7-1.4-2.7-3.1c0-2.2,1.4-3.3,2.8-3.3
					c1.2,0,1.8,0.7,2.1,1.2h0l0-1.1h0.6c0,0.5-0.1,1-0.1,1.6V310.6z M506.7,307.7c0-0.2,0-0.4-0.1-0.6c-0.3-0.8-0.9-1.4-1.9-1.4
					c-1.3,0-2.2,1.1-2.2,2.7c0,1.4,0.7,2.6,2.2,2.6c0.8,0,1.6-0.5,1.9-1.4c0.1-0.2,0.1-0.4,0.1-0.7V307.7z"/>
				<path class="st9" d="M513.3,310c0,0.5,0,1,0.1,1.5h-0.6l-0.1-0.9h0c-0.3,0.5-1,1-2,1c-1.3,0-1.8-0.9-1.8-1.7
					c0-1.4,1.3-2.3,3.8-2.3v-0.2c0-0.6-0.1-1.8-1.6-1.8c-0.5,0-1.1,0.1-1.6,0.5l-0.2-0.5c0.6-0.4,1.3-0.5,1.8-0.5
					c1.8,0,2.2,1.4,2.2,2.5V310z M512.6,308.2c-1.4,0-3.2,0.2-3.2,1.7c0,0.9,0.6,1.3,1.2,1.3c1,0,1.6-0.6,1.8-1.2
					c0.1-0.1,0.1-0.3,0.1-0.4V308.2z"/>
				<path class="st9" d="M519.2,308.4l-1.1,3.1h-0.6l3.2-8.8h0.6l3.1,8.8h-0.6l-1.1-3.1H519.2z M522.5,307.9l-1.1-2.9
					c-0.2-0.6-0.3-1.1-0.5-1.5h0c-0.1,0.5-0.3,1-0.5,1.5l-1.1,3H522.5z"/>
				<path class="st9" d="M530.5,310c0,0.5,0,1,0.1,1.5H530l0-1.1h0c-0.3,0.6-1,1.3-2.1,1.3c-0.8,0-2.1-0.4-2.1-2.8v-3.6h0.6v3.5
					c0,1.4,0.4,2.3,1.7,2.3c0.9,0,1.6-0.6,1.8-1.3c0.1-0.2,0.1-0.4,0.1-0.7v-3.9h0.6V310z"/>
				<path class="st9" d="M532.6,307.1c0-0.6,0-1.3-0.1-1.9h0.6l0,1.3h0c0.3-0.8,0.9-1.4,1.8-1.4c0.1,0,0.2,0,0.3,0v0.6
					c-0.1,0-0.2,0-0.3,0c-0.9,0-1.5,0.7-1.6,1.7c0,0.2-0.1,0.4-0.1,0.6v3.4h-0.6V307.1z"/>
				<path class="st9" d="M536.5,307.1c0-0.6,0-1.3-0.1-1.9h0.6l0,1.3h0c0.3-0.8,0.9-1.4,1.8-1.4c0.1,0,0.2,0,0.3,0v0.6
					c-0.1,0-0.2,0-0.3,0c-0.9,0-1.5,0.7-1.6,1.7c0,0.2-0.1,0.4-0.1,0.6v3.4h-0.6V307.1z"/>
				<path class="st9" d="M540.4,308.3c0,2,1.1,2.8,2.4,2.8c0.9,0,1.4-0.2,1.7-0.4l0.2,0.5c-0.2,0.1-0.9,0.4-2,0.4
					c-1.8,0-2.9-1.3-2.9-3.1c0-2.1,1.2-3.4,2.8-3.4c2,0,2.4,1.9,2.4,2.8c0,0.2,0,0.3,0,0.4H540.4z M544.4,307.8
					c0-0.9-0.4-2.2-1.9-2.2c-1.4,0-2,1.2-2.1,2.2H544.4z"/>
				<path class="st9" d="M546.6,307.1c0-0.6,0-1.3-0.1-1.9h0.6l0,1.3h0c0.3-0.8,0.9-1.4,1.8-1.4c0.1,0,0.2,0,0.3,0v0.6
					c-0.1,0-0.2,0-0.3,0c-0.9,0-1.5,0.7-1.6,1.7c0,0.2-0.1,0.4-0.1,0.6v3.4h-0.6V307.1z"/>
				<path class="st9" d="M554.3,310c0,0.5,0,1,0.1,1.5h-0.6l-0.1-0.9h0c-0.3,0.5-1,1-2,1c-1.3,0-1.8-0.9-1.8-1.7
					c0-1.4,1.3-2.3,3.8-2.3v-0.2c0-0.6-0.1-1.8-1.6-1.8c-0.5,0-1.1,0.1-1.6,0.5l-0.2-0.5c0.6-0.4,1.3-0.5,1.8-0.5
					c1.8,0,2.2,1.4,2.2,2.5V310z M553.7,308.2c-1.4,0-3.2,0.2-3.2,1.7c0,0.9,0.6,1.3,1.2,1.3c1,0,1.6-0.6,1.8-1.2
					c0.1-0.1,0.1-0.3,0.1-0.4V308.2z"/>
			</g>
		</g>
		<g>
			<g>
				<path class="st9" d="M503.4,286c0.5,0.3,1.2,0.6,1.9,0.6c1.3,0,2.1-0.7,2.1-1.8c0-1-0.5-1.6-1.8-2.1c-1.4-0.5-2.2-1.2-2.2-2.4
					c0-1.3,1.1-2.2,2.5-2.2c0.8,0,1.4,0.2,1.7,0.4l-0.2,0.5c-0.2-0.2-0.8-0.4-1.5-0.4c-1.4,0-1.9,0.9-1.9,1.6c0,1,0.6,1.5,1.8,2
					c1.4,0.6,2.2,1.2,2.2,2.5c0,1.3-0.9,2.4-2.8,2.4c-0.8,0-1.6-0.2-2.1-0.6L503.4,286z"/>
				<path class="st9" d="M514.5,285.5c0,0.5,0,1,0.1,1.5H514l0-1.1h0c-0.3,0.6-1,1.3-2.1,1.3c-0.8,0-2.1-0.4-2.1-2.8v-3.6h0.6v3.5
					c0,1.4,0.4,2.3,1.7,2.3c0.9,0,1.6-0.6,1.8-1.3c0.1-0.2,0.1-0.4,0.1-0.7v-3.9h0.6V285.5z"/>
				<path class="st9" d="M516.6,282.7c0-0.8,0-1.4-0.1-2h0.6l0,1.2h0c0.5-0.8,1.2-1.3,2.3-1.3c1.6,0,2.7,1.3,2.7,3.2
					c0,2.2-1.3,3.4-2.8,3.4c-0.9,0-1.7-0.4-2.1-1.2h0v3.6h-0.6V282.7z M517.2,284.5c0,0.2,0,0.3,0.1,0.5c0.3,1,1.1,1.6,2.1,1.6
					c1.4,0,2.2-1.2,2.2-2.8c0-1.4-0.8-2.7-2.2-2.7c-0.9,0-1.8,0.6-2.1,1.7c0,0.2-0.1,0.4-0.1,0.5V284.5z"/>
				<path class="st9" d="M523.8,283.8c0,2,1.1,2.8,2.4,2.8c0.9,0,1.4-0.2,1.7-0.4l0.2,0.5c-0.2,0.1-0.9,0.4-2,0.4
					c-1.8,0-2.9-1.3-2.9-3.1c0-2.1,1.2-3.4,2.8-3.4c2,0,2.4,1.9,2.4,2.8c0,0.2,0,0.3,0,0.4H523.8z M527.8,283.3
					c0-0.9-0.4-2.2-1.9-2.2c-1.4,0-2,1.2-2.1,2.2H527.8z"/>
				<path class="st9" d="M530.1,282.6c0-0.6,0-1.3-0.1-1.9h0.6l0,1.3h0c0.3-0.8,0.9-1.4,1.8-1.4c0.1,0,0.2,0,0.3,0v0.6
					c-0.1,0-0.2,0-0.3,0c-0.9,0-1.5,0.7-1.6,1.7c0,0.2-0.1,0.4-0.1,0.6v3.4h-0.6V282.6z"/>
				<path class="st9" d="M537.8,285.5c0,0.5,0,1,0.1,1.5h-0.6l-0.1-0.9h0c-0.3,0.5-1,1-2,1c-1.3,0-1.8-0.9-1.8-1.7
					c0-1.4,1.3-2.3,3.8-2.3V283c0-0.6-0.1-1.8-1.6-1.8c-0.5,0-1.1,0.1-1.6,0.5l-0.2-0.5c0.6-0.4,1.3-0.5,1.8-0.5
					c1.8,0,2.2,1.4,2.2,2.5V285.5z M537.2,283.7c-1.4,0-3.2,0.2-3.2,1.7c0,0.9,0.6,1.3,1.2,1.3c1,0,1.6-0.6,1.8-1.2
					c0.1-0.1,0.1-0.3,0.1-0.4V283.7z"/>
				<path class="st9" d="M539.8,282.3c0-0.6,0-1-0.1-1.5h0.6l0,1.1h0c0.4-0.7,1-1.2,2-1.2c0.9,0,1.5,0.6,1.8,1.4h0
					c0.2-0.4,0.4-0.6,0.6-0.8c0.4-0.3,0.8-0.5,1.5-0.5c0.6,0,2,0.3,2,2.7v3.7h-0.6v-3.6c0-1.4-0.5-2.2-1.6-2.2
					c-0.8,0-1.4,0.6-1.6,1.2c-0.1,0.2-0.1,0.4-0.1,0.6v4h-0.6v-3.9c0-1.1-0.5-2-1.5-2c-0.8,0-1.5,0.7-1.7,1.4
					c-0.1,0.2-0.1,0.4-0.1,0.6v3.8h-0.6V282.3z"/>
				<path class="st9" d="M554.3,285.5c0,0.5,0,1,0.1,1.5h-0.6l-0.1-0.9h0c-0.3,0.5-1,1-2,1c-1.3,0-1.8-0.9-1.8-1.7
					c0-1.4,1.3-2.3,3.8-2.3V283c0-0.6-0.1-1.8-1.6-1.8c-0.5,0-1.1,0.1-1.6,0.5l-0.2-0.5c0.6-0.4,1.3-0.5,1.8-0.5
					c1.8,0,2.2,1.4,2.2,2.5V285.5z M553.7,283.7c-1.4,0-3.2,0.2-3.2,1.7c0,0.9,0.6,1.3,1.2,1.3c1,0,1.6-0.6,1.8-1.2
					c0.1-0.1,0.1-0.3,0.1-0.4V283.7z"/>
			</g>
		</g>
		<g>
			<g>
				<path class="st9" d="M513.5,262.5l-2.3-8.8h0.6l1.3,4.9c0.3,1.1,0.6,2.2,0.7,3h0c0.1-0.8,0.5-1.9,0.8-3l1.4-4.9h0.6l1.3,4.9
					c0.3,1.1,0.6,2.2,0.7,3h0c0.2-0.9,0.5-1.9,0.8-3l1.4-4.9h0.6l-2.6,8.8h-0.6l-1.3-5c-0.4-1.3-0.6-2.1-0.7-3h0
					c-0.1,0.8-0.4,1.7-0.8,3l-1.5,5H513.5z"/>
				<path class="st9" d="M526.6,261c0,0.5,0,1,0.1,1.5h-0.6l-0.1-0.9h0c-0.3,0.5-1,1-2,1c-1.3,0-1.8-0.9-1.8-1.7
					c0-1.4,1.3-2.3,3.8-2.3v-0.2c0-0.6-0.1-1.8-1.6-1.8c-0.5,0-1.1,0.1-1.6,0.5l-0.2-0.5c0.6-0.4,1.3-0.5,1.8-0.5
					c1.8,0,2.2,1.4,2.2,2.5V261z M526,259.2c-1.4,0-3.2,0.2-3.2,1.7c0,0.9,0.6,1.3,1.2,1.3c1,0,1.6-0.6,1.8-1.2
					c0.1-0.1,0.1-0.3,0.1-0.4V259.2z"/>
				<path class="st9" d="M528.6,253.3h0.6v9.2h-0.6V253.3z"/>
				<path class="st9" d="M531.4,257.8c0-0.6,0-1-0.1-1.5h0.6l0,1.1h0c0.4-0.7,1-1.2,2-1.2c0.9,0,1.5,0.6,1.8,1.4h0
					c0.2-0.4,0.4-0.6,0.6-0.8c0.4-0.3,0.8-0.5,1.5-0.5c0.6,0,2,0.3,2,2.7v3.7h-0.6v-3.6c0-1.4-0.5-2.2-1.6-2.2
					c-0.8,0-1.4,0.6-1.6,1.2c-0.1,0.2-0.1,0.4-0.1,0.6v4h-0.6v-3.9c0-1.1-0.5-2-1.5-2c-0.8,0-1.5,0.7-1.7,1.4
					c-0.1,0.2-0.1,0.4-0.1,0.6v3.8h-0.6V257.8z"/>
				<path class="st9" d="M545.9,261c0,0.5,0,1,0.1,1.5h-0.6l-0.1-0.9h0c-0.3,0.5-1,1-2,1c-1.3,0-1.8-0.9-1.8-1.7
					c0-1.4,1.3-2.3,3.8-2.3v-0.2c0-0.6-0.1-1.8-1.6-1.8c-0.5,0-1.1,0.1-1.6,0.5l-0.2-0.5c0.6-0.4,1.3-0.5,1.8-0.5
					c1.8,0,2.2,1.4,2.2,2.5V261z M545.3,259.2c-1.4,0-3.2,0.2-3.2,1.7c0,0.9,0.6,1.3,1.2,1.3c1,0,1.6-0.6,1.8-1.2
					c0.1-0.1,0.1-0.3,0.1-0.4V259.2z"/>
				<path class="st9" d="M547.9,258.1c0-0.6,0-1.3-0.1-1.9h0.6l0,1.3h0c0.3-0.8,0.9-1.4,1.8-1.4c0.1,0,0.2,0,0.3,0v0.6
					c-0.1,0-0.2,0-0.3,0c-0.9,0-1.5,0.7-1.6,1.7c0,0.2-0.1,0.4-0.1,0.6v3.4h-0.6V258.1z"/>
				<path class="st9" d="M552.6,254.9v1.4h1.8v0.5h-1.8v4.1c0,0.8,0.2,1.3,0.9,1.3c0.3,0,0.6,0,0.7-0.1l0.1,0.5
					c-0.2,0.1-0.5,0.2-0.9,0.2c-0.5,0-0.8-0.1-1.1-0.4c-0.3-0.3-0.4-0.9-0.4-1.5v-3.9H551v-0.5h1.1v-1.1L552.6,254.9z"/>
			</g>
		</g>
		<g>
			<g>
				<path class="st9" d="M498.9,237c0.5,0.3,1.2,0.6,1.9,0.6c1.3,0,2.1-0.7,2.1-1.8c0-1-0.5-1.6-1.8-2.1c-1.4-0.5-2.2-1.2-2.2-2.4
					c0-1.3,1.1-2.2,2.5-2.2c0.8,0,1.4,0.2,1.7,0.4L503,230c-0.2-0.2-0.8-0.4-1.5-0.4c-1.4,0-1.9,0.9-1.9,1.6c0,1,0.6,1.5,1.8,2
					c1.4,0.6,2.2,1.2,2.2,2.5c0,1.3-0.9,2.4-2.8,2.4c-0.8,0-1.6-0.2-2.1-0.6L498.9,237z"/>
				<path class="st9" d="M509.1,236.5c0,0.5,0,1,0.1,1.5h-0.6l-0.1-0.9h0c-0.3,0.5-1,1-2,1c-1.3,0-1.8-0.9-1.8-1.7
					c0-1.4,1.3-2.3,3.8-2.3V234c0-0.6-0.1-1.8-1.6-1.8c-0.5,0-1.1,0.1-1.6,0.5l-0.2-0.5c0.6-0.4,1.3-0.5,1.8-0.5
					c1.8,0,2.2,1.4,2.2,2.5V236.5z M508.5,234.7c-1.4,0-3.2,0.2-3.2,1.7c0,0.9,0.6,1.3,1.2,1.3c1,0,1.6-0.6,1.8-1.2
					c0.1-0.1,0.1-0.3,0.1-0.4V234.7z"/>
				<path class="st9" d="M511.1,233.3c0-0.6,0-1-0.1-1.5h0.6l0,1.1h0c0.4-0.7,1-1.2,2-1.2c0.9,0,1.5,0.6,1.8,1.4h0
					c0.2-0.4,0.4-0.6,0.6-0.8c0.4-0.3,0.8-0.5,1.5-0.5c0.6,0,2,0.3,2,2.7v3.7h-0.6v-3.6c0-1.4-0.5-2.2-1.6-2.2
					c-0.8,0-1.4,0.6-1.6,1.2c-0.1,0.2-0.1,0.4-0.1,0.6v4h-0.6v-3.9c0-1.1-0.5-2-1.5-2c-0.8,0-1.5,0.7-1.7,1.4
					c-0.1,0.2-0.1,0.4-0.1,0.6v3.8h-0.6V233.3z"/>
				<path class="st9" d="M522.2,229l-0.2,2.9h-0.4l-0.2-2.9H522.2z"/>
				<path class="st9" d="M523.8,237.2c0.3,0.2,0.8,0.4,1.4,0.4c1,0,1.5-0.5,1.5-1.2c0-0.7-0.4-1.1-1.3-1.4c-1-0.4-1.6-0.9-1.6-1.7
					c0-0.9,0.7-1.7,1.9-1.7c0.6,0,1.1,0.2,1.4,0.4l-0.2,0.5c-0.2-0.2-0.6-0.4-1.2-0.4c-0.8,0-1.2,0.5-1.2,1.1c0,0.6,0.4,0.9,1.3,1.3
					c1,0.4,1.6,0.9,1.6,1.8c0,1.1-0.8,1.8-2.1,1.8c-0.6,0-1.2-0.2-1.6-0.4L523.8,237.2z"/>
				<path class="st9" d="M537.7,237.7c-0.4,0.2-1.3,0.4-2.4,0.4c-2.1,0-4.1-1.4-4.1-4.5c0-2.6,1.7-4.6,4.4-4.6c1.1,0,1.8,0.2,2,0.4
					l-0.2,0.5c-0.4-0.2-1.1-0.4-1.8-0.4c-2.4,0-3.8,1.5-3.8,4.1c0,2.4,1.4,3.9,3.7,3.9c0.7,0,1.5-0.2,2-0.4L537.7,237.7z"/>
				<path class="st9" d="M539.2,228.8h0.6v9.2h-0.6V228.8z"/>
				<path class="st9" d="M546.7,236.5c0,0.5,0,1,0.1,1.5h-0.6l0-1.1h0c-0.3,0.6-1,1.3-2.1,1.3c-0.8,0-2.1-0.4-2.1-2.8v-3.6h0.6v3.5
					c0,1.4,0.4,2.3,1.7,2.3c0.9,0,1.6-0.6,1.8-1.3c0.1-0.2,0.1-0.4,0.1-0.7v-3.9h0.6V236.5z"/>
				<path class="st9" d="M548.8,228.8h0.6v4.2h0c0.4-0.8,1.2-1.3,2.3-1.3c1.6,0,2.7,1.3,2.7,3.2c0,2.2-1.4,3.3-2.8,3.3
					c-1,0-1.7-0.4-2.2-1.3h0l-0.1,1.1h-0.6c0-0.4,0.1-1,0.1-1.5V228.8z M549.4,235.6c0,0.1,0,0.3,0.1,0.5c0.3,0.9,1.1,1.6,2.1,1.6
					c1.4,0,2.2-1.2,2.2-2.8c0-1.4-0.8-2.7-2.2-2.7c-0.9,0-1.8,0.6-2.1,1.7c0,0.2-0.1,0.3-0.1,0.5V235.6z"/>
			</g>
		</g>
	</g>
	<g>
		<g>
			<g>
				<path class="st9" d="M570.7,42.8c-0.6,0.2-1.8,0.5-2.9,0.5c-1.6,0-2.8-0.4-3.6-1.2c-0.8-0.8-1.2-1.9-1.2-3.2
					c0-2.9,2.1-4.6,5-4.6c1.1,0,2,0.2,2.4,0.4l-0.4,1.6c-0.5-0.2-1.1-0.4-2-0.4c-1.7,0-2.9,0.9-2.9,2.8c0,1.8,1.1,2.9,2.8,2.9
					c0.5,0,0.8-0.1,1-0.1v-1.8h-1.4v-1.5h3.3V42.8z"/>
				<path class="st9" d="M573.7,40.7c0.1,0.8,0.9,1.2,1.8,1.2c0.7,0,1.2-0.1,1.8-0.3l0.3,1.3c-0.6,0.3-1.4,0.4-2.3,0.4
					c-2.2,0-3.4-1.2-3.4-3.2c0-1.6,1-3.4,3.2-3.4c2.1,0,2.8,1.6,2.8,3.2c0,0.3,0,0.6-0.1,0.8H573.7z M576,39.3
					c0-0.5-0.2-1.3-1.1-1.3c-0.8,0-1.2,0.8-1.2,1.3H576z"/>
				<path class="st9" d="M585.3,40c0,2.3-1.7,3.4-3.4,3.4c-1.9,0-3.3-1.2-3.3-3.3c0-2.1,1.4-3.4,3.4-3.4
					C584,36.7,585.3,38.1,585.3,40z M580.7,40.1c0,1.1,0.5,1.9,1.3,1.9c0.8,0,1.3-0.8,1.3-1.9c0-0.9-0.4-1.9-1.3-1.9
					C581,38.1,580.7,39.1,580.7,40.1z"/>
				<path class="st9" d="M592.6,36.9c0,0.4-0.1,0.9-0.1,1.9v3.5c0,1.2-0.2,2.2-1,2.9c-0.7,0.6-1.7,0.8-2.6,0.8
					c-0.8,0-1.7-0.2-2.3-0.5l0.4-1.5c0.4,0.2,1.1,0.5,1.8,0.5c0.9,0,1.7-0.5,1.7-1.7v-0.4h0c-0.4,0.5-1,0.8-1.7,0.8
					c-1.6,0-2.7-1.3-2.7-3.1c0-2,1.3-3.3,2.9-3.3c0.9,0,1.4,0.4,1.7,0.9h0l0.1-0.8H592.6z M590.6,39.5c0-0.1,0-0.3,0-0.4
					c-0.1-0.5-0.5-0.9-1.1-0.9c-0.7,0-1.3,0.7-1.3,1.8c0,0.9,0.5,1.7,1.3,1.7c0.5,0,0.9-0.3,1-0.8c0.1-0.1,0.1-0.4,0.1-0.5V39.5z"/>
				<path class="st9" d="M594.1,39c0-0.9,0-1.5-0.1-2.1h1.7l0.1,1.2h0.1c0.3-0.9,1.1-1.3,1.7-1.3c0.2,0,0.3,0,0.4,0v1.9
					c-0.1,0-0.3-0.1-0.5-0.1c-0.7,0-1.2,0.4-1.4,1c0,0.1,0,0.3,0,0.4v3.2h-2V39z"/>
				<path class="st9" d="M602.7,43.2l-0.1-0.6h0c-0.4,0.5-1.1,0.8-1.8,0.8c-1.3,0-2.1-0.9-2.1-2c0-1.7,1.5-2.4,3.7-2.4v-0.1
					c0-0.3-0.2-0.8-1.2-0.8c-0.7,0-1.3,0.2-1.8,0.5l-0.4-1.3c0.4-0.2,1.3-0.6,2.5-0.6c2.1,0,2.8,1.2,2.8,2.7v2.2
					c0,0.6,0,1.2,0.1,1.5H602.7z M602.4,40.2c-1,0-1.8,0.2-1.8,1c0,0.5,0.3,0.8,0.8,0.8c0.5,0,0.9-0.3,1-0.7c0-0.1,0-0.2,0-0.3V40.2
					z"/>
				<path class="st9" d="M605.9,39c0-0.8,0-1.5-0.1-2.1h1.7l0.1,0.9h0c0.5-0.7,1.2-1,2.1-1c1.4,0,2.6,1.2,2.6,3.2
					c0,2.3-1.5,3.4-2.9,3.4c-0.8,0-1.4-0.3-1.7-0.7h0v3.2h-2V39z M607.9,40.5c0,0.2,0,0.3,0,0.4c0.1,0.5,0.6,0.9,1.2,0.9
					c0.9,0,1.4-0.7,1.4-1.8c0-1-0.5-1.8-1.3-1.8c-0.6,0-1.1,0.4-1.2,1c0,0.1,0,0.2,0,0.4V40.5z"/>
				<path class="st9" d="M613.7,34h2v3.6h0c0.2-0.3,0.5-0.5,0.8-0.7c0.3-0.2,0.7-0.2,1-0.2c1.3,0,2.2,0.9,2.2,2.8v3.7h-2v-3.5
					c0-0.8-0.3-1.4-1-1.4c-0.5,0-0.8,0.3-1,0.7c-0.1,0.1-0.1,0.3-0.1,0.4v3.8h-2V34z"/>
				<path class="st9" d="M623.4,35.1c0,0.5-0.4,1-1.1,1c-0.6,0-1-0.4-1-1c0-0.6,0.4-1,1-1C622.9,34.1,623.3,34.5,623.4,35.1z
					 M621.3,43.2v-6.4h2v6.4H621.3z"/>
				<path class="st9" d="M629.6,43.1c-0.4,0.2-1,0.3-1.8,0.3c-2.1,0-3.4-1.2-3.4-3.2c0-1.9,1.3-3.4,3.6-3.4c0.5,0,1.1,0.1,1.5,0.2
					l-0.3,1.5c-0.2-0.1-0.6-0.2-1.1-0.2c-1,0-1.7,0.7-1.7,1.8c0,1.2,0.8,1.8,1.7,1.8c0.5,0,0.8-0.1,1.1-0.2L629.6,43.1z"/>
				<path class="st9" d="M637,43.2l-0.1-0.6h0c-0.4,0.5-1.1,0.8-1.8,0.8c-1.3,0-2.1-0.9-2.1-2c0-1.7,1.5-2.4,3.7-2.4v-0.1
					c0-0.3-0.2-0.8-1.2-0.8c-0.7,0-1.3,0.2-1.8,0.5l-0.4-1.3c0.4-0.2,1.3-0.6,2.5-0.6c2.1,0,2.8,1.2,2.8,2.7v2.2
					c0,0.6,0,1.2,0.1,1.5H637z M636.7,40.2c-1,0-1.8,0.2-1.8,1c0,0.5,0.3,0.8,0.8,0.8c0.5,0,0.9-0.3,1-0.7c0-0.1,0-0.2,0-0.3V40.2z"
					/>
				<path class="st9" d="M640.2,39c0-0.9,0-1.5-0.1-2.1h1.7l0.1,1.2h0.1c0.3-0.9,1.1-1.3,1.7-1.3c0.2,0,0.3,0,0.4,0v1.9
					c-0.1,0-0.3-0.1-0.5-0.1c-0.7,0-1.2,0.4-1.4,1c0,0.1,0,0.3,0,0.4v3.2h-2V39z"/>
				<path class="st9" d="M646.7,40.7c0.1,0.8,0.9,1.2,1.8,1.2c0.7,0,1.2-0.1,1.8-0.3l0.3,1.3c-0.7,0.3-1.4,0.4-2.3,0.4
					c-2.2,0-3.4-1.2-3.4-3.2c0-1.6,1-3.4,3.2-3.4c2.1,0,2.8,1.6,2.8,3.2c0,0.3,0,0.6-0.1,0.8H646.7z M649,39.3
					c0-0.5-0.2-1.3-1.1-1.3c-0.8,0-1.2,0.8-1.2,1.3H649z"/>
				<path class="st9" d="M655.6,43.2l-0.1-0.6h0c-0.4,0.5-1.1,0.8-1.8,0.8c-1.3,0-2.1-0.9-2.1-2c0-1.7,1.5-2.4,3.7-2.4v-0.1
					c0-0.3-0.2-0.8-1.2-0.8c-0.7,0-1.3,0.2-1.8,0.5l-0.4-1.3c0.4-0.2,1.3-0.6,2.5-0.6c2.1,0,2.8,1.2,2.8,2.7v2.2
					c0,0.6,0,1.2,0.1,1.5H655.6z M655.4,40.2c-1,0-1.8,0.2-1.8,1c0,0.5,0.3,0.8,0.8,0.8c0.5,0,0.9-0.3,1-0.7c0-0.1,0-0.2,0-0.3V40.2
					z"/>
			</g>
		</g>
		<g>
			<g>
				<path class="st9" d="M527.1,143.4c-0.4,0.2-1.3,0.4-2.4,0.4c-2.1,0-4.1-1.4-4.1-4.5c0-2.6,1.7-4.6,4.4-4.6c1.1,0,1.8,0.2,2,0.4
					l-0.2,0.5c-0.4-0.2-1.1-0.4-1.8-0.4c-2.4,0-3.8,1.5-3.8,4.1c0,2.4,1.4,3.9,3.7,3.9c0.7,0,1.5-0.2,2-0.4L527.1,143.4z"/>
				<path class="st9" d="M528.7,140.5c0,2,1.1,2.8,2.4,2.8c0.9,0,1.4-0.2,1.7-0.4l0.2,0.5c-0.2,0.1-0.9,0.4-2,0.4
					c-1.8,0-2.9-1.3-2.9-3.1c0-2.1,1.2-3.4,2.8-3.4c2,0,2.4,1.9,2.4,2.8c0,0.2,0,0.3,0,0.4H528.7z M532.7,140c0-0.9-0.4-2.2-1.9-2.2
					c-1.4,0-2,1.2-2.1,2.2H532.7z"/>
				<path class="st9" d="M534.9,139c0-0.6,0-1-0.1-1.5h0.6l0,1.1h0c0.3-0.7,1.1-1.3,2.1-1.3c0.6,0,2.2,0.3,2.2,2.6v3.7h-0.6V140
					c0-1.1-0.4-2.2-1.7-2.2c-0.9,0-1.6,0.6-1.9,1.4c0,0.2-0.1,0.4-0.1,0.6v3.9h-0.6V139z"/>
				<path class="st9" d="M542.7,136.1v1.4h1.8v0.5h-1.8v4.1c0,0.8,0.2,1.3,0.9,1.3c0.3,0,0.6,0,0.7-0.1l0.1,0.5
					c-0.2,0.1-0.5,0.2-0.9,0.2c-0.5,0-0.8-0.1-1.1-0.4c-0.3-0.3-0.4-0.9-0.4-1.5V138H541v-0.5h1.1v-1.1L542.7,136.1z"/>
				<path class="st9" d="M546,140.5c0,2,1.1,2.8,2.4,2.8c0.9,0,1.4-0.2,1.7-0.4l0.2,0.5c-0.2,0.1-0.9,0.4-2,0.4
					c-1.8,0-2.9-1.3-2.9-3.1c0-2.1,1.2-3.4,2.8-3.4c2,0,2.4,1.9,2.4,2.8c0,0.2,0,0.3,0,0.4H546z M549.9,140c0-0.9-0.4-2.2-1.9-2.2
					c-1.4,0-2,1.2-2.1,2.2H549.9z"/>
				<path class="st9" d="M552.2,139.3c0-0.6,0-1.3-0.1-1.9h0.6l0,1.3h0c0.3-0.8,0.9-1.4,1.8-1.4c0.1,0,0.2,0,0.3,0v0.6
					c-0.1,0-0.2,0-0.3,0c-0.9,0-1.5,0.7-1.6,1.7c0,0.2-0.1,0.4-0.1,0.6v3.4h-0.6V139.3z"/>
			</g>
		</g>
		<g>
			<g>
				<path class="st9" d="M524.6,118.2c0.5,0.3,1.2,0.6,1.9,0.6c1.3,0,2.1-0.7,2.1-1.8c0-1-0.5-1.6-1.8-2.1c-1.4-0.5-2.2-1.2-2.2-2.4
					c0-1.3,1.1-2.2,2.5-2.2c0.8,0,1.4,0.2,1.7,0.4l-0.2,0.5c-0.2-0.2-0.8-0.4-1.5-0.4c-1.4,0-1.9,0.9-1.9,1.6c0,1,0.6,1.5,1.8,2
					c1.4,0.6,2.2,1.2,2.2,2.5c0,1.3-0.9,2.4-2.8,2.4c-0.8,0-1.6-0.2-2.1-0.6L524.6,118.2z"/>
				<path class="st9" d="M536.2,116c0,2.3-1.6,3.3-3,3.3c-1.6,0-2.9-1.3-2.9-3.2c0-2.1,1.4-3.3,3-3.3
					C535,112.8,536.2,114.1,536.2,116z M531,116.1c0,1.6,1,2.7,2.3,2.7c1.3,0,2.3-1.2,2.3-2.8c0-1.1-0.6-2.7-2.3-2.7
					C531.7,113.3,531,114.8,531,116.1z"/>
				<path class="st9" d="M542.6,117.7c0,0.5,0,1,0.1,1.5H542l0-1.1h0c-0.3,0.6-1,1.3-2.1,1.3c-0.8,0-2.1-0.4-2.1-2.8V113h0.6v3.5
					c0,1.4,0.4,2.3,1.7,2.3c0.9,0,1.6-0.6,1.8-1.3c0.1-0.2,0.1-0.4,0.1-0.7V113h0.6V117.7z"/>
				<path class="st9" d="M545.5,111.6v1.4h1.8v0.5h-1.8v4.1c0,0.8,0.2,1.3,0.9,1.3c0.3,0,0.6,0,0.7-0.1l0.1,0.5
					c-0.2,0.1-0.5,0.2-0.9,0.2c-0.5,0-0.8-0.1-1.1-0.4c-0.3-0.3-0.4-0.9-0.4-1.5v-3.9h-1.1V113h1.1v-1.1L545.5,111.6z"/>
				<path class="st9" d="M548.7,110h0.6v4.1h0c0.2-0.4,0.5-0.7,0.8-0.9c0.4-0.2,0.8-0.4,1.3-0.4c0.6,0,2.2,0.3,2.2,2.6v3.8H553v-3.7
					c0-1.1-0.4-2.1-1.7-2.1c-0.9,0-1.6,0.6-1.9,1.4c-0.1,0.2-0.1,0.4-0.1,0.6v3.8h-0.6V110z"/>
			</g>
		</g>
		<g>
			<g>
				<path class="st9" d="M532.2,90.5c-0.1-1.3-0.2-2.9-0.2-3.9h0c-0.3,0.9-0.7,2-1.2,3.3l-1.8,4.8h-0.4l-1.7-4.7
					c-0.5-1.4-0.9-2.4-1.1-3.4h0c0,1-0.1,2.5-0.2,4l-0.3,4h-0.6l0.6-8.8h0.7l1.9,5c0.4,1.1,0.7,2,1,2.8h0c0.2-0.8,0.5-1.7,1-2.8
					l2-5.1h0.7l0.6,8.8h-0.6L532.2,90.5z"/>
				<path class="st9" d="M535,91.5c0,2,1.1,2.8,2.4,2.8c0.9,0,1.4-0.2,1.7-0.4l0.2,0.5c-0.2,0.1-0.9,0.4-2,0.4
					c-1.8,0-2.9-1.3-2.9-3.1c0-2.1,1.2-3.4,2.8-3.4c2,0,2.4,1.9,2.4,2.8c0,0.2,0,0.3,0,0.4H535z M539,91c0-0.9-0.4-2.2-1.9-2.2
					c-1.4,0-2,1.2-2.1,2.2H539z"/>
				<path class="st9" d="M542.1,87.1v1.4h1.8V89h-1.8V93c0,0.8,0.2,1.3,0.9,1.3c0.3,0,0.6,0,0.7-0.1l0.1,0.5
					c-0.2,0.1-0.5,0.2-0.9,0.2c-0.5,0-0.8-0.1-1.1-0.4c-0.3-0.3-0.4-0.9-0.4-1.5V89h-1.1v-0.5h1.1v-1.1L542.1,87.1z"/>
				<path class="st9" d="M545.2,90.3c0-0.6,0-1.3-0.1-1.9h0.6l0,1.3h0c0.3-0.8,0.9-1.4,1.8-1.4c0.1,0,0.2,0,0.3,0v0.6
					c-0.1,0-0.2,0-0.3,0c-0.9,0-1.5,0.7-1.6,1.7c0,0.2-0.1,0.4-0.1,0.6v3.4h-0.6V90.3z"/>
				<path class="st9" d="M554.4,91.5c0,2.3-1.6,3.3-3,3.3c-1.6,0-2.9-1.3-2.9-3.2c0-2.1,1.4-3.3,3-3.3
					C553.3,88.3,554.4,89.6,554.4,91.5z M549.2,91.6c0,1.6,1,2.7,2.3,2.7c1.3,0,2.3-1.2,2.3-2.8c0-1.1-0.6-2.7-2.3-2.7
					C549.9,88.8,549.2,90.3,549.2,91.6z"/>
			</g>
		</g>
		<g>
			<g>
				<path class="st9" d="M526,70.2v-8.8h0.6l3.4,5.2c0.7,1.1,1.2,1.9,1.7,2.8l0,0c-0.1-1.2-0.1-2.2-0.1-3.6v-4.4h0.6v8.8h-0.6
					l-3.3-5.1c-0.7-1-1.2-1.9-1.7-2.8l0,0c0.1,1.1,0.1,2,0.1,3.5v4.4H526z"/>
				<path class="st9" d="M539.6,67c0,2.3-1.6,3.3-3,3.3c-1.6,0-2.9-1.3-2.9-3.2c0-2.1,1.4-3.3,3-3.3C538.4,63.8,539.6,65.1,539.6,67
					z M534.4,67.1c0,1.6,1,2.7,2.3,2.7c1.3,0,2.3-1.2,2.3-2.8c0-1.1-0.6-2.7-2.3-2.7C535.1,64.3,534.4,65.8,534.4,67.1z"/>
				<path class="st9" d="M541.2,65.8c0-0.6,0-1.3-0.1-1.9h0.6l0,1.3h0c0.3-0.8,0.9-1.4,1.8-1.4c0.1,0,0.2,0,0.3,0v0.6
					c-0.1,0-0.2,0-0.3,0c-0.9,0-1.5,0.7-1.6,1.7c0,0.2-0.1,0.4-0.1,0.6v3.4h-0.6V65.8z"/>
				<path class="st9" d="M545.9,62.6V64h1.8v0.5h-1.8v4.1c0,0.8,0.2,1.3,0.9,1.3c0.3,0,0.6,0,0.7-0.1l0.1,0.5
					c-0.2,0.1-0.5,0.2-0.9,0.2c-0.5,0-0.8-0.1-1.1-0.4c-0.3-0.3-0.4-0.9-0.4-1.5v-3.9h-1.1V64h1.1v-1.1L545.9,62.6z"/>
				<path class="st9" d="M549,61h0.6v4.1h0c0.2-0.4,0.5-0.7,0.8-0.9c0.4-0.2,0.8-0.4,1.3-0.4c0.6,0,2.2,0.3,2.2,2.6v3.8h-0.6v-3.7
					c0-1.1-0.4-2.1-1.7-2.1c-0.9,0-1.6,0.6-1.9,1.4c-0.1,0.2-0.1,0.4-0.1,0.6v3.8H549V61z"/>
			</g>
		</g>
		<path class="st7" d="M562.9,62.8h170.9c3.1,0,5.7,2.5,5.7,5.7v0c0,3.1-2.5,5.7-5.7,5.7H562.9V62.8z"/>
		<path class="st7" d="M562.9,87.3h111.5c3.1,0,5.7,2.5,5.7,5.7v0c0,3.1-2.5,5.7-5.7,5.7H562.9V87.3z"/>
		<path class="st7" d="M562.9,111.8h97.9c3.1,0,5.7,2.5,5.7,5.7v0c0,3.1-2.5,5.7-5.7,5.7h-97.9V111.8z"/>
		<path class="st7" d="M562.9,136.3h72.4c3.1,0,5.7,2.5,5.7,5.7v0c0,3.1-2.5,5.7-5.7,5.7h-72.4V136.3z"/>
		<line class="st12" x1="562.9" y1="154.2" x2="562.9" y2="56.2"/>
	</g>
	<g>
		<g>
			<path class="st9" d="M564.3,370.2c0.7-0.1,1.7-0.2,2.7-0.2c1.7,0,2.7,0.3,3.6,0.9c0.9,0.7,1.5,1.8,1.5,3.3c0,1.7-0.6,2.8-1.5,3.5
				c-0.9,0.8-2.3,1.1-4,1.1c-1,0-1.8-0.1-2.2-0.1V370.2z M566.3,377.3c0.2,0,0.4,0,0.7,0c1.8,0,3-1,3-3.1c0-1.8-1.1-2.8-2.8-2.8
				c-0.4,0-0.7,0-0.9,0.1V377.3z"/>
			<path class="st9" d="M575.3,370.7c0,0.5-0.4,1-1.1,1c-0.6,0-1-0.4-1-1c0-0.6,0.4-1,1-1S575.3,370.1,575.3,370.7z M573.2,378.8
				v-6.4h2v6.4H573.2z"/>
			<path class="st9" d="M578.3,372.5l0.9,3c0.2,0.5,0.3,1,0.4,1.5h0c0.1-0.5,0.2-1,0.4-1.5l0.8-3h2.1l-2.4,6.4h-2l-2.3-6.4H578.3z"
				/>
			<path class="st9" d="M585.7,370.7c0,0.5-0.4,1-1.1,1c-0.6,0-1-0.4-1-1c0-0.6,0.4-1,1-1S585.7,370.1,585.7,370.7z M583.7,378.8
				v-6.4h2v6.4H583.7z"/>
			<path class="st9" d="M587.3,377.1c0.4,0.2,1.1,0.5,1.7,0.5c0.6,0,0.8-0.2,0.8-0.5c0-0.3-0.2-0.5-0.9-0.7
				c-1.3-0.4-1.8-1.2-1.8-1.9c0-1.2,1-2.1,2.6-2.1c0.7,0,1.4,0.2,1.8,0.4l-0.4,1.4c-0.3-0.2-0.8-0.4-1.4-0.4c-0.5,0-0.8,0.2-0.8,0.5
				c0,0.3,0.2,0.5,1,0.7c1.2,0.4,1.7,1,1.7,2c0,1.2-0.9,2.1-2.8,2.1c-0.8,0-1.6-0.2-2.1-0.4L587.3,377.1z"/>
			<path class="st9" d="M594.9,370.7c0,0.5-0.4,1-1.1,1c-0.6,0-1-0.4-1-1c0-0.6,0.4-1,1-1C594.5,369.7,594.9,370.1,594.9,370.7z
				 M592.9,378.8v-6.4h2v6.4H592.9z"/>
			<path class="st9" d="M602.7,375.6c0,2.3-1.7,3.4-3.4,3.4c-1.9,0-3.3-1.2-3.3-3.3c0-2.1,1.4-3.4,3.4-3.4
				C601.4,372.3,602.7,373.7,602.7,375.6z M598.1,375.6c0,1.1,0.5,1.9,1.3,1.9c0.8,0,1.3-0.8,1.3-1.9c0-0.9-0.4-1.9-1.3-1.9
				C598.5,373.7,598.1,374.7,598.1,375.6z"/>
			<path class="st9" d="M604,374.5c0-0.8,0-1.5-0.1-2h1.7l0.1,0.9h0c0.3-0.4,0.9-1,2-1c1.3,0,2.3,0.9,2.3,2.7v3.8h-2v-3.5
				c0-0.8-0.3-1.4-1-1.4c-0.5,0-0.9,0.4-1,0.7c-0.1,0.1-0.1,0.3-0.1,0.5v3.7h-2V374.5z"/>
		</g>
	</g>
	<line class="st12" x1="562.9" y1="489.8" x2="562.9" y2="391.8"/>
	<path class="st7" d="M562.9,402.5h99.8c3.1,0,5.7,2.5,5.7,5.7v0c0,3.1-2.5,5.7-5.7,5.7h-99.8V402.5z"/>
	<path class="st7" d="M562.7,433.5h58.1c3.3,0,6,2.5,6,5.7l0,0c0,3.1-2.7,5.7-6,5.7h-58.1V433.5z"/>
	<path class="st7" d="M562.9,467.8H443.1c-3.8,0-6.9,2.5-6.9,5.7l0,0c0,3.1,3.1,5.7,6.9,5.7h119.9V467.8z"/>
	<g>
		<path class="st9" d="M573.5,472.1l-1.1,3.1h-0.6l3.2-8.8h0.6l3.1,8.8h-0.6l-1.1-3.1H573.5z M576.8,471.6l-1.1-2.9
			c-0.2-0.6-0.3-1.1-0.5-1.5h0c-0.1,0.5-0.3,1-0.5,1.5l-1.1,3H576.8z"/>
		<path class="st9" d="M580.1,471c0-0.8,0-1.4-0.1-2h0.6l0,1.2h0c0.5-0.8,1.2-1.3,2.3-1.3c1.6,0,2.7,1.3,2.7,3.2
			c0,2.2-1.3,3.4-2.8,3.4c-0.9,0-1.7-0.4-2.1-1.2h0v3.6h-0.6V471z M580.7,472.8c0,0.2,0,0.3,0.1,0.5c0.3,1,1.1,1.6,2.1,1.6
			c1.4,0,2.2-1.2,2.2-2.8c0-1.4-0.8-2.7-2.2-2.7c-0.9,0-1.8,0.6-2.1,1.7c0,0.2-0.1,0.4-0.1,0.5V472.8z"/>
		<path class="st9" d="M587.3,471c0-0.8,0-1.4-0.1-2h0.6l0,1.2h0c0.5-0.8,1.2-1.3,2.3-1.3c1.6,0,2.7,1.3,2.7,3.2
			c0,2.2-1.3,3.4-2.8,3.4c-0.9,0-1.7-0.4-2.1-1.2h0v3.6h-0.6V471z M587.9,472.8c0,0.2,0,0.3,0.1,0.5c0.3,1,1.1,1.6,2.1,1.6
			c1.4,0,2.2-1.2,2.2-2.8c0-1.4-0.8-2.7-2.2-2.7c-0.9,0-1.8,0.6-2.1,1.7c0,0.2-0.1,0.4-0.1,0.5V472.8z"/>
		<path class="st9" d="M598.3,473.7c0,0.5,0,1,0.1,1.5h-0.6l-0.1-0.9h0c-0.3,0.5-1,1-2,1c-1.3,0-1.8-0.9-1.8-1.7
			c0-1.4,1.3-2.3,3.8-2.3v-0.2c0-0.6-0.1-1.8-1.6-1.8c-0.5,0-1.1,0.1-1.6,0.5l-0.2-0.5c0.6-0.4,1.3-0.5,1.8-0.5
			c1.8,0,2.2,1.4,2.2,2.5V473.7z M597.7,471.9c-1.4,0-3.2,0.2-3.2,1.7c0,0.9,0.6,1.3,1.2,1.3c1,0,1.6-0.6,1.8-1.2
			c0.1-0.1,0.1-0.3,0.1-0.4V471.9z"/>
		<path class="st9" d="M600.3,470.8c0-0.6,0-1.3-0.1-1.9h0.6l0,1.3h0c0.3-0.8,0.9-1.4,1.8-1.4c0.1,0,0.2,0,0.3,0v0.6
			c-0.1,0-0.2,0-0.3,0c-0.9,0-1.5,0.7-1.6,1.7c0,0.2-0.1,0.4-0.1,0.6v3.4h-0.6V470.8z"/>
		<path class="st9" d="M604.3,472c0,2,1.1,2.8,2.4,2.8c0.9,0,1.4-0.2,1.7-0.4l0.2,0.5c-0.2,0.1-0.9,0.4-2,0.4
			c-1.8,0-2.9-1.3-2.9-3.1c0-2.1,1.2-3.4,2.8-3.4c2,0,2.4,1.9,2.4,2.8c0,0.2,0,0.3,0,0.4H604.3z M608.3,471.5c0-0.9-0.4-2.2-1.9-2.2
			c-1.4,0-2,1.2-2.1,2.2H608.3z"/>
		<path class="st9" d="M610.5,466h0.6v9.2h-0.6V466z"/>
	</g>
	<g>
		<path class="st9" d="M451.4,442.2c-0.4,0.2-1.4,0.5-2.6,0.5c-1.2,0-2.2-0.3-3.1-1.1c-0.7-0.7-1.2-1.9-1.2-3.3
			c0-2.4,1.6-4.5,4.6-4.5c0.9,0,1.7,0.2,2,0.4l-0.2,0.5c-0.5-0.2-1-0.4-1.9-0.4c-2.4,0-3.9,1.6-3.9,3.9c0,2.5,1.4,3.9,3.8,3.9
			c0.9,0,1.5-0.1,1.8-0.3v-3.1h-2v-0.5h2.7V442.2z"/>
		<path class="st9" d="M453.3,439.4c0,2,1.1,2.8,2.4,2.8c0.9,0,1.4-0.2,1.7-0.4l0.2,0.5c-0.2,0.1-0.9,0.4-2,0.4
			c-1.8,0-2.9-1.3-2.9-3.1c0-2.1,1.2-3.4,2.8-3.4c2,0,2.4,1.9,2.4,2.8c0,0.2,0,0.3,0,0.4H453.3z M457.3,438.9c0-0.9-0.4-2.2-1.9-2.2
			c-1.4,0-2,1.2-2.1,2.2H457.3z"/>
		<path class="st9" d="M459.5,437.8c0-0.6,0-1-0.1-1.5h0.6l0,1.1h0c0.3-0.7,1.1-1.3,2.1-1.3c0.6,0,2.2,0.3,2.2,2.6v3.7h-0.6v-3.7
			c0-1.1-0.4-2.2-1.7-2.2c-0.9,0-1.6,0.6-1.9,1.4c0,0.2-0.1,0.4-0.1,0.6v3.9h-0.6V437.8z"/>
		<path class="st9" d="M466.6,439.4c0,2,1.1,2.8,2.4,2.8c0.9,0,1.4-0.2,1.7-0.4l0.2,0.5c-0.2,0.1-0.9,0.4-2,0.4
			c-1.8,0-2.9-1.3-2.9-3.1c0-2.1,1.2-3.4,2.8-3.4c2,0,2.4,1.9,2.4,2.8c0,0.2,0,0.3,0,0.4H466.6z M470.5,438.9c0-0.9-0.4-2.2-1.9-2.2
			c-1.4,0-2,1.2-2.1,2.2H470.5z"/>
		<path class="st9" d="M472.8,438.2c0-0.6,0-1.3-0.1-1.9h0.6l0,1.3h0c0.3-0.8,0.9-1.4,1.8-1.4c0.1,0,0.2,0,0.3,0v0.6
			c-0.1,0-0.2,0-0.3,0c-0.9,0-1.5,0.7-1.6,1.7c0,0.2-0.1,0.4-0.1,0.6v3.4h-0.6V438.2z"/>
		<path class="st9" d="M480.5,441.1c0,0.5,0,1,0.1,1.5H480l-0.1-0.9h0c-0.3,0.5-1,1-2,1c-1.3,0-1.8-0.9-1.8-1.7
			c0-1.4,1.3-2.3,3.8-2.3v-0.2c0-0.6-0.1-1.8-1.6-1.8c-0.5,0-1.1,0.1-1.6,0.5l-0.2-0.5c0.6-0.4,1.3-0.5,1.8-0.5
			c1.8,0,2.2,1.4,2.2,2.5V441.1z M479.9,439.2c-1.4,0-3.2,0.2-3.2,1.7c0,0.9,0.6,1.3,1.2,1.3c1,0,1.6-0.6,1.8-1.2
			c0.1-0.1,0.1-0.3,0.1-0.4V439.2z"/>
		<path class="st9" d="M482.5,433.3h0.6v9.2h-0.6V433.3z"/>
		<path class="st9" d="M488.1,437.8c0-0.6,0-1-0.1-1.5h0.6l0,1.1h0c0.4-0.7,1-1.2,2-1.2c0.9,0,1.5,0.6,1.8,1.4h0
			c0.2-0.4,0.4-0.6,0.6-0.8c0.4-0.3,0.8-0.5,1.5-0.5c0.6,0,2,0.3,2,2.7v3.7h-0.6v-3.6c0-1.4-0.5-2.2-1.6-2.2c-0.8,0-1.4,0.6-1.6,1.2
			c-0.1,0.2-0.1,0.4-0.1,0.6v4h-0.6v-3.9c0-1.1-0.5-2-1.5-2c-0.8,0-1.5,0.7-1.7,1.4c-0.1,0.2-0.1,0.4-0.1,0.6v3.8h-0.6V437.8z"/>
		<path class="st9" d="M498.9,439.4c0,2,1.1,2.8,2.4,2.8c0.9,0,1.4-0.2,1.7-0.4l0.2,0.5c-0.2,0.1-0.9,0.4-2,0.4
			c-1.8,0-2.9-1.3-2.9-3.1c0-2.1,1.2-3.4,2.8-3.4c2,0,2.4,1.9,2.4,2.8c0,0.2,0,0.3,0,0.4H498.9z M502.8,438.9c0-0.9-0.4-2.2-1.9-2.2
			c-1.4,0-2,1.2-2.1,2.2H502.8z"/>
		<path class="st9" d="M505.1,438.2c0-0.6,0-1.3-0.1-1.9h0.6l0,1.3h0c0.3-0.8,0.9-1.4,1.8-1.4c0.1,0,0.2,0,0.3,0v0.6
			c-0.1,0-0.2,0-0.3,0c-0.9,0-1.5,0.7-1.6,1.7c0,0.2-0.1,0.4-0.1,0.6v3.4h-0.6V438.2z"/>
		<path class="st9" d="M513.2,442.3c-0.3,0.1-0.9,0.4-1.8,0.4c-1.8,0-3-1.3-3-3.2c0-2,1.4-3.3,3.2-3.3c0.8,0,1.4,0.2,1.6,0.4
			l-0.2,0.5c-0.3-0.2-0.8-0.4-1.5-0.4c-1.7,0-2.5,1.3-2.5,2.7c0,1.6,1,2.7,2.5,2.7c0.7,0,1.2-0.2,1.6-0.4L513.2,442.3z"/>
		<path class="st9" d="M514.7,433.3h0.6v4.1h0c0.2-0.4,0.5-0.7,0.8-0.9c0.4-0.2,0.8-0.4,1.3-0.4c0.6,0,2.2,0.3,2.2,2.6v3.8H519v-3.7
			c0-1.1-0.4-2.1-1.7-2.1c-0.9,0-1.6,0.6-1.9,1.4c-0.1,0.2-0.1,0.4-0.1,0.6v3.8h-0.6V433.3z"/>
		<path class="st9" d="M525.6,441.1c0,0.5,0,1,0.1,1.5h-0.6l-0.1-0.9h0c-0.3,0.5-1,1-2,1c-1.3,0-1.8-0.9-1.8-1.7
			c0-1.4,1.3-2.3,3.8-2.3v-0.2c0-0.6-0.1-1.8-1.6-1.8c-0.5,0-1.1,0.1-1.6,0.5l-0.2-0.5c0.6-0.4,1.3-0.5,1.8-0.5
			c1.8,0,2.2,1.4,2.2,2.5V441.1z M524.9,439.2c-1.4,0-3.2,0.2-3.2,1.7c0,0.9,0.6,1.3,1.2,1.3c1,0,1.6-0.6,1.8-1.2
			c0.1-0.1,0.1-0.3,0.1-0.4V439.2z"/>
		<path class="st9" d="M527.6,437.8c0-0.6,0-1-0.1-1.5h0.6l0,1.1h0c0.3-0.7,1.1-1.3,2.1-1.3c0.6,0,2.2,0.3,2.2,2.6v3.7h-0.6v-3.7
			c0-1.1-0.4-2.2-1.7-2.2c-0.9,0-1.6,0.6-1.9,1.4c0,0.2-0.1,0.4-0.1,0.6v3.9h-0.6V437.8z"/>
		<path class="st9" d="M539.5,433.3v7.8c0,0.5,0,1,0.1,1.5H539l-0.1-1.2h0c-0.3,0.7-1.1,1.3-2.2,1.3c-1.5,0-2.7-1.3-2.7-3.1
			c0-2.1,1.3-3.4,2.8-3.4c1.1,0,1.8,0.6,2,1.1h0v-4H539.5z M538.9,438.8c0-0.2,0-0.4-0.1-0.6c-0.2-0.8-0.9-1.5-2-1.5
			c-1.4,0-2.2,1.2-2.2,2.8c0,1.4,0.7,2.7,2.2,2.7c0.9,0,1.7-0.6,2-1.6c0.1-0.2,0.1-0.3,0.1-0.5V438.8z"/>
		<path class="st9" d="M542.4,434.5c0,0.3-0.2,0.5-0.5,0.5c-0.3,0-0.5-0.2-0.5-0.5s0.2-0.5,0.5-0.5
			C542.2,434,542.4,434.2,542.4,434.5z M541.6,442.5v-6.2h0.6v6.2H541.6z"/>
		<path class="st9" d="M544.1,441.7c0.3,0.2,0.8,0.4,1.4,0.4c1,0,1.5-0.5,1.5-1.2c0-0.7-0.4-1.1-1.3-1.4c-1-0.4-1.6-0.9-1.6-1.7
			c0-0.9,0.7-1.7,1.9-1.7c0.6,0,1.1,0.2,1.4,0.4l-0.2,0.5c-0.2-0.2-0.6-0.4-1.2-0.4c-0.8,0-1.2,0.5-1.2,1.1c0,0.6,0.4,0.9,1.3,1.3
			c1,0.4,1.6,0.9,1.6,1.8c0,1.1-0.8,1.8-2.1,1.8c-0.6,0-1.2-0.2-1.6-0.4L544.1,441.7z"/>
		<path class="st9" d="M549.3,439.4c0,2,1.1,2.8,2.4,2.8c0.9,0,1.4-0.2,1.7-0.4l0.2,0.5c-0.2,0.1-0.9,0.4-2,0.4
			c-1.8,0-2.9-1.3-2.9-3.1c0-2.1,1.2-3.4,2.8-3.4c2,0,2.4,1.9,2.4,2.8c0,0.2,0,0.3,0,0.4H549.3z M553.2,438.9c0-0.9-0.4-2.2-1.9-2.2
			c-1.4,0-2,1.2-2.1,2.2H553.2z"/>
	</g>
	<g>
		<path class="st9" d="M433.9,401.1h4.3v0.5h-3.7v3.5h3.4v0.5h-3.4v4.2h-0.6V401.1z"/>
		<path class="st9" d="M445.2,406.7c0,2.3-1.6,3.3-3,3.3c-1.6,0-2.9-1.3-2.9-3.2c0-2.1,1.4-3.3,3-3.3
			C444,403.5,445.2,404.8,445.2,406.7z M440,406.8c0,1.6,1,2.7,2.3,2.7c1.3,0,2.3-1.2,2.3-2.8c0-1.1-0.6-2.7-2.3-2.7
			C440.7,404,440,405.4,440,406.8z"/>
		<path class="st9" d="M452.1,406.7c0,2.3-1.6,3.3-3,3.3c-1.6,0-2.9-1.3-2.9-3.2c0-2.1,1.4-3.3,3-3.3
			C450.9,403.5,452.1,404.8,452.1,406.7z M446.9,406.8c0,1.6,1,2.7,2.3,2.7c1.3,0,2.3-1.2,2.3-2.8c0-1.1-0.6-2.7-2.3-2.7
			C447.6,404,446.9,405.4,446.9,406.8z"/>
		<path class="st9" d="M458.7,400.6v7.8c0,0.5,0,1,0.1,1.5h-0.6l-0.1-1.2h0c-0.3,0.7-1.1,1.3-2.2,1.3c-1.5,0-2.7-1.3-2.7-3.1
			c0-2.1,1.3-3.4,2.8-3.4c1.1,0,1.8,0.6,2,1.1h0v-4H458.7z M458.1,406.1c0-0.2,0-0.4-0.1-0.6c-0.2-0.8-0.9-1.5-2-1.5
			c-1.4,0-2.2,1.2-2.2,2.8c0,1.4,0.7,2.7,2.2,2.7c0.9,0,1.7-0.6,2-1.6c0.1-0.2,0.1-0.3,0.1-0.5V406.1z"/>
		<path class="st9" d="M467.5,408.4c0,0.5,0,1,0.1,1.5H467l-0.1-0.9h0c-0.3,0.5-1,1-2,1c-1.3,0-1.8-0.9-1.8-1.7
			c0-1.4,1.3-2.3,3.8-2.3v-0.2c0-0.6-0.1-1.8-1.6-1.8c-0.5,0-1.1,0.1-1.6,0.5l-0.2-0.5c0.6-0.4,1.3-0.5,1.8-0.5
			c1.8,0,2.2,1.4,2.2,2.5V408.4z M466.9,406.5c-1.4,0-3.2,0.2-3.2,1.7c0,0.9,0.6,1.3,1.2,1.3c1,0,1.6-0.6,1.8-1.2
			c0.1-0.1,0.1-0.3,0.1-0.4V406.5z"/>
		<path class="st9" d="M469.5,405.1c0-0.6,0-1-0.1-1.5h0.6l0,1.1h0c0.3-0.7,1.1-1.3,2.1-1.3c0.6,0,2.2,0.3,2.2,2.6v3.7h-0.6v-3.7
			c0-1.1-0.4-2.2-1.7-2.2c-0.9,0-1.6,0.6-1.9,1.4c0,0.2-0.1,0.4-0.1,0.6v3.9h-0.6V405.1z"/>
		<path class="st9" d="M481.5,400.6v7.8c0,0.5,0,1,0.1,1.5H481l-0.1-1.2h0c-0.3,0.7-1.1,1.3-2.2,1.3c-1.5,0-2.7-1.3-2.7-3.1
			c0-2.1,1.3-3.4,2.8-3.4c1.1,0,1.8,0.6,2,1.1h0v-4H481.5z M480.8,406.1c0-0.2,0-0.4-0.1-0.6c-0.2-0.8-0.9-1.5-2-1.5
			c-1.4,0-2.2,1.2-2.2,2.8c0,1.4,0.7,2.7,2.2,2.7c0.9,0,1.7-0.6,2-1.6c0.1-0.2,0.1-0.3,0.1-0.5V406.1z"/>
		<path class="st9" d="M490.7,409.6c-0.3,0.1-0.9,0.4-1.8,0.4c-1.8,0-3-1.3-3-3.2c0-2,1.4-3.3,3.2-3.3c0.8,0,1.4,0.2,1.6,0.4
			l-0.2,0.5c-0.3-0.2-0.8-0.4-1.5-0.4c-1.7,0-2.5,1.3-2.5,2.7c0,1.6,1,2.7,2.5,2.7c0.7,0,1.2-0.2,1.6-0.4L490.7,409.6z"/>
		<path class="st9" d="M497.5,406.7c0,2.3-1.6,3.3-3,3.3c-1.6,0-2.9-1.3-2.9-3.2c0-2.1,1.4-3.3,3-3.3
			C496.4,403.5,497.5,404.8,497.5,406.7z M492.3,406.8c0,1.6,1,2.7,2.3,2.7c1.3,0,2.3-1.2,2.3-2.8c0-1.1-0.6-2.7-2.3-2.7
			C493,404,492.3,405.4,492.3,406.8z"/>
		<path class="st9" d="M499.1,405.1c0-0.6,0-1-0.1-1.5h0.6l0,1.1h0c0.3-0.7,1.1-1.3,2.1-1.3c0.6,0,2.2,0.3,2.2,2.6v3.7h-0.6v-3.7
			c0-1.1-0.4-2.2-1.7-2.2c-0.9,0-1.6,0.6-1.9,1.4c0,0.2-0.1,0.4-0.1,0.6v3.9h-0.6V405.1z"/>
		<path class="st9" d="M505.8,409.1c0.3,0.2,0.8,0.4,1.4,0.4c1,0,1.5-0.5,1.5-1.2c0-0.7-0.4-1.1-1.3-1.4c-1-0.4-1.6-0.9-1.6-1.7
			c0-0.9,0.7-1.7,1.9-1.7c0.6,0,1.1,0.2,1.4,0.4l-0.2,0.5c-0.2-0.2-0.6-0.4-1.2-0.4c-0.8,0-1.2,0.5-1.2,1.1c0,0.7,0.4,0.9,1.3,1.3
			c1,0.4,1.6,0.9,1.6,1.8c0,1.1-0.8,1.8-2.1,1.8c-0.6,0-1.2-0.2-1.6-0.4L505.8,409.1z"/>
		<path class="st9" d="M515.8,408.4c0,0.5,0,1,0.1,1.5h-0.6l0-1.1h0c-0.3,0.6-1,1.3-2.1,1.3c-0.8,0-2.1-0.4-2.1-2.8v-3.6h0.6v3.5
			c0,1.4,0.4,2.3,1.7,2.3c0.9,0,1.6-0.6,1.8-1.3c0.1-0.2,0.1-0.4,0.1-0.7v-3.9h0.6V408.4z"/>
		<path class="st9" d="M517.8,405.1c0-0.6,0-1-0.1-1.5h0.6l0,1.1h0c0.4-0.7,1-1.2,2-1.2c0.9,0,1.5,0.6,1.8,1.4h0
			c0.2-0.4,0.4-0.6,0.6-0.8c0.4-0.3,0.8-0.5,1.5-0.5c0.6,0,2,0.3,2,2.7v3.7h-0.6v-3.6c0-1.4-0.5-2.2-1.6-2.2c-0.8,0-1.4,0.6-1.6,1.2
			c-0.1,0.2-0.1,0.4-0.1,0.6v4h-0.6V406c0-1.1-0.5-2-1.5-2c-0.8,0-1.5,0.7-1.7,1.4c-0.1,0.2-0.1,0.4-0.1,0.6v3.8h-0.6V405.1z"/>
		<path class="st9" d="M532.4,408.4c0,0.5,0,1,0.1,1.5h-0.6l-0.1-0.9h0c-0.3,0.5-1,1-2,1c-1.3,0-1.8-0.9-1.8-1.7
			c0-1.4,1.3-2.3,3.8-2.3v-0.2c0-0.6-0.1-1.8-1.6-1.8c-0.5,0-1.1,0.1-1.6,0.5l-0.2-0.5c0.6-0.4,1.3-0.5,1.8-0.5
			c1.8,0,2.2,1.4,2.2,2.5V408.4z M531.8,406.5c-1.4,0-3.2,0.2-3.2,1.7c0,0.9,0.6,1.3,1.2,1.3c1,0,1.6-0.6,1.8-1.2
			c0.1-0.1,0.1-0.3,0.1-0.4V406.5z"/>
		<path class="st9" d="M534.4,400.6h0.6v4.2h0c0.4-0.8,1.2-1.3,2.3-1.3c1.6,0,2.7,1.3,2.7,3.2c0,2.2-1.4,3.3-2.8,3.3
			c-1,0-1.7-0.4-2.2-1.3h0l-0.1,1.1h-0.6c0-0.4,0.1-1,0.1-1.5V400.6z M535,407.5c0,0.1,0,0.3,0.1,0.5c0.3,0.9,1.1,1.6,2.1,1.6
			c1.4,0,2.2-1.2,2.2-2.8c0-1.4-0.8-2.7-2.2-2.7c-0.9,0-1.8,0.6-2.1,1.7c0,0.2-0.1,0.3-0.1,0.5V407.5z"/>
		<path class="st9" d="M541.6,400.6h0.6v9.2h-0.6V400.6z"/>
		<path class="st9" d="M544.4,406.7c0,2,1.1,2.8,2.4,2.8c0.9,0,1.4-0.2,1.7-0.4l0.2,0.5c-0.2,0.1-0.9,0.4-2,0.4
			c-1.8,0-2.9-1.3-2.9-3.1c0-2.1,1.2-3.4,2.8-3.4c2,0,2.4,1.9,2.4,2.8c0,0.2,0,0.3,0,0.4H544.4z M548.4,406.2c0-0.9-0.4-2.2-1.9-2.2
			c-1.4,0-2,1.2-2.1,2.2H548.4z"/>
		<path class="st9" d="M550.4,409.1c0.3,0.2,0.8,0.4,1.4,0.4c1,0,1.5-0.5,1.5-1.2c0-0.7-0.4-1.1-1.3-1.4c-1-0.4-1.6-0.9-1.6-1.7
			c0-0.9,0.7-1.7,1.9-1.7c0.6,0,1.1,0.2,1.4,0.4l-0.2,0.5c-0.2-0.2-0.6-0.4-1.2-0.4c-0.8,0-1.2,0.5-1.2,1.1c0,0.7,0.4,0.9,1.3,1.3
			c1,0.4,1.6,0.9,1.6,1.8c0,1.1-0.8,1.8-2.1,1.8c-0.6,0-1.2-0.2-1.6-0.4L550.4,409.1z"/>
	</g>
	<g>
		<g>
			<g>
				<path class="st9" d="M277.2,378.5c-0.4,0.2-1.2,0.4-2.2,0.4c-3,0-4.6-1.9-4.6-4.4c0-3,2.1-4.7,4.8-4.7c1,0,1.8,0.2,2.2,0.4
					l-0.4,1.6c-0.4-0.2-1-0.3-1.7-0.3c-1.6,0-2.8,0.9-2.8,2.9c0,1.8,1,2.9,2.8,2.9c0.6,0,1.3-0.1,1.7-0.3L277.2,378.5z"/>
				<path class="st9" d="M284.7,375.5c0,2.3-1.7,3.4-3.4,3.4c-1.9,0-3.3-1.2-3.3-3.3s1.4-3.4,3.4-3.4
					C283.4,372.2,284.7,373.6,284.7,375.5z M280.1,375.5c0,1.1,0.5,1.9,1.3,1.9c0.8,0,1.3-0.8,1.3-1.9c0-0.9-0.4-1.9-1.3-1.9
					C280.4,373.6,280.1,374.6,280.1,375.5z"/>
				<path class="st9" d="M291.9,376.7c0,0.8,0,1.5,0.1,2h-1.7l-0.1-0.9h0c-0.2,0.4-0.8,1-2,1c-1.3,0-2.2-0.8-2.2-2.8v-3.7h2v3.4
					c0,0.9,0.3,1.5,1,1.5c0.5,0,0.9-0.4,1-0.7c0.1-0.1,0.1-0.3,0.1-0.4v-3.8h2V376.7z"/>
				<path class="st9" d="M293.5,374.4c0-0.8,0-1.5-0.1-2h1.7l0.1,0.9h0c0.3-0.4,0.9-1,2-1c1.3,0,2.3,0.9,2.3,2.7v3.8h-2v-3.5
					c0-0.8-0.3-1.4-1-1.4c-0.5,0-0.9,0.4-1,0.7c-0.1,0.1-0.1,0.3-0.1,0.5v3.7h-2V374.4z"/>
				<path class="st9" d="M303.3,370.5v1.8h1.4v1.5h-1.4v2.3c0,0.8,0.2,1.1,0.8,1.1c0.2,0,0.4,0,0.6-0.1l0,1.5
					c-0.3,0.1-0.7,0.2-1.3,0.2c-0.6,0-1.2-0.2-1.5-0.5c-0.4-0.4-0.5-1-0.5-1.9v-2.6h-0.8v-1.5h0.8V371L303.3,370.5z"/>
				<path class="st9" d="M305.9,374.5c0-0.9,0-1.5-0.1-2.1h1.7l0.1,1.2h0.1c0.3-0.9,1.1-1.3,1.7-1.3c0.2,0,0.3,0,0.4,0v1.9
					c-0.1,0-0.3-0.1-0.5-0.1c-0.7,0-1.2,0.4-1.4,1c0,0.1,0,0.3,0,0.4v3.2h-2V374.5z"/>
				<path class="st9" d="M312.3,372.4l0.9,3.1c0.1,0.4,0.2,0.8,0.3,1.2h0c0.1-0.3,0.2-0.8,0.3-1.2l0.8-3.1h2.1l-1.5,4.2
					c-0.9,2.5-1.5,3.5-2.2,4.2c-0.7,0.6-1.4,0.8-1.9,0.9l-0.4-1.7c0.2,0,0.6-0.2,0.9-0.3c0.3-0.2,0.6-0.5,0.8-0.8
					c0.1-0.1,0.1-0.2,0.1-0.3c0-0.1,0-0.2-0.1-0.3l-2.3-5.8H312.3z"/>
			</g>
		</g>
		<g>
			<path class="st13" d="M269.9,395.9h45.6c3.1,0,5.7,2.5,5.7,5.7l0,0c0,3.1-2.5,5.7-5.7,5.7h-45.6V395.9z"/>
			<path class="st13" d="M269.9,415.5h35.7c3.1,0,5.7,2.5,5.7,5.7l0,0c0,3.1-2.5,5.7-5.7,5.7h-35.7V415.5z"/>
			<path class="st13" d="M269.9,435.1L269.9,435.1c1.3,0,2.4,1.1,2.4,2.4v6.5c0,1.3-1.1,2.4-2.4,2.4l0,0V435.1z"/>
			<path class="st13" d="M269.9,454.7h-9.2c-3.1,0-5.7,2.5-5.7,5.7v0c0,3.1,2.5,5.7,5.7,5.7h9.2V454.7z"/>
			<path class="st13" d="M269.9,474.3H76.2c-3.1,0-5.7,2.5-5.7,5.7v0c0,3.1,2.5,5.7,5.7,5.7h193.7V474.3z"/>
			<g>
				<g>
					<path class="st9" d="M282.5,473v3.9h4.8V473h0.6v8.8h-0.6v-4.4h-4.8v4.4h-0.6V473H282.5z"/>
					<path class="st9" d="M295.4,478.6c0,2.3-1.6,3.3-3,3.3c-1.6,0-2.9-1.3-2.9-3.2c0-2.1,1.4-3.3,3-3.3
						C294.2,475.4,295.4,476.7,295.4,478.6z M290.2,478.6c0,1.6,1,2.7,2.3,2.7c1.3,0,2.3-1.2,2.3-2.8c0-1.1-0.6-2.7-2.3-2.7
						C290.9,475.9,290.2,477.3,290.2,478.6z"/>
					<path class="st9" d="M297,477c0-0.6,0-1-0.1-1.5h0.6l0,1.1h0c0.3-0.7,1.1-1.3,2.1-1.3c0.6,0,2.2,0.3,2.2,2.6v3.7h-0.6V478
						c0-1.1-0.4-2.2-1.7-2.2c-0.9,0-1.6,0.6-1.9,1.4c0,0.2-0.1,0.4-0.1,0.6v3.9H297V477z"/>
					<path class="st9" d="M308.9,472.5v7.8c0,0.5,0,1,0.1,1.5h-0.6l-0.1-1.2h0c-0.3,0.7-1.1,1.3-2.2,1.3c-1.5,0-2.7-1.3-2.7-3.1
						c0-2.1,1.3-3.4,2.8-3.4c1.1,0,1.8,0.6,2,1.1h0v-4H308.9z M308.3,478c0-0.2,0-0.4-0.1-0.6c-0.2-0.8-0.9-1.5-2-1.5
						c-1.4,0-2.2,1.2-2.2,2.8c0,1.4,0.7,2.7,2.2,2.7c0.9,0,1.7-0.6,2-1.6c0.1-0.2,0.1-0.3,0.1-0.5V478z"/>
					<path class="st9" d="M315.8,480.2c0,0.5,0,1,0.1,1.5h-0.6l0-1.1h0c-0.3,0.6-1,1.3-2.1,1.3c-0.8,0-2.1-0.4-2.1-2.8v-3.6h0.6v3.5
						c0,1.4,0.4,2.3,1.7,2.3c0.9,0,1.6-0.6,1.8-1.3c0.1-0.2,0.1-0.4,0.1-0.7v-3.9h0.6V480.2z"/>
					<path class="st9" d="M317.9,477.4c0-0.6,0-1.3-0.1-1.9h0.6l0,1.3h0c0.3-0.8,0.9-1.4,1.8-1.4c0.1,0,0.2,0,0.3,0v0.6
						c-0.1,0-0.2,0-0.3,0c-0.9,0-1.5,0.7-1.6,1.7c0,0.2-0.1,0.4-0.1,0.6v3.4h-0.6V477.4z"/>
					<path class="st9" d="M325.6,480.3c0,0.5,0,1,0.1,1.5h-0.6l-0.1-0.9h0c-0.3,0.5-1,1-2,1c-1.3,0-1.8-0.9-1.8-1.7
						c0-1.4,1.3-2.3,3.8-2.3v-0.2c0-0.6-0.1-1.8-1.6-1.8c-0.5,0-1.1,0.1-1.6,0.5l-0.2-0.5c0.6-0.4,1.3-0.5,1.8-0.5
						c1.8,0,2.2,1.4,2.2,2.5V480.3z M325,478.4c-1.4,0-3.2,0.2-3.2,1.7c0,0.9,0.6,1.3,1.2,1.3c1,0,1.6-0.6,1.8-1.2
						c0.1-0.1,0.1-0.3,0.1-0.4V478.4z"/>
					<path class="st9" d="M327.4,480.9c0.3,0.2,0.8,0.4,1.4,0.4c1,0,1.5-0.5,1.5-1.2c0-0.7-0.4-1.1-1.3-1.4c-1-0.4-1.6-0.9-1.6-1.7
						c0-0.9,0.7-1.7,1.9-1.7c0.6,0,1.1,0.2,1.4,0.4l-0.2,0.5c-0.2-0.2-0.6-0.4-1.2-0.4c-0.8,0-1.2,0.5-1.2,1.1
						c0,0.6,0.4,0.9,1.3,1.3c1,0.4,1.6,0.9,1.6,1.8c0,1.1-0.8,1.8-2.1,1.8c-0.6,0-1.2-0.2-1.6-0.4L327.4,480.9z"/>
				</g>
			</g>
			<g>
				<g>
					<path class="st9" d="M288.4,461.8c-0.4,0.2-1.3,0.4-2.4,0.4c-2.1,0-4.1-1.4-4.1-4.5c0-2.6,1.7-4.6,4.4-4.6c1.1,0,1.8,0.2,2,0.4
						l-0.2,0.5c-0.4-0.2-1.1-0.4-1.8-0.4c-2.4,0-3.8,1.5-3.8,4.1c0,2.4,1.4,3.9,3.7,3.9c0.7,0,1.5-0.2,2-0.4L288.4,461.8z"/>
					<path class="st9" d="M295.2,459c0,2.3-1.6,3.3-3,3.3c-1.6,0-2.9-1.3-2.9-3.2c0-2.1,1.4-3.3,3-3.3
						C294,455.8,295.2,457.1,295.2,459z M290,459c0,1.6,1,2.7,2.3,2.7c1.3,0,2.3-1.2,2.3-2.8c0-1.1-0.6-2.7-2.3-2.7
						C290.7,456.3,290,457.7,290,459z"/>
					<path class="st9" d="M296.5,461.3c0.3,0.2,0.8,0.4,1.4,0.4c1,0,1.5-0.5,1.5-1.2c0-0.7-0.4-1.1-1.3-1.4c-1-0.4-1.6-0.9-1.6-1.7
						c0-0.9,0.7-1.7,1.9-1.7c0.6,0,1.1,0.2,1.4,0.4l-0.2,0.5c-0.2-0.2-0.6-0.4-1.2-0.4c-0.8,0-1.2,0.5-1.2,1.1
						c0,0.7,0.4,0.9,1.3,1.3c1,0.4,1.6,0.9,1.6,1.8c0,1.1-0.8,1.8-2.1,1.8c-0.6,0-1.2-0.2-1.6-0.4L296.5,461.3z"/>
					<path class="st9" d="M302.5,454.5v1.4h1.8v0.5h-1.8v4.1c0,0.8,0.2,1.3,0.9,1.3c0.3,0,0.6,0,0.7-0.1l0.1,0.5
						c-0.2,0.1-0.5,0.2-0.9,0.2c-0.5,0-0.8-0.1-1.1-0.4c-0.3-0.3-0.4-0.9-0.4-1.5v-3.9h-1.1v-0.5h1.1v-1.1L302.5,454.5z"/>
					<path class="st9" d="M309.5,460.7c0,0.5,0,1,0.1,1.5H309l-0.1-0.9h0c-0.3,0.5-1,1-2,1c-1.3,0-1.8-0.9-1.8-1.7
						c0-1.4,1.3-2.3,3.8-2.3v-0.2c0-0.6-0.1-1.8-1.6-1.8c-0.5,0-1.1,0.1-1.6,0.5l-0.2-0.5c0.6-0.4,1.3-0.5,1.8-0.5
						c1.8,0,2.2,1.4,2.2,2.5V460.7z M308.9,458.8c-1.4,0-3.2,0.2-3.2,1.7c0,0.9,0.6,1.3,1.2,1.3c1,0,1.6-0.6,1.8-1.2
						c0.1-0.1,0.1-0.3,0.1-0.4V458.8z"/>
					<path class="st9" d="M314.4,453.5c0.5-0.1,1.3-0.2,1.9-0.2c1.1,0,1.9,0.2,2.4,0.7c0.4,0.4,0.6,0.9,0.6,1.5
						c0,1.2-0.7,1.9-1.7,2.3v0c0.7,0.2,1.1,0.9,1.4,1.9c0.3,1.4,0.5,2,0.7,2.4h-0.6c-0.1-0.3-0.3-1-0.6-2.1c-0.3-1.3-0.8-1.8-2-1.9
						H315v4h-0.6V453.5z M315,457.6h1.4c1.4,0,2.2-0.8,2.2-1.9c0-1.3-1-1.9-2.4-1.9c-0.6,0-1,0.1-1.3,0.1V457.6z"/>
					<path class="st9" d="M321.8,454.1c0,0.3-0.2,0.5-0.5,0.5c-0.3,0-0.5-0.2-0.5-0.5c0-0.3,0.2-0.5,0.5-0.5
						C321.6,453.6,321.8,453.8,321.8,454.1z M321,462.1v-6.2h0.6v6.2H321z"/>
					<path class="st9" d="M328,461.9c-0.3,0.1-0.9,0.4-1.8,0.4c-1.8,0-3-1.3-3-3.2c0-2,1.4-3.3,3.2-3.3c0.8,0,1.4,0.2,1.6,0.4
						l-0.2,0.5c-0.3-0.2-0.8-0.4-1.5-0.4c-1.7,0-2.5,1.3-2.5,2.7c0,1.6,1,2.7,2.5,2.7c0.7,0,1.2-0.2,1.6-0.4L328,461.9z"/>
					<path class="st9" d="M333.4,460.7c0,0.5,0,1,0.1,1.5h-0.6l-0.1-0.9h0c-0.3,0.5-1,1-2,1c-1.3,0-1.8-0.9-1.8-1.7
						c0-1.4,1.3-2.3,3.8-2.3v-0.2c0-0.6-0.1-1.8-1.6-1.8c-0.5,0-1.1,0.1-1.6,0.5l-0.2-0.5c0.6-0.4,1.3-0.5,1.8-0.5
						c1.8,0,2.2,1.4,2.2,2.5V460.7z M332.7,458.8c-1.4,0-3.2,0.2-3.2,1.7c0,0.9,0.6,1.3,1.2,1.3c1,0,1.6-0.6,1.8-1.2
						c0.1-0.1,0.1-0.3,0.1-0.4V458.8z"/>
				</g>
			</g>
			<g>
				<g>
					<path class="st9" d="M207.2,442.2c-0.4,0.2-1.4,0.5-2.6,0.5c-1.2,0-2.2-0.3-3.1-1.1c-0.7-0.7-1.2-1.9-1.2-3.3
						c0-2.4,1.6-4.5,4.6-4.5c0.9,0,1.7,0.2,2,0.4l-0.2,0.5c-0.5-0.2-1-0.4-1.9-0.4c-2.4,0-3.9,1.6-3.9,3.9c0,2.5,1.4,3.9,3.8,3.9
						c0.9,0,1.5-0.1,1.8-0.3v-3.1h-2v-0.5h2.7V442.2z"/>
					<path class="st9" d="M213.8,441c0,0.5,0,1,0.1,1.5h-0.6l0-1.1h0c-0.3,0.6-1,1.3-2.1,1.3c-0.8,0-2.1-0.4-2.1-2.8v-3.6h0.6v3.5
						c0,1.4,0.4,2.3,1.7,2.3c0.9,0,1.6-0.6,1.8-1.3c0.1-0.2,0.1-0.4,0.1-0.7v-3.9h0.6V441z"/>
					<path class="st9" d="M219.8,441.1c0,0.5,0,1,0.1,1.5h-0.6l-0.1-0.9h0c-0.3,0.5-1,1-2,1c-1.3,0-1.8-0.9-1.8-1.7
						c0-1.4,1.3-2.3,3.8-2.3v-0.2c0-0.6-0.1-1.8-1.6-1.8c-0.5,0-1.1,0.1-1.6,0.5l-0.2-0.5c0.6-0.4,1.3-0.5,1.8-0.5
						c1.8,0,2.2,1.4,2.2,2.5V441.1z M219.1,439.2c-1.4,0-3.2,0.2-3.2,1.7c0,0.9,0.6,1.3,1.2,1.3c1,0,1.6-0.6,1.8-1.2
						c0.1-0.1,0.1-0.3,0.1-0.4V439.2z"/>
					<path class="st9" d="M222.6,434.9v1.4h1.8v0.5h-1.8v4.1c0,0.8,0.2,1.3,0.9,1.3c0.3,0,0.6,0,0.7-0.1l0.1,0.5
						c-0.2,0.1-0.5,0.2-0.9,0.2c-0.5,0-0.8-0.1-1.1-0.4c-0.3-0.3-0.4-0.9-0.4-1.5v-3.9H221v-0.5h1.1v-1.1L222.6,434.9z"/>
					<path class="st9" d="M225.9,439.4c0,2,1.1,2.8,2.4,2.8c0.9,0,1.4-0.2,1.7-0.4l0.2,0.5c-0.2,0.1-0.9,0.4-2,0.4
						c-1.8,0-2.9-1.3-2.9-3.1c0-2.1,1.2-3.4,2.8-3.4c2,0,2.4,1.9,2.4,2.8c0,0.2,0,0.3,0,0.4H225.9z M229.9,438.9
						c0-0.9-0.4-2.2-1.9-2.2c-1.4,0-2,1.2-2.1,2.2H229.9z"/>
					<path class="st9" d="M232.1,437.8c0-0.6,0-1-0.1-1.5h0.6l0,1.1h0c0.4-0.7,1-1.2,2-1.2c0.9,0,1.5,0.6,1.8,1.4h0
						c0.2-0.4,0.4-0.6,0.6-0.8c0.4-0.3,0.8-0.5,1.5-0.5c0.6,0,2,0.3,2,2.7v3.7h-0.6v-3.6c0-1.4-0.5-2.2-1.6-2.2
						c-0.8,0-1.4,0.6-1.6,1.2c-0.1,0.2-0.1,0.4-0.1,0.6v4h-0.6v-3.9c0-1.1-0.5-2-1.5-2c-0.8,0-1.5,0.7-1.7,1.4
						c-0.1,0.2-0.1,0.4-0.1,0.6v3.8h-0.6V437.8z"/>
					<path class="st9" d="M246.6,441.1c0,0.5,0,1,0.1,1.5h-0.6l-0.1-0.9h0c-0.3,0.5-1,1-2,1c-1.3,0-1.8-0.9-1.8-1.7
						c0-1.4,1.3-2.3,3.8-2.3v-0.2c0-0.6-0.1-1.8-1.6-1.8c-0.5,0-1.1,0.1-1.6,0.5l-0.2-0.5c0.6-0.4,1.3-0.5,1.8-0.5
						c1.8,0,2.2,1.4,2.2,2.5V441.1z M246,439.2c-1.4,0-3.2,0.2-3.2,1.7c0,0.9,0.6,1.3,1.2,1.3c1,0,1.6-0.6,1.8-1.2
						c0.1-0.1,0.1-0.3,0.1-0.4V439.2z"/>
					<path class="st9" d="M248.7,433.3h0.6v9.2h-0.6V433.3z"/>
					<path class="st9" d="M255.3,441.1c0,0.5,0,1,0.1,1.5h-0.6l-0.1-0.9h0c-0.3,0.5-1,1-2,1c-1.3,0-1.8-0.9-1.8-1.7
						c0-1.4,1.3-2.3,3.8-2.3v-0.2c0-0.6-0.1-1.8-1.6-1.8c-0.5,0-1.1,0.1-1.6,0.5l-0.2-0.5c0.6-0.4,1.3-0.5,1.8-0.5
						c1.8,0,2.2,1.4,2.2,2.5V441.1z M254.7,439.2c-1.4,0-3.2,0.2-3.2,1.7c0,0.9,0.6,1.3,1.2,1.3c1,0,1.6-0.6,1.8-1.2
						c0.1-0.1,0.1-0.3,0.1-0.4V439.2z"/>
				</g>
			</g>
			<g>
				<g>
					<path class="st9" d="M204.8,418.6h-3.5v3.8h3.9v0.5h-4.5v-8.8h4.3v0.5h-3.7v3.4h3.5V418.6z"/>
					<path class="st9" d="M206.7,413.7h0.6v9.2h-0.6V413.7z"/>
					<path class="st9" d="M212.1,422c0.5,0.3,1.2,0.6,1.9,0.6c1.3,0,2.1-0.7,2.1-1.8c0-1-0.5-1.6-1.8-2.1c-1.4-0.5-2.2-1.2-2.2-2.4
						c0-1.3,1.1-2.2,2.5-2.2c0.8,0,1.4,0.2,1.7,0.4l-0.2,0.5c-0.2-0.2-0.8-0.4-1.5-0.4c-1.4,0-1.9,0.9-1.9,1.6c0,1,0.6,1.5,1.8,2
						c1.4,0.6,2.2,1.2,2.2,2.5c0,1.3-0.9,2.4-2.8,2.4c-0.8,0-1.6-0.2-2.1-0.6L212.1,422z"/>
					<path class="st9" d="M222.3,421.5c0,0.5,0,1,0.1,1.5h-0.6l-0.1-0.9h0c-0.3,0.5-1,1-2,1c-1.3,0-1.8-0.9-1.8-1.7
						c0-1.4,1.3-2.3,3.8-2.3v-0.2c0-0.6-0.1-1.8-1.6-1.8c-0.5,0-1.1,0.1-1.6,0.5l-0.2-0.5c0.6-0.4,1.3-0.5,1.8-0.5
						c1.8,0,2.2,1.4,2.2,2.5V421.5z M221.6,419.6c-1.4,0-3.2,0.2-3.2,1.7c0,0.9,0.6,1.3,1.2,1.3c1,0,1.6-0.6,1.8-1.2
						c0.1-0.1,0.1-0.3,0.1-0.4V419.6z"/>
					<path class="st9" d="M224.3,413.7h0.6v9.2h-0.6V413.7z"/>
					<path class="st9" d="M226.8,416.7l1.5,3.9c0.2,0.6,0.4,1.1,0.6,1.7h0c0.2-0.5,0.4-1.1,0.6-1.7l1.5-3.9h0.6l-2.5,6.2h-0.5
						l-2.4-6.2H226.8z"/>
					<path class="st9" d="M236.8,421.5c0,0.5,0,1,0.1,1.5h-0.6l-0.1-0.9h0c-0.3,0.5-1,1-2,1c-1.3,0-1.8-0.9-1.8-1.7
						c0-1.4,1.3-2.3,3.8-2.3v-0.2c0-0.6-0.1-1.8-1.6-1.8c-0.5,0-1.1,0.1-1.6,0.5l-0.2-0.5c0.6-0.4,1.3-0.5,1.8-0.5
						c1.8,0,2.2,1.4,2.2,2.5V421.5z M236.2,419.6c-1.4,0-3.2,0.2-3.2,1.7c0,0.9,0.6,1.3,1.2,1.3c1,0,1.6-0.6,1.8-1.2
						c0.1-0.1,0.1-0.3,0.1-0.4V419.6z"/>
					<path class="st9" d="M243.8,413.7v7.8c0,0.5,0,1,0.1,1.5h-0.6l-0.1-1.2h0c-0.3,0.7-1.1,1.3-2.2,1.3c-1.5,0-2.7-1.3-2.7-3.1
						c0-2.1,1.3-3.4,2.8-3.4c1.1,0,1.8,0.6,2,1.1h0v-4H243.8z M243.2,419.2c0-0.2,0-0.4-0.1-0.6c-0.2-0.8-0.9-1.5-2-1.5
						c-1.4,0-2.2,1.2-2.2,2.8c0,1.4,0.7,2.7,2.2,2.7c0.9,0,1.7-0.6,2-1.6c0.1-0.2,0.1-0.3,0.1-0.5V419.2z"/>
					<path class="st9" d="M251.2,419.8c0,2.3-1.6,3.3-3,3.3c-1.6,0-2.9-1.3-2.9-3.2c0-2.1,1.4-3.3,3-3.3
						C250,416.6,251.2,417.9,251.2,419.8z M246,419.8c0,1.6,1,2.7,2.3,2.7c1.3,0,2.3-1.2,2.3-2.8c0-1.1-0.6-2.7-2.3-2.7
						C246.7,417.1,246,418.5,246,419.8z"/>
					<path class="st9" d="M252.8,418.6c0-0.6,0-1.3-0.1-1.9h0.6l0,1.3h0c0.3-0.8,0.9-1.4,1.8-1.4c0.1,0,0.2,0,0.3,0v0.6
						c-0.1,0-0.2,0-0.3,0c-0.9,0-1.5,0.7-1.6,1.7c0,0.2-0.1,0.4-0.1,0.6v3.4h-0.6V418.6z"/>
				</g>
			</g>
			<g>
				<g>
					<path class="st9" d="M205,403.3v-8.8h0.6l3.4,5.2c0.7,1.1,1.2,1.9,1.7,2.8l0,0c-0.1-1.2-0.1-2.2-0.1-3.6v-4.4h0.6v8.8h-0.6
						l-3.3-5.1c-0.6-1-1.2-1.9-1.7-2.8l0,0c0.1,1.1,0.1,2,0.1,3.5v4.4H205z"/>
					<path class="st9" d="M214.1,395.3c0,0.3-0.2,0.5-0.5,0.5c-0.3,0-0.5-0.2-0.5-0.5s0.2-0.5,0.5-0.5
						C213.9,394.8,214.1,395,214.1,395.3z M213.3,403.3v-6.2h0.6v6.2H213.3z"/>
					<path class="st9" d="M220.3,403.1c-0.3,0.1-0.9,0.4-1.8,0.4c-1.8,0-3-1.3-3-3.2c0-2,1.4-3.3,3.2-3.3c0.8,0,1.4,0.2,1.6,0.4
						l-0.2,0.5c-0.3-0.2-0.8-0.4-1.5-0.4c-1.7,0-2.5,1.3-2.5,2.7c0,1.6,1,2.7,2.5,2.7c0.7,0,1.2-0.2,1.6-0.4L220.3,403.1z"/>
					<path class="st9" d="M225.7,401.9c0,0.5,0,1,0.1,1.5h-0.6l-0.1-0.9h0c-0.3,0.5-1,1-2,1c-1.3,0-1.8-0.9-1.8-1.7
						c0-1.4,1.3-2.3,3.8-2.3v-0.2c0-0.6-0.1-1.8-1.6-1.8c-0.5,0-1.1,0.1-1.6,0.5l-0.2-0.5c0.6-0.4,1.3-0.5,1.8-0.5
						c1.8,0,2.2,1.4,2.2,2.5V401.9z M225.1,400c-1.4,0-3.2,0.2-3.2,1.7c0,0.9,0.6,1.3,1.2,1.3c1,0,1.6-0.6,1.8-1.2
						c0.1-0.1,0.1-0.3,0.1-0.4V400z"/>
					<path class="st9" d="M227.7,399c0-0.6,0-1.3-0.1-1.9h0.6l0,1.3h0c0.3-0.8,0.9-1.4,1.8-1.4c0.1,0,0.2,0,0.3,0v0.6
						c-0.1,0-0.2,0-0.3,0c-0.9,0-1.5,0.7-1.6,1.7c0,0.2-0.1,0.4-0.1,0.6v3.4h-0.6V399z"/>
					<path class="st9" d="M235.4,401.9c0,0.5,0,1,0.1,1.5h-0.6l-0.1-0.9h0c-0.3,0.5-1,1-2,1c-1.3,0-1.8-0.9-1.8-1.7
						c0-1.4,1.3-2.3,3.8-2.3v-0.2c0-0.6-0.1-1.8-1.6-1.8c-0.5,0-1.1,0.1-1.6,0.5l-0.2-0.5c0.6-0.4,1.3-0.5,1.8-0.5
						c1.8,0,2.2,1.4,2.2,2.5V401.9z M234.8,400c-1.4,0-3.2,0.2-3.2,1.7c0,0.9,0.6,1.3,1.2,1.3c1,0,1.6-0.6,1.8-1.2
						c0.1-0.1,0.1-0.3,0.1-0.4V400z"/>
					<path class="st9" d="M242.4,402.4c0,1.6-0.3,2.4-0.9,2.9c-0.6,0.5-1.4,0.7-2.1,0.7c-0.7,0-1.5-0.2-2-0.5l0.2-0.5
						c0.4,0.3,1.1,0.5,1.9,0.5c1.3,0,2.3-0.7,2.3-2.5v-0.9h0c-0.3,0.6-1.1,1.2-2.2,1.2c-1.6,0-2.7-1.4-2.7-3.1
						c0-2.2,1.4-3.3,2.8-3.3c1.2,0,1.8,0.7,2.1,1.2h0l0-1.1h0.6c0,0.5-0.1,1-0.1,1.6V402.4z M241.8,399.5c0-0.2,0-0.4-0.1-0.6
						c-0.3-0.8-0.9-1.4-1.9-1.4c-1.3,0-2.2,1.1-2.2,2.7c0,1.4,0.7,2.6,2.2,2.6c0.8,0,1.6-0.5,1.9-1.4c0.1-0.2,0.1-0.4,0.1-0.7V399.5
						z"/>
					<path class="st9" d="M249.3,401.8c0,0.5,0,1,0.1,1.5h-0.6l0-1.1h0c-0.3,0.6-1,1.3-2.1,1.3c-0.8,0-2.1-0.4-2.1-2.8v-3.6h0.6v3.5
						c0,1.4,0.4,2.3,1.7,2.3c0.9,0,1.6-0.6,1.8-1.3c0.1-0.2,0.1-0.4,0.1-0.7v-3.9h0.6V401.8z"/>
					<path class="st9" d="M255.3,401.9c0,0.5,0,1,0.1,1.5h-0.6l-0.1-0.9h0c-0.3,0.5-1,1-2,1c-1.3,0-1.8-0.9-1.8-1.7
						c0-1.4,1.3-2.3,3.8-2.3v-0.2c0-0.6-0.1-1.8-1.6-1.8c-0.5,0-1.1,0.1-1.6,0.5l-0.2-0.5c0.6-0.4,1.3-0.5,1.8-0.5
						c1.8,0,2.2,1.4,2.2,2.5V401.9z M254.7,400c-1.4,0-3.2,0.2-3.2,1.7c0,0.9,0.6,1.3,1.2,1.3c1,0,1.6-0.6,1.8-1.2
						c0.1-0.1,0.1-0.3,0.1-0.4V400z"/>
				</g>
			</g>
			<line class="st14" x1="269.9" y1="489.8" x2="269.9" y2="391.8"/>
		</g>
	</g>
	<g>
		<path class="st9" d="M563.5,521.2l-0.9,1.2v0l1.5-0.1v0.5l-1.4-0.1v0l0.9,1.2l-0.5,0.3l-0.6-1.3h0l-0.7,1.3l-0.4-0.3l0.9-1.2v0
			l-1.4,0.1v-0.5l1.4,0.1v0l-0.9-1.2l0.4-0.3l0.7,1.3h0l0.6-1.3L563.5,521.2z"/>
		<path class="st9" d="M565.2,525.3c0,1.5,0.8,2.1,1.8,2.1c0.7,0,1.1-0.1,1.3-0.3l0.1,0.4c-0.2,0.1-0.7,0.3-1.5,0.3
			c-1.4,0-2.2-1-2.2-2.4c0-1.6,0.9-2.6,2.2-2.6c1.6,0,1.9,1.5,1.9,2.2c0,0.1,0,0.2,0,0.3H565.2z M568.3,524.9c0-0.7-0.3-1.7-1.4-1.7
			c-1.1,0-1.5,0.9-1.6,1.7H568.3z"/>
		<path class="st9" d="M574.6,527.5c-0.3,0.2-1,0.3-1.8,0.3c-1.6,0-3.2-1-3.2-3.4c0-2,1.3-3.5,3.4-3.5c0.9,0,1.4,0.2,1.6,0.3
			l-0.2,0.4c-0.3-0.2-0.8-0.3-1.4-0.3c-1.8,0-2.9,1.2-2.9,3.1c0,1.8,1,3,2.8,3c0.6,0,1.1-0.1,1.5-0.3L574.6,527.5z"/>
		<path class="st9" d="M579.8,525.3c0,1.8-1.2,2.6-2.3,2.6c-1.2,0-2.2-1-2.2-2.5c0-1.6,1.1-2.5,2.3-2.5
			C578.9,522.9,579.8,523.9,579.8,525.3z M575.8,525.4c0,1.2,0.8,2.1,1.7,2.1c1,0,1.8-0.9,1.8-2.1c0-0.9-0.5-2.1-1.8-2.1
			C576.3,523.3,575.8,524.3,575.8,525.4z"/>
		<path class="st9" d="M581,524.1c0-0.4,0-0.8,0-1.1h0.4l0,0.8h0c0.3-0.5,0.8-1,1.6-1c0.7,0,1.2,0.4,1.4,1h0
			c0.1-0.3,0.3-0.5,0.5-0.7c0.3-0.3,0.6-0.4,1.1-0.4c0.5,0,1.6,0.3,1.6,2.1v2.8h-0.5V525c0-1.1-0.4-1.7-1.2-1.7
			c-0.6,0-1.1,0.4-1.3,0.9c0,0.1-0.1,0.3-0.1,0.5v3.1h-0.5v-3c0-0.9-0.4-1.5-1.2-1.5c-0.6,0-1.1,0.5-1.3,1.1c0,0.1-0.1,0.3-0.1,0.5
			v3H581V524.1z"/>
		<path class="st9" d="M589.2,524.1c0-0.4,0-0.8,0-1.1h0.5l0,0.8h0c0.3-0.5,0.8-1,1.6-1c0.7,0,1.2,0.4,1.4,1h0
			c0.1-0.3,0.3-0.5,0.5-0.7c0.3-0.3,0.6-0.4,1.1-0.4c0.5,0,1.6,0.3,1.6,2.1v2.8h-0.5V525c0-1.1-0.4-1.7-1.2-1.7
			c-0.6,0-1.1,0.4-1.3,0.9c0,0.1-0.1,0.3-0.1,0.5v3.1h-0.5v-3c0-0.9-0.4-1.5-1.2-1.5c-0.6,0-1.1,0.5-1.3,1.1c0,0.1-0.1,0.3-0.1,0.5
			v3h-0.5V524.1z"/>
		<path class="st9" d="M597.5,525.3c0,1.5,0.8,2.1,1.8,2.1c0.7,0,1.1-0.1,1.3-0.3l0.1,0.4c-0.2,0.1-0.7,0.3-1.5,0.3
			c-1.4,0-2.2-1-2.2-2.4c0-1.6,0.9-2.6,2.2-2.6c1.6,0,1.9,1.5,1.9,2.2c0,0.1,0,0.2,0,0.3H597.5z M600.5,524.9c0-0.7-0.3-1.7-1.4-1.7
			c-1.1,0-1.5,0.9-1.6,1.7H600.5z"/>
		<path class="st9" d="M602.2,524.4c0-0.5,0-1,0-1.4h0.4l0,1h0c0.2-0.6,0.7-1.1,1.4-1.1c0.1,0,0.1,0,0.2,0v0.5c-0.1,0-0.1,0-0.2,0
			c-0.7,0-1.1,0.6-1.3,1.3c0,0.1,0,0.3,0,0.5v2.6h-0.5V524.4z"/>
		<path class="st9" d="M608.5,527.5c-0.2,0.1-0.7,0.3-1.4,0.3c-1.4,0-2.3-1-2.3-2.4c0-1.5,1-2.6,2.5-2.6c0.6,0,1.1,0.2,1.3,0.3
			l-0.2,0.4c-0.2-0.1-0.6-0.3-1.1-0.3c-1.3,0-1.9,1-1.9,2.1c0,1.3,0.8,2.1,1.9,2.1c0.6,0,0.9-0.2,1.2-0.3L608.5,527.5z"/>
		<path class="st9" d="M609.7,525.3c0,1.5,0.8,2.1,1.8,2.1c0.7,0,1.1-0.1,1.3-0.3l0.1,0.4c-0.2,0.1-0.7,0.3-1.5,0.3
			c-1.4,0-2.2-1-2.2-2.4c0-1.6,0.9-2.6,2.2-2.6c1.6,0,1.9,1.5,1.9,2.2c0,0.1,0,0.2,0,0.3H609.7z M612.8,524.9c0-0.7-0.3-1.7-1.4-1.7
			c-1.1,0-1.5,0.9-1.6,1.7H612.8z"/>
		<path class="st9" d="M616.5,527.1c0.3,0.2,0.6,0.3,1.1,0.3c0.8,0,1.1-0.4,1.1-0.9c0-0.5-0.3-0.8-1-1.1c-0.8-0.3-1.2-0.7-1.2-1.3
			c0-0.7,0.5-1.3,1.5-1.3c0.4,0,0.8,0.1,1.1,0.3l-0.2,0.4c-0.2-0.1-0.5-0.3-1-0.3c-0.6,0-0.9,0.4-0.9,0.8c0,0.5,0.3,0.7,1,1
			c0.8,0.3,1.2,0.7,1.2,1.4c0,0.8-0.6,1.4-1.6,1.4c-0.5,0-0.9-0.1-1.2-0.3L616.5,527.1z"/>
		<path class="st9" d="M623.4,526.6c0,0.4,0,0.8,0.1,1.1h-0.4l-0.1-0.7h0c-0.2,0.4-0.8,0.8-1.5,0.8c-1,0-1.4-0.7-1.4-1.3
			c0-1.1,1-1.8,2.9-1.8v-0.1c0-0.5-0.1-1.4-1.2-1.4c-0.4,0-0.9,0.1-1.2,0.4l-0.1-0.3c0.4-0.3,1-0.4,1.4-0.4c1.4,0,1.7,1,1.7,1.9
			V526.6z M622.9,525.2c-1,0-2.4,0.1-2.4,1.3c0,0.7,0.5,1,1,1c0.8,0,1.3-0.5,1.4-1c0-0.1,0.1-0.2,0.1-0.3V525.2z"/>
		<path class="st9" d="M625,520.7h0.5v7.1H625V520.7z"/>
		<path class="st9" d="M627.2,525.3c0,1.5,0.8,2.1,1.8,2.1c0.7,0,1.1-0.1,1.3-0.3l0.1,0.4c-0.2,0.1-0.7,0.3-1.5,0.3
			c-1.4,0-2.2-1-2.2-2.4c0-1.6,0.9-2.6,2.2-2.6c1.6,0,1.9,1.5,1.9,2.2c0,0.1,0,0.2,0,0.3H627.2z M630.2,524.9c0-0.7-0.3-1.7-1.4-1.7
			c-1.1,0-1.5,0.9-1.6,1.7H630.2z"/>
		<path class="st9" d="M631.7,527.1c0.3,0.2,0.6,0.3,1.1,0.3c0.8,0,1.1-0.4,1.1-0.9c0-0.5-0.3-0.8-1-1.1c-0.8-0.3-1.2-0.7-1.2-1.3
			c0-0.7,0.5-1.3,1.5-1.3c0.4,0,0.8,0.1,1.1,0.3l-0.2,0.4c-0.2-0.1-0.5-0.3-1-0.3c-0.6,0-0.9,0.4-0.9,0.8c0,0.5,0.3,0.7,1,1
			c0.8,0.3,1.2,0.7,1.2,1.4c0,0.8-0.6,1.4-1.6,1.4c-0.5,0-0.9-0.1-1.2-0.3L631.7,527.1z"/>
		<path class="st9" d="M638.5,521.6c0,0.2-0.2,0.4-0.4,0.4c-0.2,0-0.4-0.2-0.4-0.4c0-0.2,0.2-0.4,0.4-0.4S638.5,521.4,638.5,521.6z
			 M637.9,527.8V523h0.5v4.8H637.9z"/>
		<path class="st9" d="M640,524.1c0-0.4,0-0.8,0-1.1h0.4l0,0.9h0c0.3-0.5,0.9-1,1.6-1c0.5,0,1.7,0.2,1.7,2v2.9h-0.5v-2.8
			c0-0.9-0.3-1.7-1.3-1.7c-0.7,0-1.2,0.5-1.4,1.1c0,0.1-0.1,0.3-0.1,0.4v3H640V524.1z"/>
		<path class="st9" d="M648.6,527.5c-0.2,0.1-0.7,0.3-1.4,0.3c-1.4,0-2.3-1-2.3-2.4c0-1.5,1-2.6,2.5-2.6c0.6,0,1.1,0.2,1.3,0.3
			l-0.2,0.4c-0.2-0.1-0.6-0.3-1.1-0.3c-1.3,0-1.9,1-1.9,2.1c0,1.3,0.8,2.1,1.9,2.1c0.6,0,0.9-0.2,1.2-0.3L648.6,527.5z"/>
		<path class="st9" d="M649.8,520.7h0.5v7.1h-0.5V520.7z"/>
		<path class="st9" d="M655.6,526.6c0,0.4,0,0.8,0,1.2h-0.4l0-0.9h0c-0.2,0.5-0.8,1-1.6,1c-0.6,0-1.6-0.3-1.6-2.1V523h0.5v2.7
			c0,1,0.3,1.8,1.3,1.8c0.7,0,1.2-0.5,1.4-1c0-0.1,0.1-0.3,0.1-0.5v-3h0.5V526.6z"/>
		<path class="st9" d="M661,520.7v6c0,0.4,0,0.8,0,1.1h-0.4l0-0.9h0c-0.2,0.5-0.8,1-1.7,1c-1.2,0-2.1-1-2.1-2.4c0-1.6,1-2.6,2.2-2.6
			c0.8,0,1.4,0.4,1.6,0.8h0v-3H661z M660.6,524.9c0-0.1,0-0.3,0-0.4c-0.2-0.6-0.7-1.2-1.5-1.2c-1,0-1.7,0.9-1.7,2.1
			c0,1.1,0.5,2.1,1.7,2.1c0.7,0,1.3-0.5,1.5-1.2c0-0.1,0-0.2,0-0.4V524.9z"/>
		<path class="st9" d="M662.7,525.3c0,1.5,0.8,2.1,1.8,2.1c0.7,0,1.1-0.1,1.3-0.3l0.1,0.4c-0.2,0.1-0.7,0.3-1.5,0.3
			c-1.4,0-2.2-1-2.2-2.4c0-1.6,0.9-2.6,2.2-2.6c1.6,0,1.9,1.5,1.9,2.2c0,0.1,0,0.2,0,0.3H662.7z M665.8,524.9c0-0.7-0.3-1.7-1.4-1.7
			c-1.1,0-1.5,0.9-1.6,1.7H665.8z"/>
		<path class="st9" d="M671.3,520.7v6c0,0.4,0,0.8,0,1.1h-0.4l0-0.9h0c-0.2,0.5-0.8,1-1.7,1c-1.2,0-2.1-1-2.1-2.4
			c0-1.6,1-2.6,2.2-2.6c0.8,0,1.4,0.4,1.6,0.8h0v-3H671.3z M670.8,524.9c0-0.1,0-0.3,0-0.4c-0.2-0.6-0.7-1.2-1.5-1.2
			c-1,0-1.7,0.9-1.7,2.1c0,1.1,0.5,2.1,1.7,2.1c0.7,0,1.3-0.5,1.5-1.2c0-0.1,0-0.2,0-0.4V524.9z"/>
		<path class="st9" d="M672.7,527.4c0-0.3,0.2-0.4,0.4-0.4s0.4,0.2,0.4,0.4c0,0.2-0.2,0.5-0.4,0.5
			C672.8,527.9,672.7,527.7,672.7,527.4z"/>
	</g>
</g>
</svg>
